<svg xmlns="http://www.w3.org/2000/svg" width="50" height="50" viewBox="0 0 50 50">
    <g fill="none" fill-rule="evenodd" stroke="#000" stroke-linecap="square">
        <path d="M37.211 44.865c-.804 0-1.413-1.167-2.14-1.403-.75-.244-1.929.334-2.554-.122-.633-.46-.445-1.761-.905-2.394-.455-.625-1.753-.847-1.998-1.598-.235-.726.677-1.665.677-2.469 0-.803-.912-1.743-.677-2.468.245-.752 1.543-.973 1.998-1.599.46-.632.272-1.934.905-2.393.625-.456 1.804.122 2.555-.122.726-.236 1.335-1.403 2.14-1.403.803 0 1.413 1.167 2.138 1.403.752.244 1.93-.334 2.556.122.632.46.444 1.761.904 2.394.455.625 1.754.846 1.998 1.598.235.725-.677 1.665-.677 2.468 0 .804.912 1.743.677 2.469-.245.751-1.543.973-1.998 1.599-.46.632-.272 1.933-.904 2.393-.626.456-1.804-.122-2.556.122-.725.236-1.335 1.403-2.139 1.403zM40.157 33.934L34.265 39.825"/>
        <path d="M36.112 34.917c0 .477-.387.863-.864.863-.476 0-.863-.386-.863-.863s.387-.863.863-.863c.477 0 .864.386.864.863zM39.174 37.979c-.477 0-.864.386-.864.863 0 .476.387.863.864.863.476 0 .863-.387.863-.863 0-.477-.387-.863-.863-.863z"/>
        <path d="M37.211 25.127c-6.49 0-11.753 5.262-11.753 11.752 0 2.478.769 4.774 2.078 6.67l-1.853 4.894 4.903-1.857c1.886 1.29 4.167 2.046 6.625 2.046 6.49 0 11.753-5.262 11.753-11.753 0-6.49-5.262-11.752-11.753-11.752z"/>
        <path d="M40.998 23.127V11.382c0-.764-.62-1.382-1.382-1.382H2.382C1.618 10 1 10.618 1 11.382v22.074c0 .764.618 1.383 1.382 1.383h20.352M1 15.189L40.998 15.189M1 20.473L37.556 20.473"/>
        <path d="M8.456 29.425c0 1.068-.866 1.934-1.934 1.934s-1.933-.866-1.933-1.934c0-1.067.865-1.933 1.933-1.933s1.934.866 1.934 1.933zM11.361 31.359L13.449 31.359M11.361 27.492L19.22 27.492M16.291 31.359L21.192 31.359"/>
    </g>
</svg>
