<?xml version="1.0" encoding="UTF-8"?>
<svg width="2000px" height="1527px" viewBox="0 0 2000 1527" version="1.1" xmlns="http://www.w3.org/2000/svg" xmlns:xlink="http://www.w3.org/1999/xlink">
    <!-- Generator: Sketch 64 (93537) - https://sketch.com -->
    <title>sort_default_card</title>
    <desc>Created with Sketch.</desc>
    <defs>
        <linearGradient x1="50%" y1="109.306549%" x2="50%" y2="-54.4707924%" id="linearGradient-1">
            <stop stop-color="#D2D4CD" offset="0.07202738%"></stop>
            <stop stop-color="#9DC2BC" offset="34%"></stop>
            <stop stop-color="#4596AB" offset="96.93%"></stop>
        </linearGradient>
        <linearGradient x1="50%" y1="108.123427%" x2="50%" y2="-301.752988%" id="linearGradient-2">
            <stop stop-color="#D2D4CD" offset="0.07202738%"></stop>
            <stop stop-color="#9DC2BC" offset="19.51%"></stop>
            <stop stop-color="#4596AB" offset="100%"></stop>
        </linearGradient>
        <linearGradient x1="50%" y1="81.2923703%" x2="50%" y2="43.287324%" id="linearGradient-3">
            <stop stop-color="#DBD8CD" offset="0%"></stop>
            <stop stop-color="#93B8B3" offset="100%"></stop>
        </linearGradient>
        <linearGradient x1="50.2062576%" y1="96.8817638%" x2="50.2062576%" y2="37.6478653%" id="linearGradient-4">
            <stop stop-color="#DBD8CD" offset="0%"></stop>
            <stop stop-color="#93B8B3" offset="99.3174719%"></stop>
            <stop stop-color="#93B8B3" offset="100%"></stop>
        </linearGradient>
        <linearGradient x1="50%" y1="115.676057%" x2="50%" y2="33.4717086%" id="linearGradient-5">
            <stop stop-color="#DBD8CD" offset="0%"></stop>
            <stop stop-color="#93B8B3" offset="100%"></stop>
        </linearGradient>
        <linearGradient x1="50%" y1="482.884699%" x2="50%" y2="21.4482261%" id="linearGradient-6">
            <stop stop-color="#DBD8CD" offset="0%"></stop>
            <stop stop-color="#93B8B3" offset="100%"></stop>
        </linearGradient>
        <linearGradient x1="49.9550519%" y1="69.9840889%" x2="50%" y2="49.14006%" id="linearGradient-7">
            <stop stop-color="#DBD8CD" offset="0%"></stop>
            <stop stop-color="#93B8B3" offset="100%"></stop>
        </linearGradient>
        <linearGradient x1="48.2666667%" y1="47.8208865%" x2="50%" y2="77.0955557%" id="linearGradient-8">
            <stop stop-color="#F2E2D0" offset="0%"></stop>
            <stop stop-color="#A0E2D0" offset="22.4442264%"></stop>
            <stop stop-color="#39A9BB" offset="70.8335004%"></stop>
            <stop stop-color="#445DCE" offset="100%"></stop>
        </linearGradient>
        <linearGradient x1="48.2666667%" y1="47.124729%" x2="50%" y2="85.7517232%" id="linearGradient-9">
            <stop stop-color="#F2E2D0" offset="0%"></stop>
            <stop stop-color="#A0E2D0" offset="22.4442264%"></stop>
            <stop stop-color="#39A9BB" offset="70.8335004%"></stop>
            <stop stop-color="#445DCE" offset="100%"></stop>
        </linearGradient>
        <linearGradient x1="48.2666667%" y1="45.6749309%" x2="50%" y2="103.778818%" id="linearGradient-10">
            <stop stop-color="#F2E2D0" offset="0%"></stop>
            <stop stop-color="#A0E2D0" offset="22.4442264%"></stop>
            <stop stop-color="#39A9BB" offset="70.8335004%"></stop>
            <stop stop-color="#445DCE" offset="100%"></stop>
        </linearGradient>
        <linearGradient x1="48.2666667%" y1="42.1268268%" x2="50%" y2="147.89669%" id="linearGradient-11">
            <stop stop-color="#F2E2D0" offset="0%"></stop>
            <stop stop-color="#A0E2D0" offset="22.4442264%"></stop>
            <stop stop-color="#39A9BB" offset="70.8335004%"></stop>
            <stop stop-color="#445DCE" offset="100%"></stop>
        </linearGradient>
        <linearGradient x1="50%" y1="0.034512448%" x2="100%" y2="915.00466%" id="linearGradient-12">
            <stop stop-color="#F2E2D0" offset="0%"></stop>
            <stop stop-color="#A0E2D0" offset="75.4479806%"></stop>
            <stop stop-color="#39A9BB" offset="90.960687%"></stop>
            <stop stop-color="#445DCE" offset="100%"></stop>
        </linearGradient>
        <circle id="path-13" cx="789.5" cy="789.5" r="789.5"></circle>
        <linearGradient x1="50%" y1="49.2404719%" x2="50%" y2="-301.752988%" id="linearGradient-15">
            <stop stop-color="#D2D4CD" offset="0.07202738%"></stop>
            <stop stop-color="#9DC2BC" offset="13.6328269%"></stop>
            <stop stop-color="#4596AB" offset="100%"></stop>
        </linearGradient>
        <linearGradient x1="50.0406174%" y1="146.517159%" x2="50.0406174%" y2="-2.14067278%" id="linearGradient-16">
            <stop stop-color="#D18CA3" offset="0%"></stop>
            <stop stop-color="#208CA3" offset="17%"></stop>
            <stop stop-color="#3C4178" offset="61%"></stop>
            <stop stop-color="#241B3C" offset="100%"></stop>
        </linearGradient>
        <linearGradient x1="56.0156556%" y1="67.4935993%" x2="56.0156556%" y2="-43.8130613%" id="linearGradient-17">
            <stop stop-color="#FF9C74" offset="0%"></stop>
            <stop stop-color="#D36564" offset="60.0574935%"></stop>
            <stop stop-color="#B2314E" offset="100%"></stop>
        </linearGradient>
        <path d="M692.906174,0 L1158.19009,0 C1168.02623,0 1176,7.9739866 1176,17.8103976 L1176,936 L393,936 L393,299.914373 C393.17529,134.348902 527.345229,0.175294452 692.906174,0 Z" id="path-18"></path>
        <linearGradient x1="50.0277325%" y1="103.625554%" x2="50.0277325%" y2="-48.5647508%" id="linearGradient-19">
            <stop stop-color="#FF9C74" offset="0%"></stop>
            <stop stop-color="#D36564" offset="67%"></stop>
            <stop stop-color="#B2314E" offset="100%"></stop>
        </linearGradient>
        <linearGradient x1="50.0313603%" y1="197.794006%" x2="50.0313603%" y2="-466.911119%" id="linearGradient-20">
            <stop stop-color="#D18CA3" offset="0%"></stop>
            <stop stop-color="#208CA3" offset="23%"></stop>
            <stop stop-color="#3C4178" offset="61%"></stop>
            <stop stop-color="#241B3C" offset="100%"></stop>
        </linearGradient>
        <linearGradient x1="42.9269231%" y1="45.6310952%" x2="83.7589744%" y2="73.5686544%" id="linearGradient-21">
            <stop stop-color="#F2E2D0" offset="0%"></stop>
            <stop stop-color="#A0E2D0" offset="34%"></stop>
            <stop stop-color="#39A9BB" offset="97%"></stop>
            <stop stop-color="#445DCE" offset="100%"></stop>
        </linearGradient>
        <linearGradient x1="42.9269231%" y1="-81.5439614%" x2="83.7589744%" y2="759.631884%" id="linearGradient-22">
            <stop stop-color="#F2E2D0" offset="0%"></stop>
            <stop stop-color="#A0E2D0" offset="34%"></stop>
            <stop stop-color="#39A9BB" offset="97%"></stop>
            <stop stop-color="#445DCE" offset="100%"></stop>
        </linearGradient>
        <linearGradient x1="52.9141161%" y1="66.1638489%" x2="52.9141161%" y2="35.1791429%" id="linearGradient-23">
            <stop stop-color="#DBD8CD" offset="0%"></stop>
            <stop stop-color="#93B8B3" offset="100%"></stop>
        </linearGradient>
        <linearGradient x1="51.5474729%" y1="67.45298%" x2="53.5092621%" y2="45.4242731%" id="linearGradient-24">
            <stop stop-color="#DBD8CD" offset="0%"></stop>
            <stop stop-color="#93B8B3" offset="100%"></stop>
        </linearGradient>
        <linearGradient x1="48.2666667%" y1="-733.164478%" x2="48.2666667%" y2="5746.76667%" id="linearGradient-25">
            <stop stop-color="#F2E2D0" offset="0%"></stop>
            <stop stop-color="#A0E2D0" offset="34%"></stop>
            <stop stop-color="#39A9BB" offset="97%"></stop>
            <stop stop-color="#445DCE" offset="100%"></stop>
        </linearGradient>
        <linearGradient x1="51.8196098%" y1="55.5903422%" x2="50%" y2="45.3001745%" id="linearGradient-26">
            <stop stop-color="#DBD8CD" offset="0%"></stop>
            <stop stop-color="#93B8B3" offset="100%"></stop>
        </linearGradient>
        <linearGradient x1="50%" y1="148.65687%" x2="50%" y2="-15.4176776%" id="linearGradient-27">
            <stop stop-color="#DBD8CD" offset="0%"></stop>
            <stop stop-color="#93B8B3" offset="100%"></stop>
            <stop stop-color="#93B8B3" offset="100%"></stop>
        </linearGradient>
        <linearGradient x1="50%" y1="186.542821%" x2="50%" y2="0%" id="linearGradient-28">
            <stop stop-color="#DBD8CD" offset="0%"></stop>
            <stop stop-color="#93B8B3" offset="100%"></stop>
        </linearGradient>
        <linearGradient x1="50.0244021%" y1="110.23029%" x2="50.0244021%" y2="6.70903243%" id="linearGradient-29">
            <stop stop-color="#FFCBA6" offset="0%"></stop>
            <stop stop-color="#FF9274" offset="89%"></stop>
        </linearGradient>
        <linearGradient x1="49.8309451%" y1="451.488471%" x2="49.8309451%" y2="144.31464%" id="linearGradient-30">
            <stop stop-color="#FFCBA6" offset="0%"></stop>
            <stop stop-color="#FF9274" offset="89%"></stop>
        </linearGradient>
        <linearGradient x1="50%" y1="259.925788%" x2="50%" y2="143.970315%" id="linearGradient-31">
            <stop stop-color="#FFCBA6" offset="0%"></stop>
            <stop stop-color="#FF9274" offset="89%"></stop>
        </linearGradient>
        <linearGradient x1="50.0643341%" y1="110.141988%" x2="50.0643341%" y2="6.54158215%" id="linearGradient-32">
            <stop stop-color="#FFCBA6" offset="0%"></stop>
            <stop stop-color="#FF9274" offset="89%"></stop>
        </linearGradient>
        <linearGradient x1="42.0060226%" y1="229.757621%" x2="73.3873388%" y2="-349.742282%" id="linearGradient-33">
            <stop stop-color="#FFCBA6" offset="0%"></stop>
            <stop stop-color="#FF9274" offset="89%"></stop>
        </linearGradient>
        <linearGradient x1="167.794664%" y1="221.559673%" x2="-203.114243%" y2="-310.416716%" id="linearGradient-34">
            <stop stop-color="#FFCBA6" offset="0%"></stop>
            <stop stop-color="#FF9274" offset="89%"></stop>
        </linearGradient>
        <linearGradient x1="167.61289%" y1="221.298999%" x2="-203.170982%" y2="-310.627365%" id="linearGradient-35">
            <stop stop-color="#FFCBA6" offset="0%"></stop>
            <stop stop-color="#FF9274" offset="89%"></stop>
        </linearGradient>
        <linearGradient x1="166.714629%" y1="220.34809%" x2="-202.485209%" y2="-311.691966%" id="linearGradient-36">
            <stop stop-color="#FFCBA6" offset="0%"></stop>
            <stop stop-color="#FF9274" offset="89%"></stop>
        </linearGradient>
        <linearGradient x1="24.4215518%" y1="86.2358453%" x2="107.366874%" y2="-41.8647839%" id="linearGradient-37">
            <stop stop-color="#FFCBA6" offset="0%"></stop>
            <stop stop-color="#FF9274" offset="67%"></stop>
        </linearGradient>
        <linearGradient x1="50.0974014%" y1="255.44646%" x2="50.0974014%" y2="-111.293946%" id="linearGradient-38">
            <stop stop-color="#FFCBA6" offset="0%"></stop>
            <stop stop-color="#FF9274" offset="80%"></stop>
        </linearGradient>
        <linearGradient x1="50%" y1="137.724887%" x2="50.0104446%" y2="-80.5420436%" id="linearGradient-39">
            <stop stop-color="#FF9C74" offset="0%"></stop>
            <stop stop-color="#D36564" offset="61.9223983%"></stop>
            <stop stop-color="#B2314E" offset="100%"></stop>
        </linearGradient>
        <linearGradient x1="50.0277325%" y1="124.91124%" x2="50.0277325%" y2="-87.1682082%" id="linearGradient-40">
            <stop stop-color="#FF9C74" offset="0%"></stop>
            <stop stop-color="#D36564" offset="67%"></stop>
            <stop stop-color="#B2314E" offset="100%"></stop>
        </linearGradient>
        <linearGradient x1="66.2190514%" y1="136.64944%" x2="48.7514105%" y2="43.3247201%" id="linearGradient-41">
            <stop stop-color="#D18CA3" offset="0%"></stop>
            <stop stop-color="#208CA3" offset="23%"></stop>
            <stop stop-color="#3C4178" offset="63%"></stop>
            <stop stop-color="#241B3C" offset="100%"></stop>
        </linearGradient>
        <linearGradient x1="50%" y1="75.147582%" x2="49.9974557%" y2="-75.2430783%" id="linearGradient-42">
            <stop stop-color="#5D83AC" offset="0%"></stop>
            <stop stop-color="#006E96" offset="100%"></stop>
        </linearGradient>
        <rect id="path-43" x="707.290179" y="230.99875" width="97.9321429" height="668.818929"></rect>
        <linearGradient x1="49.938759%" y1="-151.728435%" x2="49.938759%" y2="151.471337%" id="linearGradient-44">
            <stop stop-color="#FFCBA6" offset="0%"></stop>
            <stop stop-color="#FF9274" offset="100%"></stop>
        </linearGradient>
        <path d="M633.841071,799.293214 C675.900013,817.047695 724.587448,800.44689 747.039107,760.696429 C749.314224,756.811656 749.82906,752.142375 748.454978,747.855242 C747.080897,743.568108 743.947691,740.068071 739.838214,738.229643 L607.341786,680.6225 C586.262694,672.192316 562.748734,672.192316 541.669643,680.6225 C506.749697,698.310945 486.190069,735.546715 489.823214,774.522143 L495.583929,809.6625 L507.681429,788.635893 C518.403805,770.120552 540.876186,761.981906 560.968036,769.3375 L611.08625,787.771786 L633.841071,799.293214 Z" id="path-45"></path>
        <linearGradient x1="50%" y1="-22%" x2="50%" y2="480%" id="linearGradient-46">
            <stop stop-color="#FFBE5D" offset="0%"></stop>
            <stop stop-color="#EC4D5C" offset="50%"></stop>
            <stop stop-color="#9E485D" offset="100%"></stop>
        </linearGradient>
        <linearGradient x1="50.0277325%" y1="93.4480093%" x2="51.2156757%" y2="-179.831288%" id="linearGradient-47">
            <stop stop-color="#FF9C74" offset="0%"></stop>
            <stop stop-color="#D36564" offset="67%"></stop>
            <stop stop-color="#B2314E" offset="100%"></stop>
        </linearGradient>
        <linearGradient x1="50.0277325%" y1="615.102832%" x2="50.0277325%" y2="-189.666667%" id="linearGradient-48">
            <stop stop-color="#FF9C74" offset="0%"></stop>
            <stop stop-color="#D36564" offset="49.2029351%"></stop>
            <stop stop-color="#B2314E" offset="100%"></stop>
        </linearGradient>
        <linearGradient x1="50.0277325%" y1="124.91124%" x2="50.0277325%" y2="-189.666667%" id="linearGradient-49">
            <stop stop-color="#FF9C74" offset="0%"></stop>
            <stop stop-color="#D36564" offset="67%"></stop>
            <stop stop-color="#B2314E" offset="100%"></stop>
        </linearGradient>
        <linearGradient x1="50%" y1="-159.233449%" x2="50%" y2="429.790941%" id="linearGradient-50">
            <stop stop-color="#F0FFEF" offset="2%"></stop>
            <stop stop-color="#B4D3CA" offset="54%"></stop>
            <stop stop-color="#94AAC7" offset="99%"></stop>
        </linearGradient>
        <linearGradient x1="50%" y1="-161.249999%" x2="50%" y2="432.187497%" id="linearGradient-51">
            <stop stop-color="#F0FFEF" offset="2%"></stop>
            <stop stop-color="#B4D3CA" offset="54%"></stop>
            <stop stop-color="#94AAC7" offset="99%"></stop>
        </linearGradient>
    </defs>
    <g id="sort_default_card" stroke="none" stroke-width="1" fill="none" fill-rule="evenodd">
        <rect id="Rectangle" fill="url(#linearGradient-1)" fill-rule="nonzero" x="0" y="0" width="2000" height="1527"></rect>
        <rect id="Rectangle" fill="url(#linearGradient-2)" fill-rule="nonzero" x="0" y="1407" width="2000" height="120"></rect>
        <g id="visit-shopping-malls" transform="translate(213.000000, 1.000000)">
            <g id="Layer_3" transform="translate(2.000000, 0.000000)" fill-rule="nonzero">
                <ellipse id="Oval" fill="url(#linearGradient-3)" cx="788.882527" cy="788.786811" rx="788.651343" ry="788.633985"></ellipse>
                <path d="M1558.53716,959.465626 L1425.27235,959.465626 C1400.00481,959.465626 1375.77216,969.502897 1357.90531,987.369355 C1340.03846,1005.23581 1330.00097,1029.46793 1330.00097,1054.73491 L1330.00097,1095.60573 L1193.28221,1095.60573 L1193.28221,1266.57236 L430.535475,1266.57236 L430.535475,1160.65364 L213.512441,1160.65364 L213.512441,1061.06701 C213.512441,1049.23504 208.812105,1037.88767 200.445453,1029.52121 C192.078801,1021.15474 180.731186,1016.45451 168.898953,1016.45451 L117.953227,1016.45451 L117.953227,882.329163 L5.98776303,882.329163 C51.1021258,1264.45322 365.487252,1558.18407 749.799709,1577.27461 C1134.11217,1596.36515 1476.06085,1335.23738 1558.82499,959.465626 L1558.53716,959.465626 Z" id="Path" fill="url(#linearGradient-4)"></path>
                <path d="M1474.20327,397.92369 L1385.26413,439.370148 C1339.1004,462.308043 1285.04268,463.154329 1238.18353,441.672729 C1199.97161,422.622177 1155.16877,421.986689 1116.43188,439.945793 L991.226284,497.510317 C939.946788,521.373873 880.745906,521.373873 829.46641,497.510317 L829.46641,497.510317 C797.976937,482.906542 761.654892,482.906542 730.16542,497.510317 L684.688444,518.521369 C626.107665,545.774139 558.483033,545.774139 499.902254,518.521369 L374.984486,460.956844 C344.391564,446.849937 309.154708,446.849937 278.561786,460.956844 L178.685131,507.296287 C156.422781,517.663028 130.717228,517.663028 108.454872,507.296287 L61.2509228,485.421767 C29.3296735,562.438947 9.89698523,644.054441 3.68513137,727.19277 L108.742701,776.122616 C131.005057,786.489357 156.71061,786.489357 178.972966,776.122616 L278.561786,731.222287 C309.154708,717.11538 344.391564,717.11538 374.984486,731.222287 L499.902254,788.786811 C558.483033,816.039581 626.107665,816.039581 684.688444,788.786811 L730.16542,767.487937 C761.654892,752.884161 797.976937,752.884161 829.46641,767.487937 L885.305228,793.391973 C901.180052,800.788219 919.512642,800.788219 935.387466,793.391973 L1115.85622,709.63559 C1152.0607,691.941299 1194.26889,691.308191 1230.98781,707.908654 C1279.11052,731.408073 1335.26828,731.936854 1383.82498,709.347767 L1498.95656,656.100582 C1519.58765,646.512443 1540.72653,638.057079 1562.27894,630.772192 C1545.52823,548.955187 1515.79382,470.345364 1474.20327,397.92369 Z" id="Path" fill="url(#linearGradient-5)"></path>
                <path d="M1475.64242,400.226271 C1430.62618,320.753301 1372.19865,249.668043 1302.94504,190.115757 C1278.90919,189.226613 1255.30667,183.44853 1233.57827,173.134222 C1194.7744,156.117729 1150.44346,157.0654 1112.40227,175.724626 L991.514113,233.28915 C940.234617,257.152706 881.033735,257.152706 829.754239,233.28915 L829.754239,233.28915 C798.264766,218.685374 761.942721,218.685374 730.453249,233.28915 L684.976273,254.588024 C626.395494,281.840794 558.770862,281.840794 500.190083,254.588024 L375.272315,197.0235 C344.679393,182.916593 309.442537,182.916593 278.849615,197.0235 L261.292048,205.082533 C173.76692,283.776414 104.930057,381.030927 59.811778,489.739107 L107.879214,512.189271 C130.14157,522.556012 155.847123,522.556012 178.109479,512.189271 L277.986128,465.849829 C308.57905,451.742922 343.815906,451.742922 374.408828,465.849829 L499.326596,523.414353 C557.907376,550.667124 625.532007,550.667124 684.112786,523.414353 L730.16542,500.964189 C761.654892,486.360413 797.976937,486.360413 829.46641,500.964189 L829.46641,500.964189 C880.745906,524.827745 939.946788,524.827745 991.226284,500.964189 L1115.85622,443.399664 C1152.0607,425.705374 1194.26889,425.072265 1230.98781,441.672729 C1279.11052,465.172148 1335.26828,465.700929 1383.82498,443.111842 L1475.64242,400.226271 Z" id="Path" fill="url(#linearGradient-6)"></path>
                <path d="M789.458185,0.152314198 C591.318293,-0.0732217935 400.407522,74.5623029 254.959811,209.11205 L278.561786,198.17479 C309.154708,184.067883 344.391564,184.067883 374.984486,198.17479 L499.902254,255.739315 C558.483033,282.992085 626.107665,282.992085 684.688444,255.739315 L730.16542,234.728263 C761.654892,220.124488 797.976937,220.124488 829.46641,234.728263 L829.46641,234.728263 C880.745906,258.591819 939.946788,258.591819 991.226284,234.728263 L1116.43188,177.163739 C1153.84331,159.759445 1197.03032,159.759445 1234.44175,177.163739 C1256.9228,187.579869 1281.33745,193.168641 1306.11116,193.569628 C1162.95715,68.7302939 979.401856,0.0136133919 789.458185,0.152314198 Z" id="Path" fill="url(#linearGradient-7)"></path>
                <path d="M1402.53386,1050.12975 C1397.92392,1050.12975 1394.18682,1053.86677 1394.18682,1058.47661 C1394.18682,1063.08645 1397.92392,1066.82346 1402.53386,1066.82346 L1526.01249,1066.82346 L1532.05689,1050.12975 L1402.53386,1050.12975 Z" id="Path" fill="url(#linearGradient-8)"></path>
                <path d="M1402.53386,1097.04484 C1397.92392,1097.04484 1394.18682,1100.78185 1394.18682,1105.3917 C1394.18682,1110.00154 1397.92392,1113.73855 1402.53386,1113.73855 L1506.44012,1113.73855 C1509.03058,1107.9821 1511.62104,1102.51347 1514.2115,1097.04484 L1402.53386,1097.04484 Z" id="Path" fill="url(#linearGradient-9)"></path>
                <path d="M1402.53386,1143.6721 C1397.92392,1143.6721 1394.18682,1147.40912 1394.18682,1152.01896 C1394.18682,1156.6288 1397.92392,1160.36582 1402.53386,1160.36582 L1482.83814,1160.36582 C1485.71643,1154.60936 1489.17038,1149.14073 1492.04867,1143.6721 L1402.53386,1143.6721 Z" id="Path" fill="url(#linearGradient-10)"></path>
                <path d="M1402.53386,1191.73848 C1397.92392,1191.73848 1394.18682,1195.4755 1394.18682,1200.08534 C1394.18682,1204.69518 1397.92392,1208.43219 1402.53386,1208.43219 L1456.93354,1208.43219 C1460.38748,1202.96356 1463.26577,1197.20711 1466.71972,1191.73848 L1402.53386,1191.73848 Z" id="Path" fill="url(#linearGradient-11)"></path>
            </g>
            <g id="Group" transform="translate(130.078352, 1060.886984)" fill="url(#linearGradient-12)" fill-rule="nonzero">
                <rect id="Rectangle" x="-4.4408921e-14" y="-1.77635684e-15" width="12.0868248" height="12.0826526"></rect>
                <rect id="Rectangle" x="21.0080527" y="-1.77635684e-15" width="12.0868248" height="12.0826526"></rect>
                <rect id="Rectangle" x="42.3038869" y="-1.77635684e-15" width="12.0868248" height="12.0826526"></rect>
                <rect id="Rectangle" x="-4.4408921e-14" y="20.7131188" width="12.0868248" height="12.0826526"></rect>
                <rect id="Rectangle" x="21.0080527" y="20.7131188" width="12.0868248" height="12.0826526"></rect>
                <rect id="Rectangle" x="42.3038869" y="20.7131188" width="12.0868248" height="12.0826526"></rect>
                <rect id="Rectangle" x="21.0080527" y="41.4262377" width="12.0868248" height="12.0826526"></rect>
                <rect id="Rectangle" x="42.3038869" y="41.4262377" width="12.0868248" height="12.0826526"></rect>
                <rect id="Rectangle" x="21.0080527" y="62.1393565" width="12.0868248" height="12.0826526"></rect>
                <rect id="Rectangle" x="42.3038869" y="62.1393565" width="12.0868248" height="12.0826526"></rect>
                <rect id="Rectangle" x="21.0080527" y="82.8524753" width="12.0868248" height="12.0826526"></rect>
                <rect id="Rectangle" x="42.3038869" y="82.8524753" width="12.0868248" height="12.0826526"></rect>
                <rect id="Rectangle" x="42.3038869" y="103.565594" width="12.0868248" height="12.0826526"></rect>
                <rect id="Rectangle" x="42.3038869" y="124.278713" width="12.0868248" height="12.0826526"></rect>
            </g>
            <g id="Layer_2">
                <mask id="mask-14" fill="white">
                    <use xlink:href="#path-13"></use>
                </mask>
                <g id="Mask"></g>
                <g mask="url(#mask-14)" fill-rule="nonzero">
                    <g transform="translate(130.000000, 450.000000)">
                        <path d="M0,956 C165.318951,1160.90474 414.353012,1280 677.5,1280 C940.646988,1280 1189.68105,1160.90474 1355,956 L0,956 Z" id="Path" fill="url(#linearGradient-15)"></path>
                        <path d="M383.666985,1228.4245 C649.903906,1324.39947 946.155951,1284.92028 1178,1122.56994 L1178,956 L180,956 C180.018493,1000.0014 197.504765,1042.19386 228.613181,1073.2983 L383.666985,1228.4245 Z" id="Path" fill="#000000" opacity="0.0715448289"></path>
                        <g id="Path" fill="none">
                            <use fill="url(#linearGradient-16)" xlink:href="#path-18"></use>
                            <use fill="url(#linearGradient-17)" xlink:href="#path-18"></use>
                        </g>
                        <path d="M178,376.913686 L178,956 L1175,956 L1175,880.314913 C1175.14657,681.432068 1039.42891,508.205951 846.374482,460.866891 L255.230147,316.492819 C236.708445,312.405915 217.330373,316.808473 202.388791,328.497993 C187.447208,340.187513 178.50331,357.942598 178,376.913686 Z" id="Path" fill="url(#linearGradient-19)"></path>
                        <path d="M713.976341,763 C722.273679,763 729,769.730829 729,778.033365 L729,956.000097 L625.054567,956.000097 L625.054567,779.312775 C624.695704,775.109135 626.11866,770.948069 628.975972,767.845639 C631.833284,764.743209 635.861946,762.984984 640.078226,763 L713.976341,763 Z" id="Path" fill="url(#linearGradient-20)"></path>
                        <path d="M760.384929,1275.54858 C774.364562,1275.54858 788.026477,1272.68695 802.00611,1270.7792 L825.199593,1266.96369 C837.90835,1264.73798 850.617108,1262.19431 863.325866,1259.33268 L886.201629,1254.24534 C901.13442,1250.42983 915.431772,1246.29637 930.046843,1241.84495 L958.00611,1232.62414 C971.032587,1228.17272 984.059063,1223.40334 997.08554,1218.316 L1022.50305,1207.5054 L1051.41548,1194.46909 L1076.83299,1181.75074 L1087,1176.34544 L720.670061,956 L634.250509,956 L307,1153.13445 L381.663951,1227.85476 L395.961303,1232.9421 C409.940937,1237.81747 424.132383,1242.26889 438.535642,1246.29637 L458.234216,1252.01963 C479.415479,1257.31894 500.596741,1261.87635 521.778004,1265.69185 L539.252546,1268.55348 C556.197556,1271.30913 573.248473,1273.53484 590.405295,1275.23062 L610.10387,1277.13837 C632.661914,1279.04612 655.537678,1280 678.731161,1280 C701.924644,1280 720.670061,1280 742.274949,1277.45633 L760.384929,1275.54858 Z" id="Path" fill="#FFFFFF" opacity="0.168875558"></path>
                        <path d="M179,627 L373.632046,627 C380.551549,627 386.945434,623.283322 390.405186,617.25 C393.864938,611.216679 393.864938,603.783321 390.405186,597.75 C386.945434,591.716678 380.551549,588 373.632046,588 L179,588 L179,627 Z" id="Path" fill="url(#linearGradient-21)"></path>
                        <path d="M179,737 L373.632047,737 C384.328672,737 393,728.269553 393,717.5 C393,706.730447 384.328672,698 373.632047,698 L179,698 L179,737 Z" id="Path" fill="url(#linearGradient-21)"></path>
                        <circle id="Oval" fill="url(#linearGradient-22)" cx="679" cy="276" r="24"></circle>
                        <circle id="Oval" fill="url(#linearGradient-22)" cx="774" cy="276" r="24"></circle>
                        <circle id="Oval" fill="url(#linearGradient-22)" cx="869" cy="276" r="24"></circle>
                        <circle id="Oval" fill="url(#linearGradient-22)" cx="964" cy="276" r="24"></circle>
                        <circle id="Oval" fill="url(#linearGradient-22)" cx="1059" cy="276" r="24"></circle>
                        <circle id="Oval" fill="url(#linearGradient-22)" cx="679" cy="161" r="24"></circle>
                        <circle id="Oval" fill="url(#linearGradient-22)" cx="774" cy="161" r="24"></circle>
                        <circle id="Oval" fill="url(#linearGradient-22)" cx="869" cy="161" r="24"></circle>
                        <circle id="Oval" fill="url(#linearGradient-22)" cx="964" cy="161" r="24"></circle>
                        <circle id="Oval" fill="url(#linearGradient-22)" cx="1059" cy="161" r="24"></circle>
                    </g>
                </g>
            </g>
            <g id="Group-2" transform="translate(147.000000, 138.000000)" fill="#F2E2D0" fill-rule="nonzero">
                <path d="M1227.38828,473.524911 C1241.85158,473.524911 1253.5764,485.245685 1253.5764,499.703992 C1253.5764,485.245685 1265.30122,473.524911 1279.76452,473.524911 C1265.30122,473.524911 1253.5764,461.804137 1253.5764,447.34583 C1253.5764,461.804137 1241.85158,473.524911 1227.38828,473.524911 Z" id="Path"></path>
                <path d="M-1.77635684e-14,533.075128 C14.4632996,533.075128 26.1881205,544.795901 26.1881205,559.254208 C26.1881205,544.795901 37.9129414,533.075128 52.3762409,533.075128 C37.9129414,533.075128 26.1881205,521.354354 26.1881205,506.896047 C26.1881205,521.354354 14.4632996,533.075128 -1.77635684e-14,533.075128 L-1.77635684e-14,533.075128 Z" id="Path"></path>
                <path d="M705.064782,26.1790807 C719.528081,26.1790807 731.252902,37.8998544 731.252902,52.3581615 C731.252902,37.8998544 742.977723,26.1790807 757.441023,26.1790807 C742.977723,26.1790807 731.252902,14.4583071 731.252902,-6.75015599e-14 C731.252902,14.4583071 719.528081,26.1790807 705.064782,26.1790807 L705.064782,26.1790807 Z" id="Path"></path>
                <path d="M1033.13574,229.5704 C1040.6058,229.5704 1046.66147,235.623987 1046.66147,243.091464 C1046.66147,235.623987 1052.71715,229.5704 1060.18721,229.5704 C1056.59996,229.5704 1053.15964,228.145864 1050.62307,225.610172 C1048.0865,223.074481 1046.66147,219.635346 1046.66147,216.049337 C1046.66147,219.635346 1045.23645,223.074481 1042.69988,225.610172 C1040.16331,228.145864 1036.72299,229.5704 1033.13574,229.5704 L1033.13574,229.5704 Z" id="Path"></path>
                <path d="M228.210764,216.624701 C235.68082,216.624701 241.736497,222.678287 241.736497,230.145765 C241.736497,222.678287 247.792173,216.624701 255.262229,216.624701 C247.792173,216.624701 241.736497,210.571115 241.736497,203.103637 C241.736497,210.571115 235.68082,216.624701 228.210764,216.624701 L228.210764,216.624701 Z" id="Path"></path>
                <path d="M749.095358,229.282718 C756.565414,229.282718 762.62109,235.336305 762.62109,242.803782 C762.62109,235.336305 768.676767,229.282718 776.146823,229.282718 C768.676767,229.282718 762.62109,223.229132 762.62109,215.761654 C762.62109,223.229132 756.565414,229.282718 749.095358,229.282718 L749.095358,229.282718 Z" id="Path"></path>
                <path d="M1183.06993,696.190938 C1190.53998,696.190938 1196.59566,702.244525 1196.59566,709.712002 C1196.59566,702.244525 1202.65133,696.190938 1210.12139,696.190938 C1202.65133,696.190938 1196.59566,690.137352 1196.59566,682.669875 C1196.59566,690.137352 1190.53998,696.190938 1183.06993,696.190938 L1183.06993,696.190938 Z" id="Path"></path>
                <path d="M394.548496,306.093867 C402.018552,306.093867 408.074229,312.147454 408.074229,319.614931 C408.074229,312.147454 414.129905,306.093867 421.599961,306.093867 C414.129905,306.093867 408.074229,300.040281 408.074229,292.572803 C408.074229,300.040281 402.018552,306.093867 394.548496,306.093867 L394.548496,306.093867 Z" id="Path"></path>
                <path d="M495.847599,72.7835981 C503.317655,72.7835981 509.373332,78.8371845 509.373332,86.3046618 C509.373332,78.8371845 515.429009,72.7835981 522.899065,72.7835981 C519.311817,72.7835981 515.871494,71.3590616 513.334927,68.8233702 C510.79836,66.2876789 509.373332,62.8485435 509.373332,59.2625344 C509.373332,66.7300117 503.317655,72.7835981 495.847599,72.7835981 L495.847599,72.7835981 Z" id="Path"></path>
            </g>
        </g>
        <g id="use-credit-card" transform="translate(213.000000, 1.000000)" fill-rule="nonzero">
            <g id="Layer_3">
                <circle id="Oval" fill="url(#linearGradient-23)" cx="789.5" cy="789.5" r="789.217857"></circle>
                <path d="M1380.54929,836.737857 L1380.54929,912.203214 L1294.13857,912.203214 C1278.2308,912.203214 1265.335,925.099012 1265.335,941.006786 L1265.335,1135.14286 L1167.69089,1135.14286 L1167.69089,1083.29643 L706.83375,1083.29643 L706.83375,996.885714 C706.83375,989.409061 700.772725,983.348036 693.296071,983.348036 L559.071429,983.348036 C477.464552,983.348036 411.309107,1049.50348 411.309107,1131.11036 L411.309107,1135.14286 L311.936786,1135.14286 L311.936786,933.517857 C311.936786,921.905183 302.522853,912.49125 290.910179,912.49125 L198.450714,912.49125 L198.450714,866.693571 C198.450714,834.878025 172.659118,809.086429 140.843571,809.086429 L0.858214286,809.086429 C12.4067094,1236.34174 362.088643,1576.69966 789.5,1576.69966 C1216.91136,1576.69966 1566.59329,1236.34174 1578.14179,809.086429 L1408.20071,809.086429 C1393.1803,809.676137 1381.13899,821.717438 1380.54929,836.737857 Z" id="Path" fill="url(#linearGradient-24)"></path>
                <g id="Group-3" transform="translate(157.837679, 975.283036)" fill="url(#linearGradient-25)">
                    <rect id="Rectangle" transform="translate(1244.026250, 11.521429) rotate(180.000000) translate(-1244.026250, -11.521429) " x="1233.36893" y="0.864107143" width="21.3146429" height="21.3146429"></rect>
                    <rect id="Rectangle" transform="translate(1206.581607, 11.521429) rotate(180.000000) translate(-1206.581607, -11.521429) " x="1195.92429" y="0.864107143" width="21.3146429" height="21.3146429"></rect>
                    <rect id="Rectangle" transform="translate(1168.848929, 11.521429) rotate(180.000000) translate(-1168.848929, -11.521429) " x="1158.19161" y="0.864107143" width="21.3146429" height="21.3146429"></rect>
                    <rect id="Rectangle" transform="translate(1244.026250, 48.678036) rotate(180.000000) translate(-1244.026250, -48.678036) " x="1233.36893" y="38.0207143" width="21.3146429" height="21.3146429"></rect>
                    <rect id="Rectangle" transform="translate(1206.581607, 48.678036) rotate(180.000000) translate(-1206.581607, -48.678036) " x="1195.92429" y="38.0207143" width="21.3146429" height="21.3146429"></rect>
                    <rect id="Rectangle" transform="translate(1168.848929, 48.678036) rotate(180.000000) translate(-1168.848929, -48.678036) " x="1158.19161" y="38.0207143" width="21.3146429" height="21.3146429"></rect>
                    <rect id="Rectangle" transform="translate(1206.581607, 85.834643) rotate(180.000000) translate(-1206.581607, -85.834643) " x="1195.92429" y="75.1773214" width="21.3146429" height="21.3146429"></rect>
                    <rect id="Rectangle" transform="translate(1168.848929, 85.834643) rotate(180.000000) translate(-1168.848929, -85.834643) " x="1158.19161" y="75.1773214" width="21.3146429" height="21.3146429"></rect>
                    <rect id="Rectangle" transform="translate(1206.581607, 122.703214) rotate(180.000000) translate(-1206.581607, -122.703214) " x="1195.92429" y="112.045893" width="21.3146429" height="21.3146429"></rect>
                    <rect id="Rectangle" transform="translate(1168.848929, 122.703214) rotate(180.000000) translate(-1168.848929, -122.703214) " x="1158.19161" y="112.045893" width="21.3146429" height="21.3146429"></rect>
                    <rect id="Rectangle" transform="translate(1206.581607, 159.571786) rotate(180.000000) translate(-1206.581607, -159.571786) " x="1195.92429" y="148.914464" width="21.3146429" height="21.3146429"></rect>
                    <rect id="Rectangle" transform="translate(1168.848929, 159.571786) rotate(180.000000) translate(-1168.848929, -159.571786) " x="1158.19161" y="148.914464" width="21.3146429" height="21.3146429"></rect>
                    <rect id="Rectangle" transform="translate(1168.848929, 196.728393) rotate(180.000000) translate(-1168.848929, -196.728393) " x="1158.19161" y="186.071071" width="21.3146429" height="21.3146429"></rect>
                    <rect id="Rectangle" transform="translate(1168.848929, 233.596964) rotate(180.000000) translate(-1168.848929, -233.596964) " x="1158.19161" y="222.939643" width="21.3146429" height="21.3146429"></rect>
                    <rect id="Rectangle" x="-1.0658141e-13" y="1.20792265e-13" width="21.3146429" height="21.3146429"></rect>
                    <rect id="Rectangle" x="37.7326786" y="1.20792265e-13" width="21.3146429" height="21.3146429"></rect>
                    <rect id="Rectangle" x="75.4653571" y="1.20792265e-13" width="21.3146429" height="21.3146429"></rect>
                    <rect id="Rectangle" x="-1.0658141e-13" y="36.8685714" width="21.3146429" height="21.3146429"></rect>
                    <rect id="Rectangle" x="37.7326786" y="36.8685714" width="21.3146429" height="21.3146429"></rect>
                    <rect id="Rectangle" x="75.4653571" y="36.8685714" width="21.3146429" height="21.3146429"></rect>
                    <rect id="Rectangle" x="37.7326786" y="74.0251786" width="21.3146429" height="21.3146429"></rect>
                    <rect id="Rectangle" x="75.4653571" y="74.0251786" width="21.3146429" height="21.3146429"></rect>
                    <rect id="Rectangle" x="37.7326786" y="110.89375" width="21.3146429" height="21.3146429"></rect>
                    <rect id="Rectangle" x="75.4653571" y="110.89375" width="21.3146429" height="21.3146429"></rect>
                    <rect id="Rectangle" x="37.7326786" y="147.762321" width="21.3146429" height="21.3146429"></rect>
                    <rect id="Rectangle" x="75.4653571" y="147.762321" width="21.3146429" height="21.3146429"></rect>
                    <rect id="Rectangle" x="75.4653571" y="184.918929" width="21.3146429" height="21.3146429"></rect>
                    <rect id="Rectangle" x="75.4653571" y="221.7875" width="21.3146429" height="21.3146429"></rect>
                </g>
            </g>
            <g id="Layer_2" transform="translate(3.000000, 0.000000)">
                <path d="M1471.73696,398.3475 L1382.73393,439.824643 C1336.53705,462.77952 1282.44049,463.626433 1235.54768,442.128929 C1197.30831,423.064272 1152.47328,422.428314 1113.70857,440.400714 L988.125,498.583929 C936.808668,522.465152 877.56526,522.465152 826.248929,498.583929 L826.248929,498.583929 C794.736836,483.969341 758.3887,483.969341 726.876607,498.583929 L681.366964,519.610536 C622.744104,546.883483 555.070896,546.883483 496.448036,519.610536 L371.440536,462.003393 C340.825637,447.886042 305.56347,447.886042 274.948571,462.003393 L175.000179,508.377143 C152.72183,518.751559 126.997812,518.751559 104.719464,508.377143 L57.7696429,486.198393 C25.8254634,563.272592 6.37881604,644.948511 0.1625,728.148393 L105.295536,777.114464 C127.573884,787.488881 153.297902,787.488881 175.57625,777.114464 L275.236607,731.892857 C305.851506,717.775506 341.113673,717.775506 371.728571,731.892857 L496.736071,789.5 C555.358932,816.772947 623.03214,816.772947 681.655,789.5 L727.164643,768.185357 C758.676735,753.570769 795.024872,753.570769 826.536964,768.185357 L882.415893,794.108571 C898.30212,801.510293 916.64788,801.510293 932.534107,794.108571 L1113.1325,710.290179 C1149.36299,692.582788 1191.60149,691.94921 1228.34679,708.561964 C1276.50407,732.078781 1332.70216,732.607954 1381.29375,710.002143 L1496.50804,656.715536 C1517.15372,647.119772 1538.3078,638.658137 1559.87589,631.368393 C1543.11315,549.490815 1513.35738,470.822792 1471.73696,398.3475 L1471.73696,398.3475 Z" id="Path" fill="url(#linearGradient-26)"></path>
                <path d="M1472.88911,400.651786 C1427.84053,321.119977 1369.37103,249.982091 1300.06768,190.385714 C1276.01456,189.495913 1252.39508,183.713552 1230.65107,173.391607 C1191.81933,156.362515 1147.45655,157.310888 1109.38804,175.983929 L988.413036,233.591071 C937.096704,257.472295 877.853296,257.472295 826.536964,233.591071 L826.536964,233.591071 C795.024872,218.976484 758.676735,218.976484 727.164643,233.591071 L681.655,254.905714 C623.03214,282.178661 555.358932,282.178661 496.736071,254.905714 L371.728571,197.298571 C341.113673,183.18122 305.851506,183.18122 275.236607,197.298571 L257.666429,205.363571 C170.078428,284.115714 101.192117,381.44223 56.0414286,490.230893 L104.143393,512.697679 C126.421741,523.072095 152.145759,523.072095 174.424107,512.697679 L274.3725,466.323929 C304.987398,452.206577 340.249566,452.206577 370.864464,466.323929 L495.871964,523.931071 C554.494824,551.204018 622.168033,551.204018 680.790893,523.931071 L726.876607,501.464286 C758.3887,486.849698 794.736836,486.849698 826.248929,501.464286 L826.248929,501.464286 C877.56526,525.345509 936.808668,525.345509 988.125,501.464286 L1112.84446,443.857143 C1149.07495,426.149752 1191.31346,425.516175 1228.05875,442.128929 C1276.21604,465.645746 1332.41413,466.174918 1381.00571,443.569107 L1472.88911,400.651786 Z" id="Path" fill="url(#linearGradient-27)"></path>
                <path d="M786.5,0.281630505 C588.217778,0.0559275359 397.169869,74.7467093 251.617679,209.396071 L275.236607,198.450714 C305.851506,184.333363 341.113673,184.333363 371.728571,198.450714 L496.736071,256.057857 C555.358932,283.330804 623.03214,283.330804 681.655,256.057857 L727.164643,235.03125 C758.676735,220.416662 795.024872,220.416662 826.536964,235.03125 L826.536964,235.03125 C877.853296,258.912473 937.096704,258.912473 988.413036,235.03125 L1113.70857,177.424107 C1151.14687,160.006928 1194.36491,160.006928 1231.80321,177.424107 C1254.30041,187.847949 1278.73259,193.440859 1303.52411,193.842143 C1160.26726,68.9103826 976.580114,0.142827011 786.5,0.281630505 L786.5,0.281630505 Z" id="Path" fill="url(#linearGradient-28)"></path>
                <path d="M999.070357,1142.34375 L702.393571,936.68625 C672.357784,915.876976 649.195627,886.598405 635.857321,852.579821 L611.08625,789.5 L633.841071,799.293214 C675.900013,817.047695 724.587448,800.44689 747.039107,760.696429 C749.314224,756.811656 749.82906,752.142375 748.454978,747.855242 C747.080897,743.568108 743.947691,740.068071 739.838214,738.229643 L607.341786,680.6225 C586.262694,672.192316 562.748734,672.192316 541.669643,680.6225 C506.749697,698.310945 486.190069,735.546715 489.823214,774.522143 L518.626786,959.441071 L440.857143,1010.13536 L444.889643,1256.11786 L421.55875,1365.57143 L576.521964,1520.53464 L584.010893,1527.73554 C611.301588,1552.58141 645.609715,1568.37723 682.231071,1572.95714 C792.646677,1587.77328 904.948281,1579.03653 1011.74393,1547.32196 L999.070357,1142.34375 Z" id="Path" fill="url(#linearGradient-29)"></path>
                <path d="M617.999107,792.380357 L633.841071,799.293214 C675.900013,817.047695 724.587448,800.44689 747.039107,760.696429 C749.314224,756.811656 749.82906,752.142375 748.454978,747.855242 C747.080897,743.568108 743.947691,740.068071 739.838214,738.229643 L617.999107,685.231071 L617.999107,792.380357 Z" id="Path" fill="url(#linearGradient-30)"></path>
                <path d="M702.393571,936.68625 C672.357784,915.876976 649.195627,886.598405 635.857321,852.579821 L617.999107,807.070179 L617.999107,919.404107 C618.620467,943.180454 637.996528,962.174092 661.780536,962.321429 L740.702321,962.321429 L702.393571,936.68625 Z" id="Path" fill="url(#linearGradient-31)"></path>
                <path d="M577.962143,1166.53875 L573.065536,1161.64214 C550.885327,1139.29668 538.546299,1109.0194 538.789286,1077.53571 L538.789286,995.733571 L443.449464,1008.40714 L440.857143,1009.84732 L444.889643,1255.82982 L421.55875,1365.57143 L576.521964,1520.53464 L584.010893,1527.73554 C601.743434,1543.8616 622.636504,1556.12279 645.362571,1563.74 L645.362571,1329.56696 C645.410571,1268.43512 621.164866,1209.78953 577.962143,1166.53875 L577.962143,1166.53875 Z" id="Path" fill="url(#linearGradient-32)"></path>
                <path d="M1162.38661,1132.83857 C1142.57142,1008.31629 1056.78382,904.334662 938.294821,861.220893 L916.980179,853.443929 C899.730235,847.203916 880.45787,850.712102 866.513338,862.630506 C852.568806,874.548909 846.102205,893.039839 849.579821,911.051071 C857.776571,960.485465 881.245056,1006.11303 916.692143,1041.53125 L920.724643,1045.56375 C939.149908,1063.18271 951.03418,1086.54496 954.424821,1111.81196 C958.465415,1146.9446 946.147574,1181.98674 921.012679,1206.86375 L858.796964,1269.07946 C812.924679,1314.90076 787.127039,1377.06375 787.076071,1441.90089 L787.076071,1578.71823 C929.961875,1578.8575 1070.17928,1540.01887 1192.63036,1466.38393 L1192.63036,1416.84179 C1192.59153,1354.04081 1187.58328,1291.34137 1177.6525,1229.33054 L1162.38661,1132.83857 Z" id="Path" fill="url(#linearGradient-33)"></path>
                <path d="M524.3875,1032.89018 L524.3875,1032.89018 C495.955234,1061.19635 449.991016,1061.19635 421.55875,1032.89018 L383.25,994.293393 C354.328002,965.104042 354.328002,918.061672 383.25,888.872321 L383.25,888.872321 C401.897205,870.345183 432.003153,870.345183 450.650357,888.872321 L524.3875,962.321429 C533.762555,971.670364 539.031608,984.36593 539.031608,997.605804 C539.031608,1010.84568 533.762555,1023.54124 524.3875,1032.89018 L524.3875,1032.89018 Z" id="Path" fill="url(#linearGradient-34)"></path>
                <path d="M524.3875,1198.51071 L524.3875,1198.51071 C495.955234,1226.81689 449.991016,1226.81689 421.55875,1198.51071 L383.25,1159.91393 C354.328002,1130.72458 354.328002,1083.68221 383.25,1054.49286 L383.25,1054.49286 C401.897205,1035.96572 432.003153,1035.96572 450.650357,1054.49286 L524.3875,1128.23 C543.721202,1147.66799 543.721202,1179.07273 524.3875,1198.51071 L524.3875,1198.51071 Z" id="Path" fill="url(#linearGradient-35)"></path>
                <path d="M524.3875,1365.57143 L524.3875,1365.57143 C495.955234,1393.8776 449.991016,1393.8776 421.55875,1365.57143 L383.25,1325.53446 C355.266618,1296.52234 355.266618,1250.56569 383.25,1221.55357 L383.25,1221.55357 C401.897205,1203.02643 432.003153,1203.02643 450.650357,1221.55357 L524.3875,1295.29071 C543.721202,1314.7287 543.721202,1346.13344 524.3875,1365.57143 L524.3875,1365.57143 Z" id="Path" fill="url(#linearGradient-36)"></path>
                <path d="M1192.63036,1416.84179 C1192.59153,1354.04081 1187.58328,1291.34137 1177.6525,1229.33054 L1162.38661,1133.12661 C1142.57142,1008.60433 1056.78382,904.622698 938.294821,861.508929 L917.268214,853.731964 C898.573305,846.8609 877.581314,851.85359 863.981607,866.405536 L983.516429,985.940357 C1023.48738,1026.33688 1045.85353,1080.90612 1045.73214,1137.73518 L1045.73214,1186.70125 C1045.71352,1231.00138 1028.10031,1273.48029 996.766071,1304.79589 L996.766071,1304.79589 C966.209344,1335.33666 949.102443,1376.80794 949.240179,1420.01018 L949.240179,1420.01018 C948.917336,1454.97477 966.141546,1487.77351 995.109697,1507.35598 C1024.07785,1526.93845 1060.93299,1530.69735 1093.25804,1517.36625 C1127.54744,1502.74635 1160.7551,1485.70937 1192.63036,1466.38393 L1192.63036,1416.84179 Z" id="Path" fill="url(#linearGradient-37)"></path>
                <path d="M1028.16196,919.404107 L1028.16196,910.763036 C1000.83822,889.869414 970.54876,873.171381 938.294821,861.220893 L916.980179,853.443929 C899.730235,847.203916 880.45787,850.712102 866.513338,862.630506 C852.568806,874.548909 846.102205,893.039839 849.579821,911.051071 C853.014557,928.69257 858.425327,945.89109 865.709821,962.321429 L984.380536,962.321429 C1008.16454,962.174092 1027.5406,943.180454 1028.16196,919.404107 Z" id="Path" fill="url(#linearGradient-38)"></path>
                <rect id="Rectangle" fill="url(#linearGradient-39)" x="617.999107" y="230.99875" width="410.450893" height="668.818929" rx="44.0694643"></rect>
                <path d="M617.999107,855.748214 C617.999107,880.087107 637.729678,899.817679 662.068571,899.817679 L757.696429,899.817679 L757.696429,767.033214 L619.439286,767.033214 L617.999107,855.748214 Z" id="Path" fill="url(#linearGradient-40)"></path>
                <g id="Rectangle">
                    <use fill="url(#linearGradient-41)" xlink:href="#path-43"></use>
                    <use fill="url(#linearGradient-42)" xlink:href="#path-43"></use>
                </g>
                <g id="Path">
                    <use fill="url(#linearGradient-44)" xlink:href="#path-45"></use>
                    <use fill-opacity="0.2" fill="#FFFFFF" xlink:href="#path-45"></use>
                </g>
                <path d="M574.505714,674.299862 L575.248925,674.302984 C586.149155,674.394572 597.036452,676.501077 607.341786,680.6225 L607.341786,680.6225 L739.838214,738.229643 C743.947691,740.068071 747.080897,743.568108 748.454978,747.855242 C749.82906,752.142375 749.314224,756.811656 747.039107,760.696429 C730.873913,789.316761 701.108092,805.936311 670.008168,806.372601 L668.711598,806.381403 C657.036117,806.376133 645.196986,804.086924 633.841071,799.293214 L633.841071,799.293214 L611.08625,789.5 L635.857321,852.579821 C649.195627,886.598405 672.357784,915.876976 702.393571,936.68625 L702.393571,936.68625 L954.362012,1111.35114 C950.889373,1086.26098 939.037842,1063.07555 920.724643,1045.56375 L920.724643,1045.56375 L916.692143,1041.53125 C881.245056,1006.11303 857.776571,960.485465 849.579821,911.051071 C848.860407,907.325089 848.566557,903.578577 848.676438,899.873971 C848.932403,899.611172 858.300671,899.592408 876.781241,899.817679 L876.781241,899.817679 L896.274501,899.816862 C898.569198,899.815269 900.69939,899.815593 902.686566,899.817257 L980.076746,899.817679 C989.853214,899.873971 999.070357,898.461811 1005.31163,894.142676 C1088.51285,946.827708 1146.54168,1033.26612 1162.38661,1132.83857 L1162.38661,1132.83857 L1177.4985,1228.36286 L1177.6525,1229.33054 C1187.42048,1290.3248 1192.426,1351.98528 1192.62444,1413.7533 L1192.63036,1416.84179 L1192.63036,1466.38393 C1160.7551,1485.70937 1127.54744,1502.74635 1093.25804,1517.36625 C1090.41572,1518.53844 1087.53837,1519.57851 1084.63445,1520.4873 C1060.7423,1530.2395 1036.40301,1538.79875 1011.70804,1546.14148 L1011.74393,1547.32196 C904.948281,1579.03653 792.646677,1587.77328 682.231071,1572.95714 C645.609715,1568.37723 611.301588,1552.58141 584.010893,1527.73554 L584.010893,1527.73554 L576.521964,1520.53464 L421.55875,1365.57143 L383.25,1325.53446 C355.266618,1296.52234 355.266618,1250.56569 383.25,1221.55357 C399.883366,1205.0273 425.634108,1203.24252 444.236768,1216.19922 L444.196112,1213.83855 C435.979497,1210.31079 428.279352,1205.20151 421.55875,1198.51071 L383.25,1159.91393 C354.328002,1130.72458 354.328002,1083.68221 383.25,1054.49286 C399.072541,1038.7722 423.145235,1036.39084 441.467229,1047.3488 L441.460816,1046.97576 C434.270328,1043.52829 427.528139,1038.83309 421.55875,1032.89018 L383.25,994.293393 C354.328002,965.104042 354.328002,918.061672 383.25,888.872321 C401.897205,870.345183 432.003153,870.345183 450.650357,888.872321 L518.099501,956.058862 L489.823214,774.522143 C486.226401,735.936469 506.340924,699.055835 540.626362,681.159 L541.669643,680.6225 C552.209189,676.407408 563.357451,674.299862 574.505714,674.299862 Z" id="Combined-Shape" fill="#FFFFFF" opacity="0.100771949"></path>
                <path d="M981.788214,138.539286 C986.401469,138.539286 990.14125,142.279067 990.14125,146.892321 C990.14125,142.279067 993.881031,138.539286 998.494286,138.539286 C993.881031,138.539286 990.14125,134.799504 990.14125,130.18625 C990.14125,134.799504 986.401469,138.539286 981.788214,138.539286 Z" id="Path" fill="url(#linearGradient-46)"></path>
                <path d="M916.980179,337.86 C933.035921,337.825234 947.921946,346.253351 956.153036,360.03875 C967.944842,340.83248 964.010514,315.90182 946.877153,301.260254 C929.743792,286.618688 904.504601,286.618688 887.37124,301.260254 C870.237879,315.90182 866.303551,340.83248 878.095357,360.03875 C886.273731,346.34141 901.02717,337.926486 916.980179,337.86 L916.980179,337.86 Z" id="Path" fill="url(#linearGradient-47)"></path>
                <path d="M916.980179,382.505536 C900.924436,382.540302 886.038412,374.112185 877.807321,360.326786 C866.015515,379.533056 869.949843,404.463716 887.083204,419.105282 C904.216566,433.746848 929.455756,433.746848 946.589117,419.105282 C963.722478,404.463716 967.656806,379.533056 955.865,360.326786 C947.686626,374.024125 932.933187,382.43905 916.980179,382.505536 Z" id="Path" fill="url(#linearGradient-48)"></path>
                <path d="M916.980179,382.505643 C933.035921,382.540302 947.921946,374.112185 956.153036,360.326786 C947.929449,346.614645 933.11326,338.223922 917.124196,338.223922 C901.135132,338.223922 886.318944,346.614645 878.095357,360.326786 C886.273731,374.024125 901.02717,382.43905 916.980179,382.505643 Z" id="Path" fill="url(#linearGradient-49)"></path>
                <path d="M871.1825,833.281429 L871.1825,833.281429 C865.296624,833.281429 860.525179,828.509983 860.525179,822.624107 L860.525179,678.60625 C860.525179,672.720374 865.296624,667.948929 871.1825,667.948929 L871.1825,667.948929 C877.068376,667.948929 881.839821,672.720374 881.839821,678.60625 L881.839821,822.624107 C881.839821,828.509983 877.068376,833.281429 871.1825,833.281429 Z" id="Path" fill="url(#linearGradient-50)"></path>
                <path d="M916.980179,833.281429 L916.980179,833.281429 C911.094302,833.281429 906.322857,828.509983 906.322857,822.624107 L906.322857,678.60625 C906.322857,672.720374 911.094302,667.948929 916.980179,667.948929 L916.980179,667.948929 C922.866055,667.948929 927.6375,672.720374 927.6375,678.60625 L927.6375,822.624107 C927.6375,828.509983 922.866055,833.281429 916.980179,833.281429 Z" id="Path" fill="url(#linearGradient-50)"></path>
                <path d="M962.777857,833.281429 L962.777857,833.281429 C956.891981,833.281429 952.120536,828.509983 952.120536,822.624107 L952.120536,751.767321 C952.120536,745.881445 956.891981,741.11 962.777857,741.11 L962.777857,741.11 C968.663733,741.11 973.435179,745.881445 973.435179,751.767321 L973.435179,822.912143 C973.279092,828.685235 968.553059,833.283538 962.777857,833.281429 Z" id="Path" fill="url(#linearGradient-51)"></path>
                <g id="Group-4" transform="translate(238.368036, 368.103750)" fill="#F2E2D0">
                    <path d="M1076.96554,197.304464 C1084.44219,197.304464 1090.50321,203.365489 1090.50321,210.842143 C1090.50321,203.365489 1096.56424,197.304464 1104.04089,197.304464 C1096.56424,197.304464 1090.50321,191.243439 1090.50321,183.766786 C1090.50321,191.243439 1084.44219,197.304464 1076.96554,197.304464 L1076.96554,197.304464 Z" id="Path"></path>
                    <path d="M0.864107143,224.091786 C8.34076057,224.091786 14.4017857,230.152811 14.4017857,237.629464 C14.4017857,230.152811 20.4628109,224.091786 27.9394643,224.091786 C20.4628109,224.091786 14.4017857,218.030761 14.4017857,210.554107 C14.4017857,214.144523 12.9754987,217.587884 10.4366915,220.126691 C7.89788425,222.665499 4.45452273,224.091786 0.864107143,224.091786 L0.864107143,224.091786 Z" id="Path"></path>
                    <path d="M226.396071,46.9498214 C233.872725,46.9498214 239.93375,53.0108466 239.93375,60.4875 C239.93375,53.0108466 245.994775,46.9498214 253.471429,46.9498214 C245.994775,46.9498214 239.93375,40.8887963 239.93375,33.4121429 C239.93375,40.8887963 233.872725,46.9498214 226.396071,46.9498214 L226.396071,46.9498214 Z" id="Path"></path>
                    <path d="M1051.33036,14.4017857 C1055.94361,14.4017857 1059.68339,18.1415672 1059.68339,22.7548214 C1059.68339,18.1415672 1063.42317,14.4017857 1068.03643,14.4017857 C1063.42317,14.4017857 1059.68339,10.6620042 1059.68339,6.04875 C1059.68339,10.6620042 1055.94361,14.4017857 1051.33036,14.4017857 Z" id="Path"></path>
                    <path d="M78.0576786,443.286964 C82.4819071,442.76466 86.53745,445.806317 87.2748214,450.199821 C87.2748214,445.586567 91.0146029,441.846786 95.6278571,441.846786 C91.0146029,441.846786 87.2748214,438.107004 87.2748214,433.49375 C87.7514684,436.10446 86.9591619,438.786327 85.1402963,440.718871 C83.3214307,442.651416 80.6924598,443.604657 78.0576786,443.286964 Z" id="Path"></path>
                    <path d="M937.844286,407.2825 C942.45754,407.2825 946.197321,411.022281 946.197321,415.635536 C946.197321,411.022281 949.937103,407.2825 954.550357,407.2825 C949.937103,407.2825 946.197321,403.542719 946.197321,398.929464 C946.197321,403.542719 942.45754,407.2825 937.844286,407.2825 L937.844286,407.2825 Z" id="Path"></path>
                    <path d="M910.480893,223.515714 C926.388666,223.515714 939.284464,236.411512 939.284464,252.319286 C939.284464,236.411512 952.180262,223.515714 968.088036,223.515714 C952.180262,223.515714 939.284464,210.619916 939.284464,194.712143 C939.284464,210.619916 926.388666,223.515714 910.480893,223.515714 Z" id="Path"></path>
                    <path d="M127.887857,265.856964 C143.79563,265.856964 156.691429,278.752762 156.691429,294.660536 C156.691429,278.752762 169.587227,265.856964 185.495,265.856964 C169.587227,265.856964 156.691429,252.961166 156.691429,237.053393 C156.691429,252.961166 143.79563,265.856964 127.887857,265.856964 Z" id="Path"></path>
                </g>
            </g>
        </g>
    </g>
</svg>