<?xml version="1.0" encoding="UTF-8"?>
<svg width="100px" height="15px" viewBox="0 0 100 15" version="1.1" xmlns="http://www.w3.org/2000/svg" xmlns:xlink="http://www.w3.org/1999/xlink">
    <!-- Generator: Sketch 64 (93537) - https://sketch.com -->
    <title>logo copy</title>
    <desc>Created with Sketch.</desc>
    <defs>
        <polygon id="path-1" points="0 0.369925022 14.25036 0.369925022 14.25036 14.6928893 0 14.6928893"></polygon>
    </defs>
    <g id="小資振興_確認風格" stroke="none" stroke-width="1" fill="none" fill-rule="evenodd">
        <g id="小資振興_免費刊登-copy" transform="translate(-510.000000, -2659.000000)">
            <g id="Group-11" transform="translate(387.000000, 2659.000000)">
                <g id="Group-9">
                    <g id="logo-copy" transform="translate(123.000000, 0.000000)">
                        <g id="Group-3">
                            <mask id="mask-2" fill="white">
                                <use xlink:href="#path-1"></use>
                            </mask>
                            <g id="Clip-2"></g>
                            <path d="M7.14276,0.369925022 C3.19796,0.369925022 -4e-05,3.57628945 -4e-05,7.53140715 C-4e-05,11.4865248 3.19796,14.6928893 7.14276,14.6928893 C10.84676,14.6928893 13.89196,11.8667167 14.25036,8.24727463 L10.97356,8.24727463 C10.63796,10.0624098 9.05076,11.4375972 7.14276,11.4375972 C4.99116,11.4375972 3.24676,9.6886347 3.24676,7.53140715 C3.24676,5.3741796 4.99116,3.62521709 7.14276,3.62521709 C9.05076,3.62521709 10.63796,5.00000349 10.97356,6.81553967 L14.25036,6.81553967 C13.89196,3.19609765 10.84676,0.369925022 7.14276,0.369925022" id="Fill-1" fill="#F4CE42" mask="url(#mask-2)"></path>
                        </g>
                        <path d="M21.42852,0.369925022 C17.72452,0.369925022 14.67892,3.19689974 14.32092,6.81634176 C14.69932,6.83478989 15.00012,7.14800697 15.00012,7.53140715 C15.00012,7.91480732 14.69932,8.22802441 14.32092,8.24647254 C14.67892,11.8663156 17.72452,14.6928893 21.42852,14.6928893 C25.37332,14.6928893 28.57132,11.4865248 28.57132,7.53140715 C28.57132,3.57628945 25.37332,0.369925022 21.42852,0.369925022 M21.42852,3.62521709 C19.27692,3.62521709 17.53252,5.3741796 17.53252,7.53140715 C17.53252,9.6886347 19.27692,11.4375972 21.42852,11.4375972 C23.58012,11.4375972 25.32452,9.6886347 25.32452,7.53140715 C25.32452,5.3741796 23.58012,3.62521709 21.42852,3.62521709" id="Fill-4" fill="#F4CE42"></path>
                        <path d="M35.71424,0.369925022 C31.76944,0.369925022 28.57144,3.57628945 28.57144,7.53140715 C28.57144,11.245095 31.39064,14.2986609 35.00024,14.6571962 L35.00024,11.3722267 C33.18944,11.0353479 31.81824,9.44399651 31.81824,7.53140715 C31.81824,5.3741796 33.56264,3.62521709 35.71424,3.62521709 C37.86584,3.62521709 39.61024,5.3741796 39.61024,7.53140715 C39.61024,9.44399651 38.23904,11.0353479 36.42824,11.3722267 L36.42824,14.6571962 C40.03784,14.2986609 42.85704,11.245095 42.85704,7.53140715 C42.85704,3.57628945 39.65904,0.369925022 35.71424,0.369925022" id="Fill-6" fill="#F4CE42"></path>
                        <path d="M50,0.369925022 C46.0552,0.369925022 42.8572,3.57628945 42.8572,7.53140715 C42.8572,11.4865248 46.0552,14.6928893 50,14.6928893 C51.7152,14.6928893 53.2896,14.0865074 54.5208,13.075871 L52.2036,10.7530113 C51.5768,11.1849381 50.818,11.4375972 50,11.4375972 C47.8484,11.4375972 46.104,9.6886347 46.104,7.53140715 C46.104,5.3741796 47.8484,3.62521709 50,3.62521709 C52.1516,3.62521709 53.896,5.3741796 53.896,7.53140715 C53.896,8.35154664 53.6436,9.1123313 53.2132,9.74117175 L55.53,12.0640314 C56.5376,10.8292101 57.1428,9.25109329 57.1428,7.53140715 C57.1428,3.57628945 53.9448,0.369925022 50,0.369925022" id="Fill-8" fill="#F4CE42"></path>
                        <path d="M63.55392,0.40714211 C59.95272,0.774901482 57.14312,3.8240558 57.14312,7.53132694 C57.14312,11.4864446 60.34072,14.6932101 64.28552,14.6932101 C67.98992,14.6932101 71.03552,11.8662354 71.39352,8.24639233 C71.01512,8.2279442 70.71432,7.91472711 70.71432,7.53132694 C70.71432,7.14792677 71.01512,6.83470968 71.39352,6.81626155 C71.05792,3.42661901 68.36512,0.731588492 64.98192,0.403532694 L64.98192,3.68729904 C66.80152,4.01655798 68.18152,5.61232084 68.18152,7.53132694 C68.18152,9.68855449 66.43752,11.437517 64.28552,11.437517 C62.13392,11.437517 60.38992,9.68855449 60.38992,7.53132694 C60.38992,5.62475327 61.75192,4.03781343 63.55392,3.69411683 L63.55392,0.40714211 Z" id="Fill-10" fill="#F4CE42"></path>
                        <path d="M78.57148,0.369925022 C74.86748,0.369925022 71.82188,3.19649869 71.46388,6.81553967 L74.74068,6.81553967 C75.07668,5.00000349 76.66348,3.62521709 78.57148,3.62521709 C80.47948,3.62521709 82.06628,5.00000349 82.40188,6.81553967 L85.67908,6.81553967 C85.32068,3.19649869 82.27548,0.369925022 78.57148,0.369925022 L78.57148,0.369925022 Z M71.46388,8.24727463 C71.82188,11.8667167 74.86748,14.6928893 78.57148,14.6928893 C82.27548,14.6928893 85.32068,11.8667167 85.67908,8.24727463 L82.40188,8.24727463 C82.06628,10.0624098 80.47948,11.4375972 78.57148,11.4375972 C76.66348,11.4375972 75.07668,10.0624098 74.74068,8.24727463 L71.46388,8.24727463 Z" id="Fill-12" fill="#F4CE42"></path>
                        <path d="M92.85704,0.369925022 C89.15304,0.369925022 86.10744,3.19689974 85.74944,6.81634176 C86.12784,6.83478989 86.42864,7.14800697 86.42864,7.53140715 C86.42864,7.91480732 86.12784,8.22802441 85.74944,8.24647254 C86.08464,11.6361151 88.77744,14.3311456 92.16104,14.6592014 L92.16104,11.375435 C90.34144,11.0465772 88.96104,9.45041325 88.96104,7.53140715 C88.96104,5.3741796 90.70544,3.62521709 92.85704,3.62521709 C95.00904,3.62521709 96.75304,5.3741796 96.75304,7.53140715 C96.75304,8.35154664 96.50104,9.1123313 96.07024,9.74117175 L98.38704,12.0640314 C99.39504,10.8292101 99.99984,9.25109329 99.99984,7.53140715 C99.99984,3.57628945 96.80184,0.369925022 92.85704,0.369925022 L92.85704,0.369925022 Z M95.06104,10.7530113 C94.62584,11.0525929 94.12704,11.2659494 93.58904,11.3686173 L93.58904,14.655993 C95.01864,14.5096112 96.32344,13.9409276 97.37784,13.075871 L95.06104,10.7530113 Z" id="Fill-14" fill="#F4CE42"></path>
                    </g>
                </g>
            </g>
        </g>
    </g>
</svg>