<?xml version="1.0" encoding="utf-8"?>
<!-- Generator: Adobe Illustrator 23.0.2, SVG Export Plug-In . SVG Version: 6.00 Build 0)  -->
<svg version="1.1" id="圖層_1" xmlns="http://www.w3.org/2000/svg" xmlns:xlink="http://www.w3.org/1999/xlink" x="0px" y="0px"
	 viewBox="0 0 100 15" style="enable-background:new 0 0 100 15;" xml:space="preserve">
<style type="text/css">
	.st0{filter:url(#Adobe_OpacityMaskFilter);}
	.st1{fill-rule:evenodd;clip-rule:evenodd;fill:#FFFFFF;}
	.st2{mask:url(#mask-2_1_);fill-rule:evenodd;clip-rule:evenodd;fill:#CCCCCC;}
	.st3{fill-rule:evenodd;clip-rule:evenodd;fill:#CCCCCC;}
</style>
<title>conquer_logo</title>
<desc>Created with Sketch.</desc>
<g id="小資振興_確認風格">
	<g id="小資振興_免費刊登-copy" transform="translate(-510.000000, -2702.000000)">
		<g id="Group-11" transform="translate(387.000000, 2659.000000)">
			<g id="Group-9">
				<g id="conquer_logo" transform="translate(123.000000, 43.000000)">
					<g id="Group-3">
						<g id="Clip-2">
						</g>
						<defs>
							<filter id="Adobe_OpacityMaskFilter" filterUnits="userSpaceOnUse" x="0" y="0.4" width="14.3" height="14.3">
								<feColorMatrix  type="matrix" values="1 0 0 0 0  0 1 0 0 0  0 0 1 0 0  0 0 0 1 0"/>
							</filter>
						</defs>
						<mask maskUnits="userSpaceOnUse" x="0" y="0.4" width="14.3" height="14.3" id="mask-2_1_">
							<g class="st0">
								<polygon id="path-1_1_" class="st1" points="0,0.4 14.3,0.4 14.3,14.7 0,14.7 								"/>
							</g>
						</mask>
						<path id="Fill-1" class="st2" d="M7.1,0.4C3.2,0.4,0,3.6,0,7.5s3.2,7.2,7.1,7.2c3.7,0,6.7-2.8,7.1-6.4H11
							c-0.3,1.8-1.9,3.2-3.8,3.2c-2.2,0-3.9-1.7-3.9-3.9S5,3.6,7.1,3.6c1.9,0,3.5,1.4,3.8,3.2h3.3C13.9,3.2,10.8,0.4,7.1,0.4"/>
					</g>
					<path id="Fill-4" class="st3" d="M21.4,0.4c-3.7,0-6.7,2.8-7.1,6.4c0.4,0,0.7,0.3,0.7,0.7c0,0.4-0.3,0.7-0.7,0.7
						c0.4,3.6,3.4,6.4,7.1,6.4c3.9,0,7.1-3.2,7.1-7.2S25.4,0.4,21.4,0.4 M21.4,3.6c-2.2,0-3.9,1.7-3.9,3.9s1.7,3.9,3.9,3.9
						s3.9-1.7,3.9-3.9S23.6,3.6,21.4,3.6"/>
					<path id="Fill-6" class="st3" d="M35.7,0.4c-3.9,0-7.1,3.2-7.1,7.2c0,3.7,2.8,6.8,6.4,7.1v-3.3c-1.8-0.3-3.2-1.9-3.2-3.8
						c0-2.2,1.7-3.9,3.9-3.9s3.9,1.7,3.9,3.9c0,1.9-1.4,3.5-3.2,3.8v3.3c3.6-0.4,6.4-3.4,6.4-7.1C42.9,3.6,39.7,0.4,35.7,0.4"/>
					<path id="Fill-8" class="st3" d="M50,0.4c-3.9,0-7.1,3.2-7.1,7.2s3.2,7.2,7.1,7.2c1.7,0,3.3-0.6,4.5-1.6l-2.3-2.3
						c-0.6,0.4-1.4,0.7-2.2,0.7c-2.2,0-3.9-1.7-3.9-3.9s1.7-3.9,3.9-3.9s3.9,1.7,3.9,3.9c0,0.8-0.3,1.6-0.7,2.2l2.3,2.3
						c1-1.2,1.6-2.8,1.6-4.5C57.1,3.6,53.9,0.4,50,0.4"/>
					<path id="Fill-10" class="st3" d="M63.6,0.4c-3.6,0.4-6.4,3.4-6.4,7.1c0,4,3.2,7.2,7.1,7.2c3.7,0,6.8-2.8,7.1-6.4
						c-0.4,0-0.7-0.3-0.7-0.7c0-0.4,0.3-0.7,0.7-0.7c-0.3-3.4-3-6.1-6.4-6.4v3.3c1.8,0.3,3.2,1.9,3.2,3.8c0,2.2-1.7,3.9-3.9,3.9
						c-2.2,0-3.9-1.7-3.9-3.9c0-1.9,1.4-3.5,3.2-3.8V0.4z"/>
					<path id="Fill-12" class="st3" d="M78.6,0.4c-3.7,0-6.7,2.8-7.1,6.4h3.3c0.3-1.8,1.9-3.2,3.8-3.2s3.5,1.4,3.8,3.2h3.3
						C85.3,3.2,82.3,0.4,78.6,0.4L78.6,0.4z M71.5,8.2c0.4,3.6,3.4,6.4,7.1,6.4s6.7-2.8,7.1-6.4h-3.3c-0.3,1.8-1.9,3.2-3.8,3.2
						s-3.5-1.4-3.8-3.2H71.5z"/>
					<path id="Fill-14" class="st3" d="M92.9,0.4c-3.7,0-6.7,2.8-7.1,6.4c0.4,0,0.7,0.3,0.7,0.7c0,0.4-0.3,0.7-0.7,0.7
						c0.3,3.4,3,6.1,6.4,6.4v-3.3C90.3,11,89,9.5,89,7.5c0-2.2,1.7-3.9,3.9-3.9c2.2,0,3.9,1.7,3.9,3.9c0,0.8-0.3,1.6-0.7,2.2
						l2.3,2.3c1-1.2,1.6-2.8,1.6-4.5C100,3.6,96.8,0.4,92.9,0.4L92.9,0.4z M95.1,10.8c-0.4,0.3-0.9,0.5-1.5,0.6v3.3
						c1.4-0.1,2.7-0.7,3.8-1.6L95.1,10.8z"/>
				</g>
			</g>
		</g>
	</g>
</g>
</svg>
