<?xml version="1.0" encoding="UTF-8"?>
<svg width="82px" height="82px" viewBox="0 0 82 82" version="1.1" xmlns="http://www.w3.org/2000/svg" xmlns:xlink="http://www.w3.org/1999/xlink">
    <!-- Generator: Sketch 64 (93537) - https://sketch.com -->
    <title>contact_facebook</title>
    <desc>Created with Sketch.</desc>
    <defs>
        <linearGradient x1="36.6762696%" y1="3.02883803%" x2="68.427364%" y2="95.4401114%" id="linearGradient-1">
            <stop stop-color="#F25B22" stop-opacity="0.99885271" offset="0%"></stop>
            <stop stop-color="#A60B0F" offset="100%"></stop>
        </linearGradient>
    </defs>
    <g id="小資振興_確認風格" stroke="none" stroke-width="1" fill="none" fill-rule="evenodd">
        <g id="小資振興_聯絡我們" transform="translate(-1272.000000, -415.000000)" fill="url(#linearGradient-1)" fill-rule="nonzero">
            <g id="Group-5" transform="translate(1272.000000, 415.000000)">
                <path d="M61.5990172,4.30656764 L61.4506369,4.29967704 L44.410216,4.29967704 C37.2436964,4.29967704 31.3526526,9.86541427 31.0097852,16.8512974 L30.9982719,17.1604065 L30.9939461,17.4989612 L30.9939461,33.1011298 L20.5354464,33.1011298 C19.9375624,33.1011298 19.4363324,33.5139266 19.3245327,34.0531892 L19.306643,34.1705769 L19.3,34.2998634 L19.3,48.7001366 C19.3,49.2755306 19.721065,49.764837 20.2793528,49.8746799 L20.4009828,49.8923026 L20.5354464,49.8988702 L30.9939461,49.8988702 L30.9939461,77.5012664 C30.9939461,78.0766604 31.4150111,78.5659668 31.9732989,78.6758096 L32.0949289,78.6934324 L32.2293925,78.7 L46.8469731,78.7 C47.4448571,78.7 47.9460871,78.2872032 48.0578868,77.7479406 L48.0757766,77.6305529 L48.0824195,77.5012664 L48.0824195,49.8988702 L58.540919,49.8988702 C59.0422733,49.8988702 59.4861644,49.6063195 59.6742981,49.1823096 L59.7191172,49.0635323 L59.7534166,48.9316734 L62.6765357,34.5310221 C62.747206,34.1835257 62.6556154,33.8231419 62.4254814,33.5467274 C62.2507014,33.3367469 62.008633,33.1910663 61.7504441,33.1322158 L61.6202431,33.1101307 L61.4645536,33.1011298 L48.0824195,33.1011298 L48.0824195,21.0983239 L61.4645536,21.0983239 C62.0621887,21.0983239 62.5636164,20.6852943 62.675459,20.1461649 L62.6933553,20.0288116 L62.7,19.8995903 L62.7,5.49873359 C62.7,4.92333955 62.278935,4.43403315 61.7206472,4.32419035 L61.5990172,4.30656764 Z M60.2291072,6.69746718 L60.2291072,18.7008567 L46.8469731,18.7008567 C46.2490891,18.7008567 45.7478591,19.1136534 45.6360594,19.6529161 L45.6181696,19.7703038 L45.6115267,19.8995903 L45.6115267,34.2998634 C45.6115267,34.8752575 46.0325916,35.3645638 46.5908795,35.4744066 L46.7125095,35.4920293 L46.8469731,35.498597 L59.9620822,35.498597 L57.5251074,47.501403 L46.8469731,47.501403 C46.249089,47.501403 45.7478591,47.9141997 45.6360594,48.4534624 L45.6181696,48.5708501 L45.6115267,48.7001366 L45.6115267,76.3025328 L33.4648389,76.3025328 L33.4648389,48.7001366 C33.4648389,48.1247426 33.0437739,47.6354362 32.4854861,47.5255934 L32.3638561,47.5079707 L32.2293925,47.501403 L21.7708928,47.501403 L21.7708928,35.498597 L32.2293925,35.498597 C32.8272765,35.498597 33.3285065,35.0858003 33.4403062,34.5465376 L33.4581959,34.4291499 L33.4648389,34.2998634 L33.4648389,17.4989612 C33.4648389,11.7524133 38.0392757,7.02530666 43.8087641,6.71370835 L44.0982187,6.70182374 L44.410216,6.69746718 L60.2291072,6.69746718 Z" id="Shape"></path>
            </g>
        </g>
    </g>
</svg>