<?xml version="1.0" encoding="UTF-8"?>
<svg width="82px" height="82px" viewBox="0 0 82 82" version="1.1" xmlns="http://www.w3.org/2000/svg" xmlns:xlink="http://www.w3.org/1999/xlink">
    <!-- Generator: Sketch 64 (93537) - https://sketch.com -->
    <title>contact_mail</title>
    <desc>Created with Sketch.</desc>
    <defs>
        <linearGradient x1="-123.292423%" y1="-76.9825236%" x2="86.6863798%" y2="64.8777775%" id="linearGradient-1">
            <stop stop-color="#F25B22" stop-opacity="0.99885271" offset="0%"></stop>
            <stop stop-color="#A60B0F" offset="100%"></stop>
        </linearGradient>
        <linearGradient x1="8.2705934%" y1="25.2033327%" x2="100%" y2="74.7966673%" id="linearGradient-2">
            <stop stop-color="#F25B22" stop-opacity="0.99885271" offset="0%"></stop>
            <stop stop-color="#A60B0F" offset="100%"></stop>
        </linearGradient>
    </defs>
    <g id="小資振興_確認風格" stroke="none" stroke-width="1" fill="none" fill-rule="evenodd">
        <g id="小資振興_聯絡我們" transform="translate(-920.000000, -415.000000)" fill-rule="nonzero">
            <g id="mail-(1)" transform="translate(920.000000, 415.000000)">
                <path d="M77.9426498,51.8490122 C77.4379436,46.6221426 73.577384,42.8346116 68.7453597,42.8346116 C65.7145927,42.8346116 63.1708229,44.6868332 61.5555101,46.9404333 C59.9414622,44.6855549 57.3964275,42.8333333 54.3656604,42.8333333 C49.5349011,42.8333333 45.6743415,46.6208644 45.1683704,51.8477339 C45.1152434,52.1890335 44.9862208,53.4072303 45.454244,55.3105829 C46.1448946,58.120233 47.732379,60.6703931 50.0471969,62.6862339 L61.556775,72.6388889 L73.067618,62.6836774 C75.3799061,60.6703931 76.9673905,58.1215112 77.6580411,55.3118612 C78.1247994,53.4072303 77.9957768,52.1903118 77.9426498,51.8490122 Z M75.2015513,54.6957323 C74.6386584,56.9876807 73.330723,59.0814963 71.4194171,60.7445331 L61.556775,69.2731889 L51.6966628,60.7470896 C49.782827,59.0802181 48.4748916,56.9876807 47.9119988,54.694454 C47.5299906,53.1426272 47.6666028,52.2682866 47.6666028,52.2682866 L47.6868416,52.1340677 C47.9967489,48.7824287 50.3912573,45.3898848 54.3681903,45.3898848 C57.1371173,45.3898848 59.3950134,47.7048422 60.4018959,49.9993472 L61.556775,52.6325952 L62.712919,49.9993472 C63.7198016,47.7048422 65.9764328,45.3911631 68.7466247,45.3911631 C72.7248226,45.3911631 75.118066,48.7837069 75.4444174,52.2503907 C75.4456823,52.2580604 75.5860893,53.1349576 75.2015513,54.6957323 Z" id="Shape" fill="url(#linearGradient-1)"></path>
                <path d="M35.9177984,41.8970528 C37.1784564,43.0175813 38.8329128,43.5778455 40.4886274,43.5778455 C42.1405675,43.5778455 43.7925077,43.0188347 45.0493913,41.9020664 L74.4559387,16.0334011 L74.4559387,38.3223916 C74.4559387,39.0142615 75.0183281,39.5757791 75.7140805,39.5757791 C76.4098329,39.5757791 76.9722222,39.0142615 76.9722222,38.3223916 L76.9722222,13.2546409 C76.9722222,13.2446138 76.9659315,13.2358401 76.9659315,13.225813 C76.9621571,13.086687 76.9420268,12.9463076 76.890443,12.8109417 C76.8866686,12.802168 76.8803779,12.7959011 76.8766034,12.7871274 C76.864022,12.7545393 76.8413755,12.7294715 76.8262778,12.6981369 C76.774694,12.5953591 76.713045,12.501355 76.6362984,12.417378 C76.6035867,12.3822832 76.5696169,12.3522019 76.5331307,12.3208672 C76.455126,12.2531843 76.3708305,12.1967818 76.277728,12.1491531 C76.2362093,12.1278455 76.198465,12.1052846 76.1544301,12.0889905 C76.0160345,12.0363482 75.87009,12 75.7140805,12 L5.25814176,12 C5.10213218,12 4.95618774,12.0363482 4.816534,12.0889905 C4.77249904,12.1052846 4.73475479,12.1278455 4.69323611,12.1491531 C4.60013362,12.1967818 4.51583812,12.2531843 4.43783333,12.3208672 C4.40134722,12.3522019 4.36737739,12.3822832 4.33466571,12.417378 C4.25791906,12.501355 4.19627011,12.5953591 4.1446863,12.6981369 C4.1295886,12.7282182 4.10820019,12.7545393 4.09436063,12.785874 C4.09184435,12.7946477 4.0842955,12.8009146 4.08052107,12.8096883 C4.02893726,12.9450542 4.00880699,13.0854336 4.00503257,13.2245596 C4.00629071,13.2345867 4,13.2433604 4,13.2533875 L4,62.1355014 C4,62.1392615 4.00251628,62.1430217 4.00251628,62.1467818 C4.00377443,62.2808943 4.02390469,62.4150068 4.0691978,62.5466125 C4.07423036,62.5629065 4.08555364,62.574187 4.09184435,62.5892276 C4.10820019,62.6318428 4.13336303,62.6669377 4.15475144,62.7070461 C4.20381897,62.8010501 4.2591772,62.8875339 4.328375,62.9639905 C4.36234483,63.0015921 4.3975728,63.0354336 4.43657519,63.0680217 C4.51332184,63.1357046 4.5963592,63.1896003 4.68820354,63.237229 C4.73098036,63.2585366 4.76872462,63.2836043 4.81401772,63.2998984 C4.9549296,63.353794 5.10213218,63.3888889 5.25814176,63.3888889 L43.0023946,63.3888889 C43.698147,63.3888889 44.2605364,62.8273713 44.2605364,62.1355014 C44.2605364,61.4436314 43.698147,60.8821138 43.0023946,60.8821138 L8.8803319,60.8821138 C14.6023606,56.3649051 27.5020881,46.1172087 34.1299789,40.3240515 L35.9177984,41.8970528 Z M72.3875536,14.5067751 L43.378579,40.0269986 C41.7845134,41.4458333 39.1877088,41.4445799 37.5886106,40.0232385 L35.1000062,37.8348238 C35.0924574,37.8260501 35.0911992,37.8147696 35.0823922,37.8059959 C35.0521968,37.7721545 35.0106782,37.7571138 34.9779665,37.7282859 L8.58466858,14.5067751 L72.3875536,14.5067751 Z M6.51628352,59.5497629 L6.51628352,16.0334011 L32.2289267,38.6520325 C25.2386911,44.7359756 11.6570508,55.497561 6.51628352,59.5497629 Z" id="Shape" fill="url(#linearGradient-2)"></path>
            </g>
        </g>
    </g>
</svg>