<?xml version="1.0" encoding="UTF-8"?>
<svg width="82px" height="82px" viewBox="0 0 82 82" version="1.1" xmlns="http://www.w3.org/2000/svg" xmlns:xlink="http://www.w3.org/1999/xlink">
    <!-- Generator: Sketch 64 (93537) - https://sketch.com -->
    <title>contact_phone</title>
    <desc>Created with Sketch.</desc>
    <defs>
        <linearGradient x1="0%" y1="0%" x2="100%" y2="100%" id="linearGradient-1">
            <stop stop-color="#F25B22" stop-opacity="0.99885271" offset="0%"></stop>
            <stop stop-color="#A60B0F" offset="100%"></stop>
        </linearGradient>
        <linearGradient x1="0%" y1="0%" x2="100%" y2="100%" id="linearGradient-2">
            <stop stop-color="#F25B22" stop-opacity="0.99885271" offset="0%"></stop>
            <stop stop-color="#A60B0F" offset="100%"></stop>
        </linearGradient>
    </defs>
    <g id="小資振興_確認風格" stroke="none" stroke-width="1" fill="none" fill-rule="evenodd">
        <g id="小資振興_聯絡我們" transform="translate(-1272.000000, -415.000000)" fill-rule="nonzero">
            <g id="phone-ringing" transform="translate(1272.000000, 415.000000)">
                <path d="M26.5807368,9.75 C23.5837097,9.75 20.7509643,10.4576585 18.1533188,11.854501 C15.7180371,13.1640882 13.5832526,15.0649189 11.9825517,17.3494647 C10.3890593,19.6237658 9.33578034,22.2634527 8.93736058,24.9799623 C8.51200282,27.880342 8.81179234,30.7681053 9.82989068,33.5709952 C13.0917739,42.550618 18.4060625,50.8879038 25.1961614,57.6778755 C31.9863508,64.4679376 40.323542,69.7821869 49.3030849,73.0441682 C51.2817189,73.7630204 53.3034479,74.1240468 55.3434854,74.1240468 C56.1915377,74.1240468 57.0425875,74.0615286 57.893696,73.9365579 C60.6103359,73.5381371 63.2500149,72.4848613 65.5241906,70.8913703 C67.8087419,69.2906656 69.7095726,67.1558811 71.0191669,64.7205862 C72.4160888,62.1230225 73.1237895,59.2901705 73.1237895,56.2930526 C73.1237895,55.7201522 72.7521503,55.2194785 72.2160774,55.0473665 L72.0895437,55.0135975 L57.0116019,51.7826191 C56.6255116,51.7000466 56.2256332,51.7962506 55.9212598,52.0389269 L55.8118099,52.1367333 L49.9077705,58.0409103 L49.4236306,57.7974028 C39.1157087,52.6128329 30.6691638,44.2594398 25.3676703,34.020898 L25.0763867,33.4501588 L24.8328791,32.966019 L30.7369809,27.0620548 C31.0159558,26.7830073 31.1523417,26.3951263 31.1139046,26.0075805 L31.0912329,25.8624797 L27.8602008,10.784287 C27.7309082,10.1810853 27.1976453,9.75 26.5807368,9.75 Z M24.8537174,12.4615461 L25.5273601,12.3871812 L28.3832759,25.7149281 L22.3289061,31.769298 C21.938975,32.1591473 21.8353856,32.7516907 22.0698734,33.2508463 C27.7489749,45.3392557 37.534791,55.1250719 49.6233187,60.8042289 C50.0806652,61.0191863 50.6166671,60.9500379 51.003249,60.6365962 L51.1048044,60.5450851 L57.1591187,54.4907709 L70.4868656,57.3466867 L70.4125007,58.0203294 C69.9327687,62.3660326 67.649626,66.2070946 64.022717,68.7482891 C59.9288782,71.6168845 54.8833955,72.2870787 50.1964643,70.5844621 C32.5259587,64.1654517 18.7085951,50.3480881 12.289584,32.6775808 C10.5870084,27.990627 11.2572271,22.9452692 14.1257404,18.8513545 C16.5899458,15.3343279 20.2764161,13.0808843 24.4600658,12.5101134 L24.8537174,12.4615461 Z" id="Shape" fill="url(#linearGradient-1)"></path>
                <path d="M40.9382456,9.75 C49.5369147,9.75 57.6169838,13.0968252 63.6970383,19.1768798 C69.7770929,25.2569343 73.1239181,33.3370034 73.1239181,41.9356725 C73.1239181,42.658306 72.5380973,43.244152 71.8154386,43.244152 C71.0928568,43.244152 70.5069591,42.6582543 70.5069591,41.9356725 C70.5069591,25.6307689 57.2431492,12.3669591 40.9382456,12.3669591 C40.2156639,12.3669591 39.6297661,11.7810613 39.6297661,11.0584795 C39.6297661,10.3358978 40.2156639,9.75 40.9382456,9.75 Z" id="Path" fill="url(#linearGradient-2)"></path>
                <path d="M40.9382456,17.9839181 C54.1446052,17.9839181 64.89,28.729313 64.89,41.9356725 C64.89,42.658306 64.3041792,43.244152 63.5815205,43.244152 C62.8589387,43.244152 62.2730409,42.6582543 62.2730409,41.9356725 C62.2730409,30.1710028 52.7029153,20.6008772 40.9382456,20.6008772 C40.2156639,20.6008772 39.6297661,20.0149794 39.6297661,19.2923977 C39.6297661,18.5698159 40.2156639,17.9839181 40.9382456,17.9839181 Z" id="Path" fill="url(#linearGradient-2)"></path>
                <path d="M40.9382456,26.2178363 C49.6044999,26.2178363 56.6560819,33.2694182 56.6560819,41.9356725 C56.6560819,42.658306 56.0702611,43.244152 55.3476023,43.244152 C54.6250206,43.244152 54.0391228,42.6582543 54.0391228,41.9356725 C54.0391228,34.7111081 48.1628101,28.8347953 40.9382456,28.8347953 C40.2156639,28.8347953 39.6297661,28.2488975 39.6297661,27.5263158 C39.6297661,26.803734 40.2156639,26.2178363 40.9382456,26.2178363 Z" id="Path" fill="url(#linearGradient-2)"></path>
            </g>
        </g>
    </g>
</svg>