<?xml version="1.0" encoding="UTF-8"?>
<svg width="82px" height="82px" viewBox="0 0 82 82" version="1.1" xmlns="http://www.w3.org/2000/svg" xmlns:xlink="http://www.w3.org/1999/xlink">
    <!-- Generator: Sketch 64 (93537) - https://sketch.com -->
    <title>contact_line</title>
    <desc>Created with Sketch.</desc>
    <defs>
        <linearGradient x1="0%" y1="5.26168156%" x2="100%" y2="94.7383184%" id="linearGradient-1">
            <stop stop-color="#F25B22" stop-opacity="0.99885271" offset="0%"></stop>
            <stop stop-color="#A60B0F" offset="100%"></stop>
        </linearGradient>
        <linearGradient x1="25.6592656%" y1="0%" x2="115.727024%" y2="100%" id="linearGradient-2">
            <stop stop-color="#F25B22" offset="0%"></stop>
            <stop stop-color="#A60B0F" offset="100%"></stop>
        </linearGradient>
        <path d="M30.0877531,28.6621235 L32.7929383,28.6621235 C32.9074884,28.6621235 33.0092346,28.7674307 33.0092346,28.9055802 L33.0092346,46.2774321 C33.0092346,46.4134294 32.9096956,46.5154568 32.7929383,46.5154568 L30.0877531,46.5154568 C29.9657885,46.5154568 29.8660247,46.4137076 29.8660247,46.2774321 L29.8660247,28.9055802 C29.8660247,28.7671374 29.9679947,28.6621235 30.0877531,28.6621235 Z" id="path-3"></path>
        <linearGradient x1="-162.258218%" y1="0%" x2="623.158588%" y2="100%" id="linearGradient-4">
            <stop stop-color="#F25B22" offset="0%"></stop>
            <stop stop-color="#A60B0F" offset="100%"></stop>
        </linearGradient>
        <path d="M51.676,46.5154568 L48.8295802,46.5154568 L48.7041481,46.4917531 L48.6171517,46.4183026 L40.4991099,35.6356543 L39.5397037,35.9564444 L39.5397037,46.2774321 C39.5397037,46.4057053 39.4262046,46.5154568 39.2799506,46.5154568 L36.4335309,46.5154568 C36.2894181,46.5154568 36.1792099,46.4078726 36.1792099,46.2774321 L36.1792099,28.9055802 C36.1792099,28.7729217 36.2916139,28.6621235 36.4335309,28.6621235 L39.2757235,28.6540315 L39.5146667,28.7226667 L39.4552694,28.7227211 L39.560111,28.848136 L47.6159832,39.5475308 L48.5752593,39.2265679 L48.5752593,28.9055802 C48.5752593,28.7729217 48.6876633,28.6621235 48.8295802,28.6621235 L51.676,28.6621235 C51.8200608,28.6621235 51.9357531,28.7750872 51.9357531,28.9055802 L51.9357531,46.2774321 C51.9357531,46.4057053 51.822254,46.5154568 51.676,46.5154568 Z" id="path-5"></path>
        <linearGradient x1="-60.457621%" y1="0%" x2="348.267528%" y2="100%" id="linearGradient-6">
            <stop stop-color="#F25B22" offset="0%"></stop>
            <stop stop-color="#A60B0F" offset="100%"></stop>
        </linearGradient>
        <path d="M15.3677531,46.8135802 L15.248,46.472 L15.2974987,46.5029333 L15.3830617,46.5192593 L26.4645432,46.5192593 C26.5508178,46.5192593 26.6278484,46.4707526 26.669616,46.3986172 L26.7025679,46.2758025 L26.7025679,43.4837037 C26.7025679,43.3907199 26.6544074,43.3110972 26.5838816,43.268347 L26.4645432,43.2348148 L18.9302222,43.2348148 L18.3968889,42.7014815 L18.3968889,28.9093827 C18.3968889,28.8183955 18.3476468,28.7381073 18.277121,28.6946915 L18.1588642,28.6604938 L15.3884938,28.6604938 C15.3016944,28.6604938 15.2248388,28.7093514 15.1832461,28.7830962 L15.1504691,28.9093827 L15.1504691,46.2758025 C15.1504691,46.34185 15.1729201,46.3961405 15.3677531,46.8135802 Z" id="path-7"></path>
        <path d="M55.2471026,46.5021019 L55.184,46.4613333 L55.3159506,46.8141235 L55.1351672,46.4120186 C55.1048934,46.3374022 55.0986667,46.3071911 55.0986667,46.2763457 L55.0986667,28.9099259 C55.0986667,28.8426958 55.1222359,28.7846457 55.1690804,28.7338975 C55.2181339,28.6876807 55.2784097,28.661037 55.3366914,28.661037 L66.4127407,28.661037 C66.5399708,28.661037 66.6507654,28.7734452 66.6507654,28.9099259 L66.6507654,31.7020247 C66.6507654,31.8393247 66.5446086,31.9454815 66.4127407,31.9454815 L58.8784198,31.9454815 L58.3450864,32.4788148 L58.3450864,35.4175802 L58.8784198,35.9509136 L66.4127407,35.9509136 C66.5446086,35.9509136 66.6507654,36.0570704 66.6507654,36.1943704 L66.6507654,38.9864691 C66.6507654,39.1229499 66.5399708,39.235358 66.4127407,39.235358 L58.8784198,39.235358 L58.3450864,39.7686914 L58.3450864,42.7020247 L58.8784198,43.235358 L66.4127407,43.235358 C66.5421526,43.235358 66.6507654,43.3444981 66.6507654,43.4788148 L66.6507654,46.2763457 C66.6507654,46.4106624 66.5421526,46.5198025 66.4127407,46.5198025 L55.3366914,46.5198025 L55.2471026,46.5021019 Z" id="path-8"></path>
    </defs>
    <g id="小資振興_確認風格" stroke="none" stroke-width="1" fill="none" fill-rule="evenodd">
        <g id="小資振興_聯絡我們" transform="translate(-566.000000, -415.000000)">
            <g id="Line" transform="translate(566.000000, 415.000000)">
                <path d="M2,36.3432099 C2,51.8301235 15.8409877,64.8074074 34.5328395,67.257284 C35.8039506,67.5288889 37.5259259,68.0883951 37.9604938,69.1639506 C38.3516049,70.1362963 38.2158025,71.6681481 38.0854321,72.6567901 C38.0854321,72.6567901 37.6291358,75.3782716 37.531358,75.9595062 C37.362963,76.937284 36.7491358,79.7782716 40.8992593,78.04 C45.0548148,76.3071605 63.3066667,64.948642 71.4602469,55.6217284 C77.0987654,49.4834568 79.7985185,43.2582716 79.7985185,36.3432099 C79.7985185,19.0582716 62.3506173,5 40.8992593,5 C19.4533333,5 2,19.0582716 2,36.3432099 Z" id="Combined-Shape" stroke="url(#linearGradient-1)" stroke-width="2.7"></path>
                <g id="Path" fill-rule="nonzero">
                    <use fill="#555555" xlink:href="#path-3"></use>
                    <use fill="url(#linearGradient-2)" xlink:href="#path-3"></use>
                </g>
                <g id="Path" fill-rule="nonzero">
                    <use fill="#555555" xlink:href="#path-5"></use>
                    <use fill="url(#linearGradient-4)" xlink:href="#path-5"></use>
                </g>
                <g id="Path" fill-rule="nonzero">
                    <use fill="#555555" xlink:href="#path-7"></use>
                    <use fill="url(#linearGradient-6)" xlink:href="#path-7"></use>
                </g>
                <g id="Path" fill-rule="nonzero">
                    <use fill="#555555" xlink:href="#path-8"></use>
                    <use fill="url(#linearGradient-6)" xlink:href="#path-8"></use>
                </g>
            </g>
        </g>
    </g>
</svg>