<svg xmlns="http://www.w3.org/2000/svg" width="50" height="50" viewBox="0 0 50 50">
    <g fill="none" fill-rule="evenodd" stroke="#000" stroke-linecap="square">
        <path d="M31.557 36.683l9.054-3.728c.727-.3 1.567-.03 1.98.64l.566.91c.46.74.248 1.71-.477 2.19l-12.214 8.119c-1.181.784-2.584 1.166-3.999 1.089L11.77 45.1"/>
        <path d="M8.227 37.365c2.977-4.518 10.108-5.965 13.133-2.373l5.666.31c.687.037 1.213.625 1.177 1.312l-.105 1.909c-.037.686-.625 1.213-1.312 1.175l-6.922-.377M3.831 48.177L2 36.333 7.407 35.497 9.239 47.341zM3.436 26.098L47.168 26.098M43.515 28.678L42.884 29.608 7.719 29.608 5.661 26.572M41.61 22.401c0-9.007-7.301-16.309-16.308-16.309S8.994 13.394 8.994 22.402v2.917M23.098 3.204c0-1.218.987-2.204 2.204-2.204 1.218 0 2.204.986 2.204 2.204M14.476 16.701c1.246-2.31 3.253-4.15 5.685-5.184"/>
    </g>
</svg>
