<?xml version="1.0" encoding="UTF-8"?>
<svg width="20px" height="20px" viewBox="0 0 20 20" version="1.1" xmlns="http://www.w3.org/2000/svg" xmlns:xlink="http://www.w3.org/1999/xlink">
    <!-- Generator: Sketch 64 (93537) - https://sketch.com -->
    <title>cutlery_s_gray</title>
    <desc>Created with Sketch.</desc>
    <g id="小資振興_確認風格" stroke="none" stroke-width="1" fill="none" fill-rule="evenodd" stroke-linecap="square">
        <g id="小資振興_商家列表" transform="translate(-161.000000, -1040.000000)" stroke="#AAAAAA" stroke-width="0.7">
            <g id="cutlery_s_gray" transform="translate(161.000000, 1040.000000)">
                <g id="menu_category_good" transform="translate(2.000000, 2.000000)">
                    <path d="M10.2806666,12.4114112 L13.4297701,11.1148421 C13.6829369,11.0105701 13.9748073,11.104597 14.1189211,11.3372737 L14.3156262,11.6537322 C14.4752215,11.910997 14.4019124,12.2484009 14.1496563,12.4159646 L9.90114403,15.2395029 C9.49043099,15.5122492 9.0025385,15.6452073 8.51032032,15.6183425 L3.39803573,15.3389938" id="Stroke-25"></path>
                    <path d="M2.16598767,12.6488689 C3.20142166,11.0770492 5.68163668,10.5739029 6.7339181,11.8233448 L8.70461217,11.9310318 C8.94366356,11.9440089 9.12670862,12.1484547 9.11395921,12.3875061 L9.07753233,13.0513859 C9.06455526,13.2902096 8.86010941,13.4734824 8.62128569,13.4602776 L6.21346909,13.3289132" id="Stroke-27"></path>
                    <polygon id="Stroke-29" points="0.63701502 16.4093976 0 12.2897455 1.88076522 11.9990134 2.51800791 16.1186656"></polygon>
                    <line x1="0.499389723" y1="8.72961012" x2="15.7105708" y2="8.72961012" id="Stroke-31"></line>
                    <polyline id="Stroke-33" points="14.4400468 9.62716838 14.2205749 9.95068458 1.98934008 9.95068458 1.27332427 8.89476047"></polyline>
                    <path d="M13.7775102,7.44385518 C13.7775102,4.31091605 11.2378738,1.77127968 8.1049347,1.77127968 C4.97222324,1.77127968 2.43258688,4.31091605 2.43258688,7.44385518 L2.43258688,8.45879905" id="Stroke-35"></path>
                    <path d="M7.33833107,0.766558103 C7.33833107,0.343095652 7.68165439,0 8.10488917,0 C8.52857929,0 8.87167494,0.343095652 8.87167494,0.766558103" id="Stroke-37"></path>
                    <path d="M4.33951115,5.46132237 C4.77276332,4.65765439 5.47102103,4.01767968 6.31703526,3.65819194" id="Stroke-39"></path>
                </g>
            </g>
        </g>
    </g>
</svg>