<svg xmlns="http://www.w3.org/2000/svg" width="50" height="50" viewBox="0 0 50 50">
    <g fill="none" fill-rule="evenodd" stroke="#000" stroke-linecap="square">
        <path d="M13.897 22.203L13.897 48.162 2 48.162 2 22.203 10.614 22.203M36.846 22.203L36.846 48.162 48.743 48.162 48.743 22.203 40.129 22.203M33.191 10.728L36.846 10.728 36.846 48.162 13.897 48.162 13.897 10.728 17.551 10.728M6.043 27.142L9.853 27.142M6.043 31.547L9.853 31.547M6.043 35.951L9.853 35.951M6.043 40.354L9.853 40.354M40.89 27.142L44.7 27.142M18.469 19.38L20.179 19.38M18.469 23.32L20.179 23.32M18.469 27.26L20.179 27.26M18.469 31.2L20.179 31.2M18.469 35.14L20.179 35.14M24.516 19.38L26.226 19.38M24.516 23.32L26.226 23.32M24.516 27.26L26.226 27.26M24.516 31.2L26.226 31.2M24.516 35.14L26.226 35.14M30.563 19.38L32.274 19.38M30.563 23.32L32.274 23.32M30.563 27.26L32.274 27.26M30.563 31.2L32.274 31.2M30.563 35.14L32.274 35.14M40.89 31.547L44.7 31.547M40.89 35.951L44.7 35.951M40.89 40.354L44.7 40.354"/>
        <path d="M28.497 45.371L28.497 40.122 22.246 40.122 22.246 45.371M20.618 15.481L30.124 15.481 30.124 5.975 20.618 5.975zM23.857 9.272L23.857 12.184M26.886 9.272L26.886 12.184M23.857 10.728L26.731 10.728M25.371 5.975L25.371 3M7.948 22.203L7.948 19.642M42.795 22.203L42.795 19.642"/>
    </g>
</svg>
