<svg xmlns="http://www.w3.org/2000/svg" width="50" height="50" viewBox="0 0 50 50" cursor="pointer">
    <g fill="none" fill-rule="evenodd">
        <path stroke="#000" stroke-linecap="square" d="M36.311 36.287c-1.564 1.565-7.274-1.608-12.752-7.086-5.478-5.478-8.651-11.188-7.086-12.753 1.565-1.565 7.275 1.608 12.753 7.086s8.65 11.188 7.085 12.753z"/>
        <path stroke="#000" stroke-linecap="square" d="M15.739 18.348L4 48.76 34.447 37.006M27.518 38.845L27.516 33.683M21.619 41.175L21.616 27.561M15.72 43.414L15.717 19.748M9.821 45.744L9.821 34.55M21.675 21.65l2.683-7.992S25.523 9.7 23.044 9.1c-2.628-.636-3.477 1.948-2.963 2.836M29.934 29.909l7.991-2.684s3.958-1.165 4.558 1.314c.637 2.628-1.948 3.477-2.835 2.963M26.943 25.685l6.909-6.895s3.25-3.5.991-5.403c-2.394-2.017-4.609.223-4.535 1.408M39.949 23.832L35.98 22.711 37.456 20.572 41.425 21.693zM27.947 9.625L28.08 11.014M42.363 34.938L41.021 34.554"/>
        <path fill="none" d="M27.814 17.039c-.47.375-1.154.298-1.529-.171-.374-.47-.298-1.153.172-1.529.469-.374 1.153-.297 1.528.172.374.469.298 1.153-.171 1.528"/>
        <path stroke="#000" d="M27.814 17.039c-.47.375-1.154.298-1.529-.171-.374-.47-.298-1.153.172-1.529.469-.374 1.153-.297 1.528.172.374.469.298 1.153-.171 1.528z"/>
        <path fill="#none" d="M46.243 33.145c-.469.375-1.153.298-1.528-.171-.374-.47-.298-1.154.171-1.529.47-.374 1.154-.298 1.529.171.374.47.298 1.155-.172 1.529"/>
        <path stroke="#000" d="M46.243 33.145c-.469.375-1.153.298-1.528-.171-.374-.47-.298-1.154.171-1.529.47-.374 1.154-.298 1.529.171.374.47.298 1.155-.172 1.529z"/>
    </g>
</svg>
