<?xml version="1.0" encoding="UTF-8"?>
<svg width="20px" height="20px" viewBox="0 0 20 20" version="1.1" xmlns="http://www.w3.org/2000/svg" xmlns:xlink="http://www.w3.org/1999/xlink">
    <!-- Generator: Sketch 64 (93537) - https://sketch.com -->
    <title>dumbbell_gray</title>
    <desc>Created with Sketch.</desc>
    <g id="小資振興_確認風格" stroke="none" stroke-width="1" fill="none" fill-rule="evenodd" stroke-linecap="square">
        <g id="小資振興_商家列表" transform="translate(-295.000000, -1040.000000)" stroke="#AAAAAA" stroke-width="0.7">
            <g id="dumbbell_gray" transform="translate(295.000000, 1040.000000)">
                <g id="menu_category_travel" transform="translate(2.000000, 3.000000)">
                    <path d="M15.0998708,14.4515655 L0.932172308,14.4515655 C0.41736,14.4515655 0,14.0342055 0,13.5193932 L0,4.55104862 C0,4.03623631 0.41736,3.61887631 0.932172308,3.61887631 L15.0998708,3.61887631 C15.6146831,3.61887631 16.0320431,4.03623631 16.0320431,4.55104862 L16.0320431,13.5193932 C16.0320431,14.0342055 15.6146831,14.4515655 15.0998708,14.4515655 Z" id="Stroke-135"></path>
                    <path d="M10.3436745,3.61883077 L5.68827754,3.61883077 L5.68827754,1.40930462 C5.68827754,1.07277538 5.96105292,0.8 6.29735446,0.8 L9.73436985,0.8 C10.0708991,0.8 10.3436745,1.07277538 10.3436745,1.40930462 L10.3436745,3.61883077 Z" id="Stroke-136"></path>
                    <line x1="5.68820923" y1="1.98718769" x2="9.22973538" y2="1.98718769" id="Stroke-137"></line>
                    <polyline id="Stroke-138" points="4.35320369 7.38153723 4.35320369 14.4513834 2.92784985 14.4513834 2.92784985 7.38153723"></polyline>
                    <polyline id="Stroke-139" points="2.92789538 5.81059692 2.92789538 3.61792 4.35324923 3.61792"></polyline>
                    <line x1="4.35320369" y1="5.81059692" x2="4.35320369" y2="4.83379692" id="Stroke-140"></line>
                    <polyline id="Stroke-141" points="11.6780425 5.81059692 11.6780425 3.61792 13.1033963 3.61792 13.1033963 5.81059692"></polyline>
                    <line x1="13.103328" y1="13.1741434" x2="13.103328" y2="7.38165108" id="Stroke-142"></line>
                    <polyline id="Stroke-143" points="11.6780425 7.38153723 11.6780425 14.4513834 13.1033963 14.4513834"></polyline>
                    <polygon id="Stroke-144" points="2.14977969 7.38187877 5.13254892 7.38187877 5.13254892 5.81080185 2.14977969 5.81080185"></polygon>
                    <polygon id="Stroke-145" points="10.8995397 7.38187877 13.8823089 7.38187877 13.8823089 5.81080185 10.8995397 5.81080185"></polygon>
                    <polygon id="Stroke-146" points="8.09031754 12.338968 6.12647138 13.0448142 5.68816369 11.8250665 7.65223754 11.119448"></polygon>
                    <polygon id="Stroke-147" points="8.02294338 7.25056862 6.50013723 6.53288246 7.14587262 5.16240246 8.66867877 5.88008862"></polygon>
                    <path d="M10.09508,9.20931446 C10.09508,9.68974523 9.70549846,10.0790991 9.22529538,10.0790991 C8.74463692,10.0790991 8.35505538,9.68974523 8.35505538,9.20931446 C8.35505538,8.72888369 8.74463692,8.33930215 9.22529538,8.33930215 C9.70549846,8.33930215 10.09508,8.72888369 10.09508,9.20931446 Z" id="Stroke-148"></path>
                    <line x1="1.41654215" y1="14.4515655" x2="1.41654215" y2="15.2560025" id="Stroke-149"></line>
                    <line x1="14.6155692" y1="14.4515655" x2="14.6155692" y2="15.2560025" id="Stroke-150"></line>
                </g>
            </g>
        </g>
    </g>
</svg>