<svg xmlns="http://www.w3.org/2000/svg" width="50" height="50" viewBox="0 0 50 50" cursor="pointer">
    <g fill="none" fill-rule="evenodd" stroke="#000" stroke-linecap="square">
        <path d="M42.75 46.129H7.33c-1.287 0-2.33-1.043-2.33-2.33V21.377c0-1.287 1.043-2.33 2.33-2.33h35.42c1.287 0 2.33 1.043 2.33 2.33v22.42c0 1.288-1.043 2.33-2.33 2.33z"/>
        <path d="M30.86 19.047H19.22v-5.524c0-.841.683-1.523 1.523-1.523h8.593c.841 0 1.523.682 1.523 1.523v5.524zM19.221 14.968L28.074 14.968M15.883 28.454L15.883 46.128 12.32 46.128 12.32 28.454M12.32 24.526L12.32 19.045 15.883 19.045M15.883 24.526L15.883 22.084M34.195 24.526L34.195 19.045 37.758 19.045 37.758 24.526M37.758 42.935L37.758 28.454M34.195 28.454L34.195 46.128 37.758 46.128"/>
        <path d="M10.374 28.455L17.831 28.455 17.831 24.527 10.374 24.527zM32.249 28.455L39.706 28.455 39.706 24.527 32.249 24.527zM25.226 40.847L20.316 42.612 19.22 39.563 24.131 37.799zM25.057 28.126L21.25 26.332 22.865 22.906 26.672 24.7zM30.238 33.023c0 1.201-.974 2.175-2.175 2.175-1.201 0-2.175-.974-2.175-2.175 0-1.2.974-2.175 2.175-2.175 1.2 0 2.175.974 2.175 2.175zM8.541 46.129L8.541 48.14M41.539 46.129L41.539 48.14"/>
    </g>
</svg>
