<svg xmlns="http://www.w3.org/2000/svg" xmlns:xlink="http://www.w3.org/1999/xlink" width="312" height="297" viewBox="0 0 312 297">
    <defs>
        <path id="prefix__a" d="M.53 54.685c0 29.884 23.931 54.115 53.444 54.115 29.521 0 53.449-24.231 53.449-54.115 0-29.891-23.928-54.118-53.449-54.118C24.458.567.53 24.794.53 54.685z"/>
        <path id="prefix__c" d="M.605 10.682c0 5.352 4.346 9.7 9.697 9.7 5.351 0 9.694-4.348 9.694-9.7 0-5.355-4.343-9.696-9.694-9.696C4.951.986.605 5.327.605 10.682z"/>
        <path id="prefix__e" d="M.432.633c0 20.454 16.572 37.034 37.016 37.034V.633H.432z"/>
        <path id="prefix__g" d="M.432 37.734h37.016V.7C17.004.7.432 17.28.432 37.734z"/>
        <path id="prefix__i" d="M.506 37.734h37.015C37.521 17.28 20.949.7.506.7v37.034z"/>
        <path id="prefix__k" d="M.506.638v37.034c20.443 0 37.015-16.58 37.015-37.034H.506z"/>
    </defs>
    <g fill="none" fill-rule="evenodd">
        <path fill="#A33927" d="M110.431 184.967L295.522 184.967 295.522 66.477 110.431 66.477z" transform="translate(0 -1)"/>
        <path fill="#BF412E" d="M102.618 200.374L303.333 200.374 303.333 80.354 102.618 80.354z" transform="translate(0 -1)"/>
        <path fill="#F8E482" d="M94.546 214.252L311.404 214.252 311.404 94.234 94.546 94.234z" transform="translate(0 -1)"/>
        <g transform="translate(0 -1) translate(149 99.56)">
            <mask id="prefix__b" fill="#fff">
                <use xlink:href="#prefix__a"/>
            </mask>
            <path fill="#FFF" d="M-0.403 109.733L108.358 109.733 108.358 -0.367 -0.403 -0.367z" mask="url(#prefix__b)"/>
        </g>
        <path fill="#F6D85E" d="M284.302 163.941c-5.352 0-9.696-4.347-9.696-9.7 0-5.354 4.344-9.696 9.696-9.696 5.352 0 9.694 4.343 9.694 9.697 0 5.352-4.342 9.7-9.694 9.7" transform="translate(0 -1)"/>
        <g transform="translate(0 -1) translate(274 143.56)">
            <mask id="prefix__d" fill="#fff">
                <use xlink:href="#prefix__c"/>
            </mask>
            <path fill="#F6D85E" d="M-0.328 21.314L20.93 21.314 20.93 0.052 -0.328 0.052z" mask="url(#prefix__d)"/>
        </g>
        <g transform="translate(0 -1) translate(274 93.56)">
            <mask id="prefix__f" fill="#fff">
                <use xlink:href="#prefix__e"/>
            </mask>
            <path fill="#E14027" d="M-0.501 38.599L38.381 38.599 38.381 -0.3 -0.501 -0.3z" mask="url(#prefix__f)"/>
        </g>
        <g transform="translate(0 -1) translate(274 176.56)">
            <mask id="prefix__h" fill="#fff">
                <use xlink:href="#prefix__g"/>
            </mask>
            <path fill="#E14027" d="M-0.501 38.667L38.381 38.667 38.381 -0.234 -0.501 -0.234z" mask="url(#prefix__h)"/>
        </g>
        <g>
            <path fill="#F6D85E" d="M27.65.985c5.352 0 9.697 4.348 9.697 9.701 0 5.353-4.345 9.695-9.697 9.695-5.35 0-9.694-4.342-9.694-9.695 0-5.353 4.345-9.701 9.695-9.701" transform="translate(0 -1) translate(94 143.56)"/>
            <path fill="#E14027" d="M.506 33.7v37.034h37.016C37.522 50.28 20.949 33.7.506 33.7" transform="translate(0 -1) translate(94 143.56)"/>
        </g>
        <g transform="translate(0 -1) translate(94 176.56)">
            <mask id="prefix__j" fill="#fff">
                <use xlink:href="#prefix__i"/>
            </mask>
            <path fill="#E14027" d="M-0.427 38.667L38.455 38.667 38.455 -0.234 -0.427 -0.234z" mask="url(#prefix__j)"/>
        </g>
        <g transform="translate(0 -1) translate(94 93.56)">
            <mask id="prefix__l" fill="#fff">
                <use xlink:href="#prefix__k"/>
            </mask>
            <path fill="#E14027" d="M0.556 0.309L39.67 0.273 39.67 39.173 0.506 39.507z" mask="url(#prefix__l)"/>
        </g>
        <g>
            <path fill="#B7B3AD" d="M111.91 199.97v23.48c0 3.641 2.961 6.594 6.612 6.594h7.164v-6.152c0-10.206-5.537-19.12-13.777-23.923m69.42 16.417c-1.158-1.405-3.235-1.607-4.64-.453 1.405-1.154 1.608-3.225.453-4.626-1.154-1.405-3.235-1.608-4.64-.456 1.405-1.152 1.612-3.222.454-4.627-.65-.79-1.594-1.198-2.549-1.198-.734 0-1.476.242-2.092.746l9.428-7.723c1.41-1.15 1.612-3.222.458-4.623-1.158-1.404-3.235-1.607-4.64-.456l-16.19 13.262c-1.5-1.71-4.102-1.939-5.872-.486-1.018.835-1.546 2.041-1.546 3.262 0 .901.292 1.81.882 2.578l-.752.614c-2.5 2.05-3.94 4.91-4.246 7.881-4.596-.412-9.318 1.317-12.545 5.08l-4.195 4.883h40.746l5.418-4.435 5.61-4.597c1.41-1.154 1.612-3.226.458-4.626" transform="translate(0 -1) translate(0 .56)"/>
            <path fill="#FFF" d="M49.021 207.257L76.671 207.257 76.671 173.802 49.021 173.802zM98.13 156.527h.018c3.276 0 5.931-2.655 5.931-5.932v-9.01c0-3.277-2.655-5.932-5.931-5.932h-.018c-3.275 0-5.932 2.655-5.932 5.932v9.01c0 3.277 2.657 5.932 5.932 5.932" transform="translate(0 -1) translate(0 .56)"/>
            <path fill="#D0D2D3" d="M98.139 153.737c3.28 0 5.94-2.651 5.94-5.923v2.79c0 3.272-2.66 5.923-5.94 5.923-3.28 0-5.94-2.651-5.94-5.923v-2.79c0 3.272 2.66 5.923 5.94 5.923" transform="translate(0 -1) translate(0 .56)"/>
            <path fill="#FFF" d="M27.543 156.527h.018c3.276 0 5.931-2.655 5.931-5.932v-9.01c0-3.277-2.655-5.932-5.931-5.932h-.018c-3.275 0-5.932 2.655-5.932 5.932v9.01c0 3.277 2.657 5.932 5.932 5.932" transform="translate(0 -1) translate(0 .56)"/>
            <path fill="#D0D2D3" d="M27.552 153.737c3.28 0 5.94-2.651 5.94-5.923v2.79c0 3.272-2.66 5.923-5.94 5.923-3.28 0-5.94-2.651-5.94-5.923v-2.79c0 3.272 2.66 5.923 5.94 5.923" transform="translate(0 -1) translate(0 .56)"/>
            <path fill="#FFF" d="M97.62 133.296c-1.149-5.891-3.767-11.258-7.462-15.706-1.066-1.291-2.226-2.5-3.467-3.626-6.295-5.718-14.66-9.198-23.845-9.198-.408 0-.819.007-1.226.023-.139 0-.276.007-.41.014-9.138.413-17.366 4.273-23.423 10.312-5.394 5.377-9.057 12.487-10.082 20.418-.193 1.494-.294 3.016-.294 4.562v6.994c0 19.514 15.863 35.33 35.435 35.33 19.567 0 35.433-15.816 35.433-35.33v-6.994c0-1.501-.093-2.978-.275-4.428l-.384-2.371z" transform="translate(0 -1) translate(0 .56)"/>
            <path fill="#D0D2D3" d="M62.846 176.839c19.567 0 35.434-15.815 35.434-35.328v5.578c0 19.514-15.867 35.33-35.434 35.33-19.571 0-35.435-15.816-35.435-35.33v-5.578c0 19.513 15.864 35.328 35.435 35.328" transform="translate(0 -1) translate(0 .56)"/>
            <path fill="#4B6084" d="M97.62 133.296h-3.384v16.93c0 1.103.856 2.066 1.962 2.095 1.146.034 2.081-.88 2.081-2.011v-12.181c0-1.635-.222-3.26-.659-4.833M28.058 133.296c-.43 1.484-.646 3.02-.646 4.566v12.448c0 1.11.97 2.012 2.169 2.012 1.197 0 2.167-.901 2.167-2.012v-17.014h-3.69z" transform="translate(0 -1) translate(0 .56)"/>
            <path fill="#4B6084" d="M61.62 104.79c3.584 5.577 12.468 17.634 26.856 26.113 3.464 2.038 6.644 3.594 9.528 4.765-.004-.004-.004-.011-.004-.015-.857-6.816-3.66-13.03-7.842-18.063-1.066-1.291-2.226-2.5-3.467-3.625-6.295-5.718-14.66-9.2-23.845-9.2-.408 0-.819.008-1.226.025" transform="translate(0 -1) translate(0 .56)"/>
            <path fill="#808F91" d="M27.705 135.533c4.823 1.456 14.33 2.83 29.426-1.105 15.265-3.976 26.85-11.864 33.027-16.838-1.066-1.291-2.226-2.5-3.467-3.625-6.295-5.718-14.66-9.2-23.845-9.2-.546 0-1.095.01-1.637.039-9.137.413-17.365 4.272-23.422 10.31-5.394 5.378-9.057 12.487-10.082 20.419" transform="translate(0 -1) translate(0 .56)"/>
            <path fill="#4B6084" d="M57.13 113.772c6.686-1.74 12.664-4.232 17.792-6.9 4.393 1.587 8.382 4.015 11.77 7.092 1.24 1.126 2.4 2.334 3.466 3.625-6.176 4.975-17.761 12.863-33.027 16.838-15.097 3.936-24.603 2.562-29.426 1.106.952-7.365 4.18-14.019 8.955-19.238 5.134.233 11.9-.29 20.47-2.523" transform="translate(0 -1) translate(0 .56)"/>
            <path fill="#808F91" d="M57.13 120.657c9.76-2.542 18.013-6.683 24.313-10.64 1.872 1.155 3.629 2.477 5.249 3.948 1.24 1.126 2.4 2.334 3.466 3.625-6.176 4.974-17.761 12.862-33.027 16.838-15.097 3.935-24.603 2.56-29.426 1.105.596-4.608 2.087-8.937 4.286-12.812 5.414.85 13.659.929 25.14-2.064" transform="translate(0 -1) translate(0 .56)"/>
            <path fill="#4B6084" d="M57.13 127.543c12.524-3.262 22.567-9.155 29.184-13.914.126.11.253.223.378.336 1.24 1.126 2.4 2.334 3.466 3.625-6.176 4.974-17.761 12.862-33.027 16.838-15.097 3.935-24.603 2.56-29.426 1.105.288-2.233.793-4.4 1.48-6.482 5.175 1.264 14.265 2.058 27.946-1.508" transform="translate(0 -1) translate(0 .56)"/>
            <path fill="#A62873" d="M62.84 158.792h.012c2.158 0 3.908-1.75 3.908-3.907v-5.123c0-2.158-1.75-3.908-3.908-3.908h-.012c-2.158 0-3.908 1.75-3.908 3.908v5.123c0 2.158 1.75 3.907 3.908 3.907" transform="translate(0 -1) translate(0 .56)"/>
            <path fill="#2F968A" d="M125.687 220.214v11.721h-21.51v65.137c-1.375.053-2.758.079-4.145.079-4.04 0-8.027-.22-11.948-.656-2.544-.274-5.056-.639-7.543-1.094-13.603-2.469-26.318-7.478-37.634-14.517-4.678-2.909-9.116-6.163-13.272-9.732-.033-.02-.063-.05-.093-.077C16.72 260.068 6.522 246.11 0 230.26v-7.657h.01v-2.388c0-15.296 12.444-27.691 27.777-27.691H39.84l9.203 30.078h27.614l9.203-30.078h12.054c.273 0 .545.002.815.01 14.957.43 26.957 12.659 26.957 27.681" transform="translate(0 -1) translate(0 .56)"/>
            <path fill="#007D8D" d="M21.517 263.441c1.8 1.897 3.67 3.729 5.604 5.491l-5.592-41.216-.012 35.725zM94.754 297.022c1.749.084 3.509.128 5.279.128 1.387 0 2.77-.025 4.146-.077v-69.357l-9.425 69.306z" transform="translate(0 -1) translate(0 .56)"/>
            <path fill="#FFF" d="M48.173 219.74L55.845 244.811 55.845 244.814 55.985 245.276 57.708 250.912 58.981 255.066 60.703 260.702 61.976 264.857 62.858 267.738 63.933 264.218 65.485 259.142 67.593 252.253 69.143 247.177 69.853 244.861 77.533 219.74 62.858 207.259z" transform="translate(0 -1) translate(0 .56)"/>
            <path fill="#A62873" d="M76.312 142.81c0 1.646 1.34 2.982 2.993 2.982 1.653 0 2.992-1.336 2.992-2.983 0-1.648-1.34-2.983-2.992-2.983-1.653 0-2.993 1.335-2.993 2.983M43.394 142.81c0 1.646 1.34 2.982 2.993 2.982 1.653 0 2.992-1.336 2.992-2.983 0-1.648-1.34-2.983-2.992-2.983-1.653 0-2.993 1.335-2.993 2.983M62.846 169.78c3.809 0 7.618-1.445 10.518-4.337.572-.57.572-1.495 0-2.065-.573-.571-1.5-.571-2.073 0-4.656 4.643-12.234 4.643-16.891 0-.573-.571-1.5-.571-2.073 0-.572.57-.572 1.495 0 2.065 2.9 2.892 6.709 4.337 10.519 4.337" transform="translate(0 -1) translate(0 .56)"/>
            <path fill="#E7AD26" d="M55.845 244.814L55.845 244.811 56.214 240.632 56.777 234.249 57.193 229.542 58.19 218.235 67.502 218.235 68.185 225.955 68.574 230.398 69.105 236.419 69.105 236.422 69.498 240.864 69.853 244.861 69.143 247.177 67.593 252.252 65.486 259.142 63.933 264.217 62.858 267.738 61.976 264.857 60.703 260.702 58.981 255.066 57.708 250.912 55.986 245.275z" transform="translate(0 -1) translate(0 .56)"/>
            <path fill="#E8CD5D" d="M56.776 234.25L68.575 230.397 68.183 225.955 57.191 229.544zM55.845 244.814L55.845 244.811 56.214 240.632 69.105 236.422 69.498 240.864 55.986 245.275zM57.708 250.912L58.98 255.066 67.593 252.253 69.143 247.178zM60.703 260.702L61.975 264.857 63.932 264.218 65.485 259.142zM59.661 222.604h6.37c3.592 0 6.071-3.587 4.793-6.935l-1.955-5.117c-.757-1.983-2.665-3.295-4.794-3.295h-2.46c-2.129 0-4.036 1.312-4.794 3.295l-1.954 5.117c-1.278 3.348 1.201 6.935 4.794 6.935" transform="translate(0 -1) translate(0 .56)"/>
            <path fill="#E2854A" d="M39.842 192.52L39.842 192.52 49.02 187.363 62.846 207.257 48.171 219.741zM85.862 192.52L85.862 192.52 76.684 187.363 62.858 207.257 77.532 219.741z" transform="translate(0 -1) translate(0 .56)"/>
            <path fill="#007D8D" d="M39.842 192.52l-7.603 24.156c-.275.875.183 1.813 1.043 2.135l5.9 2.213c1.485.558 1.502 2.645.026 3.225l-7.255 2.851c-1.097.431-1.451 1.806-.697 2.711l31.59 37.926-23.004-75.217zM85.862 192.52l7.603 24.156c.275.875-.183 1.813-1.043 2.135l-5.9 2.213c-1.485.558-1.502 2.645-.026 3.225l7.254 2.851c1.097.431 1.452 1.806.698 2.711l-31.59 37.926 23.004-75.217z" transform="translate(0 -1) translate(0 .56)"/>
            <path fill="#D0D2D3" d="M49.033 183.565L62.846 198.612 62.858 198.612 76.671 183.565 76.684 187.363 62.858 207.257 62.846 207.257 49.019 187.363z" transform="translate(0 -1) translate(0 .56)"/>
            <path fill="#007D8D" d="M30.666 254.396h9.204c1.59 0 2.88-1.29 2.88-2.88v-.67c0-1.59-1.29-2.88-2.88-2.88h-9.204c-1.59 0-2.879 1.29-2.879 2.88v.67c0 1.59 1.29 2.88 2.88 2.88" transform="translate(0 -1) translate(0 .56)"/>
            <path fill="#2F968A" d="M158.777 234.716l.018-.038c-.034.133-.07.265-.107.397-.037.133-.078.265-.118.398-.04.128-.085.261-.129.39-.045.131-.093.26-.14.39-.096.25-.196.492-.303.738-.052.111-.1.221-.152.331-.069.155-.147.306-.224.457l-.077.14c-.07.14-.145.278-.226.415-.114.198-.232.393-.354.588-.047.077-.095.15-.147.225-.192.29-.395.573-.609.852-.05.071-.107.137-.162.203-.11.14-.225.28-.343.42l-29.878 34.785c-2.844 3.314-6.964 5.142-11.206 5.142-1.324 0-2.663-.177-3.977-.544-5.529-1.545-9.656-6.142-10.586-11.79l-.634-3.873-5.452-33.22c-1.313-8.017 4.14-15.583 12.18-16.895 8.045-1.306 15.628 4.126 16.945 12.143l.96 5.867 9.236-10.754c5.297-6.17 14.61-6.888 20.8-1.604 4.418 3.77 6.041 9.575 4.685 14.837" transform="translate(0 -1) translate(0 .56)"/>
            <path fill="#007D8D" d="M158.795 234.678c-.033.133-.07.265-.106.397-.038.133-.079.265-.119.398-.041.128-.085.261-.129.39-.044.131-.092.26-.14.39-.096.25-.195.492-.303.738-.052.111-.099.221-.151.332-.07.154-.148.305-.225.456l-.077.14c-.07.14-.145.28-.226.415-.114.198-.232.393-.353.588-.048.077-.096.151-.148.225-.192.29-.394.573-.609.852-.051.071-.106.137-.162.203-.11.14-.225.28-.343.42l-29.878 34.785c-2.844 3.314-6.964 5.142-11.206 5.142-1.324 0-2.663-.177-3.976-.544-5.53-1.545-9.657-6.14-10.586-11.79l-.635-3.873c.015-.272-.022-.522-.121-.75.262.132 6.466 12.688 11.538 9.378 3.419-2.229 21.854-33.283 36.056-33.467 8.019-.103 10.907-2.637 11.899-4.825" transform="translate(0 -1) translate(0 .56)"/>
            <path fill="#0E6DA0" d="M159.235 231.667l.006-.14-.035-.014s.013.054.03.154" transform="translate(0 -1) translate(0 .56)"/>
            <path fill="#6BA997" d="M125.687 220.214v10.125l-1.608 1.596-13.948 13.85v-37.55c0-11.363-10.73-15.457-11.401-15.703 14.957.431 26.957 12.66 26.957 27.682" transform="translate(0 -1) translate(0 .56)"/>
            <path fill="#FFF" d="M142.78 231.52c2.973 3.607 8.316 4.13 11.936 1.166l9.867-8.082-10.767-13.067-9.867 8.082c-3.619 2.963-4.143 8.292-1.17 11.9" transform="translate(0 -1) translate(0 .56)"/>
            <path fill="#D0D2D3" d="M148.455 225.075l1.768 2.145c4.134 5.018 11.567 5.745 16.6 1.622l10.738-8.795-16.74-20.32-10.739 8.796c-5.033 4.123-5.762 11.533-1.627 16.552" transform="translate(0 -1) translate(0 .56)"/>
            <path fill="#FFF" d="M150.914 208.015l1.41 1.712c1.486 1.803 4.155 2.063 5.964.582 1.808-1.48 2.07-4.143.584-5.945l-1.41-1.712c-1.486-1.803-4.155-2.064-5.964-.583-1.808 1.481-2.069 4.143-.584 5.946M167.44 224.083c1.155 1.402 3.233 1.605 4.64.453l8.793-7.202c1.407-1.152 1.61-3.224.456-4.626-1.157-1.402-3.234-1.605-4.642-.453l-8.793 7.202c-1.406 1.152-1.61 3.224-.454 4.626" transform="translate(0 -1) translate(0 .56)"/>
            <path fill="#FFF" d="M163.255 219.004c1.155 1.401 3.232 1.605 4.64.453l8.793-7.202c1.407-1.153 1.61-3.225.455-4.626-1.157-1.403-3.234-1.606-4.641-.454l-8.793 7.201c-1.406 1.153-1.61 3.225-.454 4.627" transform="translate(0 -1) translate(0 .56)"/>
            <path fill="#FFF" d="M159.07 213.923c1.154 1.403 3.232 1.606 4.64.453l8.792-7.202c1.407-1.151 1.611-3.224.455-4.626-1.156-1.401-3.234-1.605-4.64-.453l-8.794 7.203c-1.406 1.151-1.61 3.224-.454 4.625" transform="translate(0 -1) translate(0 .56)"/>
            <path fill="#FFF" d="M154.884 208.844c1.155 1.402 3.233 1.605 4.64.453l18.22-14.924c1.408-1.152 1.612-3.223.455-4.627-1.155-1.402-3.233-1.605-4.64-.453l-18.22 14.924c-1.407 1.152-1.611 3.224-.455 4.627" transform="translate(0 -1) translate(0 .56)"/>
            <path fill="#596273" d="M194.74 58.558c-.322 0-.577.262-.577.577 0 .315.255.573.577.573h12.101c.326 0 .578-.258.578-.573 0-.315-.252-.577-.578-.577h-12.1z" transform="translate(0 -1) translate(0 .56)"/>
            <path fill="#F0CA67" d="M185.705 29.033c0-8.304 6.755-15.034 15.083-15.034 8.337 0 15.09 6.73 15.09 15.034 0 .495-.364 7.445-6.049 14.742-1.663 2.197-1.387 6.626-1.387 6.626H193.09s.316-4.43-1.34-6.626c-5.69-7.305-6.045-14.247-6.045-14.742" transform="translate(0 -1) translate(0 .56)"/>
            <path fill="#F4DA80" d="M200.788 50.401h-7.698s.316-4.429-1.34-6.626c-5.69-7.305-6.045-14.247-6.045-14.742 0-8.304 6.755-15.034 15.083-15.034" transform="translate(0 -1) translate(0 .56)"/>
            <path fill="#F4DA80" d="M212.664 29.033h-1.322c0-5.804-4.732-10.52-10.554-10.52v-1.32c6.554 0 11.876 5.31 11.876 11.84" transform="translate(0 -1) translate(0 .56)"/>
            <path fill="#30363D" d="M204.084 51.579L202.78 51.359 205.356 35.814 206.66 36.034zM197.495 51.579L194.919 36.034 196.225 35.814 198.802 51.359z" transform="translate(0 -1) translate(0 .56)"/>
            <path fill="#30363D" d="M205.922 38.003c-.535 0-.769-.523-.94-.907-.078-.161-.222-.494-.308-.494-.071.028-.172.289-.233.428-.152.388-.385.973-1.015.973-.375 0-.603-.377-.861-.814-.098-.162-.271-.446-.381-.556-.089.104-.225.33-.308.474-.276.46-.544.896-.956.896-.405 0-.667-.424-.928-.872-.092-.15-.24-.391-.329-.493-.104.105-.253.354-.35.516-.259.437-.508.849-.905.849-.442 0-.725-.473-.999-.933-.092-.153-.221-.373-.301-.46-.111.039-.187.2-.317.52-.147.367-.341.873-.885.873V37.3c.071-.027.169-.286.224-.426.16-.392.391-.972 1.024-.972.375 0 .599.372.861.809.098.163.273.449.378.562.092-.108.231-.334.314-.477.279-.465.537-.894.956-.894.405 0 .66.42.932.868.092.153.229.39.325.498.102-.111.252-.36.348-.517.258-.438.507-.85.9-.85.446 0 .729.473.996.935.096.149.234.37.308.458.107-.04.19-.198.319-.521.142-.373.348-.871.883-.871.538 0 .774.523.946.908.072.16.219.49.302.49v.703zM208.474 50.409v7.865c0 .535-.437.974-.98.974h-13.39c-.537 0-.977-.44-.977-.974v-7.865h15.347z" transform="translate(0 -1) translate(0 .56)"/>
            <path fill="#103754" d="M208.778 51.17L192.803 51.17" transform="translate(0 -1) translate(0 .56)"/>
            <path fill="#596273" d="M208.778 51.94h-15.975c-.423 0-.774-.345-.774-.77 0-.427.351-.772.774-.772h15.975c.43 0 .774.345.774.772 0 .425-.344.77-.774.77" transform="translate(0 -1) translate(0 .56)"/>
            <path fill="#30363D" d="M208.778 53.738L192.803 53.738" transform="translate(0 -1) translate(0 .56)"/>
            <path fill="#596273" d="M208.778 54.508h-15.975c-.423 0-.774-.348-.774-.77 0-.423.351-.77.774-.77h15.975c.43 0 .774.347.774.77 0 .422-.344.77-.774.77" transform="translate(0 -1) translate(0 .56)"/>
            <path fill="#30363D" d="M208.778 56.305L192.803 56.305" transform="translate(0 -1) translate(0 .56)"/>
            <path fill="#596273" d="M208.778 57.078h-15.975c-.423 0-.774-.341-.774-.772 0-.424.351-.772.774-.772h15.975c.43 0 .774.348.774.772 0 .43-.344.772-.774.772" transform="translate(0 -1) translate(0 .56)"/>
            <path stroke="#E7AD26" d="M200.788 8.695L200.788.44M190.222 11.528L186.083 4.372M182.493 19.238L175.314 15.106M179.667 29.768L171.379 29.768M219.086 40.287L226.268 44.423M221.921 29.757L230.206 29.757M219.086 19.227L226.262 15.095M211.348 11.52L215.493 4.365M200.788 8.695L200.788.44M200.797 8.695L200.797.44M211.355 11.528L215.499 4.372M219.086 19.238L226.268 15.106M221.921 29.768L230.206 29.768M182.493 40.287L175.314 44.423M179.667 29.757L171.379 29.757M182.502 19.227L175.32 15.095M190.236 11.52L186.092 4.365M200.797 8.695L200.797.44" transform="translate(0 -1) translate(0 .56)"/>
        </g>
        <text fill="#BF412E" font-family="PingFangTC-Medium, PingFang TC" font-size="92" font-weight="400" letter-spacing="17.25" transform="translate(0 -1)">
            <tspan x="177" y="189">3</tspan>
        </text>
    </g>
</svg>
