<?xml version="1.0" encoding="UTF-8"?>
<svg width="273px" height="250px" viewBox="0 0 273 250" version="1.1" xmlns="http://www.w3.org/2000/svg" xmlns:xlink="http://www.w3.org/1999/xlink">
    <!-- Generator: Sketch 61.1 (89650) - https://sketch.com -->
    <title>Group 8 0utline</title>
    <desc>Created with Sketch.</desc>
    <defs>
        <polygon id="path-1" points="0.2257 0 69.7917 0 69.7917 76.4488 0.2257 76.4488"></polygon>
        <polygon id="path-3" points="0.4966 0 36.2116 0 36.2116 30.4218 0.4966 30.4218"></polygon>
        <polygon id="path-5" points="0.1976 0 61.5036 0 61.5036 31.7376213 0.1976 31.7376213"></polygon>
        <polygon id="path-7" points="0 0.0741 272.9997 0.0741 272.9997 129 0 129"></polygon>
        <polygon id="path-9" points="0 250 273 250 273 0 0 0"></polygon>
    </defs>
    <g id="懶人包" stroke="none" stroke-width="1" fill="none" fill-rule="evenodd">
        <g id="小資振興_懶人包_800振興" transform="translate(-453.000000, -858.000000)">
            <g id="Group-8-0utline" transform="translate(453.000000, 858.000000)">
                <g id="Group-105">
                    <path d="M214.6969,116.0116 L214.6969,136.1646 C212.0489,139.2446 209.1689,142.1236 206.0889,144.7756 C206.0649,144.7956 206.0429,144.8166 206.0189,144.8366 C202.8869,147.5256 199.5449,149.9846 196.0239,152.1816 C195.2049,152.6936 194.3729,153.1916 193.5329,153.6746 C193.5299,153.6776 193.5279,153.6776 193.5219,153.6806 C191.9679,154.5746 190.3839,155.4206 188.7669,156.2116 L188.7639,156.2116 C182.1859,159.4356 175.1129,161.7946 167.6859,163.1456 C165.8139,163.4886 163.9219,163.7636 162.0059,163.9736 C161.2659,164.0546 160.5269,164.1266 159.7819,164.1866 C157.6049,164.3676 155.4019,164.4606 153.1779,164.4666 L152.8269,164.4666 C150.6179,164.4606 148.4289,164.3676 146.2659,164.1896 C146.2579,164.1896 146.2459,164.1896 146.2349,164.1866 C145.4889,164.1266 144.7509,164.0546 144.0109,163.9736 C142.0719,163.7616 140.1569,163.4826 138.2609,163.1346 C130.8579,161.7796 123.8049,159.4246 117.2499,156.2116 C115.6309,155.4176 114.0399,154.5726 112.4839,153.6776 C111.6439,153.1916 110.8129,152.6936 109.9929,152.1816 C106.4459,149.9696 103.0839,147.4906 99.9279,144.7756 C96.8479,142.1236 93.9679,139.2446 91.3199,136.1646 L91.3199,113.6556 C91.3199,107.7196 93.2179,102.2286 96.4389,97.7506 C101.3889,90.8736 109.4669,86.3926 118.5869,86.3926 L187.4209,86.3926 C188.7699,86.3926 190.0959,86.4906 191.3929,86.6806 C198.8659,87.7706 205.3549,91.8916 209.5719,97.7596 C212.7909,102.2316 214.6829,107.7226 214.6829,113.6556 L214.6829,116.0116 L214.6969,116.0116 Z" id="Fill-1" fill="#079690"></path>
                    <path d="M112.4836,121.0736 L112.4836,153.6776 C111.6436,153.1916 110.8126,152.6936 109.9926,152.1816 C106.4456,149.9696 103.0836,147.4906 99.9286,144.7756 C96.8476,142.1236 93.9686,139.2446 91.3196,136.1646 L91.3196,121.0736 L112.4836,121.0736 Z" id="Fill-3" fill="#FFFFFF"></path>
                    <path d="M214.6969,121.0736 L214.6969,136.1646 C212.0489,139.2446 209.1689,142.1236 206.0889,144.7756 C206.0649,144.7956 206.0429,144.8166 206.0189,144.8366 C202.8869,147.5256 199.5449,149.9846 196.0239,152.1816 C195.2049,152.6936 194.3729,153.1916 193.5329,153.6746 L193.5329,121.0736 L214.6969,121.0736 Z" id="Fill-5" fill="#FFFFFF"></path>
                    <path d="M118.364,50.9584 L118.364,50.9584 C115.143,50.9584 112.532,48.3484 112.532,45.1274 L112.532,36.2394 C112.532,33.0184 115.143,30.4084 118.364,30.4084 L118.364,30.4084 C121.584,30.4084 124.195,33.0184 124.195,36.2394 L124.195,45.1274 C124.195,48.3484 121.584,50.9584 118.364,50.9584" id="Fill-7" fill="#FFFFFF"></path>
                    <path d="M118.3635,48.2118 L118.3635,48.2118 C115.1435,48.2118 112.5325,45.6018 112.5325,42.3808 L112.5325,45.1278 C112.5325,48.3478 115.1435,50.9588 118.3635,50.9588 C121.5845,50.9588 124.1955,48.3478 124.1955,45.1278 L124.1955,42.3808 C124.1955,45.6018 121.5845,48.2118 118.3635,48.2118" id="Fill-9" fill="#D0D2D3"></path>
                    <path d="M187.654,50.9584 L187.653,50.9584 C184.432,50.9584 181.822,48.3484 181.822,45.1274 L181.822,36.2394 C181.822,33.0184 184.432,30.4084 187.653,30.4084 L187.654,30.4084 C190.874,30.4084 193.485,33.0184 193.485,36.2394 L193.485,45.1274 C193.485,48.3484 190.874,50.9584 187.654,50.9584" id="Fill-11" fill="#FFFFFF"></path>
                    <path d="M187.653,48.2118 L187.653,48.2118 C184.432,48.2118 181.822,45.6018 181.822,42.3808 L181.822,45.1278 C181.822,48.3478 184.432,50.9588 187.653,50.9588 C190.874,50.9588 193.485,48.3478 193.485,45.1278 L193.485,42.3808 C193.485,45.6018 190.874,48.2118 187.653,48.2118" id="Fill-13" fill="#D0D2D3"></path>
                    <path d="M139.4377,67.9657 L139.4377,86.3917 L139.4277,86.3917 L139.4307,86.3957 C146.2637,95.3537 159.7487,95.3527 166.5787,86.3917 L166.5797,86.3917 L166.5797,67.9657 L139.4377,67.9657 Z" id="Fill-15" fill="#FFFFFF"></path>
                    <g id="Group-19" transform="translate(118.000000, 0.000000)">
                        <mask id="mask-2" fill="white">
                            <use xlink:href="#path-1"></use>
                        </mask>
                        <g id="Clip-18"></g>
                        <path d="M0.8727,28.0868 C2.0017,22.2878 4.5707,17.0038 8.1977,12.6248 C9.2447,11.3538 10.3837,10.1648 11.6007,9.0558 C17.7797,3.4268 25.9927,-0.0002 35.0087,-0.0002 C35.4087,-0.0002 35.8117,0.0068 36.2117,0.0238 C36.3477,0.0238 36.4827,0.0308 36.6147,0.0378 C45.5837,0.4438 53.6607,4.2438 59.6057,10.1888 C64.8997,15.4828 68.4967,22.4808 69.5037,30.2898 C69.6927,31.7608 69.7917,33.2588 69.7917,34.7808 L69.7917,41.6678 C69.7917,60.8788 54.2207,76.4488 35.0087,76.4488 C15.7997,76.4488 0.2257,60.8788 0.2257,41.6678 L0.2257,34.7808 C0.2257,33.3028 0.3167,31.8488 0.4967,30.4218 L0.8727,28.0868 Z" id="Fill-17" fill="#FFFFFF" mask="url(#mask-2)"></path>
                    </g>
                    <path d="M153.0085,70.9555 C133.8005,70.9555 118.2255,55.3855 118.2255,36.1745 L118.2255,41.6675 C118.2255,60.8785 133.8005,76.4485 153.0085,76.4485 C172.2205,76.4485 187.7915,60.8785 187.7915,41.6675 L187.7915,36.1745 C187.7915,55.3855 172.2205,70.9555 153.0085,70.9555" id="Fill-20" fill="#D0D2D3"></path>
                    <path d="M118.8727,28.0868 L122.1947,28.0868 L122.1947,44.7548 C122.1947,45.8418 121.3547,46.7888 120.2687,46.8188 C119.1437,46.8498 118.2257,45.9498 118.2257,44.8368 L118.2257,32.8458 C118.2257,31.2368 118.4427,29.6368 118.8727,28.0868" id="Fill-22" fill="#4B6084"></path>
                    <path d="M187.7917,32.5854 L187.7917,44.7664 C187.7917,45.7754 187.0667,46.6754 186.0647,46.8034 C184.8547,46.9574 183.8227,46.0174 183.8227,44.8364 L183.8227,28.0864 L187.1467,28.0864 C187.5747,29.5484 187.7917,31.0634 187.7917,32.5854" id="Fill-24" fill="#4B6084"></path>
                    <g id="Group-28" transform="translate(118.000000, 0.000000)">
                        <mask id="mask-4" fill="white">
                            <use xlink:href="#path-3"></use>
                        </mask>
                        <g id="Clip-27"></g>
                        <path d="M36.2116,0.0238 C32.6936,5.5148 23.9726,17.3838 9.8486,25.7318 C6.4486,27.7378 3.3266,29.2698 0.4966,30.4218 C0.5006,30.4188 0.5006,30.4118 0.5006,30.4088 C1.3406,23.6978 4.0926,17.5798 8.1976,12.6248 C9.2446,11.3538 10.3836,10.1648 11.6006,9.0558 C17.7796,3.4268 25.9926,-0.0002 35.0086,-0.0002 C35.4086,-0.0002 35.8116,0.0068 36.2116,0.0238" id="Fill-26" fill="#4B6084" mask="url(#mask-4)"></path>
                    </g>
                    <g id="Group-31" transform="translate(126.000000, 0.000000)">
                        <mask id="mask-6" fill="white">
                            <use xlink:href="#path-5"></use>
                        </mask>
                        <g id="Clip-30"></g>
                        <path d="M61.5036,30.2899 C56.7686,31.7239 47.4376,33.0759 32.6186,29.2019 C17.6326,25.2879 6.2616,17.5219 0.1976,12.6249 C1.2446,11.3539 2.3836,10.1649 3.6006,9.0559 C9.7796,3.4269 17.9926,-0.0001 27.0086,-0.0001 C27.5446,-0.0001 28.0836,0.0099 28.6146,0.0379 C37.5836,0.4439 45.6606,4.2439 51.6066,10.1879 C56.8996,15.4819 60.4966,22.4809 61.5036,30.2899" id="Fill-29" fill="#808F91" mask="url(#mask-6)"></path>
                    </g>
                    <path d="M158.6183,8.8661 C152.0563,7.1521 146.1873,4.6991 141.1543,2.0731 C136.8413,3.6361 132.9263,6.0261 129.6003,9.0561 C128.3843,10.1641 127.2443,11.3541 126.1973,12.6251 C132.2613,17.5221 143.6333,25.2871 158.6183,29.2021 C173.4373,33.0761 182.7683,31.7231 187.5033,30.2901 C186.5693,23.0391 183.3993,16.4891 178.7123,11.3511 C173.6733,11.5791 167.0313,11.0661 158.6183,8.8661" id="Fill-32" fill="#4B6084"></path>
                    <path d="M158.6183,15.6449 C149.0373,13.1419 140.9373,9.0659 134.7533,5.1709 C132.9153,6.3069 131.1903,7.6079 129.6003,9.0559 C128.3843,10.1649 127.2443,11.3539 126.1973,12.6249 C132.2613,17.5219 143.6333,25.2879 158.6183,29.2019 C173.4373,33.0759 182.7683,31.7239 187.5033,30.2899 C186.9183,25.7529 185.4543,21.4919 183.2953,17.6769 C177.9813,18.5139 169.8883,18.5909 158.6183,15.6449" id="Fill-34" fill="#808F91"></path>
                    <path d="M158.6183,22.4232 C146.3253,19.2122 136.4663,13.4102 129.9723,8.7252 C129.8473,8.8352 129.7233,8.9442 129.6003,9.0562 C128.3843,10.1642 127.2443,11.3542 126.1973,12.6252 C132.2613,17.5222 143.6333,25.2872 158.6183,29.2022 C173.4373,33.0762 182.7683,31.7232 187.5033,30.2902 C187.2203,28.0902 186.7243,25.9592 186.0493,23.9082 C180.9703,25.1522 172.0473,25.9342 158.6183,22.4232" id="Fill-36" fill="#4B6084"></path>
                    <path d="M153.0085,53.1884 L153.0085,53.1884 C150.8865,53.1884 149.1665,51.4684 149.1665,49.3464 L149.1665,44.2924 C149.1665,42.1704 150.8865,40.4504 153.0085,40.4504 C155.1305,40.4504 156.8505,42.1704 156.8505,44.2924 L156.8505,49.3464 C156.8505,51.4684 155.1305,53.1884 153.0085,53.1884" id="Fill-38" fill="#A62873"></path>
                    <path d="M139.7892,37.453 C139.7892,39.076 138.4742,40.391 136.8512,40.391 C135.2292,40.391 133.9142,39.076 133.9142,37.453 C133.9142,35.831 135.2292,34.516 136.8512,34.516 C138.4742,34.516 139.7892,35.831 139.7892,37.453" id="Fill-40" fill="#A62873"></path>
                    <path d="M172.1022,37.453 C172.1022,39.076 170.7882,40.391 169.1642,40.391 C167.5422,40.391 166.2272,39.076 166.2272,37.453 C166.2272,35.831 167.5422,34.516 169.1642,34.516 C170.7882,34.516 172.1022,35.831 172.1022,37.453" id="Fill-42" fill="#A62873"></path>
                    <path d="M153.0085,63.474 C149.2555,63.474 145.7245,62.01 143.0675,59.353 C142.7165,59.003 142.7165,58.436 143.0675,58.086 C143.4165,57.736 143.9845,57.736 144.3345,58.086 C146.6535,60.405 149.7345,61.682 153.0085,61.682 C156.2825,61.682 159.3635,60.405 161.6825,58.086 C162.0325,57.736 162.5995,57.736 162.9495,58.086 C163.2995,58.436 163.2995,59.003 162.9495,59.353 C160.2925,62.01 156.7615,63.474 153.0085,63.474" id="Fill-44" fill="#A62873"></path>
                    <polygon id="Fill-46" fill="#F23E23" points="153.0085 160.4066 152.9925 160.4246 152.9985 160.4446 153.0095 160.4076"></polygon>
                    <path d="M183.4831,98.8344 C183.9811,102.3294 183.2621,99.5034 183.4831,98.8324 C178.9991,93.5684 173.2841,89.5014 166.5791,86.3934 L166.5781,86.3934 C159.7471,95.3524 146.2631,95.3544 139.4311,86.3964 L139.4291,86.3934 C125.2951,92.9474 115.5441,103.7594 112.4841,121.0734 L112.4841,153.6774 C114.0401,154.5724 115.6301,155.4174 117.2501,156.2114 C123.8051,159.4244 130.8581,161.7794 138.2611,163.1344 C140.1571,163.4824 142.0721,163.7614 144.0111,163.9744 C144.7511,164.0544 145.4891,164.1264 146.2341,164.1874 C146.2461,164.1894 146.2571,164.1894 146.2661,164.1894 L151.3111,164.3994 L152.8271,164.4604 L152.8271,164.4744 L152.8531,164.4744 L153.0051,164.4664 L153.0081,164.4664 L153.1551,164.4744 L153.1781,164.4744 L153.1781,164.4604 L154.7051,164.3974 L159.7821,164.1874 C160.5271,164.1264 161.2661,164.0544 162.0051,163.9744 C163.9211,163.7644 165.8141,163.4884 167.6861,163.1464 C175.1131,161.7944 182.1861,159.4354 188.7641,156.2114 L188.7671,156.2114 C190.3831,155.4204 191.9681,154.5754 193.5221,153.6804 L193.5221,121.0734 C191.9151,111.9714 188.4551,104.6684 183.4831,98.8344" id="Fill-48" fill="#2C416D"></path>
                    <path d="M193.5329,153.6747 L193.5219,128.1747 L193.5189,121.0737 L188.7669,156.2117 C190.3839,155.4207 191.9689,154.5747 193.5219,153.6807 L193.5329,153.6747 Z" id="Fill-50" fill="#0E6DA0"></path>
                    <path d="M117.2497,156.2113 C115.6307,155.4183 114.0397,154.5723 112.4837,153.6773 L112.4837,121.0733 L117.2497,156.2113 Z" id="Fill-52" fill="#0E6DA0"></path>
                    <path d="M166.5778,86.393 C159.7478,95.352 146.2638,95.354 139.4308,86.396 L139.4288,86.393 L133.7818,86.393 C136.5438,92.739 144.1058,97.297 153.0088,97.297 C161.9108,97.297 169.4738,92.739 172.2348,86.393 L166.5778,86.393 Z" id="Fill-54" fill="#0E6DA0"></path>
                    <path d="M98.1286,118.515 L98.1286,120.806 C98.1286,123.219 100.0846,125.175 102.4976,125.175 L102.4986,125.175 C104.9106,125.175 106.8666,123.219 106.8666,120.806 L106.8666,118.515 C106.8666,116.102 104.9106,114.146 102.4986,114.146 L102.4976,114.146 C100.0846,114.146 98.1286,116.102 98.1286,118.515" id="Fill-56" fill="#FFFFFF"></path>
                    <path d="M208.0885,118.515 L208.0885,120.806 C208.0885,123.219 206.1325,125.175 203.7195,125.175 C201.3065,125.175 199.3505,123.219 199.3505,120.806 L199.3505,118.515 C199.3505,116.102 201.3065,114.146 203.7195,114.146 C206.1325,114.146 208.0885,116.102 208.0885,118.515" id="Fill-58" fill="#FFFFFF"></path>
                    <g id="Group-62" transform="translate(0.000000, 121.000000)">
                        <mask id="mask-8" fill="white">
                            <use xlink:href="#path-7"></use>
                        </mask>
                        <g id="Clip-61"></g>
                        <path d="M272.9997,0.0741 L272.9997,128.5211 C272.8537,128.6841 272.7147,128.8421 272.5627,129.0001 L0.4367,129.0001 C0.2857,128.8421 0.1457,128.6841 -0.0003,128.5211 L-0.0003,0.0741 L272.9997,0.0741 Z" id="Fill-60" fill="#C6642F" mask="url(#mask-8)"></path>
                    </g>
                    <polygon id="Fill-63" fill="#F8F6DE" points="260.7175 134.3559 260.7175 249.9999 12.2825 249.9999 12.2825 133.3559"></polygon>
                    <path d="M99.0983,116.5019 L99.0983,116.5019 C97.2213,116.5019 95.6983,118.0239 95.6983,119.9019 L95.6983,118.1569 C95.6983,116.2789 94.1763,114.7569 92.2993,114.7569 C90.4213,114.7569 88.8993,116.2789 88.8993,118.1569 L88.8993,119.9019 C88.8993,118.0239 87.3773,116.5019 85.4993,116.5019 C83.6223,116.5019 82.1003,118.0239 82.1003,119.9019 L82.1003,121.6469 C82.1003,119.7689 80.5773,118.2479 78.7003,118.2479 C76.8233,118.2479 75.3013,119.7689 75.3013,121.6469 L75.3013,129.8909 C75.3013,131.7679 76.8233,133.2899 78.7003,133.2899 C80.5773,133.2899 82.1003,131.7679 82.1003,129.8909 C82.1003,131.7679 83.6223,133.2899 85.4993,133.2899 C87.3773,133.2899 88.8993,131.7679 88.8993,129.8909 C88.8993,131.7679 90.4213,133.2899 92.2993,133.2899 C94.1763,133.2899 95.6983,131.7679 95.6983,129.8909 C95.6983,131.7679 97.2213,133.2899 99.0983,133.2899 C100.9753,133.2899 102.4973,131.7679 102.4973,129.8909 L102.4973,119.9019 C102.4973,118.0239 100.9753,116.5019 99.0983,116.5019" id="Fill-65" fill="#D0D2D3"></path>
                    <path d="M227.5173,118.2475 C225.6393,118.2475 224.1183,119.7685 224.1183,121.6465 L224.1183,119.9015 C224.1183,118.0235 222.5953,116.5015 220.7173,116.5015 C218.8403,116.5015 217.3183,118.0235 217.3183,119.9015 L217.3183,118.1565 C217.3183,116.2785 215.7963,114.7565 213.9183,114.7565 C212.0403,114.7565 210.5193,116.2785 210.5193,118.1565 L210.5193,119.9015 C210.5193,118.0235 208.9963,116.5015 207.1193,116.5015 C205.2423,116.5015 203.7193,118.0235 203.7193,119.9015 L203.7193,129.8915 C203.7193,131.7685 205.2423,133.2895 207.1193,133.2895 C208.9963,133.2895 210.5193,131.7685 210.5193,129.8915 C210.5193,131.7685 212.0403,133.2895 213.9183,133.2895 C215.7963,133.2895 217.3183,131.7685 217.3183,129.8915 C217.3183,131.7685 218.8403,133.2895 220.7173,133.2895 C222.5953,133.2895 224.1183,131.7685 224.1183,129.8915 C224.1183,131.7685 225.6393,133.2895 227.5173,133.2895 C229.3943,133.2895 230.9163,131.7685 230.9163,129.8915 L230.9163,121.6465 C230.9163,119.7685 229.3943,118.2475 227.5173,118.2475" id="Fill-67" fill="#D0D2D3"></path>
                    <path d="M99.0983,128.9272 L99.0983,128.9272 C100.9753,128.9272 102.4973,127.4052 102.4973,125.5282 L102.4973,115.5392 C102.4973,113.6612 100.9753,112.1392 99.0983,112.1392 C97.2213,112.1392 95.6983,113.6612 95.6983,115.5392 L95.6983,125.5282 C95.6983,127.4052 97.2213,128.9272 99.0983,128.9272" id="Fill-69" fill="#FFFFFF"></path>
                    <path d="M92.299,128.9272 L92.299,128.9272 C94.176,128.9272 95.698,127.4052 95.698,125.5282 L95.698,113.7932 C95.698,111.9162 94.176,110.3942 92.299,110.3942 C90.422,110.3942 88.899,111.9162 88.899,113.7932 L88.899,125.5282 C88.899,127.4052 90.422,128.9272 92.299,128.9272" id="Fill-71" fill="#FFFFFF"></path>
                    <path d="M85.4997,128.9272 L85.4997,128.9272 C87.3767,128.9272 88.8987,127.4052 88.8987,125.5282 L88.8987,115.5392 C88.8987,113.6612 87.3767,112.1392 85.4997,112.1392 C83.6227,112.1392 82.1007,113.6612 82.1007,115.5392 L82.1007,125.5282 C82.1007,127.4052 83.6227,128.9272 85.4997,128.9272" id="Fill-73" fill="#FFFFFF"></path>
                    <path d="M78.7004,128.9272 L78.7004,128.9272 C80.5774,128.9272 82.1004,127.4052 82.1004,125.5282 L82.1004,117.2842 C82.1004,115.4062 80.5774,113.8842 78.7004,113.8842 C76.8234,113.8842 75.3014,115.4062 75.3014,117.2842 L75.3014,125.5282 C75.3014,127.4052 76.8234,128.9272 78.7004,128.9272" id="Fill-75" fill="#FFFFFF"></path>
                    <path d="M207.1198,128.9272 L207.1188,128.9272 C205.2418,128.9272 203.7198,127.4052 203.7198,125.5282 L203.7198,115.5392 C203.7198,113.6612 205.2418,112.1392 207.1188,112.1392 L207.1198,112.1392 C208.9968,112.1392 210.5188,113.6612 210.5188,115.5392 L210.5188,125.5282 C210.5188,127.4052 208.9968,128.9272 207.1198,128.9272" id="Fill-77" fill="#FFFFFF"></path>
                    <path d="M213.9186,128.9272 L213.9186,128.9272 C212.0406,128.9272 210.5196,127.4052 210.5196,125.5282 L210.5196,113.7932 C210.5196,111.9162 212.0406,110.3942 213.9186,110.3942 C215.7966,110.3942 217.3176,111.9162 217.3176,113.7932 L217.3176,125.5282 C217.3176,127.4052 215.7966,128.9272 213.9186,128.9272" id="Fill-79" fill="#FFFFFF"></path>
                    <path d="M220.7175,128.9272 L220.7175,128.9272 C218.8405,128.9272 217.3185,127.4052 217.3185,125.5282 L217.3185,115.5392 C217.3185,113.6612 218.8405,112.1392 220.7175,112.1392 C222.5955,112.1392 224.1175,113.6612 224.1175,115.5392 L224.1175,125.5282 C224.1175,127.4052 222.5955,128.9272 220.7175,128.9272" id="Fill-81" fill="#FFFFFF"></path>
                    <path d="M227.5173,128.9272 L227.5173,128.9272 C225.6393,128.9272 224.1183,127.4052 224.1183,125.5282 L224.1183,117.2842 C224.1183,115.4062 225.6393,113.8842 227.5173,113.8842 C229.3953,113.8842 230.9163,115.4062 230.9163,117.2842 L230.9163,125.5282 C230.9163,127.4052 229.3953,128.9272 227.5173,128.9272" id="Fill-83" fill="#FFFFFF"></path>
                    <mask id="mask-10" fill="white">
                        <use xlink:href="#path-9"></use>
                    </mask>
                    <g id="Clip-86"></g>
                    <polygon id="Fill-85" fill="#C6642F" mask="url(#mask-10)" points="0 250 273 250 273 237.719 0 237.719"></polygon>
                    <path d="M79.9557,41.976 L79.9557,85.789 C79.9557,87.726 79.1137,89.466 77.7737,90.666 C76.6177,91.7 75.0857,92.333 73.4107,92.333 L32.5057,92.333 C28.8927,92.333 25.9607,89.405 25.9607,85.789 L25.9607,41.976 C25.9607,38.363 28.8927,35.432 32.5057,35.432 L73.4107,35.432 C77.0237,35.432 79.9557,38.363 79.9557,41.976" id="Fill-87" fill="#E28F4C" mask="url(#mask-10)"></path>
                    <path d="M73.4108,89.4159 L32.5058,89.4159 C28.8908,89.4159 25.9608,86.4859 25.9608,82.8719 L25.9608,85.7899 C25.9608,89.4039 28.8908,92.3339 32.5058,92.3339 L73.4108,92.3339 C77.0248,92.3339 79.9558,89.4039 79.9558,85.7899 L79.9558,82.8719 C79.9558,86.4859 77.0248,89.4159 73.4108,89.4159" id="Fill-88" fill="#821F22" mask="url(#mask-10)"></path>
                    <path d="M36.905,41.9008 L36.483,41.9008 C35.268,41.9008 34.284,40.9168 34.284,39.7028 L34.284,31.1618 C34.284,29.9478 35.268,28.9638 36.483,28.9638 L36.905,28.9638 C38.119,28.9638 39.103,29.9478 39.103,31.1618 L39.103,39.7028 C39.103,40.9168 38.119,41.9008 36.905,41.9008" id="Fill-89" fill="#A00B0F" mask="url(#mask-10)"></path>
                    <path d="M47.7477,41.9008 L47.3257,41.9008 C46.1117,41.9008 45.1267,40.9168 45.1267,39.7028 L45.1267,31.1618 C45.1267,29.9478 46.1117,28.9638 47.3257,28.9638 L47.7477,28.9638 C48.9617,28.9638 49.9457,29.9478 49.9457,31.1618 L49.9457,39.7028 C49.9457,40.9168 48.9617,41.9008 47.7477,41.9008" id="Fill-90" fill="#A00B0F" mask="url(#mask-10)"></path>
                    <path d="M58.5905,41.9008 L58.1685,41.9008 C56.9545,41.9008 55.9695,40.9168 55.9695,39.7028 L55.9695,31.1618 C55.9695,29.9478 56.9545,28.9638 58.1685,28.9638 L58.5905,28.9638 C59.8045,28.9638 60.7895,29.9478 60.7895,31.1618 L60.7895,39.7028 C60.7895,40.9168 59.8045,41.9008 58.5905,41.9008" id="Fill-91" fill="#A00B0F" mask="url(#mask-10)"></path>
                    <path d="M69.4338,41.9008 L69.0118,41.9008 C67.7968,41.9008 66.8128,40.9168 66.8128,39.7028 L66.8128,31.1618 C66.8128,29.9478 67.7968,28.9638 69.0118,28.9638 L69.4338,28.9638 C70.6478,28.9638 71.6318,29.9478 71.6318,31.1618 L71.6318,39.7028 C71.6318,40.9168 70.6478,41.9008 69.4338,41.9008" id="Fill-92" fill="#A00B0F" mask="url(#mask-10)"></path>
                    <polygon id="Fill-93" fill="#0BA99A" mask="url(#mask-10)" points="33.491 56.708 43.85 56.708 43.85 46.349 33.491 46.349"></polygon>
                    <polygon id="Fill-94" fill="#FFFFFF" mask="url(#mask-10)" points="47.778 56.708 58.138 56.708 58.138 46.349 47.778 46.349"></polygon>
                    <polygon id="Fill-95" fill="#FFFFFF" mask="url(#mask-10)" points="62.065 56.708 72.425 56.708 72.425 46.349 62.065 46.349"></polygon>
                    <polygon id="Fill-96" fill="#FFFFFF" mask="url(#mask-10)" points="33.491 70.477 43.85 70.477 43.85 60.118 33.491 60.118"></polygon>
                    <polygon id="Fill-97" fill="#FFFFFF" mask="url(#mask-10)" points="47.778 70.477 58.138 70.477 58.138 60.118 47.778 60.118"></polygon>
                    <polygon id="Fill-98" fill="#FFFFFF" mask="url(#mask-10)" points="62.065 70.477 72.425 70.477 72.425 60.118 62.065 60.118"></polygon>
                    <polygon id="Fill-99" fill="#FFFFFF" mask="url(#mask-10)" points="33.491 84.246 43.85 84.246 43.85 73.887 33.491 73.887"></polygon>
                    <polygon id="Fill-100" fill="#0BA99A" mask="url(#mask-10)" points="47.778 84.246 58.138 84.246 58.138 73.887 47.778 73.887"></polygon>
                    <polygon id="Fill-101" fill="#FFFFFF" mask="url(#mask-10)" points="62.065 84.246 72.425 84.246 72.425 73.887 62.065 73.887"></polygon>
                    <path d="M79.9557,49.7416 L79.9557,85.7886 C79.9557,87.7256 79.1137,89.4666 77.7737,90.6666 C71.2427,86.4776 66.9177,79.1566 66.9177,70.8276 C66.9177,61.5956 72.2237,53.6076 79.9557,49.7416" id="Fill-102" fill="#974413" mask="url(#mask-10)"></path>
                    <path d="M109.9289,66.4633 C109.9289,77.2033 101.2209,85.9103 90.4799,85.9103 C79.7399,85.9103 71.0319,77.2033 71.0319,66.4633 C71.0319,55.7223 79.7399,47.0163 90.4799,47.0163 C101.2209,47.0163 109.9289,55.7223 109.9289,66.4633" id="Fill-103" fill="#672960" mask="url(#mask-10)"></path>
                    <path d="M96.3161,72.9267 C95.8681,72.9267 95.4161,72.7887 95.0271,72.5037 L89.1901,68.2217 C88.6301,67.8107 88.2991,67.1577 88.2991,66.4627 L88.2991,54.1657 C88.2991,52.9617 89.2751,51.9847 90.4811,51.9847 C91.6861,51.9847 92.6621,52.9617 92.6621,54.1657 L92.6621,65.3577 L97.6081,68.9867 C98.5801,69.6987 98.7891,71.0637 98.0761,72.0357 C97.6491,72.6177 96.9871,72.9267 96.3161,72.9267" id="Fill-104" fill="#FFFFFF" mask="url(#mask-10)"></path>
                </g>
                <path d="M49.2073282,174 L49.2073282,170.450391 L39.6706095,170.450391 L44.7131876,165.133594 C46.0944376,163.620312 47.0694376,162.294922 47.6381876,161.157422 C48.2069376,160.019922 48.4913126,158.902734 48.4913126,157.805859 C48.4913126,155.805078 47.859086,154.25625 46.5946329,153.159375 C45.3301798,152.0625 43.5553751,151.514062 41.2702188,151.514062 C39.7772501,151.514062 38.4417032,151.831445 37.2635782,152.466211 C36.0854532,153.100977 35.1739298,153.976953 34.5290079,155.094141 C33.884086,156.211328 33.5616251,157.445312 33.5616251,158.796094 L33.5616251,158.796094 L37.9795938,158.796094 C37.9795938,157.678906 38.2665079,156.777539 38.840336,156.091992 C39.4141642,155.406445 40.1987345,155.063672 41.194047,155.063672 C42.1182657,155.063672 42.8292032,155.345508 43.3268595,155.90918 C43.8245157,156.472852 44.0733438,157.247266 44.0733438,158.232422 C44.0733438,158.953516 43.837211,159.715234 43.3649454,160.517578 C42.8926798,161.319922 42.1639688,162.259375 41.1788126,163.335938 L41.1788126,163.335938 L34.003422,170.983594 L34.003422,174 L49.2073282,174 Z M60.7054219,174.304688 C63.1530782,174.304688 65.0116719,173.492188 66.2812032,171.867188 C67.5507344,170.242188 68.1855,167.896094 68.1855,164.828906 L68.1855,164.828906 L68.1855,160.746094 C68.1550313,157.770313 67.4999532,155.487695 66.2202657,153.898242 C64.9405782,152.308789 63.0921407,151.514062 60.6749532,151.514062 C58.2577657,151.514062 56.4067891,152.316406 55.1220235,153.921094 C53.8372579,155.525781 53.194875,157.876953 53.194875,160.974609 L53.194875,160.974609 L53.194875,165.057422 C53.2253438,168.033203 53.8804219,170.318359 55.1601094,171.912891 C56.4397969,173.507422 58.2882344,174.304688 60.7054219,174.304688 Z M60.7054219,170.755078 C59.6187032,170.755078 58.8290547,170.31582 58.3364766,169.437305 C57.8438985,168.558789 57.5976094,167.215625 57.5976094,165.407813 L57.5976094,165.407813 L57.5976094,160.014844 C57.6280782,158.31875 57.8896016,157.07207 58.3821797,156.274805 C58.8747579,155.477539 59.6390157,155.078906 60.6749532,155.078906 C61.7413594,155.078906 62.5259297,155.497852 63.0286641,156.335742 C63.5313985,157.173633 63.7827657,158.511719 63.7827657,160.35 L63.7827657,160.35 L63.7827657,165.621094 C63.7624532,167.357812 63.513625,168.647656 63.0362813,169.490625 C62.5589375,170.333594 61.7819844,170.755078 60.7054219,170.755078 Z M87.7121094,174 L87.7121094,170.450391 L78.1753906,170.450391 L83.2179687,165.133594 C84.5992188,163.620312 85.5742188,162.294922 86.1429687,161.157422 C86.7117187,160.019922 86.9960938,158.902734 86.9960938,157.805859 C86.9960938,155.805078 86.3638672,154.25625 85.0994141,153.159375 C83.8349609,152.0625 82.0601563,151.514062 79.775,151.514062 C78.2820312,151.514062 76.9464844,151.831445 75.7683594,152.466211 C74.5902344,153.100977 73.6787109,153.976953 73.0337891,155.094141 C72.3888672,156.211328 72.0664062,157.445312 72.0664062,158.796094 L72.0664062,158.796094 L76.484375,158.796094 C76.484375,157.678906 76.7712891,156.777539 77.3451172,156.091992 C77.9189453,155.406445 78.7035156,155.063672 79.6988281,155.063672 C80.6230469,155.063672 81.3339844,155.345508 81.8316406,155.90918 C82.3292969,156.472852 82.578125,157.247266 82.578125,158.232422 C82.578125,158.953516 82.3419922,159.715234 81.8697266,160.517578 C81.3974609,161.319922 80.66875,162.259375 79.6835938,163.335938 L79.6835938,163.335938 L72.5082031,170.983594 L72.5082031,174 L87.7121094,174 Z M99.2102031,174.304688 C101.657859,174.304688 103.516453,173.492188 104.785984,171.867188 C106.055516,170.242188 106.690281,167.896094 106.690281,164.828906 L106.690281,164.828906 L106.690281,160.746094 C106.659812,157.770313 106.004734,155.487695 104.725047,153.898242 C103.445359,152.308789 101.596922,151.514062 99.1797343,151.514062 C96.7625468,151.514062 94.9115703,152.316406 93.6268046,153.921094 C92.342039,155.525781 91.6996562,157.876953 91.6996562,160.974609 L91.6996562,160.974609 L91.6996562,165.057422 C91.730125,168.033203 92.3852031,170.318359 93.6648906,171.912891 C94.9445781,173.507422 96.7930156,174.304688 99.2102031,174.304688 Z M99.2102031,170.755078 C98.1234843,170.755078 97.3338359,170.31582 96.8412578,169.437305 C96.3486796,168.558789 96.1023906,167.215625 96.1023906,165.407813 L96.1023906,165.407813 L96.1023906,160.014844 C96.1328593,158.31875 96.3943828,157.07207 96.8869609,156.274805 C97.379539,155.477539 98.1437968,155.078906 99.1797343,155.078906 C100.246141,155.078906 101.030711,155.497852 101.533445,156.335742 C102.03618,157.173633 102.287547,158.511719 102.287547,160.35 L102.287547,160.35 L102.287547,165.621094 C102.267234,167.357812 102.018406,168.647656 101.541062,169.490625 C101.063719,170.333594 100.286766,170.755078 99.2102031,170.755078 Z" id="2020" fill="#0E6DA0" fill-rule="nonzero"></path>
                <path d="M138.7365,209.287109 C140.229469,209.287109 141.448219,208.698047 142.39275,207.519922 C143.337281,206.341797 143.809547,204.808203 143.809547,202.919141 L143.809547,202.919141 L140.549391,202.903906 C140.549391,203.675781 140.358961,204.330859 139.978102,204.869141 C139.597242,205.407422 139.107203,205.676562 138.507984,205.676562 C137.827516,205.676562 137.073414,205.283008 136.24568,204.495898 C135.417945,203.708789 134.679078,203.162891 134.029078,202.858203 C133.379078,202.553516 132.657984,202.401172 131.865797,202.401172 C130.342359,202.401172 129.12107,202.975 128.20193,204.122656 C127.282789,205.270312 126.823219,206.788672 126.823219,208.677734 L126.823219,208.677734 L130.098609,208.708203 C130.098609,207.916016 130.281422,207.266016 130.647047,206.758203 C131.012672,206.250391 131.490016,205.996484 132.079078,205.996484 C132.790016,205.996484 133.566969,206.400195 134.409938,207.207617 C135.252906,208.015039 135.996852,208.563477 136.641773,208.85293 C137.286695,209.142383 137.984938,209.287109 138.7365,209.287109 Z" id="~" fill="#AE4848" fill-rule="nonzero"></path>
                <path d="M36.7894337,218 L47.5106251,193.358398 L47.5106251,190.273438 L27.9344532,190.273438 L27.9344532,194.729492 L41.7215626,194.729492 L30.9813282,218 L36.7894337,218 Z M54.6850001,220.380371 L64.8920313,190.273438 L60.797793,190.273438 L50.5907618,220.380371 L54.6850001,220.380371 Z M77.7412109,218.380859 C80.6992188,218.380859 83.076416,217.638184 84.8728027,216.152832 C86.6691895,214.66748 87.5673828,212.693359 87.5673828,210.230469 C87.5673828,208.707031 87.1833496,207.386719 86.4152832,206.269531 C85.6472168,205.152344 84.4824219,204.314453 82.9208984,203.755859 C84.1777344,203.18457 85.1933594,202.365723 85.9677734,201.299316 C86.7421875,200.23291 87.1293945,199.064941 87.1293945,197.79541 C87.1293945,195.33252 86.2978516,193.399658 84.6347656,191.996826 C82.9716797,190.593994 80.6738281,189.892578 77.7412109,189.892578 C76.0527344,189.892578 74.5070801,190.216309 73.104248,190.86377 C71.701416,191.51123 70.6096191,192.409424 69.8288574,193.55835 C69.0480957,194.707275 68.6577148,196.005371 68.6577148,197.452637 L68.6577148,197.452637 L74.1611328,197.452637 C74.1611328,196.525879 74.5166016,195.773682 75.2275391,195.196045 C75.9384766,194.618408 76.8208008,194.32959 77.8745117,194.32959 C79.0424805,194.32959 79.9597168,194.640625 80.6262207,195.262695 C81.2927246,195.884766 81.6259766,196.754395 81.6259766,197.871582 C81.6259766,199.026855 81.2895508,199.953613 80.6166992,200.651855 C79.9438477,201.350098 78.9091797,201.699219 77.5126953,201.699219 L77.5126953,201.699219 L74.5800781,201.699219 L74.5800781,206.00293 L77.4936523,206.00293 C80.5405273,206.00293 82.0639648,207.386719 82.0639648,210.154297 C82.0639648,211.296875 81.692627,212.214111 80.9499512,212.906006 C80.2072754,213.5979 79.1821289,213.943848 77.8745117,213.943848 C76.7319336,213.943848 75.7702637,213.61377 74.989502,212.953613 C74.2087402,212.293457 73.8183594,211.442871 73.8183594,210.401855 L73.8183594,210.401855 L68.3149414,210.401855 C68.3149414,212.80127 69.1940918,214.730957 70.9523926,216.190918 C72.7106934,217.650879 74.9736328,218.380859 77.7412109,218.380859 Z M106.415098,218 L106.415098,190.235352 L105.824766,190.235352 L94.3418554,194.348633 L94.3418554,198.82373 L100.91168,196.786133 L100.91168,218 L106.415098,218 Z" id="7/31" fill="#AE4848" fill-rule="nonzero"></path>
                <path d="M168.446172,218.380859 C170.248906,218.380859 171.864385,217.974609 173.292608,217.162109 C174.72083,216.349609 175.825322,215.213379 176.606084,213.753418 C177.386846,212.293457 177.777227,210.662109 177.777227,208.859375 C177.777227,206.041016 177.066289,203.768555 175.644414,202.041992 C174.222539,200.31543 172.305547,199.452148 169.893438,199.452148 C167.646367,199.452148 165.786504,200.201172 164.313848,201.699219 C164.618535,199.464844 165.529424,197.719238 167.046514,196.462402 C168.563604,195.205566 170.566289,194.558105 173.05457,194.52002 L173.05457,194.52002 L173.587774,194.52002 L173.587774,189.987793 L172.673711,189.987793 C169.868047,190.000488 167.401983,190.638428 165.275518,191.901611 C163.149053,193.164795 161.517705,194.948486 160.381475,197.252686 C159.245244,199.556885 158.677129,202.213379 158.677129,205.222168 L158.677129,205.222168 L158.677129,207.202637 C158.677129,210.592285 159.575322,213.302734 161.371709,215.333984 C163.168096,217.365234 165.52625,218.380859 168.446172,218.380859 Z M168.331914,213.943848 C167.024297,213.943848 166.008672,213.426514 165.285039,212.391846 C164.561406,211.357178 164.19959,209.919434 164.19959,208.078613 L164.19959,208.078613 L164.19959,206.402832 C164.542363,205.641113 165.075567,205.028564 165.799199,204.565186 C166.522832,204.101807 167.328984,203.870117 168.217656,203.870117 C169.461797,203.870117 170.452031,204.333496 171.188359,205.260254 C171.924688,206.187012 172.292852,207.405762 172.292852,208.916504 C172.292852,210.401855 171.927861,211.611084 171.197881,212.544189 C170.467901,213.477295 169.512578,213.943848 168.331914,213.943848 Z M184.685,220.380371 L194.892031,190.273438 L190.797793,190.273438 L180.590762,220.380371 L184.685,220.380371 Z M207.741211,218.380859 C210.699219,218.380859 213.076416,217.638184 214.872803,216.152832 C216.669189,214.66748 217.567383,212.693359 217.567383,210.230469 C217.567383,208.707031 217.18335,207.386719 216.415283,206.269531 C215.647217,205.152344 214.482422,204.314453 212.920898,203.755859 C214.177734,203.18457 215.193359,202.365723 215.967773,201.299316 C216.742188,200.23291 217.129395,199.064941 217.129395,197.79541 C217.129395,195.33252 216.297852,193.399658 214.634766,191.996826 C212.97168,190.593994 210.673828,189.892578 207.741211,189.892578 C206.052734,189.892578 204.50708,190.216309 203.104248,190.86377 C201.701416,191.51123 200.609619,192.409424 199.828857,193.55835 C199.048096,194.707275 198.657715,196.005371 198.657715,197.452637 L198.657715,197.452637 L204.161133,197.452637 C204.161133,196.525879 204.516602,195.773682 205.227539,195.196045 C205.938477,194.618408 206.820801,194.32959 207.874512,194.32959 C209.04248,194.32959 209.959717,194.640625 210.626221,195.262695 C211.292725,195.884766 211.625977,196.754395 211.625977,197.871582 C211.625977,199.026855 211.289551,199.953613 210.616699,200.651855 C209.943848,201.350098 208.90918,201.699219 207.512695,201.699219 L207.512695,201.699219 L204.580078,201.699219 L204.580078,206.00293 L207.493652,206.00293 C210.540527,206.00293 212.063965,207.386719 212.063965,210.154297 C212.063965,211.296875 211.692627,212.214111 210.949951,212.906006 C210.207275,213.5979 209.182129,213.943848 207.874512,213.943848 C206.731934,213.943848 205.770264,213.61377 204.989502,212.953613 C204.20874,212.293457 203.818359,211.442871 203.818359,210.401855 L203.818359,210.401855 L198.314941,210.401855 C198.314941,212.80127 199.194092,214.730957 200.952393,216.190918 C202.710693,217.650879 204.973633,218.380859 207.741211,218.380859 Z M232.358945,218.380859 C235.418516,218.380859 237.741758,217.365234 239.328672,215.333984 C240.915586,213.302734 241.709043,210.370117 241.709043,206.536133 L241.709043,206.536133 L241.709043,201.432617 C241.670957,197.712891 240.852109,194.859619 239.2525,192.872803 C237.652891,190.885986 235.342344,189.892578 232.320859,189.892578 C229.299375,189.892578 226.985654,190.895508 225.379697,192.901367 C223.77374,194.907227 222.970762,197.846191 222.970762,201.718262 L222.970762,201.718262 L222.970762,206.821777 C223.008848,210.541504 223.827695,213.397949 225.427305,215.391113 C227.026914,217.384277 229.337461,218.380859 232.358945,218.380859 Z M232.358945,213.943848 C231.000547,213.943848 230.013486,213.394775 229.397764,212.296631 C228.782041,211.198486 228.47418,209.519531 228.47418,207.259766 L228.47418,207.259766 L228.47418,200.518555 C228.512266,198.398438 228.83917,196.840088 229.454893,195.843506 C230.070615,194.846924 231.025937,194.348633 232.320859,194.348633 C233.653867,194.348633 234.63458,194.872314 235.262998,195.919678 C235.891416,196.967041 236.205625,198.639648 236.205625,200.9375 L236.205625,200.9375 L236.205625,207.526367 C236.180234,209.697266 235.869199,211.30957 235.272519,212.363281 C234.67584,213.416992 233.704648,213.943848 232.358945,213.943848 Z" id="6/30" fill="#AE4848" fill-rule="nonzero"></path>
                <path d="M179.207328,174 L179.207328,170.450391 L169.670609,170.450391 L174.713188,165.133594 C176.094438,163.620312 177.069438,162.294922 177.638188,161.157422 C178.206938,160.019922 178.491313,158.902734 178.491313,157.805859 C178.491313,155.805078 177.859086,154.25625 176.594633,153.159375 C175.33018,152.0625 173.555375,151.514062 171.270219,151.514062 C169.77725,151.514062 168.441703,151.831445 167.263578,152.466211 C166.085453,153.100977 165.17393,153.976953 164.529008,155.094141 C163.884086,156.211328 163.561625,157.445312 163.561625,158.796094 L163.561625,158.796094 L167.979594,158.796094 C167.979594,157.678906 168.266508,156.777539 168.840336,156.091992 C169.414164,155.406445 170.198734,155.063672 171.194047,155.063672 C172.118266,155.063672 172.829203,155.345508 173.326859,155.90918 C173.824516,156.472852 174.073344,157.247266 174.073344,158.232422 C174.073344,158.953516 173.837211,159.715234 173.364945,160.517578 C172.89268,161.319922 172.163969,162.259375 171.178813,163.335938 L171.178813,163.335938 L164.003422,170.983594 L164.003422,174 L179.207328,174 Z M190.705422,174.304688 C193.153078,174.304688 195.011672,173.492188 196.281203,171.867188 C197.550734,170.242188 198.1855,167.896094 198.1855,164.828906 L198.1855,164.828906 L198.1855,160.746094 C198.155031,157.770313 197.499953,155.487695 196.220266,153.898242 C194.940578,152.308789 193.092141,151.514062 190.674953,151.514062 C188.257766,151.514062 186.406789,152.316406 185.122023,153.921094 C183.837258,155.525781 183.194875,157.876953 183.194875,160.974609 L183.194875,160.974609 L183.194875,165.057422 C183.225344,168.033203 183.880422,170.318359 185.160109,171.912891 C186.439797,173.507422 188.288234,174.304688 190.705422,174.304688 Z M190.705422,170.755078 C189.618703,170.755078 188.829055,170.31582 188.336477,169.437305 C187.843898,168.558789 187.597609,167.215625 187.597609,165.407813 L187.597609,165.407813 L187.597609,160.014844 C187.628078,158.31875 187.889602,157.07207 188.38218,156.274805 C188.874758,155.477539 189.639016,155.078906 190.674953,155.078906 C191.741359,155.078906 192.52593,155.497852 193.028664,156.335742 C193.531398,157.173633 193.782766,158.511719 193.782766,160.35 L193.782766,160.35 L193.782766,165.621094 C193.762453,167.357812 193.513625,168.647656 193.036281,169.490625 C192.558938,170.333594 191.781984,170.755078 190.705422,170.755078 Z M217.712109,174 L217.712109,170.450391 L208.175391,170.450391 L213.217969,165.133594 C214.599219,163.620312 215.574219,162.294922 216.142969,161.157422 C216.711719,160.019922 216.996094,158.902734 216.996094,157.805859 C216.996094,155.805078 216.363867,154.25625 215.099414,153.159375 C213.834961,152.0625 212.060156,151.514062 209.775,151.514062 C208.282031,151.514062 206.946484,151.831445 205.768359,152.466211 C204.590234,153.100977 203.678711,153.976953 203.033789,155.094141 C202.388867,156.211328 202.066406,157.445312 202.066406,158.796094 L202.066406,158.796094 L206.484375,158.796094 C206.484375,157.678906 206.771289,156.777539 207.345117,156.091992 C207.918945,155.406445 208.703516,155.063672 209.698828,155.063672 C210.623047,155.063672 211.333984,155.345508 211.831641,155.90918 C212.329297,156.472852 212.578125,157.247266 212.578125,158.232422 C212.578125,158.953516 212.341992,159.715234 211.869727,160.517578 C211.397461,161.319922 210.66875,162.259375 209.683594,163.335938 L209.683594,163.335938 L202.508203,170.983594 L202.508203,174 L217.712109,174 Z M232.455125,174 L232.455125,151.788281 L231.982859,151.788281 L222.796531,155.078906 L222.796531,158.658984 L228.052391,157.028906 L228.052391,174 L232.455125,174 Z" id="2021" fill="#0E6DA0" fill-rule="nonzero"></path>
            </g>
        </g>
    </g>
</svg>