<?xml version="1.0" encoding="UTF-8"?>
<svg width="344px" height="250px" viewBox="0 0 344 250" version="1.1" xmlns="http://www.w3.org/2000/svg" xmlns:xlink="http://www.w3.org/1999/xlink">
    <!-- Generator: Sketch 61.1 (89650) - https://sketch.com -->
    <title>Group 58-outline</title>
    <desc>Created with Sketch.</desc>
    <defs>
        <polygon id="path-1" points="0 0.5205 297.7427 0.5205 297.7427 179.0735 0 179.0735"></polygon>
        <polygon id="path-3" points="0.5932 0 181.7082 0 181.7082 181.0754 0.5932 181.0754"></polygon>
        <polygon id="path-5" points="0 250 344 250 344 0 0 0"></polygon>
    </defs>
    <g id="懶人包" stroke="none" stroke-width="1" fill="none" fill-rule="evenodd">
        <g id="小資振興_懶人包_800振興" transform="translate(-1168.000000, -1142.000000)">
            <g id="Group-58-outline" transform="translate(1168.000000, 1142.000000)">
                <path d="M305.91,91.1385 L305.91,226.5055 C305.91,239.4805 284.024,249.9995 257.027,249.9995 L49.141,249.9995 C42.025,249.9995 35.344,249.1285 29.511,247.5965 C26.324,244.7935 24.511,241.5815 24.511,238.1615 L24.511,98.9915 C24.511,88.1165 42.853,79.3005 65.479,79.3005 L281.279,79.3005 C288.394,79.3005 295.077,80.1725 300.91,81.7035 C304.097,84.5075 305.91,87.7185 305.91,91.1385" id="Fill-1" fill="#D0D2D3"></path>
                <g id="Group-5" transform="translate(0.000000, 67.000000)">
                    <mask id="mask-2" fill="white">
                        <use xlink:href="#path-1"></use>
                    </mask>
                    <g id="Clip-4"></g>
                    <path d="M269.4257,179.0735 L28.3187,179.0735 C12.6787,179.0735 -0.0003,166.3945 -0.0003,150.7555 L-0.0003,28.8395 C-0.0003,13.1995 12.6787,0.5205 28.3187,0.5205 L269.4257,0.5205 C285.0657,0.5205 297.7427,13.1995 297.7427,28.8395 L297.7427,150.7555 C297.7427,166.3945 285.0657,179.0735 269.4257,179.0735" id="Fill-3" fill="#F8F6DE" mask="url(#mask-2)"></path>
                </g>
                <path d="M143.6259,197.2083 L24.2349,197.2083 C20.0249,197.2083 16.6119,193.7953 16.6119,189.5853 C16.6119,185.3753 20.0249,181.9623 24.2349,181.9623 L143.6259,181.9623 C147.8359,181.9623 151.2489,185.3753 151.2489,189.5853 C151.2489,193.7953 147.8359,197.2083 143.6259,197.2083" id="Fill-6" fill="#F6D85E"></path>
                <path d="M193.7968,99.5701 L74.4048,99.5701 C70.1948,99.5701 66.7818,96.1571 66.7818,91.9471 C66.7818,87.7371 70.1948,84.3241 74.4048,84.3241 L193.7968,84.3241 C198.0068,84.3241 201.4198,87.7371 201.4198,91.9471 C201.4198,96.1571 198.0068,99.5701 193.7968,99.5701" id="Fill-8" fill="#AAACAE"></path>
                <path d="M278.2626,223.6946 L24.2356,223.6946 C20.0256,223.6946 16.6126,220.2816 16.6126,216.0716 C16.6126,211.8616 20.0256,208.4486 24.2356,208.4486 L278.2626,208.4486 C282.4726,208.4486 285.8856,211.8616 285.8856,216.0716 C285.8856,220.2816 282.4726,223.6946 278.2626,223.6946" id="Fill-10" fill="#AAACAE"></path>
                <path d="M327.1932,179.0799 L301.6402,153.5329 L315.5632,139.6129 L341.1162,165.1599 C344.9612,169.0039 344.9612,175.2359 341.1162,179.0799 C337.2712,182.9239 331.0382,182.9239 327.1932,179.0799" id="Fill-12" fill="#FFFFFF"></path>
                <path d="M331.5311,174.743 L305.9781,149.196 L301.6401,153.533 L327.1931,179.079 C331.0381,182.924 337.2711,182.924 341.1161,179.079 C341.8741,178.322 342.4801,177.472 342.9391,176.565 C339.2451,178.435 334.6181,177.829 331.5311,174.743" id="Fill-14" fill="#D0D2D3"></path>
                <g id="Group-18" transform="translate(158.000000, 0.000000)">
                    <mask id="mask-4" fill="white">
                        <use xlink:href="#path-3"></use>
                    </mask>
                    <g id="Clip-17"></g>
                    <path d="M91.1512,162.8304 C75.3312,162.8304 60.6972,157.7514 48.7922,149.1314 C30.6452,136.0004 18.8422,114.6474 18.8422,90.5384 C18.8422,88.8194 18.9022,87.1134 19.0202,85.4234 C21.6472,47.8834 52.9352,18.2454 91.1512,18.2454 C131.0852,18.2454 163.4602,50.6124 163.4602,90.5384 C163.4602,130.4634 131.0852,162.8304 91.1512,162.8304 M91.1512,-0.0006 C41.3302,-0.0006 0.9102,40.2184 0.5972,89.9534 C0.5932,90.1464 0.5932,90.3444 0.5932,90.5384 C0.5932,118.6354 13.3952,143.7444 33.4852,160.3504 C49.1472,173.2954 69.2402,181.0754 91.1512,181.0754 C141.1662,181.0754 181.7082,140.5414 181.7082,90.5384 C181.7082,40.5334 141.1662,-0.0006 91.1512,-0.0006" id="Fill-16" fill="#FFFFFF" mask="url(#mask-4)"></path>
                </g>
                <path d="M249.1512,162.8323 C209.2152,162.8323 176.8402,130.4643 176.8402,90.5383 C176.8402,50.6103 209.2152,18.2433 249.1512,18.2433 C289.0872,18.2433 321.4612,50.6103 321.4612,90.5383 C321.4612,130.4643 289.0872,162.8323 249.1512,162.8323 M249.1512,9.4773 C204.3732,9.4773 168.0732,45.7693 168.0732,90.5383 C168.0732,135.3063 204.3732,171.5983 249.1512,171.5983 C293.9292,171.5983 330.2292,135.3063 330.2292,90.5383 C330.2292,45.7693 293.9292,9.4773 249.1512,9.4773" id="Fill-19" fill="#D0D2D3"></path>
                <mask id="mask-6" fill="white">
                    <use xlink:href="#path-5"></use>
                </mask>
                <g id="Clip-22"></g>
                <polygon id="Fill-21" fill="#FFFFFF" mask="url(#mask-6)" points="235.602 132.133 262.7 132.133 262.7 99.256 235.602 99.256"></polygon>
                <path d="M215.1229,82.2786 L214.0029,82.2786 C211.0969,82.2786 208.7409,79.9236 208.7409,77.0176 L208.7409,67.0266 C208.7409,64.1206 211.0969,61.7646 214.0029,61.7646 L215.1229,61.7646 C218.0289,61.7646 220.3849,64.1206 220.3849,67.0266 L220.3849,77.0176 C220.3849,79.9236 218.0289,82.2786 215.1229,82.2786" id="Fill-23" fill="#FFFFFF" mask="url(#mask-6)"></path>
                <path d="M214.5634,79.5369 L214.5634,79.5369 C211.3474,79.5369 208.7414,76.9309 208.7414,73.7169 L208.7414,76.4579 C208.7414,79.6729 211.3474,82.2789 214.5634,82.2789 C217.7784,82.2789 220.3844,79.6729 220.3844,76.4579 L220.3844,73.7169 C220.3844,76.9309 217.7784,79.5369 214.5634,79.5369" id="Fill-24" fill="#D0D2D3" mask="url(#mask-6)"></path>
                <path d="M284.2997,82.2786 L283.1787,82.2786 C280.2737,82.2786 277.9177,79.9236 277.9177,77.0176 L277.9177,67.0266 C277.9177,64.1206 280.2737,61.7646 283.1787,61.7646 L284.2997,61.7646 C287.2047,61.7646 289.5617,64.1206 289.5617,67.0266 L289.5617,77.0176 C289.5617,79.9236 287.2047,82.2786 284.2997,82.2786" id="Fill-25" fill="#FFFFFF" mask="url(#mask-6)"></path>
                <path d="M283.7391,79.5369 L283.7391,79.5369 C280.5241,79.5369 277.9181,76.9309 277.9181,73.7169 L277.9181,76.4579 C277.9181,79.6729 280.5241,82.2789 283.7391,82.2789 C286.9551,82.2789 289.5611,79.6729 289.5611,76.4579 L289.5611,73.7169 C289.5611,76.9309 286.9551,79.5369 283.7391,79.5369" id="Fill-26" fill="#D0D2D3" mask="url(#mask-6)"></path>
                <path d="M215.0712,59.448 C216.1982,53.659 218.7632,48.385 222.3832,44.013 C223.4292,42.745 224.5662,41.557 225.7812,40.451 C231.9502,34.831 240.1492,31.411 249.1512,31.411 C249.5502,31.411 249.9532,31.418 250.3522,31.435 C250.4882,31.435 250.6232,31.441 250.7552,31.448 C259.7092,31.854 267.7732,35.647 273.7092,41.581 C278.9942,46.865 282.5852,53.852 283.5902,61.647 C283.7792,63.115 283.8772,64.611 283.8772,66.13 L283.8772,73.005 C283.8772,92.18 268.3312,107.723 249.1512,107.723 C229.9742,107.723 214.4252,92.18 214.4252,73.005 L214.4252,66.13 C214.4252,64.655 214.5162,63.203 214.6952,61.779 L215.0712,59.448 Z" id="Fill-27" fill="#FFFFFF" mask="url(#mask-6)"></path>
                <path d="M249.1512,102.2395 C229.9742,102.2395 214.4242,86.6975 214.4242,67.5205 L214.4242,73.0045 C214.4242,92.1805 229.9742,107.7235 249.1512,107.7235 C268.3312,107.7235 283.8772,92.1805 283.8772,73.0045 L283.8772,67.5205 C283.8772,86.6975 268.3312,102.2395 249.1512,102.2395" id="Fill-28" fill="#D0D2D3" mask="url(#mask-6)"></path>
                <path d="M215.0311,59.6492 L218.4571,59.6492 L218.4571,76.2872 C218.4571,77.3212 217.6981,78.2442 216.6671,78.3392 C215.4851,78.4492 214.4941,77.5242 214.4941,76.3692 L214.4941,64.3722 C214.4941,62.7832 214.6741,61.1982 215.0311,59.6492" id="Fill-29" fill="#4B6084" mask="url(#mask-6)"></path>
                <path d="M283.8768,63.9383 L283.8768,76.0783 C283.8768,77.1133 283.1218,78.0383 282.0918,78.1373 C280.9098,78.2513 279.9148,77.3253 279.9148,76.1673 L279.9148,59.4483 L283.2338,59.4483 C283.6608,60.9063 283.8768,62.4183 283.8768,63.9383" id="Fill-30" fill="#4B6084" mask="url(#mask-6)"></path>
                <path d="M250.3524,31.4349 C246.8394,36.9149 238.1324,48.7639 224.0324,57.0969 C220.6374,59.0999 217.5214,60.6289 214.6954,61.7789 C214.6994,61.7759 214.6994,61.7689 214.6994,61.7659 C215.5384,55.0669 218.2864,48.9599 222.3834,44.0139 C223.4294,42.7449 224.5664,41.5579 225.7814,40.4509 C231.9504,34.8309 240.1494,31.4109 249.1514,31.4109 C249.5504,31.4109 249.9534,31.4179 250.3524,31.4349" id="Fill-31" fill="#4B6084" mask="url(#mask-6)"></path>
                <path d="M283.5897,61.6468 C278.8617,63.0778 269.5457,64.4278 254.7517,60.5608 C239.7907,56.6528 228.4377,48.9018 222.3837,44.0138 C223.4297,42.7448 224.5667,41.5578 225.7807,40.4508 C231.9497,34.8318 240.1497,31.4108 249.1517,31.4108 C249.6857,31.4108 250.2237,31.4208 250.7547,31.4478 C259.7087,31.8548 267.7737,35.6468 273.7087,41.5808 C278.9937,46.8658 282.5847,53.8518 283.5897,61.6468" id="Fill-32" fill="#808F91" mask="url(#mask-6)"></path>
                <path d="M254.7518,40.2615 C248.1998,38.5505 242.3418,36.1025 237.3148,33.4805 C233.0108,35.0405 229.1018,37.4265 225.7808,40.4505 C224.5658,41.5575 223.4298,42.7445 222.3838,44.0135 C228.4378,48.9025 239.7908,56.6535 254.7518,60.5605 C269.5458,64.4285 278.8618,63.0775 283.5898,61.6465 C282.6558,54.4085 279.4918,47.8705 274.8138,42.7415 C269.7818,42.9695 263.1508,42.4565 254.7518,40.2615" id="Fill-33" fill="#4B6084" mask="url(#mask-6)"></path>
                <path d="M254.7518,47.0281 C245.1868,44.5291 237.0998,40.4611 230.9258,36.5721 C229.0908,37.7061 227.3678,39.0051 225.7808,40.4511 C224.5658,41.5571 223.4298,42.7451 222.3838,44.0131 C228.4378,48.9021 239.7908,56.6531 254.7518,60.5611 C269.5458,64.4281 278.8618,63.0781 283.5898,61.6471 C283.0058,57.1171 281.5438,52.8641 279.3888,49.0571 C274.0828,49.8911 266.0038,49.9691 254.7518,47.0281" id="Fill-34" fill="#808F91" mask="url(#mask-6)"></path>
                <path d="M254.7518,53.7942 C242.4788,50.5882 232.6358,44.7972 226.1518,40.1212 C226.0278,40.2302 225.9038,40.3392 225.7808,40.4512 C224.5658,41.5572 223.4298,42.7452 222.3838,44.0132 C228.4378,48.9022 239.7908,56.6532 254.7518,60.5612 C269.5458,64.4282 278.8618,63.0782 283.5898,61.6472 C283.3068,59.4512 282.8118,57.3232 282.1388,55.2762 C277.0668,56.5192 268.1588,57.2992 254.7518,53.7942" id="Fill-35" fill="#4B6084" mask="url(#mask-6)"></path>
                <path d="M249.5204,84.5047 L248.7824,84.5047 C246.8674,84.5047 245.3154,82.9527 245.3154,81.0377 L245.3154,75.2557 C245.3154,73.3417 246.8674,71.7897 248.7824,71.7897 L249.5204,71.7897 C251.4344,71.7897 252.9874,73.3417 252.9874,75.2557 L252.9874,81.0377 C252.9874,82.9527 251.4344,84.5047 249.5204,84.5047" id="Fill-36" fill="#A62873" mask="url(#mask-6)"></path>
                <path d="M307.871,132.7264 C296.389,148.6814 278.555,159.7664 258.074,162.2854 C257.201,162.3924 256.32,162.4824 255.439,162.5584 C253.393,162.7354 251.323,162.8264 249.23,162.8304 L249.151,162.8304 C247.034,162.8304 244.936,162.7394 242.863,162.5584 C241.974,162.4824 241.093,162.3924 240.212,162.2814 C219.735,159.7584 201.905,148.6724 190.423,132.7184 C194.887,123.7854 204.121,117.6484 214.782,117.6484 L226.597,117.6484 L234.758,144.3994 L235.618,147.2154 L262.672,147.2154 L263.529,144.3994 L263.533,144.3994 L271.693,117.6484 L283.508,117.6484 C294.173,117.6484 303.408,123.7854 307.871,132.7264" id="Fill-37" fill="#2C416D" mask="url(#mask-6)"></path>
                <path d="M263.5292,144.3997 L262.6722,147.2157 L258.0742,162.2857 C257.2012,162.3927 256.3202,162.4827 255.4392,162.5577 C253.3932,162.7357 251.3232,162.8267 249.2302,162.8307 L249.1512,162.8307 C247.0342,162.8307 244.9362,162.7397 242.8632,162.5577 C241.9732,162.4827 241.0922,162.3927 240.2122,162.2817 L235.6182,147.2157 L234.7582,144.3997 L242.2342,138.0227 L242.2382,138.0227 L249.1392,132.1337 L256.0752,138.0457 L263.5292,144.3997 Z" id="Fill-38" fill="#FFFFFF" mask="url(#mask-6)"></path>
                <path d="M235.954,68.7972 C235.954,70.4172 234.641,71.7292 233.02,71.7292 C231.401,71.7292 230.088,70.4172 230.088,68.7972 C230.088,67.1782 231.401,65.8652 233.02,65.8652 C234.641,65.8652 235.954,67.1782 235.954,68.7972" id="Fill-39" fill="#A62873" mask="url(#mask-6)"></path>
                <path d="M268.2137,68.7972 C268.2137,70.4172 266.9017,71.7292 265.2807,71.7292 C263.6617,71.7292 262.3487,70.4172 262.3487,68.7972 C262.3487,67.1782 263.6617,65.8652 265.2807,65.8652 C266.9017,65.8652 268.2137,67.1782 268.2137,68.7972" id="Fill-40" fill="#A62873" mask="url(#mask-6)"></path>
                <path d="M249.1512,94.762 C245.5562,94.762 241.9622,93.394 239.2252,90.658 C238.8772,90.309 238.8772,89.743 239.2252,89.393 C239.5752,89.044 240.1412,89.044 240.4912,89.393 C245.2662,94.167 253.0362,94.167 257.8112,89.393 C258.1602,89.044 258.7272,89.044 259.0762,89.393 C259.4252,89.743 259.4252,90.309 259.0762,90.658 C256.3392,93.394 252.7452,94.762 249.1512,94.762" id="Fill-41" fill="#A62873" mask="url(#mask-6)"></path>
                <path d="M255.4393,162.5579 C253.3933,162.7359 251.3233,162.8269 249.2303,162.8299 L249.1513,162.8299 C247.0343,162.8299 244.9363,162.7399 242.8633,162.5579 L243.0163,160.7969 L243.0163,160.7929 L243.5383,154.8729 L243.7193,152.7879 L243.7193,152.7799 L243.9173,150.5049 L244.2103,147.2159 L244.2373,146.8919 L244.5883,142.9229 L253.7133,142.9229 L254.0643,146.8919 L254.0923,147.2159 L254.6933,154.0319 L254.6933,154.0359 L255.0993,158.6599 L255.4393,162.5579 Z" id="Fill-42" fill="#E7AD26" mask="url(#mask-6)"></path>
                <polygon id="Fill-43" fill="#E8CD5D" mask="url(#mask-6)" points="255.0985 158.659 243.5355 154.873 243.9195 150.507 254.6925 154.034"></polygon>
                <path d="M249.2303,162.8304 L249.1513,162.8304 C247.0343,162.8304 244.9363,162.7394 242.8633,162.5584 L243.0163,160.7964 L249.2303,162.8304 Z" id="Fill-44" fill="#F6D85E" mask="url(#mask-6)"></path>
                <path d="M252.2723,147.2146 L246.0303,147.2146 C242.5093,147.2146 240.0793,143.6896 241.3323,140.4006 L243.2483,135.3706 C243.9903,133.4216 245.8593,132.1326 247.9453,132.1326 L250.3563,132.1326 C252.4433,132.1326 254.3123,133.4216 255.0543,135.3706 L256.9693,140.4006 C258.2223,143.6896 255.7933,147.2146 252.2723,147.2146" id="Fill-45" fill="#E8CD5D" mask="url(#mask-6)"></path>
                <polygon id="Fill-46" fill="#E2854A" mask="url(#mask-6)" points="271.6952 117.6502 271.6952 117.6502 262.7012 112.5822 249.1512 132.1332 263.5322 144.4012"></polygon>
                <polygon id="Fill-47" fill="#E2854A" mask="url(#mask-6)" points="226.5946 117.6502 226.5946 117.6502 235.5886 112.5822 249.1386 132.1332 234.7576 144.4012"></polygon>
                <polygon id="Fill-48" fill="#D0D2D3" mask="url(#mask-6)" points="262.6874 108.8499 249.1514 123.6369 249.1384 123.6369 235.6024 108.8499 235.5884 112.5819 249.1384 132.1329 249.1514 132.1329 262.7014 112.5819"></polygon>
                <path d="M212.4159,117.7542 C202.7679,118.5872 194.5529,124.4542 190.4229,132.7182 C196.2699,140.8422 203.7659,147.7002 212.4159,152.8122 L212.4159,117.7542 Z" id="Fill-49" fill="#079690" mask="url(#mask-6)"></path>
                <path d="M285.8856,117.7557 L285.8856,152.8137 C294.5326,147.7027 302.0266,140.8477 307.8706,132.7267 C303.7426,124.4577 295.5326,118.5907 285.8856,117.7557" id="Fill-50" fill="#079690" mask="url(#mask-6)"></path>
                <path d="M249.1454,162.8919 C248.6664,169.2399 246.6424,175.4459 243.1704,180.9029 C217.1734,179.0039 192.1894,165.9539 175.9074,143.0509 C175.7944,142.8929 175.6804,142.7329 175.5714,142.5729 C178.3274,137.0629 182.4424,132.1279 187.8154,128.3089 C187.8634,128.2749 187.9124,128.2409 187.9624,128.2099 C188.8454,129.6559 189.7864,131.0809 190.7814,132.4809 C204.7514,152.1319 226.7454,162.6999 249.1454,162.8919" id="Fill-51" fill="#D0D2D3" mask="url(#mask-6)"></path>
                <path d="M247.6405,162.826 C247.6405,184.305 230.2245,201.717 208.7415,201.717 C187.2575,201.717 169.8425,184.305 169.8425,162.826 C169.8425,141.347 187.2575,123.935 208.7415,123.935 C230.2245,123.935 247.6405,141.347 247.6405,162.826" id="Fill-52" fill="#3B85B9" mask="url(#mask-6)"></path>
                <path d="M240.8104,162.826 C240.8104,180.534 226.4524,194.888 208.7414,194.888 C191.0304,194.888 176.6714,180.534 176.6714,162.826 C176.6714,145.119 191.0304,130.764 208.7414,130.764 C226.4524,130.764 240.8104,145.119 240.8104,162.826" id="Fill-53" fill="#AD4A90" mask="url(#mask-6)"></path>
                <path d="M208.7411,133.3611 C226.0161,133.3611 240.0951,147.0201 240.7771,164.1251 C240.7951,163.6931 240.8101,163.2611 240.8101,162.8261 C240.8101,145.1191 226.4521,130.7641 208.7411,130.7641 C191.0301,130.7641 176.6721,145.1191 176.6721,162.8261 C176.6721,163.2611 176.6871,163.6931 176.7051,164.1251 C177.3871,147.0201 191.4661,133.3611 208.7411,133.3611" id="Fill-54" fill="#FFFFFF" mask="url(#mask-6)"></path>
                <polygon id="Fill-55" fill="#FFFFFF" mask="url(#mask-6)" points="201.8905 181.431 186.0755 165.619 191.6615 160.034 201.8905 170.261 223.5175 148.639 229.1035 154.224"></polygon>
                <polygon id="Fill-56" fill="#DD0816" mask="url(#mask-6)" points="16.612 104.221 56.235 104.221 56.235 79.674 16.612 79.674"></polygon>
                <polygon id="Fill-57" fill="#1F286F" mask="url(#mask-6)" points="16.612 90.548 29.784 90.548 29.784 79.673 16.612 79.673"></polygon>
                <path d="M39.7660005,161.104 C41.8740005,161.104 42.9280005,159.982 42.9280005,157.738 L42.9280005,150.802 C45.3080005,148.592 47.2800005,146.008 48.9120005,143.05 L45.8860005,141.146 C45.2060005,142.914 44.2200005,144.58 42.9280005,146.178 L42.9280005,132.102 L33.4420005,132.102 C33.7820005,131.354 34.0540005,130.572 34.2580005,129.756 L30.5180005,129.246 C30.3140005,130.232 30.0420005,131.184 29.7020005,132.102 L22.7660005,132.102 L22.7660005,148.83 L18.6180005,148.932 L19.1620005,152.264 C27.1180005,151.856 33.3060005,151.448 37.7260005,151.006 C33.9180005,153.76 27.7300005,155.868 19.1620005,157.364 L20.7600005,160.56 C27.4240005,159.404 33.1360005,157.432 37.8960005,154.61 C38.4060005,154.27 38.9160005,153.964 39.4260005,153.624 L39.4260005,156.956 C39.4260005,157.568 39.1540005,157.908 38.6440005,157.908 L35.2440005,157.738 L36.1280005,161.104 L39.7660005,161.104 Z M39.4260005,137.508 L26.3020005,137.508 L26.3020005,135.23 L39.4260005,135.23 L39.4260005,137.508 Z M39.4260005,142.642 L26.3020005,142.642 L26.3020005,140.466 L39.4260005,140.466 L39.4260005,142.642 Z M26.3020005,148.694 L26.3020005,145.634 L39.4260005,145.634 L39.4260005,147.776 C35.8900005,148.184 31.5040005,148.49 26.3020005,148.694 Z M67.7493335,161.104 L67.7493335,138.188 C69.1093335,135.876 70.1973335,133.428 71.0473335,130.878 L67.8173335,129.382 C66.1173335,134.584 63.5333335,139.106 60.0653335,142.948 L61.2213335,146.688 C62.2413335,145.6 63.2273335,144.512 64.1453335,143.424 L64.1453335,161.104 L67.7493335,161.104 Z M72.3053335,161.002 C76.6573335,156.854 78.8673335,152.094 78.8673335,146.654 L78.8673335,145.94 L84.3073335,145.94 C84.2393335,151.244 84.1373335,154.338 83.9333335,155.222 C83.7633335,156.582 83.1513335,157.296 82.0633335,157.296 C80.9753335,157.296 79.6833335,157.228 78.1873335,157.092 L79.0373335,160.424 C80.7373335,160.526 81.9613335,160.594 82.6753335,160.594 C85.3953335,160.594 86.9253335,159.37 87.2653335,156.956 C87.6053335,155.154 87.7753335,150.462 87.7753335,142.846 C88.3873335,143.594 89.1013335,144.308 89.9173335,145.022 L92.0253335,142.098 C88.7953335,139.242 86.5513335,135.4 85.2933335,130.606 L79.3433335,130.606 L79.3433335,133.87 L82.6413335,133.87 C83.7973335,137.202 85.3953335,140.058 87.4353335,142.472 L72.6793335,142.472 C75.1273335,139.276 76.8273335,135.57 77.8473335,131.32 L74.4473335,130.504 C73.3593335,135.06 71.2513335,138.936 68.1573335,142.064 L70.4353335,145.022 C71.0133335,144.41 71.5913335,143.798 72.1353335,143.118 L72.1353335,145.94 L75.2973335,145.94 L75.2973335,146.654 C75.2973335,151.074 73.2913335,155.018 69.3133335,158.452 L72.3053335,161.002 Z M114.908667,136.59 L114.908667,133.292 L110.726666,133.292 C110.454667,132.136 110.046666,130.878 109.570666,129.45 L106.204667,130.368 C106.612666,131.32 107.020667,132.306 107.360667,133.292 L103.552666,133.292 L103.552666,136.59 L114.908667,136.59 Z M116.200667,144.274 C117.764667,143.254 119.124666,142.064 120.314666,140.636 L120.314666,142.2 L129.256666,142.2 L129.256666,140.092 C130.242666,141.452 131.398666,142.744 132.724666,143.934 L134.900666,141.418 C133.812666,140.534 132.826666,139.548 131.908666,138.46 C132.996667,137.508 133.982666,136.488 134.832666,135.332 L132.554666,133.326 C131.874666,134.346 131.092667,135.264 130.208666,136.114 C129.902667,135.604 129.630666,135.094 129.358666,134.584 C130.514666,133.7 131.500666,132.714 132.384666,131.592 L130.106666,129.586 C129.562666,130.402 128.916666,131.184 128.168667,131.932 C127.896667,131.184 127.624666,130.436 127.420667,129.654 L124.904666,131.048 C125.754666,134.006 126.978667,136.692 128.576666,139.14 L121.436667,139.14 C122.592667,137.372 123.442667,135.332 124.054666,133.02 L124.054666,130.538 L116.336667,130.538 L116.336667,133.53 L121.096666,133.53 C120.722667,134.516 120.246667,135.468 119.702666,136.386 C119.022666,135.706 118.308666,135.06 117.492666,134.414 L115.350666,136.454 C116.336667,137.202 117.186667,137.916 117.934666,138.664 C116.846666,139.786 115.588666,140.772 114.160666,141.622 L116.200667,144.274 Z M113.854667,141.656 L113.854667,138.528 L104.402667,138.528 L104.402667,141.656 L113.854667,141.656 Z M113.854667,146.484 L113.854667,143.356 L104.402667,143.356 L104.402667,146.484 L113.854667,146.484 Z M132.078666,153.25 L132.078666,144.546 L117.050667,144.546 L117.050667,153.25 L132.078666,153.25 Z M128.746667,150.326 L120.382666,150.326 L120.382666,147.436 L128.746667,147.436 L128.746667,150.326 Z M107.564666,160.934 L107.564666,159.166 L110.692667,159.166 L110.692667,160.492 L114.058666,160.492 L114.058666,148.422 L104.164667,148.422 L104.164667,160.934 L107.564666,160.934 Z M110.692667,155.902 L107.564666,155.902 L107.564666,151.652 L110.692667,151.652 L110.692667,155.902 Z M134.016666,160.492 L134.016666,157.33 L129.732666,157.33 C130.276666,156.514 130.820666,155.63 131.296666,154.644 L128.134666,153.522 C127.590666,154.848 126.944667,156.106 126.264667,157.33 L123.238666,157.33 C122.626666,155.868 121.980666,154.576 121.266666,153.488 L118.104667,154.678 C118.716667,155.494 119.294667,156.378 119.804666,157.33 L115.418667,157.33 L115.418667,160.492 L134.016666,160.492 Z" id="身份證" fill="#1B4875" fill-rule="nonzero" mask="url(#mask-6)"></path>
            </g>
        </g>
    </g>
</svg>