<?xml version="1.0" encoding="UTF-8"?>
<svg width="359px" height="273px" viewBox="0 0 359 273" version="1.1" xmlns="http://www.w3.org/2000/svg" xmlns:xlink="http://www.w3.org/1999/xlink">
    <!-- Generator: Sketch 61.1 (89650) - https://sketch.com -->
    <title>Group 56 outline</title>
    <desc>Created with Sketch.</desc>
    <g id="懶人包" stroke="none" stroke-width="1" fill="none" fill-rule="evenodd">
        <g id="小資振興_懶人包_農遊券" transform="translate(-476.000000, -1498.000000)">
            <g id="Group-56-outline" transform="translate(476.000000, 1498.000000)">
                <path d="M170.772762,202 L73.1960937,202 C68.9375917,202 65.4837963,198.552318 65.4837963,194.299798 L65.4837963,8.70146359 C65.4837963,4.44768223 68.9375917,1 73.1960937,1 L170.772762,1 C175.032527,1 178.483796,4.44768223 178.483796,8.70146359 L178.483796,194.299798 C178.483796,198.552318 175.032527,202 170.772762,202" id="Fill-1" fill="#427E7C"></path>
                <path d="M157.785206,202 L86.1823862,202 C82.4827678,202 79.4837963,199.014027 79.4837963,195.330444 L79.4837963,7.66955578 C79.4837963,3.98597286 82.4827678,1 86.1823862,1 L157.785206,1 C161.484825,1 164.483796,3.98597286 164.483796,7.66955578 L164.483796,195.330444 C164.483796,199.014027 161.484825,202 157.785206,202" id="Fill-3" fill="#6BA997"></path>
                <path d="M166.039631,189 L78.9279612,189 C75.9203368,189 73.4837963,186.552586 73.4837963,183.533099 L73.4837963,20.4669009 C73.4837963,17.4474137 75.9203368,15 78.9279612,15 L166.039631,15 C169.047256,15 171.483796,17.4474137 171.483796,20.4669009 L171.483796,183.533099 C171.483796,186.552586 169.047256,189 166.039631,189" id="Fill-5" fill="#D1E391"></path>
                <path d="M130.947969,10 L113.019623,10 C111.619167,10 110.483796,8.88122228 110.483796,7.5 C110.483796,6.12000986 111.619167,5 113.019623,5 L130.947969,5 C132.348426,5 133.483796,6.12000986 133.483796,7.5 C133.483796,8.88122228 132.348426,10 130.947969,10" id="Fill-7" fill="#BCBEC0"></path>
                <path d="M130.947969,198 L113.019623,198 C111.619167,198 110.483796,196.881222 110.483796,195.501232 C110.483796,194.12001 111.619167,193 113.019623,193 L130.947969,193 C132.348426,193 133.483796,194.12001 133.483796,195.501232 C133.483796,196.881222 132.348426,198 130.947969,198" id="Fill-9" fill="#FFFFFF"></path>
                <path d="M166.039631,14 L78.9279612,14 C75.9203368,14 73.4837963,16.4625159 73.4837963,19.5006353 L73.4837963,25 L171.483796,25 L171.483796,19.5006353 C171.483796,16.4625159 169.047256,14 166.039631,14" id="Fill-11" fill="#D2E7ED"></path>
                <polygon id="Fill-13" fill="#D2E7ED" points="164.483796 178 171.483796 178 171.483796 26 164.483796 26"></polygon>
                <rect id="Rectangle" fill="#FFFFFF" x="153" y="134.7896" width="206" height="51" rx="10"></rect>
                <polygon id="Fill-255" fill="#FFFFFF" points="162.2132 145.727 162.2132 111 197.2422 145.727"></polygon>
                <path d="M188.928,172.472 L190.608,170.504 C189.024,169.016 187.68,167.36 186.6,165.56 C188.136,162.512 189.168,158.864 189.672,154.64 L189.672,152.36 L180.216,152.36 L180.216,151.016 L168.6,151.016 L168.6,153.368 L170.256,153.368 L170.256,167.408 L168.288,167.624 L168.912,170.096 C171.456,169.736 173.904,169.328 176.208,168.848 L176.208,172.424 L178.656,172.424 L178.656,153.368 L179.952,153.368 L179.952,154.76 L180.912,154.76 C181.248,158.6 182.232,162.128 183.864,165.392 C182.664,167.384 181.128,169.088 179.304,170.504 L181.008,172.472 C182.64,171.176 184.056,169.64 185.256,167.84 C186.288,169.472 187.512,171.008 188.928,172.472 Z M176.208,156.32 L172.704,156.32 L172.704,153.368 L176.208,153.368 L176.208,156.32 Z M185.184,162.824 C184.128,160.376 183.456,157.688 183.216,154.76 L187.32,154.76 C186.936,157.76 186.216,160.448 185.184,162.824 Z M176.208,161.528 L172.704,161.528 L172.704,158.576 L176.208,158.576 L176.208,161.528 Z M172.704,167.048 L172.704,163.784 L176.208,163.784 L176.208,166.352 C175.056,166.592 173.88,166.832 172.704,167.048 Z M195.864,158.312 C199.008,156.2 201.216,153.824 202.512,151.232 L200.424,150.224 C199.272,152.384 197.496,154.28 195.096,155.888 L195.864,158.312 Z M215.544,159.128 L215.544,151.016 L203.736,151.016 L203.736,159.128 L215.544,159.128 Z M213.144,154.136 L206.112,154.136 L206.112,152.984 L213.144,152.984 L213.144,154.136 Z M213.144,157.16 L206.112,157.16 L206.112,155.984 L213.144,155.984 L213.144,157.16 Z M200.64,172.544 L200.64,160.592 C201.456,159.584 202.128,158.504 202.656,157.352 L200.496,156.344 C199.344,158.696 197.592,160.76 195.216,162.536 L195.96,164.912 C196.752,164.336 197.496,163.76 198.216,163.136 L198.216,172.544 L200.64,172.544 Z M211.728,172.352 C213.36,172.352 214.176,171.56 214.176,170.024 L214.176,166.04 L217.392,166.04 L217.392,163.856 L214.176,163.856 L214.176,162.536 L216.84,162.536 L216.84,160.376 L202.8,160.376 L202.8,162.536 L211.704,162.536 L211.704,163.856 L201.936,163.856 L201.936,166.04 L211.704,166.04 L211.704,169.424 C211.704,169.904 211.416,170.168 210.864,170.168 C210.144,170.168 209.4,170.096 208.584,170 L209.112,172.352 L211.728,172.352 Z M206.856,171.032 L208.752,169.736 C208.08,168.728 207.096,167.552 205.8,166.256 L204,167.552 C205.2,168.824 206.16,169.976 206.856,171.032 Z M237,171.872 L238.824,170.288 C238.2,169.376 237.552,168.512 236.928,167.696 C238.272,166.112 238.968,164.024 238.968,161.456 C238.968,158.816 238.248,156.68 236.808,155.072 C235.296,153.368 233.232,152.528 230.616,152.528 C227.976,152.528 225.912,153.368 224.424,155.096 C222.984,156.728 222.288,158.84 222.288,161.456 C222.288,164.048 222.984,166.16 224.424,167.792 C225.912,169.472 227.976,170.336 230.616,170.336 C232.344,170.336 233.856,169.952 235.104,169.232 C235.728,170.048 236.352,170.936 237,171.872 Z M230.616,167.864 C228.84,167.864 227.448,167.264 226.488,166.088 C225.552,164.936 225.096,163.4 225.096,161.456 C225.096,159.488 225.552,157.952 226.488,156.8 C227.472,155.6 228.84,155 230.616,155 C232.392,155 233.76,155.552 234.72,156.704 C235.656,157.856 236.136,159.44 236.136,161.456 C236.136,163.112 235.8,164.48 235.176,165.536 C234.36,164.576 233.52,163.64 232.68,162.752 L231.048,164.336 C231.84,165.176 232.656,166.112 233.52,167.168 C232.704,167.624 231.744,167.864 230.616,167.864 Z M247.416,170 L247.416,163.016 L251.856,163.016 C252.816,163.016 253.56,163.208 254.064,163.64 C254.544,164.048 254.832,164.72 254.928,165.656 L255.144,167.768 C255.24,168.728 255.48,169.472 255.888,170 L258.936,170 C258.36,169.376 258,168.536 257.904,167.48 L257.616,164.72 C257.424,163.04 256.584,162.056 255.096,161.72 L255.096,161.672 C256.008,161.432 256.752,160.928 257.28,160.16 C257.76,159.464 258,158.672 258,157.784 C258,156.152 257.448,154.904 256.392,154.04 C255.384,153.248 253.992,152.864 252.24,152.864 L244.608,152.864 L244.608,170 L247.416,170 Z M251.856,160.616 L247.416,160.616 L247.416,155.264 L251.856,155.264 C253.008,155.264 253.848,155.456 254.376,155.888 C254.904,156.296 255.168,156.968 255.168,157.904 C255.168,158.768 254.904,159.44 254.376,159.92 C253.8,160.376 252.96,160.616 251.856,160.616 Z M282.816,170.336 C284.664,170.336 286.248,169.808 287.568,168.752 C288.984,167.624 289.872,166.064 290.256,164.048 L287.52,164.048 C287.184,165.344 286.608,166.328 285.792,166.976 C285.024,167.552 284.016,167.864 282.792,167.864 C280.92,167.864 279.528,167.264 278.64,166.112 C277.824,165.032 277.416,163.472 277.416,161.456 C277.416,159.488 277.824,157.952 278.664,156.848 C279.576,155.6 280.92,155 282.72,155 C283.92,155 284.904,155.24 285.672,155.768 C286.464,156.296 286.992,157.112 287.28,158.24 L290.016,158.24 C289.752,156.512 289.008,155.12 287.76,154.112 C286.464,153.056 284.784,152.528 282.768,152.528 C280.032,152.528 277.944,153.416 276.504,155.24 C275.232,156.824 274.608,158.912 274.608,161.456 C274.608,164.048 275.208,166.112 276.432,167.648 C277.824,169.424 279.96,170.336 282.816,170.336 Z M301.416,170.336 C303.288,170.336 304.824,169.712 305.976,168.464 C307.08,167.264 307.656,165.704 307.656,163.808 C307.656,161.888 307.08,160.328 305.952,159.104 C304.8,157.856 303.288,157.256 301.416,157.256 C299.52,157.256 298.008,157.856 296.88,159.104 C295.728,160.328 295.176,161.888 295.176,163.808 C295.176,165.704 295.728,167.264 296.856,168.464 C298.008,169.712 299.52,170.336 301.416,170.336 Z M301.416,168.104 C300.264,168.104 299.4,167.648 298.776,166.76 C298.248,165.992 297.984,165.008 297.984,163.808 C297.984,162.608 298.248,161.6 298.776,160.832 C299.4,159.92 300.264,159.488 301.416,159.488 C302.544,159.488 303.432,159.92 304.056,160.832 C304.584,161.6 304.872,162.608 304.872,163.808 C304.872,164.984 304.584,165.968 304.056,166.76 C303.432,167.648 302.544,168.104 301.416,168.104 Z M318.336,170.336 C319.968,170.336 321.216,169.784 322.08,168.68 L322.08,170 L324.624,170 L324.624,152.528 L321.888,152.528 L321.888,159.296 C320.856,157.928 319.632,157.256 318.192,157.256 C316.416,157.256 315,157.904 313.992,159.2 C313.032,160.4 312.576,161.912 312.576,163.736 C312.576,165.632 313.056,167.192 314.016,168.392 C315.048,169.688 316.488,170.336 318.336,170.336 Z M318.744,168.128 C317.52,168.128 316.632,167.696 316.08,166.832 C315.6,166.112 315.384,165.08 315.384,163.736 C315.384,162.392 315.624,161.384 316.128,160.688 C316.704,159.872 317.592,159.464 318.84,159.464 C319.704,159.464 320.448,159.824 321.024,160.544 C321.648,161.312 321.984,162.368 321.984,163.688 L321.984,163.88 C321.984,165.08 321.72,166.088 321.216,166.856 C320.64,167.696 319.8,168.128 318.744,168.128 Z M335.904,170.336 C337.56,170.336 338.928,169.856 340.032,168.92 C340.896,168.152 341.472,167.168 341.76,166.016 L339.024,166.016 C338.688,166.712 338.328,167.216 337.92,167.528 C337.392,167.912 336.72,168.104 335.88,168.104 C334.896,168.104 334.128,167.792 333.6,167.192 C333.072,166.592 332.76,165.704 332.664,164.552 L341.952,164.552 C341.952,162.32 341.448,160.568 340.464,159.32 C339.384,157.928 337.824,157.256 335.784,157.256 C333.936,157.256 332.472,157.88 331.416,159.152 C330.312,160.4 329.784,161.936 329.784,163.784 C329.784,165.848 330.36,167.456 331.512,168.632 C332.592,169.76 334.056,170.336 335.904,170.336 Z M339.096,162.488 L332.712,162.488 C332.88,161.504 333.216,160.76 333.72,160.256 C334.248,159.728 334.944,159.488 335.856,159.488 C337.776,159.488 338.856,160.472 339.096,162.488 Z" id="取得QRCode" fill="#0382BA" fill-rule="nonzero"></path>
                <path d="M76.4837963,122 C76.4837963,142.986133 59.4699296,160 38.4837963,160 C17.497663,160 0.483796296,142.986133 0.483796296,122 C0.483796296,101.013867 17.497663,84 38.4837963,84 C59.4699296,84 76.4837963,101.013867 76.4837963,122" id="Fill-15" fill="#6BA997"></path>
                <path d="M38.679649,101.361575 C39.6481775,101.361575 40.4337475,102.142804 40.4337475,103.10598 C40.4337475,104.069157 39.6481775,104.849113 38.679649,104.849113 C37.7124,104.849113 36.92683,104.069157 36.92683,103.10598 C36.92683,102.142804 37.7124,101.361575 38.679649,101.361575 M56.4816373,139.880997 C56.4765195,139.776663 56.4611664,139.671058 56.4342984,139.566724 C56.3997537,139.428037 56.3434588,139.290622 56.2654136,139.155752 L55.0461169,137.046179 C54.9962191,136.959659 54.9476008,136.873138 54.9002618,136.786618 C54.8874675,136.763715 54.8746733,136.743358 54.8631584,136.720455 C54.8170989,136.636479 54.7710394,136.549959 54.7262594,136.464711 C54.7173034,136.44817 54.7096268,136.431629 54.7006708,136.417633 C54.6635673,136.343837 54.6277433,136.271312 54.5919192,136.198788 C54.5778455,136.172068 54.5637718,136.145348 54.5509775,136.117356 C54.5100357,136.035925 54.4703734,135.953222 54.4319905,135.870519 C54.4204756,135.846344 54.4089608,135.820897 54.3974459,135.796722 C54.368019,135.731831 54.3373127,135.665669 54.3091652,135.599506 C54.2950915,135.571514 54.2822972,135.54225 54.2707823,135.514258 C53.0578827,132.750692 52.6740537,129.685577 53.1845463,126.68917 L53.8485704,122.791932 C54.7134651,117.717761 53.0681182,112.478183 49.273329,108.979193 C47.5627311,107.402739 45.4964518,106.204176 43.2062722,105.514557 C43.5939394,104.796946 43.8140014,103.977547 43.8140014,103.10598 C43.8140014,100.286431 41.5148658,98 38.679649,98 C35.8457117,98 33.5465761,100.286431 33.5465761,103.10598 C33.5465761,103.976274 33.7666381,104.795674 34.1530259,105.514557 C33.4314274,105.730858 32.7328587,105.999326 32.0598785,106.313599 C25.7279797,109.271836 22.3336521,116.241823 23.6028466,123.084575 L24.097986,125.755258 C24.7133918,129.074845 24.225929,132.498765 22.7174811,135.510441 C22.6790982,135.586782 22.6394358,135.664396 22.5997735,135.740738 L22.5575523,135.822169 C22.5025368,135.92523 22.4475213,136.027019 22.3912264,136.128808 L20.6883052,139.177382 C20.6512017,139.243545 20.6204954,139.312252 20.5923479,139.38096 C20.5667593,139.449667 20.5437296,139.518374 20.527097,139.587082 C20.5027878,139.691415 20.4887141,139.795749 20.4848758,139.89881 C20.4810375,140.003143 20.4874347,140.104932 20.5040673,140.205449 C20.5143027,140.272884 20.5283764,140.339046 20.5488473,140.405209 C20.5680388,140.468827 20.5897891,140.532445 20.6179365,140.593518 C20.6320103,140.624055 20.6448046,140.655864 20.6614371,140.685128 C20.7382029,140.833994 20.8379985,140.972682 20.955706,141.093556 C20.9800152,141.116458 21.0056038,141.140633 21.029913,141.162263 C21.2077537,141.320036 21.422698,141.44091 21.6632308,141.507073 C21.8026887,141.545244 21.9498231,141.566874 22.1033547,141.566874 L33.019451,141.566874 C32.9989801,141.629219 32.9797886,141.69411 32.9605972,141.759 C32.9593178,141.765362 32.9580383,141.770451 32.9554795,141.776813 C32.9426852,141.826435 32.9298909,141.876057 32.9170966,141.925679 C32.9145377,141.938403 32.9106994,141.948582 32.9081406,141.960033 C32.8953463,142.010927 32.8851108,142.061822 32.873596,142.112716 C32.8723165,142.12035 32.8710371,142.129257 32.8684782,142.136891 C32.8569634,142.194147 32.8454485,142.252676 32.8364925,142.311204 C32.8339336,142.321383 32.8326542,142.332834 32.8300953,142.344286 C32.8224188,142.390091 32.8147422,142.437168 32.808345,142.484245 L32.8006684,142.532595 C32.7929919,142.588579 32.7878741,142.64329 32.781477,142.699274 C32.781477,142.701819 32.7801976,142.704363 32.7801976,142.706908 C32.7738004,142.766709 32.7686827,142.82651 32.7648444,142.886311 C32.763565,142.900307 32.7622855,142.916848 32.7622855,142.933388 C32.7584473,142.977921 32.7558884,143.021181 32.754609,143.065714 C32.7533295,143.083527 32.7533295,143.102612 32.7520501,143.119153 C32.7507707,143.178954 32.7494912,143.238755 32.7494912,143.298555 C32.7494912,146.447646 35.3173071,149 38.4838963,149 C38.7308262,149 38.9739179,148.984732 39.2144507,148.954195 C39.4050858,148.93002 39.5944414,148.896939 39.7786794,148.853679 C39.8720777,148.833321 39.9629173,148.809146 40.0537568,148.783699 C40.5527345,148.642467 41.0235647,148.436345 41.4572914,148.174238 C41.4956743,148.150064 41.5353367,148.127161 41.574999,148.101714 C42.077815,147.779807 42.5294537,147.382831 42.908165,146.926053 C42.9375919,146.889155 42.9670188,146.854801 42.9951662,146.819175 C43.0514611,146.746651 43.1064766,146.672854 43.1602127,146.599057 C43.4263341,146.226256 43.6489549,145.820373 43.8203985,145.389043 C43.8536637,145.302522 43.8856495,145.216002 43.9163558,145.126937 C43.9304295,145.082404 43.9457827,145.037871 43.9598564,144.993339 C43.9867244,144.904274 44.0135925,144.813936 44.0366222,144.723599 C44.1543298,144.268094 44.2170218,143.790959 44.2170218,143.298555 C44.2170218,143.238755 44.2157424,143.178954 44.214463,143.119153 C44.214463,143.102612 44.2131835,143.083527 44.2119041,143.065714 C44.2106247,143.021181 44.2080658,142.977921 44.205507,142.933388 C44.2042275,142.916848 44.2029481,142.900307 44.2016687,142.886311 C44.1978304,142.82651 44.1939921,142.766709 44.1875949,142.706908 C44.1875949,142.704363 44.1875949,142.701819 44.1863155,142.699274 C44.1811978,142.64329 44.1735212,142.588579 44.1658446,142.532595 C44.1632858,142.517327 44.1620063,142.500786 44.1594475,142.484245 C44.1517709,142.437168 44.1440943,142.390091 44.1376972,142.344286 C44.1364177,142.332834 44.1338589,142.321383 44.1325794,142.311204 C44.1210646,142.252676 44.1108291,142.194147 44.0980348,142.136891 C44.0967554,142.129257 44.0941966,142.12035 44.0929171,142.112716 C44.0826817,142.061822 44.0711668,142.010927 44.0583725,141.960033 C44.0558137,141.948582 44.0532548,141.938403 44.0494165,141.925679 C44.0366222,141.876057 44.0251073,141.826435 44.0110336,141.776813 C44.0097542,141.770451 44.0084747,141.765362 44.0059159,141.759 C43.9880039,141.69411 43.9688124,141.629219 43.9483415,141.566874 L54.8631584,141.566874 C55.0192488,141.566874 55.1676627,141.545244 55.3071206,141.507073 C55.3762098,141.486715 55.4440196,141.463813 55.5079911,141.435821 C55.5412563,141.420552 55.5719626,141.406556 55.6039483,141.391288 C55.7229353,141.328942 55.8329663,141.253873 55.9314824,141.167353 C55.9609093,141.141906 55.9903362,141.113914 56.0184836,141.085922 C56.0888523,141.013397 56.1528238,140.934511 56.2103981,140.849263 C56.2295896,140.821271 56.2462221,140.792007 56.2641342,140.762742 C56.3037965,140.692763 56.3396205,140.618966 56.3690474,140.545169 C56.3895183,140.494274 56.4074303,140.442108 56.4227835,140.389941 C56.4509309,140.291969 56.468843,140.191453 56.477799,140.088392 C56.4841961,140.019684 56.4854755,139.950977 56.4816373,139.880997" id="Fill-16" fill="#427E7C"></path>
                <path d="M56.2663156,135.636011 L55.0470092,133.567676 C53.235322,130.496361 52.5764104,126.906092 53.1854239,123.413126 L53.8494533,119.592072 C54.7143548,114.617091 53.0689948,109.479936 49.2741755,106.049345 C46.4939521,103.536905 42.7707814,102 38.6816909,102 C36.3134473,102 34.0693093,102.513965 32.0605884,103.435858 C25.7286393,106.336267 22.3342847,113.170005 23.6034893,119.878994 L24.0973532,122.49747 C24.7562648,125.977961 24.1523691,129.574468 22.3905801,132.668238 L20.6889248,135.657218 C20.0914262,136.707603 20.8706053,138 22.1039855,138 L54.8640493,138 C56.1089445,138 56.8855646,136.687643 56.2663156,135.636011" id="Fill-17" fill="#F7CB15"></path>
                <path d="M50.3442656,135.636011 L49.5654766,133.567676 C48.408746,130.496361 47.9862658,126.906092 48.3756602,123.413126 L48.799413,119.592072 C49.352964,114.617091 48.3018535,109.479936 45.8764095,106.049345 C44.1012289,103.536905 41.7228686,102 39.1090901,102 C37.5960509,102 36.1631811,102.513965 34.8804699,103.435858 C30.8338216,106.336267 28.665429,113.170005 29.4773037,119.878994 L29.7941639,122.49747 C30.2140991,125.977961 29.8285222,129.574468 28.7023324,132.668238 L27.615591,135.657218 C27.2325592,136.707603 27.7301187,138 28.5190879,138 L49.4484038,138 C50.2437356,138 50.7412952,136.687643 50.3442656,135.636011" id="Fill-18" fill="#EFD771"></path>
                <path d="M44.4837963,139.500614 C44.4837963,142.538101 42.0218974,145 38.9844099,145 C35.9469225,145 33.4837963,142.538101 33.4837963,139.500614 C33.4837963,136.461899 35.9469225,134 38.9844099,134 C42.0218974,134 44.4837963,136.461899 44.4837963,139.500614" id="Fill-19" fill="#F7CB15"></path>
                <path d="M38.9837963,142.0246 C36.4602524,142.0246 34.3343877,140.321033 33.6863181,138 C33.5537584,138.472325 33.4837963,138.97171 33.4837963,139.487085 C33.4837963,142.531365 35.9459699,145 38.9837963,145 C42.0228501,145 44.4837963,142.531365 44.4837963,139.487085 C44.4837963,138.97171 44.4138342,138.472325 44.2812745,138 C43.6344323,140.321033 41.5085676,142.0246 38.9837963,142.0246" id="Fill-20" fill="#E7AD27"></path>
                <path d="M39.4844193,101.707788 C38.5411172,101.707788 37.7760081,100.943925 37.7760081,100.000623 C37.7760081,99.0573209 38.5411172,98.2922118 39.4844193,98.2922118 C40.4277215,98.2922118 41.1915845,99.0573209 41.1915845,100.000623 C41.1915845,100.943925 40.4277215,101.707788 39.4844193,101.707788 M39.4844193,95 C36.7230486,95 34.4837963,97.2392523 34.4837963,100.000623 C34.4837963,102.761994 36.7230486,105 39.4844193,105 C42.244544,105 44.4837963,102.761994 44.4837963,100.000623 C44.4837963,97.2392523 42.244544,95 39.4844193,95" id="Fill-21" fill="#EFD771"></path>
                <path d="M38.9837963,101.231685 C38.0276433,101.231685 37.252111,100.457416 37.252111,99.5012631 C37.252111,98.5451101 38.0276433,97.7695778 38.9837963,97.7695778 C39.9399493,97.7695778 40.7142185,98.5451101 40.7142185,99.5012631 C40.7142185,100.457416 39.9399493,101.231685 38.9837963,101.231685 M38.9837963,96 C37.0500179,96 35.4837963,97.5674847 35.4837963,99.5012631 C35.4837963,101.433778 37.0500179,103 38.9837963,103 C40.9163116,103 42.4837963,101.433778 42.4837963,99.5012631 C42.4837963,97.5674847 40.9163116,96 38.9837963,96" id="Fill-22" fill="#F7CB15"></path>
                <path d="M22.3910964,132.622903 L20.6894669,135.638003 C20.090698,136.697567 20.8711446,138 22.1032268,138 L54.8640738,138 C56.1089502,138 56.8855585,136.677433 56.2663189,135.616611 L55.0457515,133.530201 C54.755323,133.031879 54.4943212,132.520973 54.2640255,132 L22.7250252,132 C22.6188333,132.208893 22.5075237,132.417785 22.3910964,132.622903" id="Fill-23" fill="#F7CB15"></path>
                <path d="M50.3442656,135.615852 L49.5654766,133.52988 C49.3784146,133.031663 49.2117131,132.520864 49.0640995,132 L28.914845,132 C28.8474009,132.208849 28.7774117,132.417698 28.7023324,132.622772 L27.615591,135.637241 C27.2325592,136.696582 27.7301187,138 28.5190879,138 L49.4484038,138 C50.2437356,138 50.7412952,136.676452 50.3442656,135.615852" id="Fill-24" fill="#F3C95E"></path>
                <path d="M171.07293,239.356955 L138.364015,245.810925 C132.32364,247.002136 126.157029,247.3387 120.045962,246.818097 C116.002635,246.473969 112.926273,243.02639 112.926273,238.975011 L112.926273,235.039602 C112.926273,233.59124 114.104051,232.415156 115.555761,232.415156 L131.546028,232.415156 C135.772397,232.415156 139.458478,229.16296 139.585976,224.943929 C139.715999,220.579936 136.211697,217 131.869192,217 L56.4837963,217 L56.4837963,256.688133 L60.7682337,256.688133 C63.5706647,256.688133 66.2822061,257.675136 68.4269495,259.475189 C69.9657619,260.765983 71.8062774,261.648362 73.7793404,262.036608 L112.893451,269.754901 C121.302007,271.415033 129.955459,271.415033 138.364015,269.754901 L174.129095,262.698392 C177.822749,261.968539 180.483796,258.733991 180.483796,254.975058 L180.483796,247.080289 C180.483796,242.1188 175.945625,238.395162 171.07293,239.356955" id="Fill-25" fill="#FFFFFF"></path>
                <path d="M174.129095,251.233517 L138.364015,258.198487 C129.955459,259.835548 121.302007,259.835548 112.893451,258.198487 L73.7793404,250.581679 C71.8062774,250.197293 69.9657619,249.32776 68.4282119,248.052694 C66.2822061,246.277554 63.5706647,245.302284 60.7682337,245.302284 L56.4837963,245.302284 L56.4837963,255.876001 L60.7682337,255.876001 C63.5706647,255.876001 66.2822061,256.851271 68.4282119,258.626412 C69.9657619,259.901478 71.8062774,260.771011 73.7793404,261.155396 L112.893451,268.772205 C121.302007,270.409265 129.955459,270.409265 138.364015,268.772205 L174.129095,261.807235 C177.822749,261.088222 180.483796,257.894959 180.483796,254.185451 L180.483796,246.393243 C180.483796,245.916804 180.440876,245.45156 180.358823,245 C179.7895,248.094989 177.353153,250.605314 174.129095,251.233517" id="Fill-26" fill="#D1D3D4"></path>
                <path d="M48.6928201,273 L39.2760203,273 C34.9737644,273 31.4837963,269.451586 31.4837963,265.074448 L31.4837963,209.925552 C31.4837963,205.548414 34.9737644,202 39.2760203,202 L48.6928201,202 C52.995076,202 56.4837963,205.548414 56.4837963,209.925552 L56.4837963,265.074448 C56.4837963,269.451586 52.995076,273 48.6928201,273" id="Fill-27" fill="#D1E391"></path>
                <path d="M48.6928201,255.758535 L39.2760203,255.758535 C34.9737644,255.758535 31.4837963,252.284898 31.4837963,248 L31.4837963,265.241465 C31.4837963,269.525121 34.9737644,273 39.2760203,273 L48.6928201,273 C52.995076,273 56.4837963,269.525121 56.4837963,265.241465 L56.4837963,248 C56.4837963,252.284898 52.995076,255.758535 48.6928201,255.758535" id="Fill-28" fill="#509D9B"></path>
                <path d="M112.978558,238.253749 L112.978558,234.366929 C112.978558,232.93645 114.149425,231.774885 115.591361,231.774885 L131.453916,231.774885 C135.499871,231.774885 139.122909,228.825533 139.456725,224.82542 C139.479314,224.54779 139.488099,224.27265 139.481824,224 L117.482569,224 C111.045936,224 105.984727,229.460472 106.5231,235.823553 C106.981157,241.219286 111.357164,245.46715 116.804897,245.800804 L120.05647,246 C116.036868,245.658876 112.978558,242.255107 112.978558,238.253749" id="Fill-29" fill="#D1D3D4"></path>
                <path d="M191.383559,18.9928271 C198.269303,3.01701829 216.724707,-4.31723837 232.605026,2.61117509 C248.485345,9.53832424 255.774507,28.1047023 248.888763,44.0792468 C242.001761,60.0550557 223.547614,67.388048 207.668552,60.4608988 C206.531191,59.9652897 205.439074,59.410258 204.392199,58.7995968 L189.303634,64.7962145 C186.993724,65.7141028 184.734083,63.3650167 185.72189,61.0715601 L192.250717,45.9264023 C188.1248,37.8247101 187.502708,27.9959717 191.383559,18.9928271" id="Fill-30" fill="#427E7C"></path>
                <path d="M191.333946,18.6561867 C191.732646,17.7408706 192.174518,16.8584249 192.646864,16 C187.617399,31.2961463 195.023828,48.1688108 210.147773,54.6999201 C225.272988,61.2297652 242.706602,55.0817233 250.483796,40.9727066 C250.177787,41.9031937 249.832417,42.8260954 249.433716,43.7414115 C242.588515,59.4572884 224.429877,66.8101594 208.56694,60.4484594 L187.341865,68.7962943 C185.009341,69.7141389 182.726338,67.3639004 183.724358,65.0730815 L185.61247,60.7354439 C184.616989,63.027527 186.899993,65.375237 189.232516,64.4573924 L204.477088,58.4610603 C190.76256,50.5506555 184.874748,33.4858252 191.333946,18.6561867" id="Fill-31" fill="#6BA997"></path>
                <path d="M220.984455,11 C217.946109,11 215.483796,13.3653631 215.483796,16.282813 L215.483796,31.7159207 C215.483796,32.080602 215.522023,32.4376857 215.595839,32.7808406 C215.614294,32.8682121 215.634066,32.9530512 215.656475,33.036624 C215.701292,33.2063021 215.755336,33.3709151 215.817289,33.5329957 C216.526457,35.3943895 218.29542,36.765743 220.421603,36.9734087 C220.513874,36.9822724 220.607463,36.9886037 220.701052,36.9924025 C220.793323,36.9974675 220.889548,37 220.984455,37 C224.021484,37 226.483796,34.6346369 226.483796,31.7159207 L226.483796,16.282813 C226.483796,13.3653631 224.021484,11 220.984455,11" id="Fill-32" fill="#6BA997"></path>
                <path d="M220.984455,40 C217.946109,40 215.483796,42.4609946 215.483796,45.4993409 C215.483796,45.8789694 215.522023,46.2493709 215.595839,46.6079089 C215.614294,46.6975434 215.634066,46.7858598 215.656475,46.8741762 C215.701292,47.0508089 215.755336,47.222169 215.817289,47.3895746 C216.526457,49.32858 218.29542,50.7548232 220.421603,50.9710006 C220.513874,50.9802277 220.607463,50.9881366 220.701052,50.9920911 C220.793323,50.9973637 220.889548,51 220.984455,51 C224.021484,51 226.483796,48.5376872 226.483796,45.4993409 C226.483796,42.4609946 224.021484,40 220.984455,40" id="Fill-33" fill="#6BA997"></path>
                <path d="M220.983137,35 L220.983137,35 C224.021484,35 226.483796,32.6346369 226.483796,29.7159207 L226.483796,14.282813 C226.483796,11.3653631 224.021484,9 220.983137,9 C217.946109,9 215.483796,11.3653631 215.483796,14.282813 L215.483796,29.7159207 C215.483796,32.6346369 217.946109,35 220.983137,35" id="Fill-34" fill="#EFD771"></path>
                <path d="M220.983137,31.5152761 C224.021484,31.5152761 226.483796,29.0458284 226.483796,26 L226.483796,29.4834019 C226.483796,32.5305523 224.021484,35 220.983137,35 C217.946109,35 215.483796,32.5305523 215.483796,29.4834019 L215.483796,26 C215.483796,29.0458284 217.946109,31.5152761 220.983137,31.5152761" id="Fill-35" fill="#F7CB15"></path>
                <path d="M220.983137,49 L220.983137,49 C224.021484,49 226.483796,46.5376872 226.483796,43.4993409 C226.483796,40.4609946 224.021484,38 220.983137,38 C217.946109,38 215.483796,40.4609946 215.483796,43.4993409 C215.483796,46.5376872 217.946109,49 220.983137,49" id="Fill-36" fill="#EFD771"></path>
                <path d="M220.983137,45.63898 C223.411178,45.63898 225.447727,44.1089253 226.176666,42 C226.361208,42.5304189 226.483796,43.0888889 226.483796,43.679235 C226.483796,46.6182149 224.021484,49 220.983137,49 C217.946109,49 215.483796,46.6182149 215.483796,43.679235 C215.483796,43.0888889 215.606385,42.5304189 215.790926,42 C216.519866,44.1089253 218.556415,45.63898 220.983137,45.63898" id="Fill-37" fill="#F7CB15"></path>
                <path d="M92.9837963,78 C93.8117963,78 94.4837963,77.328 94.4837963,76.5 L94.4837963,72 L98.9837963,72 C99.8117963,72 100.483796,71.328 100.483796,70.5 C100.483796,69.6708 99.8117963,69 98.9837963,69 L92.9837963,69 C92.1545963,69 91.4837963,69.6708 91.4837963,70.5 L91.4837963,76.5 C91.4837963,77.328 92.1545963,78 92.9837963,78" id="Fill-38" fill="#646464"></path>
                <path d="M151.983796,69 L145.983796,69 C145.154596,69 144.483796,69.6708 144.483796,70.5 C144.483796,71.328 145.154596,72 145.983796,72 L150.483796,72 L150.483796,76.5 C150.483796,77.328 151.154596,78 151.983796,78 C152.811796,78 153.483796,77.328 153.483796,76.5 L153.483796,70.5 C153.483796,69.6708 152.811796,69 151.983796,69" id="Fill-39" fill="#646464"></path>
                <path d="M98.9837963,128 L94.4837963,128 L94.4837963,123.5 C94.4837963,122.6708 93.8117963,122 92.9837963,122 C92.1545963,122 91.4837963,122.6708 91.4837963,123.5 L91.4837963,129.5 C91.4837963,130.328 92.1545963,131 92.9837963,131 L98.9837963,131 C99.8117963,131 100.483796,130.328 100.483796,129.5 C100.483796,128.6708 99.8117963,128 98.9837963,128" id="Fill-40" fill="#646464"></path>
                <path d="M151.983796,122 C151.154596,122 150.483796,122.6708 150.483796,123.5 L150.483796,128 L145.983796,128 C145.154596,128 144.483796,128.6708 144.483796,129.5 C144.483796,130.328 145.154596,131 145.983796,131 L151.983796,131 C152.811796,131 153.483796,130.328 153.483796,129.5 L153.483796,123.5 C153.483796,122.6708 152.811796,122 151.983796,122" id="Fill-41" fill="#646464"></path>
                <path d="M103.483796,84 L106.483796,84 L106.483796,81 L103.483796,81 L103.483796,84 Z M100.483796,85.5 C100.483796,86.3292 101.153396,87 101.983796,87 L107.983796,87 C108.811796,87 109.483796,86.3292 109.483796,85.5 L109.483796,79.5 C109.483796,78.6708 108.811796,78 107.983796,78 L101.983796,78 C101.153396,78 100.483796,78.6708 100.483796,79.5 L100.483796,85.5 Z" id="Fill-42" fill="#646464"></path>
                <path d="M138.483796,84 L141.483796,84 L141.483796,81 L138.483796,81 L138.483796,84 Z M136.983796,87 L142.983796,87 C143.811796,87 144.483796,86.3292 144.483796,85.5 L144.483796,79.5 C144.483796,78.6708 143.811796,78 142.983796,78 L136.983796,78 C136.153396,78 135.483796,78.6708 135.483796,79.5 L135.483796,85.5 C135.483796,86.3292 136.153396,87 136.983796,87 L136.983796,87 Z" id="Fill-43" fill="#646464"></path>
                <path d="M103.483796,119 L106.483796,119 L106.483796,116 L103.483796,116 L103.483796,119 Z M107.983796,113 L101.983796,113 C101.153396,113 100.483796,113.6708 100.483796,114.5 L100.483796,120.5 C100.483796,121.3292 101.153396,122 101.983796,122 L107.983796,122 C108.811796,122 109.483796,121.3292 109.483796,120.5 L109.483796,114.5 C109.483796,113.6708 108.811796,113 107.983796,113 L107.983796,113 Z" id="Fill-44" fill="#646464"></path>
                <path d="M136.983796,119 L132.483796,119 L132.483796,114.5 C132.483796,113.6708 131.811796,113 130.983796,113 C130.154596,113 129.483796,113.6708 129.483796,114.5 L129.483796,120.5 C129.483796,121.328 130.154596,122 130.983796,122 L136.983796,122 C137.811796,122 138.483796,121.328 138.483796,120.5 C138.483796,119.6708 137.811796,119 136.983796,119" id="Fill-45" fill="#646464"></path>
                <path d="M144.483796,110.625 C144.483796,109.7267 143.811796,109 142.983796,109 C142.154596,109 141.483796,109.7267 141.483796,110.625 L141.483796,120.375 C141.483796,121.272 142.154596,122 142.983796,122 C143.811796,122 144.483796,121.272 144.483796,120.375 L144.483796,110.625 Z" id="Fill-46" fill="#646464"></path>
                <path d="M144.483796,104.625 C144.483796,103.7267 143.811796,103 142.983796,103 L136.983796,103 C136.154596,103 135.483796,103.7267 135.483796,104.625 L135.483796,114.375 C135.483796,115.272 136.154596,116 136.983796,116 C137.811796,116 138.483796,115.272 138.483796,114.375 L138.483796,106.25 L142.983796,106.25 C143.811796,106.25 144.483796,105.522 144.483796,104.625" id="Fill-47" fill="#646464"></path>
                <path d="M130.858796,109 C131.755796,109 132.483796,108.328 132.483796,107.5 L132.483796,104.5 C132.483796,103.6708 131.755796,103 130.858796,103 L121.108796,103 C120.210496,103 119.483796,103.6708 119.483796,104.5 C119.483796,105.328 120.210496,106 121.108796,106 L129.233796,106 L129.233796,107.5 C129.233796,108.328 129.960496,109 130.858796,109" id="Fill-48" fill="#646464"></path>
                <path d="M114.983796,116 L117.983796,116 C118.811796,116 119.483796,115.328 119.483796,114.5 C119.483796,113.6708 118.811796,113 117.983796,113 L114.983796,113 C114.154596,113 113.483796,113.6708 113.483796,114.5 C113.483796,115.328 114.154596,116 114.983796,116" id="Fill-49" fill="#646464"></path>
                <path d="M123.858796,109 C122.960496,109 122.233796,109.7267 122.233796,110.625 L122.233796,118.75 L114.108796,118.75 C113.210496,118.75 112.483796,119.4767 112.483796,120.375 C112.483796,121.272 113.210496,122 114.108796,122 L123.858796,122 C124.755796,122 125.483796,121.272 125.483796,120.375 L125.483796,110.625 C125.483796,109.7267 124.755796,109 123.858796,109" id="Fill-50" fill="#646464"></path>
                <path d="M102.083796,103 C101.199316,103 100.483796,103.6708 100.483796,104.5 L100.483796,107.5 C100.483796,108.328 101.199316,109 102.083796,109 L114.883796,109 C115.766996,109 116.483796,108.328 116.483796,107.5 L116.483796,104.5 C116.483796,103.6708 115.766996,103 114.883796,103 C113.999316,103 113.283796,103.6708 113.283796,104.5 L113.283796,106 L103.683796,106 L103.683796,104.5 C103.683796,103.6708 102.966996,103 102.083796,103" id="Fill-51" fill="#646464"></path>
                <path d="M114.06713,81 L128.31713,81 L128.31713,85.5 C128.31713,86.328 129.025196,87 129.900463,87 C130.774463,87 131.483796,86.328 131.483796,85.5 L131.483796,79.5 C131.483796,78.6708 130.774463,78 129.900463,78 L114.06713,78 C113.191863,78 112.483796,78.6708 112.483796,79.5 C112.483796,80.328 113.191863,81 114.06713,81" id="Fill-52" fill="#646464"></path>
                <path d="M114.108796,87 L123.858796,87 C124.755796,87 125.483796,86.328 125.483796,85.5 C125.483796,84.6708 124.755796,84 123.858796,84 L114.108796,84 C113.210496,84 112.483796,84.6708 112.483796,85.5 C112.483796,86.328 113.210496,87 114.108796,87" id="Fill-53" fill="#646464"></path>
                <path d="M136.858796,94 C137.755796,94 138.483796,93.328 138.483796,92.5 C138.483796,91.6708 137.755796,91 136.858796,91 L127.108796,91 C126.210496,91 125.483796,91.6708 125.483796,92.5 C125.483796,93.328 126.210496,94 127.108796,94 L136.858796,94 Z" id="Fill-54" fill="#646464"></path>
                <path d="M148.900463,100 C149.774463,100 150.483796,99.328 150.483796,98.5 C150.483796,97.6708 149.774463,97 148.900463,97 L144.150463,97 L144.150463,92.5 C144.150463,91.6708 143.44113,91 142.56713,91 C141.691863,91 140.983796,91.6708 140.983796,92.5 L140.983796,97 L121.983796,97 L121.983796,92.5 C121.983796,91.6708 121.274463,91 120.400463,91 C119.525196,91 118.81713,91.6708 118.81713,92.5 L118.81713,97 L102.983796,97 L102.983796,94 L114.06713,94 C114.94113,94 115.650463,93.328 115.650463,92.5 C115.650463,91.6708 114.94113,91 114.06713,91 L101.400463,91 C100.525196,91 99.8171296,91.6708 99.8171296,92.5 L99.8171296,97 L95.0671296,97 C94.191863,97 93.4837963,97.6708 93.4837963,98.5 C93.4837963,99.328 94.191863,100 95.0671296,100 L148.900463,100 Z" id="Fill-55" fill="#646464"></path>
            </g>
        </g>
    </g>
</svg>