<?xml version="1.0" encoding="UTF-8"?>
<svg width="578px" height="368px" viewBox="0 0 578 368" version="1.1" xmlns="http://www.w3.org/2000/svg" xmlns:xlink="http://www.w3.org/1999/xlink">
    <!-- Generator: Sketch 61.1 (89650) - https://sketch.com -->
    <title>Group 10 outline</title>
    <desc>Created with Sketch.</desc>
    <defs>
        <polygon id="path-1" points="0.0732090393 0.173102078 116.870036 0.173102078 116.870036 35.9635696 0.0732090393 35.9635696"></polygon>
        <polygon id="path-3" points="0.0732090393 0.173102078 116.870036 0.173102078 116.870036 35.9635696 0.0732090393 35.9635696"></polygon>
        <polygon id="path-5" points="0.559775983 0.173102078 58.9584081 0.173102078 58.9584081 35.9635696 0.559775983 35.9635696"></polygon>
        <linearGradient x1="50.0006266%" y1="28.7327452%" x2="50.0006266%" y2="95.7239387%" id="linearGradient-7">
            <stop stop-color="#CC6757" offset="0%"></stop>
            <stop stop-color="#CC6757" offset="100%"></stop>
        </linearGradient>
        <path d="M0.0188085106,0.6528 L0.0188085106,13.4798667 L0.0199148936,13.4787333 C0.941531915,15.4224 2.88876596,16.7642667 5.14025532,16.7642667 L5.14025532,16.7642667 C7.39285106,16.7642667 9.34008511,15.4224 10.2617021,13.4787333 L10.2617021,13.4787333 C11.1833191,15.4224 13.1305532,16.7642667 15.3831489,16.7642667 L15.3831489,16.7642667 C17.6346383,16.7642667 19.5818723,15.4224 20.5034894,13.4787333 L20.5034894,13.4787333 C21.4262128,15.4224 23.3723404,16.7642667 25.6249362,16.7642667 L25.6249362,16.7642667 C27.8764255,16.7642667 29.8225532,15.4224 30.7452766,13.4787333 L30.7452766,13.4787333 C31.668,15.4224 33.6141277,16.7642667 35.865617,16.7642667 L35.865617,16.7642667 C38.1182128,16.7642667 40.0654468,15.4224 40.9870638,13.4787333 L40.9870638,13.4787333 C41.9086809,15.4224 43.8559149,16.7642667 46.1085106,16.7642667 L46.1085106,16.7642667 C48.36,16.7642667 50.3050213,15.4235333 51.2277447,13.481 L51.2277447,13.481 L51.2277447,0.6528 L0.0188085106,0.6528 Z" id="path-8"></path>
        <linearGradient x1="76.9958097%" y1="46.1281521%" x2="-28.1824282%" y2="59.2857148%" id="linearGradient-10">
            <stop stop-color="#F2EDD1" offset="0%"></stop>
            <stop stop-color="#C6C19A" offset="100%"></stop>
        </linearGradient>
        <linearGradient x1="50.0011963%" y1="87.6424974%" x2="50.0011963%" y2="14.4185796%" id="linearGradient-11">
            <stop stop-color="#D89044" offset="0%"></stop>
            <stop stop-color="#D89044" offset="100%"></stop>
        </linearGradient>
        <linearGradient x1="49.9996186%" y1="85.2891147%" x2="49.9996186%" y2="41.4014054%" id="linearGradient-12">
            <stop stop-color="#F2EDD1" offset="0%"></stop>
            <stop stop-color="#E2DDC1" offset="100%"></stop>
        </linearGradient>
        <path d="M5.4197,0.268888889 C3.9457,1 -0.3311,5.07888889 0.6171,7.02555556 L0.6171,7.02555556 C1.5653,8.97111111 7.3788,8.04555556 8.8506,7.31555556 L8.8506,7.31555556 C10.3246,6.58333333 10.4214,4.57777778 9.4743,2.63222222 L9.4743,2.63222222 C8.723,1.08888889 7.5394,0.0477777778 6.3459,0.0477777778 L6.3459,0.0477777778 C6.0357,0.0477777778 5.7244,0.118888889 5.4197,0.268888889" id="path-13"></path>
        <linearGradient x1="50.0063114%" y1="-2.88721279%" x2="50.0063114%" y2="131.856523%" id="linearGradient-15">
            <stop stop-color="#F2EDD1" offset="0%"></stop>
            <stop stop-color="#C6C19A" offset="100%"></stop>
        </linearGradient>
        <path d="M1.2298,2.63222222 C0.2827,4.57777778 0.3784,6.58333333 1.8524,7.31555556 L1.8524,7.31555556 C3.3253,8.04555556 9.1377,8.97111111 10.0859,7.02555556 L10.0859,7.02555556 C11.0341,5.07888889 6.7573,1 5.2844,0.268888889 L5.2844,0.268888889 C4.9797,0.118888889 4.6684,0.0477777778 4.3571,0.0477777778 L4.3571,0.0477777778 C3.1647,0.0477777778 1.9811,1.08888889 1.2298,2.63222222" id="path-16"></path>
        <linearGradient x1="49.9990407%" y1="-2.88731654%" x2="49.9990407%" y2="131.856523%" id="linearGradient-18">
            <stop stop-color="#F2EDD1" offset="0%"></stop>
            <stop stop-color="#C6C19A" offset="100%"></stop>
        </linearGradient>
        <linearGradient x1="49.999936%" y1="77.2124886%" x2="49.999936%" y2="30.9438701%" id="linearGradient-19">
            <stop stop-color="#5B4459" offset="0%"></stop>
            <stop stop-color="#3D2F3B" offset="100%"></stop>
        </linearGradient>
        <path d="M0.917809524,11.3268571 L0.917809524,15.9851429 L22.1106667,15.9851429 L22.1106667,11.3268571 C22.1106667,5.24571429 17.3430952,0.269714286 11.5153333,0.269714286 L11.5153333,0.269714286 C5.68647619,0.269714286 0.917809524,5.24457143 0.917809524,11.3268571" id="path-20"></path>
        <linearGradient x1="49.9996873%" y1="33.502258%" x2="49.9996873%" y2="108.667468%" id="linearGradient-22">
            <stop stop-color="#F4C167" offset="0%"></stop>
            <stop stop-color="#D89044" offset="100%"></stop>
        </linearGradient>
        <path d="M0.1197,11.3268571 L0.1197,15.9851429 L20.43825,15.9851429 L20.43825,11.3268571 C20.43825,5.24571429 15.8676,0.269714286 10.2795,0.269714286 L10.2795,0.269714286 C4.6914,0.269714286 0.1197,5.24457143 0.1197,11.3268571" id="path-23"></path>
        <linearGradient x1="50.0000258%" y1="33.502258%" x2="50.0000258%" y2="108.667468%" id="linearGradient-25">
            <stop stop-color="#F4C167" offset="0%"></stop>
            <stop stop-color="#D89044" offset="100%"></stop>
        </linearGradient>
        <path d="M0.4095,11.3268571 L0.4095,15.9851429 L20.73015,15.9851429 L20.73015,11.3268571 C20.73015,5.24457143 16.15845,0.269714286 10.5693,0.269714286 L10.5693,0.269714286 C4.98225,0.269714286 0.4095,5.24457143 0.4095,11.3268571" id="path-26"></path>
        <linearGradient x1="50.0007771%" y1="33.502258%" x2="50.0007771%" y2="108.667468%" id="linearGradient-28">
            <stop stop-color="#F4C167" offset="0%"></stop>
            <stop stop-color="#D89044" offset="100%"></stop>
        </linearGradient>
        <path d="M13.82976,5.28016667 C10.2893241,5.28016667 7.22361379,3.23916667 5.74212414,0.267583333 L5.74212414,0.267583333 C4.69534897,2.36491667 2.85700414,4.00183333 0.619630345,4.78075 L0.619630345,4.78075 C3.41824,9.12058333 8.28877241,11.99575 13.8308414,11.99575 L13.8308414,11.99575 C19.3707476,11.99575 24.24128,9.12058333 27.0420524,4.78075 L27.0420524,4.78075 C24.8025159,4.00183333 22.9652524,2.36491667 21.9184772,0.267583333 L21.9184772,0.267583333 C20.4369876,3.23916667 17.3701959,5.28016667 13.82976,5.28016667" id="path-29"></path>
        <linearGradient x1="49.9991606%" y1="-77.1071171%" x2="49.9991606%" y2="241.416616%" id="linearGradient-31">
            <stop stop-color="#BF423B" offset="0%"></stop>
            <stop stop-color="#BF423B" offset="100%"></stop>
        </linearGradient>
        <path d="M19.0701538,5.31709091 C15.5443077,5.31709091 12.4901538,3.26181818 11.0158462,0.269454545 L11.0158462,0.269454545 C9.54046154,3.26181818 6.48630769,5.31709091 2.95938462,5.31709091 L2.95938462,5.31709091 C2.15492308,5.31709091 1.37307692,5.20909091 0.631076923,5.00727273 L0.631076923,5.00727273 C2.55769231,17.976 9.69015385,29.2156364 19.8024615,36.4778182 L19.8024615,36.4778182 C15.5809231,44.1174545 13.0523077,52.848 12.7367692,62.1490909 L12.7367692,62.1490909 C13.9623077,61.6330909 15.302,61.3483636 16.7073846,61.3483636 L16.7073846,61.3483636 C22.4376923,61.3483636 27.1255385,66.0981818 27.1255385,71.9029091 L27.1255385,71.9029091 L27.1255385,0.269454545 C25.6501538,3.26181818 22.5970769,5.31709091 19.0701538,5.31709091" id="path-32"></path>
        <linearGradient x1="50.0015856%" y1="-1.31491319%" x2="50.0015856%" y2="83.9158481%" id="linearGradient-34">
            <stop stop-color="#BF423B" offset="0%"></stop>
            <stop stop-color="#BF423B" offset="100%"></stop>
        </linearGradient>
        <path d="M8.51045517,5.31709091 C4.96893793,5.31709091 1.90322759,3.26181818 0.421737931,0.269454545 L0.421737931,0.269454545 L0.421737931,71.892 C0.429307586,66.0916364 5.13438897,61.3483636 10.8851641,61.3483636 L10.8851641,61.3483636 C12.2942014,61.3483636 13.6416,61.6330909 14.8711283,62.1490909 L14.8711283,62.1490909 C14.5532028,52.848 12.0162869,44.1174545 7.77836138,36.4778182 L7.77836138,36.4778182 C17.9314317,29.2156364 25.0923255,17.976 27.0269131,5.00727273 L27.0269131,5.00727273 C26.2807614,5.20909091 25.4967614,5.31709091 24.6868083,5.31709091 L24.6868083,5.31709091 C21.1463724,5.31709091 18.0806621,3.26181818 16.5991724,0.269454545 L16.5991724,0.269454545 C15.1166014,3.26181818 12.0519724,5.31709091 8.51045517,5.31709091" id="path-35"></path>
        <linearGradient x1="50.0006113%" y1="-1.3149275%" x2="50.0006113%" y2="83.9149057%" id="linearGradient-37">
            <stop stop-color="#BF423B" offset="0%"></stop>
            <stop stop-color="#BF423B" offset="100%"></stop>
        </linearGradient>
        <path d="M0.433565789,0.86125 L0.425921053,7.85091667 C1.92210526,10.8225 5.01822368,12.8635 8.59486842,12.8635 L8.59486842,12.8635 C12.1715132,12.8635 15.2665395,10.8225 16.7638158,7.85091667 L16.7638158,7.85091667 C18.26,10.8225 21.3561184,12.8635 24.9316711,12.8635 L24.9316711,12.8635 C28.5083158,12.8635 31.6044342,10.8225 33.1017105,7.85091667 L33.1017105,7.85091667 C34.5978947,10.8225 37.6940132,12.8635 41.2695658,12.8635 L41.2695658,12.8635 C44.8451184,12.8635 47.9423289,10.8225 49.4385132,7.85091667 L49.4385132,7.85091667 C50.9357895,10.8225 54.0308158,12.8635 57.6063684,12.8635 L57.6063684,12.8635 C61.1841053,12.8635 64.2780395,10.8225 65.7764079,7.85091667 L65.7764079,7.85091667 C67.2715,10.8225 70.3687105,12.8635 73.9442632,12.8635 L73.9442632,12.8635 C77.5209079,12.8635 80.6170263,10.8225 82.1132105,7.85091667 L82.1132105,7.85091667 L82.1143026,0.866666667 L0.433565789,0.86125 Z" id="path-38"></path>
        <linearGradient x1="0.000631559245%" y1="50.0019569%" x2="100.000871%" y2="50.0019569%" id="linearGradient-40">
            <stop stop-color="#F4C167" offset="0%"></stop>
            <stop stop-color="#D89044" offset="100%"></stop>
        </linearGradient>
        <polygon id="path-41" points="0.847536946 0.870519149 221.112547 0.870519149 221.112547 256.493655 0.847536946 256.493655"></polygon>
        <path d="M17.4989062,5.61576541 C16.2082812,2.36304812 13.0189062,0.0564180451 9.2815625,0.0564180451 L9.2815625,0.0564180451 C4.40125,0.0564180451 0.4440625,3.98072707 0.4440625,8.82182932 L0.4440625,8.82182932 C0.4440625,13.0249737 3.42890625,16.5337421 7.41015625,17.3854376 L7.41015625,17.3854376 L7.41015625,36.9039113 L27.8917187,36.9039113 L27.8917187,17.3073203 C31.7176562,16.3460436 34.5526562,12.9153925 34.5526562,8.82182932 L34.5526562,8.82182932 C34.5526562,3.98072707 30.5965625,0.0564180451 25.71625,0.0564180451 L25.71625,0.0564180451 C21.9789062,0.0564180451 18.790625,2.36304812 17.4989062,5.61576541" id="path-43"></path>
        <linearGradient x1="37.1886076%" y1="12.2054643%" x2="89.1509422%" y2="125.260424%" id="linearGradient-45">
            <stop stop-color="#F2EDD1" offset="0%"></stop>
            <stop stop-color="#C6C19A" offset="100%"></stop>
        </linearGradient>
        <path d="M0.676603448,63.9638974 C0.676603448,99.0172991 28.7698793,127.443145 63.4167931,127.443145 L63.4167931,127.443145 C98.0724655,127.443145 126.161362,99.0172991 126.161362,63.9638974 L126.161362,63.9638974 C126.161362,28.8995556 98.0724655,0.480273504 63.4167931,0.480273504 L63.4167931,0.480273504 C28.7665948,0.480273504 0.676603448,28.8995556 0.676603448,63.9638974 L0.676603448,63.9638974 Z" id="path-46"></path>
        <path d="M0.795272727,11.4594762 C0.795272727,17.7450476 5.87672727,22.8510476 12.1374545,22.8510476 L12.1374545,22.8510476 C18.3949091,22.8510476 23.4774545,17.7450476 23.4774545,11.4594762 L23.4774545,11.4594762 C23.4774545,5.17171429 18.3949091,0.0722857143 12.1374545,0.0722857143 L12.1374545,0.0722857143 C5.87672727,0.0722857143 0.795272727,5.17171429 0.795272727,11.4594762 L0.795272727,11.4594762 Z" id="path-48"></path>
        <path d="M0.59597561,0.0836 C0.59597561,24.2088 20.0985366,43.7635 44.1570732,43.7635 L44.1570732,43.7635 L44.1570732,0.0836 L0.59597561,0.0836 Z" id="path-50"></path>
        <path d="M0.59597561,43.8383 L44.1570732,43.8383 L44.1570732,0.1584 C20.0985366,0.1584 0.59597561,19.7142 0.59597561,43.8383 L0.59597561,43.8383 Z" id="path-52"></path>
        <path d="M0.681585366,43.8383 L44.2426829,43.8383 C44.2426829,19.7142 24.740122,0.1584 0.681585366,0.1584 L0.681585366,0.1584 L0.681585366,43.8383 Z" id="path-54"></path>
        <path d="M0.681585366,0.0913 L0.681585366,43.7701 C24.740122,43.7701 44.2426829,24.2154 44.2426829,0.0913 L44.2426829,0.0913 L0.681585366,0.0913 Z" id="path-56"></path>
    </defs>
    <g id="懶人包" stroke="none" stroke-width="1" fill="none" fill-rule="evenodd">
        <g id="小資振興_懶人包_800振興" transform="translate(-1020.000000, -1843.000000)">
            <g id="Group-10-outline" transform="translate(1020.000000, 1843.000000)">
                <g id="Group-289">
                    <line x1="241.5" y1="91" x2="241.5" y2="163" id="Stroke-1" stroke="#0E6DA0" stroke-width="1.798"></line>
                    <g id="Group-144" transform="translate(0.000000, 3.000000)">
                        <path d="M70.5735139,160.15259 C71.8410137,156.67852 75.6806639,154.867674 79.1553616,156.128486 C82.6388006,157.380551 84.4395245,161.226414 83.1829514,164.703764 C81.9351197,168.194237 78.0932842,169.988681 74.6229572,168.739897 C71.1362401,167.484551 69.3245895,163.644157 70.5735139,160.15259 L70.5735139,160.15259 Z M72.4747636,191.145845 L97.6105955,169.896827 L91.7921159,137.496229 L19.3075183,111.370172 L0,165.040564 L72.4747636,191.145845 Z" id="Fill-2" fill="#AFD7A6"></path>
                        <polygon id="Fill-4" fill="#FFFFFF" points="51.8380095 136.703109 56.0142028 138.209961 30.3167373 160.91881 26.1580268 159.422894"></polygon>
                        <path d="M31.5103725,138.659392 C32.1102495,137.013665 32.8183011,135.035512 34.5130357,134.954592 C34.8135206,134.939283 35.1172835,134.986304 35.4265097,135.101122 C37.7495309,135.922345 36.7868866,138.638616 36.2066777,140.262473 C35.6035226,141.95194 34.8812663,143.932281 33.1876243,144.0132 C32.8871395,144.026322 32.5724499,143.978208 32.2643163,143.862296 C31.6720879,143.649062 31.2503165,143.282738 30.9990018,142.757855 C30.4493877,141.587803 31.0132066,140.028462 31.5103725,138.659392 M30.4635925,146.01541 C35.0779473,147.680821 38.1964338,145.420543 39.7054142,141.220384 C41.2231359,137.0246 40.2517503,133.295743 35.6439515,131.636894 C31.0197626,129.958361 27.9111101,132.224106 26.3977591,136.422078 C24.8844081,140.629891 25.8470523,144.343439 30.4635925,146.01541" id="Fill-6" fill="#FFFFFF"></path>
                        <path d="M46.3526857,157.419918 C46.9307093,155.817931 47.6409462,153.806972 49.3509783,153.730427 C49.6459998,153.714024 49.9595967,153.765419 50.2589889,153.876957 C50.8697927,154.100032 51.8564757,154.704741 51.7635985,156.36359 C51.7089649,157.253705 51.3560318,158.231299 51.0358788,159.090796 C50.4447432,160.732149 49.7170235,162.713583 48.0190108,162.801063 C47.7228966,162.807624 47.4289678,162.763884 47.1186489,162.651253 C46.5242352,162.441299 46.0904443,162.062946 45.8445931,161.533689 C45.2829596,160.342861 45.8719099,158.722284 46.3526857,157.419918 M46.1385219,165.855227 C50.7474134,167.509702 53.8735486,165.26364 55.3748803,161.066762 C56.892602,156.862229 55.9244944,153.135559 51.3035835,151.472336 C46.7012481,149.816767 43.5816689,152.068297 42.0639472,156.264081 C40.5484108,160.46424 41.5263524,164.19419 46.1385219,165.855227" id="Fill-8" fill="#FFFFFF"></path>
                        <path d="M78.5241248,163.662746 C78.5241248,163.662746 125.02607,184.220668 136.496943,162.517845 C147.968908,140.813928 129.784657,130.122715 121.90212,142.322967 C114.026138,154.535248 143.358924,186.350819 168.903416,178.600045 C199.1311,169.443022 228.899862,87.3174034 185.828908,90.9456579 C148.848509,94.0632449 155.045054,188.005294 244.849599,174.297097" id="Stroke-10" stroke="#747374" stroke-width="2.936" stroke-linecap="round" stroke-linejoin="round"></path>
                        <path d="M80.7442162,159.824757 C80.7442162,159.824757 93.1351193,165.792022 99.153558,165.175284" id="Stroke-12" stroke="#747374" stroke-width="2.936" stroke-linecap="round" stroke-linejoin="round"></path>
                        <line x1="400.916301" y1="231.963052" x2="511.581052" y2="302.580608" id="Stroke-14" stroke="#0E6DA0" stroke-width="1.798"></line>
                        <path d="M435.760198,119.03609 C433.235032,120.451088 430.055356,119.553319 428.647994,117.039347 C427.228613,114.518815 428.123512,111.332337 430.639936,109.917339 C433.151989,108.501249 436.340407,109.399017 437.755417,111.918456 C439.16715,114.431334 438.272251,117.621093 435.760198,119.03609 M515.150484,93.929181 L493.377897,55.1414122 C492.531076,53.6301862 490.626548,53.0954616 489.116475,53.9429291 L416.988089,94.4824953 C416.015611,95.0292486 415.406992,96.0593317 415.386231,97.1779888 L415.08447,122.861176 C415.072634,123.980926 415.649565,125.026319 416.61221,125.596036 L438.694023,138.702804 C439.655574,139.272521 440.860792,139.285643 441.826714,138.741077 L513.954008,98.1971369 C515.45971,97.3507629 516.001676,95.4371265 515.150484,93.929181" id="Fill-16" fill="#596273"></path>
                        <path d="M452.996447,116.813866 C451.52571,117.646025 449.883423,118.063744 449.060641,118.05833 L447.836848,114.676061 C448.81479,114.673874 450.265859,114.249594 451.275488,113.68097 C452.94072,112.746022 453.299117,111.391168 452.622753,110.18831 C451.867716,108.845484 450.678889,108.653027 448.556919,108.515245 C445.177284,108.39824 443.130709,106.994178 442.187733,105.321113 C440.538891,102.370832 441.126748,98.7994403 444.951101,96.6507 C446.188006,95.9563234 447.518881,95.6392065 448.214913,95.6774792 L449.38298,99.0925 C448.680391,99.0553208 447.717747,99.2007571 446.703747,99.7671935 C445.169635,100.62669 444.955472,101.97389 445.507271,102.958045 C446.123538,104.053739 446.990027,104.322742 449.638665,104.417877 C452.925423,104.513012 454.840877,105.882082 455.93792,107.825243 C457.827151,111.187775 456.578226,114.802908 452.996447,116.813866" id="Fill-18" fill="#FFFFFF"></path>
                        <polygon id="Fill-20" fill="#FFFFFF" points="481.877631 100.369606 473.59299 105.024663 463.248662 86.5815829 466.827164 84.5695309 475.473479 99.9726634 480.175248 97.3329387"></polygon>
                        <polygon id="Fill-22" fill="#FFFFFF" points="492.29637 94.5144257 483.981134 99.1847919 473.636806 80.7428049 481.642816 76.2408387 483.395462 79.3606127 478.967954 81.8494335 481.344516 86.0878647 485.530544 83.7368257 487.204518 86.7220984 483.026139 89.0709504 485.812453 94.0518725 490.539353 91.3935582"></polygon>
                        <path d="M460.426399,103.210208 L458.944736,98.9717769 C458.542632,97.7918834 457.755908,95.7535873 457.254372,94.4140418 L457.338507,94.3637405 C458.179865,95.4769301 459.468126,97.2013899 460.28763,98.2139769 L463.054276,101.736161 L460.426399,103.210208 Z M457.652104,89.7305535 L453.354625,92.1428288 L459.71507,112.824317 L463.181026,110.874595 L461.639265,106.199855 L464.951155,104.337613 L468.106792,108.109117 L471.572749,106.158302 L457.652104,89.7305535 Z" id="Fill-24" fill="#FFFFFF"></path>
                        <path d="M430.182652,114.779616 C430.182652,114.779616 418.554435,113.534112 415.0852,122.861723 C411.829037,131.588998 416.825827,155.650515 394.735273,166.394216" id="Stroke-26" stroke="#747374" stroke-width="2.279" stroke-linecap="round" stroke-linejoin="round"></path>
                        <path d="M174.794011,87.2923621 C176.815455,85.504479 179.340621,83.2802868 179.340621,80.03804 C179.340621,76.7979803 176.815455,74.5737881 174.794011,72.7880919 C174.05318,72.1363621 172.815182,71.0417621 172.641447,70.6710634 C172.594462,70.1330582 173.265363,68.5398192 173.665281,67.5873751 C174.693486,65.1379205 175.973005,62.0903179 174.599516,59.245014 C173.203081,56.3603439 170.002644,55.4614816 167.427215,54.7353932 C166.453644,54.4642036 164.832119,54.0093049 164.502132,53.7326478 C164.234427,53.2700945 164.161218,51.5707855 164.106584,50.5516374 C163.974371,47.8878556 163.799544,44.5701569 161.313714,42.5821621 C160.150018,41.6504945 158.639945,41.1802868 156.832665,41.1802868 C155.525829,41.1802868 154.217901,41.4077361 152.953679,41.6286244 C151.963718,41.7992114 150.943162,41.981827 150.21872,41.981827 C149.966313,41.981827 149.8341,41.9446478 149.815524,41.9643309 C149.37627,41.6286244 148.604844,40.1961309 148.139365,39.3377283 C146.846734,36.9713803 145.248154,34.0331283 142.11437,33.3190686 C141.688228,33.2239335 141.253345,33.1736322 140.807535,33.1736322 C138.288925,33.1736322 136.147287,34.7187569 134.24713,36.081266 C133.397031,36.6892556 131.974372,37.7116842 131.493596,37.7794816 C130.946168,37.7116842 129.525694,36.6892556 128.676687,36.081266 C126.775438,34.7187569 124.630522,33.1736322 122.113005,33.1736322 C121.670473,33.1736322 121.227941,33.2239335 120.805077,33.3190686 C117.671293,34.0331283 116.068343,36.9713803 114.788823,39.3377283 C114.308048,40.213627 113.512582,41.6811127 113.178225,41.9348062 C113.178225,41.9348062 113.042733,41.9763595 112.694171,41.9763595 C111.971914,41.9763595 110.951359,41.7981179 109.970139,41.6231569 C108.701546,41.4055491 107.393618,41.1770062 106.086782,41.1770062 C104.275131,41.1770062 102.762873,41.6483075 101.606826,42.5777881 C99.115533,44.5614088 98.9527248,47.8856686 98.8172334,50.5516374 C98.7702485,51.5675049 98.6850201,53.266814 98.4839684,53.6440738 C98.0873284,54.0016504 96.4658028,54.4587361 95.4966025,54.7299257 C92.9244521,55.453827 89.7043471,56.3526894 88.3155607,59.2373595 C86.9420717,62.0837569 88.2259615,65.1313595 89.2541661,67.580814 C89.6508061,68.5376322 90.3249849,70.1286842 90.3020388,70.5649932 C90.1151918,71.0417621 88.8586188,72.1363621 88.1298064,72.7880919 C86.100714,74.5737881 83.5831972,76.7979803 83.5831972,80.03804 C83.5831972,83.2802868 86.100714,85.5001049 88.1298064,87.2890816 C88.8586188,87.9397179 90.1151918,89.0299439 90.2790926,89.4050166 C90.3249849,89.9419283 89.6508061,91.5395413 89.2541661,92.4908919 C88.2259615,94.9359725 86.9420717,97.9857621 88.3232094,100.834346 C89.7043471,103.717923 92.9244521,104.617879 95.4966025,105.335219 C96.4658028,105.610783 98.0993478,106.066775 98.4173154,106.343432 C98.6850201,106.801611 98.7702485,108.502014 98.8172334,109.518975 C98.9527248,112.186037 99.115533,115.503736 101.606826,117.492824 C102.762873,118.424492 104.275131,118.895793 106.086782,118.895793 C107.393618,118.895793 108.705917,118.662876 109.977788,118.446362 C110.963378,118.271401 111.971914,118.093159 112.694171,118.093159 C112.965153,118.093159 113.088625,118.11503 113.100645,118.106282 C113.538806,118.446362 114.314604,119.873388 114.788823,120.732884 C116.068343,123.094858 117.671293,126.038578 120.805077,126.75045 C121.227941,126.851053 121.670473,126.898074 122.113005,126.898074 C124.630522,126.898074 126.775438,125.357323 128.676687,123.992627 C129.525694,123.380263 130.946168,122.356741 131.426943,122.293318 C131.974372,122.356741 133.393753,123.380263 134.24713,123.992627 C136.147287,125.357323 138.288925,126.898074 140.807535,126.898074 C141.253345,126.898074 141.688228,126.851053 142.11437,126.75045 C145.248154,126.038578 146.846734,123.094858 148.139365,120.732884 C148.612492,119.852611 149.412328,118.388406 149.748871,118.133619 C149.748871,118.133619 149.876714,118.093159 150.21872,118.093159 C150.943162,118.093159 151.963718,118.269214 152.944938,118.441988 C154.210252,118.662876 155.525829,118.895793 156.832665,118.895793 C158.639945,118.895793 160.150018,118.424492 161.313714,117.492824 C163.791895,115.503736 163.966722,112.186037 164.098936,109.518975 C164.152477,108.502014 164.231149,106.801611 164.432201,106.422165 C164.82447,106.066775 166.445996,105.610783 167.419567,105.339593 C170.002644,104.620066 173.203081,103.717923 174.599516,100.838721 C175.965356,97.9901361 174.693486,94.9403465 173.665281,92.4908919 C173.265363,91.5395413 172.594462,89.9419283 172.606482,89.5088997 C172.815182,89.0332244 174.05318,87.9429984 174.794011,87.2923621" id="Fill-28" fill="#C6642F"></path>
                        <path d="M119.292381,93.6964829 L115.230919,93.6964829 L111.743109,85.0118543 C110.962941,83.0785348 109.935829,80.1566855 109.396049,78.1227634 L109.326118,78.1227634 C109.46598,80.4278751 109.636437,83.959901 109.636437,88.5734049 L109.636437,93.6964829 L105.730134,93.6964829 L105.730134,70.8279816 L109.806894,70.8279816 L113.329669,79.7859868 C114.047555,81.5509062 115.133671,84.5011868 115.773977,86.4716855 L115.839537,86.4716855 C115.707324,84.0605036 115.398097,80.0910751 115.398097,75.8843556 L115.398097,70.8279816 L119.292381,70.8279816 L119.292381,93.6964829 Z" id="Fill-30" fill="#FFFFFF"></path>
                        <polygon id="Fill-32" fill="#FFFFFF" points="133.525858 93.6964829 123.221958 93.6964829 123.221958 70.8279816 133.165276 70.8279816 133.165276 74.6968075 127.660393 74.6968075 127.660393 79.9554803 132.846215 79.9554803 132.846215 83.6526257 127.660393 83.6526257 127.660393 89.8298439 133.525858 89.8298439"></polygon>
                        <path d="M153.259627,93.6964829 L148.682423,93.6964829 L147.319861,86.2026829 C146.956001,84.0922153 146.613995,81.4809218 146.304768,78.7023218 L146.238115,78.7023218 C145.827271,81.4481166 145.457948,83.9927062 144.981542,86.231114 L143.457265,93.6964829 L139.041776,93.6964829 L135.159512,70.8279816 L139.771681,70.8279816 L140.885114,79.9554803 C141.187784,82.5656803 141.396485,85.1769738 141.66856,87.9643218 L141.757067,87.9643218 C142.076127,85.1463556 142.579849,82.6684699 143.057347,79.9193945 L144.68215,70.8279816 L148.271578,70.8279816 L149.799134,79.8526906 C150.206701,82.433366 150.618638,84.9801426 150.886343,87.9643218 L150.956274,87.9643218 C151.257852,84.9801426 151.529927,82.5350621 151.843524,79.8865894 L152.953679,70.8279816 L157.294866,70.8279816 L153.259627,93.6964829 Z" id="Fill-34" fill="#FFFFFF"></path>
                        <path d="M554.46341,298.748087 C554.46341,322.665261 535.076127,342.059692 511.176107,342.059692 C487.282644,342.059692 467.903009,322.665261 467.903009,298.748087 C467.903009,274.826539 487.282644,255.437575 511.176107,255.437575 C535.076127,255.437575 554.46341,274.826539 554.46341,298.748087" id="Fill-36" fill="#0E6DA0"></path>
                        <line x1="183.901325" y1="205.549184" x2="73.2365746" y2="276.167834" id="Stroke-38" stroke="#0E6DA0" stroke-width="1.798"></line>
                        <path d="M30.354216,272.334219 C30.354216,296.252486 49.742592,315.646917 73.641519,315.646917 C97.5360753,315.646917 116.913525,296.252486 116.913525,272.334219 C116.913525,248.413764 97.5360753,229.023707 73.641519,229.023707 C49.742592,229.023707 30.354216,248.413764 30.354216,272.334219" id="Fill-40" fill="#0E6DA0"></path>
                        <line x1="394.793512" y1="219.214735" x2="521.465911" y2="184.838171" id="Stroke-42" stroke="#0E6DA0" stroke-width="1.798"></line>
                        <path d="M547.496641,150.519236 C565.171707,166.617838 566.455597,194.021111 550.369277,211.710765 C534.286234,229.396046 506.910424,230.684197 489.235358,214.585594 C471.558107,198.484804 470.270939,171.091373 486.353981,153.407186 C502.440302,135.717532 529.818297,134.418446 547.496641,150.519236" id="Fill-44" fill="#0E6DA0"></path>
                        <path d="M430.182652,118.101689 C430.182652,118.101689 423.392787,115.648954 416.611663,125.596582" id="Stroke-46" stroke="#747374" stroke-width="2.279" stroke-linecap="round" stroke-linejoin="round"></path>
                        <path d="M287.700488,46.4738423 C287.700488,71.9930034 267.02713,92.6843332 241.529623,92.6843332 C216.027746,92.6843332 195.353295,71.9930034 195.353295,46.4738423 C195.353295,20.9514008 216.027746,0.262257922 241.529623,0.262257922 C267.02713,0.262257922 287.700488,20.9514008 287.700488,46.4738423" id="Fill-48" fill="#0E6DA0"></path>
                        <path d="M516.441913,182.513923 C516.441913,194.400339 506.813286,204.037412 494.934846,204.037412 C483.057499,204.037412 473.428871,194.400339 473.428871,182.513923 C473.428871,170.626414 483.057499,160.990435 494.934846,160.990435 C506.813286,160.990435 516.441913,170.626414 516.441913,182.513923" id="Fill-50" fill="#C6642F"></path>
                        <path d="M513.536279,182.513923 C513.536279,192.793978 505.209024,201.127591 494.93572,201.127591 C484.662416,201.127591 476.335161,192.793978 476.335161,182.513923 C476.335161,172.232775 484.662416,163.899162 494.93572,163.899162 C505.209024,163.899162 513.536279,172.232775 513.536279,182.513923" id="Fill-52" fill="#FCBC80"></path>
                        <path d="M510.2422,182.513923 C510.2422,190.97329 503.390053,197.831762 494.934955,197.831762 C486.482043,197.831762 479.628802,190.97329 479.628802,182.513923 C479.628802,174.053464 486.482043,167.194991 494.934955,167.194991 C503.390053,167.194991 510.2422,174.053464 510.2422,182.513923" id="Fill-54" fill="#DE8D4E"></path>
                        <path d="M507.535105,182.513923 C507.535105,189.476279 501.894731,195.122053 494.935501,195.122053 C487.977365,195.122053 482.335898,189.476279 482.335898,182.513923 C482.335898,175.550474 487.977365,169.9047 494.935501,169.9047 C501.894731,169.9047 507.535105,175.550474 507.535105,182.513923" id="Fill-56" fill="#FCBC80"></path>
                        <path d="M507.535105,182.513923 C507.535105,189.476279 501.894731,195.122053 494.935501,195.122053 C487.977365,195.122053 482.335898,189.476279 482.335898,182.513923 C482.335898,175.550474 487.977365,169.9047 494.935501,169.9047 C501.894731,169.9047 507.535105,175.550474 507.535105,182.513923" id="Fill-58" fill="#FCBC80"></path>
                        <path d="M504.658317,182.513923 C504.658317,187.887414 500.306204,192.243944 494.93572,192.243944 C489.565236,192.243944 485.213122,187.887414 485.213122,182.513923 C485.213122,177.139339 489.565236,172.783903 494.93572,172.783903 C500.306204,172.783903 504.658317,177.139339 504.658317,182.513923" id="Fill-60" fill="#DE8D4E"></path>
                        <path d="M501.461377,182.513923 C501.461377,186.120308 498.539571,189.045438 494.934846,189.045438 C491.331213,189.045438 488.4105,186.120308 488.4105,182.513923 C488.4105,178.906445 491.331213,175.982409 494.934846,175.982409 C498.539571,175.982409 501.461377,178.906445 501.461377,182.513923" id="Fill-62" fill="#FCBC80"></path>
                        <path d="M501.461377,182.513923 C501.461377,186.120308 498.539571,189.045438 494.934846,189.045438 C491.331213,189.045438 488.4105,186.120308 488.4105,182.513923 C488.4105,178.906445 491.331213,175.982409 494.934846,175.982409 C498.539571,175.982409 501.461377,178.906445 501.461377,182.513923" id="Fill-64" fill="#FCBC80"></path>
                        <path d="M498.839619,182.513923 C498.839619,184.671412 497.091344,186.419929 494.935501,186.419929 C492.779659,186.419929 491.031383,184.671412 491.031383,182.513923 C491.031383,180.355342 492.779659,178.606825 494.935501,178.606825 C497.091344,178.606825 498.839619,180.355342 498.839619,182.513923" id="Fill-66" fill="#F7954C"></path>
                        <path d="M496.030031,182.513923 C496.030031,183.118632 495.540514,183.608523 494.935174,183.608523 C494.330926,183.608523 493.841409,183.118632 493.841409,182.513923 C493.841409,181.908121 494.330926,181.41823 494.935174,181.41823 C495.540514,181.41823 496.030031,181.908121 496.030031,182.513923" id="Fill-68" fill="#FCBC80"></path>
                        <path d="M561.736564,184.043192 C561.736564,195.930701 552.107937,205.566681 540.229497,205.566681 C528.35215,205.566681 518.723522,195.930701 518.723522,184.043192 C518.723522,172.156777 528.35215,162.519704 540.229497,162.519704 C552.107937,162.519704 561.736564,172.156777 561.736564,184.043192" id="Fill-70" fill="#C6642F"></path>
                        <path d="M558.83093,184.043192 C558.83093,194.323247 550.503675,202.657953 540.230371,202.657953 C529.957067,202.657953 521.629812,194.323247 521.629812,184.043192 C521.629812,173.763138 529.957067,165.429525 540.230371,165.429525 C550.503675,165.429525 558.83093,173.763138 558.83093,184.043192" id="Fill-72" fill="#FCBC80"></path>
                        <path d="M555.536961,184.043192 C555.536961,192.502558 548.684813,199.362125 540.229715,199.362125 C531.776803,199.362125 524.923563,192.502558 524.923563,184.043192 C524.923563,175.583826 531.776803,168.725353 540.229715,168.725353 C548.684813,168.725353 555.536961,175.583826 555.536961,184.043192" id="Fill-74" fill="#DE8D4E"></path>
                        <path d="M552.829756,184.043192 C552.829756,191.006642 547.188289,196.652416 540.230152,196.652416 C533.272016,196.652416 527.630549,191.006642 527.630549,184.043192 C527.630549,177.079743 533.272016,171.435062 540.230152,171.435062 C547.188289,171.435062 552.829756,177.079743 552.829756,184.043192" id="Fill-76" fill="#FCBC80"></path>
                        <path d="M552.829756,184.043192 C552.829756,191.006642 547.188289,196.652416 540.230152,196.652416 C533.272016,196.652416 527.630549,191.006642 527.630549,184.043192 C527.630549,177.079743 533.272016,171.435062 540.230152,171.435062 C547.188289,171.435062 552.829756,177.079743 552.829756,184.043192" id="Fill-78" fill="#FCBC80"></path>
                        <path d="M549.952968,184.043192 C549.952968,189.417777 545.600855,193.773213 540.230371,193.773213 C534.859887,193.773213 530.506681,189.417777 530.506681,184.043192 C530.506681,178.669701 534.859887,174.313171 540.230371,174.313171 C545.600855,174.313171 549.952968,178.669701 549.952968,184.043192" id="Fill-80" fill="#F7954C"></path>
                        <path d="M546.756028,184.043192 C546.756028,187.65067 543.834223,190.574706 540.229497,190.574706 C536.625864,190.574706 533.704058,187.65067 533.704058,184.043192 C533.704058,180.436808 536.625864,177.511678 540.229497,177.511678 C543.834223,177.511678 546.756028,180.436808 546.756028,184.043192" id="Fill-82" fill="#FCBC80"></path>
                        <path d="M546.756028,184.043192 C546.756028,187.65067 543.834223,190.574706 540.229497,190.574706 C536.625864,190.574706 533.704058,187.65067 533.704058,184.043192 C533.704058,180.436808 536.625864,177.511678 540.229497,177.511678 C543.834223,177.511678 546.756028,180.436808 546.756028,184.043192" id="Fill-84" fill="#FCBC80"></path>
                        <path d="M544.13427,184.043192 C544.13427,186.201774 542.385995,187.950291 540.230152,187.950291 C538.07431,187.950291 536.326035,186.201774 536.326035,184.043192 C536.326035,181.885704 538.07431,180.137187 540.230152,180.137187 C542.385995,180.137187 544.13427,181.885704 544.13427,184.043192" id="Fill-86" fill="#F7954C"></path>
                        <path d="M541.324682,184.043192 C541.324682,184.648995 540.835165,185.138886 540.229825,185.138886 C539.625577,185.138886 539.13606,184.648995 539.13606,184.043192 C539.13606,183.438483 539.625577,182.948592 540.229825,182.948592 C540.835165,182.948592 541.324682,183.438483 541.324682,184.043192" id="Fill-88" fill="#FCBC80"></path>
                        <path d="M540.229934,177.512006 C540.229934,189.398422 530.601306,199.035494 518.723959,199.035494 C506.845519,199.035494 497.216892,189.398422 497.216892,177.512006 C497.216892,165.62559 506.845519,155.988518 518.723959,155.988518 C530.601306,155.988518 540.229934,165.62559 540.229934,177.512006" id="Fill-90" fill="#C6642F"></path>
                        <path d="M537.3243,177.512006 C537.3243,187.792061 528.997045,196.125674 518.724833,196.125674 C508.450436,196.125674 500.123181,187.792061 500.123181,177.512006 C500.123181,167.231951 508.450436,158.898338 518.724833,158.898338 C528.997045,158.898338 537.3243,167.231951 537.3243,177.512006" id="Fill-92" fill="#FCBC80"></path>
                        <path d="M534.03033,177.512006 C534.03033,185.971372 527.178183,192.829845 518.724178,192.829845 C510.270173,192.829845 503.416932,185.971372 503.416932,177.512006 C503.416932,169.05264 510.270173,162.194167 518.724178,162.194167 C527.178183,162.194167 534.03033,169.05264 534.03033,177.512006" id="Fill-94" fill="#DE8D4E"></path>
                        <path d="M531.323126,177.512006 C531.323126,184.475455 525.682751,190.120136 518.724615,190.120136 C511.765385,190.120136 506.123919,184.475455 506.123919,177.512006 C506.123919,170.548557 511.765385,164.902783 518.724615,164.902783 C525.682751,164.902783 531.323126,170.548557 531.323126,177.512006" id="Fill-96" fill="#FCBC80"></path>
                        <path d="M531.323126,177.512006 C531.323126,184.475455 525.682751,190.120136 518.724615,190.120136 C511.765385,190.120136 506.123919,184.475455 506.123919,177.512006 C506.123919,170.548557 511.765385,164.902783 518.724615,164.902783 C525.682751,164.902783 531.323126,170.548557 531.323126,177.512006" id="Fill-98" fill="#FCBC80"></path>
                        <path d="M528.446338,177.512006 C528.446338,182.885497 524.094225,187.242027 518.724833,187.242027 C513.353257,187.242027 509.001143,182.885497 509.001143,177.512006 C509.001143,172.138515 513.353257,167.781985 518.724833,167.781985 C524.094225,167.781985 528.446338,172.138515 528.446338,177.512006" id="Fill-100" fill="#DE8D4E"></path>
                        <path d="M525.249398,177.512006 C525.249398,181.11839 522.327592,184.04352 518.723959,184.04352 C515.119233,184.04352 512.198521,181.11839 512.198521,177.512006 C512.198521,173.905622 515.119233,170.980492 518.723959,170.980492 C522.327592,170.980492 525.249398,173.905622 525.249398,177.512006" id="Fill-102" fill="#FCBC80"></path>
                        <path d="M525.249398,177.512006 C525.249398,181.11839 522.327592,184.04352 518.723959,184.04352 C515.119233,184.04352 512.198521,181.11839 512.198521,177.512006 C512.198521,173.905622 515.119233,170.980492 518.723959,170.980492 C522.327592,170.980492 525.249398,173.905622 525.249398,177.512006" id="Fill-104" fill="#FCBC80"></path>
                        <path d="M522.62764,177.512006 C522.62764,179.669494 520.879364,181.418011 518.724615,181.418011 C516.56768,181.418011 514.819404,179.669494 514.819404,177.512006 C514.819404,175.354518 516.56768,173.606001 518.724615,173.606001 C520.879364,173.606001 522.62764,175.354518 522.62764,177.512006" id="Fill-106" fill="#DE8D4E"></path>
                        <path d="M519.818052,177.512006 C519.818052,178.117809 519.328535,178.607699 518.724287,178.607699 C518.118947,178.607699 517.629429,178.117809 517.629429,177.512006 C517.629429,176.906203 518.118947,176.416312 518.724287,176.416312 C519.328535,176.416312 519.818052,176.906203 519.818052,177.512006" id="Fill-108" fill="#FCBC80"></path>
                        <path d="M554.237227,211.39682 C554.237227,214.138241 552.016917,216.360246 549.277588,216.360246 L489.881018,216.360246 C487.141689,216.360246 484.920286,214.138241 484.920286,211.39682 C484.920286,208.655399 487.141689,206.433394 489.881018,206.433394 L549.277588,206.433394 C552.016917,206.433394 554.237227,208.655399 554.237227,211.39682" id="Fill-110" fill="#E6E6E6"></path>
                        <g id="Group-114" transform="translate(461.107680, 176.335065)">
                            <mask id="mask-2" fill="white">
                                <use xlink:href="#path-1"></use>
                            </mask>
                            <g id="Clip-113"></g>
                            <path d="M0.0732090393,0.173102078 C2.59509654,29.9613125 27.775728,35.9635696 58.4710763,35.9635696 C89.1675172,35.9635696 114.348149,29.9613125 116.871129,0.173102078 L0.0732090393,0.173102078 Z" id="Fill-112" fill="#E6E6E6" mask="url(#mask-2)"></path>
                        </g>
                        <g id="Group-117" transform="translate(461.107680, 176.335065)">
                            <mask id="mask-4" fill="white">
                                <use xlink:href="#path-3"></use>
                            </mask>
                            <g id="Clip-116"></g>
                            <path d="M0.0732090393,0.173102078 C2.59509654,29.9613125 27.775728,35.9635696 58.4710763,35.9635696 C89.1675172,35.9635696 114.348149,29.9613125 116.871129,0.173102078 L0.0732090393,0.173102078 Z" id="Fill-115" fill="#E6E6E6" mask="url(#mask-4)"></path>
                        </g>
                        <g id="Group-120" transform="translate(519.019308, 176.335065)">
                            <mask id="mask-6" fill="white">
                                <use xlink:href="#path-5"></use>
                            </mask>
                            <g id="Clip-119"></g>
                            <path d="M0.559775983,0.173102078 L0.559775983,35.9635696 C31.2562169,35.9635696 56.4368484,29.9613125 58.9587359,0.173102078 L0.559775983,0.173102078 Z" id="Fill-118" fill="#DBD7D6" mask="url(#mask-6)"></path>
                        </g>
                        <path d="M519.579084,212.299181 L519.579084,216.360464 L549.277916,216.360464 C552.017245,216.360464 554.237555,214.138459 554.237555,211.397038 C554.237555,210.159189 553.781911,209.029597 553.032337,208.160259 C543.54685,211.313932 532.01588,212.299181 519.579084,212.299181" id="Fill-121" fill="#DBD7D6"></path>
                        <path d="M495.453865,176.412048 C493.260872,181.411559 485.684283,182.919505 478.53165,179.777861 C471.379018,176.636217 467.357984,170.035811 469.550977,165.035206 C471.74397,160.032414 479.32056,158.526656 486.473192,161.6683 C493.626917,164.809944 497.646858,171.410349 495.453865,176.412048" id="Fill-123" fill="#E6E6E6"></path>
                        <path d="M492.245124,170.618869 C491.109837,173.207199 486.777392,173.807534 482.568419,171.959508 C478.358352,170.110389 475.86706,166.512752 477.002346,163.923329 C478.137633,161.334999 482.471171,160.734664 486.680144,162.58269 C490.889118,164.431809 493.38041,168.029446 492.245124,170.618869" id="Fill-125" fill="#F1BF74"></path>
                        <path d="M540.509439,174.249639 C540.509439,174.249639 542.463137,173.602283 544.500971,173.596815 C546.538805,173.591348 545.7641,174.433348 548.089307,173.596815 C550.413421,172.761376 550.200349,170.642161 552.443606,172.198221 C554.686862,173.753187 555.440805,174.981195 557.027366,172.61594 C557.374835,172.099805 558.454395,171.865795 559.616999,172.505496 C560.779602,173.144104 559.693486,174.102015 561.640628,174.035311 C563.588862,173.967514 564.072916,172.377556 564.752558,173.399984 C565.430015,174.421319 569.01398,173.910652 569.01398,173.910652 L570.564482,176.42681 L540.896245,176.42681 L540.509439,174.249639 Z" id="Fill-127" fill="#8CC63F"></path>
                        <path d="M540.509439,174.249639 C540.509439,174.249639 542.983249,173.602283 544.809105,173.596815 C546.633867,173.591348 545.94002,174.433348 548.023746,173.596815 C550.107472,172.761376 550.898567,170.677153 551.09197,172.122769 C551.365138,174.157784 554.611467,174.981195 556.034127,172.61594 C556.344445,172.099805 557.312553,171.865795 558.35387,172.505496 C559.396279,173.144104 557.968156,174.582065 559.713154,174.514267 C561.460337,174.447563 564.737261,172.067 564.112252,173.085054 C562.619662,175.507171 566.775095,173.910652 566.775095,173.910652 L568.164974,176.42681 L540.896245,176.42681 L540.509439,174.249639 Z" id="Fill-129" fill="#68A73A"></path>
                        <polygon id="Fill-131" fill="#C6642F" points="513.536279 159.036886 516.441695 159.036886 516.441695 130.947984 513.536279 130.947984"></polygon>
                        <polygon id="Fill-133" fill="#C6642F" points="518.125503 159.036886 521.032011 159.036886 521.032011 130.947984 518.125503 130.947984"></polygon>
                        <polygon id="Fill-134" fill="#C6642F" points="523.470855 159.036886 526.377363 159.036886 526.377363 130.947984 523.470855 130.947984"></polygon>
                        <path d="M564.093677,111.056992 L511.420319,130.05448 L512.198302,131.620382 L567.263519,113.570963 C566.228758,112.706 565.173237,111.865093 564.093677,111.056992" id="Fill-135" fill="#FCBC80"></path>
                        <path d="M572.376242,118.265168 L512.352478,131.202443 L512.915204,132.856919 L575.247784,121.330267 C574.31792,120.282688 573.361832,119.259165 572.376242,118.265168" id="Fill-136" fill="#FCBC80"></path>
                        <polygon id="Fill-137" fill="#C6642F" points="512.352915 129.718118 513.536279 132.742757 516.441695 132.204751 514.826725 128.82691"></polygon>
                        <polygon id="Fill-138" fill="#C6642F" points="517.412862 130.112108 518.125284 131.89343 521.032885 131.356518 520.151098 129.521615"></polygon>
                        <polygon id="Fill-139" fill="#C6642F" points="522.668178 128.979126 523.433049 130.947438 526.3778 130.947438 526.3778 130.367879 525.574686 128.352547"></polygon>
                        <path d="M565.727331,269.187107 C564.824784,269.187107 564.092693,268.454458 564.092693,267.551221 L564.092693,253.348759 C564.092693,251.511668 563.588972,250.003723 562.637254,248.987855 C561.848345,248.148042 560.78736,247.684395 559.648796,247.684395 C557.486397,247.684395 555.160098,249.456969 555.160098,253.348759 L555.160098,267.551221 C555.160098,268.454458 554.428008,269.187107 553.52546,269.187107 C552.622913,269.187107 551.890823,268.454458 551.890823,267.551221 L551.890823,253.348759 C551.890823,247.482097 555.792755,244.413717 559.648796,244.413717 C563.480797,244.413717 567.361969,247.482097 567.361969,253.348759 L567.361969,267.551221 C567.361969,268.454458 566.629878,269.187107 565.727331,269.187107" id="Fill-140" fill="#2CABAE"></path>
                        <path d="M568.584997,274.257478 L570.277546,274.257478 L570.277546,267.841875 L548.975901,267.841875 L548.975901,274.257478 L550.667358,274.257478 L543.870936,330.114883 L547.486589,330.114883 C551.729435,330.114883 557.194981,327.982545 559.626177,325.2958 C562.040983,328.006603 567.522919,330.114883 571.765766,330.114883 L575.381418,330.114883 L568.584997,274.257478 Z" id="Fill-141" fill="#F2EED1"></path>
                        <path d="M570.277328,274.257478 L570.277328,267.841875 L559.625959,267.841875 L559.625959,325.2958 C562.040764,328.006603 567.522701,330.114883 571.765547,330.114883 L575.3812,330.114883 L568.584778,274.257478 L570.277328,274.257478 Z" id="Fill-142" fill="#C6C29B"></path>
                        <path d="M507.949118,267.696439 C507.046571,267.696439 506.314481,266.96379 506.314481,266.060553 L506.314481,259.17693 C506.314481,255.617566 505.096151,252.64979 502.788427,250.595091 C500.725462,248.758 497.927129,247.744319 494.911353,247.744319 C489.406471,247.744319 483.480909,251.322273 483.480909,259.17693 L483.480909,266.060553 C483.480909,266.96379 482.749911,267.696439 481.847364,267.696439 C480.944817,267.696439 480.212726,266.96379 480.212726,266.060553 L480.212726,259.17693 C480.212726,249.524548 487.607932,244.473642 494.911353,244.473642 C498.730243,244.473642 502.29891,245.779288 504.962845,248.152197 C507.985176,250.845504 509.583756,254.656374 509.583756,259.17693 L509.583756,266.060553 C509.583756,266.96379 508.851666,267.696439 507.949118,267.696439" id="Fill-143" fill="#187E89"></path>
                    </g>
                    <polygon id="Fill-145" fill="url(#linearGradient-7)" points="479 333 530 333 530 270 479 270"></polygon>
                    <g id="Group-150" transform="translate(469.000000, 270.000000)">
                        <polygon id="Fill-147" fill="#BF423C" points="0.820363636 63.5986441 10.9276364 63.5986441 10.9276364 0.624813559 0.820363636 0.624813559"></polygon>
                        <path d="M0.829418182,12.9005559 C1.73923636,14.7619797 3.65923636,16.0452339 5.87923636,16.0452339 C8.10032727,16.0452339 10.0192364,14.7630644 10.9279636,12.9016407 L10.9279636,0.625572881 L0.820690909,0.625572881 L0.820690909,12.8734373 L0.829418182,12.9005559 Z" id="Fill-149" fill="#C6C29B"></path>
                    </g>
                    <g id="Group-153" transform="translate(479.000000, 268.000000)">
                        <mask id="mask-9" fill="white">
                            <use xlink:href="#path-8"></use>
                        </mask>
                        <g id="Clip-152"></g>
                        <path d="M0.0188085106,0.6528 L0.0188085106,13.4798667 L0.0199148936,13.4787333 C0.941531915,15.4224 2.88876596,16.7642667 5.14025532,16.7642667 L5.14025532,16.7642667 C7.39285106,16.7642667 9.34008511,15.4224 10.2617021,13.4787333 L10.2617021,13.4787333 C11.1833191,15.4224 13.1305532,16.7642667 15.3831489,16.7642667 L15.3831489,16.7642667 C17.6346383,16.7642667 19.5818723,15.4224 20.5034894,13.4787333 L20.5034894,13.4787333 C21.4262128,15.4224 23.3723404,16.7642667 25.6249362,16.7642667 L25.6249362,16.7642667 C27.8764255,16.7642667 29.8225532,15.4224 30.7452766,13.4787333 L30.7452766,13.4787333 C31.668,15.4224 33.6141277,16.7642667 35.865617,16.7642667 L35.865617,16.7642667 C38.1182128,16.7642667 40.0654468,15.4224 40.9870638,13.4787333 L40.9870638,13.4787333 C41.9086809,15.4224 43.8559149,16.7642667 46.1085106,16.7642667 L46.1085106,16.7642667 C48.36,16.7642667 50.3050213,15.4235333 51.2277447,13.481 L51.2277447,13.481 L51.2277447,0.6528 L0.0188085106,0.6528 Z" id="Fill-151" fill="url(#linearGradient-10)" mask="url(#mask-9)"></path>
                    </g>
                    <polygon id="Fill-154" fill="#F5C268" points="511 310 551 310 551 299 511 299"></polygon>
                    <polygon id="Fill-156" fill="url(#linearGradient-11)" points="513 333 548 333 548 310 513 310"></polygon>
                    <polygon id="Fill-158" fill="url(#linearGradient-12)" points="527 333 534 333 534 310 527 310"></polygon>
                    <polygon id="Fill-160" fill="#F2EED1" points="527 310 534 310 534 299 527 299"></polygon>
                    <g id="Group-164" transform="translate(530.000000, 291.000000)">
                        <mask id="mask-14" fill="white">
                            <use xlink:href="#path-13"></use>
                        </mask>
                        <g id="Clip-163"></g>
                        <path d="M5.4197,0.268888889 C3.9457,1 -0.3311,5.07888889 0.6171,7.02555556 L0.6171,7.02555556 C1.5653,8.97111111 7.3788,8.04555556 8.8506,7.31555556 L8.8506,7.31555556 C10.3246,6.58333333 10.4214,4.57777778 9.4743,2.63222222 L9.4743,2.63222222 C8.723,1.08888889 7.5394,0.0477777778 6.3459,0.0477777778 L6.3459,0.0477777778 C6.0357,0.0477777778 5.7244,0.118888889 5.4197,0.268888889" id="Fill-162" fill="url(#linearGradient-15)" mask="url(#mask-14)"></path>
                    </g>
                    <g id="Group-167" transform="translate(520.000000, 291.000000)">
                        <mask id="mask-17" fill="white">
                            <use xlink:href="#path-16"></use>
                        </mask>
                        <g id="Clip-166"></g>
                        <path d="M1.2298,2.63222222 C0.2827,4.57777778 0.3784,6.58333333 1.8524,7.31555556 L1.8524,7.31555556 C3.3253,8.04555556 9.1377,8.97111111 10.0859,7.02555556 L10.0859,7.02555556 C11.0341,5.07888889 6.7573,1 5.2844,0.268888889 L5.2844,0.268888889 C4.9797,0.118888889 4.6684,0.0477777778 4.3571,0.0477777778 L4.3571,0.0477777778 C3.1647,0.0477777778 1.9811,1.08888889 1.2298,2.63222222" id="Fill-165" fill="url(#linearGradient-18)" mask="url(#mask-17)"></path>
                    </g>
                    <g id="Group-176" transform="translate(332.000000, 48.000000)">
                        <path d="M183.983477,229.809757 C183.085021,229.809757 182.356249,229.075948 182.356249,228.171281 L182.356249,214.401948 C182.356249,210.836948 181.142354,207.864471 178.846179,205.806519 C176.792565,203.965424 174.006916,202.952329 171.004811,202.952329 C165.524881,202.952329 159.626179,206.534852 159.626179,214.401948 L159.626179,228.171281 C159.626179,229.075948 158.898495,229.809757 157.998951,229.809757 C157.100495,229.809757 156.372811,229.075948 156.372811,228.171281 L156.372811,214.401948 C156.372811,204.733186 163.733407,199.674281 171.004811,199.674281 C174.805302,199.674281 178.358881,200.98309 181.009653,203.359757 C184.019372,206.057329 185.609618,209.875329 185.609618,214.401948 L185.609618,228.171281 C185.609618,229.075948 184.881933,229.809757 183.983477,229.809757" id="Fill-168" fill="#2CABAE"></path>
                        <path d="M32.5589193,49.4816524 C23.7299018,49.4816524 16.5727088,42.2717 16.5727088,33.3816524 C16.5727088,24.4948905 23.7299018,17.289319 32.5589193,17.289319 C41.3933754,17.289319 48.5396912,24.4948905 48.5396912,33.3816524 C48.5396912,42.2717 41.3933754,49.4816524 32.5589193,49.4816524 M32.5589193,0.953842857 C14.7725333,0.953842857 0.351550877,15.4701286 0.351550877,33.3816524 C0.351550877,51.2986524 32.5589193,78.9446524 32.5589193,78.9446524 C32.5589193,78.9446524 64.7564982,51.2986524 64.7564982,33.3816524 C64.7564982,15.4701286 50.3453053,0.953842857 32.5589193,0.953842857" id="Fill-170" fill="#A00B0F"></path>
                        <path d="M32.5589193,49.4816524 C23.7299018,49.4816524 16.5727088,42.2717 16.5727088,33.3816524 C16.5727088,24.4948905 23.7299018,17.289319 32.5589193,17.289319 C41.3933754,17.289319 48.5396912,24.4948905 48.5396912,33.3816524 C48.5396912,42.2717 41.3933754,49.4816524 32.5589193,49.4816524" id="Fill-172" fill="#FFFFFF"></path>
                        <path d="M32.5589193,17.2897571 C41.3933754,17.2897571 48.5396912,24.4942333 48.5396912,33.3809952 C48.5396912,42.2721381 41.3933754,49.4820905 32.5589193,49.4820905" id="Fill-174" fill="#D1ECFB"></path>
                    </g>
                    <polygon id="Fill-177" fill="url(#linearGradient-19)" points="202 75 276 75 276 6 202 6"></polygon>
                    <g id="Group-183" transform="translate(206.000000, 56.000000)">
                        <polygon id="Fill-179" fill="#3E2F3C" points="0.371741935 19.182 66.7428065 19.182 66.7428065 0.498333333 0.371741935 0.498333333"></polygon>
                        <path d="M49.3335048,6.46354762 C54.248279,6.46354762 58.3979565,9.9475 59.5023758,14.597881 C56.5003435,16.1870714 54.3444565,19.2099286 53.9294887,22.754119 L44.7364403,22.754119 C44.3225532,19.2099286 42.1645048,16.1870714 39.1646339,14.597881 C40.2668919,9.9475 44.4187306,6.46354762 49.3335048,6.46354762" id="Fill-181" fill="#D89144"></path>
                        <path d="M19.3741306,6.46354762 C24.2889048,6.46354762 28.4396629,9.9475 29.5430016,14.597881 C26.5409694,16.1859762 24.3840016,19.2099286 23.9701145,22.754119 L14.7781468,22.754119 C14.363179,19.2099286 12.2062113,16.1870714 9.20525968,14.597881 C10.3085984,9.9475 14.4593565,6.46354762 19.3741306,6.46354762" id="Fill-182" fill="#D89144"></path>
                    </g>
                    <g id="Group-186" transform="translate(259.000000, 69.000000)">
                        <mask id="mask-21" fill="white">
                            <use xlink:href="#path-20"></use>
                        </mask>
                        <g id="Clip-185"></g>
                        <path d="M0.917809524,11.3268571 L0.917809524,15.9851429 L22.1106667,15.9851429 L22.1106667,11.3268571 C22.1106667,5.24571429 17.3430952,0.269714286 11.5153333,0.269714286 L11.5153333,0.269714286 C5.68647619,0.269714286 0.917809524,5.24457143 0.917809524,11.3268571" id="Fill-184" fill="url(#linearGradient-22)" mask="url(#mask-21)"></path>
                    </g>
                    <g id="Group-189" transform="translate(230.000000, 69.000000)">
                        <mask id="mask-24" fill="white">
                            <use xlink:href="#path-23"></use>
                        </mask>
                        <g id="Clip-188"></g>
                        <path d="M0.1197,11.3268571 L0.1197,15.9851429 L20.43825,15.9851429 L20.43825,11.3268571 C20.43825,5.24571429 15.8676,0.269714286 10.2795,0.269714286 L10.2795,0.269714286 C4.6914,0.269714286 0.1197,5.24457143 0.1197,11.3268571" id="Fill-187" fill="url(#linearGradient-25)" mask="url(#mask-24)"></path>
                    </g>
                    <g id="Group-192" transform="translate(199.000000, 69.000000)">
                        <mask id="mask-27" fill="white">
                            <use xlink:href="#path-26"></use>
                        </mask>
                        <g id="Clip-191"></g>
                        <path d="M0.4095,11.3268571 L0.4095,15.9851429 L20.73015,15.9851429 L20.73015,11.3268571 C20.73015,5.24457143 16.15845,0.269714286 10.5693,0.269714286 L10.5693,0.269714286 C4.98225,0.269714286 0.4095,5.24457143 0.4095,11.3268571" id="Fill-190" fill="url(#linearGradient-28)" mask="url(#mask-27)"></path>
                    </g>
                    <g id="Group-195" transform="translate(227.000000, 8.000000)">
                        <mask id="mask-30" fill="white">
                            <use xlink:href="#path-29"></use>
                        </mask>
                        <g id="Clip-194"></g>
                        <path d="M13.82976,5.28016667 C10.2893241,5.28016667 7.22361379,3.23916667 5.74212414,0.267583333 L5.74212414,0.267583333 C4.69534897,2.36491667 2.85700414,4.00183333 0.619630345,4.78075 L0.619630345,4.78075 C3.41824,9.12058333 8.28877241,11.99575 13.8308414,11.99575 L13.8308414,11.99575 C19.3707476,11.99575 24.24128,9.12058333 27.0420524,4.78075 L27.0420524,4.78075 C24.8025159,4.00183333 22.9652524,2.36491667 21.9184772,0.267583333 L21.9184772,0.267583333 C20.4369876,3.23916667 17.3701959,5.28016667 13.82976,5.28016667" id="Fill-193" fill="url(#linearGradient-31)" mask="url(#mask-30)"></path>
                    </g>
                    <g id="Group-198" transform="translate(254.000000, 8.000000)">
                        <mask id="mask-33" fill="white">
                            <use xlink:href="#path-32"></use>
                        </mask>
                        <g id="Clip-197"></g>
                        <path d="M19.0701538,5.31709091 C15.5443077,5.31709091 12.4901538,3.26181818 11.0158462,0.269454545 L11.0158462,0.269454545 C9.54046154,3.26181818 6.48630769,5.31709091 2.95938462,5.31709091 L2.95938462,5.31709091 C2.15492308,5.31709091 1.37307692,5.20909091 0.631076923,5.00727273 L0.631076923,5.00727273 C2.55769231,17.976 9.69015385,29.2156364 19.8024615,36.4778182 L19.8024615,36.4778182 C15.5809231,44.1174545 13.0523077,52.848 12.7367692,62.1490909 L12.7367692,62.1490909 C13.9623077,61.6330909 15.302,61.3483636 16.7073846,61.3483636 L16.7073846,61.3483636 C22.4376923,61.3483636 27.1255385,66.0981818 27.1255385,71.9029091 L27.1255385,71.9029091 L27.1255385,0.269454545 C25.6501538,3.26181818 22.5970769,5.31709091 19.0701538,5.31709091" id="Fill-196" fill="url(#linearGradient-34)" mask="url(#mask-33)"></path>
                    </g>
                    <g id="Group-201" transform="translate(199.000000, 8.000000)">
                        <mask id="mask-36" fill="white">
                            <use xlink:href="#path-35"></use>
                        </mask>
                        <g id="Clip-200"></g>
                        <path d="M8.51045517,5.31709091 C4.96893793,5.31709091 1.90322759,3.26181818 0.421737931,0.269454545 L0.421737931,0.269454545 L0.421737931,71.892 C0.429307586,66.0916364 5.13438897,61.3483636 10.8851641,61.3483636 L10.8851641,61.3483636 C12.2942014,61.3483636 13.6416,61.6330909 14.8711283,62.1490909 L14.8711283,62.1490909 C14.5532028,52.848 12.0162869,44.1174545 7.77836138,36.4778182 L7.77836138,36.4778182 C17.9314317,29.2156364 25.0923255,17.976 27.0269131,5.00727273 L27.0269131,5.00727273 C26.2807614,5.20909091 25.4967614,5.31709091 24.6868083,5.31709091 L24.6868083,5.31709091 C21.1463724,5.31709091 18.0806621,3.26181818 16.5991724,0.269454545 L16.5991724,0.269454545 C15.1166014,3.26181818 12.0519724,5.31709091 8.51045517,5.31709091" id="Fill-199" fill="url(#linearGradient-37)" mask="url(#mask-36)"></path>
                    </g>
                    <g id="Group-204" transform="translate(199.000000, 0.000000)">
                        <mask id="mask-39" fill="white">
                            <use xlink:href="#path-38"></use>
                        </mask>
                        <g id="Clip-203"></g>
                        <path d="M0.433565789,0.86125 L0.425921053,7.85091667 C1.92210526,10.8225 5.01822368,12.8635 8.59486842,12.8635 L8.59486842,12.8635 C12.1715132,12.8635 15.2665395,10.8225 16.7638158,7.85091667 L16.7638158,7.85091667 C18.26,10.8225 21.3561184,12.8635 24.9316711,12.8635 L24.9316711,12.8635 C28.5083158,12.8635 31.6044342,10.8225 33.1017105,7.85091667 L33.1017105,7.85091667 C34.5978947,10.8225 37.6940132,12.8635 41.2695658,12.8635 L41.2695658,12.8635 C44.8451184,12.8635 47.9423289,10.8225 49.4385132,7.85091667 L49.4385132,7.85091667 C50.9357895,10.8225 54.0308158,12.8635 57.6063684,12.8635 L57.6063684,12.8635 C61.1841053,12.8635 64.2780395,10.8225 65.7764079,7.85091667 L65.7764079,7.85091667 C67.2715,10.8225 70.3687105,12.8635 73.9442632,12.8635 L73.9442632,12.8635 C77.5209079,12.8635 80.6170263,10.8225 82.1132105,7.85091667 L82.1132105,7.85091667 L82.1143026,0.866666667 L0.433565789,0.86125 Z" id="Fill-202" fill="url(#linearGradient-40)" mask="url(#mask-39)"></path>
                    </g>
                    <g id="Group-211" transform="translate(60.000000, 0.000000)">
                        <mask id="mask-42" fill="white">
                            <use xlink:href="#path-41"></use>
                        </mask>
                        <g id="Clip-206"></g>
                        <polygon id="Fill-205" fill="#D89144" mask="url(#mask-42)" points="139.320857 5.35106809 220.3093 5.35106809 220.3093 0.869425532 139.320857 0.869425532"></polygon>
                        <path d="M213.571108,46.4084038 L221.112547,46.4084038 L221.112547,41.779123 L213.571108,41.779123 C212.293788,41.779123 211.257059,42.8158719 211.257059,44.0932166 L211.257059,44.0943102 C211.257059,45.3716549 212.293788,46.4084038 213.571108,46.4084038" id="Fill-207" fill="#E1DEB4" mask="url(#mask-42)"></path>
                        <path d="M146.854859,41.7786855 L139.313421,41.7786855 L139.313421,46.4079664 L146.854859,46.4079664 C148.133273,46.4079664 149.170002,45.3712174 149.170002,44.0938728 L149.170002,44.0927791 C149.170002,42.8154345 148.133273,41.7786855 146.854859,41.7786855" id="Fill-208" fill="#E1DEB4" mask="url(#mask-42)"></path>
                        <polygon id="Fill-209" fill="#C6C29B" mask="url(#mask-42)" points="0.847536946 256.493655 19.1521478 256.493655 19.1521478 250.939174 0.847536946 250.939174"></polygon>
                        <polygon id="Fill-210" fill="#C6C29B" mask="url(#mask-42)" points="19.1521478 256.493655 37.455665 256.493655 37.455665 250.939174 19.1521478 250.939174"></polygon>
                    </g>
                    <g id="Group-214" transform="translate(54.000000, 218.500000)">
                        <mask id="mask-44" fill="white">
                            <use xlink:href="#path-43"></use>
                        </mask>
                        <g id="Clip-213"></g>
                        <path d="M17.4989062,5.61576541 C16.2082812,2.36304812 13.0189062,0.0564180451 9.2815625,0.0564180451 L9.2815625,0.0564180451 C4.40125,0.0564180451 0.4440625,3.98072707 0.4440625,8.82182932 L0.4440625,8.82182932 C0.4440625,13.0249737 3.42890625,16.5337421 7.41015625,17.3854376 L7.41015625,17.3854376 L7.41015625,36.9039113 L27.8917187,36.9039113 L27.8917187,17.3073203 C31.7176562,16.3460436 34.5526562,12.9153925 34.5526562,8.82182932 L34.5526562,8.82182932 C34.5526562,3.98072707 30.5965625,0.0564180451 25.71625,0.0564180451 L25.71625,0.0564180451 C21.9789062,0.0564180451 18.790625,2.36304812 17.4989062,5.61576541" id="Fill-212" fill="url(#linearGradient-45)" mask="url(#mask-44)"></path>
                    </g>
                    <g id="Group-253" transform="translate(22.000000, 135.000000)">
                        <path d="M81.4764227,89.517113 C81.4764227,84.637887 77.5243887,80.682674 72.6490843,80.682674 C69.375572,80.682674 66.523814,82.4716506 64.9995985,85.1201234 C63.5092544,82.355739 60.5886609,80.4770948 57.2299236,80.4770948 L57.2299236,88.3897078 L57.228831,88.3897078 L57.228831,117.614762 L75.5172318,117.614762 L75.5172318,97.8649416 C78.9830465,96.671926 81.4764227,93.390313 81.4764227,89.517113" id="Fill-215" fill="#E1DEB4"></path>
                        <path d="M61.4473569,137.161519 C61.4473569,139.769532 59.3353078,141.882186 56.7293909,141.882186 C54.1234741,141.882186 52.0125176,139.769532 52.0125176,137.161519 C52.0125176,134.553506 54.1234741,132.439758 56.7293909,132.439758 C59.3353078,132.439758 61.4473569,134.553506 61.4473569,137.161519" id="Fill-217" fill="#8EADBE"></path>
                        <path d="M56.7285168,138.340428 C58.2407134,138.340428 59.7255943,138.454153 61.1798817,138.667387 C61.3404979,138.191711 61.4475754,137.690885 61.4475754,137.161628 C61.4475754,134.553615 59.3355263,132.439867 56.7296095,132.439867 C54.1236926,132.439867 52.0127361,134.553615 52.0127361,137.161628 C52.0127361,137.690885 52.118721,138.191711 52.2804299,138.667387 C53.7336246,138.454153 55.2174129,138.340428 56.7285168,138.340428" id="Fill-219" fill="#B1C3D0"></path>
                        <path d="M61.4473569,137.161519 C61.4473569,134.553506 59.3353078,132.439758 56.7293909,132.439758 L56.7293909,141.882186 C59.3353078,141.882186 61.4473569,139.769532 61.4473569,137.161519" id="Fill-221" fill="#8EADBE"></path>
                        <path d="M92.1123875,172.572321 L21.3472684,172.572321 C20.0448563,172.572321 18.9882854,173.629742 18.9882854,174.933202 C18.9882854,176.236661 20.0448563,177.292989 21.3472684,177.292989 L92.1123875,177.292989 C93.4147996,177.292989 94.4713705,176.236661 94.4713705,174.933202 C94.4713705,173.629742 93.4147996,172.572321 92.1123875,172.572321" id="Fill-223" fill="#34485C"></path>
                        <path d="M87.3946401,170.211222 C87.3946401,170.209035 87.3946401,170.205754 87.3946401,170.203567 C87.3891769,153.284835 73.6351807,139.521962 56.7289539,139.521962 C39.8194491,139.521962 26.0627214,153.289209 26.0627214,170.212315 C26.0627214,171.515775 26.0610824,172.572102 26.0654529,172.572102 L87.3946401,172.572102 C87.3990106,172.572102 87.3946401,170.537087 87.3946401,170.211222" id="Fill-225" fill="#B1C3D0"></path>
                        <path d="M56.7295002,139.521525 L56.7295002,172.572758 L87.3940938,172.572758 C87.3984643,172.572758 87.3940938,170.536649 87.3940938,170.210784 C87.3940938,170.208597 87.3940938,170.20641 87.3940938,170.204223 C87.3897233,153.285491 73.635727,139.522618 56.7295002,139.521525" id="Fill-227" fill="#8EADBE"></path>
                        <path d="M92.1123875,172.572321 L21.3472684,172.572321 C20.0448563,172.572321 18.9882854,173.629742 18.9882854,174.933202 L94.4713705,174.933202 C94.4713705,173.629742 93.4147996,172.572321 92.1123875,172.572321" id="Fill-229" fill="#576D7E"></path>
                        <path d="M16.9244212,114.585531 C15.8525535,114.585531 15.9530752,115.455962 15.9530752,116.528692 L15.9563531,131.800603 C15.9323153,132.754141 15.2658125,133.620198 14.3239675,133.766728 C13.1187992,133.954811 12.0764325,133.023144 12.0731546,131.853092 L11.1018087,116.527598 C11.1018087,115.455962 11.2034231,114.585531 10.1315554,114.585531 C9.05859509,114.585531 9.16020945,115.455962 9.16020945,116.528692 L8.18995614,131.84325 L8.18340038,131.903393 C8.0894344,132.841622 7.39889376,133.679248 6.46141928,133.77985 C5.29667826,133.905603 4.31003554,132.992525 4.30675766,131.853092 L4.30894291,116.527598 C4.30894291,115.455962 4.41055728,114.585531 3.3386896,114.585531 L3.33759698,114.585531 C2.2657293,114.585531 2.36734367,115.455962 2.36734367,116.528692 L0.423559168,131.84325 L0.423559168,131.847624 L0.423559168,131.857466 L0.423559168,132.819751 C0.423559168,135.946086 1.90734745,138.731248 4.20623592,140.509289 C6.10631531,141.978962 7.21861021,144.243614 7.21861021,146.646048 L6.2483569,173.851396 C6.2483569,175.430419 8.39974064,176.679203 9.97421701,176.76231 C11.6535856,176.84979 14.0147539,175.513525 14.0147539,173.851396 L13.0434079,146.647141 C13.0434079,144.244707 14.1567955,141.978962 16.0568749,140.509289 C18.356856,138.731248 19.8395516,135.946086 19.8395516,132.819751 L17.8946745,116.527598 C17.8946745,115.455962 17.9962888,114.585531 16.9244212,114.585531" id="Fill-231" fill="#B1C3D0"></path>
                        <path d="M113.036097,116.21409 C113.036097,115.315228 112.307314,114.585859 111.408082,114.585859 C108.885205,114.585859 106.390736,115.430046 104.533269,117.139196 C102.50863,119.003625 101.386501,121.565711 101.386501,124.299477 L101.386501,143.732181 C101.386501,145.878734 103.125964,147.619596 105.2697,147.619596 C106.34266,147.619596 107.211299,148.488934 107.211299,149.561664 L106.239953,173.687698 C106.239953,175.264534 108.392429,176.679531 109.965813,176.762638 C111.646274,176.850118 113.036097,175.513854 113.036097,173.851724 L113.036097,145.680809 L113.036097,145.675342 L113.036097,116.21409 Z" id="Fill-233" fill="#B1C3D0"></path>
                        <path d="M0.423449905,132.819533 C0.423449905,135.945868 1.90723819,138.731029 4.20612665,140.50907 C6.10620605,141.978743 7.21850095,144.243395 7.21850095,146.646922 L6.83826654,157.300956 L13.5677599,161.341463 L13.0432987,146.648016 C13.0432987,144.244489 14.1566862,141.978743 16.0567656,140.50907 C16.0622287,140.50579 16.0655066,140.501416 16.0698771,140.497042 L0.510860113,131.155216 L0.423449905,131.843031 L0.423449905,131.847405 L0.423449905,131.857247 L0.423449905,132.819533 Z" id="Fill-235" fill="#8EADBE"></path>
                        <polygon id="Fill-237" fill="#8EADBE" points="4.30686692 130.519342 4.30795955 126.63302 1.3130673 124.835295 0.855256333 128.446054"></polygon>
                        <path d="M19.3902631,135.691081 L15.3267811,133.250374 C15.0569021,133.516096 14.7170949,133.706366 14.323749,133.766509 C13.1185807,133.954592 12.076214,133.024018 12.0729361,131.852873 L12.0368794,131.274408 L8.36565066,129.069899 L8.19083025,131.843031 L8.18427448,131.903174 C8.15586616,132.186392 8.06736333,132.455395 7.94061853,132.702528 L17.864955,138.661044 C18.5358284,137.775304 19.0537338,136.774746 19.3902631,135.691081" id="Fill-239" fill="#8EADBE"></path>
                        <polygon id="Fill-241" fill="#8EADBE" points="113.036097 132.462831 101.386501 125.46767 101.386501 129.352898 113.036097 136.349153"></polygon>
                        <path d="M6.24781059,173.851614 C6.24781059,175.429544 8.39919433,176.679422 9.97476333,176.762529 C11.6541319,176.850009 14.0142076,175.513744 14.0142076,173.851614 L13.6744004,164.319518 L6.73730775,160.154352 L6.24781059,173.851614 Z" id="Fill-243" fill="#8EADBE"></path>
                        <path d="M101.386938,132.268515 L101.386938,143.731743 C101.386938,145.878297 103.125309,147.619159 105.270137,147.619159 C106.342005,147.619159 107.211736,148.488497 107.211736,149.561226 L106.875207,157.910149 L113.036534,161.609481 L113.036534,145.681465 L113.036534,145.675998 L113.036534,139.262582 L101.386938,132.268515 Z" id="Fill-245" fill="#8EADBE"></path>
                        <path d="M106.760481,160.756327 L106.24039,173.687042 C106.24039,175.264971 108.391774,176.679969 109.96625,176.763075 C111.646712,176.850556 113.036534,175.513197 113.036534,173.852161 L113.036534,164.524551 L106.760481,160.756327 Z" id="Fill-247" fill="#8EADBE"></path>
                        <polygon id="Fill-249" fill="#175F6C" points="159.04293 139.916281 375.885803 139.916281 375.885803 0.987374026 159.04293 0.987374026"></polygon>
                        <polygon id="Fill-251" fill="#1C7685" points="149.891081 157.978821 385.037652 157.978821 385.037652 17.2565636 149.891081 17.2565636"></polygon>
                        <polygon id="Fill-252" fill="#F8E482" points="140.434389 174.252384 394.494344 174.252384 394.494344 33.5323143 140.434389 33.5323143"></polygon>
                    </g>
                    <g id="Group-256" transform="translate(226.000000, 175.000000)">
                        <mask id="mask-47" fill="white">
                            <use xlink:href="#path-46"></use>
                        </mask>
                        <g id="Clip-255"></g>
                        <polygon id="Fill-254" fill="#FFFFFF" mask="url(#mask-47)" points="-0.418224138 128.538256 127.257284 128.538256 127.257284 -0.61374359 -0.418224138 -0.61374359"></polygon>
                    </g>
                    <g id="Group-259" transform="translate(372.000000, 228.000000)">
                        <mask id="mask-49" fill="white">
                            <use xlink:href="#path-48"></use>
                        </mask>
                        <g id="Clip-258"></g>
                        <polygon id="Fill-257" fill="#2EAAAD" mask="url(#mask-49)" points="-0.296727273 23.9462857 24.5683636 23.9462857 24.5683636 -1.02185714 -0.296727273 -1.02185714"></polygon>
                    </g>
                    <g id="Group-262" transform="translate(373.000000, 168.000000)">
                        <mask id="mask-51" fill="white">
                            <use xlink:href="#path-50"></use>
                        </mask>
                        <g id="Clip-261"></g>
                        <polygon id="Fill-260" fill="#1D899B" mask="url(#mask-51)" points="-0.501585366 44.8646 45.2557317 44.8646 45.2557317 -1.0164 -0.501585366 -1.0164"></polygon>
                    </g>
                    <g id="Group-265" transform="translate(373.000000, 266.000000)">
                        <mask id="mask-53" fill="white">
                            <use xlink:href="#path-52"></use>
                        </mask>
                        <g id="Clip-264"></g>
                        <polygon id="Fill-263" fill="#1D899B" mask="url(#mask-53)" points="-0.501585366 44.9394 45.2557317 44.9394 45.2557317 -0.9427 -0.501585366 -0.9427"></polygon>
                    </g>
                    <path d="M193.999471,228 C200.071137,228 205,232.930852 205,239.003174 C205,245.075495 200.071137,250 193.999471,250 C187.929922,250 183,245.075495 183,239.003174 C183,232.930852 187.929922,228 193.999471,228" id="Fill-266" fill="#2EAAAD"></path>
                    <g id="Group-270" transform="translate(162.000000, 266.000000)">
                        <mask id="mask-55" fill="white">
                            <use xlink:href="#path-54"></use>
                        </mask>
                        <g id="Clip-269"></g>
                        <polygon id="Fill-268" fill="#1D899B" mask="url(#mask-55)" points="-0.417073171 44.9394 45.3413415 44.9394 45.3413415 -0.9427 -0.417073171 -0.9427"></polygon>
                    </g>
                    <g id="Group-273" transform="translate(162.000000, 168.000000)">
                        <mask id="mask-57" fill="white">
                            <use xlink:href="#path-56"></use>
                        </mask>
                        <g id="Clip-272"></g>
                        <polygon id="Fill-271" fill="#1D899B" mask="url(#mask-57)" points="0.739646341 -0.29744 46.7702561 -0.34034 46.7702561 45.54176 0.68147561 45.93446"></polygon>
                    </g>
                    <g id="Group-288" transform="translate(140.000000, 218.000000)">
                        <path d="M110.058504,29.9838043 C110.050839,28.7598913 109.610693,27.7294565 108.735876,26.8881522 C107.862153,26.0511957 106.395,25.2892391 104.323467,24.618587 C101.450474,23.7642391 99.3460949,22.641413 98.0234672,21.2555435 C96.7041241,19.8555435 96.0406204,18.0892391 96.0296715,15.9392391 C96.0209124,13.7479348 96.6570438,11.9522826 97.9435401,10.5403261 C99.224562,9.13163043 100.987336,8.29358696 103.243905,8.01967391 L103.227482,3.63054348 L106.24281,3.61967391 L106.262518,8.02402174 C108.528942,8.32402174 110.298285,9.2501087 111.566168,10.8240217 C112.835146,12.3979348 113.472372,14.5544565 113.485511,17.2925 L109.761788,17.3088043 C109.754124,15.416413 109.293175,13.9153261 108.387701,12.8088043 C107.475657,11.7044565 106.258139,11.1468478 104.720912,11.1511957 C103.110328,11.1588043 101.886241,11.5761957 101.037701,12.4044565 C100.189161,13.2327174 99.7676277,14.3816304 99.775292,15.8544565 C99.7807664,17.2207609 100.231861,18.2990217 101.135146,19.1142391 C102.034051,19.9131522 103.517628,20.6479348 105.577117,21.293587 C107.636606,21.9555435 109.24938,22.6740217 110.404489,23.4675 C111.560693,24.2566304 112.411423,25.1783696 112.969818,26.2294565 C113.512883,27.2827174 113.79427,28.5175 113.803135,29.9338043 C113.812883,32.1892391 113.135146,34.0120652 111.769818,35.3903261 C110.404489,36.7696739 108.49062,37.5946739 106.020547,37.8620652 L106.039161,41.6838043 L103.042445,41.6946739 L103.023832,37.8740217 C100.515438,37.6501087 98.5435401,36.7740217 97.1136131,35.2381522 C95.6836861,33.6979348 94.9632482,31.6098913 94.9544891,28.9707609 L98.6990146,28.9566304 C98.7033942,30.8131522 99.2026642,32.2348913 100.19135,33.2392391 C101.180036,34.2392391 102.579307,34.7305435 104.386971,34.7229348 C106.155219,34.716413 107.54792,34.2838043 108.554124,33.4392391 C109.560328,32.5946739 110.066168,31.4425 110.058504,29.9838043" id="Fill-274" fill="#AD4A90"></path>
                        <path d="M140.890182,29.9031522 C140.885803,27.7161957 140.173029,25.9368478 138.759526,24.5661957 C137.353686,23.1879348 135.513175,22.506413 133.246752,22.5183696 C130.989088,22.5270652 129.174854,23.2107609 127.81062,24.583587 C126.449672,25.9444565 125.776314,27.7411957 125.781755,29.9651087 C125.794927,32.181413 126.465,33.9379348 127.804051,35.2020652 C129.134343,36.4629348 130.987993,37.0998913 133.366095,37.0879348 C135.720109,37.081413 137.565,36.4325 138.900766,35.1477174 C140.232153,33.8531522 140.902226,32.0998913 140.890182,29.9031522 M133.234708,5.00416918 C131.261715,5.0151087 129.66208,5.61945652 128.442372,6.83684783 C127.227044,8.05641304 126.620474,9.69880435 126.628067,11.7803261 C126.635803,13.7672826 127.245657,15.3792391 128.459891,16.5966304 C129.663175,17.8227174 131.278139,18.4270652 133.289453,18.4205957 C135.300766,18.4129348 136.906971,17.7944565 138.102591,16.5575 C139.300401,15.3303261 139.897117,13.7129348 139.888453,11.7270652 C139.881788,9.73141304 139.250036,8.11076087 137.993102,6.8651087 C136.739453,5.60967391 135.155146,4.99663043 133.234708,5.00416918 M144.916095,11.631413 C144.923759,13.5792391 144.41135,15.3183696 143.375584,16.8520652 C142.346387,18.3727174 140.940547,19.5803261 139.16573,20.4390217 C141.235073,21.3118478 142.871934,22.581413 144.091642,24.2672826 C145.299307,25.9422826 145.906971,27.858587 145.918094,29.9879348 C145.934343,33.3792391 144.786898,36.0857609 142.486533,38.0988043 C140.188358,40.1161957 137.152226,41.1303261 133.384708,41.147915 C129.577774,41.1640217 126.527409,40.1716304 124.225949,38.158587 C121.922299,36.1531522 120.768285,33.4640217 120.751764,30.0933696 C120.743102,27.9738043 121.326679,26.058587 122.486168,24.3553261 C123.647847,22.6422826 125.26062,21.3444565 127.322299,20.4694565 C125.558431,19.6183696 124.169015,18.4303261 123.150766,16.9053261 C122.127044,15.3792391 121.610255,13.6531522 121.603686,11.7238043 C121.588358,8.41945652 122.649307,5.79880435 124.776679,3.85532609 C126.909526,1.9075 129.720109,0.9325 133.218285,0.91707721 C136.692372,0.900978261 139.513905,1.85532609 141.665365,3.78576087 C143.81573,5.7151087 144.900766,8.32706522 144.916095,11.631413" id="Fill-276" fill="#AD4A90"></path>
                        <path d="M170.498759,16.9318478 C170.481241,12.7111957 169.871387,9.63945652 168.667007,7.72206522 C167.464818,5.80141304 165.567372,4.8448913 162.976861,4.85566927 C160.400584,4.86336957 158.530511,5.83619565 157.364453,7.7525 C156.196204,9.6775 155.597299,12.6296739 155.584161,16.6090217 L155.615912,24.5633696 C155.634526,28.803587 156.262993,31.926413 157.515547,33.9351087 C158.762628,35.9427174 160.64365,36.9470652 163.161898,36.9362829 C165.646204,36.9275 167.484526,35.9731522 168.679051,34.0622826 C169.881241,32.1633696 170.498759,29.1633696 170.533796,25.0775 L170.498759,16.9318478 Z M175.553869,23.7111957 C175.575766,29.5361957 174.588175,33.8753261 172.59438,36.7101087 C170.59292,39.553587 167.453869,40.9796739 163.179416,40.996208 C158.958613,41.0166304 155.826131,39.6448913 153.79073,36.8807609 C151.749854,34.1198913 150.679051,29.978587 150.585985,24.4916304 L150.557518,17.8459783 C150.53781,12.0883696 151.522117,7.80141304 153.518102,5.00358696 C155.522847,2.18945652 158.667372,0.784021739 162.959343,0.768615115 C167.219562,0.750326087 170.355328,2.0851087 172.376496,4.77967391 C174.395474,7.46336957 175.448759,11.6198913 175.524307,17.2557609 L175.553869,23.7111957 Z" id="Fill-278" fill="#AD4A90"></path>
                        <path d="M199.828796,16.7832609 C199.811277,12.5626087 199.202518,9.49195652 197.997044,7.57347826 C196.790474,5.65173913 194.893029,4.69521739 192.306898,4.7070632 C189.731715,4.71478261 187.860547,5.6876087 186.694489,7.60391304 C185.521861,9.52347826 184.922956,12.48 184.909818,16.4604348 L184.947044,24.4147826 C184.964562,28.655 185.593029,31.7778261 186.845584,33.7865217 C188.092664,35.7941304 189.973686,36.7995652 192.493029,36.7877141 C194.976241,36.778913 196.814562,35.8245652 198.009088,33.9136957 C199.205803,32.0180435 199.824416,29.0136957 199.859453,24.9278261 L199.828796,16.7832609 Z M204.885,23.5626087 C204.911277,29.3886957 203.924781,33.7234783 201.920036,36.5604348 C199.922956,39.405 196.783905,40.831087 192.510547,40.8475165 C188.289745,40.8626087 185.157263,39.4908696 183.116387,36.731087 C181.079891,33.9713043 180.009088,29.83 179.917117,24.3386957 L179.894124,17.6930435 C179.868942,11.9354348 180.852153,7.65282609 182.848139,4.855 C184.852883,2.04086957 187.991934,0.635434783 192.290474,0.620004901 C196.545219,0.600652174 199.68646,1.93217391 201.708723,4.62565217 C203.726606,7.31043478 204.778796,11.4713043 204.858723,17.1082609 L204.885,23.5626087 Z" id="Fill-280" fill="#AD4A90"></path>
                        <path d="M287.446752,149.360109 L12.3927372,149.360109 C5.72923358,149.360109 0.328138686,143.997065 0.328138686,137.382935 L0.328138686,113.773152 C0.328138686,107.159022 5.72923358,101.795978 12.3927372,101.795978 L287.446752,101.795978 C294.109161,101.795978 299.51135,107.159022 299.51135,113.773152 L299.51135,137.382935 C299.51135,143.997065 294.109161,149.360109 287.446752,149.360109" id="Fill-282" fill="#D0D2D3"></path>
                        <path d="M287.446752,145.434674 L12.3927372,145.434674 C5.72923358,145.434674 0.328138686,140.07163 0.328138686,133.4575 L0.328138686,109.847717 C0.328138686,103.233587 5.72923358,97.8705435 12.3927372,97.8705435 L287.446752,97.8705435 C294.109161,97.8705435 299.51135,103.233587 299.51135,109.847717 L299.51135,133.4575 C299.51135,140.07163 294.109161,145.434674 287.446752,145.434674" id="Fill-284" fill="#FFFFFF"></path>
                        <polygon id="Fill-286" fill="#FFFFFF" points="161.212555 97.8708696 149.662555 109.338261 138.11146 97.8708696 149.662555 86.4034783"></polygon>
                    </g>
                </g>
                <path d="M167.806,334.968 L167.806,334.272 L170.398,334.272 L170.398,332.352 L167.806,332.352 L167.806,331.296 L165.478,331.296 L165.478,332.352 L160.558,332.352 L160.558,334.272 L165.478,334.272 L165.478,334.968 L167.806,334.968 Z M176.446,334.968 L176.446,334.272 L181.318,334.272 L181.318,332.352 L176.446,332.352 L176.446,331.296 L174.118,331.296 L174.118,332.352 L171.502,332.352 L171.502,334.272 L174.118,334.272 L174.118,334.968 L176.446,334.968 Z M160.918,345.504 C164.518,345.408 167.71,345.264 170.518,345.12 L170.518,343.704 C169.414,343.752 168.238,343.776 166.99,343.824 L166.99,343.128 L169.678,343.128 L169.678,341.832 L166.99,341.832 L166.99,340.656 L165.022,340.656 L165.022,341.832 L162.382,341.832 C163.582,341.208 164.446,340.464 164.95,339.552 L167.278,339.552 L167.278,340.56 C167.278,341.04 167.734,341.304 168.694,341.304 L171.07,341.304 L171.07,340.248 L169.27,340.248 C168.982,340.248 168.862,340.128 168.862,339.888 L168.862,339.552 L171.238,339.552 L171.238,338.136 L167.062,338.136 L167.062,337.464 L170.374,337.464 L170.374,335.928 L167.062,335.928 L167.062,335.232 L164.95,335.232 L164.95,335.928 L161.59,335.928 L161.59,337.464 L164.95,337.464 L164.95,338.136 L160.75,338.136 L160.75,339.552 L163.294,339.552 C162.766,340.104 161.854,340.56 160.534,340.944 L161.254,342.312 C161.614,342.168 161.95,342.024 162.286,341.88 L162.286,343.128 L165.022,343.128 L165.022,343.872 L160.726,343.968 L160.918,345.504 Z M179.998,345.768 C180.502,345.72 180.91,345.48 181.222,345.072 C181.606,344.544 181.918,343.536 182.158,342 L180.478,341.256 C180.43,341.952 180.358,342.48 180.262,342.816 C180.166,343.152 180.022,343.344 179.83,343.392 C179.734,343.368 179.638,343.152 179.566,342.744 C179.47,342.312 179.446,341.712 179.446,340.944 C179.446,339.552 179.542,338.064 179.758,336.48 L176.086,336.48 L176.086,335.304 L174.07,335.304 L174.07,336.48 L171.622,336.48 L171.622,338.352 L174.046,338.352 C173.998,339.12 173.878,339.816 173.686,340.488 C173.23,340.224 172.774,340.008 172.318,339.816 L171.214,341.064 C171.838,341.376 172.438,341.736 173.014,342.12 C172.534,342.984 171.838,343.728 170.926,344.328 L172.486,345.72 C173.35,345.096 174.094,344.304 174.67,343.344 C175.102,343.68 175.534,344.064 175.942,344.472 L177.358,343.056 C176.734,342.504 176.11,342 175.486,341.568 C175.798,340.608 175.99,339.552 176.062,338.352 L177.646,338.352 C177.55,339.36 177.526,340.224 177.526,340.944 C177.526,342.024 177.622,342.984 177.838,343.8 C178.054,344.472 178.342,344.976 178.702,345.264 C179.11,345.6 179.542,345.768 179.998,345.768 Z M179.398,347.664 L179.398,346.104 L162.502,346.104 L162.502,347.664 L179.398,347.664 Z M179.182,353.616 L180.622,352.152 C179.614,351.456 178.414,350.76 177.046,350.064 L181.63,350.064 L181.63,348.384 L160.222,348.384 L160.222,350.064 L165.598,350.064 C164.734,350.592 164.014,351 163.39,351.336 C163.15,351.456 162.814,351.528 162.406,351.576 L162.838,353.376 C168.886,353.088 173.782,352.776 177.574,352.416 C178.174,352.8 178.702,353.208 179.182,353.616 Z M165.814,351.6 C166.582,351.216 167.47,350.688 168.43,350.064 L174.718,350.064 L174.334,350.448 C174.694,350.64 175.054,350.832 175.414,351.048 C172.678,351.24 169.462,351.432 165.814,351.6 Z M204.818,353.664 L206.21,351.528 C202.562,350.184 199.49,348.552 197.018,346.584 C199.226,344.16 200.906,341.16 202.058,337.56 L205.682,337.56 L205.682,335.064 L196.61,335.064 C195.89,333.504 195.098,332.16 194.234,331.032 L191.714,331.944 C192.578,332.928 193.322,333.96 193.922,335.064 L184.418,335.064 L184.418,337.56 L188.066,337.56 C189.074,341.04 190.874,344.088 193.466,346.728 C190.97,348.84 187.802,350.376 183.986,351.36 L185.33,353.568 C189.242,352.464 192.554,350.712 195.242,348.336 C197.786,350.448 200.978,352.224 204.818,353.664 Z M195.242,345.024 C193.034,342.864 191.45,340.392 190.466,337.56 L199.466,337.56 C198.53,340.464 197.114,342.96 195.242,345.024 Z M220.758,345.6 L222.438,344.208 C221.766,343.272 221.022,342.408 220.254,341.616 C219.342,340.68 218.382,339.84 217.326,339.12 L215.862,340.464 C216.87,341.256 217.782,342.096 218.646,343.008 C219.414,343.824 220.11,344.688 220.758,345.6 Z M250.522,353.376 C252.178,353.376 253.018,352.512 253.018,350.784 L253.018,338.088 L247.93,338.088 C248.386,337.44 248.818,336.696 249.202,335.88 L247.594,335.328 L253.81,335.328 L253.81,332.976 L244.57,332.976 C244.354,332.256 244.138,331.608 243.922,331.032 L241.21,331.464 C241.45,331.944 241.666,332.448 241.882,332.976 L232.69,332.976 L232.69,335.328 L238.882,335.328 L237.346,335.904 C237.754,336.6 238.114,337.32 238.426,338.088 L233.434,338.088 L233.434,353.328 L235.858,353.328 L235.858,343.896 L236.89,345.696 C238.498,345.12 239.698,344.376 240.466,343.464 C241.09,342.672 241.498,341.616 241.714,340.296 L244.738,340.296 L244.738,342.504 C244.738,343.656 245.362,344.256 246.634,344.256 L249.946,344.256 L249.946,342.216 L247.666,342.216 C247.234,342.216 247.018,341.976 247.018,341.496 L247.018,340.296 L250.594,340.296 L250.594,350.232 C250.594,350.88 250.306,351.216 249.778,351.216 L248.002,351.144 L248.002,345.024 L238.474,345.024 L238.474,351.456 L247.594,351.456 L248.098,353.376 L250.522,353.376 Z M245.218,338.088 L240.922,338.088 C240.586,337.08 240.202,336.144 239.794,335.328 L246.706,335.328 C246.274,336.288 245.794,337.2 245.218,338.088 Z M235.858,343.704 L235.858,340.296 L239.362,340.296 C239.17,341.04 238.882,341.664 238.498,342.144 C237.922,342.792 237.058,343.32 235.858,343.704 Z M245.626,349.272 L240.85,349.272 L240.85,347.136 L245.626,347.136 L245.626,349.272 Z M259.55,353.568 L259.55,352.68 L275.15,352.68 L275.15,353.568 L277.502,353.568 L277.502,332.04 L257.198,332.04 L257.198,353.568 L259.55,353.568 Z M275.15,350.568 L259.55,350.568 L259.55,334.152 L275.15,334.152 L275.15,350.568 Z M270.35,349.848 C271.406,349.848 272.126,349.704 272.51,349.44 C272.87,349.152 273.158,348.288 273.35,346.848 L271.31,346.152 C271.214,346.872 271.07,347.352 270.926,347.592 C270.758,347.784 270.35,347.904 269.678,347.904 L266.078,347.904 C265.55,347.904 265.31,347.688 265.31,347.256 L265.31,344.256 L268.766,344.256 L268.766,344.88 C268.766,345.264 268.502,345.456 268.022,345.456 C267.59,345.456 267.038,345.408 266.414,345.336 L266.87,347.088 C267.518,347.136 268.19,347.16 268.91,347.16 C270.206,347.088 270.854,346.56 270.854,345.552 L270.854,343.44 C271.718,344.28 272.606,345.192 273.47,346.2 L274.886,344.616 C273.902,343.56 272.846,342.576 271.694,341.64 L274.214,341.64 L274.214,339.72 L267.134,339.72 C267.254,339.432 267.374,339.12 267.494,338.784 L273.566,338.784 L273.566,336.888 L271.694,336.888 C271.958,336.432 272.222,335.904 272.51,335.328 L270.59,334.584 C270.302,335.4 269.966,336.168 269.582,336.888 L268.07,336.888 C268.214,336.24 268.358,335.568 268.454,334.848 L266.27,334.632 C266.174,335.4 266.03,336.168 265.838,336.888 L264.71,336.888 C264.398,336.024 264.062,335.28 263.726,334.656 L261.83,335.376 C262.118,335.832 262.382,336.336 262.598,336.888 L261.086,336.888 L261.086,338.784 L265.238,338.784 L264.83,339.72 L264.83,339.72 L260.438,339.72 L260.438,341.64 L263.63,341.64 C262.622,342.936 261.374,343.944 259.838,344.712 L261.038,346.584 C261.806,346.152 262.526,345.648 263.198,345.096 L263.198,348 C263.198,349.224 263.846,349.848 265.142,349.848 L270.35,349.848 Z M269.942,342.576 L265.526,342.576 C265.742,342.264 265.958,341.952 266.15,341.64 L268.886,341.64 C269.222,341.928 269.558,342.24 269.942,342.576 Z M293.058,345.6 L294.738,344.208 C294.066,343.272 293.322,342.408 292.554,341.616 C291.642,340.68 290.682,339.84 289.626,339.12 L288.162,340.464 C289.17,341.256 290.082,342.096 290.946,343.008 C291.714,343.824 292.41,344.688 293.058,345.6 Z M326.206,335.976 L326.206,333.552 L317.038,333.552 C316.702,332.64 316.342,331.824 315.982,331.104 L313.198,331.536 C313.582,332.16 313.942,332.832 314.278,333.552 L304.942,333.552 L304.942,335.976 L326.206,335.976 Z M325.006,353.64 L326.59,351.312 C324.31,350.64 322.318,349.704 320.59,348.552 C322.75,346.296 324.19,343.512 324.934,340.2 L324.934,338.064 L317.806,338.064 C317.95,337.608 318.094,337.128 318.238,336.648 L315.718,336.216 C314.854,339.384 313.222,341.928 310.774,343.824 L312.43,345.864 C312.91,345.48 313.366,345.096 313.798,344.664 C314.59,346.056 315.55,347.328 316.654,348.48 C315.166,349.536 313.39,350.448 311.326,351.216 L312.622,353.64 C314.95,352.752 316.966,351.648 318.67,350.304 C320.446,351.696 322.558,352.824 325.006,353.64 Z M309.886,353.664 L309.886,341.472 C310.678,339.96 311.302,338.328 311.734,336.552 L309.142,336.24 C308.326,339.456 306.718,342.168 304.366,344.376 L306.046,346.56 C306.478,346.128 306.91,345.672 307.342,345.168 L307.342,353.664 L309.886,353.664 Z M318.55,346.944 C317.278,345.744 316.222,344.352 315.406,342.792 C315.934,342.072 316.414,341.28 316.846,340.416 L322.462,340.416 C322.15,341.52 321.718,342.552 321.19,343.56 C320.326,342.768 319.366,341.976 318.286,341.184 L316.678,342.744 C318.022,343.632 319.126,344.496 320.038,345.312 C319.606,345.864 319.102,346.416 318.55,346.944 Z M340.922,353.496 L340.922,340.968 L346.226,340.968 L346.226,346.992 C346.226,347.472 345.938,347.712 345.41,347.712 L343.13,347.592 L343.778,349.944 L346.226,349.944 C347.882,349.944 348.722,349.128 348.722,347.544 L348.722,338.592 L340.922,338.592 L340.922,336.192 L350.378,336.192 L350.378,333.768 L340.85,333.768 C340.538,332.76 340.202,331.872 339.866,331.08 L337.154,331.512 C337.562,332.208 337.922,332.952 338.258,333.768 L328.922,333.768 L328.922,336.192 L338.378,336.192 L338.378,338.592 L330.89,338.592 L330.89,350.112 L333.362,350.112 L333.362,340.968 L338.378,340.968 L338.378,353.496 L340.922,353.496 Z M365.358,345.6 L367.038,344.208 C366.366,343.272 365.622,342.408 364.854,341.616 C363.942,340.68 362.982,339.84 361.926,339.12 L360.462,340.464 C361.47,341.256 362.382,342.096 363.246,343.008 C364.014,343.824 364.71,344.688 365.358,345.6 Z M377.866,341.424 C382.114,340.464 385.258,338.664 387.322,336.024 L387.322,334.632 L384.274,334.632 L384.274,333.648 L387.346,333.648 L387.346,331.872 L384.274,331.872 L384.274,331.08 L382.114,331.08 L382.114,334.632 L381.178,334.632 C381.322,334.248 381.466,333.864 381.61,333.456 L379.378,333.168 C378.898,334.56 377.986,335.76 376.666,336.72 L378.034,338.52 C378.394,338.232 378.754,337.896 379.138,337.56 C379.642,337.896 380.122,338.256 380.554,338.592 C379.45,339.024 378.202,339.384 376.834,339.624 L377.866,341.424 Z M397.162,340.8 L398.482,338.736 C397.354,337.944 396.178,337.2 394.954,336.528 C396.01,335.616 396.826,334.56 397.354,333.36 L397.354,331.752 L388.498,331.752 L388.498,333.72 L394.642,333.72 C394.186,334.32 393.586,334.872 392.866,335.4 C391.786,334.872 390.682,334.368 389.53,333.912 L388.474,335.448 C389.242,335.784 390.01,336.144 390.778,336.576 C390.274,336.792 389.722,337.008 389.122,337.2 L390.466,339 C391.378,338.664 392.218,338.28 393.01,337.848 C394.402,338.712 395.77,339.696 397.162,340.8 Z M382.33,337.728 C381.73,337.248 381.034,336.768 380.218,336.288 L380.242,336.264 L384.466,336.264 C383.842,336.792 383.122,337.296 382.33,337.728 Z M396.778,353.712 L398.026,351.768 C397.162,351.456 396.274,351.168 395.362,350.904 C396.202,350.256 396.994,349.536 397.762,348.768 L395.746,347.736 C395.362,348.192 394.906,348.648 394.426,349.128 L394.426,343.56 C395.41,343.944 396.49,344.328 397.69,344.688 L399.01,342.672 C394.162,341.304 390.73,339.72 388.714,337.896 L386.89,337.896 C384.49,339.936 381.034,341.592 376.57,342.888 L377.89,344.88 C378.802,344.592 379.714,344.256 380.626,343.92 L380.626,350.568 C380.626,351.168 380.41,351.528 379.978,351.672 L380.626,353.568 C383.458,353.232 385.834,352.824 387.73,352.392 L387.346,350.568 C385.978,350.856 384.562,351.12 383.074,351.36 L383.074,349.416 L388.69,349.416 L387.778,350.808 C390.85,351.504 393.85,352.464 396.778,353.712 Z M389.698,341.16 L385.882,341.16 C386.554,340.704 387.178,340.224 387.802,339.72 C388.33,340.2 388.978,340.68 389.698,341.16 Z M393.682,343.248 L382.186,343.248 C383.242,342.768 384.226,342.216 385.162,341.64 L385.162,342.648 L390.346,342.648 L390.346,341.568 C391.306,342.144 392.41,342.72 393.682,343.248 Z M392.098,345.6 L383.074,345.6 L383.074,344.832 L392.098,344.832 L392.098,345.6 Z M392.098,347.784 L383.074,347.784 L383.074,346.968 L392.098,346.968 L392.098,347.784 Z M393.13,350.28 C391.978,349.968 390.802,349.68 389.578,349.416 L394.138,349.416 L393.13,350.28 Z M421.022,342.552 C421.55,340.512 421.982,338.472 422.318,336.432 L422.318,334.824 L415.214,334.824 C415.406,333.816 415.598,332.76 415.742,331.608 L413.414,331.224 C412.982,335.184 412.022,338.28 410.582,340.488 L412.478,341.856 C413.342,340.704 414.062,339.144 414.638,337.2 L419.75,337.2 C419.462,338.976 419.078,340.512 418.622,341.856 L421.022,342.552 Z M401.918,338.472 C402.758,337.752 403.55,337.032 404.294,336.288 L404.294,337.416 L408.974,337.416 L408.974,335.952 C409.31,336.288 409.694,336.696 410.126,337.152 L411.734,335.448 C410.318,334.056 408.806,332.688 407.222,331.392 L405.566,331.392 C404.054,333.408 402.398,335.136 400.574,336.6 L401.918,338.472 Z M408.518,335.496 L405.062,335.496 C405.59,334.92 406.07,334.344 406.55,333.744 C407.102,334.176 407.75,334.752 408.518,335.496 Z M421.43,353.544 L423.062,351.624 C420.278,349.368 418.358,346.32 417.302,342.48 C417.422,341.256 417.494,339.936 417.494,338.496 L415.262,338.496 C415.238,341.52 414.95,343.992 414.422,345.888 C413.846,347.808 412.694,349.512 410.942,350.952 C410.486,349.752 409.982,348.576 409.406,347.472 L407.438,348.12 C407.654,348.528 407.87,348.984 408.086,349.464 C407.054,349.824 405.902,350.184 404.63,350.52 L404.63,347.256 L410.462,347.256 L410.462,338.352 L402.35,338.352 L402.35,350.304 C402.35,350.688 402.086,350.976 401.606,351.144 L402.302,353.136 C404.75,352.608 406.934,352.008 408.854,351.336 C408.998,351.72 409.166,352.128 409.31,352.584 L410.414,352.08 L411.542,353.448 C414.206,351.624 415.886,349.296 416.606,346.512 C417.734,349.248 419.342,351.6 421.43,353.544 Z M408.23,341.784 L404.63,341.784 L404.63,340.416 L408.23,340.416 L408.23,341.784 Z M408.23,345.144 L404.63,345.144 L404.63,343.8 L408.23,343.8 L408.23,345.144 Z" id="藝文、商圈、夜市、餐飲" fill="#0E6DA0" fill-rule="nonzero"></path>
            </g>
        </g>
    </g>
</svg>