<svg xmlns="http://www.w3.org/2000/svg" xmlns:xlink="http://www.w3.org/1999/xlink" width="579" height="368" viewBox="0 0 579 368">
    <defs>
        <path id="prefix__a" d="M0.073 0.817L117.067 0.817 117.067 36.642 0.073 36.642z"/>
        <path id="prefix__c" d="M0.073 0.817L117.067 0.817 117.067 36.642 0.073 36.642z"/>
        <path id="prefix__e" d="M0.561 0.817L59.058 0.817 59.058 36.642 0.561 36.642z"/>
        <path id="prefix__g" d="M0 367.758L578.954 367.758 578.954 0.42 0 0.42z"/>
        <path id="prefix__j" d="M.019.18v12.387c.912 1.878 2.839 3.172 5.066 3.172 2.229 0 4.154-1.294 5.067-3.172.912 1.878 2.838 3.172 5.065 3.172 2.229 0 4.155-1.294 5.066-3.172.913 1.878 2.838 3.172 5.067 3.172 2.227 0 4.153-1.294 5.066-3.172.911 1.878 2.838 3.172 5.065 3.172 2.228 0 4.155-1.294 5.067-3.172.911 1.878 2.838 3.172 5.065 3.172 2.228 0 4.153-1.292 5.065-3.17V.181H.018z"/>
        <path id="prefix__o" d="M5.393.8C3.926 1.52-.33 5.538.615 7.455c.942 1.916 6.727 1.006 8.193.285 1.465-.72 1.563-2.695.618-4.612C8.678 1.608 7.501.581 6.314.581c-.31 0-.62.07-.921.22"/>
        <path id="prefix__r" d="M1.224 3.128C.28 5.045.377 7.02 1.844 7.74c1.465.72 7.25 1.632 8.192-.285C10.979 5.538 6.724 1.52 5.258.8 4.955.651 4.645.581 4.336.581c-1.187 0-2.365 1.027-3.112 2.547"/>
        <path id="prefix__v" d="M.917 11.494v4.459h21.18v-4.46c0-5.826-4.765-10.591-10.59-10.591C5.684.902.918 5.667.918 11.494"/>
        <path id="prefix__y" d="M.125 11.494v4.459h21.18v-4.46C21.305 5.668 16.54.903 10.716.903 4.89.902.125 5.667.125 11.494"/>
        <path id="prefix__B" d="M.427 11.494v4.459h21.181v-4.46c0-5.826-4.764-10.591-10.59-10.591C5.194.902.428 5.667.428 11.494"/>
        <path id="prefix__E" d="M13.998 5.98C10.414 5.98 7.31 3.915 5.81.913 4.752 3.035 2.89 4.687.627 5.474 3.461 9.862 8.39 12.765 14 12.765c5.607 0 10.536-2.903 13.37-7.29-2.266-.787-4.126-2.439-5.185-4.56-1.5 3.002-4.603 5.065-8.187 5.065"/>
        <path id="prefix__H" d="M19.382 5.98c-3.585 0-6.687-2.064-8.186-5.066-1.5 3.002-4.604 5.065-8.187 5.065-.82 0-1.613-.108-2.368-.31C2.6 18.68 9.848 29.957 20.126 37.242 15.834 44.908 13.266 53.67 12.945 63c1.247-.516 2.607-.804 4.035-.804 5.824 0 10.589 4.765 10.589 10.592V.914c-1.5 3.002-4.603 5.065-8.187 5.065"/>
        <path id="prefix__K" d="M8.614 5.98C5.029 5.98 1.926 3.915.427.913v71.86c.008-5.82 4.77-10.58 10.592-10.58 1.425 0 2.787.289 4.032.805-.321-9.33-2.888-18.09-7.178-25.757C18.149 29.957 25.397 18.68 27.355 5.67c-.755.202-1.547.31-2.368.31-3.584 0-6.687-2.063-8.186-5.065-1.5 3.002-4.603 5.065-8.187 5.065"/>
        <path id="prefix__N" d="M.435.421l-.008 7.06c1.5 3.002 4.602 5.065 8.187 5.065 3.585 0 6.686-2.063 8.187-5.065 1.5 3.002 4.602 5.065 8.186 5.065 3.585 0 6.686-2.063 8.187-5.065 1.5 3.002 4.603 5.065 8.187 5.065 3.584 0 6.687-2.063 8.187-5.065 1.5 3.002 4.602 5.065 8.187 5.065 3.584 0 6.686-2.063 8.187-5.065 1.5 3.002 4.601 5.065 8.186 5.065 3.584 0 6.687-2.063 8.187-5.065V.425L.436.42z"/>
        <path id="prefix__Q" d="M17.512 6.31C16.22 3.027 13.03.702 9.288.702 4.403.702.444 4.66.444 9.544c0 4.24 2.987 7.78 6.971 8.64v19.689h20.496V18.106c3.829-.972 6.666-4.432 6.666-8.562 0-4.884-3.959-8.842-8.843-8.842-3.74 0-6.931 2.325-8.222 5.608"/>
        <path id="prefix__T" d="M0 367.758L578.954 367.758 578.954 0.42 0 0.42z"/>
        <path id="prefix__V" d="M.676 63.542c0 35.073 28.087 63.509 62.723 63.509 34.646 0 62.728-28.436 62.728-63.509C126.127 28.462 98.045.03 63.399.03 28.759.03.676 28.463.676 63.542z"/>
        <path id="prefix__X" d="M.593.728c0 24.005 19.449 43.462 43.442 43.462V.728H.593z"/>
        <path id="prefix__Z" d="M.593 44.264h43.442V.802C20.042.802.593 20.261.593 44.264z"/>
        <path id="prefix__ab" d="M.68 44.264h43.44C44.12 20.261 24.672.802.68.802v43.462z"/>
        <path id="prefix__ad" d="M.68.736v43.462c23.992 0 43.44-19.46 43.44-43.462H.68z"/>
        <linearGradient id="prefix__i" x1="50.001%" x2="50.001%" y1="28.734%" y2="95.724%">
            <stop offset="0%" stop-color="#CC6757"/>
            <stop offset="100%" stop-color="#CC6757"/>
        </linearGradient>
        <linearGradient id="prefix__k" x1="76.996%" x2="-28.182%" y1="46.311%" y2="58.849%">
            <stop offset="0%" stop-color="#F2EDD1"/>
            <stop offset="100%" stop-color="#C6C19A"/>
        </linearGradient>
        <linearGradient id="prefix__m" x1="50.001%" x2="50.001%" y1="87.642%" y2="14.422%">
            <stop offset="0%" stop-color="#D89044"/>
            <stop offset="100%" stop-color="#D89044"/>
        </linearGradient>
        <linearGradient id="prefix__n" x1="50%" x2="50%" y1="85.289%" y2="41.403%">
            <stop offset="0%" stop-color="#F2EDD1"/>
            <stop offset="100%" stop-color="#E2DDC1"/>
        </linearGradient>
        <linearGradient id="prefix__p" x1="50%" x2="50%" y1="-2.877%" y2="131.861%">
            <stop offset="0%" stop-color="#F2EDD1"/>
            <stop offset="100%" stop-color="#C6C19A"/>
        </linearGradient>
        <linearGradient id="prefix__s" x1="49.999%" x2="49.999%" y1="-2.876%" y2="131.854%">
            <stop offset="0%" stop-color="#F2EDD1"/>
            <stop offset="100%" stop-color="#C6C19A"/>
        </linearGradient>
        <linearGradient id="prefix__u" x1="49.999%" x2="49.999%" y1="77.214%" y2="30.945%">
            <stop offset="0%" stop-color="#5B4459"/>
            <stop offset="100%" stop-color="#3D2F3B"/>
        </linearGradient>
        <linearGradient id="prefix__w" x1="50%" x2="50%" y1="33.508%" y2="108.673%">
            <stop offset="0%" stop-color="#F4C167"/>
            <stop offset="100%" stop-color="#D89044"/>
        </linearGradient>
        <linearGradient id="prefix__z" x1="50%" x2="50%" y1="33.508%" y2="108.673%">
            <stop offset="0%" stop-color="#F4C167"/>
            <stop offset="100%" stop-color="#D89044"/>
        </linearGradient>
        <linearGradient id="prefix__C" x1="50.003%" x2="50.003%" y1="33.508%" y2="108.673%">
            <stop offset="0%" stop-color="#F4C167"/>
            <stop offset="100%" stop-color="#D89044"/>
        </linearGradient>
        <linearGradient id="prefix__F" x1="49.999%" x2="49.999%" y1="-77.1%" y2="241.424%">
            <stop offset="0%" stop-color="#BF423B"/>
            <stop offset="100%" stop-color="#BF423B"/>
        </linearGradient>
        <linearGradient id="prefix__I" x1="50.002%" x2="50.002%" y1="-1.314%" y2="83.914%">
            <stop offset="0%" stop-color="#BF423B"/>
            <stop offset="100%" stop-color="#BF423B"/>
        </linearGradient>
        <linearGradient id="prefix__L" x1="50.001%" x2="50.001%" y1="-1.314%" y2="83.915%">
            <stop offset="0%" stop-color="#BF423B"/>
            <stop offset="100%" stop-color="#BF423B"/>
        </linearGradient>
        <linearGradient id="prefix__O" x1=".001%" x2="100.001%" y1="49.995%" y2="49.995%">
            <stop offset="0%" stop-color="#F4C167"/>
            <stop offset="100%" stop-color="#D89044"/>
        </linearGradient>
        <linearGradient id="prefix__R" x1="37.393%" x2="88.527%" y1="12.205%" y2="125.263%">
            <stop offset="0%" stop-color="#F2EDD1"/>
            <stop offset="100%" stop-color="#C6C19A"/>
        </linearGradient>
    </defs>
    <g fill="none" fill-rule="evenodd">
        <path stroke="#0E6DA0" stroke-width="1.798" d="M241.933 90.49L241.933 162.834" transform="translate(0 -1)"/>
        <g transform="translate(0 -1) translate(0 .674)">
            <path fill="#AFD7A6" d="M70.693 162.854c1.268-3.477 5.116-5.29 8.596-4.028 3.489 1.252 5.292 5.102 4.034 8.583-1.25 3.494-5.098 5.29-8.574 4.04-3.492-1.256-5.307-5.101-4.056-8.595zm1.903 31.02l25.179-21.268-5.828-32.43-72.607-26.15L0 167.745l72.596 26.129z"/>
            <path fill="#FFF" d="M51.926 139.383L56.108 140.89 30.368 163.621 26.203 162.124zM31.564 141.34c.6-1.647 1.31-3.626 3.008-3.708.3-.015.605.033.915.146 2.327.823 1.361 3.542.781 5.166-.604 1.692-1.327 3.675-3.025 3.756-.3.013-.615-.035-.925-.152-.593-.214-1.015-.58-1.267-1.105-.55-1.172.015-2.733.513-4.103m-1.049 7.363c4.623 1.667 7.745-.595 9.257-4.8 1.521-4.198.547-7.932-4.068-9.591-4.632-1.68-7.745.588-9.262 4.789-1.515 4.211-.552 7.93 4.073 9.602M46.43 160.118c.58-1.604 1.291-3.616 3.004-3.692.297-.017.61.034.91.145.612.224 1.6.83 1.507 2.49-.055.891-.408 1.87-.73 2.73-.591 1.643-1.32 3.625-3.021 3.713-.296.007-.591-.037-.902-.15-.595-.21-1.029-.589-1.276-1.119-.563-1.192.028-2.813.509-4.117m-.215 8.443c4.617 1.656 7.75-.592 9.252-4.792 1.52-4.208.552-7.939-4.078-9.604-4.61-1.657-7.734.597-9.255 4.796-1.518 4.204-.539 7.937 4.081 9.6"/>
            <path stroke="#747374" stroke-linecap="round" stroke-linejoin="round" stroke-width="2.936" d="M78.657 166.366s46.58 20.578 58.07-1.146c11.492-21.723-6.724-32.425-14.62-20.212-7.889 12.222 21.494 44.068 47.082 36.31 30.278-9.166 60.098-91.367 16.954-87.735-37.043 3.12-30.837 97.148 59.12 83.429M80.88 162.526s12.412 5.972 18.44 5.354"/>
            <path stroke="#0E6DA0" stroke-width="1.798" d="M401.593 234.73L512.445 305.414"/>
            <path fill="#596273" d="M436.496 121.698c-2.528 1.417-5.714.52-7.124-1.998-1.422-2.523-.524-5.713 1.995-7.128 2.516-1.417 5.71-.52 7.128 2.003 1.414 2.514.518 5.708-1.999 7.123m79.524-25.13l-21.809-38.822c-.848-1.513-2.755-2.05-4.269-1.2l-72.25 40.576c-.974.547-1.584 1.578-1.604 2.698l-.303 25.708c-.011 1.12.566 2.166 1.53 2.737l22.12 13.118c.963.57 2.17.585 3.138.04l72.25-40.582c1.508-.848 2.05-2.763 1.197-4.273"/>
            <path fill="#FFF" d="M453.761 119.475c-1.473.832-3.117 1.25-3.942 1.245l-1.226-3.386c.98 0 2.433-.425 3.445-.995 1.669-.935 2.027-2.292 1.35-3.497-.756-1.343-1.947-1.536-4.074-1.673-3.385-.117-5.435-1.524-6.38-3.198-1.651-2.952-1.062-6.527 2.768-8.679 1.24-.695 2.573-1.011 3.27-.974l1.17 3.42c-.704-.039-1.668.108-2.684.674-1.537.86-1.751 2.208-1.198 3.193.617 1.098 1.486 1.366 4.138 1.462 3.293.096 5.211 1.465 6.31 3.41 1.892 3.367.641 6.984-2.947 8.998M482.691 103.016L474.393 107.674 464.031 89.214 467.615 87.201 476.276 102.617 480.986 99.975zM493.128 97.154L484.798 101.829 474.437 83.37 482.456 78.865 484.212 81.986 479.777 84.477 482.158 88.72 486.35 86.368 488.027 89.356 483.843 91.706 486.633 96.692 491.369 94.03zM461.204 105.859l-1.484-4.244c-.403-1.18-1.191-3.22-1.693-4.56l.084-.05c.844 1.112 2.134 2.838 2.954 3.853l2.771 3.524-2.632 1.477zm-2.78-13.493l-4.304 2.414 6.371 20.7 3.472-1.95-1.544-4.68 3.317-1.863 3.161 3.775 3.472-1.953-13.944-16.443z"/>
            <path stroke="#747374" stroke-linecap="round" stroke-linejoin="round" stroke-width="2.279" d="M430.91 117.438s-11.649-1.247-15.124 8.09c-3.262 8.736 1.744 32.82-20.384 43.572"/>
            <path fill="#C6642F" d="M175.09 89.926c2.024-1.79 4.553-4.017 4.553-7.26 0-3.244-2.53-5.471-4.554-7.258-.742-.652-1.982-1.748-2.156-2.12-.047-.537.626-2.133 1.025-3.085 1.03-2.453 2.312-5.503.936-8.35-1.397-2.888-4.604-3.787-7.183-4.514-.976-.272-2.6-.726-2.931-1.004-.268-.462-.342-2.163-.396-3.183-.132-2.668-.308-5.988-2.798-7.978-1.166-.933-2.677-1.403-4.488-1.403-1.31 0-2.619.227-3.886.448-.992.171-2.013.354-2.74.354-.253 0-.385-.036-.404-.017-.44-.337-1.212-1.77-1.679-2.629-1.293-2.37-2.895-5.31-6.034-6.025-.428-.094-.863-.146-1.31-.146-2.522 0-4.667 1.547-6.57 2.91-.853.61-2.278 1.633-2.76 1.702-.548-.07-1.97-1.093-2.821-1.701-1.904-1.364-4.053-2.91-6.575-2.91-.443 0-.885.05-1.31.145-3.14.715-4.745 3.656-6.026 6.025-.482.876-1.279 2.345-1.614 2.6 0 0-.136.041-.486.041-.722 0-1.744-.18-2.727-.354-1.271-.218-2.581-.447-3.89-.447-1.814 0-3.33.472-4.488 1.402-2.495 1.987-2.658 5.313-2.794 7.983-.047 1.015-.131 2.716-.334 3.095-.396.358-2.021.814-2.992 1.086-2.577.725-5.802 1.624-7.193 4.511-1.375 2.85-.09 5.9.94 8.351.397.958 1.072 2.552 1.05 2.989-.187.476-1.445 1.572-2.177 2.224-2.032 1.787-4.555 4.014-4.555 7.257 0 3.244 2.523 5.467 4.555 7.257.732.651 1.99 1.744 2.153 2.118.046.538-.629 2.137-1.025 3.09-1.031 2.447-2.316 5.5-.934 8.35 1.384 2.887 4.61 3.787 7.186 4.506.97.276 2.608.732 2.926 1.008.269.459.353 2.16.4 3.178.136 2.671.299 5.99 2.794 7.982 1.157.933 2.674 1.405 4.488 1.405 1.309 0 2.623-.233 3.898-.45.987-.176 1.997-.354 2.72-.354.272 0 .395.021.407.014.44.34 1.216 1.767 1.692 2.628 1.281 2.364 2.887 5.31 6.026 6.023.425.102.867.149 1.31.149 2.522 0 4.671-1.544 6.575-2.91.85-.611 2.273-1.636 2.756-1.7.547.064 1.969 1.089 2.825 1.7 1.903 1.366 4.048 2.91 6.57 2.91.447 0 .882-.047 1.31-.15 3.14-.712 4.74-3.658 6.034-6.022.474-.88 1.275-2.347 1.613-2.602 0 0 .128-.04.47-.04.727 0 1.748.177 2.732.349 1.267.222 2.584.455 3.894.455 1.81 0 3.322-.472 4.488-1.405 2.483-1.991 2.659-5.31 2.79-7.982.055-1.017.132-2.72.335-3.098.392-.356 2.016-.812 2.991-1.085 2.588-.72 5.795-1.622 7.192-4.505 1.368-2.851.094-5.903-.936-8.354-.4-.953-1.072-2.552-1.06-2.985.209-.476 1.449-1.568 2.191-2.219"/>
            <path fill="#FFF" d="M119.494 96.335h-4.07l-3.492-8.691c-.781-1.936-1.81-4.861-2.35-6.897h-.07c.14 2.309.31 5.844.31 10.46v5.128h-3.913v-22.89h4.084l3.528 8.967c.72 1.768 1.806 4.72 2.448 6.693h.067c-.133-2.415-.443-6.387-.443-10.598v-5.061h3.901v22.89zM133.752 96.335L123.429 96.335 123.429 73.446 133.389 73.446 133.389 77.318 127.875 77.318 127.875 82.582 133.071 82.582 133.071 86.282 127.875 86.282 127.875 92.465 133.752 92.465zM153.518 96.335h-4.585l-1.365-7.5c-.364-2.113-.705-4.727-1.016-7.507h-.067c-.412 2.748-.782 5.295-1.259 7.535l-1.528 7.472h-4.422l-3.888-22.89h4.618l1.117 9.137c.303 2.612.513 5.226.785 8.016h.09c.318-2.82.824-5.3 1.3-8.051l1.628-9.101h3.596l1.531 9.033c.407 2.584.82 5.133 1.087 8.119h.071c.302-2.986.575-5.434.889-8.084l1.112-9.068h4.347l-4.04 22.89z"/>
            <path fill="#0E6DA0" d="M555.4 301.577c0 23.94-19.42 43.352-43.36 43.352-23.934 0-43.346-19.412-43.346-43.352 0-23.943 19.412-43.35 43.345-43.35 23.94 0 43.36 19.407 43.36 43.35"/>
            <path stroke="#0E6DA0" stroke-width="1.798" d="M184.212 208.293L73.361 278.975"/>
            <path fill="#0E6DA0" d="M30.405 275.14c0 23.939 19.421 43.351 43.36 43.351 23.936 0 43.347-19.412 43.347-43.352 0-23.943-19.411-43.35-43.346-43.35-23.94 0-43.36 19.407-43.36 43.35"/>
            <path stroke="#0E6DA0" stroke-width="1.798" d="M395.46 221.97L522.347 187.561"/>
            <path fill="#0E6DA0" d="M548.421 153.21c17.706 16.114 18.992 43.544 2.878 61.249-16.11 17.702-43.533 18.992-61.236 2.877-17.709-16.115-18.998-43.534-2.888-61.235 16.114-17.705 43.538-19.006 61.246-2.89"/>
            <path stroke="#747374" stroke-linecap="round" stroke-linejoin="round" stroke-width="2.279" d="M430.91 120.763s-6.802-2.455-13.595 7.502"/>
            <path fill="#0E6DA0" d="M288.187 49.069c0 25.544-20.71 46.254-46.25 46.254-25.545 0-46.253-20.71-46.253-46.254 0-25.545 20.708-46.253 46.254-46.253 25.54 0 46.249 20.708 46.249 46.253"/>
            <path fill="#C6642F" d="M517.315 185.235c0 11.897-9.646 21.543-21.543 21.543-11.899 0-21.543-9.646-21.543-21.543 0-11.898 9.644-21.543 21.543-21.543 11.897 0 21.543 9.645 21.543 21.543"/>
            <path fill="#FCBC80" d="M514.404 185.235c0 10.29-8.342 18.63-18.631 18.63-10.291 0-18.633-8.34-18.633-18.63s8.342-18.631 18.633-18.631c10.29 0 18.63 8.341 18.63 18.63"/>
            <path fill="#DE8D4E" d="M511.104 185.235c0 8.467-6.864 15.332-15.332 15.332s-15.333-6.865-15.333-15.332 6.865-15.332 15.333-15.332 15.332 6.865 15.332 15.332"/>
            <path fill="#FCBC80" d="M508.392 185.235c0 6.97-5.65 12.62-12.62 12.62-6.97 0-12.622-5.65-12.622-12.62 0-6.97 5.653-12.62 12.622-12.62 6.97 0 12.62 5.65 12.62 12.62"/>
            <path fill="#FCBC80" d="M508.392 185.235c0 6.97-5.65 12.62-12.62 12.62-6.97 0-12.622-5.65-12.622-12.62 0-6.97 5.653-12.62 12.622-12.62 6.97 0 12.62 5.65 12.62 12.62"/>
            <path fill="#DE8D4E" d="M505.512 185.235c0 5.378-4.36 9.739-9.74 9.739-5.379 0-9.74-4.36-9.74-9.74 0-5.378 4.361-9.738 9.74-9.738 5.38 0 9.74 4.36 9.74 9.739"/>
            <path fill="#FCBC80" d="M502.31 185.235c0 3.61-2.929 6.537-6.538 6.537-3.61 0-6.537-2.926-6.537-6.537 0-3.61 2.927-6.538 6.537-6.538s6.537 2.928 6.537 6.538"/>
            <path fill="#FCBC80" d="M502.31 185.235c0 3.61-2.929 6.537-6.538 6.537-3.61 0-6.537-2.926-6.537-6.537 0-3.61 2.927-6.538 6.537-6.538s6.537 2.928 6.537 6.538"/>
            <path fill="#F7954C" d="M499.682 185.235c0 2.16-1.751 3.91-3.91 3.91-2.16 0-3.91-1.75-3.91-3.91s1.75-3.91 3.91-3.91c2.159 0 3.91 1.75 3.91 3.91"/>
            <path fill="#FCBC80" d="M496.868 185.235c0 .606-.49 1.097-1.096 1.097-.606 0-1.097-.49-1.097-1.097 0-.605.49-1.096 1.097-1.096.605 0 1.096.49 1.096 1.096"/>
            <path fill="#C6642F" d="M562.686 186.767c0 11.897-9.646 21.543-21.543 21.543-11.899 0-21.543-9.646-21.543-21.543 0-11.899 9.644-21.544 21.543-21.544 11.897 0 21.543 9.645 21.543 21.544"/>
            <path fill="#FCBC80" d="M559.775 186.767c0 10.29-8.342 18.63-18.631 18.63-10.292 0-18.633-8.34-18.633-18.63s8.341-18.632 18.633-18.632c10.29 0 18.63 8.342 18.63 18.632"/>
            <path fill="#DE8D4E" d="M556.475 186.767c0 8.467-6.864 15.332-15.332 15.332s-15.333-6.865-15.333-15.332c0-8.469 6.865-15.333 15.333-15.333s15.332 6.864 15.332 15.333"/>
            <path fill="#FCBC80" d="M553.763 186.767c0 6.968-5.65 12.62-12.62 12.62-6.97 0-12.621-5.652-12.621-12.62 0-6.97 5.652-12.621 12.622-12.621s12.62 5.65 12.62 12.62"/>
            <path fill="#FCBC80" d="M553.763 186.767c0 6.968-5.65 12.62-12.62 12.62-6.97 0-12.621-5.652-12.621-12.62 0-6.97 5.652-12.621 12.622-12.621s12.62 5.65 12.62 12.62"/>
            <path fill="#F7954C" d="M550.883 186.767c0 5.378-4.36 9.739-9.74 9.739-5.379 0-9.74-4.36-9.74-9.74 0-5.379 4.361-9.738 9.74-9.738 5.38 0 9.74 4.36 9.74 9.739"/>
            <path fill="#FCBC80" d="M547.68 186.767c0 3.61-2.927 6.537-6.537 6.537s-6.537-2.928-6.537-6.537c0-3.611 2.927-6.538 6.537-6.538s6.537 2.927 6.537 6.538"/>
            <path fill="#FCBC80" d="M547.68 186.767c0 3.61-2.927 6.537-6.537 6.537s-6.537-2.928-6.537-6.537c0-3.611 2.927-6.538 6.537-6.538s6.537 2.927 6.537 6.538"/>
            <path fill="#F7954C" d="M545.053 186.767c0 2.16-1.751 3.91-3.91 3.91-2.16 0-3.91-1.75-3.91-3.91s1.75-3.911 3.91-3.911c2.159 0 3.91 1.75 3.91 3.91"/>
            <path fill="#FCBC80" d="M542.239 186.767c0 .605-.49 1.095-1.096 1.095-.606 0-1.096-.49-1.096-1.095 0-.607.49-1.097 1.096-1.097.606 0 1.096.49 1.096 1.097"/>
            <path fill="#C6642F" d="M541.143 180.228c0 11.899-9.646 21.544-21.543 21.544-11.899 0-21.542-9.645-21.542-21.544 0-11.897 9.643-21.543 21.542-21.543 11.897 0 21.543 9.646 21.543 21.543"/>
            <path fill="#FCBC80" d="M538.232 180.228c0 10.29-8.342 18.632-18.631 18.632-10.29 0-18.633-8.342-18.633-18.632 0-10.29 8.342-18.63 18.633-18.63 10.29 0 18.63 8.34 18.63 18.63"/>
            <path fill="#DE8D4E" d="M534.932 180.228c0 8.468-6.864 15.333-15.332 15.333s-15.333-6.865-15.333-15.333c0-8.467 6.865-15.332 15.333-15.332s15.332 6.865 15.332 15.332"/>
            <path fill="#FCBC80" d="M532.22 180.228c0 6.97-5.65 12.621-12.62 12.621-6.97 0-12.621-5.65-12.621-12.62 0-6.97 5.652-12.62 12.622-12.62s12.62 5.65 12.62 12.62"/>
            <path fill="#FCBC80" d="M532.22 180.228c0 6.97-5.65 12.621-12.62 12.621-6.97 0-12.621-5.65-12.621-12.62 0-6.97 5.652-12.62 12.622-12.62s12.62 5.65 12.62 12.62"/>
            <path fill="#DE8D4E" d="M529.34 180.228c0 5.38-4.36 9.74-9.74 9.74-5.379 0-9.74-4.36-9.74-9.74 0-5.378 4.361-9.738 9.74-9.738 5.38 0 9.74 4.36 9.74 9.738"/>
            <path fill="#FCBC80" d="M526.138 180.228c0 3.611-2.928 6.538-6.538 6.538-3.61 0-6.536-2.927-6.536-6.538 0-3.61 2.926-6.536 6.536-6.536 3.61 0 6.538 2.927 6.538 6.536"/>
            <path fill="#FCBC80" d="M526.138 180.228c0 3.611-2.928 6.538-6.538 6.538-3.61 0-6.536-2.927-6.536-6.538 0-3.61 2.926-6.536 6.536-6.536 3.61 0 6.538 2.927 6.538 6.536"/>
            <path fill="#DE8D4E" d="M523.51 180.228c0 2.16-1.751 3.911-3.91 3.911-2.16 0-3.91-1.75-3.91-3.91s1.75-3.91 3.91-3.91c2.159 0 3.91 1.75 3.91 3.91"/>
            <path fill="#FCBC80" d="M520.696 180.228c0 .607-.49 1.097-1.096 1.097-.606 0-1.096-.49-1.096-1.097 0-.605.49-1.095 1.096-1.095.606 0 1.096.49 1.096 1.095"/>
            <path fill="#E6E6E6" d="M555.173 214.145c0 2.743-2.224 4.968-4.967 4.968h-59.498c-2.743 0-4.968-2.225-4.968-4.968 0-2.744 2.225-4.967 4.968-4.967h59.498c2.743 0 4.967 2.223 4.967 4.967"/>
            <g transform="translate(461.887 178.406)">
                <mask id="prefix__b" fill="#fff">
                    <use xlink:href="#prefix__a"/>
                </mask>
                <path fill="#E6E6E6" d="M.073.817c2.526 29.816 27.75 35.825 58.497 35.825 30.748 0 55.972-6.009 58.498-35.825H.073z" mask="url(#prefix__b)"/>
            </g>
            <g transform="translate(461.887 178.406)">
                <mask id="prefix__d" fill="#fff">
                    <use xlink:href="#prefix__c"/>
                </mask>
                <path fill="#E6E6E6" d="M.073.817c2.526 29.816 27.75 35.825 58.497 35.825 30.748 0 55.972-6.009 58.498-35.825H.073z" mask="url(#prefix__d)"/>
            </g>
            <g transform="translate(519.896 178.406)">
                <mask id="prefix__f" fill="#fff">
                    <use xlink:href="#prefix__e"/>
                </mask>
                <path fill="#DBD7D6" d="M.56.817v35.825c30.749 0 55.973-6.009 58.498-35.825H.561z" mask="url(#prefix__f)"/>
            </g>
            <path fill="#DBD7D6" d="M520.457 215.049v4.064h29.75c2.742 0 4.967-2.224 4.967-4.968 0-1.24-.457-2.37-1.208-3.24-9.501 3.157-21.052 4.144-33.51 4.144"/>
            <path fill="#E6E6E6" d="M496.29 179.127c-2.196 5.006-9.784 6.515-16.95 3.37-7.165-3.144-11.193-9.752-8.996-14.757 2.198-5.006 9.786-6.514 16.95-3.37 7.167 3.145 11.194 9.752 8.997 14.757"/>
            <path fill="#F1BF74" d="M493.076 173.329c-1.137 2.592-5.477 3.193-9.693 1.343-4.216-1.852-6.712-5.453-5.575-8.044 1.137-2.592 5.478-3.192 9.694-1.343 4.216 1.852 6.713 5.452 5.574 8.044"/>
            <path fill="#8CC63F" d="M541.422 176.963s1.957-.647 3.999-.653c2.042-.006 1.265.837 3.594 0 2.328-.836 2.115-2.957 4.362-1.4 2.247 1.556 3.002 2.785 4.592.418.347-.517 1.429-.75 2.593-.11 1.165.638.077 1.597 2.028 1.53 1.95-.067 2.436-1.658 3.116-.634.679 1.022 4.269.51 4.269.51l1.553 2.518H541.81l-.388-2.179z"/>
            <path fill="#68A73A" d="M541.422 176.963s2.478-.647 4.307-.653c1.828-.006 1.134.837 3.22 0 2.087-.836 2.88-2.923 3.075-1.476.273 2.037 3.524 2.861 4.95.494.31-.517 1.28-.75 2.324-.11 1.043.638-.386 2.079 1.361 2.01 1.75-.067 5.033-2.449 4.406-1.43-1.495 2.424 2.667.826 2.667.826l1.392 2.518H541.81l-.388-2.179z"/>
            <mask id="prefix__h" fill="#fff">
                <use xlink:href="#prefix__g"/>
            </mask>
            <path fill="#C6642F" d="M514.404 161.737L517.315 161.737 517.315 133.622 514.404 133.622zM519.002 161.737L521.912 161.737 521.912 133.622 519.002 133.622zM524.355 161.737L527.267 161.737 527.267 133.622 524.355 133.622z" mask="url(#prefix__h)"/>
            <path fill="#FCBC80" d="M565.046 113.712l-52.762 19.016.78 1.566 55.158-18.066c-1.037-.866-2.093-1.707-3.176-2.516" mask="url(#prefix__h)"/>
            <path fill="#FCBC80" d="M573.343 120.927l-60.125 12.949.563 1.657 62.438-11.537c-.931-1.05-1.889-2.074-2.876-3.07" mask="url(#prefix__h)"/>
            <path fill="#C6642F" d="M513.218 132.391L514.404 135.418 517.315 134.879 515.697 131.498zM518.287 132.785L519.001 134.568 521.913 134.03 521.03 132.195zM523.551 131.652L524.317 133.622 527.267 133.622 527.267 133.042 526.462 131.025z" mask="url(#prefix__h)"/>
            <path fill="#2CABAE" d="M566.683 271.988c-.904 0-1.636-.732-1.636-1.636v-14.217c0-1.838-.505-3.348-1.46-4.363-.789-.842-1.852-1.306-2.992-1.306-2.166 0-4.497 1.774-4.497 5.67v14.216c0 .904-.734 1.636-1.638 1.636-.904 0-1.636-.732-1.636-1.636v-14.217c0-5.872 3.909-8.943 7.771-8.943 3.839 0 7.725 3.071 7.725 8.943v14.217c0 .904-.733 1.636-1.637 1.636" mask="url(#prefix__h)"/>
            <path fill="#F2EED1" d="M569.545 277.064h1.696v-6.422h-21.338v6.422h1.695l-6.807 55.91h3.62c4.25 0 9.725-2.135 12.161-4.825 2.418 2.714 7.91 4.824 12.16 4.824h3.621l-6.808-55.909z" mask="url(#prefix__h)"/>
            <path fill="#C6C29B" d="M571.24 277.064v-6.422h-10.668v57.507c2.418 2.714 7.91 4.824 12.16 4.824h3.62l-6.807-55.909h1.695z" mask="url(#prefix__h)"/>
            <path fill="#187E89" d="M508.807 270.497c-.904 0-1.636-.733-1.636-1.637v-6.89c0-3.564-1.222-6.533-3.533-8.59-2.067-1.84-4.87-2.853-7.89-2.853-5.515 0-11.45 3.58-11.45 11.443v6.89c0 .904-.733 1.637-1.637 1.637s-1.637-.733-1.637-1.637v-6.89c0-9.662 7.407-14.718 14.723-14.718 3.825 0 7.4 1.308 10.069 3.683 3.028 2.695 4.628 6.51 4.628 11.035v6.89c0 .904-.733 1.637-1.637 1.637" mask="url(#prefix__h)"/>
        </g>
        <path fill="url(#prefix__i)" d="M480.512 333.647L531.172 333.647 531.172 270.105 480.512 270.105z" transform="translate(0 -1)"/>
        <g>
            <path fill="#BF423C" d="M0.823 63.723L10.965 63.723 10.965 0.181 0.823 0.181z" transform="translate(0 -1) translate(469.548 269.926)"/>
            <path fill="#C6C29B" d="M.833 12.567c.912 1.878 2.838 3.172 5.065 3.172 2.229 0 4.154-1.294 5.067-3.172V.181H.823V12.54l.01.027z" transform="translate(0 -1) translate(469.548 269.926)"/>
        </g>
        <g transform="translate(0 -1) translate(480.493 269.926)">
            <mask id="prefix__l" fill="#fff">
                <use xlink:href="#prefix__j"/>
            </mask>
            <path fill="url(#prefix__k)" d="M.019.18v12.387c.912 1.878 2.839 3.172 5.066 3.172 2.229 0 4.154-1.294 5.067-3.172.912 1.878 2.838 3.172 5.065 3.172 2.229 0 4.155-1.294 5.066-3.172.913 1.878 2.838 3.172 5.067 3.172 2.227 0 4.153-1.294 5.066-3.172.911 1.878 2.838 3.172 5.065 3.172 2.228 0 4.155-1.294 5.067-3.172.911 1.878 2.838 3.172 5.065 3.172 2.228 0 4.153-1.292 5.065-3.17V.181H.018z" mask="url(#prefix__l)"/>
        </g>
        <path fill="#F5C268" d="M511.374 310.353L551.339 310.353 551.339 299.679 511.374 299.679z" transform="translate(0 -1)"/>
        <path fill="url(#prefix__m)" d="M513.689 333.647L549.023 333.647 549.023 310.353 513.689 310.353z" transform="translate(0 -1)"/>
        <path fill="url(#prefix__n)" d="M528.172 333.647L534.542 333.647 534.542 310.353 528.172 310.353z" transform="translate(0 -1)"/>
        <path fill="#F2EED1" d="M528.172 310.353L534.542 310.353 534.542 299.679 528.172 299.679z" transform="translate(0 -1)"/>
        <g transform="translate(0 -1) translate(530.841 290.721)">
            <mask id="prefix__q" fill="#fff">
                <use xlink:href="#prefix__o"/>
            </mask>
            <path fill="url(#prefix__p)" d="M5.393.8C3.926 1.52-.33 5.538.615 7.455c.942 1.916 6.727 1.006 8.193.285 1.465-.72 1.563-2.695.618-4.612C8.678 1.608 7.501.581 6.314.581c-.31 0-.62.07-.921.22" mask="url(#prefix__q)"/>
        </g>
        <g transform="translate(0 -1) translate(520.99 290.721)">
            <mask id="prefix__t" fill="#fff">
                <use xlink:href="#prefix__r"/>
            </mask>
            <path fill="url(#prefix__s)" d="M1.224 3.128C.28 5.045.377 7.02 1.844 7.74c1.465.72 7.25 1.632 8.192-.285C10.979 5.538 6.724 1.52 5.258.8 4.955.651 4.645.581 4.336.581c-1.187 0-2.365 1.027-3.112 2.547" mask="url(#prefix__t)"/>
        </g>
        <g>
            <path fill="#2CABAE" d="M185.133 229.208c-.904 0-1.637-.733-1.637-1.636v-13.76c0-3.564-1.22-6.534-3.532-8.59-2.067-1.841-4.87-2.854-7.89-2.854-5.515 0-11.45 3.58-11.45 11.443v13.76c0 .904-.733 1.637-1.638 1.637-.903 0-1.636-.733-1.636-1.636v-13.76c0-9.664 7.408-14.719 14.723-14.719 3.825 0 7.4 1.308 10.069 3.684 3.027 2.694 4.629 6.51 4.629 11.034v13.76c0 .904-.734 1.637-1.638 1.637" transform="translate(0 -1) translate(332.733 48.833)"/>
            <path fill="#A00B0F" d="M32.762 48.999c-8.884 0-16.086-7.205-16.086-16.089 0-8.882 7.202-16.082 16.086-16.082 8.89 0 16.08 7.2 16.08 16.082 0 8.884-7.19 16.089-16.08 16.089m0-48.496C14.865.503.354 15.009.354 32.91c0 17.904 32.408 45.532 32.408 45.532S65.161 50.814 65.161 32.91C65.161 15.01 50.66.503 32.762.503" transform="translate(0 -1) translate(332.733 48.833)"/>
            <path fill="#FFF" d="M32.762 48.999c-8.884 0-16.086-7.205-16.086-16.089 0-8.882 7.202-16.082 16.086-16.082 8.89 0 16.08 7.2 16.08 16.082 0 8.884-7.19 16.089-16.08 16.089" transform="translate(0 -1) translate(332.733 48.833)"/>
            <path fill="#D1ECFB" d="M32.762 16.829c8.89 0 16.08 7.199 16.08 16.08 0 8.886-7.19 16.09-16.08 16.09" transform="translate(0 -1) translate(332.733 48.833)"/>
        </g>
        <path fill="url(#prefix__u)" d="M202.067 75.213L276.442 75.213 276.442 5.579 202.067 5.579z" transform="translate(0 -1)"/>
        <g>
            <path fill="#3E2F3C" d="M0.377 18.718L67.6 18.718 67.6 0.048 0.377 0.048z" transform="translate(0 -1) translate(205.77 56.495)"/>
            <path fill="#D89144" d="M49.967 6.01c4.979 0 9.182 3.48 10.299 8.129-3.04 1.587-5.224 4.608-5.644 8.15H45.31c-.42-3.542-2.605-6.562-5.644-8.15 1.117-4.649 5.322-8.13 10.3-8.13M19.623 6.01c4.977 0 9.182 3.48 10.299 8.128-3.04 1.588-5.225 4.609-5.643 8.15h-9.311c-.42-3.541-2.605-6.562-5.644-8.15 1.117-4.648 5.32-8.128 10.299-8.128" transform="translate(0 -1) translate(205.77 56.495)"/>
        </g>
        <g transform="translate(0 -1) translate(259.4 68.534)">
            <mask id="prefix__x" fill="#fff">
                <use xlink:href="#prefix__v"/>
            </mask>
            <path fill="url(#prefix__w)" d="M.917 11.494v4.459h21.18v-4.46c0-5.826-4.765-10.591-10.59-10.591C5.684.902.918 5.667.918 11.494" mask="url(#prefix__x)"/>
        </g>
        <g transform="translate(0 -1) translate(229.849 68.534)">
            <mask id="prefix__A" fill="#fff">
                <use xlink:href="#prefix__y"/>
            </mask>
            <path fill="url(#prefix__z)" d="M.125 11.494v4.459h21.18v-4.46C21.305 5.668 16.54.903 10.716.903 4.89.902.125 5.667.125 11.494" mask="url(#prefix__A)"/>
        </g>
        <g transform="translate(0 -1) translate(199.202 68.534)">
            <mask id="prefix__D" fill="#fff">
                <use xlink:href="#prefix__B"/>
            </mask>
            <path fill="url(#prefix__C)" d="M.427 11.494v4.459h21.181v-4.46c0-5.826-4.764-10.591-10.59-10.591C5.194.902.428 5.667.428 11.494" mask="url(#prefix__D)"/>
        </g>
        <g transform="translate(0 -1) translate(226.565 7.241)">
            <mask id="prefix__G" fill="#fff">
                <use xlink:href="#prefix__E"/>
            </mask>
            <path fill="url(#prefix__F)" d="M13.998 5.98C10.414 5.98 7.31 3.915 5.81.913 4.752 3.035 2.89 4.687.627 5.474 3.461 9.862 8.39 12.765 14 12.765c5.607 0 10.536-2.903 13.37-7.29-2.266-.787-4.126-2.439-5.185-4.56-1.5 3.002-4.603 5.065-8.187 5.065" mask="url(#prefix__G)"/>
        </g>
        <g transform="translate(0 -1) translate(253.928 7.241)">
            <mask id="prefix__J" fill="#fff">
                <use xlink:href="#prefix__H"/>
            </mask>
            <path fill="url(#prefix__I)" d="M19.382 5.98c-3.585 0-6.687-2.064-8.186-5.066-1.5 3.002-4.604 5.065-8.187 5.065-.82 0-1.613-.108-2.368-.31C2.6 18.68 9.848 29.957 20.126 37.242 15.834 44.908 13.266 53.67 12.945 63c1.247-.516 2.607-.804 4.035-.804 5.824 0 10.589 4.765 10.589 10.592V.914c-1.5 3.002-4.603 5.065-8.187 5.065" mask="url(#prefix__J)"/>
        </g>
        <g transform="translate(0 -1) translate(199.202 7.241)">
            <mask id="prefix__M" fill="#fff">
                <use xlink:href="#prefix__K"/>
            </mask>
            <path fill="url(#prefix__L)" d="M8.614 5.98C5.029 5.98 1.926 3.915.427.913v71.86c.008-5.82 4.77-10.58 10.592-10.58 1.425 0 2.787.289 4.032.805-.321-9.33-2.888-18.09-7.178-25.757C18.149 29.957 25.397 18.68 27.355 5.67c-.755.202-1.547.31-2.368.31-3.584 0-6.687-2.063-8.186-5.065-1.5 3.002-4.603 5.065-8.187 5.065" mask="url(#prefix__M)"/>
        </g>
        <g transform="translate(0 -1) translate(199.202 .674)">
            <mask id="prefix__P" fill="#fff">
                <use xlink:href="#prefix__N"/>
            </mask>
            <path fill="url(#prefix__O)" d="M.435.421l-.008 7.06c1.5 3.002 4.602 5.065 8.187 5.065 3.585 0 6.686-2.063 8.187-5.065 1.5 3.002 4.602 5.065 8.186 5.065 3.585 0 6.686-2.063 8.187-5.065 1.5 3.002 4.603 5.065 8.187 5.065 3.584 0 6.687-2.063 8.187-5.065 1.5 3.002 4.602 5.065 8.187 5.065 3.584 0 6.686-2.063 8.187-5.065 1.5 3.002 4.601 5.065 8.186 5.065 3.584 0 6.687-2.063 8.187-5.065V.425L.436.42z" mask="url(#prefix__P)"/>
        </g>
        <g>
            <path fill="#D89144" d="M139.437 4.905L220.495 4.905 220.495 0.42 139.437 0.42z" transform="translate(0 -1) translate(60.198 .674)"/>
            <path fill="#E1DEB4" d="M213.75 45.996h7.549v-4.632h-7.548c-1.278 0-2.316 1.037-2.316 2.316 0 1.28 1.038 2.316 2.316 2.316M146.979 41.364h-7.548v4.632h7.548c1.28 0 2.316-1.037 2.316-2.316 0-1.28-1.037-2.316-2.316-2.316" transform="translate(0 -1) translate(60.198 .674)"/>
            <path fill="#C6C29B" d="M.848 256.254L19.167 256.254 19.167 250.695.848 250.695zM19.167 256.254L37.487 256.254 37.487 250.695 19.167 250.695z" transform="translate(0 -1) translate(60.198 .674)"/>
        </g>
        <g transform="translate(0 -1) translate(53.631 215.2)">
            <mask id="prefix__S" fill="#fff">
                <use xlink:href="#prefix__Q"/>
            </mask>
            <path fill="url(#prefix__R)" d="M17.512 6.31C16.22 3.027 13.03.702 9.288.702 4.403.702.444 4.66.444 9.544c0 4.24 2.987 7.78 6.971 8.64v19.689h20.496V18.106c3.829-.972 6.666-4.432 6.666-8.562 0-4.884-3.959-8.842-8.843-8.842-3.74 0-6.931 2.325-8.222 5.608" mask="url(#prefix__S)"/>
        </g>
        <g transform="translate(0 -1) translate(0 .674)">
            <path fill="#E1DEB4" d="M103.656 224.274c0-4.884-3.96-8.841-8.843-8.841-3.279 0-6.136 1.79-7.663 4.44-1.494-2.766-4.418-4.646-7.783-4.646v37.17h18.32v-19.766c3.47-1.194 5.969-4.48 5.969-8.357"/>
            <path fill="#8EADBE" d="M83.592 271.963c0 2.61-2.117 4.726-4.726 4.726-2.61 0-4.726-2.116-4.726-4.726s2.116-4.725 4.726-4.725 4.726 2.114 4.726 4.725"/>
            <path fill="#B1C3D0" d="M78.865 273.143c1.514 0 3.002.115 4.459.328.162-.477.268-.978.268-1.508 0-2.61-2.115-4.726-4.726-4.726-2.61 0-4.725 2.115-4.725 4.726 0 .53.106 1.03.268 1.507 1.455-.212 2.942-.327 4.456-.327"/>
            <path fill="#8EADBE" d="M83.592 271.963c0-2.61-2.116-4.725-4.726-4.725v9.45c2.61 0 4.726-2.115 4.726-4.725"/>
            <path fill="#34485C" d="M114.31 307.407H43.421c-1.303 0-2.363 1.058-2.363 2.362 0 1.305 1.06 2.363 2.363 2.363h70.89c1.304 0 2.361-1.058 2.361-2.363 0-1.304-1.057-2.362-2.362-2.362"/>
            <path fill="#B1C3D0" d="M109.584 305.044v-.009c-.006-16.933-13.784-30.709-30.72-30.709-16.938 0-30.718 13.78-30.718 30.72 0 1.304-.002 2.361.001 2.361h61.437c.004 0 0-2.037 0-2.363"/>
            <path fill="#8EADBE" d="M78.865 274.326v33.082h30.718c.005 0 0-2.038 0-2.364v-.008c-.004-16.934-13.782-30.71-30.718-30.71"/>
            <path fill="#576D7E" d="M114.31 307.407H43.421c-1.303 0-2.363 1.058-2.363 2.362h75.614c0-1.304-1.057-2.362-2.362-2.362"/>
            <path fill="#B1C3D0" d="M38.992 249.366c-1.074 0-.973.871-.973 1.945l.003 15.286c-.023.954-.692 1.822-1.635 1.969-1.208.188-2.252-.746-2.254-1.917l-.973-15.338c0-1.074.102-1.945-.973-1.945-1.074 0-.972.871-.972 1.945l-.972 15.328-.007.062c-.095.939-.786 1.776-1.724 1.878-1.168.125-2.157-.79-2.16-1.93l.002-15.338c0-1.074.102-1.945-.973-1.945-1.072 0-.97.871-.97 1.945l-1.949 15.328-.001.006.001.01v.963c0 3.128 1.486 5.917 3.79 7.697 1.903 1.47 3.017 3.737 3.017 6.142l-.972 27.23c0 1.58 2.155 2.831 3.733 2.913 1.683.089 4.047-1.249 4.047-2.914l-.973-27.229c0-2.405 1.115-4.671 3.018-6.142 2.304-1.78 3.79-4.569 3.79-7.697l-1.947-16.307c0-1.074.1-1.945-.973-1.945M135.27 250.997c0-.9-.73-1.63-1.63-1.63-2.529 0-5.027.844-6.887 2.556-2.03 1.865-3.152 4.43-3.152 7.167v19.45c0 2.149 1.741 3.89 3.89 3.89 1.073 0 1.944.872 1.944 1.944l-.973 24.149c0 1.579 2.156 2.995 3.732 3.077 1.684.09 3.076-1.248 3.076-2.913v-57.69z"/>
            <path fill="#8EADBE" d="M22.463 267.618c0 3.128 1.485 5.917 3.789 7.696 1.902 1.47 3.017 3.738 3.017 6.144l-.38 10.664 6.74 4.044-.525-14.708c0-2.406 1.114-4.673 3.019-6.144l.013-.012-15.586-9.35-.087.687-.002.006.002.01v.963zM26.352 265.315L26.353 261.426 23.354 259.626 22.895 263.24zM41.462 270.49l-4.07-2.441c-.271.265-.612.456-1.006.517-1.207.188-2.25-.745-2.253-1.917l-.037-.578-3.678-2.206-.175 2.774-.007.062c-.028.282-.116.551-.244.799l9.942 5.965c.672-.887 1.19-1.89 1.528-2.974M135.27 267.26L123.601 260.259 123.601 264.148 135.27 271.15zM28.296 308.687c0 1.58 2.157 2.831 3.734 2.913 1.682.09 4.046-1.248 4.046-2.913l-.34-9.54-6.95-4.169-.49 13.709zM123.6 267.065v11.475c0 2.149 1.742 3.89 3.89 3.89 1.074 0 1.945.871 1.945 1.944l-.338 8.356 6.172 3.704V274.066l-11.668-7zM128.984 295.58l-.523 12.942c0 1.58 2.157 2.997 3.734 3.079 1.683.088 3.074-1.25 3.074-2.914v-9.336l-6.285-3.772z"/>
            <mask id="prefix__U" fill="#fff">
                <use xlink:href="#prefix__T"/>
            </mask>
            <path fill="#A33927" d="M181.357 274.721L398.575 274.721 398.575 135.663 181.357 135.663z" mask="url(#prefix__U)"/>
            <path fill="#BF412E" d="M172.19 292.8L407.743 292.8 407.743 151.949 172.19 151.949z" mask="url(#prefix__U)"/>
            <path fill="#F8E482" d="M162.715 309.089L417.214 309.089 417.214 168.238 162.715 168.238z" mask="url(#prefix__U)"/>
        </g>
        <g transform="translate(0 -1) translate(226.565 175.797)">
            <mask id="prefix__W" fill="#fff">
                <use xlink:href="#prefix__V"/>
            </mask>
            <path fill="#FFF" d="M-0.417 128.146L127.221 128.146 127.221 -1.064 -0.417 -1.064z" mask="url(#prefix__W)"/>
        </g>
        <path fill="#F6D85E" d="M385.407 250.719c-6.279 0-11.378-5.102-11.378-11.383 0-6.284 5.1-11.379 11.378-11.379 6.28 0 11.38 5.095 11.38 11.379 0 6.281-5.1 11.383-11.38 11.383" transform="translate(0 -1)"/>
        <g transform="translate(0 -1) translate(373.23 168.135)">
            <mask id="prefix__Y" fill="#fff">
                <use xlink:href="#prefix__X"/>
            </mask>
            <path fill="#E14027" d="M-0.501 45.286L45.129 45.286 45.129 -0.367 -0.501 -0.367z" mask="url(#prefix__Y)"/>
        </g>
        <g transform="translate(0 -1) translate(373.23 265.548)">
            <mask id="prefix__aa" fill="#fff">
                <use xlink:href="#prefix__Z"/>
            </mask>
            <path fill="#E14027" d="M-0.501 45.359L45.129 45.359 45.129 -0.293 -0.501 -0.293z" mask="url(#prefix__aa)"/>
        </g>
        <path fill="#F6D85E" d="M194.524 227.956c6.28 0 11.379 5.102 11.379 11.384 0 6.284-5.098 11.379-11.379 11.379-6.278 0-11.378-5.095-11.378-11.379 0-6.282 5.1-11.384 11.378-11.384" transform="translate(0 -1)"/>
        <g transform="translate(0 -1) translate(161.989 265.548)">
            <mask id="prefix__ac" fill="#fff">
                <use xlink:href="#prefix__ab"/>
            </mask>
            <path fill="#E14027" d="M-0.416 45.359L45.215 45.359 45.215 -0.293 -0.416 -0.293z" mask="url(#prefix__ac)"/>
        </g>
        <g transform="translate(0 -1) translate(161.989 168.135)">
            <mask id="prefix__ae" fill="#fff">
                <use xlink:href="#prefix__ad"/>
            </mask>
            <path fill="#E14027" d="M0.738 0.348L46.641 0.306 46.641 45.959 0.68 46.351z" mask="url(#prefix__ae)"/>
        </g>
        <g>
            <path fill="#D0D2D3" d="M287.349 63.482H12.389c-6.662 0-12.06-5.4-12.06-12.06V27.647c0-6.661 5.398-12.06 12.06-12.06h274.96c6.661 0 12.06 5.399 12.06 12.06v23.773c0 6.661-5.399 12.06-12.06 12.06" transform="translate(0 -1) translate(140.098 304.95)"/>
            <path fill="#FFF" d="M287.349 59.529H12.389c-6.662 0-12.06-5.4-12.06-12.06V23.695c0-6.662 5.398-12.06 12.06-12.06h274.96c6.661 0 12.06 5.398 12.06 12.06v23.772c0 6.662-5.399 12.061-12.06 12.061" transform="translate(0 -1) translate(140.098 304.95)"/>
            <path fill="#FFF" d="M161.158 11.635L149.611 23.181 138.064 11.635 149.611 0.088z" transform="translate(0 -1) translate(140.098 304.95)"/>
        </g>
        <text fill="#0E6DA0" font-family="PingFangTC-Semibold, PingFang TC" font-size="24" font-weight="500" letter-spacing="2" transform="translate(0 -1)">
            <tspan x="166.5" y="352">各實體通路皆可使用！</tspan>
        </text>
        <text fill="#BF412E" font-family="PingFangTC-Semibold, PingFang TC" font-size="102" font-weight="500" letter-spacing="20.4" transform="translate(0 -1)">
            <tspan x="259.2" y="292.5">3</tspan>
        </text>
    </g>
</svg>
