<svg xmlns="http://www.w3.org/2000/svg" xmlns:xlink="http://www.w3.org/1999/xlink" width="578" height="368" viewBox="0 0 578 368">
    <defs>
        <path id="prefix__a" d="M0.073 0.173L116.87 0.173 116.87 35.964 0.073 35.964z"/>
        <path id="prefix__c" d="M0.073 0.173L116.87 0.173 116.87 35.964 0.073 35.964z"/>
        <path id="prefix__e" d="M0.56 0.173L58.958 0.173 58.958 35.964 0.56 35.964z"/>
        <path id="prefix__h" d="M.019.653V13.48v-.001c.923 1.943 2.87 3.285 5.121 3.285 2.253 0 4.2-1.342 5.122-3.285.921 1.943 2.869 3.285 5.121 3.285 2.252 0 4.199-1.342 5.12-3.285.923 1.943 2.87 3.285 5.122 3.285 2.251 0 4.198-1.342 5.12-3.285.923 1.943 2.87 3.285 5.12 3.285 2.253 0 4.2-1.342 5.122-3.285.922 1.943 2.869 3.285 5.122 3.285 2.251 0 4.196-1.34 5.119-3.283V.653H.018z"/>
        <path id="prefix__m" d="M5.42.269C3.946 1-.331 5.079.617 7.026c.948 1.945 6.762 1.02 8.234.29 1.474-.733 1.57-2.738.623-4.684C8.723 1.09 7.54.048 6.346.048c-.31 0-.622.07-.926.22"/>
        <path id="prefix__p" d="M1.23 2.632c-.947 1.946-.852 3.951.622 4.684 1.473.73 7.286 1.655 8.234-.29C11.034 5.079 6.757 1 5.284.269 4.98.119 4.668.048 4.357.048c-1.192 0-2.376 1.04-3.127 2.584"/>
        <path id="prefix__t" d="M.918 11.327v4.658H22.11v-4.658C22.11 5.246 17.343.27 11.515.27 5.686.27.918 5.245.918 11.327"/>
        <path id="prefix__w" d="M.12 11.327v4.658h20.318v-4.658C20.438 5.246 15.868.27 10.28.27 4.69.27.12 5.245.12 11.327"/>
        <path id="prefix__z" d="M.41 11.327v4.658h20.32v-4.658C20.73 5.245 16.158.27 10.57.27S.41 5.245.41 11.327"/>
        <path id="prefix__C" d="M13.83 5.28c-3.54 0-6.606-2.04-8.088-5.012C4.695 2.365 2.857 4.002.62 4.78c2.798 4.34 7.669 7.215 13.21 7.215 5.54 0 10.411-2.875 13.212-7.215-2.24-.78-4.077-2.416-5.124-4.513C20.437 3.239 17.37 5.28 13.83 5.28"/>
        <path id="prefix__F" d="M19.07 5.317c-3.526 0-6.58-2.055-8.054-5.048-1.476 2.993-4.53 5.048-8.057 5.048-.804 0-1.586-.108-2.328-.31 1.927 12.969 9.06 24.209 19.171 31.47-4.221 7.64-6.75 16.371-7.065 25.672 1.225-.516 2.565-.8 3.97-.8 5.73 0 10.419 4.75 10.419 10.554V.269c-1.476 2.993-4.529 5.048-8.056 5.048"/>
        <path id="prefix__I" d="M8.51 5.317C4.97 5.317 1.903 3.262.422.27v71.623c.007-5.8 4.712-10.544 10.463-10.544 1.41 0 2.757.285 3.986.801-.318-9.301-2.855-18.032-7.093-25.671 10.153-7.262 17.314-18.502 19.249-31.47-.746.201-1.53.31-2.34.31-3.54 0-6.606-2.056-8.088-5.049-1.482 2.993-4.547 5.048-8.089 5.048"/>
        <path id="prefix__L" d="M.434.861l-.008 6.99c1.496 2.971 4.592 5.013 8.169 5.013 3.577 0 6.672-2.042 8.169-5.013 1.496 2.971 4.592 5.013 8.168 5.013 3.576 0 6.672-2.042 8.17-5.013 1.496 2.971 4.592 5.013 8.168 5.013 3.575 0 6.672-2.042 8.169-5.013 1.497 2.971 4.592 5.013 8.167 5.013 3.578 0 6.672-2.042 8.17-5.013 1.496 2.971 4.593 5.013 8.168 5.013 3.577 0 6.673-2.042 8.17-5.013V.867L.434.86z"/>
        <path id="prefix__O" d="M0.848 0.871L221.113 0.871 221.113 256.494 0.848 256.494z"/>
        <path id="prefix__Q" d="M17.499 5.616c-1.29-3.253-4.48-5.56-8.217-5.56C4.402.056.444 3.981.444 8.822c0 4.203 2.985 7.712 6.966 8.563v19.519h20.482V17.307c3.826-.961 6.66-4.392 6.66-8.485 0-4.841-3.955-8.766-8.836-8.766-3.737 0-6.925 2.307-8.217 5.56"/>
        <path id="prefix__T" d="M.677 63.964c0 35.053 28.093 63.48 62.74 63.48 34.655 0 62.744-28.427 62.744-63.48C126.161 28.9 98.072.48 63.417.48 28.767.48.677 28.9.677 63.964z"/>
        <path id="prefix__V" d="M.795 11.46c0 6.285 5.082 11.391 11.342 11.391 6.258 0 11.34-5.106 11.34-11.392 0-6.287-5.082-11.387-11.34-11.387C5.877.072.795 5.172.795 11.46z"/>
        <path id="prefix__X" d="M.596.084c0 24.125 19.503 43.68 43.561 43.68V.084H.596z"/>
        <path id="prefix__Z" d="M.596 43.838h43.561V.158C20.1.158.596 19.714.596 43.838z"/>
        <path id="prefix__ab" d="M.682 43.838h43.56C44.243 19.714 24.74.158.683.158v43.68z"/>
        <path id="prefix__ad" d="M.682.091v43.68c24.058 0 43.56-19.556 43.56-43.68H.683z"/>
        <linearGradient id="prefix__g" x1="50.001%" x2="50.001%" y1="28.733%" y2="95.724%">
            <stop offset="0%" stop-color="#CC6757"/>
            <stop offset="100%" stop-color="#CC6757"/>
        </linearGradient>
        <linearGradient id="prefix__i" x1="76.996%" x2="-28.182%" y1="46.128%" y2="59.286%">
            <stop offset="0%" stop-color="#F2EDD1"/>
            <stop offset="100%" stop-color="#C6C19A"/>
        </linearGradient>
        <linearGradient id="prefix__k" x1="50.001%" x2="50.001%" y1="87.642%" y2="14.419%">
            <stop offset="0%" stop-color="#D89044"/>
            <stop offset="100%" stop-color="#D89044"/>
        </linearGradient>
        <linearGradient id="prefix__l" x1="50%" x2="50%" y1="85.289%" y2="41.401%">
            <stop offset="0%" stop-color="#F2EDD1"/>
            <stop offset="100%" stop-color="#E2DDC1"/>
        </linearGradient>
        <linearGradient id="prefix__n" x1="50.006%" x2="50.006%" y1="-2.887%" y2="131.857%">
            <stop offset="0%" stop-color="#F2EDD1"/>
            <stop offset="100%" stop-color="#C6C19A"/>
        </linearGradient>
        <linearGradient id="prefix__q" x1="49.999%" x2="49.999%" y1="-2.887%" y2="131.857%">
            <stop offset="0%" stop-color="#F2EDD1"/>
            <stop offset="100%" stop-color="#C6C19A"/>
        </linearGradient>
        <linearGradient id="prefix__s" x1="50%" x2="50%" y1="77.212%" y2="30.944%">
            <stop offset="0%" stop-color="#5B4459"/>
            <stop offset="100%" stop-color="#3D2F3B"/>
        </linearGradient>
        <linearGradient id="prefix__u" x1="50%" x2="50%" y1="33.502%" y2="108.667%">
            <stop offset="0%" stop-color="#F4C167"/>
            <stop offset="100%" stop-color="#D89044"/>
        </linearGradient>
        <linearGradient id="prefix__x" x1="50%" x2="50%" y1="33.502%" y2="108.667%">
            <stop offset="0%" stop-color="#F4C167"/>
            <stop offset="100%" stop-color="#D89044"/>
        </linearGradient>
        <linearGradient id="prefix__A" x1="50.001%" x2="50.001%" y1="33.502%" y2="108.667%">
            <stop offset="0%" stop-color="#F4C167"/>
            <stop offset="100%" stop-color="#D89044"/>
        </linearGradient>
        <linearGradient id="prefix__D" x1="49.999%" x2="49.999%" y1="-77.107%" y2="241.417%">
            <stop offset="0%" stop-color="#BF423B"/>
            <stop offset="100%" stop-color="#BF423B"/>
        </linearGradient>
        <linearGradient id="prefix__G" x1="50.002%" x2="50.002%" y1="-1.315%" y2="83.916%">
            <stop offset="0%" stop-color="#BF423B"/>
            <stop offset="100%" stop-color="#BF423B"/>
        </linearGradient>
        <linearGradient id="prefix__J" x1="50.001%" x2="50.001%" y1="-1.315%" y2="83.915%">
            <stop offset="0%" stop-color="#BF423B"/>
            <stop offset="100%" stop-color="#BF423B"/>
        </linearGradient>
        <linearGradient id="prefix__M" x1=".001%" x2="100.001%" y1="50.002%" y2="50.002%">
            <stop offset="0%" stop-color="#F4C167"/>
            <stop offset="100%" stop-color="#D89044"/>
        </linearGradient>
        <linearGradient id="prefix__R" x1="37.189%" x2="89.151%" y1="12.205%" y2="125.26%">
            <stop offset="0%" stop-color="#F2EDD1"/>
            <stop offset="100%" stop-color="#C6C19A"/>
        </linearGradient>
    </defs>
    <g fill="none" fill-rule="evenodd">
        <path stroke="#0E6DA0" stroke-width="1.798" d="M241.5 91L241.5 163"/>
        <g>
            <path fill="#AFD7A6" d="M70.574 160.153c1.267-3.474 5.107-5.285 8.581-4.025 3.484 1.253 5.285 5.098 4.028 8.576-1.248 3.49-5.09 5.285-8.56 4.036-3.487-1.255-5.298-5.096-4.05-8.587zm1.9 30.993l25.137-21.25-5.819-32.4-72.484-26.126L0 165.04l72.475 26.106z" transform="translate(0 3)"/>
            <path fill="#FFF" d="M51.838 136.703L56.014 138.21 30.317 160.919 26.158 159.423zM31.51 138.66c.6-1.646 1.308-3.624 3.003-3.705.3-.016.604.031.914.146 2.323.821 1.36 3.538.78 5.161-.603 1.69-1.326 3.67-3.02 3.751-.3.013-.615-.035-.923-.15-.592-.214-1.014-.58-1.265-1.105-.55-1.17.014-2.73.511-4.099m-1.046 7.356c4.614 1.666 7.732-.594 9.241-4.795 1.518-4.195.547-7.924-4.061-9.583-4.624-1.679-7.733.587-9.246 4.785-1.514 4.208-.55 7.921 4.066 9.593M46.353 157.42c.578-1.602 1.288-3.613 2.998-3.69.295-.016.609.035.908.147.61.223 1.597.828 1.505 2.487-.055.89-.408 1.867-.728 2.727-.591 1.641-1.319 3.623-3.017 3.71-.296.007-.59-.037-.9-.15-.595-.21-1.029-.588-1.274-1.117-.562-1.191.027-2.812.508-4.114m-.214 8.435c4.608 1.655 7.735-.591 9.236-4.788 1.518-4.205.55-7.931-4.071-9.595-4.603-1.655-7.722.596-9.24 4.792-1.516 4.2-.538 7.93 4.075 9.591" transform="translate(0 3)"/>
            <path stroke="#747374" stroke-linecap="round" stroke-linejoin="round" stroke-width="2.936" d="M78.524 163.663s46.502 20.558 57.973-1.145c11.472-21.704-6.712-32.395-14.595-20.195-7.876 12.212 21.457 44.028 47.001 36.277 30.228-9.157 59.997-91.283 16.926-87.654-36.98 3.117-30.784 97.06 59.02 83.351M80.744 159.825s12.391 5.967 18.41 5.35" transform="translate(0 3)"/>
            <path stroke="#0E6DA0" stroke-width="1.798" d="M400.916 231.963L511.581 302.581" transform="translate(0 3)"/>
            <path fill="#596273" d="M435.76 119.036c-2.525 1.415-5.705.517-7.112-1.997-1.42-2.52-.524-5.707 1.992-7.122 2.512-1.416 5.7-.518 7.115 2.001 1.412 2.513.517 5.703-1.995 7.118m79.39-25.107l-21.772-38.788c-.847-1.51-2.751-2.046-4.262-1.198l-72.128 40.54c-.972.546-1.581 1.576-1.602 2.695l-.302 25.683c-.011 1.12.566 2.165 1.528 2.735l22.082 13.107c.962.57 2.167.583 3.133.038l72.127-40.544c1.506-.846 2.048-2.76 1.196-4.268" transform="translate(0 3)"/>
            <path fill="#FFF" d="M452.996 116.814c-1.47.832-3.113 1.25-3.935 1.244l-1.224-3.382c.978-.002 2.429-.426 3.438-.995 1.666-.935 2.024-2.29 1.348-3.493-.755-1.343-1.944-1.535-4.066-1.673-3.38-.117-5.426-1.52-6.37-3.194-1.648-2.95-1.06-6.522 2.764-8.67 1.237-.695 2.568-1.012 3.264-.974l1.168 3.415c-.703-.037-1.665.109-2.68.675-1.533.86-1.748 2.207-1.196 3.191.617 1.096 1.483 1.365 4.132 1.46 3.286.095 5.202 1.464 6.299 3.407 1.89 3.363.64 6.978-2.942 8.989M481.878 100.37L473.593 105.025 463.249 86.582 466.827 84.57 475.473 99.973 480.175 97.333zM492.296 94.514L483.981 99.185 473.637 80.743 481.643 76.241 483.395 79.361 478.968 81.849 481.345 86.088 485.531 83.737 487.205 86.722 483.026 89.071 485.812 94.052 490.539 91.394zM460.426 103.21l-1.481-4.238c-.402-1.18-1.19-3.218-1.69-4.558l.084-.05c.84 1.113 2.13 2.837 2.949 3.85l2.766 3.522-2.628 1.474zm-2.774-13.48l-4.297 2.413 6.36 20.681 3.466-1.95-1.542-4.674 3.312-1.862 3.156 3.771 3.466-1.95-13.92-16.428z" transform="translate(0 3)"/>
            <path stroke="#747374" stroke-linecap="round" stroke-linejoin="round" stroke-width="2.279" d="M430.183 114.78s-11.629-1.246-15.098 8.082c-3.256 8.727 1.74 32.789-20.35 43.532" transform="translate(0 3)"/>
            <path fill="#C6642F" d="M174.794 87.292c2.021-1.788 4.547-4.012 4.547-7.254 0-3.24-2.526-5.464-4.547-7.25-.74-.652-1.979-1.746-2.153-2.117-.047-.538.624-2.131 1.024-3.084 1.028-2.45 2.308-5.497.935-8.342-1.397-2.885-4.597-3.784-7.173-4.51-.973-.27-2.595-.726-2.925-1.002-.268-.463-.34-2.162-.395-3.181-.133-2.664-.307-5.982-2.793-7.97-1.164-.932-2.674-1.402-4.481-1.402-1.307 0-2.615.228-3.88.449-.99.17-2.01.353-2.734.353-.253 0-.385-.037-.403-.018-.44-.335-1.211-1.768-1.677-2.626-1.292-2.367-2.89-5.305-6.025-6.019-.426-.095-.86-.145-1.306-.145-2.52 0-4.66 1.545-6.56 2.907-.851.608-2.274 1.63-2.754 1.698-.548-.067-1.968-1.09-2.817-1.698-1.902-1.362-4.046-2.907-6.564-2.907-.443 0-.885.05-1.308.145-3.134.714-4.737 3.652-6.016 6.019-.481.876-1.276 2.343-1.61 2.597 0 0-.136.041-.485.041-.722 0-1.743-.178-2.724-.353-1.268-.217-2.576-.446-3.883-.446-1.812 0-3.324.471-4.48 1.4-2.491 1.984-2.654 5.309-2.79 7.975-.047 1.016-.132 2.715-.333 3.092-.397.358-2.018.815-2.987 1.086-2.573.724-5.793 1.623-7.181 4.507-1.374 2.847-.09 5.894.938 8.344.397.957 1.071 2.548 1.048 2.984-.187.477-1.443 1.571-2.172 2.223-2.03 1.786-4.547 4.01-4.547 7.25 0 3.242 2.518 5.462 4.547 7.251.729.65 1.985 1.74 2.15 2.116.045.537-.63 2.135-1.026 3.086-1.028 2.445-2.312 5.495-.93 8.343 1.38 2.884 4.6 3.784 7.173 4.501.969.276 2.602.732 2.92 1.008.268.459.353 2.159.4 3.176.136 2.667.299 5.985 2.79 7.974 1.156.931 2.668 1.403 4.48 1.403 1.307 0 2.619-.233 3.89-.45.986-.175 1.995-.353 2.717-.353.271 0 .395.022.407.013.438.34 1.214 1.767 1.688 2.627 1.28 2.362 2.882 5.306 6.016 6.017.423.101.865.148 1.308.148 2.518 0 4.662-1.54 6.564-2.905.849-.613 2.27-1.636 2.75-1.7.547.064 1.967 1.087 2.82 1.7 1.9 1.364 4.042 2.905 6.56 2.905.446 0 .881-.047 1.307-.148 3.134-.711 4.733-3.655 6.025-6.017.473-.88 1.273-2.345 1.61-2.6 0 0 .128-.04.47-.04.724 0 1.745.176 2.726.349 1.265.22 2.58.454 3.888.454 1.807 0 3.317-.472 4.48-1.403 2.479-1.99 2.654-5.307 2.786-7.974.053-1.017.132-2.717.333-3.097.392-.355 2.014-.811 2.988-1.082 2.583-.72 5.783-1.622 7.18-4.501 1.365-2.849.093-5.899-.935-8.348-.4-.951-1.07-2.55-1.059-2.982.21-.476 1.447-1.566 2.188-2.217" transform="translate(0 3)"/>
            <path fill="#FFF" d="M119.292 93.696h-4.061l-3.488-8.684c-.78-1.933-1.807-4.855-2.347-6.89h-.07c.14 2.306.31 5.838.31 10.451v5.123h-3.906V70.828h4.077l3.523 8.958c.718 1.765 1.804 4.715 2.444 6.686h.066c-.133-2.411-.442-6.38-.442-10.588v-5.056h3.894v22.868zM133.526 93.696L123.222 93.696 123.222 70.828 133.165 70.828 133.165 74.697 127.66 74.697 127.66 79.955 132.846 79.955 132.846 83.653 127.66 83.653 127.66 89.83 133.526 89.83zM153.26 93.696h-4.578l-1.362-7.493c-.364-2.11-.706-4.722-1.015-7.5h-.067c-.41 2.745-.78 5.29-1.256 7.528l-1.525 7.465h-4.415l-3.882-22.868h4.612l1.113 9.127c.303 2.61.511 5.222.784 8.01h.088c.32-2.819.823-5.297 1.3-8.046l1.625-9.091h3.59l1.527 9.025c.408 2.58.82 5.127 1.087 8.111h.07c.302-2.984.574-5.429.888-8.077l1.11-9.059h4.34l-4.034 22.868z" transform="translate(0 3)"/>
            <path fill="#0E6DA0" d="M554.463 298.748c0 23.917-19.387 43.312-43.287 43.312-23.893 0-43.273-19.395-43.273-43.312 0-23.921 19.38-43.31 43.273-43.31 23.9 0 43.287 19.389 43.287 43.31" transform="translate(0 3)"/>
            <path stroke="#0E6DA0" stroke-width="1.798" d="M183.901 205.549L73.237 276.168" transform="translate(0 3)"/>
            <path fill="#0E6DA0" d="M30.354 272.334c0 23.918 19.389 43.313 43.288 43.313 23.894 0 43.272-19.395 43.272-43.313 0-23.92-19.378-43.31-43.272-43.31-23.9 0-43.288 19.39-43.288 43.31" transform="translate(0 3)"/>
            <path stroke="#0E6DA0" stroke-width="1.798" d="M394.794 219.215L521.466 184.838" transform="translate(0 3)"/>
            <path fill="#0E6DA0" d="M547.497 150.52c17.675 16.098 18.959 43.501 2.872 61.19-16.083 17.686-43.459 18.974-61.134 2.876-17.677-16.101-18.964-43.495-2.881-61.179 16.086-17.69 43.464-18.989 61.143-2.888" transform="translate(0 3)"/>
            <path stroke="#747374" stroke-linecap="round" stroke-linejoin="round" stroke-width="2.279" d="M430.183 118.102s-6.79-2.453-13.571 7.495" transform="translate(0 3)"/>
            <path fill="#0E6DA0" d="M287.7 46.474c0 25.519-20.673 46.21-46.17 46.21-25.502 0-46.177-20.691-46.177-46.21 0-25.523 20.675-46.212 46.177-46.212 25.497 0 46.17 20.69 46.17 46.212" transform="translate(0 3)"/>
            <path fill="#C6642F" d="M516.442 182.514c0 11.886-9.629 21.523-21.507 21.523-11.878 0-21.506-9.637-21.506-21.523 0-11.888 9.628-21.524 21.506-21.524s21.507 9.636 21.507 21.524" transform="translate(0 3)"/>
            <path fill="#FCBC80" d="M513.536 182.514c0 10.28-8.327 18.614-18.6 18.614-10.274 0-18.6-8.334-18.6-18.614 0-10.281 8.326-18.615 18.6-18.615 10.273 0 18.6 8.334 18.6 18.615" transform="translate(0 3)"/>
            <path fill="#DE8D4E" d="M510.242 182.514c0 8.46-6.852 15.318-15.307 15.318-8.453 0-15.306-6.859-15.306-15.318 0-8.46 6.853-15.319 15.306-15.319 8.455 0 15.307 6.858 15.307 15.319" transform="translate(0 3)"/>
            <path fill="#FCBC80" d="M507.535 182.514c0 6.962-5.64 12.608-12.6 12.608-6.958 0-12.6-5.646-12.6-12.608 0-6.964 5.642-12.61 12.6-12.61 6.96 0 12.6 5.646 12.6 12.61" transform="translate(0 3)"/>
            <path fill="#FCBC80" d="M507.535 182.514c0 6.962-5.64 12.608-12.6 12.608-6.958 0-12.6-5.646-12.6-12.608 0-6.964 5.642-12.61 12.6-12.61 6.96 0 12.6 5.646 12.6 12.61" transform="translate(0 3)"/>
            <path fill="#DE8D4E" d="M504.658 182.514c0 5.373-4.352 9.73-9.722 9.73-5.37 0-9.723-4.357-9.723-9.73 0-5.375 4.352-9.73 9.723-9.73 5.37 0 9.722 4.355 9.722 9.73" transform="translate(0 3)"/>
            <path fill="#FCBC80" d="M501.461 182.514c0 3.606-2.921 6.531-6.526 6.531-3.604 0-6.524-2.925-6.524-6.531 0-3.608 2.92-6.532 6.524-6.532 3.605 0 6.526 2.924 6.526 6.532" transform="translate(0 3)"/>
            <path fill="#FCBC80" d="M501.461 182.514c0 3.606-2.921 6.531-6.526 6.531-3.604 0-6.524-2.925-6.524-6.531 0-3.608 2.92-6.532 6.524-6.532 3.605 0 6.526 2.924 6.526 6.532" transform="translate(0 3)"/>
            <path fill="#F7954C" d="M498.84 182.514c0 2.157-1.749 3.906-3.904 3.906-2.156 0-3.905-1.749-3.905-3.906 0-2.159 1.749-3.907 3.905-3.907 2.155 0 3.904 1.748 3.904 3.907" transform="translate(0 3)"/>
            <path fill="#FCBC80" d="M496.03 182.514c0 .605-.49 1.095-1.095 1.095-.604 0-1.094-.49-1.094-1.095 0-.606.49-1.096 1.094-1.096.606 0 1.095.49 1.095 1.096" transform="translate(0 3)"/>
            <path fill="#C6642F" d="M561.737 184.043c0 11.888-9.63 21.524-21.508 21.524-11.877 0-21.505-9.636-21.505-21.524 0-11.886 9.628-21.523 21.505-21.523 11.879 0 21.508 9.637 21.508 21.523" transform="translate(0 3)"/>
            <path fill="#FCBC80" d="M558.83 184.043c0 10.28-8.326 18.615-18.6 18.615-10.273 0-18.6-8.335-18.6-18.615 0-10.28 8.327-18.613 18.6-18.613 10.274 0 18.6 8.333 18.6 18.613" transform="translate(0 3)"/>
            <path fill="#DE8D4E" d="M555.537 184.043c0 8.46-6.852 15.32-15.307 15.32-8.453 0-15.306-6.86-15.306-15.32s6.853-15.318 15.306-15.318c8.455 0 15.307 6.859 15.307 15.318" transform="translate(0 3)"/>
            <path fill="#FCBC80" d="M552.83 184.043c0 6.964-5.642 12.61-12.6 12.61-6.958 0-12.6-5.646-12.6-12.61 0-6.963 5.642-12.608 12.6-12.608 6.958 0 12.6 5.645 12.6 12.608" transform="translate(0 3)"/>
            <path fill="#FCBC80" d="M552.83 184.043c0 6.964-5.642 12.61-12.6 12.61-6.958 0-12.6-5.646-12.6-12.61 0-6.963 5.642-12.608 12.6-12.608 6.958 0 12.6 5.645 12.6 12.608" transform="translate(0 3)"/>
            <path fill="#F7954C" d="M549.953 184.043c0 5.375-4.352 9.73-9.723 9.73-5.37 0-9.723-4.355-9.723-9.73 0-5.373 4.353-9.73 9.723-9.73 5.37 0 9.723 4.357 9.723 9.73" transform="translate(0 3)"/>
            <path fill="#FCBC80" d="M546.756 184.043c0 3.608-2.922 6.532-6.527 6.532-3.603 0-6.525-2.924-6.525-6.532 0-3.606 2.922-6.531 6.525-6.531 3.605 0 6.527 2.925 6.527 6.531" transform="translate(0 3)"/>
            <path fill="#FCBC80" d="M546.756 184.043c0 3.608-2.922 6.532-6.527 6.532-3.603 0-6.525-2.924-6.525-6.532 0-3.606 2.922-6.531 6.525-6.531 3.605 0 6.527 2.925 6.527 6.531" transform="translate(0 3)"/>
            <path fill="#F7954C" d="M544.134 184.043c0 2.159-1.748 3.907-3.904 3.907-2.156 0-3.904-1.748-3.904-3.907 0-2.157 1.748-3.906 3.904-3.906 2.156 0 3.904 1.749 3.904 3.906" transform="translate(0 3)"/>
            <path fill="#FCBC80" d="M541.325 184.043c0 .606-.49 1.096-1.095 1.096-.604 0-1.094-.49-1.094-1.096 0-.605.49-1.094 1.094-1.094.605 0 1.095.49 1.095 1.094" transform="translate(0 3)"/>
            <path fill="#C6642F" d="M540.23 177.512c0 11.886-9.629 21.523-21.506 21.523-11.878 0-21.507-9.637-21.507-21.523s9.629-21.523 21.507-21.523c11.877 0 21.506 9.637 21.506 21.523" transform="translate(0 3)"/>
            <path fill="#FCBC80" d="M537.324 177.512c0 10.28-8.327 18.614-18.6 18.614-10.274 0-18.6-8.334-18.6-18.614 0-10.28 8.326-18.614 18.6-18.614 10.273 0 18.6 8.334 18.6 18.614" transform="translate(0 3)"/>
            <path fill="#DE8D4E" d="M534.03 177.512c0 8.46-6.852 15.318-15.306 15.318-8.454 0-15.307-6.859-15.307-15.318 0-8.46 6.853-15.318 15.307-15.318s15.306 6.859 15.306 15.318" transform="translate(0 3)"/>
            <path fill="#FCBC80" d="M531.323 177.512c0 6.963-5.64 12.608-12.598 12.608-6.96 0-12.601-5.645-12.601-12.608 0-6.963 5.641-12.61 12.6-12.61s12.6 5.647 12.6 12.61" transform="translate(0 3)"/>
            <path fill="#FCBC80" d="M531.323 177.512c0 6.963-5.64 12.608-12.598 12.608-6.96 0-12.601-5.645-12.601-12.608 0-6.963 5.641-12.61 12.6-12.61s12.6 5.647 12.6 12.61" transform="translate(0 3)"/>
            <path fill="#DE8D4E" d="M528.446 177.512c0 5.373-4.352 9.73-9.721 9.73-5.372 0-9.724-4.357-9.724-9.73s4.352-9.73 9.724-9.73c5.37 0 9.721 4.357 9.721 9.73" transform="translate(0 3)"/>
            <path fill="#FCBC80" d="M525.25 177.512c0 3.606-2.922 6.532-6.526 6.532-3.605 0-6.525-2.926-6.525-6.532s2.92-6.532 6.525-6.532c3.604 0 6.525 2.926 6.525 6.532" transform="translate(0 3)"/>
            <path fill="#FCBC80" d="M525.25 177.512c0 3.606-2.922 6.532-6.526 6.532-3.605 0-6.525-2.926-6.525-6.532s2.92-6.532 6.525-6.532c3.604 0 6.525 2.926 6.525 6.532" transform="translate(0 3)"/>
            <path fill="#DE8D4E" d="M522.628 177.512c0 2.157-1.749 3.906-3.903 3.906-2.157 0-3.906-1.749-3.906-3.906s1.749-3.906 3.906-3.906c2.154 0 3.903 1.749 3.903 3.906" transform="translate(0 3)"/>
            <path fill="#FCBC80" d="M519.818 177.512c0 .606-.49 1.096-1.094 1.096-.605 0-1.095-.49-1.095-1.096 0-.606.49-1.096 1.095-1.096s1.094.49 1.094 1.096" transform="translate(0 3)"/>
            <path fill="#E6E6E6" d="M554.237 211.397c0 2.741-2.22 4.963-4.96 4.963h-59.396c-2.74 0-4.96-2.222-4.96-4.963 0-2.742 2.22-4.964 4.96-4.964h59.397c2.739 0 4.96 2.222 4.96 4.964" transform="translate(0 3)"/>
            <g transform="translate(0 3) translate(461.108 176.335)">
                <mask id="prefix__b" fill="#fff">
                    <use xlink:href="#prefix__a"/>
                </mask>
                <path fill="#E6E6E6" d="M.073.173c2.522 29.788 27.703 35.79 58.398 35.79 30.697 0 55.877-6.002 58.4-35.79H.073z" mask="url(#prefix__b)"/>
            </g>
            <g transform="translate(0 3) translate(461.108 176.335)">
                <mask id="prefix__d" fill="#fff">
                    <use xlink:href="#prefix__c"/>
                </mask>
                <path fill="#E6E6E6" d="M.073.173c2.522 29.788 27.703 35.79 58.398 35.79 30.697 0 55.877-6.002 58.4-35.79H.073z" mask="url(#prefix__d)"/>
            </g>
            <g transform="translate(0 3) translate(519.02 176.335)">
                <mask id="prefix__f" fill="#fff">
                    <use xlink:href="#prefix__e"/>
                </mask>
                <path fill="#DBD7D6" d="M.56.173v35.79c30.696 0 55.877-6.002 58.399-35.79H.559z" mask="url(#prefix__f)"/>
            </g>
            <path fill="#DBD7D6" d="M519.58 212.3v4.06h29.698c2.74 0 4.96-2.222 4.96-4.963 0-1.238-.456-2.367-1.206-3.237-9.485 3.154-21.016 4.14-33.453 4.14" transform="translate(0 3)"/>
            <path fill="#E6E6E6" d="M495.454 176.412c-2.193 5-9.77 6.508-16.922 3.366-7.153-3.142-11.174-9.742-8.981-14.743 2.193-5.003 9.77-6.508 16.922-3.367 7.154 3.142 11.174 9.742 8.98 14.744" transform="translate(0 3)"/>
            <path fill="#F1BF74" d="M492.245 170.619c-1.135 2.588-5.468 3.189-9.677 1.34-4.21-1.849-6.7-5.446-5.566-8.036 1.136-2.588 5.47-3.188 9.678-1.34 4.21 1.849 6.7 5.446 5.565 8.036" transform="translate(0 3)"/>
            <path fill="#8CC63F" d="M540.51 174.25s1.953-.648 3.991-.653c2.038-.006 1.263.836 3.588 0 2.324-.836 2.111-2.955 4.355-1.399 2.243 1.555 2.997 2.783 4.583.418.348-.516 1.427-.75 2.59-.11 1.163.638.076 1.596 2.024 1.53 1.948-.068 2.432-1.658 3.112-.636.677 1.021 4.261.51 4.261.51l1.55 2.517h-29.668l-.387-2.177z" transform="translate(0 3)"/>
            <path fill="#68A73A" d="M540.51 174.25s2.473-.648 4.3-.653c1.824-.006 1.13.836 3.214 0 2.083-.836 2.875-2.92 3.068-1.474.273 2.035 3.52 2.858 4.942.493.31-.516 1.279-.75 2.32-.11 1.042.638-.386 2.076 1.36 2.008 1.746-.066 5.023-2.447 4.398-1.429-1.492 2.422 2.663.826 2.663.826l1.39 2.516h-27.269l-.387-2.177z" transform="translate(0 3)"/>
            <path fill="#C6642F" d="M513.536 159.037L516.442 159.037 516.442 130.948 513.536 130.948zM518.126 159.037L521.032 159.037 521.032 130.948 518.126 130.948zM523.471 159.037L526.377 159.037 526.377 130.948 523.471 130.948z" transform="translate(0 3)"/>
            <path fill="#FCBC80" d="M564.094 111.057l-52.674 18.997.778 1.566 55.066-18.049c-1.035-.865-2.09-1.706-3.17-2.514" transform="translate(0 3)"/>
            <path fill="#FCBC80" d="M572.376 118.265l-60.024 12.937.563 1.655 62.333-11.527c-.93-1.047-1.886-2.07-2.872-3.065" transform="translate(0 3)"/>
            <path fill="#C6642F" d="M512.353 129.718L513.536 132.743 516.442 132.205 514.827 128.827zM517.413 130.112L518.125 131.893 521.033 131.357 520.151 129.522zM522.668 128.979L523.433 130.947 526.378 130.947 526.378 130.368 525.575 128.353z" transform="translate(0 3)"/>
            <path fill="#2CABAE" d="M565.727 269.187c-.902 0-1.634-.733-1.634-1.636V253.35c0-1.837-.504-3.345-1.456-4.361-.789-.84-1.85-1.304-2.988-1.304-2.163 0-4.489 1.773-4.489 5.665v14.202c0 .903-.732 1.636-1.635 1.636-.902 0-1.634-.733-1.634-1.636V253.35c0-5.867 3.902-8.935 7.758-8.935 3.832 0 7.713 3.068 7.713 8.935v14.202c0 .903-.732 1.636-1.635 1.636" transform="translate(0 3)"/>
            <path fill="#F2EED1" d="M568.585 274.257h1.693v-6.415h-21.302v6.415h1.691l-6.796 55.858h3.616c4.242 0 9.708-2.132 12.14-4.82 2.414 2.712 7.896 4.82 12.139 4.82h3.615l-6.796-55.858z" transform="translate(0 3)"/>
            <path fill="#C6C29B" d="M570.277 274.257v-6.415h-10.651v57.454c2.415 2.71 7.897 4.819 12.14 4.819h3.615l-6.796-55.858h1.692z" transform="translate(0 3)"/>
            <path fill="#187E89" d="M507.95 267.696c-.903 0-1.636-.732-1.636-1.635v-6.884c0-3.56-1.218-6.527-3.526-8.582-2.063-1.837-4.86-2.85-7.877-2.85-5.505 0-11.43 3.577-11.43 11.432v6.884c0 .903-.731 1.635-1.634 1.635-.902 0-1.634-.732-1.634-1.635v-6.884c0-9.652 7.395-14.703 14.698-14.703 3.82 0 7.388 1.305 10.052 3.678 3.022 2.694 4.62 6.504 4.62 11.025v6.884c0 .903-.731 1.635-1.634 1.635" transform="translate(0 3)"/>
        </g>
        <path fill="url(#prefix__g)" d="M479 333L530 333 530 270 479 270z"/>
        <g>
            <path fill="#BF423C" d="M0.82 63.599L10.928 63.599 10.928 0.625 0.82 0.625z" transform="translate(469 270)"/>
            <path fill="#C6C29B" d="M.83 12.9c.91 1.862 2.83 3.145 5.05 3.145 2.22 0 4.14-1.282 5.048-3.143V.626H.821v12.247l.008.028z" transform="translate(469 270)"/>
        </g>
        <g transform="translate(479 268)">
            <mask id="prefix__j" fill="#fff">
                <use xlink:href="#prefix__h"/>
            </mask>
            <path fill="url(#prefix__i)" d="M.019.653V13.48v-.001c.923 1.943 2.87 3.285 5.121 3.285 2.253 0 4.2-1.342 5.122-3.285.921 1.943 2.869 3.285 5.121 3.285 2.252 0 4.199-1.342 5.12-3.285.923 1.943 2.87 3.285 5.122 3.285 2.251 0 4.198-1.342 5.12-3.285.923 1.943 2.87 3.285 5.12 3.285 2.253 0 4.2-1.342 5.122-3.285.922 1.943 2.869 3.285 5.122 3.285 2.251 0 4.196-1.34 5.119-3.283V.653H.018z" mask="url(#prefix__j)"/>
        </g>
        <path fill="#F5C268" d="M511 310L551 310 551 299 511 299z"/>
        <path fill="url(#prefix__k)" d="M513 333L548 333 548 310 513 310z"/>
        <path fill="url(#prefix__l)" d="M527 333L534 333 534 310 527 310z"/>
        <path fill="#F2EED1" d="M527 310L534 310 534 299 527 299z"/>
        <g transform="translate(530 291)">
            <mask id="prefix__o" fill="#fff">
                <use xlink:href="#prefix__m"/>
            </mask>
            <path fill="url(#prefix__n)" d="M5.42.269C3.946 1-.331 5.079.617 7.026c.948 1.945 6.762 1.02 8.234.29 1.474-.733 1.57-2.738.623-4.684C8.723 1.09 7.54.048 6.346.048c-.31 0-.622.07-.926.22" mask="url(#prefix__o)"/>
        </g>
        <g transform="translate(520 291)">
            <mask id="prefix__r" fill="#fff">
                <use xlink:href="#prefix__p"/>
            </mask>
            <path fill="url(#prefix__q)" d="M1.23 2.632c-.947 1.946-.852 3.951.622 4.684 1.473.73 7.286 1.655 8.234-.29C11.034 5.079 6.757 1 5.284.269 4.98.119 4.668.048 4.357.048c-1.192 0-2.376 1.04-3.127 2.584" mask="url(#prefix__r)"/>
        </g>
        <g>
            <path fill="#2CABAE" d="M183.983 229.81c-.898 0-1.627-.734-1.627-1.639v-13.77c0-3.564-1.214-6.537-3.51-8.594-2.053-1.842-4.84-2.855-7.841-2.855-5.48 0-11.379 3.583-11.379 11.45v13.77c0 .904-.728 1.638-1.627 1.638s-1.626-.734-1.626-1.639v-13.77c0-9.668 7.36-14.727 14.632-14.727 3.8 0 7.354 1.31 10.005 3.686 3.01 2.697 4.6 6.515 4.6 11.042v13.77c0 .904-.728 1.638-1.627 1.638" transform="translate(332 48)"/>
            <path fill="#A00B0F" d="M32.559 49.482c-8.83 0-15.986-7.21-15.986-16.1 0-8.887 7.157-16.093 15.986-16.093 8.834 0 15.98 7.206 15.98 16.093 0 8.89-7.146 16.1-15.98 16.1m0-48.528C14.773.954.352 15.47.352 33.382c0 17.917 32.207 45.563 32.207 45.563s32.197-27.646 32.197-45.563C64.756 15.47 50.346.954 32.56.954" transform="translate(332 48)"/>
            <path fill="#FFF" d="M32.559 49.482c-8.83 0-15.986-7.21-15.986-16.1 0-8.887 7.157-16.093 15.986-16.093 8.834 0 15.98 7.206 15.98 16.093 0 8.89-7.146 16.1-15.98 16.1" transform="translate(332 48)"/>
            <path fill="#D1ECFB" d="M32.559 17.29c8.834 0 15.98 7.204 15.98 16.091 0 8.891-7.146 16.101-15.98 16.101" transform="translate(332 48)"/>
        </g>
        <path fill="url(#prefix__s)" d="M202 75L276 75 276 6 202 6z"/>
        <g>
            <path fill="#3E2F3C" d="M0.372 19.182L66.743 19.182 66.743 0.498 0.372 0.498z" transform="translate(206 56)"/>
            <path fill="#D89144" d="M49.334 6.464c4.914 0 9.064 3.483 10.168 8.134-3.002 1.59-5.158 4.612-5.573 8.156h-9.193c-.413-3.544-2.571-6.567-5.571-8.156 1.102-4.65 5.254-8.134 10.169-8.134M19.374 6.464c4.915 0 9.066 3.483 10.169 8.134-3.002 1.588-5.159 4.612-5.573 8.156h-9.192c-.415-3.544-2.572-6.567-5.573-8.156 1.104-4.65 5.254-8.134 10.17-8.134" transform="translate(206 56)"/>
        </g>
        <g transform="translate(259 69)">
            <mask id="prefix__v" fill="#fff">
                <use xlink:href="#prefix__t"/>
            </mask>
            <path fill="url(#prefix__u)" d="M.918 11.327v4.658H22.11v-4.658C22.11 5.246 17.343.27 11.515.27 5.686.27.918 5.245.918 11.327" mask="url(#prefix__v)"/>
        </g>
        <g transform="translate(230 69)">
            <mask id="prefix__y" fill="#fff">
                <use xlink:href="#prefix__w"/>
            </mask>
            <path fill="url(#prefix__x)" d="M.12 11.327v4.658h20.318v-4.658C20.438 5.246 15.868.27 10.28.27 4.69.27.12 5.245.12 11.327" mask="url(#prefix__y)"/>
        </g>
        <g transform="translate(199 69)">
            <mask id="prefix__B" fill="#fff">
                <use xlink:href="#prefix__z"/>
            </mask>
            <path fill="url(#prefix__A)" d="M.41 11.327v4.658h20.32v-4.658C20.73 5.245 16.158.27 10.57.27S.41 5.245.41 11.327" mask="url(#prefix__B)"/>
        </g>
        <g transform="translate(227 8)">
            <mask id="prefix__E" fill="#fff">
                <use xlink:href="#prefix__C"/>
            </mask>
            <path fill="url(#prefix__D)" d="M13.83 5.28c-3.54 0-6.606-2.04-8.088-5.012C4.695 2.365 2.857 4.002.62 4.78c2.798 4.34 7.669 7.215 13.21 7.215 5.54 0 10.411-2.875 13.212-7.215-2.24-.78-4.077-2.416-5.124-4.513C20.437 3.239 17.37 5.28 13.83 5.28" mask="url(#prefix__E)"/>
        </g>
        <g transform="translate(254 8)">
            <mask id="prefix__H" fill="#fff">
                <use xlink:href="#prefix__F"/>
            </mask>
            <path fill="url(#prefix__G)" d="M19.07 5.317c-3.526 0-6.58-2.055-8.054-5.048-1.476 2.993-4.53 5.048-8.057 5.048-.804 0-1.586-.108-2.328-.31 1.927 12.969 9.06 24.209 19.171 31.47-4.221 7.64-6.75 16.371-7.065 25.672 1.225-.516 2.565-.8 3.97-.8 5.73 0 10.419 4.75 10.419 10.554V.269c-1.476 2.993-4.529 5.048-8.056 5.048" mask="url(#prefix__H)"/>
        </g>
        <g transform="translate(199 8)">
            <mask id="prefix__K" fill="#fff">
                <use xlink:href="#prefix__I"/>
            </mask>
            <path fill="url(#prefix__J)" d="M8.51 5.317C4.97 5.317 1.903 3.262.422.27v71.623c.007-5.8 4.712-10.544 10.463-10.544 1.41 0 2.757.285 3.986.801-.318-9.301-2.855-18.032-7.093-25.671 10.153-7.262 17.314-18.502 19.249-31.47-.746.201-1.53.31-2.34.31-3.54 0-6.606-2.056-8.088-5.049-1.482 2.993-4.547 5.048-8.089 5.048" mask="url(#prefix__K)"/>
        </g>
        <g transform="translate(199)">
            <mask id="prefix__N" fill="#fff">
                <use xlink:href="#prefix__L"/>
            </mask>
            <path fill="url(#prefix__M)" d="M.434.861l-.008 6.99c1.496 2.971 4.592 5.013 8.169 5.013 3.577 0 6.672-2.042 8.169-5.013 1.496 2.971 4.592 5.013 8.168 5.013 3.576 0 6.672-2.042 8.17-5.013 1.496 2.971 4.592 5.013 8.168 5.013 3.575 0 6.672-2.042 8.169-5.013 1.497 2.971 4.592 5.013 8.167 5.013 3.578 0 6.672-2.042 8.17-5.013 1.496 2.971 4.593 5.013 8.168 5.013 3.577 0 6.673-2.042 8.17-5.013V.867L.434.86z" mask="url(#prefix__N)"/>
        </g>
        <g transform="translate(60)">
            <mask id="prefix__P" fill="#fff">
                <use xlink:href="#prefix__O"/>
            </mask>
            <path fill="#D89144" d="M139.321 5.351L220.309 5.351 220.309 0.869 139.321 0.869z" mask="url(#prefix__P)"/>
            <path fill="#E1DEB4" d="M213.571 46.408h7.542V41.78h-7.542c-1.277 0-2.314 1.037-2.314 2.314v.001c0 1.278 1.037 2.314 2.314 2.314M146.855 41.779h-7.542v4.629h7.542c1.278 0 2.315-1.037 2.315-2.314v-.001c0-1.278-1.037-2.314-2.315-2.314" mask="url(#prefix__P)"/>
            <path fill="#C6C29B" d="M.848 256.494L19.152 256.494 19.152 250.939.848 250.939zM19.152 256.494L37.456 256.494 37.456 250.939 19.152 250.939z" mask="url(#prefix__P)"/>
        </g>
        <g transform="translate(54 218.5)">
            <mask id="prefix__S" fill="#fff">
                <use xlink:href="#prefix__Q"/>
            </mask>
            <path fill="url(#prefix__R)" d="M17.499 5.616c-1.29-3.253-4.48-5.56-8.217-5.56C4.402.056.444 3.981.444 8.822c0 4.203 2.985 7.712 6.966 8.563v19.519h20.482V17.307c3.826-.961 6.66-4.392 6.66-8.485 0-4.841-3.955-8.766-8.836-8.766-3.737 0-6.925 2.307-8.217 5.56" mask="url(#prefix__S)"/>
        </g>
        <g>
            <path fill="#E1DEB4" d="M81.476 89.517c0-4.88-3.952-8.834-8.827-8.834-3.273 0-6.125 1.789-7.65 4.437-1.49-2.764-4.41-4.643-7.77-4.643V117.615h18.288v-19.75c3.466-1.193 5.96-4.475 5.96-8.348" transform="translate(22 135)"/>
            <path fill="#8EADBE" d="M61.447 137.162c0 2.608-2.112 4.72-4.718 4.72s-4.716-2.112-4.716-4.72c0-2.608 2.11-4.722 4.716-4.722 2.606 0 4.718 2.114 4.718 4.722" transform="translate(22 135)"/>
            <path fill="#B1C3D0" d="M56.729 138.34c1.512 0 2.997.114 4.45.327.161-.475.269-.976.269-1.505 0-2.608-2.112-4.722-4.718-4.722s-4.717 2.114-4.717 4.722c0 .529.106 1.03.267 1.505 1.454-.213 2.937-.327 4.449-.327" transform="translate(22 135)"/>
            <path fill="#8EADBE" d="M61.447 137.162c0-2.608-2.112-4.722-4.718-4.722v9.442c2.606 0 4.718-2.112 4.718-4.72" transform="translate(22 135)"/>
            <path fill="#34485C" d="M92.112 172.572H21.347c-1.302 0-2.359 1.058-2.359 2.361 0 1.304 1.057 2.36 2.36 2.36h70.764c1.303 0 2.36-1.056 2.36-2.36 0-1.303-1.057-2.36-2.36-2.36" transform="translate(22 135)"/>
            <path fill="#B1C3D0" d="M87.395 170.211v-.007c-.006-16.92-13.76-30.682-30.666-30.682-16.91 0-30.666 13.767-30.666 30.69 0 1.304-.002 2.36.002 2.36h61.33c.004 0 0-2.035 0-2.36" transform="translate(22 135)"/>
            <path fill="#8EADBE" d="M56.73 139.522v33.05h30.664c.004 0 0-2.035 0-2.361v-.007c-.004-16.919-13.758-30.681-30.664-30.682" transform="translate(22 135)"/>
            <path fill="#576D7E" d="M92.112 172.572H21.347c-1.302 0-2.359 1.058-2.359 2.361h75.483c0-1.303-1.056-2.36-2.359-2.36" transform="translate(22 135)"/>
            <path fill="#B1C3D0" d="M16.924 114.586c-1.071 0-.97.87-.97 1.943l.002 15.272c-.024.953-.69 1.82-1.632 1.966-1.205.188-2.248-.744-2.25-1.914l-.972-15.325c0-1.072.101-1.942-.97-1.942-1.073 0-.972.87-.972 1.943l-.97 15.314-.007.06c-.094.939-.784 1.776-1.722 1.877-1.164.126-2.151-.787-2.154-1.927l.002-15.325c0-1.072.102-1.942-.97-1.942h-.001c-1.072 0-.97.87-.97 1.943L.423 131.843v.977c0 3.126 1.483 5.911 3.782 7.69 1.9 1.469 3.013 3.734 3.013 6.136l-.97 27.205c0 1.58 2.15 2.828 3.725 2.911 1.68.088 4.04-1.248 4.04-2.91l-.97-27.205c0-2.402 1.113-4.668 3.013-6.138 2.3-1.778 3.783-4.563 3.783-7.69l-1.945-16.291c0-1.072.101-1.942-.97-1.942M113.036 116.214c0-.899-.729-1.628-1.628-1.628-2.523 0-5.017.844-6.875 2.553-2.024 1.865-3.146 4.427-3.146 7.16v19.433c0 2.147 1.739 3.888 3.883 3.888 1.073 0 1.941.869 1.941 1.942l-.971 24.126c0 1.577 2.152 2.992 3.726 3.075 1.68.087 3.07-1.25 3.07-2.911v-57.637z" transform="translate(22 135)"/>
            <path fill="#8EADBE" d="M.423 132.82c0 3.126 1.484 5.911 3.783 7.69 1.9 1.469 3.013 3.733 3.013 6.137l-.38 10.654 6.729 4.04-.525-14.693c0-2.404 1.114-4.67 3.014-6.139.005-.003.009-.008.013-.012L.51 131.155l-.087.688v.977zM4.307 130.519L4.308 126.633 1.313 124.835.855 128.446zM19.39 135.691l-4.063-2.44c-.27.265-.61.455-1.003.516-1.205.188-2.248-.743-2.251-1.914l-.036-.579-3.671-2.204-.175 2.773-.007.06c-.028.283-.117.552-.243.8l9.924 5.958c.67-.886 1.189-1.886 1.525-2.97M113.036 132.463L101.387 125.468 101.387 129.353 113.036 136.349zM6.248 173.852c0 1.578 2.151 2.827 3.727 2.91 1.68.088 4.04-1.248 4.04-2.91l-.34-9.532-6.938-4.166-.49 13.698zM101.387 132.269v11.463c0 2.146 1.738 3.887 3.883 3.887 1.072 0 1.942.87 1.942 1.942l-.337 8.35 6.162 3.698V139.263l-11.65-6.994zM106.76 160.756l-.52 12.931c0 1.578 2.152 2.993 3.726 3.076 1.68.088 3.07-1.25 3.07-2.91v-9.328l-6.276-3.769z" transform="translate(22 135)"/>
            <path fill="#175F6C" d="M159.043 139.916L375.886 139.916 375.886 0.987 159.043 0.987z" transform="translate(22 135)"/>
            <path fill="#1C7685" d="M149.891 157.979L385.038 157.979 385.038 17.257 149.891 17.257z" transform="translate(22 135)"/>
            <path fill="#F8E482" d="M140.434 174.252L394.494 174.252 394.494 33.532 140.434 33.532z" transform="translate(22 135)"/>
        </g>
        <g transform="translate(226 175)">
            <mask id="prefix__U" fill="#fff">
                <use xlink:href="#prefix__T"/>
            </mask>
            <path fill="#FFF" d="M-0.418 128.538L127.257 128.538 127.257 -0.614 -0.418 -0.614z" mask="url(#prefix__U)"/>
        </g>
        <g transform="translate(372 228)">
            <mask id="prefix__W" fill="#fff">
                <use xlink:href="#prefix__V"/>
            </mask>
            <path fill="#2EAAAD" d="M-0.297 23.946L24.568 23.946 24.568 -1.022 -0.297 -1.022z" mask="url(#prefix__W)"/>
        </g>
        <g transform="translate(373 168)">
            <mask id="prefix__Y" fill="#fff">
                <use xlink:href="#prefix__X"/>
            </mask>
            <path fill="#1D899B" d="M-0.502 44.865L45.256 44.865 45.256 -1.016 -0.502 -1.016z" mask="url(#prefix__Y)"/>
        </g>
        <g transform="translate(373 266)">
            <mask id="prefix__aa" fill="#fff">
                <use xlink:href="#prefix__Z"/>
            </mask>
            <path fill="#1D899B" d="M-0.502 44.939L45.256 44.939 45.256 -0.943 -0.502 -0.943z" mask="url(#prefix__aa)"/>
        </g>
        <path fill="#2EAAAD" d="M194 228c6.071 0 11 4.93 11 11.003 0 6.072-4.929 10.997-11 10.997-6.07 0-11-4.925-11-10.997S187.93 228 194 228"/>
        <g transform="translate(162 266)">
            <mask id="prefix__ac" fill="#fff">
                <use xlink:href="#prefix__ab"/>
            </mask>
            <path fill="#1D899B" d="M-0.417 44.939L45.341 44.939 45.341 -0.943 -0.417 -0.943z" mask="url(#prefix__ac)"/>
        </g>
        <g transform="translate(162 168)">
            <mask id="prefix__ae" fill="#fff">
                <use xlink:href="#prefix__ad"/>
            </mask>
            <path fill="#1D899B" d="M0.74 -0.297L46.77 -0.34 46.77 45.542 0.681 45.934z" mask="url(#prefix__ae)"/>
        </g>
        <g>
            <path fill="#AD4A90" d="M110.059 29.984c-.008-1.224-.448-2.255-1.323-3.096-.874-.837-2.341-1.599-4.413-2.27-2.873-.854-4.977-1.977-6.3-3.362-1.319-1.4-1.982-3.167-1.993-5.317-.01-2.191.627-3.987 1.914-5.399 1.28-1.408 3.043-2.246 5.3-2.52l-.017-4.39 3.016-.01.02 4.404c2.266.3 4.035 1.226 5.303 2.8 1.27 1.574 1.906 3.73 1.92 6.469l-3.724.016c-.008-1.893-.469-3.394-1.374-4.5-.912-1.105-2.13-1.662-3.667-1.658-1.61.008-2.835.425-3.683 1.253-.849.829-1.27 1.978-1.263 3.45.006 1.367.457 2.445 1.36 3.26.9.8 2.383 1.534 4.442 2.18 2.06.662 3.672 1.38 4.827 2.174 1.157.789 2.007 1.71 2.566 2.761.543 1.054.824 2.288.833 3.705.01 2.255-.668 4.078-2.033 5.456-1.366 1.38-3.28 2.205-5.75 2.472l.02 3.822-2.998.01-.018-3.82c-2.509-.224-4.48-1.1-5.91-2.636-1.43-1.54-2.15-3.628-2.16-6.267l3.745-.014c.004 1.856.504 3.278 1.492 4.282.989 1 2.388 1.492 4.196 1.484 1.768-.007 3.16-.44 4.167-1.284 1.006-.844 1.512-1.997 1.505-3.455M140.89 29.903c-.004-2.187-.717-3.966-2.13-5.337-1.406-1.378-3.247-2.06-5.513-2.048-2.258.01-4.072.693-5.436 2.066-1.361 1.36-2.035 3.157-2.03 5.381.014 2.216.684 3.973 2.023 5.237 1.33 1.26 3.184 1.898 5.562 1.886 2.354-.007 4.199-.656 5.535-1.94 1.331-1.295 2.001-3.048 1.99-5.245m-7.656-24.899c-1.973.011-3.573.615-4.793 1.833-1.215 1.22-1.822 2.862-1.814 4.943.008 1.987.618 3.6 1.832 4.817 1.203 1.226 2.818 1.83 4.83 1.824 2.01-.008 3.617-.627 4.813-1.863 1.197-1.228 1.794-2.845 1.785-4.83-.006-1.997-.638-3.617-1.895-4.863-1.254-1.255-2.838-1.868-4.758-1.86m11.681 6.626c.008 1.948-.505 3.687-1.54 5.221-1.03 1.52-2.435 2.728-4.21 3.587 2.07.873 3.706 2.142 4.926 3.828 1.207 1.675 1.815 3.592 1.826 5.72.016 3.392-1.131 6.099-3.431 8.112-2.299 2.017-5.335 3.031-9.102 3.049-3.807.016-6.858-.976-9.16-2.99-2.303-2.005-3.457-4.694-3.473-8.065-.009-2.12.575-4.034 1.734-5.738 1.162-1.713 2.775-3.01 4.836-3.886-1.764-.85-3.153-2.039-4.171-3.564-1.024-1.526-1.54-3.252-1.547-5.181-.016-3.305 1.045-5.925 3.173-7.869 2.133-1.948 4.943-2.922 8.441-2.938 3.474-.016 6.296.938 8.447 2.869 2.15 1.93 3.236 4.541 3.251 7.845M170.499 16.932c-.018-4.22-.628-7.293-1.832-9.21-1.202-1.92-3.1-2.877-5.69-2.866-2.576.007-4.446.98-5.613 2.897-1.168 1.925-1.767 4.877-1.78 8.856l.032 7.954c.019 4.24.647 7.363 1.9 9.372 1.247 2.008 3.128 3.012 5.646 3.001 2.484-.008 4.323-.963 5.517-2.874 1.202-1.899 1.82-4.899 1.855-8.984l-.035-8.146zm5.055 6.78c.022 5.824-.966 10.163-2.96 12.998-2.001 2.844-5.14 4.27-9.415 4.286-4.22.02-7.353-1.351-9.388-4.115-2.041-2.761-3.112-6.902-3.205-12.39l-.028-6.645c-.02-5.758.964-10.045 2.96-12.842 2.005-2.815 5.15-4.22 9.441-4.235 4.26-.019 7.396 1.316 9.417 4.01 2.02 2.684 3.073 6.84 3.148 12.477l.03 6.455zM199.829 16.783c-.018-4.22-.626-7.291-1.832-9.21-1.207-1.921-3.104-2.878-5.69-2.866-2.575.008-4.446.98-5.613 2.897-1.172 1.92-1.771 4.876-1.784 8.856l.037 7.955c.018 4.24.646 7.363 1.899 9.372 1.247 2.007 3.128 3.013 5.647 3 2.483-.008 4.322-.962 5.516-2.873 1.197-1.896 1.815-4.9 1.85-8.986l-.03-8.145zm5.056 6.78c.026 5.826-.96 10.16-2.965 12.997-1.997 2.845-5.136 4.271-9.41 4.288-4.22.015-7.353-1.357-9.394-4.117-2.036-2.76-3.107-6.901-3.199-12.392l-.023-6.646c-.025-5.758.958-10.04 2.954-12.838 2.005-2.814 5.144-4.22 9.442-4.235 4.255-.02 7.396 1.312 9.419 4.006 2.018 2.684 3.07 6.845 3.15 12.482l.026 6.455z" transform="translate(140 218)"/>
            <path fill="#D0D2D3" d="M287.447 149.36H12.393c-6.664 0-12.065-5.363-12.065-11.977v-23.61c0-6.614 5.401-11.977 12.065-11.977h275.054c6.662 0 12.064 5.363 12.064 11.977v23.61c0 6.614-5.402 11.977-12.064 11.977" transform="translate(140 218)"/>
            <path fill="#FFF" d="M287.447 145.435H12.393c-6.664 0-12.065-5.363-12.065-11.977v-23.61c0-6.614 5.401-11.977 12.065-11.977h275.054c6.662 0 12.064 5.363 12.064 11.977v23.61c0 6.614-5.402 11.977-12.064 11.977" transform="translate(140 218)"/>
            <path fill="#FFF" d="M161.213 97.871L149.663 109.338 138.111 97.871 149.663 86.403z" transform="translate(140 218)"/>
        </g>
        <text fill="#0E6DA0" font-family="PingFangTC-Semibold, PingFang TC" font-size="24" font-weight="500" letter-spacing=".1">
            <tspan x="158.95" y="351">藝文、商圈、夜市、餐飲</tspan>
        </text>
    </g>
</svg>
