<?xml version="1.0" encoding="UTF-8"?>
<svg width="376px" height="247px" viewBox="0 0 376 247" version="1.1" xmlns="http://www.w3.org/2000/svg" xmlns:xlink="http://www.w3.org/1999/xlink">
    <!-- Generator: Sketch 61.1 (89650) - https://sketch.com -->
    <title>Group 10 outline</title>
    <desc>Created with Sketch.</desc>
    <defs>
        <polygon id="path-1" points="0 0.1975 297.7427 0.1975 297.7427 178.7505 0 178.7505"></polygon>
        <polygon id="path-3" points="0.361 0.5384 42.72 0.5384 42.72 42.8894 0.361 42.8894"></polygon>
        <polygon id="path-5" points="0.314 0.927 181.429 0.927 181.429 182.0014 0.314 182.0014"></polygon>
        <polygon id="path-7" points="0 247.073 375.72 247.073 375.72 1 0 1"></polygon>
    </defs>
    <g id="懶人包" stroke="none" stroke-width="1" fill="none" fill-rule="evenodd">
        <g id="小資振興_懶人包_600藝fun" transform="translate(-1136.000000, -1139.000000)">
            <g id="Group-10-outline" transform="translate(1136.000000, 1138.000000)">
                <g id="Group-76">
                    <g id="Group-3" transform="translate(0.000000, 2.073000)">
                        <mask id="mask-2" fill="white">
                            <use xlink:href="#path-1"></use>
                        </mask>
                        <g id="Clip-2"></g>
                        <path d="M269.4257,178.7505 L28.3187,178.7505 C12.6787,178.7505 -0.0003,166.0725 -0.0003,150.4335 L-0.0003,28.5165 C-0.0003,12.8765 12.6787,0.1975 28.3187,0.1975 L269.4257,0.1975 C285.0657,0.1975 297.7427,12.8765 297.7427,28.5165 L297.7427,150.4335 C297.7427,166.0725 285.0657,178.7505 269.4257,178.7505" id="Fill-1" fill="#D2E7ED" mask="url(#mask-2)"></path>
                    </g>
                    <path d="M51.6054,29.4173 C51.6054,37.6483 44.9324,44.3213 36.7014,44.3213 C28.4694,44.3213 21.7964,37.6483 21.7964,29.4173 C21.7964,21.1863 28.4694,14.5133 36.7014,14.5133 C44.9324,14.5133 51.6054,21.1863 51.6054,29.4173" id="Fill-4" fill="#FFFFFF"></path>
                    <path d="M51.6054,29.4173 C51.6054,37.6483 44.9324,44.3213 36.7014,44.3213 C28.4694,44.3213 21.7964,37.6483 21.7964,29.4173 C21.7964,21.1863 28.4694,14.5133 36.7014,14.5133 C44.9324,14.5133 51.6054,21.1863 51.6054,29.4173 Z" id="Stroke-6" stroke="#BD8A39"></path>
                    <path d="M48.8574,29.3187 C48.8574,36.0327 43.4154,41.4747 36.7014,41.4747 C29.9874,41.4747 24.5454,36.0327 24.5454,29.3187 C24.5454,22.6047 29.9874,17.1627 36.7014,17.1627 C43.4154,17.1627 48.8574,22.6047 48.8574,29.3187" id="Fill-8" fill="#006DBB"></path>
                    <path d="M48.8574,29.3187 C48.8574,36.0327 43.4154,41.4747 36.7014,41.4747 C29.9874,41.4747 24.5454,36.0327 24.5454,29.3187 C24.5454,22.6047 29.9874,17.1627 36.7014,17.1627 C43.4154,17.1627 48.8574,22.6047 48.8574,29.3187 Z" id="Stroke-10" stroke="#BD8A39" stroke-width="0.816"></path>
                    <g id="Group-16" transform="translate(29.000000, 21.073000)">
                        <path d="M15.3495,8.2457 C15.3495,12.4707 11.9255,15.8937 7.7015,15.8937 C3.4775,15.8937 0.0525,12.4707 0.0525,8.2457 C0.0525,4.0217 3.4775,0.5977 7.7015,0.5977 C11.9255,0.5977 15.3495,4.0217 15.3495,8.2457" id="Fill-12" fill="#FFFFFF"></path>
                        <path d="M15.3495,8.2457 C15.3495,12.4707 11.9255,15.8937 7.7015,15.8937 C3.4775,15.8937 0.0525,12.4707 0.0525,8.2457 C0.0525,4.0217 3.4775,0.5977 7.7015,0.5977 C11.9255,0.5977 15.3495,4.0217 15.3495,8.2457 Z" id="Stroke-14" stroke="#231815" stroke-width="0.816"></path>
                    </g>
                    <path d="M27.6913,27.5638 C27.6913,27.5638 35.3513,20.7568 45.7123,34.7098" id="Stroke-17" stroke="#BD8A39"></path>
                    <path d="M308.9023,76.1263 L308.9023,211.4933 C308.9023,224.4693 287.0173,234.9883 260.0193,234.9883 L52.1333,234.9883 C45.0183,234.9883 38.3363,234.1163 32.5033,232.5853 C29.3173,229.7813 27.5043,226.5693 27.5043,223.1493 L27.5043,91.5373 C27.5043,80.6623 40.0323,64.2883 56.5903,64.2883 L284.2723,64.2883 C291.3873,64.2883 298.0703,65.1603 303.9033,66.6913 C307.0893,69.4953 308.9023,72.7063 308.9023,76.1263" id="Fill-19" fill="#D0D2D3"></path>
                    <path d="M301.1454,247.0726 L60.0384,247.0726 C44.3984,247.0726 31.7204,234.3946 31.7204,218.7556 L31.7204,96.8386 C31.7204,81.1986 44.3984,68.5206 60.0384,68.5206 L301.1454,68.5206 C316.7854,68.5206 329.4634,81.1986 329.4634,96.8386 L329.4634,218.7556 C329.4634,234.3946 316.7854,247.0726 301.1454,247.0726" id="Fill-21" fill="#F8F6DE"></path>
                    <path d="M175.3466,198.2083 L55.9546,198.2083 C51.7446,198.2083 48.3316,194.7953 48.3316,190.5853 C48.3316,186.3753 51.7446,182.9623 55.9546,182.9623 L175.3466,182.9623 C179.5566,182.9623 182.9696,186.3753 182.9696,190.5853 C182.9696,194.7953 179.5566,198.2083 175.3466,198.2083" id="Fill-23" fill="#F3BDCD"></path>
                    <path d="M225.5165,100.5696 L106.1255,100.5696 C101.9155,100.5696 98.5025,97.1566 98.5025,92.9466 C98.5025,88.7366 101.9155,85.3236 106.1255,85.3236 L225.5165,85.3236 C229.7265,85.3236 233.1395,88.7366 233.1395,92.9466 C233.1395,97.1566 229.7265,100.5696 225.5165,100.5696" id="Fill-25" fill="#6BA997"></path>
                    <path d="M309.9833,224.6937 L55.9553,224.6937 C51.7453,224.6937 48.3323,221.2817 48.3323,217.0707 C48.3323,212.8607 51.7453,209.4477 55.9553,209.4477 L309.9833,209.4477 C314.1933,209.4477 317.6063,212.8607 317.6063,217.0707 C317.6063,221.2817 314.1933,224.6937 309.9833,224.6937" id="Fill-27" fill="#6BA997"></path>
                    <g id="Group-31" transform="translate(333.000000, 140.073000)">
                        <mask id="mask-4" fill="white">
                            <use xlink:href="#path-3"></use>
                        </mask>
                        <g id="Clip-30"></g>
                        <path d="M25.914,40.0064 L0.361,14.4594 L14.284,0.5384 L39.837,26.0864 C43.682,29.9304 43.682,36.1624 39.837,40.0064 C35.992,43.8504 29.759,43.8504 25.914,40.0064" id="Fill-29" fill="#FFFFFF" mask="url(#mask-4)"></path>
                    </g>
                    <path d="M363.2519,175.7425 L337.6989,150.1955 L333.3609,154.5315 L358.9139,180.0795 C362.7589,183.9235 368.9919,183.9235 372.8369,180.0795 C373.5949,179.3215 374.1999,178.4715 374.6589,177.5645 C370.9649,179.4345 366.3389,178.8285 363.2519,175.7425" id="Fill-32" fill="#D0D2D3"></path>
                    <g id="Group-36" transform="translate(190.000000, 0.073000)">
                        <mask id="mask-6" fill="white">
                            <use xlink:href="#path-5"></use>
                        </mask>
                        <g id="Clip-35"></g>
                        <path d="M90.871,163.7574 C75.052,163.7574 60.417,158.6784 48.512,150.0574 C30.366,136.9264 18.563,115.5734 18.563,91.4644 C18.563,89.7464 18.622,88.0404 18.741,86.3504 C21.367,48.8104 52.655,19.1714 90.871,19.1714 C130.806,19.1714 163.18,51.5384 163.18,91.4644 C163.18,131.3904 130.806,163.7574 90.871,163.7574 M90.871,0.9264 C41.051,0.9264 0.63,41.1444 0.318,90.8794 C0.314,91.0724 0.314,91.2714 0.314,91.4644 C0.314,119.5624 13.116,144.6704 33.206,161.2774 C48.867,174.2224 68.961,182.0014 90.871,182.0014 C140.886,182.0014 181.429,141.4684 181.429,91.4644 C181.429,41.4604 140.886,0.9264 90.871,0.9264" id="Fill-34" fill="#FFFFFF" mask="url(#mask-6)"></path>
                    </g>
                    <path d="M280.871,163.8313 C240.935,163.8313 208.561,131.4643 208.561,91.5373 C208.561,51.6093 240.935,19.2423 280.871,19.2423 C320.808,19.2423 353.182,51.6093 353.182,91.5373 C353.182,131.4643 320.808,163.8313 280.871,163.8313 M280.871,10.4763 C236.093,10.4763 199.793,46.7683 199.793,91.5373 C199.793,136.3063 236.093,172.5983 280.871,172.5983 C325.649,172.5983 361.95,136.3063 361.95,91.5373 C361.95,46.7683 325.649,10.4763 280.871,10.4763" id="Fill-37" fill="#D0D2D3"></path>
                    <mask id="mask-8" fill="white">
                        <use xlink:href="#path-7"></use>
                    </mask>
                    <g id="Clip-40"></g>
                    <polygon id="Fill-39" fill="#FFFFFF" mask="url(#mask-8)" points="267.322 133.133 294.42 133.133 294.42 100.255 267.322 100.255"></polygon>
                    <path d="M246.8437,83.2786 L245.7227,83.2786 C242.8177,83.2786 240.4617,80.9226 240.4617,78.0166 L240.4617,68.0256 C240.4617,65.1196 242.8177,62.7636 245.7227,62.7636 L246.8437,62.7636 C249.7487,62.7636 252.1057,65.1196 252.1057,68.0256 L252.1057,78.0166 C252.1057,80.9226 249.7487,83.2786 246.8437,83.2786" id="Fill-41" fill="#FFFFFF" mask="url(#mask-8)"></path>
                    <path d="M246.2831,80.5364 L246.2831,80.5364 C243.0681,80.5364 240.4621,77.9304 240.4621,74.7164 L240.4621,77.4574 C240.4621,80.6724 243.0681,83.2784 246.2831,83.2784 C249.4991,83.2784 252.1051,80.6724 252.1051,77.4574 L252.1051,74.7164 C252.1051,77.9304 249.4991,80.5364 246.2831,80.5364" id="Fill-42" fill="#D0D2D3" mask="url(#mask-8)"></path>
                    <path d="M316.0204,83.2786 L314.8994,83.2786 C311.9934,83.2786 309.6374,80.9226 309.6374,78.0166 L309.6374,68.0256 C309.6374,65.1196 311.9934,62.7636 314.8994,62.7636 L316.0204,62.7636 C318.9254,62.7636 321.2814,65.1196 321.2814,68.0256 L321.2814,78.0166 C321.2814,80.9226 318.9254,83.2786 316.0204,83.2786" id="Fill-43" fill="#FFFFFF" mask="url(#mask-8)"></path>
                    <path d="M315.4599,80.5364 L315.4599,80.5364 C312.2439,80.5364 309.6379,77.9304 309.6379,74.7164 L309.6379,77.4574 C309.6379,80.6724 312.2439,83.2784 315.4599,83.2784 C318.6749,83.2784 321.2809,80.6724 321.2809,77.4574 L321.2809,74.7164 C321.2809,77.9304 318.6749,80.5364 315.4599,80.5364" id="Fill-44" fill="#D0D2D3" mask="url(#mask-8)"></path>
                    <path d="M246.7919,60.4476 C247.9189,54.6586 250.4829,49.3846 254.1039,45.0126 C255.1499,43.7446 256.2869,42.5566 257.5019,41.4506 C263.6709,35.8316 271.8699,32.4106 280.8709,32.4106 C281.2709,32.4106 281.6739,32.4176 282.0729,32.4336 C282.2079,32.4336 282.3439,32.4406 282.4759,32.4476 C291.4299,32.8536 299.4929,36.6456 305.4289,42.5806 C310.7149,47.8656 314.3049,54.8516 315.3109,62.6466 C315.4999,64.1146 315.5979,65.6106 315.5979,67.1296 L315.5979,74.0046 C315.5979,93.1796 300.0519,108.7226 280.8709,108.7226 C261.6939,108.7226 246.1459,93.1796 246.1459,74.0046 L246.1459,67.1296 C246.1459,65.6546 246.2359,64.2026 246.4159,62.7786 L246.7919,60.4476 Z" id="Fill-45" fill="#FFFFFF" mask="url(#mask-8)"></path>
                    <path d="M280.871,103.2395 C261.694,103.2395 246.145,87.6965 246.145,68.5205 L246.145,74.0045 C246.145,93.1795 261.694,108.7225 280.871,108.7225 C300.052,108.7225 315.598,93.1795 315.598,74.0045 L315.598,68.5205 C315.598,87.6965 300.052,103.2395 280.871,103.2395" id="Fill-46" fill="#D0D2D3" mask="url(#mask-8)"></path>
                    <path d="M246.7509,60.6487 L250.1769,60.6487 L250.1769,77.2867 C250.1769,78.3207 249.4179,79.2437 248.3879,79.3387 C247.2049,79.4487 246.2139,78.5247 246.2139,77.3687 L246.2139,65.3727 C246.2139,63.7827 246.3949,62.1977 246.7509,60.6487" id="Fill-47" fill="#4B6084" mask="url(#mask-8)"></path>
                    <path d="M315.5976,64.9378 L315.5976,77.0778 C315.5976,78.1128 314.8416,79.0378 313.8116,79.1368 C312.6296,79.2508 311.6346,78.3258 311.6346,77.1668 L311.6346,60.4478 L314.9536,60.4478 C315.3806,61.9058 315.5976,63.4178 315.5976,64.9378" id="Fill-48" fill="#4B6084" mask="url(#mask-8)"></path>
                    <path d="M282.0732,32.4339 C278.5602,37.9149 269.8532,49.7629 255.7522,58.0959 C252.3582,60.0989 249.2412,61.6279 246.4162,62.7789 C246.4192,62.7749 246.4192,62.7679 246.4192,62.7649 C247.2592,56.0659 250.0072,49.9589 254.1042,45.0129 C255.1502,43.7449 256.2872,42.5569 257.5022,41.4509 C263.6712,35.8309 271.8702,32.4109 280.8712,32.4109 C281.2702,32.4109 281.6742,32.4169 282.0732,32.4339" id="Fill-49" fill="#4B6084" mask="url(#mask-8)"></path>
                    <path d="M315.3105,62.6468 C310.5825,64.0778 301.2665,65.4268 286.4715,61.5608 C271.5115,57.6528 260.1585,49.9018 254.1045,45.0128 C255.1505,43.7448 256.2875,42.5568 257.5015,41.4508 C263.6705,35.8318 271.8705,32.4108 280.8715,32.4108 C281.4065,32.4108 281.9445,32.4198 282.4755,32.4478 C291.4295,32.8538 299.4935,36.6458 305.4285,42.5808 C310.7145,47.8658 314.3045,54.8518 315.3105,62.6468" id="Fill-50" fill="#808F91" mask="url(#mask-8)"></path>
                    <path d="M286.4716,41.261 C279.9206,39.55 274.0616,37.102 269.0356,34.48 C264.7316,36.04 260.8226,38.426 257.5016,41.45 C256.2866,42.557 255.1506,43.744 254.1046,45.013 C260.1586,49.902 271.5116,57.653 286.4716,61.561 C301.2666,65.427 310.5826,64.077 315.3106,62.647 C314.3766,55.408 311.2116,48.87 306.5336,43.741 C301.5026,43.969 294.8706,43.456 286.4716,41.261" id="Fill-51" fill="#4B6084" mask="url(#mask-8)"></path>
                    <path d="M286.4716,48.0276 C276.9076,45.5296 268.8206,41.4606 262.6466,37.5716 C260.8116,38.7066 259.0886,40.0056 257.5016,41.4506 C256.2866,42.5566 255.1506,43.7446 254.1046,45.0126 C260.1586,49.9016 271.5116,57.6526 286.4716,61.5606 C301.2666,65.4266 310.5826,64.0776 315.3106,62.6466 C314.7266,58.1176 313.2646,53.8646 311.1096,50.0556 C305.8036,50.8906 297.7236,50.9676 286.4716,48.0276" id="Fill-52" fill="#808F91" mask="url(#mask-8)"></path>
                    <path d="M286.4716,54.7942 C274.1996,51.5882 264.3566,45.7972 257.8726,41.1202 C257.7486,41.2302 257.6236,41.3392 257.5016,41.4502 C256.2866,42.5572 255.1506,43.7442 254.1046,45.0132 C260.1586,49.9012 271.5116,57.6522 286.4716,61.5612 C301.2666,65.4272 310.5826,64.0772 315.3106,62.6472 C315.0276,60.4512 314.5326,58.3232 313.8586,56.2752 C308.7876,57.5182 299.8796,58.2982 286.4716,54.7942" id="Fill-53" fill="#4B6084" mask="url(#mask-8)"></path>
                    <path d="M281.2402,85.5042 L280.5022,85.5042 C278.5882,85.5042 277.0362,83.9522 277.0362,82.0372 L277.0362,76.2552 C277.0362,74.3412 278.5882,72.7892 280.5022,72.7892 L281.2402,72.7892 C283.1552,72.7892 284.7072,74.3412 284.7072,76.2552 L284.7072,82.0372 C284.7072,83.9522 283.1552,85.5042 281.2402,85.5042" id="Fill-54" fill="#A62873" mask="url(#mask-8)"></path>
                    <path d="M339.5917,133.7259 C328.1097,149.6799 310.2757,160.7649 289.7947,163.2849 C288.9217,163.3919 288.0407,163.4829 287.1597,163.5579 C285.1127,163.7359 283.0437,163.8259 280.9497,163.8299 L280.8707,163.8299 C278.7537,163.8299 276.6567,163.7399 274.5827,163.5579 C273.6947,163.4829 272.8137,163.3919 271.9327,163.2809 C251.4557,160.7579 233.6257,149.6719 222.1437,133.7179 C226.6067,124.7859 235.8417,118.6479 246.5027,118.6479 L258.3177,118.6479 L266.4777,145.3999 L267.3387,148.2149 L294.3927,148.2149 L295.2487,145.3999 L295.2527,145.3999 L303.4137,118.6479 L315.2287,118.6479 C325.8937,118.6479 335.1277,124.7859 339.5917,133.7259" id="Fill-55" fill="#E68AA3" mask="url(#mask-8)"></path>
                    <path d="M295.249,145.3997 L294.393,148.2147 L289.795,163.2847 C288.922,163.3917 288.041,163.4827 287.16,163.5577 C285.113,163.7357 283.044,163.8257 280.95,163.8297 L280.871,163.8297 C278.754,163.8297 276.657,163.7397 274.583,163.5577 C273.694,163.4827 272.813,163.3917 271.933,163.2807 L267.339,148.2147 L266.478,145.3997 L273.955,139.0217 L273.959,139.0217 L280.859,133.1327 L287.796,139.0457 L295.249,145.3997 Z" id="Fill-56" fill="#F8E482" mask="url(#mask-8)"></path>
                    <path d="M267.6738,69.7972 C267.6738,71.4162 266.3618,72.7292 264.7408,72.7292 C263.1208,72.7292 261.8088,71.4162 261.8088,69.7972 C261.8088,68.1772 263.1208,66.8642 264.7408,66.8642 C266.3618,66.8642 267.6738,68.1772 267.6738,69.7972" id="Fill-57" fill="#A62873" mask="url(#mask-8)"></path>
                    <path d="M299.9345,69.7972 C299.9345,71.4162 298.6215,72.7292 297.0015,72.7292 C295.3815,72.7292 294.0695,71.4162 294.0695,69.7972 C294.0695,68.1772 295.3815,66.8642 297.0015,66.8642 C298.6215,66.8642 299.9345,68.1772 299.9345,69.7972" id="Fill-58" fill="#A62873" mask="url(#mask-8)"></path>
                    <path d="M280.871,95.762 C277.277,95.762 273.683,94.394 270.946,91.658 C270.597,91.309 270.597,90.742 270.946,90.393 C271.296,90.043 271.862,90.043 272.211,90.393 C276.986,95.167 284.756,95.167 289.531,90.393 C289.881,90.043 290.447,90.043 290.797,90.393 C291.146,90.742 291.146,91.309 290.797,91.658 C288.06,94.394 284.466,95.762 280.871,95.762" id="Fill-59" fill="#A62873" mask="url(#mask-8)"></path>
                    <path d="M287.1601,163.5579 C285.1131,163.7359 283.0441,163.8259 280.9501,163.8289 L280.8711,163.8289 C278.7541,163.8289 276.6571,163.7399 274.5831,163.5579 L274.7371,161.7959 L274.7371,161.7919 L275.2591,155.8719 L275.4401,153.7869 L275.4401,153.7799 L275.6381,151.5039 L275.9301,148.2149 L275.9581,147.8909 L276.3091,143.9219 L285.4331,143.9219 L285.7851,147.8909 L285.8121,148.2149 L286.4131,155.0319 L286.4131,155.0359 L286.8201,159.6599 L287.1601,163.5579 Z" id="Fill-60" fill="#E7AD26" mask="url(#mask-8)"></path>
                    <polygon id="Fill-61" fill="#F3BDCD" mask="url(#mask-8)" points="286.8193 159.6585 275.2563 155.8725 275.6403 151.5075 286.4123 155.0335"></polygon>
                    <path d="M280.9501,163.8294 L280.8711,163.8294 C278.7541,163.8294 276.6571,163.7394 274.5831,163.5584 L274.7371,161.7964 L280.9501,163.8294 Z" id="Fill-62" fill="#F6D85E" mask="url(#mask-8)"></path>
                    <path d="M283.9921,148.2142 L277.7511,148.2142 C274.2291,148.2142 271.8001,144.6902 273.0531,141.4002 L274.9681,136.3702 C275.7101,134.4212 277.5801,133.1332 279.6661,133.1332 L282.0771,133.1332 C284.1631,133.1332 286.0321,134.4212 286.7751,136.3702 L288.6901,141.4002 C289.9431,144.6902 287.5131,148.2142 283.9921,148.2142" id="Fill-63" fill="#F3BDCD" mask="url(#mask-8)"></path>
                    <polygon id="Fill-64" fill="#AE436E" mask="url(#mask-8)" points="303.416 118.6497 303.416 118.6497 294.422 113.5827 280.871 133.1327 295.252 145.4007"></polygon>
                    <polygon id="Fill-65" fill="#AE436E" mask="url(#mask-8)" points="258.3144 118.6497 258.3144 118.6497 267.3084 113.5827 280.8594 133.1327 266.4774 145.4007"></polygon>
                    <polygon id="Fill-66" fill="#D0D2D3" mask="url(#mask-8)" points="294.4072 109.8489 280.8712 124.6359 280.8592 124.6359 267.3222 109.8489 267.3082 113.5819 280.8592 133.1329 280.8712 133.1329 294.4222 113.5819"></polygon>
                    <path d="M244.1366,118.7542 C234.4886,119.5862 226.2726,125.4532 222.1436,133.7182 C227.9906,141.8422 235.4866,148.6992 244.1366,153.8112 L244.1366,118.7542 Z" id="Fill-67" fill="#6BA997" mask="url(#mask-8)"></path>
                    <path d="M317.6064,118.7552 L317.6064,153.8132 C326.2534,148.7022 333.7474,141.8472 339.5914,133.7262 C335.4634,125.4572 327.2534,119.5912 317.6064,118.7552" id="Fill-68" fill="#6BA997" mask="url(#mask-8)"></path>
                    <path d="M280.8652,163.8919 C280.3862,170.2399 278.3632,176.4449 274.8902,181.9019 C248.8932,180.0029 223.9092,166.9529 207.6272,144.0509 C207.5142,143.8929 207.4002,143.7319 207.2922,143.5729 C210.0482,138.0619 214.1622,133.1269 219.5362,129.3089 C219.5842,129.2749 219.6322,129.2409 219.6822,129.2089 C220.5652,130.6559 221.5062,132.0799 222.5022,133.4809 C236.4722,153.1309 258.4662,163.6999 280.8652,163.8919" id="Fill-69" fill="#D0D2D3" mask="url(#mask-8)"></path>
                    <path d="M279.3603,163.8255 C279.3603,185.3045 261.9453,202.7165 240.4623,202.7165 C218.9783,202.7165 201.5623,185.3045 201.5623,163.8255 C201.5623,142.3465 218.9783,124.9345 240.4623,124.9345 C261.9453,124.9345 279.3603,142.3465 279.3603,163.8255" id="Fill-70" fill="#7B3280" mask="url(#mask-8)"></path>
                    <path d="M272.5302,163.8255 C272.5302,181.5335 258.1732,195.8885 240.4622,195.8885 C222.7502,195.8885 208.3922,181.5335 208.3922,163.8255 C208.3922,146.1185 222.7502,131.7635 240.4622,131.7635 C258.1732,131.7635 272.5302,146.1185 272.5302,163.8255" id="Fill-71" fill="#F6CF95" mask="url(#mask-8)"></path>
                    <path d="M240.4618,134.3606 C257.7368,134.3606 271.8158,148.0196 272.4978,165.1246 C272.5148,164.6926 272.5298,164.2606 272.5298,163.8256 C272.5298,146.1186 258.1728,131.7636 240.4618,131.7636 C222.7498,131.7636 208.3928,146.1186 208.3928,163.8256 C208.3928,164.2606 208.4078,164.6926 208.4258,165.1246 C209.1078,148.0196 223.1858,134.3606 240.4618,134.3606" id="Fill-72" fill="#FFFFFF" mask="url(#mask-8)"></path>
                    <polygon id="Fill-73" fill="#AA63A5" mask="url(#mask-8)" points="233.6113 182.43 217.7963 166.618 223.3823 161.034 233.6113 171.26 255.2373 149.638 260.8243 155.223"></polygon>
                    <polygon id="Fill-74" fill="#DD0816" mask="url(#mask-8)" points="48.332 105.22 87.955 105.22 87.955 80.673 48.332 80.673"></polygon>
                    <polygon id="Fill-75" fill="#1F286F" mask="url(#mask-8)" points="48.332 91.547 61.504 91.547 61.504 80.673 48.332 80.673"></polygon>
                </g>
                <path d="M83.6621181,158.392 C85.6461181,158.392 86.6381181,157.336 86.6381181,155.224 L86.6381181,148.696 C88.8781181,146.616 90.7341181,144.184 92.2701181,141.4 L89.4221181,139.608 C88.7821181,141.272 87.8541181,142.84 86.6381181,144.344 L86.6381181,131.096 L77.7101181,131.096 C78.0301181,130.392 78.2861181,129.656 78.4781181,128.888 L74.9581181,128.408 C74.7661181,129.336 74.5101181,130.232 74.1901181,131.096 L67.6621181,131.096 L67.6621181,146.84 L63.7581181,146.936 L64.2701181,150.072 C71.7581181,149.688 77.5821181,149.304 81.7421181,148.888 C78.1581181,151.48 72.3341181,153.464 64.2701181,154.872 L65.7741181,157.88 C72.0461181,156.792 77.4221181,154.936 81.9021181,152.28 C82.3821181,151.96 82.8621181,151.672 83.3421181,151.352 L83.3421181,154.488 C83.3421181,155.064 83.0861181,155.384 82.6061181,155.384 L79.4061181,155.224 L80.2381181,158.392 L83.6621181,158.392 Z M83.3421181,136.184 L70.9901181,136.184 L70.9901181,134.04 L83.3421181,134.04 L83.3421181,136.184 Z M83.3421181,141.016 L70.9901181,141.016 L70.9901181,138.968 L83.3421181,138.968 L83.3421181,141.016 Z M70.9901181,146.712 L70.9901181,143.832 L83.3421181,143.832 L83.3421181,145.848 C80.0141181,146.232 75.8861181,146.52 70.9901181,146.712 Z M109.999373,158.392 L109.999373,136.824 C111.279373,134.648 112.303373,132.344 113.103373,129.944 L110.063373,128.536 C108.463373,133.432 106.031373,137.688 102.767373,141.304 L103.855373,144.824 C104.815373,143.8 105.743373,142.776 106.607373,141.752 L106.607373,158.392 L109.999373,158.392 Z M114.287373,158.296 C118.383373,154.392 120.463373,149.912 120.463373,144.792 L120.463373,144.12 L125.583373,144.12 C125.519373,149.112 125.423373,152.024 125.231373,152.856 C125.071373,154.136 124.495373,154.808 123.471373,154.808 C122.447373,154.808 121.231373,154.744 119.823373,154.616 L120.623373,157.752 C122.223373,157.848 123.375373,157.912 124.047373,157.912 C126.607373,157.912 128.047373,156.76 128.367373,154.488 C128.687373,152.792 128.847373,148.376 128.847373,141.208 C129.423373,141.912 130.095373,142.584 130.863373,143.256 L132.847373,140.504 C129.807373,137.816 127.695373,134.2 126.511373,129.688 L120.911373,129.688 L120.911373,132.76 L124.015373,132.76 C125.103373,135.896 126.607373,138.584 128.527373,140.856 L114.639373,140.856 C116.943373,137.848 118.543373,134.36 119.503373,130.36 L116.303373,129.592 C115.279373,133.88 113.295373,137.528 110.383373,140.472 L112.527373,143.256 C113.071373,142.68 113.615373,142.104 114.127373,141.464 L114.127373,144.12 L117.103373,144.12 L117.103373,144.792 C117.103373,148.952 115.215373,152.664 111.471373,155.896 L114.287373,158.296 Z M154.384627,135.32 L154.384627,132.216 L150.448627,132.216 C150.192627,131.128 149.808627,129.944 149.360627,128.6 L146.192627,129.464 C146.576627,130.36 146.960627,131.288 147.280627,132.216 L143.696627,132.216 L143.696627,135.32 L154.384627,135.32 Z M155.600627,142.552 C157.072627,141.592 158.352627,140.472 159.472627,139.128 L159.472627,140.6 L167.888627,140.6 L167.888627,138.616 C168.816627,139.896 169.904627,141.112 171.152627,142.232 L173.200627,139.864 C172.176627,139.032 171.248627,138.104 170.384627,137.08 C171.408627,136.184 172.336627,135.224 173.136627,134.136 L170.992627,132.248 C170.352627,133.208 169.616627,134.072 168.784627,134.872 C168.496627,134.392 168.240627,133.912 167.984627,133.432 C169.072627,132.6 170.000627,131.672 170.832627,130.616 L168.688627,128.728 C168.176627,129.496 167.568627,130.232 166.864627,130.936 C166.608627,130.232 166.352627,129.528 166.160627,128.792 L163.792627,130.104 C164.592627,132.888 165.744627,135.416 167.248627,137.72 L160.528627,137.72 C161.616627,136.056 162.416627,134.136 162.992627,131.96 L162.992627,129.624 L155.728627,129.624 L155.728627,132.44 L160.208627,132.44 C159.856627,133.368 159.408627,134.264 158.896627,135.128 C158.256627,134.488 157.584627,133.88 156.816627,133.272 L154.800627,135.192 C155.728627,135.896 156.528627,136.568 157.232627,137.272 C156.208627,138.328 155.024627,139.256 153.680627,140.056 L155.600627,142.552 Z M153.392627,140.088 L153.392627,137.144 L144.496627,137.144 L144.496627,140.088 L153.392627,140.088 Z M153.392627,144.632 L153.392627,141.688 L144.496627,141.688 L144.496627,144.632 L153.392627,144.632 Z M170.544627,151 L170.544627,142.808 L156.400627,142.808 L156.400627,151 L170.544627,151 Z M167.408627,148.248 L159.536627,148.248 L159.536627,145.528 L167.408627,145.528 L167.408627,148.248 Z M147.472627,158.232 L147.472627,156.568 L150.416627,156.568 L150.416627,157.816 L153.584627,157.816 L153.584627,146.456 L144.272627,146.456 L144.272627,158.232 L147.472627,158.232 Z M150.416627,153.496 L147.472627,153.496 L147.472627,149.496 L150.416627,149.496 L150.416627,153.496 Z M172.368627,157.816 L172.368627,154.84 L168.336627,154.84 C168.848627,154.072 169.360627,153.24 169.808627,152.312 L166.832627,151.256 C166.320627,152.504 165.712627,153.688 165.072627,154.84 L162.224627,154.84 C161.648627,153.464 161.040627,152.248 160.368627,151.224 L157.392627,152.344 C157.968627,153.112 158.512627,153.944 158.992627,154.84 L154.864627,154.84 L154.864627,157.816 L172.368627,157.816 Z" id="身份證" fill="#8576BA" fill-rule="nonzero"></path>
                <path d="M83.0941181,46.424 L83.0941181,45.112 L95.1901181,45.112 L95.1901181,46.424 L98.3581181,46.424 L98.3581181,35.224 L90.5181181,35.224 L90.5181181,32.216 L100.502118,32.216 L100.502118,29.176 L90.5181181,29.176 L90.5181181,26.264 L99.2541181,26.264 L99.2541181,17.72 L74.8061181,17.72 L74.8061181,28.824 C74.7741181,35.032 73.6861181,40.12 71.5421181,44.056 L74.1661181,46.424 C76.3101181,42.36 77.5901181,37.624 77.9741181,32.216 L87.2861181,32.216 L87.2861181,35.224 L79.8941181,35.224 L79.8941181,46.424 L83.0941181,46.424 Z M95.9261181,23.256 L78.1021181,23.256 L78.1021181,20.76 L95.9261181,20.76 L95.9261181,23.256 Z M87.2861181,29.176 L78.1021181,29.176 L78.1021181,26.264 L87.2861181,26.264 L87.2861181,29.176 Z M95.1901181,42.104 L83.0941181,42.104 L83.0941181,38.232 L95.1901181,38.232 L95.1901181,42.104 Z M113.815373,31.352 C117.367373,30.52 120.375373,29.624 122.839373,28.664 C123.095373,29.464 123.319373,30.296 123.575373,31.128 L126.743373,29.944 C126.039373,27.384 125.047373,24.6 123.735373,21.528 L120.599373,22.424 C121.047373,23.48 121.463373,24.568 121.847373,25.688 C120.567373,26.2 118.935373,26.744 116.951373,27.32 L116.951373,21.72 C120.535373,21.24 123.511373,20.408 125.879373,19.192 L124.215373,16.408 C121.431373,17.752 117.943373,18.648 113.719373,19.032 L113.719373,26.04 C113.719373,27 113.335373,27.736 112.631373,28.312 L113.815373,31.352 Z M128.631373,31 C130.007373,29.592 131.031373,28.024 131.735373,26.296 C132.247373,24.952 132.631373,23.192 132.951373,21.048 L136.823373,21.048 C136.759373,23.928 136.663373,25.688 136.471373,26.328 C136.247373,27.32 135.735373,27.832 134.967373,27.864 C134.135373,27.864 133.143373,27.8 131.991373,27.736 L132.983373,30.648 C133.847373,30.744 134.615373,30.808 135.319373,30.808 C137.303373,30.808 138.583373,29.944 139.191373,28.248 C139.703373,26.904 140.023373,23.416 140.151373,17.784 L126.775373,17.784 L126.775373,21.048 L129.751373,21.048 C129.527373,22.584 129.239373,23.832 128.887373,24.824 C128.375373,26.168 127.639373,27.384 126.647373,28.472 L128.631373,31 Z M118.551373,46.392 L118.551373,45.24 L135.319373,45.24 L135.319373,46.36 L138.615373,46.36 L138.615373,31.544 L115.255373,31.544 L115.255373,46.392 L118.551373,46.392 Z M125.367373,36.92 L118.551373,36.92 L118.551373,34.648 L125.367373,34.648 L125.367373,36.92 Z M135.319373,36.92 L128.695373,36.92 L128.695373,34.648 L135.319373,34.648 L135.319373,36.92 Z M125.367373,42.136 L118.551373,42.136 L118.551373,39.864 L125.367373,39.864 L125.367373,42.136 Z M135.319373,42.136 L128.695373,42.136 L128.695373,39.864 L135.319373,39.864 L135.319373,42.136 Z M163.384627,23.32 L163.384627,20.216 L159.448627,20.216 C159.192627,19.128 158.808627,17.944 158.360627,16.6 L155.192627,17.464 C155.576627,18.36 155.960627,19.288 156.280627,20.216 L152.696627,20.216 L152.696627,23.32 L163.384627,23.32 Z M164.600627,30.552 C166.072627,29.592 167.352627,28.472 168.472627,27.128 L168.472627,28.6 L176.888627,28.6 L176.888627,26.616 C177.816627,27.896 178.904627,29.112 180.152627,30.232 L182.200627,27.864 C181.176627,27.032 180.248627,26.104 179.384627,25.08 C180.408627,24.184 181.336627,23.224 182.136627,22.136 L179.992627,20.248 C179.352627,21.208 178.616627,22.072 177.784627,22.872 C177.496627,22.392 177.240627,21.912 176.984627,21.432 C178.072627,20.6 179.000627,19.672 179.832627,18.616 L177.688627,16.728 C177.176627,17.496 176.568627,18.232 175.864627,18.936 C175.608627,18.232 175.352627,17.528 175.160627,16.792 L172.792627,18.104 C173.592627,20.888 174.744627,23.416 176.248627,25.72 L169.528627,25.72 C170.616627,24.056 171.416627,22.136 171.992627,19.96 L171.992627,17.624 L164.728627,17.624 L164.728627,20.44 L169.208627,20.44 C168.856627,21.368 168.408627,22.264 167.896627,23.128 C167.256627,22.488 166.584627,21.88 165.816627,21.272 L163.800627,23.192 C164.728627,23.896 165.528627,24.568 166.232627,25.272 C165.208627,26.328 164.024627,27.256 162.680627,28.056 L164.600627,30.552 Z M162.392627,28.088 L162.392627,25.144 L153.496627,25.144 L153.496627,28.088 L162.392627,28.088 Z M162.392627,32.632 L162.392627,29.688 L153.496627,29.688 L153.496627,32.632 L162.392627,32.632 Z M179.544627,39 L179.544627,30.808 L165.400627,30.808 L165.400627,39 L179.544627,39 Z M176.408627,36.248 L168.536627,36.248 L168.536627,33.528 L176.408627,33.528 L176.408627,36.248 Z M156.472627,46.232 L156.472627,44.568 L159.416627,44.568 L159.416627,45.816 L162.584627,45.816 L162.584627,34.456 L153.272627,34.456 L153.272627,46.232 L156.472627,46.232 Z M159.416627,41.496 L156.472627,41.496 L156.472627,37.496 L159.416627,37.496 L159.416627,41.496 Z M181.368627,45.816 L181.368627,42.84 L177.336627,42.84 C177.848627,42.072 178.360627,41.24 178.808627,40.312 L175.832627,39.256 C175.320627,40.504 174.712627,41.688 174.072627,42.84 L171.224627,42.84 C170.648627,41.464 170.040627,40.248 169.368627,39.224 L166.392627,40.344 C166.968627,41.112 167.512627,41.944 167.992627,42.84 L163.864627,42.84 L163.864627,45.816 L181.368627,45.816 Z" id="居留證" fill="#D57878" fill-rule="nonzero"></path>
            </g>
        </g>
    </g>
</svg>