<svg xmlns="http://www.w3.org/2000/svg" xmlns:xlink="http://www.w3.org/1999/xlink" width="562" height="280" viewBox="0 0 562 280">
    <defs>
        <path id="prefix__a" d="M0.308 0.345L70.834 0.345 70.834 70.841 0.308 70.841z"/>
        <path id="prefix__d" d="M549.573 252.52h-130.99c-6.63 0-12.005-4.347-12.005-9.709v-32.893c0-5.362 5.374-9.709 12.004-9.709h130.991c6.63 0 12.005 4.347 12.005 9.71v32.892c0 5.362-5.375 9.71-12.005 9.71"/>
        <path id="prefix__f" d="M12.42 252.52h130.991c6.63 0 12.004-4.347 12.004-9.709v-32.893c0-5.362-5.374-9.709-12.004-9.709H12.42c-6.63 0-12.005 4.347-12.005 9.71v32.892c0 5.362 5.375 9.71 12.005 9.71"/>
        <filter id="prefix__c" width="101.3%" height="107.6%" x="-.6%" y="-1.9%" filterUnits="objectBoundingBox">
            <feOffset dy="2" in="SourceAlpha" result="shadowOffsetOuter1"/>
            <feColorMatrix in="shadowOffsetOuter1" values="0 0 0 0 0 0 0 0 0 0 0 0 0 0 0 0 0 0 0.135134397 0"/>
        </filter>
        <filter id="prefix__e" width="101.3%" height="107.6%" x="-.6%" y="-1.9%" filterUnits="objectBoundingBox">
            <feOffset dy="2" in="SourceAlpha" result="shadowOffsetOuter1"/>
            <feColorMatrix in="shadowOffsetOuter1" values="0 0 0 0 0 0 0 0 0 0 0 0 0 0 0 0 0 0 0.135134397 0"/>
        </filter>
    </defs>
    <g fill="none" fill-rule="evenodd">
        <path fill="#FFF" d="M268.083 215.319L299.573 215.319 299.573 177.872 268.083 177.872z" transform="translate(-1)"/>
        <g transform="translate(-1) translate(.636)">
            <path fill="#FFF" d="M242.9 157.734c-3.691 0-6.684-2.99-6.684-6.681v-10.186c0-3.69 2.993-6.681 6.684-6.681 3.692 0 6.684 2.991 6.684 6.681v10.186c0 3.69-2.992 6.681-6.684 6.681"/>
            <path fill="#D0D2D3" d="M242.9 154.587c-3.691 0-6.684-2.991-6.684-6.681v3.147c0 3.69 2.993 6.682 6.684 6.682 3.692 0 6.684-2.992 6.684-6.682v-3.147c0 3.69-2.992 6.681-6.684 6.681"/>
            <path fill="#FFF" d="M322.327 157.734c-3.692 0-6.685-2.99-6.685-6.681v-10.186c0-3.69 2.993-6.681 6.685-6.681 3.691 0 6.684 2.991 6.684 6.681v10.186c0 3.69-2.993 6.681-6.684 6.681"/>
            <path fill="#D0D2D3" d="M322.327 154.587c-3.692 0-6.685-2.991-6.685-6.681v3.147c0 3.69 2.993 6.682 6.685 6.682 3.691 0 6.684-2.992 6.684-6.682v-3.147c0 3.69-2.993 6.681-6.684 6.681"/>
            <path fill="#FFF" d="M243.484 131.526c1.294-6.645 4.239-12.7 8.396-17.717 1.2-1.456 2.506-2.82 3.901-4.09 7.083-6.45 16.497-10.377 26.832-10.377.459 0 .921.008 1.38.027.155 0 .31.008.462.016 10.28.465 19.54 4.82 26.355 11.631 6.068 6.067 10.19 14.087 11.345 23.035.217 1.685.33 3.402.33 5.145v7.893c0 22.012-17.85 39.854-39.872 39.854-22.018 0-39.871-17.842-39.871-39.854v-7.893c0-1.693.105-3.359.31-4.993l.432-2.677z"/>
            <path fill="#D0D2D3" d="M282.613 180.648c-22.018 0-39.871-17.841-39.871-39.854v6.294c0 22.013 17.853 39.855 39.871 39.855 22.022 0 39.872-17.842 39.872-39.855v-6.294c0 22.013-17.85 39.854-39.872 39.854"/>
            <path fill="#E7AD26" d="M243.173 131.526h4.118v19.1c0 1.187-.87 2.246-2.054 2.355-1.357.127-2.496-.935-2.496-2.261v-13.807c0-1.804.145-3.606.432-5.387M322.485 136.682v13.935c0 1.188-.868 2.25-2.05 2.364-1.357.13-2.5-.933-2.5-2.262v-19.193h3.81c.49 1.675.74 3.41.74 5.156"/>
            <path fill="#E7AD26" d="M283.993 99.37c-4.033 6.29-14.03 19.891-30.22 29.457-3.898 2.3-7.476 4.055-10.72 5.375 0 0 .004-.011.004-.016.963-7.69 4.118-14.7 8.823-20.377 1.2-1.457 2.506-2.82 3.901-4.09 7.083-6.45 16.497-10.377 26.832-10.377.459 0 .921.008 1.38.027"/>
            <path fill="#FDDD39" d="M322.155 134.05c-5.428 1.644-16.124 3.193-33.111-1.246-17.177-4.486-30.213-13.383-37.164-18.995 1.2-1.456 2.506-2.82 3.901-4.09 7.083-6.45 16.497-10.377 26.832-10.377.614 0 1.232.011 1.842.043 10.28.465 19.54 4.82 26.355 11.632 6.068 6.066 10.19 14.086 11.345 23.034"/>
            <path fill="#E7AD26" d="M289.044 109.502c-7.522-1.965-14.25-4.775-20.02-7.785-4.943 1.791-9.43 4.53-13.243 8.002-1.395 1.27-2.7 2.633-3.9 4.09 6.95 5.611 19.986 14.509 37.163 18.995 16.987 4.44 27.683 2.89 33.11 1.246-1.071-8.308-4.705-15.814-10.077-21.701-5.775.262-13.39-.327-23.033-2.847"/>
            <path fill="#FDDD39" d="M289.044 117.27c-10.983-2.868-20.268-7.54-27.357-12.003-2.106 1.302-4.084 2.792-5.906 4.452-1.395 1.27-2.7 2.634-3.9 4.09 6.95 5.612 19.986 14.51 37.163 18.995 16.987 4.439 27.683 2.89 33.11 1.247-.67-5.2-2.348-10.082-4.822-14.453-6.092.958-15.37 1.047-28.288-2.329"/>
            <path fill="#E7AD26" d="M289.044 125.036c-14.092-3.68-25.393-10.328-32.837-15.696-.142.126-.285.251-.426.379-1.395 1.27-2.7 2.633-3.9 4.09 6.95 5.611 19.986 14.509 37.163 18.995 16.987 4.44 27.683 2.89 33.11 1.246-.324-2.52-.893-4.962-1.666-7.312-5.822 1.426-16.05 2.322-31.444-1.702"/>
            <path fill="#A62873" d="M282.613 160.29c-2.432 0-4.404-1.971-4.404-4.403v-5.791c0-2.432 1.972-4.402 4.404-4.402s4.405 1.97 4.405 4.402v5.791c0 2.432-1.973 4.402-4.405 4.402"/>
            <path fill="#1BADE3" d="M353.327 232.275v24.647c-2.256 1.648-4.578 3.21-6.954 4.69-5.474 3.416-11.235 6.404-17.252 8.91-1.54.65-3.103 1.263-4.681 1.843-.266.103-.537.2-.81.298h-.004c-6.2 2.24-12.63 3.98-19.259 5.19-2.772.51-5.577.921-8.414 1.225-3.46.385-6.965.619-10.508.7-.597.016-1.199.021-1.801.026h-.005l-.044.136-.412-.136c-.19.006-.38.006-.57.006-.347 0-.7 0-1.047-.006-.602-.005-1.198-.01-1.8-.026h-.006c-3.537-.081-7.03-.315-10.486-.7-2.87-.31-5.713-.726-8.523-1.242-6.586-1.209-12.982-2.944-19.145-5.173-.276-.097-.553-.2-.825-.304-1.578-.58-3.14-1.193-4.681-1.838-6.01-2.511-11.778-5.498-17.246-8.91-2.376-1.48-4.692-3.041-6.955-4.685v-27.34c0-17.26 13.996-31.245 31.253-31.245h13.563l9.374 30.702v.006l.987 3.226h31.064l.987-3.226 9.369-30.708h13.567c17.252 0 31.248 13.984 31.248 31.245v2.69h.017z"/>
            <path fill="#0E6DA0" d="M329.121 270.521c-1.54.651-3.103 1.264-4.681 1.844l.629-4.647.83-6.09 3.206-23.583.016 32.476zM240.782 272.36c-1.58-.58-3.141-1.193-4.682-1.839v-32.476l4.682 34.315z"/>
            <path fill="#D0D2D3" d="M299.122 229.043l-.988 3.232-7.644 25.053v.005l-.157.521-1.937 6.355-1.432 4.69-1.942 6.356-1.383 4.55-.044.135-.412-.136c-.19.006-.38.006-.57.006-.347 0-.7 0-1.047-.006l-.179-.585-1.747-5.726-2.37-7.77-1.742-5.727-.797-2.614-7.655-25.107-.987-3.226v-.006l8.588-7.32 7.92-6.756h.005l7.872 6.707.082.065.005.006 8.56 7.298z"/>
            <path fill="#A62873" d="M267.46 142.26c0 1.858-1.507 3.365-3.367 3.365s-3.367-1.507-3.367-3.366c0-1.86 1.507-3.366 3.367-3.366s3.367 1.507 3.367 3.366M304.5 142.26c0 1.858-1.507 3.365-3.366 3.365-1.86 0-3.368-1.507-3.368-3.366 0-1.86 1.508-3.366 3.368-3.366 1.86 0 3.367 1.507 3.367 3.366M282.613 172.258c-4.176 0-8.353-1.589-11.532-4.768-.477-.476-.477-1.248 0-1.724.476-.478 1.25-.478 1.726 0 5.407 5.404 14.205 5.404 19.613 0 .476-.478 1.25-.478 1.726 0 .477.476.477 1.248 0 1.724-3.18 3.179-7.356 4.768-11.533 4.768"/>
            <path fill="#E7AD26" d="M290.49 257.328v.005l-.157.522-1.937 6.354-1.432 4.691-1.942 6.355-1.383 4.55-.044.135-.412-.136c-.19.006-.38.006-.57.006-.347 0-.7 0-1.047-.006l-.179-.585-1.746-5.726-2.371-7.77-1.742-5.727-.797-2.614.396-4.506.444-5.01v-.006l.597-6.79v-.005l.44-5.01.33-3.78.034-.374.4-4.555h10.481l.402 4.555v.006l.033.368.683 7.83.472 5.31.635 7.201.412 4.712z"/>
            <path fill="#FDDD39" d="M289.443 245.414L276.166 241.068 276.607 236.056 288.976 240.105zM290.491 257.332L290.491 257.329 290.076 252.615 275.57 247.866 275.128 252.875 290.333 257.853zM288.394 264.211L286.963 268.897 277.271 265.723 275.527 259.998zM285.022 275.255L283.639 279.804 283.595 279.94 283.183 279.804 281.387 279.219 279.64 273.493zM286.197 232.277h-7.167c-4.042 0-6.833-4.046-5.394-7.823l2.199-5.774c.853-2.237 2.999-3.716 5.394-3.716h2.769c2.395 0 4.541 1.479 5.394 3.716l2.2 5.774c1.437 3.777-1.353 7.823-5.395 7.823"/>
            <path fill="#FFF" d="M308.498 198.338L308.498 198.338 298.171 192.521 282.613 214.964 299.125 229.047zM256.714 198.338L256.714 198.338 267.041 192.521 282.599 214.964 266.087 229.047z"/>
            <path fill="#0E6DA0" d="M318.157 240.41l-32.712 39.368c-.596.016-1.199.021-1.801.027l14.495-47.53.988-3.226 9.369-30.708 8.555 27.248c.31.987-.206 2.045-1.172 2.408l-6.64 2.5c-1.67.623-1.687 2.982-.027 3.633l8.164 3.22c1.232.483 1.633 2.035.781 3.06M281.566 279.804c-.602-.005-1.199-.01-1.8-.026h-.006l-32.707-39.37c-.846-1.023-.45-2.575.786-3.057l8.16-3.22c1.665-.652 1.643-3.01-.027-3.634l-6.64-2.5c-.966-.363-1.482-1.42-1.172-2.408l8.555-27.249 20.555 67.383 2.37 7.77 1.748 5.726.178.585z"/>
            <path fill="#D0D2D3" d="M298.155 188.236L282.613 205.211 282.599 205.211 267.057 188.236 267.041 192.521 282.599 214.964 282.613 214.964 298.171 192.521z"/>
            <path fill="#E7AD26" d="M324.415 267.788h-9.07c-1.692 0-3.063-1.371-3.063-3.062v-.422c0-1.691 1.371-3.062 3.063-3.062h9.07c1.691 0 3.062 1.37 3.062 3.062v.422c0 1.691-1.37 3.062-3.062 3.062"/>
            <path fill="#EE599C" d="M387.933 205.218c-.722 1.396-1.466 2.773-2.241 4.133-4.381 7.696-9.602 14.858-15.526 21.363-.402.442-.808.88-1.219 1.314-2.273 2.408-4.637 4.721-7.097 6.93-.557.505-1.122.998-1.688 1.49-.092.088-.188.17-.279.247-.032.028-.064.06-.1.087-2.483 2.135-5.061 4.17-7.722 6.086-2.214 1.619-4.495 3.152-6.828 4.607-5.376 3.358-11.035 6.291-16.945 8.75-1.51.639-3.044 1.24-4.596 1.81-.26.101-.529.197-.794.293h-.005c-2.966 1.068-5.978 2.02-9.045 2.86-3.236.88-6.526 1.629-9.872 2.24-.684.123-1.373.246-2.062.36-2.05.333-4.117.616-6.198.84-3.4.378-6.841.606-10.323.689-.411.014-.822.018-1.237.023-.178 0-.352.004-.53.004h-.004l-.3.002c-.05 0-.099 0-.147-.002-.188.004-.375.004-.562.004-.342 0-.689 0-1.027-.004-.173 0-.346-.004-.515-.004-.42-.005-.836-.01-1.255-.023h-.005c-3.473-.083-6.905-.31-10.3-.689-2.082-.224-4.15-.507-6.202-.844-.727-.114-1.447-.242-2.168-.375-3.286-.6-6.518-1.336-9.703-2.202-3.086-.84-6.12-1.803-9.1-2.88-.27-.095-.543-.195-.808-.296-1.552-.57-3.085-1.172-4.6-1.806-5.902-2.464-11.565-5.401-16.937-8.75-2.332-1.455-4.61-2.988-6.827-4.603-2.698-1.948-5.308-4.01-7.823-6.177-.055-.04-.1-.09-.155-.136-.598-.516-1.187-1.036-1.775-1.565-2.442-2.19-4.793-4.485-7.042-6.88-.443-.47-.885-.944-1.32-1.422-5.928-6.488-11.144-13.65-15.516-21.341-.776-1.36-1.52-2.737-2.24-4.133-8.408-16.264-13.158-34.725-13.158-54.291 0-65.404 53.045-118.427 118.476-118.427 65.432 0 118.477 53.023 118.477 118.427 0 19.566-4.75 38.027-13.157 54.29m13.66-104.536c-6.504-15.371-15.814-29.175-27.67-41.026-11.856-11.85-25.665-21.156-41.043-27.658-15.927-6.734-32.839-10.148-50.267-10.148-17.428 0-34.34 3.414-50.267 10.148-15.378 6.502-29.187 15.807-41.043 27.658-11.856 11.851-21.165 25.655-27.67 41.026-6.737 15.92-10.152 32.825-10.152 50.246 0 10.455 1.256 20.86 3.735 30.928 2.407 9.783 5.978 19.289 10.611 28.252.825 1.596 1.627 3.076 2.452 4.522 4.732 8.324 10.418 16.146 16.891 23.23.419.463.865.944 1.444 1.558 2.43 2.587 5.018 5.115 7.683 7.505.634.57 1.236 1.101 1.828 1.613.105.094.228.204.37.322 2.705 2.325 5.538 4.56 8.423 6.644 2.38 1.732 4.881 3.417 7.432 5.01 5.903 3.68 12.117 6.89 18.473 9.542 1.624.68 3.302 1.34 4.978 1.956.307.116.623.232.935.344 3.258 1.176 6.59 2.23 9.904 3.13 3.466.944 7.025 1.752 10.579 2.403.641.118 1.494.272 2.401.415 2.247.368 4.512.676 6.732.915 3.655.407 7.416.659 11.181.749.523.016 1.02.02 1.424.025h.114l.11.002.324.003c.365.005.74.005 1.108.005.191 0 .382 0 .573-.003.045.003.09.003.136.003.085 0 .17-.003.255-.004h.054c.132 0 .267-.002.402-.004l.123-.002H284.272c.402-.004.9-.01 1.42-.026 3.767-.09 7.529-.342 11.18-.748 2.204-.237 4.476-.544 6.752-.914l.015-.003.015-.002c.756-.126 1.507-.26 2.21-.386l.015-.003.014-.002c3.608-.66 7.226-1.48 10.754-2.44 2.71-.742 5.413-1.575 8.066-2.487h.05l1.762-.636.128-.046c.262-.095.527-.191.785-.29 1.705-.627 3.376-1.286 4.967-1.958 6.364-2.65 12.58-5.86 18.475-9.54 2.596-1.621 5.101-3.311 7.442-5.023 2.832-2.04 5.627-4.24 8.307-6.54.1-.083.186-.159.26-.225.12-.101.25-.216.393-.346.553-.482 1.124-.98 1.714-1.516 2.63-2.362 5.221-4.893 7.703-7.523.448-.473.905-.966 1.357-1.464 6.473-7.108 12.162-14.936 16.897-23.253.82-1.436 1.622-2.916 2.448-4.515 4.632-8.96 8.202-18.466 10.61-28.249 2.479-10.068 3.735-20.473 3.735-30.928 0-17.42-3.416-34.326-10.153-50.246"/>
            <path fill="#A62873" d="M365.234 228.54c-2.175 2.305-4.437 4.518-6.792 6.63-.532.486-1.074.957-1.616 1.429-.087.083-.178.162-.266.236-.03.026-.061.056-.096.082-2.376 2.043-4.844 3.99-7.39 5.824-2.118 1.55-4.302 3.017-6.534 4.41-5.145 3.213-10.56 6.02-16.216 8.373-1.446.611-2.913 1.188-4.398 1.734-.25.095-.507.187-.76.279h-.005c-2.839 1.021-5.721 1.934-8.656 2.737-3.097.843-6.246 1.559-9.448 2.143-.654.118-1.314.236-1.973.345-1.961.32-3.94.59-5.931.804-3.254.362-6.547.58-9.88.659-.393.013-.786.017-1.184.022-.17 0-.336.004-.506.004h-.005c-.096 0-.191.004-.286.004-.048 0-.095-.002-.141-.004-.18.004-.358.004-.538.004-.327 0-.66 0-.983-.004-.166 0-.331-.004-.493-.004-.402-.005-.799-.01-1.2-.022h-.005c-3.324-.079-6.608-.297-9.858-.66-1.991-.213-3.97-.484-5.935-.807-.695-.11-1.385-.231-2.075-.358-3.145-.576-6.237-1.28-9.285-2.109-2.953-.803-5.857-1.724-8.71-2.754-.257-.092-.519-.188-.772-.284-1.485-.546-2.953-1.122-4.403-1.729-5.647-2.358-11.067-5.169-16.208-8.374-2.231-1.392-4.411-2.859-6.533-4.405-2.582-1.864-5.08-3.837-7.487-5.91-.052-.04-.095-.088-.148-.132-.572-.493-1.135-.99-1.7-1.497-2.335-2.095-4.585-4.292-6.738-6.583-.424-.45-.847-.904-1.262-1.362-5.674-6.208-10.666-13.063-14.85-20.423-.742-1.3-1.454-2.62-2.144-3.955-8.045-15.564-12.592-33.232-12.592-51.956 0-62.591 50.764-113.333 113.381-113.333 62.618 0 113.382 50.742 113.382 113.333 0 18.724-4.547 36.392-12.592 51.956-.69 1.335-1.402 2.654-2.145 3.955-4.193 7.365-9.189 14.22-14.858 20.445-.384.423-.773.842-1.166 1.257m4.103 3.854c.413-.435.82-.876 1.224-1.32 5.95-6.534 11.195-13.729 15.596-21.46.78-1.365 1.527-2.749 2.251-4.15 8.445-16.338 13.217-34.883 13.217-54.537 0-65.7-53.285-118.962-119.012-118.962-65.726 0-119.011 53.262-119.011 118.962 0 19.654 4.772 38.199 13.217 54.536.724 1.402 1.47 2.786 2.25 4.151 4.392 7.726 9.632 14.921 15.588 21.438.435.48.88.957 1.325 1.43 2.26 2.405 4.62 4.71 7.073 6.91.592.531 1.183 1.053 1.784 1.571.055.046.1.097.156.138 2.526 2.177 5.147 4.248 7.857 6.205 2.228 1.622 4.516 3.162 6.858 4.623 5.396 3.364 11.085 6.315 17.013 8.79 1.522.637 3.062 1.241 4.621 1.814.266.101.541.202.811.298 2.994 1.082 6.043 2.048 9.142 2.891 3.2.871 6.446 1.61 9.747 2.214.724.133 1.448.261 2.177.375 2.063.34 4.14.624 6.23.848 3.411.38 6.859.61 10.347.693h.005c.422.013.839.018 1.26.023.17 0 .345.004.519.004.339.004.688.004 1.031.004.188 0 .376 0 .564-.004l.148.001.301-.001h.005c.179 0 .353-.004.532-.004.417-.005.83-.01 1.243-.023 3.497-.083 6.954-.313 10.37-.693 2.09-.224 4.166-.508 6.225-.843.692-.114 1.384-.238 2.072-.362 3.36-.614 6.666-1.366 9.916-2.25 3.08-.843 6.107-1.8 9.087-2.873h.004c.266-.096.536-.192.798-.294 1.559-.572 3.099-1.177 4.616-1.819 5.937-2.47 11.622-5.416 17.022-8.789 2.343-1.461 4.635-3.001 6.858-4.628 2.673-1.924 5.263-3.968 7.758-6.113.036-.028.068-.06.1-.087.092-.078.188-.16.28-.248.568-.495 1.137-.99 1.696-1.498 2.471-2.218 4.846-4.541 7.129-6.96"/>
            <path fill="#FFF" d="M282.613 31.965c65.508 0 118.65 52.91 119.003 118.308.004-.365.01-.728.01-1.093 0-65.699-53.286-118.961-119.013-118.961-65.726 0-119.011 53.262-119.011 118.961 0 .365.004.728.008 1.093.353-65.398 53.495-118.308 119.003-118.308"/>
            <g transform="translate(247.042)">
                <mask id="prefix__b" fill="#fff">
                    <use xlink:href="#prefix__a"/>
                </mask>
                <path fill="#A62873" d="M70.834 35.593c0 19.467-15.788 35.248-35.263 35.248-19.475 0-35.263-15.78-35.263-35.248C.308 16.126 16.096.345 35.57.345c19.475 0 35.263 15.781 35.263 35.248" mask="url(#prefix__b)"/>
            </g>
            <path fill="#62C6F2" d="M313.241 35.593c0 16.908-13.712 30.615-30.628 30.615-16.915 0-30.627-13.707-30.627-30.615 0-16.908 13.712-30.614 30.627-30.614 16.916 0 30.628 13.706 30.628 30.614"/>
            <path fill="#A62873" d="M472.184 129.34c0 36.459-29.568 66.014-66.041 66.014-36.474 0-66.042-29.555-66.042-66.013 0-36.459 29.568-66.014 66.042-66.014 36.473 0 66.04 29.555 66.04 66.014"/>
            <path fill="#62C6F2" d="M463.503 129.34c0 31.666-25.681 57.336-57.36 57.336-31.68 0-57.36-25.67-57.36-57.335 0-31.666 25.68-57.336 57.36-57.336 31.679 0 57.36 25.67 57.36 57.336"/>
            <path fill="#A62873" d="M229.643 129.34c0 36.459-29.568 66.014-66.042 66.014-36.473 0-66.04-29.555-66.04-66.013 0-36.459 29.567-66.014 66.04-66.014 36.474 0 66.042 29.555 66.042 66.014"/>
            <path fill="#62C6F2" d="M220.961 129.34c0 31.666-25.68 57.336-57.36 57.336-31.679 0-57.36-25.67-57.36-57.335 0-31.666 25.681-57.336 57.36-57.336 31.68 0 57.36 25.67 57.36 57.336"/>
            <path stroke="#FFF" stroke-width="1.838" d="M273.923 30.858L273.923 51.507 264.455 51.507 264.455 30.858 271.31 30.858M292.186 30.858L292.186 51.507 301.653 51.507 301.653 30.858 294.799 30.858M289.277 21.73L292.186 21.73 292.186 51.507 273.923 51.507 273.923 21.73 276.831 21.73M267.673 34.787L270.705 34.787M267.673 38.29L270.705 38.29M267.673 41.794L270.705 41.794M267.673 45.296L270.705 45.296M295.404 34.787L298.435 34.787M277.561 28.612L278.922 28.612M277.561 31.746L278.922 31.746M277.561 34.881L278.922 34.881M277.561 38.014L278.922 38.014M277.561 41.148L278.922 41.148M282.373 28.612L283.735 28.612M282.373 31.746L283.735 31.746M282.373 34.881L283.735 34.881M282.373 38.014L283.735 38.014M282.373 41.148L283.735 41.148M287.186 28.612L288.547 28.612M287.186 31.746L288.547 31.746M287.186 34.881L288.547 34.881M287.186 38.014L288.547 38.014M287.186 41.148L288.547 41.148M295.404 38.29L298.435 38.29M295.404 41.794L298.435 41.794M295.404 45.296L298.435 45.296"/>
            <path stroke="#FFF" stroke-width="1.838" d="M285.542 49.287L285.542 45.111 280.567 45.111 280.567 49.287M279.271 25.511L286.837 25.511 286.837 17.949 279.271 17.949zM281.849 20.572L281.849 22.888M284.259 20.572L284.259 22.888M281.849 21.73L284.136 21.73M283.054 17.949L283.054 15.583M269.189 30.858L269.189 28.821M296.92 30.858L296.92 28.821"/>
            <path fill="#E6E7E8" d="M184.212 173.251h-43.208c-1.886 0-3.415-1.528-3.415-3.414V87.573c0-1.885 1.53-3.414 3.415-3.414h43.208c1.886 0 3.415 1.529 3.415 3.414v82.264c0 1.886-1.53 3.414-3.415 3.414"/>
            <path fill="#FFF" d="M178.415 173.251h-31.613c-1.634 0-2.958-1.323-2.958-2.956v-83.18c0-1.632 1.324-2.956 2.958-2.956h31.613c1.633 0 2.957 1.324 2.957 2.956v83.18c0 1.633-1.324 2.956-2.957 2.956"/>
            <path fill="#1CAEE4" d="M181.978 167.226h-38.74c-1.336 0-2.42-1.084-2.42-2.42V92.604c0-1.336 1.084-2.42 2.42-2.42h38.74c1.337 0 2.42 1.084 2.42 2.42v72.202c0 1.336-1.083 2.42-2.42 2.42"/>
            <path fill="#BCBEC0" d="M166.618 88.319h-8.02c-.627 0-1.135-.508-1.135-1.135 0-.626.508-1.134 1.135-1.134h8.02c.627 0 1.135.508 1.135 1.134 0 .627-.508 1.135-1.135 1.135"/>
            <path fill="#FFF" d="M166.618 171.36h-8.02c-.627 0-1.135-.508-1.135-1.134 0-.627.508-1.134 1.135-1.134h8.02c.627 0 1.135.507 1.135 1.134 0 .626-.508 1.134-1.135 1.134"/>
            <path fill="#136DA0" d="M181.978 90.184h-38.74c-1.336 0-2.42 1.084-2.42 2.42v2.42h43.58v-2.42c0-1.336-1.083-2.42-2.42-2.42"/>
            <path fill="#009ADD" d="M181.372 162.386L184.399 162.386 184.399 95.025 181.372 95.025z"/>
            <path fill="#136DA0" d="M181.978 167.226h-38.74c-1.336 0-2.42-1.084-2.42-2.42v-2.42h43.58v2.42c0 1.336-1.083 2.42-2.42 2.42"/>
            <path fill="#009ADD" d="M140.818 162.386L143.844 162.386 143.844 95.025 140.818 95.025z"/>
            <path fill="#FFF" d="M178.839 103.108v15.304c0 .704-.523 1.275-1.168 1.275h-30.35c-.645 0-1.167-.57-1.167-1.275v-15.304c0-.704.522-1.275 1.167-1.275h30.35c.645 0 1.168.57 1.168 1.275"/>
            <path fill="#FDDD39" d="M177.952 114.604l-.009-7.925c-2.341-.034-4.231-1.938-4.234-4.287l-22.558.024c.002 2.372-1.92 4.296-4.292 4.298l.009 7.92c2.372-.003 4.298 1.917 4.3 4.289l22.56-.024c-.004-2.35 1.882-4.257 4.224-4.295"/>
            <path fill="#EE599C" d="M177.944 106.68l-.004-3.573c0-.397-.323-.72-.72-.719l-3.51.004c.002 2.35 1.892 4.253 4.234 4.287M177.956 118.176l-.004-3.572c-2.342.038-4.228 1.946-4.225 4.295l3.51-.003c.397 0 .719-.323.719-.72M151.15 102.416l-3.576.004c-.397 0-.719.322-.718.72l.003 3.575c2.373-.003 4.294-1.928 4.292-4.3M146.868 114.633l.003 3.576c0 .396.323.717.72.717l3.577-.003c-.002-2.372-1.928-4.292-4.3-4.29M155.837 114.291c0-.237-.085-.436-.253-.599-.167-.162-.449-.31-.845-.439-.551-.165-.954-.382-1.208-.65-.253-.272-.38-.614-.382-1.03-.001-.423.12-.77.367-1.044.246-.272.583-.435 1.015-.488l-.002-.849.577-.002.004.852c.434.058.773.238 1.016.542.243.305.365.721.368 1.252l-.713.003c-.002-.366-.09-.657-.264-.87-.175-.215-.408-.323-.702-.322-.309.001-.543.082-.706.243-.163.16-.244.382-.242.667 0 .265.087.473.26.631.173.155.457.297.851.421.395.129.704.268.926.421.221.153.384.332.491.535.104.204.158.443.16.716.002.437-.128.79-.39 1.056-.261.268-.628.427-1.102.478l.004.74-.574.002-.004-.739c-.48-.043-.858-.213-1.132-.51-.274-.298-.412-.702-.414-1.213l.718-.002c0 .359.097.634.285.828.19.194.458.29.805.287.338 0 .605-.085.798-.248.193-.163.29-.387.288-.669M161.08 114.186c0-.316-.103-.572-.304-.77-.202-.198-.464-.297-.788-.295-.322 0-.58.1-.775.298-.195.196-.29.455-.29.776.002.319.097.573.289.754.19.182.454.274.793.272.337 0 .6-.094.79-.28.19-.186.286-.439.285-.755m-1.093-3.59c-.282.001-.51.089-.684.264-.174.176-.26.413-.26.713.002.286.089.519.262.694.172.177.402.264.69.263.287-.001.516-.09.687-.269.17-.176.256-.41.255-.696-.001-.287-.091-.52-.271-.7-.179-.182-.405-.27-.68-.269m1.668.956c.001.28-.072.531-.22.752-.147.22-.347.393-.6.517.295.126.528.309.703.552.172.242.259.518.26.825.003.489-.161.879-.49 1.17-.328.29-.76.436-1.299.439-.543.002-.979-.141-1.307-.432-.33-.289-.494-.676-.496-1.162-.002-.306.082-.582.247-.827.166-.247.397-.434.691-.56-.252-.123-.45-.294-.596-.514-.146-.22-.22-.47-.22-.747-.003-.476.149-.854.453-1.134.304-.281.705-.422 1.204-.424.496-.002.899.135 1.206.413.307.279.462.655.464 1.132M166.312 112.316c-.003-.609-.09-1.052-.261-1.328-.172-.277-.443-.415-.813-.413-.368 0-.635.14-.801.417-.167.278-.252.703-.254 1.277l.005 1.147c.002.611.091 1.061.27 1.35.179.29.447.435.806.434.355-.001.618-.14.788-.415.171-.273.26-.706.265-1.295l-.005-1.174zm.721.977c.003.84-.137 1.465-.422 1.874-.286.41-.734.615-1.344.618-.603.002-1.05-.195-1.34-.594-.292-.398-.444-.995-.458-1.786l-.004-.958c-.003-.83.138-1.447.423-1.851.286-.406.735-.608 1.348-.61.608-.003 1.055.189 1.344.578.288.386.438.986.449 1.798l.004.931zM171.567 112.294c-.003-.609-.09-1.051-.262-1.328-.173-.277-.443-.415-.812-.413-.368.001-.635.141-.801.418-.168.277-.254.703-.255 1.276l.005 1.148c.003.61.092 1.06.271 1.35.178.29.447.434.806.433.355-.001.617-.14.788-.414.17-.273.26-.707.264-1.296l-.004-1.174zm.721.977c.004.84-.137 1.465-.423 1.874-.285.41-.733.616-1.343.618-.603.003-1.05-.195-1.341-.593-.291-.398-.444-.995-.457-1.787l-.003-.958c-.004-.83.136-1.447.421-1.85.286-.406.735-.608 1.348-.611.608-.003 1.056.19 1.345.578.288.387.438.986.45 1.8l.003.93z"/>
            <path fill="#FFF" d="M164.429 105.276L162.805 105.042 162.077 103.572 161.353 105.043 159.73 105.281 160.905 106.424 160.63 108.041 162.081 107.276 163.534 108.038 163.255 106.422zM158.784 106.659L158.255 105.59 157.728 106.66 156.547 106.833 157.402 107.665 157.202 108.841 158.257 108.284 159.314 108.838 159.111 107.663 159.965 106.83zM167.617 106.821L166.436 106.651 165.907 105.582 165.38 106.652 164.199 106.825 165.055 107.657 164.855 108.832 165.91 108.276 166.966 108.83 166.764 107.655zM174.642 104.492h-4.523c-.772 0-1.398-.626-1.398-1.398v-2.522c0-.772.626-1.398 1.398-1.398h4.523v5.318z"/>
            <path fill="#D1D3D4" d="M168.72 101.544v1.685c0 .697.567 1.262 1.265 1.262h4.657v-1.684h-4.657c-.698 0-1.264-.566-1.264-1.263"/>
            <path fill="#FFF" d="M173.795 106.284v-8.903c0-.87 1.027-1.33 1.677-.753l5.017 4.451c.452.4.452 1.106 0 1.507l-5.017 4.452c-.65.577-1.677.115-1.677-.754"/>
            <path fill="#D1D3D4" d="M180.489 101.08l-.1-.09-4.917 4.363c-.65.577-1.677.116-1.677-.754v1.685c0 .87 1.027 1.33 1.677.754l5.017-4.452c.452-.4.452-1.106 0-1.507"/>
            <path fill="#FFF" d="M150.03 121.99h4.522c.773 0 1.4-.626 1.4-1.398v-2.522c0-.772-.627-1.398-1.4-1.398h-4.522v5.318z"/>
            <path fill="#D1D3D4" d="M155.951 119.042v1.685c0 .698-.566 1.263-1.264 1.263h-4.657v-1.685h4.657c.698 0 1.264-.565 1.264-1.263"/>
            <path fill="#FFF" d="M150.877 123.782v-8.902c0-.87-1.027-1.331-1.678-.754l-5.016 4.451c-.452.401-.452 1.106 0 1.508l5.016 4.451c.651.577 1.678.115 1.678-.754"/>
            <path fill="#D1D3D4" d="M144.183 118.577l.1-.089 4.917 4.363c.65.577 1.677.116 1.677-.753v1.684c0 .87-1.027 1.331-1.677.754l-5.017-4.451c-.452-.401-.452-1.107 0-1.508"/>
            <path stroke="#FFF" stroke-linecap="round" stroke-linejoin="round" stroke-width="5.631" d="M150.208 131.687L175.008 131.687M150.208 138.211L175.008 138.211"/>
            <path fill="#009ADD" d="M175.064 158.62h-24.912c-.618 0-1.119-.501-1.119-1.119v-9.505c0-.618.501-1.118 1.119-1.118h24.912c.618 0 1.12.5 1.12 1.118v9.505c0 .618-.502 1.119-1.12 1.119"/>
            <path fill="#E43D91" d="M175.064 156.942h-24.912c-.618 0-1.119-.5-1.119-1.118v-9.505c0-.618.501-1.119 1.119-1.119h24.912c.618 0 1.12.5 1.12 1.119v9.505c0 .617-.502 1.118-1.12 1.118"/>
            <path fill="#EF5A9D" d="M175.064 155.265h-24.912c-.618 0-1.119-.501-1.119-1.118v-9.506c0-.618.501-1.118 1.119-1.118h24.912c.618 0 1.12.5 1.12 1.118v9.506c0 .617-.502 1.118-1.12 1.118"/>
            <path fill="#E43D91" d="M167.758 148.93c.02-.039.044-.076.06-.115.023-.055.037-.11.052-.167.006-.024.016-.046.02-.07.015-.072.022-.145.024-.217 0-.01.003-.018.003-.026.007-.347-.12-.696-.385-.96-.516-.516-1.352-.516-1.869 0l-3.342 3.341-1.65-1.648c-.516-.516-1.352-.516-1.868 0-.014.014-.023.03-.036.044-.238.26-.355.587-.35.916.001.01.004.02.004.03.003.072.01.143.023.213.005.025.016.05.022.075.015.054.029.109.05.162.018.041.042.08.064.12.019.034.033.07.056.104.047.072.103.14.167.204l2.584 2.583c.102.102.222.18.35.244.18.09.379.143.584.143.176 0 .348-.035.506-.101.159-.066.305-.162.429-.286l2.85-2.85 1.426-1.426.007-.009c.061-.061.115-.126.16-.195.024-.035.039-.073.059-.11"/>
            <path fill="#FEDE3A" d="M162.321 152.787c-.35 0-.687-.139-.934-.386l-2.584-2.583c-.517-.516-.517-1.352 0-1.868.516-.516 1.352-.516 1.869 0l1.65 1.648 3.341-3.341c.517-.516 1.353-.516 1.87 0 .516.515.516 1.351 0 1.868l-4.278 4.276c-.247.247-.583.386-.934.386"/>
            <path fill="#F7CB15" d="M167.532 146.344l-4.276 4.276c-.248.248-.583.387-.935.387-.35 0-.687-.14-.934-.387l-2.585-2.582c-.013-.014-.022-.03-.035-.045-.476.52-.467 1.322.035 1.825l2.585 2.582c.247.248.584.388.934.388.352 0 .687-.14.935-.388l4.276-4.275c.503-.503.512-1.307.036-1.825-.013.014-.022.03-.036.044"/>
            <path fill="#FFF" d="M436.674 149.639l-15.628 3.087c-2.886.57-5.832.73-8.752.481-1.932-.164-3.4-1.813-3.4-3.75v-1.882c0-.694.561-1.256 1.255-1.256h7.64c2.019 0 3.78-1.555 3.84-3.573.063-2.087-1.611-3.8-3.686-3.8h-36.017v18.982h2.047c1.338 0 2.634.472 3.659 1.333.735.618 1.615 1.04 2.557 1.225l18.688 3.692c4.017.793 8.151.793 12.17 0l17.087-3.376c1.764-.348 3.036-1.895 3.036-3.693v-3.776c0-2.372-2.168-4.154-4.496-3.694"/>
            <path fill="#D1D3D4" d="M438.134 155.678l-17.088 3.375c-4.017.794-8.152.794-12.17 0l-18.687-3.691c-.942-.187-1.822-.608-2.557-1.225-1.025-.861-2.32-1.334-3.66-1.334h-2.046v5.125h2.047c1.339 0 2.634.472 3.66 1.333.734.618 1.614 1.04 2.556 1.226l18.687 3.69c4.018.794 8.153.794 12.17 0l17.088-3.375c1.765-.348 3.036-1.895 3.036-3.693v-3.776c0-.232-.02-.458-.06-.676-.272 1.5-1.436 2.717-2.976 3.02"/>
            <path fill="#0E6DA0" d="M378.159 165.902h-4.551c-2.08 0-3.767-1.685-3.767-3.764v-26.199c0-2.078 1.687-3.764 3.767-3.764h4.551c2.08 0 3.767 1.686 3.767 3.764v26.199c0 2.079-1.687 3.764-3.767 3.764"/>
            <path fill="#009ADD" d="M378.159 157.536h-4.551c-2.08 0-3.767-1.686-3.767-3.765v8.367c0 2.078 1.687 3.764 3.767 3.764h4.551c2.08 0 3.767-1.686 3.767-3.764v-8.367c0 2.079-1.687 3.765-3.767 3.765"/>
            <path fill="#D1D3D4" d="M408.893 149.457v-1.882c0-.693.562-1.255 1.256-1.255h7.623c1.944 0 3.686-1.429 3.846-3.366.011-.134.015-.268.013-.4h-10.573c-3.094 0-5.526 2.645-5.268 5.726.22 2.613 2.324 4.67 4.942 4.831l1.562.097c-1.932-.165-3.4-1.814-3.4-3.751"/>
            <path fill="#FFF" d="M439.963 95.76v28.871c0 1.329-.986 2.406-2.203 2.406h-57.257c-.941 0-1.744-.645-2.06-1.554-.092-.264-.142-.55-.142-.852V95.76c0-1.329.985-2.405 2.202-2.405h57.257c.234 0 .46.04.671.114.889.309 1.532 1.217 1.532 2.291"/>
            <path fill="#D0D2D3" d="M438.574 94.32v28.872c0 1.329-.986 2.405-2.203 2.405h-57.257c-.233 0-.46-.04-.67-.114-.093-.264-.144-.55-.144-.851V95.759c0-1.329.986-2.405 2.203-2.405h57.257c.233 0 .46.04.671.113.093.265.143.552.143.853"/>
            <path fill="#FFF" d="M437.185 92.88v28.873c0 1.328-.986 2.405-2.203 2.405h-57.256c-.942 0-1.745-.645-2.06-1.553-.093-.265-.143-.552-.143-.852V92.88c0-1.329.986-2.405 2.203-2.405h57.256c.234 0 .46.04.671.114.89.309 1.532 1.217 1.532 2.291"/>
            <path fill="#D0D2D3" d="M435.797 91.44v28.873c0 1.329-.986 2.405-2.203 2.405h-57.257c-.234 0-.46-.04-.671-.114-.093-.264-.143-.55-.143-.851V92.88c0-1.328.986-2.405 2.203-2.405h57.257c.233 0 .46.04.67.113.093.265.144.552.144.853"/>
            <path fill="#FFF" d="M434.408 90.001v28.873c0 1.328-.986 2.405-2.203 2.405h-57.257c-1.216 0-2.203-1.077-2.203-2.405V90c0-1.329.987-2.405 2.203-2.405h57.257c1.217 0 2.203 1.076 2.203 2.405"/>
            <path fill="#0099DC" d="M377.404 98.457c2.772-.975 4.958-3.268 5.861-6.16.146-.465.584-.766 1.057-.766h38.509c.473 0 .91.3 1.056.767.904 2.891 3.09 5.184 5.862 6.16.442.155.724.605.724 1.088v9.782c0 .484-.282.934-.724 1.09-2.772.975-4.958 3.268-5.861 6.16-.146.465-.584.766-1.057.766h-38.509c-.473 0-.91-.3-1.057-.767-.903-2.89-3.089-5.184-5.86-6.16-.443-.155-.725-.605-.725-1.089v-9.782c0-.483.282-.933.724-1.089m55.174-7.815l-.042-.096c-.089-.19-.203-.365-.34-.519-.043-.05-.09-.097-.137-.143-.099-.093-.207-.176-.32-.248-.044-.027-.089-.052-.134-.077-.074-.039-.151-.075-.23-.105-.224-.084-.465-.13-.717-.13h-54.163c-.036 0-.072 0-.107.002-.142.007-.28.03-.413.065-.034.01-.067.019-.1.03-.652.21-1.167.743-1.37 1.42l-.028.102c-.034.138-.055.281-.063.429l-.002.11v25.91c0 .262.044.511.126.743.03.082.063.162.102.239.023.047.047.093.074.138.07.119.15.23.24.332.043.05.089.098.137.144.15.14.318.26.501.351.03.015.06.03.092.043.25.11.524.17.811.17h54.163c1.15 0 2.083-.967 2.083-2.16v-25.91c0-.297-.058-.582-.163-.84"/>
            <path fill="#E6E7E8" d="M391.61 104.437c0 1.338-1.047 2.424-2.338 2.424-1.291 0-2.338-1.086-2.338-2.424 0-1.338 1.047-2.423 2.338-2.423 1.291 0 2.338 1.085 2.338 2.423M420.219 104.437c0 1.338-1.047 2.424-2.338 2.424-1.291 0-2.338-1.086-2.338-2.424 0-1.338 1.047-2.423 2.338-2.423 1.291 0 2.338 1.085 2.338 2.423"/>
            <path fill="#FDDD39" d="M432.734 111.69l-.016-14.95c-4.418-.064-7.982-3.657-7.987-8.088l-42.558.045c.005 4.473-3.62 8.104-8.096 8.11l.015 14.937c4.476-.004 8.109 3.619 8.114 8.093l42.558-.045c-.005-4.431 3.552-8.03 7.97-8.103"/>
            <path fill="#EE599C" d="M432.718 96.739l-.007-6.74c0-.748-.609-1.355-1.358-1.355l-6.622.008c.005 4.432 3.57 8.023 7.987 8.087M432.741 118.428l-.007-6.739c-4.418.072-7.975 3.671-7.97 8.104l6.622-.008c.749 0 1.356-.609 1.355-1.357M382.173 88.696l-6.748.007c-.75.001-1.356.609-1.355 1.358l.007 6.745c4.476-.005 8.1-3.636 8.096-8.11M374.092 111.745l.008 6.744c0 .75.608 1.356 1.358 1.355l6.747-.007c-.004-4.474-3.637-8.097-8.113-8.092M391.014 111.1c-.002-.447-.162-.823-.478-1.13-.316-.306-.846-.584-1.595-.828-1.039-.313-1.799-.723-2.277-1.229-.477-.51-.717-1.156-.72-1.94-.004-.8.226-1.456.691-1.971.463-.514 1.1-.82 1.916-.92l-.006-1.603 1.09-.003.007 1.608c.82.109 1.459.447 1.917 1.021.459.575.689 1.362.694 2.362l-1.346.006c-.003-.691-.17-1.239-.497-1.643-.33-.403-.77-.607-1.325-.605-.583.002-1.025.155-1.332.457-.306.303-.459.722-.456 1.26.002.498.165.892.492 1.19.325.292.861.56 1.605.795.744.242 1.328.504 1.745.794.418.288.726.624.928 1.008.196.384.298.835.301 1.352.003.824-.242 1.49-.735 1.992-.494.504-1.186.805-2.079.903l.007 1.395-1.083.003-.007-1.394c-.907-.082-1.619-.401-2.136-.962-.517-.563-.777-1.325-.78-2.288l1.353-.006c.002.678.182 1.197.54 1.564.357.365.863.544 1.516.541.64-.002 1.143-.16 1.506-.468.364-.308.547-.729.544-1.261M400.904 110.9c-.001-.595-.193-1.08-.574-1.452-.379-.374-.874-.56-1.485-.557-.608.003-1.096.189-1.463.562-.367.37-.548.859-.547 1.463.004.604.184 1.081.545 1.425.358.343.857.516 1.498.514.634-.003 1.13-.18 1.49-.529.36-.352.539-.829.536-1.426m-2.062-6.772c-.531.003-.962.167-1.29.499-.328.331-.491.778-.489 1.344.002.54.167.979.493 1.31.324.334.76.498 1.3.496.543-.002.975-.17 1.297-.507.323-.333.483-.773.481-1.313-.002-.543-.172-.984-.51-1.323-.338-.341-.765-.508-1.282-.506m3.146 1.803c.002.53-.136 1.002-.415 1.42-.277.413-.656.742-1.133.975.557.237.997.582 1.326 1.041.325.456.489.977.492 1.556.004.922-.305 1.659-.924 2.206-.619.549-1.437.824-2.451.829-1.026.005-1.847-.265-2.467-.813-.62-.545-.931-1.276-.935-2.193-.003-.577.154-1.097.467-1.56.312-.467.747-.82 1.302-1.058-.475-.231-.85-.554-1.123-.97-.276-.414-.416-.883-.417-1.408-.004-.9.281-1.612.855-2.14.574-.53 1.33-.795 2.273-.8.935-.004 1.695.256 2.275.78.579.526.87 1.236.875 2.135M410.775 107.372c-.005-1.148-.17-1.983-.493-2.505-.325-.522-.835-.782-1.533-.779-.694.002-1.197.267-1.512.788-.314.523-.475 1.326-.479 2.409l.01 2.163c.004 1.153.173 2.002.51 2.549.336.546.843.82 1.521.816.669-.002 1.164-.262 1.486-.782.323-.517.49-1.332.5-2.443l-.01-2.216zm1.361 1.844c.006 1.584-.26 2.764-.797 3.535-.539.774-1.384 1.162-2.535 1.166-1.137.005-1.98-.368-2.53-1.12-.548-.75-.837-1.877-.862-3.369l-.008-1.807c-.005-1.566.26-2.732.797-3.493.54-.765 1.387-1.148 2.543-1.152 1.148-.005 1.992.358 2.537 1.091.543.73.827 1.86.847 3.393l.008 1.756zM420.688 107.332c-.005-1.149-.169-1.984-.493-2.505-.326-.523-.836-.783-1.533-.78-.693.003-1.197.267-1.511.788-.316.522-.478 1.327-.481 2.409l.01 2.163c.005 1.154.174 2.003.511 2.549.336.546.843.82 1.521.816.67-.002 1.164-.262 1.486-.781.322-.516.489-1.333.498-2.444l-.008-2.215zm1.361 1.844c.007 1.584-.258 2.763-.798 3.535-.538.773-1.383 1.161-2.534 1.166-1.137.004-1.98-.37-2.53-1.12-.548-.75-.837-1.877-.862-3.37l-.006-1.807c-.007-1.567.258-2.731.796-3.492.54-.766 1.385-1.148 2.542-1.152 1.146-.005 1.993.357 2.537 1.09.543.73.827 1.861.849 3.394l.006 1.756z"/>
            <path fill="#FFF" d="M407.222 94.092L404.158 93.65 402.786 90.877 401.418 93.653 398.356 94.102 400.575 96.258 400.055 99.308 402.793 97.866 405.535 99.302 405.008 96.253zM396.573 96.701L395.574 94.685 394.58 96.703 392.353 97.029 393.966 98.598 393.588 100.816 395.58 99.767 397.573 100.812 397.19 98.595 398.801 97.022zM413.238 97.008L411.01 96.686 410.011 94.669 409.017 96.688 406.789 97.014 408.403 98.583 408.025 100.801 410.016 99.752 412.01 100.797 411.627 98.58zM417.528 213.02L417.528 178.336 452.227 213.02z"/>
            <use fill="#000" filter="url(#prefix__c)" xlink:href="#prefix__d"/>
            <use fill="#FFF" xlink:href="#prefix__d"/>
            <path fill="#FFF" d="M144.466 213.02L144.466 178.336 109.767 213.02z"/>
            <g>
                <use fill="#000" filter="url(#prefix__e)" xlink:href="#prefix__f"/>
                <use fill="#FFF" xlink:href="#prefix__f"/>
            </g>
        </g>
        <text fill="#E7AD26" font-family="PingFangTC-Semibold, PingFang TC" font-size="24" font-weight="500" letter-spacing="4.8" transform="translate(-1)">
            <tspan x="431.9" y="236">實體紙本</tspan>
        </text>
        <text fill="#0E6DA0" font-family="PingFangTC-Semibold, PingFang TC" font-size="24" font-weight="500" letter-spacing="4.8" transform="translate(-1)">
            <tspan x="24.4" y="237">電子票券</tspan>
        </text>
    </g>
</svg>
