<svg xmlns="http://www.w3.org/2000/svg" xmlns:xlink="http://www.w3.org/1999/xlink" width="359" height="273" viewBox="0 0 359 273">
    <defs>
        <path id="prefix__a" d="M0 273L251 273 251 0 0 0z"/>
    </defs>
    <g fill="none" fill-rule="evenodd">
        <path fill="#225F9B" d="M170.289 202H72.712c-4.258 0-7.712-3.448-7.712-7.701V8.7C65 4.448 68.454 1 72.712 1h97.577C174.549 1 178 4.448 178 8.701V194.3c0 4.253-3.451 7.701-7.711 7.701"/>
        <path fill="#3EA4FF" d="M157.301 202H85.7c-3.7 0-6.699-2.986-6.699-6.67V7.67C79 3.986 81.999 1 85.699 1H157.3c3.7 0 6.699 2.986 6.699 6.67v187.66c0 3.684-2.999 6.67-6.699 6.67"/>
        <path fill="#FFFFE5" d="M165.5 189h-88c-3.039 0-5.5-2.447-5.5-5.467V20.467C72 17.447 74.461 15 77.5 15h88c3.039 0 5.5 2.447 5.5 5.467v163.066c0 3.02-2.461 5.467-5.5 5.467"/>
        <path fill="#BCBEC0" d="M130.464 10h-17.928c-1.4 0-2.536-1.119-2.536-2.5 0-1.38 1.135-2.5 2.536-2.5h17.928c1.4 0 2.536 1.12 2.536 2.5 0 1.381-1.135 2.5-2.536 2.5"/>
        <path fill="#FFF" d="M130.464 198h-17.928c-1.4 0-2.536-1.119-2.536-2.499 0-1.381 1.135-2.501 2.536-2.501h17.928c1.4 0 2.536 1.12 2.536 2.501 0 1.38-1.135 2.499-2.536 2.499"/>
        <path fill="#FFC57D" d="M165.5 14h-88c-3.039 0-5.5 2.463-5.5 5.5V25h99v-5.5c0-3.037-2.461-5.5-5.5-5.5"/>
        <mask id="prefix__b" fill="#fff">
            <use xlink:href="#prefix__a"/>
        </mask>
        <path fill="#FFC57D" d="M164 178L171 178 171 26 164 26z" mask="url(#prefix__b)"/>
        <path fill="#FFC632" d="M76 122c0 20.986-17.014 38-38 38S0 142.986 0 122s17.014-38 38-38 38 17.014 38 38" mask="url(#prefix__b)"/>
        <path fill="#E7AD26" d="M38.196 101.362c.968 0 1.754.78 1.754 1.743 0 .963-.786 1.744-1.754 1.744-.967 0-1.753-.781-1.753-1.744s.786-1.743 1.753-1.743m17.802 38.519c-.005-.104-.02-.21-.047-.314-.035-.139-.091-.276-.17-.411l-1.219-2.11c-.05-.086-.098-.173-.146-.26l-.037-.066-.137-.255-.025-.049-.109-.217c-.014-.028-.028-.054-.04-.082-.042-.081-.081-.164-.12-.248l-.034-.074c-.03-.063-.06-.13-.089-.195-.014-.028-.026-.058-.038-.086-1.213-2.763-1.597-5.828-1.086-8.826l.664-3.897c.865-5.073-.78-10.313-4.575-13.812-1.711-1.576-3.777-2.775-6.068-3.464.388-.72.608-1.539.608-2.41 0-2.82-2.299-5.105-5.134-5.105-2.834 0-5.133 2.285-5.133 5.105 0 .871.22 1.69.606 2.408-.721.218-1.42.486-2.093.8-6.332 2.959-9.726 9.929-8.457 16.772l.495 2.67c.616 3.32.128 6.744-1.38 9.755l-.118.23-.042.082c-.055.102-.11.205-.167.307l-1.702 3.048c-.038.067-.068.135-.096.204-.026.069-.05.137-.066.206-.024.104-.038.209-.042.312-.004.104.003.206.02.306.01.068.024.134.044.199.02.065.041.128.07.19.013.03.026.062.043.091.076.149.176.288.294.409l.074.068c.178.158.393.279.633.345.14.038.287.059.44.059h10.917l-.06.193c0 .006-.002.011-.004.018l-.039.149c-.002.012-.006.023-.009.034l-.034.153-.005.024c-.012.057-.023.116-.032.174l-.007.032-.021.141-.008.049c-.008.056-.013.11-.02.165v.009c-.007.06-.012.118-.016.178l-.003.048c-.003.045-.006.088-.007.133l-.003.053-.002.178c0 3.15 2.568 5.703 5.734 5.703.247 0 .49-.015.73-.046.191-.024.38-.058.565-.1.093-.02.184-.045.275-.07.499-.142.97-.348 1.403-.61.039-.024.079-.047.118-.072.503-.322.955-.72 1.333-1.176.03-.037.06-.071.087-.107.057-.072.112-.146.165-.22.267-.373.49-.779.66-1.21.034-.086.066-.174.097-.263l.043-.133c.027-.089.054-.18.077-.27.118-.455.18-.932.18-1.426l-.002-.178c0-.018-.002-.035-.003-.053-.001-.045-.004-.088-.006-.133l-.004-.048c-.004-.06-.008-.118-.014-.178l-.001-.009-.021-.165c-.003-.016-.004-.032-.006-.049l-.022-.141-.005-.032c-.012-.058-.022-.117-.035-.174l-.005-.024c-.01-.051-.022-.102-.034-.153l-.01-.034c-.012-.05-.024-.1-.038-.15l-.005-.017c-.018-.065-.037-.13-.057-.193h10.914c.156 0 .305-.02.444-.059.07-.02.137-.043.201-.072.033-.014.064-.028.096-.045.12-.061.23-.136.328-.224.03-.025.059-.052.087-.08.07-.073.134-.151.192-.237.019-.028.035-.057.053-.086.04-.07.076-.144.105-.218.02-.05.039-.103.054-.155.028-.098.046-.199.055-.302.006-.068.008-.138.004-.207" mask="url(#prefix__b)"/>
        <path fill="#FFEF92" d="M55.782 135.637l-1.22-2.068c-1.811-3.072-2.47-6.662-1.86-10.156l.663-3.822c.865-4.973-.78-10.11-4.575-13.542-2.78-2.512-6.503-4.049-10.592-4.049-2.369 0-4.613.514-6.621 1.436-6.332 2.9-9.727 9.734-8.457 16.444l.495 2.618c.657 3.48.055 7.077-1.708 10.171l-1.702 2.99c-.597 1.05.182 2.341 1.415 2.341h32.76c1.245 0 2.023-1.311 1.402-2.363" mask="url(#prefix__b)"/>
        <path fill="#FFF" d="M48.86 135.637l-.778-2.068c-1.157-3.072-1.58-6.662-1.19-10.156l.424-3.822c.553-4.973-.498-10.11-2.923-13.542-1.776-2.512-4.154-4.049-6.768-4.049-1.513 0-2.946.514-4.228 1.436-4.047 2.9-6.214 9.734-5.403 16.444l.316 2.618c.42 3.48.035 7.077-1.091 10.171l-1.087 2.99c-.383 1.05.114 2.341.903 2.341h20.93c.795 0 1.292-1.311.895-2.363" mask="url(#prefix__b)"/>
        <path fill="#FFEFBC" d="M43 139.5c0 3.038-2.462 5.5-5.5 5.5-3.037 0-5.5-2.462-5.5-5.5s2.463-5.5 5.5-5.5c3.038 0 5.5 2.462 5.5 5.5" mask="url(#prefix__b)"/>
        <path fill="#FFDC60" d="M37.5 142.023c-2.524 0-4.65-1.702-5.297-4.023-.133.472-.203.972-.203 1.487 0 3.044 2.462 5.513 5.5 5.513 3.04 0 5.5-2.469 5.5-5.513 0-.515-.07-1.015-.203-1.487-.646 2.321-2.772 4.023-5.297 4.023" mask="url(#prefix__b)"/>
        <path fill="#FFEF92" d="M38 101.708c-.943 0-1.708-.764-1.708-1.707 0-.944.765-1.709 1.709-1.709.943 0 1.707.765 1.707 1.709 0 .943-.764 1.707-1.707 1.707M38 95C35.239 95 33 97.24 33 100s2.24 5 5 5 5-2.24 5-5-2.24-5-5-5" mask="url(#prefix__b)"/>
        <path fill="#FFDC60" d="M38.5 101.232c-.956 0-1.732-.775-1.732-1.73 0-.957.776-1.732 1.732-1.732s1.73.775 1.73 1.731c0 .956-.774 1.73-1.73 1.73m0-5.231c-1.934 0-3.5 1.567-3.5 3.501 0 1.933 1.566 3.499 3.5 3.499 1.933 0 3.5-1.566 3.5-3.499C42 97.567 40.433 96 38.5 96" mask="url(#prefix__b)"/>
        <path fill="#FFEF92" d="M21.907 132.623l-1.701 3.016c-.6 1.06.181 2.361 1.413 2.361H54.38c1.245 0 2.022-1.322 1.403-2.383l-1.221-2.086c-.29-.499-.551-1.01-.782-1.531H22.241c-.106.209-.217.417-.334.623" mask="url(#prefix__b)"/>
        <path fill="#FFFFED" d="M48.86 135.617l-.778-2.087c-.187-.498-.354-1.009-.5-1.53H27.43c-.067.209-.137.417-.212.623l-1.087 3.015c-.383 1.06.114 2.362.903 2.362h20.93c.795 0 1.292-1.323.895-2.383" mask="url(#prefix__b)"/>
        <path fill="#FFF" d="M170.589 239.357l-32.71 6.454c-6.04 1.191-12.206 1.528-18.317 1.007-4.044-.344-7.12-3.792-7.12-7.843v-3.935c0-1.45 1.178-2.625 2.63-2.625h15.99c4.226 0 7.912-3.252 8.04-7.471.13-4.364-3.375-7.944-7.717-7.944H56v39.688h4.283c2.803 0 5.514.987 7.659 2.787 1.539 1.291 3.38 2.173 5.352 2.562l39.115 7.718c8.409 1.66 17.062 1.66 25.47 0l35.766-7.057c3.694-.73 6.355-3.964 6.355-7.723v-7.896c0-4.96-4.538-8.684-9.411-7.722" mask="url(#prefix__b)"/>
        <path fill="#D1D3D4" d="M173.645 251.234L137.88 258.2c-8.409 1.637-17.062 1.637-25.471 0l-39.115-7.616c-1.973-.385-3.813-1.254-5.35-2.53-2.147-1.776-4.858-2.75-7.66-2.75H56v10.574h4.283c2.803 0 5.514.975 7.66 2.75 1.538 1.275 3.378 2.144 5.351 2.529l39.115 7.616c8.409 1.637 17.062 1.637 25.47 0l35.766-6.964c3.694-.72 6.355-3.912 6.355-7.622v-7.792c0-.476-.043-.941-.125-1.394-.57 3.096-3.006 5.606-6.23 6.234" mask="url(#prefix__b)"/>
        <path fill="#EEB560" d="M48.208 273h-9.416C34.49 273 31 269.45 31 265.074v-55.148c0-4.378 3.49-7.926 7.792-7.926h9.416c4.302 0 7.792 3.548 7.792 7.926v55.148c0 4.376-3.49 7.926-7.792 7.926" mask="url(#prefix__b)"/>
        <path fill="#3EA4FF" d="M48.208 255.759h-9.416C34.49 255.759 31 252.284 31 248v17.242c0 4.284 3.49 7.758 7.792 7.758h9.416c4.302 0 7.792-3.474 7.792-7.758V248c0 4.284-3.49 7.759-7.792 7.759" mask="url(#prefix__b)"/>
        <path fill="#D1D3D4" d="M112.495 238.254v-3.887c0-1.432 1.17-2.592 2.613-2.592h15.862c4.046 0 7.67-2.95 8.003-6.95.023-.277.031-.552.025-.825h-22c-6.436 0-11.497 5.46-10.959 11.824.458 5.395 4.834 9.642 10.282 9.977l3.252.199c-4.02-.341-7.078-3.745-7.078-7.746" mask="url(#prefix__b)"/>
        <path fill="#FFC632" d="M189.99 18.993c6.99-15.976 25.724-23.31 41.845-16.382 16.121 6.926 23.52 25.494 16.53 41.468-6.99 15.976-25.724 23.309-41.844 16.382-1.155-.496-2.263-1.05-3.326-1.661l-15.317 5.996c-2.345.918-4.64-1.431-3.636-3.724l6.627-15.146c-4.188-8.103-4.82-17.93-.88-26.933" mask="url(#prefix__b)"/>
        <path fill="#E7AD26" d="M190.85 18.656c.399-.915.84-1.798 1.313-2.656-5.03 15.296 2.377 32.17 17.501 38.7 15.125 6.53 32.559.382 40.336-13.727-.306.93-.651 1.853-1.05 2.769-6.845 15.716-25.004 23.069-40.867 16.707l-21.225 8.347c-2.332.919-4.615-1.431-3.617-3.723l1.888-4.337c-.996 2.292 1.287 4.64 3.62 3.722l15.244-5.996c-13.714-7.91-19.602-24.976-13.143-39.806" mask="url(#prefix__b)"/>
        <path fill="#E7AD26" d="M224.144 39.052c0-.558-.076-1.052-.224-1.477-.148-.428-.39-.813-.728-1.16-.339-.346-.774-.665-1.309-.958-.534-.294-1.184-.58-1.955-.86-1.323-.492-2.524-1.008-3.605-1.548-1.083-.539-2.007-1.161-2.777-1.868-.77-.707-1.367-1.532-1.793-2.477-.425-.946-.639-2.07-.639-3.377 0-1.131.19-2.163.568-3.097.378-.932.918-1.743 1.621-2.436.702-.693 1.544-1.255 2.522-1.688.98-.433 2.077-.71 3.293-.829V13h3.242v4.336c1.163.16 2.216.486 3.161.979.946.494 1.75 1.131 2.413 1.919.66.786 1.172 1.714 1.53 2.785.356 1.073.536 2.275.536 3.608h-5.856c0-1.599-.335-2.794-1.003-3.587-.67-.792-1.564-1.189-2.686-1.189-.607 0-1.131.09-1.57.271-.439.179-.8.425-1.084.738-.284.314-.493.682-.627 1.109-.137.426-.204.886-.204 1.378 0 .494.067.94.204 1.34.134.399.366.769.698 1.108.331.34.77.66 1.317.959.548.3 1.226.61 2.038.93 1.308.518 2.502 1.051 3.576 1.597 1.072.546 1.995 1.176 2.765 1.888.77.713 1.369 1.542 1.794 2.488.425.946.638 2.064.638 3.356 0 1.172-.192 2.224-.578 3.157-.384.932-.929 1.737-1.631 2.418-.702.679-1.549 1.224-2.543 1.636-.993.413-2.097.68-3.313.8V51h-3.222v-3.956c-1.122-.12-2.206-.379-3.253-.778-1.047-.4-1.975-.977-2.786-1.729-.81-.752-1.459-1.702-1.944-2.847-.487-1.145-.73-2.517-.73-4.115h5.856c0 .946.124 1.734.376 2.367.249.632.584 1.138 1.002 1.518.419.38.894.646 1.428.8.534.152 1.077.23 1.63.23.636 0 1.194-.088 1.673-.262.48-.171.882-.412 1.205-.718.325-.306.569-.669.731-1.088.162-.42.243-.876.243-1.37" mask="url(#prefix__b)"/>
        <path fill="#FFF" d="M224.133 35.053c0-1.138-.358-2.154-1.244-2.909-.846-.723-1.927-1.168-2.968-1.547-3.166-1.18-6.757-2.668-8.191-5.94-.673-1.537-.775-3.378-.465-5.01.32-1.675 1.202-3.198 2.523-4.296 1.494-1.244 3.396-1.886 5.323-2.075V9h3.24v4.336c2.208.304 4.31 1.31 5.703 3.06 1.402 1.764 1.93 4.024 1.93 6.23h-5.851c0-1.135-.147-2.367-.809-3.33-.655-.957-1.72-1.442-2.877-1.444-1.328-.004-2.618.546-3.164 1.807-.492 1.135-.48 2.709.253 3.74.833 1.176 2.38 1.77 3.682 2.285 3.157 1.253 6.75 2.761 8.169 6.065.666 1.55.755 3.404.431 5.045-.318 1.613-1.172 3.094-2.446 4.158-1.52 1.266-3.492 1.88-5.447 2.072V47h-3.219v-3.956c-2.437-.26-4.901-1.166-6.542-3.03-1.575-1.786-2.164-4.113-2.164-6.44h5.851c0 1.105.174 2.229.783 3.177.612.953 1.592 1.48 2.703 1.66 1.112.183 2.353.083 3.326-.52.993-.614 1.47-1.704 1.47-2.838" mask="url(#prefix__b)"/>
        <path fill="#646464" d="M91.5 78c.828 0 1.5-.672 1.5-1.5V72h4.5c.828 0 1.5-.672 1.5-1.5 0-.83-.672-1.5-1.5-1.5h-6c-.83 0-1.5.67-1.5 1.5v6c0 .828.67 1.5 1.5 1.5M151.5 69h-6c-.83 0-1.5.67-1.5 1.5 0 .828.67 1.5 1.5 1.5h4.5v4.5c0 .828.67 1.5 1.5 1.5.828 0 1.5-.672 1.5-1.5v-6c0-.83-.672-1.5-1.5-1.5M97.5 128H93v-4.5c0-.83-.672-1.5-1.5-1.5-.83 0-1.5.67-1.5 1.5v6c0 .828.67 1.5 1.5 1.5h6c.828 0 1.5-.672 1.5-1.5 0-.83-.672-1.5-1.5-1.5M151.5 122c-.83 0-1.5.67-1.5 1.5v4.5h-4.5c-.83 0-1.5.67-1.5 1.5 0 .828.67 1.5 1.5 1.5h6c.828 0 1.5-.672 1.5-1.5v-6c0-.83-.672-1.5-1.5-1.5M103 84h3v-3h-3v3zm-3 1.5c0 .828.67 1.5 1.5 1.5h6c.828 0 1.5-.672 1.5-1.5v-6c0-.83-.672-1.5-1.5-1.5h-6c-.83 0-1.5.67-1.5 1.5v6zM138 84h3v-3h-3v3zm-1.5 3h6c.828 0 1.5-.672 1.5-1.5v-6c0-.83-.672-1.5-1.5-1.5h-6c-.83 0-1.5.67-1.5 1.5v6c0 .828.67 1.5 1.5 1.5zM103 119h3v-3h-3v3zm4.5-6h-6c-.83 0-1.5.67-1.5 1.5v6c0 .828.67 1.5 1.5 1.5h6c.828 0 1.5-.672 1.5-1.5v-6c0-.83-.672-1.5-1.5-1.5zM135.5 119H131v-4.5c0-.83-.672-1.5-1.5-1.5-.83 0-1.5.67-1.5 1.5v6c0 .828.67 1.5 1.5 1.5h6c.828 0 1.5-.672 1.5-1.5 0-.83-.672-1.5-1.5-1.5M144 110.625c0-.898-.672-1.625-1.5-1.625-.83 0-1.5.727-1.5 1.625v9.75c0 .897.67 1.625 1.5 1.625.828 0 1.5-.728 1.5-1.625v-9.75z" mask="url(#prefix__b)"/>
        <path fill="#646464" d="M144 104.625c0-.898-.672-1.625-1.5-1.625h-6c-.83 0-1.5.727-1.5 1.625v9.75c0 .897.67 1.625 1.5 1.625.828 0 1.5-.728 1.5-1.625v-8.125h4.5c.828 0 1.5-.728 1.5-1.625M129.375 109c.897 0 1.625-.672 1.625-1.5v-3c0-.83-.728-1.5-1.625-1.5h-9.75c-.898 0-1.625.67-1.625 1.5 0 .828.727 1.5 1.625 1.5h8.125v1.5c0 .828.727 1.5 1.625 1.5M113.5 116h3c.828 0 1.5-.672 1.5-1.5 0-.83-.672-1.5-1.5-1.5h-3c-.83 0-1.5.67-1.5 1.5 0 .828.67 1.5 1.5 1.5" mask="url(#prefix__b)"/>
        <path fill="#646464" d="M123.375 109c-.898 0-1.625.727-1.625 1.625v8.125h-8.125c-.898 0-1.625.727-1.625 1.625 0 .897.727 1.625 1.625 1.625h9.75c.897 0 1.625-.728 1.625-1.625v-9.75c0-.898-.728-1.625-1.625-1.625M100.6 103c-.884 0-1.6.67-1.6 1.5v3c0 .828.716 1.5 1.6 1.5h12.8c.883 0 1.6-.672 1.6-1.5v-3c0-.83-.717-1.5-1.6-1.5-.884 0-1.6.67-1.6 1.5v1.5h-9.6v-1.5c0-.83-.717-1.5-1.6-1.5M113.583 81h14.25v4.5c0 .828.708 1.5 1.584 1.5.874 0 1.583-.672 1.583-1.5v-6c0-.83-.71-1.5-1.583-1.5h-15.834c-.875 0-1.583.67-1.583 1.5 0 .828.708 1.5 1.583 1.5" mask="url(#prefix__b)"/>
        <path fill="#646464" d="M113.625 87h9.75c.897 0 1.625-.672 1.625-1.5 0-.83-.728-1.5-1.625-1.5h-9.75c-.898 0-1.625.67-1.625 1.5 0 .828.727 1.5 1.625 1.5M136.375 94c.897 0 1.625-.672 1.625-1.5 0-.83-.728-1.5-1.625-1.5h-9.75c-.898 0-1.625.67-1.625 1.5 0 .828.727 1.5 1.625 1.5h9.75z" mask="url(#prefix__b)"/>
        <path fill="#646464" d="M148.417 100c.874 0 1.583-.672 1.583-1.5 0-.83-.71-1.5-1.583-1.5h-4.75v-4.5c0-.83-.71-1.5-1.584-1.5-.875 0-1.583.67-1.583 1.5V97h-19v-4.5c0-.83-.71-1.5-1.583-1.5-.876 0-1.584.67-1.584 1.5V97H102.5v-3h11.083c.874 0 1.584-.672 1.584-1.5 0-.83-.71-1.5-1.584-1.5h-12.666c-.876 0-1.584.67-1.584 1.5V97h-4.75c-.875 0-1.583.67-1.583 1.5 0 .828.708 1.5 1.583 1.5h53.834z" mask="url(#prefix__b)"/>
        <rect width="206" height="51" x="153" y="134.79" fill="#E2854A" rx="10"/>
        <path fill="#E2854A" d="M162.213 145.727L162.213 111 197.242 145.727z"/>
        <path fill="#FFF" fill-rule="nonzero" d="M188.928 172.472l1.68-1.968c-1.584-1.488-2.928-3.144-4.008-4.944 1.536-3.048 2.568-6.696 3.072-10.92v-2.28h-9.456v-1.344H168.6v2.352h1.656v14.04l-1.968.216.624 2.472c2.544-.36 4.992-.768 7.296-1.248v3.576h2.448v-19.056h1.296v1.392h.96c.336 3.84 1.32 7.368 2.952 10.632-1.2 1.992-2.736 3.696-4.56 5.112l1.704 1.968c1.632-1.296 3.048-2.832 4.248-4.632 1.032 1.632 2.256 3.168 3.672 4.632zm-12.72-16.152h-3.504v-2.952h3.504v2.952zm8.976 6.504c-1.056-2.448-1.728-5.136-1.968-8.064h4.104c-.384 3-1.104 5.688-2.136 8.064zm-8.976-1.296h-3.504v-2.952h3.504v2.952zm-3.504 5.52v-3.264h3.504v2.568c-1.152.24-2.328.48-3.504.696zm23.16-8.736c3.144-2.112 5.352-4.488 6.648-7.08l-2.088-1.008c-1.152 2.16-2.928 4.056-5.328 5.664l.768 2.424zm19.68.816v-8.112h-11.808v8.112h11.808zm-2.4-4.992h-7.032v-1.152h7.032v1.152zm0 3.024h-7.032v-1.176h7.032v1.176zm-12.504 15.384v-11.952c.816-1.008 1.488-2.088 2.016-3.24l-2.16-1.008c-1.152 2.352-2.904 4.416-5.28 6.192l.744 2.376c.792-.576 1.536-1.152 2.256-1.776v9.408h2.424zm11.088-.192c1.632 0 2.448-.792 2.448-2.328v-3.984h3.216v-2.184h-3.216v-1.32h2.664v-2.16H202.8v2.16h8.904v1.32h-9.768v2.184h9.768v3.384c0 .48-.288.744-.84.744-.72 0-1.464-.072-2.28-.168l.528 2.352h2.616zm-4.872-1.32l1.896-1.296c-.672-1.008-1.656-2.184-2.952-3.48l-1.8 1.296c1.2 1.272 2.16 2.424 2.856 3.48zm30.144.84l1.824-1.584c-.624-.912-1.272-1.776-1.896-2.592 1.344-1.584 2.04-3.672 2.04-6.24 0-2.64-.72-4.776-2.16-6.384-1.512-1.704-3.576-2.544-6.192-2.544-2.64 0-4.704.84-6.192 2.568-1.44 1.632-2.136 3.744-2.136 6.36 0 2.592.696 4.704 2.136 6.336 1.488 1.68 3.552 2.544 6.192 2.544 1.728 0 3.24-.384 4.488-1.104.624.816 1.248 1.704 1.896 2.64zm-6.384-4.008c-1.776 0-3.168-.6-4.128-1.776-.936-1.152-1.392-2.688-1.392-4.632 0-1.968.456-3.504 1.392-4.656.984-1.2 2.352-1.8 4.128-1.8 1.776 0 3.144.552 4.104 1.704.936 1.152 1.416 2.736 1.416 4.752 0 1.656-.336 3.024-.96 4.08-.816-.96-1.656-1.896-2.496-2.784l-1.632 1.584c.792.84 1.608 1.776 2.472 2.832-.816.456-1.776.696-2.904.696zm16.8 2.136v-6.984h4.44c.96 0 1.704.192 2.208.624.48.408.768 1.08.864 2.016l.216 2.112c.096.96.336 1.704.744 2.232h3.048c-.576-.624-.936-1.464-1.032-2.52l-.288-2.76c-.192-1.68-1.032-2.664-2.52-3v-.048c.912-.24 1.656-.744 2.184-1.512.48-.696.72-1.488.72-2.376 0-1.632-.552-2.88-1.608-3.744-1.008-.792-2.4-1.176-4.152-1.176h-7.632V170h2.808zm4.44-9.384h-4.44v-5.352h4.44c1.152 0 1.992.192 2.52.624.528.408.792 1.08.792 2.016 0 .864-.264 1.536-.792 2.016-.576.456-1.416.696-2.52.696zm30.96 9.72c1.848 0 3.432-.528 4.752-1.584 1.416-1.128 2.304-2.688 2.688-4.704h-2.736c-.336 1.296-.912 2.28-1.728 2.928-.768.576-1.776.888-3 .888-1.872 0-3.264-.6-4.152-1.752-.816-1.08-1.224-2.64-1.224-4.656 0-1.968.408-3.504 1.248-4.608.912-1.248 2.256-1.848 4.056-1.848 1.2 0 2.184.24 2.952.768.792.528 1.32 1.344 1.608 2.472h2.736c-.264-1.728-1.008-3.12-2.256-4.128-1.296-1.056-2.976-1.584-4.992-1.584-2.736 0-4.824.888-6.264 2.712-1.272 1.584-1.896 3.672-1.896 6.216 0 2.592.6 4.656 1.824 6.192 1.392 1.776 3.528 2.688 6.384 2.688zm18.6 0c1.872 0 3.408-.624 4.56-1.872 1.104-1.2 1.68-2.76 1.68-4.656 0-1.92-.576-3.48-1.704-4.704-1.152-1.248-2.664-1.848-4.536-1.848-1.896 0-3.408.6-4.536 1.848-1.152 1.224-1.704 2.784-1.704 4.704 0 1.896.552 3.456 1.68 4.656 1.152 1.248 2.664 1.872 4.56 1.872zm0-2.232c-1.152 0-2.016-.456-2.64-1.344-.528-.768-.792-1.752-.792-2.952s.264-2.208.792-2.976c.624-.912 1.488-1.344 2.64-1.344 1.128 0 2.016.432 2.64 1.344.528.768.816 1.776.816 2.976 0 1.176-.288 2.16-.816 2.952-.624.888-1.512 1.344-2.64 1.344zm16.92 2.232c1.632 0 2.88-.552 3.744-1.656V170h2.544v-17.472h-2.736v6.768c-1.032-1.368-2.256-2.04-3.696-2.04-1.776 0-3.192.648-4.2 1.944-.96 1.2-1.416 2.712-1.416 4.536 0 1.896.48 3.456 1.44 4.656 1.032 1.296 2.472 1.944 4.32 1.944zm.408-2.208c-1.224 0-2.112-.432-2.664-1.296-.48-.72-.696-1.752-.696-3.096s.24-2.352.744-3.048c.576-.816 1.464-1.224 2.712-1.224.864 0 1.608.36 2.184 1.08.624.768.96 1.824.96 3.144v.192c0 1.2-.264 2.208-.768 2.976-.576.84-1.416 1.272-2.472 1.272zm17.16 2.208c1.656 0 3.024-.48 4.128-1.416.864-.768 1.44-1.752 1.728-2.904h-2.736c-.336.696-.696 1.2-1.104 1.512-.528.384-1.2.576-2.04.576-.984 0-1.752-.312-2.28-.912-.528-.6-.84-1.488-.936-2.64h9.288c0-2.232-.504-3.984-1.488-5.232-1.08-1.392-2.64-2.064-4.68-2.064-1.848 0-3.312.624-4.368 1.896-1.104 1.248-1.632 2.784-1.632 4.632 0 2.064.576 3.672 1.728 4.848 1.08 1.128 2.544 1.704 4.392 1.704zm3.192-7.848h-6.384c.168-.984.504-1.728 1.008-2.232.528-.528 1.224-.768 2.136-.768 1.92 0 3 .984 3.24 3z"/>
    </g>
</svg>
