<svg xmlns="http://www.w3.org/2000/svg" xmlns:xlink="http://www.w3.org/1999/xlink" width="424" height="274" viewBox="0 0 424 274">
    <defs>
        <path id="prefix__a" d="M0.226 0L69.792 0 69.792 76.449 0.226 76.449z"/>
        <path id="prefix__c" d="M0.497 0L36.212 0 36.212 30.422 0.497 30.422z"/>
        <path id="prefix__e" d="M0.198 0L61.504 0 61.504 31.738 0.198 31.738z"/>
        <path id="prefix__g" d="M0 0.074L273 0.074 273 129 0 129z"/>
        <path id="prefix__i" d="M0 250L273 250 273 0 0 0z"/>
        <path id="prefix__k" d="M0 0.21L213 0.21 213 73.21 0 73.21z"/>
    </defs>
    <g fill="none" fill-rule="evenodd">
        <g transform="translate(0 -1) translate(0 25)">
            <path fill="#079690" d="M214.697 116.012v20.153c-2.648 3.08-5.528 5.959-8.608 8.61l-.07.062c-3.132 2.689-6.474 5.148-9.995 7.345-.82.512-1.651 1.01-2.491 1.493-.003.003-.005.003-.011.006-1.554.894-3.138 1.74-4.755 2.53h-.003c-6.578 3.225-13.651 5.584-21.078 6.935-1.872.343-3.764.618-5.68.828-.74.08-1.48.153-2.224.213-2.177.18-4.38.274-6.604.28h-.351c-2.21-.006-4.398-.1-6.561-.277-.008 0-.02 0-.031-.003-.746-.06-1.484-.132-2.224-.213-1.94-.212-3.854-.491-5.75-.84-7.403-1.354-14.456-3.71-21.011-6.922-1.62-.794-3.21-1.64-4.766-2.534-.84-.486-1.671-.984-2.491-1.496-3.547-2.212-6.91-4.691-10.065-7.406-3.08-2.652-5.96-5.531-8.608-8.611v-22.51c0-5.935 1.898-11.426 5.119-15.904 4.95-6.877 13.028-11.358 22.148-11.358h68.834c1.349 0 2.675.098 3.972.288 7.473 1.09 13.962 5.21 18.179 11.079 3.219 4.472 5.11 9.963 5.11 15.896v2.356h.015z"/>
            <path fill="#FFF" d="M112.484 121.074v32.604c-.84-.486-1.671-.984-2.491-1.496-3.547-2.212-6.91-4.691-10.064-7.406-3.081-2.652-5.96-5.531-8.61-8.611v-15.091h21.165zM214.697 121.074v15.09c-2.648 3.08-5.528 5.96-8.608 8.612l-.07.06c-3.132 2.69-6.474 5.149-9.995 7.346-.82.512-1.651 1.01-2.491 1.493v-32.601h21.164zM118.364 50.958c-3.221 0-5.832-2.61-5.832-5.83v-8.889c0-3.22 2.611-5.83 5.832-5.83 3.22 0 5.831 2.61 5.831 5.83v8.888c0 3.221-2.611 5.831-5.831 5.831"/>
            <path fill="#D0D2D3" d="M118.364 48.212c-3.22 0-5.832-2.61-5.832-5.831v2.747c0 3.22 2.612 5.83 5.832 5.83 3.22 0 5.831-2.61 5.831-5.83V42.38c0 3.22-2.61 5.83-5.831 5.83"/>
            <path fill="#FFF" d="M187.654 50.958h-.001c-3.221 0-5.831-2.61-5.831-5.83v-8.889c0-3.22 2.61-5.83 5.831-5.83h.001c3.22 0 5.831 2.61 5.831 5.83v8.888c0 3.221-2.611 5.831-5.831 5.831"/>
            <path fill="#D0D2D3" d="M187.653 48.212c-3.221 0-5.831-2.61-5.831-5.831v2.747c0 3.22 2.61 5.83 5.831 5.83 3.221 0 5.832-2.61 5.832-5.83V42.38c0 3.22-2.611 5.83-5.832 5.83"/>
            <path fill="#FFF" d="M139.438 67.966v18.426h-.01l.003.004c6.833 8.958 20.318 8.957 27.148-.004V67.966h-27.141z"/>
            <g transform="translate(118)">
                <mask id="prefix__b" fill="#fff">
                    <use xlink:href="#prefix__a"/>
                </mask>
                <path fill="#FFF" d="M.873 28.087c1.129-5.8 3.698-11.083 7.325-15.462 1.047-1.271 2.186-2.46 3.403-3.57C17.78 3.428 25.993 0 35.009 0c.4 0 .803.007 1.203.024.136 0 .27.007.403.014 8.969.406 17.046 4.206 22.99 10.15 5.295 5.295 8.892 12.293 9.899 20.102.189 1.47.288 2.969.288 4.49v6.888c0 19.21-15.571 34.78-34.783 34.78-19.21 0-34.783-15.57-34.783-34.78V34.78c0-1.478.09-2.932.27-4.36l.377-2.334z" mask="url(#prefix__b)"/>
            </g>
            <path fill="#D0D2D3" d="M153.008 70.956c-19.208 0-34.783-15.57-34.783-34.782v5.493c0 19.212 15.576 34.781 34.784 34.781 19.212 0 34.783-15.57 34.783-34.78v-5.493c0 19.21-15.572 34.78-34.784 34.78"/>
            <path fill="#4B6084" d="M118.873 28.087h3.322v16.668c0 1.087-.84 2.034-1.926 2.064-1.125.03-2.043-.87-2.043-1.982V32.846c0-1.61.217-3.21.647-4.76M187.792 32.585v12.181c0 1.01-.725 1.91-1.727 2.037-1.21.154-2.242-.786-2.242-1.967v-16.75h3.324c.428 1.462.645 2.977.645 4.5"/>
            <g transform="translate(118)">
                <mask id="prefix__d" fill="#fff">
                    <use xlink:href="#prefix__c"/>
                </mask>
                <path fill="#4B6084" d="M36.212.024c-3.518 5.49-12.24 17.36-26.363 25.708-3.4 2.006-6.522 3.538-9.352 4.69.004-.003.004-.01.004-.013.84-6.711 3.592-12.83 7.697-17.784 1.047-1.271 2.186-2.46 3.403-3.57C17.78 3.428 25.993 0 35.009 0c.4 0 .803.007 1.203.024" mask="url(#prefix__d)"/>
            </g>
            <g transform="translate(126)">
                <mask id="prefix__f" fill="#fff">
                    <use xlink:href="#prefix__e"/>
                </mask>
                <path fill="#808F91" d="M61.504 30.29c-4.735 1.434-14.066 2.786-28.885-1.088C17.633 25.288 6.262 17.522.198 12.625c1.047-1.271 2.186-2.46 3.403-3.57C9.78 3.428 17.993 0 27.009 0c.536 0 1.075.01 1.606.038 8.969.406 17.046 4.206 22.992 10.15 5.293 5.294 8.89 12.293 9.897 20.102" mask="url(#prefix__f)"/>
            </g>
            <path fill="#4B6084" d="M158.618 8.866c-6.562-1.714-12.43-4.167-17.464-6.793-4.313 1.563-8.228 3.953-11.554 6.983-1.216 1.108-2.356 2.298-3.403 3.57 6.064 4.896 17.436 12.661 32.421 16.576 14.82 3.874 24.15 2.521 28.885 1.088-.934-7.25-4.104-13.8-8.79-18.939-5.04.228-11.682-.285-20.095-2.485"/>
            <path fill="#808F91" d="M158.618 15.645c-9.58-2.503-17.68-6.58-23.865-10.474-1.838 1.136-3.563 2.437-5.153 3.885-1.216 1.109-2.356 2.298-3.403 3.569 6.064 4.897 17.436 12.663 32.421 16.577 14.82 3.874 24.15 2.522 28.885 1.088-.585-4.537-2.049-8.798-4.208-12.613-5.314.837-13.407.914-24.677-2.032"/>
            <path fill="#4B6084" d="M158.618 22.423c-12.293-3.21-22.152-9.013-28.646-13.698-.125.11-.249.22-.372.331-1.216 1.108-2.356 2.298-3.403 3.57 6.064 4.896 17.436 12.661 32.421 16.576 14.82 3.874 24.15 2.521 28.885 1.088-.283-2.2-.779-4.33-1.454-6.382-5.079 1.244-14.002 2.026-27.43-1.485"/>
            <path fill="#A62873" d="M153.008 53.188c-2.121 0-3.841-1.72-3.841-3.842v-5.054c0-2.122 1.72-3.842 3.841-3.842 2.123 0 3.843 1.72 3.843 3.842v5.054c0 2.122-1.72 3.842-3.843 3.842M139.79 37.453c0 1.623-1.316 2.938-2.939 2.938-1.622 0-2.937-1.315-2.937-2.938 0-1.622 1.315-2.937 2.937-2.937 1.623 0 2.938 1.315 2.938 2.937M172.102 37.453c0 1.623-1.314 2.938-2.938 2.938-1.622 0-2.937-1.315-2.937-2.938 0-1.622 1.315-2.937 2.937-2.937 1.624 0 2.938 1.315 2.938 2.937M153.008 63.474c-3.752 0-7.284-1.464-9.94-4.121-.352-.35-.352-.917 0-1.267.349-.35.916-.35 1.266 0 2.32 2.319 5.4 3.596 8.674 3.596 3.274 0 6.355-1.277 8.674-3.596.35-.35.918-.35 1.268 0s.35.917 0 1.267c-2.657 2.657-6.188 4.121-9.941 4.121"/>
            <path fill="#F23E23" d="M153.008 160.407L152.993 160.425 152.999 160.445 153.01 160.408z"/>
            <path fill="#2C416D" d="M183.483 98.834c.498 3.495-.22.67 0-.002-4.484-5.264-10.199-9.33-16.904-12.439-6.832 8.96-20.316 8.961-27.148.003l-.002-.003c-14.134 6.554-23.885 17.366-26.945 34.68v32.604c1.556.895 3.146 1.74 4.766 2.534 6.555 3.213 13.608 5.568 21.011 6.923 1.896.348 3.811.627 5.75.84.74.08 1.478.152 2.223.213.012.002.023.002.032.002l5.045.21 1.516.061v.014h.026l.152-.008h.003l.147.008h.023v-.014l1.527-.063 5.077-.21c.745-.06 1.484-.133 2.223-.213 1.916-.21 3.81-.486 5.681-.828 7.427-1.352 14.5-3.71 21.078-6.935h.003c1.616-.79 3.201-1.636 4.755-2.53v-32.608c-1.607-9.102-5.067-16.405-10.039-22.239"/>
            <path fill="#0E6DA0" d="M193.533 153.675l-.011-25.5-.003-7.101-4.752 35.138c1.617-.791 3.202-1.637 4.755-2.531l.01-.006zM117.25 156.211c-1.62-.793-3.21-1.639-4.766-2.534v-32.604l4.766 35.138zM166.578 86.393c-6.83 8.959-20.314 8.961-27.147.003l-.002-.003h-5.647c2.762 6.346 10.324 10.904 19.227 10.904 8.902 0 16.465-4.558 19.226-10.904h-5.657z"/>
            <path fill="#FFF" d="M98.129 118.515v2.291c0 2.413 1.956 4.369 4.369 4.369s4.369-1.956 4.369-4.369v-2.291c0-2.413-1.956-4.369-4.368-4.369h-.001c-2.413 0-4.37 1.956-4.37 4.369M208.089 118.515v2.291c0 2.413-1.957 4.369-4.37 4.369-2.412 0-4.368-1.956-4.368-4.369v-2.291c0-2.413 1.956-4.369 4.369-4.369 2.412 0 4.369 1.956 4.369 4.369"/>
            <g transform="translate(0 121)">
                <mask id="prefix__h" fill="#fff">
                    <use xlink:href="#prefix__g"/>
                </mask>
                <path fill="#E27236" d="M273 .074v128.447c-.146.163-.285.321-.437.48H.437c-.151-.159-.291-.317-.437-.48V.074h273z" mask="url(#prefix__h)"/>
            </g>
            <path fill="#F8F6DE" d="M260.717 134.356L260.717 250 12.283 250 12.283 133.356z"/>
            <path fill="#D0D2D3" d="M99.098 116.502c-1.877 0-3.4 1.522-3.4 3.4v-1.745c0-1.878-1.522-3.4-3.399-3.4-1.878 0-3.4 1.522-3.4 3.4v1.745c0-1.878-1.522-3.4-3.4-3.4-1.877 0-3.399 1.522-3.399 3.4v1.745c0-1.878-1.523-3.4-3.4-3.4s-3.399 1.522-3.399 3.4v8.244c0 1.877 1.522 3.399 3.4 3.399 1.876 0 3.4-1.522 3.4-3.4 0 1.878 1.521 3.4 3.398 3.4 1.878 0 3.4-1.522 3.4-3.4 0 1.878 1.522 3.4 3.4 3.4 1.877 0 3.4-1.522 3.4-3.4 0 1.878 1.522 3.4 3.4 3.4 1.876 0 3.398-1.522 3.398-3.4v-9.988c0-1.878-1.522-3.4-3.399-3.4M227.517 118.248c-1.878 0-3.399 1.52-3.399 3.398v-1.745c0-1.877-1.523-3.4-3.4-3.4-1.878 0-3.4 1.522-3.4 3.4v-1.745c0-1.878-1.522-3.4-3.4-3.4s-3.399 1.522-3.399 3.4v1.745c0-1.877-1.523-3.4-3.4-3.4s-3.4 1.522-3.4 3.4v9.99c0 1.877 1.523 3.399 3.4 3.399s3.4-1.522 3.4-3.398c0 1.876 1.521 3.398 3.4 3.398 1.877 0 3.4-1.522 3.4-3.398 0 1.876 1.521 3.398 3.398 3.398 1.878 0 3.401-1.522 3.401-3.398 0 1.876 1.521 3.398 3.4 3.398 1.876 0 3.398-1.522 3.398-3.398v-8.245c0-1.879-1.522-3.4-3.399-3.4"/>
            <path fill="#FFF" d="M99.098 128.927c1.877 0 3.4-1.522 3.4-3.399v-9.989c0-1.878-1.523-3.4-3.4-3.4s-3.4 1.522-3.4 3.4v9.99c0 1.876 1.523 3.398 3.4 3.398"/>
            <path fill="#FFF" d="M92.299 128.927c1.877 0 3.399-1.522 3.399-3.399v-11.735c0-1.877-1.522-3.399-3.399-3.399s-3.4 1.522-3.4 3.4v11.734c0 1.877 1.523 3.4 3.4 3.4M85.5 128.927c1.877 0 3.399-1.522 3.399-3.399v-9.989c0-1.878-1.522-3.4-3.4-3.4-1.876 0-3.398 1.522-3.398 3.4v9.99c0 1.876 1.522 3.398 3.399 3.398M78.7 128.927c1.877 0 3.4-1.522 3.4-3.399v-8.244c0-1.878-1.523-3.4-3.4-3.4s-3.399 1.522-3.399 3.4v8.244c0 1.877 1.522 3.4 3.4 3.4M207.12 128.927h-.001c-1.877 0-3.4-1.522-3.4-3.399v-9.989c0-1.878 1.523-3.4 3.4-3.4 1.878 0 3.4 1.522 3.4 3.4v9.99c0 1.876-1.522 3.398-3.4 3.398M213.919 128.927c-1.878 0-3.4-1.522-3.4-3.399v-11.735c0-1.877 1.522-3.399 3.4-3.399s3.399 1.522 3.399 3.4v11.734c0 1.877-1.521 3.4-3.4 3.4"/>
            <path fill="#FFF" d="M220.718 128.927c-1.877 0-3.4-1.522-3.4-3.399v-9.989c0-1.878 1.522-3.4 3.4-3.4 1.877 0 3.4 1.522 3.4 3.4v9.99c0 1.876-1.523 3.398-3.4 3.398M227.517 128.927c-1.878 0-3.399-1.522-3.399-3.399v-8.244c0-1.878 1.521-3.4 3.4-3.4 1.877 0 3.398 1.522 3.398 3.4v8.244c0 1.877-1.52 3.4-3.399 3.4"/>
            <mask id="prefix__j" fill="#fff">
                <use xlink:href="#prefix__i"/>
            </mask>
            <path fill="#E27236" d="M0 250L273 250 273 237.719 0 237.719z" mask="url(#prefix__j)"/>
            <path fill="#E28F4C" d="M79.956 41.976v43.813c0 1.937-.842 3.677-2.182 4.877-1.156 1.034-2.688 1.667-4.363 1.667H32.506c-3.613 0-6.545-2.928-6.545-6.544V41.976c0-3.613 2.932-6.544 6.545-6.544H73.41c3.613 0 6.545 2.931 6.545 6.544" mask="url(#prefix__j)"/>
            <path fill="#821F22" d="M73.41 89.416H32.507c-3.615 0-6.545-2.93-6.545-6.544v2.918c0 3.614 2.93 6.544 6.545 6.544H73.41c3.614 0 6.545-2.93 6.545-6.544v-2.918c0 3.614-2.931 6.544-6.545 6.544" mask="url(#prefix__j)"/>
            <path fill="#A00B0F" d="M36.905 41.9h-.422c-1.215 0-2.199-.983-2.199-2.197v-8.541c0-1.214.984-2.198 2.199-2.198h.422c1.214 0 2.198.984 2.198 2.198v8.54c0 1.215-.984 2.199-2.198 2.199M47.748 41.9h-.422c-1.214 0-2.2-.983-2.2-2.197v-8.541c0-1.214.986-2.198 2.2-2.198h.422c1.214 0 2.198.984 2.198 2.198v8.54c0 1.215-.984 2.199-2.198 2.199M58.59 41.9h-.422c-1.213 0-2.199-.983-2.199-2.197v-8.541c0-1.214.986-2.198 2.2-2.198h.422c1.213 0 2.198.984 2.198 2.198v8.54c0 1.215-.985 2.199-2.199 2.199M69.434 41.9h-.422c-1.215 0-2.2-.983-2.2-2.197v-8.541c0-1.214.985-2.198 2.2-2.198h.422c1.214 0 2.198.984 2.198 2.198v8.54c0 1.215-.984 2.199-2.198 2.199" mask="url(#prefix__j)"/>
            <path fill="#0BA99A" d="M33.491 56.708L43.85 56.708 43.85 46.349 33.491 46.349z" mask="url(#prefix__j)"/>
            <path fill="#FFF" d="M47.778 56.708L58.138 56.708 58.138 46.349 47.778 46.349zM62.065 56.708L72.425 56.708 72.425 46.349 62.065 46.349zM33.491 70.477L43.85 70.477 43.85 60.118 33.491 60.118zM47.778 70.477L58.138 70.477 58.138 60.118 47.778 60.118zM62.065 70.477L72.425 70.477 72.425 60.118 62.065 60.118zM33.491 84.246L43.85 84.246 43.85 73.887 33.491 73.887z" mask="url(#prefix__j)"/>
            <path fill="#0BA99A" d="M47.778 84.246L58.138 84.246 58.138 73.887 47.778 73.887z" mask="url(#prefix__j)"/>
            <path fill="#FFF" d="M62.065 84.246L72.425 84.246 72.425 73.887 62.065 73.887z" mask="url(#prefix__j)"/>
            <path fill="#974413" d="M79.956 49.742v36.047c0 1.937-.842 3.678-2.182 4.878-6.531-4.19-10.856-11.51-10.856-19.84 0-9.231 5.306-17.22 13.038-21.085" mask="url(#prefix__j)"/>
            <path fill="#672960" d="M109.929 66.463c0 10.74-8.708 19.447-19.45 19.447-10.74 0-19.447-8.707-19.447-19.447 0-10.74 8.708-19.447 19.448-19.447s19.449 8.706 19.449 19.447" mask="url(#prefix__j)"/>
            <path fill="#FFF" d="M96.316 72.927c-.448 0-.9-.138-1.289-.423l-5.837-4.282c-.56-.411-.89-1.064-.89-1.76V54.167c0-1.204.975-2.181 2.181-2.181 1.205 0 2.181.977 2.181 2.18v11.193l4.946 3.629c.972.712 1.181 2.077.468 3.049-.427.582-1.089.89-1.76.89" mask="url(#prefix__j)"/>
            <text fill="#0E6DA0" font-family="Roboto-Bold, Roboto" font-size="31.2" font-weight="bold" letter-spacing="1.352">
                <tspan x="32.495" y="174">2020</tspan>
            </text>
            <text fill="#AE4848" font-family="Roboto-Bold, Roboto" font-size="31.2" font-weight="bold" letter-spacing="1.352">
                <tspan x="124.208" y="215">~</tspan>
            </text>
            <text fill="#AE4848" font-family="Roboto-Bold, Roboto" font-size="39" font-weight="bold" letter-spacing="1.69">
                <tspan x="26.773" y="218">7/15</tspan>
            </text>
            <text fill="#AE4848" font-family="Roboto-Bold, Roboto" font-size="39" font-weight="bold">
                <tspan x="148.965" y="218">12/31</tspan>
            </text>
            <text fill="#0E6DA0" font-family="Roboto-Bold, Roboto" font-size="31.2" font-weight="bold" letter-spacing="1.352">
                <tspan x="162.495" y="174">2020</tspan>
            </text>
        </g>
        <g>
            <g>
                <path fill="#FFF" d="M11.213 34.727L11.213 0 46.242 34.727z" transform="translate(0 -1) translate(211) matrix(1 0 0 -1 0 97)"/>
                <g transform="translate(0 -1) translate(211) matrix(1 0 0 -1 0 97) translate(0 22.79)">
                    <mask id="prefix__l" fill="#fff">
                        <use xlink:href="#prefix__k"/>
                    </mask>
                    <path fill="#FFF" d="M196.575 73.21H16.425C7.354 73.21 0 67.118 0 59.602V13.818C0 6.303 7.354.21 16.425.21h180.15C205.646.21 213 6.303 213 13.818v45.784c0 7.516-7.354 13.608-16.425 13.608" mask="url(#prefix__l)"/>
                </g>
            </g>
            <text fill="#0E6DA0" font-family="Roboto-Bold, Roboto" font-size="20" font-weight="bold" letter-spacing="3" transform="translate(0 -1) translate(211)">
                <tspan x="52.605" y="30">2020/7/1</tspan> <tspan x="26" y="54" font-family="PingFangTC-Semibold, PingFang TC" font-weight="500">開始預購或綁定</tspan>
            </text>
        </g>
    </g>
</svg>
