<?xml version="1.0" encoding="UTF-8"?>
<svg width="312px" height="297px" viewBox="0 0 312 297" version="1.1" xmlns="http://www.w3.org/2000/svg" xmlns:xlink="http://www.w3.org/1999/xlink">
    <!-- Generator: Sketch 61.1 (89650) - https://sketch.com -->
    <title>Group 12 outline</title>
    <desc>Created with Sketch.</desc>
    <defs>
        <path d="M0.53,54.685 C0.53,84.569 24.461,108.8 53.974,108.8 L53.974,108.8 C83.495,108.8 107.423,84.569 107.423,54.685 L107.423,54.685 C107.423,24.794 83.495,0.567 53.974,0.567 L53.974,0.567 C24.458,0.567 0.53,24.794 0.53,54.685 L0.53,54.685 Z" id="path-1"></path>
        <path d="M0.605,10.682 C0.605,16.034 4.951,20.382 10.302,20.382 L10.302,20.382 C15.653,20.382 19.996,16.034 19.996,10.682 L19.996,10.682 C19.996,5.327 15.653,0.986 10.302,0.986 L10.302,0.986 C4.951,0.986 0.605,5.327 0.605,10.682 L0.605,10.682 Z" id="path-3"></path>
        <path d="M0.432,0.633 C0.432,21.087 17.004,37.667 37.448,37.667 L37.448,37.667 L37.448,0.633 L0.432,0.633 Z" id="path-5"></path>
        <path d="M0.432,37.734 L37.448,37.734 L37.448,0.7 C17.004,0.7 0.432,17.28 0.432,37.734 L0.432,37.734 Z" id="path-7"></path>
        <path d="M0.506,37.734 L37.521,37.734 C37.521,17.28 20.949,0.7 0.506,0.7 L0.506,0.7 L0.506,37.734 Z" id="path-9"></path>
        <path d="M0.506,0.638 L0.506,37.672 C20.949,37.672 37.521,21.092 37.521,0.638 L37.521,0.638 L0.506,0.638 Z" id="path-11"></path>
    </defs>
    <g id="懶人包" stroke="none" stroke-width="1" fill="none" fill-rule="evenodd">
        <g id="小資振興_懶人包_3000振興" transform="translate(-1139.000000, -524.000000)">
            <g id="Group-12-outline" transform="translate(1139.000000, 523.000000)">
                <g id="Group-110">
                    <polygon id="Fill-1" fill="#A33927" points="110.431 184.967 295.522 184.967 295.522 66.477 110.431 66.477"></polygon>
                    <polygon id="Fill-2" fill="#BF412E" points="102.618 200.374 303.333 200.374 303.333 80.354 102.618 80.354"></polygon>
                    <polygon id="Fill-3" fill="#F8E482" points="94.546 214.252 311.404 214.252 311.404 94.234 94.546 94.234"></polygon>
                    <g id="Group-6" transform="translate(149.000000, 99.560000)">
                        <mask id="mask-2" fill="white">
                            <use xlink:href="#path-1"></use>
                        </mask>
                        <g id="Clip-5"></g>
                        <polygon id="Fill-4" fill="#FFFFFF" mask="url(#mask-2)" points="-0.403 109.733 108.358 109.733 108.358 -0.367 -0.403 -0.367"></polygon>
                    </g>
                    <path d="M284.3018,163.9415 C278.9498,163.9415 274.6058,159.5935 274.6058,154.2415 C274.6058,148.8875 278.9498,144.5455 284.3018,144.5455 C289.6538,144.5455 293.9958,148.8875 293.9958,154.2415 C293.9958,159.5935 289.6538,163.9415 284.3018,163.9415" id="Fill-7" fill="#F6D85E"></path>
                    <g id="Group-11" transform="translate(274.000000, 143.560000)">
                        <mask id="mask-4" fill="white">
                            <use xlink:href="#path-3"></use>
                        </mask>
                        <g id="Clip-10"></g>
                        <polygon id="Fill-9" fill="#F6D85E" mask="url(#mask-4)" points="-0.328 21.314 20.93 21.314 20.93 0.052 -0.328 0.052"></polygon>
                    </g>
                    <g id="Group-14" transform="translate(274.000000, 93.560000)">
                        <mask id="mask-6" fill="white">
                            <use xlink:href="#path-5"></use>
                        </mask>
                        <g id="Clip-13"></g>
                        <polygon id="Fill-12" fill="#E14027" mask="url(#mask-6)" points="-0.501 38.599 38.381 38.599 38.381 -0.3 -0.501 -0.3"></polygon>
                    </g>
                    <g id="Group-17" transform="translate(274.000000, 176.560000)">
                        <mask id="mask-8" fill="white">
                            <use xlink:href="#path-7"></use>
                        </mask>
                        <g id="Clip-16"></g>
                        <polygon id="Fill-15" fill="#E14027" mask="url(#mask-8)" points="-0.501 38.667 38.381 38.667 38.381 -0.234 -0.501 -0.234"></polygon>
                    </g>
                    <g id="Group-22" transform="translate(94.000000, 143.560000)">
                        <path d="M27.6505,0.985 C33.0025,0.985 37.3465,5.333 37.3465,10.686 C37.3465,16.039 33.0025,20.381 27.6505,20.381 C22.3005,20.381 17.9555,16.039 17.9555,10.686 C17.9555,5.333 22.3005,0.985 27.6505,0.985" id="Fill-18" fill="#F6D85E"></path>
                        <path d="M0.5059,33.6998 L0.5059,70.7338 L37.5219,70.7338 C37.5219,50.2798 20.9489,33.6998 0.5059,33.6998" id="Fill-20" fill="#E14027"></path>
                    </g>
                    <g id="Group-25" transform="translate(94.000000, 176.560000)">
                        <mask id="mask-10" fill="white">
                            <use xlink:href="#path-9"></use>
                        </mask>
                        <g id="Clip-24"></g>
                        <polygon id="Fill-23" fill="#E14027" mask="url(#mask-10)" points="-0.427 38.667 38.455 38.667 38.455 -0.234 -0.427 -0.234"></polygon>
                    </g>
                    <g id="Group-28" transform="translate(94.000000, 93.560000)">
                        <mask id="mask-12" fill="white">
                            <use xlink:href="#path-11"></use>
                        </mask>
                        <g id="Clip-27"></g>
                        <polygon id="Fill-26" fill="#E14027" mask="url(#mask-12)" points="0.5557 0.3092 39.6697 0.2732 39.6697 39.1732 0.5057 39.5072"></polygon>
                    </g>
                    <g id="Group-109" transform="translate(0.000000, 0.560000)">
                        <path d="M111.9093,199.9694 L111.9093,223.4504 C111.9093,227.0914 114.8713,230.0444 118.5223,230.0444 L125.6863,230.0444 L125.6863,223.8924 C125.6863,213.6864 120.1493,204.7724 111.9093,199.9694 M181.3293,216.3864 C180.1713,214.9814 178.0943,214.7794 176.6883,215.9334 C178.0943,214.7794 178.2973,212.7084 177.1423,211.3074 C175.9883,209.9024 173.9073,209.6994 172.5023,210.8514 C173.9073,209.6994 174.1143,207.6294 172.9563,206.2244 C172.3063,205.4344 171.3623,205.0264 170.4073,205.0264 C169.6733,205.0264 168.9313,205.2684 168.3153,205.7724 L177.7433,198.0494 C179.1523,196.8984 179.3553,194.8274 178.2013,193.4264 C177.0433,192.0224 174.9663,191.8194 173.5603,192.9704 L157.3713,206.2324 C155.8703,204.5224 153.2693,204.2934 151.4993,205.7464 C150.4813,206.5814 149.9533,207.7874 149.9533,209.0084 C149.9533,209.9094 150.2453,210.8184 150.8353,211.5864 L150.0833,212.2004 C147.5823,214.2494 146.1433,217.1104 145.8373,220.0814 C141.2413,219.6694 136.5193,221.3984 133.2923,225.1604 L129.0973,230.0444 L169.8433,230.0444 L175.2613,225.6094 L180.8713,221.0124 C182.2803,219.8584 182.4833,217.7864 181.3293,216.3864" id="Fill-29" fill="#B7B3AD"></path>
                        <polygon id="Fill-31" fill="#FFFFFF" points="49.021 207.257 76.671 207.257 76.671 173.802 49.021 173.802"></polygon>
                        <path d="M98.13,156.527 L98.148,156.527 C101.424,156.527 104.079,153.872 104.079,150.595 L104.079,141.585 C104.079,138.308 101.424,135.653 98.148,135.653 L98.13,135.653 C94.855,135.653 92.198,138.308 92.198,141.585 L92.198,150.595 C92.198,153.872 94.855,156.527 98.13,156.527" id="Fill-33" fill="#FFFFFF"></path>
                        <path d="M98.1387,153.737 L98.1387,153.737 C101.4197,153.737 104.0787,151.086 104.0787,147.814 L104.0787,150.604 C104.0787,153.876 101.4197,156.527 98.1387,156.527 C94.8587,156.527 92.1987,153.876 92.1987,150.604 L92.1987,147.814 C92.1987,151.086 94.8587,153.737 98.1387,153.737" id="Fill-34" fill="#D0D2D3"></path>
                        <path d="M27.543,156.527 L27.561,156.527 C30.837,156.527 33.492,153.872 33.492,150.595 L33.492,141.585 C33.492,138.308 30.837,135.653 27.561,135.653 L27.543,135.653 C24.268,135.653 21.611,138.308 21.611,141.585 L21.611,150.595 C21.611,153.872 24.268,156.527 27.543,156.527" id="Fill-35" fill="#FFFFFF"></path>
                        <path d="M27.5518,153.737 L27.5518,153.737 C30.8328,153.737 33.4918,151.086 33.4918,147.814 L33.4918,150.604 C33.4918,153.876 30.8328,156.527 27.5518,156.527 C24.2718,156.527 21.6118,153.876 21.6118,150.604 L21.6118,147.814 C21.6118,151.086 24.2718,153.737 27.5518,153.737" id="Fill-36" fill="#D0D2D3"></path>
                        <path d="M97.6202,133.2955 C96.4712,127.4045 93.8532,122.0375 90.1582,117.5895 C89.0922,116.2985 87.9322,115.0905 86.6912,113.9645 C80.3962,108.2465 72.0302,104.7655 62.8462,104.7655 C62.4382,104.7655 62.0272,104.7735 61.6202,104.7895 C61.4812,104.7895 61.3442,104.7965 61.2092,104.8035 C52.0722,105.2165 43.8442,109.0755 37.7872,115.1145 C32.3932,120.4915 28.7302,127.6015 27.7052,135.5325 C27.5122,137.0265 27.4112,138.5485 27.4112,140.0945 L27.4112,147.0895 C27.4112,166.6035 43.2742,182.4185 62.8462,182.4185 C82.4132,182.4185 98.2792,166.6035 98.2792,147.0895 L98.2792,140.0945 C98.2792,138.5935 98.1862,137.1165 98.0042,135.6675 L97.6202,133.2955 Z" id="Fill-37" fill="#FFFFFF"></path>
                        <path d="M62.8458,176.8385 C82.4128,176.8385 98.2798,161.0235 98.2798,141.5105 L98.2798,147.0895 C98.2798,166.6035 82.4128,182.4185 62.8458,182.4185 C43.2748,182.4185 27.4108,166.6035 27.4108,147.0895 L27.4108,141.5105 C27.4108,161.0235 43.2748,176.8385 62.8458,176.8385" id="Fill-38" fill="#D0D2D3"></path>
                        <path d="M97.6202,133.2955 L94.2362,133.2955 L94.2362,150.2265 C94.2362,151.3295 95.0922,152.2915 96.1982,152.3215 C97.3442,152.3545 98.2792,151.4405 98.2792,150.3095 L98.2792,138.1285 C98.2792,136.4945 98.0572,134.8685 97.6202,133.2955" id="Fill-39" fill="#4B6084"></path>
                        <path d="M28.0577,133.2955 C27.6287,134.7795 27.4117,136.3165 27.4117,137.8615 L27.4117,150.3095 C27.4117,151.4205 28.3817,152.3225 29.5807,152.3225 C30.7777,152.3225 31.7477,151.4205 31.7477,150.3095 L31.7477,133.2955 L28.0577,133.2955 Z" id="Fill-40" fill="#4B6084"></path>
                        <path d="M61.6202,104.7897 C65.2042,110.3667 74.0882,122.4237 88.4762,130.9027 C91.9402,132.9407 95.1202,134.4967 98.0042,135.6677 C98.0002,135.6637 98.0002,135.6567 98.0002,135.6527 C97.1432,128.8367 94.3402,122.6227 90.1582,117.5897 C89.0922,116.2987 87.9322,115.0907 86.6912,113.9647 C80.3962,108.2467 72.0302,104.7657 62.8462,104.7657 C62.4382,104.7657 62.0272,104.7727 61.6202,104.7897" id="Fill-41" fill="#4B6084"></path>
                        <path d="M27.7052,135.5329 C32.5282,136.9889 42.0342,138.3629 57.1312,134.4279 C72.3962,130.4519 83.9812,122.5639 90.1582,117.5899 C89.0922,116.2989 87.9322,115.0909 86.6912,113.9649 C80.3962,108.2469 72.0302,104.7649 62.8462,104.7649 C62.3002,104.7649 61.7512,104.7759 61.2092,104.8039 C52.0722,105.2169 43.8442,109.0759 37.7872,115.1149 C32.3932,120.4919 28.7302,127.6009 27.7052,135.5329" id="Fill-42" fill="#808F91"></path>
                        <path d="M57.1309,113.7721 C63.8159,112.0311 69.7939,109.5401 74.9219,106.8721 C79.3149,108.4591 83.3039,110.8871 86.6919,113.9641 C87.9319,115.0901 89.0919,116.2981 90.1579,117.5891 C83.9819,122.5641 72.3969,130.4521 57.1309,134.4271 C42.0339,138.3631 32.5279,136.9891 27.7049,135.5331 C28.6569,128.1681 31.8859,121.5141 36.6599,116.2951 C41.7939,116.5281 48.5609,116.0051 57.1309,113.7721" id="Fill-43" fill="#4B6084"></path>
                        <path d="M57.1309,120.6569 C66.8909,118.1149 75.1429,113.9739 81.4429,110.0179 C83.3149,111.1719 85.0719,112.4939 86.6919,113.9649 C87.9319,115.0909 89.0919,116.2989 90.1579,117.5899 C83.9819,122.5639 72.3969,130.4519 57.1309,134.4279 C42.0339,138.3629 32.5279,136.9889 27.7049,135.5329 C28.3009,130.9249 29.7919,126.5959 31.9909,122.7209 C37.4049,123.5709 45.6499,123.6499 57.1309,120.6569" id="Fill-44" fill="#808F91"></path>
                        <path d="M57.1309,127.5426 C69.6539,124.2806 79.6969,118.3876 86.3139,113.6286 C86.4399,113.7396 86.5669,113.8516 86.6919,113.9646 C87.9319,115.0906 89.0919,116.2986 90.1579,117.5896 C83.9819,122.5636 72.3969,130.4516 57.1309,134.4276 C42.0339,138.3626 32.5279,136.9886 27.7049,135.5326 C27.9929,133.2996 28.4979,131.1336 29.1859,129.0506 C34.3599,130.3146 43.4499,131.1086 57.1309,127.5426" id="Fill-45" fill="#4B6084"></path>
                        <path d="M62.8399,158.7916 L62.8519,158.7916 C65.0099,158.7916 66.7599,157.0426 66.7599,154.8846 L66.7599,149.7616 C66.7599,147.6036 65.0099,145.8536 62.8519,145.8536 L62.8399,145.8536 C60.6819,145.8536 58.9319,147.6036 58.9319,149.7616 L58.9319,154.8846 C58.9319,157.0426 60.6819,158.7916 62.8399,158.7916" id="Fill-46" fill="#A62873"></path>
                        <path d="M125.6866,220.2145 L125.6866,231.9355 L104.1776,231.9355 L104.1776,297.0725 C102.8016,297.1245 101.4186,297.1505 100.0316,297.1505 C95.9926,297.1505 92.0046,296.9305 88.0836,296.4955 C85.5396,296.2205 83.0276,295.8565 80.5406,295.4005 C66.9376,292.9325 54.2226,287.9235 42.9066,280.8845 C38.2286,277.9755 33.7906,274.7205 29.6346,271.1525 C29.6016,271.1315 29.5716,271.1025 29.5416,271.0755 C16.7206,260.0685 6.5216,246.1095 -0.0004,230.2585 L-0.0004,222.6015 L0.0106,222.6015 L0.0106,220.2145 C0.0106,204.9185 12.4536,192.5225 27.7866,192.5225 L39.8406,192.5225 L49.0436,222.6015 L76.6576,222.6015 L85.8606,192.5225 L97.9146,192.5225 C98.1876,192.5225 98.4596,192.5255 98.7296,192.5325 C113.6866,192.9635 125.6866,205.1915 125.6866,220.2145" id="Fill-47" fill="#2F968A"></path>
                        <path d="M21.5167,263.441 C23.3167,265.338 25.1867,267.17 27.1207,268.932 L21.5287,227.716 L21.5167,263.441 Z" id="Fill-48" fill="#007D8D"></path>
                        <path d="M94.754,297.0221 C96.503,297.1061 98.263,297.1501 100.033,297.1501 C101.42,297.1501 102.803,297.1251 104.179,297.0731 L104.179,227.7161 L94.754,297.0221 Z" id="Fill-49" fill="#007D8D"></path>
                        <polygon id="Fill-50" fill="#FFFFFF" points="48.1729 219.7399 55.8449 244.8109 55.8449 244.8139 55.9849 245.2759 57.7079 250.9119 58.9809 255.0659 60.7029 260.7019 61.9759 264.8569 62.8579 267.7379 63.9329 264.2179 65.4849 259.1419 67.5929 252.2529 69.1429 247.1769 69.8529 244.8609 77.5329 219.7399 62.8579 207.2589"></polygon>
                        <path d="M76.3116,142.8092 C76.3116,144.4562 77.6516,145.7922 79.3046,145.7922 C80.9576,145.7922 82.2966,144.4562 82.2966,142.8092 C82.2966,141.1612 80.9576,139.8262 79.3046,139.8262 C77.6516,139.8262 76.3116,141.1612 76.3116,142.8092" id="Fill-51" fill="#A62873"></path>
                        <path d="M43.3936,142.8092 C43.3936,144.4562 44.7336,145.7922 46.3866,145.7922 C48.0396,145.7922 49.3786,144.4562 49.3786,142.8092 C49.3786,141.1612 48.0396,139.8262 46.3866,139.8262 C44.7336,139.8262 43.3936,141.1612 43.3936,142.8092" id="Fill-52" fill="#A62873"></path>
                        <path d="M62.8458,169.7799 C66.6548,169.7799 70.4638,168.3349 73.3638,165.4429 C73.9358,164.8729 73.9358,163.9479 73.3638,163.3779 C72.7908,162.8069 71.8638,162.8069 71.2908,163.3779 C66.6348,168.0209 59.0568,168.0209 54.3998,163.3779 C53.8268,162.8069 52.8998,162.8069 52.3268,163.3779 C51.7548,163.9479 51.7548,164.8729 52.3268,165.4429 C55.2278,168.3349 59.0358,169.7799 62.8458,169.7799" id="Fill-53" fill="#A62873"></path>
                        <polygon id="Fill-54" fill="#E7AD26" points="55.8448 244.8141 55.8448 244.8111 56.2138 240.6321 56.7768 234.2491 57.1928 229.5421 58.1898 218.2351 67.5018 218.2351 68.1848 225.9551 68.5738 230.3981 69.1048 236.4191 69.1048 236.4221 69.4978 240.8641 69.8528 244.8611 69.1428 247.1771 67.5928 252.2521 65.4858 259.1421 63.9328 264.2171 62.8578 267.7381 61.9758 264.8571 60.7028 260.7021 58.9808 255.0661 57.7078 250.9121 55.9858 245.2751"></polygon>
                        <polygon id="Fill-55" fill="#E8CD5D" points="56.7764 234.2496 68.5754 230.3966 68.1834 225.9546 57.1914 229.5436"></polygon>
                        <polygon id="Fill-56" fill="#E8CD5D" points="55.8448 244.8141 55.8448 244.8111 56.2138 240.6321 69.1048 236.4221 69.4978 240.8641 55.9858 245.2751"></polygon>
                        <polygon id="Fill-57" fill="#E8CD5D" points="57.7081 250.9117 58.9801 255.0657 67.5931 252.2527 69.1431 247.1777"></polygon>
                        <polygon id="Fill-58" fill="#E8CD5D" points="60.7032 260.7018 61.9752 264.8568 63.9322 264.2178 65.4852 259.1418"></polygon>
                        <path d="M59.6612,222.6041 L66.0302,222.6041 C69.6232,222.6041 72.1022,219.0171 70.8242,215.6691 L68.8692,210.5521 C68.1122,208.5691 66.2042,207.2571 64.0752,207.2571 L61.6152,207.2571 C59.4862,207.2571 57.5792,208.5691 56.8212,210.5521 L54.8672,215.6691 C53.5892,219.0171 56.0682,222.6041 59.6612,222.6041" id="Fill-59" fill="#E8CD5D"></path>
                        <polygon id="Fill-60" fill="#E2854A" points="39.8419 192.5201 39.8419 192.5201 49.0199 187.3631 62.8459 207.2571 48.1709 219.7411"></polygon>
                        <polygon id="Fill-61" fill="#E2854A" points="85.8624 192.5201 85.8624 192.5201 76.6844 187.3631 62.8584 207.2571 77.5324 219.7411"></polygon>
                        <path d="M39.8419,192.5201 L32.2389,216.6761 C31.9639,217.5511 32.4219,218.4891 33.2819,218.8111 L39.1829,221.0241 C40.6669,221.5821 40.6839,223.6691 39.2079,224.2491 L31.9529,227.1001 C30.8559,227.5311 30.5019,228.9061 31.2559,229.8111 L62.8459,267.7371 L39.8419,192.5201 Z" id="Fill-62" fill="#007D8D"></path>
                        <path d="M85.8624,192.5201 L93.4654,216.6761 C93.7404,217.5511 93.2824,218.4891 92.4224,218.8111 L86.5214,221.0241 C85.0374,221.5821 85.0204,223.6691 86.4964,224.2491 L93.7504,227.1001 C94.8474,227.5311 95.2024,228.9061 94.4484,229.8111 L62.8584,267.7371 L85.8624,192.5201 Z" id="Fill-63" fill="#007D8D"></path>
                        <polygon id="Fill-64" fill="#D0D2D3" points="49.0333 183.5651 62.8463 198.6121 62.8583 198.6121 76.6713 183.5651 76.6843 187.3631 62.8583 207.2571 62.8463 207.2571 49.0193 187.3631"></polygon>
                        <path d="M30.6661,254.3961 L39.8701,254.3961 C41.4601,254.3961 42.7491,253.1061 42.7491,251.5161 L42.7491,250.8461 C42.7491,249.2561 41.4601,247.9661 39.8701,247.9661 L30.6661,247.9661 C29.0761,247.9661 27.7871,249.2561 27.7871,250.8461 L27.7871,251.5161 C27.7871,253.1061 29.0761,254.3961 30.6661,254.3961" id="Fill-65" fill="#007D8D"></path>
                        <path d="M158.7774,234.7164 L158.7954,234.6784 C158.7614,234.8114 158.7244,234.9434 158.6884,235.0754 C158.6514,235.2084 158.6104,235.3404 158.5704,235.4734 C158.5294,235.6014 158.4854,235.7344 158.4414,235.8624 C158.3964,235.9944 158.3484,236.1234 158.3004,236.2524 C158.2054,236.5024 158.1054,236.7454 157.9984,236.9914 C157.9464,237.1024 157.8984,237.2124 157.8464,237.3224 C157.7774,237.4774 157.6994,237.6284 157.6224,237.7794 C157.5964,237.8264 157.5704,237.8744 157.5454,237.9184 C157.4744,238.0584 157.4004,238.1974 157.3194,238.3344 C157.2054,238.5324 157.0874,238.7274 156.9654,238.9224 C156.9184,238.9994 156.8704,239.0724 156.8184,239.1474 C156.6264,239.4374 156.4234,239.7204 156.2094,239.9994 C156.1584,240.0704 156.1024,240.1364 156.0474,240.2024 C155.9364,240.3424 155.8224,240.4824 155.7044,240.6214 L125.8264,275.4074 C122.9824,278.7214 118.8624,280.5494 114.6204,280.5494 C113.2964,280.5494 111.9574,280.3724 110.6434,280.0054 C105.1144,278.4604 100.9874,273.8634 100.0574,268.2144 L99.4234,264.3424 L93.9714,231.1214 C92.6584,223.1054 98.1104,215.5394 106.1514,214.2274 C114.1964,212.9214 121.7794,218.3534 123.0964,226.3704 L124.0554,232.2374 L133.2924,221.4834 C138.5894,215.3124 147.9024,214.5954 154.0914,219.8794 C158.5104,223.6484 160.1334,229.4544 158.7774,234.7164" id="Fill-66" fill="#2F968A"></path>
                        <path d="M158.795,234.6783 C158.762,234.8113 158.725,234.9433 158.689,235.0753 C158.651,235.2083 158.61,235.3403 158.57,235.4733 C158.529,235.6013 158.485,235.7343 158.441,235.8633 C158.397,235.9943 158.349,236.1233 158.301,236.2523 C158.205,236.5023 158.106,236.7453 157.998,236.9913 C157.946,237.1023 157.899,237.2123 157.847,237.3233 C157.777,237.4773 157.699,237.6283 157.622,237.7793 C157.597,237.8263 157.57,237.8743 157.545,237.9183 C157.475,238.0583 157.4,238.1983 157.319,238.3343 C157.205,238.5323 157.087,238.7273 156.966,238.9223 C156.918,238.9993 156.87,239.0733 156.818,239.1473 C156.626,239.4373 156.424,239.7203 156.209,239.9993 C156.158,240.0703 156.103,240.1363 156.047,240.2023 C155.937,240.3423 155.822,240.4823 155.704,240.6213 L125.826,275.4073 C122.982,278.7213 118.862,280.5493 114.62,280.5493 C113.296,280.5493 111.957,280.3723 110.644,280.0053 C105.114,278.4603 100.987,273.8643 100.058,268.2143 L99.423,264.3423 C99.438,264.0703 99.401,263.8203 99.302,263.5923 C99.564,263.7243 105.768,276.2803 110.84,272.9703 C114.259,270.7413 132.694,239.6873 146.896,239.5033 C154.915,239.4003 157.803,236.8663 158.795,234.6783" id="Fill-67" fill="#007D8D"></path>
                        <path d="M159.2354,231.6666 C159.2374,231.6206 159.2394,231.5746 159.2414,231.5276 L159.2064,231.5126 C159.2064,231.5126 159.2194,231.5666 159.2354,231.6666" id="Fill-68" fill="#0E6DA0"></path>
                        <path d="M125.6866,220.2145 L125.6866,230.3385 L124.0786,231.9355 L110.1306,245.7845 L110.1306,231.9355 L110.1306,208.2355 C110.1306,196.8725 99.4016,192.7785 98.7296,192.5325 C113.6866,192.9635 125.6866,205.1915 125.6866,220.2145" id="Fill-69" fill="#6BA997"></path>
                        <path d="M142.7794,231.5192 L142.7794,231.5192 C145.7534,235.1272 151.0964,235.6502 154.7164,232.6862 L164.5834,224.6042 L153.8164,211.5372 L143.9494,219.6192 C140.3304,222.5822 139.8064,227.9112 142.7794,231.5192" id="Fill-70" fill="#FFFFFF"></path>
                        <path d="M148.4552,225.0748 L150.2232,227.2198 C154.3572,232.2378 161.7902,232.9648 166.8232,228.8418 L177.5612,220.0468 L160.8202,199.7278 L150.0822,208.5228 C145.0492,212.6458 144.3202,220.0558 148.4552,225.0748" id="Fill-71" fill="#D0D2D3"></path>
                        <path d="M150.9141,208.0153 L152.3241,209.7273 C153.8101,211.5303 156.4791,211.7903 158.2881,210.3093 C160.0961,208.8283 160.3571,206.1663 158.8721,204.3643 L157.4621,202.6523 C155.9761,200.8493 153.3071,200.5883 151.4981,202.0693 C149.6901,203.5503 149.4291,206.2123 150.9141,208.0153" id="Fill-72" fill="#FFFFFF"></path>
                        <path d="M167.4395,224.0826 L167.4395,224.0826 C168.5955,225.4846 170.6725,225.6876 172.0805,224.5356 L180.8735,217.3336 C182.2805,216.1816 182.4835,214.1096 181.3285,212.7076 C180.1715,211.3056 178.0945,211.1026 176.6875,212.2546 L167.8945,219.4566 C166.4875,220.6086 166.2845,222.6806 167.4395,224.0826" id="Fill-73" fill="#FFFFFF"></path>
                        <path d="M163.255,219.0035 L163.255,219.0035 C164.41,220.4055 166.487,220.6085 167.895,219.4565 L176.688,212.2545 C178.095,211.1025 178.298,209.0305 177.143,207.6285 C175.986,206.2255 173.909,206.0225 172.502,207.1745 L163.709,214.3765 C162.303,215.5285 162.099,217.6005 163.255,219.0035" id="Fill-74" fill="#FFFFFF"></path>
                        <path d="M159.0694,213.9235 L159.0694,213.9235 C160.2244,215.3255 162.3024,215.5285 163.7094,214.3765 L172.5024,207.1745 C173.9094,206.0225 174.1134,203.9505 172.9574,202.5485 C171.8014,201.1465 169.7234,200.9435 168.3174,202.0955 L159.5234,209.2975 C158.1174,210.4495 157.9134,212.5215 159.0694,213.9235" id="Fill-75" fill="#FFFFFF"></path>
                        <path d="M154.8839,208.8444 L154.8839,208.8444 C156.0389,210.2464 158.1169,210.4494 159.5239,209.2974 L177.7449,194.3734 C179.1519,193.2214 179.3559,191.1504 178.1989,189.7464 C177.0439,188.3444 174.9659,188.1414 173.5599,189.2934 L155.3389,204.2174 C153.9319,205.3694 153.7279,207.4414 154.8839,208.8444" id="Fill-76" fill="#FFFFFF"></path>
                        <path d="M194.7403,58.5582 C194.4183,58.5582 194.1633,58.8202 194.1633,59.1352 C194.1633,59.4502 194.4183,59.7082 194.7403,59.7082 L206.8413,59.7082 C207.1673,59.7082 207.4193,59.4502 207.4193,59.1352 C207.4193,58.8202 207.1673,58.5582 206.8413,58.5582 L194.7403,58.5582 Z" id="Fill-77" fill="#596273"></path>
                        <path d="M185.7052,29.0328 C185.7052,20.7288 192.4602,13.9988 200.7882,13.9988 C209.1252,13.9988 215.8772,20.7288 215.8772,29.0328 C215.8772,29.5278 215.5142,36.4778 209.8292,43.7748 C208.1662,45.9718 208.4422,50.4008 208.4422,50.4008 L201.8542,50.4008 L199.7182,50.4008 L193.0902,50.4008 C193.0902,50.4008 193.4062,45.9718 191.7492,43.7748 C186.0592,36.4698 185.7052,29.5278 185.7052,29.0328" id="Fill-78" fill="#F0CA67"></path>
                        <path d="M200.7882,50.401 L193.0902,50.401 C193.0902,50.401 193.4062,45.972 191.7492,43.775 C186.0592,36.47 185.7052,29.528 185.7052,29.033 C185.7052,20.729 192.4602,13.999 200.7882,13.999" id="Fill-79" fill="#F4DA80"></path>
                        <path d="M212.6641,29.0328 L211.3421,29.0328 C211.3421,23.2288 206.6101,18.5128 200.7881,18.5128 L200.7881,17.1938 C207.3421,17.1938 212.6641,22.5038 212.6641,29.0328" id="Fill-80" fill="#F4DA80"></path>
                        <polygon id="Fill-81" fill="#30363D" points="204.0841 51.5787 202.7801 51.3587 205.3561 35.8137 206.6601 36.0337"></polygon>
                        <polygon id="Fill-82" fill="#30363D" points="197.4952 51.5787 194.9192 36.0337 196.2252 35.8137 198.8022 51.3587"></polygon>
                        <path d="M205.922,38.0026 C205.387,38.0026 205.153,37.4796 204.982,37.0956 C204.904,36.9346 204.76,36.6016 204.674,36.6016 C204.603,36.6296 204.502,36.8906 204.441,37.0296 C204.289,37.4176 204.056,38.0026 203.426,38.0026 C203.051,38.0026 202.823,37.6256 202.565,37.1886 C202.467,37.0266 202.294,36.7426 202.184,36.6326 C202.095,36.7366 201.959,36.9626 201.876,37.1066 C201.6,37.5676 201.332,38.0026 200.92,38.0026 C200.515,38.0026 200.253,37.5786 199.992,37.1306 C199.9,36.9816 199.752,36.7396 199.663,36.6376 C199.559,36.7426 199.41,36.9916 199.313,37.1536 C199.054,37.5906 198.805,38.0026 198.408,38.0026 C197.966,38.0026 197.683,37.5296 197.409,37.0696 C197.317,36.9166 197.188,36.6966 197.108,36.6106 C196.997,36.6486 196.921,36.8096 196.791,37.1306 C196.644,37.4966 196.45,38.0026 195.906,38.0026 L195.906,37.2996 C195.977,37.2726 196.075,37.0136 196.13,36.8736 C196.29,36.4816 196.521,35.9016 197.154,35.9016 C197.529,35.9016 197.753,36.2736 198.015,36.7106 C198.113,36.8736 198.288,37.1596 198.393,37.2726 C198.485,37.1646 198.624,36.9386 198.707,36.7956 C198.986,36.3306 199.244,35.9016 199.663,35.9016 C200.068,35.9016 200.323,36.3226 200.595,36.7696 C200.687,36.9226 200.824,37.1596 200.92,37.2676 C201.022,37.1566 201.172,36.9086 201.268,36.7506 C201.526,36.3126 201.775,35.9016 202.168,35.9016 C202.614,35.9016 202.897,36.3736 203.164,36.8356 C203.26,36.9846 203.398,37.2056 203.472,37.2936 C203.579,37.2536 203.662,37.0956 203.791,36.7726 C203.933,36.3996 204.139,35.9016 204.674,35.9016 C205.212,35.9016 205.448,36.4246 205.62,36.8096 C205.692,36.9706 205.839,37.2996 205.922,37.2996 L205.922,38.0026 Z" id="Fill-83" fill="#30363D"></path>
                        <path d="M208.4737,50.4088 L208.4737,58.2738 C208.4737,58.8088 208.0367,59.2478 207.4937,59.2478 L194.1047,59.2478 C193.5667,59.2478 193.1267,58.8088 193.1267,58.2738 L193.1267,50.4088 L208.4737,50.4088 Z" id="Fill-84" fill="#30363D"></path>
                        <line x1="208.7784" y1="51.1705" x2="192.8034" y2="51.1705" id="Fill-85" fill="#103754"></line>
                        <path d="M208.7784,51.9401 L192.8034,51.9401 C192.3804,51.9401 192.0294,51.5951 192.0294,51.1701 C192.0294,50.7431 192.3804,50.3981 192.8034,50.3981 L208.7784,50.3981 C209.2084,50.3981 209.5524,50.7431 209.5524,51.1701 C209.5524,51.5951 209.2084,51.9401 208.7784,51.9401" id="Fill-86" fill="#596273"></path>
                        <line x1="208.7784" y1="53.7379" x2="192.8034" y2="53.7379" id="Fill-87" fill="#30363D"></line>
                        <path d="M208.7784,54.5084 L192.8034,54.5084 C192.3804,54.5084 192.0294,54.1604 192.0294,53.7374 C192.0294,53.3154 192.3804,52.9674 192.8034,52.9674 L208.7784,52.9674 C209.2084,52.9674 209.5524,53.3154 209.5524,53.7374 C209.5524,54.1604 209.2084,54.5084 208.7784,54.5084" id="Fill-88" fill="#596273"></path>
                        <line x1="208.7784" y1="56.3053" x2="192.8034" y2="56.3053" id="Fill-89" fill="#30363D"></line>
                        <path d="M208.7784,57.0778 L192.8034,57.0778 C192.3804,57.0778 192.0294,56.7368 192.0294,56.3058 C192.0294,55.8818 192.3804,55.5338 192.8034,55.5338 L208.7784,55.5338 C209.2084,55.5338 209.5524,55.8818 209.5524,56.3058 C209.5524,56.7368 209.2084,57.0778 208.7784,57.0778" id="Fill-90" fill="#596273"></path>
                        <line x1="200.7882" y1="8.6949" x2="200.7882" y2="0.4399" id="Stroke-91" stroke="#E7AD26"></line>
                        <line x1="190.2218" y1="11.528" x2="186.0828" y2="4.372" id="Stroke-92" stroke="#E7AD26"></line>
                        <line x1="182.4932" y1="19.2379" x2="175.3142" y2="15.1059" id="Stroke-93" stroke="#E7AD26"></line>
                        <line x1="179.6671" y1="29.7682" x2="171.3791" y2="29.7682" id="Stroke-94" stroke="#E7AD26"></line>
                        <line x1="219.086" y1="40.2867" x2="226.268" y2="44.4227" id="Stroke-95" stroke="#E7AD26"></line>
                        <line x1="221.921" y1="29.7574" x2="230.206" y2="29.7574" id="Stroke-96" stroke="#E7AD26"></line>
                        <line x1="219.086" y1="19.2272" x2="226.262" y2="15.0952" id="Stroke-97" stroke="#E7AD26"></line>
                        <line x1="211.3477" y1="11.5201" x2="215.4927" y2="4.3651" id="Stroke-98" stroke="#E7AD26"></line>
                        <line x1="200.7882" y1="8.6949" x2="200.7882" y2="0.4399" id="Stroke-99" stroke="#E7AD26"></line>
                        <line x1="200.797" y1="8.6949" x2="200.797" y2="0.4399" id="Stroke-100" stroke="#E7AD26"></line>
                        <line x1="211.3546" y1="11.528" x2="215.4986" y2="4.372" id="Stroke-101" stroke="#E7AD26"></line>
                        <line x1="219.086" y1="19.2379" x2="226.268" y2="15.1059" id="Stroke-102" stroke="#E7AD26"></line>
                        <line x1="221.921" y1="29.7682" x2="230.206" y2="29.7682" id="Stroke-103" stroke="#E7AD26"></line>
                        <line x1="182.4932" y1="40.2867" x2="175.3142" y2="44.4227" id="Stroke-104" stroke="#E7AD26"></line>
                        <line x1="179.6671" y1="29.7574" x2="171.3791" y2="29.7574" id="Stroke-105" stroke="#E7AD26"></line>
                        <line x1="182.502" y1="19.2272" x2="175.32" y2="15.0952" id="Stroke-106" stroke="#E7AD26"></line>
                        <line x1="190.2364" y1="11.5201" x2="186.0924" y2="4.3651" id="Stroke-107" stroke="#E7AD26"></line>
                        <line x1="200.797" y1="8.6949" x2="200.797" y2="0.4399" id="Stroke-108" stroke="#E7AD26"></line>
                    </g>
                </g>
                <path d="M204.876,190.288 C211.868,190.288 217.664,188.264 222.08,184.4 C226.22,180.536 228.336,175.568 228.336,169.496 C228.336,165.632 227.232,162.412 225.024,159.928 C223,157.536 220.056,155.696 216.192,154.5 C223.368,152.108 227.048,147.232 227.048,140.056 C227.048,134.444 225.024,130.028 221.16,126.808 C217.112,123.588 211.868,122.024 205.244,122.024 C198.804,122.024 193.56,123.772 189.512,127.452 C185.188,131.132 182.796,136.192 182.244,142.724 L192.088,142.724 C192.456,138.676 193.836,135.64 196.044,133.616 C198.252,131.592 201.38,130.58 205.336,130.58 C209.2,130.58 212.236,131.408 214.26,133.248 C216.1,134.996 217.112,137.48 217.112,140.792 C217.112,144.104 216.008,146.68 213.984,148.428 C211.96,150.176 208.924,151.096 204.876,151.096 L200.184,151.096 L200.184,158.64 L204.968,158.64 C209.292,158.64 212.604,159.56 214.812,161.4 C217.204,163.24 218.4,166.092 218.4,169.956 C218.4,173.268 217.204,175.936 214.996,178.144 C212.42,180.536 209.016,181.824 204.784,181.824 C200.92,181.824 197.792,180.72 195.4,178.512 C192.64,176.12 191.26,172.716 191.076,168.3 L180.956,168.3 C181.508,175.66 184.084,181.272 188.684,185.136 C192.732,188.54 198.16,190.288 204.876,190.288 Z" id="3" fill="#BF412E" fill-rule="nonzero"></path>
            </g>
        </g>
    </g>
</svg>