<?xml version="1.0" encoding="UTF-8"?>
<svg width="312px" height="297px" viewBox="0 0 312 297" version="1.1" xmlns="http://www.w3.org/2000/svg" xmlns:xlink="http://www.w3.org/1999/xlink">
    <!-- Generator: Sketch 61.1 (89650) - https://sketch.com -->
    <title>Group 12</title>
    <desc>Created with Sketch.</desc>
    <defs>
        <path d="M0.53,54.535 C0.53,84.418 24.461,108.65 53.975,108.65 L53.975,108.65 C83.496,108.65 107.424,84.418 107.424,54.535 L107.424,54.535 C107.424,24.643 83.496,0.417 53.975,0.417 L53.975,0.417 C24.458,0.417 0.53,24.643 0.53,54.535 L0.53,54.535 Z" id="path-1"></path>
        <path d="M0.432,0.482 C0.432,20.936 17.004,37.516 37.448,37.516 L37.448,37.516 L37.448,0.482 L0.432,0.482 Z" id="path-3"></path>
        <path d="M0.432,37.583 L37.448,37.583 L37.448,0.549 C17.004,0.549 0.432,17.129 0.432,37.583 L0.432,37.583 Z" id="path-5"></path>
        <path d="M0.506,37.583 L37.522,37.583 C37.522,17.129 20.95,0.549 0.506,0.549 L0.506,0.549 L0.506,37.583 Z" id="path-7"></path>
        <path d="M0.506,0.488 L0.506,37.522 C20.95,37.522 37.522,20.941 37.522,0.488 L37.522,0.488 L0.506,0.488 Z" id="path-9"></path>
        <polygon id="path-11" points="0 297 312.381 297 312.381 0.289 0 0.289"></polygon>
    </defs>
    <g id="懶人包" stroke="none" stroke-width="1" fill="none" fill-rule="evenodd">
        <g id="小資振興_懶人包_600藝fun" transform="translate(-1123.000000, -524.000000)">
            <g id="Group-12" transform="translate(1123.000000, 523.000000)">
                <g id="Group-107">
                    <polygon id="Fill-1" fill="#A3618B" points="110.43 184.967 295.522 184.967 295.522 66.477 110.43 66.477"></polygon>
                    <polygon id="Fill-2" fill="#BB7E9C" points="102.619 200.374 303.334 200.374 303.334 80.354 102.619 80.354"></polygon>
                    <polygon id="Fill-3" fill="#F8E482" points="94.547 214.253 311.404 214.253 311.404 94.235 94.547 94.235"></polygon>
                    <g id="Group-6" transform="translate(149.000000, 99.711000)">
                        <mask id="mask-2" fill="white">
                            <use xlink:href="#path-1"></use>
                        </mask>
                        <g id="Clip-5"></g>
                        <polygon id="Fill-4" fill="#E68AA3" mask="url(#mask-2)" points="-0.404 109.583 108.357 109.583 108.357 -0.517 -0.404 -0.517"></polygon>
                    </g>
                    <path d="M284.3015,163.942 C278.9495,163.942 274.6055,159.594 274.6055,154.242 C274.6055,148.888 278.9495,144.546 284.3015,144.546 C289.6535,144.546 293.9965,148.888 293.9965,154.242 C293.9965,159.594 289.6535,163.942 284.3015,163.942" id="Fill-7" fill="#BD5888"></path>
                    <g id="Group-11" transform="translate(274.000000, 93.711000)">
                        <mask id="mask-4" fill="white">
                            <use xlink:href="#path-3"></use>
                        </mask>
                        <g id="Clip-10"></g>
                        <polygon id="Fill-9" fill="#E68AA3" mask="url(#mask-4)" points="-0.501 38.448 38.381 38.448 38.381 -0.451 -0.501 -0.451"></polygon>
                    </g>
                    <g id="Group-14" transform="translate(274.000000, 176.711000)">
                        <mask id="mask-6" fill="white">
                            <use xlink:href="#path-5"></use>
                        </mask>
                        <g id="Clip-13"></g>
                        <polygon id="Fill-12" fill="#E68AA3" mask="url(#mask-6)" points="-0.501 38.517 38.381 38.517 38.381 -0.384 -0.501 -0.384"></polygon>
                    </g>
                    <g id="Group-19" transform="translate(94.000000, 143.711000)">
                        <path d="M27.6501,0.8345 C33.0021,0.8345 37.3461,5.1825 37.3461,10.5355 C37.3461,15.8885 33.0021,20.2305 27.6501,20.2305 C22.3001,20.2305 17.9561,15.8885 17.9561,10.5355 C17.9561,5.1825 22.3001,0.8345 27.6501,0.8345" id="Fill-15" fill="#BD5888"></path>
                        <path d="M0.5065,33.5493 L0.5065,70.5833 L37.5225,70.5833 C37.5225,50.1293 20.9495,33.5493 0.5065,33.5493" id="Fill-17" fill="#E14027"></path>
                    </g>
                    <g id="Group-22" transform="translate(94.000000, 176.711000)">
                        <mask id="mask-8" fill="white">
                            <use xlink:href="#path-7"></use>
                        </mask>
                        <g id="Clip-21"></g>
                        <polygon id="Fill-20" fill="#E68AA3" mask="url(#mask-8)" points="-0.427 38.517 38.455 38.517 38.455 -0.384 -0.427 -0.384"></polygon>
                    </g>
                    <g id="Group-25" transform="translate(94.000000, 93.711000)">
                        <mask id="mask-10" fill="white">
                            <use xlink:href="#path-9"></use>
                        </mask>
                        <g id="Clip-24"></g>
                        <polygon id="Fill-23" fill="#E68AA3" mask="url(#mask-10)" points="0.5554 0.1587 39.6694 0.1227 39.6694 39.0227 0.5064 39.3567"></polygon>
                    </g>
                    <g id="Group-106" transform="translate(0.000000, 0.711000)">
                        <path d="M111.9089,199.8189 L111.9089,223.2999 C111.9089,226.9409 114.8709,229.8939 118.5229,229.8939 L125.6859,229.8939 L125.6859,223.7419 C125.6859,213.5359 120.1489,204.6219 111.9089,199.8189 M181.4349,216.3709 C180.3019,214.8439 178.1379,214.5919 176.6889,215.7829 C178.0949,214.6289 178.2969,212.5579 177.1419,211.1569 C175.9879,209.7519 173.9079,209.5489 172.5019,210.7009 C173.9079,209.5489 174.1139,207.4789 172.9559,206.0739 C172.3059,205.2839 171.3619,204.8759 170.4069,204.8759 C169.6729,204.8759 168.9309,205.1179 168.3149,205.6219 L177.7439,197.8989 C179.3279,196.6049 179.3879,194.1489 177.7079,192.7879 C176.4859,191.7979 174.7059,191.8819 173.4889,192.8799 L157.3719,206.0819 C155.8699,204.3719 153.2689,204.1429 151.4989,205.5959 C150.4809,206.4309 149.9539,207.6369 149.9539,208.8579 C149.9539,209.7589 150.2449,210.6679 150.8359,211.4359 L150.0829,212.0499 C147.5819,214.0989 146.1429,216.9599 145.8369,219.9309 C141.2409,219.5189 136.5189,221.2479 133.2919,225.0099 L129.0979,229.8939 L164.8419,229.8939 C168.0759,229.8939 171.2099,228.7749 173.7129,226.7259 L175.2619,225.4589 L180.7369,220.9719 C182.1139,219.8439 182.4959,217.7989 181.4349,216.3709" id="Fill-26" fill="#B7B3AD"></path>
                        <mask id="mask-12" fill="white">
                            <use xlink:href="#path-11"></use>
                        </mask>
                        <g id="Clip-29"></g>
                        <polygon id="Fill-28" fill="#FFFFFF" mask="url(#mask-12)" points="49.02 207.107 76.67 207.107 76.67 173.652 49.02 173.652"></polygon>
                        <path d="M98.1306,156.3765 L98.1486,156.3765 C101.4236,156.3765 104.0796,153.7215 104.0796,150.4445 L104.0796,141.4345 C104.0796,138.1575 101.4236,135.5025 98.1486,135.5025 L98.1306,135.5025 C94.8546,135.5025 92.1986,138.1575 92.1986,141.4345 L92.1986,150.4445 C92.1986,153.7215 94.8546,156.3765 98.1306,156.3765" id="Fill-30" fill="#FFFFFF" mask="url(#mask-12)"></path>
                        <path d="M98.1393,153.5865 L98.1393,153.5865 C101.4193,153.5865 104.0793,150.9355 104.0793,147.6635 L104.0793,150.4535 C104.0793,153.7255 101.4193,156.3765 98.1393,156.3765 C94.8583,156.3765 92.1993,153.7255 92.1993,150.4535 L92.1993,147.6635 C92.1993,150.9355 94.8583,153.5865 98.1393,153.5865" id="Fill-31" fill="#D0D2D3" mask="url(#mask-12)"></path>
                        <path d="M27.5436,156.3765 L27.5616,156.3765 C30.8366,156.3765 33.4926,153.7215 33.4926,150.4445 L33.4926,141.4345 C33.4926,138.1575 30.8366,135.5025 27.5616,135.5025 L27.5436,135.5025 C24.2676,135.5025 21.6116,138.1575 21.6116,141.4345 L21.6116,150.4445 C21.6116,153.7215 24.2676,156.3765 27.5436,156.3765" id="Fill-32" fill="#FFFFFF" mask="url(#mask-12)"></path>
                        <path d="M27.5524,153.5865 L27.5524,153.5865 C30.8324,153.5865 33.4924,150.9355 33.4924,147.6635 L33.4924,150.4535 C33.4924,153.7255 30.8324,156.3765 27.5524,156.3765 C24.2714,156.3765 21.6124,153.7255 21.6124,150.4535 L21.6124,147.6635 C21.6124,150.9355 24.2714,153.5865 27.5524,153.5865" id="Fill-33" fill="#D0D2D3" mask="url(#mask-12)"></path>
                        <path d="M97.6198,133.1451 C96.4708,127.2541 93.8528,121.8871 90.1588,117.4391 C89.0918,116.1481 87.9318,114.9401 86.6918,113.8141 C80.3968,108.0961 72.0298,104.6151 62.8458,104.6151 C62.4378,104.6151 62.0268,104.6231 61.6198,104.6391 C61.4808,104.6391 61.3438,104.6461 61.2088,104.6531 C52.0718,105.0661 43.8438,108.9251 37.7878,114.9641 C32.3938,120.3411 28.7298,127.4511 27.7048,135.3821 C27.5118,136.8761 27.4108,138.3981 27.4108,139.9441 L27.4108,146.9391 C27.4108,166.4531 43.2738,182.2681 62.8458,182.2681 C82.4138,182.2681 98.2798,166.4531 98.2798,146.9391 L98.2798,139.9441 C98.2798,138.4431 98.1858,136.9661 98.0038,135.5171 L97.6198,133.1451 Z" id="Fill-34" fill="#FFFFFF" mask="url(#mask-12)"></path>
                        <path d="M62.8454,176.688 C82.4134,176.688 98.2804,160.873 98.2804,141.36 L98.2804,146.939 C98.2804,166.453 82.4134,182.268 62.8454,182.268 C43.2744,182.268 27.4104,166.453 27.4104,146.939 L27.4104,141.36 C27.4104,160.873 43.2744,176.688 62.8454,176.688" id="Fill-35" fill="#D0D2D3" mask="url(#mask-12)"></path>
                        <path d="M97.6198,133.1451 L94.2358,133.1451 L94.2358,150.0761 C94.2358,151.1791 95.0918,152.1411 96.1988,152.1711 C97.3438,152.2041 98.2798,151.2901 98.2798,150.1591 L98.2798,137.9781 C98.2798,136.3441 98.0578,134.7181 97.6198,133.1451" id="Fill-36" fill="#4B6084" mask="url(#mask-12)"></path>
                        <path d="M28.0583,133.1451 C27.6283,134.6291 27.4113,136.1661 27.4113,137.7111 L27.4113,150.1591 C27.4113,151.2701 28.3813,152.1721 29.5813,152.1721 C30.7783,152.1721 31.7473,151.2701 31.7473,150.1591 L31.7473,133.1451 L28.0583,133.1451 Z" id="Fill-37" fill="#4B6084" mask="url(#mask-12)"></path>
                        <path d="M61.6198,104.6392 C65.2038,110.2162 74.0888,122.2732 88.4768,130.7522 C91.9398,132.7902 95.1208,134.3462 98.0038,135.5172 C97.9998,135.5132 97.9998,135.5062 97.9998,135.5022 C97.1438,128.6862 94.3398,122.4722 90.1588,117.4392 C89.0918,116.1482 87.9318,114.9402 86.6918,113.8142 C80.3968,108.0962 72.0298,104.6152 62.8458,104.6152 C62.4378,104.6152 62.0268,104.6222 61.6198,104.6392" id="Fill-38" fill="#4B6084" mask="url(#mask-12)"></path>
                        <path d="M27.7048,135.3824 C32.5288,136.8384 42.0348,138.2124 57.1308,134.2774 C72.3958,130.3014 83.9808,122.4134 90.1588,117.4394 C89.0918,116.1484 87.9318,114.9404 86.6918,113.8144 C80.3968,108.0964 72.0298,104.6144 62.8458,104.6144 C62.2998,104.6144 61.7508,104.6254 61.2088,104.6534 C52.0718,105.0664 43.8438,108.9254 37.7878,114.9644 C32.3938,120.3414 28.7298,127.4504 27.7048,135.3824" id="Fill-39" fill="#808F91" mask="url(#mask-12)"></path>
                        <path d="M57.1306,113.6216 C63.8156,111.8806 69.7936,109.3896 74.9226,106.7216 C79.3156,108.3086 83.3036,110.7366 86.6926,113.8136 C87.9316,114.9396 89.0916,116.1476 90.1586,117.4386 C83.9816,122.4136 72.3966,130.3016 57.1306,134.2766 C42.0346,138.2126 32.5286,136.8386 27.7046,135.3826 C28.6566,128.0176 31.8866,121.3636 36.6606,116.1446 C41.7936,116.3776 48.5606,115.8546 57.1306,113.6216" id="Fill-40" fill="#4B6084" mask="url(#mask-12)"></path>
                        <path d="M57.1306,120.5064 C66.8916,117.9644 75.1436,113.8234 81.4426,109.8674 C83.3156,111.0214 85.0716,112.3434 86.6926,113.8144 C87.9316,114.9404 89.0916,116.1484 90.1586,117.4394 C83.9816,122.4134 72.3966,130.3014 57.1306,134.2774 C42.0346,138.2124 32.5286,136.8384 27.7046,135.3824 C28.3006,130.7744 29.7926,126.4454 31.9906,122.5704 C37.4046,123.4204 45.6496,123.4994 57.1306,120.5064" id="Fill-41" fill="#808F91" mask="url(#mask-12)"></path>
                        <path d="M57.1306,127.3921 C69.6536,124.1301 79.6976,118.2371 86.3136,113.4781 C86.4406,113.5891 86.5676,113.7011 86.6926,113.8141 C87.9316,114.9401 89.0916,116.1481 90.1586,117.4391 C83.9816,122.4131 72.3966,130.3011 57.1306,134.2771 C42.0346,138.2121 32.5286,136.8381 27.7046,135.3821 C27.9936,133.1491 28.4986,130.9831 29.1856,128.9001 C34.3596,130.1641 43.4496,130.9581 57.1306,127.3921" id="Fill-42" fill="#4B6084" mask="url(#mask-12)"></path>
                        <path d="M62.8395,158.6411 L62.8515,158.6411 C65.0095,158.6411 66.7595,156.8921 66.7595,154.7341 L66.7595,149.6111 C66.7595,147.4531 65.0095,145.7031 62.8515,145.7031 L62.8395,145.7031 C60.6815,145.7031 58.9315,147.4531 58.9315,149.6111 L58.9315,154.7341 C58.9315,156.8921 60.6815,158.6411 62.8395,158.6411" id="Fill-43" fill="#A62873" mask="url(#mask-12)"></path>
                        <path d="M125.6862,220.064 L125.6862,231.785 L104.1772,231.785 L104.1772,296.922 C102.8012,296.974 101.4182,297 100.0322,297 C95.9932,297 92.0052,296.78 88.0842,296.345 C85.5392,296.07 83.0272,295.706 80.5402,295.25 C66.9372,292.782 54.2222,287.773 42.9062,280.734 C38.2292,277.825 33.7912,274.57 29.6342,271.002 C29.6012,270.981 29.5722,270.952 29.5422,270.925 C16.7202,259.918 6.5212,245.959 -0.0008,230.108 L-0.0008,222.451 L0.0112,222.451 L0.0112,220.064 C0.0112,204.768 12.4532,192.372 27.7872,192.372 L39.8402,192.372 L49.0432,222.451 L76.6572,222.451 L85.8602,192.372 L97.9152,192.372 C98.1872,192.372 98.4602,192.375 98.7292,192.382 C113.6872,192.813 125.6862,205.041 125.6862,220.064" id="Fill-44" fill="#219A8A" mask="url(#mask-12)"></path>
                        <path d="M21.5173,263.2906 C23.3173,265.1876 25.1873,267.0196 27.1203,268.7816 L21.5283,227.5656 L21.5173,263.2906 Z" id="Fill-45" fill="#007D8D" mask="url(#mask-12)"></path>
                        <path d="M94.7546,296.8716 C96.5026,296.9556 98.2626,296.9996 100.0326,296.9996 C101.4196,296.9996 102.8036,296.9746 104.1796,296.9226 L104.1796,227.5656 L94.7546,296.8716 Z" id="Fill-46" fill="#007D8D" mask="url(#mask-12)"></path>
                        <polygon id="Fill-47" fill="#F8E482" mask="url(#mask-12)" points="48.1725 219.5894 55.8445 244.6604 55.8445 244.6634 55.9845 245.1254 57.7085 250.7614 58.9805 254.9154 60.7035 260.5514 61.9755 264.7064 62.8575 267.5874 63.9325 264.0674 65.4855 258.9914 67.5925 252.1024 69.1435 247.0264 69.8525 244.7104 77.5325 219.5894 62.8575 207.1084"></polygon>
                        <path d="M76.3122,142.6587 C76.3122,144.3057 77.6522,145.6417 79.3042,145.6417 C80.9582,145.6417 82.2972,144.3057 82.2972,142.6587 C82.2972,141.0107 80.9582,139.6757 79.3042,139.6757 C77.6522,139.6757 76.3122,141.0107 76.3122,142.6587" id="Fill-48" fill="#A62873" mask="url(#mask-12)"></path>
                        <path d="M43.3942,142.6587 C43.3942,144.3057 44.7342,145.6417 46.3862,145.6417 C48.0392,145.6417 49.3782,144.3057 49.3782,142.6587 C49.3782,141.0107 48.0392,139.6757 46.3862,139.6757 C44.7342,139.6757 43.3942,141.0107 43.3942,142.6587" id="Fill-49" fill="#A62873" mask="url(#mask-12)"></path>
                        <path d="M62.8454,169.6294 C66.6554,169.6294 70.4634,168.1844 73.3644,165.2924 C73.9364,164.7224 73.9364,163.7974 73.3644,163.2274 C72.7914,162.6564 71.8644,162.6564 71.2914,163.2274 C66.6344,167.8704 59.0564,167.8704 54.4004,163.2274 C53.8264,162.6564 52.9004,162.6564 52.3274,163.2274 C51.7554,163.7974 51.7554,164.7224 52.3274,165.2924 C55.2274,168.1844 59.0364,169.6294 62.8454,169.6294" id="Fill-50" fill="#A62873" mask="url(#mask-12)"></path>
                        <polygon id="Fill-51" fill="#E7AD26" mask="url(#mask-12)" points="55.8444 244.6636 55.8444 244.6606 56.2134 240.4816 56.7774 234.0986 57.1934 229.3916 58.1894 218.0846 67.5014 218.0846 68.1854 225.8046 68.5744 230.2476 69.1054 236.2686 69.1054 236.2716 69.4974 240.7136 69.8524 244.7106 69.1434 247.0266 67.5924 252.1016 65.4864 258.9916 63.9324 264.0666 62.8574 267.5876 61.9754 264.7066 60.7034 260.5516 58.9804 254.9156 57.7084 250.7616 55.9854 245.1246"></polygon>
                        <polygon id="Fill-52" fill="#F3BDCD" mask="url(#mask-12)" points="56.7761 234.0992 68.5751 230.2462 68.1831 225.8042 57.1911 229.3932"></polygon>
                        <polygon id="Fill-53" fill="#F3BDCD" mask="url(#mask-12)" points="55.8444 244.6636 55.8444 244.6606 56.2134 240.4816 69.1054 236.2716 69.4974 240.7136 55.9854 245.1246"></polygon>
                        <polygon id="Fill-54" fill="#F3BDCD" mask="url(#mask-12)" points="57.7087 250.7613 58.9797 254.9153 67.5927 252.1023 69.1437 247.0273"></polygon>
                        <polygon id="Fill-55" fill="#F3BDCD" mask="url(#mask-12)" points="60.7038 260.5513 61.9748 264.7063 63.9328 264.0673 65.4858 258.9913"></polygon>
                        <path d="M59.6608,222.4536 L66.0298,222.4536 C69.6228,222.4536 72.1018,218.8666 70.8238,215.5186 L68.8698,210.4016 C68.1118,208.4186 66.2048,207.1066 64.0758,207.1066 L61.6158,207.1066 C59.4868,207.1066 57.5788,208.4186 56.8218,210.4016 L54.8668,215.5186 C53.5888,218.8666 56.0678,222.4536 59.6608,222.4536" id="Fill-56" fill="#F3BDCD" mask="url(#mask-12)"></path>
                        <polygon id="Fill-57" fill="#AE436E" mask="url(#mask-12)" points="39.8415 192.3697 39.8415 192.3697 49.0195 187.2127 62.8455 207.1067 48.1715 219.5907"></polygon>
                        <polygon id="Fill-58" fill="#AE436E" mask="url(#mask-12)" points="85.862 192.3697 85.862 192.3697 76.684 187.2127 62.858 207.1067 77.533 219.5907"></polygon>
                        <path d="M39.8415,192.3697 L32.2385,216.5257 C31.9635,217.4007 32.4215,218.3387 33.2815,218.6607 L39.1825,220.8737 C40.6665,221.4317 40.6835,223.5187 39.2075,224.0987 L31.9535,226.9497 C30.8565,227.3807 30.5015,228.7557 31.2555,229.6607 L62.8455,267.5867 L39.8415,192.3697 Z" id="Fill-59" fill="#007D8D" mask="url(#mask-12)"></path>
                        <path d="M85.862,192.3697 L93.465,216.5257 C93.74,217.4007 93.283,218.3387 92.422,218.6607 L86.521,220.8737 C85.037,221.4317 85.02,223.5187 86.496,224.0987 L93.751,226.9497 C94.848,227.3807 95.202,228.7557 94.448,229.6607 L62.858,267.5867 L85.862,192.3697 Z" id="Fill-60" fill="#007D8D" mask="url(#mask-12)"></path>
                        <polygon id="Fill-61" fill="#D0D2D3" mask="url(#mask-12)" points="49.0329 183.4146 62.8459 198.4616 62.8579 198.4616 76.6709 183.4146 76.6839 187.2126 62.8579 207.1066 62.8459 207.1066 49.0189 187.2126"></polygon>
                        <path d="M30.6657,254.2456 L39.8697,254.2456 C41.4597,254.2456 42.7487,252.9556 42.7487,251.3656 L42.7487,250.6956 C42.7487,249.1056 41.4597,247.8156 39.8697,247.8156 L30.6657,247.8156 C29.0757,247.8156 27.7867,249.1056 27.7867,250.6956 L27.7867,251.3656 C27.7867,252.9556 29.0757,254.2456 30.6657,254.2456" id="Fill-62" fill="#F8E482" mask="url(#mask-12)"></path>
                        <path d="M158.777,234.5659 C158.783,234.5529 158.79,234.5409 158.796,234.5279 C158.762,234.6609 158.725,234.7929 158.688,234.9249 C158.651,235.0579 158.611,235.1899 158.57,235.3229 C158.53,235.4509 158.485,235.5839 158.441,235.7119 C158.397,235.8439 158.349,235.9729 158.3,236.1019 C158.205,236.3519 158.105,236.5949 157.999,236.8409 C157.947,236.9519 157.899,237.0619 157.847,237.1719 C157.777,237.3269 157.7,237.4779 157.623,237.6289 C157.596,237.6759 157.571,237.7239 157.545,237.7679 C157.474,237.9079 157.401,238.0469 157.32,238.1839 C157.206,238.3819 157.088,238.5769 156.965,238.7719 C156.918,238.8489 156.87,238.9219 156.818,238.9969 C156.627,239.2869 156.423,239.5699 156.21,239.8489 C156.158,239.9199 156.102,239.9859 156.048,240.0519 C155.936,240.1919 155.822,240.3319 155.704,240.4709 L125.826,275.2569 C122.982,278.5709 118.862,280.3989 114.62,280.3989 C113.296,280.3989 111.957,280.2219 110.644,279.8549 C105.115,278.3099 100.987,273.7129 100.057,268.0639 L99.423,264.1919 L93.971,230.9709 C92.658,222.9549 98.11,215.3889 106.151,214.0769 C114.196,212.7709 121.78,218.2029 123.096,226.2199 L124.055,232.0869 L133.292,221.3329 C138.589,215.1619 147.903,214.4449 154.092,219.7289 C158.51,223.4979 160.134,229.3039 158.777,234.5659" id="Fill-63" fill="#2F968A" mask="url(#mask-12)"></path>
                        <path d="M158.7956,234.5279 C158.7626,234.6609 158.7256,234.7929 158.6886,234.9249 C158.6506,235.0579 158.6106,235.1899 158.5696,235.3229 C158.5296,235.4509 158.4846,235.5839 158.4416,235.7129 C158.3976,235.8439 158.3496,235.9729 158.3006,236.1019 C158.2046,236.3519 158.1056,236.5949 157.9986,236.8409 C157.9466,236.9519 157.8996,237.0619 157.8476,237.1729 C157.7766,237.3269 157.6996,237.4779 157.6226,237.6289 C157.5966,237.6759 157.5706,237.7239 157.5446,237.7679 C157.4746,237.9079 157.4006,238.0479 157.3196,238.1839 C157.2056,238.3819 157.0876,238.5769 156.9656,238.7719 C156.9176,238.8489 156.8696,238.9229 156.8176,238.9969 C156.6266,239.2869 156.4236,239.5699 156.2096,239.8489 C156.1576,239.9199 156.1026,239.9859 156.0476,240.0519 C155.9366,240.1919 155.8216,240.3319 155.7036,240.4709 L125.8256,275.2569 C122.9826,278.5709 118.8616,280.3989 114.6196,280.3989 C113.2956,280.3989 111.9566,280.2219 110.6446,279.8549 C105.1146,278.3099 100.9866,273.7139 100.0576,268.0639 L99.4236,264.1919 C99.4386,263.9199 99.4006,263.6699 99.3016,263.4419 C99.5636,263.5739 105.7676,276.1299 110.8396,272.8199 C114.2586,270.5909 132.6946,239.5369 146.8966,239.3529 C154.9146,239.2499 157.8036,236.7159 158.7956,234.5279" id="Fill-64" fill="#007D8D" mask="url(#mask-12)"></path>
                        <path d="M159.235,231.5161 C159.237,231.4701 159.24,231.4241 159.241,231.3771 L159.207,231.3621 C159.207,231.3621 159.219,231.4161 159.235,231.5161" id="Fill-65" fill="#0E6DA0" mask="url(#mask-12)"></path>
                        <path d="M125.6862,220.064 L125.6862,230.188 L124.0782,231.785 L110.1312,245.634 L110.1312,231.785 L110.1312,208.085 C110.1312,196.722 99.4012,192.628 98.7292,192.382 C113.6872,192.813 125.6862,205.041 125.6862,220.064" id="Fill-66" fill="#6BA997" mask="url(#mask-12)"></path>
                        <path d="M142.78,231.3687 L142.78,231.3687 C145.753,234.9767 151.097,235.4997 154.717,232.5357 L164.583,224.4537 L153.816,211.3867 L143.949,219.4687 C140.33,222.4317 139.806,227.7607 142.78,231.3687" id="Fill-67" fill="#FFFFFF" mask="url(#mask-12)"></path>
                        <path d="M148.4548,224.9243 L150.2228,227.0693 C154.3568,232.0873 161.7898,232.8143 166.8228,228.6913 L177.5608,219.8963 L160.8198,199.5773 L150.0818,208.3723 C145.0488,212.4953 144.3198,219.9053 148.4548,224.9243" id="Fill-68" fill="#D0D2D3" mask="url(#mask-12)"></path>
                        <path d="M150.9138,207.8648 L152.3248,209.5768 C153.8098,211.3798 156.4798,211.6398 158.2878,210.1588 C160.0968,208.6778 160.3578,206.0158 158.8728,204.2138 L157.4618,202.5018 C155.9758,200.6988 153.3068,200.4378 151.4988,201.9188 C149.6898,203.3998 149.4288,206.0618 150.9138,207.8648" id="Fill-69" fill="#FFFFFF" mask="url(#mask-12)"></path>
                        <path d="M167.4401,223.9322 L167.4401,223.9322 C168.5951,225.3342 170.6731,225.5372 172.0801,224.3852 L180.8741,217.1832 C182.2801,216.0312 182.4841,213.9592 181.3281,212.5572 C180.1721,211.1552 178.0941,210.9522 176.6881,212.1042 L167.8941,219.3062 C166.4881,220.4582 166.2841,222.5302 167.4401,223.9322" id="Fill-70" fill="#FFFFFF" mask="url(#mask-12)"></path>
                        <path d="M163.2546,218.8531 L163.2546,218.8531 C164.4106,220.2551 166.4876,220.4581 167.8946,219.3061 L176.6886,212.1041 C178.0946,210.9521 178.2986,208.8801 177.1426,207.4781 C175.9866,206.0751 173.9086,205.8721 172.5026,207.0241 L163.7096,214.2261 C162.3026,215.3781 162.0996,217.4501 163.2546,218.8531" id="Fill-71" fill="#FFFFFF" mask="url(#mask-12)"></path>
                        <path d="M159.069,213.773 L159.069,213.773 C160.225,215.175 162.302,215.378 163.71,214.226 L172.503,207.024 C173.909,205.872 174.113,203.8 172.957,202.398 C171.801,200.996 169.724,200.793 168.317,201.945 L159.524,209.147 C158.117,210.299 157.914,212.371 159.069,213.773" id="Fill-72" fill="#FFFFFF" mask="url(#mask-12)"></path>
                        <path d="M154.8835,208.6939 L154.8835,208.6939 C156.0395,210.0959 158.1165,210.2989 159.5245,209.1469 L177.7445,194.2229 C179.1525,193.0709 179.3555,190.9999 178.1995,189.5959 C177.0435,188.1939 174.9665,187.9909 173.5595,189.1429 L155.3385,204.0669 C153.9315,205.2189 153.7285,207.2909 154.8835,208.6939" id="Fill-73" fill="#FFFFFF" mask="url(#mask-12)"></path>
                        <path d="M194.7409,58.4077 C194.4179,58.4077 194.1629,58.6697 194.1629,58.9847 C194.1629,59.2997 194.4179,59.5577 194.7409,59.5577 L206.8419,59.5577 C207.1679,59.5577 207.4189,59.2997 207.4189,58.9847 C207.4189,58.6697 207.1679,58.4077 206.8419,58.4077 L194.7409,58.4077 Z" id="Fill-74" fill="#596273" mask="url(#mask-12)"></path>
                        <path d="M185.7057,28.8824 C185.7057,20.5784 192.4597,13.8484 200.7877,13.8484 C209.1257,13.8484 215.8767,20.5784 215.8767,28.8824 C215.8767,29.3774 215.5137,36.3274 209.8297,43.6244 C208.1657,45.8214 208.4427,50.2504 208.4427,50.2504 L201.8547,50.2504 L199.7177,50.2504 L193.0897,50.2504 C193.0897,50.2504 193.4067,45.8214 191.7497,43.6244 C186.0597,36.3194 185.7057,29.3774 185.7057,28.8824" id="Fill-75" fill="#F0CA67" mask="url(#mask-12)"></path>
                        <path d="M200.7878,50.2505 L193.0898,50.2505 C193.0898,50.2505 193.4068,45.8215 191.7498,43.6245 C186.0588,36.3195 185.7058,29.3775 185.7058,28.8825 C185.7058,20.5785 192.4598,13.8485 200.7878,13.8485" id="Fill-76" fill="#F4DA80" mask="url(#mask-12)"></path>
                        <path d="M212.6638,28.8824 L211.3418,28.8824 C211.3418,23.0784 206.6108,18.3624 200.7878,18.3624 L200.7878,17.0434 C207.3428,17.0434 212.6638,22.3534 212.6638,28.8824" id="Fill-77" fill="#F4DA80" mask="url(#mask-12)"></path>
                        <polygon id="Fill-78" fill="#30363D" mask="url(#mask-12)" points="204.0837 51.4283 202.7797 51.2083 205.3557 35.6633 206.6597 35.8833"></polygon>
                        <polygon id="Fill-79" fill="#30363D" mask="url(#mask-12)" points="197.4958 51.4283 194.9188 35.8833 196.2248 35.6633 198.8018 51.2083"></polygon>
                        <path d="M205.9216,37.8521 C205.3876,37.8521 205.1526,37.3291 204.9816,36.9451 C204.9036,36.7841 204.7596,36.4511 204.6736,36.4511 C204.6036,36.4791 204.5016,36.7401 204.4406,36.8791 C204.2896,37.2671 204.0566,37.8521 203.4256,37.8521 C203.0506,37.8521 202.8226,37.4751 202.5656,37.0381 C202.4666,36.8761 202.2946,36.5921 202.1836,36.4821 C202.0946,36.5861 201.9596,36.8121 201.8766,36.9561 C201.5996,37.4171 201.3316,37.8521 200.9206,37.8521 C200.5146,37.8521 200.2526,37.4281 199.9916,36.9801 C199.8996,36.8311 199.7516,36.5891 199.6626,36.4871 C199.5586,36.5921 199.4106,36.8411 199.3126,37.0031 C199.0546,37.4401 198.8056,37.8521 198.4076,37.8521 C197.9656,37.8521 197.6836,37.3791 197.4086,36.9191 C197.3176,36.7661 197.1886,36.5461 197.1086,36.4601 C196.9976,36.4981 196.9206,36.6591 196.7916,36.9801 C196.6446,37.3461 196.4496,37.8521 195.9056,37.8521 L195.9056,37.1491 C195.9766,37.1221 196.0746,36.8631 196.1306,36.7231 C196.2906,36.3311 196.5216,35.7511 197.1536,35.7511 C197.5286,35.7511 197.7536,36.1231 198.0146,36.5601 C198.1126,36.7231 198.2886,37.0091 198.3936,37.1221 C198.4846,37.0141 198.6236,36.7881 198.7066,36.6451 C198.9856,36.1801 199.2446,35.7511 199.6626,35.7511 C200.0686,35.7511 200.3236,36.1721 200.5946,36.6191 C200.6866,36.7721 200.8246,37.0091 200.9206,37.1171 C201.0216,37.0061 201.1726,36.7581 201.2676,36.6001 C201.5256,36.1621 201.7756,35.7511 202.1686,35.7511 C202.6136,35.7511 202.8976,36.2231 203.1646,36.6851 C203.2596,36.8341 203.3986,37.0551 203.4716,37.1431 C203.5796,37.1031 203.6626,36.9451 203.7916,36.6221 C203.9336,36.2491 204.1386,35.7511 204.6736,35.7511 C205.2116,35.7511 205.4486,36.2741 205.6206,36.6591 C205.6916,36.8201 205.8386,37.1491 205.9216,37.1491 L205.9216,37.8521 Z" id="Fill-80" fill="#30363D" mask="url(#mask-12)"></path>
                        <path d="M208.4733,50.2583 L208.4733,58.1233 C208.4733,58.6583 208.0363,59.0973 207.4933,59.0973 L194.1043,59.0973 C193.5663,59.0973 193.1263,58.6583 193.1263,58.1233 L193.1263,50.2583 L208.4733,50.2583 Z" id="Fill-81" fill="#30363D" mask="url(#mask-12)"></path>
                        <line x1="208.778" y1="51.0201" x2="192.804" y2="51.0201" id="Fill-82" fill="#103754" mask="url(#mask-12)"></line>
                        <path d="M208.778,51.7896 L192.804,51.7896 C192.38,51.7896 192.029,51.4446 192.029,51.0196 C192.029,50.5926 192.38,50.2476 192.804,50.2476 L208.778,50.2476 C209.209,50.2476 209.552,50.5926 209.552,51.0196 C209.552,51.4446 209.209,51.7896 208.778,51.7896" id="Fill-83" fill="#596273" mask="url(#mask-12)"></path>
                        <line x1="208.778" y1="53.5874" x2="192.804" y2="53.5874" id="Fill-84" fill="#30363D" mask="url(#mask-12)"></line>
                        <path d="M208.778,54.3579 L192.804,54.3579 C192.38,54.3579 192.029,54.0099 192.029,53.5869 C192.029,53.1649 192.38,52.8169 192.804,52.8169 L208.778,52.8169 C209.209,52.8169 209.552,53.1649 209.552,53.5869 C209.552,54.0099 209.209,54.3579 208.778,54.3579" id="Fill-85" fill="#596273" mask="url(#mask-12)"></path>
                        <line x1="208.778" y1="56.1548" x2="192.804" y2="56.1548" id="Fill-86" fill="#30363D" mask="url(#mask-12)"></line>
                        <path d="M208.778,56.9273 L192.804,56.9273 C192.38,56.9273 192.029,56.5863 192.029,56.1553 C192.029,55.7313 192.38,55.3833 192.804,55.3833 L208.778,55.3833 C209.209,55.3833 209.552,55.7313 209.552,56.1553 C209.552,56.5863 209.209,56.9273 208.778,56.9273" id="Fill-87" fill="#596273" mask="url(#mask-12)"></path>
                        <line x1="200.7878" y1="8.5445" x2="200.7878" y2="0.2895" id="Stroke-88" stroke="#E7AD26" mask="url(#mask-12)"></line>
                        <line x1="190.2214" y1="11.3775" x2="186.0834" y2="4.2215" id="Stroke-89" stroke="#E7AD26" mask="url(#mask-12)"></line>
                        <line x1="182.4929" y1="19.0874" x2="175.3139" y2="14.9554" id="Stroke-90" stroke="#E7AD26" mask="url(#mask-12)"></line>
                        <line x1="179.6677" y1="29.6177" x2="171.3797" y2="29.6177" id="Stroke-91" stroke="#E7AD26" mask="url(#mask-12)"></line>
                        <line x1="219.0866" y1="40.1363" x2="226.2676" y2="44.2723" id="Stroke-92" stroke="#E7AD26" mask="url(#mask-12)"></line>
                        <line x1="221.9206" y1="29.607" x2="230.2056" y2="29.607" id="Stroke-93" stroke="#E7AD26" mask="url(#mask-12)"></line>
                        <line x1="219.0866" y1="19.0767" x2="226.2616" y2="14.9447" id="Stroke-94" stroke="#E7AD26" mask="url(#mask-12)"></line>
                        <line x1="211.3483" y1="11.3697" x2="215.4923" y2="4.2147" id="Stroke-95" stroke="#E7AD26" mask="url(#mask-12)"></line>
                        <line x1="200.7878" y1="8.5445" x2="200.7878" y2="0.2895" id="Stroke-96" stroke="#E7AD26" mask="url(#mask-12)"></line>
                        <line x1="200.7975" y1="8.5445" x2="200.7975" y2="0.2895" id="Stroke-97" stroke="#E7AD26" mask="url(#mask-12)"></line>
                        <line x1="211.3542" y1="11.3775" x2="215.4992" y2="4.2215" id="Stroke-98" stroke="#E7AD26" mask="url(#mask-12)"></line>
                        <line x1="219.0866" y1="19.0874" x2="226.2676" y2="14.9554" id="Stroke-99" stroke="#E7AD26" mask="url(#mask-12)"></line>
                        <line x1="221.9206" y1="29.6177" x2="230.2056" y2="29.6177" id="Stroke-100" stroke="#E7AD26" mask="url(#mask-12)"></line>
                        <line x1="182.4929" y1="40.1363" x2="175.3139" y2="44.2723" id="Stroke-101" stroke="#E7AD26" mask="url(#mask-12)"></line>
                        <line x1="179.6677" y1="29.607" x2="171.3797" y2="29.607" id="Stroke-102" stroke="#E7AD26" mask="url(#mask-12)"></line>
                        <line x1="182.5016" y1="19.0767" x2="175.3196" y2="14.9447" id="Stroke-103" stroke="#E7AD26" mask="url(#mask-12)"></line>
                        <line x1="190.237" y1="11.3697" x2="186.092" y2="4.2147" id="Stroke-104" stroke="#E7AD26" mask="url(#mask-12)"></line>
                        <line x1="200.7975" y1="8.5445" x2="200.7975" y2="0.2895" id="Stroke-105" stroke="#E7AD26" mask="url(#mask-12)"></line>
                    </g>
                </g>
                <path d="M168.366,161.7565 C168.36,160.7065 167.985,159.8215 167.239,159.1005 C166.495,158.3825 165.246,157.7285 163.481,157.1535 C161.033,156.4205 159.241,155.4565 158.115,154.2675 C156.99,153.0665 156.425,151.5495 156.416,149.7065 C156.409,147.8265 156.95,146.2845 158.046,145.0735 C159.137,143.8655 160.639,143.1455 162.561,142.9105 L162.548,139.1455 L165.116,139.1355 L165.133,142.9145 C167.063,143.1725 168.57,143.9665 169.65,145.3175 C170.731,146.6675 171.274,148.5175 171.285,150.8675 L168.114,150.8815 C168.107,149.2565 167.714,147.9695 166.943,147.0205 C166.165,146.0715 165.129,145.5935 163.819,145.5975 C162.448,145.6045 161.405,145.9635 160.682,146.6735 C159.959,147.3835 159.6,148.3695 159.607,149.6325 C159.612,150.8055 159.996,151.7315 160.765,152.4305 C161.531,153.1165 162.795,153.7465 164.549,154.2995 C166.303,154.8685 167.677,155.4845 168.661,156.1655 C169.645,156.8425 170.37,157.6335 170.845,158.5355 C171.308,159.4385 171.548,160.4985 171.556082,161.7135 C171.564,163.6485 170.987,165.2135 169.824,166.3945 C168.661,167.5795 167.031,168.2875 164.927,168.5165 L164.943,171.7955 L162.389,171.8045 L162.373,168.5265 C160.237,168.3345 158.558,167.5835 157.339,166.2645 C156.121,164.9435 155.508,163.1515 155.5,160.8875 L158.689,160.8745 C158.694,162.4675 159.119,163.6885 159.961,164.5495 C160.804,165.4075 161.995,165.8305 163.535,165.8225 C165.041,165.8175 166.227,165.4455 167.085,164.7215 C167.942,163.9965 168.372,163.0085 168.366,161.7565" id="Fill-104" fill="#FFFFFF"></path>
                <path d="M188.23628,172.458984 C191.387973,172.458984 193.900913,171.42627 195.775099,169.36084 C197.649285,167.29541 198.586378,164.541504 198.586378,161.099121 C198.586378,157.855632 197.718133,155.208822 195.981642,153.158691 C194.245151,151.108561 191.923455,150.083496 189.016554,150.083496 C185.971958,150.083496 183.569939,151.093262 181.810499,153.112793 C182.116489,149.67041 183.24865,147.000651 185.206984,145.103516 C187.165317,143.20638 189.796827,142.227214 193.101515,142.166016 L193.101515,142.166016 L193.881788,142.166016 L193.881788,138.562988 L193.124464,138.562988 C187.937941,138.639486 184.032749,140.303304 181.408888,143.554443 C178.785027,146.805583 177.473097,151.506348 177.473097,157.656738 L177.473097,157.656738 L177.473097,159.286133 C177.473097,163.156901 178.467563,166.320068 180.456495,168.775635 C182.445428,171.231201 185.038689,172.458984 188.23628,172.458984 Z M188.23628,168.947754 C186.385043,168.947754 184.839796,168.106283 183.600538,166.42334 C182.36128,164.740397 181.741652,162.521973 181.741652,159.768066 L181.741652,159.768066 L181.741652,158.20752 C182.215935,156.891764 183.065057,155.797852 184.289015,154.925781 C185.512973,154.053711 186.851678,153.617676 188.305128,153.617676 C190.141066,153.617676 191.61364,154.325277 192.722853,155.740479 C193.832065,157.15568 194.386671,159.010742 194.386671,161.305664 C194.386671,163.585286 193.839715,165.428874 192.745802,166.836426 C191.651889,168.243978 190.148715,168.947754 188.23628,168.947754 Z M214.054152,172.458984 C217.664829,172.458984 220.319288,171.250326 222.01753,168.833008 C223.715773,166.41569 224.564894,162.720866 224.564894,157.748535 L224.564894,157.748535 L224.564894,152.240723 C224.518995,147.436686 223.646925,143.883382 221.948683,141.580811 C220.250441,139.278239 217.603631,138.126953 214.008253,138.126953 C210.382277,138.126953 207.720167,139.320312 206.021925,141.707031 C204.323683,144.09375 203.474562,147.742676 203.474562,152.653809 L203.474562,152.653809 L203.474562,158.322266 C203.53576,163.019206 204.423129,166.549561 206.136671,168.91333 C207.850213,171.2771 210.489373,172.458984 214.054152,172.458984 Z M214.054152,168.993652 C211.927524,168.993652 210.340203,168.133057 209.292189,166.411865 C208.244174,164.690674 207.720167,162.02474 207.720167,158.414062 L207.720167,158.414062 L207.720167,151.621094 C207.750766,148.224609 208.263299,145.707845 209.257765,144.070801 C210.252231,142.433757 211.835727,141.615234 214.008253,141.615234 C216.196079,141.615234 217.794874,142.437581 218.80464,144.082275 C219.814405,145.726969 220.319288,148.347005 220.319288,151.942383 L220.319288,151.942383 L220.319288,158.895996 C220.27339,162.384277 219.741733,164.93929 218.724318,166.561035 C217.706902,168.18278 216.15018,168.993652 214.054152,168.993652 Z M240.445753,172.458984 C244.05643,172.458984 246.71089,171.250326 248.409132,168.833008 C250.107374,166.41569 250.956495,162.720866 250.956495,157.748535 L250.956495,157.748535 L250.956495,152.240723 C250.910597,147.436686 250.038527,143.883382 248.340284,141.580811 C246.642042,139.278239 243.995232,138.126953 240.399855,138.126953 C236.773878,138.126953 234.111769,139.320312 232.413527,141.707031 C230.715284,144.09375 229.866163,147.742676 229.866163,152.653809 L229.866163,152.653809 L229.866163,158.322266 C229.927361,163.019206 230.814731,166.549561 232.528273,168.91333 C234.241814,171.2771 236.880974,172.458984 240.445753,172.458984 Z M240.445753,168.993652 C238.319126,168.993652 236.731805,168.133057 235.68379,166.411865 C234.635776,164.690674 234.111769,162.02474 234.111769,158.414062 L234.111769,158.414062 L234.111769,151.621094 C234.142368,148.224609 234.6549,145.707845 235.649366,144.070801 C236.643833,142.433757 238.227329,141.615234 240.399855,141.615234 C242.58768,141.615234 244.186476,142.437581 245.196241,144.082275 C246.206007,145.726969 246.71089,148.347005 246.71089,151.942383 L246.71089,151.942383 L246.71089,158.895996 C246.664991,162.384277 246.133335,164.93929 245.115919,166.561035 C244.098504,168.18278 242.541782,168.993652 240.445753,168.993652 Z" id="600" fill="#FFFFFF" fill-rule="nonzero"></path>
            </g>
        </g>
    </g>
</svg>