<svg xmlns="http://www.w3.org/2000/svg" xmlns:xlink="http://www.w3.org/1999/xlink" width="312" height="297" viewBox="0 0 312 297">
    <defs>
        <path id="prefix__a" d="M.531 54.536c0 29.882 23.93 54.113 53.443 54.113 29.522 0 53.449-24.231 53.449-54.113 0-29.892-23.927-54.12-53.449-54.12C24.458.416.531 24.644.531 54.536z"/>
        <path id="prefix__c" d="M.432.482c0 20.454 16.571 37.034 37.015 37.034V.482H.432z"/>
        <path id="prefix__e" d="M.432 37.583h37.015V.549C17.003.549.432 17.13.432 37.583z"/>
        <path id="prefix__g" d="M.505.488v37.034c20.444 0 37.016-16.581 37.016-37.034H.505z"/>
        <path id="prefix__i" d="M0 297L312.381 297 312.381 0.289 0 0.289z"/>
    </defs>
    <g fill="none" fill-rule="evenodd">
        <path fill="#D68B3B" d="M110.431 184.968L295.522 184.968 295.522 66.478 110.431 66.478z" transform="translate(0 -1)"/>
        <path fill="#DF9A4D" d="M102.619 200.374L303.334 200.374 303.334 80.354 102.619 80.354z" transform="translate(0 -1)"/>
        <path fill="#FFC57D" d="M94.547 214.253L311.404 214.253 311.404 94.234 94.547 94.234z" transform="translate(0 -1)"/>
        <g transform="translate(0 -1) translate(149 99.711)">
            <mask id="prefix__b" fill="#fff">
                <use xlink:href="#prefix__a"/>
            </mask>
            <path fill="#FFF" d="M-0.403 109.583L108.358 109.583 108.358 -0.517 -0.403 -0.517z" mask="url(#prefix__b)"/>
        </g>
        <path fill="#FFFFA9" d="M284.302 163.942c-5.352 0-9.696-4.347-9.696-9.7 0-5.354 4.344-9.696 9.696-9.696 5.352 0 9.695 4.342 9.695 9.696 0 5.353-4.343 9.7-9.695 9.7" transform="translate(0 -1)"/>
        <g transform="translate(0 -1) translate(274 93.711)">
            <mask id="prefix__d" fill="#fff">
                <use xlink:href="#prefix__c"/>
            </mask>
            <path fill="#225F9B" d="M-0.501 38.449L38.381 38.449 38.381 -0.451 -0.501 -0.451z" mask="url(#prefix__d)"/>
        </g>
        <g transform="translate(0 -1) translate(274 176.711)">
            <mask id="prefix__f" fill="#fff">
                <use xlink:href="#prefix__e"/>
            </mask>
            <path fill="#225F9B" d="M-0.501 38.516L38.381 38.516 38.381 -0.384 -0.501 -0.384z" mask="url(#prefix__f)"/>
        </g>
        <g>
            <path fill="#FFFFA9" d="M27.65.835c5.352 0 9.696 4.347 9.696 9.7 0 5.354-4.344 9.696-9.696 9.696-5.35 0-9.694-4.342-9.694-9.695 0-5.354 4.344-9.701 9.694-9.701" transform="translate(0 -1) translate(94 143.711)"/>
            <path fill="#225F9B" d="M.506 33.55v37.034h37.016C37.522 50.13 20.949 33.55.506 33.55" transform="translate(0 -1) translate(94 143.711)"/>
        </g>
        <g transform="translate(0 -1) translate(94 93.711)">
            <mask id="prefix__h" fill="#fff">
                <use xlink:href="#prefix__g"/>
            </mask>
            <path fill="#225F9B" d="M0.555 0.158L39.669 0.122 39.669 39.023 0.505 39.357z" mask="url(#prefix__h)"/>
        </g>
        <g transform="translate(0 -1) translate(0 .711)">
            <path fill="#B7B3AD" d="M111.909 199.818V223.3c0 3.642 2.962 6.595 6.614 6.595h7.163v-6.153c0-10.205-5.537-19.12-13.777-23.923m69.526 16.553c-1.133-1.527-3.297-1.779-4.747-.588 1.407-1.155 1.609-3.226.454-4.627-1.154-1.404-3.235-1.607-4.64-.456 1.405-1.15 1.612-3.22.454-4.626-.65-.79-1.594-1.199-2.549-1.199-.734 0-1.476.243-2.092.747l9.429-7.724c1.584-1.294 1.644-3.749-.036-5.11-1.222-.99-3.002-.906-4.22.091l-16.117 13.202c-1.501-1.71-4.102-1.938-5.872-.486-1.018.835-1.545 2.041-1.545 3.263 0 .9.291 1.81.881 2.578l-.752.613c-2.501 2.05-3.94 4.911-4.246 7.882-4.596-.412-9.318 1.317-12.545 5.08l-4.194 4.883h35.743c3.234 0 6.369-1.12 8.872-3.168l1.549-1.267 5.475-4.488c1.377-1.128 1.759-3.172.698-4.6"/>
            <mask id="prefix__j" fill="#fff">
                <use xlink:href="#prefix__i"/>
            </mask>
            <path fill="#FFF" d="M49.02 207.107L76.67 207.107 76.67 173.651 49.02 173.651zM98.13 156.376h.018c3.276 0 5.93-2.655 5.93-5.93v-9.012c0-3.277-2.654-5.932-5.93-5.932h-.018c-3.275 0-5.932 2.655-5.932 5.932v9.011c0 3.276 2.657 5.931 5.932 5.931" mask="url(#prefix__j)"/>
            <path fill="#D0D2D3" d="M98.138 153.587c3.281 0 5.94-2.652 5.94-5.923v2.79c0 3.27-2.659 5.923-5.94 5.923-3.28 0-5.94-2.652-5.94-5.923v-2.79c0 3.27 2.66 5.923 5.94 5.923" mask="url(#prefix__j)"/>
            <path fill="#FFF" d="M27.543 156.376h.019c3.275 0 5.93-2.655 5.93-5.93v-9.012c0-3.277-2.655-5.932-5.93-5.932h-.02c-3.274 0-5.93 2.655-5.93 5.932v9.011c0 3.276 2.656 5.931 5.93 5.931" mask="url(#prefix__j)"/>
            <path fill="#D0D2D3" d="M27.553 153.587c3.28 0 5.94-2.652 5.94-5.923v2.79c0 3.27-2.66 5.923-5.94 5.923-3.281 0-5.94-2.652-5.94-5.923v-2.79c0 3.27 2.659 5.923 5.94 5.923" mask="url(#prefix__j)"/>
            <path fill="#FFF" d="M97.62 133.144c-1.149-5.89-3.767-11.257-7.462-15.705-1.066-1.29-2.226-2.5-3.467-3.625-6.294-5.718-14.661-9.198-23.845-9.198-.408 0-.819.007-1.226.023-.139 0-.276.008-.411.014-9.137.413-17.365 4.272-23.422 10.31-5.393 5.379-9.057 12.488-10.082 20.42-.193 1.493-.294 3.016-.294 4.56v6.996c0 19.513 15.863 35.33 35.435 35.33 19.568 0 35.434-15.817 35.434-35.33v-6.995c0-1.501-.094-2.977-.276-4.427l-.384-2.373z" mask="url(#prefix__j)"/>
            <path fill="#D0D2D3" d="M62.846 176.688c19.568 0 35.435-15.816 35.435-35.329v5.58c0 19.513-15.867 35.33-35.435 35.33-19.571 0-35.435-15.817-35.435-35.33v-5.58c0 19.513 15.864 35.33 35.435 35.33" mask="url(#prefix__j)"/>
            <path fill="#4B6084" d="M97.62 133.144h-3.384v16.931c0 1.105.856 2.067 1.963 2.097 1.145.031 2.081-.882 2.081-2.013v-12.181c0-1.633-.223-3.26-.66-4.834M28.058 133.144c-.43 1.486-.647 3.023-.647 4.567v12.447c0 1.113.97 2.015 2.17 2.015 1.197 0 2.166-.903 2.166-2.014v-17.014h-3.689z" mask="url(#prefix__j)"/>
            <path fill="#4B6084" d="M61.62 104.64c3.584 5.577 12.469 17.633 26.856 26.112 3.464 2.038 6.644 3.595 9.528 4.765-.004-.003-.004-.01-.004-.014-.857-6.816-3.66-13.03-7.842-18.063-1.066-1.291-2.226-2.5-3.467-3.626-6.294-5.718-14.661-9.198-23.845-9.198-.408 0-.819.006-1.226.024" mask="url(#prefix__j)"/>
            <path fill="#808F91" d="M27.705 135.382c4.823 1.457 14.33 2.83 29.426-1.105 15.265-3.976 26.85-11.863 33.027-16.838-1.066-1.29-2.226-2.499-3.467-3.625-6.294-5.719-14.661-9.199-23.845-9.199-.546 0-1.095.01-1.637.038-9.137.413-17.365 4.272-23.422 10.311-5.393 5.377-9.057 12.486-10.082 20.418" mask="url(#prefix__j)"/>
            <path fill="#4B6084" d="M57.13 113.621c6.686-1.74 12.664-4.231 17.792-6.9 4.394 1.587 8.382 4.016 11.77 7.093 1.24 1.126 2.4 2.335 3.466 3.626-6.176 4.974-17.761 12.862-33.027 16.838-15.096 3.935-24.603 2.56-29.426 1.105.952-7.365 4.182-14.019 8.955-19.238 5.134.233 11.9-.29 20.47-2.523" mask="url(#prefix__j)"/>
            <path fill="#808F91" d="M57.13 120.507c9.76-2.542 18.013-6.683 24.313-10.64 1.873 1.155 3.629 2.476 5.249 3.947 1.24 1.126 2.4 2.335 3.466 3.626-6.176 4.974-17.761 12.86-33.027 16.838-15.096 3.935-24.603 2.56-29.426 1.104.596-4.608 2.087-8.936 4.286-12.811 5.414.85 13.659.929 25.14-2.064" mask="url(#prefix__j)"/>
            <path fill="#4B6084" d="M57.13 127.392c12.524-3.262 22.567-9.155 29.184-13.914.126.112.254.223.378.336 1.24 1.126 2.4 2.334 3.466 3.625-6.176 4.975-17.761 12.862-33.027 16.838-15.096 3.935-24.603 2.562-29.426 1.105.289-2.234.794-4.399 1.48-6.482 5.175 1.264 14.265 2.058 27.946-1.508" mask="url(#prefix__j)"/>
            <path fill="#A62873" d="M62.84 158.642h.012c2.158 0 3.908-1.75 3.908-3.909v-5.121c0-2.159-1.75-3.909-3.908-3.909h-.012c-2.158 0-3.908 1.75-3.908 3.909v5.121c0 2.159 1.75 3.909 3.908 3.909" mask="url(#prefix__j)"/>
            <path fill="#6BC9FF" d="M125.686 220.063v11.721h-21.509v65.138c-1.376.052-2.759.078-4.145.078-4.039 0-8.027-.22-11.948-.655-2.545-.276-5.057-.639-7.544-1.095-13.603-2.468-26.318-7.477-37.634-14.517-4.678-2.908-9.115-6.163-13.272-9.73-.033-.023-.062-.052-.093-.078C16.721 259.917 6.521 245.958 0 230.107v-7.656H.01v-2.388c0-15.295 12.443-27.692 27.776-27.692H39.84l9.203 30.08h27.614l9.203-30.08h12.055c.272 0 .545.004.814.01 14.958.431 26.957 12.66 26.957 27.682" mask="url(#prefix__j)"/>
            <path fill="#3EA4FF" d="M21.516 263.29c1.801 1.898 3.671 3.73 5.604 5.49l-5.592-41.214-.012 35.725zM94.755 296.871c1.748.085 3.508.129 5.278.129 1.387 0 2.77-.025 4.146-.077v-69.357l-9.424 69.305z" mask="url(#prefix__j)"/>
            <path fill="#FFFFE5" d="M48.173 219.59L55.845 244.66 55.845 244.663 55.985 245.125 57.709 250.761 58.981 254.916 60.703 260.552 61.976 264.706 62.858 267.587 63.933 264.067 65.486 258.991 67.593 252.103 69.144 247.027 69.853 244.71 77.533 219.59 62.858 207.108z" mask="url(#prefix__j)"/>
            <path fill="#A62873" d="M76.312 142.659c0 1.648 1.34 2.983 2.992 2.983 1.654 0 2.992-1.335 2.992-2.983 0-1.648-1.338-2.984-2.992-2.984-1.652 0-2.992 1.336-2.992 2.984M43.393 142.659c0 1.648 1.34 2.983 2.993 2.983 1.653 0 2.992-1.335 2.992-2.983 0-1.648-1.339-2.984-2.992-2.984s-2.993 1.336-2.993 2.984M62.846 169.63c3.81 0 7.618-1.446 10.519-4.337.57-.57.57-1.496 0-2.066-.574-.57-1.5-.57-2.073 0-4.657 4.644-12.235 4.644-16.892 0-.573-.57-1.5-.57-2.073 0-.571.57-.571 1.496 0 2.066 2.9 2.89 6.709 4.337 10.519 4.337" mask="url(#prefix__j)"/>
            <path fill="#F29600" d="M39.842 192.37L39.842 192.369 49.02 187.213 62.846 207.107 48.172 219.591zM85.862 192.37L85.862 192.369 76.684 187.213 62.858 207.107 77.532 219.591z" mask="url(#prefix__j)"/>
            <path fill="#3EA4FF" d="M39.842 192.37l-7.603 24.156c-.275.875.183 1.812 1.043 2.135l5.9 2.213c1.485.557 1.502 2.644.026 3.225l-7.254 2.85c-1.097.432-1.452 1.807-.698 2.712l31.59 37.925-23.004-75.216z" mask="url(#prefix__j)"/>
            <path fill="#D0D2D3" d="M49.033 183.415L62.846 198.46 62.858 198.46 76.671 183.415 76.684 187.213 62.858 207.107 62.846 207.107 49.019 187.213z" mask="url(#prefix__j)"/>
            <path fill="#3EA4FF" d="M85.862 192.37l7.603 24.156c.275.875-.183 1.812-1.043 2.135l-5.9 2.213c-1.485.557-1.502 2.644-.026 3.225l7.254 2.85c1.097.432 1.452 1.807.698 2.712l-31.59 37.925 23.004-75.216z" mask="url(#prefix__j)"/>
            <path fill="#6BC9FF" d="M158.777 234.566c.006-.013.013-.025.018-.038-.034.132-.07.265-.107.396-.037.133-.077.265-.118.398-.04.13-.085.262-.129.39-.044.132-.093.261-.14.39-.096.25-.196.492-.302.738-.052.111-.1.221-.152.332-.07.155-.147.305-.225.456l-.077.14c-.07.14-.144.28-.225.415-.115.2-.232.394-.355.59-.047.076-.095.15-.147.223-.192.291-.395.574-.608.853-.052.071-.108.136-.162.202-.112.14-.226.28-.344.42l-29.878 34.786c-2.844 3.314-6.964 5.142-11.206 5.142-1.324 0-2.663-.177-3.976-.545-5.529-1.544-9.657-6.142-10.587-11.79l-.634-3.872-3.496-33.632c-1.313-8.017 2.183-15.17 10.224-16.483 8.045-1.306 15.63 4.126 16.945 12.143l.96 5.866 9.236-10.753c5.297-6.172 14.611-6.889 20.8-1.604 4.418 3.77 6.042 9.575 4.685 14.837" mask="url(#prefix__j)"/>
            <path fill="#3EA4FF" d="M158.795 234.528c-.033.132-.07.265-.106.396-.038.133-.078.265-.12.398-.04.13-.084.262-.128.39-.043.132-.092.261-.14.39-.096.25-.195.492-.302.74-.052.11-.1.22-.151.331-.071.154-.148.304-.226.455-.025.048-.052.095-.077.14-.07.14-.144.28-.225.415-.115.2-.232.394-.354.59-.048.076-.096.15-.148.223-.192.291-.394.574-.608.853-.052.071-.107.136-.162.202-.111.14-.226.28-.344.42l-29.878 34.786c-2.844 3.314-6.964 5.142-11.206 5.142-1.324 0-2.663-.177-3.975-.545-5.53-1.544-9.658-6.14-10.587-11.79l-.635-3.872c.016-.272-.022-.522-.121-.75.262.132 6.466 12.688 11.538 9.377 3.419-2.228 21.854-33.282 36.056-33.466 8.019-.103 10.907-2.637 11.899-4.825" mask="url(#prefix__j)"/>
            <path fill="#0E6DA0" d="M159.235 231.517l.006-.14-.035-.016s.013.056.03.156" mask="url(#prefix__j)"/>
            <path fill="#3EA4FF" d="M125.686 220.063v10.125l-1.608 1.596-13.947 13.85v-37.549c0-11.364-10.73-15.457-11.402-15.704 14.958.431 26.957 12.66 26.957 27.682" mask="url(#prefix__j)"/>
            <path fill="#FFF" d="M142.78 231.369c2.973 3.608 8.316 4.131 11.936 1.166l9.867-8.081-10.767-13.067-9.867 8.082c-3.619 2.963-4.143 8.292-1.17 11.9" mask="url(#prefix__j)"/>
            <path fill="#D0D2D3" d="M148.455 224.924l1.768 2.146c4.134 5.018 11.567 5.744 16.6 1.622l10.738-8.796-16.741-20.32-10.738 8.797c-5.033 4.122-5.762 11.533-1.627 16.55" mask="url(#prefix__j)"/>
            <path fill="#FFF" d="M150.914 207.864l1.41 1.712c1.486 1.803 4.156 2.064 5.964.583 1.809-1.48 2.069-4.143.584-5.945l-1.41-1.712c-1.486-1.803-4.155-2.064-5.964-.583-1.808 1.481-2.07 4.142-.584 5.945M167.44 223.933c1.155 1.401 3.232 1.605 4.64.453l8.793-7.202c1.407-1.153 1.61-3.225.455-4.626-1.157-1.403-3.234-1.606-4.64-.454l-8.794 7.201c-1.406 1.153-1.61 3.225-.454 4.627" mask="url(#prefix__j)"/>
            <path fill="#FFF" d="M163.255 218.852c1.155 1.403 3.233 1.605 4.64.453l8.794-7.202c1.406-1.152 1.61-3.223.454-4.626-1.156-1.402-3.234-1.605-4.64-.453l-8.794 7.202c-1.406 1.152-1.61 3.224-.454 4.626" mask="url(#prefix__j)"/>
            <path fill="#FFF" d="M159.07 213.773c1.155 1.402 3.232 1.605 4.64.453l8.793-7.202c1.406-1.152 1.61-3.224.454-4.626-1.156-1.403-3.234-1.606-4.64-.454l-8.793 7.202c-1.407 1.152-1.61 3.224-.455 4.627" mask="url(#prefix__j)"/>
            <path fill="#FFF" d="M154.884 208.693c1.156 1.403 3.233 1.605 4.64.453l18.22-14.924c1.409-1.152 1.612-3.223.455-4.626-1.155-1.403-3.232-1.606-4.64-.453l-18.22 14.924c-1.407 1.152-1.61 3.224-.455 4.626" mask="url(#prefix__j)"/>
            <path fill="#596273" d="M194.741 58.408c-.323 0-.578.262-.578.577 0 .315.255.574.578.574h12.1c.326 0 .578-.26.578-.574 0-.315-.252-.577-.578-.577h-12.1z" mask="url(#prefix__j)"/>
            <path fill="#F0CA67" d="M185.706 28.882c0-8.304 6.754-15.035 15.082-15.035 8.337 0 15.089 6.731 15.089 15.035 0 .495-.363 7.445-6.047 14.742-1.664 2.197-1.387 6.627-1.387 6.627H193.09s.317-4.43-1.34-6.627c-5.69-7.304-6.044-14.247-6.044-14.742" mask="url(#prefix__j)"/>
            <path fill="#F4DA80" d="M200.788 50.25h-7.698s.317-4.428-1.34-6.626c-5.691-7.304-6.044-14.247-6.044-14.742 0-8.303 6.754-15.034 15.082-15.034" mask="url(#prefix__j)"/>
            <path fill="#F4DA80" d="M212.664 28.882h-1.322c0-5.804-4.732-10.52-10.554-10.52v-1.319c6.555 0 11.876 5.31 11.876 11.84" mask="url(#prefix__j)"/>
            <path fill="#30363D" d="M204.084 51.428L202.78 51.209 205.356 35.664 206.66 35.884zM197.495 51.428L194.919 35.884 196.225 35.664 198.802 51.209z" mask="url(#prefix__j)"/>
            <path fill="#30363D" d="M205.922 37.852c-.535 0-.77-.524-.94-.907-.078-.16-.222-.495-.308-.495-.07.028-.172.29-.233.43-.151.387-.385.972-1.015.972-.375 0-.603-.377-.861-.815-.098-.16-.27-.445-.381-.555-.09.104-.224.33-.308.474-.276.461-.544.896-.956.896-.405 0-.667-.424-.928-.872-.092-.15-.24-.39-.33-.493-.103.105-.251.354-.35.516-.258.437-.507.85-.904.85-.442 0-.724-.475-1-.934-.09-.154-.22-.373-.3-.459-.111.037-.187.198-.316.52-.148.366-.342.872-.886.872v-.704c.07-.027.169-.286.225-.425.159-.393.39-.972 1.023-.972.375 0 .6.372.86.81.099.162.274.448.379.56.092-.107.23-.334.314-.477.279-.464.537-.893.956-.893.405 0 .66.421.932.868.092.152.23.39.325.498.102-.11.253-.359.348-.517.258-.438.508-.849.9-.849.446 0 .73.472.997.933.095.15.234.371.307.46.107-.042.19-.199.32-.523.14-.372.347-.87.882-.87.538 0 .775.522.947.907.07.161.218.49.3.49v.704zM208.474 50.259v7.865c0 .535-.438.973-.98.973h-13.39c-.538 0-.978-.438-.978-.973v-7.865h15.347z" mask="url(#prefix__j)"/>
            <path fill="#103754" d="M208.778 51.02L192.804 51.02" mask="url(#prefix__j)"/>
            <path fill="#596273" d="M208.778 51.79h-15.974c-.424 0-.775-.345-.775-.77 0-.427.351-.772.775-.772h15.974c.431 0 .774.345.774.772 0 .425-.343.77-.774.77" mask="url(#prefix__j)"/>
            <path fill="#30363D" d="M208.778 53.587L192.804 53.587" mask="url(#prefix__j)"/>
            <path fill="#596273" d="M208.778 54.358h-15.974c-.424 0-.775-.348-.775-.77 0-.424.351-.772.775-.772h15.974c.431 0 .774.348.774.771 0 .423-.343.771-.774.771" mask="url(#prefix__j)"/>
            <path fill="#30363D" d="M208.778 56.155L192.804 56.155" mask="url(#prefix__j)"/>
            <path fill="#596273" d="M208.778 56.927h-15.974c-.424 0-.775-.34-.775-.772 0-.423.351-.771.775-.771h15.974c.431 0 .774.348.774.77 0 .433-.343.773-.774.773" mask="url(#prefix__j)"/>
            <path stroke="#E7AD26" d="M200.788 8.545L200.788.289M190.221 11.377L186.083 4.221M182.493 19.087L175.314 14.956M179.668 29.618L171.379 29.618M219.086 40.136L226.268 44.272M221.921 29.607L230.206 29.607M219.086 19.077L226.262 14.945M211.349 11.37L215.493 4.215M200.788 8.545L200.788.289M200.797 8.545L200.797.289M211.354 11.377L215.498 4.221M219.086 19.087L226.268 14.956M221.921 29.618L230.206 29.618M182.493 40.136L175.314 44.272M179.668 29.607L171.379 29.607M182.502 19.077L175.32 14.945M190.237 11.37L186.092 4.215M200.797 8.545L200.797.289" mask="url(#prefix__j)"/>
        </g>
        <g fill="#225F9B">
            <path d="M12.866 35.757c-.006-1.05-.381-1.935-1.127-2.657-.744-.718-1.993-1.372-3.758-1.947-2.448-.732-4.24-1.697-5.366-2.886-1.125-1.2-1.69-2.718-1.699-4.56-.007-1.88.534-3.422 1.63-4.634 1.091-1.207 2.593-1.928 4.515-2.163l-.013-3.764 2.568-.01.017 3.779c1.93.258 3.437 1.052 4.517 2.402 1.081 1.35 1.624 3.2 1.635 5.55l-3.171.014c-.007-1.625-.4-2.912-1.171-3.86-.778-.95-1.814-1.428-3.124-1.424-1.371.008-2.414.366-3.137 1.076-.723.71-1.082 1.697-1.075 2.96.005 1.172.389 2.099 1.158 2.797.766.686 2.03 1.317 3.784 1.87 1.754.569 3.128 1.184 4.112 1.866.984.677 1.709 1.468 2.184 2.37.463.902.703 1.962.711 3.178.008 1.934-.569 3.5-1.732 4.68-1.163 1.186-2.793 1.894-4.897 2.123l.016 3.278-2.554.01-.016-3.279c-2.136-.192-3.815-.943-5.034-2.262C.621 38.944.008 37.151 0 34.887l3.189-.013c.005 1.593.43 2.814 1.272 3.675.843.858 2.034 1.282 3.574 1.273 1.506-.005 2.692-.377 3.55-1.1.857-.726 1.287-1.714 1.281-2.965" transform="translate(0 -1) translate(156 125)"/>
            <path fill-rule="nonzero" d="M31.64 44.959c3.182 0 5.748-.857 7.7-2.57 1.95-1.714 2.925-4.016 2.925-6.908 0-1.82-.509-3.45-1.526-4.888-1.017-1.438-2.398-2.532-4.142-3.282 1.499-.734 2.689-1.752 3.568-3.052.88-1.3 1.32-2.785 1.32-4.452 0-2.815-.907-5.05-2.72-6.702-1.813-1.652-4.188-2.478-7.125-2.478-2.953 0-5.332.826-7.138 2.478-1.805 1.653-2.708 3.887-2.708 6.702 0 1.652.429 3.128 1.286 4.429.856 1.3 2.027 2.318 3.51 3.052-1.743.75-3.109 1.851-4.096 3.305-.986 1.453-1.48 3.083-1.48 4.888 0 2.876.968 5.175 2.903 6.896 1.936 1.721 4.51 2.582 7.723 2.582zm0-19.392c-1.699 0-3.056-.524-4.074-1.572-1.017-1.048-1.526-2.421-1.526-4.12 0-1.774.516-3.178 1.55-4.21 1.032-1.033 2.382-1.55 4.05-1.55 1.621 0 2.96.536 4.016 1.607 1.055 1.07 1.583 2.455 1.583 4.153 0 1.699-.508 3.072-1.526 4.12-1.017 1.048-2.375 1.572-4.073 1.572zm0 15.927c-2.005 0-3.569-.543-4.694-1.63-1.124-1.086-1.686-2.578-1.686-4.475 0-1.897.577-3.427 1.732-4.59 1.155-1.162 2.69-1.744 4.602-1.744 1.912 0 3.461.59 4.647 1.767 1.186 1.178 1.778 2.7 1.778 4.567 0 1.882-.566 3.37-1.698 4.464-1.132 1.094-2.692 1.64-4.681 1.64zm26.414 3.465c3.61 0 6.265-1.209 7.964-3.626 1.698-2.417 2.547-6.112 2.547-11.084V24.74c-.046-4.804-.918-8.358-2.616-10.66-1.699-2.303-4.345-3.454-7.94-3.454-3.627 0-6.289 1.193-7.987 3.58-1.698 2.387-2.547 6.036-2.547 10.947v5.668c.06 4.697.948 8.228 2.662 10.591 1.713 2.364 4.352 3.546 7.917 3.546zm0-3.465c-2.126 0-3.714-.86-4.762-2.582-1.048-1.721-1.572-4.387-1.572-7.998v-6.793c.03-3.396.543-5.913 1.538-7.55.994-1.637 2.578-2.456 4.75-2.456 2.188 0 3.787.823 4.797 2.467 1.01 1.645 1.514 4.265 1.514 7.86v6.954c-.046 3.488-.577 6.043-1.595 7.665-1.017 1.622-2.574 2.433-4.67 2.433zm26.392 3.465c3.61 0 6.265-1.209 7.963-3.626 1.698-2.417 2.547-6.112 2.547-11.084V24.74c-.045-4.804-.917-8.358-2.616-10.66-1.698-2.303-4.345-3.454-7.94-3.454-3.626 0-6.288 1.193-7.986 3.58-1.699 2.387-2.548 6.036-2.548 10.947v5.668c.061 4.697.949 8.228 2.662 10.591 1.714 2.364 4.353 3.546 7.918 3.546zm0-3.465c-2.127 0-3.714-.86-4.762-2.582-1.048-1.721-1.572-4.387-1.572-7.998v-6.793c.03-3.396.543-5.913 1.537-7.55.995-1.637 2.578-2.456 4.75-2.456 2.189 0 3.787.823 4.797 2.467 1.01 1.645 1.515 4.265 1.515 7.86v6.954c-.046 3.488-.578 6.043-1.595 7.665-1.017 1.622-2.574 2.433-4.67 2.433z" transform="translate(0 -1) translate(156 125)"/>
        </g>
    </g>
</svg>
