<?xml version="1.0" encoding="UTF-8"?>
<svg width="376px" height="247px" viewBox="0 0 376 247" version="1.1" xmlns="http://www.w3.org/2000/svg" xmlns:xlink="http://www.w3.org/1999/xlink">
    <!-- Generator: Sketch 61.1 (89650) - https://sketch.com -->
    <title>Group 10 outline</title>
    <desc>Created with Sketch.</desc>
    <defs>
        <polygon id="path-1" points="0 0.1983 297.7426 0.1983 297.7426 178.7513 0 178.7513"></polygon>
        <polygon id="path-3" points="0.7204 0.4473 298.4634 0.4473 298.4634 179 0.7204 179"></polygon>
        <polygon id="path-5" points="0.3609 0.5391 42.72 0.5391 42.72 42.8891 0.3609 42.8891"></polygon>
        <polygon id="path-7" points="0.3139 0.927 181.4289 0.927 181.4289 182.0021 0.3139 182.0021"></polygon>
        <path d="M0.555,73.058 C0.555,112.985 32.929,145.353 72.865,145.353 L72.865,145.353 C112.801,145.353 145.175,112.985 145.175,73.058 L145.175,73.058 C145.175,33.131 112.801,0.764 72.865,0.764 L72.865,0.764 C32.929,0.764 0.555,33.131 0.555,73.058 L0.555,73.058 Z" id="path-9"></path>
        <path d="M0.555,73.058 C0.555,112.985 32.929,145.353 72.865,145.353 L72.865,145.353 C112.801,145.353 145.175,112.985 145.175,73.058 L145.175,73.058 C145.175,33.131 112.801,0.764 72.865,0.764 L72.865,0.764 C32.929,0.764 0.555,33.131 0.555,73.058 L0.555,73.058 Z" id="path-11"></path>
        <path d="M0.555,73.058 C0.555,112.985 32.929,145.353 72.865,145.353 L72.865,145.353 C112.801,145.353 145.175,112.985 145.175,73.058 L145.175,73.058 C145.175,33.131 112.801,0.764 72.865,0.764 L72.865,0.764 C32.929,0.764 0.555,33.131 0.555,73.058 L0.555,73.058 Z" id="path-13"></path>
        <path d="M0.555,73.058 C0.555,112.985 32.929,145.353 72.865,145.353 L72.865,145.353 C112.801,145.353 145.175,112.985 145.175,73.058 L145.175,73.058 C145.175,33.131 112.801,0.764 72.865,0.764 L72.865,0.764 C32.929,0.764 0.555,33.131 0.555,73.058" id="path-15"></path>
        <path d="M0.555,73.058 C0.555,112.985 32.929,145.353 72.865,145.353 L72.865,145.353 C112.801,145.353 145.175,112.985 145.175,73.058 L145.175,73.058 C145.175,33.131 112.801,0.764 72.865,0.764 L72.865,0.764 C32.929,0.764 0.555,33.131 0.555,73.058" id="path-17"></path>
        <path d="M0.555,73.058 C0.555,112.985 32.929,145.353 72.865,145.353 L72.865,145.353 C112.801,145.353 145.175,112.985 145.175,73.058 L145.175,73.058 C145.175,33.131 112.801,0.764 72.865,0.764 L72.865,0.764 C32.929,0.764 0.555,33.131 0.555,73.058" id="path-19"></path>
        <path d="M0.555,73.058 C0.555,112.985 32.929,145.353 72.865,145.353 L72.865,145.353 C112.801,145.353 145.175,112.985 145.175,73.058 L145.175,73.058 C145.175,33.131 112.801,0.764 72.865,0.764 L72.865,0.764 C32.929,0.764 0.555,33.131 0.555,73.058" id="path-21"></path>
        <path d="M0.555,73.058 C0.555,112.985 32.929,145.353 72.865,145.353 L72.865,145.353 C112.801,145.353 145.175,112.985 145.175,73.058 L145.175,73.058 C145.175,33.131 112.801,0.764 72.865,0.764 L72.865,0.764 C32.929,0.764 0.555,33.131 0.555,73.058 L0.555,73.058 Z" id="path-23"></path>
        <path d="M0.555,73.058 C0.555,112.985 32.929,145.353 72.865,145.353 L72.865,145.353 C112.801,145.353 145.175,112.985 145.175,73.058 L145.175,73.058 C145.175,33.131 112.801,0.764 72.865,0.764 L72.865,0.764 C32.929,0.764 0.555,33.131 0.555,73.058 L0.555,73.058 Z" id="path-25"></path>
        <path d="M0.555,73.058 C0.555,112.985 32.929,145.353 72.865,145.353 L72.865,145.353 C112.801,145.353 145.175,112.985 145.175,73.058 L145.175,73.058 C145.175,33.131 112.801,0.764 72.865,0.764 L72.865,0.764 C32.929,0.764 0.555,33.131 0.555,73.058" id="path-27"></path>
        <path d="M0.555,73.058 C0.555,112.985 32.929,145.353 72.865,145.353 L72.865,145.353 C112.801,145.353 145.175,112.985 145.175,73.058 L145.175,73.058 C145.175,33.131 112.801,0.764 72.865,0.764 L72.865,0.764 C32.929,0.764 0.555,33.131 0.555,73.058" id="path-29"></path>
        <path d="M0.555,73.058 C0.555,112.985 32.929,145.353 72.865,145.353 L72.865,145.353 C112.801,145.353 145.175,112.985 145.175,73.058 L145.175,73.058 C145.175,33.131 112.801,0.764 72.865,0.764 L72.865,0.764 C32.929,0.764 0.555,33.131 0.555,73.058" id="path-31"></path>
        <path d="M0.555,73.058 C0.555,112.985 32.929,145.353 72.865,145.353 L72.865,145.353 C112.801,145.353 145.175,112.985 145.175,73.058 L145.175,73.058 C145.175,33.131 112.801,0.764 72.865,0.764 L72.865,0.764 C32.929,0.764 0.555,33.131 0.555,73.058" id="path-33"></path>
        <path d="M0.555,73.058 C0.555,112.985 32.929,145.353 72.865,145.353 L72.865,145.353 C112.801,145.353 145.175,112.985 145.175,73.058 L145.175,73.058 C145.175,33.131 112.801,0.764 72.865,0.764 L72.865,0.764 C32.929,0.764 0.555,33.131 0.555,73.058" id="path-35"></path>
        <path d="M0.555,73.058 C0.555,112.985 32.929,145.353 72.865,145.353 L72.865,145.353 C112.801,145.353 145.175,112.985 145.175,73.058 L145.175,73.058 C145.175,33.131 112.801,0.764 72.865,0.764 L72.865,0.764 C32.929,0.764 0.555,33.131 0.555,73.058" id="path-37"></path>
        <path d="M0.555,73.058 C0.555,112.985 32.929,145.353 72.865,145.353 L72.865,145.353 C112.801,145.353 145.175,112.985 145.175,73.058 L145.175,73.058 C145.175,33.131 112.801,0.764 72.865,0.764 L72.865,0.764 C32.929,0.764 0.555,33.131 0.555,73.058" id="path-39"></path>
        <path d="M0.555,73.058 C0.555,112.985 32.929,145.353 72.865,145.353 L72.865,145.353 C112.801,145.353 145.175,112.985 145.175,73.058 L145.175,73.058 C145.175,33.131 112.801,0.764 72.865,0.764 L72.865,0.764 C32.929,0.764 0.555,33.131 0.555,73.058" id="path-41"></path>
        <path d="M0.555,73.058 C0.555,112.985 32.929,145.353 72.865,145.353 L72.865,145.353 C112.801,145.353 145.175,112.985 145.175,73.058 L145.175,73.058 C145.175,33.131 112.801,0.764 72.865,0.764 L72.865,0.764 C32.929,0.764 0.555,33.131 0.555,73.058" id="path-43"></path>
        <path d="M0.555,73.058 C0.555,112.985 32.929,145.353 72.865,145.353 L72.865,145.353 C112.801,145.353 145.175,112.985 145.175,73.058 L145.175,73.058 C145.175,33.131 112.801,0.764 72.865,0.764 L72.865,0.764 C32.929,0.764 0.555,33.131 0.555,73.058" id="path-45"></path>
        <path d="M0.555,73.058 C0.555,112.985 32.929,145.353 72.865,145.353 L72.865,145.353 C112.801,145.353 145.175,112.985 145.175,73.058 L145.175,73.058 C145.175,33.131 112.801,0.764 72.865,0.764 L72.865,0.764 C32.929,0.764 0.555,33.131 0.555,73.058" id="path-47"></path>
        <path d="M0.555,73.058 C0.555,112.985 32.929,145.353 72.865,145.353 L72.865,145.353 C112.801,145.353 145.175,112.985 145.175,73.058 L145.175,73.058 C145.175,33.131 112.801,0.764 72.865,0.764 L72.865,0.764 C32.929,0.764 0.555,33.131 0.555,73.058" id="path-49"></path>
        <path d="M0.555,73.058 C0.555,112.985 32.929,145.353 72.865,145.353 L72.865,145.353 C112.801,145.353 145.175,112.985 145.175,73.058 L145.175,73.058 C145.175,33.131 112.801,0.764 72.865,0.764 L72.865,0.764 C32.929,0.764 0.555,33.131 0.555,73.058 L0.555,73.058 Z" id="path-51"></path>
        <path d="M0.555,73.058 C0.555,112.985 32.929,145.353 72.865,145.353 L72.865,145.353 C112.801,145.353 145.175,112.985 145.175,73.058 L145.175,73.058 C145.175,33.131 112.801,0.764 72.865,0.764 L72.865,0.764 C32.929,0.764 0.555,33.131 0.555,73.058" id="path-53"></path>
        <path d="M0.555,73.058 C0.555,112.985 32.929,145.353 72.865,145.353 L72.865,145.353 C112.801,145.353 145.175,112.985 145.175,73.058 L145.175,73.058 C145.175,33.131 112.801,0.764 72.865,0.764 L72.865,0.764 C32.929,0.764 0.555,33.131 0.555,73.058 L0.555,73.058 Z" id="path-55"></path>
        <path d="M0.555,73.058 C0.555,112.985 32.929,145.353 72.865,145.353 L72.865,145.353 C112.801,145.353 145.175,112.985 145.175,73.058 L145.175,73.058 C145.175,33.131 112.801,0.764 72.865,0.764 L72.865,0.764 C32.929,0.764 0.555,33.131 0.555,73.058 L0.555,73.058 Z" id="path-57"></path>
        <path d="M0.555,73.058 C0.555,112.985 32.929,145.353 72.865,145.353 L72.865,145.353 C112.801,145.353 145.175,112.985 145.175,73.058 L145.175,73.058 C145.175,33.131 112.801,0.764 72.865,0.764 L72.865,0.764 C32.929,0.764 0.555,33.131 0.555,73.058 L0.555,73.058 Z" id="path-59"></path>
        <path d="M0.555,73.058 C0.555,112.985 32.929,145.353 72.865,145.353 L72.865,145.353 C112.801,145.353 145.175,112.985 145.175,73.058 L145.175,73.058 C145.175,33.131 112.801,0.764 72.865,0.764 L72.865,0.764 C32.929,0.764 0.555,33.131 0.555,73.058" id="path-61"></path>
        <path d="M0.555,73.058 C0.555,112.985 32.929,145.353 72.865,145.353 L72.865,145.353 C112.801,145.353 145.175,112.985 145.175,73.058 L145.175,73.058 C145.175,33.131 112.801,0.764 72.865,0.764 L72.865,0.764 C32.929,0.764 0.555,33.131 0.555,73.058" id="path-63"></path>
        <path d="M0.555,73.058 C0.555,112.985 32.929,145.353 72.865,145.353 L72.865,145.353 C112.801,145.353 145.175,112.985 145.175,73.058 L145.175,73.058 C145.175,33.131 112.801,0.764 72.865,0.764 L72.865,0.764 C32.929,0.764 0.555,33.131 0.555,73.058" id="path-65"></path>
        <path d="M0.555,73.058 C0.555,112.985 32.929,145.353 72.865,145.353 L72.865,145.353 C112.801,145.353 145.175,112.985 145.175,73.058 L145.175,73.058 C145.175,33.131 112.801,0.764 72.865,0.764 L72.865,0.764 C32.929,0.764 0.555,33.131 0.555,73.058" id="path-67"></path>
        <path d="M0.555,73.058 C0.555,112.985 32.929,145.353 72.865,145.353 L72.865,145.353 C112.801,145.353 145.175,112.985 145.175,73.058 L145.175,73.058 C145.175,33.131 112.801,0.764 72.865,0.764 L72.865,0.764 C32.929,0.764 0.555,33.131 0.555,73.058" id="path-69"></path>
        <path d="M0.555,73.058 C0.555,112.985 32.929,145.353 72.865,145.353 L72.865,145.353 C112.801,145.353 145.175,112.985 145.175,73.058 L145.175,73.058 C145.175,33.131 112.801,0.764 72.865,0.764 L72.865,0.764 C32.929,0.764 0.555,33.131 0.555,73.058" id="path-71"></path>
        <polygon id="path-73" points="0 247 375.72 247 375.72 0.927 0 0.927"></polygon>
    </defs>
    <g id="懶人包" stroke="none" stroke-width="1" fill="none" fill-rule="evenodd">
        <g id="小資振興_懶人包_農遊券" transform="translate(-1137.000000, -1139.000000)">
            <g id="Group-10-outline" transform="translate(1137.000000, 1138.000000)">
                <g id="Group-156">
                    <g id="Group-44" transform="translate(0.000000, 0.073000)">
                        <g id="Group-3" transform="translate(0.000000, 2.000000)">
                            <mask id="mask-2" fill="white">
                                <use xlink:href="#path-1"></use>
                            </mask>
                            <g id="Clip-2"></g>
                            <path d="M269.4256,178.7513 L28.3186,178.7513 C12.6786,178.7513 -0.0004,166.0723 -0.0004,150.4333 L-0.0004,28.5163 C-0.0004,12.8763 12.6786,0.1983 28.3186,0.1983 L269.4256,0.1983 C285.0656,0.1983 297.7426,12.8763 297.7426,28.5163 L297.7426,150.4333 C297.7426,166.0723 285.0656,178.7513 269.4256,178.7513" id="Fill-1" fill="#D2E7ED" mask="url(#mask-2)"></path>
                        </g>
                        <path d="M51.6053,29.344 C51.6053,37.575 44.9323,44.248 36.7013,44.248 C28.4693,44.248 21.7963,37.575 21.7963,29.344 C21.7963,21.113 28.4693,14.44 36.7013,14.44 C44.9323,14.44 51.6053,21.113 51.6053,29.344" id="Fill-4" fill="#FFFFFF"></path>
                        <path d="M51.6053,29.344 C51.6053,37.575 44.9323,44.248 36.7013,44.248 C28.4693,44.248 21.7963,37.575 21.7963,29.344 C21.7963,21.113 28.4693,14.44 36.7013,14.44 C44.9323,14.44 51.6053,21.113 51.6053,29.344 Z" id="Stroke-6" stroke="#BD8A39"></path>
                        <path d="M48.8573,29.2464 C48.8573,35.9594 43.4153,41.4024 36.7013,41.4024 C29.9873,41.4024 24.5453,35.9594 24.5453,29.2464 C24.5453,22.5324 29.9873,17.0894 36.7013,17.0894 C43.4153,17.0894 48.8573,22.5324 48.8573,29.2464" id="Fill-8" fill="#006DBB"></path>
                        <path d="M48.8573,29.2464 C48.8573,35.9594 43.4153,41.4024 36.7013,41.4024 C29.9873,41.4024 24.5453,35.9594 24.5453,29.2464 C24.5453,22.5324 29.9873,17.0894 36.7013,17.0894 C43.4153,17.0894 48.8573,22.5324 48.8573,29.2464 Z" id="Stroke-10" stroke="#BD8A39" stroke-width="0.816"></path>
                        <g id="Group-16" transform="translate(29.000000, 21.000000)">
                            <path d="M15.3495,8.2464 C15.3495,12.4704 11.9255,15.8944 7.7015,15.8944 C3.4775,15.8944 0.0525,12.4704 0.0525,8.2464 C0.0525,4.0214 3.4775,0.5984 7.7015,0.5984 C11.9255,0.5984 15.3495,4.0214 15.3495,8.2464" id="Fill-12" fill="#FFFFFF"></path>
                            <path d="M15.3495,8.2464 C15.3495,12.4704 11.9255,15.8944 7.7015,15.8944 C3.4775,15.8944 0.0525,12.4704 0.0525,8.2464 C0.0525,4.0214 3.4775,0.5984 7.7015,0.5984 C11.9255,0.5984 15.3495,4.0214 15.3495,8.2464 Z" id="Stroke-14" stroke="#231815" stroke-width="0.816"></path>
                        </g>
                        <path d="M27.6913,27.4905 C27.6913,27.4905 35.3513,20.6835 45.7123,34.6365" id="Stroke-17" stroke="#BD8A39"></path>
                        <path d="M308.9032,76.054 L308.9032,211.42 C308.9032,224.396 287.0172,234.915 260.0202,234.915 L52.1332,234.915 C45.0182,234.915 38.3362,234.043 32.5032,232.512 C29.3172,229.708 27.5042,226.496 27.5042,223.076 L27.5042,91.464 C27.5042,80.589 40.0322,64.215 56.5912,64.215 L284.2722,64.215 C291.3872,64.215 298.0702,65.087 303.9032,66.618 C307.0892,69.422 308.9032,72.634 308.9032,76.054" id="Fill-19" fill="#D0D2D3"></path>
                        <g id="Group-23" transform="translate(31.000000, 68.000000)">
                            <mask id="mask-4" fill="white">
                                <use xlink:href="#path-3"></use>
                            </mask>
                            <g id="Clip-22"></g>
                            <path d="M270.1454,179.0003 L29.0384,179.0003 C13.3994,179.0003 0.7204,166.3213 0.7204,150.6823 L0.7204,28.7663 C0.7204,13.1263 13.3994,0.4473 29.0384,0.4473 L270.1454,0.4473 C285.7854,0.4473 298.4634,13.1263 298.4634,28.7663 L298.4634,150.6823 C298.4634,166.3213 285.7854,179.0003 270.1454,179.0003" id="Fill-21" fill="#F8F6DE" mask="url(#mask-4)"></path>
                        </g>
                        <path d="M175.3465,198.135 L55.9545,198.135 C51.7445,198.135 48.3315,194.722 48.3315,190.512 C48.3315,186.302 51.7445,182.889 55.9545,182.889 L175.3465,182.889 C179.5565,182.889 182.9695,186.302 182.9695,190.512 C182.9695,194.722 179.5565,198.135 175.3465,198.135" id="Fill-24" fill="#FFFFFF"></path>
                        <path d="M225.5164,100.4964 L106.1254,100.4964 C101.9154,100.4964 98.5024,97.0834 98.5024,92.8734 C98.5024,88.6634 101.9154,85.2504 106.1254,85.2504 L225.5164,85.2504 C229.7274,85.2504 233.1394,88.6634 233.1394,92.8734 C233.1394,97.0834 229.7274,100.4964 225.5164,100.4964" id="Fill-26" fill="#6BA997"></path>
                        <path d="M309.9832,224.6214 L55.9552,224.6214 C51.7452,224.6214 48.3322,221.2084 48.3322,216.9984 C48.3322,212.7884 51.7452,209.3754 55.9552,209.3754 L309.9832,209.3754 C314.1932,209.3754 317.6062,212.7884 317.6062,216.9984 C317.6062,221.2084 314.1932,224.6214 309.9832,224.6214" id="Fill-28" fill="#D1E391"></path>
                        <g id="Group-32" transform="translate(333.000000, 140.000000)">
                            <mask id="mask-6" fill="white">
                                <use xlink:href="#path-5"></use>
                            </mask>
                            <g id="Clip-31"></g>
                            <path d="M25.9139,40.0061 L0.3609,14.4591 L14.2839,0.5391 L39.8369,26.0861 C43.6819,29.9301 43.6819,36.1621 39.8369,40.0061 C35.9919,43.8501 29.7589,43.8501 25.9139,40.0061" id="Fill-30" fill="#FFFFFF" mask="url(#mask-6)"></path>
                        </g>
                        <path d="M363.2518,175.6692 L337.6988,150.1222 L333.3608,154.4592 L358.9138,180.0062 C362.7588,183.8502 368.9918,183.8502 372.8368,180.0062 C373.5948,179.2482 374.1998,178.3982 374.6588,177.4912 C370.9658,179.3612 366.3388,178.7562 363.2518,175.6692" id="Fill-33" fill="#D0D2D3"></path>
                        <g id="Group-37" transform="translate(190.000000, 0.000000)">
                            <mask id="mask-8" fill="white">
                                <use xlink:href="#path-7"></use>
                            </mask>
                            <g id="Clip-36"></g>
                            <path d="M90.8709,163.7571 C75.0519,163.7571 60.4169,158.6781 48.5119,150.0581 C30.3659,136.9271 18.5629,115.5731 18.5629,91.4641 C18.5629,89.7461 18.6219,88.0401 18.7409,86.3501 C21.3679,48.8101 52.6549,19.1711 90.8709,19.1711 C130.8059,19.1711 163.1799,51.5381 163.1799,91.4641 C163.1799,131.3901 130.8059,163.7571 90.8709,163.7571 M90.8709,0.9261 C41.0509,0.9261 0.6299,41.1451 0.3179,90.8801 C0.3139,91.0731 0.3139,91.2711 0.3139,91.4641 C0.3139,119.5621 13.1159,144.6711 33.2059,161.2771 C48.8669,174.2221 68.9609,182.0021 90.8709,182.0021 C140.8859,182.0021 181.4289,141.4681 181.4289,91.4641 C181.4289,41.4601 140.8859,0.9261 90.8709,0.9261" id="Fill-35" fill="#FFFFFF" mask="url(#mask-8)"></path>
                        </g>
                        <path d="M280.8709,163.7591 C240.9349,163.7591 208.5609,131.3911 208.5609,91.4641 C208.5609,51.5371 240.9349,19.1691 280.8709,19.1691 C320.8079,19.1691 353.1819,51.5371 353.1819,91.4641 C353.1819,131.3911 320.8079,163.7591 280.8709,163.7591 M280.8709,10.4041 C236.0929,10.4041 199.7929,46.6961 199.7929,91.4641 C199.7929,136.2331 236.0929,172.5251 280.8709,172.5251 C325.6499,172.5251 361.9499,136.2331 361.9499,91.4641 C361.9499,46.6961 325.6499,10.4041 280.8709,10.4041" id="Fill-38" fill="#D0D2D3"></path>
                        <path d="M244.1366,118.681 C234.4886,119.513 226.2726,125.38 222.1436,133.645 C227.9906,141.769 235.4866,148.626 244.1366,153.739 L244.1366,118.681 Z" id="Fill-40" fill="#6BA997"></path>
                        <path d="M317.6063,118.6819 L317.6063,153.7399 C326.2533,148.6289 333.7473,141.7739 339.5913,133.6529 C335.4633,125.3839 327.2533,119.5179 317.6063,118.6819" id="Fill-42" fill="#6BA997"></path>
                    </g>
                    <g id="Group-141" transform="translate(208.000000, 19.073000)">
                        <g id="Group-47">
                            <mask id="mask-10" fill="white">
                                <use xlink:href="#path-9"></use>
                            </mask>
                            <g id="Clip-46"></g>
                            <path d="M133.0497,128.6604 L133.0497,148.8134 C130.4007,151.8934 127.5217,154.7724 124.4407,157.4244 C124.4177,157.4444 124.3947,157.4654 124.3717,157.4844 C121.2387,160.1744 117.8977,162.6334 114.3757,164.8304 C113.5567,165.3424 112.7257,165.8404 111.8857,166.3234 C111.8827,166.3264 111.8797,166.3264 111.8737,166.3294 C110.3207,167.2234 108.7367,168.0684 107.1187,168.8594 L107.1157,168.8594 C100.5377,172.0844 93.4657,174.4424 86.0387,175.7944 C84.1657,176.1374 82.2737,176.4124 80.3577,176.6224 C79.6177,176.7034 78.8797,176.7754 78.1347,176.8354 C75.9567,177.0164 73.7537,177.1084 71.5297,177.1144 L71.1797,177.1144 C68.9707,177.1084 66.7807,177.0164 64.6177,176.8384 C64.6107,176.8384 64.5987,176.8384 64.5867,176.8354 C63.8417,176.7754 63.1027,176.7034 62.3627,176.6224 C60.4247,176.4104 58.5087,176.1314 56.6127,175.7824 C49.2097,174.4284 42.1567,172.0724 35.6017,168.8594 C33.9827,168.0664 32.3917,167.2214 30.8357,166.3264 C29.9957,165.8404 29.1647,165.3424 28.3447,164.8304 C24.7987,162.6184 21.4357,160.1394 18.2797,157.4244 C15.1997,154.7724 12.3207,151.8934 9.6717,148.8134 L9.6717,126.3054 C9.6717,120.3684 11.5707,114.8774 14.7917,110.3994 C19.7417,103.5224 27.8187,99.0414 36.9397,99.0414 L105.7737,99.0414 C107.1217,99.0414 108.4477,99.1394 109.7447,99.3294 C117.2177,100.4194 123.7067,104.5404 127.9237,110.4074 C131.1427,114.8804 133.0347,120.3714 133.0347,126.3054 L133.0347,128.6604 L133.0497,128.6604 Z" id="Fill-45" fill="#6BA997" mask="url(#mask-10)"></path>
                        </g>
                        <g id="Group-50">
                            <mask id="mask-12" fill="white">
                                <use xlink:href="#path-11"></use>
                            </mask>
                            <g id="Clip-49"></g>
                            <path d="M30.8358,133.722 L30.8358,166.326 C29.9958,165.84 29.1648,165.342 28.3448,164.83 C24.7988,162.618 21.4358,160.14 18.2798,157.424 C15.1998,154.773 12.3198,151.894 9.6718,148.814 L9.6718,133.722 L30.8358,133.722 Z" id="Fill-48" fill="#FFFFFF" mask="url(#mask-12)"></path>
                        </g>
                        <g id="Group-53">
                            <mask id="mask-14" fill="white">
                                <use xlink:href="#path-13"></use>
                            </mask>
                            <g id="Clip-52"></g>
                            <path d="M133.0497,133.722 L133.0497,148.814 C130.4007,151.894 127.5217,154.773 124.4407,157.424 C124.4177,157.445 124.3947,157.465 124.3717,157.485 C121.2387,160.174 117.8977,162.633 114.3757,164.83 C113.5567,165.342 112.7257,165.84 111.8857,166.324 L111.8857,133.722 L133.0497,133.722 Z" id="Fill-51" fill="#FFFFFF" mask="url(#mask-14)"></path>
                        </g>
                        <g id="Group-56">
                            <mask id="mask-16" fill="white">
                                <use xlink:href="#path-15"></use>
                            </mask>
                            <g id="Clip-55"></g>
                            <path d="M36.7157,63.6067 L36.7157,63.6067 C33.4947,63.6067 30.8847,60.9967 30.8847,57.7757 L30.8847,48.8877 C30.8847,45.6677 33.4947,43.0567 36.7157,43.0567 C39.9367,43.0567 42.5467,45.6677 42.5467,48.8877 L42.5467,57.7757 C42.5467,60.9967 39.9367,63.6067 36.7157,63.6067" id="Fill-54" fill="#FFFFFF" mask="url(#mask-16)"></path>
                        </g>
                        <g id="Group-59">
                            <mask id="mask-18" fill="white">
                                <use xlink:href="#path-17"></use>
                            </mask>
                            <g id="Clip-58"></g>
                            <path d="M36.7157,60.8606 L36.7157,60.8606 C33.4947,60.8606 30.8847,58.2506 30.8847,55.0296 L30.8847,57.7766 C30.8847,60.9966 33.4947,63.6066 36.7157,63.6066 C39.9367,63.6066 42.5467,60.9966 42.5467,57.7766 L42.5467,55.0296 C42.5467,58.2506 39.9367,60.8606 36.7157,60.8606" id="Fill-57" fill="#D0D2D3" mask="url(#mask-18)"></path>
                        </g>
                        <g id="Group-62">
                            <mask id="mask-20" fill="white">
                                <use xlink:href="#path-19"></use>
                            </mask>
                            <g id="Clip-61"></g>
                            <path d="M106.0057,63.6067 L106.0047,63.6067 C102.7847,63.6067 100.1737,60.9967 100.1737,57.7757 L100.1737,48.8877 C100.1737,45.6677 102.7847,43.0567 106.0047,43.0567 L106.0057,43.0567 C109.2267,43.0567 111.8367,45.6677 111.8367,48.8877 L111.8367,57.7757 C111.8367,60.9967 109.2267,63.6067 106.0057,63.6067" id="Fill-60" fill="#FFFFFF" mask="url(#mask-20)"></path>
                        </g>
                        <g id="Group-65">
                            <mask id="mask-22" fill="white">
                                <use xlink:href="#path-21"></use>
                            </mask>
                            <g id="Clip-64"></g>
                            <path d="M106.0057,60.8606 L106.0057,60.8606 C102.7847,60.8606 100.1737,58.2506 100.1737,55.0296 L100.1737,57.7766 C100.1737,60.9966 102.7847,63.6066 106.0057,63.6066 C109.2267,63.6066 111.8367,60.9966 111.8367,57.7766 L111.8367,55.0296 C111.8367,58.2506 109.2267,60.8606 106.0057,60.8606" id="Fill-63" fill="#D0D2D3" mask="url(#mask-22)"></path>
                        </g>
                        <g id="Group-68">
                            <mask id="mask-24" fill="white">
                                <use xlink:href="#path-23"></use>
                            </mask>
                            <g id="Clip-67"></g>
                            <path d="M57.7899,80.6145 L57.7899,99.0405 L57.7799,99.0405 L57.7829,99.0445 C64.6149,108.0025 78.1009,108.0015 84.9309,99.0405 L84.9319,99.0405 L84.9319,80.6145 L57.7899,80.6145 Z" id="Fill-66" fill="#FFFFFF" mask="url(#mask-24)"></path>
                        </g>
                        <g id="Group-71">
                            <mask id="mask-26" fill="white">
                                <use xlink:href="#path-25"></use>
                            </mask>
                            <g id="Clip-70"></g>
                            <path d="M37.2245,40.7356 C38.3535,34.9366 40.9225,29.6526 44.5495,25.2736 C45.5965,24.0026 46.7365,22.8126 47.9535,21.7046 C54.1315,16.0756 62.3445,12.6486 71.3605,12.6486 C71.7605,12.6486 72.1635,12.6556 72.5645,12.6726 C72.6995,12.6726 72.8345,12.6786 72.9675,12.6856 C81.9355,13.0926 90.0125,16.8916 95.9575,22.8376 C101.2525,28.1316 104.8485,35.1296 105.8555,42.9386 C106.0455,44.4096 106.1435,45.9076 106.1435,47.4286 L106.1435,54.3166 C106.1435,73.5266 90.5725,89.0966 71.3605,89.0966 C52.1525,89.0966 36.5785,73.5266 36.5785,54.3166 L36.5785,47.4286 C36.5785,45.9516 36.6685,44.4976 36.8485,43.0706 L37.2245,40.7356 Z" id="Fill-69" fill="#FFFFFF" mask="url(#mask-26)"></path>
                        </g>
                        <g id="Group-74">
                            <mask id="mask-28" fill="white">
                                <use xlink:href="#path-27"></use>
                            </mask>
                            <g id="Clip-73"></g>
                            <path d="M71.3602,83.6038 C52.1522,83.6038 36.5772,68.0338 36.5772,48.8238 L36.5772,54.3168 C36.5772,73.5268 52.1522,89.0968 71.3602,89.0968 C90.5722,89.0968 106.1432,73.5268 106.1432,54.3168 L106.1432,48.8238 C106.1432,68.0338 90.5722,83.6038 71.3602,83.6038" id="Fill-72" fill="#D0D2D3" mask="url(#mask-28)"></path>
                        </g>
                        <g id="Group-77">
                            <mask id="mask-30" fill="white">
                                <use xlink:href="#path-29"></use>
                            </mask>
                            <g id="Clip-76"></g>
                            <path d="M37.2245,40.7356 L40.5465,40.7356 L40.5465,57.4036 C40.5465,58.4906 39.7065,59.4366 38.6205,59.4666 C37.4955,59.4986 36.5775,58.5986 36.5775,57.4856 L36.5775,45.4946 C36.5775,43.8856 36.7955,42.2856 37.2245,40.7356" id="Fill-75" fill="#4B6084" mask="url(#mask-30)"></path>
                        </g>
                        <g id="Group-80">
                            <mask id="mask-32" fill="white">
                                <use xlink:href="#path-31"></use>
                            </mask>
                            <g id="Clip-79"></g>
                            <path d="M106.1434,45.2337 L106.1434,57.4147 C106.1434,58.4237 105.4184,59.3237 104.4174,59.4517 C103.2064,59.6057 102.1744,58.6657 102.1744,57.4857 L102.1744,40.7357 L105.4984,40.7357 C105.9264,42.1967 106.1434,43.7117 106.1434,45.2337" id="Fill-78" fill="#4B6084" mask="url(#mask-32)"></path>
                        </g>
                        <g id="Group-83">
                            <mask id="mask-34" fill="white">
                                <use xlink:href="#path-33"></use>
                            </mask>
                            <g id="Clip-82"></g>
                            <path d="M72.5643,12.6722 C69.0453,18.1632 60.3243,30.0322 46.2003,38.3802 C42.8003,40.3862 39.6783,41.9182 36.8483,43.0702 C36.8523,43.0682 36.8523,43.0612 36.8523,43.0572 C37.6923,36.3462 40.4453,30.2292 44.5493,25.2742 C45.5963,24.0022 46.7363,22.8132 47.9533,21.7042 C54.1313,16.0752 62.3443,12.6492 71.3603,12.6492 C71.7603,12.6492 72.1643,12.6552 72.5643,12.6722" id="Fill-81" fill="#4B6084" mask="url(#mask-34)"></path>
                        </g>
                        <g id="Group-86">
                            <mask id="mask-36" fill="white">
                                <use xlink:href="#path-35"></use>
                            </mask>
                            <g id="Clip-85"></g>
                            <path d="M105.8553,42.9388 C101.1203,44.3728 91.7893,45.7248 76.9703,41.8508 C61.9853,37.9358 50.6133,30.1708 44.5493,25.2738 C45.5963,24.0018 46.7363,22.8128 47.9533,21.7048 C54.1313,16.0758 62.3443,12.6488 71.3603,12.6488 C71.8963,12.6488 72.4353,12.6588 72.9673,12.6858 C81.9353,13.0928 90.0133,16.8918 95.9583,22.8368 C101.2523,28.1308 104.8483,35.1288 105.8553,42.9388" id="Fill-84" fill="#808F91" mask="url(#mask-36)"></path>
                        </g>
                        <g id="Group-89">
                            <mask id="mask-38" fill="white">
                                <use xlink:href="#path-37"></use>
                            </mask>
                            <g id="Clip-88"></g>
                            <path d="M76.9706,21.5149 C70.4086,19.8009 64.5396,17.3479 59.5056,14.7219 C55.1946,16.2849 51.2786,18.6749 47.9526,21.7039 C46.7366,22.8129 45.5966,24.0019 44.5496,25.2739 C50.6136,30.1709 61.9856,37.9359 76.9706,41.8509 C91.7886,45.7249 101.1196,44.3719 105.8556,42.9389 C104.9206,35.6879 101.7506,29.1379 97.0646,23.9999 C92.0256,24.2279 85.3836,23.7139 76.9706,21.5149" id="Fill-87" fill="#4B6084" mask="url(#mask-38)"></path>
                        </g>
                        <g id="Group-92">
                            <mask id="mask-40" fill="white">
                                <use xlink:href="#path-39"></use>
                            </mask>
                            <g id="Clip-91"></g>
                            <path d="M76.9706,28.2933 C67.3896,25.7903 59.2886,21.7143 53.1056,17.8193 C51.2676,18.9553 49.5416,20.2563 47.9526,21.7043 C46.7366,22.8133 45.5966,24.0023 44.5496,25.2733 C50.6136,30.1713 61.9856,37.9363 76.9706,41.8513 C91.7886,45.7253 101.1196,44.3723 105.8556,42.9393 C105.2706,38.4013 103.8066,34.1413 101.6486,30.3253 C96.3336,31.1623 88.2406,31.2393 76.9706,28.2933" id="Fill-90" fill="#808F91" mask="url(#mask-40)"></path>
                        </g>
                        <g id="Group-95">
                            <mask id="mask-42" fill="white">
                                <use xlink:href="#path-41"></use>
                            </mask>
                            <g id="Clip-94"></g>
                            <path d="M76.9706,35.0716 C64.6766,31.8606 54.8186,26.0586 48.3246,21.3746 C48.1996,21.4836 48.0746,21.5926 47.9526,21.7046 C46.7366,22.8126 45.5966,24.0026 44.5496,25.2736 C50.6136,30.1716 61.9856,37.9356 76.9706,41.8506 C91.7886,45.7246 101.1196,44.3726 105.8556,42.9386 C105.5726,40.7396 105.0756,38.6076 104.4026,36.5566 C99.3236,37.8006 90.4006,38.5836 76.9706,35.0716" id="Fill-93" fill="#4B6084" mask="url(#mask-42)"></path>
                        </g>
                        <g id="Group-98">
                            <mask id="mask-44" fill="white">
                                <use xlink:href="#path-43"></use>
                            </mask>
                            <g id="Clip-97"></g>
                            <path d="M71.3612,65.8372 L71.3602,65.8372 C69.2392,65.8372 67.5182,64.1162 67.5182,61.9952 L67.5182,56.9412 C67.5182,54.8192 69.2392,53.0992 71.3602,53.0992 L71.3612,53.0992 C73.4822,53.0992 75.2032,54.8192 75.2032,56.9412 L75.2032,61.9952 C75.2032,64.1162 73.4822,65.8372 71.3612,65.8372" id="Fill-96" fill="#A62873" mask="url(#mask-44)"></path>
                        </g>
                        <g id="Group-101">
                            <mask id="mask-46" fill="white">
                                <use xlink:href="#path-45"></use>
                            </mask>
                            <g id="Clip-100"></g>
                            <path d="M58.1414,50.1019 C58.1414,51.7239 56.8264,53.0399 55.2034,53.0399 C53.5814,53.0399 52.2664,51.7239 52.2664,50.1019 C52.2664,48.4799 53.5814,47.1639 55.2034,47.1639 C56.8264,47.1639 58.1414,48.4799 58.1414,50.1019" id="Fill-99" fill="#A62873" mask="url(#mask-46)"></path>
                        </g>
                        <g id="Group-104">
                            <mask id="mask-48" fill="white">
                                <use xlink:href="#path-47"></use>
                            </mask>
                            <g id="Clip-103"></g>
                            <path d="M90.4549,50.1019 C90.4549,51.7239 89.1399,53.0399 87.5169,53.0399 C85.8939,53.0399 84.5799,51.7239 84.5799,50.1019 C84.5799,48.4799 85.8939,47.1639 87.5169,47.1639 C89.1399,47.1639 90.4549,48.4799 90.4549,50.1019" id="Fill-102" fill="#A62873" mask="url(#mask-48)"></path>
                        </g>
                        <g id="Group-107">
                            <mask id="mask-50" fill="white">
                                <use xlink:href="#path-49"></use>
                            </mask>
                            <g id="Clip-106"></g>
                            <path d="M71.3602,76.1224 C67.6072,76.1224 64.0772,74.6584 61.4192,72.0014 C61.0692,71.6514 61.0692,71.0854 61.4192,70.7344 C61.7682,70.3854 62.3372,70.3854 62.6862,70.7344 C65.0062,73.0544 68.0862,74.3304 71.3602,74.3304 C74.6352,74.3304 77.7152,73.0544 80.0352,70.7344 C80.3842,70.3854 80.9522,70.3854 81.3012,70.7344 C81.6522,71.0854 81.6522,71.6514 81.3012,72.0014 C78.6442,74.6584 75.1142,76.1224 71.3602,76.1224" id="Fill-105" fill="#A62873" mask="url(#mask-50)"></path>
                        </g>
                        <g id="Group-110">
                            <mask id="mask-52" fill="white">
                                <use xlink:href="#path-51"></use>
                            </mask>
                            <g id="Clip-109"></g>
                            <polygon id="Fill-108" fill="#F23E23" mask="url(#mask-52)" points="71.3602 173.055 71.3442 173.074 71.3502 173.093 71.3612 173.056"></polygon>
                        </g>
                        <g id="Group-113">
                            <mask id="mask-54" fill="white">
                                <use xlink:href="#path-53"></use>
                            </mask>
                            <g id="Clip-112"></g>
                            <path d="M101.8358,111.4827 C102.3338,114.9777 101.6148,112.1527 101.8358,111.4807 C97.3518,106.2167 91.6358,102.1507 84.9318,99.0417 C84.9308,99.0417 84.9308,99.0427 84.9308,99.0427 C78.0998,108.0017 64.6148,108.0027 57.7828,99.0447 L57.7808,99.0417 C43.6468,105.5957 33.8968,116.4077 30.8358,133.7217 L30.8358,166.3267 C32.3918,167.2207 33.9818,168.0667 35.6018,168.8597 C42.1568,172.0727 49.2098,174.4277 56.6128,175.7837 C58.5088,176.1307 60.4248,176.4097 62.3628,176.6237 C63.1028,176.7037 63.8418,176.7757 64.5868,176.8357 C64.5988,176.8377 64.6098,176.8377 64.6178,176.8377 L69.6638,177.0477 L71.1798,177.1087 L71.1798,177.1237 L71.2048,177.1237 L71.3568,177.1147 L71.3598,177.1147 L71.5078,177.1237 L71.5298,177.1237 L71.5298,177.1087 L73.0578,177.0457 L78.1348,176.8357 C78.8798,176.7757 79.6178,176.7037 80.3568,176.6237 C82.2738,176.4137 84.1658,176.1367 86.0388,175.7947 C93.4658,174.4427 100.5378,172.0847 107.1158,168.8597 L107.1188,168.8597 C108.7358,168.0687 110.3198,167.2237 111.8738,166.3297 L111.8738,133.7217 C110.2668,124.6197 106.8068,117.3167 101.8358,111.4827" id="Fill-111" fill="#D1E391" mask="url(#mask-54)"></path>
                        </g>
                        <g id="Group-116">
                            <mask id="mask-56" fill="white">
                                <use xlink:href="#path-55"></use>
                            </mask>
                            <g id="Clip-115"></g>
                            <path d="M111.8856,166.3235 L111.8736,140.8235 L111.8706,133.7215 L107.1186,168.8595 C108.7366,168.0685 110.3206,167.2235 111.8736,166.3295 L111.8856,166.3235 Z" id="Fill-114" fill="#0E6DA0" mask="url(#mask-56)"></path>
                        </g>
                        <g id="Group-119">
                            <mask id="mask-58" fill="white">
                                <use xlink:href="#path-57"></use>
                            </mask>
                            <g id="Clip-118"></g>
                            <path d="M35.6014,168.8596 C33.9824,168.0666 32.3914,167.2206 30.8354,166.3266 L30.8354,133.7216 L35.6014,168.8596 Z" id="Fill-117" fill="#0E6DA0" mask="url(#mask-58)"></path>
                        </g>
                        <g id="Group-122">
                            <mask id="mask-60" fill="white">
                                <use xlink:href="#path-59"></use>
                            </mask>
                            <g id="Clip-121"></g>
                            <path d="M84.9305,99.0413 C78.0995,108.0013 64.6155,108.0023 57.7835,99.0443 L57.7805,99.0413 L52.1335,99.0413 C54.8955,105.3883 62.4575,109.9453 71.3605,109.9453 C80.2635,109.9453 87.8255,105.3883 90.5865,99.0413 L84.9305,99.0413 Z" id="Fill-120" fill="#0E6DA0" mask="url(#mask-60)"></path>
                        </g>
                        <g id="Group-125">
                            <mask id="mask-62" fill="white">
                                <use xlink:href="#path-61"></use>
                            </mask>
                            <g id="Clip-124"></g>
                            <path d="M111.0526,28.178 L31.6686,28.178 C29.4546,28.178 27.6596,29.973 27.6596,32.186 C27.6596,34.4 29.4546,36.195 31.6686,36.195 L111.0526,36.195 C113.2656,36.195 115.0606,34.4 115.0606,32.186 C115.0606,29.973 113.2656,28.178 111.0526,28.178" id="Fill-123" fill="#E7AD26" mask="url(#mask-62)"></path>
                        </g>
                        <g id="Group-128">
                            <mask id="mask-64" fill="white">
                                <use xlink:href="#path-63"></use>
                            </mask>
                            <g id="Clip-127"></g>
                            <path d="M106.492,28.178 L36.228,28.178 C36.228,26.335 36.405,24.537 36.749,22.794 C36.852,22.241 36.977,21.689 37.119,21.146 C37.677,18.984 38.487,16.925 39.52,14.999 C39.818,14.438 40.137,13.887 40.472,13.35 C41.907,11.057 43.664,8.985 45.677,7.204 C46.335,6.618 47.017,6.068 47.727,5.555 C52.356,2.167 58.062,0.171 64.232,0.171 L78.488,0.171 C84.662,0.171 90.368,2.17 94.993,5.555 C95.703,6.072 96.386,6.618 97.041,7.204 C97.467,7.578 97.883,7.97 98.288,8.375 C99.788,9.875 101.118,11.541 102.244,13.35 C102.584,13.887 102.902,14.438 103.2,14.999 C104.233,16.925 105.044,18.984 105.601,21.146 C105.743,21.689 105.868,22.241 105.972,22.794 C106.315,24.537 106.492,26.335 106.492,28.178" id="Fill-126" fill="#FDDD39" mask="url(#mask-64)"></path>
                        </g>
                        <g id="Group-131">
                            <mask id="mask-66" fill="white">
                                <use xlink:href="#path-65"></use>
                            </mask>
                            <g id="Clip-130"></g>
                            <path d="M94.993,5.555 L47.727,5.555 C47.017,6.068 46.335,6.618 45.677,7.204 L97.041,7.204 C96.386,6.618 95.703,6.072 94.993,5.555 M102.244,13.35 L40.472,13.35 C40.137,13.887 39.818,14.438 39.52,14.999 L103.2,14.999 C102.902,14.438 102.584,13.887 102.244,13.35 M105.601,21.146 L37.119,21.146 C36.977,21.689 36.852,22.241 36.749,22.794 L105.972,22.794 C105.868,22.241 105.743,21.689 105.601,21.146" id="Fill-129" fill="#FFF234" mask="url(#mask-66)"></path>
                        </g>
                        <g id="Group-134">
                            <mask id="mask-68" fill="white">
                                <use xlink:href="#path-67"></use>
                            </mask>
                            <g id="Clip-133"></g>
                            <path d="M111.0526,28.178 L31.6686,28.178 C29.4546,28.178 27.6596,29.973 27.6596,32.186 C27.6596,34.4 29.4546,36.195 31.6686,36.195 L111.0526,36.195 C113.2656,36.195 115.0606,34.4 115.0606,32.186 C115.0606,29.973 113.2656,28.178 111.0526,28.178" id="Fill-132" fill="#E7AD26" mask="url(#mask-68)"></path>
                        </g>
                        <g id="Group-137">
                            <mask id="mask-70" fill="white">
                                <use xlink:href="#path-69"></use>
                            </mask>
                            <g id="Clip-136"></g>
                            <path d="M106.492,28.178 L36.228,28.178 C36.228,26.335 36.405,24.537 36.749,22.794 C36.852,22.241 36.977,21.689 37.119,21.146 C37.677,18.984 38.487,16.925 39.52,14.999 C39.818,14.438 40.137,13.887 40.472,13.35 C41.907,11.057 43.664,8.985 45.677,7.204 C46.335,6.618 47.017,6.068 47.727,5.555 C52.356,2.167 58.062,0.171 64.232,0.171 L78.488,0.171 C84.662,0.171 90.368,2.17 94.993,5.555 C95.703,6.072 96.386,6.618 97.041,7.204 C97.467,7.578 97.883,7.97 98.288,8.375 C99.788,9.875 101.118,11.541 102.244,13.35 C102.584,13.887 102.902,14.438 103.2,14.999 C104.233,16.925 105.044,18.984 105.601,21.146 C105.743,21.689 105.868,22.241 105.972,22.794 C106.315,24.537 106.492,26.335 106.492,28.178" id="Fill-135" fill="#FDDD39" mask="url(#mask-70)"></path>
                        </g>
                        <g id="Group-140">
                            <mask id="mask-72" fill="white">
                                <use xlink:href="#path-71"></use>
                            </mask>
                            <g id="Clip-139"></g>
                            <path d="M94.993,5.555 L47.727,5.555 C47.017,6.068 46.335,6.618 45.677,7.204 L97.041,7.204 C96.386,6.618 95.703,6.072 94.993,5.555 M102.244,13.35 L40.472,13.35 C40.137,13.887 39.818,14.438 39.52,14.999 L103.2,14.999 C102.902,14.438 102.584,13.887 102.244,13.35 M105.601,21.146 L37.119,21.146 C36.977,21.689 36.852,22.241 36.749,22.794 L105.972,22.794 C105.868,22.241 105.743,21.689 105.601,21.146" id="Fill-138" fill="#FFF234" mask="url(#mask-72)"></path>
                        </g>
                    </g>
                    <g id="Group-155" transform="translate(0.000000, 0.073000)">
                        <path d="M280.8651,163.8186 C280.3861,170.1666 278.3631,176.3726 274.8911,181.8296 C248.8931,179.9296 223.9091,166.8806 207.6271,143.9776 C207.5141,143.8196 207.4001,143.6596 207.2921,143.4996 C210.0481,137.9896 214.1621,133.0546 219.5361,129.2356 C219.5841,129.2016 219.6331,129.1676 219.6821,129.1356 C220.5651,130.5826 221.5061,132.0066 222.5021,133.4076 C236.4721,153.0586 258.4661,163.6266 280.8651,163.8186" id="Fill-142" fill="#D0D2D3"></path>
                        <path d="M279.3602,163.7522 C279.3602,185.2312 261.9452,202.6432 240.4622,202.6432 C218.9782,202.6432 201.5622,185.2312 201.5622,163.7522 C201.5622,142.2732 218.9782,124.8612 240.4622,124.8612 C261.9452,124.8612 279.3602,142.2732 279.3602,163.7522" id="Fill-144" fill="#427E7C"></path>
                        <path d="M272.5301,163.7522 C272.5301,181.4602 258.1731,195.8152 240.4621,195.8152 C222.7501,195.8152 208.3921,181.4602 208.3921,163.7522 C208.3921,146.0452 222.7501,131.6902 240.4621,131.6902 C258.1731,131.6902 272.5301,146.0452 272.5301,163.7522" id="Fill-146" fill="#F0CA67"></path>
                        <path d="M240.4618,134.2874 C257.7368,134.2874 271.8158,147.9464 272.4978,165.0514 C272.5148,164.6194 272.5298,164.1874 272.5298,163.7524 C272.5298,146.0454 258.1728,131.6904 240.4618,131.6904 C222.7508,131.6904 208.3928,146.0454 208.3928,163.7524 C208.3928,164.1874 208.4078,164.6194 208.4258,165.0514 C209.1078,147.9464 223.1868,134.2874 240.4618,134.2874" id="Fill-148" fill="#FFFFFF"></path>
                        <polygon id="Fill-150" fill="#FFFFFF" points="233.6112 182.3577 217.7962 166.5447 223.3822 160.9607 233.6112 171.1867 255.2372 149.5657 260.8242 155.1507"></polygon>
                        <mask id="mask-74" fill="white">
                            <use xlink:href="#path-73"></use>
                        </mask>
                        <g id="Clip-153"></g>
                        <polygon id="Fill-152" fill="#DD0816" mask="url(#mask-74)" points="48.332 105.147 87.955 105.147 87.955 80.6 48.332 80.6"></polygon>
                        <polygon id="Fill-154" fill="#1F286F" mask="url(#mask-74)" points="48.332 91.475 61.504 91.475 61.504 80.6 48.332 80.6"></polygon>
                    </g>
                </g>
                <path d="M82.6621181,158.392 C84.6461181,158.392 85.6381181,157.336 85.6381181,155.224 L85.6381181,148.696 C87.8781181,146.616 89.7341181,144.184 91.2701181,141.4 L88.4221181,139.608 C87.7821181,141.272 86.8541181,142.84 85.6381181,144.344 L85.6381181,131.096 L76.7101181,131.096 C77.0301181,130.392 77.2861181,129.656 77.4781181,128.888 L73.9581181,128.408 C73.7661181,129.336 73.5101181,130.232 73.1901181,131.096 L66.6621181,131.096 L66.6621181,146.84 L62.7581181,146.936 L63.2701181,150.072 C70.7581181,149.688 76.5821181,149.304 80.7421181,148.888 C77.1581181,151.48 71.3341181,153.464 63.2701181,154.872 L64.7741181,157.88 C71.0461181,156.792 76.4221181,154.936 80.9021181,152.28 C81.3821181,151.96 81.8621181,151.672 82.3421181,151.352 L82.3421181,154.488 C82.3421181,155.064 82.0861181,155.384 81.6061181,155.384 L78.4061181,155.224 L79.2381181,158.392 L82.6621181,158.392 Z M82.3421181,136.184 L69.9901181,136.184 L69.9901181,134.04 L82.3421181,134.04 L82.3421181,136.184 Z M82.3421181,141.016 L69.9901181,141.016 L69.9901181,138.968 L82.3421181,138.968 L82.3421181,141.016 Z M69.9901181,146.712 L69.9901181,143.832 L82.3421181,143.832 L82.3421181,145.848 C79.0141181,146.232 74.8861181,146.52 69.9901181,146.712 Z M108.999373,158.392 L108.999373,136.824 C110.279373,134.648 111.303373,132.344 112.103373,129.944 L109.063373,128.536 C107.463373,133.432 105.031373,137.688 101.767373,141.304 L102.855373,144.824 C103.815373,143.8 104.743373,142.776 105.607373,141.752 L105.607373,158.392 L108.999373,158.392 Z M113.287373,158.296 C117.383373,154.392 119.463373,149.912 119.463373,144.792 L119.463373,144.12 L124.583373,144.12 C124.519373,149.112 124.423373,152.024 124.231373,152.856 C124.071373,154.136 123.495373,154.808 122.471373,154.808 C121.447373,154.808 120.231373,154.744 118.823373,154.616 L119.623373,157.752 C121.223373,157.848 122.375373,157.912 123.047373,157.912 C125.607373,157.912 127.047373,156.76 127.367373,154.488 C127.687373,152.792 127.847373,148.376 127.847373,141.208 C128.423373,141.912 129.095373,142.584 129.863373,143.256 L131.847373,140.504 C128.807373,137.816 126.695373,134.2 125.511373,129.688 L119.911373,129.688 L119.911373,132.76 L123.015373,132.76 C124.103373,135.896 125.607373,138.584 127.527373,140.856 L113.639373,140.856 C115.943373,137.848 117.543373,134.36 118.503373,130.36 L115.303373,129.592 C114.279373,133.88 112.295373,137.528 109.383373,140.472 L111.527373,143.256 C112.071373,142.68 112.615373,142.104 113.127373,141.464 L113.127373,144.12 L116.103373,144.12 L116.103373,144.792 C116.103373,148.952 114.215373,152.664 110.471373,155.896 L113.287373,158.296 Z M153.384627,135.32 L153.384627,132.216 L149.448627,132.216 C149.192627,131.128 148.808627,129.944 148.360627,128.6 L145.192627,129.464 C145.576627,130.36 145.960627,131.288 146.280627,132.216 L142.696627,132.216 L142.696627,135.32 L153.384627,135.32 Z M154.600627,142.552 C156.072627,141.592 157.352627,140.472 158.472627,139.128 L158.472627,140.6 L166.888627,140.6 L166.888627,138.616 C167.816627,139.896 168.904627,141.112 170.152627,142.232 L172.200627,139.864 C171.176627,139.032 170.248627,138.104 169.384627,137.08 C170.408627,136.184 171.336627,135.224 172.136627,134.136 L169.992627,132.248 C169.352627,133.208 168.616627,134.072 167.784627,134.872 C167.496627,134.392 167.240627,133.912 166.984627,133.432 C168.072627,132.6 169.000627,131.672 169.832627,130.616 L167.688627,128.728 C167.176627,129.496 166.568627,130.232 165.864627,130.936 C165.608627,130.232 165.352627,129.528 165.160627,128.792 L162.792627,130.104 C163.592627,132.888 164.744627,135.416 166.248627,137.72 L159.528627,137.72 C160.616627,136.056 161.416627,134.136 161.992627,131.96 L161.992627,129.624 L154.728627,129.624 L154.728627,132.44 L159.208627,132.44 C158.856627,133.368 158.408627,134.264 157.896627,135.128 C157.256627,134.488 156.584627,133.88 155.816627,133.272 L153.800627,135.192 C154.728627,135.896 155.528627,136.568 156.232627,137.272 C155.208627,138.328 154.024627,139.256 152.680627,140.056 L154.600627,142.552 Z M152.392627,140.088 L152.392627,137.144 L143.496627,137.144 L143.496627,140.088 L152.392627,140.088 Z M152.392627,144.632 L152.392627,141.688 L143.496627,141.688 L143.496627,144.632 L152.392627,144.632 Z M169.544627,151 L169.544627,142.808 L155.400627,142.808 L155.400627,151 L169.544627,151 Z M166.408627,148.248 L158.536627,148.248 L158.536627,145.528 L166.408627,145.528 L166.408627,148.248 Z M146.472627,158.232 L146.472627,156.568 L149.416627,156.568 L149.416627,157.816 L152.584627,157.816 L152.584627,146.456 L143.272627,146.456 L143.272627,158.232 L146.472627,158.232 Z M149.416627,153.496 L146.472627,153.496 L146.472627,149.496 L149.416627,149.496 L149.416627,153.496 Z M171.368627,157.816 L171.368627,154.84 L167.336627,154.84 C167.848627,154.072 168.360627,153.24 168.808627,152.312 L165.832627,151.256 C165.320627,152.504 164.712627,153.688 164.072627,154.84 L161.224627,154.84 C160.648627,153.464 160.040627,152.248 159.368627,151.224 L156.392627,152.344 C156.968627,153.112 157.512627,153.944 157.992627,154.84 L153.864627,154.84 L153.864627,157.816 L171.368627,157.816 Z" id="身份證" fill="#317593" fill-rule="nonzero"></path>
                <path d="M82.0941181,46.424 L82.0941181,45.112 L94.1901181,45.112 L94.1901181,46.424 L97.3581181,46.424 L97.3581181,35.224 L89.5181181,35.224 L89.5181181,32.216 L99.5021181,32.216 L99.5021181,29.176 L89.5181181,29.176 L89.5181181,26.264 L98.2541181,26.264 L98.2541181,17.72 L73.8061181,17.72 L73.8061181,28.824 C73.7741181,35.032 72.6861181,40.12 70.5421181,44.056 L73.1661181,46.424 C75.3101181,42.36 76.5901181,37.624 76.9741181,32.216 L86.2861181,32.216 L86.2861181,35.224 L78.8941181,35.224 L78.8941181,46.424 L82.0941181,46.424 Z M94.9261181,23.256 L77.1021181,23.256 L77.1021181,20.76 L94.9261181,20.76 L94.9261181,23.256 Z M86.2861181,29.176 L77.1021181,29.176 L77.1021181,26.264 L86.2861181,26.264 L86.2861181,29.176 Z M94.1901181,42.104 L82.0941181,42.104 L82.0941181,38.232 L94.1901181,38.232 L94.1901181,42.104 Z M112.815373,31.352 C116.367373,30.52 119.375373,29.624 121.839373,28.664 C122.095373,29.464 122.319373,30.296 122.575373,31.128 L125.743373,29.944 C125.039373,27.384 124.047373,24.6 122.735373,21.528 L119.599373,22.424 C120.047373,23.48 120.463373,24.568 120.847373,25.688 C119.567373,26.2 117.935373,26.744 115.951373,27.32 L115.951373,21.72 C119.535373,21.24 122.511373,20.408 124.879373,19.192 L123.215373,16.408 C120.431373,17.752 116.943373,18.648 112.719373,19.032 L112.719373,26.04 C112.719373,27 112.335373,27.736 111.631373,28.312 L112.815373,31.352 Z M127.631373,31 C129.007373,29.592 130.031373,28.024 130.735373,26.296 C131.247373,24.952 131.631373,23.192 131.951373,21.048 L135.823373,21.048 C135.759373,23.928 135.663373,25.688 135.471373,26.328 C135.247373,27.32 134.735373,27.832 133.967373,27.864 C133.135373,27.864 132.143373,27.8 130.991373,27.736 L131.983373,30.648 C132.847373,30.744 133.615373,30.808 134.319373,30.808 C136.303373,30.808 137.583373,29.944 138.191373,28.248 C138.703373,26.904 139.023373,23.416 139.151373,17.784 L125.775373,17.784 L125.775373,21.048 L128.751373,21.048 C128.527373,22.584 128.239373,23.832 127.887373,24.824 C127.375373,26.168 126.639373,27.384 125.647373,28.472 L127.631373,31 Z M117.551373,46.392 L117.551373,45.24 L134.319373,45.24 L134.319373,46.36 L137.615373,46.36 L137.615373,31.544 L114.255373,31.544 L114.255373,46.392 L117.551373,46.392 Z M124.367373,36.92 L117.551373,36.92 L117.551373,34.648 L124.367373,34.648 L124.367373,36.92 Z M134.319373,36.92 L127.695373,36.92 L127.695373,34.648 L134.319373,34.648 L134.319373,36.92 Z M124.367373,42.136 L117.551373,42.136 L117.551373,39.864 L124.367373,39.864 L124.367373,42.136 Z M134.319373,42.136 L127.695373,42.136 L127.695373,39.864 L134.319373,39.864 L134.319373,42.136 Z M162.384627,23.32 L162.384627,20.216 L158.448627,20.216 C158.192627,19.128 157.808627,17.944 157.360627,16.6 L154.192627,17.464 C154.576627,18.36 154.960627,19.288 155.280627,20.216 L151.696627,20.216 L151.696627,23.32 L162.384627,23.32 Z M163.600627,30.552 C165.072627,29.592 166.352627,28.472 167.472627,27.128 L167.472627,28.6 L175.888627,28.6 L175.888627,26.616 C176.816627,27.896 177.904627,29.112 179.152627,30.232 L181.200627,27.864 C180.176627,27.032 179.248627,26.104 178.384627,25.08 C179.408627,24.184 180.336627,23.224 181.136627,22.136 L178.992627,20.248 C178.352627,21.208 177.616627,22.072 176.784627,22.872 C176.496627,22.392 176.240627,21.912 175.984627,21.432 C177.072627,20.6 178.000627,19.672 178.832627,18.616 L176.688627,16.728 C176.176627,17.496 175.568627,18.232 174.864627,18.936 C174.608627,18.232 174.352627,17.528 174.160627,16.792 L171.792627,18.104 C172.592627,20.888 173.744627,23.416 175.248627,25.72 L168.528627,25.72 C169.616627,24.056 170.416627,22.136 170.992627,19.96 L170.992627,17.624 L163.728627,17.624 L163.728627,20.44 L168.208627,20.44 C167.856627,21.368 167.408627,22.264 166.896627,23.128 C166.256627,22.488 165.584627,21.88 164.816627,21.272 L162.800627,23.192 C163.728627,23.896 164.528627,24.568 165.232627,25.272 C164.208627,26.328 163.024627,27.256 161.680627,28.056 L163.600627,30.552 Z M161.392627,28.088 L161.392627,25.144 L152.496627,25.144 L152.496627,28.088 L161.392627,28.088 Z M161.392627,32.632 L161.392627,29.688 L152.496627,29.688 L152.496627,32.632 L161.392627,32.632 Z M178.544627,39 L178.544627,30.808 L164.400627,30.808 L164.400627,39 L178.544627,39 Z M175.408627,36.248 L167.536627,36.248 L167.536627,33.528 L175.408627,33.528 L175.408627,36.248 Z M155.472627,46.232 L155.472627,44.568 L158.416627,44.568 L158.416627,45.816 L161.584627,45.816 L161.584627,34.456 L152.272627,34.456 L152.272627,46.232 L155.472627,46.232 Z M158.416627,41.496 L155.472627,41.496 L155.472627,37.496 L158.416627,37.496 L158.416627,41.496 Z M180.368627,45.816 L180.368627,42.84 L176.336627,42.84 C176.848627,42.072 177.360627,41.24 177.808627,40.312 L174.832627,39.256 C174.320627,40.504 173.712627,41.688 173.072627,42.84 L170.224627,42.84 C169.648627,41.464 169.040627,40.248 168.368627,39.224 L165.392627,40.344 C165.968627,41.112 166.512627,41.944 166.992627,42.84 L162.864627,42.84 L162.864627,45.816 L180.368627,45.816 Z" id="居留證" fill="#476186" fill-rule="nonzero"></path>
            </g>
        </g>
    </g>
</svg>