<svg xmlns="http://www.w3.org/2000/svg" xmlns:xlink="http://www.w3.org/1999/xlink" width="273" height="250" viewBox="0 0 273 250">
    <defs>
        <path id="prefix__a" d="M0 0.074L273 0.074 273 129 0 129z"/>
        <path id="prefix__c" d="M0.283 0.355L248.718 0.355 248.718 117 0.283 117z"/>
        <path id="prefix__e" d="M0 250L273 250 273 0 0 0z"/>
    </defs>
    <g fill="none" fill-rule="evenodd">
        <path fill="#6BA997" d="M214.697 116.012v20.153c-2.648 3.08-5.528 5.959-8.608 8.61-.024.02-.046.042-.07.06-3.132 2.69-6.474 5.15-9.995 7.347-.82.513-1.65 1.01-2.49 1.493-.004.003-.007.003-.013.006-1.553.894-3.137 1.74-4.754 2.53h-.003c-6.578 3.225-13.65 5.583-21.078 6.935-1.872.343-3.764.619-5.68.829-.74.08-1.479.152-2.224.212-2.178.18-4.38.273-6.604.279h-.35c-2.21-.006-4.399-.098-6.562-.276-.008 0-.02 0-.032-.003-.744-.06-1.483-.132-2.223-.212-1.939-.213-3.854-.492-5.75-.84-7.404-1.355-14.457-3.711-21.01-6.923-1.62-.794-3.21-1.64-4.768-2.534-.84-.486-1.67-.983-2.49-1.496-3.547-2.212-6.909-4.691-10.065-7.406-3.08-2.652-5.96-5.531-8.609-8.611v-22.508c0-5.937 1.9-11.428 5.12-15.906 4.95-6.877 13.028-11.358 22.148-11.358h68.834c1.35 0 2.674.098 3.972.288 7.473 1.09 13.962 5.21 18.18 11.079 3.218 4.472 5.11 9.963 5.11 15.897v2.355h.014z"/>
        <path fill="#FFF" d="M112.483 121.073v32.604c-.84-.486-1.67-.983-2.49-1.496-3.547-2.212-6.909-4.69-10.065-7.406-3.08-2.65-5.96-5.53-8.609-8.61v-15.092h21.164zM214.697 121.073v15.092c-2.648 3.08-5.528 5.96-8.608 8.61l-.07.061c-3.132 2.69-6.474 5.148-9.995 7.345-.82.513-1.65 1.01-2.49 1.494v-32.602h21.163zM118.364 50.958c-3.22 0-5.832-2.61-5.832-5.83v-8.889c0-3.22 2.611-5.83 5.831-5.83h.001c3.22 0 5.831 2.61 5.831 5.83v8.888c0 3.221-2.61 5.831-5.83 5.831"/>
        <path fill="#D0D2D3" d="M118.364 48.212c-3.22 0-5.832-2.61-5.832-5.831v2.747c0 3.22 2.611 5.83 5.832 5.83 3.22 0 5.831-2.61 5.831-5.83v-2.747c0 3.221-2.61 5.831-5.83 5.831"/>
        <path fill="#FFF" d="M187.653 50.958c-3.22 0-5.83-2.61-5.83-5.83v-8.889c0-3.22 2.61-5.83 5.83-5.83 3.221 0 5.831 2.61 5.831 5.83v8.888c0 3.221-2.61 5.831-5.83 5.831"/>
        <path fill="#D0D2D3" d="M187.653 48.212c-3.22 0-5.83-2.61-5.83-5.831v2.747c0 3.22 2.61 5.83 5.83 5.83 3.221 0 5.831-2.61 5.831-5.83v-2.747c0 3.221-2.61 5.831-5.83 5.831"/>
        <path fill="#FFF" d="M139.437 67.966v18.427h-.01l.003.003c6.833 8.959 20.318 8.957 27.15-.003V67.966h-27.143z"/>
        <path fill="#FFF" d="M118.873 28.087c1.129-5.799 3.698-11.083 7.324-15.462 1.048-1.27 2.187-2.461 3.404-3.569C135.78 3.427 143.99 0 153.009 0c.399 0 .802.007 1.203.024.136 0 .27.006.403.013 8.969.407 17.046 4.206 22.99 10.152 5.295 5.294 8.892 12.293 9.899 20.101.189 1.471.288 2.969.288 4.49v6.888c0 19.21-15.571 34.78-34.783 34.78-19.208 0-34.783-15.57-34.783-34.78V34.78c0-1.477.09-2.931.27-4.358l.377-2.335z"/>
        <path fill="#D0D2D3" d="M153.009 70.955c-19.208 0-34.783-15.57-34.783-34.78v5.493c0 19.21 15.575 34.78 34.783 34.78 19.212 0 34.783-15.57 34.783-34.78v-5.493c0 19.21-15.571 34.78-34.783 34.78"/>
        <path fill="#4B6084" d="M118.873 28.087h3.32v16.668c0 1.087-.838 2.034-1.924 2.063-1.125.032-2.043-.868-2.043-1.981V32.846c0-1.609.217-3.209.647-4.759M187.792 32.585v12.182c0 1.008-.725 1.909-1.727 2.036-1.211.154-2.243-.786-2.243-1.966v-16.75h3.325c.428 1.461.645 2.976.645 4.498"/>
        <path fill="#4B6084" d="M154.212.024c-3.52 5.49-12.24 17.36-26.363 25.708-3.401 2.006-6.522 3.538-9.352 4.69.003-.003.003-.01.003-.014.84-6.71 3.593-12.828 7.697-17.783 1.048-1.27 2.187-2.46 3.404-3.57 6.178-5.628 14.39-9.054 23.408-9.054.399 0 .803.005 1.203.022"/>
        <path fill="#808F91" d="M187.504 30.29c-4.735 1.434-14.066 2.786-28.886-1.088-14.985-3.915-26.356-11.68-32.421-16.577 1.048-1.27 2.187-2.46 3.404-3.569C135.779 3.427 143.99 0 153.009 0c.535 0 1.074.01 1.606.037 8.969.407 17.046 4.206 22.992 10.151 5.293 5.294 8.89 12.293 9.897 20.102"/>
        <path fill="#4B6084" d="M158.618 8.866c-6.562-1.714-12.431-4.167-17.464-6.793-4.312 1.563-8.227 3.953-11.554 6.982-1.216 1.11-2.355 2.3-3.403 3.57 6.065 4.897 17.436 12.662 32.421 16.577 14.819 3.874 24.15 2.521 28.886 1.088-.935-7.25-4.105-13.8-8.791-18.939-5.039.228-11.682-.286-20.095-2.485"/>
        <path fill="#808F91" d="M158.618 15.645c-9.581-2.503-17.681-6.58-23.864-10.474-1.838 1.136-3.564 2.437-5.154 3.885-1.216 1.109-2.355 2.299-3.403 3.569 6.065 4.898 17.436 12.663 32.421 16.578 14.819 3.874 24.15 2.52 28.886 1.088-.585-4.538-2.05-8.798-4.208-12.613-5.315.836-13.407.913-24.678-2.033"/>
        <path fill="#4B6084" d="M158.618 22.424c-12.293-3.212-22.152-9.014-28.646-13.698-.125.109-.249.219-.372.33-1.216 1.108-2.355 2.299-3.403 3.569 6.065 4.898 17.436 12.662 32.421 16.577 14.819 3.874 24.15 2.522 28.886 1.088-.284-2.2-.78-4.331-1.454-6.382-5.079 1.245-14.002 2.027-27.432-1.484"/>
        <path fill="#A62873" d="M153.009 53.188c-2.122 0-3.842-1.72-3.842-3.842v-5.053c0-2.123 1.72-3.843 3.842-3.843s3.842 1.72 3.842 3.842v5.054c0 2.122-1.72 3.843-3.842 3.843M139.79 37.453c0 1.622-1.315 2.938-2.938 2.938-1.623 0-2.938-1.316-2.938-2.938s1.315-2.938 2.938-2.938c1.623 0 2.938 1.316 2.938 2.938M172.102 37.453c0 1.622-1.314 2.938-2.938 2.938-1.622 0-2.937-1.316-2.937-2.938s1.315-2.938 2.937-2.938c1.624 0 2.938 1.316 2.938 2.938M153.009 63.474c-3.754 0-7.284-1.463-9.941-4.12-.351-.351-.351-.917 0-1.268.349-.35.917-.35 1.266 0 2.32 2.32 5.4 3.596 8.675 3.596 3.274 0 6.354-1.276 8.674-3.596.35-.35.917-.35 1.267 0 .35.35.35.917 0 1.268-2.658 2.657-6.188 4.12-9.941 4.12"/>
        <path fill="#F23E23" d="M153.009 160.406L152.992 160.425 152.998 160.444 153.01 160.407z"/>
        <path fill="#F3BDCD" d="M183.483 98.834c.498 3.495-.22.67 0-.002-4.484-5.264-10.199-9.33-16.904-12.439v.001c-6.832 8.959-20.316 8.96-27.149.002l-.002-.003c-14.133 6.555-23.884 17.366-26.945 34.68v32.605c1.557.894 3.147 1.74 4.767 2.533 6.554 3.213 13.607 5.568 21.011 6.924 1.896.347 3.811.627 5.75.84.74.08 1.48.152 2.223.212.012.002.023.002.032.002l5.045.21 1.516.061v.015h.026l.152-.009h.003l.147.009h.023v-.015l1.528-.063 5.076-.21c.745-.06 1.484-.132 2.223-.212 1.916-.21 3.81-.487 5.681-.829 7.427-1.352 14.5-3.71 21.078-6.935h.003c1.616-.79 3.201-1.636 4.754-2.53v-32.608c-1.607-9.102-5.066-16.405-10.038-22.239"/>
        <path fill="#0E6DA0" d="M193.533 153.675l-.012-25.5-.003-7.102-4.75 35.139c1.616-.791 3.201-1.637 4.753-2.531l.012-.006zM117.25 156.212c-1.62-.794-3.21-1.64-4.767-2.534v-32.605l4.767 35.139zM166.578 86.393c-6.83 8.96-20.314 8.96-27.147.003l-.002-.003h-5.647c2.762 6.347 10.323 10.905 19.227 10.905 8.902 0 16.465-4.558 19.226-10.905h-5.657z"/>
        <path fill="#FFF" d="M98.129 118.515v2.29c0 2.414 1.956 4.37 4.369 4.37s4.369-1.956 4.369-4.37v-2.29c0-2.413-1.956-4.37-4.37-4.37-2.412 0-4.368 1.957-4.368 4.37M208.089 118.515v2.29c0 2.414-1.956 4.37-4.37 4.37-2.412 0-4.368-1.956-4.368-4.37v-2.29c0-2.413 1.956-4.37 4.369-4.37s4.369 1.957 4.369 4.37"/>
        <g transform="translate(0 121)">
            <mask id="prefix__b" fill="#fff">
                <use xlink:href="#prefix__a"/>
            </mask>
            <path fill="#AE436E" d="M273 .074V128.52c-.146.164-.285.323-.437.48H.437c-.152-.157-.291-.316-.437-.48V.074h273z" mask="url(#prefix__b)"/>
        </g>
        <g transform="translate(12 133)">
            <mask id="prefix__d" fill="#fff">
                <use xlink:href="#prefix__c"/>
            </mask>
            <path fill="#F8F6DE" d="M248.718 1.355L248.718 117.001 0.283 117.001 0.283 0.355z" mask="url(#prefix__d)"/>
        </g>
        <path fill="#D0D2D3" d="M99.099 116.502c-1.879 0-3.4 1.522-3.4 3.399v-1.745c0-1.878-1.522-3.399-3.4-3.399s-3.4 1.521-3.4 3.399v1.745c0-1.877-1.523-3.399-3.4-3.399s-3.398 1.522-3.398 3.399v1.746c0-1.877-1.523-3.4-3.4-3.4s-3.4 1.523-3.4 3.4v8.244c0 1.877 1.522 3.399 3.4 3.399 1.877 0 3.4-1.522 3.4-3.399 0 1.877 1.52 3.399 3.398 3.399 1.877 0 3.4-1.522 3.4-3.399 0 1.877 1.522 3.399 3.4 3.399 1.877 0 3.4-1.522 3.4-3.399 0 1.877 1.522 3.399 3.4 3.399 1.876 0 3.398-1.522 3.398-3.399v-9.99c0-1.877-1.522-3.399-3.398-3.399M227.517 118.247c-1.878 0-3.4 1.522-3.4 3.4V119.9c0-1.877-1.522-3.399-3.4-3.399-1.877 0-3.399 1.522-3.399 3.4v-1.746c0-1.878-1.523-3.399-3.4-3.399-1.878 0-3.4 1.521-3.4 3.4v1.744c0-1.877-1.522-3.399-3.399-3.399s-3.4 1.522-3.4 3.4v9.99c0 1.876 1.523 3.398 3.4 3.398s3.4-1.522 3.4-3.399c0 1.877 1.521 3.4 3.4 3.4 1.876 0 3.4-1.523 3.4-3.4 0 1.877 1.521 3.4 3.398 3.4 1.878 0 3.4-1.523 3.4-3.4 0 1.877 1.522 3.4 3.4 3.4 1.877 0 3.4-1.523 3.4-3.4v-8.245c0-1.877-1.523-3.399-3.4-3.399"/>
        <path fill="#FFF" d="M99.099 128.927c1.876 0 3.398-1.521 3.398-3.4v-9.988c0-1.878-1.522-3.4-3.398-3.4-1.879 0-3.4 1.522-3.4 3.4v9.989c0 1.878 1.522 3.399 3.4 3.399"/>
        <path fill="#FFF" d="M92.299 128.927c1.878 0 3.4-1.521 3.4-3.4v-11.733c0-1.878-1.522-3.4-3.4-3.4-1.877 0-3.4 1.522-3.4 3.4v11.734c0 1.878 1.523 3.399 3.4 3.399M85.5 128.927c1.878 0 3.399-1.521 3.399-3.4v-9.988c0-1.878-1.521-3.4-3.4-3.4-1.877 0-3.398 1.522-3.398 3.4v9.989c0 1.878 1.52 3.399 3.399 3.399M78.7 128.927c1.878 0 3.4-1.521 3.4-3.4v-8.243c0-1.878-1.522-3.4-3.4-3.4-1.877 0-3.399 1.522-3.399 3.4v8.244c0 1.878 1.522 3.399 3.399 3.399M207.119 128.927c-1.877 0-3.399-1.521-3.399-3.4v-9.988c0-1.878 1.522-3.4 3.399-3.4 1.878 0 3.399 1.522 3.399 3.4v9.989c0 1.878-1.521 3.399-3.399 3.399M213.919 128.927c-1.878 0-3.4-1.521-3.4-3.4v-11.733c0-1.878 1.522-3.4 3.4-3.4 1.877 0 3.399 1.522 3.399 3.4v11.734c0 1.878-1.522 3.399-3.4 3.399"/>
        <path fill="#FFF" d="M220.718 128.927c-1.877 0-3.4-1.521-3.4-3.4v-9.988c0-1.878 1.523-3.4 3.4-3.4 1.878 0 3.399 1.522 3.399 3.4v9.989c0 1.878-1.521 3.399-3.4 3.399M227.517 128.927c-1.878 0-3.4-1.521-3.4-3.4v-8.243c0-1.878 1.522-3.4 3.4-3.4 1.877 0 3.4 1.522 3.4 3.4v8.244c0 1.878-1.523 3.399-3.4 3.399"/>
        <mask id="prefix__f" fill="#fff">
            <use xlink:href="#prefix__e"/>
        </mask>
        <path fill="#AE436E" d="M0 250L273 250 273 237.719 0 237.719z" mask="url(#prefix__f)"/>
        <path fill="#E68AA3" d="M79.956 41.976v43.813c0 1.937-.843 3.678-2.182 4.877-1.156 1.035-2.688 1.667-4.363 1.667H32.506c-3.613 0-6.545-2.927-6.545-6.544V41.976c0-3.612 2.932-6.544 6.545-6.544H73.41c3.612 0 6.545 2.932 6.545 6.544" mask="url(#prefix__f)"/>
        <path fill="#821F22" d="M73.411 89.416H32.506c-3.616 0-6.545-2.93-6.545-6.545v2.92c0 3.613 2.929 6.543 6.545 6.543h40.905c3.614 0 6.545-2.93 6.545-6.544v-2.919c0 3.614-2.931 6.545-6.545 6.545" mask="url(#prefix__f)"/>
        <path fill="#A00B0F" d="M36.905 41.9h-.423c-1.214 0-2.198-.983-2.198-2.198v-8.54c0-1.214.984-2.199 2.198-2.199h.423c1.214 0 2.198.985 2.198 2.2v8.54c0 1.214-.984 2.197-2.198 2.197M47.748 41.9h-.423c-1.214 0-2.198-.983-2.198-2.198v-8.54c0-1.214.984-2.199 2.198-2.199h.423c1.214 0 2.198.985 2.198 2.2v8.54c0 1.214-.984 2.197-2.198 2.197M58.59 41.9h-.421c-1.215 0-2.2-.983-2.2-2.198v-8.54c0-1.214.985-2.199 2.2-2.199h.422c1.214 0 2.198.985 2.198 2.2v8.54c0 1.214-.984 2.197-2.198 2.197M69.433 41.9h-.422c-1.215 0-2.198-.983-2.198-2.198v-8.54c0-1.214.983-2.199 2.198-2.199h.422c1.214 0 2.198.985 2.198 2.2v8.54c0 1.214-.984 2.197-2.198 2.197" mask="url(#prefix__f)"/>
        <path fill="#A62873" d="M33.491 56.708L43.85 56.708 43.85 46.349 33.491 46.349z" mask="url(#prefix__f)"/>
        <path fill="#FFF" d="M47.779 56.708L58.138 56.708 58.138 46.349 47.779 46.349zM62.066 56.708L72.426 56.708 72.426 46.349 62.066 46.349zM33.491 70.478L43.85 70.478 43.85 60.119 33.491 60.119zM47.779 70.478L58.138 70.478 58.138 60.119 47.779 60.119zM62.066 70.478L72.426 70.478 72.426 60.119 62.066 60.119zM33.491 84.246L43.85 84.246 43.85 73.887 33.491 73.887z" mask="url(#prefix__f)"/>
        <path fill="#A62873" d="M47.779 84.246L58.138 84.246 58.138 73.887 47.779 73.887z" mask="url(#prefix__f)"/>
        <path fill="#FFF" d="M62.066 84.246L72.426 84.246 72.426 73.887 62.066 73.887z" mask="url(#prefix__f)"/>
        <path fill="#974413" d="M79.956 49.742v36.046c0 1.937-.843 3.68-2.182 4.878-6.532-4.189-10.856-11.51-10.856-19.838 0-9.232 5.306-17.22 13.038-21.086" mask="url(#prefix__f)"/>
        <path fill="#F0CA67" d="M109.929 66.463c0 10.74-8.707 19.447-19.448 19.447s-19.448-8.707-19.448-19.447c0-10.74 8.707-19.447 19.448-19.447 10.74 0 19.448 8.707 19.448 19.447" mask="url(#prefix__f)"/>
        <path fill="#FFF" d="M96.316 72.927c-.448 0-.9-.138-1.289-.423l-5.837-4.282c-.56-.411-.892-1.065-.892-1.76V54.167c0-1.205.977-2.181 2.182-2.181s2.182.976 2.182 2.18v11.193l4.946 3.629c.972.71 1.181 2.077.47 3.048-.429.583-1.09.892-1.762.892" mask="url(#prefix__f)"/>
        <text fill="#6BA997" font-family="Roboto-Bold, Roboto" font-size="31.2" font-weight="bold" letter-spacing="1.352">
            <tspan x="32.495" y="174">2020</tspan>
        </text>
        <text fill="#8752A3" font-family="Roboto-Bold, Roboto" font-size="31.2" font-weight="bold" letter-spacing="1.352">
            <tspan x="124.208" y="215">~</tspan>
        </text>
        <text fill="#8752A3" font-family="Roboto-Bold, Roboto" font-size="39" font-weight="bold" letter-spacing="1.69">
            <tspan x="26.773" y="218">7/22</tspan>
        </text>
        <text fill="#8752A3" font-family="Roboto-Bold, Roboto" font-size="39" font-weight="bold">
            <tspan x="148.965" y="218">12/31</tspan>
        </text>
        <text fill="#6BA997" font-family="Roboto-Bold, Roboto" font-size="31.2" font-weight="bold" letter-spacing="1.352">
            <tspan x="162.495" y="174">2020</tspan>
        </text>
    </g>
</svg>
