<svg xmlns="http://www.w3.org/2000/svg" xmlns:xlink="http://www.w3.org/1999/xlink" width="604" height="367" viewBox="0 0 604 367">
    <defs>
        <path id="prefix__a" d="M0 0.436L124.841 0.436 124.841 90.636 0 90.636z"/>
        <path id="prefix__c" d="M0 367.415L603.83 367.415 603.83 0.928 0 0.928z"/>
        <path id="prefix__e" d="M.74 64.17c0 35.23 28.214 63.798 63.01 63.798 34.804 0 63.015-28.567 63.015-63.798C126.765 28.93 98.555.365 63.75.365 28.95.365.74 28.93.74 64.17z"/>
        <path id="prefix__g" d="M.811 1c0 24.115 19.537 43.662 43.64 43.662V1.001H.81z"/>
        <path id="prefix__i" d="M.811 44.474h43.64V.812C20.348.812.81 20.36.81 44.474z"/>
        <path id="prefix__k" d="M.194 44.474h43.64C43.834 20.359 24.296.812.194.812v43.662z"/>
        <path id="prefix__m" d="M.194 1.007V44.67c24.102 0 43.64-19.548 43.64-43.663H.194z"/>
        <path id="prefix__o" d="M0.518 0.263L298.434 0.263 298.434 47.971 0.518 47.971z"/>
        <path id="prefix__q" d="M0 367.415L603.83 367.415 603.83 0.928 0 0.928z"/>
        <path id="prefix__s" d="M0.72 0.516L0.72 28.311 26.608 28.311 26.605 24.174 35.078 22.012 31.974 0.516z"/>
        <path id="prefix__w" d="M0 367.415L603.83 367.415 603.83 0.928 0 0.928z"/>
        <path id="prefix__z" d="M.974 9.956v4.023h19.098V9.956c0-5.25-4.297-9.548-9.549-9.548C5.27.408.973 4.704.973 9.956"/>
        <path id="prefix__C" d="M.868 9.956v4.023h19.098V9.956c0-5.25-4.296-9.548-9.548-9.548S.868 4.704.868 9.956"/>
        <path id="prefix__F" d="M.763 9.956v4.023h19.1V9.956c0-5.252-4.297-9.548-9.55-9.548C5.06.408.763 4.704.763 9.956"/>
        <path id="prefix__I" d="M12.597 5.32c-3.23 0-6.028-1.86-7.38-4.568C4.26 2.665 2.583 4.154.54 4.865c2.554 3.954 7 6.572 12.058 6.572 5.055 0 9.502-2.618 12.057-6.572-2.043-.711-3.72-2.2-4.677-4.113-1.35 2.707-4.15 4.568-7.382 4.568"/>
        <path id="prefix__L" d="M17.05 5.32c-3.233 0-6.03-1.86-7.382-4.568C8.315 3.46 5.517 5.32 2.285 5.32c-.738 0-1.453-.098-2.133-.28 1.766 11.732 8.302 21.9 17.568 28.47-3.87 6.912-6.185 14.811-6.474 23.225 1.123-.467 2.35-.724 3.638-.724 5.252 0 9.549 4.297 9.549 9.548V.752C23.08 3.46 20.282 5.32 17.049 5.32"/>
        <path id="prefix__O" d="M8.145 5.32C4.914 5.32 2.115 3.46.763.752v64.796c.007-5.246 4.301-9.537 9.55-9.537 1.286 0 2.515.257 3.637.724-.29-8.414-2.605-16.313-6.473-23.225 9.266-6.57 15.802-16.738 17.567-28.47-.68.182-1.395.28-2.135.28-3.231 0-6.03-1.86-7.382-4.568-1.353 2.707-4.15 4.568-7.382 4.568"/>
        <path id="prefix__R" d="M.77.928L.763 7.294c1.352 2.707 4.15 4.568 7.382 4.568 3.232 0 6.03-1.861 7.382-4.568 1.352 2.707 4.151 4.568 7.382 4.568 3.233 0 6.03-1.861 7.384-4.568 1.352 2.707 4.15 4.568 7.38 4.568 3.232 0 6.03-1.861 7.382-4.568 1.352 2.707 4.15 4.568 7.382 4.568 3.232 0 6.029-1.861 7.383-4.568 1.352 2.707 4.148 4.568 7.381 4.568 3.233 0 6.03-1.861 7.383-4.568L74.585.93.77.928z"/>
        <path id="prefix__U" d="M.606 17.13c0 9.345 7.621 16.963 16.963 16.963 9.345 0 16.965-7.618 16.965-16.963 0-9.342-7.62-16.963-16.965-16.963C8.227.167.606 7.787.606 17.13"/>
        <path id="prefix__X" d="M.2 29.124c0 15.615 12.657 28.272 28.272 28.272 15.615 0 28.272-12.657 28.272-28.272C56.744 13.509 44.087.85 28.472.85 12.857.85.2 13.51.2 29.124m31.164-7.33v-9.209c0-.017 0-.03.003-.047v-.011c.024-2.428 2-4.39 4.434-4.39.633 0 1.235.133 1.78.372l.137.064c5.01 2.256 9.047 6.292 11.305 11.302.28.58.435 1.231.435 1.918 0 2.443-1.975 4.424-4.414 4.436h-9.249c-2.446-.003-4.43-1.988-4.43-4.436m-23.877 0c0-.687.156-1.338.434-1.918 2.259-5.01 6.294-9.046 11.305-11.302l.137-.064c.545-.24 1.147-.371 1.78-.371 2.435 0 4.41 1.961 4.436 4.389V21.793c0 2.448-1.983 4.433-4.43 4.436H11.9c-2.44-.012-4.413-1.993-4.413-4.436M31.367 45.72v-.012c-.003-.017-.003-.03-.003-.046v-9.209c0-2.448 1.985-4.432 4.431-4.437h9.248c2.44.012 4.415 1.994 4.415 4.437 0 .686-.156 1.338-.435 1.918-2.258 5.01-6.295 9.046-11.305 11.303l-.137.062c-.545.24-1.147.372-1.78.372-2.435 0-4.41-1.961-4.434-4.388m-12.003 4.016l-.137-.062c-5.011-2.257-9.046-6.294-11.305-11.303-.278-.58-.434-1.232-.434-1.918 0-2.443 1.973-4.425 4.413-4.437h9.249c2.447.005 4.43 1.989 4.43 4.437v9.267c-.027 2.427-2.001 4.388-4.436 4.388-.633 0-1.235-.132-1.78-.372"/>
        <linearGradient id="prefix__t" x1="15.327%" x2="96.969%" y1="20.728%" y2="99.983%">
            <stop offset="0%" stop-color="#5B4459"/>
            <stop offset="100%" stop-color="#3D2F3B"/>
        </linearGradient>
        <linearGradient id="prefix__v" x1="2.288%" x2="104.007%" y1="26.505%" y2="76.589%">
            <stop offset="0%" stop-color="#2BAAAE"/>
            <stop offset="100%" stop-color="#177E89"/>
        </linearGradient>
        <linearGradient id="prefix__y" x1="50.001%" x2="50.001%" y1="77.214%" y2="30.944%">
            <stop offset="0%" stop-color="#5B4459"/>
            <stop offset="100%" stop-color="#3D2F3B"/>
        </linearGradient>
        <linearGradient id="prefix__A" x1="49.998%" x2="49.998%" y1="33.502%" y2="108.666%">
            <stop offset="0%" stop-color="#F4C167"/>
            <stop offset="100%" stop-color="#D89044"/>
        </linearGradient>
        <linearGradient id="prefix__D" x1="50.003%" x2="50.003%" y1="33.502%" y2="108.666%">
            <stop offset="0%" stop-color="#F4C167"/>
            <stop offset="100%" stop-color="#D89044"/>
        </linearGradient>
        <linearGradient id="prefix__G" x1="50.002%" x2="50.002%" y1="33.502%" y2="108.666%">
            <stop offset="0%" stop-color="#F4C167"/>
            <stop offset="100%" stop-color="#D89044"/>
        </linearGradient>
        <linearGradient id="prefix__J" x1="49.999%" x2="49.999%" y1="-77.097%" y2="241.428%">
            <stop offset="0%" stop-color="#BF423B"/>
            <stop offset="100%" stop-color="#BF423B"/>
        </linearGradient>
        <linearGradient id="prefix__M" x1="49.999%" x2="49.999%" y1="-1.313%" y2="83.916%">
            <stop offset="0%" stop-color="#BF423B"/>
            <stop offset="100%" stop-color="#BF423B"/>
        </linearGradient>
        <linearGradient id="prefix__P" x1="50.001%" x2="50.001%" y1="-1.313%" y2="83.917%">
            <stop offset="0%" stop-color="#BF423B"/>
            <stop offset="100%" stop-color="#BF423B"/>
        </linearGradient>
        <linearGradient id="prefix__S" x1="0%" x2="100%" y1="49.997%" y2="49.997%">
            <stop offset="0%" stop-color="#F4C167"/>
            <stop offset="100%" stop-color="#D89044"/>
        </linearGradient>
        <linearGradient id="prefix__V" x1="15.666%" x2="90.23%" y1="8.831%" y2="98.242%">
            <stop offset="0%" stop-color="#5B4459"/>
            <stop offset="100%" stop-color="#3D2F3B"/>
        </linearGradient>
        <linearGradient id="prefix__Y" x1="17.092%" x2="85.765%" y1="7.688%" y2="95.983%">
            <stop offset="0%" stop-color="#ED6D57"/>
            <stop offset="100%" stop-color="#BF423B"/>
        </linearGradient>
    </defs>
    <g fill="none" fill-rule="evenodd">
        <text fill="#FFF" font-family="Helvetica" font-size="24" letter-spacing=".1" transform="translate(0 -1) rotate(-29 495.5 100)">
            <tspan x="471.561" y="108">ART</tspan>
        </text>
        <text fill="#FFF" font-family="Helvetica" font-size="24" letter-spacing=".1" transform="translate(0 -1) rotate(21 59.043 149.813)">
            <tspan x="24.167" y="157.813">BOOK</tspan>
        </text>
        <path stroke="#A62873" stroke-width="2" d="M268.436 96.204L268.436 162.78" transform="translate(0 -1)"/>
        <g transform="translate(0 -1) translate(0 .162)">
            <g transform="translate(0 103.574)">
                <mask id="prefix__b" fill="#fff">
                    <use xlink:href="#prefix__a"/>
                </mask>
                <path fill="#EDB16A" d="M97.864 59.735c1.265-3.464 5.096-5.269 8.563-4.012 3.476 1.248 5.272 5.083 4.019 8.55-1.245 3.48-5.078 5.269-8.541 4.023-3.48-1.25-5.287-5.08-4.04-8.56zm1.897 30.901l25.08-21.186-5.804-32.304L19.265.436 0 53.947l99.761 36.69z" mask="url(#prefix__b)"/>
            </g>
            <path stroke="#747374" stroke-linecap="round" stroke-linejoin="round" stroke-width="2.936" d="M105.797 166.809s46.4 20.497 57.846-1.142c11.445-21.639-6.699-32.298-14.564-20.134-7.86 12.176 21.41 43.896 46.899 36.169 30.16-9.13 59.862-91.011 16.886-87.394-36.898 3.107-30.715 96.771 58.89 83.104M108.012 162.982s12.364 5.95 18.368 5.335"/>
            <path stroke="#A62873" stroke-width="2" d="M427.476 234.906L537.895 305.313"/>
            <path fill="#E76164" d="M462.242 122.315c-2.519 1.41-5.692.516-7.096-1.99-1.416-2.514-.523-5.69 1.987-7.102 2.506-1.411 5.688-.516 7.1 1.996 1.408 2.505.516 5.685-1.991 7.096m79.214-25.032l-21.724-38.671c-.844-1.508-2.744-2.041-4.252-1.196l-71.968 40.418c-.971.546-1.578 1.573-1.598 2.688l-.302 25.607c-.012 1.116.564 2.157 1.524 2.726l22.034 13.067c.958.568 2.161.582 3.125.04l71.969-40.424c1.502-.844 2.042-2.753 1.192-4.255"/>
            <path stroke="#747374" stroke-linecap="round" stroke-linejoin="round" stroke-width="2.279" d="M456.678 118.071s-11.603-1.242-15.066 8.058c-3.249 8.701 1.737 32.691-20.303 43.403"/>
            <path fill="#C497A8" d="M580.683 301.492c0 23.846-19.345 43.183-43.191 43.183-23.842 0-43.178-19.337-43.178-43.183 0-23.85 19.336-43.181 43.178-43.181 23.846 0 43.191 19.33 43.191 43.181"/>
            <path stroke="#A62873" stroke-width="2" d="M210.941 208.571L138.529 254.744"/>
            <path fill="#E76164" d="M57.733 275.157c0 23.846 19.346 43.184 43.192 43.184 23.842 0 43.177-19.338 43.177-43.184 0-23.85-19.335-43.182-43.177-43.182-23.846 0-43.192 19.333-43.192 43.182"/>
            <path stroke="#A62873" stroke-width="2" d="M421.366 222.196L503.868 199.822"/>
            <path fill="#C497A8" d="M573.73 153.704c17.638 16.051 18.919 43.373 2.868 61.01-16.047 17.633-43.364 18.917-60.998 2.866-17.64-16.053-18.924-43.365-2.877-60.996 16.051-17.637 43.37-18.933 61.008-2.88"/>
            <path stroke="#747374" stroke-linecap="round" stroke-linejoin="round" stroke-width="2.279" d="M456.678 121.382s-6.775-2.444-13.542 7.473"/>
            <path fill="#EDB16A" d="M314.51 49.969c0 25.443-20.627 46.073-46.068 46.073-25.447 0-46.074-20.63-46.074-46.073 0-25.447 20.627-46.074 46.074-46.074 25.44 0 46.068 20.627 46.068 46.074"/>
            <path fill="#94305C" d="M391.518 97.87c-8.85 0-16.024-7.178-16.024-16.027 0-8.848 7.174-16.02 16.024-16.02 8.855 0 16.019 7.172 16.019 16.02 0 8.85-7.164 16.026-16.02 16.026m0-48.306c-17.827 0-32.28 14.45-32.28 32.28 0 17.834 32.28 45.355 32.28 45.355s32.273-27.52 32.273-45.355c0-17.83-14.444-32.28-32.272-32.28"/>
            <path fill="#FFF" d="M391.518 97.87c-8.85 0-16.024-7.178-16.024-16.027 0-8.848 7.174-16.02 16.024-16.02 8.855 0 16.019 7.172 16.019 16.02 0 8.85-7.164 16.026-16.02 16.026"/>
            <path fill="#D1ECFB" d="M391.518 65.824c8.855 0 16.019 7.172 16.019 16.018 0 8.85-7.164 16.028-16.02 16.028"/>
            <mask id="prefix__d" fill="#fff">
                <use xlink:href="#prefix__c"/>
            </mask>
            <path fill="#A3618B" d="M205.401 274.829L423.618 274.829 423.618 135.134 205.401 135.134z" mask="url(#prefix__d)"/>
            <path fill="#BB7E9C" d="M196.191 292.992L432.827 292.992 432.827 151.494 196.191 151.494z" mask="url(#prefix__d)"/>
            <path fill="#F8E482" d="M186.675 309.356L442.343 309.356 442.343 167.859 186.675 167.859z" mask="url(#prefix__d)"/>
        </g>
        <g transform="translate(0 -1) translate(250.758 174.603)">
            <mask id="prefix__f" fill="#fff">
                <use xlink:href="#prefix__e"/>
            </mask>
            <path fill="#E68AA3" d="M-0.361 129.068L127.865 129.068 127.865 -0.735 -0.361 -0.735z" mask="url(#prefix__f)"/>
        </g>
        <path fill="#BD5888" d="M410.39 250.203c-6.31 0-11.432-5.124-11.432-11.436 0-6.311 5.122-11.43 11.432-11.43 6.308 0 11.429 5.119 11.429 11.43 0 6.312-5.121 11.436-11.43 11.436" transform="translate(0 -1)"/>
        <g transform="translate(0 -1) translate(397.942 166.971)">
            <mask id="prefix__h" fill="#fff">
                <use xlink:href="#prefix__g"/>
            </mask>
            <path fill="#E68AA3" d="M-0.29 45.762L45.551 45.762 45.551 -0.099 -0.29 -0.099z" mask="url(#prefix__h)"/>
        </g>
        <g transform="translate(0 -1) translate(397.942 265.094)">
            <mask id="prefix__j" fill="#fff">
                <use xlink:href="#prefix__i"/>
            </mask>
            <path fill="#E68AA3" d="M-0.29 45.574L45.551 45.574 45.551 -0.288 -0.29 -0.288z" mask="url(#prefix__j)"/>
        </g>
        <g>
            <path fill="#BD5888" d="M32.197.4c6.308 0 11.43 5.126 11.43 11.438 0 6.31-5.122 11.43-11.43 11.43s-11.43-5.12-11.43-11.43C20.766 5.526 25.888.4 32.196.4" transform="translate(0 -1) translate(186.433 226.935)"/>
            <path fill="#E14027" d="M.194 38.97v43.663h43.64c0-24.114-19.538-43.663-43.64-43.663" transform="translate(0 -1) translate(186.433 226.935)"/>
        </g>
        <g transform="translate(0 -1) translate(186.433 265.094)">
            <mask id="prefix__l" fill="#fff">
                <use xlink:href="#prefix__k"/>
            </mask>
            <path fill="#E68AA3" d="M-0.906 45.574L44.935 45.574 44.935 -0.288 -0.906 -0.288z" mask="url(#prefix__l)"/>
        </g>
        <g transform="translate(0 -1) translate(186.433 166.971)">
            <mask id="prefix__n" fill="#fff">
                <use xlink:href="#prefix__m"/>
            </mask>
            <path fill="#E68AA3" d="M0.252 0.619L46.367 0.577 46.367 46.439 0.194 46.833z" mask="url(#prefix__n)"/>
        </g>
        <g transform="translate(0 -1) translate(0 .162)">
            <g transform="translate(166.809 319.444)">
                <mask id="prefix__p" fill="#fff">
                    <use xlink:href="#prefix__o"/>
                </mask>
                <path fill="#D0D2D3" d="M286.42 47.971H12.53C5.896 47.971.518 42.592.518 35.958V12.276C.518 5.642 5.896.263 12.53.263h273.89c6.635 0 12.014 5.38 12.014 12.013v23.682c0 6.634-5.38 12.013-12.015 12.013" mask="url(#prefix__p)"/>
            </g>
            <path fill="#FFF" d="M453.228 363.478H179.339c-6.634 0-12.012-5.38-12.012-12.015v-23.68c0-6.634 5.378-12.013 12.012-12.013h273.889c6.635 0 12.015 5.379 12.015 12.013v23.68c0 6.636-5.38 12.015-12.015 12.015"/>
            <path fill="#FFF" d="M327.529 315.77L316.027 327.272 304.525 315.77 316.027 304.268z"/>
            <path fill="#A62873" d="M160.432 72.773c2.017-1.783 4.537-4 4.537-7.233 0-3.23-2.52-5.448-4.537-7.228-.739-.65-1.974-1.742-2.147-2.112-.047-.535.623-2.125 1.022-3.073 1.025-2.443 2.302-5.481.932-8.318-1.393-2.877-4.587-3.772-7.156-4.496-.973-.272-2.59-.724-2.92-1.001-.267-.46-.34-2.154-.394-3.17-.131-2.657-.307-5.965-2.787-7.946-1.161-.93-2.667-1.398-4.47-1.398-1.305 0-2.61.227-3.872.447-.987.17-2.005.352-2.729.352-.251 0-.383-.037-.402-.017-.438-.335-1.208-1.763-1.672-2.619-1.289-2.36-2.884-5.289-6.01-6.002-.427-.094-.86-.145-1.306-.145-2.512 0-4.649 1.54-6.545 2.9-.849.605-2.269 1.626-2.748 1.693-.546-.067-1.964-1.088-2.81-1.694-1.897-1.358-4.038-2.899-6.55-2.899-.442 0-.882.051-1.305.145-3.127.713-4.726 3.643-6.003 6.002-.48.873-1.273 2.336-1.607 2.59 0 0-.135.04-.483.04-.72 0-1.739-.178-2.717-.351-1.266-.217-2.572-.446-3.876-.446-1.806 0-3.316.47-4.47 1.397-2.486 1.978-2.648 5.291-2.783 7.95-.046 1.013-.131 2.707-.333 3.084-.394.356-2.013.81-2.98 1.081-2.567.723-5.78 1.62-7.166 4.494-1.369 2.84-.088 5.878.938 8.319.395.954 1.067 2.541 1.044 2.976-.185.475-1.439 1.567-2.167 2.217-2.025 1.78-4.537 3.998-4.537 7.228 0 3.233 2.512 5.446 4.537 7.23.728.647 1.982 1.735 2.145 2.108.045.537-.627 2.128-1.022 3.077-1.026 2.44-2.307 5.48-.93 8.319 1.378 2.876 4.591 3.772 7.158 4.488.967.275 2.598.73 2.915 1.004.267.457.352 2.152.398 3.167.135 2.658.297 5.966 2.783 7.95 1.154.93 2.664 1.4 4.47 1.4 1.304 0 2.614-.233 3.884-.449.982-.174 1.988-.352 2.709-.352.27 0 .394.02.407.012.436.34 1.21 1.762 1.683 2.62 1.277 2.355 2.876 5.289 6.003 5.999.423.1.863.147 1.305.147 2.512 0 4.653-1.536 6.55-2.897.846-.61 2.264-1.629 2.744-1.693.545.064 1.962 1.082 2.814 1.693 1.896 1.36 4.033 2.897 6.545 2.897.446 0 .879-.047 1.305-.147 3.127-.71 4.722-3.644 6.01-5.999.473-.877 1.27-2.339 1.607-2.592 0 0 .127-.04.468-.04.724 0 1.742.176 2.722.348 1.261.22 2.574.453 3.879.453 1.803 0 3.309-.47 4.47-1.4 2.474-1.984 2.648-5.292 2.779-7.95.054-1.015.132-2.71.334-3.086.39-.356 2.008-.81 2.98-1.082 2.577-.717 5.771-1.615 7.164-4.487 1.362-2.84.093-5.88-.932-8.323-.399-.949-1.07-2.54-1.057-2.972.208-.474 1.443-1.562 2.182-2.21"/>
            <path fill="#5B4559" d="M527.725 145.524c-.646 0-1.17-.523-1.17-1.168v-6.286h-5.267c-.646 0-1.17-.523-1.17-1.17 0-.645.524-1.168 1.17-1.168h6.437c.645 0 1.169.523 1.169 1.169v7.455c0 .645-.524 1.168-1.169 1.168"/>
            <path fill="#EEA74E" d="M534.59 200.124h-.003c-.647-.002-1.168-.526-1.167-1.172l.06-21.883c.002-.646.526-1.168 1.171-1.168h.003c.646.002 1.168.528 1.166 1.173l-.061 21.885c-.002.643-.525 1.165-1.169 1.165"/>
            <path fill="#EEA74E" d="M520.996 200.021c-.187 0-.377-.045-.554-.14-.568-.306-.781-1.016-.474-1.584l11.775-21.883c.307-.57 1.016-.782 1.585-.477.57.307.782 1.016.475 1.584l-11.777 21.885c-.21.393-.613.615-1.03.615M548.244 200.124c-.417 0-.82-.222-1.03-.615l-11.777-21.884c-.306-.568-.093-1.278.475-1.584.57-.306 1.279-.093 1.585.476l11.776 21.884c.306.568.093 1.277-.475 1.584-.177.095-.367.14-.554.14"/>
            <path fill="#5B4559" d="M536.794 200.413h-4.348c-.807 0-1.459-.653-1.459-1.459 0-.804.652-1.459 1.46-1.459h4.347c.806 0 1.46.655 1.46 1.46 0 .805-.654 1.458-1.46 1.458M550.019 200.413h-4.35c-.805 0-1.458-.653-1.458-1.459 0-.804.653-1.459 1.459-1.459h4.349c.804 0 1.459.655 1.459 1.46 0 .805-.655 1.458-1.46 1.458M523.57 200.413h-4.347c-.807 0-1.46-.653-1.46-1.459 0-.804.653-1.459 1.46-1.459h4.348c.805 0 1.458.655 1.458 1.46 0 .805-.653 1.458-1.458 1.458"/>
            <path fill="#E1DEB4" d="M558.197 127.732L551.663 130.63 553.304 138.731 558.197 139.529z"/>
            <path fill="#F2EED1" d="M551.663 130.63L553.303 138.731 543.893 140.638 542.253 132.537z"/>
            <path fill="#F5C268" d="M547.203 139.967L553.114 138.768 553.114 144.428 547.203 144.428z"/>
            <mask id="prefix__r" fill="#fff">
                <use xlink:href="#prefix__q"/>
            </mask>
            <path fill="#F2EED1" d="M510.908 138.557L521.273 138.557 521.273 135.271 510.908 135.271zM509.217 162.697L521.86 162.697 521.86 152.644 509.217 152.644z" mask="url(#prefix__r)"/>
            <path fill="#5B4559" d="M528.253 176.865L540.99 176.865 540.99 172.232 528.253 172.232zM553.801 149.135L558.546 148.451 560.892 164.734 556.219 165.926z" mask="url(#prefix__r)"/>
        </g>
        <g transform="translate(0 -1) translate(521.14 144.076)">
            <mask id="prefix__u" fill="#fff">
                <use xlink:href="#prefix__s"/>
            </mask>
            <path fill="url(#prefix__t)" d="M0.72 0.516L0.72 28.311 26.608 28.311 26.605 24.174 35.078 22.012 31.974 0.516z" mask="url(#prefix__u)"/>
        </g>
        <g fill="#5B4559">
            <path d="M13.063 8.145h4.362c.648 0 1.177.531 1.177 1.178v15.41c0 .647-.53 1.177-1.177 1.177h-4.362V8.145zM.46.219L13.063 8.146 13.063 25.909.46 33.836z" transform="translate(0 -1) translate(490.614 140.805)"/>
        </g>
        <path fill="url(#prefix__v)" d="M527.713 162.198L542.43 162.198 542.43 153.467 527.713 153.467z" transform="translate(0 -1)"/>
        <g transform="translate(0 -1) translate(0 .162)">
            <path fill="#EEA74E" d="M558.197 127.732l-3.158 1.401v9.881l3.158.515v-11.797zm-8.24 11.676v5.02h3.157v-5.66l-3.157.64z"/>
            <mask id="prefix__x" fill="#fff">
                <use xlink:href="#prefix__w"/>
            </mask>
            <path fill="#E1DEB4" d="M518.115 138.557L521.273 138.557 521.273 135.271 518.115 135.271zM518.703 162.698L521.86 162.698 521.86 152.643 518.703 152.643z" mask="url(#prefix__x)"/>
            <path fill="#3E2F3C" d="M537.831 176.865h3.158v-4.633h-3.158v4.633zm-37.312-28.077l-9.445-5.94v-1.986l12.603 7.926h-3.158zm0 17.764h3.158l-12.603 7.927v-1.987l9.445-5.94zm4.363-17.764h3.157c.647 0 1.178.53 1.178 1.177v15.411c0 .646-.531 1.176-1.178 1.176h-3.157c.646 0 1.176-.53 1.176-1.176v-15.411c0-.646-.529-1.177-1.176-1.177zm42.864 19.3l.002 4.137h-3.157l-.001-4.137c2.827-.712 5.65-1.435 8.476-2.16l-3.109-21.499h3.158l2.991 20.721 1.63-.416-2.283-15.837 3.093-.446 2.345 16.283-13.145 3.354z" mask="url(#prefix__x)"/>
            <path fill="#187E89" d="M539.321 162.036L542.43 162.036 542.43 153.304 539.321 153.304z" mask="url(#prefix__x)"/>
            <path fill="#F5C268" d="M520.654 161.892c-2.853 0-5.166 2.314-5.166 5.167 0 2.853 2.313 5.168 5.166 5.168 2.854 0 5.167-2.315 5.167-5.168s-2.313-5.167-5.167-5.167" mask="url(#prefix__x)"/>
            <path fill="#EEA74E" d="M520.654 161.892c-.4 0-.792.046-1.166.133 2.29.528 4 2.582 4 5.034s-1.71 4.505-4 5.033c.374.089.765.135 1.166.135 2.854 0 5.167-2.315 5.167-5.168s-2.313-5.167-5.167-5.167" mask="url(#prefix__x)"/>
            <path fill="#3E2F3C" d="M520.654 165.715c-.742 0-1.343.602-1.343 1.344 0 .742.6 1.344 1.343 1.344s1.344-.602 1.344-1.344c0-.742-.601-1.344-1.344-1.344zm17.831-15.94h2.123v-2.288h-2.123v2.289zm-12.947 0h2.121v-2.288h-2.121v2.289zm4.316 0h2.122v-2.288h-2.122v2.289zm4.316 0h2.122v-2.288h-2.122v2.289zm8.634 0h2.123v-2.288h-2.123v2.289zm4.317 0h2.122v-2.288h-2.122v2.289zm-9.183 19.391h2.122v-2.288h-2.122v2.288zm-8.634 0h2.122v-2.288h-2.122v2.288zm4.317 0h2.122v-2.288h-2.122v2.288zm8.635 0h2.121v-2.288h-2.121v2.288zm6.282-9.71c-.887 0-1.607.718-1.607 1.605 0 .889.72 1.608 1.607 1.608.888 0 1.608-.72 1.608-1.608 0-.887-.72-1.606-1.608-1.606zm0-6.168c-.887 0-1.607.72-1.607 1.607 0 .888.72 1.608 1.607 1.608.888 0 1.608-.72 1.608-1.608 0-.888-.72-1.607-1.608-1.607z" mask="url(#prefix__x)"/>
            <path fill="#EE6D58" d="M544.794 191.658L603.83 191.658 603.83 184.896 544.794 184.896zM544.794 184.896L603.322 177.168 602.437 170.464 543.909 178.192z" mask="url(#prefix__x)"/>
            <path fill="#BF423C" d="M603.322 177.168l-.885-6.704-2.7.357.883 6.704 2.702-.357zm-2.578 14.49h3.087v-6.762h-3.087v6.762zm-55.949-13.525c6.72 1.51 12.008 6.799 13.517 13.518h-3.088c-1.269-5.65-5.211-10.288-10.429-12.52v-.998z" mask="url(#prefix__x)"/>
            <path fill="#FFF" d="M603.83 191.658v25.365c0 2.553-2.09 4.644-4.645 4.644H549.44c-2.553 0-4.644-2.091-4.644-4.644v-25.365h59.036zM555.455 191.658l5.718-6.762h-7.023l-5.717 6.762h7.022zm14.046 0l5.717-6.762h-7.022l-5.719 6.762h7.024zm14.046 0l5.718-6.762h-7.025l-5.717 6.762h7.024zm14.044 0l5.719-6.762h-7.024l-5.717 6.762h7.022zM554.479 176.797l6.553 5.956-6.962.919-6.555-5.956 6.964-.92zm13.924-1.84l6.554 5.957-6.962.919-6.554-5.956 6.962-.92zm13.925-1.838l6.554 5.956-6.963.92-6.553-5.955 6.962-.92zm13.924-1.839l6.554 5.956-6.963.92-6.552-5.956 6.96-.92z" mask="url(#prefix__x)"/>
            <path fill="#E1DEB4" d="M603.83 191.658v25.365c0 2.553-2.09 4.644-4.645 4.644h-3.087c2.554 0 4.645-2.091 4.645-4.644v-25.365h3.088zM555.455 191.658l5.718-6.762h-3.087l-5.719 6.762h3.088zm14.046 0l5.717-6.762h-3.088l-5.717 6.762h3.088zm14.046 0l5.718-6.762h-3.088l-5.717 6.762h3.087zm14.044 0l5.719-6.762h-3.088l-5.718 6.762h3.087zM554.479 176.797l6.553 5.956-2.701.355-6.554-5.955 2.702-.356zm13.924-1.84l6.554 5.957-2.702.356-6.553-5.955 2.701-.357zm13.925-1.838l6.554 5.956-2.702.357-6.553-5.956 2.701-.357zm13.924-1.839l6.554 5.956-2.701.357-6.554-5.955 2.7-.358z" mask="url(#prefix__x)"/>
            <path fill="#EE6D58" d="M544.795 178.133c6.72 1.51 12.008 6.799 13.516 13.518h-13.516v-13.518z" mask="url(#prefix__x)"/>
            <path fill="#5B4559" d="M549.472 216.792L599.154 216.792 599.154 214.795 549.472 214.795zM549.472 210.928L599.154 210.928 599.154 208.931 549.472 208.931zM549.472 198.477L599.154 198.477 599.154 196.48 549.472 196.48z" mask="url(#prefix__x)"/>
            <path fill="#5B4559" d="M562.49 216.793L564.487 216.793 564.487 196.495 562.49 196.495zM583.811 216.793L585.809 216.793 585.809 196.495 583.811 196.495zM553.293 187.321c-.584 0-1.057.474-1.057 1.058 0 .583.473 1.055 1.057 1.055.583 0 1.056-.472 1.056-1.055 0-.584-.473-1.058-1.056-1.058zm-5.158 0c-.585 0-1.057.474-1.057 1.058 0 .583.472 1.055 1.057 1.055.584 0 1.056-.472 1.056-1.055 0-.584-.472-1.058-1.056-1.058zm0-5.303c-.585 0-1.057.474-1.057 1.057 0 .584.472 1.056 1.057 1.056.584 0 1.056-.472 1.056-1.056 0-.583-.472-1.057-1.056-1.057zm10.183 22.746h1.969v-2.121h-1.97v2.121zm-4.004 0h1.97v-2.121h-1.97v2.121zm-4.003 0h1.968v-2.121h-1.968v2.121zm42.03 0h1.97v-2.121h-1.97v2.121zm-4.003 0h1.969v-2.121h-1.97v2.121zm8.007 0h1.969v-2.121h-1.97v2.121zm-29.022 0h1.968v-2.121h-1.968v2.121zm4.004 0h1.969v-2.121h-1.97v2.121zm4.004 0h1.968v-2.121h-1.968v2.121zm4.002 0h1.968v-2.121h-1.968v2.121z" mask="url(#prefix__x)"/>
        </g>
        <path fill="url(#prefix__y)" d="M211.198 67.923L278.263 67.923 278.263 5.134 211.198 5.134z" transform="translate(0 -1)"/>
        <g>
            <path fill="#3E2F3C" d="M0.098 17.609L60.714 17.609 60.714 0.774 0.098 0.774z" transform="translate(0 -1) translate(214.78 50.314)"/>
            <path fill="#D89144" d="M44.813 6.149c4.489 0 8.28 3.139 9.287 7.33-2.74 1.431-4.71 4.156-5.09 7.349h-8.396c-.376-3.193-2.348-5.917-5.089-7.35 1.008-4.19 4.8-7.33 9.288-7.33M17.453 6.149c4.487 0 8.278 3.139 9.286 7.33-2.742 1.431-4.712 4.156-5.089 7.349h-8.396c-.377-3.193-2.348-5.918-5.09-7.35 1.008-4.19 4.799-7.33 9.289-7.33" transform="translate(0 -1) translate(214.78 50.314)"/>
        </g>
        <g transform="translate(0 -1) translate(262.75 62.307)">
            <mask id="prefix__B" fill="#fff">
                <use xlink:href="#prefix__z"/>
            </mask>
            <path fill="url(#prefix__A)" d="M.974 9.956v4.023h19.098V9.956c0-5.25-4.297-9.548-9.549-9.548C5.27.408.973 4.704.973 9.956" mask="url(#prefix__B)"/>
        </g>
        <g transform="translate(0 -1) translate(235.495 62.307)">
            <mask id="prefix__E" fill="#fff">
                <use xlink:href="#prefix__C"/>
            </mask>
            <path fill="url(#prefix__D)" d="M.868 9.956v4.023h19.098V9.956c0-5.25-4.296-9.548-9.548-9.548S.868 4.704.868 9.956" mask="url(#prefix__E)"/>
        </g>
        <g transform="translate(0 -1) translate(208.238 62.307)">
            <mask id="prefix__H" fill="#fff">
                <use xlink:href="#prefix__F"/>
            </mask>
            <path fill="url(#prefix__G)" d="M.763 9.956v4.023h19.1V9.956c0-5.252-4.297-9.548-9.55-9.548C5.06.408.763 4.704.763 9.956" mask="url(#prefix__H)"/>
        </g>
        <g transform="translate(0 -1) translate(233.314 6.704)">
            <mask id="prefix__K" fill="#fff">
                <use xlink:href="#prefix__I"/>
            </mask>
            <path fill="url(#prefix__J)" d="M12.597 5.32c-3.23 0-6.028-1.86-7.38-4.568C4.26 2.665 2.583 4.154.54 4.865c2.554 3.954 7 6.572 12.058 6.572 5.055 0 9.502-2.618 12.057-6.572-2.043-.711-3.72-2.2-4.677-4.113-1.35 2.707-4.15 4.568-7.382 4.568" mask="url(#prefix__K)"/>
        </g>
        <g transform="translate(0 -1) translate(258.39 6.704)">
            <mask id="prefix__N" fill="#fff">
                <use xlink:href="#prefix__L"/>
            </mask>
            <path fill="url(#prefix__M)" d="M17.05 5.32c-3.233 0-6.03-1.86-7.382-4.568C8.315 3.46 5.517 5.32 2.285 5.32c-.738 0-1.453-.098-2.133-.28 1.766 11.732 8.302 21.9 17.568 28.47-3.87 6.912-6.185 14.811-6.474 23.225 1.123-.467 2.35-.724 3.638-.724 5.252 0 9.549 4.297 9.549 9.548V.752C23.08 3.46 20.282 5.32 17.049 5.32" mask="url(#prefix__N)"/>
        </g>
        <g transform="translate(0 -1) translate(208.238 6.704)">
            <mask id="prefix__Q" fill="#fff">
                <use xlink:href="#prefix__O"/>
            </mask>
            <path fill="url(#prefix__P)" d="M8.145 5.32C4.914 5.32 2.115 3.46.763.752v64.796c.007-5.246 4.301-9.537 9.55-9.537 1.286 0 2.515.257 3.637.724-.29-8.414-2.605-16.313-6.473-23.225 9.266-6.57 15.802-16.738 17.567-28.47-.68.182-1.395.28-2.135.28-3.231 0-6.03-1.86-7.382-4.568-1.353 2.707-4.15 4.568-7.382 4.568" mask="url(#prefix__Q)"/>
        </g>
        <g transform="translate(0 -1) translate(208.238 .162)">
            <mask id="prefix__T" fill="#fff">
                <use xlink:href="#prefix__R"/>
            </mask>
            <path fill="url(#prefix__S)" d="M.77.928L.763 7.294c1.352 2.707 4.15 4.568 7.382 4.568 3.232 0 6.03-1.861 7.382-4.568 1.352 2.707 4.151 4.568 7.382 4.568 3.233 0 6.03-1.861 7.384-4.568 1.352 2.707 4.15 4.568 7.38 4.568 3.232 0 6.03-1.861 7.382-4.568 1.352 2.707 4.15 4.568 7.382 4.568 3.232 0 6.029-1.861 7.383-4.568 1.352 2.707 4.148 4.568 7.381 4.568 3.233 0 6.03-1.861 7.383-4.568L74.585.93.77.928z" mask="url(#prefix__T)"/>
        </g>
        <g>
            <path fill="#D89144" d="M166.488 4.972L239.578 4.972 239.578 0.929 166.488 0.929z" transform="translate(0 -1) translate(42.52 .162)"/>
            <path fill="#E1DEB4" d="M233.496 42.023h6.806v-4.177h-6.806c-1.153 0-2.088.935-2.088 2.088 0 1.154.935 2.09 2.088 2.09M173.287 37.846h-6.805v4.178h6.805c1.155 0 2.09-.936 2.09-2.09s-.935-2.088-2.09-2.088" transform="translate(0 -1) translate(42.52 .162)"/>
            <path fill="#6B6E7A" d="M75.346 240.304H9.729c-2.26 0-4.29 1.442-4.965 3.6-5.284 16.849-5.284 41.166 0 58.016.676 2.155 2.705 3.597 4.965 3.597h65.617c2.26 0 4.29-1.442 4.966-3.597 5.282-16.85 5.282-41.167 0-58.016-.676-2.158-2.706-3.6-4.966-3.6" transform="translate(0 -1) translate(42.52 .162)"/>
            <path fill="#535661" d="M66.38 274.307c0 15.898-12.891 28.785-28.784 28.785-15.9 0-28.787-12.887-28.787-28.785 0-15.899 12.887-28.786 28.787-28.786 15.893 0 28.785 12.887 28.785 28.786" transform="translate(0 -1) translate(42.52 .162)"/>
            <path fill="#E2E8F0" d="M64.894 272.912c0 15.898-12.893 28.784-28.785 28.784-15.9 0-28.787-12.886-28.787-28.784 0-15.9 12.886-28.786 28.787-28.786 15.892 0 28.785 12.886 28.785 28.786" transform="translate(0 -1) translate(42.52 .162)"/>
            <path fill="#AABAC8" d="M53.08 255.94c1.962-1.963 5.195-1.606 6.767.682 7.71 11.21 6.585 26.675-3.384 36.643-9.97 9.97-25.435 11.096-36.645 3.385-2.286-1.573-2.645-4.805-.681-6.767L53.08 255.94zM12.539 295.084c2.162 0 3.913 1.752 3.913 3.913 0 2.162-1.751 3.913-3.913 3.913-2.16 0-3.913-1.751-3.913-3.913 0-2.161 1.753-3.913 3.913-3.913zm59.997-50.867c2.882 0 5.217 2.335 5.217 5.217 0 2.882-2.335 5.218-5.217 5.218-2.882 0-5.217-2.336-5.217-5.218s2.335-5.217 5.217-5.217z" transform="translate(0 -1) translate(42.52 .162)"/>
            <path fill="#71C5EE" d="M73.84 266.39c0 .72-.584 1.304-1.304 1.304-.72 0-1.305-.583-1.305-1.304 0-.72.585-1.304 1.305-1.304s1.304.584 1.304 1.304" transform="translate(0 -1) translate(42.52 .162)"/>
            <path fill="#AABAC8" d="M15.148 298.997c0 1.441-1.168 2.609-2.61 2.609-1.44 0-2.607-1.168-2.607-2.61 0-1.44 1.167-2.608 2.608-2.608 1.44 0 2.609 1.168 2.609 2.609" transform="translate(0 -1) translate(42.52 .162)"/>
            <path fill="#2C3141" d="M62.285 272.912c0 14.406-11.682 26.085-26.085 26.085-14.41 0-26.087-11.679-26.087-26.085 0-14.408 11.678-26.087 26.087-26.087 14.403 0 26.085 11.679 26.085 26.087" transform="translate(0 -1) translate(42.52 .162)"/>
            <path fill="#EE403A" d="M44.025 272.912c0 4.322-3.506 7.825-7.825 7.825-4.324 0-7.825-3.503-7.825-7.825 0-4.324 3.5-7.826 7.825-7.826 4.32 0 7.825 3.502 7.825 7.826" transform="translate(0 -1) translate(42.52 .162)"/>
            <path fill="#CD2933" d="M37.504 271.607c-1.441 0-2.609 1.166-2.609 2.61 0 1.44 1.168 2.607 2.61 2.607 1.438 0 2.608-1.166 2.608-2.608 0-1.443-1.17-2.609-2.609-2.609" transform="translate(0 -1) translate(42.52 .162)"/>
            <path fill="#6B6E7A" d="M42.526 259.331l-.582 1.166c2.935 1.364 5.304 3.733 6.67 6.669l1.164-.584c-1.492-3.185-4.064-5.76-7.252-7.25M41.362 261.662l-.807 1.612c1.106.554 2.148 1.286 3.072 2.208.925.925 1.653 1.966 2.208 3.072l1.612-.806c-1.237-2.685-3.401-4.849-6.085-6.086M43.692 257l-.582 1.166c3.438 1.618 6.216 4.396 7.833 7.834l1.166-.583c-1.746-3.69-4.727-6.67-8.417-8.416M57.935 262.504l1.754-.878c-2.565-5.329-6.877-9.64-12.207-12.206l-.877 1.754c4.947 2.38 8.95 6.384 11.33 11.33M46.023 252.34l-.583 1.165c4.443 2.126 8.04 5.72 10.164 10.164l1.165-.583c-2.25-4.694-6.052-8.495-10.746-10.746" transform="translate(0 -1) translate(42.52 .162)"/>
            <path fill="#6B6E7A" d="M44.857 254.67l-.582 1.165c3.94 1.872 7.127 5.06 8.999 9l1.165-.583c-1.998-4.192-5.39-7.584-9.582-9.582" transform="translate(0 -1) translate(42.52 .162)"/>
            <path fill="#AABAC8" d="M36.2 270.303c-1.441 0-2.61 1.165-2.61 2.609 0 1.441 1.169 2.608 2.61 2.608 1.439 0 2.609-1.167 2.609-2.608 0-1.444-1.17-2.609-2.61-2.609" transform="translate(0 -1) translate(42.52 .162)"/>
            <path fill="#E2E8F0" d="M37.239 271.871c.462-.462.3-1.294-.33-1.472-.878-.247-1.861-.025-2.555.668-.691.692-.913 1.675-.666 2.554.178.63 1.01.792 1.472.33l2.079-2.08zM75.144 249.434c0 1.441-1.167 2.609-2.609 2.609-1.44 0-2.607-1.168-2.607-2.61 0-1.44 1.167-2.608 2.607-2.608 1.442 0 2.61 1.169 2.61 2.609" transform="translate(0 -1) translate(42.52 .162)"/>
            <path fill="#E2E8F0" d="M72.536 246.825v-1.078c0-.871-.85-1.534-1.676-1.256-1.533.52-2.747 1.734-3.266 3.268-.28.825.382 1.675 1.254 1.675h1.079c0-1.441 1.169-2.609 2.609-2.609" transform="translate(0 -1) translate(42.52 .162)"/>
            <path fill="#859BAC" d="M72.536 252.042v1.08c0 .87.85 1.534 1.675 1.256 1.534-.521 2.748-1.734 3.267-3.268.28-.825-.383-1.677-1.255-1.677h-1.078c0 1.443-1.169 2.61-2.61 2.61" transform="translate(0 -1) translate(42.52 .162)"/>
            <path fill="#E2E8F0" d="M12.54 298.997l.821 2.464c.775-.26 1.383-.867 1.642-1.643l-2.464-.821zM12.54 298.997l-.822-2.464c-.776.26-1.382.866-1.643 1.643l2.464.82z" transform="translate(0 -1) translate(42.52 .162)"/>
            <g fill="#2C3141">
                <path d="M1.709 43.715c-.44 0-.869-.223-1.114-.625-.376-.615-.181-1.418.434-1.792l2.411-1.47c.612-.378 1.417-.182 1.792.433.376.615.18 1.418-.434 1.793l-2.412 1.47c-.21.13-.445.19-.677.19" transform="translate(0 -1) translate(42.52 .162) translate(49.061 247.487)"/>
                <path d="M1.709 43.715c-.44 0-.869-.223-1.114-.625-.376-.616-.181-1.418.434-1.794l12.197-7.437c2.356-1.435 3.675-4.034 3.445-6.782l-.348-4.126c-.3-3.565.243-7.209 1.57-10.537l4.372-10.951c.267-.67 1.024-.991 1.694-.727.668.266.994 1.026.727 1.694l-4.372 10.95c-1.177 2.954-1.658 6.189-1.392 9.353l.345 4.125c.318 3.739-1.479 7.274-4.682 9.23L2.386 43.523c-.21.13-.445.19-.677.19" transform="translate(0 -1) translate(42.52 .162) translate(49.061 247.487)"/>
            </g>
            <path fill="#E2E8F0" d="M45.847 291.152L43.562 286.462 50.79 282.94 53.075 287.63z" transform="translate(0 -1) translate(42.52 .162)"/>
            <path fill="#E2E8F0" d="M47.051 288.968c-.484 0-.947-.27-1.174-.732-.315-.648-.046-1.429.602-1.744l12.845-6.255c2.478-1.206 4.039-3.67 4.067-6.427l.044-4.14c.039-3.58.922-7.157 2.557-10.342l5.385-10.49c.327-.64 1.112-.894 1.755-.563.641.329.893 1.114.564 1.755l-5.383 10.488c-1.452 2.828-2.237 6.002-2.27 9.18L66 273.837c-.04 3.752-2.161 7.104-5.534 8.746l-12.847 6.254c-.182.09-.377.131-.568.131" transform="translate(0 -1) translate(42.52 .162)"/>
            <path fill="#2C3141" d="M72.536 300.3c-1.44 0-2.609-1.167-2.609-2.608v-26.084c0-1.442 1.169-2.61 2.609-2.61s2.609 1.168 2.609 2.61v26.084c0 1.441-1.169 2.609-2.61 2.609" transform="translate(0 -1) translate(42.52 .162)"/>
            <path fill="#61646F" d="M72.537 298.344c-.36 0-.653-.291-.653-.652v-26.084c0-.361.292-.653.653-.653.36 0 .652.292.652.653v26.084c0 .36-.292.652-.652.652" transform="translate(0 -1) translate(42.52 .162)"/>
            <path fill="#E2E8F0" d="M69.928 288.563L75.145 288.563 75.145 285.954 69.928 285.954z" transform="translate(0 -1) translate(42.52 .162)"/>
            <path fill="#AABAC8" d="M69.928 291.172L75.145 291.172 75.145 288.563 69.928 288.563z" transform="translate(0 -1) translate(42.52 .162)"/>
            <path fill="#AECC67" d="M76.45 289.209c-.09 0-.168-.014-.247-.04-.08-.039-.155-.091-.209-.143-.065-.066-.117-.13-.144-.209-.038-.09-.052-.17-.052-.261 0-.17.066-.338.196-.456.236-.234.678-.234.914 0 .116.118.195.287.195.456 0 .091-.013.17-.052.261-.039.079-.078.143-.143.209-.066.052-.131.104-.209.144-.08.025-.17.039-.248.039" transform="translate(0 -1) translate(42.52 .162)"/>
            <path fill="#2C3141" d="M76.45 286.613c-.168 0-.338-.078-.456-.196-.13-.13-.196-.286-.196-.469 0-.17.066-.326.196-.456.054-.065.13-.105.21-.144.156-.066.338-.066.495 0 .078.039.143.079.209.144.116.13.195.3.195.456 0 .183-.079.34-.195.469-.117.118-.288.196-.457.196M76.45 283.992c-.168 0-.338-.067-.456-.183-.13-.117-.196-.287-.196-.457 0-.182.066-.351.196-.469.236-.234.678-.234.914 0 .116.118.195.287.195.469 0 .17-.079.327-.195.457-.117.116-.288.183-.457.183M76.45 281.383c-.168 0-.338-.066-.456-.183-.13-.13-.196-.299-.196-.47 0-.169.066-.338.196-.455.236-.235.678-.235.914 0 .116.13.195.286.195.455 0 .171-.079.34-.195.47-.117.117-.288.183-.457.183M76.45 278.775c-.168 0-.338-.067-.456-.183-.13-.13-.196-.287-.196-.47 0-.078.014-.17.052-.247.027-.078.079-.145.144-.21.236-.246.678-.246.914 0 .065.065.104.132.143.21.039.078.052.17.052.247 0 .183-.079.34-.195.47-.117.116-.288.183-.457.183M76.45 297.034c-.168 0-.338-.066-.456-.183-.065-.065-.117-.13-.144-.208-.038-.09-.052-.17-.052-.26 0-.17.066-.34.196-.457.236-.235.678-.235.914 0 .116.117.195.286.195.456 0 .091-.013.17-.052.261-.039.079-.078.143-.143.208-.117.117-.288.183-.457.183M76.45 294.439c-.168 0-.338-.079-.456-.197-.13-.13-.196-.285-.196-.467 0-.171.066-.327.196-.457.236-.249.665-.249.914 0 .116.13.195.286.195.457 0 .169-.079.338-.195.467-.117.118-.288.197-.457.197M76.45 291.817c-.168 0-.338-.066-.456-.183-.13-.116-.196-.287-.196-.457 0-.182.066-.35.196-.468.236-.248.678-.248.914 0 .116.117.195.286.195.468 0 .17-.079.327-.195.457-.117.117-.288.183-.457.183M76.45 276.166c-.168 0-.338-.066-.456-.183-.13-.117-.196-.287-.196-.457 0-.182.066-.35.196-.47.236-.233.678-.233.914 0 .116.12.195.288.195.47 0 .17-.079.327-.195.457-.117.117-.288.183-.457.183M76.45 273.57c-.09 0-.168-.026-.247-.052-.08-.039-.155-.091-.209-.144-.13-.13-.196-.285-.196-.468 0-.17.066-.34.196-.457.236-.235.678-.235.914 0 .116.13.195.286.195.457 0 .169-.079.339-.195.468-.066.053-.131.105-.209.144-.08.026-.17.053-.248.053M69.928 292.476L75.145 292.476 75.145 291.172 69.928 291.172z" transform="translate(0 -1) translate(42.52 .162)"/>
            <path fill="#6B6E7A" d="M29.87 286.49l.583-1.165c-2.935-1.364-5.303-3.733-6.668-6.669l-1.165.585c1.492 3.184 4.063 5.758 7.25 7.25M28.704 288.821l.584-1.165c-3.438-1.62-6.216-4.397-7.833-7.834l-1.166.583c1.745 3.689 4.727 6.67 8.415 8.416M31.035 284.16l.807-1.613c-1.107-.554-2.148-1.284-3.071-2.208-.925-.924-1.654-1.966-2.208-3.07l-1.613.805c1.238 2.684 3.402 4.849 6.085 6.086M14.463 283.318l-1.754.878c2.564 5.329 6.876 9.64 12.206 12.206l.878-1.754c-4.948-2.38-8.952-6.384-11.33-11.33" transform="translate(0 -1) translate(42.52 .162)"/>
            <path fill="#6B6E7A" d="M26.375 293.482l.582-1.165c-4.443-2.126-8.038-5.72-10.163-10.165l-1.166.583c2.252 4.695 6.052 8.496 10.747 10.747" transform="translate(0 -1) translate(42.52 .162)"/>
            <path fill="#6B6E7A" d="M27.54 291.152l.583-1.165c-3.94-1.872-7.127-5.06-8.999-9l-1.165.583c1.998 4.192 5.389 7.584 9.58 9.582" transform="translate(0 -1) translate(42.52 .162)"/>
            <path fill="#EE6D58" d="M480.595 325.146l28.814-58.316 3.435 1.697-1.058 2.14c-.469.948-.08 2.1.87 2.57.95.467 2.1.078 2.57-.87l1.056-2.14 3.44 1.699-1.058 2.138c-.47.95-.08 2.1.87 2.57.95.47 2.1.08 2.57-.87l1.057-2.14 3.438 1.7-1.056 2.14c-.47.949-.08 2.1.869 2.568.95.47 2.1.08 2.57-.87l1.056-2.14 3.439 1.7-1.058 2.14c-.468.95-.078 2.1.87 2.568.95.47 2.101.081 2.57-.87l1.056-2.139 3.436 1.697-28.815 58.315-30.941-15.287z" transform="translate(0 -1) translate(42.52 .162)"/>
            <path fill="#E1DEB4" d="M484.189 317.872L504.389 276.989 535.33 292.277 515.131 333.159z" transform="translate(0 -1) translate(42.52 .162)"/>
            <path fill="#C6C29B" d="M484.189 317.872L485.904 314.399 516.846 329.688 515.131 333.159z" transform="translate(0 -1) translate(42.52 .162)"/>
            <path fill="#BF423C" d="M480.595 325.146l1.715-3.473 30.941 15.289-1.715 3.471-30.941-15.287zm23.791-48.151l1.717-3.473 30.94 15.289-1.715 3.471-30.942-15.287z" transform="translate(0 -1) translate(42.52 .162)"/>
            <path fill="#3E2F3C" d="M524.525 300.744l1.178-2.386c.738.364 1.476.728 2.212 1.093l-1.178 2.386-2.212-1.093zm-2.289-1.13c-.737-.366-1.475-.73-2.213-1.094l1.18-2.387 2.212 1.094-1.179 2.386zm-4.502-2.225c-.737-.365-1.475-.73-2.213-1.093l1.18-2.387c.737.364 1.475.728 2.213 1.094l-1.18 2.386zm-4.5-2.224l-2.213-1.094 1.178-2.386 2.213 1.093-1.178 2.387zm-4.502-2.224l-2.213-1.094 1.179-2.386c.738.364 1.476.73 2.214 1.093l-1.18 2.387zm-6.715-3.318l1.179-2.386 2.213 1.093-1.178 2.387-2.214-1.094zm3.196 19.579l6.055 2.992-.912 1.848-8.029-3.967.033-.068c.21-.426.422-.85.63-1.276l.635-1.286c.203-.406.47-.784.822-1.074.311-.256.66-.443 1.05-.544.387-.102.788-.13 1.187-.099.418.033.83.118 1.232.244.413.13.815.29 1.202.483.165.082.336.154.507.222.19.075.386.133.586.177.195.042.395.058.595.043.187-.015.362-.07.522-.169.178-.107.304-.278.396-.46.111-.229.179-.478.163-.735-.014-.245-.088-.472-.214-.682-.142-.238-.333-.44-.544-.617-.249-.205-.526-.375-.814-.517-.234-.117-.48-.2-.736-.255-.242-.05-.487-.069-.733-.046-.225.022-.437.085-.633.197-.19.11-.331.273-.435.466l-.035.064-1.957-.968.035-.068c.195-.385.453-.732.786-1.01.304-.25.647-.44 1.024-.554.378-.115.765-.168 1.16-.16.406.007.809.065 1.2.168.396.104.781.248 1.148.43.396.194.778.423 1.133.685.351.257.67.553.954.883.272.317.489.675.643 1.064.156.392.222.801.204 1.223-.018.475-.159.934-.37 1.359-.212.432-.488.851-.849 1.175-.298.268-.638.475-1.027.583-.371.106-.76.133-1.145.094-.414-.041-.82-.142-1.214-.277-.422-.145-.835-.324-1.235-.523-.175-.086-.354-.161-.537-.228-.196-.072-.4-.125-.606-.165-.198-.034-.399-.046-.6-.028-.187.019-.36.072-.52.17-.168.106-.29.263-.378.438l-.38.768zM494.99 316.487c.017-.15.06-.298.13-.442.324-.658 1.12-.927 1.779-.602l17.704 8.747c.658.325.927 1.12.602 1.78-.325.657-1.12.926-1.78.601l-17.704-8.748c-.514-.254-.791-.797-.731-1.336M492.78 309.955c.016-.15.058-.3.13-.443.324-.657 1.119-.927 1.777-.602l22.077 10.908c.657.325.928 1.119.602 1.778-.324.657-1.121.927-1.779.601l-22.076-10.906c-.515-.255-.792-.798-.732-1.336M504.289 284.412c.016-.149.059-.298.13-.442.325-.658 1.12-.927 1.778-.602l22.968 11.35c.659.324.928 1.12.603 1.778-.325.658-1.12.927-1.78.603l-22.968-11.35c-.514-.255-.791-.798-.731-1.337M499.985 293.124c.017-.15.06-.3.13-.443.324-.657 1.12-.928 1.778-.602l22.969 11.349c.657.325.927 1.12.603 1.778-.325.657-1.121.928-1.78.603l-22.968-11.35c-.515-.254-.792-.797-.732-1.335" transform="translate(0 -1) translate(42.52 .162)"/>
            <path fill="#EE6D58" d="M458.47 318.327l7.132-64.654 3.807.421-.262 2.372c-.115 1.054.645 2.001 1.698 2.117 1.05.116 2-.644 2.116-1.696l.26-2.372 3.813.42-.261 2.372c-.116 1.053.644 2 1.696 2.117 1.053.116 2-.643 2.116-1.696l.262-2.373 3.813.421-.262 2.373c-.116 1.053.644 2 1.696 2.116 1.053.116 2-.643 2.116-1.697l.263-2.37 3.813.419-.263 2.372c-.115 1.053.644 2 1.697 2.117 1.053.116 2-.644 2.116-1.696l.262-2.372 3.808.42-7.132 64.654-34.303-3.785z" transform="translate(0 -1) translate(42.52 .162)"/>
            <path fill="#F2EED1" d="M459.361 310.263L464.359 264.938 498.663 268.721 493.664 314.047z" transform="translate(0 -1) translate(42.52 .162)"/>
            <path fill="#E1DEB4" d="M459.361 310.263L459.785 306.415 494.09 310.198 493.664 314.047z" transform="translate(0 -1) translate(42.52 .162)"/>
            <path fill="#BF423C" d="M458.471 318.327L458.896 314.479 493.199 318.262 492.774 322.112zM464.359 264.938L464.785 261.089 499.088 264.873 498.663 268.722z" transform="translate(0 -1) translate(42.52 .162)"/>
            <path fill="#5B4559" d="M491.404 280.373l.292-2.646 2.454.27-.292 2.646-2.454-.27zm-2.536-.28c-.818-.09-1.635-.181-2.454-.27l.29-2.647 2.455.27-.291 2.647zm-4.991-.55c-.818-.091-1.636-.182-2.453-.271l.29-2.646 2.454.271-.291 2.645zm-4.99-.551l-2.453-.27.29-2.646 2.454.27-.291 2.646zm-4.992-.55l-2.453-.271.293-2.645 2.453.27-.293 2.646zm-7.444-.82l.292-2.647 2.453.27-.292 2.646-2.453-.27zm10.664 10.433l-.194 1.747 2.025.224c.45.049.899.136 1.335.268.409.124.802.291 1.167.515.344.21.648.472.9.786.256.32.433.686.539 1.08.122.45.132.925.08 1.386-.053.459-.172.91-.387 1.32-.193.369-.443.697-.76.968-.31.268-.658.477-1.039.63-.39.158-.8.259-1.218.308-.435.051-.875.05-1.31.001-.462-.051-.922-.135-1.37-.263-.415-.116-.817-.277-1.19-.492-.348-.2-.658-.452-.916-.76-.259-.31-.441-.668-.551-1.058-.127-.446-.142-.919-.096-1.378l.007-.076 2.172.239-.007.074c-.02.201-.005.404.076.592.074.172.185.32.327.443.152.133.325.24.51.323.195.088.4.158.609.21.204.05.413.087.623.108.253.029.507.024.76-.006.254-.033.5-.103.732-.213.225-.107.417-.26.57-.459.169-.219.254-.48.286-.752.028-.25.01-.511-.107-.74-.11-.212-.262-.38-.46-.515-.213-.145-.45-.252-.697-.327-.264-.08-.536-.136-.812-.165l-4.165-.457.009-.077.21-1.908.208-1.883.212-1.918.009-.076 7.974.88-.228 2.064-5.833-.643zM463.174 304.165c.081-.73.736-1.254 1.466-1.175l1.82.201c.73.082 1.255.736 1.175 1.465-.08.73-.736 1.255-1.466 1.175l-1.82-.201c-.73-.08-1.254-.736-1.175-1.465M469.007 304.808c.08-.729.736-1.254 1.465-1.173l19.629 2.164c.73.08 1.255.736 1.174 1.465-.08.73-.736 1.254-1.465 1.174l-19.63-2.165c-.728-.08-1.254-.736-1.173-1.465M463.705 299.316c.08-.728.737-1.254 1.465-1.173l25.466 2.808c.728.08 1.255.736 1.173 1.466-.08.728-.735 1.253-1.464 1.173l-25.466-2.809c-.73-.08-1.254-.736-1.174-1.465M466.774 271.488c.08-.73.737-1.255 1.465-1.174l25.467 2.808c.728.08 1.254.736 1.173 1.466-.08.729-.735 1.253-1.465 1.174l-25.466-2.809c-.729-.08-1.253-.737-1.174-1.465M465.71 281.145c.079-.73.735-1.254 1.465-1.174l25.465 2.808c.73.08 1.255.737 1.174 1.465-.08.73-.736 1.254-1.464 1.175l-25.466-2.809c-.73-.08-1.255-.736-1.175-1.465" transform="translate(0 -1) translate(42.52 .162)"/>
            <path fill="#3E2F3C" d="M244.342 92.283c10.769 0 19.55-8.782 19.55-19.55s-8.781-19.55-19.55-19.55c-10.768 0-19.55 8.782-19.55 19.55s8.782 19.55 19.55 19.55" transform="translate(0 -1) translate(42.52 .162)"/>
            <path fill="#3E2F3C" d="M229.768 93.421c-3.692-6.012-4.201-12.607-4.233-17.683l2.681-.015c.03 4.725.49 10.848 3.837 16.295l-2.285 1.403zM244.79 100.927l-.01-2.678 10.196-.039c11.506 0 20.863-9.357 20.863-20.858 0-6.867 5.586-12.453 12.453-12.453v2.679c-5.39 0-9.773 4.385-9.773 9.774 0 12.978-10.56 23.538-23.538 23.538l-10.19.037z" transform="translate(0 -1) translate(42.52 .162)"/>
        </g>
        <g transform="translate(0 -1) translate(269.292 55.765)">
            <mask id="prefix__W" fill="#fff">
                <use xlink:href="#prefix__U"/>
            </mask>
            <path fill="url(#prefix__V)" d="M.606 17.13c0 9.345 7.621 16.963 16.963 16.963 9.345 0 16.965-7.618 16.965-16.963 0-9.342-7.62-16.963-16.965-16.963C8.227.167.606 7.787.606 17.13" mask="url(#prefix__W)"/>
        </g>
        <g fill="#3E2F3C">
            <path d="M13.325.757c9.645 0 17.464 7.818 17.464 17.464 0 9.644-7.819 17.464-17.464 17.464-.507 0-1.009-.023-1.505-.065 8.941-.764 15.96-8.262 15.96-17.4 0-9.138-7.019-16.635-15.96-17.397.496-.043.998-.066 1.505-.066" transform="translate(0 -1) translate(273.653 54.675)"/>
            <path d="M23.166 15.817c-.89-3.699-3.855-6.663-7.555-7.553l.584-2.427c4.602 1.107 8.29 4.795 9.398 9.397l-2.427.583zM16.195 30.605l-.583-2.428c3.698-.889 6.664-3.854 7.554-7.553l2.426.583c-1.106 4.603-4.795 8.29-9.397 9.398M10.223 30.605C5.62 29.498 1.932 25.81.825 21.207l2.426-.583c.89 3.699 3.856 6.664 7.556 7.553l-.584 2.428zM3.252 15.817l-2.427-.583c1.107-4.603 4.796-8.291 9.399-9.397l.583 2.427c-3.7.889-6.666 3.853-7.555 7.553" transform="translate(0 -1) translate(273.653 54.675)"/>
        </g>
        <g transform="translate(0 -1) translate(258.39 43.773)">
            <mask id="prefix__Z" fill="#fff">
                <use xlink:href="#prefix__X"/>
            </mask>
            <path fill="url(#prefix__Y)" d="M.2 29.124c0 15.615 12.657 28.272 28.272 28.272 15.615 0 28.272-12.657 28.272-28.272C56.744 13.509 44.087.85 28.472.85 12.857.85.2 13.51.2 29.124m31.164-7.33v-9.209c0-.017 0-.03.003-.047v-.011c.024-2.428 2-4.39 4.434-4.39.633 0 1.235.133 1.78.372l.137.064c5.01 2.256 9.047 6.292 11.305 11.302.28.58.435 1.231.435 1.918 0 2.443-1.975 4.424-4.414 4.436h-9.249c-2.446-.003-4.43-1.988-4.43-4.436m-23.877 0c0-.687.156-1.338.434-1.918 2.259-5.01 6.294-9.046 11.305-11.302l.137-.064c.545-.24 1.147-.371 1.78-.371 2.435 0 4.41 1.961 4.436 4.389V21.793c0 2.448-1.983 4.433-4.43 4.436H11.9c-2.44-.012-4.413-1.993-4.413-4.436M31.367 45.72v-.012c-.003-.017-.003-.03-.003-.046v-9.209c0-2.448 1.985-4.432 4.431-4.437h9.248c2.44.012 4.415 1.994 4.415 4.437 0 .686-.156 1.338-.435 1.918-2.258 5.01-6.295 9.046-11.305 11.303l-.137.062c-.545.24-1.147.372-1.78.372-2.435 0-4.41-1.961-4.434-4.388m-12.003 4.016l-.137-.062c-5.011-2.257-9.046-6.294-11.305-11.303-.278-.58-.434-1.232-.434-1.918 0-2.443 1.973-4.425 4.413-4.437h9.249c2.447.005 4.43 1.989 4.43 4.437v9.267c-.027 2.427-2.001 4.388-4.436 4.388-.633 0-1.235-.132-1.78-.372" mask="url(#prefix__Z)"/>
        </g>
        <g>
            <path fill="#BF423C" d="M29.926 8.403c-.472-.171-.982-.265-1.514-.265-2.433 0-4.41 1.961-4.434 4.39V21.792c0 2.448 1.982 4.433 4.429 4.437H31.434c-2.446-.004-4.43-1.99-4.43-4.437V12.583v-.055c.02-1.899 1.232-3.511 2.922-4.125M3.56 19.874c2.26-5.01 6.294-9.044 11.305-11.301.046-.022.092-.044.136-.063.09-.04.178-.074.268-.107-.473-.172-.982-.265-1.514-.265-.632 0-1.235.132-1.78.372l-.138.063C6.828 10.83 2.792 14.865.535 19.874c-.28.582-.435 1.232-.435 1.92 0 2.441 1.973 4.424 4.412 4.436h3.043-.014c-2.442-.012-4.415-1.995-4.415-4.437 0-.687.157-1.337.435-1.919m26.366 29.97c-1.691-.615-2.903-2.227-2.922-4.124v-.012l-.001-.046v-9.209c0-2.449 1.984-4.433 4.43-4.436H28.407c-2.447.003-4.43 1.987-4.43 4.436V45.663l.001.045v.012c.024 2.427 2 4.388 4.434 4.388.532 0 1.042-.094 1.515-.265M3.56 38.371c2.26 5.01 6.294 9.045 11.305 11.302.046.022.092.044.136.063.09.039.178.075.268.107-.473.173-.982.265-1.514.265-.632 0-1.235-.132-1.78-.372l-.138-.063C6.828 47.416 2.792 43.38.535 38.371.255 37.79.1 37.139.1 36.453c0-2.443 1.973-4.424 4.412-4.436H7.554 7.54c-2.442.012-4.415 1.993-4.415 4.436 0 .686.157 1.338.435 1.918M24.111.85c15.614 0 28.273 12.659 28.273 28.272 0 15.615-12.66 28.274-28.273 28.274-.508 0-1.013-.015-1.514-.042 14.911-.786 26.76-13.125 26.76-28.232 0-15.106-11.849-27.445-26.76-28.232.501-.026 1.006-.04 1.514-.04" transform="translate(0 -1) translate(262.75 43.773)"/>
            <path fill="#EEA74E" d="M22.723 31.469c1.293 0 2.345-1.054 2.345-2.346 0-1.291-1.052-2.345-2.345-2.345-1.292 0-2.345 1.054-2.345 2.345 0 1.292 1.053 2.346 2.345 2.346" transform="translate(0 -1) translate(262.75 43.773)"/>
        </g>
        <g fill="#FFF">
            <path d="M14.403 35.99c-.006-1.15-.417-2.118-1.233-2.907-.814-.786-2.181-1.502-4.113-2.131-2.68-.803-4.641-1.858-5.873-3.16-1.232-1.314-1.85-2.974-1.86-4.991-.008-2.058.584-3.746 1.784-5.071 1.194-1.322 2.838-2.11 4.942-2.368l-.014-4.12 2.81-.011.019 4.136c2.112.282 3.762 1.151 4.944 2.63 1.183 1.477 1.777 3.502 1.79 6.074l-3.471.016c-.008-1.779-.438-3.187-1.282-4.226-.852-1.039-1.986-1.562-3.42-1.558-1.5.008-2.642.4-3.433 1.178-.791.777-1.184 1.856-1.176 3.239.005 1.284.425 2.297 1.267 3.062.838.751 2.222 1.44 4.142 2.046 1.92.623 3.423 1.297 4.5 2.042 1.077.741 1.87 1.607 2.39 2.594.508.989.77 2.149.779 3.479.009 2.117-.623 3.83-1.896 5.123-1.273 1.297-3.057 2.072-5.36 2.323l.018 3.588-2.796.01-.017-3.587c-2.338-.21-4.176-1.033-5.51-2.476C1.001 39.478.33 37.516.321 35.038l3.49-.014c.006 1.744.471 3.08 1.393 4.023.923.939 2.226 1.402 3.912 1.393 1.648-.006 2.946-.413 3.885-1.205.938-.794 1.409-1.875 1.402-3.245" transform="translate(0 -1) translate(263 212)"/>
            <text font-family="Roboto-Regular, Roboto" font-size="47" transform="translate(0 -1) translate(263 212)">
                <tspan x="20.508" y="44">600</tspan>
            </text>
        </g>
        <text fill="#0E6DA0" font-family="PingFangTC-Semibold, PingFang TC" font-size="24" font-weight="500" letter-spacing=".1" transform="translate(0 -1)">
            <tspan x="180.95" y="351"></tspan>
        </text>
        <text fill="#FFF" font-family="PingFangTC-Regular, PingFang TC" font-size="24" letter-spacing="1" transform="translate(0 -1) rotate(-29 495 98.5)">
            <tspan x="470.076" y="107">ART</tspan>
        </text>
        <text fill="#FFF" font-family="PingFangTC-Regular, PingFang TC" font-size="24" letter-spacing="1" transform="translate(0 -1) rotate(21 53.5 147.5)">
            <tspan x="16.688" y="156">BOOK</tspan>
        </text>
        <text fill="#FFF" font-family="PingFangTC-Regular, PingFang TC" font-size="24" letter-spacing="1" transform="translate(0 -1) rotate(1 116 63)">
            <tspan x="77.412" y="71.5">SHOW</tspan>
        </text>
    </g>
</svg>
