<svg xmlns="http://www.w3.org/2000/svg" xmlns:xlink="http://www.w3.org/1999/xlink" width="570" height="354" viewBox="0 0 570 354">
    <defs>
        <linearGradient id="prefix__b" x1="49.999%" x2="49.999%" y1="7.659%" y2="91.392%">
            <stop offset="0%" stop-color="#F2EDD1"/>
            <stop offset="100%" stop-color="#C6C19A"/>
        </linearGradient>
        <linearGradient id="prefix__d" x1="50%" x2="50%" y1="28.733%" y2="95.724%">
            <stop offset="0%" stop-color="#ED6D57"/>
            <stop offset="100%" stop-color="#BF423B"/>
        </linearGradient>
        <linearGradient id="prefix__f" x1="76.995%" x2="-28.183%" y1="46.311%" y2="58.849%">
            <stop offset="0%" stop-color="#F2EDD1"/>
            <stop offset="100%" stop-color="#C6C19A"/>
        </linearGradient>
        <linearGradient id="prefix__h" x1="50.001%" x2="50.001%" y1="87.643%" y2="14.419%">
            <stop offset="0%" stop-color="#F4C167"/>
            <stop offset="100%" stop-color="#D89044"/>
        </linearGradient>
        <linearGradient id="prefix__i" x1="49.997%" x2="49.997%" y1="85.289%" y2="41.403%">
            <stop offset="0%" stop-color="#F2EDD1"/>
            <stop offset="100%" stop-color="#C6C19A"/>
        </linearGradient>
        <linearGradient id="prefix__k" x1="50%" x2="50%" y1="-2.89%" y2="131.86%">
            <stop offset="0%" stop-color="#F2EDD1"/>
            <stop offset="100%" stop-color="#C6C19A"/>
        </linearGradient>
        <linearGradient id="prefix__n" x1="50.003%" x2="50.003%" y1="-2.89%" y2="131.861%">
            <stop offset="0%" stop-color="#F2EDD1"/>
            <stop offset="100%" stop-color="#C6C19A"/>
        </linearGradient>
        <linearGradient id="prefix__p" x1="50%" x2="50%" y1="77.213%" y2="30.945%">
            <stop offset="0%" stop-color="#5B4459"/>
            <stop offset="100%" stop-color="#3D2F3B"/>
        </linearGradient>
        <linearGradient id="prefix__r" x1="49.999%" x2="49.999%" y1="33.506%" y2="108.674%">
            <stop offset="0%" stop-color="#F4C167"/>
            <stop offset="100%" stop-color="#D89044"/>
        </linearGradient>
        <linearGradient id="prefix__u" x1="50%" x2="50%" y1="33.506%" y2="108.674%">
            <stop offset="0%" stop-color="#F4C167"/>
            <stop offset="100%" stop-color="#D89044"/>
        </linearGradient>
        <linearGradient id="prefix__x" x1="49.998%" x2="49.998%" y1="33.506%" y2="108.674%">
            <stop offset="0%" stop-color="#F4C167"/>
            <stop offset="100%" stop-color="#D89044"/>
        </linearGradient>
        <linearGradient id="prefix__A" x1="49.999%" x2="49.999%" y1="-77.093%" y2="241.425%">
            <stop offset="0%" stop-color="#ED6D57"/>
            <stop offset="100%" stop-color="#BF423B"/>
        </linearGradient>
        <linearGradient id="prefix__D" x1="50.001%" x2="50.001%" y1="-1.313%" y2="83.916%">
            <stop offset="0%" stop-color="#ED6D57"/>
            <stop offset="100%" stop-color="#BF423B"/>
        </linearGradient>
        <linearGradient id="prefix__G" x1="49.999%" x2="49.999%" y1="-1.313%" y2="83.916%">
            <stop offset="0%" stop-color="#ED6D57"/>
            <stop offset="100%" stop-color="#BF423B"/>
        </linearGradient>
        <linearGradient id="prefix__J" x1="-.001%" x2="100.001%" y1="49.997%" y2="49.997%">
            <stop offset="0%" stop-color="#F4C167"/>
            <stop offset="100%" stop-color="#D89044"/>
        </linearGradient>
        <linearGradient id="prefix__M" x1="37.393%" x2="88.522%" y1="12.205%" y2="125.26%">
            <stop offset="0%" stop-color="#F2EDD1"/>
            <stop offset="100%" stop-color="#C6C19A"/>
        </linearGradient>
        <path id="prefix__a" d="M5.695.768v6.318h1.667L.666 62.074h3.562c4.18 0 9.565-2.098 11.96-4.745 2.38 2.67 7.781 4.745 11.96 4.745h3.563L25.015 7.086h1.667V.768H5.695z"/>
        <path id="prefix__e" d="M.35.546V12.73c.897 1.846 2.791 3.119 4.982 3.119 2.192 0 4.086-1.273 4.983-3.12.897 1.847 2.791 3.12 4.982 3.12 2.193 0 4.086-1.273 4.984-3.12.896 1.847 2.79 3.12 4.982 3.12s4.086-1.273 4.983-3.12c.897 1.847 2.79 3.12 4.983 3.12 2.19 0 4.085-1.273 4.983-3.12.897 1.847 2.79 3.12 4.983 3.12 2.19 0 4.082-1.273 4.98-3.118V.546H.35z"/>
        <path id="prefix__j" d="M4.831.32C3.39 1.027-.795 4.978.133 6.864c.927 1.884 6.615.988 8.057.28 1.442-.708 1.537-2.65.61-4.537C8.064 1.113 6.906.105 5.739.105c-.304 0-.61.068-.908.214"/>
        <path id="prefix__m" d="M.719 2.608c-.927 1.886-.832 3.83.61 4.536 1.442.71 7.131 1.605 8.058-.279C10.315 4.98 6.13 1.028 4.69.32c-.3-.146-.604-.214-.908-.214-1.168 0-2.326 1.008-3.062 2.503"/>
        <path id="prefix__q" d="M.55 11.013V15.4h20.833v-4.387c0-5.728-4.686-10.416-10.417-10.416C5.238.597.551 5.284.551 11.013"/>
        <path id="prefix__t" d="M.706 11.013V15.4h20.832v-4.387c0-5.728-4.687-10.416-10.415-10.416C5.394.597.706 5.284.706 11.013"/>
        <path id="prefix__w" d="M.862 11.013V15.4h20.833v-4.387c0-5.73-4.687-10.416-10.417-10.416C5.55.597.862 5.284.862 11.013"/>
        <path id="prefix__z" d="M14.025 5.306c-3.524 0-6.576-2.03-8.052-4.983C4.93 2.41 3.102 4.035.875 4.81c2.785 4.312 7.633 7.168 13.151 7.168 5.516 0 10.364-2.856 13.151-7.168-2.228-.775-4.058-2.4-5.1-4.487-1.475 2.953-4.527 4.983-8.052 4.983"/>
        <path id="prefix__C" d="M19.135 5.306c-3.524 0-6.577-2.03-8.05-4.983C9.61 3.276 6.556 5.306 3.032 5.306 2.228 5.306 1.447 5.2.704 5 2.63 17.797 9.76 28.89 19.868 36.055c-4.22 7.539-6.747 16.155-7.063 25.333 1.224-.51 2.566-.79 3.968-.79 5.73 0 10.417 4.687 10.417 10.415V.323c-1.476 2.953-4.528 4.983-8.055 4.983"/>
        <path id="prefix__F" d="M8.914 5.306c-3.526 0-6.578-2.03-8.052-4.983v70.678c.007-5.723 4.69-10.404 10.416-10.404 1.403 0 2.744.282 3.967.79-.316-9.177-2.841-17.793-7.06-25.332C18.29 28.89 25.421 17.797 27.345 5c-.742.2-1.522.306-2.328.306-3.525 0-6.577-2.03-8.053-4.983-1.474 2.953-4.527 4.983-8.051 4.983"/>
        <path id="prefix__I" d="M.869.154L.862 7.097c1.474 2.953 4.526 4.983 8.052 4.983 3.525 0 6.577-2.03 8.051-4.983 1.476 2.953 4.528 4.983 8.053 4.983 3.525 0 6.577-2.03 8.052-4.983 1.475 2.953 4.528 4.983 8.051 4.983 3.526 0 6.578-2.03 8.053-4.983 1.475 2.953 4.526 4.983 8.051 4.983 3.527 0 6.577-2.03 8.054-4.983 1.473 2.953 4.525 4.983 8.05 4.983 3.526 0 6.578-2.03 8.054-4.983V.16L.87.154z"/>
        <path id="prefix__L" d="M17.714 5.974C16.444 2.747 13.304.459 9.626.459 4.822.459.93 4.352.93 9.156c0 4.17 2.937 7.65 6.855 8.497v19.366h20.16V17.576c3.765-.955 6.555-4.358 6.555-8.42 0-4.804-3.893-8.697-8.696-8.697-3.68 0-6.819 2.288-8.09 5.515"/>
    </defs>
    <g fill="none" fill-rule="evenodd">
        <path stroke="#0E6DA0" stroke-width="2" d="M237.952 88.892L237.952 160.046"/>
        <g>
            <path fill="#AFD7A6" d="M69.53 157.979c1.248-3.42 5.031-5.203 8.455-3.96 3.432 1.231 5.205 5.018 3.967 8.44-1.228 3.436-5.013 5.203-8.432 3.972-3.436-1.234-5.22-5.015-3.99-8.452zm1.872 30.511l24.765-20.918-5.732-31.897-71.413-25.721L0 162.792l71.402 25.698z" transform="translate(0 2.75)"/>
            <path fill="#FFF" d="M51.072 134.894L55.185 136.377 29.868 158.733 25.771 157.261zM31.045 136.82c.59-1.62 1.289-3.569 2.958-3.648.296-.015.595.032.9.145 2.289.809 1.34 3.483.768 5.08-.594 1.664-1.305 3.614-2.974 3.693-.296.014-.605-.034-.91-.149-.584-.209-.999-.57-1.247-1.085-.54-1.153.015-2.689.505-4.036m-1.032 7.24c4.546 1.641 7.618-.585 9.105-4.72 1.496-4.13.538-7.8-4.001-9.434-4.555-1.652-7.62.58-9.11 4.711-1.49 4.142-.542 7.799 4.006 9.444M45.667 155.288c.57-1.577 1.269-3.556 2.954-3.632.291-.016.6.034.895.145.602.22 1.574.815 1.483 2.448-.055.876-.402 1.839-.718 2.685-.582 1.616-1.3 3.566-2.972 3.652-.292.007-.581-.036-.887-.147-.586-.207-1.013-.579-1.256-1.1-.553-1.173.028-2.767.501-4.05m-.212 8.304c4.542 1.628 7.622-.583 9.101-4.714 1.495-4.138.542-7.807-4.011-9.446-4.534-1.63-7.608.589-9.103 4.717-1.492 4.136-.53 7.808 4.013 9.443" transform="translate(0 2.75)"/>
            <path stroke="#747374" stroke-linecap="round" stroke-linejoin="round" stroke-width="3.265" d="M77.363 161.434s45.814 20.24 57.116-1.126c11.301-21.366-6.613-31.892-14.38-19.88-7.76 12.02 21.14 43.343 46.307 35.712 29.78-9.015 59.109-89.865 16.675-86.293-36.434 3.068-30.329 95.551 58.148 82.056M79.55 157.657s12.208 5.873 18.136 5.265" transform="translate(0 2.75)"/>
            <path stroke="#0E6DA0" stroke-width="2" d="M394.987 228.673L504.015 298.194" transform="translate(0 2.75)"/>
            <path fill="#596273" d="M429.315 117.501c-2.487 1.393-5.62.51-7.006-1.965-1.399-2.482-.517-5.62 1.962-7.01 2.475-1.395 5.616-.513 7.01 1.969 1.39 2.472.51 5.614-1.966 7.006m78.216-24.717l-21.45-38.183c-.834-1.489-2.71-2.015-4.199-1.18l-71.06 39.908c-.96.538-1.56 1.553-1.579 2.653l-.297 25.286c-.012 1.102.556 2.13 1.504 2.692l21.756 12.903c.947.56 2.134.574 3.086.036l71.06-39.912c1.485-.834 2.017-2.718 1.179-4.203" transform="translate(0 2.75)"/>
            <path fill="#FFF" d="M446.297 115.314c-1.449.819-3.066 1.23-3.878 1.225l-1.206-3.33c.964-.002 2.394-.419 3.389-.98 1.64-.92 1.993-2.254 1.327-3.437-.744-1.322-1.915-1.513-4.007-1.647-3.328-.117-5.345-1.498-6.273-3.146-1.626-2.904-1.046-6.419 2.721-8.536 1.218-.683 2.53-.995 3.215-.957l1.153 3.363c-.694-.038-1.642.105-2.64.663-1.512.846-1.724 2.171-1.18 3.141.608 1.08 1.461 1.343 4.07 1.437 3.238.094 5.126 1.442 6.207 3.354 1.86 3.312.63 6.87-2.898 8.85M474.75 99.125L466.588 103.707 456.398 85.551 459.923 83.571 468.441 98.733 473.074 96.135zM485.015 93.36L476.822 97.958 466.632 79.803 474.519 75.371 476.247 78.442 471.884 80.892 474.226 85.065 478.349 82.75 479.998 85.689 475.882 88.002 478.628 92.906 483.284 90.288zM453.617 101.922l-1.46-4.173c-.396-1.161-1.171-3.168-1.665-4.487l.082-.049c.83 1.096 2.1 2.793 2.906 3.79l2.726 3.467-2.59 1.452zm-2.734-13.27l-4.234 2.374 6.266 20.36 3.416-1.919-1.52-4.602 3.263-1.833 3.11 3.712 3.415-1.92-13.716-16.173z" transform="translate(0 2.75)"/>
            <path stroke="#747374" stroke-linecap="round" stroke-linejoin="round" stroke-width="2.535" d="M423.82 113.31s-11.455-1.225-14.875 7.958c-3.207 8.592 1.716 32.279-20.048 42.855" transform="translate(0 2.75)"/>
            <path fill="#F36C36" d="M172.209 86.252c1.991-1.76 4.48-3.95 4.48-7.142 0-3.19-2.489-5.379-4.48-7.138-.73-.642-1.95-1.719-2.12-2.085-.047-.53.614-2.098 1.008-3.035 1.013-2.411 2.274-5.411.921-8.213-1.376-2.84-4.529-3.725-7.067-4.439-.96-.267-2.557-.714-2.882-.988-.264-.454-.336-2.127-.39-3.13-.13-2.624-.301-5.89-2.752-7.846-1.146-.918-2.633-1.38-4.413-1.38-1.289 0-2.577.223-3.823.441-.975.169-1.98.348-2.694.348-.249 0-.379-.037-.398-.017-.432-.33-1.192-1.74-1.65-2.586-1.274-2.329-2.848-5.223-5.936-5.926-.421-.094-.849-.143-1.288-.143-2.48 0-4.591 1.522-6.464 2.862-.837.598-2.24 1.606-2.713 1.673-.538-.067-1.938-1.075-2.775-1.673-1.872-1.34-3.986-2.862-6.466-2.862-.437 0-.871.05-1.288.143-3.088.703-4.667 3.597-5.929 5.926-.473.862-1.257 2.307-1.586 2.557 0 0-.133.04-.477.04-.711 0-1.716-.175-2.683-.348-1.25-.213-2.538-.439-3.826-.439-1.785 0-3.276.464-4.415 1.38-2.453 1.952-2.614 5.224-2.747 7.85-.047 1-.13 2.671-.33 3.045-.39.351-1.986.8-2.942 1.067-2.534.713-5.706 1.597-7.074 4.437-1.353 2.803-.088 5.804.925 8.214.39.942 1.055 2.509 1.031 2.939-.183.469-1.421 1.546-2.14 2.188-1.999 1.76-4.479 3.948-4.479 7.138 0 3.191 2.48 5.378 4.479 7.137.719.64 1.957 1.715 2.117 2.082.047.53-.618 2.103-1.008 3.04-1.013 2.407-2.278 5.41-.918 8.212 1.361 2.84 4.533 3.726 7.067 4.433.956.272 2.564.72 2.878.992.264.45.347 2.124.394 3.125.133 2.627.294 5.892 2.747 7.852 1.14.916 2.63 1.38 4.415 1.38 1.288 0 2.58-.229 3.833-.443.97-.17 1.965-.347 2.676-.347.267 0 .39.021.402.014.431.333 1.195 1.739 1.661 2.585 1.262 2.325 2.84 5.222 5.929 5.924.417.099.851.145 1.288.145 2.48 0 4.594-1.517 6.466-2.86.837-.602 2.237-1.61 2.71-1.673.539.063 1.938 1.07 2.778 1.672 1.873 1.344 3.984 2.861 6.464 2.861.44 0 .867-.046 1.288-.145 3.088-.702 4.662-3.6 5.935-5.924.467-.866 1.253-2.309 1.586-2.56 0 0 .127-.039.463-.039.714 0 1.72.174 2.686.345 1.247.216 2.542.446 3.83.446 1.781 0 3.268-.465 4.414-1.381 2.443-1.96 2.615-5.225 2.745-7.852.053-1.001.13-2.674.328-3.047.386-.35 1.984-.798 2.943-1.066 2.546-.709 5.699-1.596 7.075-4.433 1.345-2.802.092-5.805-.921-8.216-.394-.937-1.055-2.51-1.043-2.935.206-.468 1.425-1.543 2.155-2.182" transform="translate(0 2.75)"/>
            <path fill="#FFF" d="M117.528 92.555h-4.001l-3.437-8.55c-.767-1.903-1.78-4.778-2.312-6.782h-.069c.138 2.27.306 5.748.306 10.29v5.042h-3.848V70.042h4.017l3.47 8.82c.706 1.737 1.777 4.641 2.407 6.58h.066c-.131-2.372-.436-6.281-.436-10.422v-4.978h3.837v22.513zM131.551 92.555L121.399 92.555 121.399 70.042 131.196 70.042 131.196 73.851 125.772 73.851 125.772 79.027 130.882 79.027 130.882 82.668 125.772 82.668 125.772 88.748 131.551 88.748zM150.993 92.555h-4.51l-1.341-7.376c-.36-2.08-.696-4.65-1.002-7.384h-.064c-.406 2.702-.769 5.208-1.24 7.41l-1.501 7.35h-4.35l-3.826-22.513h4.545l1.097 8.985c.298 2.572.505 5.14.772 7.885h.088c.313-2.774.81-5.213 1.28-7.919l1.602-8.951h3.535l1.507 8.885c.4 2.54.806 5.048 1.069 7.985h.069c.298-2.937.566-5.344.875-7.952l1.093-8.918h4.277l-3.975 22.513z" transform="translate(0 2.75)"/>
            <path fill="#0E6DA0" d="M546.263 294.42c0 23.546-19.101 42.64-42.647 42.64-23.54 0-42.632-19.094-42.632-42.64 0-23.549 19.091-42.638 42.632-42.638 23.546 0 42.647 19.09 42.647 42.638" transform="translate(0 2.75)"/>
            <path stroke="#0E6DA0" stroke-width="2" d="M181.182 202.67L72.154 272.191" transform="translate(0 2.75)"/>
            <path fill="#0E6DA0" d="M29.905 268.417c0 23.546 19.102 42.64 42.648 42.64 23.54 0 42.632-19.094 42.632-42.64 0-23.55-19.092-42.638-42.632-42.638-23.546 0-42.648 19.089-42.648 42.638" transform="translate(0 2.75)"/>
            <path stroke="#0E6DA0" stroke-width="2" d="M388.955 216.123L513.754 182.281" transform="translate(0 2.75)"/>
            <path fill="#0E6DA0" d="M539.4 148.495c17.414 15.848 18.678 42.827 2.83 60.24-15.845 17.41-42.816 18.679-60.23 2.831-17.417-15.85-18.684-42.818-2.84-60.227 15.849-17.416 42.823-18.694 60.24-2.844" transform="translate(0 2.75)"/>
            <path stroke="#747374" stroke-linecap="round" stroke-linejoin="round" stroke-width="2.535" d="M423.82 116.58s-6.69-2.413-13.37 7.38" transform="translate(0 2.75)"/>
            <path fill="#0E6DA0" d="M283.445 46.067c0 25.122-20.367 45.492-45.488 45.492-25.125 0-45.492-20.37-45.492-45.492 0-25.126 20.367-45.494 45.492-45.494 25.121 0 45.488 20.368 45.488 45.494" transform="translate(0 2.75)"/>
            <path fill="#D0D2D3" d="M416.043 158.669v116.415c0 5.357-3.973 9.698-8.877 9.698H176.4c-.94 0-1.853-.162-2.703-.458-.375-1.068-.576-2.222-.576-3.436V164.472c0-5.356 3.973-9.697 8.877-9.697h230.767c.94 0 1.852.162 2.703.457.375 1.069.576 2.223.576 3.437" transform="translate(0 2.75)"/>
            <path fill="#FFF" d="M410.446 152.864V269.28c0 5.357-3.973 9.698-8.877 9.698H170.802c-4.903 0-8.878-4.34-8.878-9.698V152.864c0-5.356 3.975-9.697 8.878-9.697H401.57c4.904 0 8.877 4.34 8.877 9.697" transform="translate(0 2.75)"/>
            <path fill="#0099DC" d="M180.702 186.96c11.173-3.933 19.98-13.179 23.622-24.836.588-1.88 2.353-3.093 4.26-3.093h155.204c1.906 0 3.671 1.214 4.259 3.093 3.641 11.657 12.449 20.903 23.621 24.836 1.782.626 2.919 2.442 2.919 4.392v39.44c0 1.95-1.137 3.766-2.919 4.393-11.172 3.932-19.98 13.178-23.621 24.835-.588 1.88-2.353 3.094-4.26 3.094H208.584c-1.906 0-3.671-1.214-4.259-3.094-3.642-11.657-12.449-20.903-23.622-24.835-1.781-.627-2.92-2.443-2.92-4.393v-39.44c0-1.95 1.139-3.766 2.92-4.392m222.367-31.512c-.053-.13-.108-.259-.167-.386-.356-.767-.819-1.47-1.367-2.093-.177-.201-.363-.393-.556-.577-.398-.374-.83-.71-1.292-1-.175-.11-.354-.212-.537-.309-.3-.159-.61-.303-.93-.424-.9-.341-1.873-.528-2.886-.528H177.038c-.146 0-.289.004-.433.01-.572.031-1.13.12-1.666.265-.134.035-.267.074-.398.117-2.63.848-4.705 2.999-5.523 5.726-.04.135-.078.274-.112.412-.139.558-.225 1.134-.254 1.729-.007.148-.01.297-.01.447v104.471c0 1.051.18 2.06.509 2.993.117.331.255.653.409.964.093.19.19.376.297.558.28.478.604.927.966 1.338.176.201.362.394.555.577.6.568 1.28 1.048 2.02 1.418.122.06.246.118.372.174 1.004.441 2.108.684 3.268.684h218.296c4.637 0 8.395-3.898 8.395-8.706V158.837c0-1.202-.234-2.347-.66-3.39" transform="translate(0 2.75)"/>
            <path fill="#E6E7E8" d="M237.955 211.073c0 5.395-4.218 9.77-9.422 9.77-5.204 0-9.423-4.375-9.423-9.77 0-5.397 4.219-9.77 9.423-9.77s9.422 4.373 9.422 9.77M353.26 211.073c0 5.395-4.218 9.77-9.422 9.77-5.203 0-9.423-4.375-9.423-9.77 0-5.397 4.22-9.77 9.423-9.77 5.204 0 9.422 4.373 9.422 9.77" transform="translate(0 2.75)"/>
            <path fill="#FDDD39" d="M403.701 240.313l-.063-60.281c-17.807-.257-32.174-14.739-32.193-32.609l-171.524.179c.018 18.04-14.59 32.68-32.63 32.7l.063 60.232c18.04-.02 32.68 14.59 32.699 32.63l171.524-.18c-.018-17.87 14.318-32.382 32.124-32.671" transform="translate(0 2.75)"/>
            <path fill="#EE599C" d="M403.638 180.032l-.028-27.176c-.004-3.018-2.456-5.465-5.476-5.461l-26.689.028c.02 17.87 14.386 32.352 32.193 32.609M403.73 267.483l-.028-27.17c-17.807.29-32.144 14.801-32.125 32.672l26.689-.03c3.02-.002 5.467-2.454 5.464-5.472M199.92 147.602l-27.197.03c-3.02.002-5.464 2.454-5.46 5.472l.027 27.197c18.04-.018 32.65-14.66 32.63-32.699M167.354 240.534l.029 27.197c.003 3.018 2.452 5.465 5.473 5.462l27.197-.029c-.02-18.04-14.66-32.65-32.7-32.63M235.555 237.935c-.011-1.802-.653-3.32-1.928-4.557-1.272-1.231-3.41-2.355-6.428-3.339-4.185-1.258-7.251-2.912-9.178-4.952-1.923-2.06-2.89-4.661-2.904-7.824-.013-3.225.913-5.87 2.787-7.946 1.867-2.075 4.435-3.309 7.723-3.711l-.024-6.46 4.393-.018.029 6.484c3.301.443 5.879 1.805 7.726 4.121 1.848 2.317 2.777 5.49 2.796 9.522l-5.424.023c-.012-2.785-.684-4.994-2.003-6.623-1.33-1.627-3.102-2.446-5.342-2.44-2.346.01-4.13.627-5.366 1.845-1.236 1.219-1.85 2.91-1.839 5.077.009 2.011.666 3.6 1.981 4.798 1.31 1.178 3.471 2.258 6.471 3.207 3.001.976 5.351 2.034 7.034 3.2 1.684 1.163 2.923 2.519 3.736 4.067.792 1.55 1.202 3.368 1.216 5.452.012 3.32-.974 6.003-2.962 8.03-1.99 2.032-4.778 3.246-8.377 3.64l.027 5.624-4.367.017-.027-5.624c-3.655-.33-6.525-1.618-8.61-3.88-2.083-2.267-3.132-5.34-3.146-9.224l5.455-.022c.007 2.732.736 4.827 2.176 6.303 1.44 1.473 3.478 2.197 6.112 2.184 2.576-.008 4.605-.645 6.07-1.889 1.467-1.242 2.203-2.939 2.193-5.085M275.414 237.129c-.005-2.397-.779-4.35-2.313-5.852-1.526-1.51-3.522-2.258-5.984-2.245-2.45.01-4.42.758-5.9 2.265-1.477 1.492-2.208 3.46-2.201 5.9.013 2.43.74 4.357 2.194 5.743 1.443 1.384 3.456 2.082 6.038 2.07 2.554-.009 4.557-.72 6.006-2.129 1.447-1.42 2.173-3.343 2.16-5.752m-8.309-27.304c-2.142.013-3.878.674-5.202 2.01-1.319 1.338-1.978 3.138-1.97 5.422.01 2.178.672 3.945 1.989 5.281 1.305 1.344 3.059 2.007 5.242 2 2.182-.01 3.927-.686 5.225-2.043 1.3-1.347 1.947-3.118 1.937-5.297-.006-2.188-.693-3.965-2.056-5.331-1.362-1.377-3.081-2.05-5.165-2.042m12.678 7.269c.008 2.135-.547 4.043-1.672 5.724-1.118 1.668-2.643 2.992-4.569 3.934 2.246.957 4.022 2.347 5.346 4.198 1.312 1.837 1.97 3.938 1.983 6.274.019 3.717-1.228 6.687-3.725 8.893-2.494 2.212-5.789 3.325-9.878 3.343-4.133.02-7.443-1.069-9.941-3.278-2.5-2.198-3.754-5.147-3.771-8.844-.01-2.326.623-4.424 1.882-6.292 1.26-1.878 3.012-3.301 5.25-4.26-1.916-.934-3.424-2.238-4.53-3.911-1.11-1.673-1.671-3.565-1.678-5.68-.017-3.624 1.136-6.497 3.444-8.63 2.315-2.135 5.366-3.204 9.163-3.222 3.77-.017 6.834 1.03 9.168 3.145 2.334 2.117 3.512 4.982 3.528 8.606M315.197 222.906c-.02-4.63-.681-7.997-1.988-10.1-1.306-2.107-3.365-3.155-6.177-3.144-2.795.01-4.825 1.076-6.092 3.177-1.269 2.11-1.917 5.348-1.933 9.713l.036 8.723c.02 4.649.702 8.074 2.06 10.276 1.354 2.202 3.397 3.304 6.13 3.291 2.696-.01 4.692-1.056 5.988-3.152 1.304-2.082 1.976-5.372 2.015-9.853l-.04-8.931zm5.487 7.434c.023 6.387-1.048 11.145-3.213 14.254-2.173 3.119-5.58 4.683-10.217 4.7-4.583.022-7.984-1.483-10.193-4.514-2.215-3.027-3.376-7.568-3.478-13.585l-.03-7.288c-.023-6.313 1.045-11.015 3.213-14.081 2.176-3.087 5.588-4.628 10.248-4.646 4.623-.02 8.027 1.444 10.22 4.399 2.192 2.944 3.335 7.5 3.417 13.68l.033 7.08zM355.15 222.742c-.018-4.628-.681-7.996-1.988-10.1-1.31-2.107-3.37-3.155-6.177-3.143-2.795.01-4.825 1.076-6.092 3.178-1.272 2.105-1.923 5.346-1.936 9.711l.04 8.723c.02 4.65.701 8.074 2.06 10.278 1.355 2.2 3.397 3.303 6.13 3.291 2.696-.01 4.691-1.058 5.987-3.152 1.299-2.079 1.971-5.374 2.01-9.855l-.034-8.93zm5.487 7.435c.028 6.387-1.041 11.141-3.217 14.253-2.168 3.12-5.576 4.684-10.213 4.7-4.581.018-7.982-1.487-10.197-4.513-2.21-3.026-3.372-7.568-3.472-13.589l-.026-7.288c-.028-6.314 1.04-11.011 3.208-14.078 2.175-3.085 5.583-4.629 10.247-4.644 4.619-.021 8.03 1.439 10.222 4.394 2.191 2.943 3.333 7.505 3.421 13.686l.027 7.08z" transform="translate(0 2.75)"/>
            <path fill="#FFF" d="M300.88 169.359L288.531 167.577 282.999 156.396 277.488 167.588 265.146 169.396 274.087 178.093 271.992 190.39 283.028 184.577 294.077 190.367 291.954 178.075zM257.959 179.878L253.933 171.748 249.927 179.887 240.95 181.202 247.453 187.528 245.929 196.472 253.955 192.241 261.99 196.455 260.447 187.514 266.938 181.175zM325.123 181.113L316.143 179.817 312.119 171.686 308.111 179.826 299.136 181.14 305.639 187.466 304.114 196.411 312.14 192.181 320.176 196.394 318.632 187.454z" transform="translate(0 2.75)"/>
            <path fill="#F7931E" d="M508.804 179.992c0 11.702-9.487 21.19-21.188 21.19-11.702 0-21.19-9.488-21.19-21.19 0-11.702 9.488-21.188 21.19-21.188 11.701 0 21.188 9.486 21.188 21.188" transform="translate(0 2.75)"/>
            <path fill="#FCBC80" d="M505.941 179.992c0 10.121-8.204 18.326-18.325 18.326-10.122 0-18.326-8.205-18.326-18.326 0-10.12 8.204-18.326 18.326-18.326 10.12 0 18.325 8.206 18.325 18.326" transform="translate(0 2.75)"/>
            <path fill="#F7954C" d="M502.696 179.992c0 8.328-6.752 15.08-15.08 15.08-8.329 0-15.08-6.752-15.08-15.08s6.751-15.08 15.08-15.08c8.328 0 15.08 6.752 15.08 15.08" transform="translate(0 2.75)"/>
            <path fill="#FCBC80" d="M500.029 179.992c0 6.856-5.558 12.414-12.413 12.414-6.856 0-12.414-5.558-12.414-12.414 0-6.855 5.558-12.413 12.414-12.413 6.855 0 12.413 5.558 12.413 12.413" transform="translate(0 2.75)"/>
            <path fill="#FCBC80" d="M500.029 179.992c0 6.856-5.558 12.414-12.413 12.414-6.856 0-12.414-5.558-12.414-12.414 0-6.855 5.558-12.413 12.414-12.413 6.855 0 12.413 5.558 12.413 12.413" transform="translate(0 2.75)"/>
            <path fill="#F7954C" d="M497.195 179.992c0 5.291-4.289 9.58-9.579 9.58-5.29 0-9.58-4.289-9.58-9.58 0-5.29 4.29-9.578 9.58-9.578s9.58 4.288 9.58 9.578" transform="translate(0 2.75)"/>
            <path fill="#FCBC80" d="M494.045 179.992c0 3.551-2.879 6.43-6.43 6.43-3.55 0-6.43-2.879-6.43-6.43 0-3.55 2.88-6.43 6.43-6.43 3.551 0 6.43 2.88 6.43 6.43" transform="translate(0 2.75)"/>
            <path fill="#FCBC80" d="M494.045 179.992c0 3.551-2.879 6.43-6.43 6.43-3.55 0-6.43-2.879-6.43-6.43 0-3.55 2.88-6.43 6.43-6.43 3.551 0 6.43 2.88 6.43 6.43" transform="translate(0 2.75)"/>
            <path fill="#F7954C" d="M491.461 179.992c0 2.125-1.721 3.847-3.845 3.847s-3.846-1.722-3.846-3.847c0-2.123 1.722-3.845 3.846-3.845s3.845 1.722 3.845 3.845" transform="translate(0 2.75)"/>
            <path fill="#FCBC80" d="M488.694 179.992c0 .596-.483 1.078-1.078 1.078-.595 0-1.078-.482-1.078-1.078 0-.595.483-1.078 1.078-1.078.595 0 1.078.483 1.078 1.078" transform="translate(0 2.75)"/>
            <path fill="#F7931E" d="M553.43 181.499c0 11.702-9.488 21.188-21.19 21.188-11.702 0-21.188-9.486-21.188-21.188 0-11.703 9.486-21.19 21.188-21.19 11.702 0 21.19 9.487 21.19 21.19" transform="translate(0 2.75)"/>
            <path fill="#FCBC80" d="M550.566 181.499c0 10.12-8.205 18.325-18.326 18.325-10.12 0-18.325-8.205-18.325-18.325 0-10.122 8.205-18.326 18.325-18.326 10.121 0 18.326 8.204 18.326 18.326" transform="translate(0 2.75)"/>
            <path fill="#F7954C" d="M547.32 181.499c0 8.327-6.751 15.08-15.08 15.08-8.328 0-15.08-6.753-15.08-15.08 0-8.329 6.752-15.08 15.08-15.08 8.329 0 15.08 6.751 15.08 15.08" transform="translate(0 2.75)"/>
            <path fill="#FCBC80" d="M544.653 181.499c0 6.854-5.558 12.412-12.413 12.412-6.856 0-12.412-5.558-12.412-12.412 0-6.856 5.556-12.413 12.412-12.413 6.855 0 12.413 5.557 12.413 12.413" transform="translate(0 2.75)"/>
            <path fill="#FCBC80" d="M544.653 181.499c0 6.854-5.558 12.412-12.413 12.412-6.856 0-12.412-5.558-12.412-12.412 0-6.856 5.556-12.413 12.412-12.413 6.855 0 12.413 5.557 12.413 12.413" transform="translate(0 2.75)"/>
            <path fill="#F7954C" d="M541.82 181.499c0 5.29-4.29 9.578-9.58 9.578s-9.578-4.288-9.578-9.578c0-5.29 4.288-9.579 9.578-9.579 5.29 0 9.58 4.288 9.58 9.579" transform="translate(0 2.75)"/>
            <path fill="#FCBC80" d="M538.67 181.499c0 3.55-2.879 6.43-6.43 6.43-3.55 0-6.43-2.88-6.43-6.43s2.88-6.43 6.43-6.43c3.551 0 6.43 2.88 6.43 6.43" transform="translate(0 2.75)"/>
            <path fill="#FCBC80" d="M538.67 181.499c0 3.55-2.879 6.43-6.43 6.43-3.55 0-6.43-2.88-6.43-6.43s2.88-6.43 6.43-6.43c3.551 0 6.43 2.88 6.43 6.43" transform="translate(0 2.75)"/>
            <path fill="#F7954C" d="M536.086 181.499c0 2.123-1.721 3.846-3.846 3.846-2.124 0-3.845-1.723-3.845-3.846 0-2.124 1.721-3.847 3.845-3.847 2.125 0 3.846 1.723 3.846 3.847" transform="translate(0 2.75)"/>
            <path fill="#FCBC80" d="M533.319 181.499c0 .595-.483 1.078-1.078 1.078-.596 0-1.079-.483-1.079-1.078 0-.596.483-1.078 1.079-1.078.595 0 1.078.482 1.078 1.078" transform="translate(0 2.75)"/>
            <path fill="#F7931E" d="M532.24 175.069c0 11.702-9.485 21.188-21.188 21.188-11.702 0-21.19-9.486-21.19-21.188 0-11.703 9.488-21.19 21.19-21.19 11.703 0 21.188 9.487 21.188 21.19" transform="translate(0 2.75)"/>
            <path fill="#FCBC80" d="M529.377 175.069c0 10.12-8.204 18.325-18.325 18.325-10.121 0-18.326-8.205-18.326-18.325 0-10.121 8.205-18.327 18.326-18.327 10.12 0 18.325 8.206 18.325 18.327" transform="translate(0 2.75)"/>
            <path fill="#F7954C" d="M526.132 175.069c0 8.327-6.752 15.08-15.08 15.08s-15.08-6.753-15.08-15.08c0-8.329 6.752-15.08 15.08-15.08s15.08 6.751 15.08 15.08" transform="translate(0 2.75)"/>
            <path fill="#FCBC80" d="M523.465 175.069c0 6.855-5.558 12.413-12.413 12.413-6.856 0-12.413-5.558-12.413-12.413 0-6.856 5.557-12.414 12.413-12.414 6.855 0 12.413 5.558 12.413 12.414" transform="translate(0 2.75)"/>
            <path fill="#FCBC80" d="M523.465 175.069c0 6.855-5.558 12.413-12.413 12.413-6.856 0-12.413-5.558-12.413-12.413 0-6.856 5.557-12.414 12.413-12.414 6.855 0 12.413 5.558 12.413 12.414" transform="translate(0 2.75)"/>
            <path fill="#F7954C" d="M520.631 175.069c0 5.29-4.289 9.578-9.578 9.578-5.291 0-9.58-4.288-9.58-9.578 0-5.291 4.289-9.58 9.58-9.58 5.29 0 9.578 4.289 9.578 9.58" transform="translate(0 2.75)"/>
            <path fill="#FCBC80" d="M517.482 175.069c0 3.55-2.88 6.43-6.43 6.43s-6.43-2.88-6.43-6.43c0-3.551 2.88-6.43 6.43-6.43s6.43 2.879 6.43 6.43" transform="translate(0 2.75)"/>
            <path fill="#FCBC80" d="M517.482 175.069c0 3.55-2.88 6.43-6.43 6.43s-6.43-2.88-6.43-6.43c0-3.551 2.88-6.43 6.43-6.43s6.43 2.879 6.43 6.43" transform="translate(0 2.75)"/>
            <path fill="#F7954C" d="M514.898 175.069c0 2.123-1.722 3.845-3.846 3.845s-3.846-1.722-3.846-3.845c0-2.124 1.722-3.846 3.846-3.846s3.846 1.722 3.846 3.846" transform="translate(0 2.75)"/>
            <path fill="#FCBC80" d="M512.13 175.069c0 .595-.483 1.078-1.078 1.078-.595 0-1.079-.483-1.079-1.078 0-.596.484-1.078 1.08-1.078.594 0 1.077.482 1.077 1.078" transform="translate(0 2.75)"/>
            <path fill="#E6E6E6" d="M546.04 208.426c0 2.7-2.187 4.886-4.886 4.886h-58.518c-2.7 0-4.886-2.187-4.886-4.886 0-2.698 2.187-4.886 4.886-4.886h58.518c2.7 0 4.886 2.188 4.886 4.886" transform="translate(0 2.75)"/>
            <path fill="#E6E6E6" d="M454.36 174.08c2.484 29.326 27.293 35.236 57.535 35.236 30.242 0 55.05-5.91 57.535-35.236H454.36z" transform="translate(0 2.75)"/>
            <path fill="#E6E6E6" d="M454.36 174.08c2.484 29.326 27.293 35.236 57.535 35.236 30.242 0 55.05-5.91 57.535-35.236H454.36z" transform="translate(0 2.75)"/>
            <path fill="#000" d="M511.895 174.08v35.236c30.242 0 55.05-5.91 57.535-35.236h-57.535z" opacity=".081" transform="translate(0 2.75)"/>
            <path fill="#000" d="M511.895 209.316v3.996h29.259c2.699 0 4.886-2.187 4.886-4.886 0-1.218-.45-2.33-1.186-3.186-9.347 3.104-20.706 4.076-32.959 4.076" opacity=".081" transform="translate(0 2.75)"/>
            <path fill="#E6E6E6" d="M488.126 173.985c-2.16 4.923-9.625 6.407-16.672 3.315-7.047-3.093-11.009-9.591-8.848-14.515 2.161-4.923 9.626-6.407 16.672-3.315 7.048 3.093 11.01 9.592 8.848 14.515" transform="translate(0 2.75)"/>
            <path fill="#F1BF74" d="M484.965 168.282c-1.119 2.55-5.387 3.14-9.534 1.32-4.147-1.82-6.602-5.362-5.483-7.911 1.118-2.548 5.387-3.14 9.534-1.32 4.147 1.82 6.602 5.362 5.483 7.911" transform="translate(0 2.75)"/>
            <path fill="#8CC63F" d="M532.515 171.857s1.926-.637 3.933-.642c2.008-.006 1.244.823 3.535 0 2.29-.824 2.08-2.91 4.29-1.378 2.21 1.53 2.953 2.74 4.516.41.341-.507 1.407-.737 2.551-.107 1.146.629.075 1.572 1.995 1.505 1.919-.066 2.396-1.63 3.064-.625.668 1.007 4.2.503 4.2.503l1.527 2.478h-29.23l-.381-2.144z" transform="translate(0 2.75)"/>
            <path fill="#68A73A" d="M532.515 171.857s2.438-.637 4.236-.642c1.799-.006 1.115.823 3.167 0 2.053-.824 2.833-2.875 3.023-1.453.27 2.004 3.469 2.814 4.87.486.306-.508 1.26-.738 2.285-.108 1.027.629-.38 2.044 1.34 1.979 1.72-.068 4.95-2.411 4.333-1.41-1.47 2.386 2.623.814 2.623.814l1.37 2.478h-26.866l-.381-2.144z" transform="translate(0 2.75)"/>
            <path fill="#F7931E" d="M505.941 156.881L508.804 156.881 508.804 129.227 505.941 129.227zM510.464 156.881L513.326 156.881 513.326 129.227 510.464 129.227zM515.729 156.881L518.593 156.881 518.593 129.227 515.729 129.227z" transform="translate(0 2.75)"/>
            <path fill="#FCBC80" d="M555.75 109.646l-51.894 18.703.766 1.54 54.251-17.768c-1.019-.851-2.058-1.68-3.122-2.475" transform="translate(0 2.75)"/>
            <path fill="#FCBC80" d="M563.91 116.742l-59.135 12.737.554 1.628 61.41-11.347c-.915-1.032-1.858-2.04-2.828-3.018" transform="translate(0 2.75)"/>
            <path fill="#F7931E" d="M504.775 128.018L505.941 130.995 508.805 130.465 507.213 127.139zM509.76 128.405L510.464 130.159 513.326 129.63 512.458 127.824zM514.938 127.29L515.692 129.228 518.592 129.228 518.592 128.657 517.801 126.673z" transform="translate(0 2.75)"/>
            <path fill="#2CABAE" d="M557.36 265.319c-.889 0-1.61-.721-1.61-1.61v-13.982c0-1.808-.496-3.294-1.434-4.293-.777-.828-1.822-1.284-2.944-1.284-2.13 0-4.422 1.745-4.422 5.577v13.982c0 .889-.721 1.61-1.61 1.61-.89 0-1.611-.721-1.611-1.61v-13.982c0-5.776 3.845-8.797 7.643-8.797 3.776 0 7.599 3.021 7.599 8.797v13.982c0 .889-.721 1.61-1.61 1.61" transform="translate(0 2.75)"/>
        </g>
        <g transform="translate(535.161 265.975)">
            <mask id="prefix__c" fill="#fff">
                <use xlink:href="#prefix__a"/>
            </mask>
            <path fill="url(#prefix__b)" d="M5.695.768v6.318h1.667L.666 62.074h3.562c4.18 0 9.565-2.098 11.96-4.745 2.38 2.67 7.781 4.745 11.96 4.745h3.563L25.015 7.086h1.667V.768H5.695z" mask="url(#prefix__c)"/>
        </g>
        <g>
            <path fill="#C6C29B" d="M89.585 29.343v-6.316H79.092v56.56c2.378 2.67 7.78 4.745 11.959 4.745h3.562l-6.696-54.989h1.668z" transform="translate(472.258 243.717)"/>
            <path fill="#187E89" d="M28.179 22.884c-.89 0-1.61-.721-1.61-1.61v-6.778c0-3.503-1.202-6.426-3.474-8.447-2.033-1.811-4.79-2.808-7.76-2.808-5.424 0-11.262 3.523-11.262 11.255v6.777c0 .89-.72 1.61-1.61 1.61-.89 0-1.61-.72-1.61-1.61v-6.777C.852 4.994 8.137.022 15.334.022c3.761 0 7.277 1.286 9.9 3.62 2.98 2.652 4.554 6.404 4.554 10.854v6.777c0 .89-.721 1.61-1.61 1.61" transform="translate(472.258 243.717)"/>
        </g>
        <path fill="url(#prefix__d)" d="M472.607 328.049L522.434 328.049 522.434 265.553 472.607 265.553z"/>
        <g>
            <path fill="#BF423C" d="M0.052 63.042L10.027 63.042 10.027 0.546 0.052 0.546z" transform="translate(462.58 265.007)"/>
            <path fill="#C6C29B" d="M.062 12.729c.897 1.846 2.792 3.12 4.983 3.12s4.085-1.273 4.981-3.12V.546H.053v12.156l.009.027z" transform="translate(462.58 265.007)"/>
        </g>
        <g transform="translate(472.258 265.007)">
            <mask id="prefix__g" fill="#fff">
                <use xlink:href="#prefix__e"/>
            </mask>
            <path fill="url(#prefix__f)" d="M.35.546V12.73c.897 1.846 2.791 3.119 4.982 3.119 2.192 0 4.086-1.273 4.983-3.12.897 1.847 2.791 3.12 4.982 3.12 2.193 0 4.086-1.273 4.984-3.12.896 1.847 2.79 3.12 4.982 3.12s4.086-1.273 4.983-3.12c.897 1.847 2.79 3.12 4.983 3.12 2.19 0 4.085-1.273 4.983-3.12.897 1.847 2.79 3.12 4.983 3.12 2.19 0 4.082-1.273 4.98-3.118V.546H.35z" mask="url(#prefix__g)"/>
        </g>
        <path fill="#F5C268" d="M502.961 305.139L542.268 305.139 542.268 294.641 502.961 294.641z"/>
        <path fill="url(#prefix__h)" d="M505.239 328.049L539.991 328.049 539.991 305.139 505.239 305.139z"/>
        <path fill="url(#prefix__i)" d="M519.483 328.049L525.748 328.049 525.748 294.64 519.483 294.64z"/>
        <path fill="#F2EED1" d="M519.483 305.139L525.748 305.139 525.748 294.64 519.483 294.64z"/>
        <g transform="translate(522.58 286.298)">
            <mask id="prefix__l" fill="#fff">
                <use xlink:href="#prefix__j"/>
            </mask>
            <path fill="url(#prefix__k)" d="M4.831.32C3.39 1.027-.795 4.978.133 6.864c.927 1.884 6.615.988 8.057.28 1.442-.708 1.537-2.65.61-4.537C8.064 1.113 6.906.105 5.739.105c-.304 0-.61.068-.908.214" mask="url(#prefix__l)"/>
        </g>
        <g transform="translate(512.903 286.298)">
            <mask id="prefix__o" fill="#fff">
                <use xlink:href="#prefix__m"/>
            </mask>
            <path fill="url(#prefix__n)" d="M.719 2.608c-.927 1.886-.832 3.83.61 4.536 1.442.71 7.131 1.605 8.058-.279C10.315 4.98 6.13 1.028 4.69.32c-.3-.146-.604-.214-.908-.214-1.168 0-2.326 1.008-3.062 2.503" mask="url(#prefix__o)"/>
        </g>
        <g>
            <path fill="#2CABAE" d="M182.25 225.125c-.889 0-1.61-.721-1.61-1.61V209.98c0-3.504-1.2-6.425-3.473-8.448-2.033-1.81-4.79-2.805-7.761-2.805-5.424 0-11.261 3.52-11.261 11.253v13.534c0 .89-.721 1.61-1.61 1.61-.89 0-1.61-.72-1.61-1.61V209.98c0-9.503 7.284-14.474 14.48-14.474 3.763 0 7.279 1.286 9.902 3.621 2.98 2.65 4.554 6.405 4.554 10.853v13.534c0 .89-.721 1.61-1.61 1.61" transform="translate(327.097 48.233)"/>
            <path fill="#F36C36" d="M32.386 47.88c-8.738 0-15.822-7.086-15.822-15.825 0-8.735 7.084-15.816 15.822-15.816 8.744 0 15.817 7.081 15.817 15.816 0 8.739-7.073 15.824-15.817 15.824m0-47.697C14.784.182.511 14.45.511 32.055c0 17.61 31.875 44.785 31.875 44.785s31.866-27.174 31.866-44.785C64.252 14.45 49.988.182 32.386.182" transform="translate(327.097 48.233)"/>
            <path fill="#DC6231" d="M32.386.182c-.196 0-.388.028-.595.03V14.73c.207-.006.399-.033.595-.033 9.58 0 17.36 7.774 17.36 17.359 0 9.588-7.78 17.36-17.36 17.36-.196 0-.388-.022-.595-.027v26.928c.368.328.595.523.595.523s31.866-27.174 31.866-44.784C64.252 14.45 49.988.182 32.386.182" transform="translate(327.097 48.233)"/>
            <path fill="#FFF" d="M32.386 47.88c-8.738 0-15.822-7.086-15.822-15.825 0-8.735 7.084-15.816 15.822-15.816 8.744 0 15.817 7.081 15.817 15.816 0 8.739-7.073 15.824-15.817 15.824" transform="translate(327.097 48.233)"/>
            <path fill="#D1ECFB" d="M32.386 16.239c8.744 0 15.817 7.08 15.817 15.817S41.13 47.879 32.386 47.879" transform="translate(327.097 48.233)"/>
        </g>
        <path fill="url(#prefix__p)" d="M198.741 73.867L271.895 73.867 271.895 5.378 198.741 5.378z"/>
        <g>
            <path fill="#3E2F3C" d="M0.497 18.859L66.615 18.859 66.615 0.496 0.497 0.496z" transform="translate(202.258 55.007)"/>
            <path fill="#D89144" d="M49.27 6.36c4.898 0 9.03 3.422 10.13 7.995-2.99 1.56-5.137 4.532-5.55 8.015h-9.16c-.41-3.483-2.56-6.453-5.55-8.015 1.099-4.573 5.235-7.996 10.13-7.996M19.426 6.36c4.896 0 9.03 3.422 10.13 7.994-2.99 1.562-5.139 4.533-5.551 8.016h-9.157c-.413-3.483-2.563-6.454-5.552-8.016 1.099-4.572 5.234-7.995 10.13-7.995" transform="translate(202.258 55.007)"/>
        </g>
        <g transform="translate(255.484 67.588)">
            <mask id="prefix__s" fill="#fff">
                <use xlink:href="#prefix__q"/>
            </mask>
            <path fill="url(#prefix__r)" d="M.55 11.013V15.4h20.833v-4.387c0-5.728-4.686-10.416-10.417-10.416C5.238.597.551 5.284.551 11.013" mask="url(#prefix__s)"/>
        </g>
        <g transform="translate(225.484 67.588)">
            <mask id="prefix__v" fill="#fff">
                <use xlink:href="#prefix__t"/>
            </mask>
            <path fill="url(#prefix__u)" d="M.706 11.013V15.4h20.832v-4.387c0-5.728-4.687-10.416-10.415-10.416C5.394.597.706 5.284.706 11.013" mask="url(#prefix__v)"/>
        </g>
        <g transform="translate(195.484 67.588)">
            <mask id="prefix__y" fill="#fff">
                <use xlink:href="#prefix__w"/>
            </mask>
            <path fill="url(#prefix__x)" d="M.862 11.013V15.4h20.833v-4.387c0-5.73-4.687-10.416-10.417-10.416C5.55.597.862 5.284.862 11.013" mask="url(#prefix__y)"/>
        </g>
        <g transform="translate(222.58 7.588)">
            <mask id="prefix__B" fill="#fff">
                <use xlink:href="#prefix__z"/>
            </mask>
            <path fill="url(#prefix__A)" d="M14.025 5.306c-3.524 0-6.576-2.03-8.052-4.983C4.93 2.41 3.102 4.035.875 4.81c2.785 4.312 7.633 7.168 13.151 7.168 5.516 0 10.364-2.856 13.151-7.168-2.228-.775-4.058-2.4-5.1-4.487-1.475 2.953-4.527 4.983-8.052 4.983" mask="url(#prefix__B)"/>
        </g>
        <g transform="translate(249.677 7.588)">
            <mask id="prefix__E" fill="#fff">
                <use xlink:href="#prefix__C"/>
            </mask>
            <path fill="url(#prefix__D)" d="M19.135 5.306c-3.524 0-6.577-2.03-8.05-4.983C9.61 3.276 6.556 5.306 3.032 5.306 2.228 5.306 1.447 5.2.704 5 2.63 17.797 9.76 28.89 19.868 36.055c-4.22 7.539-6.747 16.155-7.063 25.333 1.224-.51 2.566-.79 3.968-.79 5.73 0 10.417 4.687 10.417 10.415V.323c-1.476 2.953-4.528 4.983-8.055 4.983" mask="url(#prefix__E)"/>
        </g>
        <g transform="translate(195.484 7.588)">
            <mask id="prefix__H" fill="#fff">
                <use xlink:href="#prefix__F"/>
            </mask>
            <path fill="url(#prefix__G)" d="M8.914 5.306c-3.526 0-6.578-2.03-8.052-4.983v70.678c.007-5.723 4.69-10.404 10.416-10.404 1.403 0 2.744.282 3.967.79-.316-9.177-2.841-17.793-7.06-25.332C18.29 28.89 25.421 17.797 27.345 5c-.742.2-1.522.306-2.328.306-3.525 0-6.577-2.03-8.053-4.983-1.474 2.953-4.527 4.983-8.051 4.983" mask="url(#prefix__H)"/>
        </g>
        <g transform="translate(195.484 .814)">
            <mask id="prefix__K" fill="#fff">
                <use xlink:href="#prefix__I"/>
            </mask>
            <path fill="url(#prefix__J)" d="M.869.154L.862 7.097c1.474 2.953 4.526 4.983 8.052 4.983 3.525 0 6.577-2.03 8.051-4.983 1.476 2.953 4.528 4.983 8.053 4.983 3.525 0 6.577-2.03 8.052-4.983 1.475 2.953 4.528 4.983 8.051 4.983 3.526 0 6.578-2.03 8.053-4.983 1.475 2.953 4.526 4.983 8.051 4.983 3.527 0 6.577-2.03 8.054-4.983 1.473 2.953 4.525 4.983 8.05 4.983 3.526 0 6.578-2.03 8.054-4.983V.16L.87.154z" mask="url(#prefix__K)"/>
        </g>
        <g>
            <path fill="#D89144" d="M136.353 4.565L216.076 4.565 216.076 0.154 136.353 0.154z" transform="translate(60 .814)"/>
            <path fill="#E1DEB4" d="M209.443 44.98h7.424v-4.557h-7.424c-1.258 0-2.278 1.02-2.278 2.279 0 1.257 1.02 2.278 2.278 2.278M143.769 40.423h-7.424v4.557h7.424c1.258 0 2.278-1.02 2.278-2.279 0-1.258-1.02-2.278-2.278-2.278" transform="translate(60 .814)"/>
            <path fill="#C6C29B" d="M.043 251.778L18.061 251.778 18.061 246.312.043 246.312zM18.061 251.778L36.079 251.778 36.079 246.312 18.061 246.312z" transform="translate(60 .814)"/>
        </g>
        <g transform="translate(52.258 211.782)">
            <mask id="prefix__N" fill="#fff">
                <use xlink:href="#prefix__L"/>
            </mask>
            <path fill="url(#prefix__M)" d="M17.714 5.974C16.444 2.747 13.304.459 9.626.459 4.822.459.93 4.352.93 9.156c0 4.17 2.937 7.65 6.855 8.497v19.366h20.16V17.576c3.765-.955 6.555-4.358 6.555-8.42 0-4.804-3.893-8.697-8.696-8.697-3.68 0-6.819 2.288-8.09 5.515" mask="url(#prefix__N)"/>
        </g>
        <g>
            <path fill="#E1DEB4" d="M80.66 9.357c0-4.803-3.893-8.696-8.697-8.696-3.226 0-6.035 1.76-7.536 4.368C62.957 2.308 60.08.46 56.77.46v36.559h18.018V17.576c3.415-1.174 5.872-4.405 5.872-8.218" transform="translate(21.29 211.782)"/>
            <path fill="#8EADBE" d="M60.926 56.261c0 2.568-2.08 4.648-4.648 4.648-2.567 0-4.648-2.08-4.648-4.648 0-2.567 2.08-4.648 4.648-4.648 2.568 0 4.648 2.08 4.648 4.648" transform="translate(21.29 211.782)"/>
            <path fill="#B1C3D0" d="M56.277 57.422c1.49 0 2.953.113 4.385.322.159-.467.264-.961.264-1.483 0-2.568-2.08-4.648-4.648-4.648-2.567 0-4.648 2.08-4.648 4.648 0 .522.106 1.015.264 1.483 1.432-.209 2.894-.322 4.383-.322" transform="translate(21.29 211.782)"/>
            <path fill="#8EADBE" d="M60.926 56.261c0-2.567-2.08-4.648-4.648-4.648v9.296c2.568 0 4.648-2.08 4.648-4.648" transform="translate(21.29 211.782)"/>
            <path fill="#34485C" d="M91.139 91.122H21.417c-1.282 0-2.323 1.04-2.323 2.324 0 1.282 1.04 2.325 2.323 2.325H91.14c1.283 0 2.325-1.043 2.325-2.325 0-1.284-1.042-2.324-2.325-2.324" transform="translate(21.29 211.782)"/>
            <path fill="#B1C3D0" d="M86.491 88.798l-.001-.008c-.005-16.656-13.556-30.205-30.213-30.205-16.66 0-30.213 13.554-30.213 30.214 0 1.283-.003 2.322.001 2.322h60.426c.004 0 0-2.003 0-2.323" transform="translate(21.29 211.782)"/>
            <path fill="#8EADBE" d="M56.278 58.585v32.537h30.213c.004 0 0-2.004 0-2.324v-.008c-.006-16.656-13.557-30.204-30.213-30.205" transform="translate(21.29 211.782)"/>
            <path fill="#576D7E" d="M91.139 91.122H21.417c-1.282 0-2.323 1.04-2.323 2.324h74.37c0-1.284-1.042-2.324-2.325-2.324" transform="translate(21.29 211.782)"/>
            <path fill="#B1C3D0" d="M17.06 34.036c-1.057 0-.957.857-.956 1.913l.003 15.035c-.025.938-.68 1.792-1.609 1.936-1.188.185-2.215-.732-2.218-1.885l-.956-15.086c0-1.056.1-1.913-.957-1.913s-.956.857-.956 1.913l-.956 15.078-.006.058c-.094.924-.774 1.749-1.698 1.847-1.146.123-2.12-.775-2.122-1.897l.001-15.086c0-1.056.1-1.913-.956-1.913s-.956.857-.956 1.913L.803 51.027l-.001.004v.957c0 3.076 1.462 5.819 3.727 7.57 1.872 1.445 2.968 3.676 2.968 6.041l-.956 26.782c0 1.555 2.12 2.785 3.671 2.866 1.655.087 3.981-1.23 3.981-2.866L13.236 65.6c0-2.366 1.097-4.596 2.97-6.043 2.265-1.75 3.726-4.493 3.726-7.57L18.017 35.95c0-1.056.1-1.913-.957-1.913M111.754 35.64c0-.885-.718-1.604-1.603-1.604-2.486 0-4.944.832-6.774 2.514-1.995 1.835-3.1 4.356-3.1 7.05v19.13c0 2.114 1.713 3.826 3.825 3.826 1.057 0 1.913.857 1.913 1.913l-.956 23.75c0 1.553 2.119 2.947 3.671 3.028 1.655.087 3.024-1.23 3.024-2.865V64.648 35.64z" transform="translate(21.29 211.782)"/>
            <path fill="#8EADBE" d="M.803 51.988c0 3.077 1.46 5.82 3.726 7.57 1.872 1.445 2.968 3.676 2.968 6.041l-.374 10.488 6.63 3.979-.517-14.466c0-2.366 1.097-4.596 2.97-6.043l.013-.01-15.33-9.199-.086.679v.961zM4.629 49.722L4.63 45.897 1.679 44.127 1.227 47.682zM19.49 54.813l-4.004-2.402c-.267.26-.602.449-.988.509-1.188.184-2.215-.732-2.218-1.885l-.036-.569-3.616-2.17-.173 2.73-.006.059c-.028.278-.115.544-.24.785l9.778 5.867c.66-.871 1.17-1.856 1.503-2.924M111.754 51.635L100.277 44.75 100.277 48.575 111.754 55.462zM6.541 92.381c0 1.554 2.12 2.785 3.672 2.866 1.654.087 3.98-1.23 3.98-2.866l-.335-9.383-6.835-4.101L6.54 92.38zM100.277 51.444V62.73c0 2.114 1.713 3.826 3.825 3.826 1.057 0 1.913.857 1.913 1.913l-.33 8.219 6.07 3.642V64.648 58.331l-11.478-6.887zM105.571 79.49l-.513 12.729c0 1.554 2.12 2.946 3.672 3.028 1.655.087 3.024-1.23 3.024-2.866V83.2l-6.183-3.71z" transform="translate(21.29 211.782)"/>
            <path fill="#D0D2D3" d="M405.684 141.29H133.003c-5.931 0-10.74-4.808-10.74-10.74v-17.138c0-5.93 4.809-10.739 10.74-10.739h272.68c5.932 0 10.74 4.808 10.74 10.74v17.137c0 5.932-4.808 10.74-10.74 10.74" transform="translate(21.29 211.782)"/>
            <path fill="#FFF" d="M405.684 138.103H133.003c-5.931 0-10.74-4.808-10.74-10.74v-17.137c0-5.932 4.809-10.74 10.74-10.74h272.68c5.932 0 10.74 4.808 10.74 10.74v17.136c0 5.933-4.808 10.741-10.74 10.741" transform="translate(21.29 211.782)"/>
            <path fill="#FFF" d="M280.447 99.486L269.091 110.843 257.733 99.486 269.091 88.13z" transform="translate(21.29 211.782)"/>
        </g>
        <text fill="#0E6DA0" font-family="PingFangTC-Semibold, PingFang TC" font-size="24" font-weight="500" letter-spacing=".1">
            <tspan x="158.256" y="340.339">藝文、商圈、夜市、餐飲</tspan>
        </text>
    </g>
</svg>
