<?xml version="1.0" encoding="UTF-8"?>
<svg width="533px" height="409px" viewBox="0 0 533 409" version="1.1" xmlns="http://www.w3.org/2000/svg" xmlns:xlink="http://www.w3.org/1999/xlink">
    <!-- Generator: Sketch 61.1 (89650) - https://sketch.com -->
    <title>Group 15 outine</title>
    <desc>Created with Sketch.</desc>
    <defs>
        <polygon id="path-1" points="0 304 372.531 304 372.531 0.538 0 0.538"></polygon>
        <path d="M0.072,16.006 C0.072,24.796 7.112,31.925 15.795,31.925 L15.795,31.925 C24.479,31.925 31.518,24.796 31.518,16.006 L31.518,16.006 C31.518,7.212 24.479,0.085 15.795,0.085 L15.795,0.085 C7.111,0.085 0.072,7.212 0.072,16.006 L0.072,16.006 Z" id="path-3"></path>
        <path d="M0.867,3.005 C0.867,4.579 2.146,5.858 3.72,5.858 L3.72,5.858 C5.294,5.858 6.572,4.579 6.572,3.005 L6.572,3.005 C6.572,1.429 5.294,0.152 3.72,0.152 L3.72,0.152 C2.146,0.152 0.867,1.429 0.867,3.005 L0.867,3.005 Z" id="path-5"></path>
        <path d="M0.817,0.34 C0.817,6.356 5.692,11.234 11.707,11.234 L11.707,11.234 L11.707,0.34 L0.817,0.34 Z" id="path-7"></path>
        <path d="M0.817,11.67 L11.707,11.67 L11.707,0.776 C5.692,0.776 0.817,5.654 0.817,11.67 L0.817,11.67 Z" id="path-9"></path>
        <path d="M0.885,11.67 L11.775,11.67 C11.775,5.654 6.899,0.776 0.885,0.776 L0.885,0.776 L0.885,11.67 Z" id="path-11"></path>
        <path d="M0.885,0.341 L0.885,11.235 C6.899,11.235 11.775,6.358 11.775,0.341 L11.775,0.341 L0.885,0.341 Z" id="path-13"></path>
        <polygon id="path-15" points="0.0001 0.538 133.3391 0.538 133.3391 132.7275 0.0001 132.7275"></polygon>
        <polygon id="path-17" points="0.126 0.538 133.465 0.538 133.465 132.7275 0.126 132.7275"></polygon>
        <polygon id="path-19" points="0 304 372.531 304 372.531 0.538 0 0.538"></polygon>
        <path d="M0.846,8.162 C0.846,12.536 4.35,16.082 8.669,16.082 L8.669,16.082 C12.989,16.082 16.491,12.536 16.491,8.162 L16.491,8.162 C16.491,3.787 12.989,0.241 8.669,0.241 L8.669,0.241 C4.348,0.241 0.846,3.787 0.846,8.162 L0.846,8.162 Z" id="path-21"></path>
        <path d="M0.152,2.162 C0.152,2.945 0.788,3.581 1.572,3.581 L1.572,3.581 C2.355,3.581 2.99,2.945 2.99,2.162 L2.99,2.162 C2.99,1.378 2.355,0.743 1.572,0.743 L1.572,0.743 C0.788,0.743 0.152,1.378 0.152,2.162 L0.152,2.162 Z" id="path-23"></path>
        <path d="M0.127,0.373 C0.127,3.366 2.553,5.793 5.545,5.793 L5.545,5.793 L5.545,0.373 L0.127,0.373 Z" id="path-25"></path>
        <path d="M0.127,5.951 L5.545,5.951 L5.545,0.53 C2.553,0.53 0.127,2.957 0.127,5.951 L0.127,5.951 Z" id="path-27"></path>
        <path d="M0.794,5.951 L6.211,5.951 C6.211,2.957 3.787,0.53 0.794,0.53 L0.794,0.53 L0.794,5.951 Z" id="path-29"></path>
        <path d="M0.794,0.374 L0.794,5.794 C3.787,5.794 6.211,3.367 6.211,0.374 L6.211,0.374 L0.794,0.374 Z" id="path-31"></path>
        <polygon id="path-33" points="0 304 372.531 304 372.531 0.538 0 0.538"></polygon>
        <polygon id="path-35" points="0 0 150 0 150 52 0 52"></polygon>
        <polygon id="path-37" points="0 0 150 0 150 52 0 52"></polygon>
    </defs>
    <g id="懶人包" stroke="none" stroke-width="1" fill="none" fill-rule="evenodd">
        <g id="小資振興_懶人包_3000振興" transform="translate(-347.000000, -2076.000000)">
            <g id="Group-15-outine" transform="translate(347.000000, 2075.000000)">
                <g id="Group-257" transform="translate(76.000000, 58.000000)">
                    <polygon id="Fill-1" fill="#FFFFFF" points="168.948 214.029 200.356 214.029 200.356 176.241 168.948 176.241"></polygon>
                    <g id="Group-96" transform="translate(0.000000, 0.462000)">
                        <path d="M144.59,156.2663 L144.531,156.2663 C140.82,156.2663 137.813,153.2583 137.813,149.5483 L137.813,139.4083 C137.813,135.6973 140.82,132.6893 144.531,132.6893 L144.59,132.6893 C148.301,132.6893 151.309,135.6973 151.309,139.4083 L151.309,149.5483 C151.309,153.2583 148.301,156.2663 144.59,156.2663" id="Fill-2" fill="#FFFFFF"></path>
                        <path d="M144.5607,153.1159 L144.5607,153.1159 C140.8337,153.1159 137.8127,150.1209 137.8127,146.4259 L137.8127,149.5769 C137.8127,153.2709 140.8337,156.2659 144.5607,156.2659 C148.2877,156.2659 151.3087,153.2709 151.3087,149.5769 L151.3087,146.4259 C151.3087,150.1209 148.2877,153.1159 144.5607,153.1159" id="Fill-4" fill="#D0D2D3"></path>
                        <path d="M224.7717,156.2663 L224.7127,156.2663 C221.0017,156.2663 217.9947,153.2583 217.9947,149.5483 L217.9947,139.4083 C217.9947,135.6973 221.0017,132.6893 224.7127,132.6893 L224.7717,132.6893 C228.4827,132.6893 231.4907,135.6973 231.4907,139.4083 L231.4907,149.5483 C231.4907,153.2583 228.4827,156.2663 224.7717,156.2663" id="Fill-6" fill="#FFFFFF"></path>
                        <path d="M224.7424,153.1159 L224.7424,153.1159 C221.0154,153.1159 217.9944,150.1209 217.9944,146.4259 L217.9944,149.5769 C217.9944,153.2709 221.0154,156.2659 224.7424,156.2659 C228.4694,156.2659 231.4904,153.2709 231.4904,149.5769 L231.4904,146.4259 C231.4904,150.1209 228.4694,153.1159 224.7424,153.1159" id="Fill-8" fill="#D0D2D3"></path>
                        <path d="M145.1496,130.026 C146.4566,123.373 149.4286,117.31 153.6266,112.287 C154.8376,110.829 156.1566,109.464 157.5646,108.192 C164.7146,101.733 174.2176,97.802 184.6516,97.802 C185.1146,97.802 185.5816,97.81 186.0446,97.829 C186.2016,97.829 186.3576,97.837 186.5106,97.844 C196.8896,98.311 206.2366,102.671 213.1166,109.491 C219.2426,115.565 223.4046,123.594 224.5696,132.553 C224.7896,134.241 224.9026,135.96 224.9026,137.706 L224.9026,145.607 C224.9026,167.647 206.8826,185.511 184.6516,185.511 C162.4236,185.511 144.4006,167.647 144.4006,145.607 L144.4006,137.706 C144.4006,136.01 144.5066,134.342 144.7146,132.706 L145.1496,130.026 Z" id="Fill-10" fill="#FFFFFF"></path>
                        <path d="M184.6516,179.2086 C162.4236,179.2086 144.4006,161.3456 144.4006,139.3056 L144.4006,145.6066 C144.4006,167.6466 162.4236,185.5116 184.6516,185.5116 C206.8826,185.5116 224.9026,167.6466 224.9026,145.6066 L224.9026,139.3056 C224.9026,161.3456 206.8826,179.2086 184.6516,179.2086" id="Fill-12" fill="#D0D2D3"></path>
                        <path d="M144.8361,130.026 L148.9941,130.026 L148.9941,149.148 C148.9941,150.338 148.1141,151.398 146.9201,151.507 C145.5501,151.633 144.4001,150.571 144.4001,149.243 L144.4001,135.419 C144.4001,133.613 144.5461,131.809 144.8361,130.026" id="Fill-14" fill="#4B6084"></path>
                        <path d="M224.9025,135.1881 L224.9025,149.1401 C224.9025,150.3301 224.0265,151.3921 222.8325,151.5061 C221.4635,151.6381 220.3095,150.5741 220.3095,149.2431 L220.3095,130.0261 L224.1545,130.0261 C224.6505,131.7031 224.9025,133.4411 224.9025,135.1881" id="Fill-16" fill="#4B6084"></path>
                        <path d="M186.0441,97.8288 C181.9731,104.1288 171.8811,117.7458 155.5361,127.3238 C151.6031,129.6258 147.9891,131.3838 144.7151,132.7058 C144.7151,132.7058 144.7191,132.6938 144.7191,132.6898 C145.6911,124.9908 148.8761,117.9718 153.6261,112.2868 C154.8381,110.8288 156.1561,109.4638 157.5651,108.1918 C164.7151,101.7328 174.2181,97.8028 184.6511,97.8028 C185.1141,97.8028 185.5811,97.8098 186.0441,97.8288" id="Fill-18" fill="#4B6084"></path>
                        <path d="M224.5695,132.5534 C219.0905,134.1994 208.2915,135.7494 191.1425,131.3054 C173.8025,126.8144 160.6425,117.9064 153.6265,112.2864 C154.8385,110.8284 156.1565,109.4634 157.5645,108.1924 C164.7155,101.7334 174.2175,97.8024 184.6515,97.8024 C185.2715,97.8024 185.8945,97.8144 186.5105,97.8444 C196.8895,98.3114 206.2365,102.6704 213.1165,109.4914 C219.2425,115.5654 223.4045,123.5944 224.5695,132.5534" id="Fill-20" fill="#808F91"></path>
                        <path d="M191.1428,107.9743 C183.5498,106.0073 176.7588,103.1943 170.9338,100.1803 C165.9438,101.9733 161.4128,104.7153 157.5648,108.1923 C156.1568,109.4633 154.8378,110.8283 153.6258,112.2863 C160.6428,117.9063 173.8028,126.8143 191.1428,131.3053 C208.2908,135.7493 219.0898,134.1993 224.5698,132.5533 C223.4878,124.2353 219.8198,116.7203 214.3958,110.8263 C208.5658,111.0873 200.8788,110.4973 191.1428,107.9743" id="Fill-22" fill="#4B6084"></path>
                        <path d="M191.1428,115.7516 C180.0568,112.8796 170.6828,108.2026 163.5268,103.7336 C161.3998,105.0376 159.4038,106.5306 157.5648,108.1916 C156.1568,109.4636 154.8378,110.8286 153.6258,112.2866 C160.6428,117.9056 173.8028,126.8146 191.1428,131.3056 C208.2908,135.7496 219.0898,134.1986 224.5698,132.5536 C223.8928,127.3486 222.1978,122.4596 219.7008,118.0826 C213.5498,119.0426 204.1848,119.1316 191.1428,115.7516" id="Fill-24" fill="#808F91"></path>
                        <path d="M191.1428,123.528 C176.9168,119.844 165.5088,113.187 157.9948,107.812 C157.8508,107.938 157.7058,108.064 157.5648,108.192 C156.1568,109.464 154.8378,110.829 153.6258,112.287 C160.6428,117.906 173.8028,126.814 191.1428,131.305 C208.2908,135.75 219.0898,134.199 224.5698,132.553 C224.2418,130.031 223.6668,127.585 222.8868,125.232 C217.0088,126.66 206.6838,127.556 191.1428,123.528" id="Fill-26" fill="#4B6084"></path>
                        <path d="M184.6711,158.8248 L184.6321,158.8248 C182.1881,158.8248 180.2061,156.8438 180.2061,154.3978 L180.2061,148.6368 C180.2061,146.1928 182.1881,144.2108 184.6321,144.2108 L184.6711,144.2108 C187.1151,144.2108 189.0981,146.1928 189.0981,148.6368 L189.0981,154.3978 C189.0981,156.8438 187.1151,158.8248 184.6711,158.8248" id="Fill-28" fill="#A62873"></path>
                        <path d="M256.0383,230.899 L256.0383,255.576 C253.7603,257.226 251.4163,258.79 249.0173,260.272 C243.4913,263.693 237.6763,266.684 231.6013,269.193 C230.0473,269.844 228.4703,270.458 226.8763,271.039 C226.6073,271.141 226.3333,271.24 226.0593,271.337 L226.0543,271.337 C219.7943,273.58 213.3053,275.323 206.6123,276.533 C203.8133,277.044 200.9823,277.456 198.1183,277.76 C194.6243,278.145 191.0873,278.379 187.5113,278.461 C186.9083,278.477 186.3003,278.482 185.6923,278.488 L185.6863,278.488 L185.6423,278.624 L185.2263,278.488 C185.0353,278.493 184.8443,278.493 184.6513,278.493 C184.3013,278.493 183.9453,278.493 183.5953,278.488 C182.9863,278.482 182.3843,278.477 181.7763,278.461 L181.7703,278.461 C178.2003,278.379 174.6733,278.145 171.1843,277.76 C168.2883,277.451 165.4183,277.033 162.5813,276.516 C155.9333,275.306 149.4753,273.569 143.2543,271.337 C142.9753,271.24 142.6963,271.136 142.4223,271.033 C140.8283,270.452 139.2513,269.838 137.6953,269.193 C131.6283,266.678 125.8073,263.687 120.2863,260.272 C117.8873,258.79 115.5493,257.226 113.2653,255.581 L113.2653,228.207 C113.2653,210.924 127.3943,196.922 144.8153,196.922 L158.5073,196.922 L167.9703,227.664 L167.9703,227.67 L168.9673,230.899 L200.3253,230.899 L201.3223,227.67 L210.7803,196.922 L224.4763,196.922 C241.8923,196.922 256.0213,210.924 256.0213,228.207 L256.0213,230.899 L256.0383,230.899 Z" id="Fill-30" fill="#2F968A"></path>
                        <path d="M231.6017,269.193 C230.0467,269.844 228.4697,270.458 226.8757,271.039 L227.5107,266.385 L228.3487,260.289 L231.5847,236.676 L231.6017,269.193 Z" id="Fill-32" fill="#0E6DA0"></path>
                        <path d="M142.4221,271.0328 C140.8281,270.4518 139.2511,269.8388 137.6951,269.1928 L137.6951,236.6768 L142.4221,271.0328 Z" id="Fill-34" fill="#0E6DA0"></path>
                        <path d="M201.3166,227.6637 L200.3196,230.8987 L192.6036,255.9827 L192.6036,255.9877 L192.4446,256.5097 L190.4896,262.8727 L189.0446,267.5687 L187.0836,273.9327 L185.6866,278.4877 L185.6426,278.6237 L185.2266,278.4877 C185.0356,278.4927 184.8436,278.4927 184.6516,278.4927 C184.3006,278.4927 183.9456,278.4927 183.5946,278.4877 L183.4146,277.9007 L181.6506,272.1677 L179.2566,264.3877 L177.4996,258.6537 L176.6946,256.0377 L168.9666,230.8987 L167.9696,227.6697 L167.9696,227.6637 L176.6396,220.3337 L184.6346,213.5687 L184.6406,213.5687 L192.5876,220.2847 L192.6696,220.3507 L192.6746,220.3557 L201.3166,227.6637 Z" id="Fill-36" fill="#FFFFFF"></path>
                        <path d="M169.3547,140.7721 C169.3547,142.6331 167.8337,144.1421 165.9557,144.1421 C164.0787,144.1421 162.5557,142.6331 162.5557,140.7721 C162.5557,138.9111 164.0787,137.4021 165.9557,137.4021 C167.8337,137.4021 169.3547,138.9111 169.3547,140.7721" id="Fill-38" fill="#A62873"></path>
                        <path d="M206.7473,140.7721 C206.7473,142.6331 205.2263,144.1421 203.3483,144.1421 C201.4713,144.1421 199.9483,142.6331 199.9483,140.7721 C199.9483,138.9111 201.4713,137.4021 203.3483,137.4021 C205.2263,137.4021 206.7473,138.9111 206.7473,140.7721" id="Fill-40" fill="#A62873"></path>
                        <path d="M184.6516,170.8082 C180.4356,170.8082 176.2186,169.2162 173.0086,166.0352 C172.5286,165.5572 172.5286,164.7852 173.0086,164.3072 C173.4906,163.8292 174.2706,163.8292 174.7526,164.3072 C180.2116,169.7192 189.0926,169.7192 194.5506,164.3072 C195.0326,163.8292 195.8126,163.8292 196.2946,164.3072 C196.7756,164.7852 196.7756,165.5572 196.2946,166.0352 C193.0846,169.2162 188.8686,170.8082 184.6516,170.8082" id="Fill-42" fill="#A62873"></path>
                        <path d="M192.6037,255.983 L192.6037,255.988 L192.4447,256.509 L190.4897,262.873 L189.0437,267.569 L187.0827,273.932 L185.6867,278.488 L185.6427,278.624 L185.2267,278.488 C185.0357,278.493 184.8437,278.493 184.6517,278.493 C184.3007,278.493 183.9457,278.493 183.5947,278.488 L183.4147,277.901 L181.6507,272.168 L179.2567,264.387 L177.4997,258.654 L176.6947,256.038 L177.0937,251.526 L177.5427,246.508 L177.5427,246.504 L178.1457,239.706 L178.1457,239.701 L178.5887,234.684 L178.9227,230.899 L178.9567,230.525 L179.3617,225.964 L189.9417,225.964 L190.3467,230.525 L190.3467,230.531 L190.3797,230.899 L191.0707,238.739 L191.5467,244.054 L192.1877,251.265 L192.6037,255.983 Z" id="Fill-44" fill="#E7AD26"></path>
                        <polygon id="Fill-46" fill="#E8CD5D" points="191.5461 244.0543 178.1441 239.7023 178.5881 234.6853 191.0741 238.7393"></polygon>
                        <polygon id="Fill-48" fill="#E8CD5D" points="192.6037 255.9869 192.6037 255.9839 192.1847 251.2639 177.5407 246.5089 177.0957 251.5249 192.4447 256.5079"></polygon>
                        <polygon id="Fill-50" fill="#E8CD5D" points="190.4875 262.8746 189.0425 267.5666 179.2585 264.3896 177.4985 258.6566"></polygon>
                        <polygon id="Fill-52" fill="#F6D85E" points="187.0832 273.9323 185.6872 278.4883 185.6432 278.6233 185.2272 278.4883 183.4142 277.9013 181.6502 272.1673"></polygon>
                        <path d="M188.2687,230.901 L181.0347,230.901 C176.9537,230.901 174.1367,226.849 175.5887,223.069 L177.8087,217.288 C178.6687,215.047 180.8357,213.567 183.2537,213.567 L186.0487,213.567 C188.4667,213.567 190.6337,215.047 191.4947,217.288 L193.7147,223.069 C195.1667,226.849 192.3497,230.901 188.2687,230.901" id="Fill-54" fill="#E8CD5D"></path>
                        <polygon id="Fill-56" fill="#E2854A" points="210.7824 196.9205 210.7824 196.9205 200.3574 191.0965 184.6514 213.5665 201.3204 227.6665"></polygon>
                        <polygon id="Fill-58" fill="#E2854A" points="158.506 196.9205 158.506 196.9205 168.932 191.0965 184.637 213.5665 167.968 227.6665"></polygon>
                        <path d="M220.5344,239.0436 L187.5114,278.4606 C186.9084,278.4776 186.3004,278.4816 185.6924,278.4876 L200.3254,230.8986 L201.3224,227.6696 L210.7804,196.9226 L219.4174,224.2056 C219.7284,225.1926 219.2094,226.2516 218.2334,226.6156 L211.5304,229.1186 C209.8444,229.7426 209.8274,232.1056 211.5034,232.7566 L219.7454,235.9806 C220.9884,236.4646 221.3934,238.0176 220.5344,239.0436" id="Fill-60" fill="#007D8D"></path>
                        <path d="M183.5949,278.4879 C182.9869,278.4819 182.3839,278.4769 181.7769,278.4609 L181.7709,278.4609 L148.7529,239.0439 C147.8989,238.0169 148.299183,236.4649 149.5469,235.9809 L157.7829,232.7569 C159.4649,232.1049 159.4439,229.7429 157.7569,229.1189 L151.0529,226.6159 C150.0779,226.2519 149.5579,225.1929 149.8699,224.2059 L158.5069,196.9229 L179.2569,264.3869 L181.6509,272.1679 L183.4139,277.9009 L183.5949,278.4879 Z" id="Fill-62" fill="#007D8D"></path>
                        <polygon id="Fill-64" fill="#D0D2D3" points="200.341 186.8063 184.652 203.8013 184.637 203.8013 168.947 186.8063 168.932 191.0963 184.637 213.5673 184.652 213.5673 200.358 191.0963"></polygon>
                        <path d="M226.8635,266.4557 L217.6815,266.4557 C215.9815,266.4557 214.6025,265.0777 214.6025,263.3777 L214.6025,262.9807 C214.6025,261.2807 215.9815,259.9017 217.6815,259.9017 L226.8635,259.9017 C228.5635,259.9017 229.9425,261.2807 229.9425,262.9807 L229.9425,263.3777 C229.9425,265.0777 228.5635,266.4557 226.8635,266.4557" id="Fill-66" fill="#E7AD26"></path>
                        <path d="M290.9728,218.4928 C290.2438,219.8898 289.4938,221.2698 288.7098,222.6318 C284.2868,230.3368 279.0168,237.5078 273.0358,244.0208 C272.6308,244.4638 272.2208,244.9028 271.8068,245.3368 C269.5118,247.7478 267.1248,250.0638 264.6428,252.2738 C264.0798,252.7818 263.5088,253.2748 262.9378,253.7678 C262.8458,253.8548 262.7488,253.9368 262.6568,254.0138 C262.6238,254.0428 262.5918,254.0738 262.5548,254.1008 C260.0488,256.2388 257.4468,258.2758 254.7598,260.1948 C252.5258,261.8158 250.2218,263.3498 247.8678,264.8068 C242.4398,268.1698 236.7278,271.1058 230.7608,273.5678 C229.2358,274.2078 227.6878,274.8108 226.1208,275.3818 C225.8588,275.4818 225.5868,275.5778 225.3198,275.6738 L225.3148,275.6738 C222.3208,276.7428 219.2798,277.6968 216.1838,278.5378 C212.9168,279.4198 209.5948,280.1688 206.2178,280.7798 C205.5278,280.9038 204.8308,281.0268 204.1358,281.1408 C202.0678,281.4738 199.9798,281.7578 197.8788,281.9808 C194.4468,282.3608 190.9728,282.5898 187.4568,282.6718 C187.0428,282.6848 186.6278,282.6888 186.2088,282.6938 C186.0298,282.6938 185.8548,282.6988 185.6748,282.6988 L185.6698,282.6988 C185.5688,282.6988 185.4668,282.7028 185.3678,282.7028 C185.3178,282.7028 185.2678,282.6998 185.2188,282.6988 C185.0298,282.7028 184.8398,282.7028 184.6518,282.7028 C184.3058,282.7028 183.9558,282.7028 183.6158,282.6988 C183.4398,282.6988 183.2648,282.6938 183.0948,282.6938 C182.6708,282.6888 182.2508,282.6848 181.8268,282.6718 L181.8228,282.6718 C178.3168,282.5898 174.8518,282.3608 171.4238,281.9808 C169.3238,281.7578 167.2368,281.4738 165.1628,281.1368 C164.4308,281.0218 163.7018,280.8938 162.9748,280.7628 C159.6578,280.1588 156.3958,279.4238 153.1798,278.5558 C150.0658,277.7158 147.0008,276.7518 143.9938,275.6738 C143.7208,275.5778 143.4448,275.4768 143.1778,275.3768 C141.6118,274.8058 140.0628,274.2028 138.5338,273.5678 C132.5768,271.1008 126.8588,268.1598 121.4358,264.8068 C119.0808,263.3498 116.7828,261.8158 114.5428,260.1988 C111.8208,258.2488 109.1858,256.1838 106.6468,254.0138 C106.5908,253.9728 106.5448,253.9238 106.4908,253.8778 C105.8868,253.3618 105.2918,252.8408 104.6988,252.3108 C102.2328,250.1188 99.8608,247.8208 97.5888,245.4238 C97.1418,244.9528 96.6958,244.4778 96.2578,243.9978 C90.2728,237.5028 85.0068,230.3318 80.5928,222.6318 C79.8098,221.2698 79.0588,219.8898 78.3308,218.4928 C69.8438,202.2098 65.0478,183.7248 65.0478,164.1358 C65.0478,98.6508 118.5978,45.5618 184.6518,45.5618 C250.7048,45.5618 304.2548,98.6508 304.2548,164.1358 C304.2548,183.7248 299.4588,202.2098 290.9728,218.4928 M304.7638,113.8278 C298.1978,98.4368 288.7988,84.6168 276.8298,72.7518 C264.8618,60.8858 250.9208,51.5678 235.3968,45.0578 C219.3188,38.3158 202.2448,34.8978 184.6518,34.8978 C167.0578,34.8978 149.9848,38.3158 133.9068,45.0578 C118.3818,51.5678 104.4418,60.8858 92.4728,72.7518 C80.5038,84.6168 71.1068,98.4368 64.5398,113.8278 C57.7398,129.7668 54.2908,146.6928 54.2908,164.1358 C54.2908,174.6028 55.5598,185.0218 58.0618,195.1018 C60.4928,204.8968 64.0968,214.4138 68.7738,223.3888 C69.6068,224.9868 70.4158,226.4688 71.2488,227.9158 C76.0268,236.2508 81.7668,244.0818 88.3008,251.1758 C88.7238,251.6378 89.1738,252.1198 89.7578,252.7348 C92.2108,255.3248 94.8248,257.8558 97.5148,260.2488 C98.1548,260.8198 98.7618,261.3508 99.3608,261.8638 C99.4648,261.9588 99.5898,262.0678 99.7348,262.1868 C102.4638,264.5138 105.3238,266.7518 108.2368,268.8388 C110.6398,270.5728 113.1638,272.2608 115.7398,273.8538 C121.6988,277.5388 127.9718,280.7528 134.3878,283.4088 C136.0278,284.0898 137.7208,284.7498 139.4128,285.3668 C139.7228,285.4828 140.0418,285.5988 140.3568,285.7108 C143.6458,286.8888 147.0098,287.9438 150.3548,288.8468 C153.8538,289.7908 157.4478,290.5998 161.0358,291.2518 C161.6828,291.3698 162.5428,291.5228 163.4588,291.6668 C165.7268,292.0358 168.0128,292.3448 170.2548,292.5828 C173.9448,292.9898 177.7418,293.2418 181.5418,293.3328 C182.0698,293.3478 182.5728,293.3528 182.9788,293.3578 L183.0368,293.3578 L183.0948,293.3578 L183.2048,293.3598 C183.3138,293.3608 183.4228,293.3628 183.5338,293.3628 C183.9018,293.3678 184.2798,293.3678 184.6518,293.3678 C184.8438,293.3678 185.0368,293.3678 185.2298,293.3648 L185.3678,293.3648 C185.4518,293.3648 185.5378,293.3648 185.6248,293.3638 L185.6788,293.3628 C185.8128,293.3628 185.9488,293.3618 186.0848,293.3598 L186.2088,293.3578 L186.2608,293.3578 L186.3258,293.3578 C186.7318,293.3528 187.2348,293.3478 187.7588,293.3318 C191.5638,293.2408 195.3608,292.9898 199.0448,292.5838 C201.2708,292.3468 203.5648,292.0378 205.8628,291.6678 L205.8768,291.6648 L205.8928,291.6628 C206.6568,291.5368 207.4128,291.4028 208.1238,291.2758 L208.1378,291.2738 L208.1528,291.2708 C211.7948,290.6108 215.4478,289.7888 219.0088,288.8278 C221.7448,288.0848 224.4738,287.2508 227.1518,286.3388 L227.2018,286.3388 L228.9818,285.7018 L229.1108,285.6548 C229.3748,285.5598 229.6418,285.4648 229.9028,285.3658 C231.6238,284.7368 233.3108,284.0778 234.9168,283.4048 C241.3418,280.7518 247.6168,277.5388 253.5678,273.8518 C256.1888,272.2298 258.7168,270.5378 261.0798,268.8238 C263.9398,266.7798 266.7608,264.5778 269.4668,262.2748 C269.5668,262.1918 269.6548,262.1168 269.7298,262.0508 C269.8488,261.9488 269.9818,261.8338 270.1258,261.7038 C270.6838,261.2218 271.2598,260.7218 271.8558,260.1858 C274.5108,257.8208 277.1268,255.2868 279.6318,252.6528 C280.0848,252.1808 280.5448,251.6868 281.0018,251.1878 C287.5368,244.0708 293.2798,236.2338 298.0598,227.9058 C298.8868,226.4688 299.6978,224.9868 300.5318,223.3858 C305.2068,214.4138 308.8108,204.8968 311.2428,195.1018 C313.7438,185.0218 315.0128,174.6028 315.0128,164.1358 C315.0128,146.6928 311.5648,129.7668 304.7638,113.8278" id="Fill-68" fill="#0E6DA0"></path>
                        <path d="M268.0578,241.8434 C265.8628,244.1524 263.5788,246.3674 261.2028,248.4834 C260.6638,248.9684 260.1178,249.4414 259.5708,249.9124 C259.4828,249.9954 259.3898,250.0744 259.3018,250.1494 C259.2708,250.1754 259.2408,250.2054 259.2038,250.2324 C256.8058,252.2784 254.3148,254.2274 251.7448,256.0634 C249.6068,257.6144 247.4018,259.0834 245.1488,260.4784 C239.9538,263.6954 234.4878,266.5054 228.7778,268.8624 C227.3188,269.4734 225.8368,270.0504 224.3378,270.5974 C224.0858,270.6934 223.8268,270.7844 223.5708,270.8764 L223.5668,270.8764 C220.7008,271.8994 217.7898,272.8134 214.8278,273.6164 C211.7018,274.4604 208.5228,275.1774 205.2898,275.7634 C204.6288,275.8814 203.9628,275.9994 203.2978,276.1094 C201.3178,276.4274 199.3208,276.6984 197.3098,276.9124 C194.0258,277.2764 190.7018,277.4944 187.3368,277.5734 C186.9398,277.5864 186.5428,277.5904 186.1418,277.5954 C185.9698,277.5954 185.8018,277.5994 185.6298,277.5994 L185.6258,277.5994 C185.5298,277.5994 185.4318,277.6034 185.3358,277.6034 C185.2878,277.6034 185.2418,277.6034 185.1938,277.5994 C185.0128,277.6034 184.8318,277.6034 184.6518,277.6034 C184.3218,277.6034 183.9858,277.6034 183.6598,277.5994 C183.4928,277.5994 183.3248,277.5954 183.1618,277.5954 C182.7558,277.5904 182.3548,277.5864 181.9498,277.5734 L181.9448,277.5734 C178.5888,277.4944 175.2738,277.2764 171.9938,276.9124 C169.9828,276.6984 167.9858,276.4274 166.0008,276.1044 C165.2998,275.9944 164.6038,275.8724 163.9078,275.7454 C160.7328,275.1684 157.6108,274.4654 154.5338,273.6344 C151.5528,272.8304 148.6208,271.9074 145.7418,270.8764 C145.4818,270.7844 145.2168,270.6894 144.9608,270.5924 C143.4618,270.0454 141.9808,269.4694 140.5168,268.8624 C134.8158,266.5014 129.3438,263.6864 124.1548,260.4784 C121.9018,259.0834 119.7018,257.6144 117.5588,256.0674 C114.9538,254.2004 112.4308,252.2254 110.0018,250.1494 C109.9488,250.1104 109.9048,250.0614 109.8518,250.0184 C109.2748,249.5244 108.7048,249.0264 108.1368,248.5184 C105.7778,246.4204 103.5068,244.2214 101.3328,241.9264 C100.9058,241.4774 100.4778,241.0224 100.0598,240.5634 C94.3318,234.3474 89.2918,227.4854 85.0688,220.1144 C84.3188,218.8134 83.5998,217.4924 82.9038,216.1554 C74.7828,200.5724 70.1928,182.8824 70.1928,164.1354 C70.1928,101.4664 121.4388,50.6614 184.6518,50.6614 C247.8648,50.6614 299.1118,101.4664 299.1118,164.1354 C299.1118,182.8824 294.5218,200.5724 286.3998,216.1554 C285.7038,217.4924 284.9848,218.8134 284.2348,220.1144 C280.0018,227.4894 274.9578,234.3524 269.2358,240.5844 C268.8478,241.0084 268.4548,241.4284 268.0578,241.8434 M272.2008,245.7024 C272.6168,245.2674 273.0288,244.8264 273.4358,244.3814 C279.4428,237.8394 284.7378,230.6354 289.1798,222.8954 C289.9668,221.5284 290.7218,220.1424 291.4528,218.7384 C299.9778,202.3814 304.7948,183.8144 304.7948,164.1354 C304.7948,98.3554 251.0038,45.0274 184.6518,45.0274 C118.2998,45.0274 64.5078,98.3554 64.5078,164.1354 C64.5078,183.8144 69.3268,202.3814 77.8508,218.7384 C78.5818,220.1424 79.3358,221.5284 80.1228,222.8954 C84.5568,230.6304 89.8468,237.8344 95.8588,244.3594 C96.2978,244.8404 96.7468,245.3184 97.1958,245.7904 C99.4778,248.1984 101.8608,250.5064 104.3368,252.7084 C104.9338,253.2404 105.5318,253.7644 106.1368,254.2824 C106.1928,254.3284 106.2398,254.3794 106.2938,254.4204 C108.8448,256.6004 111.4918,258.6734 114.2268,260.6324 C116.4758,262.2574 118.7858,263.7984 121.1508,265.2624 C126.5978,268.6294 132.3408,271.5844 138.3258,274.0624 C139.8618,274.6994 141.4168,275.3054 142.9908,275.8794 C143.2588,275.9804 143.5368,276.0804 143.8098,276.1774 C146.8308,277.2604 149.9098,278.2284 153.0368,279.0734 C156.2678,279.9444 159.5448,280.6834 162.8768,281.2884 C163.6078,281.4214 164.3388,281.5504 165.0758,281.6644 C167.1578,282.0044 169.2538,282.2884 171.3648,282.5134 C174.8078,282.8944 178.2878,283.1234 181.8098,283.2064 L181.8148,283.2064 C182.2408,283.2204 182.6618,283.2254 183.0868,283.2294 C183.2588,283.2294 183.4348,283.2344 183.6108,283.2344 C183.9538,283.2394 184.3048,283.2394 184.6518,283.2394 C184.8408,283.2394 185.0318,283.2394 185.2208,283.2344 C185.2708,283.2364 185.3208,283.2364 185.3698,283.2364 C185.4708,283.2364 185.5728,283.2344 185.6748,283.2344 L185.6788,283.2344 C185.8598,283.2344 186.0358,283.2294 186.2158,283.2294 C186.6368,283.2254 187.0538,283.2204 187.4698,283.2064 C191.0008,283.1234 194.4918,282.8944 197.9388,282.5134 C200.0488,282.2884 202.1458,282.0044 204.2238,281.6694 C204.9218,281.5554 205.6208,281.4314 206.3158,281.3074 C209.7078,280.6924 213.0448,279.9404 216.3268,279.0544 C219.4358,278.2094 222.4908,277.2514 225.4988,276.1774 L225.5028,276.1774 C225.7718,276.0804 226.0448,275.9854 226.3088,275.8844 C227.8818,275.3104 229.4368,274.7044 230.9688,274.0624 C236.9618,271.5894 242.7018,268.6394 248.1528,265.2624 C250.5178,263.7984 252.8318,262.2574 255.0768,260.6284 C257.7748,258.7004 260.3898,256.6554 262.9078,254.5074 C262.9438,254.4804 262.9768,254.4474 263.0088,254.4204 C263.1018,254.3424 263.1988,254.2594 263.2908,254.1724 C263.8658,253.6774 264.4388,253.1814 265.0038,252.6724 C267.4978,250.4514 269.8958,248.1254 272.2008,245.7024" id="Fill-70" fill="#8ED1E5"></path>
                        <path d="M184.6516,45.027 C250.7826,45.027 304.4306,98.002 304.7876,163.48 C304.7906,163.116 304.7956,162.752 304.7956,162.386 C304.7956,96.606 251.0046,43.278 184.6516,43.278 C118.2996,43.278 64.5076,96.606 64.5076,162.386 C64.5076,162.752 64.5126,163.116 64.5166,163.48 C64.8736,98.002 118.5206,45.027 184.6516,45.027" id="Fill-72" fill="#FFFFFF"></path>
                        <path d="M367.465,237.9049 C367.465,274.4089 337.615,303.9999 300.795,303.9999 C263.975,303.9999 234.126,274.4089 234.126,237.9049 C234.126,201.4019 263.975,171.8099 300.795,171.8099 C337.615,171.8099 367.465,201.4019 367.465,237.9049" id="Fill-74" fill="#0E6DA0"></path>
                        <path d="M358.7004,237.9049 C358.7004,269.6099 332.7754,295.3109 300.7954,295.3109 C268.8154,295.3109 242.8894,269.6099 242.8894,237.9049 C242.8894,206.2009 268.8154,180.4989 300.7954,180.4989 C332.7754,180.4989 358.7004,206.2009 358.7004,237.9049" id="Fill-76" fill="#8ED1E5"></path>
                        <path d="M133.3391,235.5553 C133.3391,272.0593 103.4891,301.6503 66.6691,301.6503 C29.8491,301.6503 0.0001,272.0593 0.0001,235.5553 C0.0001,199.0523 29.8491,169.4603 66.6691,169.4603 C103.4891,169.4603 133.3391,199.0523 133.3391,235.5553" id="Fill-78" fill="#0E6DA0"></path>
                        <path d="M124.5744,235.5553 C124.5744,267.2603 98.6494,292.9613 66.6694,292.9613 C34.6884,292.9613 8.7634,267.2603 8.7634,235.5553 C8.7634,203.8513 34.6884,178.1493 66.6694,178.1493 C98.6494,178.1493 124.5744,203.8513 124.5744,235.5553" id="Fill-80" fill="#8ED1E5"></path>
                        <path d="M331.6164,258.2291 L315.8414,261.3201 C312.9274,261.8901 309.9534,262.0511 307.0064,261.8011 C305.0554,261.6361 303.5714,259.9871 303.5714,258.0461 L303.5714,256.1621 C303.5714,255.4671 304.1394,254.9051 304.8394,254.9051 L312.5524,254.9051 C314.5914,254.9051 316.3684,253.3471 316.4294,251.3281 C316.4934,249.2371 314.8034,247.5231 312.7084,247.5231 L276.3474,247.5231 L276.3474,266.5281 L278.4144,266.5281 C279.7654,266.5281 281.0744,267.0001 282.1084,267.8631 C282.8504,268.4811 283.7384,268.9031 284.6894,269.0891 L303.5554,272.7861 C307.6114,273.5801 311.7844,273.5801 315.8414,272.7861 L333.0914,269.4061 C334.8724,269.0571 336.1564,267.5081 336.1564,265.7081 L336.1564,261.9271 C336.1564,259.5511 333.9674,257.7681 331.6164,258.2291" id="Fill-82" fill="#FFFFFF"></path>
                        <path d="M333.091,264.275 L315.841,267.655 C311.784,268.449 307.612,268.449 303.556,267.655 L284.69,263.959 C283.738,263.772 282.851,263.35 282.109,262.732 C281.074,261.87 279.766,261.397 278.414,261.397 L276.348,261.397 L276.348,266.528 L278.414,266.528 C279.766,266.528 281.074,267.001 282.109,267.863 C282.851,268.481 283.738,268.903 284.69,269.089 L303.556,272.786 C307.612,273.58 311.784,273.58 315.841,272.786 L333.091,269.406 C334.872,269.057 336.156,267.508 336.156,265.708 L336.156,261.927 C336.156,261.695 336.135,261.469 336.095,261.251 C335.821,262.752 334.646,263.97 333.091,264.275" id="Fill-84" fill="#D1D3D4"></path>
                        <path d="M272.5617,274.5123 L267.9347,274.5123 C265.8437,274.5123 264.1487,272.8173 264.1487,270.7263 L264.1487,244.5293 C264.1487,242.4383 265.8437,240.7423 267.9347,240.7423 L272.5617,240.7423 C274.6537,240.7423 276.3477,242.4383 276.3477,244.5293 L276.3477,270.7263 C276.3477,272.8173 274.6537,274.5123 272.5617,274.5123" id="Fill-86" fill="#009ADD"></path>
                        <path d="M272.5461,266.1354 L267.9511,266.1354 C265.8521,266.1354 264.1491,264.4484 264.1491,262.3654 L264.1491,270.7424 C264.1491,272.8244 265.8521,274.5124 267.9511,274.5124 L272.5461,274.5124 C274.6461,274.5124 276.3481,272.8244 276.3481,270.7424 L276.3481,262.3654 C276.3481,264.4484 274.6461,266.1354 272.5461,266.1354" id="Fill-88" fill="#0E6DA0"></path>
                        <path d="M303.5715,258.0465 L303.5715,256.1615 C303.5715,255.4675 304.1395,254.9045 304.8395,254.9045 L312.5355,254.9045 C314.4985,254.9045 316.2565,253.4755 316.4185,251.5355 C316.4285,251.4005 316.4335,251.2675 316.4305,251.1355 L305.7575,251.1355 C302.6345,251.1355 300.1785,253.7825 300.4395,256.8675 C300.6615,259.4835 302.7855,261.5435 305.4275,261.7045 L307.0065,261.8015 C305.0555,261.6365 303.5715,259.9865 303.5715,258.0465" id="Fill-90" fill="#D1D3D4"></path>
                        <mask id="mask-2" fill="white">
                            <use xlink:href="#path-1"></use>
                        </mask>
                        <g id="Clip-93"></g>
                        <polygon id="Fill-92" fill="#A33927" mask="url(#mask-2)" points="273.57 228.043 328.021 228.043 328.021 193.185 273.57 193.185"></polygon>
                        <polygon id="Fill-94" fill="#BF412E" mask="url(#mask-2)" points="271.272 232.576 330.319 232.576 330.319 197.268 271.272 197.268"></polygon>
                        <polygon id="Fill-95" fill="#F8E482" mask="url(#mask-2)" points="268.897 236.659 332.694 236.659 332.694 201.351 268.897 201.351"></polygon>
                    </g>
                    <g id="Group-99" transform="translate(285.000000, 203.462000)">
                        <mask id="mask-4" fill="white">
                            <use xlink:href="#path-3"></use>
                        </mask>
                        <g id="Clip-98"></g>
                        <polygon id="Fill-97" fill="#FFFFFF" mask="url(#mask-4)" points="-0.203 32.2 31.793 32.2 31.793 -0.19 -0.203 -0.19"></polygon>
                    </g>
                    <path d="M324.7199,222.32 C323.1459,222.32 321.8669,221.041 321.8669,219.466 C321.8669,217.891 323.1459,216.614 324.7199,216.614 C326.2939,216.614 327.5729,217.891 327.5729,219.466 C327.5729,221.041 326.2939,222.32 324.7199,222.32" id="Fill-100" fill="#F6D85E"></path>
                    <g id="Group-104" transform="translate(321.000000, 216.462000)">
                        <mask id="mask-6" fill="white">
                            <use xlink:href="#path-5"></use>
                        </mask>
                        <g id="Clip-103"></g>
                        <polygon id="Fill-102" fill="#F6D85E" mask="url(#mask-6)" points="0.593 6.133 6.847 6.133 6.847 -0.122 0.593 -0.122"></polygon>
                    </g>
                    <path d="M332.7062,212.696 L332.7062,201.801 L321.8162,201.801 C321.8162,207.818 326.6912,212.696 332.7062,212.696" id="Fill-105" fill="#E14027"></path>
                    <g id="Group-109" transform="translate(321.000000, 201.462000)">
                        <mask id="mask-8" fill="white">
                            <use xlink:href="#path-7"></use>
                        </mask>
                        <g id="Clip-108"></g>
                        <polygon id="Fill-107" fill="#E14027" mask="url(#mask-8)" points="0.542 11.508 11.98 11.508 11.98 0.064 0.542 0.064"></polygon>
                    </g>
                    <path d="M332.7062,226.238 C326.6912,226.238 321.8162,231.116 321.8162,237.133 L332.7062,237.133 L332.7062,226.238 Z" id="Fill-110" fill="#E14027"></path>
                    <g id="Group-114" transform="translate(321.000000, 225.462000)">
                        <mask id="mask-10" fill="white">
                            <use xlink:href="#path-9"></use>
                        </mask>
                        <g id="Clip-113"></g>
                        <polygon id="Fill-112" fill="#E14027" mask="url(#mask-10)" points="0.542 11.946 11.98 11.946 11.98 0.502 0.542 0.502"></polygon>
                    </g>
                    <g id="Group-119" transform="translate(268.000000, 216.462000)">
                        <path d="M8.8703,0.152 C10.4443,0.152 11.7233,1.431 11.7233,3.006 C11.7233,4.581 10.4443,5.858 8.8703,5.858 C7.2963,5.858 6.0183,4.581 6.0183,3.006 C6.0183,1.431 7.2963,0.152 8.8703,0.152" id="Fill-115" fill="#F6D85E"></path>
                        <path d="M0.8849,9.776 L0.8849,20.671 L11.7749,20.671 C11.7749,14.654 6.8989,9.776 0.8849,9.776" id="Fill-117" fill="#E14027"></path>
                    </g>
                    <g id="Group-122" transform="translate(268.000000, 225.462000)">
                        <mask id="mask-12" fill="white">
                            <use xlink:href="#path-11"></use>
                        </mask>
                        <g id="Clip-121"></g>
                        <polygon id="Fill-120" fill="#E14027" mask="url(#mask-12)" points="0.611 11.946 12.049 11.946 12.049 0.502 0.611 0.502"></polygon>
                    </g>
                    <path d="M268.8849,212.697 C274.8989,212.697 279.7749,207.82 279.7749,201.802 L268.8849,201.802 L268.8849,212.697 Z" id="Fill-123" fill="#E14027"></path>
                    <g id="Group-127" transform="translate(268.000000, 201.462000)">
                        <mask id="mask-14" fill="white">
                            <use xlink:href="#path-13"></use>
                        </mask>
                        <g id="Clip-126"></g>
                        <polygon id="Fill-125" fill="#E14027" mask="url(#mask-14)" points="0.8996 0.2438 12.4066 0.2328 12.4066 11.6778 0.8846 11.7748"></polygon>
                    </g>
                    <g id="Group-163" transform="translate(0.000000, 0.462000)">
                        <g id="Group-130">
                            <mask id="mask-16" fill="white">
                                <use xlink:href="#path-15"></use>
                            </mask>
                            <g id="Clip-129"></g>
                            <path d="M133.3391,66.6325 C133.3391,103.1355 103.4891,132.7275 66.6691,132.7275 C29.8491,132.7275 0.0001,103.1355 0.0001,66.6325 C0.0001,30.1295 29.8491,0.5375 66.6691,0.5375 C103.4891,0.5375 133.3391,30.1295 133.3391,66.6325" id="Fill-128" fill="#0E6DA0" mask="url(#mask-16)"></path>
                        </g>
                        <path d="M124.5744,66.6325 C124.5744,98.3375 98.6494,124.0385 66.6694,124.0385 C34.6884,124.0385 8.7634,98.3375 8.7634,66.6325 C8.7634,34.9285 34.6884,9.2265 66.6694,9.2265 C98.6494,9.2265 124.5744,34.9285 124.5744,66.6325" id="Fill-131" fill="#8ED1E5"></path>
                        <g id="Group-135" transform="translate(234.000000, 0.000000)">
                            <mask id="mask-18" fill="white">
                                <use xlink:href="#path-17"></use>
                            </mask>
                            <g id="Clip-134"></g>
                            <path d="M133.465,66.6325 C133.465,103.1355 103.615,132.7275 66.795,132.7275 C29.975,132.7275 0.126,103.1355 0.126,66.6325 C0.126,30.1295 29.975,0.5375 66.795,0.5375 C103.615,0.5375 133.465,30.1295 133.465,66.6325" id="Fill-133" fill="#0E6DA0" mask="url(#mask-18)"></path>
                        </g>
                        <path d="M358.7004,66.6325 C358.7004,98.3375 332.7754,124.0385 300.7954,124.0385 C268.8154,124.0385 242.8894,98.3375 242.8894,66.6325 C242.8894,34.9285 268.8154,9.2265 300.7954,9.2265 C332.7754,9.2265 358.7004,34.9285 358.7004,66.6325" id="Fill-136" fill="#8ED1E5"></path>
                        <path d="M88.4934,109.8121 L44.8454,109.8121 C42.9494,109.8121 41.4124,108.2761 41.4124,106.3801 L41.4124,24.0431 C41.4124,22.1471 42.9494,20.6111 44.8454,20.6111 L88.4934,20.6111 C90.3894,20.6111 91.9264,22.1471 91.9264,24.0431 L91.9264,106.3801 C91.9264,108.2761 90.3894,109.8121 88.4934,109.8121" id="Fill-138" fill="#E6E7E8"></path>
                        <path d="M82.6389,109.8121 L50.6999,109.8121 C49.0579,109.8121 47.7269,108.4821 47.7269,106.8391 L47.7269,23.5831 C47.7269,21.9421 49.0579,20.6111 50.6999,20.6111 L82.6389,20.6111 C84.2819,20.6111 85.6119,21.9421 85.6119,23.5831 L85.6119,106.8391 C85.6119,108.4821 84.2819,109.8121 82.6389,109.8121" id="Fill-140" fill="#FFFFFF"></path>
                        <path d="M86.2336,103.7799 L47.1056,103.7799 C45.7606,103.7799 44.6706,102.6899 44.6706,101.3459 L44.6706,29.0769 C44.6706,27.7329 45.7606,26.6429 47.1046,26.6429 L86.2336,26.6429 C87.5776,26.6429 88.6676,27.7329 88.6676,29.0769 L88.6676,101.3459 C88.6676,102.6899 87.5776,103.7799 86.2336,103.7799" id="Fill-142" fill="#1CAEE4"></path>
                        <path d="M70.718,24.776 L62.621,24.776 C61.989,24.776 61.476,24.267 61.476,23.639 C61.476,23.012 61.989,22.504 62.621,22.504 L70.718,22.504 C71.351,22.504 71.864,23.012 71.864,23.639 C71.864,24.267 71.351,24.776 70.718,24.776" id="Fill-144" fill="#BCBEC0"></path>
                        <path d="M70.718,107.9196 L62.621,107.9196 C61.989,107.9196 61.476,107.4106 61.476,106.7836 C61.476,106.1556 61.989,105.6486 62.621,105.6486 L70.718,105.6486 C71.351,105.6486 71.864,106.1556 71.864,106.7836 C71.864,107.4106 71.351,107.9196 70.718,107.9196" id="Fill-146" fill="#FFFFFF"></path>
                        <path d="M86.2229,26.6432 L47.1159,26.6432 C45.7659,26.6432 44.6709,27.7282 44.6709,29.0662 L44.6709,31.4902 L88.6669,31.4902 L88.6669,29.0662 C88.6669,27.7282 87.5729,26.6432 86.2229,26.6432" id="Fill-148" fill="#136DA0"></path>
                        <mask id="mask-20" fill="white">
                            <use xlink:href="#path-19"></use>
                        </mask>
                        <g id="Clip-151"></g>
                        <polygon id="Fill-150" fill="#009ADD" mask="url(#mask-20)" points="85.611 98.933 88.667 98.933 88.667 31.49 85.611 31.49"></polygon>
                        <path d="M86.2229,103.7799 L47.1159,103.7799 C45.7659,103.7799 44.6709,102.6949 44.6709,101.3569 L44.6709,98.9329 L88.6669,98.9329 L88.6669,101.3569 C88.6669,102.6949 87.5729,103.7799 86.2229,103.7799" id="Fill-152" fill="#136DA0" mask="url(#mask-20)"></path>
                        <polygon id="Fill-153" fill="#009ADD" mask="url(#mask-20)" points="44.671 98.933 47.727 98.933 47.727 31.49 44.671 31.49"></polygon>
                        <line x1="54.1516" y1="68.1979" x2="79.1866" y2="68.1979" id="Stroke-154" stroke="#FFFFFF" stroke-width="2.811" stroke-linecap="round" stroke-linejoin="round" mask="url(#mask-20)"></line>
                        <line x1="54.1516" y1="74.7291" x2="79.1866" y2="74.7291" id="Stroke-155" stroke="#FFFFFF" stroke-width="2.811" stroke-linecap="round" stroke-linejoin="round" mask="url(#mask-20)"></line>
                        <path d="M79.2492,95.1637 L54.0902,95.1637 C53.4692,95.1637 52.9652,94.6597 52.9652,94.0387 L52.9652,84.5307 C52.9652,83.9097 53.4692,83.4067 54.0902,83.4067 L79.2492,83.4067 C79.8702,83.4067 80.3732,83.9097 80.3732,84.5307 L80.3732,94.0387 C80.3732,94.6597 79.8702,95.1637 79.2492,95.1637" id="Fill-156" fill="#009ADD" mask="url(#mask-20)"></path>
                        <path d="M79.2492,93.484 L54.0902,93.484 C53.4692,93.484 52.9652,92.98 52.9652,92.359 L52.9652,82.851 C52.9652,82.23 53.4692,81.727 54.0902,81.727 L79.2492,81.727 C79.8702,81.727 80.3732,82.23 80.3732,82.851 L80.3732,92.359 C80.3732,92.98 79.8702,93.484 79.2492,93.484" id="Fill-157" fill="#E43D91" mask="url(#mask-20)"></path>
                        <path d="M79.2492,91.8043 L54.0902,91.8043 C53.4692,91.8043 52.9652,91.3003 52.9652,90.6793 L52.9652,81.1723 C52.9652,80.5513 53.4692,80.0473 54.0902,80.0473 L79.2492,80.0473 C79.8702,80.0473 80.3732,80.5513 80.3732,81.1723 L80.3732,90.6793 C80.3732,91.3003 79.8702,91.8043 79.2492,91.8043" id="Fill-158" fill="#AD4A90" mask="url(#mask-20)"></path>
                        <path d="M71.8684,85.4606 C71.8894,85.4226 71.9124,85.3856 71.9294,85.3466 C71.9514,85.2916 71.9664,85.2346 71.9804,85.1796 C71.9874,85.1546 71.9974,85.1326 72.0024,85.1076 C72.0164,85.0366 72.0234,84.9646 72.0264,84.8916 C72.0264,84.8826 72.0284,84.8746 72.0284,84.8656 C72.0354,84.5186 71.9074,84.1696 71.6404,83.9036 C71.1194,83.3876 70.2744,83.3876 69.7544,83.9036 L66.3804,87.2496 L64.7144,85.5996 C64.1934,85.0826 63.3484,85.0826 62.8274,85.5996 C62.8134,85.6126 62.8054,85.6296 62.7914,85.6436 L62.7914,85.6446 C62.5514,85.9026 62.4324,86.2316 62.4394,86.5606 C62.4394,86.5706 62.4414,86.5806 62.4424,86.5916 C62.4454,86.6626 62.4514,86.7336 62.4664,86.8036 C62.4714,86.8286 62.4814,86.8536 62.4884,86.8786 C62.5034,86.9336 62.5164,86.9876 62.5394,87.0406 C62.5554,87.0826 62.5814,87.1216 62.6024,87.1616 C62.6214,87.1956 62.6374,87.2316 62.6594,87.2666 C62.7074,87.3376 62.7644,87.4066 62.8274,87.4706 L62.8284,87.4706 L65.4364,90.0566 C65.5394,90.1576 65.6604,90.2366 65.7894,90.3006 C65.9724,90.3906 66.1724,90.4426 66.3804,90.4426 C66.5564,90.4426 66.7304,90.4086 66.8904,90.3426 C67.0514,90.2766 67.1984,90.1806 67.3234,90.0566 L70.2014,87.2016 L71.6404,85.7746 C71.6424,85.7726 71.6444,85.7696 71.6474,85.7666 C71.7084,85.7046 71.7634,85.6396 71.8084,85.5706 C71.8324,85.5356 71.8474,85.4976 71.8684,85.4606" id="Fill-159" fill="#E43D91" mask="url(#mask-20)"></path>
                        <path d="M66.3801,89.3239 C66.0261,89.3239 65.6871,89.1839 65.4371,88.9359 L62.8271,86.3499 C62.3071,85.8349 62.3071,84.9969 62.8271,84.4799 C63.3491,83.9639 64.1931,83.9639 64.7141,84.4799 L66.3801,86.1309 L69.7541,82.7849 C70.2751,82.2679 71.1191,82.2679 71.6411,82.7849 C72.1611,83.3019 72.1611,84.1379 71.6411,84.6549 L67.3231,88.9359 C67.0721,89.1839 66.7341,89.3239 66.3801,89.3239" id="Fill-160" fill="#FEDE3A" mask="url(#mask-20)"></path>
                        <path d="M71.6408,82.8727 L67.3238,87.1537 C67.0728,87.4017 66.7348,87.5417 66.3798,87.5417 C66.0268,87.5417 65.6868,87.4017 65.4368,87.1537 L62.8278,84.5677 C62.8138,84.5547 62.8048,84.5377 62.7908,84.5237 C62.3108,85.0437 62.3208,85.8487 62.8278,86.3507 L65.4368,88.9357 C65.6868,89.1847 66.0268,89.3237 66.3798,89.3237 C66.7348,89.3237 67.0728,89.1847 67.3238,88.9357 L71.6408,84.6547 C72.1478,84.1517 72.1578,83.3477 71.6768,82.8287 C71.6628,82.8427 71.6548,82.8587 71.6408,82.8727" id="Fill-161" fill="#F7CB15" mask="url(#mask-20)"></path>
                        <polygon id="Fill-162" fill="#F8E482" mask="url(#mask-20)" points="50.8 55.944 82.538 55.944 82.538 38.379 50.8 38.379"></polygon>
                    </g>
                    <g id="Group-166" transform="translate(58.000000, 39.462000)">
                        <mask id="mask-22" fill="white">
                            <use xlink:href="#path-21"></use>
                        </mask>
                        <g id="Clip-165"></g>
                        <polygon id="Fill-164" fill="#FFFFFF" mask="url(#mask-22)" points="0.71 16.218 16.628 16.218 16.628 0.105 0.71 0.105"></polygon>
                    </g>
                    <g id="Group-169" transform="translate(77.000000, 45.462000)">
                        <mask id="mask-24" fill="white">
                            <use xlink:href="#path-23"></use>
                        </mask>
                        <g id="Clip-168"></g>
                        <polygon id="Fill-167" fill="#F6D85E" mask="url(#mask-24)" points="0.016 3.717 3.127 3.717 3.127 0.606 0.016 0.606"></polygon>
                    </g>
                    <path d="M82.5451,44.2546 L82.5451,38.8346 L77.1271,38.8346 C77.1271,41.8276 79.5531,44.2546 82.5451,44.2546" id="Fill-170" fill="#E14027"></path>
                    <g id="Group-174" transform="translate(77.000000, 38.462000)">
                        <mask id="mask-26" fill="white">
                            <use xlink:href="#path-25"></use>
                        </mask>
                        <g id="Clip-173"></g>
                        <polygon id="Fill-172" fill="#E14027" mask="url(#mask-26)" points="-0.01 5.929 5.68 5.929 5.68 0.236 -0.01 0.236"></polygon>
                    </g>
                    <path d="M82.5451,50.9919 C79.5531,50.9919 77.1271,53.4189 77.1271,56.4129 L82.5451,56.4129 L82.5451,50.9919 Z" id="Fill-175" fill="#E14027"></path>
                    <g id="Group-179" transform="translate(77.000000, 50.462000)">
                        <mask id="mask-28" fill="white">
                            <use xlink:href="#path-27"></use>
                        </mask>
                        <g id="Clip-178"></g>
                        <polygon id="Fill-177" fill="#E14027" mask="url(#mask-28)" points="-0.01 6.086 5.68 6.086 5.68 0.393 -0.01 0.393"></polygon>
                    </g>
                    <path d="M54.7668,46.2038 C55.5498,46.2038 56.1858,46.8408 56.1858,47.6238 C56.1858,48.4078 55.5498,49.0428 54.7668,49.0428 C53.9838,49.0428 53.3478,48.4078 53.3478,47.6238 C53.3478,46.8408 53.9838,46.2038 54.7668,46.2038" id="Fill-180" fill="#F6D85E"></path>
                    <g id="Group-184" transform="translate(50.000000, 50.462000)">
                        <mask id="mask-30" fill="white">
                            <use xlink:href="#path-29"></use>
                        </mask>
                        <g id="Clip-183"></g>
                        <polygon id="Fill-182" fill="#E14027" mask="url(#mask-30)" points="0.657 6.086 6.347 6.086 6.347 0.393 0.657 0.393"></polygon>
                    </g>
                    <g id="Group-187" transform="translate(50.000000, 38.462000)">
                        <mask id="mask-32" fill="white">
                            <use xlink:href="#path-31"></use>
                        </mask>
                        <g id="Clip-186"></g>
                        <polygon id="Fill-185" fill="#E14027" mask="url(#mask-32)" points="0.801 0.3258 6.526 0.3198 6.526 6.0128 0.794 6.0618"></polygon>
                    </g>
                    <g id="Group-256" transform="translate(0.000000, 0.462000)">
                        <path d="M78.8176,40.9684 L74.2466,40.9684 C73.4686,40.9684 72.8396,40.3384 72.8396,39.5624 L72.8396,37.0494 C72.8396,36.2734 73.4686,35.6444 74.2466,35.6444 L78.8176,35.6444 L78.8176,40.9684 Z" id="Fill-188" fill="#FFFFFF"></path>
                        <path d="M72.84,38.0162 L72.84,39.7032 C72.84,40.4022 73.411,40.9682 74.116,40.9682 L78.818,40.9682 L78.818,39.2822 L74.116,39.2822 C73.411,39.2822 72.84,38.7152 72.84,38.0162" id="Fill-190" fill="#D1D3D4"></path>
                        <path d="M77.9621,42.7633 L77.9621,33.8493 C77.9621,32.9793 78.9991,32.5173 79.6561,33.0943 L84.7201,37.5513 C85.1761,37.9523 85.1761,38.6593 84.7201,39.0613 L79.6561,43.5173 C78.9991,44.0953 77.9621,43.6333 77.9621,42.7633" id="Fill-192" fill="#FFFFFF"></path>
                        <path d="M84.7199,37.5514 L84.6189,37.4624 L79.6569,41.8304 C78.9989,42.4084 77.9619,41.9474 77.9619,41.0754 L77.9619,42.7634 C77.9619,43.6334 78.9989,44.0954 79.6569,43.5174 L84.7199,39.0614 C85.1759,38.6594 85.1759,37.9524 84.7199,37.5514" id="Fill-194" fill="#D1D3D4"></path>
                        <path d="M53.9719,58.4879 L58.5429,58.4879 C59.3199,58.4879 59.9499,57.8589 59.9499,57.0829 L59.9499,54.5699 C59.9499,53.7939 59.3199,53.1639 58.5429,53.1639 L53.9719,53.1639 L53.9719,58.4879 Z" id="Fill-196" fill="#FFFFFF"></path>
                        <path d="M59.9494,55.5368 L59.9494,57.2238 C59.9494,57.9218 59.3784,58.4878 58.6734,58.4878 L53.9714,58.4878 L53.9714,56.8018 L58.6734,56.8018 C59.3784,56.8018 59.9494,56.2348 59.9494,55.5368" id="Fill-198" fill="#D1D3D4"></path>
                        <path d="M54.8264,60.2829 L54.8264,51.3689 C54.8264,50.4989 53.7894,50.0369 53.1334,50.6149 L48.0684,55.0709 C47.6124,55.4719 47.6124,56.1789 48.0684,56.5809 L53.1334,61.0379 C53.7894,61.6149 54.8264,61.1529 54.8264,60.2829" id="Fill-200" fill="#FFFFFF"></path>
                        <path d="M48.0686,55.0709 L48.1706,54.9819 L53.1326,59.3499 C53.7896,59.9279 54.8266,59.4669 54.8266,58.5959 L54.8266,60.2829 C54.8266,61.1529 53.7896,61.6149 53.1326,61.0379 L48.0686,56.5809 C47.6126,56.1789 47.6126,55.4719 48.0686,55.0709" id="Fill-202" fill="#D1D3D4"></path>
                        <path d="M318.3039,77.5231003 L261.0659,77.5041 C258.2119,77.5031 255.8999,75.1891 255.9009,72.3361 L255.9109,40.2051 C255.9119,37.3511 258.2259,35.0391 261.0789,35.0400997 L318.3179,35.0591 C321.1709,35.0601 323.4829,37.3741 323.4819,40.2271 L323.4719,72.3591 C323.4709,75.2111 321.1569,77.5241 318.3039,77.5231003" id="Fill-204" fill="#F6CA14"></path>
                        <path d="M318.3039,76.4899 L261.0659,76.4709 C258.2119,76.4699 255.9009,74.1559 255.9019,71.3029 L255.9009,72.3369 C255.8999,75.1889 258.2119,77.5039 261.0659,77.5049 L318.3039,77.5229003 C321.1569,77.5239 323.4709,75.2119 323.4719,72.3589 L323.4719,71.3259 C323.4709,74.1779 321.1579,76.4909 318.3039,76.4899" id="Fill-206" fill="#E7AD27"></path>
                        <path d="M318.3176,35.0592 L261.0796,35.0391997 C258.2256,35.0382 255.9126,37.3512 255.9116,40.2052 L255.9116,41.2382 C255.9126,38.3842 258.2256,36.0722 261.0796,36.0732 L318.3176,36.0922 C321.1706,36.0932 323.4826,38.4072 323.4816,41.2602 L323.4826,40.2272 C323.4836,37.3732 321.1716,35.0602 318.3176,35.0592" id="Fill-208" fill="#FFF235"></path>
                        <polygon id="Fill-210" fill="#E7AD27" points="323.4787 50.0758 255.9087 50.0538 255.9117 40.2048 323.4817 40.2268"></polygon>
                        <path d="M316.5539,58.5895 L261.9739,58.5705 C260.9909,58.5705 260.1959,57.7755 260.1959,56.7925 C260.1969,55.8105 260.9919,55.0145 261.9749,55.0145 L316.5549,55.0325 C317.5369,55.0325 318.3329,55.8295 318.3329,56.8125 C318.3319,57.7935 317.5359,58.5895 316.5539,58.5895" id="Fill-212" fill="#FDDD3A"></path>
                        <path d="M294.5187,66.9401009 L261.9707,66.9291 C260.9887,66.9291 260.1927,66.1331 260.1927,65.1511 C260.1937,64.1691 260.9897,63.3731 261.9717,63.3731 L294.5197,63.3831 C295.5007,63.3841 296.2977,64.1801 296.296701,65.1631 C296.296701,66.1451 295.4997,66.9411 294.5187,66.9401009" id="Fill-214" fill="#FDDD3A"></path>
                        <path d="M339.7746,97.4186 L282.5366,97.4186 C279.6836,97.4186 277.3706,95.1056 277.3706,92.2526 L277.3706,60.1206 C277.3706,57.2676 279.6836,54.9546 282.5366,54.9546 L339.7746,54.9546 C342.6286,54.9546 344.9406,57.2676 344.9406,60.1206 L344.9406,92.2526 C344.9406,95.1056 342.6286,97.4186 339.7746,97.4186" id="Fill-216" fill="#1CAEE4"></path>
                        <path d="M339.7746,96.3854 L282.5366,96.3854 C279.6836,96.3854 277.3706,94.0724 277.3706,91.2194 L277.3706,92.2524 C277.3706,95.1054 279.6836,97.4184 282.5366,97.4184 L339.7746,97.4184 C342.6286,97.4184 344.9406,95.1054 344.9406,92.2524 L344.9406,91.2194 C344.9406,94.0724 342.6286,96.3854 339.7746,96.3854" id="Fill-218" fill="#009ADD"></path>
                        <path d="M339.7746,54.9547 L282.5366,54.9547 C279.6836,54.9547 277.3706,57.2677 277.3706,60.1207 L277.3706,61.1537 C277.3706,58.3007 279.6836,55.9877 282.5366,55.9877 L339.7746,55.9877 C342.6286,55.9877 344.9406,58.3007 344.9406,61.1537 L344.9406,60.1207 C344.9406,57.2677 342.6286,54.9547 339.7746,54.9547" id="Fill-220" fill="#27C1E6"></path>
                        <path d="M290.3801,74.7223 L284.8691,74.7223 C283.7291,74.7223 282.8031,73.7963 282.8031,72.6563 L282.8031,67.1453 C282.8031,66.0033 283.7291,65.0783 284.8691,65.0783 L290.3801,65.0783 C291.5221,65.0783 292.4461,66.0033 292.4461,67.1453 L292.4461,72.6563 C292.4461,73.7963 291.5221,74.7223 290.3801,74.7223" id="Fill-222" fill="#009ADD"></path>
                        <path d="M290.3801,74.3092 L284.8691,74.3092 C283.7291,74.3092 282.8031,73.3832 282.8031,72.2422 L282.8031,66.7322 C282.8031,65.5902 283.7291,64.6652 284.8691,64.6652 L290.3801,64.6652 C291.5221,64.6652 292.4461,65.5902 292.4461,66.7322 L292.4461,72.2422 C292.4461,73.3832 291.5221,74.3092 290.3801,74.3092" id="Fill-224" fill="#FDDD3A"></path>
                        <mask id="mask-34" fill="white">
                            <use xlink:href="#path-33"></use>
                        </mask>
                        <g id="Clip-227"></g>
                        <polygon id="Fill-226" fill="#F6CA14" mask="url(#mask-34)" points="285.559 71.553 289.692 71.553 289.692 67.42 285.559 67.42"></polygon>
                        <polygon id="Fill-228" fill="#F6CA14" mask="url(#mask-34)" points="282.802 67.834 292.446 67.834 292.446 67.421 282.802 67.421"></polygon>
                        <polygon id="Fill-229" fill="#F6CA14" mask="url(#mask-34)" points="282.802 71.553 292.446 71.553 292.446 71.14 282.802 71.14"></polygon>
                        <polygon id="Fill-230" fill="#F6CA14" mask="url(#mask-34)" points="285.559 74.309 285.972 74.309 285.972 64.665 285.559 64.665"></polygon>
                        <polygon id="Fill-231" fill="#F6CA14" mask="url(#mask-34)" points="289.279 74.309 289.692 74.309 289.692 64.665 289.279 64.665"></polygon>
                        <path d="M291.8117,85.0387 L283.4387,85.0387 C282.4567,85.0387 281.6607,84.2427 281.6607,83.2607 C281.6607,82.2787 282.4567,81.4817 283.4387,81.4817 L291.8117,81.4817 C292.7927,81.4817 293.5897,82.2787 293.5897,83.2607 C293.5897,84.2427 292.7927,85.0387 291.8117,85.0387" id="Fill-232" fill="#FDDD3A" mask="url(#mask-34)"></path>
                        <path d="M307.2141,85.0387 L298.8411,85.0387 C297.8591,85.0387 297.0631,84.2427 297.0631,83.2607 C297.0631,82.2787 297.8591,81.4817 298.8411,81.4817 L307.2141,81.4817 C308.1961,81.4817 308.9921,82.2787 308.9921,83.2607 C308.9921,84.2427 308.1961,85.0387 307.2141,85.0387" id="Fill-233" fill="#FDDD3A" mask="url(#mask-34)"></path>
                        <path d="M322.6164,85.0387 L314.2434,85.0387 C313.2624,85.0387 312.4654,84.2427 312.4654,83.2607 C312.4654,82.2787 313.2624,81.4817 314.2434,81.4817 L322.6164,81.4817 C323.5984,81.4817 324.3944,82.2787 324.3944,83.2607 C324.3944,84.2427 323.5984,85.0387 322.6164,85.0387" id="Fill-234" fill="#FDDD3A" mask="url(#mask-34)"></path>
                        <path d="M338.0187,85.0387 L329.6467,85.0387 C328.6647,85.0387 327.8687,84.2427 327.8687,83.2607 C327.8687,82.2787 328.6647,81.4817 329.6467,81.4817 L338.0187,81.4817 C339.0007,81.4817 339.7967,82.2787 339.7967,83.2607 C339.7967,84.2427 339.0007,85.0387 338.0187,85.0387" id="Fill-235" fill="#FDDD3A" mask="url(#mask-34)"></path>
                        <path d="M315.9865,91.7897 L283.4385,91.7897 C282.4565,91.7897 281.6605,90.9937 281.6605,90.0117 C281.6605,89.0287 282.4565,88.2327 283.4385,88.2327 L315.9865,88.2327 C316.9675,88.2327 317.7645,89.0287 317.7645,90.0117 C317.7645,90.9937 316.9675,91.7897 315.9865,91.7897" id="Fill-236" fill="#FDDD3A" mask="url(#mask-34)"></path>
                        <path d="M339.1086,69.487 C339.1086,72.485 336.6776,74.916 333.6796,74.916 C330.6826,74.916 328.2526,72.485 328.2526,69.487 C328.2526,66.489 330.6826,64.059 333.6796,64.059 C336.6776,64.059 339.1086,66.489 339.1086,69.487" id="Fill-237" fill="#FDDD3A" mask="url(#mask-34)"></path>
                        <path d="M330.4006,69.487 C330.4006,72.485 327.9696,74.916 324.9726,74.916 C321.9746,74.916 319.5446,72.485 319.5446,69.487 C319.5446,66.489 321.9746,64.059 324.9726,64.059 C327.9696,64.059 330.4006,66.489 330.4006,69.487" id="Fill-238" fill="#FDDD3A" mask="url(#mask-34)"></path>
                        <path d="M83.9533,247.5748 L28.6293,247.5558 C25.8713,247.5548 23.6373,245.3188 23.6382997,242.5608 L23.6473,211.5048 C23.6483,208.7468 25.8853,206.5118 28.6423,206.5118 L83.9673,206.5308 C86.7253,206.5318 88.9603,208.7678 88.9593003,211.5258 L88.9493,242.5838 C88.9483,245.3418 86.7123,247.5758 83.9533,247.5748" id="Fill-239" fill="#009ADD" mask="url(#mask-34)"></path>
                        <path d="M83.9543,246.5768 L28.6303,246.5578 C25.8723,246.5568 23.6373,244.3208 23.6382997,241.5628 L23.6382997,242.5608 C23.6373,245.3188 25.8713,247.5558 28.6293,247.5558 L83.9533,247.5748 C86.7123,247.5758 88.9483,245.3418 88.9493,242.5838 L88.9493,241.5848 C88.9483,244.3428 86.7123,246.5778 83.9543,246.5768" id="Fill-240" fill="#136DA0" mask="url(#mask-34)"></path>
                        <path d="M83.968,206.5309 L28.643,206.5119 C25.885,206.5109 23.649,208.7469 23.648,211.5049 L23.648,212.5029 C23.649,209.7449 25.885,207.5099 28.643,207.5109 L83.967,207.5299 C86.725,207.5309 88.96,209.7669 88.9590003,212.5249 L88.9590003,211.5259 C88.96,208.7679 86.726,206.5319 83.968,206.5309" id="Fill-241" fill="#136DA0" mask="url(#mask-34)"></path>
                        <polygon id="Fill-242" fill="#FEDE3A" mask="url(#mask-34)" points="88.9563 221.0455 23.6443 221.0235 23.6473 211.5045 88.9593 211.5255"></polygon>
                        <path d="M81.6291,229.233 L30.1411,229.215 C29.2141,229.215 28.4631,228.464 28.464099,227.538 C28.464099,226.611 29.2151,225.86 30.1421,225.860999 L81.6301,225.878 C82.5571,225.878 83.3081,226.629 83.3081,227.556 C83.3071,228.482 82.5561,229.233 81.6291,229.233" id="Fill-243" fill="#27C1E6" mask="url(#mask-34)"></path>
                        <path d="M60.6174,237.3082 L29.8504,237.2982 C28.9224,237.2972 28.1704,236.5442 28.1704,235.6172 C28.1714,234.6882 28.9234,233.9352 29.8514,233.936199 L60.6194,233.9462 C61.5474,233.9472 62.3004,234.7002 62.299401,235.6272 C62.299401,236.5562 61.5464,237.3082 60.6174,237.3082" id="Fill-244" fill="#27C1E6" mask="url(#mask-34)"></path>
                        <path d="M104.7072,266.8053 L49.3832,266.8053 C46.6252,266.8053 44.3892,264.5703 44.3892,261.8123 L44.3892,230.7543 C44.3892,227.9963 46.6252,225.7613 49.3832,225.7613 L104.7072,225.7613 C107.4652,225.7613 109.7002,227.9963 109.7002,230.7543 L109.7002,261.8123 C109.7002,264.5703 107.4652,266.8053 104.7072,266.8053" id="Fill-245" fill="#1CAEE4" mask="url(#mask-34)"></path>
                        <path d="M95.9172,246.2115 L97.3162,243.8875 L95.9532,241.6225 C95.4622,240.8075 94.2802,240.8075 93.7892,241.6225 L91.0252,246.2115 C90.5192,247.0535 91.1252,248.1265 92.1072,248.1265 L96.9992,248.1265 C96.0162,248.1265 95.4102,247.0535 95.9172,246.2115" id="Fill-246" fill="#FFFFFF" mask="url(#mask-34)"></path>
                        <path d="M103.6076,246.2115 L100.8436,241.6225 C100.3536,240.8075 99.1706,240.8075 98.6796,241.6225 L97.3166,243.8875 L98.7166,246.2115 C99.2236,247.0535 98.6176,248.1265 97.6346,248.1265 L102.5256,248.1265 C103.5086,248.1265 104.1146,247.0535 103.6076,246.2115" id="Fill-247" fill="#FFFFFF" mask="url(#mask-34)"></path>
                        <path d="M98.717,246.2115 L97.317,243.8875 L95.917,246.2115 C95.41,247.0535 96.016,248.1265 96.999,248.1265 L97.635,248.1265 C98.617,248.1265 99.224,247.0535 98.717,246.2115" id="Fill-248" fill="#FEDE3A" mask="url(#mask-34)"></path>
                        <path d="M104.7072,265.8063 L49.3832,265.8063 C46.6252,265.8063 44.3892,263.5713 44.3892,260.8133 L44.3892,261.8123 C44.3892,264.5703 46.6252,266.8053 49.3832,266.8053 L104.7072,266.8053 C107.4652,266.8053 109.7002,264.5703 109.7002,261.8123 L109.7002,260.8133 C109.7002,263.5713 107.4652,265.8063 104.7072,265.8063" id="Fill-249" fill="#009ADD" mask="url(#mask-34)"></path>
                        <path d="M104.7072,225.7614 L49.3832,225.7614 C46.6252,225.7614 44.3892,227.9964 44.3892,230.7544 L44.3892,231.7524 C44.3892,228.9954 46.6252,226.7594 49.3832,226.7594 L104.7072,226.7594 C107.4652,226.7594 109.7002,228.9954 109.7002,231.7524 L109.7002,230.7544 C109.7002,227.9964 107.4652,225.7614 104.7072,225.7614" id="Fill-250" fill="#27C1E6" mask="url(#mask-34)"></path>
                        <path d="M58.2707,254.8073 L50.3317,254.8073 C49.4007,254.8073 48.6457,254.0523 48.6457,253.1203 C48.6457,252.1893 49.4007,251.4343 50.3317,251.4343 L58.2707,251.4343 C59.2017,251.4343 59.9567,252.1893 59.9567,253.1203 C59.9567,254.0523 59.2017,254.8073 58.2707,254.8073" id="Fill-251" fill="#FDDD3A" mask="url(#mask-34)"></path>
                        <path d="M73.1584,254.8073 L65.2194,254.8073 C64.2884,254.8073 63.5334,254.0523 63.5334,253.1203 C63.5334,252.1893 64.2884,251.4343 65.2194,251.4343 L73.1584,251.4343 C74.0894,251.4343 74.8444,252.1893 74.8444,253.1203 C74.8444,254.0523 74.0894,254.8073 73.1584,254.8073" id="Fill-252" fill="#FDDD3A" mask="url(#mask-34)"></path>
                        <path d="M88.0451,254.8073 L80.1071,254.8073 C79.1761,254.8073 78.4201,254.0523 78.4201,253.1203 C78.4201,252.1893 79.1761,251.4343 80.1071,251.4343 L88.0451,251.4343 C88.9771,251.4343 89.7321,252.1893 89.7321,253.1203 C89.7321,254.0523 88.9771,254.8073 88.0451,254.8073" id="Fill-253" fill="#FDDD3A" mask="url(#mask-34)"></path>
                        <path d="M102.9328,254.8073 L94.9948,254.8073 C94.0628,254.8073 93.3078,254.0523 93.3078,253.1203 C93.3078,252.1893 94.0628,251.4343 94.9948,251.4343 L102.9328,251.4343 C103.8648,251.4343 104.6198,252.1893 104.6198,253.1203 C104.6198,254.0523 103.8648,254.8073 102.9328,254.8073" id="Fill-254" fill="#FDDD3A" mask="url(#mask-34)"></path>
                        <path d="M81.4143,261.3317 L50.5543,261.3317 C49.6223,261.3317 48.8673,260.5767 48.8673,259.6447 C48.8673,258.7147 49.6223,257.9597 50.5543,257.9597 L81.4143,257.9597 C82.3463,257.9597 83.1013,258.7147 83.1013,259.6447 C83.1013,260.5767 82.3463,261.3317 81.4143,261.3317" id="Fill-255" fill="#FDDD3A" mask="url(#mask-34)"></path>
                    </g>
                </g>
                <g id="Group-9" transform="translate(383.000000, 335.000000)">
                    <polygon id="Fill-255" fill="#FFFFFF" points="11.2132 34.727 11.2132 -6.75015599e-14 46.2422 34.727"></polygon>
                    <g id="Group-259" transform="translate(0.000000, 22.789600)">
                        <mask id="mask-36" fill="white">
                            <use xlink:href="#path-35"></use>
                        </mask>
                        <g id="Clip-258"></g>
                        <path d="M138.433195,52 L11.5668046,52 C5.17858271,52 0,47.6603788 0,42.3060944 L0,9.69291278 C0,4.3396212 5.17858271,0 11.5668046,0 L138.433195,0 C144.821417,0 150,4.3396212 150,9.69291278 L150,42.3060944 C150,47.6603788 144.821417,52 138.433195,52" id="Fill-257" fill="#FFFFFF" mask="url(#mask-36)"></path>
                    </g>
                </g>
                <g id="Group-9-Copy" transform="translate(76.000000, 372.500000) scale(-1, 1) translate(-76.000000, -372.500000) translate(1.000000, 335.000000)">
                    <polygon id="Fill-255" fill="#FFFFFF" points="11.2132 34.727 11.2132 -6.75015599e-14 46.2422 34.727"></polygon>
                    <g id="Group-259" transform="translate(0.000000, 22.789600)">
                        <mask id="mask-38" fill="white">
                            <use xlink:href="#path-37"></use>
                        </mask>
                        <g id="Clip-258"></g>
                        <path d="M138.433195,52 L11.5668046,52 C5.17858271,52 0,47.6603788 0,42.3060944 L0,9.69291278 C0,4.3396212 5.17858271,0 11.5668046,0 L138.433195,0 C144.821417,0 150,4.3396212 150,9.69291278 L150,42.3060944 C150,47.6603788 144.821417,52 138.433195,52" id="Fill-257" fill="#FFFFFF" mask="url(#mask-38)"></path>
                    </g>
                </g>
                <path d="M408.196,378.8696 L408.196,376.5896 L423.604,376.5896 L423.604,378.8696 L425.956,378.8696 L425.956,374.6216 L417.196,374.6216 C416.98,373.9976 416.764,373.4216 416.548,372.9176 L414.028,373.3496 C414.244,373.7336 414.436,374.1656 414.628,374.6216 L405.844,374.6216 L405.844,378.8696 L408.196,378.8696 Z M422.308,383.6216 L422.5,381.5336 L426.268,381.5336 L426.268,379.5656 L422.692,379.5656 L422.884,377.4536 L409.54,377.4536 L409.228,379.5656 L405.556,379.5656 L405.556,381.5336 L408.94,381.5336 L408.628,383.6216 L422.308,383.6216 Z M414.868,379.8776 L411.484,379.8776 L411.652,378.9176 L415.036,378.9176 L414.868,379.8776 Z M420.46,379.8776 L417.052,379.8776 L417.22,378.9176 L420.556,378.9176 L420.46,379.8776 Z M414.508,382.2056 L411.052,382.2056 L411.22,381.2696 L414.652,381.2696 L414.508,382.2056 Z M420.172,382.2056 L416.692,382.2056 L416.836,381.2696 L420.292,381.2696 L420.172,382.2056 Z M406.924,395.4536 C410.068,394.9016 412.492,394.2056 414.172,393.3656 L413.404,392.3336 L418.204,392.3336 L417.628,393.4136 C420.124,393.8936 422.548,394.5656 424.876,395.4296 L425.668,393.4376 C424.156,393.0056 422.596,392.6216 420.964,392.3336 L423.268,392.3336 L423.268,384.4136 L408.556,384.4136 L408.556,392.3336 L411.604,392.3336 C410.116,392.7896 408.172,393.1736 405.796,393.5096 L406.924,395.4536 Z M420.916,386.6456 L410.908,386.6456 L410.908,385.8296 L420.916,385.8296 L420.916,386.6456 Z M420.916,388.7096 L410.908,388.7096 L410.908,387.9176 L420.916,387.9176 L420.916,388.7096 Z M420.916,390.8216 L410.908,390.8216 L410.908,390.0056 L420.916,390.0056 L420.916,390.8216 Z M454.996,382.3496 L454.996,374.7176 L452.236,374.7176 L452.236,373.1576 L450.148,373.1576 L450.148,374.7176 L448.852,374.7176 L448.852,373.1576 L446.74,373.1576 L446.74,374.7176 L443.98,374.7176 L443.98,382.3496 L454.996,382.3496 Z M435.628,395.2376 C436.468,393.9896 436.972,392.4056 437.14,390.5336 L437.524,391.8536 C438.412,391.5896 439.252,391.3016 440.02,391.0136 L440.02,392.5016 C440.02,392.9336 439.804,393.1736 439.372,393.1736 C438.94,393.1736 438.436,393.1256 437.908,393.0776 L438.46,395.0936 L440.02,395.0936 C441.412,395.0936 442.108,394.4696 442.108,393.2456 L442.108,384.2696 L443.188,384.2696 L443.188,380.1896 L442.372,380.1896 L442.372,373.7816 L434.956,373.7816 L434.956,380.1896 L434.068,380.1896 L434.068,384.3416 L435.172,384.3416 L435.172,389.4536 C435.148,391.1816 434.74,392.6216 433.972,393.7256 L435.628,395.2376 Z M437.788,380.1896 L436.996,380.1896 L436.996,375.6536 L440.356,375.6536 L440.356,377.0216 L437.788,377.0216 L437.788,380.1896 Z M447.22,377.8376 L445.876,377.8376 L445.876,376.5176 L447.22,376.5176 L447.22,377.8376 Z M450.148,377.8376 L448.852,377.8376 L448.852,376.5176 L450.148,376.5176 L450.148,377.8376 Z M453.124,377.8376 L451.732,377.8376 L451.732,376.5176 L453.124,376.5176 L453.124,377.8376 Z M440.356,380.1896 L439.396,380.1896 L439.396,378.7016 L440.356,378.7016 L440.356,380.1896 Z M453.124,380.6696 L451.732,380.6696 L451.732,379.3736 L453.124,379.3736 L453.124,380.6696 Z M450.148,380.6696 L448.852,380.6696 L448.852,379.3736 L450.148,379.3736 L450.148,380.6696 Z M447.22,380.6696 L445.876,380.6696 L445.876,379.3736 L447.22,379.3736 L447.22,380.6696 Z M441.148,383.4056 L436.108,383.4056 L436.108,382.0136 L441.148,382.0136 L441.148,383.4056 Z M455.524,385.1576 L455.524,383.2376 L443.404,383.2376 L443.404,385.1576 L455.524,385.1576 Z M437.188,389.9576 L437.212,389.3096 L437.212,389.3096 L437.212,388.0376 C437.836,388.2056 438.484,388.4216 439.132,388.6856 L439.78,387.0536 C438.94,386.7656 438.076,386.5256 437.212,386.3576 L437.212,385.2296 L440.02,385.2296 L440.02,389.0696 C439.156,389.3816 438.196,389.6696 437.188,389.9576 Z M455.692,394.6376 L455.692,392.5496 L452.644,392.5496 L453.052,391.0376 L454.468,391.0376 L454.468,386.0456 L444.388,386.0456 L444.388,391.0376 L445.756,391.0376 L446.212,392.5496 L442.9,392.5496 L442.9,394.6376 L455.692,394.6376 Z M452.332,389.2136 L446.524,389.2136 L446.524,387.7976 L452.332,387.7976 L452.332,389.2136 Z M450.46,392.5496 L448.42,392.5496 L447.964,391.0376 L450.868,391.0376 L450.46,392.5496 Z M463.108,388.2296 C465.124,387.9896 467.236,387.5096 469.492,386.8376 L469.684,387.9176 L471.748,387.3896 C471.364,385.5656 470.956,383.9336 470.524,382.5176 L468.604,383.1416 C468.748,383.7176 468.916,384.3176 469.084,384.9416 C468.1,385.1816 467.116,385.3976 466.108,385.5896 C467.548,383.9336 469.324,381.3176 471.46,377.7416 L469.132,376.8776 C468.58,377.8856 468.052,378.7976 467.572,379.6616 C466.804,379.7816 466.036,379.9016 465.268,379.9976 C466.396,378.3656 467.5,376.3016 468.604,373.8296 L466.204,372.8936 C465.412,375.1976 464.476,377.3336 463.42,379.2536 C463.132,379.6856 462.772,379.9976 462.388,380.1656 L462.988,382.4456 C464.092,382.2776 465.148,382.1096 466.156,381.9416 C465.148,383.5016 464.284,384.6056 463.588,385.2776 C463.276,385.5656 462.892,385.7816 462.46,385.9736 L463.108,388.2296 Z M481.732,395.3096 C482.956,395.3096 483.94,393.8216 484.684,390.8936 L482.572,389.6696 C482.38,391.4936 482.14,392.4776 481.876,392.5736 C481.06,392.3336 480.532,389.4296 480.34,383.8376 L484.036,383.8376 L484.036,381.4616 L480.268,381.4616 C480.22,379.4936 480.196,377.7416 480.196,376.1576 C481.588,375.8696 482.836,375.5336 483.916,375.1976 L482.62,373.1336 C479.716,374.0456 476.188,374.6456 472.036,374.9816 L472.036,392.0456 C472.036,392.5256 471.796,392.8856 471.364,393.0776 L472.252,395.2376 C474.46,394.3976 476.524,393.5096 478.444,392.5736 L477.484,390.4856 C476.476,390.9656 475.468,391.4216 474.46,391.8536 L474.46,383.8376 L477.94,383.8376 C478.348,391.4696 479.62,395.2856 481.732,395.3096 Z M477.82,381.4616 L474.46,381.4616 L474.46,376.9976 C475.612,376.8536 476.692,376.7336 477.724,376.5896 C477.724,378.2696 477.772,379.9016 477.82,381.4616 Z M469.756,392.8136 L471.724,391.9256 C471.388,390.5816 471.028,389.3096 470.596,388.1096 L468.772,388.7096 C469.108,389.9096 469.444,391.2776 469.756,392.8136 Z M466.564,394.0856 L468.772,393.5816 C468.532,391.8056 468.268,390.1736 467.98,388.6856 L466.036,389.1176 C466.228,390.5576 466.42,392.2136 466.564,394.0856 Z M464.62,394.9016 C465.004,393.2936 465.268,391.4456 465.364,389.3576 L463.252,389.0696 C463.132,390.9896 462.844,392.6936 462.388,394.1816 L464.62,394.9016 Z M503.572,395.3096 L503.572,390.6536 L508.444,390.6536 L508.444,388.2296 L503.572,388.2296 L503.572,379.7096 C505.156,383.9576 507.892,387.7976 511.804,391.2296 L513.508,389.0696 C509.716,386.3096 507.028,383.1656 505.444,379.6376 L512.668,379.6376 L512.668,377.2136 L503.572,377.2136 L503.572,373.1336 L501.028,373.1336 L501.028,377.2136 L491.908,377.2136 L491.908,379.6376 L499.132,379.6376 C497.404,383.5016 494.716,386.6936 491.02,389.1896 L492.484,391.5416 C496.468,388.4696 499.3,384.5336 501.028,379.7096 L501.028,388.2296 L496.348,388.2296 L496.348,390.6536 L501.028,390.6536 L501.028,395.3096 L503.572,395.3096 Z" id="實體紙本" fill="#ED5454" fill-rule="nonzero"></path>
                <path d="M35.1,383.2856 L35.1,378.6056 L41.964,378.6056 L41.964,381.7736 L44.268,381.7736 L44.268,376.7576 L35.1,376.7576 L35.1,375.8456 L43.332,375.8456 L43.332,373.8296 L24.444,373.8296 L24.444,375.8456 L32.7,375.8456 L32.7,376.7576 L23.532,376.7576 L23.532,381.7736 L25.836,381.7736 L25.836,378.6056 L32.7,378.6056 L32.7,383.2856 L35.1,383.2856 Z M36.396,381.0536 C38.172,380.9336 39.708,380.7656 41.028,380.5256 L40.428,378.9416 C39.156,379.2776 37.716,379.4936 36.108,379.5896 L36.396,381.0536 Z M31.212,381.0056 L31.812,379.5656 C30.396,379.3256 28.932,379.1576 27.396,379.0616 L26.628,380.5256 C28.212,380.6216 29.748,380.7656 31.212,381.0056 Z M26.916,383.4056 C29.196,383.2376 30.804,383.0216 31.74,382.7816 L31.26,381.4136 C30.3,381.6056 28.692,381.7256 26.436,381.8216 L26.916,383.4056 Z M40.692,383.5256 L41.364,381.9896 C39.852,381.7496 38.292,381.5576 36.66,381.4376 L35.988,382.7336 C37.62,382.9256 39.18,383.1896 40.692,383.5256 Z M41.844,395.0936 C42.852,395.0936 43.596,394.9256 44.076,394.5896 C44.604,394.2536 44.964,393.1496 45.18,391.2776 L42.972,390.6056 C42.876,391.8056 42.708,392.5016 42.444,392.7176 C42.228,392.9336 41.892,393.0536 41.412,393.0536 L35.604,393.0536 C35.22,393.0536 35.052,392.8856 35.052,392.5736 L35.052,391.6856 L42.444,391.6856 L42.444,383.9336 L25.14,383.9336 L25.14,391.6856 L32.604,391.6856 L32.604,393.0776 C32.604,394.4216 33.372,395.0936 34.956,395.0936 L41.844,395.0936 Z M32.604,386.9336 L27.468,386.9336 L27.468,385.7576 L32.604,385.7576 L32.604,386.9336 Z M40.092,386.9336 L35.052,386.9336 L35.052,385.7576 L40.092,385.7576 L40.092,386.9336 Z M40.092,389.8136 L35.052,389.8136 L35.052,388.6616 L40.092,388.6616 L40.092,389.8136 Z M32.604,389.8136 L27.468,389.8136 L27.468,388.6616 L32.604,388.6616 L32.604,389.8136 Z M62.052,395.1176 C63.636,395.1176 64.452,394.3016 64.452,392.6936 L64.452,385.4696 L73.284,385.4696 L73.284,383.0216 L64.452,383.0216 L64.452,381.3416 C66.756,379.7576 68.796,378.0536 70.596,376.2776 L70.596,373.9256 L54.636,373.9256 L54.636,376.2776 L67.26,376.2776 C65.532,377.7656 63.756,379.0376 61.932,380.0936 L61.932,383.0216 L52.116,383.0216 L52.116,385.4696 L61.932,385.4696 L61.932,391.9016 C61.932,392.4776 61.62,392.7656 61.02,392.7656 C59.604,392.7656 58.308,392.7416 57.108,392.6936 L57.78,395.1176 L62.052,395.1176 Z M100.596,383.0936 L100.596,377.3336 L95.268,377.3336 L95.268,375.9416 L102.252,375.9416 L102.252,373.7816 L80.748,373.7816 L80.748,375.9416 L87.732,375.9416 L87.732,377.3336 L82.404,377.3336 L82.404,383.0936 L100.596,383.0936 Z M92.892,377.3336 L90.108,377.3336 L90.108,375.9416 L92.892,375.9416 L92.892,377.3336 Z M98.196,381.0776 L95.268,381.0776 L95.268,379.3496 L98.196,379.3496 L98.196,381.0776 Z M92.892,381.0776 L90.108,381.0776 L90.108,379.3496 L92.892,379.3496 L92.892,381.0776 Z M87.732,381.0776 L84.804,381.0776 L84.804,379.3496 L87.732,379.3496 L87.732,381.0776 Z M99.636,386.4056 L99.636,384.3416 L83.532,384.3416 L83.532,386.4056 L99.636,386.4056 Z M92.964,395.1896 L92.964,389.6696 L101.868,389.6696 L101.868,387.5336 L81.132,387.5336 L81.132,389.6696 L90.564,389.6696 L90.564,395.1896 L92.964,395.1896 Z M100.38,395.0216 L102.132,393.2696 C100.668,392.1896 98.868,391.1096 96.708,390.0296 L95.076,391.5896 C97.38,392.8136 99.132,393.9656 100.38,395.0216 Z M82.812,395.0216 C85.116,394.0376 87.06,392.8616 88.644,391.5176 L87.012,390.0776 C85.476,391.2056 83.58,392.1896 81.3,393.0536 L82.812,395.0216 Z M117.492,378.0296 L117.492,375.7016 L114.54,375.7016 C114.348,374.8856 114.06,373.9976 113.724,372.9896 L111.348,373.6376 C111.636,374.3096 111.924,375.0056 112.164,375.7016 L109.476,375.7016 L109.476,378.0296 L117.492,378.0296 Z M118.404,383.4536 C119.508,382.7336 120.468,381.8936 121.308,380.8856 L121.308,381.9896 L127.62,381.9896 L127.62,380.5016 C128.316,381.4616 129.132,382.3736 130.068,383.2136 L131.604,381.4376 C130.836,380.8136 130.14,380.1176 129.492,379.3496 C130.26,378.6776 130.956,377.9576 131.556,377.1416 L129.948,375.7256 C129.468,376.4456 128.916,377.0936 128.292,377.6936 C128.076,377.3336 127.884,376.9736 127.692,376.6136 C128.508,375.9896 129.204,375.2936 129.828,374.5016 L128.22,373.0856 C127.836,373.6616 127.38,374.2136 126.852,374.7416 C126.66,374.2136 126.468,373.6856 126.324,373.1336 L124.548,374.1176 C125.148,376.2056 126.012,378.1016 127.14,379.8296 L122.1,379.8296 C122.916,378.5816 123.516,377.1416 123.948,375.5096 L123.948,373.7576 L118.5,373.7576 L118.5,375.8696 L121.86,375.8696 C121.596,376.5656 121.26,377.2376 120.876,377.8856 C120.396,377.4056 119.892,376.9496 119.316,376.4936 L117.804,377.9336 C118.5,378.4616 119.1,378.9656 119.628,379.4936 C118.86,380.2856 117.972,380.9816 116.964,381.5816 L118.404,383.4536 Z M116.748,381.6056 L116.748,379.3976 L110.076,379.3976 L110.076,381.6056 L116.748,381.6056 Z M116.748,385.0136 L116.748,382.8056 L110.076,382.8056 L110.076,385.0136 L116.748,385.0136 Z M129.612,389.7896 L129.612,383.6456 L119.004,383.6456 L119.004,389.7896 L129.612,389.7896 Z M127.26,387.7256 L121.356,387.7256 L121.356,385.6856 L127.26,385.6856 L127.26,387.7256 Z M112.308,395.2136 L112.308,393.9656 L114.516,393.9656 L114.516,394.9016 L116.892,394.9016 L116.892,386.3816 L109.908,386.3816 L109.908,395.2136 L112.308,395.2136 Z M114.516,391.6616 L112.308,391.6616 L112.308,388.6616 L114.516,388.6616 L114.516,391.6616 Z M130.98,394.9016 L130.98,392.6696 L127.956,392.6696 C128.34,392.0936 128.724,391.4696 129.06,390.7736 L126.828,389.9816 C126.444,390.9176 125.988,391.8056 125.508,392.6696 L123.372,392.6696 C122.94,391.6376 122.484,390.7256 121.98,389.9576 L119.748,390.7976 C120.18,391.3736 120.588,391.9976 120.948,392.6696 L117.852,392.6696 L117.852,394.9016 L130.98,394.9016 Z" id="電子票證" fill="#0E6DA0" fill-rule="nonzero"></path>
                <g id="Group-13" transform="translate(75.500000, 37.500000) scale(1, -1) translate(-75.500000, -37.500000) " fill="#FFFFFF">
                    <polygon id="Fill-260" points="139.5545 34.727 139.5545 -6.75015599e-14 104.5255 34.727"></polygon>
                    <g id="Group-264" transform="translate(0.000000, 21.789600)">
                        <path d="M12.176398,52.1112 L139.041787,52.1112 C145.429958,52.1112 150.6085,47.7714959 150.6085,42.4181021 L150.6085,9.80429785 C150.6085,4.45090406 145.429958,0.1112 139.041787,0.1112 L12.176398,0.1112 C5.78822656,0.1112 0.6085,4.45090406 0.6085,9.80429785 L0.6085,42.4181021 C0.6085,47.7714959 5.78822656,52.1112 12.176398,52.1112" id="Fill-262"></path>
                    </g>
                </g>
                <g id="Group-13-Copy" transform="translate(457.500000, 37.500000) scale(-1, -1) translate(-457.500000, -37.500000) translate(382.000000, 0.000000)" fill="#FFFFFF">
                    <polygon id="Fill-260" points="139.5545 34.727 139.5545 -6.75015599e-14 104.5255 34.727"></polygon>
                    <g id="Group-264" transform="translate(0.000000, 21.789600)">
                        <path d="M12.176398,52.1112 L139.041787,52.1112 C145.429958,52.1112 150.6085,47.7714959 150.6085,42.4181021 L150.6085,9.80429785 C150.6085,4.45090406 145.429958,0.1112 139.041787,0.1112 L12.176398,0.1112 C5.78822656,0.1112 0.6085,4.45090406 0.6085,9.80429785 L0.6085,42.4181021 C0.6085,47.7714959 5.78822656,52.1112 12.176398,52.1112" id="Fill-262"></path>
                    </g>
                </g>
                <path d="M19.484,23.624 C22.58,21.488 24.764,19.112 26.036,16.496 L23.756,15.416 C22.652,17.6 20.972,19.496 18.716,21.104 L19.484,23.624 Z M39.74,19.016 L39.74,16.544 L27.932,16.544 L27.932,19.016 L39.74,19.016 Z M24.764,37.496 L24.764,25.592 C25.724,24.44 26.516,23.24 27.14,21.992 L24.884,20.936 C23.588,23.48 21.596,25.712 18.908,27.584 L19.676,30.056 C20.588,29.408 21.476,28.736 22.292,28.064 L22.292,37.496 L24.764,37.496 Z M34.412,37.4 C36.188,37.4 37.076,36.608 37.076,35.024 L37.076,24.968 L40.772,24.968 L40.772,22.496 L27.356,22.496 L27.356,24.968 L34.532,24.968 L34.532,34.4 C34.532,34.88 34.196,35.12 33.548,35.12 C32.54,35.12 31.484,35.048 30.38,34.952 L30.932,37.4 L34.412,37.4 Z M60.02,37.424 C62.828,34.328 64.268,29.432 64.34,22.736 L64.34,21.944 L66.716,21.944 C66.668,28.568 66.596,32.432 66.452,33.536 C66.308,34.568 65.876,35.096 65.108,35.096 C64.388,35.096 63.548,35.048 62.588,35 L63.188,37.184 C64.292,37.256 65.06,37.304 65.492,37.304 C67.412,37.304 68.492,36.416 68.732,34.664 C68.948,32.768 69.068,27.776 69.068,19.664 L64.34,19.664 L64.34,15.368 L62.012,15.368 L62.012,19.664 L59.924,19.664 L59.924,21.944 L62.012,21.944 L62.012,22.736 C61.964,28.256 60.908,32.384 58.82,35.144 L58.82,34.088 C57.572,34.232 56.204,34.376 54.764,34.52 L54.764,33.2 L58.844,33.2 L58.844,31.184 L54.764,31.184 L54.764,30.032 L58.94,30.032 L58.94,22.28 L54.764,22.28 L54.764,21.272 L59.276,21.272 L59.276,19.208 L54.764,19.208 L54.764,17.96 C56.396,17.792 57.86,17.552 59.156,17.216 L58.052,15.344 C55.268,15.968 51.884,16.304 47.852,16.304 L48.524,18.248 C49.868,18.248 51.164,18.2 52.412,18.152 L52.412,19.208 L47.78,19.208 L47.78,21.272 L52.412,21.272 L52.412,22.28 L48.26,22.28 L48.26,30.032 L52.412,30.032 L52.412,31.184 L48.356,31.184 L48.356,33.2 L52.412,33.2 L52.412,34.712 C50.876,34.808 49.268,34.904 47.54,35 L47.852,37.208 C51.884,36.968 55.508,36.656 58.676,36.272 L60.02,37.424 Z M52.556,25.328 L50.516,25.328 L50.516,24.056 L52.556,24.056 L52.556,25.328 Z M56.684,25.328 L54.62,25.328 L54.62,24.056 L56.684,24.056 L56.684,25.328 Z M56.684,28.208 L54.62,28.208 L54.62,26.96 L56.684,26.96 L56.684,28.208 Z M52.556,28.208 L50.516,28.208 L50.516,26.96 L52.556,26.96 L52.556,28.208 Z M78.044,37.664 C81.764,36.656 84.956,35.36 87.596,33.752 C88.676,34.4 89.852,35 91.148,35.552 C93.02,36.344 94.988,37.016 97.076,37.568 L98.54,35.336 C96.62,34.904 94.82,34.376 93.092,33.752 C91.892,33.296 90.764,32.792 89.732,32.264 C92.084,30.416 93.884,28.232 95.132,25.736 L95.132,23.528 L88.796,23.528 L88.796,20.6 L97.892,20.6 L97.892,18.152 L88.796,18.152 L88.796,15.296 L86.204,15.296 L86.204,18.152 L77.108,18.152 L77.108,20.6 L86.204,20.6 L86.204,23.528 L78.956,23.528 L78.956,25.856 L80.564,25.856 C80.924,27.008 81.5,28.112 82.316,29.168 C83.18,30.296 84.236,31.328 85.436,32.288 C82.988,33.632 80.06,34.664 76.604,35.432 L78.044,37.664 Z M87.548,30.968 C86.54,30.296 85.652,29.528 84.86,28.688 C84.068,27.872 83.468,26.912 83.036,25.856 L92.3,25.856 C91.172,27.8 89.588,29.504 87.548,30.968 Z M110.636,37.544 L110.636,20.912 C111.476,19.4 112.172,17.816 112.7,16.184 L110.348,15.08 C109.196,18.8 107.396,22.04 104.972,24.776 L105.788,27.368 C106.628,26.504 107.42,25.592 108.14,24.68 L108.14,37.544 L110.636,37.544 Z M121.364,37.4 C123.116,37.4 124.004,36.488 124.004,34.688 L124.004,22.664 L127.268,22.664 L127.268,20.216 L124.004,20.216 L124.004,15.392 L121.484,15.392 L121.484,20.216 L112.892,20.216 L112.892,22.664 L121.484,22.664 L121.484,34.064 C121.484,34.76 121.148,35.12 120.5,35.12 C119.444,35.12 118.34,35.048 117.188,34.952 L117.764,37.4 L121.364,37.4 Z M117.356,31.664 L119.492,30.176 C118.532,28.64 117.188,26.816 115.46,24.752 L113.396,26.024 C115.052,28.088 116.372,29.984 117.356,31.664 Z" id="行動支付" fill="#0E6DA0" fill-rule="nonzero"></path>
                <path d="M420.084,37.544 L420.084,21.272 C420.948,19.64 421.644,17.936 422.172,16.136 L419.82,15.032 C418.764,18.728 417.132,21.944 414.972,24.68 L415.812,27.368 C416.436,26.648 417.036,25.928 417.612,25.16 L417.612,37.544 L420.084,37.544 Z M437.436,20.432 L437.436,18.08 L430.98,18.08 C430.74,17.216 430.38,16.256 429.9,15.224 L427.5,15.872 C427.86,16.592 428.196,17.312 428.508,18.08 L421.62,18.08 L421.62,20.432 L437.436,20.432 Z M435.42,23.936 L435.42,21.704 L423.78,21.704 L423.78,23.936 L435.42,23.936 Z M435.42,27.344 L435.42,25.088 L423.78,25.088 L423.78,27.344 L435.42,27.344 Z M425.676,37.496 L425.676,36.296 L433.524,36.296 L433.524,37.496 L435.948,37.496 L435.948,28.664 L423.228,28.664 L423.228,37.496 L425.676,37.496 Z M433.524,33.92 L425.676,33.92 L425.676,30.992 L433.524,30.992 L433.524,33.92 Z M445.86,37.352 C447.324,35.384 448.212,32.888 448.524,29.912 L453.924,29.912 L453.924,36.68 L456.468,36.68 L456.468,29.912 L462.18,29.912 L462.18,33.248 C462.18,34.16 461.796,34.64 461.076,34.64 C460.26,34.64 459.396,34.592 458.436,34.496 L459.108,36.944 L461.868,36.944 C463.764,36.944 464.724,36.008 464.724,34.16 L464.724,16.04 L446.124,16.04 L446.124,27.92 C446.076,31.04 445.356,33.608 443.94,35.624 L445.86,37.352 Z M462.18,21.848 L456.468,21.848 L456.468,18.488 L462.18,18.488 L462.18,21.848 Z M453.924,21.848 L448.644,21.848 L448.644,18.488 L453.924,18.488 L453.924,21.848 Z M453.924,27.608 L448.644,27.608 L448.644,24.152 L453.924,24.152 L453.924,27.608 Z M462.18,27.608 L456.468,27.608 L456.468,24.152 L462.18,24.152 L462.18,27.608 Z M483.996,37.496 L483.996,30.176 C485.868,31.064 488.196,32.336 490.956,34.016 L492.396,31.88 C489.54,30.296 486.732,28.904 483.996,27.704 L483.996,25.712 L494.652,25.712 L494.652,23.264 L483.996,23.264 L483.996,20.384 L491.556,20.384 L491.556,17.984 L483.996,17.984 L483.996,15.344 L481.452,15.344 L481.452,23.264 L473.124,23.264 L473.124,25.712 L481.452,25.712 L481.452,37.496 L483.996,37.496 Z" id="信用卡" fill="#0E6DA0" fill-rule="nonzero"></path>
                <path d="M376.672,287.336 C378.544,287.336 380.056,286.808 381.208,285.776 C382.312,284.768 382.864,283.472 382.864,281.888 C382.864,280.88 382.576,280.04 382,279.392 C381.472,278.768 380.68,278.312 379.672,278 C381.568,277.376 382.528,276.128 382.528,274.256 C382.528,272.768 382,271.616 380.968,270.776 C379.912,269.936 378.496,269.528 376.768,269.528 C375.088,269.528 373.696,269.984 372.616,270.944 C371.464,271.904 370.84,273.248 370.696,274.976 L373.456,274.976 C373.552,273.944 373.888,273.176 374.464,272.672 C375.016,272.168 375.784,271.928 376.792,271.928 C377.776,271.928 378.52,272.144 379.024,272.576 C379.48,273.008 379.72,273.632 379.72,274.472 C379.72,275.312 379.456,275.96 378.952,276.392 C378.424,276.824 377.656,277.04 376.648,277.04 L375.448,277.04 L375.448,279.152 L376.648,279.152 C377.752,279.152 378.592,279.368 379.168,279.848 C379.744,280.304 380.056,281.024 380.056,282.008 C380.056,282.824 379.768,283.496 379.216,284.048 C378.592,284.648 377.728,284.96 376.648,284.96 C375.664,284.96 374.872,284.672 374.272,284.12 C373.6,283.52 373.264,282.656 373.216,281.552 L370.36,281.552 C370.504,283.472 371.176,284.96 372.376,285.968 C373.456,286.88 374.896,287.336 376.672,287.336 Z" id="3" fill="#BF412E" fill-rule="nonzero"></path>
                <path d="M142.933,110.154 C143.791,110.154 144.484,109.912 145.012,109.439 C145.518,108.977 145.771,108.383 145.771,107.657 C145.771,107.195 145.639,106.81 145.375,106.513 C145.133,106.227 144.77,106.018 144.308,105.875 C145.177,105.589 145.617,105.017 145.617,104.159 C145.617,103.477 145.375,102.949 144.902,102.564 C144.418,102.179 143.769,101.992 142.977,101.992 C142.207,101.992 141.569,102.201 141.074,102.641 C140.546,103.081 140.26,103.697 140.194,104.489 L141.459,104.489 C141.503,104.016 141.657,103.664 141.921,103.433 C142.174,103.202 142.526,103.092 142.988,103.092 C143.439,103.092 143.78,103.191 144.011,103.389 C144.22,103.587 144.33,103.873 144.33,104.258 C144.33,104.643 144.209,104.94 143.978,105.138 C143.736,105.336 143.384,105.435 142.922,105.435 L142.372,105.435 L142.372,106.403 L142.922,106.403 C143.428,106.403 143.813,106.502 144.077,106.722 C144.341,106.931 144.484,107.261 144.484,107.712 C144.484,108.086 144.352,108.394 144.099,108.647 C143.813,108.922 143.417,109.065 142.922,109.065 C142.471,109.065 142.108,108.933 141.833,108.68 C141.525,108.405 141.371,108.009 141.349,107.503 L140.04,107.503 C140.106,108.383 140.414,109.065 140.964,109.527 C141.459,109.945 142.119,110.154 142.933,110.154 Z" id="3" fill="#BF412E" fill-rule="nonzero"></path>
                <path d="M342.3955,108 C343.2315,108 343.8915,107.846 344.3535,107.538 C344.8925,107.164 345.1675,106.581 345.1675,105.789 C345.1675,105.261 345.0355,104.832 344.7825,104.524 C344.5185,104.205 344.1335,103.996 343.6165,103.897 C344.0125,103.743 344.3095,103.534 344.5185,103.248 C344.7275,102.94 344.8375,102.566 344.8375,102.126 C344.8375,101.532 344.6285,101.059 344.2215,100.707 C343.7815,100.333 343.1655,100.146 342.3845,100.146 L338.7875,100.146 L338.7875,108 L342.3955,108 Z M342.0435,103.446 L340.0745,103.446 L340.0745,101.202 L342.0655,101.202 C342.5935,101.202 342.9675,101.29 343.2095,101.466 C343.4295,101.631 343.5505,101.906 343.5505,102.28 C343.5505,102.687 343.4295,102.984 343.2095,103.171 C342.9785,103.347 342.5935,103.446 342.0435,103.446 Z M342.2085,106.944 L340.0745,106.944 L340.0745,104.502 L342.2415,104.502 C342.8135,104.502 343.2315,104.601 343.4955,104.799 C343.7485,104.997 343.8805,105.316 343.8805,105.767 C343.8805,106.207 343.7045,106.515 343.3525,106.713 C343.0775,106.867 342.6925,106.944 342.2085,106.944 Z M346.9825,108 L347.6975,106.031 L350.9865,106.031 L351.7015,108 L353.0765,108 L350.0735,100.146 L348.6105,100.146 L345.6075,108 L346.9825,108 Z M350.6015,104.975 L348.0825,104.975 L349.3255,101.532 L349.3695,101.532 L350.6015,104.975 Z M355.1335,108 L355.1335,102.258 L355.1775,102.258 L359.1045,108 L360.3585,108 L360.3585,100.146 L359.0605,100.146 L359.0605,105.811 L359.0165,105.811 L355.1335,100.146 L353.8465,100.146 L353.8465,108 L355.1335,108 Z M363.1855,108 L363.1855,105.294 L364.1425,104.359 L367.2445,108 L368.9825,108 L365.0115,103.512 L368.4655,100.146 L366.8375,100.146 L363.1855,103.853 L363.1855,100.146 L361.8985,100.146 L361.8985,108 L363.1855,108 Z" id="BANK" fill="#FFFFFF" fill-rule="nonzero"></path>
                <path d="M129.148,299.154 C129.995,299.154 130.721,298.912 131.326,298.428 C131.975,297.911 132.382,297.196 132.558,296.272 L131.304,296.272 C131.15,296.866 130.886,297.317 130.512,297.614 C130.16,297.878 129.698,298.021 129.137,298.021 C128.279,298.021 127.641,297.746 127.234,297.218 C126.86,296.723 126.673,296.008 126.673,295.084 C126.673,294.182 126.86,293.478 127.245,292.972 C127.663,292.4 128.279,292.125 129.104,292.125 C129.654,292.125 130.105,292.235 130.457,292.477 C130.82,292.719 131.062,293.093 131.194,293.61 L132.448,293.61 C132.327,292.818 131.986,292.18 131.414,291.718 C130.82,291.234 130.05,290.992 129.126,290.992 C127.872,290.992 126.915,291.399 126.255,292.235 C125.672,292.961 125.386,293.918 125.386,295.084 C125.386,296.272 125.661,297.218 126.222,297.922 C126.86,298.736 127.839,299.154 129.148,299.154 Z M134.373,299 L135.088,297.031 L138.377,297.031 L139.092,299 L140.467,299 L137.464,291.146 L136.001,291.146 L132.998,299 L134.373,299 Z M137.992,295.975 L135.473,295.975 L136.716,292.532 L136.76,292.532 L137.992,295.975 Z M142.524,299 L142.524,295.799 L144.559,295.799 C144.999,295.799 145.34,295.887 145.571,296.085 C145.791,296.272 145.923,296.58 145.967,297.009 L146.066,297.977 C146.11,298.417 146.22,298.758 146.407,299 L147.804,299 C147.54,298.714 147.375,298.329 147.331,297.845 L147.199,296.58 C147.111,295.81 146.726,295.359 146.044,295.205 L146.044,295.183 C146.462,295.073 146.803,294.842 147.045,294.49 C147.265,294.171 147.375,293.808 147.375,293.401 C147.375,292.653 147.122,292.081 146.638,291.685 C146.176,291.322 145.538,291.146 144.735,291.146 L141.237,291.146 L141.237,299 L142.524,299 Z M144.559,294.699 L142.524,294.699 L142.524,292.246 L144.559,292.246 C145.087,292.246 145.472,292.334 145.714,292.532 C145.956,292.719 146.077,293.027 146.077,293.456 C146.077,293.852 145.956,294.16 145.714,294.38 C145.45,294.589 145.065,294.699 144.559,294.699 Z M151.775,299 C153.051,299 154.008,298.648 154.668,297.944 C155.295,297.273 155.614,296.316 155.614,295.073 C155.614,293.819 155.295,292.862 154.668,292.202 C154.008,291.498 153.051,291.146 151.775,291.146 L148.904,291.146 L148.904,299 L151.775,299 Z M151.533,297.9 L150.191,297.9 L150.191,292.246 L151.533,292.246 C152.512,292.246 153.227,292.466 153.678,292.917 C154.118,293.357 154.338,294.083 154.338,295.073 C154.338,296.041 154.118,296.756 153.678,297.218 C153.227,297.669 152.512,297.9 151.533,297.9 Z" id="CARD" fill="#FFFFFF" fill-rule="nonzero"></path>
            </g>
        </g>
    </g>
</svg>