<svg xmlns="http://www.w3.org/2000/svg" xmlns:xlink="http://www.w3.org/1999/xlink" width="392" height="378" viewBox="0 0 392 378">
    <defs>
        <path id="prefix__a" d="M.216 122.782c0 20.248 4.956 39.355 13.726 56.186.752 1.443 1.528 2.868 2.337 4.276 4.562 7.96 10.003 15.372 16.188 22.085.452.497.913.986 1.376 1.473 2.346 2.478 4.797 4.853 7.346 7.119.613.549 1.227 1.087 1.851 1.62.056.047.105.1.162.142 2.623 2.242 5.345 4.375 8.16 6.393 2.313 1.67 4.69 3.257 7.122 4.763 5.603 3.465 11.51 6.504 17.666 9.054 1.581.657 3.181 1.28 4.8 1.87.276.103.561.207.843.307 3.109 1.114 6.275 2.11 9.493 2.979 3.323.896 6.693 1.657 10.121 2.28.752.137 1.505.27 2.261.387 2.143.35 4.299.643 6.472.873 3.54.392 7.12.629 10.742.713h.007c.438.014.87.02 1.309.023.176 0 .357.005.537.005.353.005.715.005 1.072.005.195 0 .39 0 .586-.005.05.005.102.005.154.005.102 0 .207-.005.312-.005h.005c.186 0 .367-.005.552-.005.433-.003.861-.01 1.29-.023 3.632-.084 7.222-.321 10.769-.713 2.17-.23 4.328-.523 6.465-.868.72-.118 1.438-.246 2.152-.373 3.49-.633 6.922-1.407 10.298-2.319 3.198-.867 6.341-1.854 9.436-2.959h.003c.278-.1.558-.198.83-.303 1.618-.59 3.218-1.213 4.794-1.874 6.166-2.544 12.07-5.58 17.677-9.054 2.432-1.506 4.812-3.094 7.122-4.77 2.776-1.982 5.465-4.086 8.056-6.298.037-.028.07-.06.104-.088.095-.08.195-.165.29-.256.59-.51 1.181-1.02 1.762-1.543 2.566-2.285 5.031-4.679 7.403-7.172.428-.448.851-.901 1.27-1.36 6.18-6.73 11.626-14.144 16.196-22.108.81-1.408 1.587-2.833 2.339-4.276 8.77-16.831 13.726-35.938 13.726-56.186 0-67.685-55.335-122.56-123.591-122.56S.216 55.097.216 122.782"/>
        <path id="prefix__c" d="M.216 122.782c0 20.248 4.956 39.355 13.726 56.186.752 1.443 1.528 2.868 2.337 4.276 4.562 7.96 10.003 15.372 16.188 22.085.452.497.913.986 1.376 1.473 2.346 2.478 4.797 4.853 7.346 7.119.613.549 1.227 1.087 1.851 1.62.056.047.105.1.162.142 2.623 2.242 5.345 4.375 8.16 6.393 2.313 1.67 4.69 3.257 7.122 4.763 5.603 3.465 11.51 6.504 17.666 9.054 1.581.657 3.181 1.28 4.8 1.87.276.103.561.207.843.307 3.109 1.114 6.275 2.11 9.493 2.979 3.323.896 6.693 1.657 10.121 2.28.752.137 1.505.27 2.261.387 2.143.35 4.299.643 6.472.873 3.54.392 7.12.629 10.742.713h.007c.438.014.87.02 1.309.023.176 0 .357.005.537.005.353.005.715.005 1.072.005.195 0 .39 0 .586-.005.05.005.102.005.154.005.102 0 .207-.005.312-.005h.005c.186 0 .367-.005.552-.005.433-.003.861-.01 1.29-.023 3.632-.084 7.222-.321 10.769-.713 2.17-.23 4.328-.523 6.465-.868.72-.118 1.438-.246 2.152-.373 3.49-.633 6.922-1.407 10.298-2.319 3.198-.867 6.341-1.854 9.436-2.959h.003c.278-.1.558-.198.83-.303 1.618-.59 3.218-1.213 4.794-1.874 6.166-2.544 12.07-5.58 17.677-9.054 2.432-1.506 4.812-3.094 7.122-4.77 2.776-1.982 5.465-4.086 8.056-6.298.037-.028.07-.06.104-.088.095-.08.195-.165.29-.256.59-.51 1.181-1.02 1.762-1.543 2.566-2.285 5.031-4.679 7.403-7.172.428-.448.851-.901 1.27-1.36 6.18-6.73 11.626-14.144 16.196-22.108.81-1.408 1.587-2.833 2.339-4.276 8.77-16.831 13.726-35.938 13.726-56.186 0-67.685-55.335-122.56-123.591-122.56S.216 55.097.216 122.782"/>
        <path id="prefix__e" d="M.216 122.782c0 20.248 4.956 39.355 13.726 56.186.752 1.443 1.528 2.868 2.337 4.276 4.562 7.96 10.003 15.372 16.188 22.085.452.497.913.986 1.376 1.473 2.346 2.478 4.797 4.853 7.346 7.119.613.549 1.227 1.087 1.851 1.62.056.047.105.1.162.142 2.623 2.242 5.345 4.375 8.16 6.393 2.313 1.67 4.69 3.257 7.122 4.763 5.603 3.465 11.51 6.504 17.666 9.054 1.581.657 3.181 1.28 4.8 1.87.276.103.561.207.843.307 3.109 1.114 6.275 2.11 9.493 2.979 3.323.896 6.693 1.657 10.121 2.28.752.137 1.505.27 2.261.387 2.143.35 4.299.643 6.472.873 3.54.392 7.12.629 10.742.713h.007c.438.014.87.02 1.309.023.176 0 .357.005.537.005.353.005.715.005 1.072.005.195 0 .39 0 .586-.005.05.005.102.005.154.005.102 0 .207-.005.312-.005h.005c.186 0 .367-.005.552-.005.433-.003.861-.01 1.29-.023 3.632-.084 7.222-.321 10.769-.713 2.17-.23 4.328-.523 6.465-.868.72-.118 1.438-.246 2.152-.373 3.49-.633 6.922-1.407 10.298-2.319 3.198-.867 6.341-1.854 9.436-2.959h.003c.278-.1.558-.198.83-.303 1.618-.59 3.218-1.213 4.794-1.874 6.166-2.544 12.07-5.58 17.677-9.054 2.432-1.506 4.812-3.094 7.122-4.77 2.776-1.982 5.465-4.086 8.056-6.298.037-.028.07-.06.104-.088.095-.08.195-.165.29-.256.59-.51 1.181-1.02 1.762-1.543 2.566-2.285 5.031-4.679 7.403-7.172.428-.448.851-.901 1.27-1.36 6.18-6.73 11.626-14.144 16.196-22.108.81-1.408 1.587-2.833 2.339-4.276 8.77-16.831 13.726-35.938 13.726-56.186 0-67.685-55.335-122.56-123.591-122.56S.216 55.097.216 122.782"/>
        <path id="prefix__g" d="M.216 122.782c0 20.248 4.956 39.355 13.726 56.186.752 1.443 1.528 2.868 2.337 4.276 4.562 7.96 10.003 15.372 16.188 22.085.452.497.913.986 1.376 1.473 2.346 2.478 4.797 4.853 7.346 7.119.613.549 1.227 1.087 1.851 1.62.056.047.105.1.162.142 2.623 2.242 5.345 4.375 8.16 6.393 2.313 1.67 4.69 3.257 7.122 4.763 5.603 3.465 11.51 6.504 17.666 9.054 1.581.657 3.181 1.28 4.8 1.87.276.103.561.207.843.307 3.109 1.114 6.275 2.11 9.493 2.979 3.323.896 6.693 1.657 10.121 2.28.752.137 1.505.27 2.261.387 2.143.35 4.299.643 6.472.873 3.54.392 7.12.629 10.742.713h.007c.438.014.87.02 1.309.023.176 0 .357.005.537.005.353.005.715.005 1.072.005.195 0 .39 0 .586-.005.05.005.102.005.154.005.102 0 .207-.005.312-.005h.005c.186 0 .367-.005.552-.005.433-.003.861-.01 1.29-.023 3.632-.084 7.222-.321 10.769-.713 2.17-.23 4.328-.523 6.465-.868.72-.118 1.438-.246 2.152-.373 3.49-.633 6.922-1.407 10.298-2.319 3.198-.867 6.341-1.854 9.436-2.959h.003c.278-.1.558-.198.83-.303 1.618-.59 3.218-1.213 4.794-1.874 6.166-2.544 12.07-5.58 17.677-9.054 2.432-1.506 4.812-3.094 7.122-4.77 2.776-1.982 5.465-4.086 8.056-6.298.037-.028.07-.06.104-.088.095-.08.195-.165.29-.256.59-.51 1.181-1.02 1.762-1.543 2.566-2.285 5.031-4.679 7.403-7.172.428-.448.851-.901 1.27-1.36 6.18-6.73 11.626-14.144 16.196-22.108.81-1.408 1.587-2.833 2.339-4.276 8.77-16.831 13.726-35.938 13.726-56.186 0-67.685-55.335-122.56-123.591-122.56S.216 55.097.216 122.782"/>
        <path id="prefix__i" d="M.216 122.782c0 20.248 4.956 39.355 13.726 56.186.752 1.443 1.528 2.868 2.337 4.276 4.562 7.96 10.003 15.372 16.188 22.085.452.497.913.986 1.376 1.473 2.346 2.478 4.797 4.853 7.346 7.119.613.549 1.227 1.087 1.851 1.62.056.047.105.1.162.142 2.623 2.242 5.345 4.375 8.16 6.393 2.313 1.67 4.69 3.257 7.122 4.763 5.603 3.465 11.51 6.504 17.666 9.054 1.581.657 3.181 1.28 4.8 1.87.276.103.561.207.843.307 3.109 1.114 6.275 2.11 9.493 2.979 3.323.896 6.693 1.657 10.121 2.28.752.137 1.505.27 2.261.387 2.143.35 4.299.643 6.472.873 3.54.392 7.12.629 10.742.713h.007c.438.014.87.02 1.309.023.176 0 .357.005.537.005.353.005.715.005 1.072.005.195 0 .39 0 .586-.005.05.005.102.005.154.005.102 0 .207-.005.312-.005h.005c.186 0 .367-.005.552-.005.433-.003.861-.01 1.29-.023 3.632-.084 7.222-.321 10.769-.713 2.17-.23 4.328-.523 6.465-.868.72-.118 1.438-.246 2.152-.373 3.49-.633 6.922-1.407 10.298-2.319 3.198-.867 6.341-1.854 9.436-2.959h.003c.278-.1.558-.198.83-.303 1.618-.59 3.218-1.213 4.794-1.874 6.166-2.544 12.07-5.58 17.677-9.054 2.432-1.506 4.812-3.094 7.122-4.77 2.776-1.982 5.465-4.086 8.056-6.298.037-.028.07-.06.104-.088.095-.08.195-.165.29-.256.59-.51 1.181-1.02 1.762-1.543 2.566-2.285 5.031-4.679 7.403-7.172.428-.448.851-.901 1.27-1.36 6.18-6.73 11.626-14.144 16.196-22.108.81-1.408 1.587-2.833 2.339-4.276 8.77-16.831 13.726-35.938 13.726-56.186 0-67.685-55.335-122.56-123.591-122.56S.216 55.097.216 122.782z"/>
        <path id="prefix__k" d="M.216 122.782c0 20.248 4.956 39.355 13.726 56.186.752 1.443 1.528 2.868 2.337 4.276 4.562 7.96 10.003 15.372 16.188 22.085.452.497.913.986 1.376 1.473 2.346 2.478 4.797 4.853 7.346 7.119.613.549 1.227 1.087 1.851 1.62.056.047.105.1.162.142 2.623 2.242 5.345 4.375 8.16 6.393 2.313 1.67 4.69 3.257 7.122 4.763 5.603 3.465 11.51 6.504 17.666 9.054 1.581.657 3.181 1.28 4.8 1.87.276.103.561.207.843.307 3.109 1.114 6.275 2.11 9.493 2.979 3.323.896 6.693 1.657 10.121 2.28.752.137 1.505.27 2.261.387 2.143.35 4.299.643 6.472.873 3.54.392 7.12.629 10.742.713h.007c.438.014.87.02 1.309.023.176 0 .357.005.537.005.353.005.715.005 1.072.005.195 0 .39 0 .586-.005.05.005.102.005.154.005.102 0 .207-.005.312-.005h.005c.186 0 .367-.005.552-.005.433-.003.861-.01 1.29-.023 3.632-.084 7.222-.321 10.769-.713 2.17-.23 4.328-.523 6.465-.868.72-.118 1.438-.246 2.152-.373 3.49-.633 6.922-1.407 10.298-2.319 3.198-.867 6.341-1.854 9.436-2.959h.003c.278-.1.558-.198.83-.303 1.618-.59 3.218-1.213 4.794-1.874 6.166-2.544 12.07-5.58 17.677-9.054 2.432-1.506 4.812-3.094 7.122-4.77 2.776-1.982 5.465-4.086 8.056-6.298.037-.028.07-.06.104-.088.095-.08.195-.165.29-.256.59-.51 1.181-1.02 1.762-1.543 2.566-2.285 5.031-4.679 7.403-7.172.428-.448.851-.901 1.27-1.36 6.18-6.73 11.626-14.144 16.196-22.108.81-1.408 1.587-2.833 2.339-4.276 8.77-16.831 13.726-35.938 13.726-56.186 0-67.685-55.335-122.56-123.591-122.56S.216 55.097.216 122.782"/>
        <path id="prefix__m" d="M.216 122.782c0 20.248 4.956 39.355 13.726 56.186.752 1.443 1.528 2.868 2.337 4.276 4.562 7.96 10.003 15.372 16.188 22.085.452.497.913.986 1.376 1.473 2.346 2.478 4.797 4.853 7.346 7.119.613.549 1.227 1.087 1.851 1.62.056.047.105.1.162.142 2.623 2.242 5.345 4.375 8.16 6.393 2.313 1.67 4.69 3.257 7.122 4.763 5.603 3.465 11.51 6.504 17.666 9.054 1.581.657 3.181 1.28 4.8 1.87.276.103.561.207.843.307 3.109 1.114 6.275 2.11 9.493 2.979 3.323.896 6.693 1.657 10.121 2.28.752.137 1.505.27 2.261.387 2.143.35 4.299.643 6.472.873 3.54.392 7.12.629 10.742.713h.007c.438.014.87.02 1.309.023.176 0 .357.005.537.005.353.005.715.005 1.072.005.195 0 .39 0 .586-.005.05.005.102.005.154.005.102 0 .207-.005.312-.005h.005c.186 0 .367-.005.552-.005.433-.003.861-.01 1.29-.023 3.632-.084 7.222-.321 10.769-.713 2.17-.23 4.328-.523 6.465-.868.72-.118 1.438-.246 2.152-.373 3.49-.633 6.922-1.407 10.298-2.319 3.198-.867 6.341-1.854 9.436-2.959h.003c.278-.1.558-.198.83-.303 1.618-.59 3.218-1.213 4.794-1.874 6.166-2.544 12.07-5.58 17.677-9.054 2.432-1.506 4.812-3.094 7.122-4.77 2.776-1.982 5.465-4.086 8.056-6.298.037-.028.07-.06.104-.088.095-.08.195-.165.29-.256.59-.51 1.181-1.02 1.762-1.543 2.566-2.285 5.031-4.679 7.403-7.172.428-.448.851-.901 1.27-1.36 6.18-6.73 11.626-14.144 16.196-22.108.81-1.408 1.587-2.833 2.339-4.276 8.77-16.831 13.726-35.938 13.726-56.186 0-67.685-55.335-122.56-123.591-122.56S.216 55.097.216 122.782z"/>
        <path id="prefix__o" d="M.216 122.782c0 20.248 4.956 39.355 13.726 56.186.752 1.443 1.528 2.868 2.337 4.276 4.562 7.96 10.003 15.372 16.188 22.085.452.497.913.986 1.376 1.473 2.346 2.478 4.797 4.853 7.346 7.119.613.549 1.227 1.087 1.851 1.62.056.047.105.1.162.142 2.623 2.242 5.345 4.375 8.16 6.393 2.313 1.67 4.69 3.257 7.122 4.763 5.603 3.465 11.51 6.504 17.666 9.054 1.581.657 3.181 1.28 4.8 1.87.276.103.561.207.843.307 3.109 1.114 6.275 2.11 9.493 2.979 3.323.896 6.693 1.657 10.121 2.28.752.137 1.505.27 2.261.387 2.143.35 4.299.643 6.472.873 3.54.392 7.12.629 10.742.713h.007c.438.014.87.02 1.309.023.176 0 .357.005.537.005.353.005.715.005 1.072.005.195 0 .39 0 .586-.005.05.005.102.005.154.005.102 0 .207-.005.312-.005h.005c.186 0 .367-.005.552-.005.433-.003.861-.01 1.29-.023 3.632-.084 7.222-.321 10.769-.713 2.17-.23 4.328-.523 6.465-.868.72-.118 1.438-.246 2.152-.373 3.49-.633 6.922-1.407 10.298-2.319 3.198-.867 6.341-1.854 9.436-2.959h.003c.278-.1.558-.198.83-.303 1.618-.59 3.218-1.213 4.794-1.874 6.166-2.544 12.07-5.58 17.677-9.054 2.432-1.506 4.812-3.094 7.122-4.77 2.776-1.982 5.465-4.086 8.056-6.298.037-.028.07-.06.104-.088.095-.08.195-.165.29-.256.59-.51 1.181-1.02 1.762-1.543 2.566-2.285 5.031-4.679 7.403-7.172.428-.448.851-.901 1.27-1.36 6.18-6.73 11.626-14.144 16.196-22.108.81-1.408 1.587-2.833 2.339-4.276 8.77-16.831 13.726-35.938 13.726-56.186 0-67.685-55.335-122.56-123.591-122.56S.216 55.097.216 122.782z"/>
        <path id="prefix__q" d="M.216 122.782c0 20.248 4.956 39.355 13.726 56.186.752 1.443 1.528 2.868 2.337 4.276 4.562 7.96 10.003 15.372 16.188 22.085.452.497.913.986 1.376 1.473 2.346 2.478 4.797 4.853 7.346 7.119.613.549 1.227 1.087 1.851 1.62.056.047.105.1.162.142 2.623 2.242 5.345 4.375 8.16 6.393 2.313 1.67 4.69 3.257 7.122 4.763 5.603 3.465 11.51 6.504 17.666 9.054 1.581.657 3.181 1.28 4.8 1.87.276.103.561.207.843.307 3.109 1.114 6.275 2.11 9.493 2.979 3.323.896 6.693 1.657 10.121 2.28.752.137 1.505.27 2.261.387 2.143.35 4.299.643 6.472.873 3.54.392 7.12.629 10.742.713h.007c.438.014.87.02 1.309.023.176 0 .357.005.537.005.353.005.715.005 1.072.005.195 0 .39 0 .586-.005.05.005.102.005.154.005.102 0 .207-.005.312-.005h.005c.186 0 .367-.005.552-.005.433-.003.861-.01 1.29-.023 3.632-.084 7.222-.321 10.769-.713 2.17-.23 4.328-.523 6.465-.868.72-.118 1.438-.246 2.152-.373 3.49-.633 6.922-1.407 10.298-2.319 3.198-.867 6.341-1.854 9.436-2.959h.003c.278-.1.558-.198.83-.303 1.618-.59 3.218-1.213 4.794-1.874 6.166-2.544 12.07-5.58 17.677-9.054 2.432-1.506 4.812-3.094 7.122-4.77 2.776-1.982 5.465-4.086 8.056-6.298.037-.028.07-.06.104-.088.095-.08.195-.165.29-.256.59-.51 1.181-1.02 1.762-1.543 2.566-2.285 5.031-4.679 7.403-7.172.428-.448.851-.901 1.27-1.36 6.18-6.73 11.626-14.144 16.196-22.108.81-1.408 1.587-2.833 2.339-4.276 8.77-16.831 13.726-35.938 13.726-56.186 0-67.685-55.335-122.56-123.591-122.56S.216 55.097.216 122.782z"/>
        <path id="prefix__s" d="M.216 122.782c0 20.248 4.956 39.355 13.726 56.186.752 1.443 1.528 2.868 2.337 4.276 4.562 7.96 10.003 15.372 16.188 22.085.452.497.913.986 1.376 1.473 2.346 2.478 4.797 4.853 7.346 7.119.613.549 1.227 1.087 1.851 1.62.056.047.105.1.162.142 2.623 2.242 5.345 4.375 8.16 6.393 2.313 1.67 4.69 3.257 7.122 4.763 5.603 3.465 11.51 6.504 17.666 9.054 1.581.657 3.181 1.28 4.8 1.87.276.103.561.207.843.307 3.109 1.114 6.275 2.11 9.493 2.979 3.323.896 6.693 1.657 10.121 2.28.752.137 1.505.27 2.261.387 2.143.35 4.299.643 6.472.873 3.54.392 7.12.629 10.742.713h.007c.438.014.87.02 1.309.023.176 0 .357.005.537.005.353.005.715.005 1.072.005.195 0 .39 0 .586-.005.05.005.102.005.154.005.102 0 .207-.005.312-.005h.005c.186 0 .367-.005.552-.005.433-.003.861-.01 1.29-.023 3.632-.084 7.222-.321 10.769-.713 2.17-.23 4.328-.523 6.465-.868.72-.118 1.438-.246 2.152-.373 3.49-.633 6.922-1.407 10.298-2.319 3.198-.867 6.341-1.854 9.436-2.959h.003c.278-.1.558-.198.83-.303 1.618-.59 3.218-1.213 4.794-1.874 6.166-2.544 12.07-5.58 17.677-9.054 2.432-1.506 4.812-3.094 7.122-4.77 2.776-1.982 5.465-4.086 8.056-6.298.037-.028.07-.06.104-.088.095-.08.195-.165.29-.256.59-.51 1.181-1.02 1.762-1.543 2.566-2.285 5.031-4.679 7.403-7.172.428-.448.851-.901 1.27-1.36 6.18-6.73 11.626-14.144 16.196-22.108.81-1.408 1.587-2.833 2.339-4.276 8.77-16.831 13.726-35.938 13.726-56.186 0-67.685-55.335-122.56-123.591-122.56S.216 55.097.216 122.782z"/>
        <path id="prefix__u" d="M.216 122.782c0 20.248 4.956 39.355 13.726 56.186.752 1.443 1.528 2.868 2.337 4.276 4.562 7.96 10.003 15.372 16.188 22.085.452.497.913.986 1.376 1.473 2.346 2.478 4.797 4.853 7.346 7.119.613.549 1.227 1.087 1.851 1.62.056.047.105.1.162.142 2.623 2.242 5.345 4.375 8.16 6.393 2.313 1.67 4.69 3.257 7.122 4.763 5.603 3.465 11.51 6.504 17.666 9.054 1.581.657 3.181 1.28 4.8 1.87.276.103.561.207.843.307 3.109 1.114 6.275 2.11 9.493 2.979 3.323.896 6.693 1.657 10.121 2.28.752.137 1.505.27 2.261.387 2.143.35 4.299.643 6.472.873 3.54.392 7.12.629 10.742.713h.007c.438.014.87.02 1.309.023.176 0 .357.005.537.005.353.005.715.005 1.072.005.195 0 .39 0 .586-.005.05.005.102.005.154.005.102 0 .207-.005.312-.005h.005c.186 0 .367-.005.552-.005.433-.003.861-.01 1.29-.023 3.632-.084 7.222-.321 10.769-.713 2.17-.23 4.328-.523 6.465-.868.72-.118 1.438-.246 2.152-.373 3.49-.633 6.922-1.407 10.298-2.319 3.198-.867 6.341-1.854 9.436-2.959h.003c.278-.1.558-.198.83-.303 1.618-.59 3.218-1.213 4.794-1.874 6.166-2.544 12.07-5.58 17.677-9.054 2.432-1.506 4.812-3.094 7.122-4.77 2.776-1.982 5.465-4.086 8.056-6.298.037-.028.07-.06.104-.088.095-.08.195-.165.29-.256.59-.51 1.181-1.02 1.762-1.543 2.566-2.285 5.031-4.679 7.403-7.172.428-.448.851-.901 1.27-1.36 6.18-6.73 11.626-14.144 16.196-22.108.81-1.408 1.587-2.833 2.339-4.276 8.77-16.831 13.726-35.938 13.726-56.186 0-67.685-55.335-122.56-123.591-122.56S.216 55.097.216 122.782z"/>
        <path id="prefix__w" d="M.216 122.782c0 20.248 4.956 39.355 13.726 56.186.752 1.443 1.528 2.868 2.337 4.276 4.562 7.96 10.003 15.372 16.188 22.085.452.497.913.986 1.376 1.473 2.346 2.478 4.797 4.853 7.346 7.119.613.549 1.227 1.087 1.851 1.62.056.047.105.1.162.142 2.623 2.242 5.345 4.375 8.16 6.393 2.313 1.67 4.69 3.257 7.122 4.763 5.603 3.465 11.51 6.504 17.666 9.054 1.581.657 3.181 1.28 4.8 1.87.276.103.561.207.843.307 3.109 1.114 6.275 2.11 9.493 2.979 3.323.896 6.693 1.657 10.121 2.28.752.137 1.505.27 2.261.387 2.143.35 4.299.643 6.472.873 3.54.392 7.12.629 10.742.713h.007c.438.014.87.02 1.309.023.176 0 .357.005.537.005.353.005.715.005 1.072.005.195 0 .39 0 .586-.005.05.005.102.005.154.005.102 0 .207-.005.312-.005h.005c.186 0 .367-.005.552-.005.433-.003.861-.01 1.29-.023 3.632-.084 7.222-.321 10.769-.713 2.17-.23 4.328-.523 6.465-.868.72-.118 1.438-.246 2.152-.373 3.49-.633 6.922-1.407 10.298-2.319 3.198-.867 6.341-1.854 9.436-2.959h.003c.278-.1.558-.198.83-.303 1.618-.59 3.218-1.213 4.794-1.874 6.166-2.544 12.07-5.58 17.677-9.054 2.432-1.506 4.812-3.094 7.122-4.77 2.776-1.982 5.465-4.086 8.056-6.298.037-.028.07-.06.104-.088.095-.08.195-.165.29-.256.59-.51 1.181-1.02 1.762-1.543 2.566-2.285 5.031-4.679 7.403-7.172.428-.448.851-.901 1.27-1.36 6.18-6.73 11.626-14.144 16.196-22.108.81-1.408 1.587-2.833 2.339-4.276 8.77-16.831 13.726-35.938 13.726-56.186 0-67.685-55.335-122.56-123.591-122.56S.216 55.097.216 122.782z"/>
        <path id="prefix__y" d="M.216 122.782c0 20.248 4.956 39.355 13.726 56.186.752 1.443 1.528 2.868 2.337 4.276 4.562 7.96 10.003 15.372 16.188 22.085.452.497.913.986 1.376 1.473 2.346 2.478 4.797 4.853 7.346 7.119.613.549 1.227 1.087 1.851 1.62.056.047.105.1.162.142 2.623 2.242 5.345 4.375 8.16 6.393 2.313 1.67 4.69 3.257 7.122 4.763 5.603 3.465 11.51 6.504 17.666 9.054 1.581.657 3.181 1.28 4.8 1.87.276.103.561.207.843.307 3.109 1.114 6.275 2.11 9.493 2.979 3.323.896 6.693 1.657 10.121 2.28.752.137 1.505.27 2.261.387 2.143.35 4.299.643 6.472.873 3.54.392 7.12.629 10.742.713h.007c.438.014.87.02 1.309.023.176 0 .357.005.537.005.353.005.715.005 1.072.005.195 0 .39 0 .586-.005.05.005.102.005.154.005.102 0 .207-.005.312-.005h.005c.186 0 .367-.005.552-.005.433-.003.861-.01 1.29-.023 3.632-.084 7.222-.321 10.769-.713 2.17-.23 4.328-.523 6.465-.868.72-.118 1.438-.246 2.152-.373 3.49-.633 6.922-1.407 10.298-2.319 3.198-.867 6.341-1.854 9.436-2.959h.003c.278-.1.558-.198.83-.303 1.618-.59 3.218-1.213 4.794-1.874 6.166-2.544 12.07-5.58 17.677-9.054 2.432-1.506 4.812-3.094 7.122-4.77 2.776-1.982 5.465-4.086 8.056-6.298.037-.028.07-.06.104-.088.095-.08.195-.165.29-.256.59-.51 1.181-1.02 1.762-1.543 2.566-2.285 5.031-4.679 7.403-7.172.428-.448.851-.901 1.27-1.36 6.18-6.73 11.626-14.144 16.196-22.108.81-1.408 1.587-2.833 2.339-4.276 8.77-16.831 13.726-35.938 13.726-56.186 0-67.685-55.335-122.56-123.591-122.56S.216 55.097.216 122.782z"/>
        <path id="prefix__A" d="M.216 122.782c0 20.248 4.956 39.355 13.726 56.186.752 1.443 1.528 2.868 2.337 4.276 4.562 7.96 10.003 15.372 16.188 22.085.452.497.913.986 1.376 1.473 2.346 2.478 4.797 4.853 7.346 7.119.613.549 1.227 1.087 1.851 1.62.056.047.105.1.162.142 2.623 2.242 5.345 4.375 8.16 6.393 2.313 1.67 4.69 3.257 7.122 4.763 5.603 3.465 11.51 6.504 17.666 9.054 1.581.657 3.181 1.28 4.8 1.87.276.103.561.207.843.307 3.109 1.114 6.275 2.11 9.493 2.979 3.323.896 6.693 1.657 10.121 2.28.752.137 1.505.27 2.261.387 2.143.35 4.299.643 6.472.873 3.54.392 7.12.629 10.742.713h.007c.438.014.87.02 1.309.023.176 0 .357.005.537.005.353.005.715.005 1.072.005.195 0 .39 0 .586-.005.05.005.102.005.154.005.102 0 .207-.005.312-.005h.005c.186 0 .367-.005.552-.005.433-.003.861-.01 1.29-.023 3.632-.084 7.222-.321 10.769-.713 2.17-.23 4.328-.523 6.465-.868.72-.118 1.438-.246 2.152-.373 3.49-.633 6.922-1.407 10.298-2.319 3.198-.867 6.341-1.854 9.436-2.959h.003c.278-.1.558-.198.83-.303 1.618-.59 3.218-1.213 4.794-1.874 6.166-2.544 12.07-5.58 17.677-9.054 2.432-1.506 4.812-3.094 7.122-4.77 2.776-1.982 5.465-4.086 8.056-6.298.037-.028.07-.06.104-.088.095-.08.195-.165.29-.256.59-.51 1.181-1.02 1.762-1.543 2.566-2.285 5.031-4.679 7.403-7.172.428-.448.851-.901 1.27-1.36 6.18-6.73 11.626-14.144 16.196-22.108.81-1.408 1.587-2.833 2.339-4.276 8.77-16.831 13.726-35.938 13.726-56.186 0-67.685-55.335-122.56-123.591-122.56S.216 55.097.216 122.782"/>
        <path id="prefix__C" d="M.216 122.782c0 20.248 4.956 39.355 13.726 56.186.752 1.443 1.528 2.868 2.337 4.276 4.562 7.96 10.003 15.372 16.188 22.085.452.497.913.986 1.376 1.473 2.346 2.478 4.797 4.853 7.346 7.119.613.549 1.227 1.087 1.851 1.62.056.047.105.1.162.142 2.623 2.242 5.345 4.375 8.16 6.393 2.313 1.67 4.69 3.257 7.122 4.763 5.603 3.465 11.51 6.504 17.666 9.054 1.581.657 3.181 1.28 4.8 1.87.276.103.561.207.843.307 3.109 1.114 6.275 2.11 9.493 2.979 3.323.896 6.693 1.657 10.121 2.28.752.137 1.505.27 2.261.387 2.143.35 4.299.643 6.472.873 3.54.392 7.12.629 10.742.713h.007c.438.014.87.02 1.309.023.176 0 .357.005.537.005.353.005.715.005 1.072.005.195 0 .39 0 .586-.005.05.005.102.005.154.005.102 0 .207-.005.312-.005h.005c.186 0 .367-.005.552-.005.433-.003.861-.01 1.29-.023 3.632-.084 7.222-.321 10.769-.713 2.17-.23 4.328-.523 6.465-.868.72-.118 1.438-.246 2.152-.373 3.49-.633 6.922-1.407 10.298-2.319 3.198-.867 6.341-1.854 9.436-2.959h.003c.278-.1.558-.198.83-.303 1.618-.59 3.218-1.213 4.794-1.874 6.166-2.544 12.07-5.58 17.677-9.054 2.432-1.506 4.812-3.094 7.122-4.77 2.776-1.982 5.465-4.086 8.056-6.298.037-.028.07-.06.104-.088.095-.08.195-.165.29-.256.59-.51 1.181-1.02 1.762-1.543 2.566-2.285 5.031-4.679 7.403-7.172.428-.448.851-.901 1.27-1.36 6.18-6.73 11.626-14.144 16.196-22.108.81-1.408 1.587-2.833 2.339-4.276 8.77-16.831 13.726-35.938 13.726-56.186 0-67.685-55.335-122.56-123.591-122.56S.216 55.097.216 122.782"/>
        <path id="prefix__E" d="M.216 122.782c0 20.248 4.956 39.355 13.726 56.186.752 1.443 1.528 2.868 2.337 4.276 4.562 7.96 10.003 15.372 16.188 22.085.452.497.913.986 1.376 1.473 2.346 2.478 4.797 4.853 7.346 7.119.613.549 1.227 1.087 1.851 1.62.056.047.105.1.162.142 2.623 2.242 5.345 4.375 8.16 6.393 2.313 1.67 4.69 3.257 7.122 4.763 5.603 3.465 11.51 6.504 17.666 9.054 1.581.657 3.181 1.28 4.8 1.87.276.103.561.207.843.307 3.109 1.114 6.275 2.11 9.493 2.979 3.323.896 6.693 1.657 10.121 2.28.752.137 1.505.27 2.261.387 2.143.35 4.299.643 6.472.873 3.54.392 7.12.629 10.742.713h.007c.438.014.87.02 1.309.023.176 0 .357.005.537.005.353.005.715.005 1.072.005.195 0 .39 0 .586-.005.05.005.102.005.154.005.102 0 .207-.005.312-.005h.005c.186 0 .367-.005.552-.005.433-.003.861-.01 1.29-.023 3.632-.084 7.222-.321 10.769-.713 2.17-.23 4.328-.523 6.465-.868.72-.118 1.438-.246 2.152-.373 3.49-.633 6.922-1.407 10.298-2.319 3.198-.867 6.341-1.854 9.436-2.959h.003c.278-.1.558-.198.83-.303 1.618-.59 3.218-1.213 4.794-1.874 6.166-2.544 12.07-5.58 17.677-9.054 2.432-1.506 4.812-3.094 7.122-4.77 2.776-1.982 5.465-4.086 8.056-6.298.037-.028.07-.06.104-.088.095-.08.195-.165.29-.256.59-.51 1.181-1.02 1.762-1.543 2.566-2.285 5.031-4.679 7.403-7.172.428-.448.851-.901 1.27-1.36 6.18-6.73 11.626-14.144 16.196-22.108.81-1.408 1.587-2.833 2.339-4.276 8.77-16.831 13.726-35.938 13.726-56.186 0-67.685-55.335-122.56-123.591-122.56S.216 55.097.216 122.782"/>
        <path id="prefix__G" d="M.216 122.782c0 20.248 4.956 39.355 13.726 56.186.752 1.443 1.528 2.868 2.337 4.276 4.562 7.96 10.003 15.372 16.188 22.085.452.497.913.986 1.376 1.473 2.346 2.478 4.797 4.853 7.346 7.119.613.549 1.227 1.087 1.851 1.62.056.047.105.1.162.142 2.623 2.242 5.345 4.375 8.16 6.393 2.313 1.67 4.69 3.257 7.122 4.763 5.603 3.465 11.51 6.504 17.666 9.054 1.581.657 3.181 1.28 4.8 1.87.276.103.561.207.843.307 3.109 1.114 6.275 2.11 9.493 2.979 3.323.896 6.693 1.657 10.121 2.28.752.137 1.505.27 2.261.387 2.143.35 4.299.643 6.472.873 3.54.392 7.12.629 10.742.713h.007c.438.014.87.02 1.309.023.176 0 .357.005.537.005.353.005.715.005 1.072.005.195 0 .39 0 .586-.005.05.005.102.005.154.005.102 0 .207-.005.312-.005h.005c.186 0 .367-.005.552-.005.433-.003.861-.01 1.29-.023 3.632-.084 7.222-.321 10.769-.713 2.17-.23 4.328-.523 6.465-.868.72-.118 1.438-.246 2.152-.373 3.49-.633 6.922-1.407 10.298-2.319 3.198-.867 6.341-1.854 9.436-2.959h.003c.278-.1.558-.198.83-.303 1.618-.59 3.218-1.213 4.794-1.874 6.166-2.544 12.07-5.58 17.677-9.054 2.432-1.506 4.812-3.094 7.122-4.77 2.776-1.982 5.465-4.086 8.056-6.298.037-.028.07-.06.104-.088.095-.08.195-.165.29-.256.59-.51 1.181-1.02 1.762-1.543 2.566-2.285 5.031-4.679 7.403-7.172.428-.448.851-.901 1.27-1.36 6.18-6.73 11.626-14.144 16.196-22.108.81-1.408 1.587-2.833 2.339-4.276 8.77-16.831 13.726-35.938 13.726-56.186 0-67.685-55.335-122.56-123.591-122.56S.216 55.097.216 122.782"/>
        <path id="prefix__I" d="M.216 122.782c0 20.248 4.956 39.355 13.726 56.186.752 1.443 1.528 2.868 2.337 4.276 4.562 7.96 10.003 15.372 16.188 22.085.452.497.913.986 1.376 1.473 2.346 2.478 4.797 4.853 7.346 7.119.613.549 1.227 1.087 1.851 1.62.056.047.105.1.162.142 2.623 2.242 5.345 4.375 8.16 6.393 2.313 1.67 4.69 3.257 7.122 4.763 5.603 3.465 11.51 6.504 17.666 9.054 1.581.657 3.181 1.28 4.8 1.87.276.103.561.207.843.307 3.109 1.114 6.275 2.11 9.493 2.979 3.323.896 6.693 1.657 10.121 2.28.752.137 1.505.27 2.261.387 2.143.35 4.299.643 6.472.873 3.54.392 7.12.629 10.742.713h.007c.438.014.87.02 1.309.023.176 0 .357.005.537.005.353.005.715.005 1.072.005.195 0 .39 0 .586-.005.05.005.102.005.154.005.102 0 .207-.005.312-.005h.005c.186 0 .367-.005.552-.005.433-.003.861-.01 1.29-.023 3.632-.084 7.222-.321 10.769-.713 2.17-.23 4.328-.523 6.465-.868.72-.118 1.438-.246 2.152-.373 3.49-.633 6.922-1.407 10.298-2.319 3.198-.867 6.341-1.854 9.436-2.959h.003c.278-.1.558-.198.83-.303 1.618-.59 3.218-1.213 4.794-1.874 6.166-2.544 12.07-5.58 17.677-9.054 2.432-1.506 4.812-3.094 7.122-4.77 2.776-1.982 5.465-4.086 8.056-6.298.037-.028.07-.06.104-.088.095-.08.195-.165.29-.256.59-.51 1.181-1.02 1.762-1.543 2.566-2.285 5.031-4.679 7.403-7.172.428-.448.851-.901 1.27-1.36 6.18-6.73 11.626-14.144 16.196-22.108.81-1.408 1.587-2.833 2.339-4.276 8.77-16.831 13.726-35.938 13.726-56.186 0-67.685-55.335-122.56-123.591-122.56S.216 55.097.216 122.782z"/>
        <path id="prefix__K" d="M.216 122.782c0 20.248 4.956 39.355 13.726 56.186.752 1.443 1.528 2.868 2.337 4.276 4.562 7.96 10.003 15.372 16.188 22.085.452.497.913.986 1.376 1.473 2.346 2.478 4.797 4.853 7.346 7.119.613.549 1.227 1.087 1.851 1.62.056.047.105.1.162.142 2.623 2.242 5.345 4.375 8.16 6.393 2.313 1.67 4.69 3.257 7.122 4.763 5.603 3.465 11.51 6.504 17.666 9.054 1.581.657 3.181 1.28 4.8 1.87.276.103.561.207.843.307 3.109 1.114 6.275 2.11 9.493 2.979 3.323.896 6.693 1.657 10.121 2.28.752.137 1.505.27 2.261.387 2.143.35 4.299.643 6.472.873 3.54.392 7.12.629 10.742.713h.007c.438.014.87.02 1.309.023.176 0 .357.005.537.005.353.005.715.005 1.072.005.195 0 .39 0 .586-.005.05.005.102.005.154.005.102 0 .207-.005.312-.005h.005c.186 0 .367-.005.552-.005.433-.003.861-.01 1.29-.023 3.632-.084 7.222-.321 10.769-.713 2.17-.23 4.328-.523 6.465-.868.72-.118 1.438-.246 2.152-.373 3.49-.633 6.922-1.407 10.298-2.319 3.198-.867 6.341-1.854 9.436-2.959h.003c.278-.1.558-.198.83-.303 1.618-.59 3.218-1.213 4.794-1.874 6.166-2.544 12.07-5.58 17.677-9.054 2.432-1.506 4.812-3.094 7.122-4.77 2.776-1.982 5.465-4.086 8.056-6.298.037-.028.07-.06.104-.088.095-.08.195-.165.29-.256.59-.51 1.181-1.02 1.762-1.543 2.566-2.285 5.031-4.679 7.403-7.172.428-.448.851-.901 1.27-1.36 6.18-6.73 11.626-14.144 16.196-22.108.81-1.408 1.587-2.833 2.339-4.276 8.77-16.831 13.726-35.938 13.726-56.186 0-67.685-55.335-122.56-123.591-122.56S.216 55.097.216 122.782"/>
        <path id="prefix__M" d="M.216 122.782c0 20.248 4.956 39.355 13.726 56.186.752 1.443 1.528 2.868 2.337 4.276 4.562 7.96 10.003 15.372 16.188 22.085.452.497.913.986 1.376 1.473 2.346 2.478 4.797 4.853 7.346 7.119.613.549 1.227 1.087 1.851 1.62.056.047.105.1.162.142 2.623 2.242 5.345 4.375 8.16 6.393 2.313 1.67 4.69 3.257 7.122 4.763 5.603 3.465 11.51 6.504 17.666 9.054 1.581.657 3.181 1.28 4.8 1.87.276.103.561.207.843.307 3.109 1.114 6.275 2.11 9.493 2.979 3.323.896 6.693 1.657 10.121 2.28.752.137 1.505.27 2.261.387 2.143.35 4.299.643 6.472.873 3.54.392 7.12.629 10.742.713h.007c.438.014.87.02 1.309.023.176 0 .357.005.537.005.353.005.715.005 1.072.005.195 0 .39 0 .586-.005.05.005.102.005.154.005.102 0 .207-.005.312-.005h.005c.186 0 .367-.005.552-.005.433-.003.861-.01 1.29-.023 3.632-.084 7.222-.321 10.769-.713 2.17-.23 4.328-.523 6.465-.868.72-.118 1.438-.246 2.152-.373 3.49-.633 6.922-1.407 10.298-2.319 3.198-.867 6.341-1.854 9.436-2.959h.003c.278-.1.558-.198.83-.303 1.618-.59 3.218-1.213 4.794-1.874 6.166-2.544 12.07-5.58 17.677-9.054 2.432-1.506 4.812-3.094 7.122-4.77 2.776-1.982 5.465-4.086 8.056-6.298.037-.028.07-.06.104-.088.095-.08.195-.165.29-.256.59-.51 1.181-1.02 1.762-1.543 2.566-2.285 5.031-4.679 7.403-7.172.428-.448.851-.901 1.27-1.36 6.18-6.73 11.626-14.144 16.196-22.108.81-1.408 1.587-2.833 2.339-4.276 8.77-16.831 13.726-35.938 13.726-56.186 0-67.685-55.335-122.56-123.591-122.56S.216 55.097.216 122.782z"/>
        <path id="prefix__O" d="M.216 122.782c0 20.248 4.956 39.355 13.726 56.186.752 1.443 1.528 2.868 2.337 4.276 4.562 7.96 10.003 15.372 16.188 22.085.452.497.913.986 1.376 1.473 2.346 2.478 4.797 4.853 7.346 7.119.613.549 1.227 1.087 1.851 1.62.056.047.105.1.162.142 2.623 2.242 5.345 4.375 8.16 6.393 2.313 1.67 4.69 3.257 7.122 4.763 5.603 3.465 11.51 6.504 17.666 9.054 1.581.657 3.181 1.28 4.8 1.87.276.103.561.207.843.307 3.109 1.114 6.275 2.11 9.493 2.979 3.323.896 6.693 1.657 10.121 2.28.752.137 1.505.27 2.261.387 2.143.35 4.299.643 6.472.873 3.54.392 7.12.629 10.742.713h.007c.438.014.87.02 1.309.023.176 0 .357.005.537.005.353.005.715.005 1.072.005.195 0 .39 0 .586-.005.05.005.102.005.154.005.102 0 .207-.005.312-.005h.005c.186 0 .367-.005.552-.005.433-.003.861-.01 1.29-.023 3.632-.084 7.222-.321 10.769-.713 2.17-.23 4.328-.523 6.465-.868.72-.118 1.438-.246 2.152-.373 3.49-.633 6.922-1.407 10.298-2.319 3.198-.867 6.341-1.854 9.436-2.959h.003c.278-.1.558-.198.83-.303 1.618-.59 3.218-1.213 4.794-1.874 6.166-2.544 12.07-5.58 17.677-9.054 2.432-1.506 4.812-3.094 7.122-4.77 2.776-1.982 5.465-4.086 8.056-6.298.037-.028.07-.06.104-.088.095-.08.195-.165.29-.256.59-.51 1.181-1.02 1.762-1.543 2.566-2.285 5.031-4.679 7.403-7.172.428-.448.851-.901 1.27-1.36 6.18-6.73 11.626-14.144 16.196-22.108.81-1.408 1.587-2.833 2.339-4.276 8.77-16.831 13.726-35.938 13.726-56.186 0-67.685-55.335-122.56-123.591-122.56S.216 55.097.216 122.782"/>
        <path id="prefix__Q" d="M.216 122.782c0 20.248 4.956 39.355 13.726 56.186.752 1.443 1.528 2.868 2.337 4.276 4.562 7.96 10.003 15.372 16.188 22.085.452.497.913.986 1.376 1.473 2.346 2.478 4.797 4.853 7.346 7.119.613.549 1.227 1.087 1.851 1.62.056.047.105.1.162.142 2.623 2.242 5.345 4.375 8.16 6.393 2.313 1.67 4.69 3.257 7.122 4.763 5.603 3.465 11.51 6.504 17.666 9.054 1.581.657 3.181 1.28 4.8 1.87.276.103.561.207.843.307 3.109 1.114 6.275 2.11 9.493 2.979 3.323.896 6.693 1.657 10.121 2.28.752.137 1.505.27 2.261.387 2.143.35 4.299.643 6.472.873 3.54.392 7.12.629 10.742.713h.007c.438.014.87.02 1.309.023.176 0 .357.005.537.005.353.005.715.005 1.072.005.195 0 .39 0 .586-.005.05.005.102.005.154.005.102 0 .207-.005.312-.005h.005c.186 0 .367-.005.552-.005.433-.003.861-.01 1.29-.023 3.632-.084 7.222-.321 10.769-.713 2.17-.23 4.328-.523 6.465-.868.72-.118 1.438-.246 2.152-.373 3.49-.633 6.922-1.407 10.298-2.319 3.198-.867 6.341-1.854 9.436-2.959h.003c.278-.1.558-.198.83-.303 1.618-.59 3.218-1.213 4.794-1.874 6.166-2.544 12.07-5.58 17.677-9.054 2.432-1.506 4.812-3.094 7.122-4.77 2.776-1.982 5.465-4.086 8.056-6.298.037-.028.07-.06.104-.088.095-.08.195-.165.29-.256.59-.51 1.181-1.02 1.762-1.543 2.566-2.285 5.031-4.679 7.403-7.172.428-.448.851-.901 1.27-1.36 6.18-6.73 11.626-14.144 16.196-22.108.81-1.408 1.587-2.833 2.339-4.276 8.77-16.831 13.726-35.938 13.726-56.186 0-67.685-55.335-122.56-123.591-122.56S.216 55.097.216 122.782"/>
        <path id="prefix__S" d="M.216 122.782c0 20.248 4.956 39.355 13.726 56.186.752 1.443 1.528 2.868 2.337 4.276 4.562 7.96 10.003 15.372 16.188 22.085.452.497.913.986 1.376 1.473 2.346 2.478 4.797 4.853 7.346 7.119.613.549 1.227 1.087 1.851 1.62.056.047.105.1.162.142 2.623 2.242 5.345 4.375 8.16 6.393 2.313 1.67 4.69 3.257 7.122 4.763 5.603 3.465 11.51 6.504 17.666 9.054 1.581.657 3.181 1.28 4.8 1.87.276.103.561.207.843.307 3.109 1.114 6.275 2.11 9.493 2.979 3.323.896 6.693 1.657 10.121 2.28.752.137 1.505.27 2.261.387 2.143.35 4.299.643 6.472.873 3.54.392 7.12.629 10.742.713h.007c.438.014.87.02 1.309.023.176 0 .357.005.537.005.353.005.715.005 1.072.005.195 0 .39 0 .586-.005.05.005.102.005.154.005.102 0 .207-.005.312-.005h.005c.186 0 .367-.005.552-.005.433-.003.861-.01 1.29-.023 3.632-.084 7.222-.321 10.769-.713 2.17-.23 4.328-.523 6.465-.868.72-.118 1.438-.246 2.152-.373 3.49-.633 6.922-1.407 10.298-2.319 3.198-.867 6.341-1.854 9.436-2.959h.003c.278-.1.558-.198.83-.303 1.618-.59 3.218-1.213 4.794-1.874 6.166-2.544 12.07-5.58 17.677-9.054 2.432-1.506 4.812-3.094 7.122-4.77 2.776-1.982 5.465-4.086 8.056-6.298.037-.028.07-.06.104-.088.095-.08.195-.165.29-.256.59-.51 1.181-1.02 1.762-1.543 2.566-2.285 5.031-4.679 7.403-7.172.428-.448.851-.901 1.27-1.36 6.18-6.73 11.626-14.144 16.196-22.108.81-1.408 1.587-2.833 2.339-4.276 8.77-16.831 13.726-35.938 13.726-56.186 0-67.685-55.335-122.56-123.591-122.56S.216 55.097.216 122.782"/>
        <path id="prefix__U" d="M.216 122.782c0 20.248 4.956 39.355 13.726 56.186.752 1.443 1.528 2.868 2.337 4.276 4.562 7.96 10.003 15.372 16.188 22.085.452.497.913.986 1.376 1.473 2.346 2.478 4.797 4.853 7.346 7.119.613.549 1.227 1.087 1.851 1.62.056.047.105.1.162.142 2.623 2.242 5.345 4.375 8.16 6.393 2.313 1.67 4.69 3.257 7.122 4.763 5.603 3.465 11.51 6.504 17.666 9.054 1.581.657 3.181 1.28 4.8 1.87.276.103.561.207.843.307 3.109 1.114 6.275 2.11 9.493 2.979 3.323.896 6.693 1.657 10.121 2.28.752.137 1.505.27 2.261.387 2.143.35 4.299.643 6.472.873 3.54.392 7.12.629 10.742.713h.007c.438.014.87.02 1.309.023.176 0 .357.005.537.005.353.005.715.005 1.072.005.195 0 .39 0 .586-.005.05.005.102.005.154.005.102 0 .207-.005.312-.005h.005c.186 0 .367-.005.552-.005.433-.003.861-.01 1.29-.023 3.632-.084 7.222-.321 10.769-.713 2.17-.23 4.328-.523 6.465-.868.72-.118 1.438-.246 2.152-.373 3.49-.633 6.922-1.407 10.298-2.319 3.198-.867 6.341-1.854 9.436-2.959h.003c.278-.1.558-.198.83-.303 1.618-.59 3.218-1.213 4.794-1.874 6.166-2.544 12.07-5.58 17.677-9.054 2.432-1.506 4.812-3.094 7.122-4.77 2.776-1.982 5.465-4.086 8.056-6.298.037-.028.07-.06.104-.088.095-.08.195-.165.29-.256.59-.51 1.181-1.02 1.762-1.543 2.566-2.285 5.031-4.679 7.403-7.172.428-.448.851-.901 1.27-1.36 6.18-6.73 11.626-14.144 16.196-22.108.81-1.408 1.587-2.833 2.339-4.276 8.77-16.831 13.726-35.938 13.726-56.186 0-67.685-55.335-122.56-123.591-122.56S.216 55.097.216 122.782"/>
        <path id="prefix__W" d="M.216 122.782c0 20.248 4.956 39.355 13.726 56.186.752 1.443 1.528 2.868 2.337 4.276 4.562 7.96 10.003 15.372 16.188 22.085.452.497.913.986 1.376 1.473 2.346 2.478 4.797 4.853 7.346 7.119.613.549 1.227 1.087 1.851 1.62.056.047.105.1.162.142 2.623 2.242 5.345 4.375 8.16 6.393 2.313 1.67 4.69 3.257 7.122 4.763 5.603 3.465 11.51 6.504 17.666 9.054 1.581.657 3.181 1.28 4.8 1.87.276.103.561.207.843.307 3.109 1.114 6.275 2.11 9.493 2.979 3.323.896 6.693 1.657 10.121 2.28.752.137 1.505.27 2.261.387 2.143.35 4.299.643 6.472.873 3.54.392 7.12.629 10.742.713h.007c.438.014.87.02 1.309.023.176 0 .357.005.537.005.353.005.715.005 1.072.005.195 0 .39 0 .586-.005.05.005.102.005.154.005.102 0 .207-.005.312-.005h.005c.186 0 .367-.005.552-.005.433-.003.861-.01 1.29-.023 3.632-.084 7.222-.321 10.769-.713 2.17-.23 4.328-.523 6.465-.868.72-.118 1.438-.246 2.152-.373 3.49-.633 6.922-1.407 10.298-2.319 3.198-.867 6.341-1.854 9.436-2.959h.003c.278-.1.558-.198.83-.303 1.618-.59 3.218-1.213 4.794-1.874 6.166-2.544 12.07-5.58 17.677-9.054 2.432-1.506 4.812-3.094 7.122-4.77 2.776-1.982 5.465-4.086 8.056-6.298.037-.028.07-.06.104-.088.095-.08.195-.165.29-.256.59-.51 1.181-1.02 1.762-1.543 2.566-2.285 5.031-4.679 7.403-7.172.428-.448.851-.901 1.27-1.36 6.18-6.73 11.626-14.144 16.196-22.108.81-1.408 1.587-2.833 2.339-4.276 8.77-16.831 13.726-35.938 13.726-56.186 0-67.685-55.335-122.56-123.591-122.56S.216 55.097.216 122.782"/>
        <path id="prefix__Y" d="M.216 122.782c0 20.248 4.956 39.355 13.726 56.186.752 1.443 1.528 2.868 2.337 4.276 4.562 7.96 10.003 15.372 16.188 22.085.452.497.913.986 1.376 1.473 2.346 2.478 4.797 4.853 7.346 7.119.613.549 1.227 1.087 1.851 1.62.056.047.105.1.162.142 2.623 2.242 5.345 4.375 8.16 6.393 2.313 1.67 4.69 3.257 7.122 4.763 5.603 3.465 11.51 6.504 17.666 9.054 1.581.657 3.181 1.28 4.8 1.87.276.103.561.207.843.307 3.109 1.114 6.275 2.11 9.493 2.979 3.323.896 6.693 1.657 10.121 2.28.752.137 1.505.27 2.261.387 2.143.35 4.299.643 6.472.873 3.54.392 7.12.629 10.742.713h.007c.438.014.87.02 1.309.023.176 0 .357.005.537.005.353.005.715.005 1.072.005.195 0 .39 0 .586-.005.05.005.102.005.154.005.102 0 .207-.005.312-.005h.005c.186 0 .367-.005.552-.005.433-.003.861-.01 1.29-.023 3.632-.084 7.222-.321 10.769-.713 2.17-.23 4.328-.523 6.465-.868.72-.118 1.438-.246 2.152-.373 3.49-.633 6.922-1.407 10.298-2.319 3.198-.867 6.341-1.854 9.436-2.959h.003c.278-.1.558-.198.83-.303 1.618-.59 3.218-1.213 4.794-1.874 6.166-2.544 12.07-5.58 17.677-9.054 2.432-1.506 4.812-3.094 7.122-4.77 2.776-1.982 5.465-4.086 8.056-6.298.037-.028.07-.06.104-.088.095-.08.195-.165.29-.256.59-.51 1.181-1.02 1.762-1.543 2.566-2.285 5.031-4.679 7.403-7.172.428-.448.851-.901 1.27-1.36 6.18-6.73 11.626-14.144 16.196-22.108.81-1.408 1.587-2.833 2.339-4.276 8.77-16.831 13.726-35.938 13.726-56.186 0-67.685-55.335-122.56-123.591-122.56S.216 55.097.216 122.782"/>
        <path id="prefix__aa" d="M.216 122.782c0 20.248 4.956 39.355 13.726 56.186.752 1.443 1.528 2.868 2.337 4.276 4.562 7.96 10.003 15.372 16.188 22.085.452.497.913.986 1.376 1.473 2.346 2.478 4.797 4.853 7.346 7.119.613.549 1.227 1.087 1.851 1.62.056.047.105.1.162.142 2.623 2.242 5.345 4.375 8.16 6.393 2.313 1.67 4.69 3.257 7.122 4.763 5.603 3.465 11.51 6.504 17.666 9.054 1.581.657 3.181 1.28 4.8 1.87.276.103.561.207.843.307 3.109 1.114 6.275 2.11 9.493 2.979 3.323.896 6.693 1.657 10.121 2.28.752.137 1.505.27 2.261.387 2.143.35 4.299.643 6.472.873 3.54.392 7.12.629 10.742.713h.007c.438.014.87.02 1.309.023.176 0 .357.005.537.005.353.005.715.005 1.072.005.195 0 .39 0 .586-.005.05.005.102.005.154.005.102 0 .207-.005.312-.005h.005c.186 0 .367-.005.552-.005.433-.003.861-.01 1.29-.023 3.632-.084 7.222-.321 10.769-.713 2.17-.23 4.328-.523 6.465-.868.72-.118 1.438-.246 2.152-.373 3.49-.633 6.922-1.407 10.298-2.319 3.198-.867 6.341-1.854 9.436-2.959h.003c.278-.1.558-.198.83-.303 1.618-.59 3.218-1.213 4.794-1.874 6.166-2.544 12.07-5.58 17.677-9.054 2.432-1.506 4.812-3.094 7.122-4.77 2.776-1.982 5.465-4.086 8.056-6.298.037-.028.07-.06.104-.088.095-.08.195-.165.29-.256.59-.51 1.181-1.02 1.762-1.543 2.566-2.285 5.031-4.679 7.403-7.172.428-.448.851-.901 1.27-1.36 6.18-6.73 11.626-14.144 16.196-22.108.81-1.408 1.587-2.833 2.339-4.276 8.77-16.831 13.726-35.938 13.726-56.186 0-67.685-55.335-122.56-123.591-122.56S.216 55.097.216 122.782"/>
        <path id="prefix__ac" d="M.216 122.782c0 20.248 4.956 39.355 13.726 56.186.752 1.443 1.528 2.868 2.337 4.276 4.562 7.96 10.003 15.372 16.188 22.085.452.497.913.986 1.376 1.473 2.346 2.478 4.797 4.853 7.346 7.119.613.549 1.227 1.087 1.851 1.62.056.047.105.1.162.142 2.623 2.242 5.345 4.375 8.16 6.393 2.313 1.67 4.69 3.257 7.122 4.763 5.603 3.465 11.51 6.504 17.666 9.054 1.581.657 3.181 1.28 4.8 1.87.276.103.561.207.843.307 3.109 1.114 6.275 2.11 9.493 2.979 3.323.896 6.693 1.657 10.121 2.28.752.137 1.505.27 2.261.387 2.143.35 4.299.643 6.472.873 3.54.392 7.12.629 10.742.713h.007c.438.014.87.02 1.309.023.176 0 .357.005.537.005.353.005.715.005 1.072.005.195 0 .39 0 .586-.005.05.005.102.005.154.005.102 0 .207-.005.312-.005h.005c.186 0 .367-.005.552-.005.433-.003.861-.01 1.29-.023 3.632-.084 7.222-.321 10.769-.713 2.17-.23 4.328-.523 6.465-.868.72-.118 1.438-.246 2.152-.373 3.49-.633 6.922-1.407 10.298-2.319 3.198-.867 6.341-1.854 9.436-2.959h.003c.278-.1.558-.198.83-.303 1.618-.59 3.218-1.213 4.794-1.874 6.166-2.544 12.07-5.58 17.677-9.054 2.432-1.506 4.812-3.094 7.122-4.77 2.776-1.982 5.465-4.086 8.056-6.298.037-.028.07-.06.104-.088.095-.08.195-.165.29-.256.59-.51 1.181-1.02 1.762-1.543 2.566-2.285 5.031-4.679 7.403-7.172.428-.448.851-.901 1.27-1.36 6.18-6.73 11.626-14.144 16.196-22.108.81-1.408 1.587-2.833 2.339-4.276 8.77-16.831 13.726-35.938 13.726-56.186 0-67.685-55.335-122.56-123.591-122.56S.216 55.097.216 122.782"/>
        <path id="prefix__ae" d="M.216 122.782c0 20.248 4.956 39.355 13.726 56.186.752 1.443 1.528 2.868 2.337 4.276 4.562 7.96 10.003 15.372 16.188 22.085.452.497.913.986 1.376 1.473 2.346 2.478 4.797 4.853 7.346 7.119.613.549 1.227 1.087 1.851 1.62.056.047.105.1.162.142 2.623 2.242 5.345 4.375 8.16 6.393 2.313 1.67 4.69 3.257 7.122 4.763 5.603 3.465 11.51 6.504 17.666 9.054 1.581.657 3.181 1.28 4.8 1.87.276.103.561.207.843.307 3.109 1.114 6.275 2.11 9.493 2.979 3.323.896 6.693 1.657 10.121 2.28.752.137 1.505.27 2.261.387 2.143.35 4.299.643 6.472.873 3.54.392 7.12.629 10.742.713h.007c.438.014.87.02 1.309.023.176 0 .357.005.537.005.353.005.715.005 1.072.005.195 0 .39 0 .586-.005.05.005.102.005.154.005.102 0 .207-.005.312-.005h.005c.186 0 .367-.005.552-.005.433-.003.861-.01 1.29-.023 3.632-.084 7.222-.321 10.769-.713 2.17-.23 4.328-.523 6.465-.868.72-.118 1.438-.246 2.152-.373 3.49-.633 6.922-1.407 10.298-2.319 3.198-.867 6.341-1.854 9.436-2.959h.003c.278-.1.558-.198.83-.303 1.618-.59 3.218-1.213 4.794-1.874 6.166-2.544 12.07-5.58 17.677-9.054 2.432-1.506 4.812-3.094 7.122-4.77 2.776-1.982 5.465-4.086 8.056-6.298.037-.028.07-.06.104-.088.095-.08.195-.165.29-.256.59-.51 1.181-1.02 1.762-1.543 2.566-2.285 5.031-4.679 7.403-7.172.428-.448.851-.901 1.27-1.36 6.18-6.73 11.626-14.144 16.196-22.108.81-1.408 1.587-2.833 2.339-4.276 8.77-16.831 13.726-35.938 13.726-56.186 0-67.685-55.335-122.56-123.591-122.56S.216 55.097.216 122.782"/>
        <path id="prefix__ag" d="M.216 122.782c0 20.248 4.956 39.355 13.726 56.186.752 1.443 1.528 2.868 2.337 4.276 4.562 7.96 10.003 15.372 16.188 22.085.452.497.913.986 1.376 1.473 2.346 2.478 4.797 4.853 7.346 7.119.613.549 1.227 1.087 1.851 1.62.056.047.105.1.162.142 2.623 2.242 5.345 4.375 8.16 6.393 2.313 1.67 4.69 3.257 7.122 4.763 5.603 3.465 11.51 6.504 17.666 9.054 1.581.657 3.181 1.28 4.8 1.87.276.103.561.207.843.307 3.109 1.114 6.275 2.11 9.493 2.979 3.323.896 6.693 1.657 10.121 2.28.752.137 1.505.27 2.261.387 2.143.35 4.299.643 6.472.873 3.54.392 7.12.629 10.742.713h.007c.438.014.87.02 1.309.023.176 0 .357.005.537.005.353.005.715.005 1.072.005.195 0 .39 0 .586-.005.05.005.102.005.154.005.102 0 .207-.005.312-.005h.005c.186 0 .367-.005.552-.005.433-.003.861-.01 1.29-.023 3.632-.084 7.222-.321 10.769-.713 2.17-.23 4.328-.523 6.465-.868.72-.118 1.438-.246 2.152-.373 3.49-.633 6.922-1.407 10.298-2.319 3.198-.867 6.341-1.854 9.436-2.959h.003c.278-.1.558-.198.83-.303 1.618-.59 3.218-1.213 4.794-1.874 6.166-2.544 12.07-5.58 17.677-9.054 2.432-1.506 4.812-3.094 7.122-4.77 2.776-1.982 5.465-4.086 8.056-6.298.037-.028.07-.06.104-.088.095-.08.195-.165.29-.256.59-.51 1.181-1.02 1.762-1.543 2.566-2.285 5.031-4.679 7.403-7.172.428-.448.851-.901 1.27-1.36 6.18-6.73 11.626-14.144 16.196-22.108.81-1.408 1.587-2.833 2.339-4.276 8.77-16.831 13.726-35.938 13.726-56.186 0-67.685-55.335-122.56-123.591-122.56S.216 55.097.216 122.782"/>
        <path id="prefix__ai" d="M.216 122.782c0 20.248 4.956 39.355 13.726 56.186.752 1.443 1.528 2.868 2.337 4.276 4.562 7.96 10.003 15.372 16.188 22.085.452.497.913.986 1.376 1.473 2.346 2.478 4.797 4.853 7.346 7.119.613.549 1.227 1.087 1.851 1.62.056.047.105.1.162.142 2.623 2.242 5.345 4.375 8.16 6.393 2.313 1.67 4.69 3.257 7.122 4.763 5.603 3.465 11.51 6.504 17.666 9.054 1.581.657 3.181 1.28 4.8 1.87.276.103.561.207.843.307 3.109 1.114 6.275 2.11 9.493 2.979 3.323.896 6.693 1.657 10.121 2.28.752.137 1.505.27 2.261.387 2.143.35 4.299.643 6.472.873 3.54.392 7.12.629 10.742.713h.007c.438.014.87.02 1.309.023.176 0 .357.005.537.005.353.005.715.005 1.072.005.195 0 .39 0 .586-.005.05.005.102.005.154.005.102 0 .207-.005.312-.005h.005c.186 0 .367-.005.552-.005.433-.003.861-.01 1.29-.023 3.632-.084 7.222-.321 10.769-.713 2.17-.23 4.328-.523 6.465-.868.72-.118 1.438-.246 2.152-.373 3.49-.633 6.922-1.407 10.298-2.319 3.198-.867 6.341-1.854 9.436-2.959h.003c.278-.1.558-.198.83-.303 1.618-.59 3.218-1.213 4.794-1.874 6.166-2.544 12.07-5.58 17.677-9.054 2.432-1.506 4.812-3.094 7.122-4.77 2.776-1.982 5.465-4.086 8.056-6.298.037-.028.07-.06.104-.088.095-.08.195-.165.29-.256.59-.51 1.181-1.02 1.762-1.543 2.566-2.285 5.031-4.679 7.403-7.172.428-.448.851-.901 1.27-1.36 6.18-6.73 11.626-14.144 16.196-22.108.81-1.408 1.587-2.833 2.339-4.276 8.77-16.831 13.726-35.938 13.726-56.186 0-67.685-55.335-122.56-123.591-122.56S.216 55.097.216 122.782"/>
        <path id="prefix__ak" d="M.216 122.782c0 20.248 4.956 39.355 13.726 56.186.752 1.443 1.528 2.868 2.337 4.276 4.562 7.96 10.003 15.372 16.188 22.085.452.497.913.986 1.376 1.473 2.346 2.478 4.797 4.853 7.346 7.119.613.549 1.227 1.087 1.851 1.62.056.047.105.1.162.142 2.623 2.242 5.345 4.375 8.16 6.393 2.313 1.67 4.69 3.257 7.122 4.763 5.603 3.465 11.51 6.504 17.666 9.054 1.581.657 3.181 1.28 4.8 1.87.276.103.561.207.843.307 3.109 1.114 6.275 2.11 9.493 2.979 3.323.896 6.693 1.657 10.121 2.28.752.137 1.505.27 2.261.387 2.143.35 4.299.643 6.472.873 3.54.392 7.12.629 10.742.713h.007c.438.014.87.02 1.309.023.176 0 .357.005.537.005.353.005.715.005 1.072.005.195 0 .39 0 .586-.005.05.005.102.005.154.005.102 0 .207-.005.312-.005h.005c.186 0 .367-.005.552-.005.433-.003.861-.01 1.29-.023 3.632-.084 7.222-.321 10.769-.713 2.17-.23 4.328-.523 6.465-.868.72-.118 1.438-.246 2.152-.373 3.49-.633 6.922-1.407 10.298-2.319 3.198-.867 6.341-1.854 9.436-2.959h.003c.278-.1.558-.198.83-.303 1.618-.59 3.218-1.213 4.794-1.874 6.166-2.544 12.07-5.58 17.677-9.054 2.432-1.506 4.812-3.094 7.122-4.77 2.776-1.982 5.465-4.086 8.056-6.298.037-.028.07-.06.104-.088.095-.08.195-.165.29-.256.59-.51 1.181-1.02 1.762-1.543 2.566-2.285 5.031-4.679 7.403-7.172.428-.448.851-.901 1.27-1.36 6.18-6.73 11.626-14.144 16.196-22.108.81-1.408 1.587-2.833 2.339-4.276 8.77-16.831 13.726-35.938 13.726-56.186 0-67.685-55.335-122.56-123.591-122.56S.216 55.097.216 122.782"/>
        <path id="prefix__am" d="M.216 122.782c0 20.248 4.956 39.355 13.726 56.186.752 1.443 1.528 2.868 2.337 4.276 4.562 7.96 10.003 15.372 16.188 22.085.452.497.913.986 1.376 1.473 2.346 2.478 4.797 4.853 7.346 7.119.613.549 1.227 1.087 1.851 1.62.056.047.105.1.162.142 2.623 2.242 5.345 4.375 8.16 6.393 2.313 1.67 4.69 3.257 7.122 4.763 5.603 3.465 11.51 6.504 17.666 9.054 1.581.657 3.181 1.28 4.8 1.87.276.103.561.207.843.307 3.109 1.114 6.275 2.11 9.493 2.979 3.323.896 6.693 1.657 10.121 2.28.752.137 1.505.27 2.261.387 2.143.35 4.299.643 6.472.873 3.54.392 7.12.629 10.742.713h.007c.438.014.87.02 1.309.023.176 0 .357.005.537.005.353.005.715.005 1.072.005.195 0 .39 0 .586-.005.05.005.102.005.154.005.102 0 .207-.005.312-.005h.005c.186 0 .367-.005.552-.005.433-.003.861-.01 1.29-.023 3.632-.084 7.222-.321 10.769-.713 2.17-.23 4.328-.523 6.465-.868.72-.118 1.438-.246 2.152-.373 3.49-.633 6.922-1.407 10.298-2.319 3.198-.867 6.341-1.854 9.436-2.959h.003c.278-.1.558-.198.83-.303 1.618-.59 3.218-1.213 4.794-1.874 6.166-2.544 12.07-5.58 17.677-9.054 2.432-1.506 4.812-3.094 7.122-4.77 2.776-1.982 5.465-4.086 8.056-6.298.037-.028.07-.06.104-.088.095-.08.195-.165.29-.256.59-.51 1.181-1.02 1.762-1.543 2.566-2.285 5.031-4.679 7.403-7.172.428-.448.851-.901 1.27-1.36 6.18-6.73 11.626-14.144 16.196-22.108.81-1.408 1.587-2.833 2.339-4.276 8.77-16.831 13.726-35.938 13.726-56.186 0-67.685-55.335-122.56-123.591-122.56S.216 55.097.216 122.782z"/>
        <path id="prefix__ao" d="M.216 122.782c0 20.248 4.956 39.355 13.726 56.186.752 1.443 1.528 2.868 2.337 4.276 4.562 7.96 10.003 15.372 16.188 22.085.452.497.913.986 1.376 1.473 2.346 2.478 4.797 4.853 7.346 7.119.613.549 1.227 1.087 1.851 1.62.056.047.105.1.162.142 2.623 2.242 5.345 4.375 8.16 6.393 2.313 1.67 4.69 3.257 7.122 4.763 5.603 3.465 11.51 6.504 17.666 9.054 1.581.657 3.181 1.28 4.8 1.87.276.103.561.207.843.307 3.109 1.114 6.275 2.11 9.493 2.979 3.323.896 6.693 1.657 10.121 2.28.752.137 1.505.27 2.261.387 2.143.35 4.299.643 6.472.873 3.54.392 7.12.629 10.742.713h.007c.438.014.87.02 1.309.023.176 0 .357.005.537.005.353.005.715.005 1.072.005.195 0 .39 0 .586-.005.05.005.102.005.154.005.102 0 .207-.005.312-.005h.005c.186 0 .367-.005.552-.005.433-.003.861-.01 1.29-.023 3.632-.084 7.222-.321 10.769-.713 2.17-.23 4.328-.523 6.465-.868.72-.118 1.438-.246 2.152-.373 3.49-.633 6.922-1.407 10.298-2.319 3.198-.867 6.341-1.854 9.436-2.959h.003c.278-.1.558-.198.83-.303 1.618-.59 3.218-1.213 4.794-1.874 6.166-2.544 12.07-5.58 17.677-9.054 2.432-1.506 4.812-3.094 7.122-4.77 2.776-1.982 5.465-4.086 8.056-6.298.037-.028.07-.06.104-.088.095-.08.195-.165.29-.256.59-.51 1.181-1.02 1.762-1.543 2.566-2.285 5.031-4.679 7.403-7.172.428-.448.851-.901 1.27-1.36 6.18-6.73 11.626-14.144 16.196-22.108.81-1.408 1.587-2.833 2.339-4.276 8.77-16.831 13.726-35.938 13.726-56.186 0-67.685-55.335-122.56-123.591-122.56S.216 55.097.216 122.782"/>
        <path id="prefix__aq" d="M.216 122.782c0 20.248 4.956 39.355 13.726 56.186.752 1.443 1.528 2.868 2.337 4.276 4.562 7.96 10.003 15.372 16.188 22.085.452.497.913.986 1.376 1.473 2.346 2.478 4.797 4.853 7.346 7.119.613.549 1.227 1.087 1.851 1.62.056.047.105.1.162.142 2.623 2.242 5.345 4.375 8.16 6.393 2.313 1.67 4.69 3.257 7.122 4.763 5.603 3.465 11.51 6.504 17.666 9.054 1.581.657 3.181 1.28 4.8 1.87.276.103.561.207.843.307 3.109 1.114 6.275 2.11 9.493 2.979 3.323.896 6.693 1.657 10.121 2.28.752.137 1.505.27 2.261.387 2.143.35 4.299.643 6.472.873 3.54.392 7.12.629 10.742.713h.007c.438.014.87.02 1.309.023.176 0 .357.005.537.005.353.005.715.005 1.072.005.195 0 .39 0 .586-.005.05.005.102.005.154.005.102 0 .207-.005.312-.005h.005c.186 0 .367-.005.552-.005.433-.003.861-.01 1.29-.023 3.632-.084 7.222-.321 10.769-.713 2.17-.23 4.328-.523 6.465-.868.72-.118 1.438-.246 2.152-.373 3.49-.633 6.922-1.407 10.298-2.319 3.198-.867 6.341-1.854 9.436-2.959h.003c.278-.1.558-.198.83-.303 1.618-.59 3.218-1.213 4.794-1.874 6.166-2.544 12.07-5.58 17.677-9.054 2.432-1.506 4.812-3.094 7.122-4.77 2.776-1.982 5.465-4.086 8.056-6.298.037-.028.07-.06.104-.088.095-.08.195-.165.29-.256.59-.51 1.181-1.02 1.762-1.543 2.566-2.285 5.031-4.679 7.403-7.172.428-.448.851-.901 1.27-1.36 6.18-6.73 11.626-14.144 16.196-22.108.81-1.408 1.587-2.833 2.339-4.276 8.77-16.831 13.726-35.938 13.726-56.186 0-67.685-55.335-122.56-123.591-122.56S.216 55.097.216 122.782"/>
        <path id="prefix__as" d="M0.877 0.083L138.789 0.083 138.789 136.982 0.877 136.982z"/>
        <path id="prefix__au" d="M0.149 0.441L138.061 0.441 138.061 137.34 0.149 137.34z"/>
        <path id="prefix__aw" d="M0 378L391.158 378 391.158 0.441 0 0.441z"/>
    </defs>
    <g fill="none" fill-rule="evenodd">
        <g transform="translate(69 78)">
            <mask id="prefix__b" fill="#fff">
                <use xlink:href="#prefix__a"/>
            </mask>
            <path fill="#67B0D0" d="M75.181 134.62c1.199 0 2.404-.062 3.613-.187 9.152-.95 17.39-5.41 23.198-12.563l-10.71-8.7c-3.483 4.29-8.424 6.967-13.911 7.536-5.488.571-10.87-1.037-15.161-4.522l-8.698 10.712c6.207 5.042 13.79 7.725 21.67 7.725" mask="url(#prefix__b)"/>
            <mask id="prefix__d" fill="#fff">
                <use xlink:href="#prefix__c"/>
            </mask>
            <path fill="#D84479" d="M75.181 130.267c1.199 0 2.404-.062 3.613-.187 8.024-.832 15.346-4.364 20.943-10.042l2.255 1.832c-5.807 7.153-14.046 11.614-23.198 12.563-1.21.125-2.414.188-3.613.188-7.879 0-15.462-2.683-21.669-7.725l2.2-2.71c5.759 3.978 12.497 6.081 19.47 6.081" mask="url(#prefix__d)"/>
            <mask id="prefix__f" fill="#fff">
                <use xlink:href="#prefix__e"/>
            </mask>
            <path fill="#67B0D0" d="M57.284 160.496c1.448 0 3.111-.11 4.946-.41 5.446-.888 13.719-3.73 22.21-12.224 16.032-16.035 13.38-46.531 13.258-47.821l-13.738 1.275c.637 7.015.21 27.3-9.275 36.787-10.53 10.532-19.486 8.442-19.571 8.417l-3.99 13.21c.545.165 2.767.766 6.16.766" mask="url(#prefix__f)"/>
            <mask id="prefix__h" fill="#fff">
                <use xlink:href="#prefix__g"/>
            </mask>
            <path fill="#D84479" d="M53.49 156.449c1.448 0 3.11-.109 4.946-.41 5.446-.887 13.718-3.73 22.21-12.224 12.617-12.62 13.661-34.197 13.474-43.443l3.578-.332c.12 1.29 2.774 31.787-13.257 47.822-8.492 8.494-16.765 11.336-22.21 12.225-1.836.299-3.499.408-4.947.408-3.393 0-5.615-.6-6.16-.764l1.001-3.315c.432.02.885.033 1.364.033" mask="url(#prefix__h)"/>
            <mask id="prefix__j" fill="#fff">
                <use xlink:href="#prefix__i"/>
            </mask>
            <path fill="#A6DD7B" d="M197.063 207.612v23.944c-3.146 3.66-6.566 7.082-10.226 10.232l-.081.072c-3.72 3.195-7.69 6.117-11.872 8.727-.974.61-1.96 1.2-2.959 1.774-.003.004-.007.004-.013.007-1.846 1.063-3.727 2.067-5.648 3.008h-.003c-7.813 3.83-16.214 6.633-25.035 8.239-2.224.406-4.472.735-6.748.984-.878.096-1.756.18-2.64.253-2.587.215-5.204.324-7.845.33h-.416c-2.624-.006-5.224-.115-7.793-.327-.01 0-.025 0-.038-.003-.884-.072-1.762-.157-2.641-.253-2.302-.252-4.578-.585-6.828-.999-8.795-1.609-17.172-4.408-24.959-8.224-1.923-.944-3.811-1.948-5.66-3.01-.997-.579-1.984-1.17-2.959-1.779-4.212-2.627-8.205-5.572-11.953-8.799-3.66-3.15-7.08-6.572-10.225-10.232v-26.743c0-7.053 2.254-13.577 6.08-18.898 5.88-8.17 15.473-13.495 26.307-13.495h81.757c1.603 0 3.178.116 4.718.341 8.877 1.297 16.584 6.193 21.592 13.164 3.823 5.314 6.07 11.838 6.07 18.888v2.799h.018z" mask="url(#prefix__j)"/>
            <mask id="prefix__l" fill="#fff">
                <use xlink:href="#prefix__k"/>
            </mask>
            <path fill="#A6DD7B" d="M171.912 224.756v27.612c-1.845 1.063-3.727 2.067-5.648 3.008h-.003c-7.813 3.83-16.214 6.633-25.035 8.239-2.225.406-4.472.735-6.749.984-.877.096-1.755.18-2.64.253l-6.03.25-1.814.074v.017h-.027l-.174-.01h-.003l-.181.01h-.031v-.017l-1.801-.072-5.992-.249c-.01 0-.024 0-.038-.003-.884-.072-1.763-.157-2.64-.253-2.303-.252-4.579-.585-6.83-.999-8.794-1.609-17.171-4.408-24.957-8.224-1.923-.944-3.812-1.948-5.66-3.01v-38.74c3.634-20.572 15.216-33.417 32.003-41.206l16.127 31.255 16.12-31.255c7.965 3.694 14.754 8.527 20.08 14.78-1.088 3.312-1.678 6.849-1.678 10.522 0 11.076 5.347 20.9 13.601 27.034" mask="url(#prefix__l)"/>
            <mask id="prefix__n" fill="#fff">
                <use xlink:href="#prefix__m"/>
            </mask>
            <path fill="#FFF" d="M107.662 172.419L92.674 172.419 105.041 218.802 123.786 203.678z" mask="url(#prefix__n)"/>
            <mask id="prefix__p" fill="#fff">
                <use xlink:href="#prefix__o"/>
            </mask>
            <path fill="#FFF" d="M139.917 172.419L154.903 172.419 142.538 218.802 123.793 203.678z" mask="url(#prefix__p)"/>
            <mask id="prefix__r" fill="#fff">
                <use xlink:href="#prefix__q"/>
            </mask>
            <path fill="#FFF" d="M125.808 203.676L125.808 265.1 123.993 265.176 123.993 265.193 123.965 265.193 123.787 265.184 123.607 265.193 123.579 265.193 123.579 265.176 121.776 265.104 121.776 203.676z" mask="url(#prefix__r)"/>
            <mask id="prefix__t" fill="#fff">
                <use xlink:href="#prefix__s"/>
            </mask>
            <path fill="#D0D2D3" d="M139.917 172.419L128.356 207.36 123.793 203.678z" mask="url(#prefix__t)"/>
            <mask id="prefix__v" fill="#fff">
                <use xlink:href="#prefix__u"/>
            </mask>
            <path fill="#D0D2D3" d="M107.662 172.419L119.223 207.36 123.786 203.678z" mask="url(#prefix__v)"/>
            <mask id="prefix__x" fill="#fff">
                <use xlink:href="#prefix__w"/>
            </mask>
            <path fill="#6CB37B" d="M171.925 252.361l-.014-30.298-.003-8.437-5.644 41.75c1.92-.94 3.802-1.945 5.647-3.008l.014-.007z" mask="url(#prefix__x)"/>
            <g>
                <mask id="prefix__z" fill="#fff">
                    <use xlink:href="#prefix__y"/>
                </mask>
                <path fill="#6CB37B" d="M81.319 255.376c-1.923-.944-3.812-1.948-5.66-3.01v-38.74l5.66 41.75z" mask="url(#prefix__z)"/>
            </g>
            <g>
                <mask id="prefix__B" fill="#fff">
                    <use xlink:href="#prefix__A"/>
                </mask>
                <path fill="#FFF" d="M82.643 130.319c-3.826 0-6.927-3.102-6.927-6.927v-10.563c0-3.825 3.101-6.927 6.927-6.927 3.824 0 6.925 3.102 6.925 6.927v10.563c0 3.825-3.1 6.927-6.925 6.927" mask="url(#prefix__B)"/>
            </g>
            <g>
                <mask id="prefix__D" fill="#fff">
                    <use xlink:href="#prefix__C"/>
                </mask>
                <path fill="#D0D2D3" d="M82.643 127.055c-3.826 0-6.927-3.101-6.927-6.927v3.263c0 3.826 3.101 6.928 6.927 6.928 3.824 0 6.925-3.102 6.925-6.928v-3.263c0 3.826-3.1 6.927-6.925 6.927" mask="url(#prefix__D)"/>
            </g>
            <g>
                <mask id="prefix__F" fill="#fff">
                    <use xlink:href="#prefix__E"/>
                </mask>
                <path fill="#FFF" d="M164.941 130.319c-3.824 0-6.925-3.102-6.925-6.927v-10.563c0-3.825 3.1-6.927 6.925-6.927 3.825 0 6.927 3.102 6.927 6.927v10.563c0 3.825-3.102 6.927-6.927 6.927" mask="url(#prefix__F)"/>
            </g>
            <g>
                <mask id="prefix__H" fill="#fff">
                    <use xlink:href="#prefix__G"/>
                </mask>
                <path fill="#D0D2D3" d="M164.941 127.055c-3.824 0-6.925-3.101-6.925-6.927v3.263c0 3.826 3.1 6.928 6.925 6.928 3.825 0 6.927-3.102 6.927-6.928v-3.263c0 3.826-3.102 6.927-6.927 6.927" mask="url(#prefix__H)"/>
            </g>
            <g>
                <mask id="prefix__J" fill="#fff">
                    <use xlink:href="#prefix__I"/>
                </mask>
                <path fill="#FFF" d="M107.673 150.526v21.894h-.012l.004.004c8.115 10.643 24.132 10.641 32.245-.004v-21.894h-32.237z" mask="url(#prefix__J)"/>
            </g>
            <g>
                <mask id="prefix__L" fill="#fff">
                    <use xlink:href="#prefix__K"/>
                </mask>
                <path fill="#67B0D0" d="M107.665 172.423l16.124 31.252 16.12-31.255c-8.112 10.646-24.128 10.648-32.244.003" mask="url(#prefix__L)"/>
            </g>
            <g>
                <mask id="prefix__N" fill="#fff">
                    <use xlink:href="#prefix__M"/>
                </mask>
                <path fill="#FFF" d="M83.247 103.144c1.34-6.89 4.393-13.168 8.7-18.37 1.244-1.51 2.598-2.925 4.042-4.241 7.34-6.69 17.094-10.76 27.802-10.76.475 0 .955.008 1.43.028.16 0 .323.008.479.016 10.653.483 20.247 4.998 27.308 12.06 6.288 6.291 10.56 14.606 11.756 23.884.224 1.75.342 3.528.342 5.336v8.183c0 22.825-18.496 41.326-41.315 41.326-22.814 0-41.313-18.5-41.313-41.326v-8.183c0-1.755.109-3.484.322-5.178l.447-2.775z" mask="url(#prefix__N)"/>
            </g>
            <g>
                <mask id="prefix__P" fill="#fff">
                    <use xlink:href="#prefix__O"/>
                </mask>
                <path fill="#D0D2D3" d="M123.791 154.078c-22.814 0-41.312-18.5-41.312-41.324v6.526c0 22.826 18.498 41.325 41.312 41.325 22.82 0 41.314-18.5 41.314-41.325v-6.526c0 22.824-18.495 41.324-41.314 41.324" mask="url(#prefix__P)"/>
            </g>
            <g>
                <mask id="prefix__R" fill="#fff">
                    <use xlink:href="#prefix__Q"/>
                </mask>
                <path fill="#4B6084" d="M83.247 103.144h3.945v19.804c0 1.292-.997 2.417-2.287 2.452-1.335.037-2.427-1.032-2.427-2.355v-14.247c0-1.911.259-3.813.77-5.654" mask="url(#prefix__R)"/>
            </g>
            <g>
                <mask id="prefix__T" fill="#fff">
                    <use xlink:href="#prefix__S"/>
                </mask>
                <path fill="#4B6084" d="M165.106 108.489v14.472c0 1.2-.861 2.268-2.05 2.421-1.439.183-2.664-.934-2.664-2.337v-19.901h3.948c.508 1.736.766 3.536.766 5.345" mask="url(#prefix__T)"/>
            </g>
            <g>
                <mask id="prefix__V" fill="#fff">
                    <use xlink:href="#prefix__U"/>
                </mask>
                <path fill="#4B6084" d="M125.221 69.801c-4.179 6.524-14.537 20.626-31.314 30.544-4.037 2.384-7.746 4.204-11.107 5.574.004-.005.004-.012.004-.016.998-7.973 4.268-15.243 9.143-21.13 1.244-1.51 2.598-2.924 4.042-4.24 7.34-6.69 17.094-10.76 27.802-10.76.475 0 .955.007 1.43.028" mask="url(#prefix__V)"/>
            </g>
            <g>
                <mask id="prefix__X" fill="#fff">
                    <use xlink:href="#prefix__W"/>
                </mask>
                <path fill="#808F91" d="M164.763 105.761c-5.624 1.704-16.708 3.311-34.308-1.292-17.8-4.65-31.305-13.877-38.508-19.696 1.244-1.51 2.597-2.924 4.042-4.24 7.34-6.69 17.093-10.76 27.803-10.76.636 0 1.276.012 1.907.045 10.654.481 20.247 4.997 27.308 12.06 6.29 6.29 10.56 14.605 11.756 23.883" mask="url(#prefix__X)"/>
            </g>
            <g>
                <mask id="prefix__Z" fill="#fff">
                    <use xlink:href="#prefix__Y"/>
                </mask>
                <path fill="#4B6084" d="M130.455 80.307c-7.794-2.037-14.765-4.95-20.744-8.072-5.12 1.858-9.772 4.697-13.722 8.298-1.445 1.316-2.798 2.73-4.043 4.24 7.204 5.82 20.71 15.045 38.509 19.696 17.6 4.603 28.684 2.996 34.308 1.292-1.11-8.615-4.875-16.397-10.44-22.501-5.986.27-13.875-.34-23.868-2.953" mask="url(#prefix__Z)"/>
            </g>
            <g>
                <mask id="prefix__ab" fill="#fff">
                    <use xlink:href="#prefix__aa"/>
                </mask>
                <path fill="#808F91" d="M130.455 88.36c-11.38-2.973-21-7.816-28.346-12.444-2.183 1.35-4.231 2.896-6.12 4.617-1.445 1.316-2.798 2.73-4.043 4.24 7.204 5.82 20.71 15.045 38.509 19.696 17.6 4.603 28.684 2.996 34.308 1.292-.695-5.39-2.433-10.452-4.998-14.985-6.311.993-15.924 1.085-29.31-2.415" mask="url(#prefix__ab)"/>
            </g>
            <g>
                <mask id="prefix__ad" fill="#fff">
                    <use xlink:href="#prefix__ac"/>
                </mask>
                <path fill="#4B6084" d="M130.455 96.415c-14.601-3.816-26.311-10.709-34.025-16.276-.147.132-.295.26-.441.394-1.445 1.316-2.798 2.73-4.043 4.24 7.204 5.82 20.71 15.045 38.509 19.696 17.6 4.603 28.684 2.996 34.308 1.292-.337-2.611-.924-5.146-1.726-7.582-6.034 1.479-16.63 2.407-32.582-1.764" mask="url(#prefix__ad)"/>
            </g>
            <g>
                <mask id="prefix__af" fill="#fff">
                    <use xlink:href="#prefix__ae"/>
                </mask>
                <path fill="#A62873" d="M123.791 132.968c-2.519 0-4.563-2.044-4.563-4.564v-6.006c0-2.52 2.044-4.565 4.563-4.565 2.52 0 4.565 2.045 4.565 4.565v6.006c0 2.52-2.044 4.564-4.565 4.564" mask="url(#prefix__af)"/>
            </g>
            <g>
                <mask id="prefix__ah" fill="#fff">
                    <use xlink:href="#prefix__ag"/>
                </mask>
                <path fill="#A62873" d="M108.09 114.273c0 1.927-1.562 3.49-3.488 3.49-1.927 0-3.49-1.563-3.49-3.49 0-1.928 1.563-3.49 3.49-3.49 1.926 0 3.489 1.562 3.489 3.49" mask="url(#prefix__ah)"/>
            </g>
            <g>
                <mask id="prefix__aj" fill="#fff">
                    <use xlink:href="#prefix__ai"/>
                </mask>
                <path fill="#A62873" d="M146.471 114.273c0 1.927-1.562 3.49-3.49 3.49-1.925 0-3.488-1.563-3.488-3.49 0-1.928 1.563-3.49 3.489-3.49 1.927 0 3.49 1.562 3.49 3.49" mask="url(#prefix__aj)"/>
            </g>
            <g>
                <mask id="prefix__al" fill="#fff">
                    <use xlink:href="#prefix__ak"/>
                </mask>
                <path fill="#A62873" d="M123.791 145.19c-4.456 0-8.65-1.74-11.808-4.897-.415-.417-.415-1.09 0-1.505.417-.417 1.09-.417 1.506 0 2.754 2.756 6.413 4.272 10.302 4.272 3.89 0 7.55-1.516 10.304-4.272.415-.417 1.088-.417 1.504 0 .416.416.416 1.088 0 1.505-3.156 3.157-7.35 4.896-11.808 4.896" mask="url(#prefix__al)"/>
            </g>
            <g>
                <mask id="prefix__an" fill="#fff">
                    <use xlink:href="#prefix__am"/>
                </mask>
                <path fill="#EE599C" d="M123.791 260.36L123.772 260.382 123.779 260.405 123.793 260.361z" mask="url(#prefix__an)"/>
            </g>
            <g>
                <mask id="prefix__ap" fill="#fff">
                    <use xlink:href="#prefix__ao"/>
                </mask>
                <path fill="#D84479" d="M82.448 106.716h82.76l-.45-2.783c-.937-4.82-2.707-9.34-5.149-13.411H88.046c-2.888 4.805-4.833 10.243-5.58 16.053-.008.048-.015.093-.018.141" mask="url(#prefix__ap)"/>
            </g>
            <g>
                <mask id="prefix__ar" fill="#fff">
                    <use xlink:href="#prefix__aq"/>
                </mask>
                <path fill="#67B0D0" d="M87.743 106.716h72.169l-.39-2.783c-.82-4.82-2.362-9.34-4.492-13.411H92.625c-2.518 4.805-4.215 10.243-4.867 16.053-.006.048-.012.093-.015.141" mask="url(#prefix__ar)"/>
            </g>
        </g>
        <path fill="#1C789D" d="M303.189 255.95c-.753 1.446-1.53 2.875-2.34 4.285-4.576 7.98-10.026 15.407-16.211 22.15-.42.46-.844.914-1.273 1.364-2.373 2.498-4.841 4.895-7.41 7.185-.582.525-1.172 1.035-1.763 1.546-.095.09-.195.175-.29.256-.035.029-.068.06-.105.089-2.593 2.215-5.284 4.325-8.063 6.31-2.31 1.68-4.694 3.27-7.129 4.778-5.613 3.482-11.522 6.523-17.693 9.073-1.578.662-3.179 1.287-4.8 1.878-.27.103-.552.203-.828.303h-.004c-3.098 1.106-6.243 2.095-9.445 2.965-3.38.914-6.815 1.69-10.308 2.323-.714.128-1.435.255-2.154.373-2.139.346-4.298.64-6.471.87-3.55.393-7.143.63-10.78.715-.428.014-.857.02-1.29.023-.186 0-.367.005-.553.005h-.005c-.105 0-.21.003-.313.003-.051 0-.103 0-.154-.003-.195.006-.39.006-.586.006-.357 0-.72 0-1.072-.006-.18 0-.363-.005-.538-.005-.439-.004-.873-.009-1.312-.023h-.004c-3.626-.084-7.21-.322-10.755-.714-2.173-.231-4.331-.525-6.477-.875-.757-.118-1.51-.25-2.263-.387-3.43-.625-6.804-1.387-10.13-2.285-3.221-.871-6.39-1.868-9.502-2.985-.282-.1-.567-.204-.844-.307-1.62-.592-3.222-1.216-4.803-1.874-6.161-2.555-12.075-5.6-17.684-9.073-2.436-1.509-4.813-3.098-7.129-4.772-2.816-2.02-5.542-4.159-8.168-6.405-.057-.043-.105-.094-.161-.142-.625-.534-1.24-1.073-1.854-1.623-2.55-2.27-5.003-4.65-7.353-7.132-.463-.488-.924-.98-1.377-1.476-6.19-6.726-11.637-14.153-16.202-22.128-.81-1.41-1.587-2.839-2.34-4.285-8.778-16.863-13.739-36.008-13.739-56.294 0-67.818 55.387-122.798 123.707-122.798 68.319 0 123.705 54.98 123.705 122.798 0 20.286-4.96 39.43-13.737 56.294m14.264-108.394c-6.791-15.94-16.513-30.252-28.892-42.54-12.379-12.287-26.798-21.937-42.854-28.68-16.63-6.982-34.29-10.521-52.486-10.521-18.198 0-35.856 3.54-52.486 10.522-16.057 6.742-30.475 16.392-42.855 28.68-12.378 12.287-22.099 26.6-28.891 42.539-7.033 16.507-10.6 34.036-10.6 52.1 0 10.84 1.312 21.63 3.9 32.069 2.514 10.143 6.242 20 11.08 29.294.86 1.655 1.698 3.19 2.56 4.69 4.941 8.63 10.878 16.74 17.636 24.087.438.48.903.977 1.507 1.614 2.537 2.682 5.24 5.305 8.023 7.783.662.59 1.29 1.14 1.91 1.672.108.099.236.21.386.334 2.823 2.41 5.78 4.729 8.794 6.889 2.485 1.796 5.096 3.544 7.76 5.193 6.164 3.817 12.652 7.145 19.288 9.896 1.696.706 3.447 1.389 5.197 2.029.32.12.65.239.977.355 3.402 1.22 6.88 2.312 10.34 3.247 3.62.978 7.337 1.816 11.048 2.491.67.122 1.559.28 2.506.43 2.346.382 4.71.702 7.03.95 3.816.42 7.743.682 11.673.775.546.017 1.067.022 1.488.026l.059.001h.06l.113.001c.113.002.227.003.34.003.381.005.772.005 1.157.005.199 0 .398 0 .598-.003l.142.003c.087 0 .176-.003.266-.004h.056c.139 0 .28-.002.42-.004h.182l.068-.002c.42-.004.94-.01 1.482-.027 3.935-.093 7.862-.354 11.673-.774 2.302-.246 4.675-.566 7.051-.95l.015-.002.017-.002c.79-.13 1.573-.27 2.307-.401l.015-.002.015-.003c3.767-.684 7.545-1.534 11.228-2.53 2.83-.769 5.653-1.633 8.423-2.578h.051l1.841-.66.134-.047c.273-.1.55-.198.82-.3 1.78-.65 3.524-1.334 5.185-2.031 6.645-2.747 13.136-6.075 19.29-9.894 2.712-1.68 5.326-3.432 7.77-5.207 2.959-2.115 5.876-4.397 8.675-6.782.104-.086.195-.164.272-.232.123-.106.26-.224.41-.36.577-.498 1.173-1.015 1.79-1.571 2.745-2.449 5.45-5.073 8.042-7.8.468-.49.945-1.002 1.417-1.519 6.759-7.37 12.699-15.486 17.643-24.111.855-1.488 1.694-3.023 2.557-4.68 4.835-9.292 8.563-19.149 11.078-29.292 2.587-10.44 3.9-21.23 3.9-32.07 0-18.063-3.567-35.592-10.601-52.1"/>
        <path fill="#67B0D0" d="M279.488 280.132c-2.27 2.39-4.633 4.684-7.09 6.876-.558.503-1.123.992-1.688 1.48-.091.085-.188.167-.279.245-.032.027-.063.058-.1.086-2.481 2.119-5.057 4.137-7.716 6.038-2.211 1.608-4.492 3.128-6.822 4.573-5.373 3.331-11.027 6.241-16.933 8.682-1.509.633-3.041 1.23-4.592 1.797-.26.1-.528.194-.793.289h-.004c-2.965 1.06-5.976 2.006-9.04 2.839-3.232.874-6.52 1.616-9.864 2.222-.684.122-1.372.244-2.06.358-2.047.33-4.114.611-6.194.833-3.397.376-6.835.602-10.315.685-.41.012-.821.016-1.236.021-.178 0-.35.004-.529.004h-.005l-.3.003c-.05 0-.097 0-.146-.003-.187.006-.375.006-.561.006-.341 0-.688 0-1.026-.006-.173 0-.347-.004-.515-.004-.42-.005-.835-.009-1.254-.021h-.005c-3.471-.083-6.9-.31-10.292-.685-2.08-.222-4.146-.502-6.199-.838-.725-.113-1.445-.24-2.165-.372-3.284-.596-6.513-1.325-9.695-2.185-3.083-.833-6.116-1.788-9.094-2.857-.269-.095-.543-.194-.808-.294-1.55-.566-3.082-1.163-4.596-1.792-5.897-2.445-11.555-5.36-16.923-8.682-2.33-1.445-4.606-2.965-6.823-4.567-2.694-1.935-5.303-3.98-7.816-6.13-.054-.04-.1-.09-.155-.136-.597-.511-1.186-1.027-1.774-1.552-2.44-2.174-4.789-4.45-7.037-6.827-.442-.466-.883-.937-1.317-1.413-5.924-6.436-11.137-13.543-15.505-21.176-.776-1.348-1.518-2.716-2.24-4.101-8.399-16.137-13.146-34.458-13.146-53.873 0-64.9 53.004-117.515 118.385-117.515s118.386 52.615 118.386 117.515c0 19.415-4.748 37.736-13.148 53.873-.72 1.385-1.464 2.753-2.238 4.101-4.38 7.638-9.597 14.744-15.515 21.2-.401.438-.808.873-1.218 1.303m4.285 3.995c.43-.45.856-.907 1.277-1.368 6.214-6.775 11.69-14.234 16.285-22.25.813-1.416 1.594-2.85 2.35-4.305 8.818-16.94 13.8-36.169 13.8-56.549 0-68.123-55.636-123.35-124.264-123.35-68.628 0-124.265 55.227-124.265 123.35 0 20.38 4.984 39.61 13.8 56.549.757 1.454 1.536 2.89 2.35 4.305 4.586 8.01 10.058 15.47 16.276 22.228.454.498.919.993 1.383 1.482 2.36 2.493 4.825 4.885 7.386 7.165.617.55 1.236 1.093 1.862 1.629.058.048.106.1.163.143 2.638 2.258 5.375 4.405 8.204 6.434 2.327 1.682 4.716 3.279 7.162 4.794 5.634 3.488 11.574 6.547 17.764 9.114 1.589.66 3.197 1.288 4.825 1.881.277.105.565.21.847.309 3.125 1.121 6.31 2.124 9.543 2.999 3.342.903 6.732 1.667 10.178 2.294.757.138 1.512.271 2.274.39 2.154.351 4.322.645 6.505.88 3.561.394 7.16.63 10.803.716h.006c.44.015.876.02 1.315.025.178 0 .36.004.542.004.355.005.718.005 1.077.005.195 0 .393 0 .588-.005.052.002.104.002.154.002l.316-.002h.004c.187 0 .37-.004.555-.004.436-.005.867-.01 1.297-.025 3.653-.086 7.263-.322 10.829-.717 2.182-.234 4.35-.528 6.5-.875.723-.118 1.445-.246 2.164-.375 3.508-.636 6.96-1.415 10.354-2.333 3.216-.874 6.376-1.867 9.487-2.98h.004c.278-.099.56-.198.834-.303 1.627-.594 3.236-1.222 4.82-1.886 6.198-2.562 12.135-5.617 17.773-9.114 2.446-1.515 4.84-3.112 7.161-4.799 2.791-1.996 5.496-4.115 8.1-6.339.038-.028.071-.061.105-.09.096-.08.196-.166.291-.256.595-.514 1.188-1.026 1.772-1.554 2.58-2.3 5.06-4.71 7.444-7.219"/>
        <path fill="#FFF" d="M193.22 76.305c68.401 0 123.888 54.863 124.257 122.673.003-.378.009-.754.009-1.133 0-68.123-55.636-123.35-124.265-123.35-68.628 0-124.265 55.227-124.265 123.35 0 .379.005.755.009 1.133.37-67.81 55.856-122.673 124.256-122.673"/>
        <g transform="translate(252.37 108.74)">
            <mask id="prefix__at" fill="#fff">
                <use xlink:href="#prefix__as"/>
            </mask>
            <path fill="#1C789D" d="M138.79 68.533c0 37.804-30.874 68.449-68.957 68.449S.877 106.337.877 68.532C.877 30.73 31.75.084 69.833.084s68.957 30.646 68.957 68.45" mask="url(#prefix__at)"/>
        </g>
        <path fill="#F8F6DE" d="M382.094 177.272c0 32.834-26.815 59.452-59.892 59.452s-59.892-26.618-59.892-59.452c0-32.833 26.815-59.45 59.892-59.45s59.892 26.617 59.892 59.45"/>
        <path fill="#1C789D" d="M137.912 177.272c0 37.804-30.873 68.45-68.956 68.45S0 215.075 0 177.271c0-37.803 30.873-68.449 68.956-68.449s68.956 30.646 68.956 68.45"/>
        <path fill="#F8F6DE" d="M128.848 177.272c0 32.834-26.815 59.452-59.892 59.452-33.078 0-59.892-26.618-59.892-59.452 0-32.833 26.814-59.45 59.892-59.45 33.077 0 59.892 26.617 59.892 59.45"/>
        <g transform="translate(124.116)">
            <mask id="prefix__av" fill="#fff">
                <use xlink:href="#prefix__au"/>
            </mask>
            <path fill="#1C789D" d="M138.061 68.89c0 37.804-30.874 68.45-68.957 68.45S.15 106.694.15 68.89 31.02.44 69.104.44s68.957 30.646 68.957 68.45" mask="url(#prefix__av)"/>
        </g>
        <path fill="#F8F6DE" d="M253.112 68.89c0 32.834-26.814 59.451-59.891 59.451-33.078 0-59.892-26.617-59.892-59.45 0-32.835 26.814-59.452 59.892-59.452 33.077 0 59.891 26.617 59.891 59.452"/>
        <path fill="#FDDC85" d="M285.315 140.72c4.847-1.899 11.532-3.34 19.244-4.07l-.001 9.779c-7.71.73-14.398 2.17-19.244 4.069v-9.779"/>
        <path fill="#C6C6C6" d="M303.34 145.32c-2.516.266-4.916.605-7.183 1.012v-7.297c2.256-.416 4.658-.764 7.182-1.03v7.316zm-16.804 3.429v-7.187c2.113-.776 4.53-1.456 7.18-2.033v7.28c-2.62.553-5.034 1.2-7.18 1.94zm17.909-13.314c-7.753.733-14.522 2.166-19.575 4.145l-.775.305v12.406l1.665-.654c2.291-.901 4.976-1.679 7.955-2.328v3.384h2.442v-3.876c2.653-.49 5.5-.885 8.518-1.172l1.103-.104v-12.233l-1.333.127z"/>
        <path fill="#FDDC85" d="M346.966 140.72c-4.847-1.899-11.533-3.34-19.242-4.07v9.779c7.71.73 14.397 2.17 19.243 4.069l-.001-9.779"/>
        <path fill="#C6C6C6" d="M345.747 148.748c-2.147-.74-4.563-1.386-7.18-1.94v-7.279c2.647.577 5.064 1.257 7.18 2.033v7.186zm-16.804-3.428v-7.316c2.523.268 4.926.616 7.181 1.03v7.297c-2.268-.407-4.667-.745-7.18-1.01zm18.469-5.74c-5.053-1.98-11.821-3.411-19.574-4.145l-1.336-.127v12.233l1.105.104c3.018.287 5.865.683 8.517 1.172v3.877h2.442v-3.385c2.98.649 5.663 1.428 7.955 2.328l1.666.654v-12.407l-.775-.304zM277.088 162.214v29.823c0 5.52 12.298 10.162 28.985 11.52v-14.254l1.307.093c5.706.402 11.82.402 17.524 0l1.306-.093.002 14.253c16.688-1.357 28.987-5.998 28.987-11.52v-29.822h-78.111z"/>
        <path fill="#E2E2E2" d="M355.199 172.483c-.027.006.148.328.045.992-.094.662-.42 1.627-1.208 2.602-1.532 1.996-4.562 3.938-8.388 5.485-3.83 1.576-8.497 2.798-13.55 3.618-2.53.394-5.151.761-7.83.937-2.678.193-5.401.302-8.127.325-2.689-.023-5.469-.132-8.123-.325-2.679-.176-5.302-.543-7.832-.937-5.052-.82-9.72-2.042-13.55-3.618-3.824-1.547-6.855-3.49-8.388-5.485-.786-.973-1.116-1.947-1.206-2.596-.103-.653.071-1.002.045-.998.024-.006.092.34.316.906.205.568.698 1.312 1.532 2.05 1.665 1.496 4.704 2.804 8.476 3.849 3.79 1.029 8.342 1.798 13.253 2.322 2.457.28 5.011.418 7.602.577 2.615.144 5.2.202 7.875.18 2.641.024 5.284-.036 7.877-.18 2.592-.16 5.145-.297 7.6-.577 4.913-.524 9.467-1.293 13.255-2.322 3.772-1.045 6.813-2.353 8.478-3.85.833-.734 1.327-1.488 1.528-2.043.226-.553.296-.929.32-.912"/>
        <path fill="#E2E2E2" d="M355.199 182.26c-.027.006.148.328.045.992-.094.662-.42 1.626-1.208 2.602-1.532 1.998-4.562 3.937-8.388 5.486-3.83 1.576-8.497 2.797-13.55 3.619-2.53.39-5.151.759-7.83.934-2.678.196-5.401.302-8.127.326-2.689-.024-5.469-.13-8.123-.326-2.679-.175-5.302-.544-7.832-.934-5.052-.822-9.72-2.043-13.55-3.619-3.824-1.549-6.855-3.488-8.388-5.486-.786-.974-1.116-1.947-1.206-2.594-.103-.655.071-1.003.045-1 .024-.006.092.342.316.906.205.569.698 1.312 1.532 2.05 1.665 1.495 4.704 2.804 8.476 3.848 3.79 1.03 8.342 1.8 13.253 2.323 2.457.28 5.011.418 7.602.578 2.615.144 5.2.2 7.875.18 2.641.022 5.284-.036 7.877-.18 2.592-.16 5.145-.297 7.6-.578 4.913-.523 9.467-1.292 13.255-2.323 3.772-1.044 6.813-2.353 8.478-3.848.833-.734 1.327-1.487 1.528-2.042.226-.555.296-.93.32-.914"/>
        <path fill="#7A8E9B" d="M323.77 203.73l-.001-11.811c-4.997.298-10.255.298-15.254 0v11.811c2.468.148 5.017.228 7.627.228 2.611 0 5.16-.08 7.629-.228"/>
        <path fill="#525C6B" d="M324.904 189.396c-5.704.402-11.819.402-17.523 0l-1.307-.093v14.253c.802.064 1.617.124 2.44.174V191.92c5 .298 10.258.298 15.254 0l.002 11.811c.825-.05 1.637-.11 2.442-.174l-.002-14.253-1.306.093z"/>
        <path fill="#3DAA9D" d="M316.142 166.01c-11.71 0-21.201 2.899-21.201 6.473 0 .08.028.158.039.238 6.1 1.204 13.36 1.905 21.162 1.905 7.803 0 15.064-.7 21.164-1.905.009-.08.039-.158.039-.238 0-3.574-9.493-6.473-21.203-6.473"/>
        <path fill="#FFBD66" d="M328.945 151.443l-3.505 15.231c2.664.398 5.02.956 6.91 1.64l13.302-13.412c-4.437-1.563-10.177-2.768-16.707-3.46M316.142 150.785c-3.584 0-7.053.15-10.35.426l3.486 15.154c2.155-.227 4.458-.355 6.864-.355 2.407 0 4.709.128 6.865.355l3.487-15.154c-3.3-.276-6.766-.426-10.352-.426M286.633 154.901l13.3 13.414c1.893-.685 4.248-1.243 6.91-1.64l-3.504-15.233c-6.53.692-12.271 1.897-16.706 3.46M277.088 162.704c0 4.203 7.13 7.895 17.892 10.017-.011-.08-.04-.157-.04-.239 0-1.127.947-2.186 2.604-3.109l-13.39-13.503c-4.448 1.936-7.066 4.29-7.066 6.834M348.13 155.868l-13.39 13.506c1.658.922 2.605 1.982 2.605 3.109 0 .08-.03.158-.04.238 10.761-2.121 17.894-5.814 17.894-10.017 0-2.543-2.62-4.898-7.069-6.836"/>
        <path fill="#FDDC85" d="M303.34 151.443l3.504 15.231c.787-.118 1.596-.222 2.434-.31l-3.486-15.153c-.83.069-1.647.147-2.453.232M323.007 166.365c.837.087 1.649.192 2.434.31l3.504-15.232c-.807-.085-1.622-.163-2.451-.232l-3.487 15.154zM284.153 155.87l13.391 13.504c.68-.376 1.486-.73 2.39-1.059l-13.302-13.414c-.879.31-1.706.633-2.479.97M345.653 154.901l-13.302 13.414c.906.329 1.708.682 2.389 1.059l13.39-13.505c-.773-.336-1.6-.658-2.477-.968"/>
        <path fill="#E2E2E2" d="M353.351 165.659c-1.665 1.496-4.706 2.806-8.478 3.852-3.788 1.028-8.342 1.798-13.254 2.323-2.456.279-5.008.415-7.601.577-2.593.143-5.236.202-7.877.18-2.675.022-5.26-.037-7.875-.18-2.59-.162-5.144-.298-7.6-.577-4.913-.525-9.466-1.295-13.255-2.323-3.771-1.046-6.811-2.356-8.477-3.852-.833-.737-1.325-1.479-1.531-2.048-.222-.56-.244-1.267-.062-1.832.164-.578.606-1.388 1.414-2.196 1.603-1.663 4.653-3.136 8.427-4.353 3.79-1.232 8.391-2.087 13.34-2.729 4.95-.634 10.296-.938 15.614-.903 2.692-.016 5.327.05 7.958.201 2.62.15 5.192.387 7.668.702 4.95.642 9.55 1.497 13.339 2.73 3.777 1.216 6.827 2.689 8.43 4.352.808.81 1.249 1.615 1.414 2.199.182.576.155 1.289-.065 1.835-.202.555-.696 1.308-1.529 2.042m1.829-3.938c-.13-.628-.513-1.543-1.324-2.442-1.595-1.831-4.615-3.609-8.436-4.984-3.83-1.372-8.45-2.51-13.465-3.213-2.51-.355-5.114-.625-7.764-.81-2.64-.187-5.369-.287-8.042-.303-5.41.032-10.798.404-15.819 1.113-5.016.704-9.637 1.841-13.466 3.213-3.821 1.375-6.84 3.153-8.436 4.984-.812.9-1.193 1.809-1.325 2.449-.14.64-.164 1.323-.061 1.977.09.647.42 1.623 1.206 2.595 1.533 1.997 4.564 3.938 8.388 5.485 3.83 1.576 8.498 2.797 13.551 3.62 2.53.39 5.152.76 7.831.935 2.654.192 5.434.3 8.123.322 2.726-.021 5.45-.13 8.127-.322 2.679-.175 5.3-.545 7.83-.936 5.053-.822 9.72-2.043 13.55-3.62 3.826-1.546 6.856-3.487 8.388-5.484.788-.976 1.114-1.94 1.208-2.602.103-.665.079-1.342-.064-1.977"/>
        <path fill="#7A8E9B" d="M193.05 33.326V31.94c.315-.28.515-.686.515-1.14 0-.844-.686-1.53-1.532-1.53s-1.53.686-1.53 1.53c0 .454.199.86.511 1.14v1.385c-2.75-.245-4.709-1.437-4.709-2.524 0-1.213 2.45-2.573 5.728-2.573 3.279 0 5.728 1.36 5.728 2.573 0 1.087-1.959 2.28-4.71 2.524m6.746-2.524c0-2.586-3.41-4.613-7.764-4.613s-7.764 2.027-7.764 4.613c0 2.382 2.892 4.283 6.745 4.572v3.547c0 .564.456 1.021 1.02 1.021.563 0 1.017-.457 1.017-1.02v-3.548c3.856-.289 6.746-2.19 6.746-4.572"/>
        <path fill="#C6C6C6" d="M210.914 36.87l-.06-.04c-1.243-.828-2.922-.49-3.749.755l-4.199 6.325c-.826 1.244-.489 2.925.755 3.754l.06.039c1.242.826 2.921.489 3.748-.757l4.199-6.324c.827-1.244.489-2.924-.754-3.753M176.96 37.585c-.826-1.244-2.504-1.582-3.748-.755l-.06.04c-1.243.827-1.58 2.507-.754 3.753l4.2 6.323c.827 1.245 2.505 1.583 3.748.757l.06-.04c1.242-.827 1.58-2.508.755-3.753l-4.2-6.325z"/>
        <path fill="#E2E2E2" d="M192.033 38.921c-14.527 0-26.304 11.793-26.304 26.34 0 14.545 11.777 26.337 26.304 26.337 14.529 0 26.306-11.792 26.306-26.338 0-14.546-11.777-26.339-26.306-26.339"/>
        <path fill="#525C6B" d="M192.033 40.45c-13.662 0-24.777 11.131-24.777 24.81 0 13.68 11.115 24.809 24.777 24.809 13.663 0 24.777-11.13 24.777-24.81 0-13.678-11.114-24.808-24.777-24.808m0 52.675c-15.347 0-27.831-12.5-27.831-27.866 0-15.367 12.484-27.868 27.83-27.868 15.349 0 27.834 12.501 27.834 27.868 0 15.366-12.485 27.866-27.833 27.866"/>
        <path fill="#7A8E9B" d="M184.082 47.471c.162 0 .335-.04.488-.102.651-.274.955-1.018.681-1.67-.263-.643-1.017-.95-1.659-.684-.651.275-.956 1.019-.682 1.671.203.491.673.785 1.172.785M176.568 78.994c-.5.489-.5 1.305 0 1.802v-.008c.253.254.58.376.894.376.337 0 .663-.122.906-.376.5-.5.5-1.305 0-1.806-.497-.487-1.303-.487-1.8.012M184.651 83.183c-.651-.266-1.395.04-1.67.694-.265.651.041 1.397.693 1.66.162.072.326.102.489.102.499 0 .967-.305 1.17-.794.275-.652-.04-1.397-.682-1.662M172.463 58.573c.163.071.327.102.49.102.499 0 .967-.296 1.17-.794.275-.653-.041-1.398-.692-1.662-.652-.266-1.394.04-1.66.694-.264.65.04 1.396.692 1.66M191.971 45.881c.705-.01 1.272-.582 1.272-1.285-.009-.704-.578-1.275-1.281-1.263-.701 0-1.273.57-1.263 1.275 0 .702.57 1.273 1.272 1.273M172.494 72.02c-.651.275-.958 1.018-.692 1.672.213.489.682.784 1.181.784.163 0 .325-.028.489-.102.651-.263.956-1.018.681-1.662-.264-.652-1.007-.956-1.659-.692M177.402 51.967c.335 0 .663-.133.906-.377.499-.5.499-1.304 0-1.804-.498-.502-1.303-.49-1.802.01-.5.498-.5 1.304 0 1.794.255.255.58.377.896.377M172.678 65.301c0-.702-.581-1.273-1.283-1.273-.703 0-1.263.571-1.263 1.273 0 .706.57 1.273 1.274 1.273.701 0 1.272-.567 1.272-1.273M211.073 58.553c.162 0 .325-.03.489-.103.64-.274.946-1.018.681-1.66-.275-.654-1.019-.96-1.668-.684-.642.266-.958 1.02-.684 1.662.205.49.684.785 1.182.785M211.593 71.98c-.654-.266-1.397.04-1.672.692-.264.652.042 1.398.694 1.661.163.074.324.103.487.103.5 0 .97-.295 1.171-.785.275-.654-.04-1.396-.68-1.672M212.661 63.895c-.703.01-1.272.582-1.272 1.284V65.26c0 .704.569 1.273 1.272 1.273.704 0 1.272-.57 1.272-1.273v-.092c0-.702-.568-1.274-1.272-1.274M205.728 78.963c-.5.488-.5 1.294 0 1.792.254.257.58.38.906.38.325 0 .65-.123.895-.38.5-.498.5-1.304 0-1.792-.499-.499-1.303-.499-1.8 0M192.053 84.641c-.702 0-1.272.57-1.272 1.274 0 .703.57 1.276 1.272 1.276.704 0 1.272-.573 1.272-1.276 0-.703-.568-1.274-1.272-1.274M199.384 47.319c.152.07.317.101.479.101.497 0 .976-.305 1.18-.794.264-.655-.04-1.398-.692-1.663-.65-.265-1.394.041-1.659.694-.276.652.04 1.397.692 1.662M206.573 51.876c.324 0 .651-.123.895-.377.499-.5.499-1.305 0-1.805-.509-.5-1.312-.49-1.802.009-.499.501-.499 1.306.01 1.806.244.244.572.367.897.367M199.456 83.162c-.652.276-.958 1.02-.682 1.672.202.489.67.786 1.17.786.163 0 .327-.031.488-.103.653-.265.957-1.01.693-1.66-.274-.654-1.018-.96-1.67-.695"/>
        <path fill="#DB5743" d="M192.033 49.354s-3.085 13.692-3.085 15.399c0 1.707 1.382 3.09 3.085 3.09s3.086-1.383 3.086-3.09c0-1.707-3.086-15.399-3.086-15.399"/>
        <mask id="prefix__ax" fill="#fff">
            <use xlink:href="#prefix__aw"/>
        </mask>
        <path fill="#DB5743" d="M153.176 66.279L160.051 66.279 160.051 64.24 153.176 64.24zM154.207 58.016L161.083 58.016 161.083 55.978 154.207 55.978zM157.302 49.751L164.178 49.751 164.178 47.712 157.302 47.712zM154.207 74.544L161.083 74.544 161.083 72.505 154.207 72.505zM157.303 82.807L164.179 82.807 164.179 80.768 157.303 80.768z" mask="url(#prefix__ax)"/>
        <path fill="#F87670" d="M192.033 61.693c-1.966 0-3.563 1.598-3.563 3.566 0 1.971 1.597 3.57 3.563 3.57 1.968 0 3.563-1.599 3.563-3.57 0-1.968-1.595-3.566-3.563-3.566" mask="url(#prefix__ax)"/>
        <path fill="#59C5EF" d="M231.078 107.921L221.351 102.241 211.624 107.921 211.624 90.601 231.078 90.601z" mask="url(#prefix__ax)"/>
        <path fill="#2BA0BF" d="M217.297 90.601L217.297 104.608 221.351 102.24 225.403 104.608 225.403 90.601z" mask="url(#prefix__ax)"/>
        <path fill="#FFBD66" d="M239.47 75.615l-3.892-3.897c-.334-.336-.522-.79-.522-1.264v-5.51c0-.988-.8-1.789-1.785-1.789h-5.504c-.473 0-.928-.188-1.263-.523l-3.89-3.896c-.699-.699-1.828-.699-2.526 0l-3.89 3.896c-.336.335-.79.523-1.265.523h-5.502c-.986 0-1.785.8-1.785 1.789v5.51c0 .474-.188.928-.524 1.264l-3.89 3.897c-.698.698-.698 1.83 0 2.527l3.89 3.897c.336.335.524.79.524 1.264v5.51c0 .987.8 1.788 1.785 1.788h5.502c.474 0 .93.188 1.264.524l3.891 3.895c.698.698 1.827.698 2.525 0l3.891-3.895c.335-.336.79-.524 1.263-.524h5.504c.985 0 1.785-.801 1.785-1.788v-5.51c0-.474.188-.929.522-1.264l3.892-3.897c.697-.697.697-1.83 0-2.527" mask="url(#prefix__ax)"/>
        <path fill="#FDDC85" d="M221.35 67.946c-4.918 0-8.92 4.007-8.92 8.932 0 4.927 4.002 8.932 8.92 8.932 4.92 0 8.922-4.005 8.922-8.932 0-4.925-4.002-8.932-8.921-8.932m0 20.971c-6.63 0-12.024-5.4-12.024-12.039 0-6.638 5.394-12.039 12.024-12.039 6.63 0 12.023 5.4 12.023 12.04 0 6.637-5.393 12.038-12.023 12.038" mask="url(#prefix__ax)"/>
        <path fill="#DB5743" d="M222.32 80.98L222.32 70.835 218.635 70.835 218.635 72.777 220.381 72.777 220.381 80.98 218.635 80.98 218.635 82.922 224.065 82.922 224.065 80.98z" mask="url(#prefix__ax)"/>
        <path fill="#3DAA9D" d="M362.337 211.309c-11.713-5.954-30.667-5.954-42.38 0l21.19 11.06 21.19-11.06z" mask="url(#prefix__ax)"/>
        <path fill="#C6C6C6" d="M341.147 220.064l-10.984-5c6.956-2.23 15.012-2.23 21.97 0l-10.986 5zm22.198-10.102l-8.58 3.904c-8.437-3.293-18.798-3.293-27.237 0l-8.58-3.904-2.017 1.01 24.216 16.164 24.217-16.163-2.019-1.011z" mask="url(#prefix__ax)"/>
        <path fill="#7A8E9B" d="M341.147 224.18c-.558 0-1.01-.453-1.01-1.011v-43.064c0-.558.452-1.01 1.01-1.01.557 0 1.01.452 1.01 1.01v43.064c0 .558-.453 1.01-1.01 1.01" mask="url(#prefix__ax)"/>
        <path fill="#F87670" d="M341.147 190.21c-2.51 1.01-6.572 1.01-9.081 0-2.51-1.011-6.572-1.011-9.081 0v-10.104c2.509-1.01 6.571-1.01 9.08 0 2.51 1.01 6.573 1.01 9.082 0v10.103z" mask="url(#prefix__ax)"/>
        <path fill="#79CCB8" d="M47.341 205.489L36.789 205.49 35.963 215.087 47.341 215.087 58.718 215.087 57.895 205.49z" mask="url(#prefix__ax)"/>
        <path fill="#3DAA9D" d="M54.452 165.377L40.231 165.377 39.767 170.793 54.916 170.793zM40.075 185.21h6.688l2.975-3.667c-.753-.169-1.557-.27-2.398-.27-3.615 0-6.627 1.7-7.265 3.936" mask="url(#prefix__ax)"/>
        <path fill="#3DAA9D" d="M56.009 165.377l.453 5.284.145 1.686H38.076l.145-1.686.452-5.284h-6.845l-3.714 19.832H38.28c.602-3.21 4.431-5.696 9.06-5.696 1.283 0 2.5.197 3.606.54l11.908-14.676h-6.845zM42.93 189.931l2.405-2.962h-5.26c.345 1.211 1.4 2.25 2.856 2.962M38.28 186.97H27.785l-5.266 28.116 19.288-23.77c-1.882-1.034-3.195-2.58-3.525-4.347" mask="url(#prefix__ax)"/>
        <path fill="#79CCB8" d="M49.738 181.543l-2.975 3.666h7.844c-.49-1.716-2.384-3.108-4.87-3.666M56.403 185.21h10.166l-3.715-19.833-11.907 14.676c2.892.898 5.02 2.834 5.456 5.156M54.607 186.97h-9.272l-2.404 2.96c1.233.605 2.751.975 4.41.975 3.615 0 6.628-1.699 7.266-3.936" mask="url(#prefix__ax)"/>
        <path fill="#79CCB8" d="M66.899 186.97H56.404c-.603 3.21-4.432 5.695-9.063 5.695-2.081 0-3.997-.504-5.535-1.35l-19.288 23.771h11.37l.015-.176.825-9.597.162-1.894h1.898l10.553-.001h12.453l.162 1.895.824 9.597.015.176h11.37l-5.266-28.117z" mask="url(#prefix__ax)"/>
        <path fill="#C6C6C6" d="M56.009 165.377L54.451 165.377 54.916 170.793 39.766 170.793 40.231 165.377 38.673 165.377 38.075 172.347 56.607 172.347zM38.28 185.21H28.115l-.33 1.759h10.497c.33 1.768 1.643 3.313 3.525 4.346l1.125-1.383c-1.456-.712-2.512-1.753-2.856-2.963h5.26l1.428-1.76h-6.688c.638-2.236 3.651-3.936 7.266-3.936.84 0 1.645.101 2.396.27l1.21-1.49c-1.107-.344-2.323-.54-3.606-.54-4.63 0-8.459 2.485-9.06 5.696" mask="url(#prefix__ax)"/>
        <path fill="#E2E2E2" d="M59.794 203.419L34.89 203.419 33.903 214.911 33.888 215.087 35.963 215.087 36.789 205.49 57.895 205.49 58.718 215.087 60.795 215.087 60.779 214.911zM56.403 186.97h10.495l-.329-1.76H56.403c-.435-2.322-2.564-4.26-5.456-5.157l-1.209 1.49c2.485.559 4.38 1.95 4.87 3.667h-7.845l-1.428 1.76h9.272c-.639 2.236-3.652 3.935-7.267 3.935-1.658 0-3.176-.37-4.409-.974l-1.124 1.385c1.537.845 3.453 1.349 5.533 1.349 4.632 0 8.46-2.485 9.063-5.696" mask="url(#prefix__ax)"/>
        <path fill="#59C5EF" d="M63.893 157.964c-2.4 0-4.346-1.947-4.346-4.349 0-5.624 4.552-10.182 10.169-10.182h12.231c1.53 0 2.637-1.513 2.118-2.955-3.594-9.968-13.464-16.932-24.838-16.095-11.65.857-21.203 10.096-22.45 21.726-.452 4.223.182 8.25 1.64 11.855 3.627 8.967 12.402 15.297 22.658 15.297h3.055c4.452 0 8.046-3.866 7.6-8.41-.386-3.954-3.869-6.887-7.837-6.887" mask="url(#prefix__ax)"/>
        <path fill="#525C6B" d="M76.803 164.945l-2.31-10.708h5.264c2.819 2.952 4.017 6.902 3.564 10.708h-6.518zm3.273 7.227c-.185.206-.466.324-.773.324-.505 0-.948-.36-1.056-.853l-1.115-5.168h5.922c-.494 2.055-1.48 4.018-2.978 5.697zm-12.703-7.227c-6.412 0-11.762-4.62-12.92-10.708H72.93l2.31 10.708h-7.867zm0-26.353h2.18l3.047 14.116H54.26c-.021-.313-.047-.622-.047-.94 0-7.265 5.903-13.176 13.16-13.176zm13.265 14.34c-.069-.072-.154-.128-.248-.166-.093-.04-.192-.058-.292-.058h-5.935l-3.046-14.116h8.754c.422 0 .763-.342.763-.766 0-.421-.341-.764-.763-.764H67.373c-8.098 0-14.687 6.598-14.687 14.706 0 .573.043 1.134.106 1.689l-.003.015c0 .033.015.06.02.092.833 6.817 6.336 12.206 13.203 12.841.095.044.2.07.31.07h9.248l1.185 5.49c.257 1.193 1.329 2.06 2.548 2.06.742 0 1.438-.303 1.911-.834 5.203-5.828 4.95-14.727-.576-20.26z" mask="url(#prefix__ax)"/>
        <path fill="#C6C6C6" d="M60.595 165.71c0-1.9 1.539-3.442 3.437-3.442s3.437 1.541 3.437 3.442c0 1.9-1.54 3.44-3.437 3.44-1.898 0-3.437-1.54-3.437-3.44" mask="url(#prefix__ax)"/>
        <path fill="#3DAA9D" d="M67.577 189.105L74.617 196.154 75.86 194.91 68.819 187.861zM110.52 187.861L103.48 194.91 104.723 196.154 111.762 189.105z" mask="url(#prefix__ax)"/>
        <path fill="#FDDC85" d="M64.846 191.839L71.887 198.888 74.617 196.154 67.578 189.105zM111.762 189.105L104.722 196.154 107.452 198.887 114.493 191.839z" mask="url(#prefix__ax)"/>
        <path fill="#FDDC85" d="M104.378 181.711c-1.492-1.492-3.467-2.384-5.555-2.535-.211-.016-.421-.032-.634-.032H81.15c-.213 0-.424.016-.635.032-2.089.152-4.063 1.043-5.554 2.535l-6.142 6.15 7.04 7.049.172-.172c.551-.552 1.493-.16 1.493.62v25.763h24.289v-25.763c0-.78.943-1.172 1.494-.62l.172.172 7.04-7.05-6.142-6.149z" mask="url(#prefix__ax)"/>
        <path fill="#FFBD66" d="M96.392 180.02c0 2.3-6.723 4.164-6.723 4.164s-6.723-1.864-6.723-4.164c0-2.299 3.01-2.409 6.723-2.409s6.723.11 6.723 2.41" mask="url(#prefix__ax)"/>
        <path fill="#3DAA9D" d="M89.67 178.388c-4.03 0-5.948.243-5.948 1.633 0 .996 3.037 2.516 5.947 3.355 2.91-.839 5.948-2.359 5.948-3.355 0-1.39-1.918-1.633-5.948-1.633m0 6.573c-.069 0-.14-.01-.207-.03-1.71-.474-7.291-2.229-7.291-4.91 0-3.187 3.984-3.187 7.498-3.187 3.515 0 7.499 0 7.499 3.187 0 2.681-5.581 4.436-7.292 4.91-.067.02-.137.03-.207.03M89.86 207.558c-1.493 0-2.708-1.216-2.708-2.71 0-1.495 1.215-2.71 2.708-2.71 1.492 0 2.706 1.215 2.706 2.71 0 1.494-1.214 2.71-2.706 2.71m-2.26-9.44c0-1.248 1.015-2.263 2.26-2.263 1.245 0 2.26 1.015 2.26 2.262 0 1.246-1.015 2.26-2.26 2.26-1.245 0-2.26-1.014-2.26-2.26m4.816 3.076c.883-.738 1.46-1.836 1.46-3.076 0-2.218-1.801-4.022-4.016-4.022s-4.017 1.804-4.017 4.022c0 1.24.576 2.338 1.46 3.076-1.15.81-1.907 2.144-1.907 3.656 0 2.465 2.002 4.47 4.464 4.47 2.46 0 4.463-2.005 4.463-4.47 0-1.512-.757-2.846-1.907-3.656M92.45 217.858L98.656 217.858 98.656 216.098 92.45 216.098z" mask="url(#prefix__ax)"/>
        <path fill="#79CCB8" d="M99.018 187.721h-4.654v2.33c0 .64.262 1.224.683 1.646l3.971-3.976z" mask="url(#prefix__ax)"/>
        <path fill="#3DAA9D" d="M95.047 191.697c.422.422 1.004.685 1.644.685 1.28 0 2.328-1.05 2.328-2.33v-2.33l-3.972 3.975z" mask="url(#prefix__ax)"/>
        <path fill="#D0D2D3" d="M323.137 378H63.305c-6.295 0-11.397-5.109-11.397-11.412v-22.493c0-6.303 5.102-11.413 11.397-11.413h259.832c6.294 0 11.397 5.11 11.397 11.413v22.493c0 6.303-5.103 11.412-11.397 11.412" mask="url(#prefix__ax)"/>
        <path fill="#FFF" d="M323.137 374.26H63.305c-6.295 0-11.397-5.11-11.397-11.412v-22.493c0-6.303 5.102-11.413 11.397-11.413h259.832c6.294 0 11.397 5.11 11.397 11.413v22.493c0 6.302-5.103 11.412-11.397 11.412" mask="url(#prefix__ax)"/>
        <path fill="#FFF" d="M244.285 328.943L233.374 339.868 222.462 328.943 233.374 318.017z" mask="url(#prefix__ax)"/>
        <path fill="#0E6DA0" fill-rule="nonzero" d="M109.846 352.56v-7.632h-2.76v-1.56h-2.088v1.56h-1.296v-1.56h-2.112v1.56h-2.76v7.632h11.016zm-19.368 12.888c.84-1.248 1.344-2.832 1.512-4.704l.384 1.32c.888-.264 1.728-.552 2.496-.84v1.488c0 .432-.216.672-.648.672-.432 0-.936-.048-1.464-.096l.552 2.016h1.56c1.392 0 2.088-.624 2.088-1.848v-8.976h1.08v-4.08h-.816v-6.408h-7.416v6.408h-.888v4.152h1.104v5.112c-.024 1.728-.432 3.168-1.2 4.272l1.656 1.512zm2.16-15.048h-.792v-4.536h3.36v1.368h-2.568v3.168zm9.432-2.352h-1.344v-1.32h1.344v1.32zm2.928 0h-1.296v-1.32h1.296v1.32zm2.976 0h-1.392v-1.32h1.392v1.32zM95.206 350.4h-.96v-1.488h.96v1.488zm12.768.48h-1.392v-1.296h1.392v1.296zm-2.976 0h-1.296v-1.296h1.296v1.296zm-2.928 0h-1.344v-1.296h1.344v1.296zm-6.072 2.736h-5.04v-1.392h5.04v1.392zm14.376 1.752v-1.92h-12.12v1.92h12.12zm-18.336 4.8l.024-.648v-1.272c.624.168 1.272.384 1.92.648l.648-1.632c-.84-.288-1.704-.528-2.568-.696v-1.128h2.808v3.84c-.864.312-1.824.6-2.832.888zm18.504 4.68v-2.088h-3.048l.408-1.512h1.416v-4.992h-10.08v4.992h1.368l.456 1.512H97.75v2.088h12.792zm-3.36-5.424h-5.808v-1.416h5.808v1.416zm-1.872 3.336h-2.04l-.456-1.512h2.904l-.408 1.512zm26.812-9.888l2.112-1.464c-1.056-1.104-2.496-2.4-4.368-3.888h4.728v-2.352h-11.16c.288-.384.624-.816.96-1.248l-2.568-.768c-.504.72-1.008 1.392-1.488 2.016h-7.584v2.352h5.424c-1.2 1.128-2.424 1.92-3.624 2.352l.456 2.064c4.896-.192 10.056-.432 15.504-.768.576.576 1.128 1.152 1.608 1.704zm-13.344-3.048c.864-.648 1.728-1.416 2.616-2.304h6.744l-.984.624c.456.384.888.744 1.32 1.128-2.136.144-5.376.336-9.696.552zm-3 15.864c1.272-1.464 2.112-3.264 2.52-5.4l.504 1.968c3.456-.36 6.768-.768 9.888-1.248v1.176c0 .72-.312 1.08-.912 1.08-.768 0-1.584-.048-2.496-.096l.624 2.28h2.592c1.776 0 2.688-.792 2.688-2.376v-10.44H116.09v5.04c-.048 2.544-.792 4.608-2.232 6.24l1.92 1.776zm2.592-5.784c.096-.696.168-1.416.192-2.184 1.2.048 2.376.144 3.504.24 1.584.144 3.144.336 4.632.552l.84-1.944c-1.68-.192-3.096-.36-4.224-.456-1.008-.096-2.592-.192-4.752-.336v-.912h10.128v4.056c-3.336.432-6.768.768-10.32.984zm28.636 5.592v-1.128h7.872v1.128h2.472v-10.2h-5.232v-2.856h6.624v-2.4h-6.624v-3.288c2.16-.312 4.056-.768 5.688-1.344l-1.248-2.112c-3.576 1.128-7.944 1.704-13.128 1.704l.768 2.256c1.896 0 3.696-.072 5.376-.216v3h-6.576v2.4h6.576v2.856h-5.04v10.2h2.472zm-5.568-17.184l1.704-1.68c-1.128-1.056-2.496-2.112-4.08-3.144l-1.704 1.608c1.776 1.152 3.12 2.232 4.08 3.216zm-.528 6.144l1.728-1.728c-1.104-1.176-2.496-2.352-4.128-3.528l-1.752 1.704c1.776 1.272 3.168 2.448 4.152 3.552zm-1.248 10.752c1.2-2.688 2.28-5.568 3.264-8.616l-2.28-.912c-.984 2.88-2.16 5.688-3.504 8.424l2.52 1.104zm15.216-3.192h-7.872v-4.368h7.872v4.368zm18.292 3.408c2.808-3.096 4.248-7.992 4.32-14.688v-.792h2.376c-.048 6.624-.12 10.488-.264 11.592-.144 1.032-.576 1.56-1.344 1.56-.72 0-1.56-.048-2.52-.096l.6 2.184c1.104.072 1.872.12 2.304.12 1.92 0 3-.888 3.24-2.64.216-1.896.336-6.888.336-15h-4.728v-4.296h-2.328v4.296h-2.088v2.28h2.088v.792c-.048 5.52-1.104 9.648-3.192 12.408v-1.056c-1.248.144-2.616.288-4.056.432v-1.32h4.08v-2.016h-4.08v-1.152h4.176v-7.752h-4.176v-1.008h4.512v-2.064h-4.512v-1.248c1.632-.168 3.096-.408 4.392-.744l-1.104-1.872c-2.784.624-6.168.96-10.2.96l.672 1.944c1.344 0 2.64-.048 3.888-.096v1.056h-4.632v2.064h4.632v1.008h-4.152v7.752h4.152v1.152h-4.056v2.016h4.056v1.512c-1.536.096-3.144.192-4.872.288l.312 2.208c4.032-.24 7.656-.552 10.824-.936l1.344 1.152zm-7.464-12.096h-2.04v-1.272h2.04v1.272zm4.128 0h-2.064v-1.272h2.064v1.272zm0 2.88h-2.064v-1.248h2.064v1.248zm-4.128 0h-2.04v-1.248h2.04v1.248zm31.852 1.392l1.68-1.392c-.672-.936-1.416-1.8-2.184-2.592-.912-.936-1.872-1.776-2.928-2.496l-1.464 1.344c1.008.792 1.92 1.632 2.784 2.544.768.816 1.464 1.68 2.112 2.592zm16.876-9.984v-4.272h-2.352v1.032h-3.072v2.112h3.072v1.128h2.352zm3.744 0v-1.128h2.76v-2.112h-2.76v-1.032h-2.352v4.272h2.352zm3.408 17.976c2.088-1.608 3.216-4.2 3.384-7.8h.864v5.376c0 1.272.816 1.92 2.472 1.92h.504c.984-.096 1.608-.384 1.872-.888.288-.528.456-1.992.456-4.392l-1.752-.672c0 1.2-.048 2.136-.096 2.832-.048.648-.24 1.008-.576 1.056h-.312c-.24-.048-.36-.144-.36-.312v-4.92h1.728v-13.704h-8.208v13.704h1.248c-.144 2.64-.912 4.56-2.28 5.76v-.672h-3.144v-1.08h3.024v-1.752h-3.024v-1.104h3.024v-1.728h-3.024v-1.128h3.624v-1.824h-3.672c-.144-.528-.288-1.032-.432-1.464l-2.256.36c.168.336.312.72.456 1.104h-1.968c.12-.288.24-.6.336-.912l-1.536-.72h2.712v-4.56h-4.968v4.56h1.896c-.624 1.824-1.56 3.432-2.808 4.8l.72 2.304c.384-.384.744-.792 1.08-1.2v6.984h2.184v-.672h7.776v-.936l1.056 1.68zm5.976-17.64h-3.816v-1.896h3.816v1.896zm-7.056 4.68v-4.56h-4.968v4.56h4.968zm-7.752-1.464h-1.176v-1.656h1.176v1.656zm5.832 0h-1.152v-1.656h1.152v1.656zm8.976.696h-3.816v-2.04h3.816v2.04zm0 3.96h-3.816v-2.088h3.816v2.088zm-12.384 1.392h-2.424v-1.128h2.424v1.128zm0 2.832h-2.424v-1.104h2.424v1.104zm0 2.832h-2.424v-1.08h2.424v1.08zm39.316-12.312v-4.896h-3.672c.288-.552.528-1.152.72-1.776l-2.544-.336c-.192.72-.504 1.416-.912 2.112h-2.688v-2.4h-2.496v2.4h-2.784c-.288-.768-.6-1.488-.888-2.112l-2.592.408c.336.528.648 1.08.936 1.704h-3.768v4.8h2.544v-2.784h15.6v2.88h2.544zm-3.672 2.016v-4.152h-13.344v4.152h13.344zm-2.424-1.656h-8.496v-.84h8.496v.84zm4.848 14.784l1.344-2.04c-1.848-.576-3.864-1.056-6.048-1.488h3.624v-8.904h-16.032v8.904h4.056c-1.632.528-3.888.984-6.792 1.344l1.176 2.04c3.264-.48 5.76-1.128 7.512-1.896l-1.128-1.488h5.904l-1.056 1.584c2.568.456 5.04 1.104 7.44 1.944zm-3.528-9.84h-11.136v-.816h11.136v.816zm0 2.304h-11.136v-.744h11.136v.744zm0 2.352h-11.136v-.792h11.136v.792zm27.052 5.16l1.32-1.632c-1.68-.528-3.696-1.008-6.024-1.464h3.504v-6.336c.816.36 1.704.696 2.712 1.032l.936-1.896c-2.208-.504-3.96-1.152-5.208-1.944h4.728v-1.728h-6.456v-.864h3.456v-1.416h-3.456v-.864h3.936V348h1.92v-3.576h-8.808c-.192-.48-.408-.936-.6-1.344l-2.424.384c.192.288.384.624.576.96h-8.52V348h1.92v.576h3.912v.864h-3.432v1.416h3.432v.864h-6.408v1.728h4.872c-1.272.864-3.072 1.584-5.424 2.184l1.176 1.92c.936-.336 1.8-.696 2.592-1.08v6.12h3.456c-1.584.504-3.672.936-6.216 1.272l1.056 1.824c3.192-.528 5.64-1.176 7.368-1.968l-.864-1.128h4.824l-.936 1.152c2.88.576 5.232 1.224 7.08 1.944zm-.912-18.648h-3.576v-.936h3.576v.936zm-5.928 0h-3.384v-.936h3.384v.936zm-5.736 0h-3.552v-.936h3.552v.936zm5.736 2.4h-3.384v-.864h3.384v.864zm0 2.28h-3.384v-.864h3.384v.864zm2.352 2.568h-7.944c.288-.264.552-.552.84-.84h6.192c.264.288.576.552.912.84zm.984 2.328h-9.96v-.936h9.96v.936zm0 2.184h-9.96v-.912h9.96v.912zm0 2.232h-9.96v-.96h9.96v.96zm17.836 4.368c1.656 0 2.496-.768 2.496-2.304v-1.104h7.416v-3.144h2.352v-1.992h-2.352v-3.12h-7.416v-1.104h7.104v-5.04h-7.104v-1.08h9.12V344.4h-9.12v-1.176h-2.496v1.176h-9.12v2.112h9.12v1.08h-7.104v5.04h7.104v1.104h-7.584v1.92h7.584v1.2h-9.768v1.992h9.768v1.176h-7.608v1.968h7.608v.504c0 .48-.288.72-.84.72-.84 0-1.728-.072-2.64-.168l.528 2.352h2.952zm7.104-14.592h-4.608v-1.368h4.608v1.368zm-7.104 0h-4.608v-1.368h4.608v1.368zm7.536 6.048h-5.04v-1.2h5.04v1.2zm0 3.168h-5.04v-1.176h5.04v1.176z"/>
    </g>
</svg>
