<?xml version="1.0" encoding="UTF-8"?>
<svg width="579px" height="368px" viewBox="0 0 579 368" version="1.1" xmlns="http://www.w3.org/2000/svg" xmlns:xlink="http://www.w3.org/1999/xlink">
    <!-- Generator: Sketch 61.1 (89650) - https://sketch.com -->
    <title>Group 18 outline</title>
    <desc>Created with Sketch.</desc>
    <defs>
        <polygon id="path-1" points="0.0730043478 0.81727656 117.067452 0.81727656 117.067452 36.6419439 0.0730043478 36.6419439"></polygon>
        <polygon id="path-3" points="0.0730043478 0.81727656 117.067452 0.81727656 117.067452 36.6419439 0.0730043478 36.6419439"></polygon>
        <polygon id="path-5" points="0.560502647 0.81727656 59.058 0.81727656 59.058 36.6419439 0.560502647 36.6419439"></polygon>
        <polygon id="path-7" points="0 367.758034 578.95403 367.758034 578.95403 0.420294896 0 0.420294896"></polygon>
        <linearGradient x1="50.0006266%" y1="28.7335863%" x2="50.0006266%" y2="95.7236259%" id="linearGradient-9">
            <stop stop-color="#CC6757" offset="0%"></stop>
            <stop stop-color="#CC6757" offset="100%"></stop>
        </linearGradient>
        <path d="M0.0186068053,0.180595463 L0.0186068053,12.5672552 L0.0197013233,12.5672552 C0.931434783,14.445448 2.85778639,15.7391682 5.08513043,15.7391682 L5.08513043,15.7391682 C7.313569,15.7391682 9.23882609,14.445448 10.1516541,12.5672552 L10.1516541,12.5672552 C11.064482,14.445448 12.9897391,15.7391682 15.2170832,15.7391682 L15.2170832,15.7391682 C17.4455217,15.7391682 19.3718733,14.445448 20.2825123,12.5672552 L20.2825123,12.5672552 C21.1964348,14.445448 23.1205974,15.7391682 25.3501304,15.7391682 L25.3501304,15.7391682 C27.5774745,15.7391682 29.5027316,14.445448 30.4155595,12.5672552 L30.4155595,12.5672552 C31.327293,14.445448 33.2536446,15.7391682 35.4809887,15.7391682 L35.4809887,15.7391682 C37.7094272,15.7391682 39.6357788,14.445448 40.5475123,12.5672552 L40.5475123,12.5672552 C41.4592457,14.445448 43.3855974,15.7391682 45.6129414,15.7391682 L45.6129414,15.7391682 C47.84138,15.7391682 49.7655425,14.4465425 50.6783705,12.5694442 L50.6783705,12.5694442 L50.6783705,0.180595463 L0.0186068053,0.180595463 Z" id="path-10"></path>
        <linearGradient x1="76.9958097%" y1="46.3105481%" x2="-28.1824282%" y2="58.8489026%" id="linearGradient-12">
            <stop stop-color="#F2EDD1" offset="0%"></stop>
            <stop stop-color="#C6C19A" offset="100%"></stop>
        </linearGradient>
        <linearGradient x1="50.0011963%" y1="87.6420237%" x2="50.0011963%" y2="14.4215463%" id="linearGradient-13">
            <stop stop-color="#D89044" offset="0%"></stop>
            <stop stop-color="#D89044" offset="100%"></stop>
        </linearGradient>
        <linearGradient x1="49.9996186%" y1="85.2887521%" x2="49.9996186%" y2="41.4031048%" id="linearGradient-14">
            <stop stop-color="#F2EDD1" offset="0%"></stop>
            <stop stop-color="#E2DDC1" offset="100%"></stop>
        </linearGradient>
        <path d="M5.39268998,0.800092628 C3.92603592,1.52028544 -0.329449905,5.53826087 0.615119093,7.45476181 L0.615119093,7.45476181 C1.55749905,9.37126276 7.34202647,8.46062382 8.80758601,7.740431 L8.80758601,7.740431 C10.2731456,7.02023819 10.3705577,5.04463327 9.42598866,3.12813233 L9.42598866,3.12813233 C8.67843289,1.60784688 7.50073157,0.581189036 6.3142741,0.581189036 L6.3142741,0.581189036 C6.00452552,0.581189036 5.69477694,0.651238185 5.39268998,0.800092628" id="path-15"></path>
        <linearGradient x1="50.0003502%" y1="-2.87659997%" x2="50.0003502%" y2="131.861084%" id="linearGradient-17">
            <stop stop-color="#F2EDD1" offset="0%"></stop>
            <stop stop-color="#C6C19A" offset="100%"></stop>
        </linearGradient>
        <path d="M1.22367108,3.12813233 C0.281291115,5.04463327 0.376514178,7.02023819 1.84316824,7.740431 L1.84316824,7.740431 C3.30872779,8.46062382 9.0932552,9.37235728 10.0356352,7.45476181 L10.0356352,7.45476181 C10.9791096,5.53826087 6.72362382,1.52028544 5.25806427,0.800092628 L5.25806427,0.800092628 C4.9548828,0.651238185 4.64513422,0.581189036 4.33648015,0.581189036 L4.33648015,0.581189036 C3.14892817,0.581189036 1.97122684,1.60784688 1.22367108,3.12813233" id="path-18"></path>
        <linearGradient x1="49.9990407%" y1="-2.87643835%" x2="49.9990407%" y2="131.853779%" id="linearGradient-20">
            <stop stop-color="#F2EDD1" offset="0%"></stop>
            <stop stop-color="#C6C19A" offset="100%"></stop>
        </linearGradient>
        <linearGradient x1="49.9992002%" y1="77.2137079%" x2="49.9992002%" y2="30.9450894%" id="linearGradient-21">
            <stop stop-color="#5B4459" offset="0%"></stop>
            <stop stop-color="#3D2F3B" offset="100%"></stop>
        </linearGradient>
        <path d="M0.917206049,11.4935331 L0.917206049,15.9525992 L22.0961285,15.9525992 L22.0961285,11.4935331 C22.0961285,5.66741399 17.3316919,0.901882798 11.5077618,0.901882798 L11.5077618,0.901882798 C5.68273724,0.901882798 0.917206049,5.66741399 0.917206049,11.4935331" id="path-22"></path>
        <linearGradient x1="49.9996873%" y1="33.5078983%" x2="49.9996873%" y2="108.673108%" id="linearGradient-24">
            <stop stop-color="#F4C167" offset="0%"></stop>
            <stop stop-color="#D89044" offset="100%"></stop>
        </linearGradient>
        <path d="M0.124775047,11.4935331 L0.124775047,15.9525992 L21.3047921,15.9525992 L21.3047921,11.4935331 C21.3047921,5.66741399 16.5403554,0.901882798 10.7164253,0.901882798 L10.7164253,0.901882798 C4.89030624,0.901882798 0.124775047,5.66741399 0.124775047,11.4935331" id="path-25"></path>
        <linearGradient x1="50.0000258%" y1="33.5078983%" x2="50.0000258%" y2="108.673108%" id="linearGradient-27">
            <stop stop-color="#F4C167" offset="0%"></stop>
            <stop stop-color="#D89044" offset="100%"></stop>
        </linearGradient>
        <path d="M0.426862004,11.4935331 L0.426862004,15.9525992 L21.6079735,15.9525992 L21.6079735,11.4935331 C21.6079735,5.66741399 16.8435369,0.901882798 11.0185123,0.901882798 L11.0185123,0.901882798 C5.19348771,0.901882798 0.426862004,5.66741399 0.426862004,11.4935331" id="path-28"></path>
        <linearGradient x1="50.0033609%" y1="33.5078983%" x2="50.0033609%" y2="108.673108%" id="linearGradient-30">
            <stop stop-color="#F4C167" offset="0%"></stop>
            <stop stop-color="#D89044" offset="100%"></stop>
        </linearGradient>
        <path d="M13.9977902,5.97935161 C10.4143384,5.97935161 7.31137996,3.91618526 5.81079584,0.913922495 L5.81079584,0.913922495 C4.75239698,3.0350983 2.89171645,4.6867259 0.62715879,5.47477883 L0.62715879,5.47477883 C3.46086578,9.86051229 8.38948015,12.7631739 13.9999792,12.7631739 L13.9999792,12.7631739 C19.6071947,12.7631739 24.5358091,9.86051229 27.3706106,5.47477883 L27.3706106,5.47477883 C25.1038639,4.6867259 23.2442779,3.0350983 22.1847845,0.913922495 L22.1847845,0.913922495 C20.6852949,3.91618526 17.5823365,5.97935161 13.9977902,5.97935161" id="path-31"></path>
        <linearGradient x1="49.9991606%" y1="-77.099952%" x2="49.9991606%" y2="241.423782%" id="linearGradient-33">
            <stop stop-color="#BF423B" offset="0%"></stop>
            <stop stop-color="#BF423B" offset="100%"></stop>
        </linearGradient>
        <path d="M19.381724,5.97935161 C15.7971777,5.97935161 12.6953138,3.91618526 11.1958242,0.913922495 L11.1958242,0.913922495 C9.69633459,3.91618526 6.59228166,5.97935161 3.00882987,5.97935161 L3.00882987,5.97935161 C2.18903592,5.97935161 1.3955104,5.87099433 0.641387524,5.66850851 L0.641387524,5.66850851 C2.59948015,18.680138 9.84847259,29.9569565 20.1259962,37.2420681 L20.1259962,37.2420681 C15.8343913,44.9080718 13.2655577,53.6685936 12.9448639,62.9993592 L12.9448639,62.9993592 C14.1915198,62.4827467 15.5520057,62.1948885 16.9803516,62.1948885 L16.9803516,62.1948885 C22.8042817,62.1948885 27.5687183,66.9604197 27.5687183,72.7865388 L27.5687183,72.7865388 L27.5687183,0.913922495 C26.0692287,3.91618526 22.9662703,5.97935161 19.381724,5.97935161" id="path-34"></path>
        <linearGradient x1="50.0015856%" y1="-1.31369186%" x2="50.0015856%" y2="83.9144735%" id="linearGradient-36">
            <stop stop-color="#BF423B" offset="0%"></stop>
            <stop stop-color="#BF423B" offset="100%"></stop>
        </linearGradient>
        <path d="M8.61385633,5.97935161 C5.02931002,5.97935161 1.92635161,3.91618526 0.426862004,0.913922495 L0.426862004,0.913922495 L0.426862004,72.7744991 C0.434523629,66.9549471 5.19677127,62.1948885 11.0185123,62.1948885 L11.0185123,62.1948885 C12.4435747,62.1948885 13.8062495,62.4827467 15.0507164,62.9993592 L15.0507164,62.9993592 C14.7300227,53.6685936 12.1633781,44.9080718 7.87286767,37.2420681 L7.87286767,37.2420681 C18.1492968,29.9569565 25.3971947,18.680138 27.3552873,5.66850851 L27.3552873,5.66850851 C26.6000699,5.87099433 25.8076389,5.97935161 24.9867505,5.97935161 L24.9867505,5.97935161 C21.4032987,5.97935161 18.3003403,3.91618526 16.8008507,0.913922495 L16.8008507,0.913922495 C15.3002665,3.91618526 12.1984026,5.97935161 8.61385633,5.97935161" id="path-37"></path>
        <linearGradient x1="50.0006113%" y1="-1.31372614%" x2="50.0006113%" y2="83.9148089%" id="linearGradient-39">
            <stop stop-color="#BF423B" offset="0%"></stop>
            <stop stop-color="#BF423B" offset="100%"></stop>
        </linearGradient>
        <path d="M0.434523629,0.421389414 L0.426862004,7.48103025 C1.92635161,10.483293 5.02931002,12.5464594 8.61385633,12.5464594 L8.61385633,12.5464594 C12.1994972,12.5464594 15.3002665,10.483293 16.8008507,7.48103025 L16.8008507,7.48103025 C18.3003403,10.483293 21.4032987,12.5464594 24.9867505,12.5464594 L24.9867505,12.5464594 C28.5723913,12.5464594 31.6731607,10.483293 33.1737448,7.48103025 L33.1737448,7.48103025 C34.6743289,10.483293 37.7772873,12.5464594 41.3607391,12.5464594 L41.3607391,12.5464594 C44.9452854,12.5464594 48.0482439,10.483293 49.5477335,7.48103025 L49.5477335,7.48103025 C51.0472231,10.483293 54.1501815,12.5464594 57.7347278,12.5464594 L57.7347278,12.5464594 C61.3192741,12.5464594 64.421138,10.483293 65.9217221,7.48103025 L65.9217221,7.48103025 C67.4212117,10.483293 70.5230756,12.5464594 74.1076219,12.5464594 L74.1076219,12.5464594 C77.6921682,12.5464594 80.7951267,10.483293 82.2946163,7.48103025 L82.2946163,7.48103025 L82.2957108,0.424672968 L0.434523629,0.421389414 Z" id="path-40"></path>
        <linearGradient x1="0.000631559245%" y1="49.9954179%" x2="100.000871%" y2="49.9954179%" id="linearGradient-42">
            <stop stop-color="#F4C167" offset="0%"></stop>
            <stop stop-color="#D89044" offset="100%"></stop>
        </linearGradient>
        <path d="M17.5122873,6.30989603 C16.2196616,3.02743667 13.0291418,0.701586011 9.2880794,0.701586011 L9.2880794,0.701586011 C4.40324575,0.701586011 0.444374291,4.66045747 0.444374291,9.5441966 L0.444374291,9.5441966 C0.444374291,13.7832647 3.4313138,17.3240302 7.41535917,18.1832268 L7.41535917,18.1832268 L7.41535917,37.8725104 L27.9113025,37.8725104 L27.9113025,18.1055161 C31.7399263,17.1335841 34.5769168,13.6738129 34.5769168,9.5441966 L34.5769168,9.5441966 C34.5769168,4.66045747 30.6180454,0.701586011 25.7343062,0.701586011 L25.7343062,0.701586011 C21.9943384,0.701586011 18.802724,3.02743667 17.5122873,6.30989603" id="path-43"></path>
        <linearGradient x1="37.3929012%" y1="12.2051182%" x2="88.5266318%" y2="125.263407%" id="linearGradient-45">
            <stop stop-color="#F2EDD1" offset="0%"></stop>
            <stop stop-color="#C6C19A" offset="100%"></stop>
        </linearGradient>
        <polygon id="path-46" points="0 367.758034 578.95403 367.758034 578.95403 0.420294896 0 0.420294896"></polygon>
        <path d="M0.676412098,63.5422401 C0.676412098,98.6149735 28.7628374,127.05055 63.3988582,127.05055 L63.3988582,127.05055 C98.0447297,127.05055 126.126777,98.6149735 126.126777,63.5422401 L126.126777,63.5422401 C126.126777,28.4629395 98.0447297,0.0295519849 63.3988582,0.0295519849 L63.3988582,0.0295519849 C28.7584594,0.0295519849 0.676412098,28.4629395 0.676412098,63.5422401 L0.676412098,63.5422401 Z" id="path-48"></path>
        <path d="M0.593228733,0.727854442 C0.593228733,24.7328223 20.0417183,44.1900681 44.0346465,44.1900681 L44.0346465,44.1900681 L44.0346465,0.727854442 L0.593228733,0.727854442 Z" id="path-50"></path>
        <path d="M0.593228733,44.2644953 L44.0346465,44.2644953 L44.0346465,0.802281664 C20.0417183,0.802281664 0.593228733,20.2606219 0.593228733,44.2644953 L0.593228733,44.2644953 Z" id="path-52"></path>
        <path d="M0.679695652,44.2644953 L44.1200189,44.2644953 C44.1200189,20.2606219 24.6715293,0.802281664 0.679695652,0.802281664 L0.679695652,0.802281664 L0.679695652,44.2644953 Z" id="path-54"></path>
        <path d="M0.679695652,0.735516068 L0.679695652,44.1977297 C24.6715293,44.1977297 44.1200189,24.7382949 44.1200189,0.735516068 L44.1200189,0.735516068 L0.679695652,0.735516068 Z" id="path-56"></path>
    </defs>
    <g id="懶人包" stroke="none" stroke-width="1" fill="none" fill-rule="evenodd">
        <g id="小資振興_懶人包_3000振興" transform="translate(-1020.000000, -2598.000000)">
            <g id="Group-18-outline" transform="translate(1020.000000, 2597.000000)">
                <g id="Group-280">
                    <line x1="241.932687" y1="90.4904762" x2="241.932687" y2="162.833735" id="Stroke-1" stroke="#0E6DA0" stroke-width="1.798"></line>
                    <g id="Group-144" transform="translate(0.000000, 0.674223)">
                        <path d="M70.6929448,162.853984 C71.9614911,159.3767 75.8087217,157.563084 79.2892888,158.826158 C82.7775176,160.078286 84.5812832,163.927706 83.3225875,167.409367 C82.0737425,170.903069 78.2254174,172.698078 74.7492284,171.448139 C71.2566216,170.192727 69.4419108,166.347685 70.6929448,162.853984 L70.6929448,162.853984 Z M72.5963115,193.874812 L97.7746026,172.606139 L91.947389,140.175572 L19.3403512,114.025349 L0.000218903592,167.746479 L72.5963115,193.874812 Z" id="Fill-2" fill="#AFD7A6"></path>
                        <polygon id="Fill-4" fill="#FFFFFF" points="51.9259021 139.382812 56.1080552 140.889964 30.3682764 163.620912 26.202541 162.123612"></polygon>
                        <path d="M31.5639278,141.33992 C32.1648181,139.69267 32.8740658,137.713782 34.5716631,137.631693 C34.8715611,137.617464 35.1769316,137.664529 35.4866802,137.778358 C37.8136253,138.601436 36.8482605,141.320219 36.268166,142.944483 C35.6639921,144.635513 34.9405157,146.61878 33.2429183,146.699774 C32.9430204,146.712909 32.6277992,146.66475 32.3180507,146.547636 C31.7248219,146.334205 31.3034325,145.967542 31.0505989,145.443268 C30.5000563,144.271039 31.0659221,142.710256 31.5639278,141.33992 M30.5153796,148.702742 C35.1375289,150.369693 38.2601887,148.108419 39.771718,143.903281 C41.2930979,139.70471 40.3189769,135.971309 35.7044892,134.31202 C31.0724892,132.631935 27.9585856,134.899776 26.4415837,139.100536 C24.9267709,143.312241 25.8899467,147.030319 30.5153796,148.702742" id="Fill-6" fill="#FFFFFF"></path>
                        <path d="M46.4307652,160.117689 C47.0097652,158.51422 47.7212019,156.502496 49.4341225,156.42588 C49.7307369,156.409462 50.0448635,156.45981 50.3436669,156.571451 C50.9555025,156.794732 51.9438522,157.401095 51.8508181,159.060384 C51.7960922,159.952417 51.4425629,160.930916 51.1218692,161.790112 C50.529735,163.434078 49.800786,165.41625 48.0999051,165.503812 C47.8043853,165.511473 47.5088654,165.466598 47.1980223,165.353863 C46.6026045,165.14481 46.1691754,164.765012 45.9218144,164.235265 C45.3592321,163.043335 45.9502718,161.422354 46.4307652,160.117689 M46.2162397,168.5608 C50.8329164,170.216806 53.9654268,167.968666 55.4682,163.769001 C56.9884854,159.560579 56.0198371,155.830462 51.3900261,154.164606 C46.7799164,152.507505 43.6561622,154.762212 42.1347822,158.960783 C40.6166858,163.164827 41.5962794,166.898228 46.2162397,168.5608" id="Fill-8" fill="#FFFFFF"></path>
                        <path d="M78.6570953,166.366292 C78.6570953,166.366292 125.237591,186.944324 136.72784,165.220332 C148.219184,143.497434 130.003122,132.795237 122.107269,145.007868 C114.217984,157.23035 143.601413,189.076445 169.189054,181.318502 C199.466704,172.151914 229.286846,89.9514261 186.143137,93.5830367 C149.100271,96.7024129 155.306188,190.731356 245.263524,177.011574" id="Stroke-10" stroke="#747374" stroke-width="2.936" stroke-linecap="round" stroke-linejoin="round"></path>
                        <path d="M80.8803896,162.525847 C80.8803896,162.525847 93.2922233,168.497537 99.3208282,167.880229" id="Stroke-12" stroke="#747374" stroke-width="2.936" stroke-linecap="round" stroke-linejoin="round"></path>
                        <line x1="401.593305" y1="234.729774" x2="512.44499" y2="305.413744" id="Stroke-14" stroke="#0E6DA0" stroke-width="1.798"></line>
                        <path d="M436.49606,121.698357 C433.967724,123.114664 430.781582,122.217159 429.371843,119.699767 C427.950064,117.176904 428.847569,113.987478 431.367149,112.572267 C433.883446,111.154866 437.077249,112.052371 438.49465,114.575234 C439.908767,117.089342 439.013452,120.283146 436.49606,121.698357 M516.020452,96.568225 L494.211087,57.745673 C493.362835,56.2330491 491.456185,55.6967353 489.942467,56.5460813 L417.692242,97.122051 C416.718121,97.66931 416.108474,98.7003459 416.087678,99.8200378 L415.785407,125.528076 C415.773552,126.647767 416.351457,127.694127 417.315728,128.265465 L439.435936,141.383263 C440.398017,141.953507 441.60527,141.967735 442.572824,141.422665 L514.823049,100.841223 C516.331295,99.9929716 516.873081,98.0775652 516.020452,96.568225" id="Fill-16" fill="#596273"></path>
                        <path d="M453.761424,119.475172 C452.288203,120.307006 450.644237,120.725112 449.818971,120.719692 L448.593111,117.334295 C449.572704,117.333201 451.026224,116.908528 452.037559,116.339378 C453.706698,115.403566 454.064606,114.047458 453.387099,112.842394 C452.631882,111.49942 451.441046,111.30569 449.314398,111.168876 C445.929054,111.051762 443.879022,109.645307 442.934453,107.970694 C441.282825,105.018779 441.871676,101.444084 445.702489,99.2922612 C446.941483,98.5972423 448.274606,98.2809267 448.971814,98.3181403 L450.141853,101.737414 C449.438078,101.699106 448.473808,101.845772 447.458095,102.411637 C445.921392,103.271929 445.706867,104.620375 446.259598,105.605441 C446.876906,106.703242 447.745954,106.971399 450.397971,107.066622 C453.691375,107.16294 455.608971,108.532182 456.707867,110.47714 C458.600288,113.843878 457.349254,117.461259 453.761424,119.475172" id="Fill-18" fill="#FFFFFF"></path>
                        <polygon id="Fill-20" fill="#FFFFFF" points="482.691285 103.015702 474.39265 107.67397 464.030849 89.2138304 467.615395 87.2010119 476.276316 102.617297 480.986026 99.975131"></polygon>
                        <polygon id="Fill-22" fill="#FFFFFF" points="493.127733 97.154011 484.798451 101.828697 474.43665 83.3696518 482.456183 78.8646159 484.21179 81.9861811 479.776803 84.477304 482.158474 88.7196556 486.350478 86.3675365 488.027279 89.3555705 483.842937 91.7055006 486.632863 96.6921244 491.368843 94.0302567"></polygon>
                        <path d="M461.203928,105.858931 L459.719761,101.615485 C459.316979,100.435595 458.528926,98.3943187 458.026542,97.0546287 L458.11082,97.0042809 C458.954693,98.1174057 460.24513,99.8434605 461.064924,100.858079 L463.836243,104.382426 L461.203928,105.858931 Z M458.424947,92.3657138 L454.120207,94.7802204 L460.491396,115.480839 L463.963207,113.530408 L462.418843,108.850249 L465.736326,106.987379 L468.897294,110.762372 L472.369105,108.808657 L458.424947,92.3657138 Z" id="Fill-24" fill="#FFFFFF"></path>
                        <path d="M430.909093,117.437946 C430.909093,117.437946 419.261233,116.19129 415.786139,125.528623 C412.524475,134.263971 417.529706,158.347744 395.401836,169.100288" id="Stroke-26" stroke="#747374" stroke-width="2.279" stroke-linecap="round" stroke-linejoin="round"></path>
                        <path d="M175.089053,89.9263616 C177.113911,88.1368248 179.643342,85.9094807 179.643342,82.6653295 C179.643342,79.4222728 177.113911,77.1949287 175.089053,75.4075809 C174.34697,74.7563427 173.106881,73.6596357 172.932852,73.2885941 C172.885788,72.7511858 173.558917,71.1553786 173.958416,70.203148 C174.988357,67.7503333 176.270038,64.6999117 174.894229,61.8530705 C173.496529,58.9646376 170.289591,58.0660384 167.710907,57.3392784 C166.734597,57.0667435 165.110333,56.6125185 164.779788,56.334511 C164.511631,55.8726244 164.438298,54.1717435 164.383573,53.1516527 C164.25223,50.4843125 164.076013,47.163545 161.585985,45.1737113 C160.420323,44.241182 158.908794,43.7705393 157.098461,43.7705393 C155.788323,43.7705393 154.47928,43.9981991 153.211828,44.2192917 C152.220195,44.3900365 151.199009,44.572821 150.472249,44.572821 C150.219416,44.572821 150.086979,44.5367019 150.068372,44.5564032 C149.628376,44.2192917 148.855646,42.7865677 148.389382,41.9273711 C147.095661,39.5577397 145.494382,36.6167699 142.355304,35.9020497 C141.927348,35.8079212 141.491729,35.7564788 141.045166,35.7564788 C138.523397,35.7564788 136.378142,37.3030327 134.474775,38.6668021 C133.622145,39.2753541 132.197083,40.2987284 131.715495,40.367683 C131.167142,40.2987284 129.744268,39.2753541 128.893828,38.6668021 C126.990461,37.3030327 124.840828,35.7564788 122.319058,35.7564788 C121.875779,35.7564788 121.433593,35.8079212 121.00892,35.9020497 C117.869843,36.6167699 116.264185,39.5577397 114.982505,41.9273711 C114.500917,42.8029854 113.704108,44.2718285 113.369185,44.5268512 C113.369185,44.5268512 113.233465,44.5684429 112.883219,44.5684429 C112.160837,44.5684429 111.138557,44.388942 110.15568,44.2138191 C108.884945,43.99601 107.574807,43.7672558 106.265764,43.7672558 C104.452147,43.7672558 102.935145,44.238993 101.77824,45.1693333 C99.2827389,47.1558834 99.1196558,50.4821234 98.9839355,53.1516527 C98.9368713,54.1673654 98.8525934,55.8682463 98.6501076,56.2469495 C98.2538921,56.6048569 96.6285329,57.0612709 95.6576955,57.3327113 C93.0812002,58.0583767 89.8556558,58.956976 88.4645234,61.8443144 C87.0898089,64.6944391 88.374773,67.7448607 89.4058089,70.1954864 C89.8020244,71.1531896 90.477342,72.7468078 90.4543571,73.1835204 C90.268289,73.6596357 89.0095934,74.7563427 88.2784554,75.4075809 C86.2459355,77.1949287 83.7230716,79.4222728 83.7230716,82.6653295 C83.7230716,85.9094807 86.2459355,88.1324467 88.2784554,89.9219836 C89.0095934,90.5732217 90.268289,91.6655507 90.4313722,92.0398758 C90.477342,92.5783786 89.8020244,94.1774694 89.4058089,95.1297 C88.374773,97.5770422 87.0898089,100.629653 88.4721851,103.479778 C89.8556558,106.367116 93.0812002,107.26681 95.6576955,107.985908 C96.6285329,108.261726 98.2659318,108.71814 98.5844365,108.993959 C98.8525934,109.452562 98.9368713,111.154537 98.9839355,112.172439 C99.1196558,114.843063 99.2827389,118.162736 101.77824,120.153664 C102.935145,121.087288 104.452147,121.559025 106.265764,121.559025 C107.574807,121.559025 108.889323,121.325893 110.164436,121.108084 C111.150597,120.932961 112.160837,120.754554 112.883219,120.754554 C113.155754,120.754554 113.279435,120.776445 113.291474,120.768783 C113.730376,121.108084 114.507484,122.53643 114.982505,123.396721 C116.264185,125.76088 117.869843,128.707322 121.00892,129.419853 C121.433593,129.521643 121.875779,129.568708 122.319058,129.568708 C124.840828,129.568708 126.990461,128.025437 128.893828,126.659479 C129.744268,126.047643 131.167142,125.023174 131.649824,124.959692 C132.197083,125.023174 133.618862,126.047643 134.474775,126.659479 C136.378142,128.025437 138.523397,129.568708 141.045166,129.568708 C141.491729,129.568708 141.927348,129.521643 142.355304,129.419853 C145.494382,128.707322 147.095661,125.76088 148.389382,123.396721 C148.863308,122.516728 149.664495,121.050074 150.001607,120.795052 C150.001607,120.795052 150.129665,120.754554 150.472249,120.754554 C151.199009,120.754554 152.220195,120.931866 153.204166,121.103706 C154.470523,121.325893 155.788323,121.559025 157.098461,121.559025 C158.908794,121.559025 160.420323,121.087288 161.585985,120.153664 C164.069446,118.162736 164.244569,114.843063 164.375911,112.172439 C164.430637,111.154537 164.508348,109.452562 164.710833,109.073859 C165.102671,108.71814 166.726936,108.261726 167.702151,107.989191 C170.289591,107.268999 173.496529,106.367116 174.894229,103.484156 C176.262376,100.632936 174.988357,97.5814202 173.958416,95.1297 C173.558917,94.1774694 172.885788,92.5783786 172.897828,92.1449495 C173.106881,91.6688342 174.34697,90.5765053 175.089053,89.9263616" id="Fill-28" fill="#C6642F"></path>
                        <path d="M119.494217,96.3353115 L115.424799,96.3353115 L111.932192,87.6437444 C111.150707,85.7075422 110.12186,82.7829902 109.581168,80.7471868 L109.511119,80.7471868 C109.651217,83.0555251 109.821962,86.5908181 109.821962,91.2074949 L109.821962,96.3353115 L105.90906,96.3353115 L105.90906,73.4456575 L109.992707,73.4456575 L113.521433,82.4119486 C114.240531,84.1795951 115.327387,87.1326045 115.968775,89.1049259 L116.03554,89.1049259 C115.903104,86.6904193 115.593355,82.7184136 115.593355,78.5067085 L115.593355,73.4456575 L119.494217,73.4456575 L119.494217,96.3353115 Z" id="Fill-30" fill="#FFFFFF"></path>
                        <polygon id="Fill-32" fill="#FFFFFF" points="133.751736 96.3353115 123.429337 96.3353115 123.429337 73.4456575 133.389451 73.4456575 133.389451 77.318062 127.875269 77.318062 127.875269 82.5815989 133.070946 82.5815989 133.070946 86.2821641 127.875269 86.2821641 127.875269 92.465096 133.751736 92.465096"></polygon>
                        <path d="M153.518293,96.3353115 L148.933357,96.3353115 L147.568493,88.8356745 C147.204019,86.7221603 146.862529,84.1084514 146.551686,81.3283758 L146.48492,81.3283758 C146.073382,84.0756159 145.703435,86.6225592 145.226225,88.8630374 L143.698278,96.3353115 L139.276425,96.3353115 L135.387603,73.4456575 L140.006469,73.4456575 L141.122877,82.5815989 C141.426058,85.1942132 141.636206,87.8079221 141.907646,90.5978484 L141.997397,90.5978484 C142.315902,87.7772756 142.821569,85.2981924 143.298779,82.5465743 L144.926327,73.4456575 L148.521818,73.4456575 L150.053049,82.4787142 C150.46021,85.0628711 150.872843,87.6120034 151.139905,90.5978484 L151.211049,90.5978484 C151.513136,87.6120034 151.785671,85.1635667 152.099798,82.5137388 L153.211828,73.4456575 L157.559253,73.4456575 L153.518293,96.3353115 Z" id="Fill-34" fill="#FFFFFF"></path>
                        <path d="M555.399785,301.576692 C555.399785,325.517084 535.979753,344.929454 512.039361,344.929454 C488.105537,344.929454 468.694261,325.517084 468.694261,301.576692 C468.694261,277.634112 488.105537,258.227214 512.039361,258.227214 C535.979753,258.227214 555.399785,277.634112 555.399785,301.576692" id="Fill-36" fill="#0E6DA0"></path>
                        <line x1="184.21186" y1="208.292568" x2="73.3612701" y2="278.975444" id="Stroke-38" stroke="#0E6DA0" stroke-width="1.798"></line>
                        <path d="M30.4052711,275.139377 C30.4052711,299.078674 49.8263977,318.491044 73.7656945,318.491044 C97.7006132,318.491044 117.111889,299.078674 117.111889,275.139377 C117.111889,251.195702 97.7006132,231.788804 73.7656945,231.788804 C49.8263977,231.788804 30.4052711,251.195702 30.4052711,275.139377" id="Fill-40" fill="#0E6DA0"></path>
                        <line x1="395.460174" y1="221.969665" x2="522.346547" y2="187.561304" id="Stroke-42" stroke="#0E6DA0" stroke-width="1.798"></line>
                        <path d="M548.421248,153.210733 C566.127265,169.324227 567.413323,196.753941 551.298736,214.458864 C535.18962,232.160503 507.766473,233.450939 490.062645,217.336351 C472.354439,201.220669 471.065097,173.8019 487.175306,156.101355 C503.2888,138.396433 530.713042,137.095051 548.421248,153.210733" id="Fill-44" fill="#0E6DA0"></path>
                        <path d="M430.909093,120.763092 C430.909093,120.763092 424.107759,118.308088 417.31518,128.264918" id="Stroke-46" stroke="#747374" stroke-width="2.279" stroke-linecap="round" stroke-linejoin="round"></path>
                        <path d="M288.186688,49.0689913 C288.186688,74.6128514 267.477314,95.3233202 241.937832,95.3233202 C216.391782,95.3233202 195.683503,74.6128514 195.683503,49.0689913 C195.683503,23.5240367 216.391782,2.8157569 241.937832,2.8157569 C267.477314,2.8157569 288.186688,23.5240367 288.186688,49.0689913" id="Fill-48" fill="#0E6DA0"></path>
                        <path d="M517.315047,185.234906 C517.315047,197.132316 507.669061,206.778303 495.77165,206.778303 C483.873146,206.778303 474.229348,197.132316 474.229348,185.234906 C474.229348,173.337496 483.873146,163.691509 495.77165,163.691509 C507.669061,163.691509 517.315047,173.337496 517.315047,185.234906" id="Fill-50" fill="#C6642F"></path>
                        <path d="M514.40352,185.234906 C514.40352,195.524469 506.062199,203.865791 495.772636,203.865791 C485.481978,203.865791 477.139562,195.524469 477.139562,185.234906 C477.139562,174.945343 485.481978,166.604021 495.772636,166.604021 C506.062199,166.604021 514.40352,174.945343 514.40352,185.234906" id="Fill-52" fill="#FCBC80"></path>
                        <path d="M511.103877,185.234906 C511.103877,193.702097 504.240155,200.566913 495.771869,200.566913 C487.303584,200.566913 480.438767,193.702097 480.438767,185.234906 C480.438767,176.767715 487.303584,169.902898 495.771869,169.902898 C504.240155,169.902898 511.103877,176.767715 511.103877,185.234906" id="Fill-54" fill="#DE8D4E"></path>
                        <path d="M508.392209,185.234906 C508.392209,192.204796 502.742307,197.855792 495.772417,197.855792 C488.802526,197.855792 483.150436,192.204796 483.150436,185.234906 C483.150436,178.265016 488.802526,172.615114 495.772417,172.615114 C502.742307,172.615114 508.392209,178.265016 508.392209,185.234906" id="Fill-56" fill="#FCBC80"></path>
                        <path d="M508.392209,185.234906 C508.392209,192.204796 502.742307,197.855792 495.772417,197.855792 C488.802526,197.855792 483.150436,192.204796 483.150436,185.234906 C483.150436,178.265016 488.802526,172.615114 495.772417,172.615114 C502.742307,172.615114 508.392209,178.265016 508.392209,185.234906" id="Fill-58" fill="#FCBC80"></path>
                        <path d="M505.511656,185.234906 C505.511656,190.613367 501.151097,194.973927 495.772636,194.973927 C490.39308,194.973927 486.03252,190.613367 486.03252,185.234906 C486.03252,179.856445 490.39308,175.495885 495.772636,175.495885 C501.151097,175.495885 505.511656,179.856445 505.511656,185.234906" id="Fill-60" fill="#DE8D4E"></path>
                        <path d="M502.309316,185.234906 C502.309316,188.845721 499.38148,191.772462 495.77176,191.772462 C492.16204,191.772462 489.235299,188.845721 489.235299,185.234906 C489.235299,181.625186 492.16204,178.69735 495.77176,178.69735 C499.38148,178.69735 502.309316,181.625186 502.309316,185.234906" id="Fill-62" fill="#FCBC80"></path>
                        <path d="M502.309316,185.234906 C502.309316,188.845721 499.38148,191.772462 495.77176,191.772462 C492.16204,191.772462 489.235299,188.845721 489.235299,185.234906 C489.235299,181.625186 492.16204,178.69735 495.77176,178.69735 C499.38148,178.69735 502.309316,181.625186 502.309316,185.234906" id="Fill-64" fill="#FCBC80"></path>
                        <path d="M499.682035,185.234906 C499.682035,187.395484 497.930806,189.144524 495.772417,189.144524 C493.611838,189.144524 491.861704,187.395484 491.861704,185.234906 C491.861704,183.075422 493.611838,181.325288 495.772417,181.325288 C497.930806,181.325288 499.682035,183.075422 499.682035,185.234906" id="Fill-66" fill="#F7954C"></path>
                        <path d="M496.867701,185.234906 C496.867701,185.841269 496.377357,186.331613 495.772088,186.331613 C495.165725,186.331613 494.675381,185.841269 494.675381,185.234906 C494.675381,184.629637 495.165725,184.139293 495.772088,184.139293 C496.377357,184.139293 496.867701,184.629637 496.867701,185.234906" id="Fill-68" fill="#FCBC80"></path>
                        <path d="M562.686319,186.766684 C562.686319,198.664094 553.040333,208.310081 541.142922,208.310081 C529.244418,208.310081 519.599525,198.664094 519.599525,186.766684 C519.599525,174.868179 529.244418,165.223287 541.142922,165.223287 C553.040333,165.223287 562.686319,174.868179 562.686319,186.766684" id="Fill-70" fill="#C6642F"></path>
                        <path d="M559.774683,186.766684 C559.774683,197.056247 551.433361,205.397568 541.143798,205.397568 C530.852046,205.397568 522.510724,197.056247 522.510724,186.766684 C522.510724,176.47712 530.852046,168.134705 541.143798,168.134705 C551.433361,168.134705 559.774683,176.47712 559.774683,186.766684" id="Fill-72" fill="#FCBC80"></path>
                        <path d="M556.475149,186.766684 C556.475149,195.233875 549.611427,202.098691 541.143141,202.098691 C532.674856,202.098691 525.810039,195.233875 525.810039,186.766684 C525.810039,178.298398 532.674856,171.433582 541.143141,171.433582 C549.611427,171.433582 556.475149,178.298398 556.475149,186.766684" id="Fill-74" fill="#DE8D4E"></path>
                        <path d="M553.763371,186.766684 C553.763371,193.73548 548.113469,199.386476 541.143579,199.386476 C534.173689,199.386476 528.521598,193.73548 528.521598,186.766684 C528.521598,179.796793 534.173689,174.145797 541.143579,174.145797 C548.113469,174.145797 553.763371,179.796793 553.763371,186.766684" id="Fill-76" fill="#FCBC80"></path>
                        <path d="M553.763371,186.766684 C553.763371,193.73548 548.113469,199.386476 541.143579,199.386476 C534.173689,199.386476 528.521598,193.73548 528.521598,186.766684 C528.521598,179.796793 534.173689,174.145797 541.143579,174.145797 C548.113469,174.145797 553.763371,179.796793 553.763371,186.766684" id="Fill-78" fill="#FCBC80"></path>
                        <path d="M550.882819,186.766684 C550.882819,192.145145 546.522259,196.505705 541.143798,196.505705 C535.764242,196.505705 531.403683,192.145145 531.403683,186.766684 C531.403683,181.387128 535.764242,177.027663 541.143798,177.027663 C546.522259,177.027663 550.882819,181.387128 550.882819,186.766684" id="Fill-80" fill="#F7954C"></path>
                        <path d="M547.680478,186.766684 C547.680478,190.376404 544.752643,193.30424 541.142922,193.30424 C537.533202,193.30424 534.606461,190.376404 534.606461,186.766684 C534.606461,183.155869 537.533202,180.229128 541.142922,180.229128 C544.752643,180.229128 547.680478,183.155869 547.680478,186.766684" id="Fill-82" fill="#FCBC80"></path>
                        <path d="M547.680478,186.766684 C547.680478,190.376404 544.752643,193.30424 541.142922,193.30424 C537.533202,193.30424 534.606461,190.376404 534.606461,186.766684 C534.606461,183.155869 537.533202,180.229128 541.142922,180.229128 C544.752643,180.229128 547.680478,183.155869 547.680478,186.766684" id="Fill-84" fill="#FCBC80"></path>
                        <path d="M545.053197,186.766684 C545.053197,188.926168 543.301968,190.676302 541.143579,190.676302 C538.983001,190.676302 537.232866,188.926168 537.232866,186.766684 C537.232866,184.606105 538.983001,182.855971 541.143579,182.855971 C543.301968,182.855971 545.053197,184.606105 545.053197,186.766684" id="Fill-86" fill="#F7954C"></path>
                        <path d="M542.238863,186.766684 C542.238863,187.371952 541.748519,187.862296 541.143251,187.862296 C540.536888,187.862296 540.046544,187.371952 540.046544,186.766684 C540.046544,186.160321 540.536888,185.669977 541.143251,185.669977 C541.748519,185.669977 542.238863,186.160321 542.238863,186.766684" id="Fill-88" fill="#FCBC80"></path>
                        <path d="M541.143251,180.228362 C541.143251,192.126867 531.497264,201.771759 519.599854,201.771759 C507.701349,201.771759 498.057551,192.126867 498.057551,180.228362 C498.057551,168.330952 507.701349,158.684965 519.599854,158.684965 C531.497264,158.684965 541.143251,168.330952 541.143251,180.228362" id="Fill-90" fill="#C6642F"></path>
                        <path d="M538.231723,180.228362 C538.231723,190.517925 529.890402,198.860341 519.600839,198.860341 C509.310181,198.860341 500.967765,190.517925 500.967765,180.228362 C500.967765,169.938798 509.310181,161.597477 519.600839,161.597477 C529.890402,161.597477 538.231723,169.938798 538.231723,180.228362" id="Fill-92" fill="#FCBC80"></path>
                        <path d="M534.93208,180.228362 C534.93208,188.695553 528.068358,195.561464 519.600073,195.561464 C511.131787,195.561464 504.266971,188.695553 504.266971,180.228362 C504.266971,171.761171 511.131787,164.896354 519.600073,164.896354 C528.068358,164.896354 534.93208,171.761171 534.93208,180.228362" id="Fill-94" fill="#DE8D4E"></path>
                        <path d="M532.220412,180.228362 C532.220412,187.198252 526.57051,192.849248 519.60062,192.849248 C512.630729,192.849248 506.978639,187.198252 506.978639,180.228362 C506.978639,173.259566 512.630729,167.60857 519.60062,167.60857 C526.57051,167.60857 532.220412,173.259566 532.220412,180.228362" id="Fill-96" fill="#FCBC80"></path>
                        <path d="M532.220412,180.228362 C532.220412,187.198252 526.57051,192.849248 519.60062,192.849248 C512.630729,192.849248 506.978639,187.198252 506.978639,180.228362 C506.978639,173.259566 512.630729,167.60857 519.60062,167.60857 C526.57051,167.60857 532.220412,173.259566 532.220412,180.228362" id="Fill-98" fill="#FCBC80"></path>
                        <path d="M529.33986,180.228362 C529.33986,185.607918 524.9793,189.967383 519.600839,189.967383 C514.221283,189.967383 509.860723,185.607918 509.860723,180.228362 C509.860723,174.849901 514.221283,170.490436 519.600839,170.490436 C524.9793,170.490436 529.33986,174.849901 529.33986,180.228362" id="Fill-100" fill="#DE8D4E"></path>
                        <path d="M526.137519,180.228362 C526.137519,183.839177 523.209683,186.765918 519.599963,186.765918 C515.990243,186.765918 513.063502,183.839177 513.063502,180.228362 C513.063502,176.618642 515.990243,173.691901 519.599963,173.691901 C523.209683,173.691901 526.137519,176.618642 526.137519,180.228362" id="Fill-102" fill="#FCBC80"></path>
                        <path d="M526.137519,180.228362 C526.137519,183.839177 523.209683,186.765918 519.599963,186.765918 C515.990243,186.765918 513.063502,183.839177 513.063502,180.228362 C513.063502,176.618642 515.990243,173.691901 519.599963,173.691901 C523.209683,173.691901 526.137519,176.618642 526.137519,180.228362" id="Fill-104" fill="#FCBC80"></path>
                        <path d="M523.510238,180.228362 C523.510238,182.38894 521.759009,184.139074 519.60062,184.139074 C517.440041,184.139074 515.689907,182.38894 515.689907,180.228362 C515.689907,178.068878 517.440041,176.318744 519.60062,176.318744 C521.759009,176.318744 523.510238,178.068878 523.510238,180.228362" id="Fill-106" fill="#DE8D4E"></path>
                        <path d="M520.695904,180.228362 C520.695904,180.834725 520.20556,181.325069 519.600291,181.325069 C518.993929,181.325069 518.503584,180.834725 518.503584,180.228362 C518.503584,179.623093 518.993929,179.132749 519.600291,179.132749 C520.20556,179.132749 520.695904,179.623093 520.695904,180.228362" id="Fill-108" fill="#FCBC80"></path>
                        <path d="M555.17322,214.144518 C555.17322,216.888475 552.949159,219.112535 550.206297,219.112535 L490.708301,219.112535 C487.965439,219.112535 485.740284,216.888475 485.740284,214.144518 C485.740284,211.400562 487.965439,209.177596 490.708301,209.177596 L550.206297,209.177596 C552.949159,209.177596 555.17322,211.400562 555.17322,214.144518" id="Fill-110" fill="#E6E6E6"></path>
                        <g id="Group-114" transform="translate(461.886578, 178.406427)">
                            <mask id="mask-2" fill="white">
                                <use xlink:href="#path-1"></use>
                            </mask>
                            <g id="Clip-113"></g>
                            <path d="M0.0730043478,0.81727656 C2.5991518,30.6330403 27.8223181,36.6419439 58.5695166,36.6419439 C89.3178096,36.6419439 114.542071,30.6330403 117.068218,0.81727656 L0.0730043478,0.81727656 Z" id="Fill-112" fill="#E6E6E6" mask="url(#mask-2)"></path>
                        </g>
                        <g id="Group-117" transform="translate(461.886578, 178.406427)">
                            <mask id="mask-4" fill="white">
                                <use xlink:href="#path-3"></use>
                            </mask>
                            <g id="Clip-116"></g>
                            <path d="M0.0730043478,0.81727656 C2.5991518,30.6330403 27.8223181,36.6419439 58.5695166,36.6419439 C89.3178096,36.6419439 114.542071,30.6330403 117.068218,0.81727656 L0.0730043478,0.81727656 Z" id="Fill-115" fill="#E6E6E6" mask="url(#mask-4)"></path>
                        </g>
                        <g id="Group-120" transform="translate(519.896030, 178.406427)">
                            <mask id="mask-6" fill="white">
                                <use xlink:href="#path-5"></use>
                            </mask>
                            <g id="Clip-119"></g>
                            <path d="M0.560502647,0.81727656 L0.560502647,36.6419439 C31.3087957,36.6419439 56.5330565,30.6330403 59.0581095,0.81727656 L0.560502647,0.81727656 Z" id="Fill-118" fill="#DBD7D6" mask="url(#mask-6)"></path>
                        </g>
                        <path d="M520.456533,215.048809 L520.456533,219.112754 L550.206626,219.112754 C552.949488,219.112754 555.173548,216.888694 555.173548,214.144737 C555.173548,212.905743 554.717134,211.775106 553.966295,210.904964 C544.464784,214.061554 532.914336,215.048809 520.456533,215.048809" id="Fill-121" fill="#DBD7D6"></path>
                        <path d="M496.290561,179.127496 C494.093864,184.132726 486.505571,185.642067 479.339762,182.497516 C472.175047,179.352966 468.147221,172.745361 470.343919,167.740131 C472.541711,162.733806 480.130004,161.22556 487.294718,164.37011 C494.460527,167.51466 498.488353,174.122265 496.290561,179.127496" id="Fill-123" fill="#E6E6E6"></path>
                        <path d="M493.0764,173.328849 C491.939196,175.920667 487.599432,176.521558 483.383349,174.671822 C479.167266,172.819898 476.67067,169.218934 477.807874,166.62821 C478.945079,164.036391 483.285937,163.435501 487.50202,165.285236 C491.718103,167.137161 494.214699,170.73703 493.0764,173.328849" id="Fill-125" fill="#F1BF74"></path>
                        <path d="M541.422243,176.962977 C541.422243,176.962977 543.379241,176.316117 545.420517,176.30955 C547.462888,176.304077 546.68578,177.146856 549.014914,176.30955 C551.342954,175.474433 551.129523,173.353257 553.376568,174.909661 C555.623614,176.466066 556.378831,177.695209 557.969166,175.327767 C558.316128,174.811155 559.397512,174.578022 560.562079,175.217221 C561.726646,175.856419 560.638695,176.815217 562.590221,176.748451 C564.540652,176.680591 565.025523,175.090257 565.706313,176.113631 C566.384914,177.135911 569.974933,176.623676 569.974933,176.623676 L571.528054,179.142162 L541.809703,179.142162 L541.422243,176.962977 Z" id="Fill-127" fill="#8CC63F"></path>
                        <path d="M541.422243,176.962977 C541.422243,176.962977 543.900232,176.316117 545.729171,176.30955 C547.557016,176.304077 546.863092,177.146856 548.949243,176.30955 C551.036489,175.474433 551.82892,173.387187 552.023744,174.83414 C552.297374,176.871037 555.548092,177.695209 556.973154,175.327767 C557.283998,174.811155 558.25374,174.578022 559.297911,175.217221 C560.340986,175.856419 558.911546,177.296805 560.659491,177.228945 C562.408531,177.161085 565.692084,174.779414 565.064926,175.797315 C563.569814,178.221673 567.732266,176.623676 567.732266,176.623676 L569.124493,179.142162 L541.809703,179.142162 L541.422243,176.962977 Z" id="Fill-129" fill="#68A73A"></path>
                        <mask id="mask-8" fill="white">
                            <use xlink:href="#path-7"></use>
                        </mask>
                        <g id="Clip-132"></g>
                        <polygon id="Fill-131" fill="#C6642F" mask="url(#mask-8)" points="514.403739 161.736919 517.315157 161.736919 517.315157 133.622036 514.403739 133.622036"></polygon>
                        <polygon id="Fill-133" fill="#C6642F" mask="url(#mask-8)" points="519.001809 161.736919 521.912132 161.736919 521.912132 133.622036 519.001809 133.622036"></polygon>
                        <polygon id="Fill-134" fill="#C6642F" mask="url(#mask-8)" points="524.355096 161.736919 527.266514 161.736919 527.266514 133.622036 524.355096 133.622036"></polygon>
                        <path d="M565.046319,113.711879 L512.283986,132.728034 L513.063283,134.294289 L568.221516,116.228175 C567.185007,115.362412 566.128797,114.520727 565.046319,113.711879" id="Fill-135" fill="#FCBC80" mask="url(#mask-8)"></path>
                        <path d="M573.342874,120.926722 L513.217719,133.875964 L513.781396,135.533064 L576.219268,123.99575 C575.287833,122.946108 574.33013,121.921639 573.342874,120.926722" id="Fill-136" fill="#FCBC80" mask="url(#mask-8)"></path>
                        <polygon id="Fill-137" fill="#C6642F" mask="url(#mask-8)" points="513.218157 132.39136 514.40352 135.417702 517.314938 134.879199 515.69724 131.498233"></polygon>
                        <polygon id="Fill-138" fill="#C6642F" mask="url(#mask-8)" points="518.286651 132.78462 519.001371 134.56759 521.912789 134.030182 521.029513 132.194675"></polygon>
                        <polygon id="Fill-139" fill="#C6642F" mask="url(#mask-8)" points="523.550845 131.651685 524.317007 133.621817 527.266733 133.621817 527.266733 133.041722 526.462262 131.024526"></polygon>
                        <path d="M566.682842,271.988369 C565.77877,271.988369 565.046538,271.256137 565.046538,270.352065 L565.046538,256.135371 C565.046538,254.296581 564.541965,252.787241 563.587545,251.771528 C562.798398,250.929844 561.734526,250.465768 560.595133,250.465768 C558.429082,250.465768 556.097759,252.239982 556.097759,256.135371 L556.097759,270.352065 C556.097759,271.256137 555.364432,271.988369 554.46036,271.988369 C553.556288,271.988369 552.824056,271.256137 552.824056,270.352065 L552.824056,256.135371 C552.824056,250.263282 556.732579,247.192065 560.595133,247.192065 C564.433608,247.192065 568.320241,250.263282 568.320241,256.135371 L568.320241,270.352065 C568.320241,271.256137 567.586914,271.988369 566.682842,271.988369" id="Fill-140" fill="#2CABAE" mask="url(#mask-8)"></path>
                        <path d="M569.545226,277.064415 L571.240634,277.064415 L571.240634,270.641784 L549.903006,270.641784 L549.903006,277.064415 L551.598415,277.064415 L544.790513,332.973487 L548.411178,332.973487 C552.661191,332.973487 558.13597,330.839177 560.572367,328.148852 C562.990157,330.863257 568.481354,332.973487 572.731367,332.973487 L576.353127,332.973487 L569.545226,277.064415 Z" id="Fill-141" fill="#F2EED1" mask="url(#mask-8)"></path>
                        <path d="M571.240415,277.064415 L571.240415,270.641784 L560.572148,270.641784 L560.572148,328.148852 C562.989939,330.863257 568.481135,332.973487 572.731148,332.973487 L576.352908,332.973487 L569.545007,277.064415 L571.240415,277.064415 Z" id="Fill-142" fill="#C6C29B" mask="url(#mask-8)"></path>
                        <path d="M508.806922,270.497308 C507.90285,270.497308 507.170617,269.763981 507.170617,268.859909 L507.170617,261.969918 C507.170617,258.406168 505.949135,255.43674 503.637513,253.380141 C501.571063,251.540257 498.768003,250.526733 495.747133,250.526733 C490.232952,250.526733 484.297381,254.106901 484.297381,261.969918 L484.297381,268.859909 C484.297381,269.763981 483.565148,270.497308 482.661077,270.497308 C481.757005,270.497308 481.023678,269.763981 481.023678,268.859909 L481.023678,261.969918 C481.023678,252.307514 488.431375,247.251935 495.747133,247.251935 C499.572474,247.251935 503.147169,248.559884 505.815604,250.934988 C508.844135,253.629691 510.44432,257.445181 510.44432,261.969918 L510.44432,268.859909 C510.44432,269.763981 509.710993,270.497308 508.806922,270.497308" id="Fill-143" fill="#187E89" mask="url(#mask-8)"></path>
                    </g>
                    <polygon id="Fill-145" fill="url(#linearGradient-9)" points="480.511991 333.647382 531.171754 333.647382 531.171754 270.105142 480.511991 270.105142"></polygon>
                    <g id="Group-150" transform="translate(469.548204, 269.925641)">
                        <polygon id="Fill-147" fill="#BF423C" points="0.823077505 63.7228355 10.9648809 63.7228355 10.9648809 0.180595463 0.823077505 0.180595463"></polygon>
                        <path d="M0.833037618,12.5672552 C1.74477108,14.445448 3.67112268,15.7391682 5.89846673,15.7391682 C8.12690529,15.7391682 10.0521624,14.445448 10.9649904,12.5672552 L10.9649904,0.180595463 L0.823186957,0.180595463 L0.823186957,12.5398922 L0.833037618,12.5672552 Z" id="Fill-149" fill="#C6C29B"></path>
                    </g>
                    <g id="Group-153" transform="translate(480.493384, 269.925641)">
                        <mask id="mask-11" fill="white">
                            <use xlink:href="#path-10"></use>
                        </mask>
                        <g id="Clip-152"></g>
                        <path d="M0.0186068053,0.180595463 L0.0186068053,12.5672552 L0.0197013233,12.5672552 C0.931434783,14.445448 2.85778639,15.7391682 5.08513043,15.7391682 L5.08513043,15.7391682 C7.313569,15.7391682 9.23882609,14.445448 10.1516541,12.5672552 L10.1516541,12.5672552 C11.064482,14.445448 12.9897391,15.7391682 15.2170832,15.7391682 L15.2170832,15.7391682 C17.4455217,15.7391682 19.3718733,14.445448 20.2825123,12.5672552 L20.2825123,12.5672552 C21.1964348,14.445448 23.1205974,15.7391682 25.3501304,15.7391682 L25.3501304,15.7391682 C27.5774745,15.7391682 29.5027316,14.445448 30.4155595,12.5672552 L30.4155595,12.5672552 C31.327293,14.445448 33.2536446,15.7391682 35.4809887,15.7391682 L35.4809887,15.7391682 C37.7094272,15.7391682 39.6357788,14.445448 40.5475123,12.5672552 L40.5475123,12.5672552 C41.4592457,14.445448 43.3855974,15.7391682 45.6129414,15.7391682 L45.6129414,15.7391682 C47.84138,15.7391682 49.7655425,14.4465425 50.6783705,12.5694442 L50.6783705,12.5694442 L50.6783705,0.180595463 L0.0186068053,0.180595463 Z" id="Fill-151" fill="url(#linearGradient-12)" mask="url(#mask-11)"></path>
                    </g>
                    <polygon id="Fill-154" fill="#F5C268" points="511.374113 310.352756 551.339342 310.352756 551.339342 299.679017 511.374113 299.679017"></polygon>
                    <polygon id="Fill-156" fill="url(#linearGradient-13)" points="513.689019 333.647382 549.023342 333.647382 549.023342 310.352756 513.689019 310.352756"></polygon>
                    <polygon id="Fill-158" fill="url(#linearGradient-14)" points="528.171681 333.647382 534.541775 333.647382 534.541775 310.352756 528.171681 310.352756"></polygon>
                    <polygon id="Fill-160" fill="#F2EED1" points="528.171681 310.352756 534.541775 310.352756 534.541775 299.679017 528.171681 299.679017"></polygon>
                    <g id="Group-164" transform="translate(530.841210, 290.721482)">
                        <mask id="mask-16" fill="white">
                            <use xlink:href="#path-15"></use>
                        </mask>
                        <g id="Clip-163"></g>
                        <path d="M5.39268998,0.800092628 C3.92603592,1.52028544 -0.329449905,5.53826087 0.615119093,7.45476181 L0.615119093,7.45476181 C1.55749905,9.37126276 7.34202647,8.46062382 8.80758601,7.740431 L8.80758601,7.740431 C10.2731456,7.02023819 10.3705577,5.04463327 9.42598866,3.12813233 L9.42598866,3.12813233 C8.67843289,1.60784688 7.50073157,0.581189036 6.3142741,0.581189036 L6.3142741,0.581189036 C6.00452552,0.581189036 5.69477694,0.651238185 5.39268998,0.800092628" id="Fill-162" fill="url(#linearGradient-17)" mask="url(#mask-16)"></path>
                    </g>
                    <g id="Group-167" transform="translate(520.990548, 290.721482)">
                        <mask id="mask-19" fill="white">
                            <use xlink:href="#path-18"></use>
                        </mask>
                        <g id="Clip-166"></g>
                        <path d="M1.22367108,3.12813233 C0.281291115,5.04463327 0.376514178,7.02023819 1.84316824,7.740431 L1.84316824,7.740431 C3.30872779,8.46062382 9.0932552,9.37235728 10.0356352,7.45476181 L10.0356352,7.45476181 C10.9791096,5.53826087 6.72362382,1.52028544 5.25806427,0.800092628 L5.25806427,0.800092628 C4.9548828,0.651238185 4.64513422,0.581189036 4.33648015,0.581189036 L4.33648015,0.581189036 C3.14892817,0.581189036 1.97122684,1.60784688 1.22367108,3.12813233" id="Fill-165" fill="url(#linearGradient-20)" mask="url(#mask-19)"></path>
                    </g>
                    <g id="Group-176" transform="translate(332.733459, 48.833013)">
                        <path d="M185.133116,229.20804 C184.229044,229.20804 183.495717,228.474713 183.495717,227.571736 L183.495717,213.811456 C183.495717,210.247706 182.275329,207.278279 179.963707,205.221679 C177.897257,203.3807 175.094197,202.368271 172.073327,202.368271 C166.559146,202.368271 160.623575,205.948439 160.623575,213.811456 L160.623575,227.571736 C160.623575,228.474713 159.891343,229.20804 158.986176,229.20804 C158.083199,229.20804 157.349872,228.474713 157.349872,227.571736 L157.349872,213.811456 C157.349872,204.147957 164.757569,199.093473 172.073327,199.093473 C175.897573,199.093473 179.473363,200.401422 182.141798,202.776526 C185.169235,205.471229 186.770515,209.286719 186.770515,213.811456 L186.770515,227.571736 C186.770515,228.474713 186.037188,229.20804 185.133116,229.20804" id="Fill-168" fill="#2CABAE"></path>
                        <path d="M32.762206,48.9985043 C23.8780038,48.9985043 16.6760756,41.7943871 16.6760756,32.9101849 C16.6760756,24.0281716 23.8780038,16.8284325 32.762206,16.8284325 C41.6518809,16.8284325 48.8428639,24.0281716 48.8428639,32.9101849 C48.8428639,41.7943871 41.6518809,48.9985043 32.762206,48.9985043 M32.762206,0.502602647 C14.8646484,0.502602647 0.353529301,15.0093437 0.353529301,32.9101849 C0.353529301,50.8143096 32.762206,78.4421319 32.762206,78.4421319 C32.762206,78.4421319 65.1610321,50.8143096 65.1610321,32.9101849 C65.1610321,15.0093437 50.6597637,0.502602647 32.762206,0.502602647" id="Fill-170" fill="#A00B0F"></path>
                        <path d="M32.762206,48.9985043 C23.8780038,48.9985043 16.6760756,41.7943871 16.6760756,32.9101849 C16.6760756,24.0281716 23.8780038,16.8284325 32.762206,16.8284325 C41.6518809,16.8284325 48.8428639,24.0281716 48.8428639,32.9101849 C48.8428639,41.7943871 41.6518809,48.9985043 32.762206,48.9985043" id="Fill-172" fill="#FFFFFF"></path>
                        <path d="M32.762206,16.8288703 C41.6518809,16.8288703 48.8428639,24.0275149 48.8428639,32.9095282 C48.8428639,41.794825 41.6518809,48.9989422 32.762206,48.9989422" id="Fill-174" fill="#D1ECFB"></path>
                    </g>
                    <polygon id="Fill-177" fill="url(#linearGradient-21)" points="202.066622 75.2130851 276.442401 75.2130851 276.442401 5.57875803 202.066622 5.57875803"></polygon>
                    <g id="Group-183" transform="translate(205.769376, 56.494639)">
                        <polygon id="Fill-179" fill="#3E2F3C" points="0.376514178 18.7184461 67.5996181 18.7184461 67.5996181 0.0481587902 0.376514178 0.0481587902"></polygon>
                        <path d="M49.9666055,6.00977921 C54.9455677,6.00977921 59.1485166,9.49034631 60.2660195,14.1387641 C57.2254486,15.7258151 55.0418853,18.7466847 54.6215904,22.2885448 L45.3105261,22.2885448 C44.8913257,18.7466847 42.7055733,15.7269096 39.6671915,14.1387641 C40.7835998,9.49034631 44.9887378,6.00977921 49.9666055,6.00977921" id="Fill-181" fill="#D89144"></path>
                        <path d="M19.6226274,6.00977921 C24.6004951,6.00977921 28.8045386,9.49034631 29.9220414,14.1376696 C26.882565,15.7258151 24.6968127,18.7466847 24.2787068,22.2885448 L14.9676425,22.2885448 C14.5473476,18.7466847 12.3626898,15.7258151 9.32430794,14.1376696 C10.4407163,9.49034631 14.6447597,6.00977921 19.6226274,6.00977921" id="Fill-182" fill="#D89144"></path>
                    </g>
                    <g id="Group-186" transform="translate(259.400756, 68.534336)">
                        <mask id="mask-23" fill="white">
                            <use xlink:href="#path-22"></use>
                        </mask>
                        <g id="Clip-185"></g>
                        <path d="M0.917206049,11.4935331 L0.917206049,15.9525992 L22.0961285,15.9525992 L22.0961285,11.4935331 C22.0961285,5.66741399 17.3316919,0.901882798 11.5077618,0.901882798 L11.5077618,0.901882798 C5.68273724,0.901882798 0.917206049,5.66741399 0.917206049,11.4935331" id="Fill-184" fill="url(#linearGradient-24)" mask="url(#mask-23)"></path>
                    </g>
                    <g id="Group-189" transform="translate(229.848771, 68.534336)">
                        <mask id="mask-26" fill="white">
                            <use xlink:href="#path-25"></use>
                        </mask>
                        <g id="Clip-188"></g>
                        <path d="M0.124775047,11.4935331 L0.124775047,15.9525992 L21.3047921,15.9525992 L21.3047921,11.4935331 C21.3047921,5.66741399 16.5403554,0.901882798 10.7164253,0.901882798 L10.7164253,0.901882798 C4.89030624,0.901882798 0.124775047,5.66741399 0.124775047,11.4935331" id="Fill-187" fill="url(#linearGradient-27)" mask="url(#mask-26)"></path>
                    </g>
                    <g id="Group-192" transform="translate(199.202268, 68.534336)">
                        <mask id="mask-29" fill="white">
                            <use xlink:href="#path-28"></use>
                        </mask>
                        <g id="Clip-191"></g>
                        <path d="M0.426862004,11.4935331 L0.426862004,15.9525992 L21.6079735,15.9525992 L21.6079735,11.4935331 C21.6079735,5.66741399 16.8435369,0.901882798 11.0185123,0.901882798 L11.0185123,0.901882798 C5.19348771,0.901882798 0.426862004,5.66741399 0.426862004,11.4935331" id="Fill-190" fill="url(#linearGradient-30)" mask="url(#mask-29)"></path>
                    </g>
                    <g id="Group-195" transform="translate(226.565217, 7.241331)">
                        <mask id="mask-32" fill="white">
                            <use xlink:href="#path-31"></use>
                        </mask>
                        <g id="Clip-194"></g>
                        <path d="M13.9977902,5.97935161 C10.4143384,5.97935161 7.31137996,3.91618526 5.81079584,0.913922495 L5.81079584,0.913922495 C4.75239698,3.0350983 2.89171645,4.6867259 0.62715879,5.47477883 L0.62715879,5.47477883 C3.46086578,9.86051229 8.38948015,12.7631739 13.9999792,12.7631739 L13.9999792,12.7631739 C19.6071947,12.7631739 24.5358091,9.86051229 27.3706106,5.47477883 L27.3706106,5.47477883 C25.1038639,4.6867259 23.2442779,3.0350983 22.1847845,0.913922495 L22.1847845,0.913922495 C20.6852949,3.91618526 17.5823365,5.97935161 13.9977902,5.97935161" id="Fill-193" fill="url(#linearGradient-33)" mask="url(#mask-32)"></path>
                    </g>
                    <g id="Group-198" transform="translate(253.928166, 7.241331)">
                        <mask id="mask-35" fill="white">
                            <use xlink:href="#path-34"></use>
                        </mask>
                        <g id="Clip-197"></g>
                        <path d="M19.381724,5.97935161 C15.7971777,5.97935161 12.6953138,3.91618526 11.1958242,0.913922495 L11.1958242,0.913922495 C9.69633459,3.91618526 6.59228166,5.97935161 3.00882987,5.97935161 L3.00882987,5.97935161 C2.18903592,5.97935161 1.3955104,5.87099433 0.641387524,5.66850851 L0.641387524,5.66850851 C2.59948015,18.680138 9.84847259,29.9569565 20.1259962,37.2420681 L20.1259962,37.2420681 C15.8343913,44.9080718 13.2655577,53.6685936 12.9448639,62.9993592 L12.9448639,62.9993592 C14.1915198,62.4827467 15.5520057,62.1948885 16.9803516,62.1948885 L16.9803516,62.1948885 C22.8042817,62.1948885 27.5687183,66.9604197 27.5687183,72.7865388 L27.5687183,72.7865388 L27.5687183,0.913922495 C26.0692287,3.91618526 22.9662703,5.97935161 19.381724,5.97935161" id="Fill-196" fill="url(#linearGradient-36)" mask="url(#mask-35)"></path>
                    </g>
                    <g id="Group-201" transform="translate(199.202268, 7.241331)">
                        <mask id="mask-38" fill="white">
                            <use xlink:href="#path-37"></use>
                        </mask>
                        <g id="Clip-200"></g>
                        <path d="M8.61385633,5.97935161 C5.02931002,5.97935161 1.92635161,3.91618526 0.426862004,0.913922495 L0.426862004,0.913922495 L0.426862004,72.7744991 C0.434523629,66.9549471 5.19677127,62.1948885 11.0185123,62.1948885 L11.0185123,62.1948885 C12.4435747,62.1948885 13.8062495,62.4827467 15.0507164,62.9993592 L15.0507164,62.9993592 C14.7300227,53.6685936 12.1633781,44.9080718 7.87286767,37.2420681 L7.87286767,37.2420681 C18.1492968,29.9569565 25.3971947,18.680138 27.3552873,5.66850851 L27.3552873,5.66850851 C26.6000699,5.87099433 25.8076389,5.97935161 24.9867505,5.97935161 L24.9867505,5.97935161 C21.4032987,5.97935161 18.3003403,3.91618526 16.8008507,0.913922495 L16.8008507,0.913922495 C15.3002665,3.91618526 12.1984026,5.97935161 8.61385633,5.97935161" id="Fill-199" fill="url(#linearGradient-39)" mask="url(#mask-38)"></path>
                    </g>
                    <g id="Group-204" transform="translate(199.202268, 0.674223)">
                        <mask id="mask-41" fill="white">
                            <use xlink:href="#path-40"></use>
                        </mask>
                        <g id="Clip-203"></g>
                        <path d="M0.434523629,0.421389414 L0.426862004,7.48103025 C1.92635161,10.483293 5.02931002,12.5464594 8.61385633,12.5464594 L8.61385633,12.5464594 C12.1994972,12.5464594 15.3002665,10.483293 16.8008507,7.48103025 L16.8008507,7.48103025 C18.3003403,10.483293 21.4032987,12.5464594 24.9867505,12.5464594 L24.9867505,12.5464594 C28.5723913,12.5464594 31.6731607,10.483293 33.1737448,7.48103025 L33.1737448,7.48103025 C34.6743289,10.483293 37.7772873,12.5464594 41.3607391,12.5464594 L41.3607391,12.5464594 C44.9452854,12.5464594 48.0482439,10.483293 49.5477335,7.48103025 L49.5477335,7.48103025 C51.0472231,10.483293 54.1501815,12.5464594 57.7347278,12.5464594 L57.7347278,12.5464594 C61.3192741,12.5464594 64.421138,10.483293 65.9217221,7.48103025 L65.9217221,7.48103025 C67.4212117,10.483293 70.5230756,12.5464594 74.1076219,12.5464594 L74.1076219,12.5464594 C77.6921682,12.5464594 80.7951267,10.483293 82.2946163,7.48103025 L82.2946163,7.48103025 L82.2957108,0.424672968 L0.434523629,0.421389414 Z" id="Fill-202" fill="url(#linearGradient-42)" mask="url(#mask-41)"></path>
                    </g>
                    <g id="Group-211" transform="translate(60.198488, 0.674223)">
                        <polygon id="Fill-205" fill="#D89144" points="139.43721 4.90453497 220.495021 4.90453497 220.495021 0.420294896 139.43721 0.420294896"></polygon>
                        <path d="M213.750929,45.9960227 L221.298725,45.9960227 L221.298725,41.3640227 L213.750929,41.3640227 C212.472533,41.3640227 211.434929,42.4005312 211.434929,43.6800227 C211.434929,44.9595142 212.472533,45.9960227 213.750929,45.9960227" id="Fill-207" fill="#E1DEB4"></path>
                        <path d="M146.978986,41.3635849 L139.43119,41.3635849 L139.43119,45.9955849 L146.978986,45.9955849 C148.258477,45.9955849 149.294986,44.9590764 149.294986,43.6795849 C149.294986,42.4000934 148.258477,41.3635849 146.978986,41.3635849" id="Fill-208" fill="#E1DEB4"></path>
                        <polygon id="Fill-209" fill="#C6C29B" points="0.848251418 256.254017 19.1671985 256.254017 19.1671985 250.69496 0.848251418 250.69496"></polygon>
                        <polygon id="Fill-210" fill="#C6C29B" points="19.1671985 256.254017 37.4872401 256.254017 37.4872401 250.69496 19.1671985 250.69496"></polygon>
                    </g>
                    <g id="Group-214" transform="translate(53.631380, 215.199743)">
                        <mask id="mask-44" fill="white">
                            <use xlink:href="#path-43"></use>
                        </mask>
                        <g id="Clip-213"></g>
                        <path d="M17.5122873,6.30989603 C16.2196616,3.02743667 13.0291418,0.701586011 9.2880794,0.701586011 L9.2880794,0.701586011 C4.40324575,0.701586011 0.444374291,4.66045747 0.444374291,9.5441966 L0.444374291,9.5441966 C0.444374291,13.7832647 3.4313138,17.3240302 7.41535917,18.1832268 L7.41535917,18.1832268 L7.41535917,37.8725104 L27.9113025,37.8725104 L27.9113025,18.1055161 C31.7399263,17.1335841 34.5769168,13.6738129 34.5769168,9.5441966 L34.5769168,9.5441966 C34.5769168,4.66045747 30.6180454,0.701586011 25.7343062,0.701586011 L25.7343062,0.701586011 C21.9943384,0.701586011 18.802724,3.02743667 17.5122873,6.30989603" id="Fill-212" fill="url(#linearGradient-45)" mask="url(#mask-44)"></path>
                    </g>
                    <g id="Group-253" transform="translate(0.000000, 0.674223)">
                        <path d="M103.655776,224.274172 C103.655776,219.390433 99.6969045,215.432656 94.8131654,215.432656 C91.5339896,215.432656 88.6772977,217.222193 87.1504452,219.873116 C85.6564282,217.107269 82.7318762,215.226887 79.367328,215.226887 L79.367328,223.146819 L79.3662335,223.146819 L79.3662335,252.397811 L97.686275,252.397811 L97.686275,232.630817 C101.156991,231.436698 103.655776,228.150955 103.655776,224.274172" id="Fill-215" fill="#E1DEB4"></path>
                        <path d="M83.5920578,271.962648 C83.5920578,274.573074 81.4752601,276.688777 78.8659293,276.688777 C76.255504,276.688777 74.1398008,274.573074 74.1398008,271.962648 C74.1398008,269.352223 76.255504,267.237614 78.8659293,267.237614 C81.4752601,267.237614 83.5920578,269.352223 83.5920578,271.962648" id="Fill-217" fill="#8EADBE"></path>
                        <path d="M78.8645064,273.142757 C80.3793193,273.142757 81.8667692,273.257682 83.3235726,273.471113 C83.4855612,272.993903 83.5917295,272.492614 83.5917295,271.962867 C83.5917295,269.352442 81.4771208,267.236739 78.8656009,267.236739 C76.2551756,267.236739 74.1405669,269.352442 74.1405669,271.962867 C74.1405669,272.492614 74.2467352,272.993903 74.4087238,273.470018 C75.8644327,273.257682 77.3507881,273.142757 78.8645064,273.142757" id="Fill-219" fill="#B1C3D0"></path>
                        <path d="M83.5920578,271.962648 C83.5920578,269.352223 81.4763546,267.237614 78.8659293,267.237614 L78.8659293,276.688777 C81.4763546,276.688777 83.5920578,274.573074 83.5920578,271.962648" id="Fill-221" fill="#8EADBE"></path>
                        <path d="M114.310142,307.407299 L43.4214975,307.407299 C42.1179267,307.407299 41.0584333,308.464603 41.0584333,309.769269 C41.0584333,311.073934 42.1179267,312.132333 43.4214975,312.132333 L114.310142,312.132333 C115.614808,312.132333 116.672112,311.073934 116.672112,309.769269 C116.672112,308.464603 115.614808,307.407299 114.310142,307.407299" id="Fill-223" fill="#34485C"></path>
                        <path d="M109.583685,305.044016 L109.583685,305.03526 C109.578213,288.101972 95.8004206,274.326369 78.8649442,274.326369 C61.9261843,274.326369 48.1462032,288.10635 48.1462032,305.04511 C48.1462032,306.349776 48.1440142,307.40708 48.1472977,307.40708 L109.583685,307.40708 C109.588063,307.40708 109.583685,305.370182 109.583685,305.044016" id="Fill-225" fill="#B1C3D0"></path>
                        <path d="M78.8654915,274.325931 L78.8654915,307.407737 L109.583138,307.407737 C109.587516,307.407737 109.583138,305.369744 109.583138,305.043578 L109.583138,305.035916 C109.57876,288.101534 95.8009679,274.325931 78.8654915,274.325931" id="Fill-227" fill="#8EADBE"></path>
                        <path d="M114.310142,307.407299 L43.4214975,307.407299 C42.1179267,307.407299 41.0584333,308.464603 41.0584333,309.769269 L116.672112,309.769269 C116.672112,308.464603 115.614808,307.407299 114.310142,307.407299" id="Fill-229" fill="#576D7E"></path>
                        <path d="M38.9915456,249.365778 C37.9178234,249.365778 38.0185191,250.237014 38.0185191,251.310736 L38.0218026,266.596774 C37.9988178,267.551194 37.3300673,268.419146 36.3865928,268.565812 C35.1793395,268.754069 34.1351694,267.820445 34.1329803,266.649311 L33.1599539,251.310736 C33.1599539,250.237014 33.261744,249.365778 32.1869274,249.365778 C31.1132053,249.365778 31.2149955,250.237014 31.2149955,251.310736 L30.2430635,266.63946 L30.2364964,266.700753 C30.1412733,267.63985 29.449538,268.477156 28.5115361,268.578946 C27.3436854,268.703721 26.3553357,267.789798 26.3520522,266.649311 L26.3542412,251.310736 C26.3542412,250.237014 26.4560314,249.365778 25.3812147,249.365778 C24.3085871,249.365778 24.4103773,250.237014 24.4103773,251.310736 L22.4621353,266.63946 C22.4621353,266.641649 22.4610408,266.642744 22.4610408,266.644933 C22.4610408,266.648216 22.4621353,266.6515 22.4621353,266.654783 L22.4621353,267.617959 C22.4621353,270.746091 23.9484907,273.534923 26.2513565,275.314609 C28.1547233,276.784547 29.2689425,279.052388 29.2689425,281.457044 L28.2970106,308.686462 C28.2970106,310.266946 30.4521164,311.51798 32.0304113,311.600069 C33.7126854,311.688725 36.0768442,310.351224 36.0768442,308.686462 L35.1038178,281.457044 C35.1038178,279.052388 36.2191316,276.785642 38.1224983,275.314609 C40.4264586,273.534923 41.9117195,270.746091 41.9117195,267.617959 L39.964572,251.310736 C39.964572,250.237014 40.0652677,249.365778 38.9915456,249.365778" id="Fill-231" fill="#B1C3D0"></path>
                        <path d="M135.269504,250.996938 C135.269504,250.09615 134.539461,249.366106 133.639767,249.366106 C131.111431,249.366106 128.612646,250.211074 126.75306,251.9229 C124.723824,253.787959 123.600848,256.352414 123.600848,259.089804 L123.600848,278.540482 C123.600848,280.689021 125.342226,282.430399 127.490765,282.430399 C128.564487,282.430399 129.434629,283.301635 129.434629,284.374263 L128.461603,308.522613 C128.461603,310.102002 130.617803,311.518308 132.193909,311.600397 C133.878372,311.689053 135.269504,310.351552 135.269504,308.68679 L135.269504,280.489819 L135.269504,280.485441 L135.269504,250.996938 Z" id="Fill-233" fill="#B1C3D0"></path>
                        <path d="M22.4625732,267.61774 C22.4625732,270.745873 23.947834,273.534704 26.2517943,275.314391 C28.1540665,276.784328 29.2693803,279.052169 29.2693803,281.45792 L28.8884881,292.121808 L35.6296242,296.166052 L35.1042556,281.45792 C35.1042556,279.052169 36.2184749,276.785423 38.1229361,275.314391 C38.1284087,275.310012 38.1305977,275.305634 38.1360703,275.302351 L22.5501346,265.951884 L22.4625732,266.639241 C22.4625732,266.64143 22.4614786,266.642525 22.4614786,266.644714 C22.4614786,266.647997 22.4625732,266.651281 22.4625732,266.654564 L22.4625732,267.61774 Z" id="Fill-235" fill="#8EADBE"></path>
                        <polygon id="Fill-237" fill="#8EADBE" points="26.3521616 265.315422 26.3532561 261.425505 23.3542769 259.626117 22.8945794 263.240216"></polygon>
                        <path d="M41.4616537,270.49085 L37.3911414,268.04898 C37.1207955,268.313854 36.7804004,268.505394 36.3863739,268.565593 C35.1791206,268.75385 34.136045,267.821321 34.1327614,266.649092 L34.0955478,266.071186 L30.4179675,263.864638 L30.2428446,266.639241 L30.2362775,266.700534 C30.20782,266.98292 30.1202586,267.252171 29.9922,267.499532 L39.9337066,273.464655 C40.6057406,272.578096 41.1245422,271.575517 41.4616537,270.49085" id="Fill-239" fill="#8EADBE"></path>
                        <polygon id="Fill-241" fill="#8EADBE" points="135.269504 267.259723 123.600848 260.259187 123.600848 264.148009 135.269504 271.14964"></polygon>
                        <path d="M28.2964633,308.68679 C28.2964633,310.26618 30.4526637,311.518308 32.0298641,311.600397 C33.7121382,311.689053 36.076297,310.351552 36.076297,308.68679 L35.7359019,299.146972 L28.7857129,294.977953 L28.2964633,308.68679 Z" id="Fill-243" fill="#8EADBE"></path>
                        <path d="M123.600739,267.065118 L123.600739,278.540044 C123.600739,280.688583 125.342117,282.429961 127.490656,282.429961 C128.564378,282.429961 129.43452,283.301198 129.43452,284.373825 L129.097408,292.73047 L135.269395,296.434319 L135.269395,280.490475 L135.269395,280.486097 L135.269395,274.06675 L123.600739,267.065118 Z" id="Fill-245" fill="#8EADBE"></path>
                        <path d="M128.983578,295.579281 L128.461493,308.521956 C128.461493,310.10244 130.617694,311.518746 132.194894,311.600835 C133.878263,311.689491 135.269395,310.350895 135.269395,308.687228 L135.269395,299.35099 L128.983578,295.579281 Z" id="Fill-247" fill="#8EADBE"></path>
                        <mask id="mask-47" fill="white">
                            <use xlink:href="#path-46"></use>
                        </mask>
                        <g id="Clip-250"></g>
                        <polygon id="Fill-249" fill="#A33927" mask="url(#mask-47)" points="181.357248 274.720724 398.575282 274.720724 398.575282 135.663312 181.357248 135.663312"></polygon>
                        <polygon id="Fill-251" fill="#BF412E" mask="url(#mask-47)" points="172.189565 292.799972 407.742964 292.799972 407.742964 151.948645 172.189565 151.948645"></polygon>
                        <polygon id="Fill-252" fill="#F8E482" mask="url(#mask-47)" points="162.715418 309.088588 417.213828 309.088588 417.213828 168.238355 162.715418 168.238355"></polygon>
                    </g>
                    <g id="Group-256" transform="translate(226.565217, 175.797096)">
                        <mask id="mask-49" fill="white">
                            <use xlink:href="#path-48"></use>
                        </mask>
                        <g id="Clip-255"></g>
                        <polygon id="Fill-254" fill="#FFFFFF" mask="url(#mask-49)" points="-0.417011342 128.146163 127.221295 128.146163 127.221295 -1.06387146 -0.417011342 -1.06387146"></polygon>
                    </g>
                    <path d="M385.407464,250.718711 C379.128215,250.718711 374.028856,245.617163 374.028856,239.335725 C374.028856,233.052097 379.128215,227.957116 385.407464,227.957116 C391.687809,227.957116 396.786073,233.052097 396.786073,239.335725 C396.786073,245.617163 391.687809,250.718711 385.407464,250.718711" id="Fill-257" fill="#F6D85E"></path>
                    <g id="Group-261" transform="translate(373.230624, 168.135471)">
                        <mask id="mask-51" fill="white">
                            <use xlink:href="#path-50"></use>
                        </mask>
                        <g id="Clip-260"></g>
                        <polygon id="Fill-259" fill="#E14027" mask="url(#mask-51)" points="-0.501289225 45.2856805 45.1291645 45.2856805 45.1291645 -0.366663516 -0.501289225 -0.366663516"></polygon>
                    </g>
                    <g id="Group-264" transform="translate(373.230624, 265.547569)">
                        <mask id="mask-53" fill="white">
                            <use xlink:href="#path-52"></use>
                        </mask>
                        <g id="Clip-263"></g>
                        <polygon id="Fill-262" fill="#E14027" mask="url(#mask-53)" points="-0.501289225 45.3590132 45.1291645 45.3590132 45.1291645 -0.293330813 -0.501289225 -0.293330813"></polygon>
                    </g>
                    <path d="M194.524189,227.95624 C200.804533,227.95624 205.902798,233.057788 205.902798,239.340322 C205.902798,245.623949 200.804533,250.71893 194.524189,250.71893 C188.246034,250.71893 183.145581,245.623949 183.145581,239.340322 C183.145581,233.057788 188.246034,227.95624 194.524189,227.95624" id="Fill-265" fill="#F6D85E"></path>
                    <g id="Group-269" transform="translate(161.988658, 265.547569)">
                        <mask id="mask-55" fill="white">
                            <use xlink:href="#path-54"></use>
                        </mask>
                        <g id="Clip-268"></g>
                        <polygon id="Fill-267" fill="#E14027" mask="url(#mask-55)" points="-0.415916824 45.3590132 45.2145369 45.3590132 45.2145369 -0.293330813 -0.415916824 -0.293330813"></polygon>
                    </g>
                    <g id="Group-272" transform="translate(161.988658, 168.135471)">
                        <mask id="mask-57" fill="white">
                            <use xlink:href="#path-56"></use>
                        </mask>
                        <g id="Clip-271"></g>
                        <polygon id="Fill-270" fill="#E14027" mask="url(#mask-57)" points="0.737924008 0.347947259 46.6409127 0.306355577 46.6409127 45.9586996 0.679914556 46.3505371"></polygon>
                    </g>
                    <g id="Group-279" transform="translate(140.098299, 304.950216)">
                        <path d="M287.348725,63.4816038 L12.3883015,63.4816038 C5.72706522,63.4816038 0.328902647,58.0823467 0.328902647,51.4211104 L0.328902647,27.6481803 C0.328902647,20.986944 5.72706522,15.587687 12.3883015,15.587687 L287.348725,15.587687 C294.009961,15.587687 299.409218,20.986944 299.409218,27.6481803 L299.409218,51.4211104 C299.409218,58.0823467 294.009961,63.4816038 287.348725,63.4816038" id="Fill-273" fill="#D0D2D3"></path>
                        <path d="M287.348725,59.5289711 L12.3883015,59.5289711 C5.72706522,59.5289711 0.328902647,54.129714 0.328902647,47.4684777 L0.328902647,23.6955476 C0.328902647,17.0343113 5.72706522,11.6350543 12.3883015,11.6350543 L287.348725,11.6350543 C294.009961,11.6350543 299.409218,17.0343113 299.409218,23.6955476 L299.409218,47.4684777 C299.409218,54.129714 294.009961,59.5289711 287.348725,59.5289711" id="Fill-275" fill="#FFFFFF"></path>
                        <polygon id="Fill-277" fill="#FFFFFF" points="161.158466 11.6351637 149.611302 23.1812336 138.064137 11.6351637 149.611302 0.0879992439"></polygon>
                    </g>
                </g>
                <path d="M168.54,345.664 C172.356,344.944 175.668,343.768 178.5,342.136 C181.236,343.744 184.572,344.896 188.46,345.568 L189.564,343.264 C186.156,342.736 183.204,341.896 180.708,340.696 C182.532,339.352 184.092,337.768 185.388,335.944 L185.388,333.952 L176.7,333.952 C176.94,333.568 177.18,333.136 177.444,332.704 L174.924,332.128 C173.172,334.96 171.132,337.168 168.828,338.728 L170.46,340.672 C171.516,339.904 172.5,339.04 173.436,338.08 C174.252,338.992 175.212,339.856 176.268,340.672 C173.724,341.944 170.796,342.856 167.436,343.384 L168.54,345.664 Z M178.428,339.4 C177.084,338.536 175.932,337.528 174.948,336.4 C174.972,336.352 175.02,336.304 175.068,336.256 L182.148,336.256 C181.044,337.432 179.82,338.488 178.428,339.4 Z M173.988,354.568 L173.988,353.584 L183.084,353.584 L183.084,354.568 L185.58,354.568 L185.58,345.136 L171.516,345.136 L171.516,354.568 L173.988,354.568 Z M183.084,351.184 L173.988,351.184 L173.988,347.488 L183.084,347.488 L183.084,351.184 Z M196.796,338.08 L196.796,335.8 L212.204,335.8 L212.204,338.08 L214.556,338.08 L214.556,333.832 L205.796,333.832 C205.58,333.208 205.364,332.632 205.148,332.128 L202.628,332.56 C202.844,332.944 203.036,333.376 203.228,333.832 L194.444,333.832 L194.444,338.08 L196.796,338.08 Z M210.908,342.832 L211.1,340.744 L214.868,340.744 L214.868,338.776 L211.292,338.776 L211.484,336.664 L198.14,336.664 L197.828,338.776 L194.156,338.776 L194.156,340.744 L197.54,340.744 L197.228,342.832 L210.908,342.832 Z M203.468,339.088 L200.084,339.088 L200.252,338.128 L203.636,338.128 L203.468,339.088 Z M209.06,339.088 L205.652,339.088 L205.82,338.128 L209.156,338.128 L209.06,339.088 Z M203.108,341.416 L199.652,341.416 L199.82,340.48 L203.252,340.48 L203.108,341.416 Z M208.772,341.416 L205.292,341.416 L205.436,340.48 L208.892,340.48 L208.772,341.416 Z M195.524,354.664 C198.668,354.112 201.092,353.416 202.772,352.576 L202.004,351.544 L206.804,351.544 L206.228,352.624 C208.724,353.104 211.148,353.776 213.476,354.64 L214.268,352.648 C212.756,352.216 211.196,351.832 209.564,351.544 L211.868,351.544 L211.868,343.624 L197.156,343.624 L197.156,351.544 L200.204,351.544 C198.716,352 196.772,352.384 194.396,352.72 L195.524,354.664 Z M209.516,345.856 L199.508,345.856 L199.508,345.04 L209.516,345.04 L209.516,345.856 Z M209.516,347.92 L199.508,347.92 L199.508,347.128 L209.516,347.128 L209.516,347.92 Z M209.516,350.032 L199.508,350.032 L199.508,349.216 L209.516,349.216 L209.516,350.032 Z M240.796,341.56 L240.796,333.928 L238.036,333.928 L238.036,332.368 L235.948,332.368 L235.948,333.928 L234.652,333.928 L234.652,332.368 L232.54,332.368 L232.54,333.928 L229.78,333.928 L229.78,341.56 L240.796,341.56 Z M221.428,354.448 C222.268,353.2 222.772,351.616 222.94,349.744 L223.324,351.064 C224.212,350.8 225.052,350.512 225.82,350.224 L225.82,351.712 C225.82,352.144 225.604,352.384 225.172,352.384 C224.74,352.384 224.236,352.336 223.708,352.288 L224.26,354.304 L225.82,354.304 C227.212,354.304 227.908,353.68 227.908,352.456 L227.908,343.48 L228.988,343.48 L228.988,339.4 L228.172,339.4 L228.172,332.992 L220.756,332.992 L220.756,339.4 L219.868,339.4 L219.868,343.552 L220.972,343.552 L220.972,348.664 C220.948,350.392 220.54,351.832 219.772,352.936 L221.428,354.448 Z M223.588,339.4 L222.796,339.4 L222.796,334.864 L226.156,334.864 L226.156,336.232 L223.588,336.232 L223.588,339.4 Z M233.02,337.048 L231.676,337.048 L231.676,335.728 L233.02,335.728 L233.02,337.048 Z M235.948,337.048 L234.652,337.048 L234.652,335.728 L235.948,335.728 L235.948,337.048 Z M238.924,337.048 L237.532,337.048 L237.532,335.728 L238.924,335.728 L238.924,337.048 Z M226.156,339.4 L225.196,339.4 L225.196,337.912 L226.156,337.912 L226.156,339.4 Z M238.924,339.88 L237.532,339.88 L237.532,338.584 L238.924,338.584 L238.924,339.88 Z M235.948,339.88 L234.652,339.88 L234.652,338.584 L235.948,338.584 L235.948,339.88 Z M233.02,339.88 L231.676,339.88 L231.676,338.584 L233.02,338.584 L233.02,339.88 Z M226.948,342.616 L221.908,342.616 L221.908,341.224 L226.948,341.224 L226.948,342.616 Z M241.324,344.368 L241.324,342.448 L229.204,342.448 L229.204,344.368 L241.324,344.368 Z M222.988,349.168 L223.012,348.52 L223.012,348.52 L223.012,347.248 C223.636,347.416 224.284,347.632 224.932,347.896 L225.58,346.264 C224.74,345.976 223.876,345.736 223.012,345.568 L223.012,344.44 L225.82,344.44 L225.82,348.28 C224.956,348.592 223.996,348.88 222.988,349.168 Z M241.492,353.848 L241.492,351.76 L238.444,351.76 L238.852,350.248 L240.268,350.248 L240.268,345.256 L230.188,345.256 L230.188,350.248 L231.556,350.248 L232.012,351.76 L228.7,351.76 L228.7,353.848 L241.492,353.848 Z M238.132,348.424 L232.324,348.424 L232.324,347.008 L238.132,347.008 L238.132,348.424 Z M236.26,351.76 L234.22,351.76 L233.764,350.248 L236.668,350.248 L236.26,351.76 Z M249.996,337.408 L251.604,335.8 C250.596,334.648 249.396,333.52 247.98,332.368 L246.324,333.952 C247.908,335.2 249.132,336.352 249.996,337.408 Z M255.492,350.8 L255.492,346.912 L258.612,346.912 L258.612,350.776 L260.916,350.776 L260.916,346.912 L264.132,346.912 L264.132,347.92 C264.132,348.424 263.94,348.688 263.58,348.688 L261.684,348.592 L262.236,350.656 L264.252,350.656 C265.74,350.656 266.484,349.888 266.484,348.4 L266.484,337.768 L261.636,337.768 L261.588,337.72 C263.148,336.88 264.612,335.872 265.98,334.72 L265.98,332.968 L252.732,332.968 L252.732,335.032 L257.268,335.032 L255.972,336.256 C256.884,336.76 257.724,337.264 258.468,337.768 L253.14,337.768 L253.14,350.8 L255.492,350.8 Z M260.1,336.568 C259.404,336.04 258.66,335.536 257.844,335.032 L262.62,335.032 C261.828,335.584 260.988,336.088 260.1,336.568 Z M247.164,354.496 C248.196,352.432 248.94,351.4 249.396,351.4 C249.588,351.4 249.78,351.472 249.948,351.64 C250.764,352.432 251.652,353.008 252.66,353.392 C253.476,353.704 254.7,353.872 256.332,353.92 C257.94,353.968 259.572,354.016 261.204,354.016 L267.06,354.016 L267.636,351.664 C264.852,351.784 262.62,351.856 260.892,351.856 C259.212,351.856 257.724,351.832 256.428,351.808 C255.132,351.76 254.148,351.616 253.476,351.376 C252.804,351.088 252.084,350.608 251.316,349.936 C251.124,349.768 250.956,349.624 250.764,349.504 C251.196,348.376 251.556,346.96 251.868,345.232 L251.868,343.6 L249.084,343.6 C250.044,342.4 250.908,341.224 251.628,340.024 L251.628,338.08 L245.748,338.08 L245.748,340.336 L248.892,340.336 C248.148,341.416 247.212,342.568 246.108,343.816 L246.108,345.688 L249.516,345.688 C249.276,346.936 248.94,348.088 248.508,349.144 C247.5,349.528 246.468,350.752 245.364,352.816 L247.164,354.496 Z M264.132,341.344 L260.916,341.344 L260.916,339.832 L264.132,339.832 L264.132,341.344 Z M258.612,341.344 L255.492,341.344 L255.492,339.832 L258.612,339.832 L258.612,341.344 Z M258.612,344.872 L255.492,344.872 L255.492,343.36 L258.612,343.36 L258.612,344.872 Z M264.132,344.872 L260.916,344.872 L260.916,343.36 L264.132,343.36 L264.132,344.872 Z M284.372,354.424 L284.372,353.56 L289.292,353.56 L289.292,354.424 L291.692,354.424 L291.692,345.304 C291.932,345.4 292.172,345.472 292.436,345.568 L293.852,343.504 C291.86,342.88 290.108,341.992 288.62,340.864 C289.988,339.424 291.044,337.768 291.764,335.92 L291.764,334.12 L286.244,334.12 C286.436,333.688 286.604,333.208 286.748,332.728 L284.348,332.248 C283.628,334.432 282.308,336.304 280.34,337.84 L280.34,332.992 L272.42,332.992 L272.42,341.248 L275.756,341.248 L275.756,350.896 L274.58,351.208 L274.58,343.456 L272.372,343.456 L272.372,351.736 C272.036,351.808 271.676,351.88 271.316,351.976 L272.012,354.4 C275.3,353.608 278.204,352.744 280.724,351.832 L280.724,349.312 C279.884,349.624 278.996,349.936 278.084,350.224 L278.084,346.744 L280.22,346.744 L280.22,344.392 L278.084,344.392 L278.084,341.248 L280.34,341.248 L280.34,338.344 L281.612,340 C282.236,339.52 282.812,338.992 283.388,338.416 C283.868,339.28 284.444,340.072 285.092,340.816 C283.604,341.896 281.804,342.832 279.716,343.648 L281.228,345.688 C281.468,345.592 281.708,345.472 281.996,345.352 L281.996,354.424 L284.372,354.424 Z M277.964,338.944 L274.82,338.944 L274.82,335.296 L277.964,335.296 L277.964,338.944 Z M286.844,339.304 C286.076,338.488 285.428,337.6 284.852,336.64 L285.068,336.328 L289.1,336.328 C288.524,337.384 287.756,338.368 286.844,339.304 Z M291.452,345.208 L282.332,345.208 C284.012,344.416 285.524,343.504 286.82,342.496 C288.116,343.6 289.676,344.488 291.452,345.208 Z M289.292,351.304 L284.372,351.304 L284.372,347.464 L289.292,347.464 L289.292,351.304 Z M315.988,342.112 C316.876,342.088 317.572,341.896 318.076,341.56 C318.532,341.224 318.892,340.048 319.156,338.032 L316.852,337.312 C316.708,338.632 316.516,339.4 316.228,339.592 C315.94,339.736 315.628,339.832 315.316,339.832 L311.884,339.832 C311.452,339.832 311.236,339.616 311.236,339.232 L311.236,337.192 L318.052,336.712 L318.052,334.408 L311.236,334.888 L311.236,332.392 L308.812,332.392 L308.812,339.664 C308.812,341.296 309.604,342.112 311.188,342.112 L315.988,342.112 Z M299.092,342.712 C302.236,342.112 305.188,341.416 307.972,340.624 L307.348,338.464 C305.428,339.016 303.484,339.496 301.516,339.88 L301.516,337.072 L307.516,337.072 L307.516,334.792 L301.516,334.792 L301.516,332.416 L299.068,332.416 L299.068,339.352 C299.068,339.856 298.804,340.216 298.324,340.456 L299.092,342.712 Z M302.908,354.544 L302.908,353.608 L314.284,353.608 L314.284,354.52 L316.684,354.52 L316.684,343.312 L308.596,343.312 C308.884,342.832 309.124,342.328 309.316,341.8 L306.676,341.44 C306.484,342.064 306.22,342.688 305.884,343.312 L300.508,343.312 L300.508,354.544 L302.908,354.544 Z M314.284,347.392 L302.908,347.392 L302.908,345.568 L314.284,345.568 L314.284,347.392 Z M314.284,351.352 L302.908,351.352 L302.908,349.6 L314.284,349.6 L314.284,351.352 Z M339.828,354.328 C341.508,354.328 342.372,353.416 342.372,351.64 L342.372,335.992 L345.348,335.992 L345.348,333.568 L323.724,333.568 L323.724,335.992 L339.852,335.992 L339.852,351.016 C339.852,351.688 339.54,352.048 338.964,352.048 C337.764,352.048 336.492,352 335.196,351.904 L335.772,354.328 L339.828,354.328 Z M328.692,350.2 L328.692,348.28 L336.204,348.28 L336.204,338.872 L326.292,338.872 L326.292,350.2 L328.692,350.2 Z M333.828,346.024 L328.692,346.024 L328.692,341.104 L333.828,341.104 L333.828,346.024 Z M354.404,354.544 L354.404,338.416 C355.34,336.736 356.084,335.008 356.66,333.184 L354.284,332.08 C353.18,335.776 351.476,338.968 349.172,341.704 L349.988,344.368 C350.66,343.648 351.284,342.928 351.884,342.16 L351.884,354.544 L354.404,354.544 Z M371.036,354.664 L371.636,352.264 C368.756,352.12 366.188,351.472 363.956,350.344 C364.484,349.24 364.82,347.752 365.012,345.88 L370.628,345.88 L370.628,338.584 L365.132,338.584 L365.132,336.856 L371.516,336.856 L371.516,334.48 L365.132,334.48 L365.132,332.296 L362.612,332.296 L362.612,334.48 L356.708,334.48 L356.708,336.856 L362.612,336.856 L362.612,338.584 L357.332,338.584 L357.332,345.88 L362.492,345.88 C362.348,347.128 362.108,348.184 361.748,349 C360.668,348.232 359.684,347.296 358.796,346.216 L356.876,347.536 C357.884,348.784 359.036,349.888 360.308,350.848 C359.204,351.688 357.572,352.192 355.436,352.36 L356.516,354.64 C359.204,354.28 361.22,353.512 362.54,352.312 C364.988,353.656 367.82,354.448 371.036,354.664 Z M368.276,343.648 L365.132,343.648 L365.132,340.816 L368.276,340.816 L368.276,343.648 Z M362.612,343.648 L359.684,343.648 L359.684,340.816 L362.612,340.816 L362.612,343.648 Z M377.26,354.352 C378.724,352.384 379.612,349.888 379.924,346.912 L385.324,346.912 L385.324,353.68 L387.868,353.68 L387.868,346.912 L393.58,346.912 L393.58,350.248 C393.58,351.16 393.196,351.64 392.476,351.64 C391.66,351.64 390.796,351.592 389.836,351.496 L390.508,353.944 L393.268,353.944 C395.164,353.944 396.124,353.008 396.124,351.16 L396.124,333.04 L377.524,333.04 L377.524,344.92 C377.476,348.04 376.756,350.608 375.34,352.624 L377.26,354.352 Z M393.58,338.848 L387.868,338.848 L387.868,335.488 L393.58,335.488 L393.58,338.848 Z M385.324,338.848 L380.044,338.848 L380.044,335.488 L385.324,335.488 L385.324,338.848 Z M385.324,344.608 L380.044,344.608 L380.044,341.152 L385.324,341.152 L385.324,344.608 Z M393.58,344.608 L387.868,344.608 L387.868,341.152 L393.58,341.152 L393.58,344.608 Z M413.532,347.08 L414.132,334.864 L410.892,334.864 L411.492,347.08 L413.532,347.08 Z M412.5,352 C413.028,352 413.46,351.832 413.844,351.496 C414.18,351.16 414.372,350.704 414.372,350.176 C414.372,349.648 414.18,349.216 413.844,348.88 C413.484,348.544 413.028,348.376 412.5,348.376 C411.972,348.376 411.54,348.544 411.204,348.88 C410.82,349.216 410.652,349.648 410.652,350.176 C410.652,350.704 410.82,351.136 411.204,351.472 C411.54,351.808 411.972,352 412.5,352 Z" id="各實體通路皆可使用！" fill="#0E6DA0" fill-rule="nonzero"></path>
                <path d="M290.106,277.928 C298.062,277.928 304.488,275.684 309.384,271.298 C314.076,267.014 316.422,261.506 316.422,254.774 C316.422,250.49 315.198,246.92 312.75,244.166 C310.506,241.514 307.14,239.576 302.856,238.25 C310.914,235.598 314.994,230.294 314.994,222.338 C314.994,216.014 312.75,211.118 308.364,207.548 C303.876,203.978 297.858,202.244 290.514,202.244 C283.374,202.244 277.458,204.182 272.868,208.262 C267.972,212.342 265.32,218.054 264.708,225.398 L276.438,225.398 C276.846,221.012 278.274,217.748 280.722,215.606 C283.068,213.464 286.332,212.444 290.616,212.444 C294.798,212.444 297.96,213.362 300.102,215.198 C302.04,217.034 303.06,219.686 303.06,223.256 C303.06,226.826 301.938,229.58 299.796,231.416 C297.552,233.252 294.288,234.17 290.004,234.17 L284.904,234.17 L284.904,243.146 L290.004,243.146 C294.696,243.146 298.266,244.064 300.714,246.104 C303.162,248.042 304.488,251.102 304.488,255.284 C304.488,258.752 303.264,261.608 300.918,263.954 C298.266,266.504 294.594,267.83 290.004,267.83 C285.822,267.83 282.456,266.606 279.906,264.26 C277.05,261.71 275.622,258.038 275.418,253.346 L263.28,253.346 C263.892,261.506 266.748,267.83 271.848,272.114 C276.438,275.99 282.558,277.928 290.106,277.928 Z" id="3" fill="#BF412E" fill-rule="nonzero"></path>
            </g>
        </g>
    </g>
</svg>