<?xml version="1.0" encoding="UTF-8"?>
<svg width="417px" height="274px" viewBox="0 0 417 274" version="1.1" xmlns="http://www.w3.org/2000/svg" xmlns:xlink="http://www.w3.org/1999/xlink">
    <!-- Generator: Sketch 61.1 (89650) - https://sketch.com -->
    <title>Group 20 outline</title>
    <desc>Created with Sketch.</desc>
    <defs>
        <polygon id="path-1" points="0 0.0743 272.9998 0.0743 272.9998 129 0 129"></polygon>
        <polygon id="path-3" points="0.2826 0.3555 248.7176 0.3555 248.7176 117 0.2826 117"></polygon>
        <polygon id="path-5" points="0 250 273 250 273 0 0 0"></polygon>
        <polygon id="path-7" points="0 0.2104 213 0.2104 213 73.2104 0 73.2104"></polygon>
    </defs>
    <g id="懶人包" stroke="none" stroke-width="1" fill="none" fill-rule="evenodd">
        <g id="小資振興_懶人包_600藝fun" transform="translate(-453.000000, -834.000000)">
            <g id="Group-20-outline" transform="translate(453.000000, 833.000000)">
                <g id="Group-8" transform="translate(0.000000, 25.000000)">
                    <g id="Group-103">
                        <path d="M214.6971,116.0118 L214.6971,136.1648 C212.0491,139.2448 209.1691,142.1238 206.0891,144.7758 C206.0651,144.7958 206.0431,144.8168 206.0191,144.8358 C202.8871,147.5258 199.5451,149.9848 196.0241,152.1818 C195.2041,152.6948 194.3731,153.1918 193.5331,153.6748 C193.5301,153.6778 193.5271,153.6778 193.5211,153.6808 C191.9681,154.5748 190.3841,155.4208 188.7671,156.2118 L188.7641,156.2118 C182.1861,159.4358 175.1131,161.7938 167.6861,163.1458 C165.8141,163.4888 163.9221,163.7648 162.0061,163.9748 C161.2661,164.0548 160.5271,164.1268 159.7821,164.1868 C157.6041,164.3678 155.4011,164.4598 153.1781,164.4658 L152.8271,164.4658 C150.6181,164.4598 148.4291,164.3678 146.2661,164.1898 C146.2581,164.1898 146.2461,164.1898 146.2341,164.1868 C145.4901,164.1268 144.7511,164.0548 144.0111,163.9748 C142.0721,163.7618 140.1571,163.4828 138.2611,163.1348 C130.8571,161.7798 123.8041,159.4238 117.2501,156.2118 C115.6311,155.4178 114.0401,154.5728 112.4831,153.6778 C111.6431,153.1918 110.8121,152.6948 109.9931,152.1818 C106.4461,149.9698 103.0841,147.4908 99.9281,144.7758 C96.8471,142.1238 93.9681,139.2448 91.3191,136.1648 L91.3191,113.6568 C91.3191,107.7198 93.2181,102.2288 96.4391,97.7508 C101.3891,90.8738 109.4671,86.3928 118.5871,86.3928 L187.4211,86.3928 C188.7701,86.3928 190.0951,86.4908 191.3931,86.6808 C198.8661,87.7708 205.3551,91.8918 209.5721,97.7598 C212.7911,102.2318 214.6831,107.7228 214.6831,113.6568 L214.6831,116.0118 L214.6971,116.0118 Z" id="Fill-1" fill="#6BA997"></path>
                        <path d="M112.4832,121.0733 L112.4832,153.6773 C111.6432,153.1913 110.8122,152.6943 109.9932,152.1813 C106.4462,149.9693 103.0842,147.4913 99.9282,144.7753 C96.8472,142.1243 93.9682,139.2453 91.3192,136.1653 L91.3192,121.0733 L112.4832,121.0733 Z" id="Fill-3" fill="#FFFFFF"></path>
                        <path d="M214.6971,121.0733 L214.6971,136.1653 C212.0491,139.2453 209.1691,142.1243 206.0891,144.7753 C206.0651,144.7963 206.0431,144.8163 206.0191,144.8363 C202.8871,147.5253 199.5451,149.9843 196.0241,152.1813 C195.2041,152.6943 194.3731,153.1913 193.5331,153.6753 L193.5331,121.0733 L214.6971,121.0733 Z" id="Fill-5" fill="#FFFFFF"></path>
                        <path d="M118.3641,50.9581 L118.3631,50.9581 C115.1431,50.9581 112.5321,48.3481 112.5321,45.1271 L112.5321,36.2391 C112.5321,33.0191 115.1431,30.4081 118.3631,30.4081 L118.3641,30.4081 C121.5841,30.4081 124.1951,33.0191 124.1951,36.2391 L124.1951,45.1271 C124.1951,48.3481 121.5841,50.9581 118.3641,50.9581" id="Fill-7" fill="#FFFFFF"></path>
                        <path d="M118.3641,48.212 L118.3641,48.212 C115.1431,48.212 112.5321,45.602 112.5321,42.381 L112.5321,45.128 C112.5321,48.348 115.1431,50.958 118.3641,50.958 C121.5841,50.958 124.1951,48.348 124.1951,45.128 L124.1951,42.381 C124.1951,45.602 121.5841,48.212 118.3641,48.212" id="Fill-9" fill="#D0D2D3"></path>
                        <path d="M187.6532,50.9581 L187.6532,50.9581 C184.4322,50.9581 181.8222,48.3481 181.8222,45.1271 L181.8222,36.2391 C181.8222,33.0191 184.4322,30.4081 187.6532,30.4081 C190.8742,30.4081 193.4842,33.0191 193.4842,36.2391 L193.4842,45.1271 C193.4842,48.3481 190.8742,50.9581 187.6532,50.9581" id="Fill-11" fill="#FFFFFF"></path>
                        <path d="M187.6532,48.212 L187.6532,48.212 C184.4322,48.212 181.8222,45.602 181.8222,42.381 L181.8222,45.128 C181.8222,48.348 184.4322,50.958 187.6532,50.958 C190.8742,50.958 193.4842,48.348 193.4842,45.128 L193.4842,42.381 C193.4842,45.602 190.8742,48.212 187.6532,48.212" id="Fill-13" fill="#D0D2D3"></path>
                        <path d="M139.4373,67.9659 L139.4373,86.3929 L139.4273,86.3929 L139.4303,86.3959 C146.2633,95.3549 159.7483,95.3529 166.5793,86.3929 L166.5793,67.9659 L139.4373,67.9659 Z" id="Fill-15" fill="#FFFFFF"></path>
                        <path d="M118.8729,28.087 C120.0019,22.288 122.5709,17.004 126.1969,12.625 C127.2449,11.355 128.3839,10.164 129.6009,9.056 C135.7799,3.427 143.9919,0 153.0089,0 C153.4079,0 153.8109,0.007 154.2119,0.024 C154.3479,0.024 154.4829,0.03 154.6149,0.037 C163.5839,0.444 171.6609,4.243 177.6059,10.189 C182.8999,15.483 186.4969,22.482 187.5039,30.29 C187.6929,31.761 187.7919,33.259 187.7919,34.78 L187.7919,41.668 C187.7919,60.878 172.2209,76.448 153.0089,76.448 C133.8009,76.448 118.2259,60.878 118.2259,41.668 L118.2259,34.78 C118.2259,33.303 118.3169,31.849 118.4969,30.422 L118.8729,28.087 Z" id="Fill-17" fill="#FFFFFF"></path>
                        <path d="M153.0086,70.9551 C133.8006,70.9551 118.2256,55.3851 118.2256,36.1751 L118.2256,41.6681 C118.2256,60.8781 133.8006,76.4481 153.0086,76.4481 C172.2206,76.4481 187.7916,60.8781 187.7916,41.6681 L187.7916,36.1751 C187.7916,55.3851 172.2206,70.9551 153.0086,70.9551" id="Fill-19" fill="#D0D2D3"></path>
                        <path d="M118.8729,28.087 L122.1939,28.087 L122.1939,44.755 C122.1939,45.842 121.3549,46.789 120.2689,46.818 C119.1439,46.85 118.2259,45.95 118.2259,44.837 L118.2259,32.846 C118.2259,31.237 118.4429,29.637 118.8729,28.087" id="Fill-21" fill="#4B6084"></path>
                        <path d="M187.7918,32.585 L187.7918,44.767 C187.7918,45.775 187.0668,46.676 186.0648,46.803 C184.8538,46.957 183.8218,46.017 183.8218,44.837 L183.8218,28.087 L187.1468,28.087 C187.5748,29.548 187.7918,31.063 187.7918,32.585" id="Fill-23" fill="#4B6084"></path>
                        <path d="M154.2118,0.0235 C150.6928,5.5145 141.9728,17.3835 127.8488,25.7315 C124.4478,27.7385 121.3268,29.2695 118.4968,30.4215 C118.4998,30.4195 118.4998,30.4125 118.4998,30.4085 C119.3408,23.6985 122.0928,17.5805 126.1968,12.6255 C127.2448,11.3545 128.3838,10.1645 129.6008,9.0555 C135.7788,3.4265 143.9918,0.0005 153.0088,0.0005 C153.4078,0.0005 153.8118,0.0065 154.2118,0.0235" id="Fill-25" fill="#4B6084"></path>
                        <path d="M187.5038,30.2901 C182.7688,31.7241 173.4378,33.0761 158.6178,29.2021 C143.6328,25.2871 132.2618,17.5221 126.1968,12.6251 C127.2448,11.3541 128.3838,10.1641 129.6008,9.0561 C135.7788,3.4271 143.9918,0.0001 153.0088,0.0001 C153.5438,0.0001 154.0828,0.0101 154.6148,0.0371 C163.5838,0.4441 171.6608,4.2431 177.6068,10.1881 C182.8998,15.4821 186.4968,22.4811 187.5038,30.2901" id="Fill-27" fill="#808F91"></path>
                        <path d="M158.618,8.8663 C152.056,7.1523 146.187,4.6993 141.154,2.0733 C136.842,3.6363 132.927,6.0263 129.6,9.0553 C128.384,10.1643 127.245,11.3543 126.197,12.6253 C132.262,17.5223 143.633,25.2873 158.618,29.2023 C173.437,33.0763 182.768,31.7233 187.504,30.2903 C186.569,23.0393 183.399,16.4893 178.713,11.3513 C173.674,11.5793 167.031,11.0653 158.618,8.8663" id="Fill-29" fill="#4B6084"></path>
                        <path d="M158.618,15.6446 C149.037,13.1416 140.937,9.0656 134.754,5.1706 C132.916,6.3066 131.19,7.6076 129.6,9.0556 C128.384,10.1646 127.245,11.3546 126.197,12.6246 C132.262,17.5226 143.633,25.2876 158.618,29.2026 C173.437,33.0766 182.768,31.7236 187.504,30.2906 C186.919,25.7526 185.454,21.4926 183.296,17.6776 C177.981,18.5136 169.889,18.5906 158.618,15.6446" id="Fill-31" fill="#808F91"></path>
                        <path d="M158.618,22.4239 C146.325,19.2119 136.466,13.4099 129.972,8.7259 C129.847,8.8349 129.723,8.9449 129.6,9.0559 C128.384,10.1639 127.245,11.3549 126.197,12.6249 C132.262,17.5229 143.633,25.2869 158.618,29.2019 C173.437,33.0759 182.768,31.7239 187.504,30.2899 C187.22,28.0909 186.724,25.9589 186.05,23.9079 C180.971,25.1529 172.048,25.9349 158.618,22.4239" id="Fill-33" fill="#4B6084"></path>
                        <path d="M153.0086,53.1885 L153.0086,53.1885 C150.8866,53.1885 149.1666,51.4675 149.1666,49.3465 L149.1666,44.2925 C149.1666,42.1705 150.8866,40.4505 153.0086,40.4505 C155.1306,40.4505 156.8506,42.1705 156.8506,44.2925 L156.8506,49.3465 C156.8506,51.4675 155.1306,53.1885 153.0086,53.1885" id="Fill-35" fill="#A62873"></path>
                        <path d="M139.7899,37.4532 C139.7899,39.0752 138.4749,40.3912 136.8519,40.3912 C135.2289,40.3912 133.9139,39.0752 133.9139,37.4532 C133.9139,35.8312 135.2289,34.5152 136.8519,34.5152 C138.4749,34.5152 139.7899,35.8312 139.7899,37.4532" id="Fill-37" fill="#A62873"></path>
                        <path d="M172.1024,37.4532 C172.1024,39.0752 170.7884,40.3912 169.1644,40.3912 C167.5424,40.3912 166.2274,39.0752 166.2274,37.4532 C166.2274,35.8312 167.5424,34.5152 169.1644,34.5152 C170.7884,34.5152 172.1024,35.8312 172.1024,37.4532" id="Fill-39" fill="#A62873"></path>
                        <path d="M153.0086,63.4737 C149.2546,63.4737 145.7246,62.0107 143.0676,59.3537 C142.7166,59.0027 142.7166,58.4367 143.0676,58.0857 C143.4166,57.7367 143.9846,57.7367 144.3336,58.0857 C146.6536,60.4057 149.7346,61.6817 153.0086,61.6817 C156.2826,61.6817 159.3626,60.4057 161.6826,58.0857 C162.0326,57.7367 162.5996,57.7367 162.9496,58.0857 C163.2996,58.4367 163.2996,59.0027 162.9496,59.3537 C160.2916,62.0107 156.7616,63.4737 153.0086,63.4737" id="Fill-41" fill="#A62873"></path>
                        <polygon id="Fill-43" fill="#F23E23" points="153.0086 160.4063 152.9916 160.4253 152.9976 160.4443 153.0096 160.4073"></polygon>
                        <path d="M183.4832,98.834 C183.9812,102.329 183.2622,99.504 183.4832,98.832 C178.9992,93.568 173.2842,89.502 166.5792,86.393 L166.5782,86.394 C159.7472,95.353 146.2632,95.354 139.4302,86.396 L139.4282,86.393 C125.2952,92.948 115.5442,103.759 112.4832,121.073 L112.4832,153.678 C114.0402,154.572 115.6302,155.418 117.2502,156.211 C123.8042,159.424 130.8572,161.779 138.2612,163.135 C140.1572,163.482 142.0722,163.762 144.0112,163.975 C144.7512,164.055 145.4902,164.127 146.2342,164.187 C146.2462,164.189 146.2572,164.189 146.2662,164.189 L151.3112,164.399 L152.8272,164.46 L152.8272,164.475 L152.8532,164.475 L153.0052,164.466 L153.0082,164.466 L153.1552,164.475 L153.1782,164.475 L153.1782,164.46 L154.7062,164.397 L159.7822,164.187 C160.5272,164.127 161.2662,164.055 162.0052,163.975 C163.9212,163.765 165.8142,163.488 167.6862,163.146 C175.1132,161.794 182.1862,159.436 188.7642,156.211 L188.7672,156.211 C190.3832,155.421 191.9682,154.575 193.5212,153.681 L193.5212,121.073 C191.9142,111.971 188.4552,104.668 183.4832,98.834" id="Fill-45" fill="#F3BDCD"></path>
                        <path d="M193.5331,153.6749 L193.5211,128.1749 L193.5181,121.0729 L188.7671,156.2119 C190.3841,155.4209 191.9691,154.5749 193.5211,153.6809 L193.5331,153.6749 Z" id="Fill-47" fill="#0E6DA0"></path>
                        <path d="M117.2498,156.212 C115.6308,155.418 114.0398,154.572 112.4828,153.678 L112.4828,121.073 L117.2498,156.212 Z" id="Fill-49" fill="#0E6DA0"></path>
                        <path d="M166.578,86.3926 C159.748,95.3526 146.264,95.3536 139.431,86.3956 L139.429,86.3926 L133.782,86.3926 C136.544,92.7396 144.105,97.2976 153.009,97.2976 C161.911,97.2976 169.474,92.7396 172.235,86.3926 L166.578,86.3926 Z" id="Fill-51" fill="#0E6DA0"></path>
                        <path d="M98.1288,118.5147 L98.1288,120.8057 C98.1288,123.2187 100.0848,125.1747 102.4978,125.1747 C104.9108,125.1747 106.8668,123.2187 106.8668,120.8057 L106.8668,118.5147 C106.8668,116.1017 104.9108,114.1457 102.4978,114.1457 C100.0848,114.1457 98.1288,116.1017 98.1288,118.5147" id="Fill-53" fill="#FFFFFF"></path>
                        <path d="M208.0887,118.5147 L208.0887,120.8057 C208.0887,123.2187 206.1327,125.1747 203.7197,125.1747 C201.3067,125.1747 199.3507,123.2187 199.3507,120.8057 L199.3507,118.5147 C199.3507,116.1017 201.3067,114.1457 203.7197,114.1457 C206.1327,114.1457 208.0887,116.1017 208.0887,118.5147" id="Fill-55" fill="#FFFFFF"></path>
                        <g id="Group-59" transform="translate(0.000000, 121.000000)">
                            <mask id="mask-2" fill="white">
                                <use xlink:href="#path-1"></use>
                            </mask>
                            <g id="Clip-58"></g>
                            <path d="M272.9998,0.0743 L272.9998,128.5203 C272.8538,128.6843 272.7148,128.8433 272.5628,129.0003 L0.4368,129.0003 C0.2848,128.8433 0.1458,128.6843 -0.0002,128.5203 L-0.0002,0.0743 L272.9998,0.0743 Z" id="Fill-57" fill="#AE436E" mask="url(#mask-2)"></path>
                        </g>
                        <g id="Group-62" transform="translate(12.000000, 133.000000)">
                            <mask id="mask-4" fill="white">
                                <use xlink:href="#path-3"></use>
                            </mask>
                            <g id="Clip-61"></g>
                            <polygon id="Fill-60" fill="#F8F6DE" mask="url(#mask-4)" points="248.7176 1.3555 248.7176 117.0005 0.2826 117.0005 0.2826 0.3555"></polygon>
                        </g>
                        <path d="M99.0985,116.502 L99.0985,116.502 C97.2205,116.502 95.6995,118.024 95.6995,119.901 L95.6995,118.156 C95.6995,116.278 94.1765,114.757 92.2985,114.757 C90.4215,114.757 88.8995,116.278 88.8995,118.156 L88.8995,119.901 C88.8995,118.024 87.3765,116.502 85.4995,116.502 C83.6215,116.502 82.1005,118.024 82.1005,119.901 L82.1005,121.647 C82.1005,119.77 80.5775,118.247 78.7005,118.247 C76.8235,118.247 75.3005,119.77 75.3005,121.647 L75.3005,129.891 C75.3005,131.768 76.8235,133.29 78.7005,133.29 C80.5775,133.29 82.1005,131.768 82.1005,129.891 C82.1005,131.768 83.6215,133.29 85.4995,133.29 C87.3765,133.29 88.8995,131.768 88.8995,129.891 C88.8995,131.768 90.4215,133.29 92.2985,133.29 C94.1765,133.29 95.6995,131.768 95.6995,129.891 C95.6995,131.768 97.2205,133.29 99.0985,133.29 C100.9755,133.29 102.4975,131.768 102.4975,129.891 L102.4975,119.901 C102.4975,118.024 100.9755,116.502 99.0985,116.502" id="Fill-63" fill="#D0D2D3"></path>
                        <path d="M227.5174,118.2471 C225.6394,118.2471 224.1174,119.7691 224.1174,121.6461 L224.1174,119.9011 C224.1174,118.0241 222.5954,116.5021 220.7174,116.5021 C218.8404,116.5021 217.3184,118.0241 217.3184,119.9011 L217.3184,118.1561 C217.3184,116.2781 215.7954,114.7571 213.9184,114.7571 C212.0404,114.7571 210.5184,116.2781 210.5184,118.1561 L210.5184,119.9011 C210.5184,118.0241 208.9964,116.5021 207.1194,116.5021 C205.2424,116.5021 203.7194,118.0241 203.7194,119.9011 L203.7194,129.8911 C203.7194,131.7681 205.2424,133.2901 207.1194,133.2901 C208.9964,133.2901 210.5184,131.7681 210.5184,129.8911 C210.5184,131.7681 212.0404,133.2901 213.9184,133.2901 C215.7954,133.2901 217.3184,131.7681 217.3184,129.8911 C217.3184,131.7681 218.8404,133.2901 220.7174,133.2901 C222.5954,133.2901 224.1174,131.7681 224.1174,129.8911 C224.1174,131.7681 225.6394,133.2901 227.5174,133.2901 C229.3944,133.2901 230.9164,131.7681 230.9164,129.8911 L230.9164,121.6461 C230.9164,119.7691 229.3944,118.2471 227.5174,118.2471" id="Fill-65" fill="#D0D2D3"></path>
                        <path d="M99.0985,128.9268 L99.0985,128.9268 C100.9755,128.9268 102.4975,127.4058 102.4975,125.5278 L102.4975,115.5388 C102.4975,113.6608 100.9755,112.1398 99.0985,112.1398 C97.2205,112.1398 95.6995,113.6608 95.6995,115.5388 L95.6995,125.5278 C95.6995,127.4058 97.2205,128.9268 99.0985,128.9268" id="Fill-67" fill="#FFFFFF"></path>
                        <path d="M92.2987,128.9268 L92.2987,128.9268 C94.1767,128.9268 95.6987,127.4058 95.6987,125.5278 L95.6987,113.7938 C95.6987,111.9158 94.1767,110.3938 92.2987,110.3938 C90.4217,110.3938 88.8997,111.9158 88.8997,113.7938 L88.8997,125.5278 C88.8997,127.4058 90.4217,128.9268 92.2987,128.9268" id="Fill-69" fill="#FFFFFF"></path>
                        <path d="M85.4998,128.9268 L85.4998,128.9268 C87.3778,128.9268 88.8988,127.4058 88.8988,125.5278 L88.8988,115.5388 C88.8988,113.6608 87.3778,112.1398 85.4998,112.1398 C83.6218,112.1398 82.1008,113.6608 82.1008,115.5388 L82.1008,125.5278 C82.1008,127.4058 83.6218,128.9268 85.4998,128.9268" id="Fill-71" fill="#FFFFFF"></path>
                        <path d="M78.7,128.9268 L78.7,128.9268 C80.578,128.9268 82.1,127.4058 82.1,125.5278 L82.1,117.2838 C82.1,115.4058 80.578,113.8848 78.7,113.8848 C76.823,113.8848 75.301,115.4058 75.301,117.2838 L75.301,125.5278 C75.301,127.4058 76.823,128.9268 78.7,128.9268" id="Fill-73" fill="#FFFFFF"></path>
                        <path d="M207.119,128.9268 L207.119,128.9268 C205.242,128.9268 203.72,127.4058 203.72,125.5278 L203.72,115.5388 C203.72,113.6608 205.242,112.1398 207.119,112.1398 C208.997,112.1398 210.518,113.6608 210.518,115.5388 L210.518,125.5278 C210.518,127.4058 208.997,128.9268 207.119,128.9268" id="Fill-75" fill="#FFFFFF"></path>
                        <path d="M213.9188,128.9268 L213.9188,128.9268 C212.0408,128.9268 210.5188,127.4058 210.5188,125.5278 L210.5188,113.7938 C210.5188,111.9158 212.0408,110.3938 213.9188,110.3938 C215.7958,110.3938 217.3178,111.9158 217.3178,113.7938 L217.3178,125.5278 C217.3178,127.4058 215.7958,128.9268 213.9188,128.9268" id="Fill-77" fill="#FFFFFF"></path>
                        <path d="M220.7176,128.9268 L220.7176,128.9268 C218.8406,128.9268 217.3186,127.4058 217.3186,125.5278 L217.3186,115.5388 C217.3186,113.6608 218.8406,112.1398 220.7176,112.1398 C222.5956,112.1398 224.1166,113.6608 224.1166,115.5388 L224.1166,125.5278 C224.1166,127.4058 222.5956,128.9268 220.7176,128.9268" id="Fill-79" fill="#FFFFFF"></path>
                        <path d="M227.5174,128.9268 L227.5174,128.9268 C225.6394,128.9268 224.1174,127.4058 224.1174,125.5278 L224.1174,117.2838 C224.1174,115.4058 225.6394,113.8848 227.5174,113.8848 C229.3944,113.8848 230.9164,115.4058 230.9164,117.2838 L230.9164,125.5278 C230.9164,127.4058 229.3944,128.9268 227.5174,128.9268" id="Fill-81" fill="#FFFFFF"></path>
                        <mask id="mask-6" fill="white">
                            <use xlink:href="#path-5"></use>
                        </mask>
                        <g id="Clip-84"></g>
                        <polygon id="Fill-83" fill="#AE436E" mask="url(#mask-6)" points="0 250 273 250 273 237.719 0 237.719"></polygon>
                        <path d="M79.9559,41.9756 L79.9559,85.7886 C79.9559,87.7256 79.1129,89.4666 77.7739,90.6656 C76.6179,91.7006 75.0859,92.3326 73.4109,92.3326 L32.5059,92.3326 C28.8929,92.3326 25.9609,89.4056 25.9609,85.7886 L25.9609,41.9756 C25.9609,38.3636 28.8929,35.4316 32.5059,35.4316 L73.4109,35.4316 C77.0229,35.4316 79.9559,38.3636 79.9559,41.9756" id="Fill-85" fill="#E68AA3" mask="url(#mask-6)"></path>
                        <path d="M73.411,89.4161 L32.506,89.4161 C28.89,89.4161 25.961,86.4851 25.961,82.8711 L25.961,85.7901 C25.961,89.4041 28.89,92.3341 32.506,92.3341 L73.411,92.3341 C77.025,92.3341 79.956,89.4041 79.956,85.7901 L79.956,82.8711 C79.956,86.4851 77.025,89.4161 73.411,89.4161" id="Fill-86" fill="#821F22" mask="url(#mask-6)"></path>
                        <path d="M36.9051,41.9004 L36.4821,41.9004 C35.2681,41.9004 34.2841,40.9174 34.2841,39.7024 L34.2841,31.1624 C34.2841,29.9484 35.2681,28.9634 36.4821,28.9634 L36.9051,28.9634 C38.1191,28.9634 39.1031,29.9484 39.1031,31.1624 L39.1031,39.7024 C39.1031,40.9174 38.1191,41.9004 36.9051,41.9004" id="Fill-87" fill="#A00B0F" mask="url(#mask-6)"></path>
                        <path d="M47.7479,41.9004 L47.3249,41.9004 C46.1109,41.9004 45.1269,40.9174 45.1269,39.7024 L45.1269,31.1624 C45.1269,29.9484 46.1109,28.9634 47.3249,28.9634 L47.7479,28.9634 C48.9619,28.9634 49.9459,29.9484 49.9459,31.1624 L49.9459,39.7024 C49.9459,40.9174 48.9619,41.9004 47.7479,41.9004" id="Fill-88" fill="#A00B0F" mask="url(#mask-6)"></path>
                        <path d="M58.5907,41.9004 L58.1687,41.9004 C56.9537,41.9004 55.9697,40.9174 55.9697,39.7024 L55.9697,31.1624 C55.9697,29.9484 56.9537,28.9634 58.1687,28.9634 L58.5907,28.9634 C59.8047,28.9634 60.7887,29.9484 60.7887,31.1624 L60.7887,39.7024 C60.7887,40.9174 59.8047,41.9004 58.5907,41.9004" id="Fill-89" fill="#A00B0F" mask="url(#mask-6)"></path>
                        <path d="M69.4334,41.9004 L69.0114,41.9004 C67.7964,41.9004 66.8134,40.9174 66.8134,39.7024 L66.8134,31.1624 C66.8134,29.9484 67.7964,28.9634 69.0114,28.9634 L69.4334,28.9634 C70.6474,28.9634 71.6314,29.9484 71.6314,31.1624 L71.6314,39.7024 C71.6314,40.9174 70.6474,41.9004 69.4334,41.9004" id="Fill-90" fill="#A00B0F" mask="url(#mask-6)"></path>
                        <polygon id="Fill-91" fill="#A62873" mask="url(#mask-6)" points="33.491 56.708 43.85 56.708 43.85 46.349 33.491 46.349"></polygon>
                        <polygon id="Fill-92" fill="#FFFFFF" mask="url(#mask-6)" points="47.779 56.708 58.138 56.708 58.138 46.349 47.779 46.349"></polygon>
                        <polygon id="Fill-93" fill="#FFFFFF" mask="url(#mask-6)" points="62.066 56.708 72.426 56.708 72.426 46.349 62.066 46.349"></polygon>
                        <polygon id="Fill-94" fill="#FFFFFF" mask="url(#mask-6)" points="33.491 70.478 43.85 70.478 43.85 60.119 33.491 60.119"></polygon>
                        <polygon id="Fill-95" fill="#FFFFFF" mask="url(#mask-6)" points="47.779 70.478 58.138 70.478 58.138 60.119 47.779 60.119"></polygon>
                        <polygon id="Fill-96" fill="#FFFFFF" mask="url(#mask-6)" points="62.066 70.478 72.426 70.478 72.426 60.119 62.066 60.119"></polygon>
                        <polygon id="Fill-97" fill="#FFFFFF" mask="url(#mask-6)" points="33.491 84.246 43.85 84.246 43.85 73.887 33.491 73.887"></polygon>
                        <polygon id="Fill-98" fill="#A62873" mask="url(#mask-6)" points="47.779 84.246 58.138 84.246 58.138 73.887 47.779 73.887"></polygon>
                        <polygon id="Fill-99" fill="#FFFFFF" mask="url(#mask-6)" points="62.066 84.246 72.426 84.246 72.426 73.887 62.066 73.887"></polygon>
                        <path d="M79.9559,49.7422 L79.9559,85.7882 C79.9559,87.7252 79.1129,89.4672 77.7739,90.6662 C71.2419,86.4772 66.9179,79.1562 66.9179,70.8282 C66.9179,61.5962 72.2239,53.6072 79.9559,49.7422" id="Fill-100" fill="#974413" mask="url(#mask-6)"></path>
                        <path d="M109.9286,66.4629 C109.9286,77.2029 101.2216,85.9099 90.4806,85.9099 C79.7396,85.9099 71.0326,77.2029 71.0326,66.4629 C71.0326,55.7229 79.7396,47.0159 90.4806,47.0159 C101.2216,47.0159 109.9286,55.7229 109.9286,66.4629" id="Fill-101" fill="#F0CA67" mask="url(#mask-6)"></path>
                        <path d="M96.3163,72.9268 C95.8683,72.9268 95.4163,72.7888 95.0273,72.5038 L89.1903,68.2218 C88.6293,67.8108 88.2983,67.1568 88.2983,66.4628 L88.2983,54.1658 C88.2983,52.9608 89.2753,51.9848 90.4803,51.9848 C91.6853,51.9848 92.6623,52.9608 92.6623,54.1658 L92.6623,65.3578 L97.6083,68.9868 C98.5803,69.6978 98.7893,71.0638 98.0773,72.0348 C97.6493,72.6178 96.9873,72.9268 96.3163,72.9268" id="Fill-102" fill="#FFFFFF" mask="url(#mask-6)"></path>
                    </g>
                    <path d="M49.2073282,174 L49.2073282,170.450391 L39.6706095,170.450391 L44.7131876,165.133594 C46.0944376,163.620312 47.0694376,162.294922 47.6381876,161.157422 C48.2069376,160.019922 48.4913126,158.902734 48.4913126,157.805859 C48.4913126,155.805078 47.859086,154.25625 46.5946329,153.159375 C45.3301798,152.0625 43.5553751,151.514062 41.2702188,151.514062 C39.7772501,151.514062 38.4417032,151.831445 37.2635782,152.466211 C36.0854532,153.100977 35.1739298,153.976953 34.5290079,155.094141 C33.884086,156.211328 33.5616251,157.445312 33.5616251,158.796094 L33.5616251,158.796094 L37.9795938,158.796094 C37.9795938,157.678906 38.2665079,156.777539 38.840336,156.091992 C39.4141642,155.406445 40.1987345,155.063672 41.194047,155.063672 C42.1182657,155.063672 42.8292032,155.345508 43.3268595,155.90918 C43.8245157,156.472852 44.0733438,157.247266 44.0733438,158.232422 C44.0733438,158.953516 43.837211,159.715234 43.3649454,160.517578 C42.8926798,161.319922 42.1639688,162.259375 41.1788126,163.335938 L41.1788126,163.335938 L34.003422,170.983594 L34.003422,174 L49.2073282,174 Z M60.7054219,174.304688 C63.1530782,174.304688 65.0116719,173.492188 66.2812032,171.867188 C67.5507344,170.242188 68.1855,167.896094 68.1855,164.828906 L68.1855,164.828906 L68.1855,160.746094 C68.1550313,157.770313 67.4999532,155.487695 66.2202657,153.898242 C64.9405782,152.308789 63.0921407,151.514062 60.6749532,151.514062 C58.2577657,151.514062 56.4067891,152.316406 55.1220235,153.921094 C53.8372579,155.525781 53.194875,157.876953 53.194875,160.974609 L53.194875,160.974609 L53.194875,165.057422 C53.2253438,168.033203 53.8804219,170.318359 55.1601094,171.912891 C56.4397969,173.507422 58.2882344,174.304688 60.7054219,174.304688 Z M60.7054219,170.755078 C59.6187032,170.755078 58.8290547,170.31582 58.3364766,169.437305 C57.8438985,168.558789 57.5976094,167.215625 57.5976094,165.407813 L57.5976094,165.407813 L57.5976094,160.014844 C57.6280782,158.31875 57.8896016,157.07207 58.3821797,156.274805 C58.8747579,155.477539 59.6390157,155.078906 60.6749532,155.078906 C61.7413594,155.078906 62.5259297,155.497852 63.0286641,156.335742 C63.5313985,157.173633 63.7827657,158.511719 63.7827657,160.35 L63.7827657,160.35 L63.7827657,165.621094 C63.7624532,167.357812 63.513625,168.647656 63.0362813,169.490625 C62.5589375,170.333594 61.7819844,170.755078 60.7054219,170.755078 Z M87.7121094,174 L87.7121094,170.450391 L78.1753906,170.450391 L83.2179687,165.133594 C84.5992188,163.620312 85.5742188,162.294922 86.1429687,161.157422 C86.7117187,160.019922 86.9960938,158.902734 86.9960938,157.805859 C86.9960938,155.805078 86.3638672,154.25625 85.0994141,153.159375 C83.8349609,152.0625 82.0601563,151.514062 79.775,151.514062 C78.2820312,151.514062 76.9464844,151.831445 75.7683594,152.466211 C74.5902344,153.100977 73.6787109,153.976953 73.0337891,155.094141 C72.3888672,156.211328 72.0664062,157.445312 72.0664062,158.796094 L72.0664062,158.796094 L76.484375,158.796094 C76.484375,157.678906 76.7712891,156.777539 77.3451172,156.091992 C77.9189453,155.406445 78.7035156,155.063672 79.6988281,155.063672 C80.6230469,155.063672 81.3339844,155.345508 81.8316406,155.90918 C82.3292969,156.472852 82.578125,157.247266 82.578125,158.232422 C82.578125,158.953516 82.3419922,159.715234 81.8697266,160.517578 C81.3974609,161.319922 80.66875,162.259375 79.6835938,163.335938 L79.6835938,163.335938 L72.5082031,170.983594 L72.5082031,174 L87.7121094,174 Z M99.2102031,174.304688 C101.657859,174.304688 103.516453,173.492188 104.785984,171.867188 C106.055516,170.242188 106.690281,167.896094 106.690281,164.828906 L106.690281,164.828906 L106.690281,160.746094 C106.659812,157.770313 106.004734,155.487695 104.725047,153.898242 C103.445359,152.308789 101.596922,151.514062 99.1797343,151.514062 C96.7625468,151.514062 94.9115703,152.316406 93.6268046,153.921094 C92.342039,155.525781 91.6996562,157.876953 91.6996562,160.974609 L91.6996562,160.974609 L91.6996562,165.057422 C91.730125,168.033203 92.3852031,170.318359 93.6648906,171.912891 C94.9445781,173.507422 96.7930156,174.304688 99.2102031,174.304688 Z M99.2102031,170.755078 C98.1234843,170.755078 97.3338359,170.31582 96.8412578,169.437305 C96.3486796,168.558789 96.1023906,167.215625 96.1023906,165.407813 L96.1023906,165.407813 L96.1023906,160.014844 C96.1328593,158.31875 96.3943828,157.07207 96.8869609,156.274805 C97.379539,155.477539 98.1437968,155.078906 99.1797343,155.078906 C100.246141,155.078906 101.030711,155.497852 101.533445,156.335742 C102.03618,157.173633 102.287547,158.511719 102.287547,160.35 L102.287547,160.35 L102.287547,165.621094 C102.267234,167.357812 102.018406,168.647656 101.541062,169.490625 C101.063719,170.333594 100.286766,170.755078 99.2102031,170.755078 Z" id="2020" fill="#6BA997" fill-rule="nonzero"></path>
                    <path d="M137.7365,209.287109 C139.229469,209.287109 140.448219,208.698047 141.39275,207.519922 C142.337281,206.341797 142.809547,204.808203 142.809547,202.919141 L142.809547,202.919141 L139.549391,202.903906 C139.549391,203.675781 139.358961,204.330859 138.978102,204.869141 C138.597242,205.407422 138.107203,205.676562 137.507984,205.676562 C136.827516,205.676562 136.073414,205.283008 135.24568,204.495898 C134.417945,203.708789 133.679078,203.162891 133.029078,202.858203 C132.379078,202.553516 131.657984,202.401172 130.865797,202.401172 C129.342359,202.401172 128.12107,202.975 127.20193,204.122656 C126.282789,205.270312 125.823219,206.788672 125.823219,208.677734 L125.823219,208.677734 L129.098609,208.708203 C129.098609,207.916016 129.281422,207.266016 129.647047,206.758203 C130.012672,206.250391 130.490016,205.996484 131.079078,205.996484 C131.790016,205.996484 132.566969,206.400195 133.409938,207.207617 C134.252906,208.015039 134.996852,208.563477 135.641773,208.85293 C136.286695,209.142383 136.984938,209.287109 137.7365,209.287109 Z" id="~" fill="#8752A3" fill-rule="nonzero"></path>
                    <path d="M36.7894337,218 L47.5106251,193.358398 L47.5106251,190.273438 L27.9344532,190.273438 L27.9344532,194.729492 L41.7215626,194.729492 L30.9813282,218 L36.7894337,218 Z M54.6850001,220.380371 L64.8920313,190.273438 L60.797793,190.273438 L50.5907618,220.380371 L54.6850001,220.380371 Z M87.9863281,218 L87.9863281,213.562988 L76.0654297,213.562988 L82.3686523,206.916992 C84.0952148,205.025391 85.3139648,203.368652 86.0249023,201.946777 C86.7358398,200.524902 87.0913086,199.128418 87.0913086,197.757324 C87.0913086,195.256348 86.3010254,193.320312 84.720459,191.949219 C83.1398926,190.578125 80.9213867,189.892578 78.0649414,189.892578 C76.1987305,189.892578 74.5292969,190.289307 73.0566406,191.082764 C71.5839844,191.876221 70.4445801,192.971191 69.6384277,194.367676 C68.8322754,195.76416 68.4291992,197.306641 68.4291992,198.995117 L68.4291992,198.995117 L73.9516602,198.995117 C73.9516602,197.598633 74.3103027,196.471924 75.0275879,195.61499 C75.744873,194.758057 76.7255859,194.32959 77.9697266,194.32959 C79.125,194.32959 80.0136719,194.681885 80.6357422,195.386475 C81.2578125,196.091064 81.5688477,197.059082 81.5688477,198.290527 C81.5688477,199.191895 81.2736816,200.144043 80.6833496,201.146973 C80.0930176,202.149902 79.1821289,203.324219 77.9506836,204.669922 L77.9506836,204.669922 L68.9814453,214.229492 L68.9814453,218 L87.9863281,218 Z M112.051816,218 L112.051816,213.562988 L100.130918,213.562988 L106.434141,206.916992 C108.160703,205.025391 109.379453,203.368652 110.090391,201.946777 C110.801328,200.524902 111.156797,199.128418 111.156797,197.757324 C111.156797,195.256348 110.366514,193.320312 108.785947,191.949219 C107.205381,190.578125 104.986875,189.892578 102.13043,189.892578 C100.264219,189.892578 98.5947851,190.289307 97.1221288,191.082764 C95.6494726,191.876221 94.5100683,192.971191 93.703916,194.367676 C92.8977636,195.76416 92.4946874,197.306641 92.4946874,198.995117 L92.4946874,198.995117 L98.0171484,198.995117 C98.0171484,197.598633 98.375791,196.471924 99.0930761,195.61499 C99.8103613,194.758057 100.791074,194.32959 102.035215,194.32959 C103.190488,194.32959 104.07916,194.681885 104.70123,195.386475 C105.323301,196.091064 105.634336,197.059082 105.634336,198.290527 C105.634336,199.191895 105.33917,200.144043 104.748838,201.146973 C104.158506,202.149902 103.247617,203.324219 102.016172,204.669922 L102.016172,204.669922 L93.0469335,214.229492 L93.0469335,218 L112.051816,218 Z" id="7/22" fill="#8752A3" fill-rule="nonzero"></path>
                    <path d="M164.218506,218 L164.218506,190.235352 L163.628174,190.235352 L152.145264,194.348633 L152.145264,198.82373 L158.715088,196.786133 L158.715088,218 L164.218506,218 Z M192.230713,218 L192.230713,213.562988 L180.309814,213.562988 L186.613037,206.916992 C188.3396,205.025391 189.55835,203.368652 190.269287,201.946777 C190.980225,200.524902 191.335693,199.128418 191.335693,197.757324 C191.335693,195.256348 190.54541,193.320312 188.964844,191.949219 C187.384277,190.578125 185.165771,189.892578 182.309326,189.892578 C180.443115,189.892578 178.773682,190.289307 177.301025,191.082764 C175.828369,191.876221 174.688965,192.971191 173.882812,194.367676 C173.07666,195.76416 172.673584,197.306641 172.673584,198.995117 L172.673584,198.995117 L178.196045,198.995117 C178.196045,197.598633 178.554688,196.471924 179.271973,195.61499 C179.989258,194.758057 180.969971,194.32959 182.214111,194.32959 C183.369385,194.32959 184.258057,194.681885 184.880127,195.386475 C185.502197,196.091064 185.813232,197.059082 185.813232,198.290527 C185.813232,199.191895 185.518066,200.144043 184.927734,201.146973 C184.337402,202.149902 183.426514,203.324219 182.195068,204.669922 L182.195068,204.669922 L173.22583,214.229492 L173.22583,218 L192.230713,218 Z M197.562744,220.380371 L207.769775,190.273438 L203.675537,190.273438 L193.468506,220.380371 L197.562744,220.380371 Z M218.928955,218.380859 C221.886963,218.380859 224.26416,217.638184 226.060547,216.152832 C227.856934,214.66748 228.755127,212.693359 228.755127,210.230469 C228.755127,208.707031 228.371094,207.386719 227.603027,206.269531 C226.834961,205.152344 225.670166,204.314453 224.108643,203.755859 C225.365479,203.18457 226.381104,202.365723 227.155518,201.299316 C227.929932,200.23291 228.317139,199.064941 228.317139,197.79541 C228.317139,195.33252 227.485596,193.399658 225.82251,191.996826 C224.159424,190.593994 221.861572,189.892578 218.928955,189.892578 C217.240479,189.892578 215.694824,190.216309 214.291992,190.86377 C212.88916,191.51123 211.797363,192.409424 211.016602,193.55835 C210.23584,194.707275 209.845459,196.005371 209.845459,197.452637 L209.845459,197.452637 L215.348877,197.452637 C215.348877,196.525879 215.704346,195.773682 216.415283,195.196045 C217.126221,194.618408 218.008545,194.32959 219.062256,194.32959 C220.230225,194.32959 221.147461,194.640625 221.813965,195.262695 C222.480469,195.884766 222.813721,196.754395 222.813721,197.871582 C222.813721,199.026855 222.477295,199.953613 221.804443,200.651855 C221.131592,201.350098 220.096924,201.699219 218.700439,201.699219 L218.700439,201.699219 L215.767822,201.699219 L215.767822,206.00293 L218.681396,206.00293 C221.728271,206.00293 223.251709,207.386719 223.251709,210.154297 C223.251709,211.296875 222.880371,212.214111 222.137695,212.906006 C221.39502,213.5979 220.369873,213.943848 219.062256,213.943848 C217.919678,213.943848 216.958008,213.61377 216.177246,212.953613 C215.396484,212.293457 215.006104,211.442871 215.006104,210.401855 L215.006104,210.401855 L209.502686,210.401855 C209.502686,212.80127 210.381836,214.730957 212.140137,216.190918 C213.898438,217.650879 216.161377,218.380859 218.928955,218.380859 Z M245.912842,218 L245.912842,190.235352 L245.32251,190.235352 L233.8396,194.348633 L233.8396,198.82373 L240.409424,196.786133 L240.409424,218 L245.912842,218 Z" id="12/31" fill="#8752A3" fill-rule="nonzero"></path>
                    <path d="M179.207328,174 L179.207328,170.450391 L169.670609,170.450391 L174.713188,165.133594 C176.094438,163.620312 177.069438,162.294922 177.638188,161.157422 C178.206938,160.019922 178.491313,158.902734 178.491313,157.805859 C178.491313,155.805078 177.859086,154.25625 176.594633,153.159375 C175.33018,152.0625 173.555375,151.514062 171.270219,151.514062 C169.77725,151.514062 168.441703,151.831445 167.263578,152.466211 C166.085453,153.100977 165.17393,153.976953 164.529008,155.094141 C163.884086,156.211328 163.561625,157.445312 163.561625,158.796094 L163.561625,158.796094 L167.979594,158.796094 C167.979594,157.678906 168.266508,156.777539 168.840336,156.091992 C169.414164,155.406445 170.198734,155.063672 171.194047,155.063672 C172.118266,155.063672 172.829203,155.345508 173.326859,155.90918 C173.824516,156.472852 174.073344,157.247266 174.073344,158.232422 C174.073344,158.953516 173.837211,159.715234 173.364945,160.517578 C172.89268,161.319922 172.163969,162.259375 171.178813,163.335938 L171.178813,163.335938 L164.003422,170.983594 L164.003422,174 L179.207328,174 Z M190.705422,174.304688 C193.153078,174.304688 195.011672,173.492188 196.281203,171.867188 C197.550734,170.242188 198.1855,167.896094 198.1855,164.828906 L198.1855,164.828906 L198.1855,160.746094 C198.155031,157.770313 197.499953,155.487695 196.220266,153.898242 C194.940578,152.308789 193.092141,151.514062 190.674953,151.514062 C188.257766,151.514062 186.406789,152.316406 185.122023,153.921094 C183.837258,155.525781 183.194875,157.876953 183.194875,160.974609 L183.194875,160.974609 L183.194875,165.057422 C183.225344,168.033203 183.880422,170.318359 185.160109,171.912891 C186.439797,173.507422 188.288234,174.304688 190.705422,174.304688 Z M190.705422,170.755078 C189.618703,170.755078 188.829055,170.31582 188.336477,169.437305 C187.843898,168.558789 187.597609,167.215625 187.597609,165.407813 L187.597609,165.407813 L187.597609,160.014844 C187.628078,158.31875 187.889602,157.07207 188.38218,156.274805 C188.874758,155.477539 189.639016,155.078906 190.674953,155.078906 C191.741359,155.078906 192.52593,155.497852 193.028664,156.335742 C193.531398,157.173633 193.782766,158.511719 193.782766,160.35 L193.782766,160.35 L193.782766,165.621094 C193.762453,167.357812 193.513625,168.647656 193.036281,169.490625 C192.558938,170.333594 191.781984,170.755078 190.705422,170.755078 Z M217.712109,174 L217.712109,170.450391 L208.175391,170.450391 L213.217969,165.133594 C214.599219,163.620312 215.574219,162.294922 216.142969,161.157422 C216.711719,160.019922 216.996094,158.902734 216.996094,157.805859 C216.996094,155.805078 216.363867,154.25625 215.099414,153.159375 C213.834961,152.0625 212.060156,151.514062 209.775,151.514062 C208.282031,151.514062 206.946484,151.831445 205.768359,152.466211 C204.590234,153.100977 203.678711,153.976953 203.033789,155.094141 C202.388867,156.211328 202.066406,157.445312 202.066406,158.796094 L202.066406,158.796094 L206.484375,158.796094 C206.484375,157.678906 206.771289,156.777539 207.345117,156.091992 C207.918945,155.406445 208.703516,155.063672 209.698828,155.063672 C210.623047,155.063672 211.333984,155.345508 211.831641,155.90918 C212.329297,156.472852 212.578125,157.247266 212.578125,158.232422 C212.578125,158.953516 212.341992,159.715234 211.869727,160.517578 C211.397461,161.319922 210.66875,162.259375 209.683594,163.335938 L209.683594,163.335938 L202.508203,170.983594 L202.508203,174 L217.712109,174 Z M229.210203,174.304688 C231.657859,174.304688 233.516453,173.492188 234.785984,171.867188 C236.055516,170.242188 236.690281,167.896094 236.690281,164.828906 L236.690281,164.828906 L236.690281,160.746094 C236.659812,157.770313 236.004734,155.487695 234.725047,153.898242 C233.445359,152.308789 231.596922,151.514062 229.179734,151.514062 C226.762547,151.514062 224.91157,152.316406 223.626805,153.921094 C222.342039,155.525781 221.699656,157.876953 221.699656,160.974609 L221.699656,160.974609 L221.699656,165.057422 C221.730125,168.033203 222.385203,170.318359 223.664891,171.912891 C224.944578,173.507422 226.793016,174.304688 229.210203,174.304688 Z M229.210203,170.755078 C228.123484,170.755078 227.333836,170.31582 226.841258,169.437305 C226.34868,168.558789 226.102391,167.215625 226.102391,165.407813 L226.102391,165.407813 L226.102391,160.014844 C226.132859,158.31875 226.394383,157.07207 226.886961,156.274805 C227.379539,155.477539 228.143797,155.078906 229.179734,155.078906 C230.246141,155.078906 231.030711,155.497852 231.533445,156.335742 C232.03618,157.173633 232.287547,158.511719 232.287547,160.35 L232.287547,160.35 L232.287547,165.621094 C232.267234,167.357812 232.018406,168.647656 231.541062,169.490625 C231.063719,170.333594 230.286766,170.755078 229.210203,170.755078 Z" id="2020" fill="#6BA997" fill-rule="nonzero"></path>
                </g>
                <g id="Group-11" transform="translate(204.000000, 0.000000)">
                    <g id="Group-10" transform="translate(106.500000, 48.500000) scale(1, -1) translate(-106.500000, -48.500000) ">
                        <polygon id="Fill-255" fill="#FFFFFF" points="11.2132 34.727 11.2132 4.61852778e-14 46.2422 34.727"></polygon>
                        <g id="Group-259" transform="translate(0.000000, 22.789600)">
                            <mask id="mask-8" fill="white">
                                <use xlink:href="#path-7"></use>
                            </mask>
                            <g id="Clip-258"></g>
                            <path d="M196.575137,73.2104 L16.4248626,73.2104 C7.35358745,73.2104 0,67.1182395 0,59.6016479 L0,13.8177583 C0,6.30256053 7.35358745,0.2104 16.4248626,0.2104 L196.575137,0.2104 C205.646413,0.2104 213,6.30256053 213,13.8177583 L213,59.6016479 C213,67.1182395 205.646413,73.2104 196.575137,73.2104" id="Fill-257" fill="#FFFFFF" mask="url(#mask-8)"></path>
                        </g>
                    </g>
                    <path d="M24.5869141,33 L24.5869141,30.7246094 L18.4736328,30.7246094 L21.7060547,27.3164062 C22.5914714,26.3463542 23.2164714,25.4967448 23.5810547,24.7675781 C23.945638,24.0384115 24.1279297,23.3222656 24.1279297,22.6191406 C24.1279297,21.3365885 23.7226562,20.34375 22.9121094,19.640625 C22.1015625,18.9375 20.9638672,18.5859375 19.4990234,18.5859375 C18.5419922,18.5859375 17.6858724,18.789388 16.9306641,19.1962891 C16.1754557,19.6031901 15.5911458,20.1647135 15.1777344,20.8808594 C14.7643229,21.5970052 14.5576172,22.3880208 14.5576172,23.2539062 L14.5576172,23.2539062 L17.3896484,23.2539062 C17.3896484,22.5377604 17.5735677,21.9599609 17.9414062,21.5205078 C18.3092448,21.0810547 18.8121745,20.8613281 19.4501953,20.8613281 C20.0426432,20.8613281 20.4983724,21.0419922 20.8173828,21.4033203 C21.1363932,21.7646484 21.2958984,22.2610677 21.2958984,22.8925781 C21.2958984,23.3548177 21.1445312,23.843099 20.8417969,24.3574219 C20.5390625,24.8717448 20.0719401,25.4739583 19.4404297,26.1640625 L19.4404297,26.1640625 L14.8408203,31.0664062 L14.8408203,33 L24.5869141,33 Z M34.0908203,33.1953125 C35.6598307,33.1953125 36.851237,32.6744792 37.6650391,31.6328125 C38.4788411,30.5911458 38.8857422,29.0872396 38.8857422,27.1210938 L38.8857422,27.1210938 L38.8857422,24.5039062 C38.8662109,22.5963542 38.4462891,21.133138 37.6259766,20.1142578 C36.8056641,19.0953776 35.6207682,18.5859375 34.0712891,18.5859375 C32.5218099,18.5859375 31.3352865,19.1002604 30.5117188,20.1289062 C29.688151,21.1575521 29.2763672,22.6647135 29.2763672,24.6503906 L29.2763672,24.6503906 L29.2763672,27.2675781 C29.2958984,29.1751302 29.7158203,30.639974 30.5361328,31.6621094 C31.3564453,32.6842448 32.5413411,33.1953125 34.0908203,33.1953125 Z M34.0908203,30.9199219 C33.3942057,30.9199219 32.8880208,30.6383464 32.5722656,30.0751953 C32.2565104,29.5120443 32.0986328,28.6510417 32.0986328,27.4921875 L32.0986328,27.4921875 L32.0986328,24.0351562 C32.1181641,22.9479167 32.2858073,22.148763 32.6015625,21.6376953 C32.9173177,21.1266276 33.4072266,20.8710938 34.0712891,20.8710938 C34.7548828,20.8710938 35.2578125,21.1396484 35.5800781,21.6767578 C35.9023438,22.2138672 36.0634766,23.0716146 36.0634766,24.25 L36.0634766,24.25 L36.0634766,27.6289062 C36.0504557,28.7421875 35.8909505,29.5690104 35.5849609,30.109375 C35.2789714,30.6497396 34.7809245,30.9199219 34.0908203,30.9199219 Z M53.5361328,33 L53.5361328,30.7246094 L47.4228516,30.7246094 L50.6552734,27.3164062 C51.5406901,26.3463542 52.1656901,25.4967448 52.5302734,24.7675781 C52.8948568,24.0384115 53.0771484,23.3222656 53.0771484,22.6191406 C53.0771484,21.3365885 52.671875,20.34375 51.8613281,19.640625 C51.0507812,18.9375 49.9130859,18.5859375 48.4482422,18.5859375 C47.4912109,18.5859375 46.6350911,18.789388 45.8798828,19.1962891 C45.1246745,19.6031901 44.5403646,20.1647135 44.1269531,20.8808594 C43.7135417,21.5970052 43.5068359,22.3880208 43.5068359,23.2539062 L43.5068359,23.2539062 L46.3388672,23.2539062 C46.3388672,22.5377604 46.5227865,21.9599609 46.890625,21.5205078 C47.2584635,21.0810547 47.7613932,20.8613281 48.3994141,20.8613281 C48.991862,20.8613281 49.4475911,21.0419922 49.7666016,21.4033203 C50.085612,21.7646484 50.2451172,22.2610677 50.2451172,22.8925781 C50.2451172,23.3548177 50.09375,23.843099 49.7910156,24.3574219 C49.4882812,24.8717448 49.0211589,25.4739583 48.3896484,26.1640625 L48.3896484,26.1640625 L43.7900391,31.0664062 L43.7900391,33 L53.5361328,33 Z M63.0400391,33.1953125 C64.6090495,33.1953125 65.8004557,32.6744792 66.6142578,31.6328125 C67.4280599,30.5911458 67.8349609,29.0872396 67.8349609,27.1210938 L67.8349609,27.1210938 L67.8349609,24.5039062 C67.8154297,22.5963542 67.3955078,21.133138 66.5751953,20.1142578 C65.7548828,19.0953776 64.569987,18.5859375 63.0205078,18.5859375 C61.4710286,18.5859375 60.2845052,19.1002604 59.4609375,20.1289062 C58.6373698,21.1575521 58.2255859,22.6647135 58.2255859,24.6503906 L58.2255859,24.6503906 L58.2255859,27.2675781 C58.2451172,29.1751302 58.6650391,30.639974 59.4853516,31.6621094 C60.3056641,32.6842448 61.4905599,33.1953125 63.0400391,33.1953125 Z M63.0400391,30.9199219 C62.3434245,30.9199219 61.8372396,30.6383464 61.5214844,30.0751953 C61.2057292,29.5120443 61.0478516,28.6510417 61.0478516,27.4921875 L61.0478516,27.4921875 L61.0478516,24.0351562 C61.0673828,22.9479167 61.235026,22.148763 61.5507812,21.6376953 C61.8665365,21.1266276 62.3564453,20.8710938 63.0205078,20.8710938 C63.7041016,20.8710938 64.2070312,21.1396484 64.5292969,21.6767578 C64.8515625,22.2138672 65.0126953,23.0716146 65.0126953,24.25 L65.0126953,24.25 L65.0126953,27.6289062 C64.9996745,28.7421875 64.8401693,29.5690104 64.5341797,30.109375 C64.2281901,30.6497396 63.7301432,30.9199219 63.0400391,30.9199219 Z M74.5947266,33.1074219 C75.0634766,33.1074219 75.4475911,32.9690755 75.7470703,32.6923828 C76.0465495,32.4156901 76.1962891,32.0559896 76.1962891,31.6132812 C76.1962891,31.1640625 76.0449219,30.7994792 75.7421875,30.5195312 C75.4394531,30.2395833 75.0569661,30.0996094 74.5947266,30.0996094 C74.1389974,30.0996094 73.7597656,30.2395833 73.4570312,30.5195312 C73.1542969,30.7994792 73.0029297,31.1640625 73.0029297,31.6132812 C73.0029297,32.0559896 73.1526693,32.4156901 73.4521484,32.6923828 C73.7516276,32.9690755 74.132487,33.1074219 74.5947266,33.1074219 Z M85.7197266,33 L91.2177734,20.3632812 L91.2177734,18.78125 L81.1787109,18.78125 L81.1787109,21.0664062 L88.2490234,21.0664062 L82.7412109,33 L85.7197266,33 Z M97.0302734,34.2207031 L102.264648,18.78125 L100.165039,18.78125 L94.9306641,34.2207031 L97.0302734,34.2207031 Z M113.350586,33 L113.350586,18.7617188 L113.047852,18.7617188 L107.15918,20.8710938 L107.15918,23.1660156 L110.52832,22.1210938 L110.52832,33 L113.350586,33 Z M125.745117,33.1953125 C127.222982,33.1953125 128.391602,32.8291016 129.250977,32.0966797 C130.110352,31.3642578 130.540039,30.3665365 130.540039,29.1035156 C130.540039,28.3157552 130.338216,27.6305339 129.93457,27.0478516 C129.530924,26.4651693 128.984049,26.0078125 128.293945,25.6757812 C128.899414,25.3567708 129.374674,24.9303385 129.719727,24.3964844 C130.064779,23.8626302 130.237305,23.250651 130.237305,22.5605469 C130.237305,21.3365885 129.832031,20.3681641 129.021484,19.6552734 C128.210938,18.9423828 127.11556,18.5859375 125.735352,18.5859375 C124.348633,18.5859375 123.251628,18.945638 122.444336,19.6650391 C121.637044,20.3844401 121.233398,21.3496094 121.233398,22.5605469 C121.233398,23.250651 121.404297,23.8626302 121.746094,24.3964844 C122.087891,24.9303385 122.561523,25.3567708 123.166992,25.6757812 C122.483398,26.0013021 121.939779,26.4570312 121.536133,27.0429688 C121.132487,27.6289062 120.930664,28.3157552 120.930664,29.1035156 C120.930664,30.360026 121.363607,31.3561198 122.229492,32.0917969 C123.095378,32.827474 124.267253,33.1953125 125.745117,33.1953125 Z M125.745117,24.5820312 C125.211263,24.5820312 124.797852,24.4095052 124.504883,24.0644531 C124.211914,23.719401 124.06543,23.2636719 124.06543,22.6972656 C124.06543,22.124349 124.211914,21.6751302 124.504883,21.3496094 C124.797852,21.0240885 125.208008,20.8613281 125.735352,20.8613281 C126.269206,20.8613281 126.682617,21.0289714 126.975586,21.3642578 C127.268555,21.6995443 127.415039,22.1438802 127.415039,22.6972656 C127.415039,23.2636719 127.270182,23.719401 126.980469,24.0644531 C126.690755,24.4095052 126.278971,24.5820312 125.745117,24.5820312 Z M125.745117,30.9199219 C125.120117,30.9199219 124.631836,30.734375 124.280273,30.3632812 C123.928711,29.9921875 123.75293,29.5039062 123.75293,28.8984375 C123.75293,28.2734375 123.931966,27.7770182 124.290039,27.4091797 C124.648112,27.0413411 125.126628,26.8574219 125.725586,26.8574219 C126.331055,26.8574219 126.812826,27.0429688 127.170898,27.4140625 C127.528971,27.7851562 127.708008,28.2799479 127.708008,28.8984375 C127.708008,29.5299479 127.533854,30.0247396 127.185547,30.3828125 C126.83724,30.7408854 126.357096,30.9199219 125.745117,30.9199219 Z M141.049805,28.0488281 L141.049805,25.7734375 L135.551758,25.7734375 L135.551758,28.0488281 L141.049805,28.0488281 Z M150.368164,33 L155.866211,20.3632812 L155.866211,18.78125 L145.827148,18.78125 L145.827148,21.0664062 L152.897461,21.0664062 L147.389648,33 L150.368164,33 Z M161.678711,34.2207031 L166.913086,18.78125 L164.813477,18.78125 L159.579102,34.2207031 L161.678711,34.2207031 Z M180.889648,33 L180.889648,30.7246094 L174.776367,30.7246094 L178.008789,27.3164062 C178.894206,26.3463542 179.519206,25.4967448 179.883789,24.7675781 C180.248372,24.0384115 180.430664,23.3222656 180.430664,22.6191406 C180.430664,21.3365885 180.025391,20.34375 179.214844,19.640625 C178.404297,18.9375 177.266602,18.5859375 175.801758,18.5859375 C174.844727,18.5859375 173.988607,18.789388 173.233398,19.1962891 C172.47819,19.6031901 171.89388,20.1647135 171.480469,20.8808594 C171.067057,21.5970052 170.860352,22.3880208 170.860352,23.2539062 L170.860352,23.2539062 L173.692383,23.2539062 C173.692383,22.5377604 173.876302,21.9599609 174.244141,21.5205078 C174.611979,21.0810547 175.114909,20.8613281 175.75293,20.8613281 C176.345378,20.8613281 176.801107,21.0419922 177.120117,21.4033203 C177.439128,21.7646484 177.598633,22.2610677 177.598633,22.8925781 C177.598633,23.3548177 177.447266,23.843099 177.144531,24.3574219 C176.841797,24.8717448 176.374674,25.4739583 175.743164,26.1640625 L175.743164,26.1640625 L171.143555,31.0664062 L171.143555,33 L180.889648,33 Z M190.393555,33.1953125 C191.962565,33.1953125 193.153971,32.6744792 193.967773,31.6328125 C194.781576,30.5911458 195.188477,29.0872396 195.188477,27.1210938 L195.188477,27.1210938 L195.188477,24.5039062 C195.168945,22.5963542 194.749023,21.133138 193.928711,20.1142578 C193.108398,19.0953776 191.923503,18.5859375 190.374023,18.5859375 C188.824544,18.5859375 187.638021,19.1002604 186.814453,20.1289062 C185.990885,21.1575521 185.579102,22.6647135 185.579102,24.6503906 L185.579102,24.6503906 L185.579102,27.2675781 C185.598633,29.1751302 186.018555,30.639974 186.838867,31.6621094 C187.65918,32.6842448 188.844076,33.1953125 190.393555,33.1953125 Z M190.393555,30.9199219 C189.69694,30.9199219 189.190755,30.6383464 188.875,30.0751953 C188.559245,29.5120443 188.401367,28.6510417 188.401367,27.4921875 L188.401367,27.4921875 L188.401367,24.0351562 C188.420898,22.9479167 188.588542,22.148763 188.904297,21.6376953 C189.220052,21.1266276 189.709961,20.8710938 190.374023,20.8710938 C191.057617,20.8710938 191.560547,21.1396484 191.882812,21.6767578 C192.205078,22.2138672 192.366211,23.0716146 192.366211,24.25 L192.366211,24.25 L192.366211,27.6289062 C192.35319,28.7421875 192.193685,29.5690104 191.887695,30.109375 C191.581706,30.6497396 191.083659,30.9199219 190.393555,30.9199219 Z M39.53,49.3 L39.53,46.5 L52.65,46.5 L52.65,49.3 L54.75,49.3 L54.75,44.48 L47.17,44.48 C46.97,43.78 46.75,43.14 46.53,42.56 L44.15,42.96 C44.39,43.42 44.61,43.92 44.81,44.48 L37.43,44.48 L37.43,49.3 L39.53,49.3 Z M51.77,50.26 L51.77,48.26 L40.37,48.26 L40.37,50.26 L51.77,50.26 Z M38.17,61.24 C40.37,60.64 41.95,59.78 42.93,58.7 C43.93,57.52 44.49,55.94 44.59,53.98 L47.45,53.98 L47.45,58.36 C47.45,60 48.17,60.82 49.61,60.82 L53.11,60.82 C53.77,60.82 54.27,60.62 54.59,60.26 C54.95,59.88 55.19,58.66 55.33,56.62 L53.35,56 C53.31,57.36 53.23,58.18 53.15,58.44 C53.05,58.7 52.91,58.84 52.71,58.84 L50.25,58.84 C49.77,58.84 49.53,58.54 49.53,57.94 L49.53,53.98 L54.91,53.98 L54.91,51.96 L37.33,51.96 L37.33,53.98 L42.51,53.98 C42.43,55.36 42.03,56.48 41.29,57.36 C40.55,58.16 39.11,58.82 36.97,59.36 L38.17,61.24 Z M68.05,61.12 C69.77,60.36 71.29,59.26 72.61,57.82 C72.85,58.26 73.13,58.66 73.41,59.02 C74.39,60.2 75.31,60.8 76.19,60.8 C77.19,60.8 77.93,59.38 78.45,56.56 L76.57,55.54 C76.31,57.46 76.07,58.42 75.87,58.42 C75.57,58.42 75.13,57.98 74.57,57.12 C74.37,56.82 74.17,56.46 73.99,56.06 C75.21,54.28 76.21,52.12 76.99,49.58 L75.09,48.76 C74.57,50.56 73.91,52.18 73.11,53.58 C73.03,53.3 72.95,53.04 72.89,52.76 C72.57,51.52 72.33,49.72 72.17,47.4 L78.05,47.4 L78.05,45.42 L75.67,45.42 L76.59,44.48 C75.95,43.78 75.19,43.08 74.29,42.4 L72.97,43.66 C73.75,44.26 74.39,44.86 74.89,45.42 L72.07,45.42 C72.03,44.5 72.01,43.54 72.01,42.52 L69.89,42.52 C69.89,43.52 69.89,44.5 69.93,45.42 L61.69,45.42 L61.69,52.08 C61.63,55.32 60.99,57.86 59.75,59.68 L61.33,61.1 C62.87,58.84 63.69,55.86 63.79,52.14 L66.61,52.14 C66.57,54.18 66.51,55.44 66.39,55.9 C66.29,56.3 66.07,56.5 65.75,56.52 C65.19,56.52 64.53,56.48 63.73,56.42 L64.37,58.32 C64.97,58.38 65.51,58.42 65.99,58.42 C67.07,58.4 67.77,57.98 68.09,57.14 C68.43,56.22 68.63,53.9 68.69,50.18 L63.79,50.18 L63.79,47.4 L70.03,47.4 C70.19,49.8 70.47,51.82 70.91,53.42 C71.13,54.24 71.37,55 71.65,55.7 C70.33,57.3 68.73,58.52 66.85,59.36 L68.05,61.12 Z M84.61,59 L85.91,55.42 L91.89,55.42 L93.19,59 L95.69,59 L90.23,44.72 L87.57,44.72 L82.11,59 L84.61,59 Z M91.19,53.5 L86.61,53.5 L88.87,47.24 L88.95,47.24 L91.19,53.5 Z M102.43,59 L102.43,53.52 L105.97,53.52 C109.45,53.52 111.19,52.04 111.19,49.1 C111.19,46.18 109.45,44.72 106.01,44.72 L100.09,44.72 L100.09,59 L102.43,59 Z M105.83,51.52 L102.43,51.52 L102.43,46.72 L105.83,46.72 C106.85,46.72 107.61,46.9 108.09,47.28 C108.57,47.64 108.83,48.24 108.83,49.1 C108.83,49.96 108.59,50.58 108.11,50.96 C107.63,51.32 106.87,51.52 105.83,51.52 Z M118.53,59 L118.53,53.52 L122.07,53.52 C125.55,53.52 127.29,52.04 127.29,49.1 C127.29,46.18 125.55,44.72 122.11,44.72 L116.19,44.72 L116.19,59 L118.53,59 Z M121.93,51.52 L118.53,51.52 L118.53,46.72 L121.93,46.72 C122.95,46.72 123.71,46.9 124.19,47.28 C124.67,47.64 124.93,48.24 124.93,49.1 C124.93,49.96 124.69,50.58 124.21,50.96 C123.73,51.32 122.97,51.52 121.93,51.52 Z M138.61,46.78 L138.61,44.9 L136.31,44.9 C136.13,44.18 135.87,43.4 135.51,42.52 L133.51,43.06 C133.81,43.66 134.09,44.28 134.33,44.9 L131.77,44.9 L131.77,46.78 L138.61,46.78 Z M150.19,60.46 L150.19,58.42 L145.51,58.42 L145.51,53.86 L149.37,53.86 L149.37,51.88 L145.51,51.88 L145.51,47.82 L149.81,47.82 L149.81,45.78 L145.49,45.78 C145.15,44.58 144.75,43.5 144.31,42.56 L142.25,43.22 C142.69,44.04 143.09,44.9 143.41,45.78 L139.01,45.78 L139.01,47.82 L143.45,47.82 L143.45,51.88 L139.53,51.88 L139.53,53.86 L143.45,53.86 L143.45,58.42 L138.69,58.42 L138.69,60.46 L150.19,60.46 Z M137.85,49.68 L137.85,47.92 L132.45,47.92 L132.45,49.68 L137.85,49.68 Z M137.85,52.46 L137.85,50.7 L132.45,50.7 L132.45,52.46 L137.85,52.46 Z M138.09,60.78 L138.09,53.68 L132.25,53.68 L132.25,60.76 L134.21,60.76 L134.21,59.92 L136.15,59.92 L136.15,60.78 L138.09,60.78 Z M136.15,58.08 L134.21,58.08 L134.21,55.52 L136.15,55.52 L136.15,58.08 Z M158.45,61.02 L158.45,52.06 L160.67,52.06 L160.67,60.08 L162.69,60.08 L162.69,52.06 L164.91,52.06 L164.91,60.08 L166.93,60.08 L166.93,52.06 L169.47,52.06 L169.47,58.52 C169.47,58.88 169.27,59.06 168.91,59.06 L167.27,58.96 L167.81,60.98 L169.57,60.98 C170.89,60.98 171.55,60.3 171.55,58.96 L171.55,52.06 L173.05,52.06 L173.05,50.02 L171.55,50.02 L171.55,43.16 L156.39,43.16 L156.39,50.02 L154.79,50.02 L154.79,52.06 L156.39,52.06 L156.39,61.02 L158.45,61.02 Z M160.67,50.02 L158.45,50.02 L158.45,45.2 L160.67,45.2 L160.67,50.02 Z M164.91,50.02 L162.69,50.02 L162.69,45.2 L164.91,45.2 L164.91,50.02 Z M169.47,50.02 L166.93,50.02 L166.93,45.2 L169.47,45.2 L169.47,50.02 Z" id="2020.7/18-7/20完成APP註冊" fill="#0E6DA0" fill-rule="nonzero"></path>
                </g>
            </g>
        </g>
    </g>
</svg>