<svg xmlns="http://www.w3.org/2000/svg" xmlns:xlink="http://www.w3.org/1999/xlink" width="273" height="250" viewBox="0 0 273 250">
    <defs>
        <path id="prefix__a" d="M0.417 0.431L69.738 0.431 69.738 76.615 0.417 76.615z"/>
        <path id="prefix__c" d="M0.252 0.431L35.842 0.431 35.842 30.748 0.252 30.748z"/>
        <path id="prefix__e" d="M0.1 0.431L61.19 0.431 61.19 32.059 0.1 32.059z"/>
        <path id="prefix__g" d="M0 0.216L272.037 0.216 272.037 128.696 0 128.696z"/>
        <path id="prefix__i" d="M0 249.569L272.037 249.569 272.037 0.435 0 0.435z"/>
    </defs>
    <g fill="none" fill-rule="evenodd">
        <path fill="#FDDD39" d="M213.94 116.044v20.084c-2.64 3.07-5.509 5.939-8.578 8.582l-.07.06c-3.12 2.68-6.451 5.13-9.96 7.32-.816.51-1.645 1.006-2.482 1.487-.003.003-.005.003-.011.006-1.548.892-3.127 1.734-4.738 2.523h-.003c-6.555 3.212-13.603 5.563-21.003 6.91-1.866.34-3.752.616-5.661.825-.737.08-1.473.152-2.215.212-2.17.18-4.366.273-6.581.279h-.35c-2.201-.006-4.382-.098-6.538-.276-.008 0-.02 0-.031-.003-.743-.06-1.48-.132-2.216-.212-1.932-.212-3.84-.49-5.73-.837-7.377-1.35-14.405-3.697-20.937-6.898-1.614-.792-3.199-1.634-4.75-2.526-.836-.484-1.664-.98-2.481-1.49-3.535-2.204-6.885-4.675-10.03-7.38-3.069-2.643-5.938-5.512-8.578-8.582v-22.43c0-5.917 1.892-11.388 5.102-15.851 4.933-6.853 12.98-11.319 22.07-11.319h68.59c1.345 0 2.666.098 3.959.287 7.446 1.086 13.912 5.194 18.114 11.04 3.207 4.458 5.094 9.93 5.094 15.842v2.347h.014z"/>
        <path fill="#FFF" d="M112.087 121.089v32.491c-.837-.484-1.665-.98-2.482-1.49-3.534-2.205-6.885-4.675-10.03-7.38-3.069-2.643-5.938-5.512-8.578-8.582v-15.04h21.09zM213.94 121.089v15.039c-2.64 3.07-5.509 5.939-8.578 8.581l-.07.06c-3.12 2.68-6.451 5.131-9.96 7.32-.816.511-1.645 1.007-2.482 1.489v-32.49h21.09zM117.946 51.217c-3.209 0-5.81-2.602-5.81-5.81v-8.859c0-3.21 2.601-5.81 5.81-5.81 3.21 0 5.81 2.6 5.81 5.81v8.858c0 3.21-2.6 5.81-5.81 5.81"/>
        <path fill="#D0D2D3" d="M117.946 48.48c-3.209 0-5.81-2.602-5.81-5.811v2.737c0 3.21 2.601 5.81 5.81 5.81 3.21 0 5.81-2.6 5.81-5.81V42.67c0 3.21-2.6 5.81-5.81 5.81"/>
        <path fill="#FFF" d="M186.991 51.217c-3.209 0-5.81-2.602-5.81-5.81v-8.859c0-3.21 2.601-5.81 5.81-5.81 3.21 0 5.81 2.6 5.81 5.81v8.858c0 3.21-2.6 5.81-5.81 5.81"/>
        <path fill="#D0D2D3" d="M186.991 48.48c-3.209 0-5.81-2.602-5.81-5.811v2.737c0 3.21 2.601 5.81 5.81 5.81 3.21 0 5.81-2.6 5.81-5.81V42.67c0 3.21-2.6 5.81-5.81 5.81"/>
        <path fill="#FFF" d="M138.946 68.165v18.363h-.01l.003.003c6.808 8.928 20.246 8.926 27.052-.003V68.165h-27.045z"/>
        <g transform="translate(117.391 .004)">
            <mask id="prefix__b" fill="#fff">
                <use xlink:href="#prefix__a"/>
            </mask>
            <path fill="#FFF" d="M1.062 28.42c1.125-5.778 3.685-11.044 7.3-15.408 1.043-1.267 2.177-2.452 3.39-3.556C17.909 3.846 26.092.43 35.077.43c.399 0 .8.007 1.2.024.135 0 .27.006.401.013 8.937.405 16.986 4.192 22.91 10.116 5.276 5.275 8.86 12.25 9.863 20.032.189 1.466.287 2.959.287 4.475v6.864c0 19.143-15.517 34.66-34.66 34.66-19.141 0-34.66-15.517-34.66-34.66V35.09c0-1.473.09-2.921.27-4.343l.374-2.327z" mask="url(#prefix__b)"/>
        </g>
        <path fill="#D0D2D3" d="M152.469 71.145c-19.14 0-34.66-15.517-34.66-34.66v5.473c0 19.144 15.52 34.66 34.66 34.66 19.144 0 34.66-15.516 34.66-34.66v-5.474c0 19.144-15.516 34.66-34.66 34.66"/>
        <path fill="#E7AD26" d="M118.453 28.425h3.31v16.61c0 1.083-.836 2.026-1.92 2.057-1.12.03-2.035-.866-2.035-1.976v-11.95c0-1.602.217-3.197.645-4.741M187.129 32.907v12.14c0 1.005-.722 1.902-1.72 2.029-1.207.153-2.235-.783-2.235-1.96V28.424h3.313c.425 1.456.642 2.966.642 4.483"/>
        <g transform="translate(117.826 .004)">
            <mask id="prefix__d" fill="#fff">
                <use xlink:href="#prefix__c"/>
            </mask>
            <path fill="#E7AD26" d="M35.842.454c-3.506 5.472-12.197 17.3-26.27 25.62-3.389 1.998-6.5 3.525-9.32 4.674.004-.004.004-.01.004-.014.837-6.687 3.58-12.784 7.67-17.722 1.044-1.266 2.179-2.452 3.391-3.556C17.474 3.846 25.658.43 34.642.43c.4 0 .8.007 1.2.023" mask="url(#prefix__d)"/>
        </g>
        <g transform="translate(125.652 .004)">
            <mask id="prefix__f" fill="#fff">
                <use xlink:href="#prefix__e"/>
            </mask>
            <path fill="#FDDD39" d="M61.19 30.616c-4.719 1.429-14.017 2.776-28.784-1.084C17.474 25.63 6.142 17.892.1 13.012c1.044-1.266 2.178-2.452 3.391-3.556C9.648 3.846 17.832.43 26.816.43c.534 0 1.071.01 1.602.037 8.937.405 16.985 4.192 22.91 10.116 5.275 5.276 8.858 12.25 9.862 20.032" mask="url(#prefix__f)"/>
        </g>
        <path fill="#E7AD26" d="M158.058 9.27c-6.538-1.708-12.386-4.152-17.402-6.77-4.297 1.558-8.199 3.94-11.513 6.96-1.212 1.104-2.347 2.29-3.39 3.556 6.041 4.88 17.373 12.619 32.305 16.52 14.767 3.86 24.066 2.513 28.784 1.084-.931-7.226-4.09-13.753-8.76-18.873-5.021.227-11.64-.285-20.024-2.477"/>
        <path fill="#FDDD39" d="M158.058 16.026c-9.547-2.495-17.618-6.557-23.78-10.438-1.832 1.132-3.55 2.428-5.135 3.872-1.212 1.104-2.347 2.29-3.39 3.556 6.041 4.881 17.373 12.619 32.305 16.52 14.767 3.86 24.066 2.513 28.784 1.084-.583-4.522-2.042-8.768-4.193-12.57-5.295.834-13.36.912-24.59-2.024"/>
        <path fill="#E7AD26" d="M158.058 22.78c-12.25-3.2-22.074-8.981-28.544-13.65-.124.11-.249.218-.37.33-1.213 1.104-2.348 2.29-3.392 3.556 6.042 4.881 17.374 12.618 32.306 16.52 14.767 3.86 24.066 2.512 28.784 1.084-.283-2.192-.777-4.316-1.448-6.36-5.062 1.24-13.953 2.02-27.336-1.48"/>
        <path fill="#A62873" d="M152.469 53.439c-2.115 0-3.829-1.714-3.829-3.829v-5.036c0-2.115 1.714-3.828 3.829-3.828 2.114 0 3.828 1.713 3.828 3.828v5.036c0 2.115-1.714 3.829-3.828 3.829M139.296 37.758c0 1.617-1.31 2.927-2.927 2.927s-2.927-1.31-2.927-2.927 1.31-2.927 2.927-2.927 2.927 1.31 2.927 2.927M171.495 37.758c0 1.617-1.31 2.927-2.927 2.927-1.616 0-2.927-1.31-2.927-2.927s1.31-2.927 2.927-2.927 2.927 1.31 2.927 2.927M152.469 63.69c-3.74 0-7.259-1.46-9.907-4.107-.349-.35-.349-.914 0-1.263.349-.349.914-.349 1.263 0 2.31 2.31 5.38 3.583 8.644 3.583 3.263 0 6.332-1.272 8.643-3.583.349-.349.914-.349 1.263 0 .348.349.348.913 0 1.263-2.649 2.647-6.166 4.106-9.906 4.106"/>
        <path fill="#EE599C" d="M152.469 160.286L152.453 160.304 152.459 160.323 152.47 160.287z"/>
        <path fill="#1BADE3" d="M182.836 98.927c.496 3.483-.22.667 0-.002-4.469-5.245-10.164-9.299-16.845-12.397-6.807 8.929-20.244 8.93-27.052.003l-.002-.003c-14.084 6.533-23.8 17.307-26.85 34.561v32.491c1.55.892 3.135 1.734 4.75 2.526 6.53 3.2 13.56 5.548 20.937 6.898 1.888.347 3.797.625 5.73.837.736.08 1.472.152 2.215.212.011.003.023.003.031.003l5.027.21 1.51.06v.014h.027l.152-.008h.002l.147.008h.022v-.014l1.523-.064 5.058-.209c.743-.06 1.48-.132 2.216-.212 1.91-.209 3.795-.484 5.66-.825 7.401-1.347 14.45-3.698 21.004-6.91h.003c1.61-.79 3.19-1.631 4.738-2.523v-32.494c-1.602-9.07-5.049-16.348-10.003-22.162"/>
        <path fill="#0E6DA0" d="M192.85 153.577l-.011-25.411-.003-7.077-4.735 35.016c1.61-.788 3.19-1.63 4.738-2.522l.011-.006zM116.836 156.105c-1.613-.79-3.199-1.633-4.75-2.525V121.09l4.75 35.016zM165.99 86.528c-6.806 8.929-20.243 8.93-27.051.003l-.002-.003h-5.627c2.752 6.325 10.287 10.867 19.158 10.867 8.872 0 16.407-4.542 19.16-10.867h-5.638z"/>
        <path fill="#FFF" d="M97.782 118.54v2.283c0 2.404 1.95 4.354 4.354 4.354 2.405 0 4.354-1.95 4.354-4.354v-2.284c0-2.404-1.95-4.354-4.354-4.354s-4.354 1.95-4.354 4.354M207.354 118.54v2.283c0 2.404-1.949 4.354-4.353 4.354-2.405 0-4.354-1.95-4.354-4.354v-2.284c0-2.404 1.95-4.354 4.354-4.354s4.353 1.95 4.353 4.354"/>
        <g transform="translate(0 120.873)">
            <mask id="prefix__h" fill="#fff">
                <use xlink:href="#prefix__g"/>
            </mask>
            <path fill="#D0D2D3" d="M272.037.216v128.002c-.145.163-.284.32-.436.478H.435c-.151-.157-.29-.315-.435-.478V.216h272.037z" mask="url(#prefix__h)"/>
        </g>
        <mask id="prefix__j" fill="#fff">
            <use xlink:href="#prefix__i"/>
        </mask>
        <path fill="#FFF" d="M15.229 249.569L256.808 249.569 256.808 136.318 15.229 136.318z" mask="url(#prefix__j)"/>
        <path fill="#D0D2D3" d="M98.749 116.533c-1.871 0-3.388 1.517-3.388 3.388v-1.739c0-1.871-1.517-3.388-3.388-3.388-1.87 0-3.387 1.517-3.387 3.388v1.74c0-1.872-1.517-3.389-3.388-3.389s-3.388 1.517-3.388 3.388v1.74c0-1.872-1.516-3.388-3.388-3.388-1.87 0-3.387 1.516-3.387 3.387v8.216c0 1.87 1.517 3.387 3.387 3.387 1.872 0 3.388-1.517 3.388-3.387 0 1.87 1.517 3.387 3.388 3.387s3.388-1.517 3.388-3.387c0 1.87 1.516 3.387 3.387 3.387s3.388-1.517 3.388-3.387c0 1.87 1.517 3.387 3.388 3.387 1.87 0 3.387-1.517 3.387-3.387v-9.955c0-1.871-1.517-3.388-3.387-3.388M226.714 118.273c-1.87 0-3.387 1.516-3.387 3.387v-1.739c0-1.871-1.517-3.388-3.388-3.388s-3.388 1.517-3.388 3.388v-1.739c0-1.871-1.516-3.388-3.387-3.388s-3.388 1.517-3.388 3.388v1.74c0-1.872-1.517-3.389-3.388-3.389-1.87 0-3.388 1.517-3.388 3.388v9.955c0 1.87 1.517 3.387 3.388 3.387s3.388-1.517 3.388-3.387c0 1.87 1.517 3.387 3.388 3.387 1.87 0 3.387-1.517 3.387-3.387 0 1.87 1.517 3.387 3.388 3.387s3.388-1.517 3.388-3.387c0 1.87 1.517 3.387 3.387 3.387 1.871 0 3.388-1.517 3.388-3.387v-8.216c0-1.87-1.517-3.387-3.388-3.387" mask="url(#prefix__j)"/>
        <path fill="#FFF" d="M98.749 128.915c1.87 0 3.387-1.516 3.387-3.387v-9.955c0-1.87-1.517-3.388-3.387-3.388-1.871 0-3.388 1.517-3.388 3.388v9.955c0 1.87 1.517 3.387 3.388 3.387" mask="url(#prefix__j)"/>
        <path fill="#FFF" d="M91.973 128.915c1.871 0 3.388-1.516 3.388-3.387v-11.694c0-1.87-1.517-3.388-3.388-3.388-1.87 0-3.387 1.517-3.387 3.388v11.694c0 1.87 1.516 3.387 3.387 3.387M85.198 128.915c1.87 0 3.388-1.516 3.388-3.387v-9.955c0-1.87-1.517-3.388-3.388-3.388s-3.388 1.517-3.388 3.388v9.955c0 1.87 1.517 3.387 3.388 3.387" mask="url(#prefix__j)"/>
        <path fill="#FFF" d="M78.423 128.915c1.87 0 3.388-1.516 3.388-3.387v-8.216c0-1.87-1.517-3.387-3.388-3.387s-3.388 1.516-3.388 3.387v8.216c0 1.87 1.517 3.387 3.388 3.387M206.388 128.915c-1.87 0-3.387-1.516-3.387-3.387v-9.955c0-1.87 1.517-3.388 3.387-3.388 1.871 0 3.388 1.517 3.388 3.388v9.955c0 1.87-1.517 3.387-3.388 3.387" mask="url(#prefix__j)"/>
        <path fill="#FFF" d="M213.164 128.915c-1.871 0-3.388-1.516-3.388-3.387v-11.694c0-1.87 1.517-3.388 3.388-3.388 1.87 0 3.388 1.517 3.388 3.388v11.694c0 1.87-1.517 3.387-3.388 3.387" mask="url(#prefix__j)"/>
        <path fill="#FFF" d="M219.939 128.915c-1.871 0-3.388-1.516-3.388-3.387v-9.955c0-1.87 1.517-3.388 3.388-3.388 1.87 0 3.388 1.517 3.388 3.388v9.955c0 1.87-1.517 3.387-3.388 3.387M226.714 128.915c-1.87 0-3.387-1.516-3.387-3.387v-8.216c0-1.87 1.517-3.387 3.387-3.387 1.871 0 3.388 1.516 3.388 3.387v8.216c0 1.87-1.517 3.387-3.388 3.387" mask="url(#prefix__j)"/>
        <path fill="#D0D2D3" d="M0 249.569L272.037 249.569 272.037 234.34 0 234.34z" mask="url(#prefix__j)"/>
        <path fill="#FDDD39" d="M79.673 42.265v43.661c0 1.93-.839 3.666-2.174 4.861-1.152 1.03-2.678 1.661-4.347 1.661H32.39c-3.6 0-6.522-2.917-6.522-6.522v-43.66c0-3.6 2.922-6.522 6.522-6.522h40.76c3.6 0 6.522 2.921 6.522 6.521" mask="url(#prefix__j)"/>
        <path fill="#E7AD26" d="M73.152 89.541H32.39c-3.602 0-6.522-2.92-6.522-6.521v2.907c0 3.603 2.92 6.522 6.522 6.522h40.76c3.602 0 6.522-2.92 6.522-6.522V83.02c0 3.601-2.92 6.521-6.521 6.521" mask="url(#prefix__j)"/>
        <path fill="#FFF234" d="M73.152 35.745H32.39c-3.602 0-6.522 2.92-6.522 6.521v2.571c0-3.602 2.92-6.522 6.522-6.522h40.76c3.602 0 6.522 2.92 6.522 6.522v-2.57c0-3.602-2.92-6.522-6.521-6.522" mask="url(#prefix__j)"/>
        <path fill="#EE599C" d="M36.775 42.19h-.421c-1.21 0-2.19-.98-2.19-2.19v-8.511c0-1.21.98-2.19 2.19-2.19h.42c1.21 0 2.192.98 2.192 2.19v8.51c0 1.21-.981 2.192-2.191 2.192M47.58 42.19h-.422c-1.21 0-2.19-.98-2.19-2.19v-8.511c0-1.21.98-2.19 2.19-2.19h.421c1.21 0 2.191.98 2.191 2.19v8.51c0 1.21-.98 2.192-2.19 2.192M58.384 42.19h-.421c-1.21 0-2.19-.98-2.19-2.19v-8.511c0-1.21.98-2.19 2.19-2.19h.42c1.21 0 2.192.98 2.192 2.19v8.51c0 1.21-.981 2.192-2.191 2.192M69.189 42.19h-.421c-1.21 0-2.19-.98-2.19-2.19v-8.511c0-1.21.98-2.19 2.19-2.19h.42c1.21 0 2.191.98 2.191 2.19v8.51c0 1.21-.98 2.192-2.19 2.192" mask="url(#prefix__j)"/>
        <path fill="#A62873" d="M33.373 56.947L43.696 56.947 43.696 46.623 33.373 46.623z" mask="url(#prefix__j)"/>
        <path fill="#FFF" d="M47.61 56.947L57.933 56.947 57.933 46.623 47.61 46.623zM61.847 56.947L72.17 56.947 72.17 46.623 61.847 46.623zM33.373 70.668L43.696 70.668 43.696 60.345 33.373 60.345zM47.61 70.668L57.933 70.668 57.933 60.345 47.61 60.345zM61.847 70.668L72.17 70.668 72.17 60.345 61.847 60.345zM33.373 84.389L43.696 84.389 43.696 74.066 33.373 74.066z" mask="url(#prefix__j)"/>
        <path fill="#A62873" d="M47.61 84.389L57.933 84.389 57.933 74.066 47.61 74.066z" mask="url(#prefix__j)"/>
        <path fill="#FFF" d="M61.847 84.389L72.17 84.389 72.17 74.066 61.847 74.066z" mask="url(#prefix__j)"/>
        <path fill="#E7AD26" d="M79.673 50.004v35.922c0 1.93-.839 3.665-2.174 4.861-6.508-4.174-10.817-11.47-10.817-19.77 0-9.2 5.287-17.16 12.991-21.013" mask="url(#prefix__j)"/>
        <path fill="#0E6DA0" d="M109.54 66.668c0 10.703-8.676 19.38-19.38 19.38-10.702 0-19.379-8.677-19.379-19.38s8.677-19.38 19.38-19.38 19.38 8.677 19.38 19.38" mask="url(#prefix__j)"/>
        <path fill="#FFF" d="M95.976 73.109c-.446 0-.897-.137-1.284-.422l-5.817-4.267c-.558-.41-.888-1.06-.888-1.752V54.413c0-1.2.973-2.174 2.174-2.174s2.174.973 2.174 2.174v11.153l4.929 3.616c.968.71 1.177 2.07.466 3.038-.425.581-1.085.889-1.754.889" mask="url(#prefix__j)"/>
        <text fill="#6D7278" font-family="Roboto-Bold, Roboto" font-size="31.2" font-weight="bold" letter-spacing="1.352">
            <tspan x="32.495" y="169">2020</tspan>
        </text>
        <text fill="#EE599C" font-family="Roboto-Bold, Roboto" font-size="31.2" font-weight="bold" letter-spacing="1.352">
            <tspan x="125.208" y="215">~</tspan>
        </text>
        <text fill="#EE599C" font-family="Roboto-Bold, Roboto" font-size="39" font-weight="bold" letter-spacing="1.69">
            <tspan x="26.773" y="218">7/31</tspan>
        </text>
        <text fill="#EE599C" font-family="Roboto-Bold, Roboto" font-size="39" font-weight="bold" letter-spacing="1.69">
            <tspan x="156.773" y="218">6/30</tspan>
        </text>
        <text fill="#6D7278" font-family="Roboto-Bold, Roboto" font-size="31.2" font-weight="bold" letter-spacing="1.352">
            <tspan x="162.495" y="169">2021</tspan>
        </text>
    </g>
</svg>
