<svg xmlns="http://www.w3.org/2000/svg" xmlns:xlink="http://www.w3.org/1999/xlink" width="273" height="250" viewBox="0 0 273 250">
    <defs>
        <path id="prefix__a" d="M0 0.074L273 0.074 273 129 0 129z"/>
        <path id="prefix__c" d="M0.282 0.355L248.718 0.355 248.718 117 0.282 117z"/>
        <path id="prefix__e" d="M0 250L273 250 273 0 0 0z"/>
    </defs>
    <g fill="none" fill-rule="evenodd">
        <path fill="#F29600" d="M214.697 116.012v20.153c-2.648 3.08-5.528 5.959-8.608 8.61-.024.02-.046.042-.07.06-3.132 2.69-6.474 5.15-9.995 7.347-.819.513-1.651 1.01-2.491 1.493-.003.003-.006.003-.011.006-1.554.894-3.138 1.74-4.755 2.53h-.003c-6.578 3.225-13.651 5.583-21.078 6.935-1.872.343-3.764.619-5.68.829-.74.08-1.479.152-2.224.212-2.177.18-4.381.273-6.604.279h-.351c-2.209-.006-4.398-.098-6.561-.276-.008 0-.02 0-.032-.003-.744-.06-1.483-.132-2.223-.212-1.938-.213-3.854-.492-5.75-.84-7.404-1.355-14.457-3.711-21.011-6.923-1.619-.794-3.21-1.64-4.767-2.534-.84-.486-1.671-.983-2.49-1.496-3.547-2.212-6.909-4.691-10.065-7.406-3.081-2.652-5.96-5.531-8.609-8.611v-22.508c0-5.937 1.899-11.428 5.12-15.906 4.95-6.877 13.028-11.358 22.149-11.358h68.833c1.349 0 2.675.098 3.972.288 7.473 1.09 13.962 5.21 18.179 11.079 3.219 4.472 5.111 9.963 5.111 15.897v2.355h.014z"/>
        <path fill="#FFF" d="M112.483 121.073v32.604c-.84-.486-1.67-.983-2.49-1.496-3.547-2.212-6.909-4.69-10.065-7.406-3.08-2.65-5.96-5.53-8.609-8.61v-15.092h21.164zM214.697 121.073v15.092c-2.648 3.08-5.528 5.96-8.608 8.61l-.07.061c-3.132 2.69-6.474 5.148-9.995 7.345-.819.513-1.651 1.01-2.491 1.494v-32.602h21.164zM118.364 50.958h-.001c-3.22 0-5.831-2.61-5.831-5.83v-8.889c0-3.22 2.611-5.83 5.831-5.83h.001c3.221 0 5.831 2.61 5.831 5.83v8.888c0 3.221-2.61 5.831-5.831 5.831"/>
        <path fill="#D0D2D3" d="M118.364 48.212c-3.221 0-5.832-2.61-5.832-5.831v2.747c0 3.22 2.611 5.83 5.832 5.83 3.22 0 5.831-2.61 5.831-5.83v-2.747c0 3.221-2.611 5.831-5.831 5.831"/>
        <path fill="#FFF" d="M187.653 50.958c-3.22 0-5.83-2.61-5.83-5.83v-8.889c0-3.22 2.61-5.83 5.83-5.83 3.221 0 5.831 2.61 5.831 5.83v8.888c0 3.221-2.61 5.831-5.83 5.831"/>
        <path fill="#D0D2D3" d="M187.653 48.212c-3.22 0-5.83-2.61-5.83-5.831v2.747c0 3.22 2.61 5.83 5.83 5.83 3.221 0 5.831-2.61 5.831-5.83v-2.747c0 3.221-2.61 5.831-5.83 5.831"/>
        <path fill="#FFF" d="M139.437 67.966v18.427h-.009l.002.003c6.833 8.959 20.32 8.957 27.15-.003V67.966h-27.143z"/>
        <path fill="#FFF" d="M118.873 28.087c1.129-5.799 3.698-11.083 7.324-15.462 1.048-1.27 2.187-2.461 3.404-3.569C135.78 3.427 143.99 0 153.009 0c.399 0 .803.007 1.203.024.136 0 .27.006.403.013 8.969.407 17.046 4.206 22.99 10.152 5.295 5.294 8.892 12.293 9.899 20.101.189 1.471.288 2.969.288 4.49v6.888c0 19.21-15.571 34.78-34.783 34.78-19.208 0-34.783-15.57-34.783-34.78V34.78c0-1.477.09-2.931.27-4.358l.377-2.335z"/>
        <path fill="#D0D2D3" d="M153.009 70.955c-19.208 0-34.783-15.57-34.783-34.78v5.493c0 19.21 15.575 34.78 34.783 34.78 19.212 0 34.783-15.57 34.783-34.78v-5.493c0 19.21-15.571 34.78-34.783 34.78"/>
        <path fill="#4B6084" d="M118.873 28.087h3.32v16.668c0 1.087-.838 2.033-1.924 2.063-1.125.032-2.043-.868-2.043-1.981V32.846c0-1.609.217-3.209.647-4.759M187.792 32.585v12.182c0 1.008-.725 1.909-1.727 2.036-1.21.154-2.243-.786-2.243-1.966v-16.75h3.325c.428 1.461.645 2.976.645 4.498"/>
        <path fill="#4B6084" d="M154.212.024c-3.52 5.49-12.24 17.36-26.363 25.708-3.4 2.006-6.522 3.538-9.352 4.69.003-.003.003-.01.003-.014.84-6.71 3.593-12.828 7.697-17.783 1.048-1.27 2.187-2.46 3.404-3.57C135.78 3.428 143.99.002 153.009.002c.399 0 .804.005 1.203.022"/>
        <path fill="#808F91" d="M187.504 30.29c-4.735 1.434-14.066 2.786-28.886-1.088-14.984-3.915-26.356-11.68-32.421-16.577 1.048-1.27 2.187-2.46 3.404-3.569C135.78 3.427 143.99 0 153.009 0c.535 0 1.074.01 1.606.037 8.969.407 17.046 4.206 22.992 10.151 5.293 5.294 8.89 12.293 9.897 20.102"/>
        <path fill="#4B6084" d="M158.618 8.866c-6.562-1.714-12.431-4.167-17.464-6.793-4.312 1.563-8.227 3.953-11.554 6.982-1.216 1.11-2.355 2.3-3.403 3.57 6.065 4.897 17.437 12.662 32.42 16.577 14.82 3.874 24.15 2.521 28.887 1.088-.935-7.25-4.105-13.8-8.791-18.939-5.04.228-11.682-.286-20.095-2.485"/>
        <path fill="#808F91" d="M158.618 15.645c-9.58-2.503-17.681-6.58-23.864-10.474-1.838 1.136-3.564 2.437-5.154 3.885-1.216 1.109-2.355 2.299-3.403 3.569 6.065 4.898 17.437 12.663 32.42 16.578 14.82 3.874 24.15 2.52 28.887 1.088-.585-4.538-2.05-8.798-4.208-12.613-5.315.836-13.407.913-24.678-2.033"/>
        <path fill="#4B6084" d="M158.618 22.424c-12.293-3.212-22.151-9.014-28.646-13.698-.125.109-.25.219-.372.33-1.216 1.108-2.355 2.299-3.403 3.569 6.065 4.898 17.437 12.662 32.42 16.577 14.82 3.874 24.15 2.522 28.887 1.088-.284-2.2-.78-4.331-1.454-6.382-5.08 1.245-14.002 2.027-27.432-1.484"/>
        <path fill="#A62873" d="M153.009 53.188c-2.122 0-3.842-1.72-3.842-3.842v-5.053c0-2.123 1.72-3.843 3.842-3.843s3.842 1.72 3.842 3.842v5.054c0 2.122-1.72 3.843-3.842 3.843M139.79 37.453c0 1.622-1.315 2.938-2.938 2.938-1.623 0-2.938-1.316-2.938-2.938s1.315-2.938 2.938-2.938c1.623 0 2.938 1.316 2.938 2.938M172.102 37.453c0 1.622-1.314 2.938-2.938 2.938-1.622 0-2.937-1.316-2.937-2.938s1.315-2.938 2.937-2.938c1.624 0 2.938 1.316 2.938 2.938M153.009 63.474c-3.753 0-7.284-1.463-9.941-4.12-.35-.351-.35-.917 0-1.268.349-.35.917-.35 1.266 0 2.32 2.32 5.4 3.596 8.675 3.596 3.274 0 6.355-1.276 8.674-3.596.35-.35.917-.35 1.267 0 .35.35.35.917 0 1.268-2.657 2.657-6.188 4.12-9.941 4.12"/>
        <path fill="#F23E23" d="M153.009 160.406L152.992 160.425 152.999 160.444 153.01 160.407z"/>
        <path fill="#6BC9FF" d="M183.483 98.834c.498 3.495-.22.67 0-.002-4.484-5.264-10.199-9.33-16.904-12.439v.001c-6.832 8.959-20.316 8.96-27.149.002l-.002-.003c-14.133 6.555-23.884 17.366-26.945 34.68v32.605c1.557.894 3.147 1.74 4.767 2.533 6.554 3.213 13.607 5.568 21.011 6.924 1.896.347 3.812.627 5.75.84.74.08 1.48.152 2.223.212.012.002.023.002.032.002l5.045.21 1.516.061v.015h.026l.152-.009h.003l.147.009h.023v-.015l1.528-.064 5.076-.209c.745-.06 1.484-.132 2.223-.212 1.916-.21 3.81-.487 5.681-.829 7.427-1.352 14.5-3.71 21.078-6.935h.003c1.616-.79 3.201-1.636 4.755-2.53v-32.608c-1.607-9.102-5.067-16.405-10.039-22.239"/>
        <path fill="#0E6DA0" d="M193.533 153.675l-.012-25.5-.002-7.102-4.752 35.139c1.617-.791 3.202-1.637 4.754-2.531l.012-.006zM117.25 156.212c-1.62-.794-3.21-1.64-4.767-2.534v-32.605l4.767 35.139zM166.578 86.393c-6.83 8.96-20.314 8.96-27.147.003l-.002-.003h-5.647c2.762 6.347 10.324 10.905 19.227 10.905 8.902 0 16.465-4.558 19.226-10.905h-5.657z"/>
        <path fill="#FFF" d="M98.129 118.515v2.29c0 2.414 1.956 4.37 4.369 4.37s4.369-1.956 4.369-4.37v-2.29c0-2.413-1.956-4.37-4.37-4.37-2.412 0-4.368 1.957-4.368 4.37M208.089 118.515v2.29c0 2.414-1.956 4.37-4.37 4.37-2.412 0-4.368-1.956-4.368-4.37v-2.29c0-2.413 1.956-4.37 4.369-4.37s4.369 1.957 4.369 4.37"/>
        <g transform="translate(0 121)">
            <mask id="prefix__b" fill="#fff">
                <use xlink:href="#prefix__a"/>
            </mask>
            <path fill="#225F9B" d="M273 .074V128.52c-.146.164-.285.323-.437.48H.438c-.153-.157-.292-.316-.438-.48V.074h273z" mask="url(#prefix__b)"/>
        </g>
        <g transform="translate(12 133)">
            <mask id="prefix__d" fill="#fff">
                <use xlink:href="#prefix__c"/>
            </mask>
            <path fill="#F8F6DE" d="M248.718 1.355L248.718 117.001 0.282 117.001 0.282 0.355z" mask="url(#prefix__d)"/>
        </g>
        <path fill="#D0D2D3" d="M99.098 116.502c-1.878 0-3.399 1.522-3.399 3.399v-1.745c0-1.878-1.523-3.399-3.4-3.399-1.878 0-3.4 1.521-3.4 3.399v1.745c0-1.877-1.522-3.399-3.4-3.399s-3.399 1.522-3.399 3.399v1.746c0-1.877-1.523-3.4-3.4-3.4s-3.4 1.523-3.4 3.4v8.244c0 1.877 1.523 3.399 3.4 3.399s3.4-1.522 3.4-3.399c0 1.877 1.521 3.399 3.4 3.399 1.877 0 3.4-1.522 3.4-3.399 0 1.877 1.521 3.399 3.398 3.399 1.878 0 3.401-1.522 3.401-3.399 0 1.877 1.521 3.399 3.4 3.399 1.876 0 3.398-1.522 3.398-3.399v-9.99c0-1.877-1.522-3.399-3.399-3.399M227.517 118.247c-1.878 0-3.4 1.522-3.4 3.4V119.9c0-1.877-1.522-3.399-3.4-3.399-1.877 0-3.399 1.522-3.399 3.4v-1.746c0-1.878-1.523-3.399-3.4-3.399-1.878 0-3.399 1.521-3.399 3.4v1.744c0-1.877-1.523-3.399-3.4-3.399s-3.4 1.522-3.4 3.4v9.99c0 1.875 1.523 3.398 3.4 3.398s3.4-1.523 3.4-3.399c0 1.876 1.521 3.4 3.4 3.4 1.876 0 3.4-1.524 3.4-3.4 0 1.876 1.521 3.4 3.398 3.4 1.878 0 3.4-1.524 3.4-3.4 0 1.876 1.522 3.4 3.4 3.4 1.877 0 3.4-1.524 3.4-3.4v-8.245c0-1.877-1.523-3.399-3.4-3.399"/>
        <path fill="#FFF" d="M99.098 128.927c1.878 0 3.4-1.521 3.4-3.4v-9.988c0-1.878-1.522-3.4-3.4-3.4s-3.399 1.522-3.399 3.4v9.989c0 1.878 1.521 3.399 3.4 3.399"/>
        <path fill="#FFF" d="M92.299 128.927c1.878 0 3.4-1.521 3.4-3.4v-11.733c0-1.878-1.522-3.4-3.4-3.4-1.877 0-3.4 1.522-3.4 3.4v11.734c0 1.878 1.523 3.399 3.4 3.399M85.5 128.927c1.878 0 3.399-1.521 3.399-3.4v-9.988c0-1.878-1.521-3.4-3.4-3.4-1.877 0-3.398 1.522-3.398 3.4v9.989c0 1.878 1.52 3.399 3.399 3.399M78.7 128.927h.001c1.877 0 3.399-1.521 3.399-3.4v-8.243c0-1.877-1.522-3.4-3.399-3.4H78.7c-1.877 0-3.399 1.523-3.399 3.4v8.244c0 1.878 1.522 3.399 3.399 3.399M207.119 128.927c-1.877 0-3.4-1.521-3.4-3.4v-9.988c0-1.878 1.523-3.4 3.4-3.4 1.878 0 3.4 1.522 3.4 3.4v9.989c0 1.878-1.522 3.399-3.4 3.399M213.919 128.927c-1.878 0-3.4-1.521-3.4-3.4v-11.733c0-1.878 1.522-3.4 3.4-3.4 1.877 0 3.399 1.522 3.399 3.4v11.734c0 1.878-1.522 3.399-3.4 3.399"/>
        <path fill="#FFF" d="M220.718 128.927c-1.877 0-3.4-1.521-3.4-3.4v-9.988c0-1.878 1.522-3.4 3.4-3.4 1.877 0 3.4 1.522 3.4 3.4v9.989c0 1.878-1.523 3.399-3.4 3.399M227.517 128.927c-1.878 0-3.399-1.521-3.399-3.4v-8.243c0-1.877 1.521-3.4 3.4-3.4 1.876 0 3.398 1.523 3.398 3.4v8.244c0 1.878-1.522 3.399-3.399 3.399"/>
        <mask id="prefix__f" fill="#fff">
            <use xlink:href="#prefix__e"/>
        </mask>
        <path fill="#225F9B" d="M0 250L273 250 273 237.719 0 237.719z" mask="url(#prefix__f)"/>
        <path fill="#F0CA67" d="M79.956 41.976v43.813c0 1.937-.843 3.678-2.182 4.877-1.156 1.035-2.687 1.667-4.363 1.667H32.506c-3.613 0-6.545-2.927-6.545-6.544V41.976c0-3.612 2.932-6.544 6.545-6.544H73.41c3.612 0 6.545 2.932 6.545 6.544" mask="url(#prefix__f)"/>
        <path fill="#821F22" d="M73.41 89.416H32.507c-3.615 0-6.545-2.93-6.545-6.545v2.92c0 3.613 2.93 6.543 6.545 6.543H73.41c3.614 0 6.545-2.93 6.545-6.544v-2.919c0 3.614-2.931 6.545-6.545 6.545" mask="url(#prefix__f)"/>
        <path fill="#A00B0F" d="M36.905 41.9h-.423c-1.214 0-2.198-.983-2.198-2.197v-8.54c0-1.215.984-2.2 2.198-2.2h.423c1.214 0 2.198.985 2.198 2.2v8.54c0 1.214-.984 2.197-2.198 2.197M47.748 41.9h-.423c-1.214 0-2.198-.983-2.198-2.197v-8.54c0-1.215.984-2.2 2.198-2.2h.423c1.214 0 2.198.985 2.198 2.2v8.54c0 1.214-.984 2.197-2.198 2.197M58.59 41.9h-.421c-1.215 0-2.198-.983-2.198-2.197v-8.54c0-1.215.983-2.2 2.198-2.2h.422c1.214 0 2.198.985 2.198 2.2v8.54c0 1.214-.984 2.197-2.198 2.197M69.433 41.9h-.422c-1.214 0-2.198-.983-2.198-2.197v-8.54c0-1.215.984-2.2 2.198-2.2h.422c1.215 0 2.198.985 2.198 2.2v8.54c0 1.214-.983 2.197-2.198 2.197" mask="url(#prefix__f)"/>
        <path fill="#225F9B" d="M33.491 56.708L43.85 56.708 43.85 46.349 33.491 46.349z" mask="url(#prefix__f)"/>
        <path fill="#FFF" d="M47.778 56.708L58.137 56.708 58.137 46.349 47.778 46.349zM62.066 56.708L72.426 56.708 72.426 46.349 62.066 46.349zM33.491 70.477L43.85 70.477 43.85 60.119 33.491 60.119zM47.778 70.477L58.137 70.477 58.137 60.119 47.778 60.119zM62.066 70.477L72.426 70.477 72.426 60.119 62.066 60.119zM33.491 84.246L43.85 84.246 43.85 73.887 33.491 73.887z" mask="url(#prefix__f)"/>
        <path fill="#225F9B" d="M47.778 84.246L58.137 84.246 58.137 73.887 47.778 73.887z" mask="url(#prefix__f)"/>
        <path fill="#FFF" d="M62.066 84.246L72.426 84.246 72.426 73.887 62.066 73.887z" mask="url(#prefix__f)"/>
        <path fill="#974413" d="M79.956 49.742v36.046c0 1.937-.843 3.68-2.182 4.878-6.532-4.189-10.855-11.51-10.855-19.838 0-9.232 5.306-17.22 13.037-21.086" mask="url(#prefix__f)"/>
        <path fill="#225F9B" d="M109.928 66.463c0 10.74-8.706 19.447-19.447 19.447s-19.448-8.707-19.448-19.447c0-10.74 8.707-19.447 19.448-19.447 10.74 0 19.448 8.707 19.448 19.447" mask="url(#prefix__f)"/>
        <path fill="#FFF" d="M96.316 72.927c-.448 0-.9-.138-1.289-.423l-5.837-4.282c-.56-.411-.892-1.065-.892-1.76V54.167c0-1.205.977-2.181 2.182-2.181s2.182.976 2.182 2.18v11.193l4.946 3.629c.972.71 1.182 2.077.47 3.048-.429.583-1.09.892-1.762.892" mask="url(#prefix__f)"/>
        <path fill="#F29600" fill-rule="nonzero" d="M50.207 175v-3.55h-9.536l5.042-5.316c1.381-1.514 2.356-2.84 2.925-3.977s.853-2.254.853-3.351c0-2-.632-3.55-1.896-4.647-1.265-1.096-3.04-1.645-5.325-1.645-1.493 0-2.828.317-4.006.952-1.179.635-2.09 1.511-2.735 2.628-.645 1.117-.967 2.351-.967 3.702h4.418c0-1.117.287-2.018.86-2.704.574-.686 1.359-1.028 2.354-1.028.924 0 1.635.282 2.133.845.498.564.746 1.338.746 2.323 0 .722-.236 1.483-.708 2.286-.472.802-1.201 1.741-2.186 2.818l-7.176 7.648V175h15.204zm11.498.305c2.448 0 4.307-.813 5.576-2.438 1.27-1.625 1.904-3.97 1.904-7.038v-4.083c-.03-2.976-.685-5.258-1.965-6.848-1.28-1.59-3.128-2.384-5.545-2.384s-4.268.802-5.553 2.407c-1.285 1.605-1.927 3.956-1.927 7.054v4.082c.03 2.976.685 5.261 1.965 6.856 1.28 1.594 3.128 2.392 5.545 2.392zm0-3.55c-1.086 0-1.876-.44-2.369-1.318-.492-.878-.738-2.221-.738-4.03v-5.392c.03-1.696.292-2.943.784-3.74.493-.797 1.257-1.196 2.293-1.196 1.066 0 1.85.419 2.354 1.257.502.838.754 2.176.754 4.014v5.271c-.02 1.737-.27 3.027-.747 3.87s-1.254 1.264-2.33 1.264zM88.712 175v-3.55h-9.537l5.043-5.316c1.381-1.514 2.356-2.84 2.925-3.977s.853-2.254.853-3.351c0-2-.632-3.55-1.897-4.647-1.264-1.096-3.039-1.645-5.324-1.645-1.493 0-2.829.317-4.007.952-1.178.635-2.09 1.511-2.734 2.628-.645 1.117-.968 2.351-.968 3.702h4.418c0-1.117.287-2.018.861-2.704.574-.686 1.359-1.028 2.354-1.028.924 0 1.635.282 2.133.845.497.564.746 1.338.746 2.323 0 .722-.236 1.483-.708 2.286-.473.802-1.201 1.741-2.186 2.818l-7.176 7.648V175h15.204zm11.498.305c2.448 0 4.306-.813 5.576-2.438 1.27-1.625 1.904-3.97 1.904-7.038v-4.083c-.03-2.976-.685-5.258-1.965-6.848-1.28-1.59-3.128-2.384-5.545-2.384s-4.268.802-5.553 2.407c-1.285 1.605-1.927 3.956-1.927 7.054v4.082c.03 2.976.685 5.261 1.965 6.856 1.28 1.594 3.128 2.392 5.545 2.392zm0-3.55c-1.087 0-1.876-.44-2.369-1.318-.492-.878-.739-2.221-.739-4.03v-5.392c.03-1.696.292-2.943.785-3.74.493-.797 1.257-1.196 2.293-1.196 1.066 0 1.85.419 2.353 1.257.503.838.755 2.176.755 4.014v5.271c-.02 1.737-.27 3.027-.747 3.87s-1.254 1.264-2.33 1.264z"/>
        <path fill="#3EA4FF" fill-rule="nonzero" d="M138.737 210.287c1.492 0 2.711-.589 3.656-1.767.944-1.178 1.417-2.712 1.417-4.6l-3.26-.016c0 .772-.191 1.427-.572 1.965-.38.538-.87.808-1.47.808-.68 0-1.435-.394-2.262-1.181-.828-.787-1.567-1.333-2.217-1.638-.65-.304-1.371-.457-2.163-.457-1.524 0-2.745.574-3.664 1.722-.92 1.147-1.379 2.666-1.379 4.555l3.276.03c0-.792.182-1.442.548-1.95.366-.508.843-.762 1.432-.762.711 0 1.488.404 2.33 1.212.844.807 1.588 1.355 2.233 1.645.645.29 1.343.434 2.095.434zM37.79 219l10.72-24.642v-3.085H28.935v4.456h13.788L31.982 219h5.807zm17.895 2.38l10.207-30.107h-4.094L51.59 221.38h4.094zM83.35 219v-27.765h-.59l-11.484 4.114v4.475l6.57-2.038V219h5.504zm20.2.38c1.916 0 3.58-.39 4.989-1.17 1.409-.781 2.491-1.88 3.246-3.295.756-1.415 1.134-3.018 1.134-4.808 0-2.945-.75-5.237-2.248-6.875-1.498-1.637-3.567-2.456-6.208-2.456-1.472 0-2.862.349-4.17 1.047l.686-5.96h11.025v-4.59H96.465l-1.6 14.092 4.38 1.086.534-.495c.812-.686 1.872-1.029 3.18-1.029 1.422 0 2.52.42 3.294 1.257.775.838 1.162 2.044 1.162 3.618 0 1.638-.336 2.904-1.01 3.8-.672.894-1.63 1.342-2.875 1.342-1.117 0-2.021-.32-2.713-.962-.692-.64-1.095-1.54-1.21-2.694h-5.446c.051 1.574.492 2.977 1.324 4.208.831 1.232 1.964 2.187 3.399 2.866 1.434.68 2.99 1.019 4.665 1.019zM165.219 219v-27.765h-.59l-11.484 4.114v4.475l6.57-2.038V219h5.504zm28.012 0v-4.437H181.31l6.303-6.646c1.727-1.892 2.945-3.548 3.656-4.97.711-1.422 1.067-2.819 1.067-4.19 0-2.5-.79-4.437-2.371-5.808-1.58-1.37-3.8-2.056-6.656-2.056-1.866 0-3.535.396-5.008 1.19-1.473.793-2.612 1.888-3.418 3.285-.806 1.396-1.21 2.939-1.21 4.627h5.523c0-1.396.359-2.523 1.076-3.38.717-.857 1.698-1.285 2.942-1.285 1.155 0 2.044.352 2.666 1.056.622.705.933 1.673.933 2.905 0 .9-.295 1.853-.885 2.856-.59 1.003-1.501 2.177-2.733 3.523l-8.97 9.56V219h19.006zm5.332 2.38l10.207-30.107h-4.094l-10.207 30.107h4.094zm21.366-2c2.958 0 5.335-.742 7.132-2.227 1.796-1.486 2.694-3.46 2.694-5.923 0-1.523-.384-2.843-1.152-3.96-.768-1.118-1.933-1.956-3.494-2.514 1.256-.571 2.272-1.39 3.047-2.457.774-1.066 1.161-2.234 1.161-3.504 0-2.462-.831-4.395-2.494-5.798-1.664-1.403-3.961-2.104-6.894-2.104-1.689 0-3.234.323-4.637.97-1.403.648-2.495 1.546-3.275 2.695-.781 1.15-1.172 2.447-1.172 3.895h5.504c0-.927.355-1.68 1.066-2.257.711-.578 1.594-.866 2.647-.866 1.168 0 2.085.31 2.752.933.666.622 1 1.491 1 2.609 0 1.155-.337 2.082-1.01 2.78-.672.698-1.707 1.047-3.104 1.047h-2.932v4.304h2.913c3.047 0 4.57 1.384 4.57 4.151 0 1.143-.37 2.06-1.113 2.752-.743.692-1.768 1.038-3.076 1.038-1.142 0-2.104-.33-2.885-.99-.78-.66-1.17-1.511-1.17-2.552h-5.504c0 2.4.879 4.329 2.637 5.789s4.021 2.19 6.789 2.19zm26.984-.38v-27.765h-.59l-11.483 4.114v4.475l6.57-2.038V219h5.503z"/>
        <path fill="#F29600" fill-rule="nonzero" d="M180.207 175v-3.55h-9.536l5.042-5.316c1.381-1.514 2.356-2.84 2.925-3.977s.853-2.254.853-3.351c0-2-.632-3.55-1.896-4.647-1.265-1.096-3.04-1.645-5.325-1.645-1.493 0-2.828.317-4.006.952-1.179.635-2.09 1.511-2.735 2.628-.645 1.117-.967 2.351-.967 3.702h4.418c0-1.117.287-2.018.86-2.704.574-.686 1.359-1.028 2.354-1.028.924 0 1.635.282 2.133.845.498.564.746 1.338.746 2.323 0 .722-.236 1.483-.708 2.286-.472.802-1.201 1.741-2.186 2.818l-7.176 7.648V175h15.204zm11.498.305c2.448 0 4.307-.813 5.576-2.438 1.27-1.625 1.904-3.97 1.904-7.038v-4.083c-.03-2.976-.685-5.258-1.965-6.848-1.28-1.59-3.128-2.384-5.545-2.384s-4.268.802-5.553 2.407c-1.285 1.605-1.927 3.956-1.927 7.054v4.082c.03 2.976.685 5.261 1.965 6.856 1.28 1.594 3.128 2.392 5.545 2.392zm0-3.55c-1.086 0-1.876-.44-2.369-1.318-.492-.878-.738-2.221-.738-4.03v-5.392c.03-1.696.292-2.943.784-3.74.493-.797 1.257-1.196 2.293-1.196 1.066 0 1.85.419 2.354 1.257.502.838.754 2.176.754 4.014v5.271c-.02 1.737-.27 3.027-.747 3.87s-1.254 1.264-2.33 1.264zM218.712 175v-3.55h-9.537l5.043-5.316c1.381-1.514 2.356-2.84 2.925-3.977s.853-2.254.853-3.351c0-2-.632-3.55-1.897-4.647-1.264-1.096-3.039-1.645-5.324-1.645-1.493 0-2.829.317-4.007.952-1.178.635-2.09 1.511-2.734 2.628-.645 1.117-.968 2.351-.968 3.702h4.418c0-1.117.287-2.018.861-2.704.574-.686 1.359-1.028 2.354-1.028.924 0 1.635.282 2.133.845.497.564.746 1.338.746 2.323 0 .722-.236 1.483-.708 2.286-.473.802-1.201 1.741-2.186 2.818l-7.176 7.648V175h15.204zm11.498.305c2.448 0 4.306-.813 5.576-2.438 1.27-1.625 1.904-3.97 1.904-7.038v-4.083c-.03-2.976-.685-5.258-1.965-6.848-1.28-1.59-3.128-2.384-5.545-2.384s-4.268.802-5.553 2.407c-1.285 1.605-1.927 3.956-1.927 7.054v4.082c.03 2.976.685 5.261 1.965 6.856 1.28 1.594 3.128 2.392 5.545 2.392zm0-3.55c-1.087 0-1.876-.44-2.369-1.318-.492-.878-.739-2.221-.739-4.03v-5.392c.03-1.696.292-2.943.785-3.74.493-.797 1.257-1.196 2.293-1.196 1.066 0 1.85.419 2.353 1.257.503.838.755 2.176.755 4.014v5.271c-.02 1.737-.27 3.027-.747 3.87s-1.254 1.264-2.33 1.264z"/>
    </g>
</svg>
