<svg xmlns="http://www.w3.org/2000/svg" xmlns:xlink="http://www.w3.org/1999/xlink" width="344" height="250" viewBox="0 0 344 250">
    <defs>
        <path id="prefix__a" d="M0 0.52L297.743 0.52 297.743 179.073 0 179.073z"/>
        <path id="prefix__c" d="M0.593 0L181.708 0 181.708 181.075 0.593 181.075z"/>
        <path id="prefix__e" d="M0 250L344 250 344 0 0 0z"/>
    </defs>
    <g fill="none" fill-rule="evenodd">
        <path fill="#D0D2D3" d="M305.91 91.138v135.368c0 12.975-21.886 23.494-48.883 23.494H49.141c-7.116 0-13.797-.871-19.63-2.404-3.187-2.803-5-6.014-5-9.435V98.992c0-10.874 18.342-19.69 40.968-19.69h215.8c7.115 0 13.798.871 19.631 2.403 3.187 2.803 5 6.015 5 9.434"/>
        <g transform="translate(0 67)">
            <mask id="prefix__b" fill="#fff">
                <use xlink:href="#prefix__a"/>
            </mask>
            <path fill="#F8F6DE" d="M269.426 179.073H28.319c-15.64 0-28.32-12.679-28.32-28.317V28.84C0 13.2 12.68.52 28.32.52h241.107c15.64 0 28.317 12.68 28.317 28.32v121.916c0 15.638-12.677 28.317-28.317 28.317" mask="url(#prefix__b)"/>
        </g>
        <path fill="#F6D85E" d="M143.626 197.208H24.235c-4.21 0-7.623-3.413-7.623-7.623 0-4.21 3.413-7.623 7.623-7.623h119.39c4.21 0 7.624 3.413 7.624 7.623 0 4.21-3.413 7.623-7.623 7.623"/>
        <path fill="#AAACAE" d="M193.797 99.57H74.405c-4.21 0-7.623-3.413-7.623-7.623 0-4.21 3.413-7.623 7.623-7.623h119.392c4.21 0 7.623 3.413 7.623 7.623 0 4.21-3.413 7.623-7.623 7.623M278.263 223.695H24.236c-4.21 0-7.623-3.413-7.623-7.623 0-4.21 3.413-7.623 7.623-7.623h254.027c4.21 0 7.623 3.413 7.623 7.623 0 4.21-3.413 7.623-7.623 7.623"/>
        <path fill="#FFF" d="M327.193 179.08l-25.553-25.547 13.923-13.92 25.553 25.547c3.845 3.844 3.845 10.076 0 13.92-3.845 3.844-10.078 3.844-13.923 0"/>
        <path fill="#D0D2D3" d="M331.531 174.743l-25.553-25.547-4.338 4.337 25.553 25.546c3.845 3.845 10.078 3.845 13.923 0 .758-.757 1.364-1.607 1.823-2.514-3.694 1.87-8.32 1.264-11.408-1.822"/>
        <g transform="translate(158)">
            <mask id="prefix__d" fill="#fff">
                <use xlink:href="#prefix__c"/>
            </mask>
            <path fill="#FFF" d="M91.151 162.83c-15.82 0-30.454-5.079-42.359-13.699-18.147-13.13-29.95-34.484-29.95-58.593 0-1.719.06-3.425.178-5.115 2.627-37.54 33.915-67.178 72.131-67.178 39.934 0 72.31 32.367 72.31 72.293 0 39.925-32.376 72.292-72.31 72.292m0-162.83C41.331 0 .911 40.217.597 89.952c-.004.193-.004.391-.004.585 0 28.097 12.802 53.206 32.892 69.812 15.662 12.945 35.755 20.725 57.666 20.725 50.015 0 90.557-40.534 90.557-90.537C181.708 40.533 141.166 0 91.151 0" mask="url(#prefix__d)"/>
        </g>
        <path fill="#D0D2D3" d="M249.151 162.832c-39.936 0-72.31-32.368-72.31-72.294 0-39.928 32.374-72.295 72.31-72.295s72.31 32.367 72.31 72.295c0 39.926-32.374 72.294-72.31 72.294m0-153.355c-44.778 0-81.078 36.292-81.078 81.061 0 44.768 36.3 81.06 81.078 81.06 44.778 0 81.078-36.292 81.078-81.06 0-44.769-36.3-81.06-81.078-81.06"/>
        <mask id="prefix__f" fill="#fff">
            <use xlink:href="#prefix__e"/>
        </mask>
        <path fill="#FFF" d="M235.602 132.133L262.7 132.133 262.7 99.256 235.602 99.256zM215.123 82.279h-1.12c-2.906 0-5.262-2.355-5.262-5.261v-9.991c0-2.906 2.356-5.262 5.262-5.262h1.12c2.906 0 5.262 2.356 5.262 5.262v9.99c0 2.907-2.356 5.262-5.262 5.262" mask="url(#prefix__f)"/>
        <path fill="#D0D2D3" d="M214.563 79.537c-3.216 0-5.822-2.606-5.822-5.82v2.74c0 3.216 2.606 5.822 5.822 5.822 3.215 0 5.821-2.606 5.821-5.821v-2.741c0 3.214-2.606 5.82-5.82 5.82" mask="url(#prefix__f)"/>
        <path fill="#FFF" d="M284.3 82.279h-1.121c-2.905 0-5.261-2.355-5.261-5.261v-9.991c0-2.906 2.356-5.262 5.26-5.262h1.122c2.905 0 5.262 2.356 5.262 5.262v9.99c0 2.907-2.357 5.262-5.262 5.262" mask="url(#prefix__f)"/>
        <path fill="#D0D2D3" d="M283.74 79.537c-3.216 0-5.822-2.606-5.822-5.82v2.74c0 3.216 2.606 5.822 5.821 5.822 3.216 0 5.822-2.606 5.822-5.821v-2.741c0 3.214-2.606 5.82-5.822 5.82" mask="url(#prefix__f)"/>
        <path fill="#FFF" d="M215.071 59.448c1.127-5.789 3.692-11.063 7.312-15.435 1.046-1.268 2.183-2.456 3.398-3.562 6.17-5.62 14.368-9.04 23.37-9.04.4 0 .802.007 1.201.024.136 0 .271.006.403.013 8.954.406 17.018 4.199 22.954 10.133 5.285 5.284 8.876 12.271 9.881 20.066.19 1.468.287 2.964.287 4.483v6.875c0 19.175-15.546 34.718-34.726 34.718-19.177 0-34.726-15.543-34.726-34.718V66.13c0-1.475.091-2.927.27-4.351l.376-2.331z" mask="url(#prefix__f)"/>
        <path fill="#D0D2D3" d="M249.151 102.24c-19.177 0-34.727-15.542-34.727-34.72v5.484c0 19.176 15.55 34.72 34.727 34.72 19.18 0 34.726-15.544 34.726-34.72V67.52c0 19.178-15.546 34.72-34.726 34.72" mask="url(#prefix__f)"/>
        <path fill="#4B6084" d="M215.031 59.65h3.426v16.637c0 1.034-.759 1.957-1.79 2.052-1.182.11-2.173-.815-2.173-1.97V64.372c0-1.589.18-3.174.537-4.723M283.877 63.938v12.14c0 1.035-.755 1.96-1.785 2.06-1.182.113-2.177-.813-2.177-1.97v-16.72h3.319c.427 1.458.643 2.97.643 4.49" mask="url(#prefix__f)"/>
        <path fill="#4B6084" d="M250.352 31.435c-3.513 5.48-12.22 17.329-26.32 25.662-3.395 2.003-6.51 3.532-9.337 4.682.004-.003.004-.01.004-.013.84-6.7 3.587-12.806 7.684-17.752 1.046-1.27 2.183-2.456 3.398-3.563 6.17-5.62 14.368-9.04 23.37-9.04.4 0 .802.007 1.201.024" mask="url(#prefix__f)"/>
        <path fill="#808F91" d="M283.59 61.647c-4.728 1.43-14.044 2.78-28.838-1.086-14.961-3.908-26.314-11.66-32.368-16.547 1.046-1.27 2.183-2.456 3.397-3.563 6.169-5.62 14.369-9.04 23.37-9.04.535 0 1.073.01 1.604.037 8.954.407 17.019 4.199 22.954 10.133 5.285 5.285 8.876 12.27 9.88 20.066" mask="url(#prefix__f)"/>
        <path fill="#4B6084" d="M254.752 40.261c-6.552-1.71-12.41-4.159-17.437-6.78-4.304 1.56-8.213 3.945-11.534 6.97-1.215 1.106-2.351 2.294-3.397 3.563 6.054 4.889 17.407 12.64 32.368 16.546 14.794 3.868 24.11 2.517 28.838 1.087-.934-7.239-4.098-13.776-8.776-18.905-5.032.227-11.663-.285-20.062-2.48" mask="url(#prefix__f)"/>
        <path fill="#808F91" d="M254.752 47.028c-9.565-2.499-17.652-6.567-23.826-10.456-1.835 1.134-3.558 2.433-5.145 3.88-1.215 1.105-2.351 2.293-3.397 3.561 6.054 4.89 17.407 12.64 32.368 16.548 14.794 3.867 24.11 2.517 28.838 1.086-.584-4.53-2.046-8.783-4.201-12.59-5.306.834-13.385.912-24.637-2.029" mask="url(#prefix__f)"/>
        <path fill="#4B6084" d="M254.752 53.794c-12.273-3.206-22.116-8.997-28.6-13.673-.124.11-.248.218-.371.33-1.215 1.106-2.351 2.294-3.397 3.562 6.054 4.89 17.407 12.64 32.368 16.548 14.794 3.867 24.11 2.517 28.838 1.086-.283-2.196-.778-4.324-1.451-6.37-5.072 1.242-13.98 2.022-27.387-1.483" mask="url(#prefix__f)"/>
        <path fill="#A62873" d="M249.52 84.505h-.738c-1.915 0-3.467-1.552-3.467-3.467v-5.782c0-1.914 1.552-3.466 3.467-3.466h.738c1.914 0 3.467 1.552 3.467 3.466v5.782c0 1.915-1.553 3.467-3.467 3.467" mask="url(#prefix__f)"/>
        <path fill="#2C416D" d="M307.871 132.726c-11.482 15.955-29.316 27.04-49.797 29.56-.873.106-1.754.196-2.635.272-2.046.177-4.116.268-6.209.272h-.079c-2.117 0-4.215-.09-6.288-.272-.889-.076-1.77-.166-2.651-.277-20.477-2.523-38.307-13.609-49.789-29.563 4.464-8.933 13.698-15.07 24.359-15.07h11.815l8.161 26.751.86 2.816h27.054l.857-2.816h.004l8.16-26.75h11.815c10.665 0 19.9 6.136 24.363 15.077" mask="url(#prefix__f)"/>
        <path fill="#FFF" d="M263.53 144.4l-.858 2.816-4.598 15.07c-.873.107-1.754.197-2.635.272-2.046.178-4.116.269-6.209.273h-.079c-2.117 0-4.215-.091-6.288-.273-.89-.075-1.77-.165-2.65-.276l-4.595-15.066-.86-2.816 7.476-6.377h.004l6.901-5.89 6.936 5.913 7.454 6.354z" mask="url(#prefix__f)"/>
        <path fill="#A62873" d="M235.954 68.797c0 1.62-1.313 2.932-2.934 2.932-1.619 0-2.932-1.312-2.932-2.932 0-1.619 1.313-2.932 2.932-2.932 1.621 0 2.934 1.313 2.934 2.932M268.214 68.797c0 1.62-1.312 2.932-2.933 2.932-1.62 0-2.932-1.312-2.932-2.932 0-1.619 1.313-2.932 2.932-2.932 1.62 0 2.933 1.313 2.933 2.932M249.151 94.762c-3.595 0-7.189-1.368-9.926-4.104-.348-.349-.348-.915 0-1.265.35-.349.916-.349 1.266 0 4.775 4.774 12.545 4.774 17.32 0 .35-.349.916-.349 1.265 0 .35.35.35.916 0 1.265-2.737 2.736-6.33 4.104-9.925 4.104" mask="url(#prefix__f)"/>
        <path fill="#E7AD26" d="M255.44 162.558c-2.047.178-4.117.269-6.21.272h-.079c-2.117 0-4.215-.09-6.288-.272l.153-1.761v-.004l.522-5.92.181-2.085v-.008l.198-2.275.293-3.29.027-.323.351-3.97h9.125l.351 3.97.028.324.601 6.816v.004l.406 4.624.34 3.898z" mask="url(#prefix__f)"/>
        <path fill="#E8CD5D" d="M255.099 158.659L243.536 154.873 243.919 150.507 254.692 154.034z" mask="url(#prefix__f)"/>
        <path fill="#F6D85E" d="M249.23 162.83h-.079c-2.117 0-4.215-.09-6.288-.272l.153-1.762 6.214 2.034z" mask="url(#prefix__f)"/>
        <path fill="#E8CD5D" d="M252.272 147.215h-6.242c-3.52 0-5.95-3.525-4.698-6.814l1.916-5.03c.742-1.95 2.611-3.238 4.697-3.238h2.411c2.087 0 3.956 1.289 4.698 3.238l1.915 5.03c1.253 3.289-1.176 6.814-4.697 6.814" mask="url(#prefix__f)"/>
        <path fill="#E2854A" d="M271.695 117.65L271.695 117.65 262.701 112.582 249.151 132.133 263.532 144.401zM226.595 117.65L226.595 117.65 235.589 112.582 249.139 132.133 234.758 144.401z" mask="url(#prefix__f)"/>
        <path fill="#D0D2D3" d="M262.687 108.85L249.151 123.637 249.138 123.637 235.602 108.85 235.588 112.582 249.138 132.133 249.151 132.133 262.701 112.582z" mask="url(#prefix__f)"/>
        <path fill="#079690" d="M212.416 117.754c-9.648.833-17.863 6.7-21.993 14.964 5.847 8.124 13.343 14.982 21.993 20.094v-35.058zM285.886 117.756v35.058c8.647-5.111 16.14-11.966 21.985-20.087-4.128-8.27-12.338-14.136-21.985-14.971" mask="url(#prefix__f)"/>
        <path fill="#D0D2D3" d="M249.145 162.892c-.479 6.348-2.503 12.554-5.975 18.01-25.997-1.898-50.98-14.948-67.263-37.851-.113-.158-.227-.318-.336-.478 2.756-5.51 6.871-10.445 12.244-14.264.048-.034.097-.068.147-.1.883 1.447 1.824 2.872 2.82 4.272 13.97 19.65 35.963 30.219 58.363 30.41" mask="url(#prefix__f)"/>
        <path fill="#3B85B9" d="M247.64 162.826c0 21.479-17.415 38.891-38.898 38.891-21.484 0-38.9-17.412-38.9-38.891s17.415-38.891 38.9-38.891c21.483 0 38.899 17.412 38.899 38.891" mask="url(#prefix__f)"/>
        <path fill="#AD4A90" d="M240.81 162.826c0 17.708-14.358 32.062-32.069 32.062-17.71 0-32.07-14.354-32.07-32.062 0-17.707 14.36-32.062 32.07-32.062 17.711 0 32.07 14.355 32.07 32.062" mask="url(#prefix__f)"/>
        <path fill="#FFF" d="M208.741 133.361c17.275 0 31.354 13.66 32.036 30.764.018-.432.033-.864.033-1.299 0-17.707-14.358-32.062-32.069-32.062-17.71 0-32.069 14.355-32.069 32.062 0 .435.015.867.033 1.3.682-17.106 14.761-30.765 32.036-30.765" mask="url(#prefix__f)"/>
        <path fill="#FFF" d="M201.891 181.431L186.076 165.619 191.661 160.034 201.891 170.261 223.518 148.639 229.103 154.224z" mask="url(#prefix__f)"/>
        <path fill="#DD0816" d="M16.612 104.221L56.235 104.221 56.235 79.674 16.612 79.674z" mask="url(#prefix__f)"/>
        <path fill="#1F286F" d="M16.612 90.548L29.784 90.548 29.784 79.673 16.612 79.673z" mask="url(#prefix__f)"/>
        <text fill="#1B4875" font-family="PingFangTC-Semibold, PingFang TC" font-size="34" font-weight="500" letter-spacing="8.773" mask="url(#prefix__f)">
            <tspan x="16.34" y="157.5">身份證</tspan>
        </text>
    </g>
</svg>
