<svg xmlns="http://www.w3.org/2000/svg" xmlns:xlink="http://www.w3.org/1999/xlink" width="312" height="297" viewBox="0 0 312 297">
    <defs>
        <path id="prefix__a" d="M.53 54.685c0 29.884 23.931 54.115 53.445 54.115 29.52 0 53.449-24.231 53.449-54.115 0-29.891-23.929-54.119-53.449-54.119C24.458.566.53 24.794.53 54.685z"/>
        <path id="prefix__c" d="M.605 10.682c0 5.353 4.346 9.7 9.697 9.7 5.351 0 9.695-4.347 9.695-9.7 0-5.355-4.344-9.696-9.695-9.696S.605 5.327.605 10.682z"/>
        <path id="prefix__e" d="M.432.633c0 20.453 16.572 37.034 37.016 37.034V.633H.432z"/>
        <path id="prefix__g" d="M.432 37.734h37.016V.7C17.004.7.432 17.281.432 37.734z"/>
        <path id="prefix__i" d="M.506 37.734h37.015C37.521 17.281 20.95.7.506.7v37.034z"/>
        <path id="prefix__k" d="M.506.638v37.034c20.444 0 37.015-16.58 37.015-37.034H.506z"/>
    </defs>
    <g fill="none" fill-rule="evenodd">
        <path fill="#175F6C" d="M110.43 184.967L295.521 184.967 295.521 66.477 110.43 66.477z" transform="translate(0 -1)"/>
        <path fill="#1C7685" d="M102.618 200.374L303.333 200.374 303.333 80.354 102.618 80.354z" transform="translate(0 -1)"/>
        <path fill="#F8E482" d="M94.547 214.253L311.405 214.253 311.405 94.234 94.547 94.234z" transform="translate(0 -1)"/>
        <g transform="translate(0 -1) translate(149 99.56)">
            <mask id="prefix__b" fill="#fff">
                <use xlink:href="#prefix__a"/>
            </mask>
            <path fill="#FFF" d="M-0.404 109.733L108.357 109.733 108.357 -0.367 -0.404 -0.367z" mask="url(#prefix__b)"/>
        </g>
        <g transform="translate(0 -1) translate(274 143.56)">
            <mask id="prefix__d" fill="#fff">
                <use xlink:href="#prefix__c"/>
            </mask>
            <path fill="#2EAAAD" d="M-0.328 21.314L20.93 21.314 20.93 0.052 -0.328 0.052z" mask="url(#prefix__d)"/>
        </g>
        <g transform="translate(0 -1) translate(274 93.56)">
            <mask id="prefix__f" fill="#fff">
                <use xlink:href="#prefix__e"/>
            </mask>
            <path fill="#1D899B" d="M-0.501 38.599L38.381 38.599 38.381 -0.301 -0.501 -0.301z" mask="url(#prefix__f)"/>
        </g>
        <g transform="translate(0 -1) translate(274 176.56)">
            <mask id="prefix__h" fill="#fff">
                <use xlink:href="#prefix__g"/>
            </mask>
            <path fill="#1D899B" d="M-0.501 38.667L38.381 38.667 38.381 -0.233 -0.501 -0.233z" mask="url(#prefix__h)"/>
        </g>
        <path fill="#2EAAAD" d="M121.65 144.545c5.352 0 9.697 4.347 9.697 9.701 0 5.353-4.345 9.695-9.696 9.695-5.35 0-9.695-4.342-9.695-9.695 0-5.354 4.345-9.701 9.695-9.701" transform="translate(0 -1)"/>
        <g transform="translate(0 -1) translate(94 176.56)">
            <mask id="prefix__j" fill="#fff">
                <use xlink:href="#prefix__i"/>
            </mask>
            <path fill="#1D899B" d="M-0.427 38.667L38.455 38.667 38.455 -0.233 -0.427 -0.233z" mask="url(#prefix__j)"/>
        </g>
        <g transform="translate(0 -1) translate(94 93.56)">
            <mask id="prefix__l" fill="#fff">
                <use xlink:href="#prefix__k"/>
            </mask>
            <path fill="#1D899B" d="M0.555 0.309L39.669 0.273 39.669 39.174 0.506 39.508z" mask="url(#prefix__l)"/>
        </g>
        <g>
            <path fill="#B7B3AD" d="M111.909 199.969v23.482c0 3.64 2.962 6.594 6.614 6.594h7.163v-6.153c0-10.205-5.536-19.12-13.777-23.923m69.42 16.417c-1.158-1.405-3.235-1.607-4.64-.452 1.405-1.155 1.608-3.226.453-4.627-1.154-1.405-3.234-1.607-4.64-.456 1.406-1.151 1.612-3.221.454-4.627-.649-.79-1.593-1.198-2.549-1.198-.734 0-1.476.243-2.091.746l9.427-7.723c1.41-1.151 1.613-3.221.458-4.622-1.158-1.405-3.235-1.608-4.64-.457l-16.19 13.262c-1.501-1.71-4.101-1.938-5.872-.485-1.018.834-1.546 2.04-1.546 3.262 0 .9.292 1.809.882 2.578l-.752.614c-2.501 2.048-3.94 4.91-4.246 7.88-4.596-.411-9.317 1.318-12.545 5.08l-4.194 4.884h40.745l5.418-4.435 5.61-4.598c1.41-1.154 1.613-3.225.458-4.626" transform="translate(0 -1) translate(0 .56)"/>
            <path fill="#FFF" d="M49.02 207.257L76.67 207.257 76.67 173.802 49.02 173.802zM98.13 156.527h.018c3.275 0 5.931-2.656 5.931-5.932v-9.011c0-3.276-2.656-5.932-5.93-5.932h-.019c-3.276 0-5.932 2.656-5.932 5.932v9.011c0 3.276 2.656 5.932 5.932 5.932" transform="translate(0 -1) translate(0 .56)"/>
            <path fill="#D0D2D3" d="M98.139 153.737c3.281 0 5.94-2.651 5.94-5.922v2.789c0 3.271-2.659 5.923-5.94 5.923-3.281 0-5.94-2.652-5.94-5.923v-2.789c0 3.271 2.659 5.922 5.94 5.922" transform="translate(0 -1) translate(0 .56)"/>
            <path fill="#FFF" d="M27.543 156.527h.018c3.275 0 5.931-2.656 5.931-5.932v-9.011c0-3.276-2.656-5.932-5.93-5.932h-.019c-3.276 0-5.932 2.656-5.932 5.932v9.011c0 3.276 2.656 5.932 5.932 5.932" transform="translate(0 -1) translate(0 .56)"/>
            <path fill="#D0D2D3" d="M27.552 153.737c3.281 0 5.94-2.651 5.94-5.922v2.789c0 3.271-2.659 5.923-5.94 5.923-3.281 0-5.94-2.652-5.94-5.923v-2.789c0 3.271 2.659 5.922 5.94 5.922" transform="translate(0 -1) translate(0 .56)"/>
            <path fill="#FFF" d="M97.62 133.295c-1.15-5.89-3.767-11.257-7.462-15.706-1.067-1.29-2.227-2.499-3.467-3.625-6.295-5.718-14.66-9.198-23.846-9.198-.407 0-.818.007-1.226.024-.138 0-.276.006-.41.013-9.137.413-17.365 4.273-23.422 10.311-5.394 5.378-9.057 12.487-10.083 20.42-.193 1.493-.293 3.014-.293 4.56v6.996c0 19.513 15.863 35.33 35.434 35.33 19.568 0 35.434-15.817 35.434-35.33v-6.996c0-1.5-.093-2.978-.276-4.427l-.383-2.372z" transform="translate(0 -1) translate(0 .56)"/>
            <path fill="#D0D2D3" d="M62.846 176.839c19.568 0 35.434-15.816 35.434-35.329v5.58c0 19.513-15.867 35.329-35.434 35.329-19.571 0-35.434-15.816-35.434-35.329v-5.58c0 19.513 15.863 35.329 35.433 35.329" transform="translate(0 -1) translate(0 .56)"/>
            <path fill="#4B6084" d="M97.62 133.295h-3.384v16.931c0 1.104.855 2.066 1.962 2.096 1.146.032 2.081-.882 2.081-2.013v-12.18c0-1.634-.222-3.26-.659-4.834M28.058 133.295c-.43 1.484-.646 3.022-.646 4.566v12.448c0 1.112.97 2.014 2.169 2.014 1.197 0 2.167-.902 2.167-2.014v-17.014h-3.69z" transform="translate(0 -1) translate(0 .56)"/>
            <path fill="#4B6084" d="M61.62 104.79c3.584 5.577 12.468 17.633 26.857 26.113 3.463 2.038 6.644 3.594 9.527 4.764-.004-.003-.004-.01-.004-.013-.856-6.817-3.66-13.031-7.841-18.064-1.067-1.291-2.227-2.5-3.467-3.625-6.295-5.718-14.661-9.2-23.846-9.2-.408 0-.82.008-1.226.025" transform="translate(0 -1) translate(0 .56)"/>
            <path fill="#808F91" d="M27.705 135.533c4.824 1.456 14.33 2.83 29.426-1.105 15.265-3.977 26.85-11.864 33.028-16.838-1.067-1.291-2.227-2.5-3.467-3.625-6.295-5.72-14.661-9.2-23.846-9.2-.546 0-1.095.01-1.637.039-9.137.413-17.365 4.272-23.421 10.31-5.394 5.378-9.058 12.487-10.083 20.419" transform="translate(0 -1) translate(0 .56)"/>
            <path fill="#4B6084" d="M57.13 113.772c6.686-1.741 12.665-4.232 17.793-6.9 4.392 1.588 8.38 4.015 11.769 7.093 1.24 1.126 2.4 2.334 3.467 3.625-6.177 4.974-17.762 12.862-33.028 16.838-15.096 3.935-24.602 2.56-29.426 1.105.952-7.365 4.182-14.018 8.956-19.237 5.133.232 11.9-.29 20.47-2.524" transform="translate(0 -1) translate(0 .56)"/>
            <path fill="#808F91" d="M57.13 120.657c9.76-2.542 18.013-6.683 24.313-10.64 1.872 1.155 3.629 2.476 5.249 3.948 1.24 1.126 2.4 2.334 3.467 3.625-6.177 4.974-17.762 12.86-33.028 16.838-15.096 3.935-24.602 2.56-29.426 1.105.596-4.61 2.088-8.937 4.287-12.812 5.413.85 13.658.929 25.139-2.064" transform="translate(0 -1) translate(0 .56)"/>
            <path fill="#4B6084" d="M57.13 127.543c12.524-3.262 22.568-9.155 29.184-13.914.126.11.253.223.378.336 1.24 1.126 2.4 2.334 3.467 3.625-6.177 4.974-17.762 12.862-33.028 16.838-15.096 3.935-24.602 2.56-29.426 1.105.289-2.234.794-4.4 1.48-6.482 5.175 1.264 14.265 2.058 27.946-1.508" transform="translate(0 -1) translate(0 .56)"/>
            <path fill="#A62873" d="M62.84 158.792h.012c2.158 0 3.908-1.75 3.908-3.908v-5.122c0-2.159-1.75-3.908-3.908-3.908h-.012c-2.158 0-3.908 1.75-3.908 3.908v5.122c0 2.158 1.75 3.908 3.908 3.908" transform="translate(0 -1) translate(0 .56)"/>
            <path fill="#2F968A" d="M125.686 220.214v11.721h-21.509v65.138c-1.375.052-2.759.078-4.146.078-4.039 0-8.026-.221-11.947-.655-2.545-.276-5.057-.64-7.544-1.096-13.603-2.468-26.317-7.477-37.634-14.516-4.678-2.909-9.115-6.164-13.272-9.731-.033-.022-.063-.051-.092-.077C16.72 260.069 6.522 246.109 0 230.258v-7.657h.012v-2.387c0-15.295 12.442-27.692 27.775-27.692H39.84l9.203 30.079h27.614l9.203-30.079h12.054c.273 0 .546.004.815.011 14.957.43 26.957 12.658 26.957 27.681" transform="translate(0 -1) translate(0 .56)"/>
            <path fill="#007D8D" d="M21.517 263.441c1.8 1.898 3.67 3.73 5.603 5.491l-5.592-41.215-.011 35.724zM94.755 297.022c1.748.084 3.508.129 5.278.129 1.387 0 2.77-.026 4.146-.077v-69.357l-9.424 69.305z" transform="translate(0 -1) translate(0 .56)"/>
            <path fill="#FFF" d="M48.173 219.74L55.845 244.811 55.845 244.814 55.985 245.276 57.709 250.911 58.981 255.066 60.704 260.702 61.976 264.857 62.858 267.738 63.933 264.217 65.486 259.142 67.593 252.253 69.143 247.177 69.853 244.861 77.533 219.74 62.858 207.258z" transform="translate(0 -1) translate(0 .56)"/>
            <path fill="#A62873" d="M76.312 142.809c0 1.648 1.34 2.984 2.992 2.984 1.653 0 2.993-1.336 2.993-2.984 0-1.647-1.34-2.983-2.993-2.983-1.653 0-2.992 1.336-2.992 2.983M43.394 142.809c0 1.648 1.34 2.984 2.993 2.984 1.653 0 2.992-1.336 2.992-2.984 0-1.647-1.34-2.983-2.992-2.983-1.653 0-2.993 1.336-2.993 2.983M62.846 169.78c3.809 0 7.617-1.446 10.518-4.337.572-.57.572-1.496 0-2.066-.573-.57-1.5-.57-2.073 0-4.656 4.643-12.234 4.643-16.891 0-.572-.57-1.5-.57-2.072 0-.573.57-.573 1.496 0 2.066 2.9 2.891 6.708 4.337 10.517 4.337" transform="translate(0 -1) translate(0 .56)"/>
            <path fill="#E7AD26" d="M55.844 244.814L55.844 244.812 56.215 240.633 56.776 234.25 57.193 229.543 58.19 218.235 67.502 218.235 68.184 225.955 68.575 230.398 69.105 236.42 69.105 236.423 69.498 240.864 69.853 244.861 69.142 247.178 67.594 252.253 65.486 259.142 63.932 264.217 62.858 267.738 61.975 264.857 60.703 260.703 58.98 255.066 57.709 250.912 55.986 245.276z" transform="translate(0 -1) translate(0 .56)"/>
            <path fill="#E8CD5D" d="M56.776 234.249L68.575 230.397 68.183 225.954 57.192 229.543zM55.844 244.814L55.844 244.812 56.215 240.633 69.105 236.423 69.498 240.864 55.986 245.276zM57.708 250.911L58.98 255.066 67.593 252.252 69.143 247.177zM60.703 260.702L61.975 264.856 63.932 264.217 65.485 259.141zM59.66 222.604h6.37c3.593 0 6.072-3.587 4.794-6.934l-1.954-5.118c-.758-1.984-2.666-3.295-4.794-3.295h-2.46c-2.13 0-4.037 1.311-4.794 3.295l-1.955 5.118c-1.278 3.347 1.202 6.934 4.794 6.934" transform="translate(0 -1) translate(0 .56)"/>
            <path fill="#E2854A" d="M39.842 192.52L39.842 192.52 49.02 187.363 62.846 207.257 48.172 219.741zM85.862 192.52L85.862 192.52 76.684 187.363 62.858 207.257 77.532 219.741z" transform="translate(0 -1) translate(0 .56)"/>
            <path fill="#007D8D" d="M39.842 192.52l-7.603 24.157c-.275.874.183 1.811 1.043 2.134l5.9 2.213c1.486.557 1.502 2.645.026 3.225l-7.254 2.851c-1.098.431-1.451 1.806-.698 2.711l31.59 37.925-23.004-75.216zM85.862 192.52l7.603 24.157c.275.874-.183 1.811-1.043 2.134l-5.9 2.213c-1.485.557-1.502 2.645-.026 3.225l7.254 2.851c1.098.431 1.452 1.806.698 2.711l-31.59 37.925 23.004-75.216z" transform="translate(0 -1) translate(0 .56)"/>
            <path fill="#D0D2D3" d="M49.033 183.565L62.846 198.612 62.858 198.612 76.671 183.565 76.684 187.363 62.858 207.257 62.846 207.257 49.02 187.363z" transform="translate(0 -1) translate(0 .56)"/>
            <path fill="#007D8D" d="M30.666 254.396h9.204c1.59 0 2.88-1.29 2.88-2.88v-.67c0-1.59-1.29-2.88-2.88-2.88h-9.204c-1.59 0-2.879 1.29-2.879 2.88v.67c0 1.59 1.29 2.88 2.88 2.88" transform="translate(0 -1) translate(0 .56)"/>
            <path fill="#2F968A" d="M158.777 234.717l.018-.039c-.033.133-.07.265-.107.398-.037.132-.078.265-.118.397-.04.128-.085.261-.129.39-.044.132-.092.261-.14.39-.096.25-.196.492-.303.739-.052.11-.099.22-.15.331-.07.154-.149.305-.226.456l-.077.14c-.07.139-.144.279-.226.415-.114.199-.232.393-.354.589-.047.077-.095.15-.147.224-.192.291-.395.573-.609.853-.05.07-.107.136-.162.202-.11.14-.225.28-.343.42l-29.878 34.786c-2.844 3.314-6.964 5.142-11.206 5.142-1.324 0-2.663-.177-3.976-.544-5.53-1.545-9.657-6.143-10.587-11.791l-.634-3.873-5.452-33.22c-1.313-8.017 4.14-15.582 12.18-16.895 8.045-1.305 15.63 4.127 16.945 12.144l.96 5.866 9.236-10.754c5.297-6.171 14.61-6.888 20.8-1.603 4.418 3.769 6.042 9.575 4.685 14.837" transform="translate(0 -1) translate(0 .56)"/>
            <path fill="#007D8D" d="M158.795 234.678c-.033.133-.07.265-.107.397-.037.133-.078.265-.118.397-.04.13-.085.262-.129.39-.044.133-.092.261-.14.39-.096.25-.196.493-.303.74-.052.11-.099.22-.15.331-.07.154-.149.305-.226.455l-.077.14c-.07.14-.145.28-.226.416-.114.198-.232.393-.354.588-.047.077-.095.151-.147.225-.192.29-.395.573-.609.852-.05.071-.107.137-.162.203-.11.14-.225.28-.343.42l-29.878 34.786c-2.844 3.313-6.964 5.142-11.206 5.142-1.324 0-2.663-.177-3.976-.545-5.53-1.545-9.657-6.142-10.587-11.79l-.634-3.873c.015-.272-.022-.522-.122-.75.262.132 6.466 12.688 11.538 9.378 3.42-2.229 21.855-33.283 36.057-33.467 8.02-.103 10.907-2.637 11.9-4.825" transform="translate(0 -1) translate(0 .56)"/>
            <path fill="#0E6DA0" d="M159.236 231.667c0-.046.004-.092.006-.139l-.035-.016s.013.055.029.155" transform="translate(0 -1) translate(0 .56)"/>
            <path fill="#6BA997" d="M125.686 220.214v10.125l-1.608 1.596-13.947 13.85v-37.549c0-11.364-10.73-15.457-11.402-15.703 14.957.43 26.957 12.658 26.957 27.681" transform="translate(0 -1) translate(0 .56)"/>
            <path fill="#FFF" d="M142.78 231.52c2.973 3.608 8.317 4.13 11.937 1.166l9.866-8.082-10.766-13.066-9.867 8.08c-3.62 2.965-4.143 8.294-1.17 11.902" transform="translate(0 -1) translate(0 .56)"/>
            <path fill="#D0D2D3" d="M148.455 225.074l1.768 2.146c4.135 5.018 11.567 5.744 16.6 1.621l10.739-8.795-16.742-20.319-10.738 8.796c-5.033 4.122-5.762 11.533-1.627 16.551" transform="translate(0 -1) translate(0 .56)"/>
            <path fill="#FFF" d="M150.914 208.015l1.41 1.712c1.486 1.803 4.156 2.064 5.964.583 1.808-1.481 2.07-4.143.584-5.946l-1.41-1.712c-1.486-1.803-4.155-2.063-5.964-.582-1.808 1.48-2.07 4.142-.584 5.945M167.44 224.083c1.156 1.403 3.233 1.606 4.64.454l8.794-7.203c1.406-1.152 1.61-3.223.454-4.626-1.156-1.403-3.233-1.605-4.64-.453l-8.793 7.202c-1.407 1.152-1.611 3.223-.455 4.626" transform="translate(0 -1) translate(0 .56)"/>
            <path fill="#FFF" d="M163.255 219.003c1.156 1.403 3.233 1.606 4.64.454l8.793-7.203c1.407-1.152 1.61-3.223.455-4.626-1.156-1.403-3.233-1.605-4.64-.453l-8.793 7.202c-1.407 1.152-1.611 3.223-.455 4.626" transform="translate(0 -1) translate(0 .56)"/>
            <path fill="#FFF" d="M159.07 213.923c1.155 1.404 3.232 1.607 4.64.454l8.792-7.203c1.407-1.151 1.611-3.222.455-4.626-1.156-1.403-3.233-1.605-4.64-.453l-8.793 7.203c-1.407 1.151-1.61 3.222-.455 4.625" transform="translate(0 -1) translate(0 .56)"/>
            <path fill="#FFF" d="M154.884 208.844c1.156 1.403 3.233 1.606 4.64.454l18.22-14.925c1.408-1.152 1.612-3.223.456-4.626-1.156-1.403-3.233-1.606-4.64-.453l-18.221 14.924c-1.407 1.152-1.611 3.223-.455 4.626" transform="translate(0 -1) translate(0 .56)"/>
            <path fill="#596273" d="M194.74 58.558c-.323 0-.578.262-.578.578 0 .314.255.573.578.573h12.101c.326 0 .578-.26.578-.573 0-.316-.252-.578-.578-.578h-12.1z" transform="translate(0 -1) translate(0 .56)"/>
            <path fill="#F0CA67" d="M185.705 29.033c0-8.304 6.754-15.035 15.083-15.035 8.337 0 15.088 6.73 15.088 15.035 0 .495-.362 7.445-6.047 14.742-1.663 2.197-1.387 6.627-1.387 6.627H193.09s.316-4.43-1.34-6.627c-5.69-7.305-6.045-14.247-6.045-14.742" transform="translate(0 -1) translate(0 .56)"/>
            <path fill="#F4DA80" d="M200.788 50.401h-7.698s.317-4.429-1.341-6.627c-5.69-7.303-6.044-14.247-6.044-14.742 0-8.302 6.755-15.034 15.083-15.034" transform="translate(0 -1) translate(0 .56)"/>
            <path fill="#F4DA80" d="M212.664 29.033h-1.322c0-5.804-4.731-10.52-10.554-10.52v-1.32c6.554 0 11.876 5.31 11.876 11.84" transform="translate(0 -1) translate(0 .56)"/>
            <path fill="#30363D" d="M204.084 51.578L202.78 51.359 205.356 35.814 206.66 36.033zM197.495 51.578L194.918 36.033 196.225 35.814 198.801 51.359z" transform="translate(0 -1) translate(0 .56)"/>
            <path fill="#30363D" d="M205.922 38.003c-.535 0-.768-.524-.94-.907-.077-.161-.222-.495-.308-.495-.07.029-.172.29-.233.429-.151.388-.385.973-1.015.973-.375 0-.603-.377-.861-.815-.098-.161-.27-.444-.381-.555-.09.104-.224.33-.307.474-.277.46-.545.896-.956.896-.406 0-.667-.424-.93-.872-.091-.15-.24-.391-.328-.493-.104.106-.252.354-.35.516-.26.437-.508.849-.904.849-.443 0-.726-.473-1-.933-.092-.153-.221-.373-.301-.458-.11.037-.187.198-.316.519-.148.367-.342.872-.886.872V37.3c.07-.028.169-.287.224-.426.16-.392.39-.972 1.024-.972.375 0 .6.372.86.809.099.163.275.449.379.56.092-.106.23-.333.314-.475.279-.465.538-.894.956-.894.406 0 .66.422.932.868.092.153.23.39.326.498.1-.111.25-.36.347-.517.258-.438.507-.85.9-.85.446 0 .729.473.997.935.095.149.234.37.307.458.108-.04.19-.198.32-.521.14-.373.347-.871.882-.871.538 0 .775.523.947.908.07.16.218.49.3.49v.703zM208.473 50.41v7.864c0 .535-.437.973-.98.973h-13.389c-.538 0-.978-.438-.978-.973V50.41h15.347z" transform="translate(0 -1) translate(0 .56)"/>
            <path fill="#103754" d="M208.778 51.171L192.804 51.171" transform="translate(0 -1) translate(0 .56)"/>
            <path fill="#596273" d="M208.778 51.94h-15.974c-.424 0-.775-.345-.775-.77 0-.427.351-.772.775-.772h15.974c.43 0 .775.345.775.772 0 .425-.345.77-.775.77" transform="translate(0 -1) translate(0 .56)"/>
            <path fill="#30363D" d="M208.778 53.738L192.804 53.738" transform="translate(0 -1) translate(0 .56)"/>
            <path fill="#596273" d="M208.778 54.508h-15.974c-.424 0-.775-.348-.775-.77 0-.422.351-.771.775-.771h15.974c.43 0 .775.349.775.77 0 .423-.345.771-.775.771" transform="translate(0 -1) translate(0 .56)"/>
            <path fill="#30363D" d="M208.778 56.305L192.804 56.305" transform="translate(0 -1) translate(0 .56)"/>
            <path fill="#596273" d="M208.778 57.077h-15.974c-.424 0-.775-.34-.775-.772 0-.423.351-.77.775-.77h15.974c.43 0 .775.347.775.77 0 .432-.345.772-.775.772" transform="translate(0 -1) translate(0 .56)"/>
            <path stroke="#E7AD26" d="M200.788 8.695L200.788.44M190.221 11.528L186.083 4.372M182.493 19.238L175.314 15.106M179.667 29.768L171.379 29.768M219.086 40.287L226.267 44.423M221.921 29.758L230.206 29.758M219.086 19.227L226.261 15.095M211.348 11.52L215.492 4.365M200.788 8.695L200.788.44M200.797 8.695L200.797.44M211.354 11.528L215.498 4.372M219.086 19.238L226.267 15.106M221.921 29.768L230.206 29.768M182.493 40.287L175.314 44.423M179.667 29.758L171.379 29.758M182.502 19.227L175.32 15.095M190.237 11.52L186.093 4.365M200.797 8.695L200.797.44" transform="translate(0 -1) translate(0 .56)"/>
            <path fill="#AD4A90" d="M168.422 161.256c-.006-1.05-.38-1.935-1.127-2.655-.744-.719-1.993-1.373-3.758-1.947-2.448-.733-4.24-1.697-5.366-2.886-1.125-1.202-1.69-2.719-1.699-4.561-.007-1.88.534-3.422 1.63-4.633 1.091-1.209 2.593-1.929 4.515-2.163l-.013-3.766 2.568-.01.017 3.78c1.93.258 3.437 1.052 4.517 2.403 1.081 1.35 1.624 3.2 1.635 5.55l-3.17.013c-.008-1.625-.4-2.911-1.172-3.86-.778-.95-1.814-1.427-3.124-1.423-1.37.006-2.414.365-3.137 1.075-.723.71-1.082 1.696-1.075 2.96.005 1.172.39 2.099 1.158 2.797.766.686 2.03 1.316 3.784 1.87 1.754.569 3.128 1.184 4.112 1.865.984.678 1.71 1.469 2.184 2.37.463.904.703 1.964.711 3.179.008 1.935-.569 3.5-1.732 4.68-1.163 1.185-2.793 1.893-4.897 2.123l.016 3.279-2.554.008-.016-3.278c-2.136-.192-3.815-.943-5.034-2.262-1.218-1.32-1.83-3.113-1.839-5.377l3.19-.012c.004 1.593.43 2.814 1.271 3.674.843.858 2.034 1.281 3.574 1.273 1.506-.005 2.692-.376 3.55-1.1.857-.726 1.287-1.714 1.281-2.966M194.685 161.187c-.004-1.875-.611-3.404-1.815-4.579-1.198-1.182-2.765-1.767-4.696-1.757-1.923.007-3.468.594-4.63 1.773-1.16 1.167-1.733 2.708-1.728 4.616.01 1.902.58 3.41 1.722 4.493 1.133 1.083 2.712 1.63 4.738 1.62 2.005-.007 3.576-.563 4.714-1.666 1.135-1.11 1.705-2.615 1.695-4.5m-6.521-21.364c-1.681.01-3.043.528-4.082 1.573-1.035 1.046-1.552 2.456-1.546 4.242.007 1.704.526 3.087 1.56 4.132 1.026 1.051 2.4 1.571 4.114 1.564 1.714-.006 3.082-.536 4.1-1.598 1.02-1.053 1.529-2.44 1.521-4.144-.005-1.712-.543-3.103-1.613-4.172-1.07-1.077-2.418-1.604-4.054-1.597m9.95 5.687c.007 1.671-.43 3.163-1.313 4.48-.876 1.304-2.074 2.34-3.585 3.077 1.762.75 3.157 1.837 4.196 3.285 1.029 1.437 1.546 3.081 1.556 4.908.014 2.91-.964 5.233-2.924 6.96-1.957 1.731-4.543 2.601-7.752 2.615-3.243.015-5.841-.836-7.801-2.565-1.963-1.72-2.946-4.027-2.96-6.92-.008-1.819.489-3.462 1.477-4.923.989-1.469 2.364-2.583 4.12-3.334-1.504-.73-2.687-1.75-3.554-3.059-.871-1.309-1.312-2.79-1.318-4.445-.013-2.835.89-5.083 2.703-6.75 1.817-1.673 4.21-2.509 7.19-2.523 2.959-.013 5.364.806 7.196 2.461 1.832 1.656 2.756 3.898 2.769 6.733M219.906 150.058c-.015-3.622-.534-6.257-1.56-7.902-1.025-1.65-2.641-2.47-4.847-2.46-2.194.007-3.787.84-4.781 2.486-.996 1.652-1.505 4.184-1.517 7.6l.028 6.824c.016 3.639.55 6.318 1.617 8.04 1.063 1.724 2.665 2.586 4.81 2.577 2.116-.008 3.682-.828 4.7-2.467 1.023-1.63 1.55-4.203 1.58-7.71l-.03-6.988zm4.307 5.817c.017 4.997-.823 8.72-2.522 11.153-1.705 2.44-4.38 3.664-8.02 3.677-3.595.018-6.264-1.16-7.997-3.531-1.738-2.37-2.65-5.922-2.73-10.63l-.024-5.702c-.018-4.94.82-8.618 2.522-11.018 1.707-2.415 4.386-3.621 8.043-3.635 3.628-.015 6.299 1.13 8.02 3.442 1.72 2.303 2.617 5.869 2.68 10.705l.028 5.539zM244.89 149.93c-.015-3.622-.535-6.257-1.56-7.902-1.03-1.65-2.645-2.47-4.848-2.46-2.194.007-3.787.841-4.78 2.486-1 1.647-1.51 4.183-1.52 7.6l.03 6.824c.016 3.64.552 6.318 1.618 8.041 1.063 1.723 2.664 2.585 4.81 2.576 2.116-.008 3.681-.828 4.7-2.467 1.017-1.627 1.546-4.204 1.576-7.71l-.026-6.988zm4.306 5.817c.022 4.998-.817 8.718-2.525 11.152-1.701 2.441-4.375 3.665-8.016 3.678-3.595.014-6.263-1.164-8.001-3.532-1.736-2.368-2.647-5.92-2.725-10.632l-.02-5.702c-.022-4.94.816-8.615 2.517-11.015 1.707-2.415 4.38-3.622 8.042-3.635 3.625-.016 6.3 1.126 8.023 3.438 1.718 2.303 2.614 5.873 2.682 10.71l.023 5.538z" transform="translate(0 -1) translate(0 .56)"/>
        </g>
    </g>
</svg>
