<svg xmlns="http://www.w3.org/2000/svg" xmlns:xlink="http://www.w3.org/1999/xlink" width="565" height="368" viewBox="0 0 565 368">
    <defs>
        <path id="prefix__a" d="M0 0.197L97.814 0.197 97.814 80.077 0 80.077z"/>
        <path id="prefix__d" d="M.084.865v12.393l.001-.001c.913 1.88 2.84 3.175 5.068 3.175 2.23 0 4.156-1.295 5.068-3.175.911 1.88 2.84 3.175 5.069 3.175 2.228 0 4.155-1.295 5.067-3.175.914 1.88 2.839 3.175 5.068 3.175 2.23 0 4.156-1.295 5.07-3.175.91 1.88 2.837 3.175 5.067 3.175 2.228 0 4.154-1.295 5.067-3.175.914 1.88 2.84 3.175 5.068 3.175 2.228 0 4.155-1.295 5.067-3.172V.865H.084z"/>
        <path id="prefix__i" d="M5.46.39C3.992 1.112-.264 5.132.68 7.049c.943 1.917 6.729 1.005 8.196.285 1.467-.72 1.563-2.696.62-4.613C8.747 1.198 7.57.173 6.382.173c-.31 0-.62.069-.923.218"/>
        <path id="prefix__l" d="M1.289 2.719c-.943 1.918-.847 3.895.62 4.614 1.467.72 7.252 1.632 8.197-.285.943-1.917-3.314-5.937-4.78-6.657-.303-.149-.613-.218-.923-.218-1.187 0-2.366 1.025-3.114 2.546"/>
        <path id="prefix__o" d="M0 367.905L564.067 367.905 564.067 0.613 0 0.613z"/>
        <path id="prefix__q" d="M.678 63.569c0 35.085 28.095 63.533 62.747 63.533 34.658 0 62.751-28.448 62.751-63.533 0-35.095-28.093-63.54-62.75-63.54C28.77.03.677 28.475.677 63.57z"/>
        <path id="prefix__s" d="M.595.728c0 24.015 19.456 43.48 43.457 43.48V.728H.595z"/>
        <path id="prefix__u" d="M.595 44.282h43.457V.802C20.051.803.595 20.27.595 44.283z"/>
        <path id="prefix__w" d="M.68 44.282h43.459C44.139 20.27 24.68.802.68.802v43.48z"/>
        <path id="prefix__y" d="M.68.736v43.48c24.001 0 43.459-19.468 43.459-43.48H.68z"/>
        <path id="prefix__A" d="M0 367.905L564.067 367.905 564.067 0.613 0 0.613z"/>
        <path id="prefix__C" d="M15.712 5.896C14.525 2.882 11.594.745 8.157.745 3.67.745.034 4.382.034 8.869c0 3.895 2.743 7.145 6.403 7.935v18.089h18.83V16.732c3.516-.892 6.122-4.07 6.122-7.863 0-4.487-3.637-8.124-8.123-8.124-3.436 0-6.366 2.137-7.554 5.151"/>
        <path id="prefix__F" d="M0.394 0.354L11.115 0.354 11.115 57.528 0.394 57.528z"/>
        <path id="prefix__H" d="M0.394 0.504L11.115 0.504 11.115 10.51 0.394 10.51z"/>
        <path id="prefix__J" d="M0.394 0.188L11.115 0.188 11.115 27.167 0.394 27.167z"/>
        <linearGradient id="prefix__c" x1="50%" x2="50%" y1="28.733%" y2="95.723%">
            <stop offset="0%" stop-color="#CC6757"/>
            <stop offset="100%" stop-color="#CC6757"/>
        </linearGradient>
        <linearGradient id="prefix__e" x1="76.996%" x2="-28.183%" y1="46.31%" y2="58.85%">
            <stop offset="0%" stop-color="#F2EDD1"/>
            <stop offset="100%" stop-color="#C6C19A"/>
        </linearGradient>
        <linearGradient id="prefix__g" x1="49.999%" x2="49.999%" y1="87.64%" y2="14.416%">
            <stop offset="0%" stop-color="#D89044"/>
            <stop offset="100%" stop-color="#D89044"/>
        </linearGradient>
        <linearGradient id="prefix__h" x1="50.015%" x2="50.015%" y1="85.286%" y2="41.399%">
            <stop offset="0%" stop-color="#F2EDD1"/>
            <stop offset="100%" stop-color="#E2DDC1"/>
        </linearGradient>
        <linearGradient id="prefix__j" x1="49.995%" x2="49.995%" y1="-2.896%" y2="131.868%">
            <stop offset="0%" stop-color="#F2EDD1"/>
            <stop offset="100%" stop-color="#C6C19A"/>
        </linearGradient>
        <linearGradient id="prefix__m" x1="49.997%" x2="49.997%" y1="-2.896%" y2="131.868%">
            <stop offset="0%" stop-color="#F2EDD1"/>
            <stop offset="100%" stop-color="#C6C19A"/>
        </linearGradient>
        <linearGradient id="prefix__D" x1="37.393%" x2="88.522%" y1="12.206%" y2="125.259%">
            <stop offset="0%" stop-color="#F2EDD1"/>
            <stop offset="100%" stop-color="#C6C19A"/>
        </linearGradient>
    </defs>
    <g fill="none" fill-rule="evenodd">
        <path stroke="#2D75B9" stroke-width="1.798" d="M242.029 90.334L242.029 162.706" transform="translate(0 -1)"/>
        <g>
            <g transform="translate(0 -1) translate(0 2.672) translate(0 111.685)">
                <mask id="prefix__b" fill="#fff">
                    <use xlink:href="#prefix__a"/>
                </mask>
                <path fill="#E2854A" d="M70.72 49.044c1.27-3.48 5.12-5.292 8.6-4.03 3.491 1.253 5.296 5.104 4.036 8.587-1.25 3.495-5.099 5.29-8.577 4.04-3.493-1.256-5.31-5.102-4.058-8.597zm1.906 31.033L97.814 58.8l-5.83-32.445L19.349.196 0 53.939l72.626 26.139z" mask="url(#prefix__b)"/>
            </g>
            <path fill="#FFF" d="M51.946 137.249L56.131 138.756 30.38 161.496 26.212 159.998zM31.576 139.206c.602-1.648 1.31-3.627 3.009-3.71.301-.014.605.034.916.147 2.328.824 1.363 3.544.782 5.169-.605 1.691-1.33 3.675-3.026 3.756-.3.014-.616-.035-.925-.15-.594-.214-1.017-.582-1.268-1.107-.551-1.171.015-2.734.512-4.105m-1.049 7.366c4.625 1.668 7.749-.594 9.261-4.801 1.522-4.2.548-7.935-4.07-9.595-4.633-1.681-7.749.588-9.265 4.79-1.517 4.214-.552 7.933 4.074 9.606M46.45 157.992c.58-1.604 1.29-3.617 3.004-3.694.296-.016.61.034.91.146.612.223 1.601.83 1.508 2.49-.056.892-.408 1.871-.73 2.73-.592 1.645-1.32 3.628-3.023 3.716-.296.008-.59-.037-.903-.15-.595-.21-1.029-.588-1.276-1.118-.562-1.194.028-2.815.51-4.12m-.215 8.447c4.618 1.656 7.751-.592 9.256-4.795 1.52-4.21.55-7.941-4.081-9.608-4.61-1.658-7.737.598-9.258 4.798-1.519 4.206-.539 7.94 4.083 9.605" transform="translate(0 -1) translate(0 2.672)"/>
            <path stroke="#747374" stroke-linecap="round" stroke-linejoin="round" stroke-width="2.936" d="M78.688 164.244s46.6 20.585 58.095-1.148c11.495-21.731-6.727-32.438-14.626-20.22-7.893 12.227 21.501 44.086 47.1 36.325 30.29-9.17 60.121-91.404 16.96-87.77-37.058 3.12-30.848 97.187 59.145 83.461M80.913 160.4s12.417 5.976 18.448 5.357" transform="translate(0 -1) translate(0 2.672)"/>
            <path stroke="#2D75B9" stroke-width="1.798" d="M401.754 232.635L512.649 303.346" transform="translate(0 -1) translate(0 2.672)"/>
            <path fill="#E25D34" d="M436.671 119.558c-2.53 1.416-5.717.518-7.127-2-1.422-2.524-.526-5.715 1.995-7.13 2.518-1.419 5.712-.52 7.131 2.003 1.414 2.515.518 5.71-1.999 7.127m79.555-25.141l-21.818-38.838c-.847-1.513-2.756-2.05-4.27-1.2L417.86 94.97c-.976.547-1.586 1.579-1.605 2.699l-.303 25.718c-.013 1.12.565 2.167 1.53 2.739l22.13 13.123c.963.57 2.17.585 3.138.04l72.278-40.598c1.51-.849 2.052-2.765 1.198-4.275" transform="translate(0 -1) translate(0 2.672)"/>
            <path fill="#FFF" d="M453.943 117.333c-1.473.833-3.12 1.251-3.944 1.245l-1.226-3.386c.98-.002 2.434-.427 3.446-.996 1.669-.936 2.027-2.293 1.35-3.499-.757-1.343-1.948-1.537-4.074-1.674-3.387-.117-5.44-1.524-6.383-3.2-1.652-2.952-1.063-6.528 2.77-8.68 1.238-.695 2.571-1.013 3.269-.974l1.171 3.42c-.705-.04-1.668.107-2.684.674-1.538.86-1.752 2.21-1.2 3.195.618 1.098 1.486 1.366 4.14 1.461 3.294.097 5.214 1.467 6.313 3.412 1.893 3.368.642 6.988-2.948 9.002M482.885 100.867L474.583 105.527 464.217 87.059 467.803 85.046 476.467 100.468 481.179 97.826zM493.325 95.003L484.992 99.679 474.627 81.213 482.65 76.706 484.406 79.83 479.968 82.321 482.351 86.565 486.545 84.212 488.223 87.201 484.036 89.552 486.828 94.541 491.565 91.878zM461.389 103.711l-1.486-4.245c-.403-1.18-1.191-3.221-1.693-4.563l.083-.05c.845 1.114 2.136 2.84 2.957 3.855l2.771 3.526-2.632 1.477zm-2.78-13.498l-4.308 2.415 6.375 20.709 3.473-1.951-1.546-4.682 3.32-1.864 3.162 3.777 3.473-1.955-13.95-16.45z" transform="translate(0 -1) translate(0 2.672)"/>
            <path stroke="#747374" stroke-linecap="round" stroke-linejoin="round" stroke-width="2.279" d="M431.082 115.295s-11.653-1.247-15.13 8.094c-3.262 8.739 1.744 32.832-20.392 43.589" transform="translate(0 -1) translate(0 2.672)"/>
            <path fill="#6BC9FF" d="M175.16 87.772c2.025-1.79 4.556-4.018 4.556-7.264 0-3.244-2.53-5.472-4.556-7.26-.744-.652-1.983-1.749-2.159-2.12-.047-.538.627-2.134 1.028-3.088 1.029-2.452 2.312-5.503.936-8.352-1.4-2.89-4.607-3.789-7.188-4.516-.976-.272-2.6-.728-2.93-1.005-.27-.462-.342-2.164-.397-3.184-.133-2.668-.308-5.99-2.8-7.981-1.165-.933-2.678-1.404-4.49-1.404-1.31 0-2.62.228-3.886.45-.992.17-2.015.353-2.741.353-.254 0-.385-.036-.404-.017-.44-.337-1.214-1.77-1.68-2.63-1.295-2.37-2.897-5.311-6.037-6.026-.428-.096-.863-.147-1.31-.147-2.524 0-4.67 1.547-6.574 2.911-.852.61-2.278 1.633-2.76 1.702-.549-.07-1.971-1.093-2.822-1.702-1.905-1.364-4.055-2.911-6.579-2.911-.442 0-.885.051-1.31.147-3.14.715-4.746 3.656-6.03 6.026-.48.876-1.278 2.346-1.612 2.6 0 0-.137.042-.486.042-.723 0-1.745-.18-2.729-.354-1.271-.218-2.582-.447-3.891-.447-1.816 0-3.332.473-4.49 1.402-2.496 1.988-2.66 5.315-2.795 7.986-.047 1.016-.132 2.718-.335 3.097-.396.358-2.021.814-2.993 1.086-2.577.726-5.804 1.625-7.197 4.513-1.375 2.851-.088 5.903.942 8.355.396.958 1.073 2.552 1.05 2.989-.187.476-1.446 1.573-2.177 2.225-2.033 1.788-4.557 4.016-4.557 7.26 0 3.246 2.524 5.47 4.557 7.26.73.652 1.99 1.744 2.153 2.119.047.538-.63 2.138-1.026 3.09-1.03 2.45-2.317 5.503-.933 8.354 1.384 2.889 4.611 3.789 7.188 4.508.972.276 2.609.733 2.927 1.009.269.458.354 2.161.401 3.18.136 2.671.299 5.992 2.795 7.984 1.158.934 2.674 1.406 4.49 1.406 1.31 0 2.624-.234 3.899-.451.988-.176 1.998-.354 2.72-.354.274 0 .397.022.41.014.438.34 1.216 1.769 1.69 2.63 1.283 2.364 2.89 5.312 6.03 6.026.424.1.867.148 1.31.148 2.523 0 4.673-1.544 6.578-2.91.85-.613 2.273-1.638 2.756-1.701.548.063 1.97 1.088 2.826 1.7 1.904 1.367 4.05 2.91 6.574 2.91.447 0 .882-.046 1.31-.147 3.14-.714 4.742-3.662 6.036-6.027.474-.88 1.276-2.347 1.614-2.603 0 0 .128-.04.47-.04.727 0 1.75.177 2.733.35 1.268.221 2.585.455 3.896.455 1.81 0 3.324-.472 4.489-1.406 2.484-1.992 2.66-5.313 2.792-7.985.054-1.018.132-2.72.334-3.1.393-.355 2.017-.812 2.994-1.085 2.588-.72 5.795-1.622 7.195-4.506 1.368-2.853.093-5.905-.936-8.358-.401-.953-1.075-2.553-1.063-2.986.21-.476 1.45-1.57 2.194-2.22" transform="translate(0 -1) translate(0 2.672)"/>
            <path fill="#FFF" d="M119.541 94.184h-4.07l-3.494-8.695c-.781-1.937-1.812-4.863-2.353-6.9h-.069c.14 2.31.31 5.846.31 10.465v5.13h-3.914V71.285h4.085l3.53 8.97c.72 1.768 1.808 4.722 2.45 6.696h.065c-.131-2.416-.442-6.39-.442-10.603v-5.063h3.902v22.899zM133.805 94.184L123.479 94.184 123.479 71.285 133.443 71.285 133.443 75.159 127.927 75.159 127.927 80.426 133.125 80.426 133.125 84.127 127.927 84.127 127.927 90.312 133.805 90.312zM153.58 94.184h-4.587l-1.365-7.503c-.366-2.114-.707-4.729-1.017-7.51h-.067c-.413 2.748-.782 5.296-1.26 7.538l-1.528 7.475h-4.423l-3.892-22.899h4.622l1.117 9.14c.302 2.613.512 5.228.785 8.02h.089c.32-2.823.824-5.303 1.303-8.055l1.628-9.105h3.597l1.53 9.037c.409 2.585.82 5.135 1.089 8.123h.071c.302-2.988.574-5.437.89-8.088l1.112-9.072h4.349l-4.043 22.899z" transform="translate(0 -1) translate(0 2.672)"/>
            <path fill="#2D75B9" d="M555.622 299.507c0 23.95-19.429 43.37-43.377 43.37-23.945 0-43.364-19.42-43.364-43.37 0-23.952 19.42-43.367 43.364-43.367 23.948 0 43.377 19.415 43.377 43.367" transform="translate(0 -1) translate(0 2.672)"/>
            <path stroke="#2D75B9" stroke-width="1.798" d="M184.286 206.186L73.39 276.897" transform="translate(0 -1) translate(0 2.672)"/>
            <path fill="#2D75B9" d="M30.418 273.06c0 23.948 19.428 43.368 43.378 43.368 23.943 0 43.362-19.42 43.362-43.369 0-23.953-19.419-43.368-43.362-43.368-23.95 0-43.378 19.415-43.378 43.368" transform="translate(0 -1) translate(0 2.672)"/>
            <path stroke="#2D75B9" stroke-width="1.798" d="M395.618 219.868L522.556 185.446" transform="translate(0 -1) translate(0 2.672)"/>
            <path fill="#2D75B9" d="M548.64 151.082c17.713 16.12 19 43.56 2.88 61.273-16.117 17.708-43.55 19-61.262 2.88-17.715-16.124-19.004-43.554-2.889-61.261 16.121-17.712 43.557-19.014 61.272-2.892" transform="translate(0 -1) translate(0 2.672)"/>
            <path stroke="#747374" stroke-linecap="round" stroke-linejoin="round" stroke-width="2.279" d="M431.082 118.621s-6.804-2.456-13.6 7.505" transform="translate(0 -1) translate(0 2.672)"/>
            <path fill="#2D75B9" d="M288.301 46.899c0 25.554-20.716 46.272-46.267 46.272-25.555 0-46.273-20.718-46.273-46.272 0-25.556 20.718-46.272 46.273-46.272 25.55 0 46.267 20.716 46.267 46.272" transform="translate(0 -1) translate(0 2.672)"/>
            <path fill="#2CABAE" d="M113.663 242.124c-.904 0-1.638-.734-1.638-1.637v-14.223c0-1.84-.504-3.35-1.458-4.366-.79-.841-1.854-1.306-2.995-1.306-2.167 0-4.498 1.775-4.498 5.672v14.223c0 .903-.733 1.637-1.638 1.637-.904 0-1.638-.734-1.638-1.637v-14.223c0-5.874 3.911-8.947 7.774-8.947 3.841 0 7.73 3.073 7.73 8.947v14.223c0 .903-.734 1.637-1.639 1.637" transform="translate(0 -1) translate(0 2.672)"/>
            <path fill="#F2EED1" d="M116.527 247.2h1.696v-6.423H96.877v6.424h1.695l-6.81 55.931h3.623c4.251 0 9.728-2.134 12.164-4.825 2.42 2.714 7.914 4.825 12.165 4.825h3.624l-6.811-55.931z" transform="translate(0 -1) translate(0 2.672)"/>
            <path fill="#C6C29B" d="M118.223 247.2v-6.423h-10.674v57.53c2.42 2.714 7.914 4.825 12.165 4.825h3.623l-6.81-55.931h1.696z" transform="translate(0 -1) translate(0 2.672)"/>
            <path fill="#187E89" d="M55.764 240.63c-.904 0-1.638-.733-1.638-1.636V232.1c0-3.564-1.22-6.536-3.533-8.593-2.067-1.84-4.871-2.855-7.894-2.855-5.516 0-11.454 3.583-11.454 11.448v6.894c0 .903-.732 1.637-1.637 1.637-.904 0-1.638-.734-1.638-1.637V232.1c0-9.665 7.41-14.723 14.73-14.723 3.826 0 7.402 1.309 10.072 3.684 3.03 2.697 4.63 6.514 4.63 11.04v6.893c0 .903-.733 1.637-1.638 1.637" transform="translate(0 -1) translate(0 2.672)"/>
        </g>
        <path fill="url(#prefix__c)" d="M27.458 305.805L78.138 305.805 78.138 242.237 27.458 242.237z" transform="translate(0 -1)"/>
        <g>
            <path fill="#BF423C" d="M0.889 64.433L11.035 64.433 11.035 0.866 0.889 0.866z" transform="translate(0 -1) translate(16.424 241.372)"/>
            <path fill="#C6C29B" d="M.898 13.257c.913 1.88 2.84 3.174 5.069 3.174s4.155-1.294 5.068-3.173V.866H.89v12.363l.009.028z" transform="translate(0 -1) translate(16.424 241.372)"/>
        </g>
        <g transform="translate(0 -1) translate(27.374 241.372)">
            <mask id="prefix__f" fill="#fff">
                <use xlink:href="#prefix__d"/>
            </mask>
            <path fill="url(#prefix__e)" d="M.084.865v12.393l.001-.001c.913 1.88 2.84 3.175 5.068 3.175 2.23 0 4.156-1.295 5.068-3.175.911 1.88 2.84 3.175 5.069 3.175 2.228 0 4.155-1.295 5.067-3.175.914 1.88 2.839 3.175 5.068 3.175 2.23 0 4.156-1.295 5.07-3.175.91 1.88 2.837 3.175 5.067 3.175 2.228 0 4.154-1.295 5.067-3.175.914 1.88 2.84 3.175 5.068 3.175 2.228 0 4.155-1.295 5.067-3.172V.865H.084z" mask="url(#prefix__f)"/>
        </g>
        <path fill="#F5C268" d="M58.333 282.501L98.314 282.501 98.314 271.823 58.333 271.823z" transform="translate(0 -1)"/>
        <path fill="url(#prefix__g)" d="M60.65 305.805L95.997 305.805 95.997 282.502 60.65 282.502z" transform="translate(0 -1)"/>
        <path fill="url(#prefix__h)" d="M75.136 305.805L81.508 305.805 81.508 282.502 75.136 282.502z" transform="translate(0 -1)"/>
        <path fill="#F2EED1" d="M75.137 282.501L81.51 282.501 81.51 271.822 75.137 271.822z" transform="translate(0 -1)"/>
        <g transform="translate(0 -1) translate(77.742 263.271)">
            <mask id="prefix__k" fill="#fff">
                <use xlink:href="#prefix__i"/>
            </mask>
            <path fill="url(#prefix__j)" d="M5.46.39C3.992 1.112-.264 5.132.68 7.049c.943 1.917 6.729 1.005 8.196.285 1.467-.72 1.563-2.696.62-4.613C8.747 1.198 7.57.173 6.382.173c-.31 0-.62.069-.923.218" mask="url(#prefix__k)"/>
        </g>
        <g transform="translate(0 -1) translate(67.887 263.271)">
            <mask id="prefix__n" fill="#fff">
                <use xlink:href="#prefix__l"/>
            </mask>
            <path fill="url(#prefix__m)" d="M1.289 2.719c-.943 1.918-.847 3.895.62 4.614 1.467.72 7.252 1.632 8.197-.285.943-1.917-3.314-5.937-4.78-6.657-.303-.149-.613-.218-.923-.218-1.187 0-2.366 1.025-3.114 2.546" mask="url(#prefix__n)"/>
        </g>
        <g transform="translate(0 -1) translate(0 .482)">
            <path fill="#2CABAE" d="M64.828 249.694c-.905 0-1.638-.733-1.638-1.638V234.29c0-3.564-1.222-6.535-3.534-8.593-2.067-1.84-4.871-2.853-7.893-2.853-5.517 0-11.455 3.581-11.455 11.446v13.766c0 .905-.732 1.638-1.638 1.638-.904 0-1.637-.733-1.637-1.638V234.29c0-9.666 7.41-14.722 14.73-14.722 3.826 0 7.403 1.308 10.071 3.683 3.03 2.697 4.63 6.514 4.63 11.04v13.765c0 .905-.732 1.638-1.636 1.638"/>
            <path fill="#475059" d="M365.642 97.196c-8.888 0-16.092-7.207-16.092-16.095 0-8.885 7.204-16.088 16.092-16.088 8.893 0 16.087 7.203 16.087 16.088 0 8.888-7.194 16.095-16.087 16.095m0-48.515c-17.905 0-32.421 14.512-32.421 32.42 0 17.912 32.421 45.55 32.421 45.55s32.412-27.638 32.412-45.55c0-17.908-14.507-32.42-32.412-32.42"/>
            <path fill="#FFF" d="M365.642 97.196c-8.888 0-16.092-7.207-16.092-16.095 0-8.885 7.204-16.088 16.092-16.088 8.893 0 16.087 7.203 16.087 16.088 0 8.888-7.194 16.095-16.087 16.095"/>
            <path fill="#D1ECFB" d="M365.642 65.014c8.893 0 16.087 7.201 16.087 16.087 0 8.888-7.194 16.095-16.087 16.095"/>
            <mask id="prefix__p" fill="#fff">
                <use xlink:href="#prefix__o"/>
            </mask>
            <path fill="#D68B3B" d="M181.429 274.831L398.735 274.831 398.735 135.718 181.429 135.718z" mask="url(#prefix__p)"/>
            <path fill="#DF9A4D" d="M172.257 292.917L407.906 292.917 407.906 152.009 172.257 152.009z" mask="url(#prefix__p)"/>
            <path fill="#FFC57D" d="M162.78 309.211L417.381 309.211 417.381 168.305 162.78 168.305z" mask="url(#prefix__p)"/>
        </g>
        <g transform="translate(0 -1) translate(226.656 175.675)">
            <mask id="prefix__r" fill="#fff">
                <use xlink:href="#prefix__q"/>
            </mask>
            <path fill="#FFF" d="M-0.418 128.197L127.272 128.197 127.272 -1.064 -0.418 -1.064z" mask="url(#prefix__r)"/>
        </g>
        <path fill="#FFFFA9" d="M385.562 250.626c-6.283 0-11.384-5.103-11.384-11.387 0-6.286 5.101-11.383 11.384-11.383 6.282 0 11.382 5.097 11.382 11.383 0 6.284-5.1 11.387-11.382 11.387" transform="translate(0 -1)"/>
        <g transform="translate(0 -1) translate(373.38 168.01)">
            <mask id="prefix__t" fill="#fff">
                <use xlink:href="#prefix__s"/>
            </mask>
            <path fill="#225F9B" d="M-0.501 45.304L45.147 45.304 45.147 -0.367 -0.501 -0.367z" mask="url(#prefix__t)"/>
        </g>
        <g transform="translate(0 -1) translate(373.38 265.461)">
            <mask id="prefix__v" fill="#fff">
                <use xlink:href="#prefix__u"/>
            </mask>
            <path fill="#225F9B" d="M-0.501 45.377L45.147 45.377 45.147 -0.293 -0.501 -0.293z" mask="url(#prefix__v)"/>
        </g>
        <g>
            <path fill="#FFFFA9" d="M32.55.717c6.28 0 11.382 5.104 11.382 11.39 0 6.285-5.101 11.382-11.383 11.382-6.28 0-11.383-5.097-11.383-11.382 0-6.286 5.102-11.39 11.383-11.39" transform="translate(0 -1) translate(162.053 227.138)"/>
            <path fill="#225F9B" d="M.68 39.126v43.48h43.458c0-24.015-19.457-43.48-43.458-43.48" transform="translate(0 -1) translate(162.053 227.138)"/>
        </g>
        <g transform="translate(0 -1) translate(162.053 265.461)">
            <mask id="prefix__x" fill="#fff">
                <use xlink:href="#prefix__w"/>
            </mask>
            <path fill="#225F9B" d="M-0.416 45.377L45.234 45.377 45.234 -0.293 -0.416 -0.293z" mask="url(#prefix__x)"/>
        </g>
        <g transform="translate(0 -1) translate(162.053 168.01)">
            <mask id="prefix__z" fill="#fff">
                <use xlink:href="#prefix__y"/>
            </mask>
            <path fill="#225F9B" d="M0.738 0.348L46.659 0.306 46.659 45.977 0.68 46.369z" mask="url(#prefix__z)"/>
        </g>
        <g transform="translate(0 -1) translate(0 .482)">
            <path fill="#D0D2D3" d="M427.617 367.904h-275.07c-6.663 0-12.064-5.4-12.064-12.065v-23.782c0-6.664 5.401-12.066 12.064-12.066h275.07c6.664 0 12.067 5.402 12.067 12.066v23.782c0 6.664-5.403 12.065-12.067 12.065"/>
            <path fill="#FFF" d="M427.617 363.95h-275.07c-6.663 0-12.064-5.401-12.064-12.065v-23.782c0-6.664 5.401-12.066 12.064-12.066h275.07c6.664 0 12.067 5.402 12.067 12.066v23.782c0 6.664-5.403 12.065-12.067 12.065"/>
            <path fill="#FFF" d="M301.377 316.037L289.825 327.588 278.273 316.037 289.825 304.486z"/>
            <mask id="prefix__B" fill="#fff">
                <use xlink:href="#prefix__A"/>
            </mask>
            <path fill="#ADEBF6" d="M210.698 76.384L273.996 76.384 273.996 25.452 210.698 25.452z" mask="url(#prefix__B)"/>
            <path fill="#475059" d="M210.698 76.383h63.298V25.451h-63.298v50.932zm-5.454 5.455h74.206v-61.84h-74.206v61.84z" mask="url(#prefix__B)"/>
            <path fill="#FFDB7A" d="M256.027 81.838L273.996 81.838 273.996 48.062 256.027 48.062z" mask="url(#prefix__B)"/>
            <path fill="#FFF" d="M215.891 62.514L230.344 62.514 230.344 48.062 215.891 48.062z" mask="url(#prefix__B)"/>
            <path fill="#FFDB7A" d="M218.48 59.927L227.756 59.927 227.756 50.65 218.48 50.65z" mask="url(#prefix__B)"/>
            <path fill="#FFF" d="M236.165 62.514L250.618 62.514 250.618 48.062 236.165 48.062z" mask="url(#prefix__B)"/>
            <path fill="#FFDB7A" d="M238.752 59.927L248.028 59.927 248.028 50.65 238.752 50.65z" mask="url(#prefix__B)"/>
            <path fill="#E25D34" d="M205.244 19.997v15.33c0 3.415 2.768 6.183 6.183 6.183 3.417 0 6.186-2.768 6.186-6.183v-15.33h-12.369zM242.347 19.997H229.98v15.33c0 3.415 2.768 6.183 6.185 6.183 3.411 0 6.177-2.763 6.182-6.172V19.997z" mask="url(#prefix__B)"/>
            <path fill="#FFF" d="M217.613 19.997v15.33c0 3.415 2.768 6.183 6.183 6.183 3.416 0 6.184-2.768 6.184-6.183v-15.33h-12.367zM242.349 19.997v15.33l-.002.01c.007 3.41 2.772 6.173 6.184 6.173 3.417 0 6.185-2.768 6.185-6.183v-15.33H242.35z" mask="url(#prefix__B)"/>
            <path fill="#FFF" d="M242.349 19.997h-.002v15.34l.002-.01v-15.33z" mask="url(#prefix__B)"/>
            <path fill="#E25D34" d="M267.082 19.997h-12.366v15.33c0 3.415 2.768 6.183 6.184 6.183 3.412 0 6.177-2.763 6.183-6.172V19.997z" mask="url(#prefix__B)"/>
            <path fill="#FFF" d="M267.083 35.327v.01c.006 3.41 2.772 6.173 6.184 6.173 3.416 0 6.184-2.768 6.184-6.183v-15.33h-12.368v15.33zM267.083 19.997v15.34-15.34z" mask="url(#prefix__B)"/>
            <path fill="#475059" d="M205.245 15.611L279.451 15.611 279.451 12.884 205.245 12.884zM284.088.613L200.606.613 205.244 8.794 279.451 8.794z" mask="url(#prefix__B)"/>
            <path fill="#525C6B" d="M548.132 154.834L543.582 154.834 525.382 154.834 520.831 154.834 520.831 157.678 523.96 157.678 523.96 163.079 526.803 163.079 526.803 157.678 542.16 157.678 542.16 166.491 545.005 166.491 545.005 157.678 548.132 157.678z" mask="url(#prefix__B)"/>
            <path fill="#7A8E9B" d="M500.639 161.657h13.08v-9.668h-13.08v9.668zm20.19-12.513h-27.301v2.845h4.266v11.09c0 .784.637 1.423 1.422 1.423h15.926c.785 0 1.42-.639 1.42-1.423v-11.09h4.267v-2.845z" mask="url(#prefix__B)"/>
            <path fill="#F1BB6B" d="M552.686 164.217h-30.718v51.188h30.718c2.503 0 4.55-2.047 4.55-4.55v-42.088c0-2.504-2.047-4.55-4.55-4.55" mask="url(#prefix__B)"/>
            <path fill="#525C6B" d="M544.243 215.405v.57c0 1.569 1.273 2.843 2.844 2.843h1.4c1.57 0 2.844-1.274 2.844-2.843v-.57h-7.088z" mask="url(#prefix__B)"/>
            <path fill="#F87670" d="M525.384 160.804h-36.4c-2.504 0-4.551 2.045-4.551 4.55v45.501c0 2.502 2.047 4.55 4.55 4.55h36.4c2.503 0 4.55-2.048 4.55-4.55v-45.5c0-2.506-2.047-4.551-4.55-4.551" mask="url(#prefix__B)"/>
            <path fill="#DB5743" d="M521.402 187.536h-28.438c-.626 0-1.138.512-1.138 1.138v18.2c0 .623.512 1.137 1.138 1.137h28.438c.625 0 1.137-.514 1.137-1.137v-18.2c0-.626-.512-1.138-1.137-1.138M521.402 168.198h-28.438c-.626 0-1.138.511-1.138 1.138v9.1c0 .624.512 1.138 1.138 1.138h28.438c.625 0 1.137-.514 1.137-1.138v-9.1c0-.627-.512-1.138-1.137-1.138" mask="url(#prefix__B)"/>
            <path fill="#7A8E9B" d="M518.078 215.405v.57c0 1.569 1.273 2.843 2.844 2.843h1.4c1.57 0 2.843-1.274 2.843-2.843v-.57h-7.087zM489.192 215.69c0 1.729 1.4 3.128 3.129 3.128h.83c1.728 0 3.13-1.4 3.13-3.128v-.285h-7.089v.285z" mask="url(#prefix__B)"/>
            <path fill="#E49A61" d="M529.933 208.296L551.33 208.296 551.33 205.452 529.933 205.452zM529.933 199.765L551.33 199.765 551.33 196.92 529.933 196.92zM529.933 191.233L551.33 191.233 551.33 188.389 529.933 188.389zM529.933 182.702L551.33 182.702 551.33 179.857 529.933 179.857zM529.933 174.17L551.33 174.17 551.33 171.327 529.933 171.327z" mask="url(#prefix__B)"/>
            <path fill="#FFBD66" d="M491.827 193.224L522.54 193.224 522.54 190.948 491.827 190.948zM491.827 173.886L522.54 173.886 522.54 171.61 491.827 171.61z" mask="url(#prefix__B)"/>
            <path fill="#C6C29B" d="M495.882 283.705L512.712 283.705 512.712 278.598 495.882 278.598zM512.712 283.705L529.541 283.705 529.541 278.598 512.712 278.598z" mask="url(#prefix__B)"/>
        </g>
        <g transform="translate(0 -1) translate(489.445 245.752)">
            <mask id="prefix__E" fill="#fff">
                <use xlink:href="#prefix__C"/>
            </mask>
            <path fill="url(#prefix__D)" d="M15.712 5.896C14.525 2.882 11.594.745 8.157.745 3.67.745.034 4.382.034 8.869c0 3.895 2.743 7.145 6.403 7.935v18.089h18.83V16.732c3.516-.892 6.122-4.07 6.122-7.863 0-4.487-3.637-8.124-8.123-8.124-3.436 0-6.366 2.137-7.554 5.151" mask="url(#prefix__E)"/>
        </g>
        <g>
            <path fill="#E1DEB4" d="M75.143 9.056c0-4.486-3.636-8.123-8.123-8.123-3.012 0-5.636 1.645-7.039 4.08-1.373-2.542-4.06-4.268-7.15-4.268V34.893H69.66v-18.16c3.188-1.097 5.483-4.116 5.483-7.677" transform="translate(0 -1) translate(459.881 245.752)"/>
            <path fill="#8EADBE" d="M56.712 52.865c0 2.397-1.943 4.342-4.342 4.342-2.398 0-4.341-1.945-4.341-4.342 0-2.398 1.943-4.341 4.341-4.341 2.4 0 4.342 1.943 4.342 4.341" transform="translate(0 -1) translate(459.881 245.752)"/>
            <path fill="#B1C3D0" d="M52.37 53.95c1.391 0 2.758.105 4.096.3.147-.437.246-.897.246-1.384 0-2.4-1.944-4.342-4.341-4.342-2.398 0-4.342 1.942-4.342 4.342 0 .486.099.947.246 1.384 1.337-.195 2.704-.3 4.094-.3" transform="translate(0 -1) translate(459.881 245.752)"/>
            <path fill="#8EADBE" d="M56.712 52.865c0-2.398-1.943-4.341-4.342-4.341v8.683c2.4 0 4.342-1.945 4.342-4.342" transform="translate(0 -1) translate(459.881 245.752)"/>
            <path fill="#34485C" d="M84.932 85.425H19.81c-1.198 0-2.17.973-2.17 2.17 0 1.198.972 2.172 2.17 2.172h65.122c1.199 0 2.17-.974 2.17-2.172 0-1.197-.971-2.17-2.17-2.17" transform="translate(0 -1) translate(459.881 245.752)"/>
            <path fill="#B1C3D0" d="M80.59 83.255v-.008c-.006-15.556-12.662-28.21-28.22-28.21-15.56 0-28.22 12.658-28.22 28.219 0 1.199-.003 2.169.002 2.169h56.437c.005 0 0-1.871 0-2.17" transform="translate(0 -1) translate(459.881 245.752)"/>
            <path fill="#8EADBE" d="M52.37 55.036v30.39H80.59c.004 0 0-1.872 0-2.172v-.007c-.005-15.556-12.661-28.211-28.218-28.211" transform="translate(0 -1) translate(459.881 245.752)"/>
            <path fill="#576D7E" d="M84.932 85.425H19.81c-1.198 0-2.17.973-2.17 2.17h69.462c0-1.197-.971-2.17-2.17-2.17" transform="translate(0 -1) translate(459.881 245.752)"/>
            <path fill="#B1C3D0" d="M15.74 32.107c-.987 0-.893.8-.893 1.787l.003 14.042c-.022.877-.637 1.673-1.503 1.808-1.109.174-2.068-.684-2.07-1.76l-.895-14.091c0-.987.093-1.786-.893-1.786-.987 0-.893.8-.893 1.787l-.893 14.081-.007.056c-.087.863-.721 1.633-1.584 1.725-1.071.116-1.981-.724-1.983-1.772l.002-14.091c0-.987.093-1.786-.893-1.786-.987 0-.893.8-.893 1.787L.556 47.975l-.001.005.001.008v.886c0 2.873 1.364 5.434 3.48 7.07 1.748 1.35 2.773 3.433 2.773 5.643l-.894 25.015c0 1.45 1.98 2.6 3.43 2.676 1.545.081 3.718-1.147 3.718-2.676l-.894-25.014c0-2.21 1.024-4.292 2.773-5.644 2.116-1.636 3.48-4.197 3.48-7.07l-1.789-14.981c0-.987.093-1.786-.893-1.786" transform="translate(0 -1) translate(459.881 245.752)"/>
            <g transform="translate(0 -1) translate(459.881 245.752) translate(93.071 31.754)">
                <mask id="prefix__G" fill="#fff">
                    <use xlink:href="#prefix__F"/>
                </mask>
                <path fill="#B1C3D0" d="M11.115 1.85c0-.826-.671-1.496-1.498-1.496C7.295.354 5 1.13 3.291 2.7 1.426 4.415.394 6.771.394 9.285v17.869c0 1.973 1.6 3.574 3.574 3.574.986 0 1.786.8 1.786 1.786l-.893 22.183c0 1.451 1.98 2.75 3.43 2.828 1.544.08 2.823-1.148 2.823-2.678V28.945l.001-.004V1.85z" mask="url(#prefix__G)"/>
            </g>
            <path fill="#8EADBE" d="M.556 48.874c0 2.874 1.364 5.435 3.48 7.07 1.748 1.35 2.773 3.434 2.773 5.642l-.35 9.798 6.193 3.715-.483-13.512c0-2.208 1.024-4.292 2.773-5.643.005-.003.008-.008.011-.011L.636 47.343l-.08.633-.001.004v.894zM4.129 46.759L4.129 43.185 1.373 41.532.953 44.852zM18.01 51.513l-3.74-2.244c-.249.244-.562.42-.922.475-1.11.173-2.069-.683-2.07-1.76l-.036-.531-3.378-2.028-.16 2.55-.007.056c-.026.26-.108.507-.224.733l9.133 5.48c.617-.814 1.094-1.734 1.404-2.731" transform="translate(0 -1) translate(459.881 245.752)"/>
            <g transform="translate(0 -1) translate(459.881 245.752) translate(93.071 41.608)">
                <mask id="prefix__I" fill="#fff">
                    <use xlink:href="#prefix__H"/>
                </mask>
                <path fill="#8EADBE" d="M11.115 6.936L0.394 0.504 0.394 4.078 11.115 10.51z" mask="url(#prefix__I)"/>
            </g>
            <path fill="#8EADBE" d="M5.915 86.601c0 1.451 1.98 2.601 3.43 2.677 1.546.082 3.717-1.148 3.717-2.677l-.313-8.764-6.384-3.83-.45 12.594z" transform="translate(0 -1) translate(459.881 245.752)"/>
            <g transform="translate(0 -1) translate(459.881 245.752) translate(93.071 48.178)">
                <mask id="prefix__K" fill="#fff">
                    <use xlink:href="#prefix__J"/>
                </mask>
                <path fill="#8EADBE" d="M.394.188V10.73c0 1.973 1.6 3.574 3.574 3.574.986 0 1.786.8 1.786 1.785l-.31 7.676 5.67 3.402V12.521l.001-.004V6.62L.395.188z" mask="url(#prefix__K)"/>
            </g>
            <path fill="#8EADBE" d="M98.411 74.561l-.478 11.89c0 1.451 1.978 2.75 3.428 2.826 1.545.083 2.824-1.146 2.824-2.676v-8.575L98.41 74.56z" transform="translate(0 -1) translate(459.881 245.752)"/>
        </g>
        <path fill="#225F9B" d="M253.403 248.99c-.006-1.15-.417-2.118-1.233-2.907-.814-.786-2.181-1.502-4.113-2.131-2.68-.803-4.641-1.858-5.873-3.16-1.232-1.314-1.85-2.974-1.86-4.991-.008-2.058.584-3.746 1.784-5.071 1.194-1.322 2.838-2.11 4.942-2.368l-.014-4.12 2.81-.011.019 4.136c2.112.282 3.762 1.151 4.944 2.63 1.183 1.477 1.777 3.502 1.79 6.074l-3.471.016c-.008-1.779-.438-3.187-1.282-4.226-.852-1.039-1.986-1.562-3.42-1.558-1.5.008-2.642.4-3.433 1.178-.791.777-1.184 1.856-1.176 3.239.005 1.284.425 2.297 1.267 3.062.838.751 2.222 1.44 4.142 2.046 1.92.623 3.423 1.297 4.5 2.042 1.077.741 1.87 1.607 2.39 2.594.508.989.77 2.149.779 3.479.009 2.117-.623 3.83-1.896 5.123-1.273 1.297-3.057 2.072-5.36 2.323l.018 3.588-2.796.01-.017-3.587c-2.338-.21-4.176-1.033-5.51-2.476-1.333-1.446-2.004-3.408-2.013-5.886l3.49-.014c.006 1.744.471 3.08 1.393 4.023.923.939 2.226 1.402 3.912 1.393 1.648-.006 2.946-.413 3.885-1.205.938-.794 1.409-1.875 1.402-3.245" transform="translate(0 -1)"/>
        <path fill="#225F9B" fill-rule="nonzero" d="M272.704 257.459c3.183 0 5.749-.857 7.7-2.57 1.95-1.714 2.926-4.016 2.926-6.908 0-1.82-.509-3.45-1.526-4.888-1.018-1.438-2.399-2.532-4.143-3.282 1.5-.734 2.69-1.752 3.569-3.052.88-1.3 1.32-2.785 1.32-4.452 0-2.815-.907-5.05-2.72-6.702-1.813-1.652-4.188-2.478-7.126-2.478-2.953 0-5.332.826-7.137 2.478-1.805 1.653-2.708 3.887-2.708 6.702 0 1.652.428 3.128 1.285 4.429.857 1.3 2.027 2.318 3.511 3.052-1.744.75-3.11 1.851-4.096 3.305-.987 1.453-1.48 3.083-1.48 4.888 0 2.876.967 5.175 2.903 6.896 1.935 1.721 4.51 2.582 7.722 2.582zm0-19.392c-1.698 0-3.056-.524-4.073-1.572-1.018-1.048-1.526-2.421-1.526-4.12 0-1.774.516-3.178 1.549-4.21 1.032-1.033 2.383-1.55 4.05-1.55 1.622 0 2.96.536 4.016 1.607 1.056 1.07 1.584 2.455 1.584 4.153 0 1.699-.509 3.072-1.526 4.12-1.018 1.048-2.376 1.572-4.074 1.572zm0 15.927c-2.004 0-3.568-.543-4.693-1.63-1.124-1.086-1.687-2.578-1.687-4.475 0-1.897.578-3.427 1.733-4.59 1.155-1.162 2.689-1.744 4.601-1.744 1.913 0 3.462.59 4.648 1.767 1.185 1.178 1.778 2.7 1.778 4.567 0 1.882-.566 3.37-1.698 4.464-1.132 1.094-2.693 1.64-4.682 1.64zm26.415 3.465c3.61 0 6.265-1.209 7.963-3.626 1.698-2.417 2.548-6.112 2.548-11.084v-5.508c-.046-4.804-.918-8.358-2.617-10.66-1.698-2.303-4.345-3.454-7.94-3.454-3.626 0-6.288 1.193-7.986 3.58-1.699 2.387-2.548 6.036-2.548 10.947v5.668c.061 4.697.949 8.228 2.662 10.591 1.714 2.364 4.353 3.546 7.918 3.546zm0-3.465c-2.127 0-3.714-.86-4.762-2.582-1.048-1.721-1.572-4.387-1.572-7.998v-6.793c.03-3.396.543-5.913 1.537-7.55.995-1.637 2.578-2.456 4.75-2.456 2.189 0 3.788.823 4.797 2.467 1.01 1.645 1.515 4.265 1.515 7.86v6.954c-.046 3.488-.578 6.043-1.595 7.665-1.017 1.622-2.574 2.433-4.67 2.433zm26.391 3.465c3.611 0 6.266-1.209 7.964-3.626 1.698-2.417 2.547-6.112 2.547-11.084v-5.508c-.046-4.804-.918-8.358-2.616-10.66-1.698-2.303-4.345-3.454-7.94-3.454-3.626 0-6.289 1.193-7.987 3.58-1.698 2.387-2.547 6.036-2.547 10.947v5.668c.061 4.697.948 8.228 2.662 10.591 1.713 2.364 4.353 3.546 7.917 3.546zm0-3.465c-2.126 0-3.714-.86-4.762-2.582-1.048-1.721-1.572-4.387-1.572-7.998v-6.793c.031-3.396.544-5.913 1.538-7.55.994-1.637 2.578-2.456 4.75-2.456 2.188 0 3.787.823 4.797 2.467 1.01 1.645 1.515 4.265 1.515 7.86v6.954c-.046 3.488-.578 6.043-1.595 7.665-1.018 1.622-2.575 2.433-4.67 2.433z" transform="translate(0 -1)"/>
        <path fill="#0E6DA0" fill-rule="nonzero" d="M159.938 337.8v-2.76h15.024v2.76h2.544v-4.992h-8.904c-.216-.624-.432-1.176-.672-1.704l-2.784.432c.264.384.504.816.744 1.272h-8.496v4.992h2.544zm-2.688 8.4c4.272-.696 7.776-1.608 10.56-2.76 2.88 1.32 6.216 2.088 10.008 2.304l.576-2.256c-2.88-.144-5.496-.624-7.848-1.392 1.584-.96 2.76-2.016 3.576-3.192v-1.992h-8.472c.264-.36.528-.744.792-1.152l-2.448-.552c-1.608 2.184-3.48 3.864-5.616 5.064l1.584 1.92c.936-.6 1.848-1.272 2.736-2.016.768.672 1.608 1.296 2.52 1.872-2.424.768-5.4 1.416-8.928 1.92l.96 2.232zm10.632-5.184c-1.176-.576-2.28-1.224-3.312-1.992h6.528c-.84.72-1.92 1.368-3.216 1.992zm-4.92 12.552v-.864h9.384v.864h2.448v-7.896h-14.256v7.896h2.424zm9.384-3.12h-9.384v-2.544h9.384v2.544zm11.332-12.744v-2.256h15.744v2.256h2.472v-4.56h-8.976c-.24-.744-.48-1.416-.72-2.016l-2.568.432c.264.48.504 1.008.744 1.584h-9.168v4.56h2.472zm6.048 15.768c2.208 0 3.648-.456 4.296-1.32.528-.72.816-2.04.816-4.008 0-.408-.024-.816-.072-1.2 1.68 2.016 3.888 3.744 6.576 5.208l1.32-2.256c-2.976-1.392-5.376-3.072-7.2-5.064 1.968-.792 3.744-1.896 5.352-3.288l-1.728-1.704c-1.68 1.512-3.48 2.64-5.352 3.384-.48-1.008-1.104-1.944-1.896-2.808.528-.312 1.032-.648 1.56-1.008h5.256v-2.304h-14.208v2.304h4.992c-.432.192-.888.384-1.344.576-1.944.792-4.008 1.416-6.192 1.848l1.272 2.088c2.88-.864 5.112-1.68 6.648-2.424 0-.024.048-.048.096-.048.192.24.408.504.6.768-2.208 1.512-5.232 2.76-9.072 3.72l1.248 2.136c3.648-1.056 6.6-2.4 8.856-4.032.168.384.312.792.456 1.224-2.568 2.016-6.192 3.672-10.872 4.992l1.248 2.136c4.104-1.248 7.44-2.832 10.032-4.752 0 .144.024.312.024.504 0 1.272-.216 2.136-.6 2.592-.336.336-1.152.528-2.448.528h-1.248l.84 2.208h.744zm35.692.192l1.392-2.136c-3.648-1.344-6.72-2.976-9.192-4.944 2.208-2.424 3.888-5.424 5.04-9.024h3.624v-2.496h-9.072c-.72-1.56-1.512-2.904-2.376-4.032l-2.52.912c.864.984 1.608 2.016 2.208 3.12h-9.504v2.496h3.648c1.008 3.48 2.808 6.528 5.4 9.168-2.496 2.112-5.664 3.648-9.48 4.632l1.344 2.208c3.912-1.104 7.224-2.856 9.912-5.232 2.544 2.112 5.736 3.888 9.576 5.328zm-9.576-8.64c-2.208-2.16-3.792-4.632-4.776-7.464h9c-.936 2.904-2.352 5.4-4.224 7.464zm19.012 8.52v-15.816c1.296-1.752 2.352-3.6 3.144-5.544l-2.352-1.128c-1.536 3.72-3.912 6.96-7.104 9.696l.816 2.616c1.056-.888 2.064-1.8 3-2.736v12.912h2.496zm12.336-.432c1.224 0 2.064-.288 2.52-.84.456-.576.768-2.256.936-5.016l-2.304-.792c-.048 2.136-.192 3.384-.432 3.744-.24.336-.624.528-1.152.528h-3.456c-.744 0-1.104-.336-1.104-.984V340.8l7.512-.456v-2.4l-7.512.48v-6.96h-2.496v18.648c0 1.992.984 3 3 3h4.488zm27.364-.096v-2.136h-9.504v-1.176h8.304v-1.968h-8.304v-1.128h7.344v-8.352h-7.344v-1.032h9.144v-2.112h-9.144v-1.296c2.592-.144 5.04-.312 7.296-.504l-.744-2.016c-4.848.48-10.392.792-16.608.96l.408 1.992c2.496-.096 4.872-.192 7.152-.288v1.152h-9.096v2.112h9.096v1.032h-7.32v8.352h7.32v1.128h-8.208v1.968h8.208v1.176h-9.408v2.136h21.408zm-12-11.544h-4.896v-1.248h4.896v1.248zm7.416 0h-4.92v-1.248h4.92v1.248zm0 3.168h-4.92v-1.296h4.92v1.296zm-7.416 0h-4.896v-1.296h4.896v1.296zm28.324 8.856v-1.128h4.848v1.128h2.352V341.52h-3.888v-3.648h4.824v-2.28h-4.824v-4.176h-2.448v10.104h-3.216v11.976h2.352zm-3.192-5.928v-2.208h-4.104v-1.176h3.576v-1.968h-3.576v-1.152h3.936v-9.048h-10.08v9.048h3.96v1.152h-3.624v1.968h3.624v1.176h-4.152v2.208h10.44zm-2.16-8.376h-2.208v-5.304h2.208v5.304zm-3.96 0h-2.136v-3.864c.288 1.008.552 2.088.768 3.192l1.296-.336c-.24-1.296-.528-2.448-.84-3.432l-1.224.384v-1.248h2.136v5.304zm3.168-.624c.312-1.176.528-2.4.648-3.696l-1.344-.36c-.12 1.272-.312 2.472-.6 3.6l1.296.456zm10.992 11.544h-4.848v-6.336h4.848v6.336zm-9.552 2.424l1.776-.648c-.24-1.152-.552-2.376-.96-3.72l-1.752.504c.36 1.248.672 2.544.936 3.864zm-7.344.96c.36-1.392.576-3 .672-4.776l-1.896-.24c-.096 1.632-.384 3.096-.816 4.392l2.04.624zm4.44-.576l1.992-.456c-.24-1.44-.528-2.76-.84-3.96l-1.776.36c.24 1.176.456 2.52.624 4.056zm-3.024.312l2.016-.264c-.072-1.824-.192-3.288-.36-4.344l-1.8.24c.072 1.032.12 2.496.144 4.368zm32.236-9.552c.84-.552 1.44-1.152 1.776-1.776.312-.624.48-1.296.48-2.064h2.736v1.056c0 1.44.768 2.16 2.352 2.16h1.848v-2.016h-1.2c-.624 0-.912-.216-.912-.648v-1.464c.624.288 1.272.6 1.992.888l1.68-1.992c-1.248-.432-2.376-.888-3.408-1.416.288-.192.528-.36.768-.528.624-.48 1.224-1.104 1.824-1.848l-1.752-1.08c-.48.6-1.008 1.104-1.56 1.536-.432.288-.864.528-1.296.768-.336-.24-.672-.456-.984-.696.384-.24.744-.456 1.032-.648.576-.408 1.128-.936 1.704-1.584l-1.752-1.104c-.456.528-.936.96-1.44 1.344-.336.216-.696.432-1.056.624-.48-.504-.888-1.032-1.224-1.584l-1.968 1.128c1.2 1.92 3 3.6 5.4 5.064h-4.896c0 1.2-.12 2.064-.312 2.616-.24.528-.768 1.128-1.536 1.752l1.704 1.512zm-5.592 9.744c2.136-.096 3.336-.648 3.624-1.632.24-1.008.384-2.976.384-5.904h-5.808l.312-1.968h5.352v-6.216h-2.568c1.584-1.104 2.736-2.424 3.48-3.912v-1.8h-8.88v2.16h6.024c-.6.696-1.368 1.344-2.304 1.968-.672-.528-1.488-1.08-2.472-1.704l-1.824 1.152c.864.552 1.632 1.104 2.304 1.632-.384.168-.816.336-1.248.504h-.048v.024c-.72.264-1.512.528-2.376.768l1.512 1.968c.576-.192 1.128-.408 1.704-.6h4.512v1.944h-5.064l-.816 6.168h5.952c0 1.344-.096 2.208-.24 2.64-.192.384-.864.6-2.04.6-.888 0-1.752-.048-2.616-.096l.6 2.208c.864.048 1.704.096 2.544.096zm13.968.072l1.728-1.752c-1.128-.768-2.4-1.536-3.792-2.304.84-.984 1.464-2.112 1.896-3.36v-2.088h-8.664v2.208h6.144c-.408.768-.912 1.464-1.536 2.088-1.008-.528-2.04-1.032-3.144-1.536l-1.512 1.44c1.032.504 2.016 1.008 2.928 1.512-1.008.624-2.184 1.152-3.528 1.584l.936 2.184c1.896-.624 3.504-1.464 4.848-2.472 1.44.864 2.664 1.68 3.696 2.496zm25.708.096l.576-2.256c-1.488-.12-2.856-.456-4.104-.984.912-.648 1.776-1.488 2.568-2.496l-1.296-1.272h2.304v-2.256h-4.488v-1.776h3.744v-2.208h-3.744v-1.536h-2.448v1.536h-3.888v-1.56h-2.424v1.56h-3.744v-2.016h16.392v-6.288h-18.936v8.016c-.024 4.776-.744 8.688-2.184 11.712l1.872 1.704c1.032-2.064 1.776-4.368 2.256-6.888h2.448v3.12c0 .816-.408 1.392-1.224 1.68l.672 2.208c2.616-.48 4.872-1.008 6.768-1.608l-.456-2.304c-.96.408-2.088.768-3.384 1.104v-4.2h9.72c-.864 1.128-1.752 1.968-2.712 2.52-.912-.672-1.752-1.488-2.496-2.472l-1.776 1.2c2.52 3.504 5.856 5.424 9.984 5.76zm-3.072-17.472h-13.872v-1.8h13.872v1.8zm-10.128 8.208h-4.008c.072-.576.12-1.176.168-1.776h3.84v1.776zm6.312 0h-3.888v-1.776h3.888v1.776zm31.132 8.376v-2.4h-16.752c-.72 0-1.08-.36-1.08-1.032v-14.88h17.4v-2.4h-20.832v2.4h.912v15.504c0 1.872.936 2.808 2.832 2.808h17.52zm-3.672-11.256v-6.168h-11.256v6.168h11.256zm-2.352-2.208h-6.528v-1.752h6.528v1.752zm-3.648 10.272v-6.84h-7.032v6.84h7.032zm8.424 0v-6.84h-6.984v6.84h6.984zM358.93 347.4h-2.592v-2.616h2.592v2.616zm8.424 0h-2.592v-2.616h2.592v2.616zm24.268 5.976c1.656 0 2.496-.864 2.496-2.592v-12.696h-5.088c.456-.648.888-1.392 1.272-2.208l-1.608-.552h6.216v-2.352h-9.24c-.216-.72-.432-1.368-.648-1.944l-2.712.432c.24.48.456.984.672 1.512h-9.192v2.352h6.192l-1.536.576c.408.696.768 1.416 1.08 2.184h-4.992v15.24h2.424v-9.432l1.032 1.8c1.608-.576 2.808-1.32 3.576-2.232.624-.792 1.032-1.848 1.248-3.168h3.024v2.208c0 1.152.624 1.752 1.896 1.752h3.312v-2.04h-2.28c-.432 0-.648-.24-.648-.72v-1.2h3.576v9.936c0 .648-.288.984-.816.984l-1.776-.072v-6.12h-9.528v6.432h9.12l.504 1.92h2.424zm-5.304-15.288h-4.296c-.336-1.008-.72-1.944-1.128-2.76h6.912c-.432.96-.912 1.872-1.488 2.76zm-9.36 5.616v-3.408h3.504c-.192.744-.48 1.368-.864 1.848-.576.648-1.44 1.176-2.64 1.56zm9.768 5.568h-4.776v-2.136h4.776v2.136zm13.852-11.568v-2.256h15.744v2.256h2.472v-4.56h-8.976c-.24-.744-.48-1.416-.72-2.016l-2.568.432c.264.48.504 1.008.744 1.584h-9.168v4.56h2.472zm6.048 15.768c2.208 0 3.648-.456 4.296-1.32.528-.72.816-2.04.816-4.008 0-.408-.024-.816-.072-1.2 1.68 2.016 3.888 3.744 6.576 5.208l1.32-2.256c-2.976-1.392-5.376-3.072-7.2-5.064 1.968-.792 3.744-1.896 5.352-3.288l-1.728-1.704c-1.68 1.512-3.48 2.64-5.352 3.384-.48-1.008-1.104-1.944-1.896-2.808.528-.312 1.032-.648 1.56-1.008h5.256v-2.304h-14.208v2.304h4.992c-.432.192-.888.384-1.344.576-1.944.792-4.008 1.416-6.192 1.848l1.272 2.088c2.88-.864 5.112-1.68 6.648-2.424 0-.024.048-.048.096-.048.192.24.408.504.6.768-2.208 1.512-5.232 2.76-9.072 3.72l1.248 2.136c3.648-1.056 6.6-2.4 8.856-4.032.168.384.312.792.456 1.224-2.568 2.016-6.192 3.672-10.872 4.992l1.248 2.136c4.104-1.248 7.44-2.832 10.032-4.752 0 .144.024.312.024.504 0 1.272-.216 2.136-.6 2.592-.336.336-1.152.528-2.448.528h-1.248l.84 2.208h.744z" transform="translate(0 -1)"/>
    </g>
</svg>
