<?xml version="1.0" encoding="UTF-8"?>
<svg width="554px" height="280px" viewBox="0 0 554 280" version="1.1" xmlns="http://www.w3.org/2000/svg" xmlns:xlink="http://www.w3.org/1999/xlink">
    <!-- Generator: Sketch 61.1 (89650) - https://sketch.com -->
    <title>Group 267 outline</title>
    <desc>Created with Sketch.</desc>
    <defs>
        <polygon id="path-1" points="0.417 0 71.614 0 71.614 70.5829 0.417 70.5829"></polygon>
        <polygon id="path-3" points="0 280 506.767 280 506.767 0 0 0"></polygon>
        <path d="M0.047,8.469 C0.047,12.843 3.55,16.389 7.869,16.389 L7.869,16.389 C12.19,16.389 15.691,12.843 15.691,8.469 L15.691,8.469 C15.691,4.094 12.19,0.548 7.869,0.548 L7.869,0.548 C3.549,0.548 0.047,4.094 0.047,8.469 L0.047,8.469 Z" id="path-5"></path>
        <path d="M0.352,1.468 C0.352,2.252 0.988,2.887 1.772,2.887 L1.772,2.887 C2.555,2.887 3.19,2.252 3.19,1.468 L3.19,1.468 C3.19,0.685 2.555,0.049 1.772,0.049 L1.772,0.049 C0.988,0.049 0.352,0.685 0.352,1.468 L0.352,1.468 Z" id="path-7"></path>
        <path d="M0.328,0.679 C0.328,3.673 2.753,6.099 5.745,6.099 L5.745,6.099 L5.745,0.679 L0.328,0.679 Z" id="path-9"></path>
        <path d="M0.328,6.256 L5.745,6.256 L5.745,0.837 C2.753,0.837 0.328,3.264 0.328,6.256 L0.328,6.256 Z" id="path-11"></path>
        <path d="M0.994,6.256 L6.412,6.256 C6.412,3.264 3.986,0.837 0.994,0.837 L0.994,0.837 L0.994,6.256 Z" id="path-13"></path>
        <path d="M0.994,0.68 L0.994,6.1 C3.986,6.1 6.412,3.674 6.412,0.68 L6.412,0.68 L0.994,0.68 Z" id="path-15"></path>
        <polygon id="path-17" points="0 280 506.767 280 506.767 0 0 0"></polygon>
        <path d="M-0.004,16.255 C-0.004,25.046 7.037,32.175 15.72,32.175 L15.72,32.175 C24.404,32.175 31.443,25.046 31.443,16.255 L31.443,16.255 C31.443,7.461 24.404,0.334 15.72,0.334 L15.72,0.334 C7.036,0.334 -0.004,7.461 -0.004,16.255 L-0.004,16.255 Z" id="path-19"></path>
        <path d="M0.792,3.254 C0.792,4.828 2.07,6.108 3.645,6.108 L3.645,6.108 C5.219,6.108 6.497,4.828 6.497,3.254 L6.497,3.254 C6.497,1.679 5.219,0.402 3.645,0.402 L3.645,0.402 C2.07,0.402 0.792,1.679 0.792,3.254 L0.792,3.254 Z" id="path-21"></path>
        <path d="M0.741,0.589 C0.741,6.605 5.616,11.483 11.63,11.483 L11.63,11.483 L11.63,0.589 L0.741,0.589 Z" id="path-23"></path>
        <path d="M0.741,10.92 L11.63,10.92 L11.63,0.025 C5.616,0.025 0.741,4.903 0.741,10.92 L0.741,10.92 Z" id="path-25"></path>
        <path d="M0.809,10.92 L11.699,10.92 C11.699,4.903 6.823,0.025 0.809,0.025 L0.809,0.025 L0.809,10.92 Z" id="path-27"></path>
        <path d="M0.809,0.589 L0.809,11.486 C6.823,11.486 11.699,6.608 11.699,0.589 L11.699,0.589 L0.809,0.589 Z" id="path-29"></path>
        <polygon id="path-31" points="0 0 150 0 150 52 0 52"></polygon>
    </defs>
    <g id="懶人包" stroke="none" stroke-width="1" fill="none" fill-rule="evenodd">
        <g id="小資振興_懶人包_800振興" transform="translate(-315.000000, -1495.000000)">
            <g id="Group-267-outline" transform="translate(315.000000, 1495.000000)">
                <g id="Group-266">
                    <polygon id="Fill-1" fill="#FFFFFF" points="263.311 214.884 294.72 214.884 294.72 177.096 263.311 177.096"></polygon>
                    <g id="Group-167" transform="translate(24.000000, 0.000000)">
                        <path d="M214.9544,157.5839 L214.8954,157.5839 C211.1844,157.5839 208.1774,154.5749 208.1774,150.8649 L208.1774,140.7249 C208.1774,137.0139 211.1844,134.0059 214.8954,134.0059 L214.9544,134.0059 C218.6644,134.0059 221.6734,137.0139 221.6734,140.7249 L221.6734,150.8649 C221.6734,154.5749 218.6644,157.5839 214.9544,157.5839" id="Fill-2" fill="#FFFFFF"></path>
                        <path d="M214.9251,154.4325 L214.9251,154.4325 C211.1981,154.4325 208.1771,151.4375 208.1771,147.7425 L208.1771,150.8935 C208.1771,154.5885 211.1981,157.5835 214.9251,157.5835 C218.6521,157.5835 221.6731,154.5885 221.6731,150.8935 L221.6731,147.7425 C221.6731,151.4375 218.6521,154.4325 214.9251,154.4325" id="Fill-4" fill="#D0D2D3"></path>
                        <path d="M295.136,157.5839 L295.077,157.5839 C291.366,157.5839 288.359,154.5749 288.359,150.8649 L288.359,140.7249 C288.359,137.0139 291.366,134.0059 295.077,134.0059 L295.136,134.0059 C298.846,134.0059 301.855,137.0139 301.855,140.7249 L301.855,150.8649 C301.855,154.5749 298.846,157.5839 295.136,157.5839" id="Fill-6" fill="#FFFFFF"></path>
                        <path d="M295.1067,154.4325 L295.1067,154.4325 C291.3797,154.4325 288.3587,151.4375 288.3587,147.7425 L288.3587,150.8935 C288.3587,154.5885 291.3797,157.5835 295.1067,157.5835 C298.8337,157.5835 301.8547,154.5885 301.8547,150.8935 L301.8547,147.7425 C301.8547,151.4375 298.8337,154.4325 295.1067,154.4325" id="Fill-8" fill="#D0D2D3"></path>
                        <path d="M215.5139,131.3427 C216.8199,124.6897 219.7929,118.6277 223.9899,113.6037 C225.2019,112.1457 226.5199,110.7807 227.9289,109.5087 C235.0789,103.0497 244.5819,99.1187 255.0159,99.1187 C255.4789,99.1187 255.9459,99.1267 256.4079,99.1467 C256.5649,99.1467 256.7219,99.1547 256.8749,99.1617 C267.2529,99.6277 276.5999,103.9877 283.4799,110.8077 C289.6069,116.8817 293.7679,124.9107 294.9329,133.8707 C295.1529,135.5587 295.2659,137.2777 295.2659,139.0227 L295.2659,146.9247 C295.2659,168.9647 277.2469,186.8277 255.0159,186.8277 C232.7879,186.8277 214.7649,168.9647 214.7649,146.9247 L214.7649,139.0227 C214.7649,137.3267 214.8709,135.6587 215.0789,134.0227 L215.5139,131.3427 Z" id="Fill-10" fill="#FFFFFF"></path>
                        <path d="M255.0159,180.5253 C232.7879,180.5253 214.7649,162.6623 214.7649,140.6223 L214.7649,146.9243 C214.7649,168.9643 232.7879,186.8283 255.0159,186.8283 C277.2469,186.8283 295.2669,168.9643 295.2669,146.9243 L295.2669,140.6223 C295.2669,162.6623 277.2469,180.5253 255.0159,180.5253" id="Fill-12" fill="#D0D2D3"></path>
                        <path d="M215.2005,131.3427 L219.3585,131.3427 L219.3585,150.4647 C219.3585,151.6547 218.4785,152.7147 217.2835,152.8237 C215.9135,152.9507 214.7645,151.8877 214.7645,150.5607 L214.7645,136.7367 C214.7645,134.9297 214.9105,133.1257 215.2005,131.3427" id="Fill-14" fill="#4B6084"></path>
                        <path d="M295.2669,136.5048 L295.2669,150.4568 C295.2669,151.6468 294.3909,152.7088 293.1969,152.8238 C291.8269,152.9548 290.6739,151.8908 290.6739,150.5608 L290.6739,131.3428 L294.5179,131.3428 C295.0149,133.0198 295.2669,134.7578 295.2669,136.5048" id="Fill-16" fill="#4B6084"></path>
                        <path d="M256.408,99.1464 C252.337,105.4454 242.245,119.0634 225.901,128.6404 C221.966,130.9424 218.354,132.7004 215.079,134.0224 C215.079,134.0224 215.083,134.0104 215.083,134.0064 C216.055,126.3074 219.241,119.2894 223.99,113.6034 C225.202,112.1454 226.52,110.7804 227.929,109.5084 C235.078,103.0494 244.582,99.1194 255.016,99.1194 C255.479,99.1194 255.946,99.1264 256.408,99.1464" id="Fill-18" fill="#4B6084"></path>
                        <path d="M294.9334,133.871 C289.4544,135.516 278.6554,137.067 261.5074,132.622 C244.1664,128.131 231.0074,119.223 223.9904,113.603 C225.2024,112.145 226.5204,110.78 227.9284,109.509 C235.0784,103.05 244.5824,99.119 255.0164,99.119 C255.6354,99.119 256.2594,99.131 256.8744,99.162 C267.2534,99.628 276.6004,103.987 283.4804,110.808 C289.6064,116.882 293.7684,124.911 294.9334,133.871" id="Fill-20" fill="#808F91"></path>
                        <path d="M261.5071,109.2909 C253.9141,107.3239 247.1231,104.5109 241.2981,101.4969 C236.3081,103.2899 231.7771,106.0329 227.9281,109.5089 C226.5201,110.7799 225.2021,112.1449 223.9901,113.6029 C231.0071,119.2229 244.1671,128.1309 261.5071,132.6219 C278.6551,137.0669 289.4541,135.5159 294.9331,133.8709 C293.8511,125.5519 290.1831,118.0369 284.7601,112.1429 C278.9291,112.4039 271.2431,111.8139 261.5071,109.2909" id="Fill-22" fill="#4B6084"></path>
                        <path d="M261.5071,117.0683 C250.4211,114.1973 241.0471,109.5203 233.8911,105.0513 C231.7641,106.3543 229.7681,107.8473 227.9281,109.5083 C226.5201,110.7803 225.2021,112.1453 223.9901,113.6033 C231.0071,119.2223 244.1671,128.1313 261.5071,132.6223 C278.6551,137.0673 289.4541,135.5153 294.9331,133.8713 C294.2561,128.6653 292.5621,123.7763 290.0641,119.4003 C283.9141,120.3593 274.5491,120.4483 261.5071,117.0683" id="Fill-24" fill="#808F91"></path>
                        <path d="M261.5071,124.8456 C247.2811,121.1606 235.8731,114.5046 228.3581,109.1296 C228.2151,109.2556 228.0701,109.3806 227.9281,109.5086 C226.5201,110.7806 225.2021,112.1456 223.9901,113.6036 C231.0071,119.2226 244.1671,128.1306 261.5071,132.6216 C278.6551,137.0676 289.4541,135.5156 294.9331,133.8706 C294.6051,131.3476 294.0311,128.9016 293.2511,126.5486 C287.3731,127.9766 277.0481,128.8726 261.5071,124.8456" id="Fill-26" fill="#4B6084"></path>
                        <path d="M255.0349,160.1415 L254.9959,160.1415 C252.5519,160.1415 250.5699,158.1605 250.5699,155.7145 L250.5699,149.9535 C250.5699,147.5095 252.5519,145.5285 254.9959,145.5285 L255.0349,145.5285 C257.4799,145.5285 259.4619,147.5095 259.4619,149.9535 L259.4619,155.7145 C259.4619,158.1605 257.4799,160.1415 255.0349,160.1415" id="Fill-28" fill="#A62873"></path>
                        <path d="M326.4026,232.2167 L326.4026,256.8927 C324.1246,258.5427 321.7796,260.1077 319.3816,261.5887 C313.8556,265.0097 308.0396,268.0007 301.9656,270.5097 C300.4106,271.1607 298.8336,271.7747 297.2396,272.3557 C296.9716,272.4587 296.6976,272.5567 296.4236,272.6547 L296.4186,272.6547 C290.1586,274.8967 283.6696,276.6397 276.9766,277.8507 C274.1776,278.3607 271.3466,278.7737 268.4826,279.0767 C264.9886,279.4627 261.4506,279.6957 257.8746,279.7777 C257.2726,279.7937 256.6646,279.7987 256.0566,279.8047 L256.0506,279.8047 L256.0066,279.9407 L255.5906,279.8047 C255.3996,279.8097 255.2076,279.8097 255.0156,279.8097 C254.6656,279.8097 254.3096,279.8097 253.9586,279.8047 C253.3506,279.7987 252.7486,279.7937 252.1406,279.7777 L252.1346,279.7777 C248.5646,279.6957 245.0376,279.4627 241.5486,279.0767 C238.6526,278.7677 235.7816,278.3497 232.9456,277.8337 C226.2966,276.6227 219.8396,274.8857 213.6186,272.6547 C213.3396,272.5567 213.0606,272.4527 212.7866,272.3507 C211.1926,271.7697 209.6156,271.1547 208.0596,270.5097 C201.9916,267.9957 196.1706,265.0037 190.6506,261.5887 C188.2516,260.1077 185.9126,258.5427 183.6296,256.8987 L183.6296,229.5237 C183.6296,212.2417 197.7586,198.2397 215.1796,198.2397 L228.8706,198.2397 L238.3346,228.9807 L238.3346,228.9867 L239.3306,232.2167 L270.6896,232.2167 L271.6866,228.9867 L281.1446,198.2397 L294.8406,198.2397 C312.2566,198.2397 326.3856,212.2417 326.3856,229.5237 L326.3856,232.2167 L326.4026,232.2167 Z" id="Fill-30" fill="#2F968A"></path>
                        <path d="M301.9661,270.5097 C300.4111,271.1607 298.8341,271.7747 297.2401,272.3557 L297.8751,267.7027 L298.7131,261.6057 L301.9491,237.9927 L301.9661,270.5097 Z" id="Fill-32" fill="#0E6DA0"></path>
                        <path d="M212.7864,272.3505 C211.1924,271.7695 209.6154,271.1555 208.0594,270.5095 L208.0594,237.9935 L212.7864,272.3505 Z" id="Fill-34" fill="#0E6DA0"></path>
                        <path d="M271.6809,228.9804 L270.6839,232.2164 L262.9679,257.2994 L262.9679,257.3054 L262.8089,257.8274 L260.8539,264.1894 L259.4079,268.8854 L257.4479,275.2494 L256.0509,279.8044 L256.0069,279.9404 L255.5909,279.8044 C255.3989,279.8094 255.2069,279.8094 255.0159,279.8094 C254.6649,279.8094 254.3089,279.8094 253.9589,279.8044 L253.7779,279.2184 L252.0139,273.4854 L249.6209,265.7054 L247.8639,259.9714 L247.0579,257.3544 L239.3309,232.2164 L238.3339,228.9864 L238.3339,228.9804 L247.0039,221.6514 L254.9989,214.8854 L255.0049,214.8854 L262.9519,221.6024 L263.0339,221.6674 L263.0389,221.6724 L271.6809,228.9804 Z" id="Fill-36" fill="#FFFFFF"></path>
                        <path d="M239.7185,142.0888 C239.7185,143.9498 238.1975,145.4588 236.3195,145.4588 C234.4425,145.4588 232.9205,143.9498 232.9205,142.0888 C232.9205,140.2278 234.4425,138.7188 236.3195,138.7188 C238.1975,138.7188 239.7185,140.2278 239.7185,142.0888" id="Fill-38" fill="#A62873"></path>
                        <path d="M277.1116,142.0888 C277.1116,143.9498 275.5896,145.4588 273.7126,145.4588 C271.8346,145.4588 270.3126,143.9498 270.3126,142.0888 C270.3126,140.2278 271.8346,138.7188 273.7126,138.7188 C275.5896,138.7188 277.1116,140.2278 277.1116,142.0888" id="Fill-40" fill="#A62873"></path>
                        <path d="M255.0159,172.1249 C250.7999,172.1249 246.5829,170.5339 243.3729,167.3519 C242.8919,166.8749 242.8919,166.1019 243.3729,165.6239 C243.8539,165.1469 244.6349,165.1469 245.1159,165.6239 C250.5749,171.0359 259.4569,171.0359 264.9149,165.6239 C265.3959,165.1469 266.1769,165.1469 266.6579,165.6239 C267.1399,166.1019 267.1399,166.8749 266.6579,167.3519 C263.4489,170.5339 259.2319,172.1249 255.0159,172.1249" id="Fill-42" fill="#A62873"></path>
                        <path d="M262.9676,257.2997 L262.9676,257.3057 L262.8086,257.8267 L260.8536,264.1897 L259.4076,268.8857 L257.4476,275.2487 L256.0506,279.8047 L256.0076,279.9407 L255.5916,279.8047 C255.3996,279.8097 255.2076,279.8097 255.0156,279.8097 C254.6656,279.8097 254.3096,279.8097 253.9586,279.8047 L253.7786,279.2187 L252.0146,273.4857 L249.6216,265.7047 L247.8636,259.9717 L247.0586,257.3547 L247.4586,252.8427 L247.9076,247.8257 L247.9076,247.8207 L248.5096,241.0227 L248.5096,241.0177 L248.9536,236.0007 L249.2876,232.2167 L249.3206,231.8417 L249.7256,227.2807 L260.3056,227.2807 L260.7116,231.8417 L260.7116,231.8477 L260.7446,232.2167 L261.4346,240.0567 L261.9106,245.3717 L262.5516,252.5817 L262.9676,257.2997 Z" id="Fill-44" fill="#E7AD26"></path>
                        <polygon id="Fill-46" fill="#E8CD5D" points="261.9099 245.371 248.5079 241.019 248.9519 236.002 261.4379 240.056"></polygon>
                        <polygon id="Fill-48" fill="#E8CD5D" points="262.968 257.3036 262.968 257.3006 262.549 252.5806 247.905 247.8256 247.459 252.8416 262.808 257.8246"></polygon>
                        <polygon id="Fill-50" fill="#E8CD5D" points="260.8513 264.1913 259.4063 268.8833 249.6233 265.7063 247.8623 259.9733"></polygon>
                        <polygon id="Fill-52" fill="#F6D85E" points="257.4475 275.2489 256.0515 279.8049 256.0075 279.9399 255.5915 279.8049 253.7785 279.2189 252.0145 273.4849"></polygon>
                        <path d="M258.6331,232.2177 L251.3981,232.2177 C247.3181,232.2177 244.5011,228.1667 245.9531,224.3857 L248.1731,218.6057 C249.0331,216.3637 251.2001,214.8837 253.6181,214.8837 L256.4131,214.8837 C258.8311,214.8837 260.9981,216.3637 261.8591,218.6057 L264.0791,224.3857 C265.5311,228.1667 262.7141,232.2177 258.6331,232.2177" id="Fill-54" fill="#E8CD5D"></path>
                        <polygon id="Fill-56" fill="#E2854A" points="281.1468 198.2382 281.1468 198.2372 270.7218 192.4132 255.0158 214.8842 271.6848 228.9842"></polygon>
                        <polygon id="Fill-58" fill="#E2854A" points="228.8704 198.2382 228.8704 198.2372 239.2954 192.4132 255.0014 214.8842 238.3324 228.9842"></polygon>
                        <path d="M290.8982,240.3603 L257.8742,279.7773 C257.2722,279.7943 256.6642,279.7983 256.0562,279.8043 L270.6902,232.2163 L271.6862,228.9863 L281.1442,198.2403 L289.7812,225.5223 C290.0932,226.5103 289.5722,227.5693 288.5982,227.9323 L281.8952,230.4353 C280.2082,231.0593 280.1912,233.4223 281.8672,234.0733 L290.1092,237.2983 C291.3532,237.7813 291.7582,239.3353 290.8982,240.3603" id="Fill-60" fill="#007D8D"></path>
                        <path d="M253.9588,279.8046 C253.3508,279.7986 252.7488,279.7936 252.1408,279.7776 L252.1348,279.7776 L219.1168,240.3606 C218.2628,239.3346 218.663131,237.7816 219.9118,237.2986 L228.1478,234.0736 C229.8298,233.4216 229.8078,231.0596 228.1208,230.4356 L221.4168,227.9326 C220.4428,227.5696 219.9218,226.5106 220.2338,225.5226 L228.8708,198.2406 L249.6218,265.7046 L252.0148,273.4856 L253.7778,279.2186 L253.9588,279.8046 Z" id="Fill-62" fill="#007D8D"></path>
                        <polygon id="Fill-64" fill="#D0D2D3" points="270.7054 188.123 255.0164 205.118 255.0014 205.118 239.3114 188.123 239.2954 192.413 255.0014 214.884 255.0164 214.884 270.7214 192.413"></polygon>
                        <path d="M297.2278,267.7724 L288.0458,267.7724 C286.3448,267.7724 284.9668,266.3944 284.9668,264.6944 L284.9668,264.2974 C284.9668,262.5974 286.3448,261.2184 288.0458,261.2184 L297.2278,261.2184 C298.9278,261.2184 300.3068,262.5974 300.3068,264.2974 L300.3068,264.6944 C300.3068,266.3944 298.9278,267.7724 297.2278,267.7724" id="Fill-66" fill="#E7AD26"></path>
                        <path d="M361.3367,205.1259 C360.6087,206.5229 359.8577,207.9019 359.0747,209.2639 C354.6517,216.9689 349.3807,224.1409 343.4007,230.6529 C342.9957,231.0969 342.5857,231.5349 342.1707,231.9689 C339.8767,234.3809 337.4897,236.6959 335.0067,238.9059 C334.4447,239.4139 333.8727,239.9069 333.3017,240.3999 C333.2097,240.4869 333.1127,240.5689 333.0207,240.6469 C332.9887,240.6749 332.9567,240.7059 332.9197,240.7329 C330.4127,242.8709 327.8097,244.9079 325.1237,246.8269 C322.8897,248.4479 320.5857,249.9819 318.2317,251.4399 C312.8037,254.8019 307.0907,257.7379 301.1247,260.1999 C299.5997,260.8399 298.0517,261.4429 296.4857,262.0139 C296.2227,262.1139 295.9507,262.2099 295.6837,262.3069 L295.6787,262.3069 C292.6847,263.3749 289.6437,264.3299 286.5477,265.1699 C283.2807,266.0519 279.9597,266.8009 276.5827,267.4129 C275.8917,267.5359 275.1957,267.6589 274.4997,267.7729 C272.4317,268.1059 270.3437,268.3899 268.2427,268.6139 C264.8107,268.9929 261.3367,269.2219 257.8217,269.3039 C257.4067,269.3169 256.9917,269.3219 256.5727,269.3259 C256.3937,269.3259 256.2187,269.3309 256.0387,269.3309 L256.0337,269.3309 C255.9327,269.3309 255.8317,269.3329 255.7317,269.3329 C255.6817,269.3329 255.6317,269.3329 255.5827,269.3309 C255.3937,269.3359 255.2047,269.3359 255.0157,269.3359 C254.6697,269.3359 254.3197,269.3359 253.9797,269.3309 C253.8037,269.3309 253.6287,269.3259 253.4587,269.3259 C253.0347,269.3219 252.6157,269.3169 252.1917,269.3039 L252.1867,269.3039 C248.6807,269.2219 245.2157,268.9929 241.7887,268.6139 C239.6877,268.3899 237.6007,268.1059 235.5267,267.7689 C234.7947,267.6539 234.0667,267.5259 233.3387,267.3949 C230.0217,266.7919 226.7597,266.0559 223.5437,265.1889 C220.4297,264.3479 217.3657,263.3839 214.3577,262.3069 C214.0857,262.2099 213.8087,262.1089 213.5417,262.0099 C211.9757,261.4389 210.4267,260.8359 208.8977,260.1999 C202.9407,257.7339 197.2227,254.7929 191.7997,251.4399 C189.4457,249.9819 187.1467,248.4479 184.9077,246.8319 C182.1847,244.8809 179.5487,242.8159 177.0107,240.6469 C176.9557,240.6049 176.9097,240.5559 176.8547,240.5099 C176.2507,239.9939 175.6567,239.4729 175.0627,238.9429 C172.5967,236.7509 170.2247,234.4529 167.9527,232.0559 C167.5057,231.5849 167.0597,231.1099 166.6217,230.6309 C160.6367,224.1359 155.3707,216.9639 150.9567,209.2639 C150.1737,207.9019 149.4227,206.5229 148.6947,205.1259 C140.2087,188.8419 135.4127,170.3569 135.4127,150.7679 C135.4127,85.2829 188.9617,32.1939 255.0157,32.1939 C321.0697,32.1939 374.6197,85.2829 374.6197,150.7679 C374.6197,170.3569 369.8237,188.8419 361.3367,205.1259 M375.1277,100.4599 C368.5607,85.0689 359.1627,71.2489 347.1937,59.3839 C335.2257,47.5179 321.2857,38.1999 305.7607,31.6899 C289.6827,24.9479 272.6097,21.5299 255.0157,21.5299 C237.4217,21.5299 220.3487,24.9479 204.2707,31.6899 C188.7467,38.1999 174.8057,47.5179 162.8367,59.3839 C150.8687,71.2489 141.4707,85.0689 134.9037,100.4599 C128.1037,116.3989 124.6547,133.3249 124.6547,150.7679 C124.6547,161.2349 125.9237,171.6539 128.4257,181.7339 C130.8567,191.5289 134.4607,201.0459 139.1377,210.0209 C139.9707,211.6189 140.7807,213.1009 141.6137,214.5489 C146.3907,222.8829 152.1307,230.7139 158.6657,237.8079 C159.0867,238.2709 159.5387,238.7519 160.1227,239.3669 C162.5747,241.9569 165.1887,244.4879 167.8787,246.8809 C168.5187,247.4519 169.1267,247.9829 169.7247,248.4959 C169.8297,248.5909 169.9547,248.6999 170.0987,248.8189 C172.8277,251.1469 175.6877,253.3839 178.6007,255.4709 C181.0037,257.2049 183.5277,258.8929 186.1037,260.4859 C192.0627,264.1709 198.3357,267.3849 204.7517,270.0409 C206.3917,270.7219 208.0857,271.3819 209.7767,271.9999 C210.0867,272.1149 210.4057,272.2309 210.7207,272.3429 C214.0097,273.5209 217.3737,274.5759 220.7187,275.4789 C224.2177,276.4229 227.8117,277.2319 231.3997,277.8839 C232.0467,278.0019 232.9077,278.1549 233.8237,278.2989 C236.0907,278.6679 238.3777,278.9769 240.6197,279.2159 C244.3087,279.6219 248.1057,279.8749 251.9067,279.9649 C252.4337,279.9799 252.9367,279.9859 253.3427,279.9899 L253.4007,279.9909 L253.4587,279.9909 L253.5697,279.9919 C253.6777,279.9939 253.7877,279.9949 253.8967,279.9949 C254.2657,279.9999 254.6437,279.9999 255.0157,279.9999 C255.2087,279.9999 255.4007,279.9999 255.5937,279.9969 C255.6397,279.9969 255.6857,279.9999 255.7317,279.9999 C255.8167,279.9999 255.9027,279.9969 255.9887,279.9959 L256.0437,279.9959 C256.1767,279.9959 256.3127,279.9939 256.4487,279.9919 L256.5737,279.9909 L256.6247,279.9909 L256.6897,279.9899 C257.0957,279.9849 257.5987,279.9799 258.1227,279.9639 C261.9267,279.8739 265.7237,279.6219 269.4097,279.2159 C271.6347,278.9789 273.9287,278.6699 276.2267,278.2999 L276.2417,278.2969 L276.2567,278.2949 C277.0207,278.1689 277.7777,278.0349 278.4877,277.9079 L278.5027,277.9059 L278.5167,277.9029 C282.1587,277.2429 285.8117,276.4209 289.3737,275.4599 C292.1097,274.7179 294.8377,273.8829 297.5157,272.9709 L297.5657,272.9709 L299.3457,272.3339 L299.4747,272.2879 C299.7397,272.1919 300.0057,272.0969 300.2667,271.9979 C301.9877,271.3689 303.6747,270.7099 305.2817,270.0369 C311.7057,267.3849 317.9807,264.1709 323.9317,260.4839 C326.5527,258.8619 329.0817,257.1699 331.4447,255.4559 C334.3037,253.4119 337.1247,251.2099 339.8307,248.9069 C339.9307,248.8239 340.0187,248.7489 340.0937,248.6829 C340.2127,248.5809 340.3457,248.4659 340.4897,248.3359 C341.0477,247.8539 341.6247,247.3549 342.2197,246.8179 C344.8747,244.4529 347.4907,241.9189 349.9967,239.2859 C350.4487,238.8129 350.9097,238.3189 351.3667,237.8199 C357.9007,230.7029 363.6437,222.8659 368.4237,214.5379 C369.2507,213.1009 370.0617,211.6189 370.8957,210.0179 C375.5707,201.0459 379.1747,191.5289 381.6067,181.7339 C384.1077,171.6539 385.3767,161.2349 385.3767,150.7679 C385.3767,133.3249 381.9287,116.3989 375.1277,100.4599" id="Fill-68" fill="#0E6DA0"></path>
                        <path d="M338.4221,228.4765 C336.2261,230.7845 333.9431,232.9995 331.5661,235.1165 C331.0281,235.6015 330.4811,236.0735 329.9351,236.5445 C329.8461,236.6275 329.7541,236.7065 329.6661,236.7815 C329.6351,236.8075 329.6041,236.8375 329.5681,236.8645 C327.1701,238.9105 324.6791,240.8595 322.1091,242.6955 C319.9701,244.2475 317.7661,245.7155 315.5121,247.1105 C310.3181,250.3275 304.8511,253.1375 299.1421,255.4945 C297.6821,256.1055 296.2011,256.6825 294.7021,257.2295 C294.4501,257.3255 294.1901,257.4165 293.9351,257.5085 L293.9301,257.5085 C291.0641,258.5325 288.1541,259.4455 285.1921,260.2495 C282.0661,261.0925 278.8861,261.8105 275.6541,262.3955 C274.9931,262.5135 274.3271,262.6315 273.6621,262.7415 C271.6821,263.0605 269.6851,263.3305 267.6741,263.5445 C264.3891,263.9085 261.0651,264.1265 257.7011,264.2055 C257.3041,264.2185 256.9071,264.2225 256.5061,264.2275 C256.3341,264.2275 256.1661,264.2315 255.9941,264.2315 L255.9901,264.2315 C255.8931,264.2315 255.7961,264.2335 255.7001,264.2335 C255.6521,264.2335 255.6051,264.2335 255.5581,264.2315 C255.3771,264.2365 255.1961,264.2365 255.0161,264.2365 C254.6851,264.2365 254.3501,264.2365 254.0241,264.2315 C253.8561,264.2315 253.6891,264.2275 253.5261,264.2275 C253.1201,264.2225 252.7181,264.2185 252.3131,264.2055 L252.3081,264.2055 C248.9531,264.1265 245.6371,263.9085 242.3571,263.5445 C240.3471,263.3305 238.3491,263.0605 236.3651,262.7365 C235.6641,262.6265 234.9671,262.5045 234.2711,262.3775 C231.0961,261.8015 227.9751,261.0975 224.8971,260.2665 C221.9171,259.4625 218.9841,258.5405 216.1061,257.5085 C215.8451,257.4165 215.5811,257.3215 215.3251,257.2245 C213.8261,256.6785 212.3451,256.1015 210.8811,255.4945 C205.1801,253.1335 199.7081,250.3185 194.5191,247.1105 C192.2661,245.7155 190.0661,244.2475 187.9231,242.7005 C185.3171,240.8325 182.7951,238.8575 180.3661,236.7815 C180.3131,236.7425 180.2691,236.6945 180.2161,236.6505 C179.6381,236.1565 179.0691,235.6585 178.5011,235.1505 C176.1421,233.0525 173.8711,230.8545 171.6971,228.5595 C171.2701,228.1095 170.8421,227.6545 170.4231,227.1955 C164.6961,220.9795 159.6561,214.1175 155.4321,206.7475 C154.6831,205.4455 153.9641,204.1245 153.2681,202.7875 C145.1461,187.2045 140.5561,169.5145 140.5561,150.7675 C140.5561,88.0995 191.8031,37.2935 255.0161,37.2935 C318.2291,37.2935 369.4751,88.0995 369.4751,150.7675 C369.4751,169.5145 364.8851,187.2045 356.7641,202.7875 C356.0671,204.1245 355.3491,205.4455 354.5991,206.7475 C350.3661,214.1225 345.3221,220.9845 339.5991,227.2175 C339.2111,227.6415 338.8191,228.0615 338.4221,228.4765 M342.5641,232.3345 C342.9811,231.8995 343.3931,231.4585 343.8001,231.0135 C349.8071,224.4715 355.1011,217.2685 359.5441,209.5275 C360.3311,208.1605 361.0861,206.7755 361.8171,205.3715 C370.3411,189.0135 375.1591,170.4465 375.1591,150.7675 C375.1591,84.9875 321.3681,31.6595 255.0161,31.6595 C188.6641,31.6595 134.8721,84.9875 134.8721,150.7675 C134.8721,170.4465 139.6901,189.0135 148.2141,205.3715 C148.9461,206.7755 149.7001,208.1605 150.4871,209.5275 C154.9211,217.2635 160.2111,224.4665 166.2221,230.9915 C166.6621,231.4725 167.1111,231.9505 167.5601,232.4225 C169.8411,234.8305 172.2251,237.1395 174.7011,239.3415 C175.2981,239.8735 175.8951,240.3965 176.5011,240.9145 C176.5571,240.9605 176.6031,241.0115 176.6581,241.0525 C179.2091,243.2325 181.8561,245.3055 184.5911,247.2655 C186.8401,248.8895 189.1501,250.4305 191.5141,251.8945 C196.9621,255.2625 202.7051,258.2165 208.6891,260.6945 C210.2261,261.3315 211.7811,261.9385 213.3541,262.5115 C213.6231,262.6125 213.9001,262.7135 214.1731,262.8095 C217.1951,263.8925 220.2731,264.8605 223.4011,265.7055 C226.6321,266.5775 229.9091,267.3155 233.2411,267.9205 C233.9721,268.0535 234.7031,268.1825 235.4391,268.2965 C237.5221,268.6365 239.6181,268.9205 241.7291,269.1465 C245.1721,269.5265 248.6521,269.7555 252.1741,269.8385 L252.1791,269.8385 C252.6051,269.8525 253.0261,269.8575 253.4511,269.8625 C253.6231,269.8625 253.7981,269.8665 253.9741,269.8665 C254.3171,269.8715 254.6691,269.8715 255.0161,269.8715 C255.2051,269.8715 255.3951,269.8715 255.5851,269.8665 C255.6341,269.8685 255.6841,269.8685 255.7341,269.8685 C255.8351,269.8685 255.9371,269.8665 256.0391,269.8665 L256.0431,269.8665 C256.2231,269.8665 256.4001,269.8625 256.5801,269.8625 C257.0011,269.8575 257.4181,269.8525 257.8341,269.8385 C261.3651,269.7555 264.8551,269.5265 268.3031,269.1465 C270.4131,268.9205 272.5091,268.6365 274.5881,268.3015 C275.2861,268.1875 275.9851,268.0635 276.6791,267.9395 C280.0721,267.3245 283.4091,266.5725 286.6901,265.6865 C289.8001,264.8425 292.8551,263.8835 295.8621,262.8095 L295.8671,262.8095 C296.1361,262.7135 296.4091,262.6175 296.6721,262.5165 C298.2461,261.9425 299.8011,261.3365 301.3331,260.6945 C307.3261,258.2215 313.0651,255.2715 318.5171,251.8945 C320.8821,250.4305 323.1961,248.8895 325.4401,247.2605 C328.1381,245.3335 330.7541,243.2875 333.2711,241.1395 C333.3081,241.1125 333.3401,241.0805 333.3731,241.0525 C333.4651,240.9745 333.5631,240.8925 333.6551,240.8045 C334.2291,240.3095 334.8031,239.8145 335.3671,239.3045 C337.8621,237.0835 340.2591,234.7575 342.5641,232.3345" id="Fill-70" fill="#8ED1E5"></path>
                        <path d="M255.0159,31.6591 C321.1469,31.6591 374.7949,84.6351 375.1509,150.1121 C375.1549,149.7481 375.1599,149.3851 375.1599,149.0191 C375.1599,83.2381 321.3679,29.9111 255.0159,29.9111 C188.6639,29.9111 134.8719,83.2381 134.8719,149.0191 C134.8719,149.3851 134.8769,149.7481 134.8809,150.1121 C135.2369,84.6351 188.8849,31.6591 255.0159,31.6591" id="Fill-72" fill="#FFFFFF"></path>
                        <g id="Group-76" transform="translate(219.000000, 0.000000)">
                            <mask id="mask-2" fill="white">
                                <use xlink:href="#path-1"></use>
                            </mask>
                            <g id="Clip-75"></g>
                            <path d="M71.614,35.2919 C71.614,54.7829 55.676,70.5829 36.016,70.5829 C16.355,70.5829 0.417,54.7829 0.417,35.2919 C0.417,15.8009 16.355,-0.0001 36.016,-0.0001 C55.676,-0.0001 71.614,15.8009 71.614,35.2919" id="Fill-74" fill="#0E6DA0" mask="url(#mask-2)"></path>
                        </g>
                        <path d="M285.9348,35.2919 C285.9348,52.2209 272.0918,65.9439 255.0158,65.9439 C237.9398,65.9439 224.0968,52.2209 224.0968,35.2919 C224.0968,18.3629 237.9398,4.6399 255.0158,4.6399 C272.0918,4.6399 285.9348,18.3629 285.9348,35.2919" id="Fill-77" fill="#76C2D9"></path>
                        <path d="M446.3894,129.1542 C446.3894,165.6582 416.5404,195.2492 379.7204,195.2492 C342.8994,195.2492 313.0504,165.6582 313.0504,129.1542 C313.0504,92.6512 342.8994,63.0592 379.7204,63.0592 C416.5404,63.0592 446.3894,92.6512 446.3894,129.1542" id="Fill-79" fill="#0E6DA0"></path>
                        <path d="M437.6253,129.1542 C437.6253,160.8592 411.7003,186.5602 379.7203,186.5602 C347.7393,186.5602 321.8143,160.8592 321.8143,129.1542 C321.8143,97.4502 347.7393,71.7482 379.7203,71.7482 C411.7003,71.7482 437.6253,97.4502 437.6253,129.1542" id="Fill-81" fill="#8ED1E5"></path>
                        <path d="M201.5413,129.1542 C201.5413,165.6582 171.6923,195.2492 134.8723,195.2492 C98.0513,195.2492 68.2033,165.6582 68.2033,129.1542 C68.2033,92.6512 98.0513,63.0592 134.8723,63.0592 C171.6923,63.0592 201.5413,92.6512 201.5413,129.1542" id="Fill-83" fill="#0E6DA0"></path>
                        <path d="M192.7776,129.1542 C192.7776,160.8592 166.8526,186.5602 134.8716,186.5602 C102.8916,186.5602 76.9666,160.8592 76.9666,129.1542 C76.9666,97.4502 102.8916,71.7482 134.8716,71.7482 C166.8526,71.7482 192.7776,97.4502 192.7776,129.1542" id="Fill-85" fill="#8ED1E5"></path>
                        <polyline id="Stroke-87" stroke="#FFFFFF" stroke-width="0.918" points="246.2425 30.5507 246.2425 51.2247 236.6855 51.2247 236.6855 30.5507 243.6055 30.5507"></polyline>
                        <polyline id="Stroke-89" stroke="#FFFFFF" stroke-width="0.918" points="264.679 30.5507 264.679 51.2247 274.237 51.2247 274.237 30.5507 267.317 30.5507"></polyline>
                        <polyline id="Stroke-91" stroke="#FFFFFF" stroke-width="0.918" points="261.743 21.411 264.679 21.411 264.679 51.224 246.243 51.224 246.243 21.411 249.179 21.411"></polyline>
                        <line x1="239.9329" y1="34.4843" x2="242.9949" y2="34.4843" id="Stroke-93" stroke="#FFFFFF" stroke-width="0.918"></line>
                        <line x1="239.9329" y1="37.9921" x2="242.9949" y2="37.9921" id="Stroke-95" stroke="#FFFFFF" stroke-width="0.918"></line>
                        <line x1="239.9329" y1="41.4999" x2="242.9949" y2="41.4999" id="Stroke-97" stroke="#FFFFFF" stroke-width="0.918"></line>
                        <line x1="239.9329" y1="45.0067" x2="242.9949" y2="45.0067" id="Stroke-99" stroke="#FFFFFF" stroke-width="0.918"></line>
                        <line x1="267.9275" y1="34.4843" x2="270.9885" y2="34.4843" id="Stroke-101" stroke="#FFFFFF" stroke-width="0.918"></line>
                        <line x1="249.9153" y1="28.3017" x2="251.2903" y2="28.3017" id="Stroke-103" stroke="#FFFFFF" stroke-width="0.918"></line>
                        <line x1="249.9153" y1="31.4394" x2="251.2903" y2="31.4394" id="Stroke-105" stroke="#FFFFFF" stroke-width="0.918"></line>
                        <line x1="249.9153" y1="34.578" x2="251.2903" y2="34.578" id="Stroke-107" stroke="#FFFFFF" stroke-width="0.918"></line>
                        <line x1="249.9153" y1="37.7157" x2="251.2903" y2="37.7157" id="Stroke-109" stroke="#FFFFFF" stroke-width="0.918"></line>
                        <line x1="249.9153" y1="40.8534" x2="251.2903" y2="40.8534" id="Stroke-111" stroke="#FFFFFF" stroke-width="0.918"></line>
                        <line x1="254.7737" y1="28.3017" x2="256.1477" y2="28.3017" id="Stroke-113" stroke="#FFFFFF" stroke-width="0.918"></line>
                        <line x1="254.7737" y1="31.4394" x2="256.1477" y2="31.4394" id="Stroke-115" stroke="#FFFFFF" stroke-width="0.918"></line>
                        <line x1="254.7737" y1="34.578" x2="256.1477" y2="34.578" id="Stroke-117" stroke="#FFFFFF" stroke-width="0.918"></line>
                        <line x1="254.7737" y1="37.7157" x2="256.1477" y2="37.7157" id="Stroke-119" stroke="#FFFFFF" stroke-width="0.918"></line>
                        <line x1="254.7737" y1="40.8534" x2="256.1477" y2="40.8534" id="Stroke-121" stroke="#FFFFFF" stroke-width="0.918"></line>
                        <line x1="259.6321" y1="28.3017" x2="261.0061" y2="28.3017" id="Stroke-123" stroke="#FFFFFF" stroke-width="0.918"></line>
                        <line x1="259.6321" y1="31.4394" x2="261.0061" y2="31.4394" id="Stroke-125" stroke="#FFFFFF" stroke-width="0.918"></line>
                        <line x1="259.6321" y1="34.578" x2="261.0061" y2="34.578" id="Stroke-127" stroke="#FFFFFF" stroke-width="0.918"></line>
                        <line x1="259.6321" y1="37.7157" x2="261.0061" y2="37.7157" id="Stroke-129" stroke="#FFFFFF" stroke-width="0.918"></line>
                        <line x1="259.6321" y1="40.8534" x2="261.0061" y2="40.8534" id="Stroke-131" stroke="#FFFFFF" stroke-width="0.918"></line>
                        <line x1="267.9275" y1="37.9921" x2="270.9885" y2="37.9921" id="Stroke-133" stroke="#FFFFFF" stroke-width="0.918"></line>
                        <line x1="267.9275" y1="41.4999" x2="270.9885" y2="41.4999" id="Stroke-135" stroke="#FFFFFF" stroke-width="0.918"></line>
                        <line x1="267.9275" y1="45.0067" x2="270.9885" y2="45.0067" id="Stroke-137" stroke="#FFFFFF" stroke-width="0.918"></line>
                        <polyline id="Stroke-139" stroke="#FFFFFF" stroke-width="0.918" points="257.972 49.0019 257.972 44.8209 252.95 44.8209 252.95 49.0019"></polyline>
                        <mask id="mask-4" fill="white">
                            <use xlink:href="#path-3"></use>
                        </mask>
                        <g id="Clip-142"></g>
                        <polygon id="Stroke-141" stroke="#FFFFFF" stroke-width="0.918" mask="url(#mask-4)" points="251.642 25.197 259.28 25.197 259.28 17.626 251.642 17.626"></polygon>
                        <line x1="254.2444" y1="20.2519" x2="254.2444" y2="22.5709" id="Stroke-143" stroke="#FFFFFF" stroke-width="0.918" mask="url(#mask-4)"></line>
                        <line x1="256.6775" y1="20.2519" x2="256.6775" y2="22.5709" id="Stroke-144" stroke="#FFFFFF" stroke-width="0.918" mask="url(#mask-4)"></line>
                        <line x1="254.2444" y1="21.411" x2="256.5534" y2="21.411" id="Stroke-145" stroke="#FFFFFF" stroke-width="0.918" mask="url(#mask-4)"></line>
                        <line x1="255.4607" y1="17.6249" x2="255.4607" y2="15.2559" id="Stroke-146" stroke="#FFFFFF" stroke-width="0.918" mask="url(#mask-4)"></line>
                        <line x1="241.4637" y1="30.5507" x2="241.4637" y2="28.5107" id="Stroke-147" stroke="#FFFFFF" stroke-width="0.918" mask="url(#mask-4)"></line>
                        <line x1="269.4583" y1="30.5507" x2="269.4583" y2="28.5107" id="Stroke-148" stroke="#FFFFFF" stroke-width="0.918" mask="url(#mask-4)"></line>
                        <path d="M155.6936,173.119 L112.0456,173.119 C110.1496,173.119 108.6126,171.583 108.6126,169.686 L108.6126,87.349 C108.6126,85.454 110.1496,83.918 112.0456,83.918 L155.6936,83.918 C157.5896,83.918 159.1256,85.454 159.1256,87.349 L159.1256,169.686 C159.1256,171.583 157.5896,173.119 155.6936,173.119" id="Fill-149" fill="#E6E7E8" mask="url(#mask-4)"></path>
                        <path d="M149.8391,173.119 L117.8991,173.119 C116.2571,173.119 114.9261,171.788 114.9261,170.146 L114.9261,86.89 C114.9261,85.248 116.2571,83.918 117.8991,83.918 L149.8391,83.918 C151.4811,83.918 152.8121,85.248 152.8121,86.89 L152.8121,170.146 C152.8121,171.788 151.4811,173.119 149.8391,173.119" id="Fill-150" fill="#FFFFFF" mask="url(#mask-4)"></path>
                        <path d="M153.4334,167.0868 L114.3054,167.0868 C112.9614,167.0868 111.8714,165.9968 111.8714,164.6528 L111.8714,92.3838 C111.8714,91.0398 112.9614,89.9498 114.3054,89.9498 L153.4334,89.9498 C154.7774,89.9498 155.8674,91.0398 155.8674,92.3838 L155.8674,164.6528 C155.8674,165.9968 154.7774,167.0868 153.4334,167.0868" id="Fill-151" fill="#1CAEE4" mask="url(#mask-4)"></path>
                        <path d="M137.9173,88.0819 L129.8213,88.0819 C129.1883,88.0819 128.6753,87.5739 128.6753,86.9459 C128.6753,86.3189 129.1883,85.8109 129.8213,85.8109 L137.9173,85.8109 C138.5503,85.8109 139.0633,86.3189 139.0633,86.9459 C139.0633,87.5739 138.5503,88.0819 137.9173,88.0819" id="Fill-152" fill="#BCBEC0" mask="url(#mask-4)"></path>
                        <path d="M137.9173,171.2265 L129.8213,171.2265 C129.1883,171.2265 128.6753,170.7175 128.6753,170.0905 C128.6753,169.4625 129.1883,168.9545 129.8213,168.9545 L137.9173,168.9545 C138.5503,168.9545 139.0633,169.4625 139.0633,170.0905 C139.0633,170.7175 138.5503,171.2265 137.9173,171.2265" id="Fill-153" fill="#FFFFFF" mask="url(#mask-4)"></path>
                        <path d="M153.4231,89.9501 L114.3161,89.9501 C112.9651,89.9501 111.8711,91.0351 111.8711,92.3731 L111.8711,94.7971 L155.8671,94.7971 L155.8671,92.3731 C155.8671,91.0351 154.7731,89.9501 153.4231,89.9501" id="Fill-154" fill="#136DA0" mask="url(#mask-4)"></path>
                        <polygon id="Fill-155" fill="#009ADD" mask="url(#mask-4)" points="152.812 162.24 155.867 162.24 155.867 94.797 152.812 94.797"></polygon>
                        <path d="M153.4231,167.0868 L114.3161,167.0868 C112.9661,167.0868 111.8711,166.0018 111.8711,164.6638 L111.8711,162.2398 L155.8671,162.2398 L155.8671,164.6638 C155.8671,166.0018 154.7731,167.0868 153.4231,167.0868" id="Fill-156" fill="#136DA0" mask="url(#mask-4)"></path>
                        <polygon id="Fill-157" fill="#009ADD" mask="url(#mask-4)" points="111.871 162.24 114.926 162.24 114.926 94.797 111.871 94.797"></polygon>
                        <line x1="121.3513" y1="131.5038" x2="146.3873" y2="131.5038" id="Stroke-158" stroke="#FFFFFF" stroke-width="2.811" stroke-linecap="round" stroke-linejoin="round" mask="url(#mask-4)"></line>
                        <line x1="121.3513" y1="138.036" x2="146.3873" y2="138.036" id="Stroke-159" stroke="#FFFFFF" stroke-width="2.811" stroke-linecap="round" stroke-linejoin="round" mask="url(#mask-4)"></line>
                        <path d="M146.449,158.4696 L121.29,158.4696 C120.669,158.4696 120.165,157.9666 120.165,157.3456 L120.165,147.8376 C120.165,147.2166 120.669,146.7126 121.29,146.7126 L146.449,146.7126 C147.07,146.7126 147.574,147.2166 147.574,147.8376 L147.574,157.3456 C147.574,157.9666 147.07,158.4696 146.449,158.4696" id="Fill-160" fill="#009ADD" mask="url(#mask-4)"></path>
                        <path d="M146.449,156.7909 L121.29,156.7909 C120.669,156.7909 120.165,156.2869 120.165,155.6659 L120.165,146.1579 C120.165,145.5369 120.669,145.0339 121.29,145.0339 L146.449,145.0339 C147.07,145.0339 147.574,145.5369 147.574,146.1579 L147.574,155.6659 C147.574,156.2869 147.07,156.7909 146.449,156.7909" id="Fill-161" fill="#E43D91" mask="url(#mask-4)"></path>
                        <path d="M146.449,155.1112 L121.29,155.1112 C120.669,155.1112 120.165,154.6072 120.165,153.9862 L120.165,144.4782 C120.165,143.8572 120.669,143.3542 121.29,143.3542 L146.449,143.3542 C147.07,143.3542 147.574,143.8572 147.574,144.4782 L147.574,153.9862 C147.574,154.6072 147.07,155.1112 146.449,155.1112" id="Fill-162" fill="#AD4A90" mask="url(#mask-4)"></path>
                        <path d="M139.0681,148.7675 C139.0891,148.7295 139.1121,148.6925 139.1291,148.6525 C139.1511,148.5985 139.1661,148.5415 139.1811,148.4855 C139.1871,148.4615 139.1971,148.4395 139.2021,148.4145 C139.2171,148.3435 139.2231,148.2715 139.2261,148.1985 C139.2271,148.1895 139.2291,148.1805 139.2291,148.1715 C139.2351,147.8255 139.1081,147.4755 138.8401,147.2105 C138.3191,146.6945 137.4751,146.6945 136.9531,147.2105 L133.5801,150.5565 L131.9141,148.9065 C131.3931,148.3895 130.5481,148.3895 130.0271,148.9065 C130.0141,148.9195 130.0051,148.9365 129.9911,148.9505 L129.9911,148.9505 C129.7511,149.2095 129.6321,149.5385 129.6391,149.8675 C129.6391,149.8775 129.6421,149.8875 129.6421,149.8985 C129.6451,149.9695 129.6511,150.0395 129.6661,150.1105 C129.6711,150.1355 129.6811,150.1605 129.6881,150.1855 C129.7031,150.2405 129.7161,150.2945 129.7391,150.3475 C129.7561,150.3895 129.7811,150.4275 129.8021,150.4675 C129.8211,150.5025 129.8371,150.5385 129.8591,150.5725 C129.9071,150.6445 129.9631,150.7125 130.0271,150.7775 L130.0281,150.7775 L132.6361,153.3625 C132.7391,153.4645 132.8601,153.5435 132.9891,153.6075 C133.1721,153.6975 133.3721,153.7495 133.5801,153.7495 C133.7571,153.7495 133.9301,153.7155 134.0901,153.6495 C134.2511,153.5835 134.3981,153.4865 134.5231,153.3625 L137.4011,150.5085 L138.8401,149.0815 C138.8431,149.0795 138.8451,149.0765 138.8471,149.0735 C138.9081,149.0115 138.9631,148.9465 139.0081,148.8765 C139.0321,148.8425 139.0481,148.8045 139.0681,148.7675" id="Fill-163" fill="#E43D91" mask="url(#mask-4)"></path>
                        <path d="M133.5799,152.6308 C133.2259,152.6308 132.8869,152.4908 132.6359,152.2428 L130.0279,149.6568 C129.5059,149.1408 129.5059,148.3038 130.0279,147.7868 C130.5489,147.2708 131.3929,147.2708 131.9139,147.7868 L133.5799,149.4368 L136.9539,146.0918 C137.4749,145.5748 138.3189,145.5748 138.8409,146.0918 C139.3619,146.6078 139.3619,147.4448 138.8409,147.9618 L134.5229,152.2428 C134.2729,152.4908 133.9339,152.6308 133.5799,152.6308" id="Fill-164" fill="#FEDE3A" mask="url(#mask-4)"></path>
                        <path d="M138.8406,146.1796 L134.5236,150.4606 C134.2726,150.7076 133.9336,150.8476 133.5796,150.8476 C133.2266,150.8476 132.8866,150.7076 132.6356,150.4606 L130.0276,147.8746 C130.0136,147.8616 130.0046,147.8446 129.9916,147.8306 C129.5106,148.3496 129.5206,149.1546 130.0276,149.6576 L132.6356,152.2426 C132.8866,152.4916 133.2266,152.6306 133.5796,152.6306 C133.9336,152.6306 134.2726,152.4916 134.5236,152.2426 L138.8406,147.9616 C139.3476,147.4586 139.3576,146.6546 138.8766,146.1356 C138.8636,146.1496 138.8546,146.1656 138.8406,146.1796" id="Fill-165" fill="#F7CB15" mask="url(#mask-4)"></path>
                        <polygon id="Fill-166" fill="#F8E482" mask="url(#mask-4)" points="118 119.25 149.739 119.25 149.739 101.685 118 101.685"></polygon>
                    </g>
                    <g id="Group-170" transform="translate(150.000000, 102.000000)">
                        <mask id="mask-6" fill="white">
                            <use xlink:href="#path-5"></use>
                        </mask>
                        <g id="Clip-169"></g>
                        <polygon id="Fill-168" fill="#FFFFFF" mask="url(#mask-6)" points="-0.09 16.525 15.828 16.525 15.828 0.411 -0.09 0.411"></polygon>
                    </g>
                    <g id="Group-173" transform="translate(168.000000, 109.000000)">
                        <mask id="mask-8" fill="white">
                            <use xlink:href="#path-7"></use>
                        </mask>
                        <g id="Clip-172"></g>
                        <polygon id="Fill-171" fill="#2EAAAD" mask="url(#mask-8)" points="0.216 3.024 3.327 3.024 3.327 -0.088 0.216 -0.088"></polygon>
                    </g>
                    <g id="Group-176" transform="translate(168.000000, 101.000000)">
                        <mask id="mask-10" fill="white">
                            <use xlink:href="#path-9"></use>
                        </mask>
                        <g id="Clip-175"></g>
                        <polygon id="Fill-174" fill="#1D899B" mask="url(#mask-10)" points="0.191 6.236 5.881 6.236 5.881 0.543 0.191 0.543"></polygon>
                    </g>
                    <g id="Group-179" transform="translate(168.000000, 113.000000)">
                        <mask id="mask-12" fill="white">
                            <use xlink:href="#path-11"></use>
                        </mask>
                        <g id="Clip-178"></g>
                        <polygon id="Fill-177" fill="#1D899B" mask="url(#mask-12)" points="0.191 6.393 5.881 6.393 5.881 0.7 0.191 0.7"></polygon>
                    </g>
                    <path d="M145.9666,109.0487 C146.7496,109.0487 147.3856,109.6857 147.3856,110.4687 C147.3856,111.2517 146.7496,111.8877 145.9666,111.8877 C145.1836,111.8877 144.5476,111.2517 144.5476,110.4687 C144.5476,109.6857 145.1836,109.0487 145.9666,109.0487" id="Fill-180" fill="#2EAAAD"></path>
                    <g id="Group-184" transform="translate(141.000000, 113.000000)">
                        <mask id="mask-14" fill="white">
                            <use xlink:href="#path-13"></use>
                        </mask>
                        <g id="Clip-183"></g>
                        <polygon id="Fill-182" fill="#1D899B" mask="url(#mask-14)" points="0.857 6.393 6.548 6.393 6.548 0.7 0.857 0.7"></polygon>
                    </g>
                    <g id="Group-187" transform="translate(141.000000, 101.000000)">
                        <mask id="mask-16" fill="white">
                            <use xlink:href="#path-15"></use>
                        </mask>
                        <g id="Clip-186"></g>
                        <polygon id="Fill-185" fill="#1D899B" mask="url(#mask-16)" points="1.0013 0.6317 6.7263 0.6267 6.7263 6.3197 0.9943 6.3687"></polygon>
                    </g>
                    <g id="Group-226" transform="translate(24.000000, 0.000000)">
                        <path d="M128.8997,111.5771 C128.8997,111.4231 128.8437,111.2941 128.7347,111.1881 C128.6267,111.0831 128.4427,110.9871 128.1847,110.9031 C127.8267,110.7961 127.5647,110.6541 127.3997,110.4801 C127.2347,110.3051 127.1517,110.0831 127.1507,109.8131 C127.1497,109.5381 127.2297,109.3121 127.3897,109.1351 C127.5487,108.9581 127.7697,108.8521 128.0507,108.8181 L128.0487,108.2671 L128.4237,108.2651 L128.4267,108.8191 C128.7097,108.8571 128.9297,108.9731 129.0877,109.1711 C129.2457,109.3681 129.3257,109.6391 129.3267,109.9831 L128.8627,109.9851 C128.8617,109.7471 128.8047,109.5581 128.6917,109.4201 C128.5777,109.2811 128.4257,109.2111 128.2347,109.2121 C128.0337,109.2131 127.8807,109.2651 127.7747,109.3691 C127.6697,109.4731 127.6167,109.6171 127.6177,109.8031 C127.6187,109.9731 127.6747,110.1091 127.7877,110.2121 C127.8997,110.3121 128.0847,110.4041 128.3407,110.4851 C128.5977,110.5681 128.7987,110.6591 128.9427,110.7591 C129.0867,110.8571 129.1927,110.9731 129.2627,111.1051 C129.3307,111.2371 129.3657,111.3921 129.366709,111.5701 C129.3677,111.8531 129.2837,112.0831 129.1137,112.2561 C128.9427,112.4291 128.7047,112.5321 128.3967,112.5661 L128.3987,113.0461 L128.0247,113.0481 L128.0227,112.5671 C127.7107,112.5391 127.4647,112.4301 127.2857,112.2361 C127.1077,112.0431 127.0177,111.7811 127.0167,111.4491 L127.4837,111.4481 C127.4837,111.6811 127.5467,111.8591 127.6697,111.9851 C127.7937,112.1111 127.9677,112.1731 128.1927,112.1721 C128.4137,112.1711 128.5867,112.1171 128.7127,112.0111 C128.8377,111.9041 128.9007,111.7601 128.8997,111.5771" id="Fill-188" fill="#A00B0F"></path>
                        <path d="M132.743409,111.5663 C132.743409,111.2923 132.6544,111.0683 132.4774,110.8963 C132.3024,110.7233 132.0734,110.6373 131.7904,110.6393 C131.5094,110.6403 131.2834,110.7263 131.1134,110.8983 C130.9434,111.0693 130.8594,111.2953 130.860391,111.5743 C130.8614,111.8523 130.9454,112.0733 131.1124,112.2323 C131.2784,112.3903 131.5094,112.4703 131.8054,112.4683 C132.0984,112.4673 132.3284,112.3863 132.4954,112.2253 C132.6614,112.0623 132.7444,111.8423 132.743409,111.5663 M131.7894,108.43929 C131.5434,108.4413 131.3444,108.5173 131.1914,108.6703 C131.0404,108.8233 130.9644,109.0293 130.96539,109.2913 C130.9664,109.5403 131.0424,109.7433 131.1944,109.8953 C131.3444,110.0493 131.5454,110.1263 131.7964,110.12531 C132.0464,110.1243 132.2474,110.0453 132.3964,109.8903 C132.5454,109.7363 132.6194,109.5333 132.61841,109.2843 C132.61841,109.0333 132.5394,108.8303 132.3824,108.6733 C132.2264,108.5153 132.0284,108.4383 131.7894,108.43929 M133.2454,109.2723 C133.2464,109.5163 133.1824,109.7353 133.0534,109.9273 C132.9254,110.1193 132.7494,110.2703 132.5284,110.3783 C132.7864,110.4883 132.9904,110.6473 133.1424,110.8593 C133.2934,111.0693 133.3684,111.3093 133.370421,111.5773 C133.3724,112.0033 133.2294,112.3423 132.9424,112.5953 C132.6564,112.8493 132.2774,112.9763 131.8074,112.978324 C131.3334,112.9803 130.9524,112.8563 130.6664,112.6033 C130.3794,112.3513 130.2354,112.0133 130.2334,111.5903 C130.2314,111.3243 130.3044,111.0843 130.4494,110.8703 C130.5944,110.6553 130.7954,110.4923 131.0524,110.3813 C130.8324,110.2753 130.6594,110.1263 130.5324,109.9343 C130.4044,109.7433 130.3404,109.5263 130.3394,109.2843 C130.3374,108.8693 130.4694,108.5403 130.7344,108.2953 C131.0004,108.0503 131.3514,107.9283 131.7874,107.926276 C132.2204,107.9243 132.5724,108.0453 132.8404,108.2873 C133.1084,108.5293 133.2434,108.8573 133.2454,109.2723" id="Fill-190" fill="#A00B0F"></path>
                        <path d="M136.4348,109.9374 C136.4328,109.4084 136.3568,109.0224 136.2058,108.7814 C136.0568,108.5404 135.8198,108.4194 135.4978,108.420394 C135.1758,108.4214 134.9428,108.5434 134.7968,108.7854 C134.6518,109.0264 134.5768,109.3974 134.5758,109.8974 L134.5798,110.8964 C134.5818,111.4284 134.6598,111.8204 134.8158,112.0734 C134.9718,112.3254 135.2058,112.4514 135.5198,112.450406 C135.8298,112.4494 136.0588,112.3294 136.2078,112.0884 C136.3578,111.8504 136.4348,111.4734 136.4388,110.9604 L136.4348,109.9374 Z M137.0648,110.7894 C137.0678,111.5204 136.9448,112.0654 136.6958,112.4214 C136.4468,112.7784 136.0558,112.9584 135.5218,112.959417 C134.9968,112.9614 134.6058,112.7904 134.3518,112.4424 C134.0978,112.0954 133.9638,111.5764 133.9528,110.8864 L133.9488,110.0524 C133.9458,109.3294 134.0688,108.7914 134.3178,108.4404 C134.5678,108.0864 134.9598,107.9104 135.4948,107.908361 C136.0258,107.9054 136.4168,108.0734 136.6688,108.4124 C136.9208,108.7494 137.0518,109.2704 137.0608,109.9784 L137.0648,110.7894 Z" id="Fill-192" fill="#A00B0F"></path>
                        <path d="M140.0916,109.9189 C140.0896,109.3889 140.0126,109.0039 139.8626,108.7629 C139.7126,108.5219 139.4756,108.4009 139.1536,108.401894 C138.8326,108.4029 138.5996,108.5249 138.4536,108.7669 C138.3076,109.0079 138.2336,109.3789 138.2316,109.8789 L138.2366,110.8779 C138.2376,111.4099 138.3166,111.8019 138.4726,112.0549 C138.6286,112.3069 138.8626,112.4329 139.1766,112.431906 C139.4866,112.4309 139.7156,112.3109 139.8646,112.0699 C140.0136,111.8319 140.0906,111.4549 140.0946,110.9419 L140.0916,109.9189 Z M140.7216,110.7709 C140.7246,111.5019 140.6016,112.0459 140.3516,112.4019 C140.1036,112.7599 139.7116,112.9399 139.1786,112.940917 C138.6526,112.9429 138.2616,112.7709 138.0076,112.4239 C137.7546,112.0769 137.6206,111.5579 137.6096,110.8679 L137.6066,110.0329 C137.6026,109.3109 137.7256,108.7729 137.9746,108.4209 C138.2246,108.0679 138.6156,107.8919 139.1516,107.88986 C139.6816,107.8869 140.0736,108.0539 140.3256,108.3929 C140.5776,108.7299 140.7086,109.2519 140.7186,109.9599 L140.7216,110.7709 Z" id="Fill-194" fill="#A00B0F"></path>
                        <path d="M146.0174,104.2753 L141.4464,104.2753 C140.6694,104.2753 140.0394,103.6453 140.0394,102.8693 L140.0394,100.3563 C140.0394,99.5803 140.6694,98.9503 141.4464,98.9503 L146.0174,98.9503 L146.0174,104.2753 Z" id="Fill-196" fill="#FFFFFF"></path>
                        <path d="M140.0398,101.3232 L140.0398,103.0102 C140.0398,103.7092 140.6108,104.2752 141.3158,104.2752 L146.0178,104.2752 L146.0178,102.5892 L141.3158,102.5892 C140.6108,102.5892 140.0398,102.0222 140.0398,101.3232" id="Fill-198" fill="#D1D3D4"></path>
                        <path d="M145.1624,106.0692 L145.1624,97.1562 C145.1624,96.2862 146.1994,95.8232 146.8564,96.4012 L151.9204,100.8582 C152.3764,101.2592 152.3764,101.9652 151.9204,102.3672 L146.8564,106.8242 C146.1994,107.4022 145.1624,106.9402 145.1624,106.0692" id="Fill-200" fill="#FFFFFF"></path>
                        <path d="M151.9202,100.8583 L151.8192,100.7693 L146.8562,105.1373 C146.1992,105.7153 145.1622,105.2533 145.1622,104.3823 L145.1622,106.0693 C145.1622,106.9403 146.1992,107.4023 146.8562,106.8243 L151.9202,102.3673 C152.3762,101.9653 152.3762,101.2593 151.9202,100.8583" id="Fill-202" fill="#D1D3D4"></path>
                        <path d="M121.1717,121.7948 L125.7427,121.7948 C126.5197,121.7948 127.1497,121.1658 127.1497,120.3888 L127.1497,117.8758 C127.1497,117.0998 126.5197,116.4708 125.7427,116.4708 L121.1717,116.4708 L121.1717,121.7948 Z" id="Fill-204" fill="#FFFFFF"></path>
                        <path d="M127.1492,118.8427 L127.1492,120.5297 C127.1492,121.2287 126.5782,121.7947 125.8732,121.7947 L121.1712,121.7947 L121.1712,120.1087 L125.8732,120.1087 C126.5782,120.1087 127.1492,119.5417 127.1492,118.8427" id="Fill-206" fill="#D1D3D4"></path>
                        <path d="M122.0266,123.5898 L122.0266,114.6758 C122.0266,113.8058 120.9896,113.3438 120.3326,113.9208 L115.2686,118.3778 C114.8126,118.7788 114.8126,119.4858 115.2686,119.8878 L120.3326,124.3438 C120.9896,124.9218 122.0266,124.4598 122.0266,123.5898" id="Fill-208" fill="#FFFFFF"></path>
                        <path d="M115.2688,118.3778 L115.3698,118.2888 L120.3328,122.6568 C120.9898,123.2348 122.0268,122.7738 122.0268,121.9018 L122.0268,123.5898 C122.0268,124.4598 120.9898,124.9218 120.3328,124.3438 L115.2688,119.8878 C114.8128,119.4858 114.8128,118.7788 115.2688,118.3778" id="Fill-210" fill="#D1D3D4"></path>
                        <path d="M410.5413,149.4784 L394.7653,152.5694 C391.8523,153.1394 388.8773,153.3004 385.9303,153.0504 C383.9793,152.8854 382.4963,151.2364 382.4963,149.2954 L382.4963,147.4114 C382.4963,146.7164 383.0633,146.1544 383.7643,146.1544 L391.4773,146.1544 C393.5153,146.1544 395.2933,144.5964 395.3543,142.5774 C395.4173,140.4864 393.7273,138.7724 391.6323,138.7724 L355.2723,138.7724 L355.2723,157.7774 L357.3393,157.7774 C358.6903,157.7774 359.9993,158.2494 361.0333,159.1124 C361.7753,159.7304 362.6633,160.1524 363.6143,160.3384 L382.4793,164.0354 C386.5363,164.8294 390.7093,164.8294 394.7653,164.0354 L412.0153,160.6554 C413.7963,160.3064 415.0813,158.7574 415.0813,156.9574 L415.0813,153.1764 C415.0813,150.8004 412.8923,149.0174 410.5413,149.4784" id="Fill-212" fill="#FFFFFF"></path>
                        <path d="M412.0154,155.5243 L394.7654,158.9043 C390.7094,159.6983 386.5364,159.6983 382.4794,158.9043 L363.6144,155.2083 C362.6634,155.0213 361.7754,154.5993 361.0334,153.9813 C359.9984,153.1193 358.6904,152.6463 357.3394,152.6463 L355.2724,152.6463 L355.2724,157.7773 L357.3394,157.7773 C358.6904,157.7773 359.9984,158.2503 361.0334,159.1123 C361.7754,159.7303 362.6634,160.1523 363.6144,160.3383 L382.4794,164.0353 C386.5364,164.8293 390.7094,164.8293 394.7654,164.0353 L412.0154,160.6553 C413.7964,160.3063 415.0804,158.7573 415.0804,156.9573 L415.0804,153.1763 C415.0804,152.9443 415.0594,152.7183 415.0194,152.5003 C414.7454,154.0023 413.5704,155.2193 412.0154,155.5243" id="Fill-214" fill="#D1D3D4"></path>
                        <path d="M351.4866,165.7616 L346.8596,165.7616 C344.7686,165.7616 343.0736,164.0666 343.0736,161.9756 L343.0736,135.7786 C343.0736,133.6876 344.7686,131.9916 346.8596,131.9916 L351.4866,131.9916 C353.5776,131.9916 355.2726,133.6876 355.2726,135.7786 L355.2726,161.9756 C355.2726,164.0666 353.5776,165.7616 351.4866,165.7616" id="Fill-216" fill="#009ADD"></path>
                        <path d="M351.4705,157.3847 L346.8755,157.3847 C344.7755,157.3847 343.0735,155.6977 343.0735,153.6147 L343.0735,161.9917 C343.0735,164.0737 344.7755,165.7617 346.8755,165.7617 L351.4705,165.7617 C353.5705,165.7617 355.2725,164.0737 355.2725,161.9917 L355.2725,153.6147 C355.2725,155.6977 353.5705,157.3847 351.4705,157.3847" id="Fill-218" fill="#0E6DA0"></path>
                        <path d="M382.4964,149.2958 L382.4964,147.4108 C382.4964,146.7168 383.0634,146.1538 383.7644,146.1538 L391.4594,146.1538 C393.4224,146.1538 395.1804,144.7248 395.3424,142.7848 C395.3534,142.6498 395.3574,142.5168 395.3554,142.3848 L384.6814,142.3848 C381.5594,142.3848 379.1034,145.0318 379.3644,148.1168 C379.5864,150.7328 381.7094,152.7928 384.3524,152.9538 L385.9304,153.0508 C383.9794,152.8858 382.4964,151.2358 382.4964,149.2958" id="Fill-220" fill="#D1D3D4"></path>
                        <mask id="mask-18" fill="white">
                            <use xlink:href="#path-17"></use>
                        </mask>
                        <g id="Clip-223"></g>
                        <polygon id="Fill-222" fill="#175F6C" mask="url(#mask-18)" points="352.494 119.292 406.945 119.292 406.945 84.434 352.494 84.434"></polygon>
                        <polygon id="Fill-224" fill="#1C7685" mask="url(#mask-18)" points="350.196 123.825 409.243 123.825 409.243 88.517 350.196 88.517"></polygon>
                        <polygon id="Fill-225" fill="#F8E482" mask="url(#mask-18)" points="347.822 127.908 411.618 127.908 411.618 92.6 347.822 92.6"></polygon>
                    </g>
                    <g id="Group-229" transform="translate(388.000000, 94.000000)">
                        <mask id="mask-20" fill="white">
                            <use xlink:href="#path-19"></use>
                        </mask>
                        <g id="Clip-228"></g>
                        <polygon id="Fill-227" fill="#FFFFFF" mask="url(#mask-20)" points="-0.278 32.449 31.718 32.449 31.718 0.059 -0.278 0.059"></polygon>
                    </g>
                    <g id="Group-232" transform="translate(424.000000, 107.000000)">
                        <mask id="mask-22" fill="white">
                            <use xlink:href="#path-21"></use>
                        </mask>
                        <g id="Clip-231"></g>
                        <polygon id="Fill-230" fill="#2EAAAD" mask="url(#mask-22)" points="0.517 6.382 6.771 6.382 6.771 0.127 0.517 0.127"></polygon>
                    </g>
                    <g id="Group-235" transform="translate(424.000000, 92.000000)">
                        <mask id="mask-24" fill="white">
                            <use xlink:href="#path-23"></use>
                        </mask>
                        <g id="Clip-234"></g>
                        <polygon id="Fill-233" fill="#1D899B" mask="url(#mask-24)" points="0.467 11.757 11.905 11.757 11.905 0.313 0.467 0.313"></polygon>
                    </g>
                    <g id="Group-238" transform="translate(424.000000, 117.000000)">
                        <mask id="mask-26" fill="white">
                            <use xlink:href="#path-25"></use>
                        </mask>
                        <g id="Clip-237"></g>
                        <polygon id="Fill-236" fill="#1D899B" mask="url(#mask-26)" points="0.467 11.195 11.905 11.195 11.905 -0.249 0.467 -0.249"></polygon>
                    </g>
                    <path d="M379.7952,107.4013 C381.3692,107.4013 382.6472,108.6803 382.6472,110.2553 C382.6472,111.8303 381.3692,113.1073 379.7952,113.1073 C378.2212,113.1073 376.9422,111.8303 376.9422,110.2553 C376.9422,108.6803 378.2212,107.4013 379.7952,107.4013" id="Fill-239" fill="#2EAAAD"></path>
                    <g id="Group-243" transform="translate(371.000000, 117.000000)">
                        <mask id="mask-28" fill="white">
                            <use xlink:href="#path-27"></use>
                        </mask>
                        <g id="Clip-242"></g>
                        <polygon id="Fill-241" fill="#1D899B" mask="url(#mask-28)" points="0.535 11.195 11.973 11.195 11.973 -0.249 0.535 -0.249"></polygon>
                    </g>
                    <g id="Group-246" transform="translate(371.000000, 92.000000)">
                        <mask id="mask-30" fill="white">
                            <use xlink:href="#path-29"></use>
                        </mask>
                        <g id="Clip-245"></g>
                        <polygon id="Fill-244" fill="#1D899B" mask="url(#mask-30)" points="0.824 0.4931 12.331 0.4821 12.331 11.9271 0.809 12.0241"></polygon>
                    </g>
                    <g id="Group-265" transform="translate(0.000000, 105.000000)">
                        <path d="M393.7312,7.4823 C393.7292,7.1733 393.6192,6.9133 393.3992,6.7013 C393.1812,6.4893 392.8132,6.2963 392.2942,6.1283 C391.5742,5.9133 391.0462,5.6283 390.7152,5.2793 C390.3842,4.9253 390.2182,4.4793 390.2152,3.9373 C390.2132,3.3843 390.3732,2.9303 390.6952,2.5743 C391.0162,2.2183 391.4582,2.0063 392.0232,1.9383 L392.0192,0.8303 L392.7752,0.8273 L392.7802,1.9393 C393.3482,2.0153 393.7912,2.2493 394.1092,2.6463 C394.4272,3.0433 394.5862,3.5873 394.5902,4.2793 L393.6572,4.2833 C393.6552,3.8053 393.5392,3.4263 393.3122,3.1473 C393.0842,2.8683 392.7792,2.7273 392.3942,2.7283 C391.9902,2.7303 391.6832,2.8363 391.4702,3.0453 C391.2582,3.2533 391.1522,3.5443 391.1542,3.9163 C391.1552,4.2603 391.2692,4.5333 391.4952,4.7383 C391.7202,4.9403 392.0922,5.1263 392.6082,5.2893 C393.1242,5.4563 393.5282,5.6373 393.8182,5.8373 C394.1072,6.0373 394.3212,6.2693 394.4602,6.5353 C394.5972,6.8003 394.6672,7.1123 394.669239,7.4693 C394.6722,8.0393 394.5022,8.4993 394.1602,8.8463 C393.8182,9.1953 393.3382,9.4033 392.7192,9.4703 L392.7242,10.4353 L391.9732,10.4383 L391.9682,9.4733 C391.3392,9.4173 390.8462,9.1963 390.4872,8.8083 C390.1292,8.4193 389.9482,7.8923 389.9462,7.2263 L390.8842,7.2223 C390.8852,7.6913 391.0112,8.0503 391.2582,8.3033 C391.5062,8.5563 391.8572,8.6803 392.3102,8.6783 C392.7532,8.6763 393.1022,8.5673 393.3542,8.3543 C393.6062,8.1413 393.7332,7.8503 393.7312,7.4823" id="Fill-247" fill="#AD4A90"></path>
                        <path d="M401.4573,7.4618 C401.4563,6.9098 401.2773,6.4608 400.9233,6.1148 C400.5713,5.7678 400.1103,5.5948 399.5413,5.5978 C398.9763,5.5998 398.5213,5.7728 398.1803,6.1188 C397.8383,6.4628 397.6693,6.9158 397.671282,7.4778 C397.6743,8.0368 397.8423,8.4808 398.1783,8.7998 C398.5113,9.1178 398.9763,9.2778 399.5723,9.2748 C400.1623,9.2738 400.6243,9.1098 400.9583,8.7858 C401.2923,8.4588 401.4603,8.0168 401.4573,7.4618 M399.5393,1.17678089 C399.0443,1.1798 398.6443,1.3318 398.3383,1.6398 C398.0333,1.9468 397.8813,2.3618 397.883281,2.8878 C397.8853,3.3888 398.0383,3.7958 398.3423,4.1038 C398.6443,4.4118 399.0483,4.5658 399.5523,4.56381923 C400.0563,4.5618 400.4593,4.4058 400.7583,4.0938 C401.0593,3.7828 401.2083,3.3758 401.20632,2.8738 C401.2043,2.3698 401.0463,1.9608 400.7313,1.6468 C400.4173,1.3298 400.0203,1.1748 399.5393,1.17678089 M402.4663,2.8498 C402.4683,3.3418 402.3393,3.7798 402.0803,4.1678 C401.8223,4.5518 401.4703,4.8568 401.0253,5.0728 C401.5433,5.2928 401.9543,5.6128 402.2593,6.0388 C402.5623,6.4618 402.7143,6.9458 402.717341,7.4828 C402.7213,8.3388 402.4343,9.0228 401.8573,9.5298 C401.2813,10.0398 400.5203,10.2958 399.5763,10.2998732 C398.6233,10.3048 397.8583,10.0538 397.2813,9.5458 C396.7043,9.0398 396.4153,8.3608 396.411255,7.5098 C396.4083,6.9748 396.5553,6.4908 396.8453,6.0618 C397.1363,5.6298 397.5403,5.3018 398.0573,5.0808 C397.6153,4.8658 397.2673,4.5658 397.0123,4.1808 C396.7553,3.7958 396.6253,3.3598 396.6243,2.8728 C396.6203,2.0388 396.8863,1.3778 397.4193,0.8868 C397.9543,0.3958 398.6583,0.1498 399.5353,0.145750821 C400.4053,0.1418 401.1123,0.3818 401.6513,0.8688 C402.1903,1.3568 402.4623,2.0158 402.4663,2.8498" id="Fill-249" fill="#AD4A90"></path>
                        <path d="M408.8767,4.1874 C408.8727,3.1224 408.7197,2.3474 408.4177,1.8634 C408.1167,1.3774 407.6407,1.1364 406.9917,1.13937234 C406.3467,1.1414 405.8777,1.3864 405.5847,1.8714 C405.2927,2.3564 405.1427,3.1014 405.1397,4.1064 L405.1477,6.1144 C405.1517,7.1844 405.3097,7.9724 405.6237,8.4794 C405.9357,8.9864 406.4077,9.2404 407.0387,9.23742627 C407.6607,9.2354 408.1217,8.9944 408.4207,8.5114 C408.7217,8.0324 408.8767,7.2754 408.8857,6.2444 L408.8767,4.1874 Z M410.1437,5.8994 C410.1487,7.3694 409.9017,8.4644 409.4017,9.1804 C408.9007,9.8974 408.1137,10.2574 407.0427,10.2614765 C405.9847,10.2674 405.1997,9.9204 404.6897,9.2224 C404.1787,8.5264 403.9107,7.4814 403.8867,6.0954 L403.8797,4.4174 C403.8747,2.9644 404.1217,1.8824 404.6217,1.1764 C405.1237,0.4664 405.9117,0.1114 406.9877,0.10736481 C408.0547,0.1034 408.8407,0.4404 409.3477,1.1204 C409.8537,1.7974 410.1167,2.8464 410.1357,4.2694 L410.1437,5.8994 Z" id="Fill-251" fill="#AD4A90"></path>
                        <path d="M416.2268,4.1503 C416.2228,3.0853 416.0698,2.3093 415.7678,1.8263 C415.4648,1.3403 414.9898,1.0983 414.3418,1.10127245 C413.6968,1.1043 413.2278,1.3493 412.9348,1.8333 C412.6418,2.3173 412.4918,3.0643 412.4878,4.0683 L412.4978,6.0773 C412.5018,7.1473 412.6598,7.9353 412.9728,8.4423 C413.2858,8.9493 413.7568,9.2033 414.3878,9.20032627 C415.0108,9.1973 415.4718,8.9573 415.7708,8.4743 C416.0698,7.9963 416.2258,7.2373 416.2338,6.2063 L416.2268,4.1503 Z M417.4938,5.8613 C417.4998,7.3323 417.2528,8.4253 416.7508,9.1423 C416.2498,9.8603 415.4638,10.2203 414.3928,10.2243342 C413.3348,10.2283 412.5498,9.8813 412.0388,9.1853 C411.5288,8.4883 411.2598,7.4433 411.2368,6.0573 L411.2308,4.3793 C411.2248,2.9263 411.4718,1.8453 411.9718,1.1393 C412.4738,0.4293 413.2608,0.0743 414.3378,0.0702450162 C415.4038,0.0653 416.1908,0.4013 416.6978,1.0823 C417.2038,1.7583 417.4668,2.8093 417.4868,4.2323 L417.4938,5.8613 Z" id="Fill-253" fill="#AD4A90"></path>
                        <polygon id="Fill-255" fill="#FFFFFF" points="415.2132 107.9374 415.2132 73.2104 450.2422 107.9374"></polygon>
                        <g id="Group-259" transform="translate(404.000000, 96.000000)">
                            <mask id="mask-32" fill="white">
                                <use xlink:href="#path-31"></use>
                            </mask>
                            <g id="Clip-258"></g>
                            <path d="M138.433195,52 L11.5668046,52 C5.17858271,52 0,47.6603788 0,42.3060944 L0,9.69291278 C0,4.3396212 5.17858271,0 11.5668046,0 L138.433195,0 C144.821417,0 150,4.3396212 150,9.69291278 L150,42.3060944 C150,47.6603788 144.821417,52 138.433195,52" id="Fill-257" fill="#FFFFFF" mask="url(#mask-32)"></path>
                        </g>
                        <polygon id="Fill-260" fill="#FFFFFF" points="139.5545 107.9374 139.5545 73.2104 104.5255 107.9374"></polygon>
                        <g id="Group-264" transform="translate(0.000000, 95.000000)" fill="#FFFFFF">
                            <path d="M12.176398,52.1112 L139.041787,52.1112 C145.429958,52.1112 150.6085,47.7714959 150.6085,42.4181021 L150.6085,9.80429785 C150.6085,4.45090406 145.429958,0.1112 139.041787,0.1112 L12.176398,0.1112 C5.78822656,0.1112 0.6085,4.45090406 0.6085,9.80429785 L0.6085,42.4181021 C0.6085,47.7714959 5.78822656,52.1112 12.176398,52.1112" id="Fill-262"></path>
                        </g>
                    </g>
                    <path d="M429.196,222.08 L429.196,219.8 L444.604,219.8 L444.604,222.08 L446.956,222.08 L446.956,217.832 L438.196,217.832 C437.98,217.208 437.764,216.632 437.548,216.128 L435.028,216.56 C435.244,216.944 435.436,217.376 435.628,217.832 L426.844,217.832 L426.844,222.08 L429.196,222.08 Z M443.308,226.832 L443.5,224.744 L447.268,224.744 L447.268,222.776 L443.692,222.776 L443.884,220.664 L430.54,220.664 L430.228,222.776 L426.556,222.776 L426.556,224.744 L429.94,224.744 L429.628,226.832 L443.308,226.832 Z M435.868,223.088 L432.484,223.088 L432.652,222.128 L436.036,222.128 L435.868,223.088 Z M441.46,223.088 L438.052,223.088 L438.22,222.128 L441.556,222.128 L441.46,223.088 Z M435.508,225.416 L432.052,225.416 L432.22,224.48 L435.652,224.48 L435.508,225.416 Z M441.172,225.416 L437.692,225.416 L437.836,224.48 L441.292,224.48 L441.172,225.416 Z M427.924,238.664 C431.068,238.112 433.492,237.416 435.172,236.576 L434.404,235.544 L439.204,235.544 L438.628,236.624 C441.124,237.104 443.548,237.776 445.876,238.64 L446.668,236.648 C445.156,236.216 443.596,235.832 441.964,235.544 L444.268,235.544 L444.268,227.624 L429.556,227.624 L429.556,235.544 L432.604,235.544 C431.116,236 429.172,236.384 426.796,236.72 L427.924,238.664 Z M441.916,229.856 L431.908,229.856 L431.908,229.04 L441.916,229.04 L441.916,229.856 Z M441.916,231.92 L431.908,231.92 L431.908,231.128 L441.916,231.128 L441.916,231.92 Z M441.916,234.032 L431.908,234.032 L431.908,233.216 L441.916,233.216 L441.916,234.032 Z M475.996,225.56 L475.996,217.928 L473.236,217.928 L473.236,216.368 L471.148,216.368 L471.148,217.928 L469.852,217.928 L469.852,216.368 L467.74,216.368 L467.74,217.928 L464.98,217.928 L464.98,225.56 L475.996,225.56 Z M456.628,238.448 C457.468,237.2 457.972,235.616 458.14,233.744 L458.524,235.064 C459.412,234.8 460.252,234.512 461.02,234.224 L461.02,235.712 C461.02,236.144 460.804,236.384 460.372,236.384 C459.94,236.384 459.436,236.336 458.908,236.288 L459.46,238.304 L461.02,238.304 C462.412,238.304 463.108,237.68 463.108,236.456 L463.108,227.48 L464.188,227.48 L464.188,223.4 L463.372,223.4 L463.372,216.992 L455.956,216.992 L455.956,223.4 L455.068,223.4 L455.068,227.552 L456.172,227.552 L456.172,232.664 C456.148,234.392 455.74,235.832 454.972,236.936 L456.628,238.448 Z M458.788,223.4 L457.996,223.4 L457.996,218.864 L461.356,218.864 L461.356,220.232 L458.788,220.232 L458.788,223.4 Z M468.22,221.048 L466.876,221.048 L466.876,219.728 L468.22,219.728 L468.22,221.048 Z M471.148,221.048 L469.852,221.048 L469.852,219.728 L471.148,219.728 L471.148,221.048 Z M474.124,221.048 L472.732,221.048 L472.732,219.728 L474.124,219.728 L474.124,221.048 Z M461.356,223.4 L460.396,223.4 L460.396,221.912 L461.356,221.912 L461.356,223.4 Z M474.124,223.88 L472.732,223.88 L472.732,222.584 L474.124,222.584 L474.124,223.88 Z M471.148,223.88 L469.852,223.88 L469.852,222.584 L471.148,222.584 L471.148,223.88 Z M468.22,223.88 L466.876,223.88 L466.876,222.584 L468.22,222.584 L468.22,223.88 Z M462.148,226.616 L457.108,226.616 L457.108,225.224 L462.148,225.224 L462.148,226.616 Z M476.524,228.368 L476.524,226.448 L464.404,226.448 L464.404,228.368 L476.524,228.368 Z M458.188,233.168 L458.212,232.52 L458.212,232.52 L458.212,231.248 C458.836,231.416 459.484,231.632 460.132,231.896 L460.78,230.264 C459.94,229.976 459.076,229.736 458.212,229.568 L458.212,228.44 L461.02,228.44 L461.02,232.28 C460.156,232.592 459.196,232.88 458.188,233.168 Z M476.692,237.848 L476.692,235.76 L473.644,235.76 L474.052,234.248 L475.468,234.248 L475.468,229.256 L465.388,229.256 L465.388,234.248 L466.756,234.248 L467.212,235.76 L463.9,235.76 L463.9,237.848 L476.692,237.848 Z M473.332,232.424 L467.524,232.424 L467.524,231.008 L473.332,231.008 L473.332,232.424 Z M471.46,235.76 L469.42,235.76 L468.964,234.248 L471.868,234.248 L471.46,235.76 Z M484.108,231.44 C486.124,231.2 488.236,230.72 490.492,230.048 L490.684,231.128 L492.748,230.6 C492.364,228.776 491.956,227.144 491.524,225.728 L489.604,226.352 C489.748,226.928 489.916,227.528 490.084,228.152 C489.1,228.392 488.116,228.608 487.108,228.8 C488.548,227.144 490.324,224.528 492.46,220.952 L490.132,220.088 C489.58,221.096 489.052,222.008 488.572,222.872 C487.804,222.992 487.036,223.112 486.268,223.208 C487.396,221.576 488.5,219.512 489.604,217.04 L487.204,216.104 C486.412,218.408 485.476,220.544 484.42,222.464 C484.132,222.896 483.772,223.208 483.388,223.376 L483.988,225.656 C485.092,225.488 486.148,225.32 487.156,225.152 C486.148,226.712 485.284,227.816 484.588,228.488 C484.276,228.776 483.892,228.992 483.46,229.184 L484.108,231.44 Z M502.732,238.52 C503.956,238.52 504.94,237.032 505.684,234.104 L503.572,232.88 C503.38,234.704 503.14,235.688 502.876,235.784 C502.06,235.544 501.532,232.64 501.34,227.048 L505.036,227.048 L505.036,224.672 L501.268,224.672 C501.22,222.704 501.196,220.952 501.196,219.368 C502.588,219.08 503.836,218.744 504.916,218.408 L503.62,216.344 C500.716,217.256 497.188,217.856 493.036,218.192 L493.036,235.256 C493.036,235.736 492.796,236.096 492.364,236.288 L493.252,238.448 C495.46,237.608 497.524,236.72 499.444,235.784 L498.484,233.696 C497.476,234.176 496.468,234.632 495.46,235.064 L495.46,227.048 L498.94,227.048 C499.348,234.68 500.62,238.496 502.732,238.52 Z M498.82,224.672 L495.46,224.672 L495.46,220.208 C496.612,220.064 497.692,219.944 498.724,219.8 C498.724,221.48 498.772,223.112 498.82,224.672 Z M490.756,236.024 L492.724,235.136 C492.388,233.792 492.028,232.52 491.596,231.32 L489.772,231.92 C490.108,233.12 490.444,234.488 490.756,236.024 Z M487.564,237.296 L489.772,236.792 C489.532,235.016 489.268,233.384 488.98,231.896 L487.036,232.328 C487.228,233.768 487.42,235.424 487.564,237.296 Z M485.62,238.112 C486.004,236.504 486.268,234.656 486.364,232.568 L484.252,232.28 C484.132,234.2 483.844,235.904 483.388,237.392 L485.62,238.112 Z M524.572,238.52 L524.572,233.864 L529.444,233.864 L529.444,231.44 L524.572,231.44 L524.572,222.92 C526.156,227.168 528.892,231.008 532.804,234.44 L534.508,232.28 C530.716,229.52 528.028,226.376 526.444,222.848 L533.668,222.848 L533.668,220.424 L524.572,220.424 L524.572,216.344 L522.028,216.344 L522.028,220.424 L512.908,220.424 L512.908,222.848 L520.132,222.848 C518.404,226.712 515.716,229.904 512.02,232.4 L513.484,234.752 C517.468,231.68 520.3,227.744 522.028,222.92 L522.028,231.44 L517.348,231.44 L517.348,233.864 L522.028,233.864 L522.028,238.52 L524.572,238.52 Z" id="實體紙本" fill="#ED5454" fill-rule="nonzero"></path>
                    <path d="M33.1,226.496 L33.1,221.816 L39.964,221.816 L39.964,224.984 L42.268,224.984 L42.268,219.968 L33.1,219.968 L33.1,219.056 L41.332,219.056 L41.332,217.04 L22.444,217.04 L22.444,219.056 L30.7,219.056 L30.7,219.968 L21.532,219.968 L21.532,224.984 L23.836,224.984 L23.836,221.816 L30.7,221.816 L30.7,226.496 L33.1,226.496 Z M34.396,224.264 C36.172,224.144 37.708,223.976 39.028,223.736 L38.428,222.152 C37.156,222.488 35.716,222.704 34.108,222.8 L34.396,224.264 Z M29.212,224.216 L29.812,222.776 C28.396,222.536 26.932,222.368 25.396,222.272 L24.628,223.736 C26.212,223.832 27.748,223.976 29.212,224.216 Z M24.916,226.616 C27.196,226.448 28.804,226.232 29.74,225.992 L29.26,224.624 C28.3,224.816 26.692,224.936 24.436,225.032 L24.916,226.616 Z M38.692,226.736 L39.364,225.2 C37.852,224.96 36.292,224.768 34.66,224.648 L33.988,225.944 C35.62,226.136 37.18,226.4 38.692,226.736 Z M39.844,238.304 C40.852,238.304 41.596,238.136 42.076,237.8 C42.604,237.464 42.964,236.36 43.18,234.488 L40.972,233.816 C40.876,235.016 40.708,235.712 40.444,235.928 C40.228,236.144 39.892,236.264 39.412,236.264 L33.604,236.264 C33.22,236.264 33.052,236.096 33.052,235.784 L33.052,234.896 L40.444,234.896 L40.444,227.144 L23.14,227.144 L23.14,234.896 L30.604,234.896 L30.604,236.288 C30.604,237.632 31.372,238.304 32.956,238.304 L39.844,238.304 Z M30.604,230.144 L25.468,230.144 L25.468,228.968 L30.604,228.968 L30.604,230.144 Z M38.092,230.144 L33.052,230.144 L33.052,228.968 L38.092,228.968 L38.092,230.144 Z M38.092,233.024 L33.052,233.024 L33.052,231.872 L38.092,231.872 L38.092,233.024 Z M30.604,233.024 L25.468,233.024 L25.468,231.872 L30.604,231.872 L30.604,233.024 Z M60.052,238.328 C61.636,238.328 62.452,237.512 62.452,235.904 L62.452,228.68 L71.284,228.68 L71.284,226.232 L62.452,226.232 L62.452,224.552 C64.756,222.968 66.796,221.264 68.596,219.488 L68.596,217.136 L52.636,217.136 L52.636,219.488 L65.26,219.488 C63.532,220.976 61.756,222.248 59.932,223.304 L59.932,226.232 L50.116,226.232 L50.116,228.68 L59.932,228.68 L59.932,235.112 C59.932,235.688 59.62,235.976 59.02,235.976 C57.604,235.976 56.308,235.952 55.108,235.904 L55.78,238.328 L60.052,238.328 Z M98.596,226.304 L98.596,220.544 L93.268,220.544 L93.268,219.152 L100.252,219.152 L100.252,216.992 L78.748,216.992 L78.748,219.152 L85.732,219.152 L85.732,220.544 L80.404,220.544 L80.404,226.304 L98.596,226.304 Z M90.892,220.544 L88.108,220.544 L88.108,219.152 L90.892,219.152 L90.892,220.544 Z M96.196,224.288 L93.268,224.288 L93.268,222.56 L96.196,222.56 L96.196,224.288 Z M90.892,224.288 L88.108,224.288 L88.108,222.56 L90.892,222.56 L90.892,224.288 Z M85.732,224.288 L82.804,224.288 L82.804,222.56 L85.732,222.56 L85.732,224.288 Z M97.636,229.616 L97.636,227.552 L81.532,227.552 L81.532,229.616 L97.636,229.616 Z M90.964,238.4 L90.964,232.88 L99.868,232.88 L99.868,230.744 L79.132,230.744 L79.132,232.88 L88.564,232.88 L88.564,238.4 L90.964,238.4 Z M98.38,238.232 L100.132,236.48 C98.668,235.4 96.868,234.32 94.708,233.24 L93.076,234.8 C95.38,236.024 97.132,237.176 98.38,238.232 Z M80.812,238.232 C83.116,237.248 85.06,236.072 86.644,234.728 L85.012,233.288 C83.476,234.416 81.58,235.4 79.3,236.264 L80.812,238.232 Z M110.764,238.544 C112.78,237.536 114.316,236.432 115.372,235.184 C116.14,234.176 116.764,232.832 117.244,231.176 L122.476,231.176 C122.38,233.216 122.212,234.56 121.924,235.184 C121.66,235.784 121.108,236.096 120.244,236.096 C119.188,236.096 118.06,236.048 116.86,235.976 L117.508,238.328 L121.444,238.328 C122.404,238.28 123.124,237.968 123.58,237.44 C124.012,236.864 124.348,235.88 124.54,234.488 C124.684,233.288 124.78,231.752 124.876,229.928 C125.74,230.624 126.748,231.32 127.9,231.992 L129.532,229.952 C127.132,228.896 125.356,227.696 124.204,226.352 L128.716,226.352 L128.716,224.096 L117.244,224.096 C117.604,223.472 117.94,222.8 118.228,222.128 L127.396,222.128 L127.396,219.92 L124.204,219.92 C124.876,219.032 125.428,218.024 125.908,216.872 L123.82,216.104 C123.364,217.352 122.764,218.432 122.044,219.392 L122.98,219.92 L119.044,219.92 C119.404,218.792 119.692,217.616 119.908,216.368 L117.412,216.056 C117.196,217.4 116.884,218.696 116.5,219.92 L113.548,219.92 L114.724,219.392 C114.244,218.24 113.716,217.184 113.092,216.2 L110.932,216.92 C111.508,217.784 112.036,218.792 112.54,219.92 L109.204,219.92 L109.204,222.128 L115.588,222.128 C115.252,222.8 114.868,223.472 114.46,224.096 L107.884,224.096 L107.884,226.352 L112.588,226.352 C111.1,227.864 109.252,229.088 107.044,230.024 L108.436,232.136 C109.732,231.512 110.932,230.768 112.06,229.928 L112.06,231.176 L114.916,231.176 C114.508,232.328 113.956,233.288 113.284,234.008 C112.348,234.92 110.98,235.76 109.204,236.528 L110.764,238.544 Z M123.676,228.872 L113.38,228.872 C114.22,228.104 115.012,227.264 115.732,226.352 L121.588,226.352 C122.116,227.216 122.812,228.056 123.676,228.872 Z" id="電子票券" fill="#0E6DA0" fill-rule="nonzero"></path>
                </g>
            </g>
        </g>
    </g>
</svg>