<svg xmlns="http://www.w3.org/2000/svg" xmlns:xlink="http://www.w3.org/1999/xlink" width="451" height="254" viewBox="0 0 451 254">
    <defs>
        <path id="prefix__a" d="M0 249.609L340.676 249.609 340.676 0 0 0z"/>
        <path id="prefix__c" d="M0 0.21L213 0.21 213 73.21 0 73.21z"/>
    </defs>
    <g fill="none" fill-rule="evenodd">
        <g transform="translate(0 -1) translate(0 5)">
            <path fill="#67B0D0" d="M210.028 53.593c-1.004 0-2.015-.053-3.027-.157-7.67-.795-14.577-4.533-19.445-10.527l8.977-7.29c2.92 3.595 7.06 5.838 11.66 6.315 4.6.478 9.111-.869 12.707-3.789l7.29 8.975c-5.202 4.225-11.558 6.473-18.162 6.473"/>
            <path fill="#D84479" d="M210.028 49.946c-1.004 0-2.015-.052-3.027-.157-6.726-.697-12.863-3.657-17.553-8.415l-1.892 1.536c4.868 5.993 11.774 9.73 19.445 10.526 1.012.105 2.023.157 3.027.157 6.604 0 12.96-2.248 18.161-6.472l-1.843-2.27c-4.827 3.332-10.474 5.095-16.318 5.095"/>
            <path fill="#67B0D0" d="M225.03 75.274c-1.216 0-2.608-.092-4.147-.343-4.564-.744-11.499-3.126-18.616-10.243-13.435-13.436-11.213-38.99-11.11-40.07l11.513 1.069c-.533 5.878-.175 22.875 7.774 30.825 8.825 8.824 16.331 7.073 16.403 7.05l3.345 11.07c-.457.139-2.32.642-5.163.642"/>
            <path fill="#D84479" d="M228.209 71.883c-1.215 0-2.607-.092-4.146-.343-4.564-.744-11.498-3.125-18.616-10.242-10.574-10.576-11.45-28.654-11.293-36.402l-2.998-.279c-.101 1.081-2.324 26.634 11.112 40.071 7.117 7.117 14.05 9.5 18.615 10.243 1.539.251 2.93.343 4.146.343 2.843 0 4.706-.503 5.163-.64l-.84-2.779c-.361.017-.741.028-1.143.028"/>
            <path fill="#A6DD7B" d="M231.673 115.73v20.104c-2.643 3.073-5.515 5.945-8.588 8.59l-.068.06c-3.125 2.683-6.46 5.137-9.971 7.328-.817.51-1.646 1.008-2.484 1.489-.003.003-.006.003-.012.006-1.55.893-3.13 1.736-4.742 2.525h-.003c-6.563 3.216-13.617 5.569-21.026 6.918-1.868.34-3.755.617-5.667.826-.737.08-1.474.152-2.217.213-2.172.18-4.37.272-6.588.278h-.35c-2.203-.006-4.387-.098-6.545-.275-.008 0-.02 0-.031-.003-.743-.061-1.48-.133-2.218-.213-1.933-.212-3.844-.491-5.735-.838-7.386-1.352-14.421-3.701-20.96-6.906-1.615-.791-3.201-1.635-4.754-2.528-.838-.484-1.667-.981-2.484-1.492-3.538-2.206-6.892-4.68-10.04-7.388-3.073-2.645-5.945-5.517-8.587-8.59V113.38c0-5.922 1.893-11.4 5.107-15.867 4.938-6.86 12.994-11.33 22.093-11.33h68.662c1.346 0 2.668.098 3.962.287 7.454 1.087 13.927 5.199 18.133 11.052 3.21 4.462 5.098 9.938 5.098 15.858v2.35h.015z"/>
            <path fill="#A6DD7B" d="M210.55 130.124v23.183c-1.55.892-3.13 1.736-4.742 2.524h-.003c-6.563 3.217-13.617 5.57-21.026 6.918-1.868.342-3.755.617-5.666.826-.738.08-1.475.153-2.218.213l-5.065.21-1.523.063v.013h-.023l-.146-.008h-.003l-.152.008h-.026v-.013l-1.511-.06-5.034-.21c-.008 0-.02 0-.031-.003-.743-.06-1.48-.133-2.218-.213-1.933-.212-3.844-.49-5.735-.838-7.386-1.35-14.421-3.7-20.96-6.906-1.615-.79-3.201-1.635-4.754-2.527V120.78c3.053-17.272 12.779-28.057 26.879-34.596l13.542 26.241 13.54-26.24c6.688 3.1 12.389 7.157 16.86 12.408-.911 2.78-1.407 5.75-1.407 8.834 0 9.3 4.49 17.548 11.422 22.698"/>
            <path fill="#FFF" d="M156.592 86.182L144.005 86.182 154.391 125.124 170.133 112.426zM183.679 86.182L196.267 86.182 185.881 125.124 170.137 112.426z"/>
            <path fill="#FFF" d="M171.831 112.425L171.831 163.996 170.308 164.061 170.308 164.073 170.283 164.073 170.135 164.067 169.982 164.073 169.958 164.073 169.958 164.061 168.444 163.999 168.444 112.425z"/>
            <path fill="#D0D2D3" d="M183.679 86.182L173.97 115.518 170.137 112.426zM156.592 86.182L166.301 115.518 170.133 112.426z"/>
            <path fill="#FFF" d="M129.714 120.78v32.524c-.838-.484-1.667-.981-2.484-1.492-3.538-2.206-6.892-4.68-10.04-7.387-3.073-2.646-5.945-5.518-8.587-8.591V120.78h21.11z"/>
            <path fill="#E7AD26" d="M210.561 153.301l-.012-25.437-.003-7.084-4.739 35.051c1.612-.788 3.193-1.632 4.742-2.524l.012-.006zM134.469 155.832c-1.616-.791-3.202-1.636-4.755-2.528V120.78l4.755 35.053z"/>
            <path fill="#FFF" d="M135.579 50.835c-3.212 0-5.816-2.604-5.816-5.817V36.15c0-3.21 2.604-5.816 5.816-5.816 3.213 0 5.817 2.605 5.817 5.816v8.868c0 3.213-2.604 5.817-5.817 5.817"/>
            <path fill="#D0D2D3" d="M135.579 48.095c-3.212 0-5.816-2.604-5.816-5.817v2.74c0 3.213 2.604 5.817 5.816 5.817 3.213 0 5.817-2.604 5.817-5.817v-2.74c0 3.213-2.604 5.817-5.817 5.817"/>
            <path fill="#FFF" d="M204.696 50.835c-3.213 0-5.816-2.604-5.816-5.817V36.15c0-3.21 2.603-5.816 5.816-5.816 3.212 0 5.816 2.605 5.816 5.816v8.868c0 3.213-2.604 5.817-5.816 5.817"/>
            <path fill="#D0D2D3" d="M204.696 48.095c-3.213 0-5.816-2.604-5.816-5.817v2.74c0 3.213 2.603 5.817 5.816 5.817 3.212 0 5.816-2.604 5.816-5.817v-2.74c0 3.213-2.604 5.817-5.816 5.817"/>
            <path fill="#FFF" d="M156.6 67.801v18.381h-.009l.002.004c6.816 8.936 20.268 8.934 27.08-.004h.001v-18.38H156.6z"/>
            <path fill="#67B0D0" d="M156.594 86.186l13.54 26.238 13.54-26.241c-6.813 8.938-20.265 8.94-27.08.003"/>
            <path fill="#FFF" d="M136.087 28.019c1.126-5.785 3.689-11.056 7.307-15.425 1.045-1.267 2.18-2.454 3.394-3.559C152.952 3.418 161.145 0 170.138 0c.399 0 .802.007 1.2.024.136 0 .27.007.402.014 8.947.405 17.004 4.195 22.934 10.126 5.28 5.281 8.869 12.262 9.873 20.052.189 1.468.287 2.962.287 4.481v6.87c0 19.164-15.532 34.696-34.696 34.696-19.16 0-34.697-15.532-34.697-34.696v-6.87c0-1.475.092-2.925.27-4.349l.376-2.329z"/>
            <path fill="#D0D2D3" d="M170.137 70.783c-19.16 0-34.696-15.532-34.696-34.696v5.48c0 19.164 15.536 34.696 34.696 34.696 19.165 0 34.696-15.532 34.696-34.696v-5.48c0 19.164-15.531 34.696-34.696 34.696"/>
            <path fill="#4B6084" d="M136.087 28.019h3.313v16.628c0 1.084-.836 2.028-1.92 2.059-1.122.03-2.04-.868-2.04-1.978V32.766c0-1.604.219-3.201.647-4.747M204.834 32.506v12.151c0 1.007-.723 1.905-1.722 2.032-1.208.154-2.237-.784-2.237-1.96v-16.71h3.316c.426 1.458.643 2.968.643 4.487"/>
            <path fill="#4B6084" d="M171.338.024c-3.51 5.478-12.21 17.317-26.298 25.646-3.39 2-6.505 3.529-9.328 4.678.004-.003.004-.01.004-.012.838-6.696 3.584-12.798 7.678-17.742 1.045-1.267 2.18-2.454 3.394-3.56 6.164-5.615 14.357-9.033 23.35-9.033.399 0 .802.006 1.2.023"/>
            <path fill="#808F91" d="M204.547 30.216c-4.724 1.431-14.031 2.78-28.813-1.085-14.948-3.905-26.291-11.65-32.34-16.537 1.045-1.268 2.18-2.454 3.394-3.56C152.952 3.418 161.145 0 170.138 0c.534 0 1.072.01 1.602.037 8.947.406 17.004 4.196 22.934 10.126 5.28 5.282 8.869 12.263 9.873 20.053"/>
            <path fill="#4B6084" d="M175.733 8.845c-6.545-1.71-12.399-4.156-17.42-6.777-4.302 1.56-8.208 3.944-11.525 6.966-1.214 1.106-2.35 2.292-3.395 3.56 6.05 4.886 17.393 12.632 32.34 16.537 14.782 3.864 24.09 2.516 28.813 1.085-.932-7.232-4.094-13.767-8.769-18.892-5.026.228-11.65-.285-20.044-2.479"/>
            <path fill="#808F91" d="M175.733 15.607c-9.557-2.496-17.637-6.562-23.805-10.448-1.834 1.133-3.554 2.43-5.14 3.876-1.214 1.105-2.35 2.292-3.395 3.559 6.05 4.886 17.393 12.632 32.34 16.537 14.782 3.865 24.09 2.516 28.813 1.085-.584-4.526-2.043-8.776-4.197-12.582-5.3.835-13.374.912-24.616-2.027"/>
            <path fill="#4B6084" d="M175.733 22.37c-12.263-3.204-22.097-8.991-28.574-13.665-.124.109-.249.219-.37.33-1.215 1.106-2.35 2.292-3.396 3.56 6.05 4.885 17.393 12.63 32.34 16.537 14.782 3.864 24.09 2.515 28.813 1.085-.283-2.194-.777-4.321-1.45-6.367-5.066 1.243-13.967 2.022-27.363-1.48"/>
            <path fill="#A62873" d="M170.137 53.059c-2.115 0-3.832-1.716-3.832-3.832v-5.042c0-2.116 1.716-3.832 3.832-3.832 2.118 0 3.833 1.716 3.833 3.832v5.042c0 2.116-1.715 3.832-3.833 3.832M156.952 37.363c0 1.618-1.312 2.93-2.931 2.93-1.618 0-2.929-1.312-2.929-2.93s1.311-2.931 2.929-2.931c1.619 0 2.931 1.313 2.931 2.93M189.184 37.363c0 1.618-1.312 2.93-2.93 2.93-1.619 0-2.93-1.312-2.93-2.93s1.311-2.931 2.93-2.931c1.618 0 2.93 1.313 2.93 2.93M170.137 63.32c-3.744 0-7.266-1.46-9.916-4.11-.35-.35-.35-.915 0-1.265.35-.35.916-.35 1.264 0 2.313 2.313 5.385 3.588 8.652 3.588 3.268 0 6.34-1.275 8.653-3.588.35-.35.915-.35 1.264 0 .35.35.35.915 0 1.265-2.65 2.65-6.173 4.11-9.917 4.11"/>
            <path fill="#EE599C" d="M170.137 160.017L170.121 160.035 170.127 160.054 170.138 160.018z"/>
            <path fill="#FFF" d="M115.472 118.124v2.291c0 2.413 1.956 4.37 4.369 4.37s4.369-1.957 4.369-4.37v-2.29c0-2.414-1.956-4.37-4.37-4.37-2.413 0-4.368 1.956-4.368 4.37M225.431 118.124v2.291c0 2.413-1.956 4.37-4.369 4.37s-4.369-1.957-4.369-4.37v-2.29c0-2.414 1.956-4.37 4.37-4.37 2.413 0 4.369 1.956 4.369 4.37"/>
            <path fill="#1C789D" d="M165.981 120.683v128.446c-.089.164-.174.323-.266.48H.265c-.092-.157-.177-.316-.265-.48V120.683h165.981z"/>
            <path fill="#F8F6DE" d="M158.513 128.287L158.513 242.996 7.468 242.996 7.468 127.296z"/>
            <path fill="#1C789D" d="M340.676 120.683v128.446c-.088.164-.173.323-.266.48H174.96c-.092-.157-.177-.316-.264-.48V120.683h165.98z"/>
            <path fill="#F8F6DE" d="M333.208 128.287L333.208 242.996 182.163 242.996 182.163 127.296z"/>
            <path fill="#D0D2D3" d="M116.441 116.11c-1.878 0-3.399 1.523-3.399 3.4v-1.745c0-1.877-1.523-3.4-3.4-3.4-1.878 0-3.4 1.523-3.4 3.4v1.746c0-1.878-1.523-3.4-3.4-3.4-1.878 0-3.399 1.522-3.399 3.4v1.746c0-1.878-1.523-3.401-3.4-3.401s-3.4 1.523-3.4 3.4v8.244c0 1.878 1.523 3.399 3.4 3.399s3.4-1.521 3.4-3.4c0 1.879 1.521 3.4 3.4 3.4 1.876 0 3.4-1.521 3.4-3.4 0 1.879 1.521 3.4 3.398 3.4 1.878 0 3.401-1.521 3.401-3.4 0 1.879 1.521 3.4 3.4 3.4 1.876 0 3.398-1.521 3.398-3.4v-9.988c0-1.878-1.522-3.4-3.399-3.4M244.86 117.856c-1.878 0-3.4 1.522-3.4 3.4v-1.745c0-1.878-1.522-3.4-3.4-3.4-1.877 0-3.399 1.522-3.399 3.4v-1.746c0-1.877-1.523-3.4-3.4-3.4-1.878 0-3.399 1.523-3.399 3.4v1.746c0-1.878-1.523-3.4-3.4-3.4s-3.4 1.522-3.4 3.4v9.989c0 1.877 1.523 3.399 3.4 3.399s3.4-1.522 3.4-3.4c0 1.878 1.521 3.4 3.4 3.4 1.876 0 3.4-1.522 3.4-3.4 0 1.878 1.521 3.4 3.398 3.4 1.878 0 3.4-1.522 3.4-3.4 0 1.878 1.522 3.4 3.4 3.4 1.877 0 3.4-1.522 3.4-3.4v-8.243c0-1.878-1.523-3.4-3.4-3.4"/>
            <path fill="#FFF" d="M116.441 128.537c1.877 0 3.4-1.522 3.4-3.4v-9.99c0-1.877-1.523-3.398-3.4-3.398-1.878 0-3.399 1.52-3.399 3.399v9.989c0 1.878 1.521 3.4 3.4 3.4M109.641 128.537c1.878 0 3.4-1.522 3.4-3.4v-11.734c0-1.878-1.522-3.4-3.4-3.4-1.877 0-3.399 1.522-3.399 3.4v11.734c0 1.878 1.522 3.4 3.4 3.4M102.843 128.537c1.878 0 3.399-1.522 3.399-3.4v-9.99c0-1.877-1.521-3.398-3.4-3.398-1.877 0-3.398 1.52-3.398 3.399v9.989c0 1.878 1.52 3.4 3.399 3.4M96.043 128.537c1.878 0 3.4-1.522 3.4-3.4v-8.244c0-1.877-1.522-3.4-3.4-3.4-1.877 0-3.4 1.523-3.4 3.4v8.244c0 1.878 1.523 3.4 3.4 3.4M224.462 128.537c-1.877 0-3.4-1.522-3.4-3.4v-9.99c0-1.877 1.523-3.398 3.4-3.398 1.878 0 3.399 1.52 3.399 3.399v9.989c0 1.878-1.521 3.4-3.4 3.4M231.262 128.537c-1.878 0-3.4-1.522-3.4-3.4v-11.734c0-1.878 1.522-3.4 3.4-3.4 1.877 0 3.399 1.522 3.399 3.4v11.734c0 1.878-1.522 3.4-3.4 3.4M238.06 128.537c-1.877 0-3.399-1.522-3.399-3.4v-9.99c0-1.877 1.522-3.398 3.4-3.398 1.877 0 3.398 1.52 3.398 3.399v9.989c0 1.878-1.52 3.4-3.399 3.4M244.86 128.537c-1.878 0-3.4-1.522-3.4-3.4v-8.244c0-1.877 1.522-3.4 3.4-3.4 1.877 0 3.4 1.523 3.4 3.4v8.244c0 1.878-1.523 3.4-3.4 3.4"/>
            <path fill="#1C789D" d="M97.299 41.584v43.813c0 1.937-.843 3.678-2.182 4.877-1.156 1.035-2.688 1.667-4.363 1.667H49.849c-3.613 0-6.545-2.927-6.545-6.544V41.584c0-3.612 2.932-6.544 6.545-6.544h40.905c3.612 0 6.545 2.932 6.545 6.544"/>
            <path fill="#821F22" d="M90.754 89.025H49.849c-3.616 0-6.545-2.93-6.545-6.544v2.918c0 3.614 2.929 6.544 6.545 6.544h40.905c3.614 0 6.545-2.93 6.545-6.544V82.48c0 3.614-2.931 6.544-6.545 6.544"/>
            <path fill="#A00B0F" d="M54.248 41.51h-.423c-1.214 0-2.198-.984-2.198-2.198v-8.54c0-1.215.984-2.2 2.198-2.2h.423c1.214 0 2.198.985 2.198 2.2v8.54c0 1.214-.984 2.198-2.198 2.198M65.09 41.51h-.422c-1.214 0-2.198-.984-2.198-2.198v-8.54c0-1.215.984-2.2 2.198-2.2h.423c1.214 0 2.198.985 2.198 2.2v8.54c0 1.214-.984 2.198-2.198 2.198M75.933 41.51h-.422c-1.215 0-2.199-.984-2.199-2.198v-8.54c0-1.215.984-2.2 2.2-2.2h.421c1.214 0 2.198.985 2.198 2.2v8.54c0 1.214-.984 2.198-2.198 2.198M86.776 41.51h-.422c-1.215 0-2.198-.984-2.198-2.198v-8.54c0-1.215.983-2.2 2.198-2.2h.422c1.214 0 2.198.985 2.198 2.2v8.54c0 1.214-.984 2.198-2.198 2.198"/>
            <mask id="prefix__b" fill="#fff">
                <use xlink:href="#prefix__a"/>
            </mask>
            <path fill="#EFD081" d="M50.834 56.317L61.193 56.317 61.193 45.958 50.834 45.958z" mask="url(#prefix__b)"/>
            <path fill="#FFF" d="M65.121 56.317L75.48 56.317 75.48 45.958 65.121 45.958zM79.408 56.317L89.768 56.317 89.768 45.958 79.408 45.958zM50.834 70.086L61.193 70.086 61.193 59.727 50.834 59.727zM65.121 70.086L75.48 70.086 75.48 59.727 65.121 59.727zM79.408 70.086L89.768 70.086 89.768 59.727 79.408 59.727zM50.834 83.855L61.193 83.855 61.193 73.497 50.834 73.497z" mask="url(#prefix__b)"/>
            <path fill="#EFD081" d="M65.121 83.855L75.48 83.855 75.48 73.497 65.121 73.497z" mask="url(#prefix__b)"/>
            <path fill="#FFF" d="M79.408 83.855L89.768 83.855 89.768 73.497 79.408 73.497z" mask="url(#prefix__b)"/>
            <path fill="#B4B4B5" d="M97.299 49.351v36.046c0 1.937-.843 3.679-2.182 4.878-6.532-4.189-10.856-11.509-10.856-19.838 0-9.232 5.306-17.221 13.038-21.086" mask="url(#prefix__b)"/>
            <path fill="#67B0D0" d="M127.271 66.072c0 10.74-8.707 19.447-19.448 19.447-10.74 0-19.448-8.706-19.448-19.447 0-10.74 8.707-19.447 19.448-19.447s19.448 8.707 19.448 19.447" mask="url(#prefix__b)"/>
            <path fill="#FFF" d="M113.659 72.536c-.448 0-.9-.138-1.289-.423l-5.837-4.282c-.561-.411-.892-1.064-.892-1.76V53.776c0-1.205.977-2.181 2.182-2.181s2.182.976 2.182 2.18v11.194l4.946 3.628c.972.712 1.181 2.078.469 3.048-.428.583-1.09.892-1.761.892" mask="url(#prefix__b)"/>
            <path fill="#D84479" d="M204.938 30.211h-69.364l.376-2.332c.786-4.039 2.27-7.826 4.316-11.237h59.98c2.42 4.027 4.05 8.583 4.677 13.451.006.04.012.078.015.118" mask="url(#prefix__b)"/>
            <path fill="#67B0D0" d="M139.447 30.357h61.781l-.335-2.383c-.7-4.125-2.02-7.993-3.843-11.477h-53.423c-2.156 4.113-3.608 8.766-4.167 13.739-.005.04-.01.08-.013.12" mask="url(#prefix__b)"/>
        </g>
        <g>
            <g>
                <path fill="#FFF" d="M11.213 34.727L11.213 0 46.242 34.727z" transform="translate(0 -1) translate(238) matrix(1 0 0 -1 0 97)"/>
                <g transform="translate(0 -1) translate(238) matrix(1 0 0 -1 0 97) translate(0 22.79)">
                    <mask id="prefix__d" fill="#fff">
                        <use xlink:href="#prefix__c"/>
                    </mask>
                    <path fill="#FFF" d="M196.575 73.21H16.425C7.354 73.21 0 67.118 0 59.602V13.818C0 6.303 7.354.21 16.425.21h180.15C205.646.21 213 6.303 213 13.818v45.784c0 7.516-7.354 13.608-16.425 13.608" mask="url(#prefix__d)"/>
                </g>
            </g>
            <g fill-rule="nonzero">
                <path fill="#6CB37B" d="M9.96 16.4v-2.06H2.92c.32-.72 1.2-1.56 2.66-2.52 1.4-.94 2.4-1.7 2.96-2.3.92-1.02 1.4-2.14 1.4-3.38 0-1.28-.44-2.3-1.32-3.1-.9-.8-2.04-1.2-3.42-1.2-1.54 0-2.78.52-3.72 1.56C.56 4.38.1 5.66.08 7.26h2.34c.04-1.12.28-1.98.72-2.54.44-.6 1.1-.9 1.98-.9.82 0 1.44.18 1.86.56.4.38.62.96.62 1.74 0 .8-.32 1.56-.94 2.26-.4.42-1.04.96-1.96 1.6C3.04 11.12 1.94 12 1.42 12.6.46 13.68 0 14.94 0 16.4h9.96zm10.02.28c1.66 0 2.96-.7 3.9-2.08.88-1.32 1.32-3.1 1.32-5.34 0-2.24-.44-4.02-1.32-5.34-.94-1.4-2.24-2.08-3.9-2.08-1.68 0-2.98.68-3.9 2.08-.88 1.32-1.32 3.1-1.32 5.34 0 2.24.44 4.02 1.32 5.34.92 1.38 2.22 2.08 3.9 2.08zm0-1.98c-1.14 0-1.94-.64-2.4-1.9-.32-.88-.48-2.06-.48-3.54 0-1.5.16-2.68.48-3.54.46-1.28 1.26-1.9 2.4-1.9 1.12 0 1.92.62 2.4 1.9.32.86.48 2.04.48 3.54 0 1.48-.16 2.66-.48 3.54-.48 1.26-1.28 1.9-2.4 1.9zm19.98 1.7v-2.06h-7.04c.32-.72 1.2-1.56 2.66-2.52 1.4-.94 2.4-1.7 2.96-2.3.92-1.02 1.4-2.14 1.4-3.38 0-1.28-.44-2.3-1.32-3.1-.9-.8-2.04-1.2-3.42-1.2-1.54 0-2.78.52-3.72 1.56-.92.98-1.38 2.26-1.4 3.86h2.34c.04-1.12.28-1.98.72-2.54.44-.6 1.1-.9 1.98-.9.82 0 1.44.18 1.86.56.4.38.62.96.62 1.74 0 .8-.32 1.56-.94 2.26-.4.42-1.04.96-1.96 1.6-1.66 1.14-2.76 2.02-3.28 2.62-.96 1.08-1.42 2.34-1.42 3.8h9.96zm10.02.28c1.66 0 2.96-.7 3.9-2.08.88-1.32 1.32-3.1 1.32-5.34 0-2.24-.44-4.02-1.32-5.34-.94-1.4-2.24-2.08-3.9-2.08-1.68 0-2.98.68-3.9 2.08-.88 1.32-1.32 3.1-1.32 5.34 0 2.24.44 4.02 1.32 5.34.92 1.38 2.22 2.08 3.9 2.08zm0-1.98c-1.14 0-1.94-.64-2.4-1.9-.32-.88-.48-2.06-.48-3.54 0-1.5.16-2.68.48-3.54.46-1.28 1.26-1.9 2.4-1.9 1.12 0 1.92.62 2.4 1.9.32.86.48 2.04.48 3.54 0 1.48-.16 2.66-.48 3.54-.48 1.26-1.28 1.9-2.4 1.9zm11.52 3.7L68.44 0h-1.96l-6.96 18.4h1.98zm15.74-2l5-12.4V2.12h-9.66v2.12h7.3L74.76 16.4h2.48zm11.32 2L95.5 0h-1.96l-6.96 18.4h1.98zm21.46-2v-2.06h-7.04c.32-.72 1.2-1.56 2.66-2.52 1.4-.94 2.4-1.7 2.96-2.3.92-1.02 1.4-2.14 1.4-3.38 0-1.28-.44-2.3-1.32-3.1-.9-.8-2.04-1.2-3.42-1.2-1.54 0-2.78.52-3.72 1.56-.92.98-1.38 2.26-1.4 3.86h2.34c.04-1.12.28-1.98.72-2.54.44-.6 1.1-.9 1.98-.9.82 0 1.44.18 1.86.56.4.38.62.96.62 1.74 0 .8-.32 1.56-.94 2.26-.4.42-1.04.96-1.96 1.6-1.66 1.14-2.76 2.02-3.28 2.62-.96 1.08-1.42 2.34-1.42 3.8h9.96zm10.02.28c1.66 0 2.96-.7 3.9-2.08.88-1.32 1.32-3.1 1.32-5.34 0-2.24-.44-4.02-1.32-5.34-.94-1.4-2.24-2.08-3.9-2.08-1.68 0-2.98.68-3.9 2.08-.88 1.32-1.32 3.1-1.32 5.34 0 2.24.44 4.02 1.32 5.34.92 1.38 2.22 2.08 3.9 2.08zm0-1.98c-1.14 0-1.94-.64-2.4-1.9-.32-.88-.48-2.06-.48-3.54 0-1.5.16-2.68.48-3.54.46-1.28 1.26-1.9 2.4-1.9 1.12 0 1.92.62 2.4 1.9.32.86.48 2.04.48 3.54 0 1.48-.16 2.66-.48 3.54-.48 1.26-1.28 1.9-2.4 1.9z" transform="translate(0 -1) translate(238) translate(42.49 13.6)"/>
                <path fill="#0E6DA0" d="M21.57 46.32V35.1h5.82v-6.66h-7.9v17.88h2.08zm12.82-.08c1.4 0 2.12-.76 2.12-2.24V28.44h-8.02v6.62h5.94v8.32c0 .68-.26 1.04-.78 1.04-.56 0-1.18-.04-1.86-.1l.5 1.84c.7.04 1.4.08 2.1.08zM25.35 31.1h-3.78v-1.06h3.78v1.06zm9.08 0h-3.9v-1.02h3.9v1.02zm-9.08 2.38h-3.78v-.98h3.78v.98zm9.08-.02h-3.9v-.96h3.9v.96zM23.47 46.28c1.14-.52 1.96-1.28 2.46-2.24.36-.7.6-1.56.74-2.58h2.5v4.46h1.9v-4.46h2.32v-1.8h-2.32v-1.74h1.7v-1.76h-9.74v1.76h1.9v1.74h-2.42v1.8h2.26c-.1.52-.24.98-.4 1.38-.34.72-.98 1.32-1.92 1.8l1.02 1.64zm5.7-6.62h-2.38v-1.74h2.38v1.74zm14.04 6.82c1.4-2.12 2.24-5.26 2.52-9.42h1.94c-.04 3.68-.1 5.84-.18 6.44-.12.6-.48.92-1.1.92-.46 0-.98-.04-1.58-.08l.48 1.78c.68.08 1.14.12 1.42.12 1.48 0 2.36-.54 2.62-1.62l1.12 1.78c1.82-1.04 3.34-2.3 4.56-3.8 1.06 1.4 2.32 2.66 3.78 3.8l1.42-1.68c-1.54-1.16-2.86-2.46-3.98-3.94 1.26-2.24 1.98-4.88 2.14-7.96h1.28V30.8h-5.46c.22-.8.42-1.62.58-2.5l-2.04-.36c-.54 3.22-1.58 5.78-3.1 7.7l1.24 1.56c1.06-1.18 1.94-2.64 2.64-4.38h2.9c-.12 2.28-.62 4.28-1.46 6.02-.62-1.06-1.14-2.2-1.54-3.44l-1.64.92c.52 1.58 1.18 3.06 2.02 4.46-1.12 1.5-2.58 2.72-4.42 3.66.16-1.16.26-4.26.26-9.3h-3.82c0-.28.02-.56.02-.84v-1.52h4.66v-2.02h-2.86c-.32-.92-.72-1.9-1.22-2.98l-2.02.56c.42.78.8 1.58 1.14 2.42h-3.5v2.02h1.86v1.52c-.04 4.94-.8 8.52-2.32 10.74l1.64 1.44zm22.82-9.16c1.88-.78 3.46-1.72 4.74-2.84v.64h7.34v-.74c1.16 1.06 2.52 2.02 4.08 2.9l1.38-1.6c-1.08-.54-2.04-1.14-2.92-1.78.8-.62 1.52-1.32 2.12-2.08l-1.46-1.28c-.6.78-1.3 1.5-2.14 2.14-.4-.36-.76-.72-1.08-1.12.82-.6 1.54-1.28 2.14-2l-1.46-1.3c-.5.64-1.1 1.24-1.8 1.8-.44-.66-.82-1.36-1.14-2.1l-1.74.96c.7 1.56 1.66 2.98 2.86 4.3h-4.96c.78-.92 1.4-1.96 1.86-3.12v-1.56h-6.9v1.92h4.54c-.44.76-1 1.48-1.7 2.16-.68-.64-1.5-1.3-2.42-1.98l-1.4 1.32c.92.64 1.7 1.26 2.36 1.86-1 .7-2.18 1.32-3.58 1.86l1.28 1.64zm13.8 4.22v-5.2H68.27v5.2h11.56zm-2.1-1.84h-7.36v-1.54h7.36v1.54zm4.92 6.26v-1.98h-4.36c.4-.52.78-1.08 1.14-1.68l-1.94-.7c-.42.82-.9 1.62-1.46 2.38h-3.78c-.52-.88-1.1-1.66-1.74-2.32l-1.96.74c.56.5 1.06 1.02 1.48 1.58h-4.7v1.98h17.32zM95.41 32.2v-1.92h-2.68c-.22-.72-.52-1.5-.92-2.36l-2 .54c.32.6.62 1.2.9 1.82h-2.88v1.92h7.58zm7.72 13.74c1.16 0 1.92-.32 2.28-.94.36-.66.62-2.04.82-4.16l-2.1-.7c-.06 1.46-.16 2.46-.3 2.98-.14.54-.5.82-1.06.82h-3.46c-.48-.04-.72-.3-.72-.8v-6h6.3v-8.56h-8.9v2h6.84v4.54h-6.3v8.9c0 1.28.62 1.92 1.86 1.92h4.74zm-8.3-10.84v-1.82h-6.3v1.82h6.3zm0 2.8v-1.84h-6.3v1.84h6.3zm-4.48 8.58v-1.12h2.68v.8h1.98v-7.12h-6.66v7.44h2zm2.68-3.02h-2.68v-2.52h2.68v2.52z" transform="translate(0 -1) translate(238) translate(42.49 13.6)"/>
            </g>
        </g>
        <path fill="#0E6DA0" fill-rule="nonzero" d="M70.017 181.376v-1.032h7.944v1.008h2.448v-18.048h-5.184v-3.96H72.68v3.96h-5.112v18.072h2.448zm-7.968-.072c1.632 0 2.472-.816 2.472-2.448v-6.72c.72-.336 1.44-.72 2.16-1.104v-2.544c-.72.408-1.44.792-2.16 1.152v-3.792h2.064v-2.424H64.52v-4.056H62v4.056h-2.808v2.424H62v4.848c-1.056.384-2.112.696-3.168.96l.624 2.544c.864-.288 1.704-.624 2.544-.96v4.968c0 .528-.288.816-.816.816-.552 0-1.128-.048-1.728-.144l.552 2.424h2.04zm10.632-10.8h-2.664v-4.8h2.664v4.8zm5.28 0h-2.736v-4.8h2.736v4.8zm-5.28 7.44h-2.664v-5.136h2.664v5.136zm5.28 0h-2.736v-5.136h2.736v5.136zm9.183-12.648c.648-.744 1.248-1.56 1.776-2.424h1.224c.48.744.888 1.512 1.272 2.28l1.968-.744c-.24-.48-.528-1.008-.864-1.536h3.312v-2.04h-5.88l.456-1.152-2.352-.504c-.576 1.728-1.56 3.336-2.952 4.848l2.04 1.272zm10.632-.336c.48-.624.936-1.32 1.368-2.088h1.248c.408.624.792 1.296 1.128 1.992l1.944-.744c-.192-.384-.408-.816-.672-1.248h3.696v-2.04h-6.432c.12-.336.24-.72.384-1.104l-2.304-.504c-.456 1.584-1.248 3.096-2.352 4.488l1.992 1.248zm1.128 16.584c.936-.504 1.824-1.2 2.688-2.112l.288.432c.768 1.104 1.56 1.656 2.424 1.656 1.032 0 1.896-1.392 2.616-4.128l-1.968-1.152c-.336 1.824-.648 2.736-.912 2.736-.336 0-.696-.432-1.08-1.296 1.008-1.464 1.944-3.288 2.808-5.448l-1.896-1.272c-.528 1.44-1.104 2.712-1.752 3.864-.096-.432-.192-.912-.264-1.44-.144-.792-.24-1.776-.312-2.952h4.944v-2.064h-5.04c-.048-1.032-.048-2.184-.048-3.456h-2.256c0 1.224.024 2.376.072 3.456h-1.728l.84-1.296c-.696-.528-1.44-.984-2.208-1.392.12-.24.24-.504.36-.792l-1.704-.672c-.552 1.368-1.392 2.472-2.52 3.336l.888.816h-4.512c.408-.384.792-.84 1.176-1.32.528.312 1.056.696 1.584 1.176l1.008-1.512c-.528-.384-1.128-.744-1.752-1.056.144-.288.288-.576.432-.912l-1.68-.696c-.576 1.464-1.488 2.64-2.712 3.528l.864.792H85.56v2.064h4.32v.936h-3.264v1.608h3.264v.792h-2.976v1.512h2.976v.864h-3.408v1.632h3.408v1.08c-1.272.048-2.64.072-4.08.12l.312 2.04c5.352-.24 9.288-.504 11.784-.84l1.008 1.368zm5.4-13.344l1.392-1.416c-.648-.72-1.44-1.416-2.352-2.136l-1.392 1.32c1.008.792 1.776 1.536 2.352 2.232zm-7.272.168h-2.856c.384-.36.744-.792 1.104-1.272.576.336 1.152.768 1.752 1.272zM98.592 179v-.792c-1.032.12-2.208.24-3.552.36v-1.104h3.528v-1.608H95.04v-.72h3.096v-1.512H95.04v-.792h3.384v-1.584H95.04v-.816h4.272c.12 1.704.312 3.144.576 4.344.192.84.432 1.608.672 2.328-.6.72-1.248 1.368-1.968 1.896zm-6.648-.24v-8.328h1.032v8.28l-1.032.048z" transform="translate(0 -1)"/>
        <path fill="#6CB37B" fill-rule="nonzero" d="M52.921 225l9.897-22.746v-2.848h-18.07v4.114h12.726L47.56 225h5.361zm16.519 2.197l9.422-27.79h-3.78l-9.421 27.79h3.779zM100.18 225v-4.096H89.176l5.818-6.134c1.594-1.747 2.719-3.276 3.375-4.588.656-1.313.985-2.602.985-3.868 0-2.308-.73-4.095-2.189-5.36-1.459-1.267-3.507-1.9-6.144-1.9-1.722 0-3.263.367-4.623 1.1-1.359.732-2.41 1.742-3.155 3.032-.744 1.289-1.116 2.712-1.116 4.271h5.098c0-1.289.33-2.33.993-3.12.662-.791 1.567-1.187 2.716-1.187 1.066 0 1.886.326 2.46.976.575.65.862 1.544.862 2.68 0 .833-.273 1.712-.818 2.637-.544.926-1.385 2.01-2.522 3.252l-8.28 8.825V225h17.544zm13.267.352c2.66 0 4.763-.66 6.31-1.978 1.547-1.318 2.32-3.114 2.32-5.388 0-1.418-.363-2.651-1.09-3.7-.726-1.049-1.71-1.872-2.952-2.47 1.09-.574 1.945-1.341 2.566-2.302.621-.961.932-2.063.932-3.305 0-2.203-.73-3.946-2.189-5.23-1.459-1.283-3.43-1.924-5.915-1.924-2.496 0-4.47.647-5.924 1.942-1.453 1.295-2.18 3.032-2.18 5.212 0 1.242.308 2.344.923 3.305.616.96 1.468 1.728 2.558 2.302-1.23.586-2.209 1.407-2.935 2.461-.727 1.055-1.09 2.291-1.09 3.71 0 2.261.779 4.054 2.338 5.378 1.558 1.324 3.668 1.987 6.328 1.987zm0-15.504c-.961 0-1.705-.31-2.233-.932-.527-.621-.79-1.441-.79-2.46 0-1.032.263-1.84.79-2.427.528-.586 1.266-.879 2.215-.879.961 0 1.705.302 2.233.906.527.603.79 1.403.79 2.4 0 1.019-.26 1.839-.782 2.46-.521.621-1.262.932-2.223.932zm0 11.408c-1.125 0-2.004-.334-2.637-1.002-.633-.668-.95-1.547-.95-2.637 0-1.125.323-2.018.968-2.68.644-.663 1.505-.994 2.584-.994 1.09 0 1.957.334 2.601 1.002.645.668.967 1.559.967 2.672 0 1.137-.314 2.028-.94 2.672-.627.645-1.492.967-2.593.967zM241.958 225.352c2.66 0 4.764-.66 6.31-1.978 1.547-1.318 2.32-3.114 2.32-5.388 0-1.418-.362-2.651-1.089-3.7-.727-1.049-1.71-1.872-2.953-2.47 1.09-.574 1.945-1.341 2.566-2.302.621-.961.932-2.063.932-3.305 0-2.203-.73-3.946-2.189-5.23-1.459-1.283-3.43-1.924-5.915-1.924-2.496 0-4.47.647-5.923 1.942-1.454 1.295-2.18 3.032-2.18 5.212 0 1.242.308 2.344.923 3.305.615.96 1.468 1.728 2.557 2.302-1.23.586-2.209 1.407-2.935 2.461-.727 1.055-1.09 2.291-1.09 3.71 0 2.261.78 4.054 2.338 5.378 1.558 1.324 3.668 1.987 6.328 1.987zm0-15.504c-.96 0-1.705-.31-2.232-.932-.528-.621-.791-1.441-.791-2.46 0-1.032.263-1.84.79-2.427.528-.586 1.266-.879 2.215-.879.961 0 1.706.302 2.233.906.527.603.79 1.403.79 2.4 0 1.019-.26 1.839-.781 2.46-.522.621-1.263.932-2.224.932zm0 11.408c-1.125 0-2.004-.334-2.637-1.002-.633-.668-.949-1.547-.949-2.637 0-1.125.322-2.018.967-2.68.644-.663 1.506-.994 2.584-.994 1.09 0 1.957.334 2.601 1.002.645.668.967 1.559.967 2.672 0 1.137-.313 2.028-.94 2.672-.627.645-1.491.967-2.593.967zm13.87 5.941l9.421-27.79h-3.78l-9.421 27.79h3.78zM279.803 225v-25.629h-.545l-10.6 3.797v4.13l6.065-1.88V225h5.08z" transform="translate(0 -1)"/>
        <path fill="#0E6DA0" fill-rule="nonzero" d="M212.772 181.304V167.84h6.984v-7.992h-9.48v21.456h2.496zm15.384-.096c1.68 0 2.544-.912 2.544-2.688v-18.672h-9.624v7.944h7.128v9.984c0 .816-.312 1.248-.936 1.248-.672 0-1.416-.048-2.232-.12l.6 2.208c.84.048 1.68.096 2.52.096zm-10.848-18.168h-4.536v-1.272h4.536v1.272zm10.896 0h-4.68v-1.224h4.68v1.224zm-10.896 2.856h-4.536v-1.176h4.536v1.176zm10.896-.024h-4.68v-1.152h4.68v1.152zm-13.152 15.384c1.368-.624 2.352-1.536 2.952-2.688.432-.84.72-1.872.888-3.096h3v5.352h2.28v-5.352h2.784v-2.16h-2.784v-2.088h2.04v-2.112h-11.688v2.112h2.28v2.088H213.9v2.16h2.712c-.12.624-.288 1.176-.48 1.656-.408.864-1.176 1.584-2.304 2.16l1.224 1.968zm6.84-7.944h-2.856v-2.088h2.856v2.088zm14.152 8.352c1.296-1.224 2.4-2.64 3.312-4.272.768.864 1.44 1.68 2.016 2.448l1.656-1.968c-.672-.864-1.512-1.848-2.52-2.928 1.08-2.832 1.68-6.144 1.8-9.96v-1.368h-3.36c.192-1.32.384-2.736.576-4.272l-2.448-.24c-.192 1.536-.384 3.048-.624 4.512h-1.992v2.376h1.608c-.432 2.352-.936 4.536-1.464 6.552 1.104 1.056 2.112 2.064 3.048 3.024-.84 1.584-1.896 2.952-3.192 4.104l1.584 1.992zm18.048-11.688l2.304-1.128c-1.08-2.52-2.208-4.824-3.408-6.888l-2.136 1.032c.552.984 1.08 2.04 1.608 3.168-2.04.312-4.128.552-6.288.696 1.296-1.872 2.568-4.152 3.816-6.816l-2.4-.816c-2.136 4.944-3.768 7.536-4.872 7.776l.408 2.256c3.768-.24 7.2-.552 10.272-.984.216.528.456 1.08.696 1.704zm-15.384 3.144c-.432-.432-.912-.888-1.392-1.344.432-1.56.84-3.48 1.248-5.784h1.44c-.144 2.64-.576 5.016-1.296 7.128zm7.56 8.4v-1.296h6.24v1.296h2.4v-10.656h-11.016v10.656h2.376zm6.24-3.648h-6.24v-4.728h6.24v4.728zm9.76 3.336c1.56 0 2.352-.84 2.352-2.472v-6.456c.768-.336 1.536-.696 2.28-1.08v-2.4c-.768.408-1.512.792-2.28 1.128v-4.104h2.352v-2.376h-2.352v-4.128h-2.4v4.128h-2.448v2.376h2.448v5.016c-.936.312-1.872.576-2.832.792l.6 2.4c.744-.24 1.488-.504 2.232-.768v4.848c0 .624-.264.96-.768.96-.552 0-1.128-.072-1.728-.168l.528 2.304h2.016zm16.92-.072c1.296 0 2.16-1.656 2.616-4.968l-1.992-1.368c-.216 2.424-.456 3.672-.744 3.72-.528-.144-1.008-1.08-1.416-2.76-.288-1.128-.504-3.144-.624-6.072h3.864v-2.4h-3.936c-.048-1.464-.072-3.12-.072-4.992 1.344-.264 2.544-.528 3.576-.792l-1.44-2.112c-2.784.768-6.528 1.416-11.256 1.992v12.696c0 .816-.312 1.368-.936 1.656l.648 2.112c2.496-.72 4.704-1.392 6.576-2.064l-.408-2.16c-1.128.432-2.28.864-3.456 1.248v-5.184h4.536c.12 2.952.312 5.04.6 6.288.384 1.68.984 3.024 1.8 4.032.624.744 1.296 1.128 2.064 1.128zm-4.536-13.848h-4.464v-3.96c1.584-.192 3.048-.408 4.392-.624 0 1.632.024 3.168.072 4.584zm.672 13.8v-2.376h-7.632v2.376h7.632zm10.936.264c1.464-1.968 2.352-4.464 2.664-7.44h5.4v6.768h2.544v-6.768h5.712v3.336c0 .912-.384 1.392-1.104 1.392-.816 0-1.68-.048-2.64-.144l.672 2.448h2.76c1.896 0 2.856-.936 2.856-2.784v-18.12h-18.6v11.88c-.048 3.12-.768 5.688-2.184 7.704l1.92 1.728zm16.32-15.504h-5.712v-3.36h5.712v3.36zm-8.256 0h-5.28v-3.36h5.28v3.36zm0 5.76h-5.28v-3.456h5.28v3.456zm8.256 0h-5.712v-3.456h5.712v3.456z" transform="translate(0 -1)"/>
    </g>
</svg>
