<svg xmlns="http://www.w3.org/2000/svg" xmlns:xlink="http://www.w3.org/1999/xlink" width="312" height="275" viewBox="0 0 312 275">
    <defs>
        <path id="prefix__a" d="M0.259 0.275L30.361 0.275 30.361 30.863 0.259 30.863z"/>
        <path id="prefix__c" d="M0 274.827L311.427 274.827 311.427 0 0 0z"/>
    </defs>
    <g fill="none" fill-rule="evenodd">
        <path fill="#FDDD39" d="M311.4 160.35l-.059-56.437c-16.671-.24-30.122-13.799-30.14-30.53l-160.585.17c.018 16.888-13.66 30.595-30.549 30.613l.06 56.391c16.888-.017 30.595 13.66 30.612 30.55l160.586-.17c-.017-16.73 13.404-30.317 30.075-30.587"/>
        <path fill="#EE599C" d="M311.341 103.914l-.027-25.443c-.003-2.825-2.299-5.116-5.126-5.113l-24.986.026c.017 16.73 13.468 30.289 30.14 30.53"/>
        <g transform="translate(281.066 160.075)">
            <mask id="prefix__b" fill="#fff">
                <use xlink:href="#prefix__a"/>
            </mask>
            <path fill="#EE599C" d="M30.36 25.713L30.335.275C13.664.545.241 14.133.26 30.863l24.987-.026c2.826-.003 5.118-2.3 5.115-5.124" mask="url(#prefix__b)"/>
        </g>
        <path fill="#EE599C" d="M120.616 73.553l-25.463.026c-2.827.003-5.115 2.299-5.112 5.124l.026 25.463c16.89-.018 30.567-13.725 30.55-30.613M90.126 160.557l.027 25.462c.003 2.826 2.296 5.117 5.124 5.114l25.462-.027c-.017-16.89-13.724-30.567-30.613-30.549M153.977 158.123c-.01-1.687-.61-3.107-1.804-4.266-1.191-1.153-3.192-2.204-6.018-3.126-3.919-1.178-6.789-2.726-8.593-4.636-1.8-1.929-2.705-4.363-2.72-7.325-.01-3.02.857-5.495 2.61-7.44 1.749-1.941 4.153-3.097 7.23-3.474l-.021-6.048 4.112-.015.027 6.069c3.09.415 5.504 1.69 7.234 3.858 1.73 2.17 2.6 5.14 2.617 8.915l-5.078.021c-.01-2.608-.64-4.675-1.874-6.2-1.245-1.523-2.905-2.29-5.002-2.284-2.196.01-3.866.587-5.024 1.727-1.157 1.141-1.732 2.723-1.722 4.753.009 1.883.624 3.37 1.855 4.492 1.227 1.102 3.25 2.114 6.06 3.003 2.808.913 5.008 1.903 6.584 2.996 1.576 1.088 2.737 2.358 3.498 3.807.74 1.45 1.125 3.152 1.137 5.105.013 3.107-.91 5.62-2.773 7.518-1.862 1.902-4.473 3.039-7.843 3.407l.027 5.266-4.088.015-.026-5.266c-3.422-.308-6.11-1.514-8.061-3.632-1.95-2.122-2.933-5-2.946-8.636l5.108-.02c.006 2.558.688 4.52 2.036 5.902 1.348 1.378 3.257 2.056 5.723 2.045 2.411-.008 4.31-.605 5.684-1.77 1.373-1.163 2.062-2.75 2.051-4.76M191.295 157.37c-.005-2.245-.73-4.073-2.165-5.479-1.43-1.415-3.299-2.115-5.603-2.103-2.294.009-4.137.71-5.523 2.121-1.383 1.397-2.068 3.24-2.062 5.524.013 2.275.693 4.08 2.054 5.377 1.352 1.295 3.236 1.949 5.653 1.937 2.392-.008 4.266-.674 5.624-1.992 1.353-1.33 2.034-3.13 2.022-5.386m-7.78-25.562c-2.005.011-3.63.631-4.87 1.882-1.234 1.252-1.851 2.938-1.843 5.075.008 2.04.627 3.694 1.861 4.944 1.223 1.259 2.864 1.88 4.908 1.873 2.044-.008 3.677-.642 4.89-1.913 1.218-1.26 1.824-2.919 1.816-4.959-.007-2.048-.649-3.712-1.926-4.992-1.274-1.288-2.884-1.918-4.836-1.91m11.87 6.805c.008 2-.512 3.784-1.565 5.359-1.046 1.56-2.474 2.801-4.277 3.683 2.102.896 3.765 2.198 5.005 3.93 1.227 1.72 1.844 3.686 1.856 5.873.017 3.481-1.15 6.261-3.488 8.327-2.334 2.072-5.42 3.113-9.248 3.13-3.868.017-6.968-1.002-9.307-3.069-2.34-2.058-3.514-4.82-3.53-8.28-.01-2.177.583-4.143 1.762-5.891 1.18-1.758 2.819-3.09 4.914-3.989-1.793-.874-3.205-2.094-4.24-3.66-1.039-1.567-1.565-3.339-1.571-5.319-.016-3.392 1.063-6.083 3.225-8.078 2.167-2 5.023-3.001 8.578-3.018 3.53-.016 6.397.964 8.583 2.946 2.186 1.98 3.288 4.663 3.304 8.056M228.54 144.053c-.017-4.334-.637-7.486-1.86-9.455-1.224-1.973-3.151-2.955-5.784-2.944-2.617.009-4.518 1.007-5.703 2.974-1.188 1.977-1.795 5.007-1.809 9.094l.033 8.166c.019 4.353.657 7.56 1.93 9.621 1.267 2.061 3.179 3.093 5.738 3.082 2.524-.01 4.392-.99 5.606-2.951 1.221-1.95 1.849-5.03 1.885-9.225l-.036-8.362zm5.138 6.96c.021 5.98-.981 10.434-3.008 13.345-2.034 2.92-5.224 4.384-9.567 4.4-4.29.021-7.473-1.388-9.541-4.225-2.074-2.835-3.162-7.086-3.257-12.719l-.028-6.823c-.022-5.911.979-10.313 3.008-13.184 2.037-2.889 5.232-4.333 9.594-4.349 4.329-.019 7.516 1.352 9.57 4.118 2.051 2.756 3.12 7.023 3.198 12.809l.03 6.628zM265.946 143.9c-.018-4.333-.638-7.486-1.861-9.455-1.228-1.974-3.155-2.955-5.783-2.944-2.617.01-4.518 1.007-5.704 2.975-1.191 1.97-1.8 5.006-1.813 9.093l.037 8.167c.02 4.353.657 7.559 1.93 9.62 1.267 2.062 3.18 3.093 5.738 3.082 2.525-.009 4.393-.99 5.606-2.95 1.216-1.947 1.844-5.032 1.881-9.226l-.031-8.362zm5.138 6.96c.025 5.981-.976 10.431-3.013 13.345-2.03 2.92-5.22 4.384-9.562 4.4-4.289.017-7.473-1.392-9.546-4.226-2.07-2.833-3.157-7.085-3.251-12.722l-.025-6.822c-.025-5.913.975-10.31 3.003-13.18 2.037-2.89 5.228-4.334 9.595-4.35 4.324-.02 7.516 1.348 9.57 4.114 2.051 2.756 3.12 7.028 3.202 12.814l.027 6.628z"/>
        <path fill="#FFF" d="M215.136 93.921L203.575 92.253 198.396 81.784 193.237 92.264 181.681 93.956 190.052 102.099 188.091 113.612 198.423 108.169 208.768 113.59 206.78 102.082zM174.953 103.77L171.184 96.157 167.433 103.778 159.029 105.009 165.117 110.931 163.69 119.305 171.204 115.344 178.727 119.289 177.282 110.919 183.359 104.983zM237.834 104.926L229.426 103.712 225.659 96.1 221.907 103.72 213.503 104.952 219.592 110.874 218.164 119.248 225.679 115.288 233.202 119.232 231.757 110.862z"/>
        <path fill="#E7AD26" d="M111.347 177.845v23.433c0 3.633 2.947 6.58 6.58 6.58h7.128v-6.14c0-10.184-5.51-19.08-13.708-23.873m69.07 16.383c-1.152-1.402-3.218-1.604-4.616-.452 1.398-1.152 1.6-3.218.451-4.616-1.148-1.403-3.218-1.604-4.617-.455 1.399-1.15 1.604-3.215.452-4.618-.646-.788-1.586-1.196-2.536-1.196-.73 0-1.468.242-2.082.745l9.381-7.707c1.402-1.149 1.604-3.215.456-4.614-1.153-1.401-3.22-1.603-4.618-.455l-16.107 13.235c-1.494-1.707-4.081-1.934-5.843-.484-1.013.832-1.538 2.036-1.538 3.255 0 .899.29 1.805.877 2.572l-.749.613c-2.488 2.045-3.92 4.9-4.224 7.866-4.573-.412-9.27 1.313-12.482 5.068l-4.173 4.874h40.54l5.391-4.427 5.583-4.587c1.401-1.153 1.604-3.219.455-4.617"/>
        <mask id="prefix__d" fill="#fff">
            <use xlink:href="#prefix__c"/>
        </mask>
        <path fill="#FFF" d="M48.774 185.118L76.285 185.118 76.285 151.732 48.774 151.732zM97.646 134.492c3.264 0 5.91-2.646 5.91-5.91v-9.01c0-3.266-2.646-5.911-5.91-5.911-3.265 0-5.91 2.645-5.91 5.91v9.01c0 3.265 2.645 5.91 5.91 5.91" mask="url(#prefix__d)"/>
        <path fill="#D0D2D3" d="M97.646 131.708c3.264 0 5.91-2.647 5.91-5.91v2.783c0 3.265-2.646 5.91-5.91 5.91-3.265 0-5.91-2.645-5.91-5.91v-2.784c0 3.264 2.645 5.91 5.91 5.91" mask="url(#prefix__d)"/>
        <path fill="#FFF" d="M27.414 134.492c3.264 0 5.91-2.646 5.91-5.91v-9.01c0-3.266-2.646-5.911-5.91-5.911-3.265 0-5.91 2.645-5.91 5.91v9.01c0 3.265 2.645 5.91 5.91 5.91" mask="url(#prefix__d)"/>
        <path fill="#D0D2D3" d="M27.414 131.708c3.264 0 5.91-2.647 5.91-5.91v2.783c0 3.265-2.646 5.91-5.91 5.91-3.265 0-5.91-2.645-5.91-5.91v-2.784c0 3.264 2.645 5.91 5.91 5.91" mask="url(#prefix__d)"/>
        <path fill="#FFF" d="M97.13 111.308c-1.144-5.878-3.749-11.235-7.425-15.673-1.061-1.289-2.215-2.494-3.449-3.618-6.263-5.707-14.588-9.18-23.726-9.18-.406 0-.815.007-1.22.024-.138 0-.275.007-.408.014-9.091.412-17.278 4.263-23.305 10.29-5.366 5.366-9.011 12.46-10.032 20.376-.192 1.49-.291 3.01-.291 4.552v6.98c0 19.474 15.783 35.258 35.256 35.258 19.47 0 35.256-15.784 35.256-35.257v-6.981c0-1.498-.093-2.972-.275-4.418l-.381-2.367z" mask="url(#prefix__d)"/>
        <path fill="#D0D2D3" d="M62.53 154.762c19.47 0 35.256-15.783 35.256-35.256v5.568c0 19.473-15.786 35.256-35.256 35.256-19.473 0-35.256-15.783-35.256-35.256v-5.568c0 19.473 15.783 35.256 35.256 35.256" mask="url(#prefix__d)"/>
        <path fill="#E7AD26" d="M97.13 111.308h-3.367v16.896c0 1.102.85 2.061 1.952 2.091 1.14.032 2.07-.88 2.07-2.009v-12.155c0-1.63-.22-3.253-.655-4.823M27.917 111.308c-.427 1.481-.644 3.015-.644 4.557v12.421c0 1.11.966 2.01 2.16 2.01 1.19 0 2.156-.9 2.156-2.01v-16.978h-3.672z" mask="url(#prefix__d)"/>
        <path fill="#E7AD26" d="M61.31 82.86c3.566 5.567 12.406 17.598 26.722 26.06 3.446 2.034 6.61 3.587 9.479 4.755-.004-.003-.004-.01-.004-.014-.851-6.802-3.641-13.003-7.802-18.026-1.061-1.289-2.215-2.495-3.449-3.618-6.263-5.707-14.587-9.18-23.726-9.18-.406 0-.815.007-1.22.024" mask="url(#prefix__d)"/>
        <path fill="#FDDD39" d="M27.565 113.54c4.8 1.454 14.259 2.825 29.279-1.102 15.189-3.968 26.715-11.84 32.861-16.804-1.061-1.288-2.215-2.494-3.449-3.617-6.263-5.707-14.587-9.18-23.726-9.18-.543 0-1.09.01-1.629.038-9.09.412-17.277 4.263-23.304 10.289-5.366 5.367-9.01 12.461-10.032 20.377" mask="url(#prefix__d)"/>
        <path fill="#E7AD26" d="M56.844 91.824c6.65-1.737 12.6-4.223 17.702-6.886 4.37 1.585 8.339 4.008 11.71 7.079 1.234 1.123 2.388 2.329 3.45 3.618-6.147 4.964-17.673 12.835-32.862 16.803-15.02 3.927-24.479 2.556-29.279 1.103.948-7.35 4.16-13.99 8.911-19.198 5.108.231 11.84-.29 20.368-2.519" mask="url(#prefix__d)"/>
        <path fill="#FDDD39" d="M56.844 98.696c9.71-2.538 17.921-6.67 24.19-10.618 1.862 1.152 3.61 2.47 5.222 3.939 1.234 1.123 2.388 2.33 3.45 3.618-6.147 4.964-17.673 12.835-32.862 16.803-15.02 3.927-24.479 2.556-29.279 1.103.593-4.6 2.078-8.918 4.265-12.785 5.387.847 13.59.926 25.014-2.06" mask="url(#prefix__d)"/>
        <path fill="#E7AD26" d="M56.844 105.567c12.46-3.256 22.453-9.137 29.036-13.886.125.112.252.223.376.336 1.234 1.123 2.388 2.329 3.45 3.618-6.147 4.964-17.673 12.835-32.862 16.803-15.02 3.927-24.479 2.556-29.279 1.103.288-2.23.79-4.39 1.474-6.47 5.148 1.263 14.192 2.055 27.805-1.504M62.53 136.752c2.15 0 3.894-1.743 3.894-3.894v-5.123c0-2.151-1.744-3.895-3.894-3.895-2.15 0-3.895 1.744-3.895 3.895v5.123c0 2.15 1.744 3.894 3.895 3.894" mask="url(#prefix__d)"/>
        <path fill="#1BADE3" d="M125.054 198.048v11.697h-21.4v65.004c-1.369.052-2.745.078-4.125.078-4.019 0-7.986-.22-11.887-.654-2.533-.275-5.032-.638-7.506-1.093-13.535-2.463-26.186-7.462-37.446-14.486-4.653-2.903-9.068-6.15-13.205-9.711-.032-.022-.062-.052-.091-.078C16.636 237.821 6.489 223.89 0 208.072v-7.642h.01v-2.382c0-15.263 12.38-27.635 27.637-27.635H39.64l9.156 30.017h27.475l9.157-30.017h11.994c.271 0 .542.003.81.01 14.883.43 26.821 12.633 26.821 27.625" mask="url(#prefix__d)"/>
        <path fill="#0E6DA0" d="M21.409 241.187c1.79 1.893 3.652 3.72 5.575 5.48l-5.564-41.131-.011 35.65zM94.278 274.698c1.74.085 3.49.129 5.252.129 1.38 0 2.756-.026 4.125-.077v-69.214l-9.377 69.162z" mask="url(#prefix__d)"/>
        <path fill="#A62873" d="M47.931 197.575L55.564 222.594 55.564 222.597 55.704 223.058 57.419 228.683 58.684 232.828 60.398 238.453 61.664 242.599 62.541 245.474 63.612 241.961 65.157 236.896 67.253 230.021 68.795 224.956 69.501 222.644 77.143 197.575 62.541 185.119z" mask="url(#prefix__d)"/>
        <path fill="#E7AD26" d="M75.929 120.802c0 1.644 1.333 2.977 2.977 2.977s2.977-1.333 2.977-2.977c0-1.645-1.333-2.978-2.977-2.978s-2.977 1.334-2.977 2.978M43.176 120.802c0 1.644 1.333 2.977 2.977 2.977 1.645 0 2.978-1.333 2.978-2.977 0-1.645-1.333-2.978-2.978-2.978-1.644 0-2.977 1.334-2.977 2.978M62.53 147.718c3.79 0 7.58-1.443 10.465-4.328.57-.57.57-1.493 0-2.062-.57-.569-1.492-.569-2.062 0-4.633 4.634-12.173 4.634-16.807 0-.57-.569-1.492-.569-2.062 0-.569.57-.569 1.492 0 2.062 2.885 2.885 6.676 4.328 10.466 4.328M55.564 222.597L55.564 222.595 55.932 218.425 56.491 212.054 56.905 207.357 57.896 196.073 67.163 196.073 67.842 203.777 68.23 208.211 68.758 214.221 68.758 214.224 69.149 218.655 69.501 222.644 68.795 224.956 67.253 230.021 65.157 236.896 63.611 241.961 62.541 245.474 61.664 242.599 60.398 238.453 58.684 232.828 57.418 228.683 55.704 223.058z" mask="url(#prefix__d)"/>
        <path fill="#FDDD39" d="M56.491 212.055L68.23 208.211 67.841 203.777 56.904 207.358zM55.564 222.597L55.564 222.595 55.932 218.425 68.758 214.224 69.149 218.655 55.704 223.058zM57.418 228.683L58.684 232.828 67.253 230.021 68.796 224.957zM60.398 238.453L61.664 242.599 63.611 241.961 65.157 236.896zM59.361 200.433h6.337c3.575 0 6.042-3.579 4.77-6.92l-1.945-5.107c-.753-1.98-2.651-3.288-4.77-3.288h-2.447c-2.118 0-4.016 1.308-4.77 3.288l-1.945 5.108c-1.272 3.34 1.196 6.92 4.77 6.92" mask="url(#prefix__d)"/>
        <path fill="#EE599C" d="M39.641 170.411L39.641 170.411 48.773 165.265 62.529 185.118 47.929 197.576zM85.431 170.411L85.431 170.411 76.299 165.265 62.543 185.118 77.143 197.576z" mask="url(#prefix__d)"/>
        <path fill="#0E6DA0" d="M39.641 170.411l-7.564 24.107c-.274.874.181 1.808 1.038 2.13l5.87 2.209c1.478.556 1.494 2.64.026 3.218l-7.218 2.844c-1.092.431-1.444 1.804-.694 2.707l31.43 37.847-22.888-75.062zM85.43 170.411l7.565 24.107c.274.874-.182 1.808-1.037 2.13l-5.872 2.209c-1.477.556-1.493 2.64-.025 3.218l7.218 2.844c1.093.431 1.444 1.804.694 2.707l-31.43 37.847L85.43 170.41z" mask="url(#prefix__d)"/>
        <path fill="#D0D2D3" d="M48.787 161.474L62.53 176.49 62.543 176.49 76.285 161.474 76.299 165.265 62.543 185.118 62.53 185.118 48.773 165.265z" mask="url(#prefix__d)"/>
        <path fill="#0E6DA0" d="M30.516 232.16h9.15c1.584 0 2.868-1.285 2.868-2.87v-.677c0-1.584-1.284-2.869-2.869-2.869h-9.149c-1.584 0-2.869 1.285-2.869 2.869v.677c0 1.585 1.285 2.87 2.87 2.87" mask="url(#prefix__d)"/>
        <path fill="#1BADE3" d="M157.979 212.521l.018-.038c-.033.133-.07.264-.106.396-.037.133-.077.264-.118.397-.04.128-.084.26-.128.388-.044.132-.092.26-.14.39-.095.249-.194.492-.3.737-.052.11-.1.22-.151.33-.07.155-.147.305-.224.456-.025.048-.051.095-.077.14-.07.139-.143.278-.224.414-.114.198-.231.393-.352.587-.048.077-.095.15-.147.224-.191.29-.393.572-.606.852-.051.069-.106.135-.161.201-.11.14-.224.28-.341.419l-29.728 34.715c-2.83 3.307-6.93 5.13-11.15 5.13-1.317 0-2.65-.175-3.956-.542-5.502-1.542-9.608-6.13-10.534-11.766l-.63-3.865-5.425-33.152c-1.306-8 4.118-15.55 12.119-16.86 8.004-1.303 15.55 4.117 16.86 12.118l.954 5.854 9.19-10.732c5.27-6.158 14.537-6.874 20.696-1.6 4.396 3.761 6.012 9.556 4.66 14.807" mask="url(#prefix__d)"/>
        <path fill="#0E6DA0" d="M157.997 212.483c-.033.132-.07.264-.106.396-.037.133-.077.265-.118.397-.04.128-.084.26-.128.388-.044.133-.092.261-.14.39-.095.25-.194.491-.3.737-.052.11-.1.22-.151.33-.07.154-.147.305-.224.456-.025.048-.051.095-.077.14-.07.139-.143.278-.224.414-.114.198-.23.393-.352.587-.048.077-.096.15-.147.224-.19.29-.393.572-.605.851-.052.07-.107.136-.162.202-.11.14-.224.28-.341.419l-29.728 34.715c-2.83 3.306-6.93 5.13-11.15 5.13-1.317 0-2.65-.176-3.956-.543-5.502-1.54-9.608-6.129-10.533-11.765l-.631-3.865c.014-.272-.023-.521-.122-.75.26.133 6.434 12.663 11.48 9.36 3.403-2.224 21.745-33.214 35.875-33.398 7.979-.103 10.853-2.632 11.84-4.815M158.435 209.478l.006-.138-.035-.018s.013.056.029.156" mask="url(#prefix__d)"/>
        <path fill="#0099DC" d="M125.054 198.048v10.104l-1.6 1.593-13.876 13.821V186.095c0-11.34-10.676-15.426-11.345-15.671 14.883.429 26.821 12.632 26.821 27.624" mask="url(#prefix__d)"/>
        <path fill="#FFF" d="M142.062 209.33c2.958 3.601 8.275 4.122 11.877 1.164l9.817-8.064-10.713-13.04-9.817 8.064c-3.601 2.958-4.122 8.276-1.164 11.876" mask="url(#prefix__d)"/>
        <path fill="#D0D2D3" d="M147.709 202.898l1.759 2.141c4.114 5.009 11.51 5.733 16.517 1.619l10.684-8.777-16.657-20.277-10.684 8.777c-5.009 4.115-5.733 11.51-1.62 16.517" mask="url(#prefix__d)"/>
        <path fill="#FFF" d="M150.156 185.874l1.403 1.709c1.478 1.799 4.134 2.059 5.934.58 1.799-1.477 2.059-4.133.58-5.932l-1.402-1.709c-1.479-1.799-4.135-2.059-5.934-.581-1.8 1.478-2.06 4.134-.581 5.933M166.599 201.909c1.15 1.4 3.217 1.602 4.616.453l8.75-7.188c1.4-1.15 1.601-3.217.451-4.617s-3.216-1.602-4.616-.453l-8.749 7.188c-1.4 1.15-1.603 3.217-.452 4.617" mask="url(#prefix__d)"/>
        <path fill="#FFF" d="M162.434 196.84c1.15 1.4 3.217 1.602 4.617.452l8.749-7.187c1.4-1.15 1.602-3.217.452-4.617-1.15-1.4-3.217-1.602-4.616-.453l-8.75 7.188c-1.4 1.15-1.602 3.217-.452 4.617" mask="url(#prefix__d)"/>
        <path fill="#FFF" d="M158.27 191.77c1.15 1.4 3.217 1.603 4.616.453l8.75-7.187c1.4-1.15 1.602-3.217.452-4.617-1.15-1.4-3.217-1.603-4.617-.453l-8.749 7.188c-1.4 1.15-1.602 3.216-.452 4.617" mask="url(#prefix__d)"/>
        <path fill="#FFF" d="M154.105 186.701c1.15 1.4 3.217 1.603 4.617.453l18.13-14.894c1.4-1.15 1.602-3.216.452-4.616-1.15-1.4-3.217-1.603-4.617-.453l-18.13 14.893c-1.399 1.151-1.601 3.218-.452 4.617" mask="url(#prefix__d)"/>
        <path fill="#596273" d="M190.032 58.39c-.322 0-.575.262-.575.576 0 .314.253.573.575.573h12.04c.324 0 .575-.259.575-.573 0-.314-.251-.576-.576-.576h-12.04z" mask="url(#prefix__d)"/>
        <path fill="#F0CA67" d="M181.042 28.926c0-8.287 6.72-15.004 15.007-15.004 8.295 0 15.012 6.717 15.012 15.004 0 .494-.36 7.43-6.016 14.711-1.655 2.194-1.38 6.613-1.38 6.613h-15.276s.316-4.42-1.333-6.613c-5.662-7.289-6.014-14.217-6.014-14.711" mask="url(#prefix__d)"/>
        <path fill="#F4DA80" d="M196.048 50.25h-7.659s.315-4.42-1.334-6.613c-5.661-7.289-6.013-14.217-6.013-14.711 0-8.287 6.72-15.004 15.006-15.004M207.865 28.926h-1.315c0-5.793-4.708-10.498-10.502-10.498V17.11c6.522 0 11.817 5.3 11.817 11.815" mask="url(#prefix__d)"/>
        <path fill="#30363D" d="M199.328 51.425L198.031 51.206 200.594 35.693 201.891 35.912zM192.773 51.425L190.209 35.912 191.509 35.693 194.072 51.206z" mask="url(#prefix__d)"/>
        <path fill="#30363D" d="M201.157 37.877c-.533 0-.765-.523-.937-.905-.075-.16-.22-.494-.305-.494-.07.029-.171.29-.233.428-.15.387-.382.971-1.009.971-.373 0-.6-.376-.856-.813-.098-.16-.27-.443-.38-.554-.088.104-.223.329-.306.473-.275.46-.541.894-.951.894-.404 0-.664-.423-.924-.87-.092-.15-.238-.39-.327-.492-.104.106-.25.353-.349.515-.257.436-.505.847-.9.847-.44 0-.72-.472-.993-.93-.092-.154-.22-.373-.3-.458-.11.037-.187.197-.315.518-.147.366-.34.87-.881.87v-.702c.07-.027.168-.285.223-.424.16-.392.389-.97 1.019-.97.373 0 .597.371.856.807.098.163.273.448.376.56.092-.107.23-.334.313-.476.278-.463.535-.891.951-.891.404 0 .657.42.927.865.092.153.23.39.324.497.101-.11.251-.358.346-.515.257-.437.505-.847.896-.847.444 0 .725.47.991.931.095.15.233.37.306.458.107-.04.19-.198.318-.521.14-.372.346-.868.878-.868.535 0 .771.521.942.905.07.16.217.49.3.49v.701zM203.696 50.258v7.849c0 .534-.435.971-.976.971h-13.321c-.536 0-.973-.437-.973-.971v-7.849h15.27z" mask="url(#prefix__d)"/>
        <path fill="#103754" d="M203.998 51.018L188.105 51.018" mask="url(#prefix__d)"/>
        <path fill="#596273" d="M203.998 51.786h-15.893c-.423 0-.77-.344-.77-.768 0-.426.347-.77.77-.77h15.893c.429 0 .771.344.771.77 0 .424-.342.768-.77.768" mask="url(#prefix__d)"/>
        <path fill="#30363D" d="M203.998 53.58L188.105 53.58" mask="url(#prefix__d)"/>
        <path fill="#596273" d="M203.998 54.35h-15.893c-.423 0-.77-.348-.77-.77 0-.422.347-.769.77-.769h15.893c.429 0 .771.347.771.77 0 .421-.342.768-.77.768" mask="url(#prefix__d)"/>
        <path fill="#30363D" d="M203.998 56.142L188.105 56.142" mask="url(#prefix__d)"/>
        <path fill="#596273" d="M203.998 56.913h-15.893c-.423 0-.77-.34-.77-.771 0-.422.347-.77.77-.77h15.893c.429 0 .771.348.771.77 0 .431-.342.77-.77.77" mask="url(#prefix__d)"/>
        <path stroke="#F1FAFC" stroke-linecap="round" stroke-linejoin="round" stroke-width="1.703" d="M196.048 8.63L196.048.391M185.535 11.457L181.418 4.316M177.845 19.151L170.703 15.028M175.034 29.66L166.788 29.66M214.255 40.156L221.4 44.284M217.075 29.649L225.319 29.649M214.255 19.14L221.394 15.017M206.556 11.449L210.679 4.308M196.048 8.63L196.048.391M196.058 8.63L196.058.391M206.562 11.457L210.685 4.316M214.255 19.151L221.4 15.028M217.075 29.66L225.319 29.66M177.845 40.156L170.703 44.284M175.034 29.649L166.788 29.649M177.854 19.14L170.709 15.017M185.55 11.449L181.427 4.308M196.058 8.63L196.058.391" mask="url(#prefix__d)"/>
    </g>
</svg>
