<?xml version="1.0" encoding="UTF-8"?>
<svg width="437px" height="255px" viewBox="0 0 437 255" version="1.1" xmlns="http://www.w3.org/2000/svg" xmlns:xlink="http://www.w3.org/1999/xlink">
    <!-- Generator: Sketch 61.1 (89650) - https://sketch.com -->
    <title>Group 12 outline</title>
    <desc>Created with Sketch.</desc>
    <defs>
        <polygon id="path-1" points="0 249.609 340.676 249.609 340.676 0 0 0"></polygon>
        <polygon id="path-3" points="0 0.2104 213 0.2104 213 73.2104 0 73.2104"></polygon>
    </defs>
    <g id="懶人包" stroke="none" stroke-width="1" fill="none" fill-rule="evenodd">
        <g id="小資振興_懶人包_安心旅遊" transform="translate(-415.000000, -853.000000)">
            <g id="Group-12-outline" transform="translate(415.000000, 852.000000)">
                <g id="Group-20" transform="translate(0.000000, 6.000000)">
                    <g id="Group-8">
                        <g id="Group-118">
                            <path d="M231.6728,115.7299 L231.6728,135.8339 C229.0298,138.9069 226.1578,141.7789 223.0848,144.4239 C223.0628,144.4439 223.0388,144.4639 223.0168,144.4849 C219.8918,147.1669 216.5578,149.6209 213.0458,151.8119 C212.2288,152.3229 211.3998,152.8199 210.5618,153.3009 C210.5588,153.3039 210.5558,153.3039 210.5498,153.3069 C208.9998,154.1999 207.4198,155.0429 205.8068,155.8319 L205.8048,155.8319 C199.2418,159.0479 192.1878,161.4009 184.7788,162.7499 C182.9108,163.0909 181.0238,163.3669 179.1118,163.5759 C178.3748,163.6559 177.6378,163.7279 176.8948,163.7889 C174.7228,163.9689 172.5248,164.0609 170.3068,164.0669 L169.9568,164.0669 C167.7528,164.0609 165.5698,163.9689 163.4118,163.7919 C163.4028,163.7919 163.3928,163.7919 163.3808,163.7889 C162.6378,163.7279 161.9008,163.6559 161.1628,163.5759 C159.2298,163.3639 157.3188,163.0849 155.4278,162.7379 C148.0418,161.3859 141.0068,159.0369 134.4678,155.8319 C132.8528,155.0409 131.2668,154.1969 129.7138,153.3039 C128.8758,152.8199 128.0468,152.3229 127.2298,151.8119 C123.6918,149.6059 120.3378,147.1319 117.1908,144.4239 C114.1168,141.7789 111.2448,138.9069 108.6028,135.8339 L108.6028,113.3799 C108.6028,107.4579 110.4958,101.9809 113.7098,97.5129 C118.6478,90.6529 126.7038,86.1829 135.8028,86.1829 L204.4638,86.1829 C205.8098,86.1829 207.1328,86.2809 208.4268,86.4699 C215.8808,87.5569 222.3538,91.6689 226.5598,97.5219 C229.7708,101.9839 231.6578,107.4599 231.6578,113.3799 L231.6578,115.7299 L231.6728,115.7299 Z" id="Fill-1" fill="#FDDD39"></path>
                            <path d="M210.5498,130.1244 L210.5498,153.3074 C208.9998,154.1994 207.4198,155.0434 205.8068,155.8314 L205.8048,155.8314 C199.2418,159.0484 192.1878,161.4004 184.7788,162.7494 C182.9108,163.0914 181.0238,163.3664 179.1128,163.5754 C178.3748,163.6554 177.6378,163.7284 176.8948,163.7884 L171.8298,163.9974 L170.3068,164.0614 L170.3068,164.0744 L170.2838,164.0744 L170.1378,164.0664 L170.1348,164.0664 L169.9828,164.0744 L169.9568,164.0744 L169.9568,164.0614 L168.4458,164.0004 L163.4118,163.7914 C163.4038,163.7914 163.3928,163.7914 163.3808,163.7884 C162.6378,163.7284 161.9008,163.6554 161.1628,163.5754 C159.2298,163.3634 157.3188,163.0854 155.4278,162.7374 C148.0418,161.3864 141.0068,159.0364 134.4678,155.8314 C132.8528,155.0404 131.2668,154.1964 129.7138,153.3044 L129.7138,120.7794 C132.7668,103.5074 142.4928,92.7224 156.5928,86.1834 L170.1348,112.4244 L183.6748,86.1834 C190.3628,89.2844 196.0638,93.3414 200.5358,98.5924 C199.6238,101.3724 199.1278,104.3424 199.1278,107.4264 C199.1278,116.7254 203.6178,124.9744 210.5498,130.1244" id="Fill-3" fill="#FDDD39"></path>
                            <polygon id="Fill-5" fill="#FFFFFF" points="156.5908 86.182 144.0048 86.182 154.3898 125.124 170.1328 112.426"></polygon>
                            <polygon id="Fill-7" fill="#FFFFFF" points="183.6796 86.182 196.2666 86.182 185.8806 125.124 170.1376 112.426"></polygon>
                            <polygon id="Fill-9" fill="#FFFFFF" points="171.831 112.4252 171.831 163.9962 170.307 164.0612 170.307 164.0732 170.283 164.0732 170.135 164.0682 169.982 164.0732 169.958 164.0732 169.958 164.0612 168.444 163.9992 168.444 112.4252"></polygon>
                            <polygon id="Fill-11" fill="#D0D2D3" points="183.6796 86.182 173.9696 115.518 170.1376 112.426"></polygon>
                            <polygon id="Fill-13" fill="#D0D2D3" points="156.5908 86.182 166.3008 115.518 170.1328 112.426"></polygon>
                            <path d="M129.7138,120.7797 L129.7138,153.3037 C128.8758,152.8197 128.0468,152.3227 127.2298,151.8117 C123.6918,149.6057 120.3378,147.1327 117.1908,144.4247 C114.1168,141.7787 111.2448,138.9067 108.6028,135.8337 L108.6028,120.7797 L129.7138,120.7797 Z" id="Fill-15" fill="#FFFFFF"></path>
                            <path d="M210.5615,153.3012 L210.5495,127.8642 L210.5465,120.7802 L205.8065,155.8312 C207.4195,155.0432 208.9995,154.1992 210.5495,153.3072 L210.5615,153.3012 Z" id="Fill-17" fill="#E7AD26"></path>
                            <path d="M134.4677,155.8315 C132.8527,155.0405 131.2667,154.1965 129.7137,153.3045 L129.7137,120.7795 L134.4677,155.8315 Z" id="Fill-19" fill="#E7AD26"></path>
                            <path d="M135.5791,50.8354 L135.5791,50.8354 C132.3671,50.8354 129.7631,48.2314 129.7631,45.0184 L129.7631,36.1504 C129.7631,32.9394 132.3671,30.3344 135.5791,30.3344 C138.7921,30.3344 141.3961,32.9394 141.3961,36.1504 L141.3961,45.0184 C141.3961,48.2314 138.7921,50.8354 135.5791,50.8354" id="Fill-21" fill="#FFFFFF"></path>
                            <path d="M135.5791,48.0951 L135.5791,48.0951 C132.3671,48.0951 129.7631,45.4911 129.7631,42.2781 L129.7631,45.0181 C129.7631,48.2311 132.3671,50.8351 135.5791,50.8351 C138.7921,50.8351 141.3961,48.2311 141.3961,45.0181 L141.3961,42.2781 C141.3961,45.4911 138.7921,48.0951 135.5791,48.0951" id="Fill-23" fill="#D0D2D3"></path>
                            <path d="M204.6962,50.8354 L204.6962,50.8354 C201.4832,50.8354 198.8792,48.2314 198.8792,45.0184 L198.8792,36.1504 C198.8792,32.9394 201.4832,30.3344 204.6962,30.3344 C207.9082,30.3344 210.5122,32.9394 210.5122,36.1504 L210.5122,45.0184 C210.5122,48.2314 207.9082,50.8354 204.6962,50.8354" id="Fill-25" fill="#FFFFFF"></path>
                            <path d="M204.6962,48.0951 L204.6962,48.0951 C201.4832,48.0951 198.8792,45.4911 198.8792,42.2781 L198.8792,45.0181 C198.8792,48.2311 201.4832,50.8351 204.6962,50.8351 C207.9082,50.8351 210.5122,48.2311 210.5122,45.0181 L210.5122,42.2781 C210.5122,45.4911 207.9082,48.0951 204.6962,48.0951" id="Fill-27" fill="#D0D2D3"></path>
                            <path d="M156.6005,67.8012 L156.6005,86.1822 L156.5905,86.1822 L156.5935,86.1862 C163.4095,95.1222 176.8605,95.1202 183.6735,86.1822 L183.6745,86.1822 L183.6745,67.8012 L156.6005,67.8012 Z" id="Fill-29" fill="#FFFFFF"></path>
                            <path d="M156.5937,86.186 L156.5937,86.186 L170.1347,112.424 L183.6747,86.183 L183.6737,86.183 C176.8607,95.121 163.4087,95.123 156.5937,86.186" id="Fill-31" fill="#67B0D0"></path>
                            <path d="M136.0869,28.019 C137.2129,22.234 139.7759,16.963 143.3939,12.594 C144.4389,11.327 145.5739,10.14 146.7879,9.035 C152.9519,3.418 161.1449,0 170.1379,0 C170.5369,0 170.9399,0.007 171.3379,0.024 C171.4739,0.024 171.6079,0.031 171.7399,0.038 C180.6869,0.443 188.7429,4.234 194.6739,10.164 C199.9549,15.445 203.5419,22.427 204.5469,30.216 C204.7359,31.684 204.8339,33.178 204.8339,34.697 L204.8339,41.567 C204.8339,60.731 189.3019,76.263 170.1379,76.263 C150.9779,76.263 135.4409,60.731 135.4409,41.567 L135.4409,34.697 C135.4409,33.222 135.5329,31.772 135.7119,30.348 L136.0869,28.019 Z" id="Fill-33" fill="#FFFFFF"></path>
                            <path d="M170.1376,70.7826 C150.9776,70.7826 135.4416,55.2506 135.4416,36.0866 L135.4416,41.5666 C135.4416,60.7306 150.9776,76.2626 170.1376,76.2626 C189.3016,76.2626 204.8336,60.7306 204.8336,41.5666 L204.8336,36.0866 C204.8336,55.2506 189.3016,70.7826 170.1376,70.7826" id="Fill-35" fill="#D0D2D3"></path>
                            <path d="M136.0869,28.019 L139.3999,28.019 L139.3999,44.647 C139.3999,45.731 138.5639,46.675 137.4799,46.706 C136.3579,46.736 135.4409,45.839 135.4409,44.728 L135.4409,32.766 C135.4409,31.162 135.6589,29.565 136.0869,28.019" id="Fill-37" fill="#4B6084"></path>
                            <path d="M204.8339,32.5063 L204.8339,44.6573 C204.8339,45.6643 204.1109,46.5623 203.1119,46.6893 C201.9039,46.8433 200.8749,45.9053 200.8749,44.7283 L200.8749,28.0193 L204.1909,28.0193 C204.6169,29.4773 204.8339,30.9873 204.8339,32.5063" id="Fill-39" fill="#4B6084"></path>
                            <path d="M171.3378,0.0238 C167.8278,5.5018 159.1288,17.3408 145.0398,25.6698 C141.6498,27.6698 138.5348,29.1988 135.7118,30.3478 C135.7158,30.3448 135.7158,30.3378 135.7158,30.3358 C136.5538,23.6398 139.2988,17.5378 143.3938,12.5938 C144.4388,11.3268 145.5738,10.1398 146.7878,9.0348 C152.9518,3.4188 161.1448,0.0008 170.1378,0.0008 C170.5368,0.0008 170.9398,0.0068 171.3378,0.0238" id="Fill-41" fill="#4B6084"></path>
                            <path d="M204.5468,30.2162 C199.8228,31.6472 190.5158,32.9952 175.7338,29.1312 C160.7858,25.2262 149.4428,17.4802 143.3938,12.5942 C144.4388,11.3262 145.5738,10.1402 146.7878,9.0342 C152.9518,3.4182 161.1448,0.0002 170.1378,0.0002 C170.6718,0.0002 171.2098,0.0102 171.7398,0.0372 C180.6868,0.4432 188.7428,4.2332 194.6738,10.1632 C199.9548,15.4452 203.5418,22.4272 204.5468,30.2162" id="Fill-43" fill="#808F91"></path>
                            <path d="M175.7334,8.8451 C169.1874,7.1351 163.3344,4.6891 158.3124,2.0691 C154.0114,3.6271 150.1054,6.0121 146.7884,9.0341 C145.5744,10.1401 144.4384,11.3261 143.3934,12.5941 C149.4424,17.4801 160.7864,25.2261 175.7334,29.1311 C190.5154,32.9951 199.8234,31.6471 204.5464,30.2161 C203.6144,22.9841 200.4524,16.4491 195.7774,11.3241 C190.7514,11.5521 184.1254,11.0391 175.7334,8.8451" id="Fill-45" fill="#4B6084"></path>
                            <path d="M175.7334,15.6068 C166.1764,13.1108 158.0964,9.0448 151.9274,5.1588 C150.0944,6.2918 148.3744,7.5888 146.7884,9.0348 C145.5744,10.1398 144.4384,11.3268 143.3934,12.5938 C149.4424,17.4798 160.7864,25.2258 175.7334,29.1308 C190.5154,32.9958 199.8234,31.6468 204.5464,30.2158 C203.9624,25.6898 202.5034,21.4398 200.3494,17.6338 C195.0484,18.4688 186.9754,18.5458 175.7334,15.6068" id="Fill-47" fill="#808F91"></path>
                            <path d="M175.7334,22.3695 C163.4704,19.1655 153.6364,13.3785 147.1594,8.7045 C147.0354,8.8135 146.9104,8.9235 146.7884,9.0345 C145.5744,10.1405 144.4384,11.3265 143.3934,12.5945 C149.4424,17.4795 160.7864,25.2255 175.7334,29.1315 C190.5154,32.9955 199.8234,31.6465 204.5464,30.2165 C204.2634,28.0225 203.7694,25.8955 203.0964,23.8495 C198.0304,25.0925 189.1294,25.8715 175.7334,22.3695" id="Fill-49" fill="#4B6084"></path>
                            <path d="M170.1376,53.059 L170.1376,53.059 C168.0216,53.059 166.3056,51.343 166.3056,49.227 L166.3056,44.185 C166.3056,42.069 168.0216,40.353 170.1376,40.353 C172.2536,40.353 173.9696,42.069 173.9696,44.185 L173.9696,49.227 C173.9696,51.343 172.2536,53.059 170.1376,53.059" id="Fill-51" fill="#A62873"></path>
                            <path d="M156.9521,37.3627 C156.9521,38.9807 155.6401,40.2927 154.0211,40.2927 C152.4031,40.2927 151.0911,38.9807 151.0911,37.3627 C151.0911,35.7447 152.4031,34.4317 154.0211,34.4317 C155.6401,34.4317 156.9521,35.7447 156.9521,37.3627" id="Fill-53" fill="#A62873"></path>
                            <path d="M189.1845,37.3627 C189.1845,38.9807 187.8725,40.2927 186.2535,40.2927 C184.6355,40.2927 183.3245,38.9807 183.3245,37.3627 C183.3245,35.7447 184.6355,34.4317 186.2535,34.4317 C187.8725,34.4317 189.1845,35.7447 189.1845,37.3627" id="Fill-55" fill="#A62873"></path>
                            <path d="M170.1376,63.3197 C166.3936,63.3197 162.8716,61.8597 160.2206,59.2097 C159.8716,58.8597 159.8716,58.2947 160.2206,57.9447 C160.5706,57.5957 161.1366,57.5957 161.4856,57.9447 C163.7976,60.2577 166.8706,61.5327 170.1376,61.5327 C173.4046,61.5327 176.4766,60.2577 178.7896,57.9447 C179.1396,57.5957 179.7046,57.5957 180.0536,57.9447 C180.4036,58.2947 180.4036,58.8597 180.0536,59.2097 C177.4036,61.8597 173.8816,63.3197 170.1376,63.3197" id="Fill-57" fill="#A62873"></path>
                            <polygon id="Fill-59" fill="#EE599C" points="170.1376 160.017 170.1216 160.035 170.1276 160.054 170.1386 160.018"></polygon>
                            <path d="M115.4716,118.1244 L115.4716,120.4154 C115.4716,122.8284 117.4276,124.7844 119.8406,124.7844 C122.2536,124.7844 124.2096,122.8284 124.2096,120.4154 L124.2096,118.1244 C124.2096,115.7114 122.2536,113.7554 119.8406,113.7554 C117.4276,113.7554 115.4716,115.7114 115.4716,118.1244" id="Fill-61" fill="#FFFFFF"></path>
                            <path d="M225.4316,118.1244 L225.4316,120.4154 C225.4316,122.8284 223.4756,124.7844 221.0626,124.7844 C218.6496,124.7844 216.6936,122.8284 216.6936,120.4154 L216.6936,118.1244 C216.6936,115.7114 218.6496,113.7554 221.0626,113.7554 C223.4756,113.7554 225.4316,115.7114 225.4316,118.1244" id="Fill-63" fill="#FFFFFF"></path>
                            <path d="M165.9814,120.683 L165.9814,249.129 C165.8924,249.293 165.8074,249.452 165.7154,249.609 L0.2654,249.609 C0.1734,249.452 0.0884,249.293 0.0004,249.129 L0.0004,120.683 L165.9814,120.683 Z" id="Fill-65" fill="#728FB4"></path>
                            <polygon id="Fill-67" fill="#F8F6DE" points="158.5136 128.2875 158.5136 242.9965 7.4676 242.9965 7.4676 127.2955"></polygon>
                            <path d="M340.6757,120.683 L340.6757,249.129 C340.5867,249.293 340.5027,249.452 340.4097,249.609 L174.9607,249.609 C174.8677,249.452 174.7827,249.293 174.6957,249.129 L174.6957,120.683 L340.6757,120.683 Z" id="Fill-69" fill="#728FB4"></path>
                            <polygon id="Fill-71" fill="#F8F6DE" points="333.2079 128.2875 333.2079 242.9965 182.1629 242.9965 182.1629 127.2955"></polygon>
                            <path d="M116.4414,116.1108 L116.4414,116.1108 C114.5634,116.1108 113.0414,117.6328 113.0414,119.5108 L113.0414,117.7648 C113.0414,115.8878 111.5194,114.3658 109.6414,114.3658 C107.7644,114.3658 106.2424,115.8878 106.2424,117.7648 L106.2424,119.5108 C106.2424,117.6328 104.7194,116.1108 102.8424,116.1108 C100.9644,116.1108 99.4434,117.6328 99.4434,119.5108 L99.4434,121.2568 C99.4434,119.3788 97.9204,117.8558 96.0434,117.8558 C94.1664,117.8558 92.6434,119.3788 92.6434,121.2568 L92.6434,129.4998 C92.6434,131.3778 94.1664,132.8988 96.0434,132.8988 C97.9204,132.8988 99.4434,131.3778 99.4434,129.4998 C99.4434,131.3778 100.9644,132.8988 102.8424,132.8988 C104.7194,132.8988 106.2424,131.3778 106.2424,129.4998 C106.2424,131.3778 107.7644,132.8988 109.6414,132.8988 C111.5194,132.8988 113.0414,131.3778 113.0414,129.4998 C113.0414,131.3778 114.5634,132.8988 116.4414,132.8988 C118.3184,132.8988 119.8404,131.3778 119.8404,129.4998 L119.8404,119.5108 C119.8404,117.6328 118.3184,116.1108 116.4414,116.1108" id="Fill-73" fill="#D0D2D3"></path>
                            <path d="M244.8603,117.8559 C242.9823,117.8559 241.4603,119.3779 241.4603,121.2559 L241.4603,119.5109 C241.4603,117.6329 239.9383,116.1109 238.0603,116.1109 C236.1823,116.1109 234.6613,117.6329 234.6613,119.5109 L234.6613,117.7649 C234.6613,115.8879 233.1383,114.3659 231.2613,114.3659 C229.3833,114.3659 227.8613,115.8879 227.8613,117.7649 L227.8613,119.5109 C227.8613,117.6329 226.3393,116.1109 224.4623,116.1109 C222.5853,116.1109 221.0623,117.6329 221.0623,119.5109 L221.0623,129.4999 C221.0623,131.3769 222.5853,132.8989 224.4623,132.8989 C226.3393,132.8989 227.8613,131.3769 227.8613,129.4999 C227.8613,131.3769 229.3833,132.8989 231.2613,132.8989 C233.1383,132.8989 234.6613,131.3769 234.6613,129.4999 C234.6613,131.3769 236.1823,132.8989 238.0603,132.8989 C239.9383,132.8989 241.4603,131.3769 241.4603,129.4999 C241.4603,131.3769 242.9823,132.8989 244.8603,132.8989 C246.7373,132.8989 248.2593,131.3769 248.2593,129.4999 L248.2593,121.2559 C248.2593,119.3779 246.7373,117.8559 244.8603,117.8559" id="Fill-75" fill="#D0D2D3"></path>
                            <path d="M116.4414,128.5365 L116.4414,128.5365 C118.3184,128.5365 119.8404,127.0145 119.8404,125.1375 L119.8404,115.1475 C119.8404,113.2695 118.3184,111.7485 116.4414,111.7485 C114.5634,111.7485 113.0414,113.2695 113.0414,115.1475 L113.0414,125.1375 C113.0414,127.0145 114.5634,128.5365 116.4414,128.5365" id="Fill-77" fill="#FFFFFF"></path>
                            <path d="M109.6416,128.5365 L109.6416,128.5365 C111.5196,128.5365 113.0406,127.0145 113.0406,125.1375 L113.0406,113.4025 C113.0406,111.5245 111.5196,110.0035 109.6416,110.0035 C107.7636,110.0035 106.2426,111.5245 106.2426,113.4025 L106.2426,125.1375 C106.2426,127.0145 107.7636,128.5365 109.6416,128.5365" id="Fill-79" fill="#FFFFFF"></path>
                            <path d="M102.8427,128.5365 L102.8427,128.5365 C104.7197,128.5365 106.2417,127.0145 106.2417,125.1375 L106.2417,115.1475 C106.2417,113.2695 104.7197,111.7485 102.8427,111.7485 C100.9647,111.7485 99.4427,113.2695 99.4427,115.1475 L99.4427,125.1375 C99.4427,127.0145 100.9647,128.5365 102.8427,128.5365" id="Fill-81" fill="#FFFFFF"></path>
                            <path d="M96.0429,128.5365 L96.0429,128.5365 C97.9209,128.5365 99.4419,127.0145 99.4419,125.1375 L99.4419,116.8925 C99.4419,115.0155 97.9209,113.4935 96.0429,113.4935 C94.1659,113.4935 92.6439,115.0155 92.6439,116.8925 L92.6439,125.1375 C92.6439,127.0145 94.1659,128.5365 96.0429,128.5365" id="Fill-83" fill="#FFFFFF"></path>
                            <path d="M224.4619,128.5365 L224.4619,128.5365 C222.5839,128.5365 221.0629,127.0145 221.0629,125.1375 L221.0629,115.1475 C221.0629,113.2695 222.5839,111.7485 224.4619,111.7485 C226.3399,111.7485 227.8609,113.2695 227.8609,115.1475 L227.8609,125.1375 C227.8609,127.0145 226.3399,128.5365 224.4619,128.5365" id="Fill-85" fill="#FFFFFF"></path>
                            <path d="M231.2617,128.5365 L231.2607,128.5365 C229.3837,128.5365 227.8617,127.0145 227.8617,125.1375 L227.8617,113.4025 C227.8617,111.5245 229.3837,110.0035 231.2607,110.0035 L231.2617,110.0035 C233.1387,110.0035 234.6607,111.5245 234.6607,113.4025 L234.6607,125.1375 C234.6607,127.0145 233.1387,128.5365 231.2617,128.5365" id="Fill-87" fill="#FFFFFF"></path>
                            <path d="M238.0605,128.5365 L238.0605,128.5365 C236.1825,128.5365 234.6615,127.0145 234.6615,125.1375 L234.6615,115.1475 C234.6615,113.2695 236.1825,111.7485 238.0605,111.7485 C239.9385,111.7485 241.4595,113.2695 241.4595,115.1475 L241.4595,125.1375 C241.4595,127.0145 239.9385,128.5365 238.0605,128.5365" id="Fill-89" fill="#FFFFFF"></path>
                            <path d="M244.8603,128.5365 L244.8593,128.5365 C242.9823,128.5365 241.4603,127.0145 241.4603,125.1375 L241.4603,116.8925 C241.4603,115.0155 242.9823,113.4935 244.8593,113.4935 L244.8603,113.4935 C246.7373,113.4935 248.2593,115.0155 248.2593,116.8925 L248.2593,125.1375 C248.2593,127.0145 246.7373,128.5365 244.8603,128.5365" id="Fill-91" fill="#FFFFFF"></path>
                            <path d="M97.2978,41.5844 L97.2978,85.3974 C97.2978,87.3344 96.4558,89.0754 95.1168,90.2744 C93.9608,91.3094 92.4288,91.9414 90.7538,91.9414 L49.8488,91.9414 C46.2348,91.9414 43.3038,89.0144 43.3038,85.3974 L43.3038,41.5844 C43.3038,37.9724 46.2348,35.0404 49.8488,35.0404 L90.7538,35.0404 C94.3658,35.0404 97.2978,37.9724 97.2978,41.5844" id="Fill-93" fill="#93BAD9"></path>
                            <path d="M90.7539,89.0248 L49.8489,89.0248 C46.2329,89.0248 43.3039,86.0948 43.3039,82.4808 L43.3039,85.3988 C43.3039,89.0128 46.2329,91.9428 49.8489,91.9428 L90.7539,91.9428 C94.3679,91.9428 97.2979,89.0128 97.2979,85.3988 L97.2979,82.4808 C97.2979,86.0948 94.3679,89.0248 90.7539,89.0248" id="Fill-95" fill="#821F22"></path>
                            <path d="M54.248,41.5102 L53.825,41.5102 C52.611,41.5102 51.627,40.5262 51.627,39.3122 L51.627,30.7712 C51.627,29.5572 52.611,28.5722 53.825,28.5722 L54.248,28.5722 C55.462,28.5722 56.446,29.5572 56.446,30.7712 L56.446,39.3122 C56.446,40.5262 55.462,41.5102 54.248,41.5102" id="Fill-97" fill="#A00B0F"></path>
                            <path d="M65.0908,41.5102 L64.6678,41.5102 C63.4538,41.5102 62.4698,40.5262 62.4698,39.3122 L62.4698,30.7712 C62.4698,29.5572 63.4538,28.5722 64.6678,28.5722 L65.0908,28.5722 C66.3048,28.5722 67.2888,29.5572 67.2888,30.7712 L67.2888,39.3122 C67.2888,40.5262 66.3048,41.5102 65.0908,41.5102" id="Fill-99" fill="#A00B0F"></path>
                            <path d="M75.9335,41.5102 L75.5105,41.5102 C74.2965,41.5102 73.3125,40.5262 73.3125,39.3122 L73.3125,30.7712 C73.3125,29.5572 74.2965,28.5722 75.5105,28.5722 L75.9335,28.5722 C77.1475,28.5722 78.1315,29.5572 78.1315,30.7712 L78.1315,39.3122 C78.1315,40.5262 77.1475,41.5102 75.9335,41.5102" id="Fill-101" fill="#A00B0F"></path>
                            <path d="M86.7763,41.5102 L86.3543,41.5102 C85.1393,41.5102 84.1553,40.5262 84.1553,39.3122 L84.1553,30.7712 C84.1553,29.5572 85.1393,28.5722 86.3543,28.5722 L86.7763,28.5722 C87.9903,28.5722 88.9743,29.5572 88.9743,30.7712 L88.9743,39.3122 C88.9743,40.5262 87.9903,41.5102 86.7763,41.5102" id="Fill-103" fill="#A00B0F"></path>
                            <mask id="mask-2" fill="white">
                                <use xlink:href="#path-1"></use>
                            </mask>
                            <g id="Clip-106"></g>
                            <polygon id="Fill-105" fill="#EFD081" mask="url(#mask-2)" points="50.834 56.317 61.193 56.317 61.193 45.959 50.834 45.959"></polygon>
                            <polygon id="Fill-107" fill="#FFFFFF" mask="url(#mask-2)" points="65.121 56.317 75.48 56.317 75.48 45.959 65.121 45.959"></polygon>
                            <polygon id="Fill-108" fill="#FFFFFF" mask="url(#mask-2)" points="79.409 56.317 89.769 56.317 89.769 45.959 79.409 45.959"></polygon>
                            <polygon id="Fill-109" fill="#FFFFFF" mask="url(#mask-2)" points="50.834 70.086 61.193 70.086 61.193 59.727 50.834 59.727"></polygon>
                            <polygon id="Fill-110" fill="#FFFFFF" mask="url(#mask-2)" points="65.121 70.086 75.48 70.086 75.48 59.727 65.121 59.727"></polygon>
                            <polygon id="Fill-111" fill="#FFFFFF" mask="url(#mask-2)" points="79.409 70.086 89.769 70.086 89.769 59.727 79.409 59.727"></polygon>
                            <polygon id="Fill-112" fill="#FFFFFF" mask="url(#mask-2)" points="50.834 83.855 61.193 83.855 61.193 73.497 50.834 73.497"></polygon>
                            <polygon id="Fill-113" fill="#EFD081" mask="url(#mask-2)" points="65.121 83.855 75.48 83.855 75.48 73.497 65.121 73.497"></polygon>
                            <polygon id="Fill-114" fill="#FFFFFF" mask="url(#mask-2)" points="79.409 83.855 89.769 83.855 89.769 73.497 79.409 73.497"></polygon>
                            <path d="M97.2978,49.351 L97.2978,85.398 C97.2978,87.334 96.4558,89.076 95.1168,90.275 C88.5848,86.086 84.2608,78.766 84.2608,70.437 C84.2608,61.205 89.5668,53.216 97.2978,49.351" id="Fill-115" fill="#B4B4B5" mask="url(#mask-2)"></path>
                            <path d="M127.2714,66.0717 C127.2714,76.8127 118.5644,85.5187 107.8234,85.5187 C97.0824,85.5187 88.3754,76.8127 88.3754,66.0717 C88.3754,55.3317 97.0824,46.6247 107.8234,46.6247 C118.5644,46.6247 127.2714,55.3317 127.2714,66.0717" id="Fill-116" fill="#728FB4" mask="url(#mask-2)"></path>
                            <path d="M113.6591,72.5356 C113.2111,72.5356 112.7591,72.3976 112.3701,72.1126 L106.5321,67.8306 C105.9721,67.4206 105.6411,66.7666 105.6411,66.0716 L105.6411,53.7746 C105.6411,52.5696 106.6181,51.5936 107.8231,51.5936 C109.0281,51.5936 110.0051,52.5696 110.0051,53.7746 L110.0051,64.9676 L114.9511,68.5956 C115.9231,69.3076 116.1321,70.6736 115.4191,71.6436 C114.9921,72.2266 114.3301,72.5356 113.6591,72.5356" id="Fill-117" fill="#FFFFFF" mask="url(#mask-2)"></path>
                        </g>
                        <path d="M54.3770579,161.952 L54.3770579,156.408 L45.3770579,156.408 C45.0410579,155.544 44.7290579,154.776 44.3930579,154.08 L41.5610579,154.56 C41.9210579,155.136 42.2570579,155.736 42.5450579,156.408 L33.6650579,156.408 L33.6650579,161.928 L36.2090579,161.928 L36.2090579,158.832 L51.8330579,158.832 L51.8330579,161.952 L54.3770579,161.952 Z M52.6490579,176.64 L54.3530579,174.432 C51.8810579,173.088 49.4810579,171.936 47.1530579,170.952 C48.2330579,169.56 49.2410579,167.736 50.1770579,165.456 L54.7370579,165.456 L54.7370579,163.056 L42.9530579,163.056 L44.4650579,160.176 L41.8730579,159.384 C41.2730579,160.584 40.6490579,161.808 39.9770579,163.056 L33.3770579,163.056 L33.3770579,165.456 L38.6570579,165.456 C37.9370579,166.752 37.1690579,168.024 36.3530579,169.32 C38.4890579,169.992 40.6250579,170.784 42.7370579,171.672 C40.3370579,173.352 37.1930579,174.192 33.3050579,174.192 L34.7690579,176.52 C39.1130579,176.4 42.6410579,175.176 45.3530579,172.824 C47.8010579,173.928 50.2250579,175.2 52.6490579,176.64 Z M44.6810579,169.944 C43.0490579,169.32 41.4410579,168.768 39.8810579,168.336 C40.4090579,167.496 40.9850579,166.536 41.6090579,165.456 L47.4170579,165.456 C46.6970579,167.184 45.7850579,168.696 44.6810579,169.944 Z M71.9365289,162.072 L74.0245289,160.632 C72.9205289,158.784 71.3125289,156.624 69.2245289,154.176 L67.1605289,155.472 C69.1525289,157.872 70.7365289,160.08 71.9365289,162.072 Z M73.2325289,175.728 C74.2405289,175.728 74.9845289,175.416 75.4645289,174.792 C75.9925289,174.144 76.3525289,172.104 76.5445289,168.672 L74.1685289,167.88 C74.0725289,170.496 73.9285289,172.056 73.6885289,172.56 C73.4965289,173.04 73.1845289,173.28 72.7525289,173.28 L68.6725289,173.28 C67.8805289,173.28 67.4965289,172.944 67.4965289,172.272 L67.4965289,159.312 L64.9765289,159.312 L64.9765289,172.824 C64.9765289,174.744 65.9365289,175.728 67.9045289,175.728 L73.2325289,175.728 Z M78.9925289,172.44 L81.2965289,171.384 C80.2645289,167.712 79.0645289,164.256 77.6965289,161.016 L75.2965289,161.808 C76.6405289,164.88 77.8885289,168.408 78.9925289,172.44 Z M60.9925289,173.352 C62.1685289,170.208 63.0805289,166.464 63.7285289,162.12 L61.3045289,161.616 C60.8245289,165.264 59.9845289,168.72 58.8085289,171.984 L60.9925289,173.352 Z M86.664,176.496 C88.344,173.952 89.256,170.04 89.4,164.76 L91.632,164.76 C91.584,169.464 91.512,172.224 91.392,172.992 C91.248,173.76 90.696,174.168 89.736,174.168 C89.424,174.168 89.04,174.12 88.608,174.048 L89.208,176.28 C89.64,176.352 89.952,176.4 90.144,176.4 C92.232,176.4 93.384,175.656 93.624,174.192 C93.864,172.704 93.984,168.792 93.984,162.456 L89.424,162.456 L89.424,159.84 L93.912,159.84 C93.624,160.128 93.36,160.392 93.072,160.656 L94.92,162.288 C95.88,161.424 96.768,160.392 97.56,159.144 L106.296,159.144 L106.296,156.768 L98.832,156.768 C99.072,156.216 99.312,155.616 99.552,154.992 L97.2,154.032 C96.504,156.216 95.472,158.064 94.128,159.6 L94.128,157.416 L91.152,157.416 C90.864,156.408 90.48,155.28 90,154.08 L87.624,154.752 C88.032,155.616 88.392,156.504 88.68,157.416 L85.296,157.416 L85.296,159.84 L87.072,159.84 L87.072,163.584 C87.048,168.72 86.256,172.44 84.696,174.768 L86.664,176.496 Z M95.808,176.304 C98.184,175.776 100.224,175.248 101.952,174.72 L101.496,172.368 C100.44,172.704 99.384,172.992 98.28,173.28 L98.28,163.968 C101.04,163.584 103.536,163.008 105.792,162.216 L104.496,160.056 C101.76,161.04 98.88,161.688 95.808,161.976 L95.808,172.824 C95.808,173.4 95.616,173.784 95.256,174 L95.808,176.304 Z M105.552,176.448 L107.28,174.432 C105.84,172.896 104.64,171.096 103.68,169.08 C104.976,168.384 106.104,167.568 107.064,166.656 L105.456,164.784 C104.712,165.624 103.824,166.344 102.792,166.968 C102.408,165.96 102.096,164.88 101.832,163.776 L99.84,164.856 C100.944,169.584 102.84,173.448 105.552,176.448 Z M128.223471,172.752 C129.639471,172.752 130.359471,172.032 130.359471,170.616 L130.359471,167.424 L132.855471,167.424 L132.855471,165.264 L130.359471,165.264 L130.359471,164.472 C131.055471,163.824 131.703471,163.152 132.327471,162.456 L132.327471,160.32 L126.351471,160.32 C126.639471,159.912 126.903471,159.456 127.167471,158.952 L132.759471,158.952 L132.759471,156.648 L128.079471,156.648 C128.271471,156.024 128.439471,155.328 128.583471,154.608 L126.279471,154.2 C125.943471,156 125.391471,157.56 124.599471,158.88 L124.599471,157.104 L122.655471,157.104 C122.439471,156.216 122.127471,155.256 121.719471,154.224 L119.367471,154.848 C119.655471,155.568 119.943471,156.336 120.207471,157.104 L117.471471,157.104 L117.471471,159.408 L118.983471,159.408 L118.983471,160.416 C118.959471,165.216 118.215471,168.72 116.727471,170.88 L118.455471,172.392 C119.871471,170.424 120.759471,167.568 121.095471,163.8 L122.391471,163.8 C122.343471,167.376 122.271471,169.464 122.151471,170.064 C122.031471,170.352 121.647471,170.52 121.023471,170.52 C120.711471,170.52 120.351471,170.472 119.919471,170.4 L120.471471,172.488 C120.903471,172.536 121.191471,172.584 121.383471,172.584 C123.087471,172.584 124.047471,172.08 124.263471,171.096 C124.455471,169.92 124.575471,166.776 124.575471,161.688 L121.215471,161.688 C121.215471,161.28 121.239471,160.848 121.239471,160.416 L121.239471,159.408 L124.239471,159.408 L123.783471,159.984 L123.783471,159.984 L125.199471,161.76 C125.559471,161.376 125.895471,160.968 126.231471,160.512 L126.231471,162.456 L129.711471,162.456 C129.279471,162.936 128.727471,163.536 128.055471,164.232 L128.055471,165.264 L125.247471,165.264 L125.247471,167.424 L128.055471,167.424 L128.055471,169.824 C128.055471,170.352 127.839471,170.616 127.407471,170.616 C126.879471,170.616 126.399471,170.592 125.967471,170.544 L126.543471,172.752 L128.223471,172.752 Z M115.239471,159.408 L116.847471,157.8 C115.863471,156.648 114.663471,155.52 113.223471,154.392 L111.591471,155.928 C113.151471,157.176 114.375471,158.352 115.239471,159.408 Z M112.647471,176.496 C113.679471,174.432 114.423471,173.4 114.879471,173.4 C115.071471,173.4 115.263471,173.472 115.431471,173.64 C116.247471,174.456 117.135471,175.08 118.143471,175.464 C118.959471,175.776 120.183471,175.968 121.815471,176.016 C123.423471,176.064 125.031471,176.112 126.663471,176.112 L132.543471,176.112 L133.119471,173.76 C130.335471,173.856 128.103471,173.928 126.375471,173.928 C124.695471,173.928 123.207471,173.904 121.911471,173.904 C120.615471,173.856 119.631471,173.712 118.935471,173.448 C118.263471,173.16 117.567471,172.656 116.799471,171.96 C116.607471,171.792 116.415471,171.624 116.223471,171.48 C116.607471,170.376 116.943471,168.96 117.231471,167.232 L117.231471,165.6 L114.519471,165.6 C115.479471,164.4 116.295471,163.224 116.991471,162.024 L116.991471,160.08 L111.231471,160.08 L111.231471,162.336 L114.279471,162.336 C113.559471,163.416 112.671471,164.568 111.615471,165.816 L111.615471,167.688 L114.903471,167.688 C114.663471,168.936 114.351471,170.088 113.943471,171.168 C112.935471,171.576 111.903471,172.8 110.847471,174.816 L112.647471,176.496 Z" id="安心旅遊" fill="#0E6DA0" fill-rule="nonzero"></path>
                        <path d="M28.7252736,213.408203 C30.4479299,213.408203 31.8541799,212.728516 32.9440236,211.369141 C34.0338674,210.009766 34.5787892,208.240234 34.5787892,206.060547 L34.5787892,206.060547 L30.8170705,206.042969 C30.8170705,206.933594 30.5973439,207.689453 30.1578908,208.310547 C29.7184377,208.931641 29.153008,209.242188 28.4616017,209.242188 C27.6764455,209.242188 26.8063283,208.788086 25.8512502,207.879883 C24.896172,206.97168 24.043633,206.341797 23.293633,205.990234 C22.543633,205.638672 21.7116017,205.462891 20.7975392,205.462891 C19.0397267,205.462891 17.630547,206.125 16.5700002,207.449219 C15.5094533,208.773438 14.9791799,210.525391 14.9791799,212.705078 L14.9791799,212.705078 L18.7584767,212.740234 C18.7584767,211.826172 18.9694142,211.076172 19.3912892,210.490234 C19.8131642,209.904297 20.3639455,209.611328 21.043633,209.611328 C21.8639455,209.611328 22.7604299,210.077148 23.7330861,211.008789 C24.7057424,211.94043 25.5641408,212.573242 26.3082814,212.907227 C27.052422,213.241211 27.8580861,213.408203 28.7252736,213.408203 Z M52.0997267,220 L52.0997267,194.371094 L51.5548048,194.371094 L40.9551954,198.167969 L40.9551954,202.298828 L47.0196486,200.417969 L47.0196486,220 L52.0997267,220 Z M70.5698829,220.351562 C73.3941016,220.351562 75.5386329,219.414062 77.0034766,217.539062 C78.4683204,215.664062 79.2007422,212.957031 79.2007422,209.417969 L79.2007422,209.417969 L79.2007422,204.707031 C79.165586,201.273438 78.4097266,198.639648 76.9331641,196.805664 C75.4566016,194.97168 73.3237891,194.054688 70.5347266,194.054688 C67.7456641,194.054688 65.6099219,194.980469 64.1275001,196.832031 C62.6450782,198.683594 61.9038672,201.396484 61.9038672,204.970703 L61.9038672,204.970703 L61.9038672,209.681641 C61.9390235,213.115234 62.6948829,215.751953 64.1714454,217.591797 C65.6480079,219.431641 67.7808204,220.351562 70.5698829,220.351562 Z M70.5698829,216.255859 C69.3159766,216.255859 68.4048438,215.749023 67.8364844,214.735352 C67.2681251,213.72168 66.9839454,212.171875 66.9839454,210.085938 L66.9839454,210.085938 L66.9839454,203.863281 C67.0191016,201.90625 67.3208594,200.467773 67.8892188,199.547852 C68.4575782,198.62793 69.3394141,198.167969 70.5347266,198.167969 C71.7651954,198.167969 72.6704688,198.651367 73.2505469,199.618164 C73.8306251,200.584961 74.1206641,202.128906 74.1206641,204.25 L74.1206641,204.25 L74.1206641,210.332031 C74.0972266,212.335938 73.8101172,213.824219 73.259336,214.796875 C72.7085547,215.769531 71.8120704,216.255859 70.5698829,216.255859 Z M85.9990234,222.197266 L95.4208984,194.40625 L91.6416016,194.40625 L82.2197266,222.197266 L85.9990234,222.197266 Z M107.28168,220.351562 C110.012148,220.351562 112.206484,219.666016 113.864687,218.294922 C115.522891,216.923828 116.351992,215.101562 116.351992,212.828125 C116.351992,211.421875 115.9975,210.203125 115.288516,209.171875 C114.579531,208.140625 113.504336,207.367188 112.06293,206.851562 C113.223086,206.324219 114.160586,205.568359 114.87543,204.583984 C115.590273,203.599609 115.947695,202.521484 115.947695,201.349609 C115.947695,199.076172 115.180117,197.291992 113.644961,195.99707 C112.109805,194.702148 109.988711,194.054688 107.28168,194.054688 C105.723086,194.054688 104.296328,194.353516 103.001406,194.951172 C101.706484,195.548828 100.698672,196.37793 99.9779687,197.438477 C99.2572656,198.499023 98.896914,199.697266 98.896914,201.033203 L98.896914,201.033203 L103.976992,201.033203 C103.976992,200.177734 104.305117,199.483398 104.961367,198.950195 C105.617617,198.416992 106.43207,198.150391 107.404727,198.150391 C108.482852,198.150391 109.329531,198.4375 109.944766,199.011719 C110.56,199.585938 110.867617,200.388672 110.867617,201.419922 C110.867617,202.486328 110.55707,203.341797 109.935977,203.986328 C109.314883,204.630859 108.359805,204.953125 107.070742,204.953125 L107.070742,204.953125 L104.363711,204.953125 L104.363711,208.925781 L107.053164,208.925781 C109.865664,208.925781 111.271914,210.203125 111.271914,212.757812 C111.271914,213.8125 110.929141,214.65918 110.243594,215.297852 C109.558047,215.936523 108.611758,216.255859 107.404727,216.255859 C106.350039,216.255859 105.462344,215.951172 104.741641,215.341797 C104.020937,214.732422 103.660586,213.947266 103.660586,212.986328 L103.660586,212.986328 L98.5805078,212.986328 C98.5805078,215.201172 99.3920312,216.982422 101.015078,218.330078 C102.638125,219.677734 104.726992,220.351562 107.28168,220.351562 Z M133.749883,220 L133.749883,194.371094 L133.204961,194.371094 L122.605351,198.167969 L122.605351,202.298828 L128.669805,200.417969 L128.669805,220 L133.749883,220 Z" id="~10/31" fill="#D07DB2" fill-rule="nonzero"></path>
                        <path d="M212.25,213.408203 C213.972656,213.408203 215.378906,212.728516 216.46875,211.369141 C217.558594,210.009766 218.103516,208.240234 218.103516,206.060547 L218.103516,206.060547 L214.341797,206.042969 C214.341797,206.933594 214.12207,207.689453 213.682617,208.310547 C213.243164,208.931641 212.677734,209.242188 211.986328,209.242188 C211.201172,209.242188 210.331055,208.788086 209.375977,207.879883 C208.420898,206.97168 207.568359,206.341797 206.818359,205.990234 C206.068359,205.638672 205.236328,205.462891 204.322266,205.462891 C202.564453,205.462891 201.155273,206.125 200.094727,207.449219 C199.03418,208.773438 198.503906,210.525391 198.503906,212.705078 L198.503906,212.705078 L202.283203,212.740234 C202.283203,211.826172 202.494141,211.076172 202.916016,210.490234 C203.337891,209.904297 203.888672,209.611328 204.568359,209.611328 C205.388672,209.611328 206.285156,210.077148 207.257812,211.008789 C208.230469,211.94043 209.088867,212.573242 209.833008,212.907227 C210.577148,213.241211 211.382812,213.408203 212.25,213.408203 Z M239.285156,220.351562 C241.945312,220.351562 244.048828,219.692383 245.595703,218.374023 C247.142578,217.055664 247.916016,215.259766 247.916016,212.986328 C247.916016,211.568359 247.552734,210.334961 246.826172,209.286133 C246.099609,208.237305 245.115234,207.414062 243.873047,206.816406 C244.962891,206.242188 245.818359,205.474609 246.439453,204.513672 C247.060547,203.552734 247.371094,202.451172 247.371094,201.208984 C247.371094,199.005859 246.641602,197.262695 245.182617,195.979492 C243.723633,194.696289 241.751953,194.054688 239.267578,194.054688 C236.771484,194.054688 234.796875,194.702148 233.34375,195.99707 C231.890625,197.291992 231.164062,199.029297 231.164062,201.208984 C231.164062,202.451172 231.47168,203.552734 232.086914,204.513672 C232.702148,205.474609 233.554688,206.242188 234.644531,206.816406 C233.414062,207.402344 232.435547,208.222656 231.708984,209.277344 C230.982422,210.332031 230.619141,211.568359 230.619141,212.986328 C230.619141,215.248047 231.398438,217.041016 232.957031,218.365234 C234.515625,219.689453 236.625,220.351562 239.285156,220.351562 Z M239.285156,204.847656 C238.324219,204.847656 237.580078,204.537109 237.052734,203.916016 C236.525391,203.294922 236.261719,202.474609 236.261719,201.455078 C236.261719,200.423828 236.525391,199.615234 237.052734,199.029297 C237.580078,198.443359 238.318359,198.150391 239.267578,198.150391 C240.228516,198.150391 240.972656,198.452148 241.5,199.055664 C242.027344,199.65918 242.291016,200.458984 242.291016,201.455078 C242.291016,202.474609 242.030273,203.294922 241.508789,203.916016 C240.987305,204.537109 240.246094,204.847656 239.285156,204.847656 Z M239.285156,216.255859 C238.160156,216.255859 237.28125,215.921875 236.648438,215.253906 C236.015625,214.585938 235.699219,213.707031 235.699219,212.617188 C235.699219,211.492188 236.021484,210.598633 236.666016,209.936523 C237.310547,209.274414 238.171875,208.943359 239.25,208.943359 C240.339844,208.943359 241.207031,209.277344 241.851562,209.945312 C242.496094,210.613281 242.818359,211.503906 242.818359,212.617188 C242.818359,213.753906 242.504883,214.644531 241.87793,215.289062 C241.250977,215.933594 240.386719,216.255859 239.285156,216.255859 Z M253.154297,222.197266 L262.576172,194.40625 L258.796875,194.40625 L249.375,222.197266 L253.154297,222.197266 Z M272.876953,220.351562 C275.607422,220.351562 277.801758,219.666016 279.459961,218.294922 C281.118164,216.923828 281.947266,215.101562 281.947266,212.828125 C281.947266,211.421875 281.592773,210.203125 280.883789,209.171875 C280.174805,208.140625 279.099609,207.367188 277.658203,206.851562 C278.818359,206.324219 279.755859,205.568359 280.470703,204.583984 C281.185547,203.599609 281.542969,202.521484 281.542969,201.349609 C281.542969,199.076172 280.775391,197.291992 279.240234,195.99707 C277.705078,194.702148 275.583984,194.054688 272.876953,194.054688 C271.318359,194.054688 269.891602,194.353516 268.59668,194.951172 C267.301758,195.548828 266.293945,196.37793 265.573242,197.438477 C264.852539,198.499023 264.492188,199.697266 264.492188,201.033203 L264.492188,201.033203 L269.572266,201.033203 C269.572266,200.177734 269.900391,199.483398 270.556641,198.950195 C271.212891,198.416992 272.027344,198.150391 273,198.150391 C274.078125,198.150391 274.924805,198.4375 275.540039,199.011719 C276.155273,199.585938 276.462891,200.388672 276.462891,201.419922 C276.462891,202.486328 276.152344,203.341797 275.53125,203.986328 C274.910156,204.630859 273.955078,204.953125 272.666016,204.953125 L272.666016,204.953125 L269.958984,204.953125 L269.958984,208.925781 L272.648438,208.925781 C275.460938,208.925781 276.867188,210.203125 276.867188,212.757812 C276.867188,213.8125 276.524414,214.65918 275.838867,215.297852 C275.15332,215.936523 274.207031,216.255859 273,216.255859 C271.945312,216.255859 271.057617,215.951172 270.336914,215.341797 C269.616211,214.732422 269.255859,213.947266 269.255859,212.986328 L269.255859,212.986328 L264.175781,212.986328 C264.175781,215.201172 264.987305,216.982422 266.610352,218.330078 C268.233398,219.677734 270.322266,220.351562 272.876953,220.351562 Z M297.785156,220 L297.785156,194.371094 L297.240234,194.371094 L286.640625,198.167969 L286.640625,202.298828 L292.705078,200.417969 L292.705078,220 L297.785156,220 Z" id="~8/31" fill="#D07DB2" fill-rule="nonzero"></path>
                        <polygon id="止" fill="#0E6DA0" fill-rule="nonzero" points="152.722 219.966 152.722 218.538 147.808 218.538 147.808 213.386 152.008 213.386 152.008 211.958 147.808 211.958 147.808 207.618 146.324 207.618 146.324 218.538 143.874 218.538 143.874 210.054 142.404 210.054 142.404 218.538 140.178 218.538 140.178 219.966"></polygon>
                        <path d="M214.24,172.752 C215.656,172.752 216.376,172.032 216.376,170.616 L216.376,167.424 L218.872,167.424 L218.872,165.264 L216.376,165.264 L216.376,164.472 C217.072,163.824 217.72,163.152 218.344,162.456 L218.344,160.32 L212.368,160.32 C212.656,159.912 212.92,159.456 213.184,158.952 L218.776,158.952 L218.776,156.648 L214.096,156.648 C214.288,156.024 214.456,155.328 214.6,154.608 L212.296,154.2 C211.96,156 211.408,157.56 210.616,158.88 L210.616,157.104 L208.672,157.104 C208.456,156.216 208.144,155.256 207.736,154.224 L205.384,154.848 C205.672,155.568 205.96,156.336 206.224,157.104 L203.488,157.104 L203.488,159.408 L205,159.408 L205,160.416 C204.976,165.216 204.232,168.72 202.744,170.88 L204.472,172.392 C205.888,170.424 206.776,167.568 207.112,163.8 L208.408,163.8 C208.36,167.376 208.288,169.464 208.168,170.064 C208.048,170.352 207.664,170.52 207.04,170.52 C206.728,170.52 206.368,170.472 205.936,170.4 L206.488,172.488 C206.92,172.536 207.208,172.584 207.4,172.584 C209.104,172.584 210.064,172.08 210.28,171.096 C210.472,169.92 210.592,166.776 210.592,161.688 L207.232,161.688 C207.232,161.28 207.256,160.848 207.256,160.416 L207.256,159.408 L210.256,159.408 L209.8,159.984 L209.8,159.984 L211.216,161.76 C211.576,161.376 211.912,160.968 212.248,160.512 L212.248,162.456 L215.728,162.456 C215.296,162.936 214.744,163.536 214.072,164.232 L214.072,165.264 L211.264,165.264 L211.264,167.424 L214.072,167.424 L214.072,169.824 C214.072,170.352 213.856,170.616 213.424,170.616 C212.896,170.616 212.416,170.592 211.984,170.544 L212.56,172.752 L214.24,172.752 Z M201.256,159.408 L202.864,157.8 C201.88,156.648 200.68,155.52 199.24,154.392 L197.608,155.928 C199.168,157.176 200.392,158.352 201.256,159.408 Z M198.664,176.496 C199.696,174.432 200.44,173.4 200.896,173.4 C201.088,173.4 201.28,173.472 201.448,173.64 C202.264,174.456 203.152,175.08 204.16,175.464 C204.976,175.776 206.2,175.968 207.832,176.016 C209.44,176.064 211.048,176.112 212.68,176.112 L218.56,176.112 L219.136,173.76 C216.352,173.856 214.12,173.928 212.392,173.928 C210.712,173.928 209.224,173.904 207.928,173.904 C206.632,173.856 205.648,173.712 204.952,173.448 C204.28,173.16 203.584,172.656 202.816,171.96 C202.624,171.792 202.432,171.624 202.24,171.48 C202.624,170.376 202.96,168.96 203.248,167.232 L203.248,165.6 L200.536,165.6 C201.496,164.4 202.312,163.224 203.008,162.024 L203.008,160.08 L197.248,160.08 L197.248,162.336 L200.296,162.336 C199.576,163.416 198.688,164.568 197.632,165.816 L197.632,167.688 L200.92,167.688 C200.68,168.936 200.368,170.088 199.96,171.168 C198.952,171.576 197.92,172.8 196.864,174.816 L198.664,176.496 Z M234.296,176.544 L234.296,170.328 L243.968,170.328 L243.968,168.024 L234.296,168.024 L234.296,166.464 L236.528,166.464 L236.528,156.624 L233.768,156.624 C234.08,156 234.32,155.352 234.488,154.68 L232.184,154.368 C232.016,155.136 231.776,155.904 231.464,156.624 L229.52,156.624 L229.52,165.672 C229.16,164.208 228.776,162.888 228.344,161.712 L227.096,162.12 C227.864,160.728 228.56,159.144 229.208,157.368 L227.312,156.816 C226.976,157.728 226.64,158.592 226.28,159.408 C225.8,159.504 225.272,159.6 224.72,159.696 C225.296,158.736 225.992,157.296 226.856,155.424 L224.888,154.728 C223.544,158.112 222.608,159.936 222.08,160.176 L222.464,161.928 C223.448,161.784 224.384,161.616 225.272,161.472 C224.408,163.008 223.472,164.328 222.464,165.384 L222.872,166.92 C224.744,166.584 226.376,166.248 227.72,165.912 C227.864,166.416 227.984,166.944 228.104,167.472 L229.832,167.016 C229.784,166.824 229.76,166.656 229.712,166.464 L231.8,166.464 L231.8,168.024 L222.104,168.024 L222.104,170.328 L231.8,170.328 L231.8,176.544 L234.296,176.544 Z M242.288,167.328 L244.04,166.872 C243.584,164.88 243.08,163.128 242.504,161.592 L241.472,161.928 C242.12,160.608 242.72,159.12 243.296,157.464 L241.4,156.888 C241.112,157.752 240.8,158.592 240.464,159.384 C240.056,159.48 239.624,159.552 239.144,159.648 C239.624,158.712 240.248,157.296 240.968,155.424 L239,154.728 C237.896,158.04 237.128,159.84 236.672,160.08 L237.08,161.832 C237.944,161.712 238.736,161.592 239.504,161.448 C238.712,163.032 237.824,164.352 236.864,165.432 L237.272,166.968 C239.072,166.632 240.632,166.272 241.976,165.912 C242.072,166.368 242.192,166.848 242.288,167.328 Z M234.272,160.536 L231.752,160.536 L231.752,158.544 L234.272,158.544 L234.272,160.536 Z M234.272,164.52 L231.752,164.52 L231.752,162.504 L234.272,162.504 L234.272,164.52 Z M239.912,164.568 C240.296,163.992 240.68,163.368 241.064,162.696 C241.208,163.176 241.376,163.68 241.52,164.232 C240.992,164.352 240.44,164.472 239.912,164.568 Z M225.536,164.52 C225.944,163.968 226.352,163.368 226.736,162.72 C226.904,163.176 227.072,163.656 227.216,164.16 L225.536,164.52 Z M242.312,176.424 L244.064,174.648 C241.4,172.896 239.096,171.6 237.176,170.736 L235.664,172.2 C238.16,173.544 240.368,174.96 242.312,176.424 Z M223.52,176.472 C226.28,175.248 228.608,173.808 230.48,172.128 L228.896,170.76 C227.048,172.152 224.768,173.4 222.032,174.48 L223.52,176.472 Z M250.32,176.52 L250.32,175.68 L265.68,175.68 L265.68,176.52 L268.08,176.52 L268.08,155.04 L247.92,155.04 L247.92,176.52 L250.32,176.52 Z M254.832,173.424 L250.32,173.424 L250.32,157.296 L265.68,157.296 L265.68,173.424 L255.48,173.424 C256.848,173.16 258.216,172.848 259.584,172.488 L259.224,170.784 C258.408,171.024 257.616,171.24 256.8,171.432 L256.8,169.368 C257.28,168.984 257.688,168.6 258.048,168.216 L263.136,168.216 C262.56,168.6 261.888,169.008 261.168,169.392 C260.496,169.08 259.8,168.792 259.08,168.552 L258.072,170.016 C260.064,170.784 262.008,171.84 263.904,173.184 L265.056,171.408 C264.384,171 263.712,170.616 262.992,170.256 C263.664,169.896 264.336,169.512 265.008,169.08 L263.544,167.928 C263.52,167.928 263.496,167.952 263.472,167.976 L263.472,163.968 L252.528,163.968 L252.528,168.216 L255.6,168.216 C254.568,168.84 252.984,169.416 250.824,169.944 L251.952,171.792 C253.008,171.408 253.968,171.024 254.832,170.592 L254.832,171.216 C254.832,171.552 254.64,171.792 254.256,171.936 L254.832,173.424 Z M264.936,163.2 L264.936,161.376 L259.128,161.376 L259.128,160.488 L263.76,160.488 L263.76,158.712 L259.128,158.712 L259.128,157.776 L256.872,157.776 L256.872,158.712 L252.24,158.712 L252.24,160.488 L256.872,160.488 L256.872,161.376 L251.136,161.376 L251.136,163.2 L264.936,163.2 Z M261.408,166.632 L254.568,166.632 L254.568,165.6 L261.408,165.6 L261.408,166.632 Z M290.512,176.4 C292.096,176.4 292.912,175.392 292.912,173.4 L292.912,154.92 L283.72,154.92 L283.72,164.112 L290.44,164.112 L290.44,172.608 C290.44,173.616 290.152,174.12 289.624,174.12 C288.904,174.12 288.136,174.072 287.32,174 L287.944,176.304 C288.808,176.352 289.648,176.4 290.512,176.4 Z M275.464,176.424 L275.464,164.088 L282.28,164.088 L282.28,154.92 L272.968,154.92 L272.968,176.424 L275.464,176.424 Z M279.784,158.448 L275.464,158.448 L275.464,156.936 L279.784,156.936 L279.784,158.448 Z M290.44,158.448 L286.216,158.448 L286.216,156.984 L290.44,156.984 L290.44,158.448 Z M279.784,162.048 L275.464,162.048 L275.464,160.416 L279.784,160.416 L279.784,162.048 Z M290.44,162.072 L286.216,162.072 L286.216,160.416 L290.44,160.416 L290.44,162.072 Z M317.096,164.304 L317.096,158.544 L311.768,158.544 L311.768,157.152 L318.752,157.152 L318.752,154.992 L297.248,154.992 L297.248,157.152 L304.232,157.152 L304.232,158.544 L298.904,158.544 L298.904,164.304 L317.096,164.304 Z M309.392,158.544 L306.608,158.544 L306.608,157.152 L309.392,157.152 L309.392,158.544 Z M314.696,162.288 L311.768,162.288 L311.768,160.56 L314.696,160.56 L314.696,162.288 Z M309.392,162.288 L306.608,162.288 L306.608,160.56 L309.392,160.56 L309.392,162.288 Z M304.232,162.288 L301.304,162.288 L301.304,160.56 L304.232,160.56 L304.232,162.288 Z M316.136,167.616 L316.136,165.552 L300.032,165.552 L300.032,167.616 L316.136,167.616 Z M309.464,176.4 L309.464,170.88 L318.368,170.88 L318.368,168.744 L297.632,168.744 L297.632,170.88 L307.064,170.88 L307.064,176.4 L309.464,176.4 Z M316.88,176.232 L318.632,174.48 C317.168,173.4 315.368,172.32 313.208,171.24 L311.576,172.8 C313.88,174.024 315.632,175.176 316.88,176.232 Z M299.312,176.232 C301.616,175.248 303.56,174.072 305.144,172.728 L303.512,171.288 C301.976,172.416 300.08,173.4 297.8,174.264 L299.312,176.232 Z" id="遊樂園門票" fill="#0E6DA0" fill-rule="nonzero"></path>
                    </g>
                </g>
                <g id="Group-11" transform="translate(224.000000, 0.000000)">
                    <g id="Group-10" transform="translate(106.500000, 48.500000) scale(1, -1) translate(-106.500000, -48.500000) ">
                        <polygon id="Fill-255" fill="#FFFFFF" points="11.2132 34.727 11.2132 4.61852778e-14 46.2422 34.727"></polygon>
                        <g id="Group-259" transform="translate(0.000000, 22.789600)">
                            <mask id="mask-4" fill="white">
                                <use xlink:href="#path-3"></use>
                            </mask>
                            <g id="Clip-258"></g>
                            <path d="M196.575137,73.2104 L16.4248626,73.2104 C7.35358745,73.2104 0,67.1182395 0,59.6016479 L0,13.8177583 C0,6.30256053 7.35358745,0.2104 16.4248626,0.2104 L196.575137,0.2104 C205.646413,0.2104 213,6.30256053 213,13.8177583 L213,59.6016479 C213,67.1182395 205.646413,73.2104 196.575137,73.2104" id="Fill-257" fill="#FFFFFF" mask="url(#mask-4)"></path>
                        </g>
                    </g>
                    <g id="補助時間自-2020/7/1-起" transform="translate(37.798828, 13.420000)" fill-rule="nonzero">
                        <path d="M21.6011719,18.62 L21.6011719,14.46 L23.7011719,14.46 L23.7011719,18.56 L25.6611719,18.56 L25.6611719,14.46 L27.8411719,14.46 L27.8411719,16.04 C27.8411719,16.5 27.6411719,16.74 27.2411719,16.74 L26.0411719,16.66 L26.5811719,18.54 L27.8611719,18.54 C29.1211719,18.54 29.7611719,17.84 29.7611719,16.48 L29.7611719,5.64 L25.6611719,5.64 L25.6611719,4.26 L30.4411719,4.26 L30.4411719,2.34 L28.7211719,2.34 L29.4411719,1.84 C29.1211719,1.32 28.6611719,0.7 28.0811719,2.48689958e-14 L26.6611719,0.88 C27.0611719,1.4 27.4211719,1.88 27.7411719,2.34 L25.6611719,2.34 L25.6611719,0.22 L23.7011719,0.22 L23.7011719,2.34 L19.0611719,2.34 L19.0611719,4.26 L23.7011719,4.26 L23.7011719,5.64 L19.6811719,5.64 L19.6811719,18.62 L21.6011719,18.62 Z M16.3611719,18.68 L16.3611719,11.12 C16.9611719,11.76 17.5411719,12.52 18.1411719,13.36 L19.2611719,11.62 C18.8611719,11.18 18.4411719,10.78 18.0211719,10.38 C18.5011719,9.94 18.9811719,9.4 19.4211719,8.72 L18.2411719,7.54 C17.7811719,8.34 17.3211719,8.96 16.8411719,9.4 L16.3611719,9.04 L16.3611719,8.92 C17.3211719,7.54 18.0211719,6.16 18.4811719,4.76 L18.4811719,3.06 L16.6211719,3.06 C16.4211719,2.18 16.1011719,1.2 15.7011719,0.12 L13.6811719,0.66 C14.0211719,1.42 14.3211719,2.22 14.6011719,3.06 L12.2411719,3.06 L12.2411719,4.96 L16.4611719,4.96 C15.6411719,6.96 14.0811719,9.02 11.7811719,11.14 L12.4411719,13.26 C13.1211719,12.64 13.7411719,12.02 14.3211719,11.42 L14.3211719,18.68 L16.3611719,18.68 Z M23.7011719,9.16 L21.6011719,9.16 L21.6011719,7.52 L23.7011719,7.52 L23.7011719,9.16 Z M27.8411719,9.16 L25.6611719,9.16 L25.6611719,7.52 L27.8411719,7.52 L27.8411719,9.16 Z M23.7011719,12.66 L21.6011719,12.66 L21.6011719,10.96 L23.7011719,10.96 L23.7011719,12.66 Z M27.8411719,12.66 L25.6611719,12.66 L25.6611719,10.96 L27.8411719,10.96 L27.8411719,12.66 Z M44.3811719,18.82 C47.0811719,16.16 48.4611719,11.96 48.5211719,6.2 L48.5211719,6.04 L50.8011719,6.04 C50.7611719,11.34 50.7011719,14.44 50.5811719,15.34 C50.4411719,16.22 49.9411719,16.66 49.1011719,16.66 C48.5811719,16.66 47.9811719,16.62 47.2811719,16.58 L47.7811719,18.4 C48.5611719,18.46 49.1211719,18.5 49.4411719,18.5 C51.2811719,18.5 52.3011719,17.76 52.5411719,16.28 C52.7411719,14.72 52.8411719,10.64 52.8411719,4.04 L48.5211719,4.04 L48.5211719,0.24 L46.4411719,0.24 L46.4411719,4.04 L44.2411719,4.04 L44.2411719,6.04 L46.4411719,6.04 L46.4411719,6.2 C46.4011719,11.36 45.1811719,15.1 42.8011719,17.42 L44.3811719,18.82 Z M35.4411719,17.22 C38.8611719,16.46 41.9011719,15.66 44.5411719,14.78 L44.5411719,12.8 L43.3211719,13.18 L43.3211719,1.22 L36.2411719,1.22 L36.2411719,14.94 L34.8611719,15.22 L35.4411719,17.22 Z M41.3011719,5.36 L38.3011719,5.36 L38.3011719,3.12 L41.3011719,3.12 L41.3011719,5.36 Z M41.3011719,9.66 L38.3011719,9.66 L38.3011719,7.24 L41.3011719,7.24 L41.3011719,9.66 Z M38.3011719,14.5 L38.3011719,11.52 L41.3011719,11.52 L41.3011719,13.76 C40.3411719,14 39.3411719,14.26 38.3011719,14.5 Z M75.5811719,7.64 L75.5811719,5.72 L71.8411719,5.72 L71.8411719,4 L76.3411719,4 L76.3411719,2.1 L71.8411719,2.1 L71.8411719,0.28 L69.8211719,0.28 L69.8211719,2.1 L65.2011719,2.1 L65.2011719,4 L69.8211719,4 L69.8211719,5.72 L65.9811719,5.72 L65.9811719,7.64 L75.5811719,7.64 Z M60.5611719,17.04 L60.5611719,15.34 L62.6611719,15.34 L62.6611719,16.56 L64.6211719,16.56 L64.6211719,1.48 L58.5611719,1.48 L58.5611719,17.04 L60.5611719,17.04 Z M62.6611719,7.4 L60.5611719,7.4 L60.5611719,3.38 L62.6611719,3.38 L62.6611719,7.4 Z M72.0011719,18.52 C73.4011719,18.52 74.1011719,17.78 74.1011719,16.3 L74.1011719,11.48 L76.3411719,11.48 L76.3411719,9.54 L74.1011719,9.54 L74.1011719,8.2 L72.0611719,8.2 L72.0611719,9.54 L65.6011719,9.54 L65.6011719,11.48 L72.0611719,11.48 L72.0611719,15.78 C72.0611719,16.38 71.8011719,16.7 71.3011719,16.7 C70.6211719,16.7 69.8811719,16.64 69.1211719,16.56 L69.5611719,18.52 L72.0011719,18.52 Z M62.6611719,13.42 L60.5611719,13.42 L60.5611719,9.28 L62.6611719,9.28 L62.6611719,13.42 Z M68.2011719,16 L69.8611719,14.84 C69.2811719,14 68.4811719,13.02 67.4411719,11.88 L65.8211719,12.9 C66.8211719,14.04 67.6011719,15.08 68.2011719,16 Z M96.6411719,18.62 C97.8611719,18.62 98.4811719,17.98 98.4811719,16.72 L98.4811719,0.66 L90.8211719,0.66 L90.8211719,7.8 L96.4211719,7.8 L96.4211719,16.04 C96.4211719,16.44 96.2411719,16.66 95.9011719,16.66 C95.3811719,16.66 94.8211719,16.62 94.2211719,16.54 L94.7811719,18.54 C95.3811719,18.58 96.0011719,18.62 96.6411719,18.62 Z M83.9611719,18.64 L83.9611719,7.8 L89.4411719,7.8 L89.4411719,0.68 L81.9011719,0.68 L81.9011719,18.64 L83.9611719,18.64 Z M87.3611719,3.44 L83.9611719,3.44 L83.9611719,2.52 L87.3611719,2.52 L87.3611719,3.44 Z M96.4211719,3.48 L92.9011719,3.48 L92.9011719,2.54 L96.4211719,2.54 L96.4211719,3.48 Z M87.3611719,5.96 L83.9611719,5.96 L83.9611719,5 L87.3611719,5 L87.3611719,5.96 Z M96.4211719,5.96 L92.9011719,5.96 L92.9011719,5.04 L96.4211719,5.04 L96.4211719,5.96 Z M94.0811719,17.08 L94.0811719,8.94 L86.2811719,8.94 L86.2811719,17.08 L94.0811719,17.08 Z M92.1011719,12.16 L88.2811719,12.16 L88.2811719,10.66 L92.1011719,10.66 L92.1011719,12.16 Z M92.1011719,15.36 L88.2811719,15.36 L88.2811719,13.82 L92.1011719,13.82 L92.1011719,15.36 Z M108.381172,18.66 L108.381172,17.58 L118.021172,17.58 L118.021172,18.66 L120.141172,18.66 L120.141172,2.34 L112.801172,2.34 C113.141172,1.74 113.421172,1.1 113.621172,0.4 L111.501172,0.1 C111.301172,0.86 110.981172,1.62 110.581172,2.34 L106.261172,2.34 L106.261172,18.66 L108.381172,18.66 Z M118.021172,6.68 L108.381172,6.68 L108.381172,4.34 L118.021172,4.34 L118.021172,6.68 Z M118.021172,11.06 L108.381172,11.06 L108.381172,8.6 L118.021172,8.6 L118.021172,11.06 Z M118.021172,15.6 L108.381172,15.6 L108.381172,12.98 L118.021172,12.98 L118.021172,15.6 Z" id="補助時間自" fill="#0E6DA0"></path>
                        <path d="M10.0292969,44.58 L10.0292969,42.3046094 L3.91601562,42.3046094 L7.1484375,38.8964063 C8.03385417,37.9263542 8.65885417,37.0767448 9.0234375,36.3475781 C9.38802083,35.6184115 9.5703125,34.9022656 9.5703125,34.1991406 C9.5703125,32.9165885 9.16503906,31.92375 8.35449219,31.220625 C7.54394531,30.5175 6.40625,30.1659375 4.94140625,30.1659375 C3.984375,30.1659375 3.12825521,30.369388 2.37304688,30.7762891 C1.61783854,31.1831901 1.03352865,31.7447135 0.620117188,32.4608594 C0.206705729,33.1770052 0,33.9680208 0,34.8339063 L0,34.8339063 L2.83203125,34.8339063 C2.83203125,34.1177604 3.01595052,33.5399609 3.38378906,33.1005078 C3.7516276,32.6610547 4.25455729,32.4413281 4.89257812,32.4413281 C5.48502604,32.4413281 5.94075521,32.6219922 6.25976562,32.9833203 C6.57877604,33.3446484 6.73828125,33.8410677 6.73828125,34.4725781 C6.73828125,34.9348177 6.58691406,35.423099 6.28417969,35.9374219 C5.98144531,36.4517448 5.51432292,37.0539583 4.8828125,37.7440625 L4.8828125,37.7440625 L0.283203125,42.6464063 L0.283203125,44.58 L10.0292969,44.58 Z M19.5332031,44.7753125 C21.1022135,44.7753125 22.2936198,44.2544792 23.1074219,43.2128125 C23.921224,42.1711458 24.328125,40.6672396 24.328125,38.7010938 L24.328125,38.7010938 L24.328125,36.0839063 C24.3085938,34.1763542 23.8886719,32.713138 23.0683594,31.6942578 C22.2480469,30.6753776 21.063151,30.1659375 19.5136719,30.1659375 C17.9641927,30.1659375 16.7776693,30.6802604 15.9541016,31.7089063 C15.1305339,32.7375521 14.71875,34.2447135 14.71875,36.2303906 L14.71875,36.2303906 L14.71875,38.8475781 C14.7382812,40.7551302 15.1582031,42.219974 15.9785156,43.2421094 C16.7988281,44.2642448 17.983724,44.7753125 19.5332031,44.7753125 Z M19.5332031,42.4999219 C18.8365885,42.4999219 18.3304036,42.2183464 18.0146484,41.6551953 C17.6988932,41.0920443 17.5410156,40.2310417 17.5410156,39.0721875 L17.5410156,39.0721875 L17.5410156,35.6151563 C17.5605469,34.5279167 17.7281901,33.728763 18.0439453,33.2176953 C18.3597005,32.7066276 18.8496094,32.4510938 19.5136719,32.4510938 C20.1972656,32.4510938 20.7001953,32.7196484 21.0224609,33.2567578 C21.3447266,33.7938672 21.5058594,34.6516146 21.5058594,35.83 L21.5058594,35.83 L21.5058594,39.2089063 C21.4928385,40.3221875 21.3333333,41.1490104 21.0273438,41.689375 C20.7213542,42.2297396 20.2233073,42.4999219 19.5332031,42.4999219 Z M38.9785156,44.58 L38.9785156,42.3046094 L32.8652344,42.3046094 L36.0976562,38.8964063 C36.9830729,37.9263542 37.6080729,37.0767448 37.9726562,36.3475781 C38.3372396,35.6184115 38.5195312,34.9022656 38.5195312,34.1991406 C38.5195312,32.9165885 38.1142578,31.92375 37.3037109,31.220625 C36.4931641,30.5175 35.3554688,30.1659375 33.890625,30.1659375 C32.9335938,30.1659375 32.077474,30.369388 31.3222656,30.7762891 C30.5670573,31.1831901 29.9827474,31.7447135 29.5693359,32.4608594 C29.1559245,33.1770052 28.9492188,33.9680208 28.9492188,34.8339063 L28.9492188,34.8339063 L31.78125,34.8339063 C31.78125,34.1177604 31.9651693,33.5399609 32.3330078,33.1005078 C32.7008464,32.6610547 33.203776,32.4413281 33.8417969,32.4413281 C34.4342448,32.4413281 34.889974,32.6219922 35.2089844,32.9833203 C35.5279948,33.3446484 35.6875,33.8410677 35.6875,34.4725781 C35.6875,34.9348177 35.5361328,35.423099 35.2333984,35.9374219 C34.9306641,36.4517448 34.4635417,37.0539583 33.8320312,37.7440625 L33.8320312,37.7440625 L29.2324219,42.6464063 L29.2324219,44.58 L38.9785156,44.58 Z M48.4824219,44.7753125 C50.0514323,44.7753125 51.2428385,44.2544792 52.0566406,43.2128125 C52.8704427,42.1711458 53.2773438,40.6672396 53.2773438,38.7010938 L53.2773438,38.7010938 L53.2773438,36.0839063 C53.2578125,34.1763542 52.8378906,32.713138 52.0175781,31.6942578 C51.1972656,30.6753776 50.0123698,30.1659375 48.4628906,30.1659375 C46.9134115,30.1659375 45.726888,30.6802604 44.9033203,31.7089063 C44.0797526,32.7375521 43.6679688,34.2447135 43.6679688,36.2303906 L43.6679688,36.2303906 L43.6679688,38.8475781 C43.6875,40.7551302 44.1074219,42.219974 44.9277344,43.2421094 C45.7480469,44.2642448 46.9329427,44.7753125 48.4824219,44.7753125 Z M48.4824219,42.4999219 C47.7858073,42.4999219 47.2796224,42.2183464 46.9638672,41.6551953 C46.648112,41.0920443 46.4902344,40.2310417 46.4902344,39.0721875 L46.4902344,39.0721875 L46.4902344,35.6151563 C46.5097656,34.5279167 46.6774089,33.728763 46.9931641,33.2176953 C47.3089193,32.7066276 47.7988281,32.4510938 48.4628906,32.4510938 C49.1464844,32.4510938 49.6494141,32.7196484 49.9716797,33.2567578 C50.2939453,33.7938672 50.4550781,34.6516146 50.4550781,35.83 L50.4550781,35.83 L50.4550781,39.2089063 C50.4420573,40.3221875 50.2825521,41.1490104 49.9765625,41.689375 C49.6705729,42.2297396 49.172526,42.4999219 48.4824219,42.4999219 Z M59.1875,45.8007031 L64.421875,30.36125 L62.3222656,30.36125 L57.0878906,45.8007031 L59.1875,45.8007031 Z M72.8222656,44.58 L78.3203125,31.9432813 L78.3203125,30.36125 L68.28125,30.36125 L68.28125,32.6464063 L75.3515625,32.6464063 L69.84375,44.58 L72.8222656,44.58 Z M84.1328125,45.8007031 L89.3671875,30.36125 L87.2675781,30.36125 L82.0332031,45.8007031 L84.1328125,45.8007031 Z M100.453125,44.58 L100.453125,30.3417188 L100.150391,30.3417188 L94.2617188,32.4510938 L94.2617188,34.7460156 L97.6308594,33.7010938 L97.6308594,44.58 L100.453125,44.58 Z" id="2020/7/1" fill="#A3618B"></path>
                        <path d="M117.305938,46.7 C117.705938,45.74 118.025938,44.7 118.305938,43.62 C118.965938,44.5 119.725938,45.12 120.565938,45.5 C121.709063,46.00375 124.503906,46.2822656 128.932286,46.2991809 L134.025938,46.3 L134.385938,44.3 C133.185938,44.38 131.365938,44.42 128.925938,44.44 C125.765938,44.44 123.565938,44.3 122.325938,44.06 L122.325938,40.9 L124.925938,40.9 L124.925938,39.02 L122.325938,39.02 L122.325938,36.78 L125.025938,36.78 L125.025938,34.86 L121.905938,34.86 L121.905938,32.5 L124.765938,32.5 L124.765938,30.62 L121.905938,30.62 L121.905938,28.06 L119.825938,28.06 L119.825938,30.62 L116.745938,30.62 L116.745938,32.5 L119.825938,32.5 L119.825938,34.86 L116.405938,34.86 L116.405938,36.78 L120.305938,36.78 L120.305938,43.18 C119.745938,42.76 119.225938,42.18 118.745938,41.44 C118.905938,40.32 119.005938,39.18 119.045938,37.98 L117.185938,37.76 C117.065938,40.52 116.585938,43.02 115.705938,45.28 L117.305938,46.7 Z M131.725938,43.02 C132.665938,42.98 133.265938,42.52 133.545938,41.66 C133.705938,41.14 133.865938,40.28 133.985938,39.06 L132.045938,38.44 C131.945938,39.64 131.845938,40.34 131.745938,40.56 C131.625938,40.88 131.385938,41.04 131.045938,41.08 L128.705938,41.08 C128.185938,41.08 127.945938,40.88 127.945938,40.52 L127.945938,36.28 L133.145938,36.28 L133.145938,29.32 L125.905938,29.32 L125.905938,41.34 C125.905938,42.46 126.545938,43.02 127.825938,43.02 L131.725938,43.02 Z M131.165938,34.42 L127.945938,34.42 L127.945938,31.18 L131.165938,31.18 L131.165938,34.42 Z" id="起" fill="#0E6DA0"></path>
                    </g>
                </g>
                <polygon id="止" fill="#0E6DA0" fill-rule="nonzero" points="320.222 225.966 320.222 224.538 315.308 224.538 315.308 219.386 319.508 219.386 319.508 217.958 315.308 217.958 315.308 213.618 313.824 213.618 313.824 224.538 311.374 224.538 311.374 216.054 309.904 216.054 309.904 224.538 307.678 224.538 307.678 225.966"></polygon>
            </g>
        </g>
    </g>
</svg>