<svg xmlns="http://www.w3.org/2000/svg" xmlns:xlink="http://www.w3.org/1999/xlink" width="312" height="297" viewBox="0 0 312 297">
    <defs>
        <path id="prefix__a" d="M.53 54.535c0 29.883 23.931 54.115 53.445 54.115 29.521 0 53.449-24.232 53.449-54.115 0-29.892-23.928-54.118-53.449-54.118C24.458.417.53 24.643.53 54.535z"/>
        <path id="prefix__c" d="M.432.482c0 20.454 16.572 37.034 37.016 37.034V.482H.432z"/>
        <path id="prefix__e" d="M.432 37.583h37.016V.549C17.004.549.432 17.129.432 37.583z"/>
        <path id="prefix__g" d="M.506 37.583h37.016C37.522 17.129 20.95.549.506.549v37.034z"/>
        <path id="prefix__i" d="M.506.488v37.034c20.444 0 37.016-16.581 37.016-37.034H.506z"/>
        <path id="prefix__k" d="M0 297L312.381 297 312.381 0.289 0 0.289z"/>
    </defs>
    <g fill="none" fill-rule="evenodd">
        <path fill="#A3618B" d="M110.43 184.967L295.522 184.967 295.522 66.477 110.43 66.477z" transform="translate(0 -1)"/>
        <path fill="#BB7E9C" d="M102.619 200.374L303.334 200.374 303.334 80.354 102.619 80.354z" transform="translate(0 -1)"/>
        <path fill="#F8E482" d="M94.547 214.253L311.404 214.253 311.404 94.235 94.547 94.235z" transform="translate(0 -1)"/>
        <g transform="translate(0 -1) translate(149 99.711)">
            <mask id="prefix__b" fill="#fff">
                <use xlink:href="#prefix__a"/>
            </mask>
            <path fill="#E68AA3" d="M-0.404 109.583L108.357 109.583 108.357 -0.517 -0.404 -0.517z" mask="url(#prefix__b)"/>
        </g>
        <path fill="#BD5888" d="M284.301 163.942c-5.351 0-9.695-4.348-9.695-9.7 0-5.354 4.344-9.696 9.695-9.696 5.353 0 9.696 4.342 9.696 9.696 0 5.352-4.344 9.7-9.696 9.7" transform="translate(0 -1)"/>
        <g transform="translate(0 -1) translate(274 93.711)">
            <mask id="prefix__d" fill="#fff">
                <use xlink:href="#prefix__c"/>
            </mask>
            <path fill="#E68AA3" d="M-0.501 38.448L38.381 38.448 38.381 -0.451 -0.501 -0.451z" mask="url(#prefix__d)"/>
        </g>
        <g transform="translate(0 -1) translate(274 176.711)">
            <mask id="prefix__f" fill="#fff">
                <use xlink:href="#prefix__e"/>
            </mask>
            <path fill="#E68AA3" d="M-0.501 38.517L38.381 38.517 38.381 -0.384 -0.501 -0.384z" mask="url(#prefix__f)"/>
        </g>
        <g>
            <path fill="#BD5888" d="M27.65.835c5.352 0 9.696 4.348 9.696 9.7 0 5.354-4.344 9.695-9.696 9.695-5.35 0-9.694-4.341-9.694-9.694 0-5.353 4.344-9.701 9.694-9.701" transform="translate(0 -1) translate(94 143.711)"/>
            <path fill="#E14027" d="M.506 33.55v37.033h37.017C37.523 50.13 20.948 33.55.505 33.55" transform="translate(0 -1) translate(94 143.711)"/>
        </g>
        <g transform="translate(0 -1) translate(94 176.711)">
            <mask id="prefix__h" fill="#fff">
                <use xlink:href="#prefix__g"/>
            </mask>
            <path fill="#E68AA3" d="M-0.427 38.517L38.455 38.517 38.455 -0.384 -0.427 -0.384z" mask="url(#prefix__h)"/>
        </g>
        <g transform="translate(0 -1) translate(94 93.711)">
            <mask id="prefix__j" fill="#fff">
                <use xlink:href="#prefix__i"/>
            </mask>
            <path fill="#E68AA3" d="M0.555 0.159L39.669 0.123 39.669 39.023 0.506 39.357z" mask="url(#prefix__j)"/>
        </g>
        <g transform="translate(0 -1) translate(0 .711)">
            <path fill="#B7B3AD" d="M111.909 199.819v23.48c0 3.642 2.962 6.595 6.614 6.595h7.163v-6.152c0-10.206-5.537-19.12-13.777-23.923m69.526 16.552c-1.133-1.527-3.297-1.78-4.746-.588 1.406-1.154 1.608-3.225.453-4.626-1.154-1.405-3.234-1.608-4.64-.456 1.406-1.152 1.612-3.222.454-4.627-.65-.79-1.594-1.198-2.55-1.198-.733 0-1.475.242-2.091.746l9.429-7.723c1.584-1.294 1.644-3.75-.036-5.111-1.222-.99-3.002-.906-4.22.092l-16.116 13.202c-1.502-1.71-4.103-1.94-5.873-.486-1.018.835-1.545 2.04-1.545 3.262 0 .9.29 1.81.882 2.578l-.753.614c-2.501 2.049-3.94 4.91-4.246 7.88-4.596-.411-9.318 1.318-12.545 5.08l-4.194 4.884h35.744c3.234 0 6.368-1.12 8.87-3.168l1.55-1.267 5.475-4.487c1.377-1.128 1.759-3.173.698-4.601"/>
            <mask id="prefix__l" fill="#fff">
                <use xlink:href="#prefix__k"/>
            </mask>
            <path fill="#FFF" d="M49.02 207.107L76.67 207.107 76.67 173.652 49.02 173.652zM98.13 156.376h.019c3.275 0 5.93-2.655 5.93-5.931v-9.01c0-3.278-2.655-5.933-5.93-5.933h-.018c-3.276 0-5.932 2.655-5.932 5.933v9.01c0 3.276 2.656 5.931 5.932 5.931" mask="url(#prefix__l)"/>
            <path fill="#D0D2D3" d="M98.14 153.587c3.28 0 5.94-2.651 5.94-5.923v2.79c0 3.272-2.66 5.922-5.94 5.922-3.282 0-5.94-2.65-5.94-5.923v-2.79c0 3.272 2.658 5.923 5.94 5.923" mask="url(#prefix__l)"/>
            <path fill="#FFF" d="M27.544 156.376h.018c3.275 0 5.93-2.655 5.93-5.931v-9.01c0-3.278-2.655-5.933-5.93-5.933h-.018c-3.276 0-5.932 2.655-5.932 5.933v9.01c0 3.276 2.656 5.931 5.932 5.931" mask="url(#prefix__l)"/>
            <path fill="#D0D2D3" d="M27.552 153.587c3.28 0 5.94-2.651 5.94-5.923v2.79c0 3.272-2.66 5.922-5.94 5.922-3.28 0-5.94-2.65-5.94-5.923v-2.79c0 3.272 2.66 5.923 5.94 5.923" mask="url(#prefix__l)"/>
            <path fill="#FFF" d="M97.62 133.145c-1.15-5.89-3.767-11.258-7.461-15.706-1.067-1.29-2.227-2.499-3.467-3.625-6.295-5.718-14.662-9.199-23.846-9.199-.408 0-.82.008-1.226.024-.14 0-.276.007-.411.014-9.137.413-17.365 4.272-23.421 10.311-5.394 5.377-9.058 12.487-10.083 20.418-.193 1.494-.294 3.016-.294 4.562v6.995c0 19.514 15.863 35.33 35.435 35.33 19.568 0 35.434-15.816 35.434-35.33v-6.995c0-1.5-.094-2.978-.276-4.427l-.384-2.372z" mask="url(#prefix__l)"/>
            <path fill="#D0D2D3" d="M62.845 176.688c19.568 0 35.435-15.815 35.435-35.328v5.579c0 19.514-15.867 35.329-35.435 35.329-19.57 0-35.435-15.815-35.435-35.329v-5.579c0 19.513 15.864 35.328 35.435 35.328" mask="url(#prefix__l)"/>
            <path fill="#4B6084" d="M97.62 133.145h-3.384v16.931c0 1.103.856 2.065 1.963 2.095 1.145.033 2.08-.88 2.08-2.012v-12.18c0-1.635-.221-3.26-.66-4.834M28.058 133.145c-.43 1.484-.647 3.021-.647 4.566v12.448c0 1.111.97 2.013 2.17 2.013 1.197 0 2.166-.902 2.166-2.013v-17.014h-3.689z" mask="url(#prefix__l)"/>
            <path fill="#4B6084" d="M61.62 104.64c3.584 5.576 12.469 17.633 26.857 26.112 3.463 2.038 6.644 3.594 9.527 4.765-.004-.004-.004-.01-.004-.015-.856-6.816-3.66-13.03-7.841-18.063-1.067-1.29-2.227-2.499-3.467-3.625-6.295-5.718-14.662-9.199-23.846-9.199-.408 0-.82.007-1.226.024" mask="url(#prefix__l)"/>
            <path fill="#808F91" d="M27.705 135.382c4.824 1.456 14.33 2.83 29.426-1.105 15.265-3.976 26.85-11.864 33.028-16.838-1.067-1.29-2.227-2.499-3.467-3.625-6.295-5.718-14.662-9.2-23.846-9.2-.546 0-1.095.011-1.637.04-9.137.412-17.365 4.271-23.421 10.31-5.394 5.377-9.058 12.486-10.083 20.418" mask="url(#prefix__l)"/>
            <path fill="#4B6084" d="M57.13 113.622c6.686-1.741 12.664-4.232 17.793-6.9 4.393 1.587 8.38 4.015 11.77 7.092 1.239 1.126 2.399 2.334 3.466 3.625-6.177 4.975-17.762 12.863-33.028 16.838-15.096 3.936-24.602 2.562-29.426 1.106.952-7.365 4.182-14.02 8.956-19.238 5.133.233 11.9-.29 20.47-2.523" mask="url(#prefix__l)"/>
            <path fill="#808F91" d="M57.13 120.506c9.762-2.542 18.014-6.683 24.313-10.639 1.873 1.154 3.629 2.476 5.25 3.947 1.239 1.126 2.399 2.334 3.466 3.625-6.177 4.974-17.762 12.862-33.028 16.838-15.096 3.935-24.602 2.561-29.426 1.105.596-4.608 2.088-8.937 4.286-12.812 5.414.85 13.659.93 25.14-2.064" mask="url(#prefix__l)"/>
            <path fill="#4B6084" d="M57.13 127.392c12.524-3.262 22.568-9.155 29.184-13.914.127.111.254.223.379.336 1.239 1.126 2.399 2.334 3.466 3.625-6.177 4.974-17.762 12.862-33.028 16.838-15.096 3.935-24.602 2.561-29.426 1.105.289-2.233.794-4.399 1.48-6.482 5.175 1.264 14.265 2.058 27.946-1.508" mask="url(#prefix__l)"/>
            <path fill="#A62873" d="M62.84 158.641h.011c2.159 0 3.909-1.749 3.909-3.907v-5.123c0-2.158-1.75-3.908-3.909-3.908h-.011c-2.159 0-3.909 1.75-3.909 3.908v5.123c0 2.158 1.75 3.907 3.909 3.907" mask="url(#prefix__l)"/>
            <path fill="#219A8A" d="M125.686 220.064v11.721h-21.509v65.137c-1.376.052-2.759.078-4.145.078-4.039 0-8.027-.22-11.948-.655-2.545-.275-5.057-.639-7.544-1.095-13.603-2.468-26.318-7.477-37.634-14.516-4.677-2.909-9.115-6.164-13.272-9.732-.033-.021-.062-.05-.092-.077C16.72 259.918 6.522 245.959 0 230.108v-7.657h.012v-2.387c0-15.296 12.442-27.692 27.776-27.692H39.84l9.203 30.079h27.614l9.203-30.079h12.055c.272 0 .545.003.814.01 14.958.431 26.957 12.659 26.957 27.682" mask="url(#prefix__l)"/>
            <path fill="#007D8D" d="M21.517 263.29c1.8 1.898 3.67 3.73 5.603 5.492l-5.592-41.216-.01 35.725zM94.755 296.872c1.748.084 3.508.128 5.278.128 1.387 0 2.77-.025 4.147-.077v-69.357l-9.425 69.306z" mask="url(#prefix__l)"/>
            <path fill="#F8E482" d="M48.172 219.589L55.844 244.66 55.844 244.663 55.984 245.125 57.709 250.761 58.98 254.915 60.703 260.551 61.975 264.706 62.858 267.587 63.932 264.067 65.486 258.991 67.593 252.102 69.144 247.026 69.853 244.71 77.532 219.589 62.858 207.108z" mask="url(#prefix__l)"/>
            <path fill="#A62873" d="M76.312 142.659c0 1.647 1.34 2.983 2.992 2.983 1.654 0 2.993-1.336 2.993-2.983 0-1.648-1.339-2.983-2.993-2.983-1.652 0-2.992 1.335-2.992 2.983M43.394 142.659c0 1.647 1.34 2.983 2.992 2.983 1.653 0 2.992-1.336 2.992-2.983 0-1.648-1.339-2.983-2.992-2.983-1.652 0-2.992 1.335-2.992 2.983M62.845 169.63c3.81 0 7.618-1.446 10.52-4.338.571-.57.571-1.495 0-2.065-.574-.57-1.5-.57-2.074 0-4.657 4.643-12.235 4.643-16.89 0-.575-.57-1.5-.57-2.074 0-.572.57-.572 1.495 0 2.065 2.9 2.892 6.71 4.337 10.518 4.337" mask="url(#prefix__l)"/>
            <path fill="#E7AD26" d="M55.844 244.664L55.844 244.661 56.213 240.482 56.777 234.099 57.193 229.392 58.189 218.085 67.501 218.085 68.185 225.805 68.574 230.248 69.105 236.269 69.105 236.272 69.497 240.714 69.852 244.711 69.143 247.027 67.592 252.102 65.486 258.992 63.932 264.067 62.857 267.588 61.975 264.707 60.703 260.552 58.98 254.916 57.708 250.762 55.985 245.125z" mask="url(#prefix__l)"/>
            <path fill="#F3BDCD" d="M56.776 234.099L68.575 230.246 68.183 225.804 57.191 229.393zM55.844 244.664L55.844 244.661 56.213 240.482 69.105 236.272 69.497 240.714 55.985 245.125zM57.709 250.761L58.98 254.915 67.593 252.102 69.144 247.027zM60.704 260.551L61.975 264.706 63.933 264.067 65.486 258.991zM59.66 222.454h6.37c3.593 0 6.072-3.587 4.794-6.935l-1.954-5.117c-.758-1.983-2.665-3.295-4.794-3.295h-2.46c-2.13 0-4.037 1.312-4.794 3.295l-1.955 5.117c-1.278 3.348 1.2 6.935 4.794 6.935" mask="url(#prefix__l)"/>
            <path fill="#AE436E" d="M39.842 192.37L39.842 192.37 49.02 187.213 62.846 207.107 48.172 219.591zM85.862 192.37L85.862 192.37 76.684 187.213 62.858 207.107 77.533 219.591z" mask="url(#prefix__l)"/>
            <path fill="#007D8D" d="M39.842 192.37l-7.603 24.156c-.275.875.183 1.813 1.043 2.135l5.9 2.213c1.484.558 1.502 2.645.026 3.225l-7.255 2.85c-1.096.432-1.451 1.807-.697 2.712l31.59 37.926-23.004-75.217zM85.862 192.37l7.603 24.156c.275.875-.182 1.813-1.043 2.135l-5.901 2.213c-1.484.558-1.501 2.645-.025 3.225l7.255 2.85c1.097.432 1.451 1.807.697 2.712l-31.59 37.926 23.004-75.217z" mask="url(#prefix__l)"/>
            <path fill="#D0D2D3" d="M49.033 183.415L62.846 198.462 62.858 198.462 76.671 183.415 76.684 187.213 62.858 207.107 62.846 207.107 49.019 187.213z" mask="url(#prefix__l)"/>
            <path fill="#F8E482" d="M30.666 254.246h9.204c1.59 0 2.879-1.29 2.879-2.88v-.67c0-1.59-1.29-2.88-2.88-2.88h-9.203c-1.59 0-2.88 1.29-2.88 2.88v.67c0 1.59 1.29 2.88 2.88 2.88" mask="url(#prefix__l)"/>
            <path fill="#2F968A" d="M158.777 234.566l.019-.038c-.034.133-.071.265-.108.397-.037.133-.077.265-.118.398-.04.128-.085.26-.129.389-.044.132-.092.26-.141.39-.095.25-.195.493-.301.739-.052.11-.1.22-.152.33-.07.156-.147.307-.224.458-.027.047-.052.095-.078.139-.071.14-.144.279-.225.416-.114.198-.232.393-.355.588-.047.077-.095.15-.147.225-.191.29-.395.573-.608.852-.052.07-.108.137-.162.203-.112.14-.226.28-.344.419l-29.878 34.786c-2.844 3.314-6.964 5.142-11.206 5.142-1.324 0-2.663-.177-3.976-.544-5.529-1.545-9.657-6.142-10.587-11.791l-.634-3.872-5.452-33.221c-1.313-8.016 4.139-15.582 12.18-16.894 8.045-1.306 15.629 4.126 16.945 12.143l.959 5.867 9.237-10.754c5.297-6.171 14.611-6.888 20.8-1.604 4.418 3.769 6.042 9.575 4.685 14.837" mask="url(#prefix__l)"/>
            <path fill="#007D8D" d="M158.796 234.528c-.033.133-.07.265-.107.397-.038.133-.078.265-.12.398-.04.128-.084.26-.127.39-.044.13-.092.26-.141.389-.096.25-.195.493-.302.739-.052.11-.1.22-.151.332-.071.154-.148.305-.225.456-.026.047-.052.095-.078.139-.07.14-.144.28-.225.416-.114.198-.232.393-.354.588-.048.077-.096.15-.148.225-.191.29-.394.573-.608.852-.052.07-.107.137-.162.203-.111.14-.226.28-.344.419l-29.878 34.786c-2.843 3.314-6.964 5.142-11.206 5.142-1.324 0-2.663-.177-3.975-.544-5.53-1.545-9.658-6.141-10.587-11.791l-.634-3.872c.015-.272-.023-.522-.122-.75.262.132 6.466 12.688 11.538 9.378 3.419-2.23 21.855-33.283 36.057-33.467 8.018-.103 10.907-2.637 11.899-4.825" mask="url(#prefix__l)"/>
            <path fill="#0E6DA0" d="M159.235 231.516c.002-.046.005-.092.006-.139l-.034-.015s.012.054.028.154" mask="url(#prefix__l)"/>
            <path fill="#6BA997" d="M125.686 220.064v10.124l-1.608 1.597-13.947 13.849v-37.549c0-11.363-10.73-15.457-11.402-15.703 14.958.431 26.957 12.659 26.957 27.682" mask="url(#prefix__l)"/>
            <path fill="#FFF" d="M142.78 231.369c2.973 3.608 8.317 4.13 11.937 1.167l9.866-8.082-10.767-13.067-9.867 8.082c-3.619 2.963-4.143 8.292-1.169 11.9" mask="url(#prefix__l)"/>
            <path fill="#D0D2D3" d="M148.455 224.924l1.768 2.145c4.134 5.018 11.567 5.745 16.6 1.622l10.738-8.795-16.741-20.319-10.738 8.795c-5.033 4.123-5.762 11.533-1.627 16.552" mask="url(#prefix__l)"/>
            <path fill="#FFF" d="M150.914 207.865l1.41 1.712c1.486 1.803 4.156 2.063 5.964.582 1.809-1.481 2.07-4.143.585-5.945l-1.411-1.712c-1.486-1.803-4.155-2.064-5.963-.583-1.81 1.48-2.07 4.143-.585 5.946M167.44 223.932c1.155 1.402 3.233 1.605 4.64.453l8.794-7.202c1.406-1.152 1.61-3.224.454-4.626-1.156-1.402-3.234-1.605-4.64-.453l-8.794 7.202c-1.406 1.152-1.61 3.224-.454 4.626" mask="url(#prefix__l)"/>
            <path fill="#FFF" d="M163.255 218.853c1.156 1.402 3.233 1.605 4.64.453l8.794-7.202c1.406-1.152 1.61-3.224.454-4.626-1.156-1.403-3.234-1.606-4.64-.454l-8.793 7.202c-1.407 1.152-1.61 3.224-.455 4.627" mask="url(#prefix__l)"/>
            <path fill="#FFF" d="M159.069 213.773c1.156 1.402 3.233 1.605 4.641.453l8.793-7.202c1.406-1.152 1.61-3.224.454-4.626-1.156-1.402-3.233-1.605-4.64-.453l-8.793 7.202c-1.407 1.152-1.61 3.224-.455 4.626" mask="url(#prefix__l)"/>
            <path fill="#FFF" d="M154.883 208.694c1.156 1.402 3.233 1.605 4.641.453l18.22-14.924c1.409-1.152 1.612-3.223.456-4.627-1.156-1.402-3.233-1.605-4.64-.453l-18.221 14.924c-1.407 1.152-1.61 3.224-.456 4.627" mask="url(#prefix__l)"/>
            <path fill="#596273" d="M194.74 58.408c-.322 0-.577.262-.577.577 0 .315.255.573.578.573h12.1c.327 0 .578-.258.578-.573 0-.315-.251-.577-.577-.577H194.74z" mask="url(#prefix__l)"/>
            <path fill="#F0CA67" d="M185.706 28.882c0-8.304 6.754-15.034 15.082-15.034 8.338 0 15.089 6.73 15.089 15.034 0 .495-.363 7.445-6.047 14.742-1.664 2.197-1.387 6.626-1.387 6.626H193.09s.317-4.429-1.34-6.626c-5.69-7.305-6.044-14.247-6.044-14.742" mask="url(#prefix__l)"/>
            <path fill="#F4DA80" d="M200.788 50.25h-7.698s.317-4.428-1.34-6.626c-5.691-7.305-6.044-14.247-6.044-14.742 0-8.304 6.754-15.034 15.082-15.034" mask="url(#prefix__l)"/>
            <path fill="#F4DA80" d="M212.664 28.882h-1.322c0-5.804-4.731-10.52-10.554-10.52v-1.319c6.555 0 11.876 5.31 11.876 11.84" mask="url(#prefix__l)"/>
            <path fill="#30363D" d="M204.084 51.428L202.78 51.208 205.356 35.663 206.66 35.883zM197.496 51.428L194.919 35.883 196.225 35.663 198.802 51.208z" mask="url(#prefix__l)"/>
            <path fill="#30363D" d="M205.922 37.852c-.534 0-.77-.523-.94-.907-.078-.16-.222-.494-.308-.494-.07.028-.172.29-.233.428-.151.388-.384.973-1.015.973-.375 0-.603-.377-.86-.814-.1-.162-.271-.446-.382-.556-.09.104-.224.33-.307.474-.277.461-.545.896-.956.896-.406 0-.668-.424-.93-.872-.091-.149-.24-.39-.328-.493-.104.105-.252.354-.35.516-.258.437-.507.85-.905.85-.442 0-.724-.474-1-.934-.09-.153-.22-.373-.3-.459-.11.038-.187.2-.316.52-.147.366-.342.872-.886.872v-.703c.07-.027.169-.286.225-.426.16-.392.39-.972 1.023-.972.375 0 .6.372.86.81.099.162.275.448.38.561.09-.108.23-.334.313-.477.279-.465.538-.894.956-.894.406 0 .66.421.932.868.092.153.23.39.326.498.1-.11.252-.359.347-.517.258-.438.508-.849.9-.849.446 0 .73.472.997.934.095.15.234.37.307.458.108-.04.19-.198.32-.52.142-.374.347-.872.882-.872.538 0 .775.523.947.908.07.161.218.49.3.49v.703zM208.473 50.258v7.865c0 .535-.437.974-.98.974h-13.389c-.538 0-.978-.439-.978-.974v-7.865h15.347z" mask="url(#prefix__l)"/>
            <path fill="#103754" d="M208.778 51.02L192.804 51.02" mask="url(#prefix__l)"/>
            <path fill="#596273" d="M208.778 51.79h-15.974c-.424 0-.775-.345-.775-.77 0-.427.351-.772.775-.772h15.974c.431 0 .774.345.774.772 0 .425-.343.77-.774.77" mask="url(#prefix__l)"/>
            <path fill="#30363D" d="M208.778 53.587L192.804 53.587" mask="url(#prefix__l)"/>
            <path fill="#596273" d="M208.778 54.358h-15.974c-.424 0-.775-.348-.775-.771 0-.422.351-.77.775-.77h15.974c.431 0 .774.348.774.77 0 .423-.343.77-.774.77" mask="url(#prefix__l)"/>
            <path fill="#30363D" d="M208.778 56.155L192.804 56.155" mask="url(#prefix__l)"/>
            <path fill="#596273" d="M208.778 56.927h-15.974c-.424 0-.775-.34-.775-.772 0-.424.351-.772.775-.772h15.974c.431 0 .774.348.774.772 0 .431-.343.772-.774.772" mask="url(#prefix__l)"/>
            <path stroke="#E7AD26" d="M200.788 8.544L200.788.289M190.221 11.377L186.083 4.221M182.493 19.087L175.314 14.955M179.668 29.618L171.38 29.618M219.087 40.136L226.268 44.272M221.921 29.607L230.206 29.607M219.087 19.077L226.262 14.945M211.348 11.37L215.492 4.215M200.788 8.544L200.788.289M200.798 8.544L200.798.289M211.354 11.377L215.499 4.221M219.087 19.087L226.268 14.955M221.921 29.618L230.206 29.618M182.493 40.136L175.314 44.272M179.668 29.607L171.38 29.607M182.502 19.077L175.32 14.945M190.237 11.37L186.092 4.215M200.798 8.544L200.798.289" mask="url(#prefix__l)"/>
        </g>
        <path fill="#FFF" d="M168.866 161.756c-.006-1.05-.381-1.935-1.127-2.655-.744-.719-1.993-1.373-3.758-1.947-2.448-.733-4.24-1.697-5.366-2.886-1.125-1.202-1.69-2.719-1.699-4.561-.007-1.88.534-3.422 1.63-4.633 1.091-1.209 2.593-1.929 4.515-2.163l-.013-3.766 2.568-.01.017 3.78c1.93.258 3.437 1.052 4.517 2.403 1.081 1.35 1.624 3.2 1.635 5.55l-3.171.013c-.007-1.625-.4-2.911-1.171-3.86-.778-.95-1.814-1.427-3.124-1.423-1.371.006-2.414.365-3.137 1.075-.723.71-1.082 1.696-1.075 2.96.005 1.172.389 2.099 1.158 2.797.766.686 2.03 1.316 3.784 1.87 1.754.569 3.128 1.184 4.112 1.865.984.678 1.709 1.469 2.184 2.37.463.904.703 1.964.711 3.179.008 1.935-.569 3.5-1.732 4.68-1.163 1.185-2.793 1.893-4.897 2.123l.016 3.279-2.554.008-.016-3.278c-2.136-.192-3.815-.943-5.034-2.262-1.218-1.32-1.831-3.113-1.839-5.377l3.189-.012c.005 1.593.43 2.814 1.272 3.674.843.858 2.034 1.281 3.574 1.273 1.506-.005 2.692-.376 3.55-1.1.857-.726 1.287-1.714 1.281-2.966" transform="translate(0 -1)"/>
        <text fill="#FFF" font-family="Roboto-Regular, Roboto" font-size="47" transform="translate(0 -1)">
            <tspan x="174.444" y="170.5">600</tspan>
        </text>
    </g>
</svg>
