<svg xmlns="http://www.w3.org/2000/svg" xmlns:xlink="http://www.w3.org/1999/xlink" width="273" height="263" viewBox="0 0 273 263">
    <defs>
        <path id="prefix__a" d="M0.001 0.074L273 0.074 273 129 0.001 129z"/>
        <path id="prefix__c" d="M0.282 0.355L248.717 0.355 248.717 117 0.282 117z"/>
        <path id="prefix__e" d="M0 262.841L273 262.841 273 0 0 0z"/>
    </defs>
    <g fill="none" fill-rule="evenodd">
        <path fill="#6BA997" d="M214.698 128.852v20.154c-2.65 3.08-5.528 5.958-8.61 8.612-.022.019-.045.04-.07.06-3.131 2.689-6.473 5.148-9.994 7.346-.82.512-1.65 1.008-2.49 1.492l-.012.006c-1.553.894-3.138 1.74-4.755 2.53h-.003c-6.578 3.225-13.651 5.583-21.078 6.936-1.872.341-3.764.618-5.68.827-.74.08-1.48.153-2.223.214-2.178.18-4.381.273-6.605.278h-.35c-2.21-.005-4.4-.099-6.562-.275-.008 0-.02 0-.031-.004-.745-.06-1.484-.132-2.224-.213-1.938-.213-3.854-.492-5.75-.84-7.403-1.353-14.456-3.71-21.011-6.922-1.62-.794-3.21-1.64-4.766-2.535-.84-.486-1.672-.982-2.491-1.494-3.547-2.213-6.91-4.692-10.065-7.406-3.08-2.654-5.96-5.532-8.608-8.612v-22.508c0-5.938 1.899-11.428 5.119-15.907 4.95-6.876 13.028-11.357 22.149-11.357h68.834c1.348 0 2.674.098 3.97.288 7.474 1.09 13.963 5.212 18.18 11.078 3.219 4.474 5.11 9.964 5.11 15.898v2.354h.016z"/>
        <path fill="#FFF" d="M112.484 133.914v32.604c-.84-.486-1.672-.983-2.491-1.495-3.547-2.212-6.91-4.691-10.065-7.406-3.08-2.652-5.96-5.531-8.608-8.611v-15.092h21.164zM214.698 133.914v15.092c-2.65 3.08-5.528 5.959-8.61 8.611l-.07.061c-3.131 2.688-6.473 5.147-9.994 7.345-.82.512-1.65 1.009-2.49 1.493v-32.602h21.164zM118.364 63.8c-3.221 0-5.831-2.611-5.831-5.831v-8.89c0-3.22 2.61-5.83 5.83-5.83 3.222 0 5.832 2.61 5.832 5.83v8.89c0 3.22-2.61 5.83-5.831 5.83"/>
        <path fill="#D0D2D3" d="M118.364 61.053c-3.221 0-5.831-2.61-5.831-5.831v2.747c0 3.22 2.61 5.83 5.83 5.83 3.222 0 5.832-2.61 5.832-5.83v-2.747c0 3.22-2.61 5.83-5.831 5.83"/>
        <path fill="#FFF" d="M187.654 63.8h-.001c-3.22 0-5.831-2.611-5.831-5.831v-8.89c0-3.22 2.61-5.83 5.83-5.83h.002c3.22 0 5.83 2.61 5.83 5.83v8.89c0 3.22-2.61 5.83-5.83 5.83"/>
        <path fill="#D0D2D3" d="M187.654 61.053c-3.221 0-5.832-2.61-5.832-5.831v2.747c0 3.22 2.61 5.83 5.832 5.83 3.22 0 5.83-2.61 5.83-5.83v-2.747c0 3.22-2.61 5.83-5.83 5.83"/>
        <path fill="#FFF" d="M139.438 80.807v18.427h-.01l.003.003c6.832 8.959 20.318 8.957 27.148-.003V80.807h-27.141z"/>
        <path fill="#FFF" d="M118.873 40.928c1.128-5.8 3.697-11.083 7.325-15.462 1.047-1.27 2.186-2.46 3.403-3.568 6.179-5.63 14.392-9.057 23.407-9.057.4 0 .803.007 1.203.024.136 0 .271.006.403.013 8.97.407 17.047 4.206 22.992 10.152 5.294 5.294 8.89 12.293 9.898 20.1.189 1.472.288 2.97.288 4.492v6.887c0 19.21-15.572 34.78-34.784 34.78-19.208 0-34.783-15.57-34.783-34.78v-6.887c0-1.477.092-2.931.272-4.358l.376-2.336z"/>
        <path fill="#D0D2D3" d="M153.008 83.796c-19.208 0-34.783-15.57-34.783-34.78v5.493c0 19.21 15.575 34.78 34.783 34.78 19.212 0 34.783-15.57 34.783-34.78v-5.493c0 19.21-15.57 34.78-34.783 34.78"/>
        <path fill="#4B6084" d="M118.873 40.928h3.322v16.669c0 1.087-.84 2.033-1.926 2.063-1.126.03-2.044-.87-2.044-1.982V45.687c0-1.61.218-3.21.648-4.76M187.792 45.427v12.18c0 1.009-.726 1.91-1.727 2.037-1.21.154-2.243-.785-2.243-1.966v-16.75h3.325c.428 1.462.645 2.977.645 4.499"/>
        <path fill="#4B6084" d="M154.211 12.865c-3.518 5.49-12.239 17.36-26.363 25.707-3.4 2.007-6.522 3.538-9.352 4.691.003-.003.003-.01.003-.013.841-6.71 3.594-12.829 7.698-17.784 1.047-1.27 2.186-2.46 3.404-3.569 6.178-5.63 14.391-9.056 23.407-9.056.4 0 .804.006 1.203.024"/>
        <path fill="#808F91" d="M187.503 43.13c-4.735 1.435-14.066 2.787-28.886-1.087-14.984-3.914-26.356-11.68-32.42-16.577 1.047-1.271 2.186-2.46 3.404-3.568 6.178-5.63 14.391-9.057 23.407-9.057.536 0 1.074.01 1.606.037 8.97.407 17.046 4.206 22.992 10.15 5.294 5.295 8.89 12.294 9.897 20.103"/>
        <path fill="#4B6084" d="M158.618 21.707c-6.562-1.714-12.43-4.166-17.464-6.793-4.312 1.563-8.227 3.953-11.553 6.983-1.217 1.109-2.356 2.298-3.403 3.569 6.064 4.897 17.436 12.663 32.42 16.577 14.819 3.874 24.15 2.521 28.886 1.088-.935-7.251-4.105-13.801-8.791-18.939-5.04.229-11.681-.286-20.095-2.485"/>
        <path fill="#808F91" d="M158.618 28.486c-9.58-2.503-17.681-6.579-23.864-10.475-1.838 1.136-3.564 2.438-5.153 3.886-1.217 1.11-2.356 2.298-3.403 3.568 6.064 4.898 17.436 12.664 32.42 16.578 14.819 3.874 24.15 2.521 28.886 1.088-.585-4.538-2.05-8.798-4.208-12.613-5.314.836-13.407.914-24.678-2.032"/>
        <path fill="#4B6084" d="M158.618 35.265c-12.293-3.212-22.151-9.014-28.646-13.698-.124.109-.25.219-.371.33-1.217 1.109-2.356 2.299-3.403 3.569 6.064 4.898 17.436 12.663 32.42 16.577 14.819 3.874 24.15 2.522 28.886 1.088-.283-2.2-.78-4.331-1.453-6.382-5.08 1.245-14.003 2.027-27.433-1.484"/>
        <path fill="#A62873" d="M153.008 66.03c-2.122 0-3.842-1.72-3.842-3.843v-5.054c0-2.122 1.72-3.84 3.842-3.84s3.842 1.718 3.842 3.84v5.054c0 2.122-1.72 3.842-3.842 3.842M139.79 50.294c0 1.623-1.315 2.938-2.939 2.938-1.621 0-2.936-1.315-2.936-2.938 0-1.622 1.315-2.938 2.936-2.938 1.624 0 2.939 1.316 2.939 2.938M172.103 50.294c0 1.623-1.315 2.938-2.938 2.938-1.623 0-2.937-1.315-2.937-2.938 0-1.622 1.314-2.938 2.937-2.938 1.623 0 2.938 1.316 2.938 2.938M153.008 76.315c-3.753 0-7.284-1.464-9.94-4.12-.35-.352-.35-.918 0-1.269.348-.349.917-.349 1.266 0 2.32 2.32 5.4 3.597 8.674 3.597 3.274 0 6.355-1.277 8.675-3.597.35-.349.917-.349 1.266 0 .35.351.35.917 0 1.268-2.657 2.657-6.187 4.121-9.94 4.121"/>
        <path fill="#F23E23" d="M153.008 173.248L152.992 173.266 152.998 173.285 153.009 173.249z"/>
        <path fill="#D1E391" d="M183.484 111.676c.498 3.495-.221.669-.001-.003-4.483-5.263-10.2-9.33-16.904-12.44v.002c-6.831 8.959-20.316 8.96-27.148.002l-.002-.002c-14.134 6.554-23.884 17.366-26.945 34.679v32.605c1.556.894 3.146 1.74 4.766 2.534 6.555 3.212 13.608 5.568 21.01 6.923 1.897.347 3.813.627 5.75.84.74.08 1.48.152 2.225.213.012.002.022.002.03.002l5.046.21 1.517.06v.015h.025l.152-.01h.003l.147.01h.023v-.014l1.528-.063 5.077-.21c.744-.061 1.483-.133 2.222-.213 1.917-.21 3.809-.487 5.68-.828 7.428-1.353 14.5-3.711 21.079-6.935h.003c1.616-.791 3.2-1.637 4.755-2.531v-32.608c-1.607-9.101-5.067-16.404-10.038-22.238"/>
        <path fill="#0E6DA0" d="M193.534 166.516l-.012-25.5-.003-7.102-4.752 35.139c1.617-.791 3.202-1.637 4.755-2.531l.012-.006zM117.25 169.053c-1.62-.794-3.21-1.64-4.766-2.534v-32.605l4.766 35.139zM166.579 99.233c-6.831 8.96-20.315 8.962-27.147.003l-.003-.003h-5.647c2.762 6.347 10.324 10.905 19.227 10.905 8.902 0 16.465-4.558 19.226-10.905h-5.656z"/>
        <path fill="#FFF" d="M98.128 131.356v2.291c0 2.413 1.956 4.37 4.37 4.37 2.412 0 4.368-1.957 4.368-4.37v-2.29c0-2.414-1.956-4.37-4.368-4.37-2.414 0-4.37 1.956-4.37 4.37M208.088 131.356v2.291c0 2.413-1.956 4.37-4.368 4.37-2.414 0-4.37-1.957-4.37-4.37v-2.29c0-2.414 1.956-4.37 4.37-4.37 2.412 0 4.368 1.956 4.368 4.37"/>
        <g transform="translate(0 133.841)">
            <mask id="prefix__b" fill="#fff">
                <use xlink:href="#prefix__a"/>
            </mask>
            <path fill="#427E7C" d="M273 .074V128.52c-.146.164-.284.323-.437.48H.438c-.153-.157-.292-.316-.438-.48V.074h273z" mask="url(#prefix__b)"/>
        </g>
        <g transform="translate(12 145.841)">
            <mask id="prefix__d" fill="#fff">
                <use xlink:href="#prefix__c"/>
            </mask>
            <path fill="#F8F6DE" d="M248.717 1.355L248.717 117 0.282 117 0.282 0.355z" mask="url(#prefix__d)"/>
        </g>
        <path fill="#D0D2D3" d="M99.098 129.343c-1.877 0-3.399 1.522-3.399 3.4v-1.746c0-1.877-1.523-3.4-3.4-3.4-1.878 0-3.4 1.523-3.4 3.4v1.746c0-1.878-1.522-3.4-3.4-3.4-1.877 0-3.399 1.522-3.399 3.4v1.746c0-1.878-1.523-3.401-3.399-3.401-1.878 0-3.4 1.523-3.4 3.4v8.244c0 1.878 1.522 3.399 3.4 3.399 1.876 0 3.4-1.521 3.4-3.4 0 1.879 1.521 3.4 3.398 3.4 1.878 0 3.4-1.521 3.4-3.4 0 1.879 1.522 3.4 3.4 3.4 1.877 0 3.4-1.521 3.4-3.4 0 1.879 1.522 3.4 3.4 3.4 1.877 0 3.398-1.521 3.398-3.4v-9.988c0-1.878-1.52-3.4-3.399-3.4M227.517 131.088c-1.878 0-3.399 1.522-3.399 3.4v-1.745c0-1.878-1.523-3.4-3.4-3.4-1.878 0-3.4 1.522-3.4 3.4v-1.746c0-1.877-1.522-3.4-3.4-3.4-1.877 0-3.399 1.523-3.399 3.4v1.746c0-1.878-1.523-3.4-3.399-3.4-1.878 0-3.401 1.522-3.401 3.4v9.989c0 1.877 1.523 3.399 3.401 3.399 1.876 0 3.399-1.522 3.399-3.4 0 1.878 1.522 3.4 3.399 3.4 1.878 0 3.4-1.522 3.4-3.4 0 1.878 1.522 3.4 3.4 3.4 1.877 0 3.4-1.522 3.4-3.4 0 1.878 1.521 3.4 3.399 3.4 1.878 0 3.399-1.522 3.399-3.4v-8.243c0-1.878-1.521-3.4-3.399-3.4"/>
        <path fill="#FFF" d="M99.098 141.768c1.878 0 3.4-1.522 3.4-3.399v-9.99c0-1.877-1.522-3.398-3.4-3.398S95.7 126.5 95.7 128.38v9.99c0 1.876 1.521 3.398 3.4 3.398M92.3 141.768c1.876 0 3.398-1.522 3.398-3.399v-11.734c0-1.879-1.522-3.4-3.399-3.4-1.878 0-3.4 1.522-3.4 3.4v11.734c0 1.877 1.522 3.4 3.4 3.4M85.5 141.768c1.877 0 3.398-1.522 3.398-3.399v-9.99c0-1.877-1.52-3.398-3.398-3.398-1.877 0-3.4 1.52-3.4 3.399v9.99c0 1.876 1.523 3.398 3.4 3.398"/>
        <path fill="#FFF" d="M78.7 141.768c1.878 0 3.4-1.522 3.4-3.399v-8.244c0-1.877-1.522-3.4-3.4-3.4-1.877 0-3.398 1.523-3.398 3.4v8.244c0 1.877 1.52 3.4 3.399 3.4M207.12 141.768c-1.878 0-3.4-1.522-3.4-3.399v-9.99c0-1.877 1.522-3.398 3.4-3.398 1.877 0 3.399 1.52 3.399 3.399v9.99c0 1.876-1.522 3.398-3.4 3.398M213.918 141.768c-1.878 0-3.399-1.522-3.399-3.399v-11.734c0-1.879 1.521-3.4 3.4-3.4 1.877 0 3.398 1.522 3.398 3.4v11.734c0 1.877-1.52 3.4-3.399 3.4M220.718 141.768c-1.878 0-3.4-1.522-3.4-3.399v-9.99c0-1.877 1.522-3.398 3.4-3.398 1.877 0 3.4 1.52 3.4 3.399v9.99c0 1.876-1.523 3.398-3.4 3.398M227.517 141.768c-1.878 0-3.399-1.522-3.399-3.399v-8.244c0-1.877 1.521-3.4 3.399-3.4 1.878 0 3.399 1.523 3.399 3.4v8.244c0 1.877-1.521 3.4-3.399 3.4"/>
        <mask id="prefix__f" fill="#fff">
            <use xlink:href="#prefix__e"/>
        </mask>
        <path fill="#427E7C" d="M0 262.841L273 262.841 273 250.56 0 250.56z" mask="url(#prefix__f)"/>
        <path fill="#F0CA67" d="M79.956 54.816V98.63c0 1.937-.843 3.678-2.183 4.877-1.155 1.035-2.686 1.667-4.362 1.667H32.505c-3.613 0-6.545-2.927-6.545-6.544V54.816c0-3.612 2.932-6.544 6.545-6.544H73.41c3.614 0 6.546 2.932 6.546 6.544" mask="url(#prefix__f)"/>
        <path fill="#821F22" d="M73.41 102.257H32.507c-3.615 0-6.545-2.93-6.545-6.544v2.918c0 3.614 2.93 6.544 6.545 6.544H73.41c3.614 0 6.545-2.93 6.545-6.544v-2.918c0 3.614-2.931 6.544-6.545 6.544" mask="url(#prefix__f)"/>
        <path fill="#A00B0F" d="M36.905 54.742h-.422c-1.215 0-2.198-.984-2.198-2.198v-8.54c0-1.215.983-2.2 2.198-2.2h.422c1.214 0 2.198.985 2.198 2.2v8.54c0 1.214-.984 2.198-2.198 2.198M47.748 54.742h-.422c-1.215 0-2.199-.984-2.199-2.198v-8.54c0-1.215.984-2.2 2.198-2.2h.422c1.215 0 2.199.985 2.199 2.2v8.54c0 1.214-.983 2.198-2.198 2.198M58.59 54.742h-.422c-1.214 0-2.198-.984-2.198-2.198v-8.54c0-1.215.984-2.2 2.198-2.2h.422c1.215 0 2.2.985 2.2 2.2v8.54c0 1.214-.985 2.198-2.2 2.198M69.434 54.742h-.423c-1.214 0-2.198-.984-2.198-2.198v-8.54c0-1.215.984-2.2 2.198-2.2h.423c1.214 0 2.198.985 2.198 2.2v8.54c0 1.214-.984 2.198-2.198 2.198" mask="url(#prefix__f)"/>
        <path fill="#509D9B" d="M33.491 69.549L43.85 69.549 43.85 59.191 33.491 59.191z" mask="url(#prefix__f)"/>
        <path fill="#FFF" d="M47.778 69.549L58.138 69.549 58.138 59.191 47.778 59.191zM62.066 69.549L72.425 69.549 72.425 59.191 62.066 59.191zM33.491 83.318L43.85 83.318 43.85 72.959 33.491 72.959zM47.778 83.318L58.138 83.318 58.138 72.959 47.778 72.959zM62.066 83.318L72.425 83.318 72.425 72.959 62.066 72.959zM33.491 97.087L43.85 97.087 43.85 86.729 33.491 86.729z" mask="url(#prefix__f)"/>
        <path fill="#509D9B" d="M47.778 97.087L58.138 97.087 58.138 86.729 47.778 86.729z" mask="url(#prefix__f)"/>
        <path fill="#FFF" d="M62.066 97.087L72.425 97.087 72.425 86.729 62.066 86.729z" mask="url(#prefix__f)"/>
        <path fill="#974413" d="M79.956 62.583V98.63c0 1.936-.843 3.678-2.183 4.877-6.53-4.189-10.855-11.509-10.855-19.838 0-9.232 5.306-17.221 13.037-21.086" mask="url(#prefix__f)"/>
        <path fill="#F0CA67" d="M109.93 79.304c0 10.74-8.709 19.447-19.45 19.447-10.74 0-19.448-8.706-19.448-19.447 0-10.74 8.708-19.447 19.448-19.447 10.741 0 19.45 8.707 19.45 19.447" mask="url(#prefix__f)"/>
        <path fill="#FFF" d="M96.316 85.768c-.448 0-.9-.138-1.29-.423l-5.836-4.282c-.56-.41-.891-1.064-.891-1.76V67.008c0-1.205.977-2.181 2.182-2.181s2.182.976 2.182 2.18V78.2l4.945 3.628c.972.712 1.182 2.078.469 3.048-.428.583-1.09.892-1.761.892" mask="url(#prefix__f)"/>
        <path fill="#E7AD26" d="M192.702 28.007h-79.384c-2.214 0-4.01 1.795-4.01 4.008 0 2.214 1.796 4.009 4.01 4.009h79.384c2.213 0 4.008-1.795 4.008-4.01 0-2.212-1.795-4.007-4.008-4.007" mask="url(#prefix__f)"/>
        <path fill="#FDDD39" d="M188.141 28.007h-70.264c0-1.843.177-3.641.52-5.384.104-.553.23-1.105.371-1.648.558-2.162 1.368-4.22 2.401-6.147.298-.561.617-1.112.952-1.65 1.435-2.292 3.192-4.364 5.205-6.145.658-.586 1.34-1.136 2.05-1.65C134.004 1.997 139.71 0 145.881 0h14.256c6.174 0 11.88 1.999 16.505 5.384.71.517 1.393 1.063 2.048 1.649.426.374.842.766 1.247 1.17 1.5 1.5 2.83 3.167 3.956 4.976.34.537.658 1.088.956 1.649 1.033 1.927 1.844 3.985 2.401 6.147.142.543.267 1.095.37 1.648.344 1.743.521 3.54.521 5.384" mask="url(#prefix__f)"/>
        <path fill="#FFF234" d="M176.642 5.384h-47.266c-.71.513-1.392 1.063-2.05 1.649h51.364c-.655-.586-1.338-1.132-2.048-1.65m7.251 7.796h-61.772c-.335.537-.654 1.088-.952 1.649h63.68c-.298-.561-.616-1.112-.956-1.65m3.357 7.797h-68.482c-.142.543-.267 1.095-.371 1.648h69.224c-.104-.553-.229-1.105-.371-1.648" mask="url(#prefix__f)"/>
        <text fill="#6BA997" font-family="Roboto-Bold, Roboto" font-size="31.2" font-weight="bold" letter-spacing="1.352">
            <tspan x="32.495" y="188">2020</tspan>
        </text>
        <text fill="#DC5555" font-family="PingFangTC-Semibold, PingFang TC" font-size="21.2" font-weight="500" letter-spacing=".919" transform="rotate(-8 198.613 181.684)">
            <tspan x="143.317" y="178.184">限時使用！</tspan>
        </text>
        <text fill="#267DBE" font-family="LucidaGrande-Bold, Lucida Grande" font-size="39" font-weight="bold" letter-spacing="6.39">
            <tspan x="29.661" y="229">6</tspan> <tspan x="61.779" y="229" font-family="PingFangTC-Semibold, PingFang TC" font-weight="500">月底上線</tspan>
        </text>
    </g>
</svg>
