<svg xmlns="http://www.w3.org/2000/svg" xmlns:xlink="http://www.w3.org/1999/xlink" width="313" height="297" viewBox="0 0 313 297">
    <defs>
        <path id="prefix__a" d="M0 297L312.981 297 312.981 0.05 0 0.05z"/>
        <path id="prefix__c" d="M.13 54.296c0 29.884 23.931 54.114 53.445 54.114 29.521 0 53.449-24.23 53.449-54.114 0-29.892-23.928-54.12-53.449-54.12C24.057.176.13 24.404.13 54.296z"/>
        <path id="prefix__e" d="M.031.243c0 20.453 16.573 37.034 37.016 37.034V.243H.031z"/>
        <path id="prefix__g" d="M.031 37.344h37.016V.31C16.604.31.031 16.891.031 37.344z"/>
        <path id="prefix__i" d="M.106.249v37.033c20.443 0 37.015-16.58 37.015-37.033H.106z"/>
        <path id="prefix__k" d="M0.888 0.05L1.888 0.05 1.888 8.305 0.888 8.305z"/>
        <path id="prefix__m" d="M0.888 0.05L1.888 0.05 1.888 8.305 0.888 8.305z"/>
        <path id="prefix__o" d="M0.896 0.05L1.897 0.05 1.897 8.305 0.896 8.305z"/>
        <path id="prefix__q" d="M0.896 0.05L1.897 0.05 1.897 8.305 0.896 8.305z"/>
    </defs>
    <g fill="none" fill-rule="evenodd">
        <g transform="translate(0 -1) translate(0 .95)">
            <path fill="#67B0D0" d="M21.212 158.656c1.026 0 2.058-.053 3.093-.16 7.835-.812 14.887-4.63 19.859-10.752l-9.168-7.445c-2.982 3.671-7.212 5.962-11.91 6.449-4.698.488-9.306-.888-12.978-3.87l-7.446 9.168c5.313 4.315 11.805 6.61 18.55 6.61"/>
            <path fill="#D84479" d="M21.212 154.931c1.026 0 2.058-.054 3.093-.16 6.869-.713 13.136-3.736 17.928-8.596l1.93 1.57c-4.971 6.121-12.023 9.94-19.858 10.75-1.035.108-2.067.161-3.093.161-6.745 0-13.237-2.295-18.55-6.61l1.883-2.319c4.93 3.403 10.698 5.204 16.667 5.204"/>
            <path fill="#67B0D0" d="M5.89 180.8c1.24 0 2.664-.094 4.235-.35 4.662-.76 11.745-3.191 19.014-10.462 13.724-13.722 11.452-39.822 11.35-40.927l-11.761 1.093c.544 6.004.179 23.364-7.941 31.483-9.013 9.014-16.68 7.226-16.753 7.202L.618 180.147c.466.14 2.369.654 5.273.654"/>
            <path fill="#D84479" d="M2.643 177.338c1.24 0 2.663-.094 4.234-.35 4.662-.76 11.745-3.192 19.014-10.462 10.8-10.801 11.694-29.266 11.534-37.18l3.064-.284c.102 1.104 2.374 27.204-11.35 40.927-7.27 7.27-14.352 9.702-19.014 10.462-1.571.256-2.994.35-4.234.35-2.904 0-4.807-.514-5.273-.654l.857-2.837c.369.017.758.028 1.168.028"/>
            <mask id="prefix__b" fill="#fff">
                <use xlink:href="#prefix__a"/>
            </mask>
            <path fill="#5BA7D2" d="M111.03 184.017L296.122 184.017 296.122 65.527 111.03 65.527z" mask="url(#prefix__b)"/>
            <path fill="#3490B4" d="M103.219 199.424L303.934 199.424 303.934 79.404 103.219 79.404z" mask="url(#prefix__b)"/>
            <path fill="#1C789D" d="M95.146 213.303L312.003 213.303 312.003 93.284 95.146 93.284z" mask="url(#prefix__b)"/>
        </g>
        <g transform="translate(0 -1) translate(150 99.95)">
            <mask id="prefix__d" fill="#fff">
                <use xlink:href="#prefix__c"/>
            </mask>
            <path fill="#FFF" d="M-0.804 109.344L107.957 109.344 107.957 -0.756 -0.804 -0.756z" mask="url(#prefix__d)"/>
        </g>
        <path fill="#A6DD7B" d="M284.901 163.942c-5.352 0-9.696-4.348-9.696-9.7 0-5.355 4.344-9.696 9.696-9.696 5.352 0 9.695 4.34 9.695 9.696 0 5.352-4.343 9.7-9.695 9.7" transform="translate(0 -1)"/>
        <g transform="translate(0 -1) translate(275 93.95)">
            <mask id="prefix__f" fill="#fff">
                <use xlink:href="#prefix__e"/>
            </mask>
            <path fill="#9CDCE0" d="M-0.901 38.209L37.981 38.209 37.981 -0.691 -0.901 -0.691z" mask="url(#prefix__f)"/>
        </g>
        <g transform="translate(0 -1) translate(275 176.95)">
            <mask id="prefix__h" fill="#fff">
                <use xlink:href="#prefix__g"/>
            </mask>
            <path fill="#9CDCE0" d="M-0.901 38.277L37.981 38.277 37.981 -0.623 -0.901 -0.623z" mask="url(#prefix__h)"/>
        </g>
        <g>
            <path fill="#A6DD7B" d="M27.25.596c5.352 0 9.696 4.346 9.696 9.7 0 5.354-4.344 9.695-9.696 9.695-5.35 0-9.694-4.341-9.694-9.694 0-5.355 4.344-9.702 9.694-9.702" transform="translate(0 -1) translate(95 143.95)"/>
            <path fill="#9CDCE0" d="M.105 33.31v37.034h37.017C37.121 49.89 20.548 33.31.104 33.31" transform="translate(0 -1) translate(95 143.95)"/>
        </g>
        <g transform="translate(0 -1) translate(95 93.95)">
            <mask id="prefix__j" fill="#fff">
                <use xlink:href="#prefix__i"/>
            </mask>
            <path fill="#9CDCE0" d="M0.155 -0.081L39.269 -0.116 39.269 38.784 0.105 39.118z" mask="url(#prefix__j)"/>
        </g>
        <g>
            <path fill="#596273" d="M195.34 58.169c-.322 0-.577.262-.577.577 0 .315.255.573.578.573h12.1c.326 0 .578-.258.578-.573 0-.315-.252-.577-.578-.577h-12.1z" transform="translate(0 -1) translate(0 .95)"/>
            <path fill="#F0CA67" d="M186.306 28.643c0-8.304 6.754-15.035 15.082-15.035 8.338 0 15.089 6.731 15.089 15.035 0 .495-.363 7.445-6.047 14.741-1.664 2.198-1.387 6.627-1.387 6.627H193.69s.317-4.429-1.34-6.627c-5.69-7.304-6.044-14.246-6.044-14.74" transform="translate(0 -1) translate(0 .95)"/>
            <path fill="#F4DA80" d="M201.388 50.011h-7.698s.317-4.428-1.34-6.627c-5.691-7.303-6.044-14.245-6.044-14.74 0-8.304 6.754-15.035 15.082-15.035M213.264 28.643h-1.322c0-5.804-4.732-10.52-10.554-10.52v-1.319c6.555 0 11.876 5.31 11.876 11.84" transform="translate(0 -1) translate(0 .95)"/>
            <path fill="#30363D" d="M204.684 51.188L203.38 50.969 205.956 35.424 207.26 35.644zM198.095 51.188L195.519 35.644 196.825 35.424 199.402 50.969z" transform="translate(0 -1) translate(0 .95)"/>
            <path fill="#30363D" d="M206.522 37.613c-.535 0-.77-.524-.94-.907-.078-.161-.222-.495-.308-.495-.07.029-.173.29-.233.429-.151.388-.385.973-1.016.973-.375 0-.602-.377-.86-.815-.099-.161-.27-.445-.381-.555-.09.104-.224.33-.308.474-.276.461-.544.896-.957.896-.405 0-.667-.424-.928-.872-.091-.149-.24-.391-.329-.493-.103.105-.251.354-.35.516-.258.437-.507.849-.905.849-.442 0-.724-.474-.999-.934-.09-.153-.22-.372-.3-.458-.112.038-.188.199-.316.52-.148.366-.343.872-.886.872v-.703c.07-.027.168-.287.225-.426.159-.392.39-.972 1.023-.972.375 0 .6.372.86.809.099.163.273.449.379.562.091-.108.23-.334.314-.477.279-.465.537-.894.956-.894.404 0 .66.421.931.868.093.153.23.39.326.498.101-.111.252-.359.347-.517.258-.438.508-.849.901-.849.446 0 .73.472.996.933.095.15.234.371.307.459.108-.04.191-.198.32-.521.142-.373.347-.871.883-.871.537 0 .774.523.946.908.072.16.219.49.302.49v.703zM209.073 50.02v7.864c0 .535-.437.974-.98.974h-13.389c-.538 0-.978-.439-.978-.974V50.02h15.347z" transform="translate(0 -1) translate(0 .95)"/>
            <path fill="#103754" d="M209.378 50.781L193.404 50.781" transform="translate(0 -1) translate(0 .95)"/>
            <path fill="#596273" d="M209.378 51.55h-15.974c-.424 0-.775-.344-.775-.77 0-.427.35-.772.775-.772h15.974c.43 0 .774.345.774.773 0 .425-.343.77-.774.77" transform="translate(0 -1) translate(0 .95)"/>
            <path fill="#30363D" d="M209.378 53.348L193.404 53.348" transform="translate(0 -1) translate(0 .95)"/>
            <path fill="#596273" d="M209.378 54.119h-15.974c-.424 0-.775-.348-.775-.771 0-.422.35-.771.775-.771h15.974c.43 0 .774.349.774.77 0 .424-.343.772-.774.772" transform="translate(0 -1) translate(0 .95)"/>
            <path fill="#30363D" d="M209.378 55.915L193.404 55.915" transform="translate(0 -1) translate(0 .95)"/>
            <path fill="#596273" d="M209.378 56.687h-15.974c-.424 0-.775-.34-.775-.772 0-.423.35-.77.775-.77h15.974c.43 0 .774.347.774.77 0 .432-.343.772-.774.772" transform="translate(0 -1) translate(0 .95)"/>
            <g transform="translate(0 -1) translate(0 .95) translate(200)">
                <mask id="prefix__l" fill="#fff">
                    <use xlink:href="#prefix__k"/>
                </mask>
                <path stroke="#E7AD26" d="M1.388 8.305L1.388 0.049" mask="url(#prefix__l)"/>
            </g>
            <path stroke="#E7AD26" d="M190.821 11.138L186.683 3.982M183.093 18.848L175.914 14.716M180.268 29.379L171.979 29.379M219.685 39.897L226.868 44.033M222.52 29.368L230.805 29.368M219.685 18.838L226.862 14.706M211.948 11.131L216.092 3.976" transform="translate(0 -1) translate(0 .95)"/>
            <g transform="translate(0 -1) translate(0 .95) translate(200)">
                <mask id="prefix__n" fill="#fff">
                    <use xlink:href="#prefix__m"/>
                </mask>
                <path stroke="#E7AD26" d="M1.388 8.305L1.388 0.049" mask="url(#prefix__n)"/>
            </g>
            <g transform="translate(0 -1) translate(0 .95) translate(200)">
                <mask id="prefix__p" fill="#fff">
                    <use xlink:href="#prefix__o"/>
                </mask>
                <path stroke="#E7AD26" d="M1.397 8.305L1.397 0.049" mask="url(#prefix__p)"/>
            </g>
            <path stroke="#E7AD26" d="M211.954 11.138L216.098 3.982M219.685 18.848L226.868 14.716M222.52 29.379L230.805 29.379M183.093 39.897L175.914 44.033M180.268 29.368L171.979 29.368M183.102 18.838L175.92 14.706M190.837 11.131L186.692 3.976" transform="translate(0 -1) translate(0 .95)"/>
            <g transform="translate(0 -1) translate(0 .95) translate(200)">
                <mask id="prefix__r" fill="#fff">
                    <use xlink:href="#prefix__q"/>
                </mask>
                <path stroke="#E7AD26" d="M1.397 8.305L1.397 0.049" mask="url(#prefix__r)"/>
            </g>
            <path fill="#A6DD7B" d="M125.69 221.351v20.532c-2.698 3.138-5.632 6.072-8.772 8.773l-.07.061c-3.19 2.74-6.596 5.245-10.181 7.485-.835.521-1.683 1.028-2.538 1.52-.003.003-.005.003-.011.006-1.582.911-3.198 1.772-4.844 2.58h-.004c-6.7 3.283-13.906 5.687-21.472 7.064-1.907.348-3.837.63-5.788.843-.753.082-1.506.156-2.264.217-2.218.185-4.462.278-6.728.284h-.358c-2.25-.006-4.48-.099-6.683-.28-.01 0-.02 0-.032-.004-.76-.06-1.514-.135-2.267-.217-1.973-.217-3.925-.5-5.856-.855-7.543-1.38-14.729-3.78-21.406-7.053-1.65-.81-3.27-1.67-4.855-2.582-.855-.495-1.703-1.002-2.538-1.523-3.612-2.254-.41-12.32-3.625-15.085-3.14-2.703-4.378-5.76-7.076-8.899L0 218.951c0-6.048 1.933-11.642 5.214-16.204 5.043-7.006 13.273-11.572 22.564-11.572h70.123c1.374 0 2.725.1 4.047.293 7.612 1.111 14.222 5.31 18.519 11.287 3.28 4.557 5.206 10.151 5.206 16.196v2.4h.015z" transform="translate(0 -1) translate(0 .95)"/>
            <path fill="#A6DD7B" d="M104.117 236.052v23.677c-1.582.91-3.197 1.772-4.844 2.579h-.003c-6.7 3.284-13.907 5.687-21.472 7.064-1.908.349-3.836.63-5.787.844-.753.082-1.506.154-2.266.216l-5.172.214-1.556.065v.014h-.023l-.149-.009h-.003l-.156.01h-.026v-.015l-1.544-.062-5.14-.214c-.008 0-.02 0-.032-.002-.759-.063-1.513-.135-2.265-.217-1.975-.218-3.926-.502-5.858-.856-7.542-1.38-14.727-3.78-21.405-7.053-1.65-.81-3.27-1.67-4.856-2.582v-33.217c3.12-17.64 13.052-28.655 27.451-35.333l13.831 26.8 13.828-26.8c6.83 3.168 12.652 7.311 17.22 12.673-.93 2.84-1.438 5.872-1.438 9.022 0 9.498 4.586 17.922 11.665 23.181" transform="translate(0 -1) translate(0 .95)"/>
            <path fill="#FFF" d="M49.01 191.175L36.156 191.175 46.762 230.946 62.84 217.978zM76.675 191.175L89.529 191.175 78.923 230.946 62.845 217.978zM27.55 155.075c-3.28 0-5.94-2.66-5.94-5.94v-9.057c0-3.28 2.66-5.94 5.94-5.94 3.282 0 5.94 2.66 5.94 5.94v9.057c0 3.28-2.658 5.94-5.94 5.94" transform="translate(0 -1) translate(0 .95)"/>
            <path fill="#D0D2D3" d="M27.55 152.276c-3.28 0-5.94-2.659-5.94-5.94v2.798c0 3.281 2.66 5.941 5.94 5.941 3.282 0 5.94-2.66 5.94-5.94v-2.799c0 3.281-2.658 5.94-5.94 5.94" transform="translate(0 -1) translate(0 .95)"/>
            <path fill="#FFF" d="M98.139 155.075c-3.28 0-5.94-2.66-5.94-5.94v-9.057c0-3.28 2.66-5.94 5.94-5.94 3.28 0 5.94 2.66 5.94 5.94v9.057c0 3.28-2.66 5.94-5.94 5.94" transform="translate(0 -1) translate(0 .95)"/>
            <path fill="#D0D2D3" d="M98.139 152.276c-3.28 0-5.94-2.659-5.94-5.94v2.798c0 3.281 2.66 5.941 5.94 5.941 3.28 0 5.94-2.66 5.94-5.94v-2.799c0 3.281-2.66 5.94-5.94 5.94" transform="translate(0 -1) translate(0 .95)"/>
            <path fill="#FFF" d="M49.02 172.402v18.772h-.01l.003.004c6.96 9.127 20.697 9.125 27.655-.004h.001v-18.772H49.02z" transform="translate(0 -1) translate(0 .95)"/>
            <path fill="#67B0D0" d="M49.013 191.179l13.829 26.797 13.828-26.8h-.001c-6.96 9.128-20.695 9.13-27.656.003" transform="translate(0 -1) translate(0 .95)"/>
            <path fill="#FFF" d="M28.07 131.773c1.15-5.908 3.767-11.29 7.461-15.753 1.067-1.295 2.227-2.507 3.467-3.636 6.295-5.735 14.662-9.226 23.846-9.226.408 0 .82.007 1.226.024.14 0 .276.007.411.014 9.137.414 17.365 4.285 23.422 10.342 5.394 5.393 9.058 12.524 10.083 20.48.193 1.498.293 3.025.293 4.574v7.017c0 19.572-15.862 35.435-35.435 35.435-19.568 0-35.434-15.863-35.434-35.435v-7.017c0-1.505.093-2.986.276-4.44l.383-2.379z" transform="translate(0 -1) translate(0 .95)"/>
            <path fill="#D0D2D3" d="M62.845 175.448c-19.568 0-35.435-15.863-35.435-35.436v5.597c0 19.572 15.867 35.436 35.435 35.436 19.572 0 35.435-15.864 35.435-35.436v-5.597c0 19.573-15.863 35.436-35.435 35.436" transform="translate(0 -1) translate(0 .95)"/>
            <path fill="#4B6084" d="M28.07 131.773h3.383v16.981c0 1.108-.855 2.073-1.962 2.103-1.146.031-2.08-.885-2.08-2.02v-12.216c0-1.638.221-3.269.658-4.848M98.28 136.356v12.41c0 1.028-.739 1.945-1.759 2.075-1.233.157-2.285-.8-2.285-2.004v-17.064h3.387c.435 1.488.656 3.032.656 4.583" transform="translate(0 -1) translate(0 .95)"/>
            <path fill="#4B6084" d="M64.07 103.182c-3.584 5.594-12.469 17.687-26.857 26.191-3.463 2.044-6.644 3.605-9.527 4.78.003-.004.003-.01.003-.015.857-6.837 3.66-13.069 7.842-18.118 1.067-1.295 2.227-2.507 3.467-3.636 6.295-5.735 14.662-9.226 23.846-9.226.408 0 .82.006 1.226.024" transform="translate(0 -1) translate(0 .95)"/>
            <path fill="#808F91" d="M97.986 134.017c-4.824 1.461-14.33 2.84-29.427-1.108-15.265-3.989-26.85-11.899-33.028-16.889 1.067-1.295 2.227-2.507 3.467-3.636 6.295-5.735 14.662-9.226 23.846-9.226.546 0 1.095.01 1.637.038 9.137.414 17.365 4.285 23.422 10.342 5.394 5.393 9.058 12.524 10.083 20.48" transform="translate(0 -1) translate(0 .95)"/>
            <path fill="#4B6084" d="M68.56 112.191c-6.685-1.746-12.663-4.245-17.791-6.92-4.394 1.591-8.382 4.026-11.771 7.113-1.24 1.13-2.4 2.341-3.466 3.636 6.177 4.99 17.762 12.9 33.028 16.89 15.097 3.946 24.603 2.568 29.427 1.107-.952-7.387-4.182-14.059-8.956-19.294-5.133.233-11.9-.29-20.471-2.532" transform="translate(0 -1) translate(0 .95)"/>
            <path fill="#808F91" d="M68.56 119.097c-9.76-2.55-18.013-6.703-24.312-10.67-1.873 1.156-3.63 2.482-5.25 3.957-1.24 1.13-2.4 2.341-3.466 3.636 6.177 4.99 17.762 12.9 33.028 16.89 15.097 3.946 24.603 2.568 29.427 1.107-.596-4.622-2.088-8.963-4.287-12.85-5.413.853-13.66.932-25.14-2.07" transform="translate(0 -1) translate(0 .95)"/>
            <path fill="#4B6084" d="M68.56 126.004c-12.523-3.272-22.567-9.183-29.183-13.956l-.38.337c-1.238 1.129-2.398 2.34-3.465 3.636 6.177 4.99 17.762 12.9 33.028 16.888 15.097 3.948 24.603 2.57 29.427 1.109-.29-2.241-.794-4.412-1.482-6.501-5.174 1.267-14.263 2.063-27.945-1.513" transform="translate(0 -1) translate(0 .95)"/>
            <path fill="#A62873" d="M62.845 157.346c-2.161 0-3.914-1.752-3.914-3.914v-5.149c0-2.162 1.753-3.915 3.914-3.915 2.162 0 3.914 1.753 3.914 3.915v5.15c0 2.161-1.752 3.913-3.914 3.913M49.378 141.315c0 1.653-1.34 2.993-2.992 2.993-1.654 0-2.993-1.34-2.993-2.993 0-1.652 1.339-2.992 2.993-2.992 1.652 0 2.992 1.34 2.992 2.992M82.297 141.315c0 1.653-1.34 2.993-2.992 2.993-1.654 0-2.993-1.34-2.993-2.993 0-1.652 1.339-2.992 2.993-2.992 1.652 0 2.992 1.34 2.992 2.992M62.845 167.826c-3.823 0-7.42-1.491-10.128-4.198-.356-.358-.356-.935 0-1.291.357-.357.936-.357 1.29 0C56.37 164.699 59.51 166 62.846 166c3.336 0 6.475-1.301 8.837-3.663.356-.357.934-.357 1.29 0 .357.356.357.933 0 1.29-2.706 2.708-6.303 4.199-10.127 4.199" transform="translate(0 -1) translate(0 .95)"/>
            <path fill="#EE599C" d="M62.845 266.581L62.828 266.6 62.835 266.619 62.846 266.582z" transform="translate(0 -1) translate(0 .95)"/>
            <path fill="#B7B3AD" d="M112.509 199.579v23.482c0 3.64 2.962 6.594 6.614 6.594h7.163v-6.153c0-10.205-5.537-19.12-13.777-23.923m69.526 16.553c-1.133-1.527-3.297-1.78-4.747-.588 1.407-1.154 1.609-3.225.454-4.626-1.154-1.405-3.235-1.608-4.64-.456 1.405-1.152 1.612-3.222.454-4.627-.65-.791-1.594-1.198-2.55-1.198-.733 0-1.475.242-2.091.746l9.429-7.723c1.584-1.295 1.644-3.75-.036-5.111-1.222-.991-3.002-.906-4.22.09l-16.117 13.204c-1.501-1.71-4.102-1.94-5.872-.486-1.018.834-1.545 2.04-1.545 3.262 0 .9.29 1.81.88 2.578l-.751.614c-2.501 2.048-3.94 4.91-4.246 7.88-4.596-.411-9.318 1.318-12.545 5.08l-4.194 4.884h35.743c3.234 0 6.369-1.12 8.872-3.168l1.549-1.267 5.475-4.488c1.377-1.128 1.759-3.172.698-4.6" transform="translate(0 -1) translate(0 .95)"/>
            <path fill="#A6DD7B" d="M159.377 234.327l.019-.038c-.035.133-.071.265-.108.397-.037.132-.077.265-.118.397-.04.129-.085.262-.129.39-.044.132-.093.26-.141.39-.095.25-.195.492-.301.739-.052.11-.1.22-.152.33-.07.156-.147.306-.225.457l-.077.14c-.071.14-.144.279-.225.415-.114.199-.232.394-.355.589-.047.077-.095.15-.147.225-.192.29-.395.573-.608.852-.052.07-.108.136-.162.202-.112.14-.226.28-.344.42l-29.878 34.786c-2.844 3.314-6.964 5.142-11.206 5.142-1.324 0-2.663-.177-3.976-.544-5.529-1.545-9.657-6.143-10.587-11.791l-.634-3.872-3.496-33.632c-1.312-8.016 2.183-15.171 10.224-16.483 8.045-1.306 15.629 4.126 16.945 12.143l.959 5.866 9.237-10.753c5.297-6.171 14.611-6.89 20.8-1.604 4.418 3.769 6.042 9.575 4.685 14.837" transform="translate(0 -1) translate(0 .95)"/>
            <path fill="#6CB37B" d="M159.395 234.289c-.034.133-.07.265-.107.397-.038.132-.078.265-.119.397-.04.129-.085.262-.127.39-.044.132-.094.26-.142.39-.096.25-.195.492-.302.739-.052.11-.099.22-.15.332-.072.154-.149.304-.227.455-.025.048-.052.096-.077.14-.07.14-.144.28-.225.415-.114.199-.232.394-.354.589-.047.077-.095.15-.148.225-.191.29-.393.573-.607.852-.053.07-.108.136-.162.202-.112.14-.226.28-.344.42l-29.879 34.786c-2.843 3.314-6.963 5.142-11.206 5.142-1.323 0-2.662-.177-3.974-.544-5.53-1.545-9.659-6.142-10.588-11.791l-.633-3.872c.014-.272-.023-.522-.123-.751.263.133 6.467 12.689 11.538 9.378 3.42-2.228 21.855-33.282 36.056-33.466 8.02-.103 10.907-2.637 11.9-4.825" transform="translate(0 -1) translate(0 .95)"/>
            <path fill="#0E6DA0" d="M159.835 231.277c.002-.046.005-.092.006-.139l-.035-.016s.013.055.029.155" transform="translate(0 -1) translate(0 .95)"/>
            <path fill="#6CB37B" d="M126.286 219.031v11.03l-1.608 1.596-13.947 13.85v-38.455c0-11.363-10.73-15.457-11.402-15.703 14.958.431 26.957 12.659 26.957 27.682" transform="translate(0 -1) translate(0 .95)"/>
            <path fill="#FFF" d="M143.38 231.13c2.973 3.608 8.316 4.13 11.936 1.166l9.867-8.081-10.767-13.067-9.867 8.082c-3.62 2.963-4.143 8.292-1.17 11.9" transform="translate(0 -1) translate(0 .95)"/>
            <path fill="#D0D2D3" d="M149.055 224.685l1.768 2.145c4.134 5.018 11.567 5.745 16.6 1.622l10.738-8.795-16.741-20.319-10.738 8.795c-5.033 4.123-5.762 11.533-1.627 16.552" transform="translate(0 -1) translate(0 .95)"/>
            <path fill="#FFF" d="M151.514 207.626l1.41 1.712c1.486 1.803 4.156 2.063 5.964.582 1.809-1.481 2.069-4.143.584-5.945l-1.41-1.712c-1.486-1.803-4.155-2.064-5.964-.583-1.808 1.48-2.07 4.143-.584 5.946M168.04 223.693c1.155 1.402 3.233 1.605 4.64.453l8.793-7.202c1.407-1.152 1.611-3.224.455-4.626-1.156-1.403-3.234-1.605-4.64-.453l-8.794 7.202c-1.406 1.152-1.61 3.224-.454 4.626" transform="translate(0 -1) translate(0 .95)"/>
            <path fill="#FFF" d="M163.855 218.613c1.155 1.403 3.233 1.606 4.64.454l8.793-7.202c1.406-1.152 1.61-3.224.454-4.627-1.155-1.402-3.233-1.605-4.64-.453l-8.792 7.202c-1.407 1.152-1.612 3.224-.456 4.626" transform="translate(0 -1) translate(0 .95)"/>
            <path fill="#FFF" d="M159.669 213.534c1.156 1.402 3.233 1.605 4.64.453l8.794-7.202c1.406-1.152 1.61-3.224.454-4.626-1.156-1.403-3.233-1.605-4.64-.453l-8.793 7.202c-1.407 1.152-1.61 3.224-.455 4.626" transform="translate(0 -1) translate(0 .95)"/>
            <path fill="#FFF" d="M155.483 208.454c1.156 1.403 3.233 1.606 4.641.454l18.22-14.925c1.408-1.152 1.611-3.223.455-4.626-1.156-1.402-3.233-1.605-4.64-.453l-18.22 14.924c-1.408 1.152-1.61 3.224-.456 4.626" transform="translate(0 -1) translate(0 .95)"/>
            <path fill="#A6DD7B" d="M19.023 258.202c-1.234-.77-2.438-1.582-3.626-2.414 1.95 2.474 4.007 4.859 6.163 7.15v-3.213c-.855-.495-1.702-1.002-2.537-1.523" transform="translate(0 -1) translate(0 .95)"/>
            <path fill="#A6DD7B" d="M.361 222.45v4.059h21.2l3.814 40.297c1.47 1.415 2.978 2.79 4.528 4.12.03.025.06.054.092.077 4.157 3.567 8.595 6.822 13.272 9.73 5.624 3.499 11.595 6.495 17.848 8.928v-55.213L0 218.95l.123 7.558h.238v-4.058zM80.902 295.25c2.486.456 4.998.819 7.543 1.096 1.527.169 3.066.296 4.613.399l7.125-52.391-35.609-9.03v55.609c5.27 1.844 10.721 3.299 16.328 4.317" transform="translate(0 -1) translate(0 .95)"/>
            <path fill="#FFF" d="M64.574 217.976L61.115 217.976 61.115 234.448 64.574 235.325zM64.574 290.932v-55.607l-3.459-.877v55.213c1.143.445 2.298.865 3.46 1.271" transform="translate(0 -1) translate(0 .95)"/>
            <path fill="#A6DD7B" d="M21.56 259.725v-33.217L.037 221.134l.326 8.973c3.817 9.282 8.905 17.91 15.036 25.68 1.188.833 2.392 1.645 3.625 2.415.835.521 1.683 1.028 2.538 1.523" transform="translate(0 -1) translate(0 .95)"/>
            <path fill="#6CB37B" d="M21.56 259.725v3.214c1.24 1.32 2.51 2.612 3.815 3.867l-3.814-40.298v33.217zM100.393 297c.193 0 .385-.01.578-.011v-58.422l-.787 5.787.209.054V297z" transform="translate(0 -1) translate(0 .95)"/>
            <path fill="#6CB37B" d="M100.393 297v-52.592l-.21-.054-7.124 52.39c2.424.164 4.868.256 7.334.256" transform="translate(0 -1) translate(0 .95)"/>
            <path fill="#D0D2D3" d="M49.01 191.175L58.926 221.135 62.84 217.978zM76.675 191.175L66.759 221.135 62.845 217.978z" transform="translate(0 -1) translate(0 .95)"/>
            <path fill="#D84479" d="M27.433 134.775H98.28l-.384-2.383c-.803-4.125-2.317-7.993-4.408-11.477H32.225c-2.472 4.113-4.137 8.766-4.777 13.74-.006.04-.012.08-.015.12" transform="translate(0 -1) translate(0 .95)"/>
            <path fill="#67B0D0" d="M31.965 134.775h61.78l-.333-2.383c-.701-4.125-2.021-7.993-3.844-11.477H36.145c-2.156 4.113-3.608 8.766-4.166 13.74-.006.04-.011.08-.014.12" transform="translate(0 -1) translate(0 .95)"/>
        </g>
        <g fill="#6CB37B">
            <path d="M12.866 35.757c-.006-1.05-.381-1.935-1.127-2.657-.744-.718-1.993-1.372-3.758-1.947-2.448-.732-4.24-1.697-5.366-2.886-1.125-1.2-1.69-2.718-1.699-4.56-.007-1.88.534-3.422 1.63-4.634 1.091-1.207 2.593-1.928 4.515-2.163l-.013-3.764 2.568-.01.017 3.779c1.93.258 3.437 1.052 4.517 2.402 1.081 1.35 1.624 3.2 1.635 5.55l-3.171.014c-.007-1.625-.4-2.912-1.171-3.86-.778-.95-1.814-1.428-3.124-1.424-1.371.008-2.414.366-3.137 1.076-.723.71-1.082 1.697-1.075 2.96.005 1.172.389 2.099 1.158 2.797.766.686 2.03 1.317 3.784 1.87 1.754.569 3.128 1.184 4.112 1.866.984.677 1.709 1.468 2.184 2.37.463.902.703 1.962.711 3.178.008 1.934-.569 3.5-1.732 4.68-1.163 1.186-2.793 1.894-4.897 2.123l.016 3.278-2.554.01-.016-3.279c-2.136-.192-3.815-.943-5.034-2.262C.621 38.944.008 37.151 0 34.887l3.189-.013c.005 1.593.43 2.814 1.272 3.675.843.858 2.034 1.282 3.574 1.273 1.506-.005 2.692-.377 3.55-1.1.857-.726 1.287-1.714 1.281-2.965" transform="translate(0 -1) translate(156 122)"/>
            <path fill-rule="nonzero" d="M32.397 44.959c3.335 0 5.932-.99 7.791-2.972 1.86-1.981 2.789-4.693 2.789-8.135 0-3.428-.896-6.147-2.686-8.159-1.79-2.012-4.207-3.018-7.251-3.018-2.081 0-3.94.482-5.577 1.446l1.01-9.11H41.99v-3.925H24.87L23.17 27.747l3.397.872 1.124-.918c1.056-.81 2.51-1.216 4.36-1.216 2.02 0 3.638.677 4.854 2.03 1.217 1.355 1.825 3.149 1.825 5.382 0 2.372-.562 4.23-1.687 5.577-1.124 1.346-2.673 2.02-4.647 2.02-1.805 0-3.259-.486-4.36-1.458-1.102-.971-1.783-2.413-2.043-4.326h-4.016c.26 2.892 1.323 5.156 3.19 6.793 1.866 1.637 4.276 2.456 7.229 2.456zm25.657 0c3.61 0 6.265-1.209 7.964-3.626 1.698-2.417 2.547-6.112 2.547-11.084V24.74c-.046-4.804-.918-8.358-2.616-10.66-1.699-2.303-4.345-3.454-7.94-3.454-3.627 0-6.289 1.193-7.987 3.58-1.698 2.387-2.547 6.036-2.547 10.947v5.668c.06 4.697.948 8.228 2.662 10.591 1.713 2.364 4.352 3.546 7.917 3.546zm0-3.465c-2.126 0-3.714-.86-4.762-2.582-1.048-1.721-1.572-4.387-1.572-7.998v-6.793c.03-3.396.543-5.913 1.538-7.55.994-1.637 2.578-2.456 4.75-2.456 2.188 0 3.787.823 4.797 2.467 1.01 1.645 1.514 4.265 1.514 7.86v6.954c-.046 3.488-.577 6.043-1.595 7.665-1.017 1.622-2.574 2.433-4.67 2.433zm26.392 3.465c3.61 0 6.265-1.209 7.963-3.626 1.698-2.417 2.547-6.112 2.547-11.084V24.74c-.045-4.804-.917-8.358-2.616-10.66-1.698-2.303-4.345-3.454-7.94-3.454-3.626 0-6.288 1.193-7.986 3.58-1.699 2.387-2.548 6.036-2.548 10.947v5.668c.061 4.697.949 8.228 2.662 10.591 1.714 2.364 4.353 3.546 7.918 3.546zm0-3.465c-2.127 0-3.714-.86-4.762-2.582-1.048-1.721-1.572-4.387-1.572-7.998v-6.793c.03-3.396.543-5.913 1.537-7.55.995-1.637 2.578-2.456 4.75-2.456 2.189 0 3.787.823 4.797 2.467 1.01 1.645 1.515 4.265 1.515 7.86v6.954c-.046 3.488-.578 6.043-1.595 7.665-1.017 1.622-2.574 2.433-4.67 2.433z" transform="translate(0 -1) translate(156 122)"/>
        </g>
    </g>
</svg>
