<svg xmlns="http://www.w3.org/2000/svg" xmlns:xlink="http://www.w3.org/1999/xlink" width="312" height="297" viewBox="0 0 312 297">
    <defs>
        <path id="prefix__a" d="M.53 54.536c0 29.882 23.931 54.113 53.444 54.113 29.521 0 53.449-24.231 53.449-54.113 0-29.892-23.928-54.12-53.449-54.12C24.458.416.53 24.644.53 54.536z"/>
        <path id="prefix__c" d="M.432.482c0 20.454 16.572 37.034 37.016 37.034V.482H.432z"/>
        <path id="prefix__e" d="M.432 37.583h37.016V.549C17.004.549.432 17.13.432 37.583z"/>
        <path id="prefix__g" d="M.506.488v37.034c20.443 0 37.015-16.581 37.015-37.034H.506z"/>
        <path id="prefix__i" d="M0 297L312.381 297 312.381 0.289 0 0.289z"/>
    </defs>
    <g fill="none" fill-rule="evenodd">
        <path fill="#427E7C" d="M110.431 184.968L295.522 184.968 295.522 66.478 110.431 66.478z" transform="translate(0 -1)"/>
        <path fill="#509D9B" d="M102.618 200.374L303.333 200.374 303.333 80.354 102.618 80.354z" transform="translate(0 -1)"/>
        <path fill="#63A9A7" d="M94.547 214.253L311.404 214.253 311.404 94.234 94.547 94.234z" transform="translate(0 -1)"/>
        <g transform="translate(0 -1) translate(149 99.711)">
            <mask id="prefix__b" fill="#fff">
                <use xlink:href="#prefix__a"/>
            </mask>
            <path fill="#FFF" d="M-0.403 109.583L108.358 109.583 108.358 -0.517 -0.403 -0.517z" mask="url(#prefix__b)"/>
        </g>
        <path fill="#87C392" d="M284.302 163.942c-5.352 0-9.696-4.347-9.696-9.7 0-5.354 4.344-9.696 9.696-9.696 5.352 0 9.694 4.342 9.694 9.696 0 5.353-4.342 9.7-9.694 9.7" transform="translate(0 -1)"/>
        <g transform="translate(0 -1) translate(274 93.711)">
            <mask id="prefix__d" fill="#fff">
                <use xlink:href="#prefix__c"/>
            </mask>
            <path fill="#ABCDDF" d="M-0.501 38.449L38.381 38.449 38.381 -0.451 -0.501 -0.451z" mask="url(#prefix__d)"/>
        </g>
        <g transform="translate(0 -1) translate(274 176.711)">
            <mask id="prefix__f" fill="#fff">
                <use xlink:href="#prefix__e"/>
            </mask>
            <path fill="#ABCDDF" d="M-0.501 38.516L38.381 38.516 38.381 -0.384 -0.501 -0.384z" mask="url(#prefix__f)"/>
        </g>
        <g>
            <path fill="#87C392" d="M27.65.835c5.352 0 9.697 4.347 9.697 9.7 0 5.354-4.345 9.696-9.697 9.696-5.35 0-9.694-4.342-9.694-9.695 0-5.354 4.345-9.701 9.695-9.701" transform="translate(0 -1) translate(94 143.711)"/>
            <path fill="#ABCDDF" d="M.506 33.55v37.034h37.016C37.522 50.13 20.949 33.55.506 33.55" transform="translate(0 -1) translate(94 143.711)"/>
        </g>
        <g transform="translate(0 -1) translate(94 93.711)">
            <mask id="prefix__h" fill="#fff">
                <use xlink:href="#prefix__g"/>
            </mask>
            <path fill="#ABCDDF" d="M0.556 0.158L39.67 0.122 39.67 39.023 0.506 39.357z" mask="url(#prefix__h)"/>
        </g>
        <g transform="translate(0 -1) translate(0 .711)">
            <path fill="#B7B3AD" d="M111.91 199.818V223.3c0 3.642 2.961 6.595 6.612 6.595h7.164v-6.153c0-10.205-5.537-19.12-13.777-23.923m69.525 16.553c-1.133-1.527-3.296-1.779-4.746-.588 1.406-1.155 1.61-3.226.454-4.627-1.154-1.404-3.235-1.607-4.64-.456 1.405-1.15 1.612-3.22.454-4.626-.65-.79-1.594-1.199-2.549-1.199-.734 0-1.476.243-2.092.747l9.428-7.724c1.584-1.294 1.645-3.749-.035-5.11-1.223-.99-3.003-.906-4.22.091l-16.117 13.202c-1.5-1.71-4.102-1.938-5.872-.486-1.018.835-1.546 2.041-1.546 3.263 0 .9.292 1.81.882 2.578l-.752.613c-2.5 2.05-3.94 4.911-4.246 7.882-4.596-.412-9.318 1.317-12.545 5.08l-4.195 4.883h35.744c3.234 0 6.37-1.12 8.872-3.168l1.548-1.267 5.476-4.488c1.377-1.128 1.76-3.172.697-4.6"/>
            <mask id="prefix__j" fill="#fff">
                <use xlink:href="#prefix__i"/>
            </mask>
            <path fill="#FFF" d="M49.021 207.107L76.671 207.107 76.671 173.651 49.021 173.651zM98.13 156.376h.018c3.276 0 5.93-2.655 5.93-5.93v-9.012c0-3.277-2.654-5.932-5.93-5.932h-.018c-3.275 0-5.932 2.655-5.932 5.932v9.011c0 3.276 2.657 5.931 5.932 5.931" mask="url(#prefix__j)"/>
            <path fill="#D0D2D3" d="M98.139 153.587c3.28 0 5.94-2.652 5.94-5.923v2.79c0 3.27-2.66 5.923-5.94 5.923-3.28 0-5.94-2.652-5.94-5.923v-2.79c0 3.27 2.66 5.923 5.94 5.923" mask="url(#prefix__j)"/>
            <path fill="#FFF" d="M27.543 156.376h.018c3.276 0 5.931-2.655 5.931-5.93v-9.012c0-3.277-2.655-5.932-5.931-5.932h-.018c-3.275 0-5.932 2.655-5.932 5.932v9.011c0 3.276 2.657 5.931 5.932 5.931" mask="url(#prefix__j)"/>
            <path fill="#D0D2D3" d="M27.552 153.587c3.28 0 5.94-2.652 5.94-5.923v2.79c0 3.27-2.66 5.923-5.94 5.923-3.28 0-5.94-2.652-5.94-5.923v-2.79c0 3.27 2.66 5.923 5.94 5.923" mask="url(#prefix__j)"/>
            <path fill="#FFF" d="M97.62 133.144c-1.149-5.89-3.767-11.257-7.462-15.705-1.066-1.29-2.226-2.5-3.467-3.625-6.295-5.718-14.66-9.198-23.845-9.198-.408 0-.819.007-1.226.023-.139 0-.276.008-.41.014-9.138.413-17.366 4.272-23.423 10.31-5.394 5.379-9.057 12.488-10.082 20.42-.193 1.493-.294 3.016-.294 4.56v6.996c0 19.513 15.863 35.33 35.435 35.33 19.567 0 35.433-15.817 35.433-35.33v-6.995c0-1.501-.093-2.977-.275-4.427l-.384-2.373z" mask="url(#prefix__j)"/>
            <path fill="#D0D2D3" d="M62.846 176.688c19.567 0 35.434-15.816 35.434-35.329v5.58c0 19.513-15.867 35.33-35.434 35.33-19.571 0-35.435-15.817-35.435-35.33v-5.58c0 19.513 15.864 35.33 35.435 35.33" mask="url(#prefix__j)"/>
            <path fill="#4B6084" d="M97.62 133.144h-3.384v16.931c0 1.105.856 2.067 1.962 2.097 1.146.031 2.081-.882 2.081-2.013v-12.181c0-1.633-.222-3.26-.659-4.834M28.058 133.144c-.43 1.486-.646 3.023-.646 4.567v12.447c0 1.113.97 2.015 2.169 2.015 1.197 0 2.167-.903 2.167-2.014v-17.014h-3.69z" mask="url(#prefix__j)"/>
            <path fill="#4B6084" d="M61.62 104.64c3.584 5.577 12.468 17.633 26.856 26.112 3.464 2.038 6.644 3.595 9.528 4.765-.004-.003-.004-.01-.004-.014-.857-6.816-3.66-13.03-7.842-18.063-1.066-1.291-2.226-2.5-3.467-3.626-6.295-5.718-14.66-9.198-23.845-9.198-.408 0-.819.006-1.226.024" mask="url(#prefix__j)"/>
            <path fill="#808F91" d="M27.705 135.382c4.823 1.457 14.33 2.83 29.426-1.105 15.265-3.976 26.85-11.863 33.027-16.838-1.066-1.29-2.226-2.499-3.467-3.625-6.295-5.719-14.66-9.199-23.845-9.199-.546 0-1.095.01-1.637.038-9.137.413-17.365 4.272-23.422 10.311-5.394 5.377-9.057 12.486-10.082 20.418" mask="url(#prefix__j)"/>
            <path fill="#4B6084" d="M57.13 113.621c6.686-1.74 12.664-4.231 17.792-6.9 4.393 1.587 8.382 4.016 11.77 7.093 1.24 1.126 2.4 2.335 3.466 3.626-6.176 4.974-17.761 12.862-33.027 16.838-15.097 3.935-24.603 2.56-29.426 1.105.952-7.365 4.182-14.019 8.955-19.238 5.134.233 11.9-.29 20.47-2.523" mask="url(#prefix__j)"/>
            <path fill="#808F91" d="M57.13 120.507c9.76-2.542 18.013-6.683 24.313-10.64 1.872 1.155 3.629 2.476 5.249 3.947 1.24 1.126 2.4 2.335 3.466 3.626-6.176 4.974-17.761 12.86-33.027 16.838-15.097 3.935-24.603 2.56-29.426 1.104.596-4.608 2.087-8.936 4.286-12.811 5.414.85 13.659.929 25.14-2.064" mask="url(#prefix__j)"/>
            <path fill="#4B6084" d="M57.13 127.392c12.524-3.262 22.567-9.155 29.184-13.914.126.112.253.223.378.336 1.24 1.126 2.4 2.334 3.466 3.625-6.176 4.975-17.761 12.862-33.027 16.838-15.097 3.935-24.603 2.562-29.426 1.105.288-2.234.793-4.399 1.48-6.482 5.175 1.264 14.265 2.058 27.946-1.508" mask="url(#prefix__j)"/>
            <path fill="#A62873" d="M62.84 158.642h.012c2.158 0 3.908-1.75 3.908-3.909v-5.121c0-2.159-1.75-3.909-3.908-3.909h-.012c-2.158 0-3.908 1.75-3.908 3.909v5.121c0 2.159 1.75 3.909 3.908 3.909" mask="url(#prefix__j)"/>
            <path fill="#D1E391" d="M125.687 220.063v11.721h-21.51v65.138c-1.375.052-2.758.078-4.145.078-4.04 0-8.027-.22-11.948-.655-2.544-.276-5.056-.639-7.543-1.095-13.603-2.468-26.318-7.477-37.634-14.517-4.678-2.908-9.116-6.163-13.272-9.73-.033-.023-.063-.052-.093-.078C16.72 259.917 6.522 245.958 0 230.107v-7.656h.01v-2.388c0-15.295 12.444-27.692 27.777-27.692H39.84l9.203 30.08h27.614l9.203-30.08h12.054c.273 0 .545.004.815.01 14.957.431 26.957 12.66 26.957 27.682" mask="url(#prefix__j)"/>
            <path fill="#87C392" d="M21.517 263.29c1.8 1.898 3.67 3.73 5.604 5.49l-5.592-41.214-.012 35.725zM94.755 296.871c1.748.085 3.508.129 5.278.129 1.387 0 2.77-.025 4.146-.077v-69.357l-9.424 69.305z" mask="url(#prefix__j)"/>
            <path fill="#FFF" d="M48.173 219.59L55.845 244.66 55.845 244.663 55.985 245.125 57.708 250.761 58.981 254.916 60.703 260.552 61.976 264.706 62.858 267.587 63.933 264.067 65.485 258.991 67.593 252.103 69.143 247.027 69.853 244.71 77.533 219.59 62.858 207.108z" mask="url(#prefix__j)"/>
            <path fill="#A62873" d="M76.313 142.659c0 1.648 1.339 2.983 2.992 2.983s2.992-1.335 2.992-2.983c0-1.648-1.34-2.984-2.992-2.984-1.653 0-2.992 1.336-2.992 2.984M43.394 142.659c0 1.648 1.34 2.983 2.993 2.983 1.653 0 2.992-1.335 2.992-2.983 0-1.648-1.34-2.984-2.992-2.984-1.653 0-2.993 1.336-2.993 2.984M62.846 169.63c3.809 0 7.618-1.446 10.518-4.337.572-.57.572-1.496 0-2.066-.573-.57-1.5-.57-2.073 0-4.656 4.644-12.234 4.644-16.891 0-.573-.57-1.5-.57-2.073 0-.572.57-.572 1.496 0 2.066 2.9 2.89 6.709 4.337 10.519 4.337" mask="url(#prefix__j)"/>
            <path fill="#34804A" d="M55.845 244.663L55.845 244.66 56.214 240.482 56.777 234.099 57.193 229.392 58.19 218.085 67.502 218.085 68.185 225.804 68.574 230.248 69.105 236.269 69.105 236.272 69.498 240.713 69.853 244.71 69.143 247.027 67.593 252.102 65.486 258.991 63.933 264.066 62.858 267.587 61.976 264.706 60.703 260.552 58.981 254.916 57.708 250.761 55.986 245.125z" mask="url(#prefix__j)"/>
            <path fill="#9E9E9F" d="M56.776 234.099L68.575 230.246 68.183 225.804 57.191 229.393zM55.845 244.663L55.845 244.66 56.214 240.482 69.105 236.272 69.498 240.713 55.986 245.125zM57.708 250.761L58.98 254.916 67.593 252.103 69.143 247.028zM60.703 260.552L61.975 264.706 63.932 264.067 65.485 258.991zM59.661 222.454h6.37c3.592 0 6.071-3.587 4.793-6.935l-1.955-5.118c-.757-1.983-2.665-3.294-4.794-3.294h-2.46c-2.129 0-4.036 1.311-4.794 3.294l-1.954 5.118c-1.278 3.348 1.201 6.935 4.794 6.935" mask="url(#prefix__j)"/>
            <path fill="#97C490" d="M39.842 192.37L39.842 192.369 49.02 187.213 62.846 207.107 48.171 219.591zM85.862 192.37L85.862 192.369 76.684 187.213 62.858 207.107 77.532 219.591z" mask="url(#prefix__j)"/>
            <path fill="#2F968A" d="M39.842 192.37l-7.603 24.156c-.275.875.183 1.812 1.043 2.135l5.9 2.213c1.485.557 1.502 2.644.026 3.225l-7.255 2.85c-1.097.432-1.451 1.807-.697 2.712l31.59 37.925-23.004-75.216z" mask="url(#prefix__j)"/>
            <path fill="#D0D2D3" d="M49.033 183.415L62.846 198.46 62.858 198.46 76.671 183.415 76.684 187.213 62.858 207.107 62.846 207.107 49.019 187.213z" mask="url(#prefix__j)"/>
            <path fill="#6BA997" d="M30.666 254.245h9.204c1.59 0 2.88-1.289 2.88-2.879v-.671c0-1.59-1.29-2.879-2.88-2.879h-9.204c-1.59 0-2.879 1.289-2.879 2.879v.671c0 1.59 1.29 2.879 2.88 2.879" mask="url(#prefix__j)"/>
            <path fill="#2F968A" d="M85.862 192.37l7.603 24.156c.275.875-.183 1.812-1.043 2.135l-5.9 2.213c-1.485.557-1.502 2.644-.026 3.225l7.254 2.85c1.097.432 1.452 1.807.698 2.712l-31.59 37.925 23.004-75.216z" mask="url(#prefix__j)"/>
            <path fill="#D1E391" d="M158.777 234.566l.018-.038c-.034.132-.07.265-.107.396-.037.133-.078.265-.118.398-.04.13-.085.262-.129.39-.045.132-.093.261-.14.39-.096.25-.196.492-.303.738-.052.111-.1.221-.152.332-.069.155-.147.305-.224.456l-.077.14c-.07.14-.145.28-.226.415-.114.2-.232.394-.354.59-.047.076-.095.15-.147.223-.192.291-.395.574-.609.853-.05.071-.107.136-.162.202-.11.14-.225.28-.343.42l-29.878 34.786c-2.844 3.314-6.964 5.142-11.206 5.142-1.324 0-2.663-.177-3.977-.545-5.529-1.544-9.656-6.142-10.586-11.79l-.634-3.872-3.496-33.632c-1.313-8.017 2.183-15.17 10.224-16.483 8.045-1.306 15.63 4.126 16.945 12.143l.96 5.866 9.236-10.753c5.297-6.172 14.61-6.889 20.8-1.604 4.418 3.77 6.041 9.575 4.685 14.837" mask="url(#prefix__j)"/>
            <path fill="#87C392" d="M158.795 234.528c-.033.132-.069.265-.106.396-.038.133-.079.265-.119.398-.041.13-.085.262-.129.39-.044.132-.092.261-.14.39-.096.25-.195.492-.303.74-.052.11-.099.22-.151.331-.07.154-.148.304-.225.455-.025.048-.052.095-.077.14-.07.14-.145.28-.226.415-.114.2-.232.394-.353.59-.048.076-.096.15-.148.223-.192.291-.394.574-.609.853-.051.071-.106.136-.162.202-.11.14-.225.28-.343.42l-29.878 34.786c-2.844 3.314-6.964 5.142-11.206 5.142-1.324 0-2.663-.177-3.976-.545-5.53-1.544-9.657-6.14-10.586-11.79l-.635-3.872c.015-.272-.022-.522-.121-.75.262.132 6.466 12.688 11.538 9.377 3.419-2.228 21.854-33.282 36.056-33.466 8.019-.103 10.907-2.637 11.899-4.825" mask="url(#prefix__j)"/>
            <path fill="#0E6DA0" d="M159.235 231.517l.006-.14-.035-.016s.013.056.03.156" mask="url(#prefix__j)"/>
            <path fill="#87C392" d="M125.687 220.063v10.125l-1.608 1.596-13.948 13.85v-37.549c0-11.364-10.73-15.457-11.401-15.704 14.957.431 26.957 12.66 26.957 27.682" mask="url(#prefix__j)"/>
            <path fill="#FFF" d="M142.78 231.369c2.973 3.608 8.316 4.131 11.936 1.166l9.867-8.081-10.767-13.067-9.867 8.082c-3.619 2.963-4.143 8.292-1.17 11.9" mask="url(#prefix__j)"/>
            <path fill="#D0D2D3" d="M148.455 224.924l1.768 2.146c4.134 5.018 11.567 5.744 16.6 1.622l10.738-8.796-16.74-20.32-10.739 8.797c-5.033 4.122-5.762 11.533-1.627 16.55" mask="url(#prefix__j)"/>
            <path fill="#FFF" d="M150.914 207.864l1.41 1.712c1.486 1.803 4.155 2.064 5.964.583 1.808-1.48 2.07-4.143.584-5.945l-1.41-1.712c-1.486-1.803-4.155-2.064-5.964-.583-1.808 1.481-2.069 4.142-.584 5.945M167.44 223.933c1.155 1.401 3.233 1.605 4.64.453l8.793-7.202c1.407-1.153 1.61-3.225.456-4.626-1.157-1.403-3.234-1.606-4.642-.454l-8.793 7.201c-1.406 1.153-1.61 3.225-.454 4.627" mask="url(#prefix__j)"/>
            <path fill="#FFF" d="M163.255 218.852c1.155 1.403 3.232 1.605 4.64.453l8.793-7.202c1.407-1.152 1.61-3.223.455-4.626-1.157-1.402-3.234-1.605-4.641-.453l-8.793 7.202c-1.406 1.152-1.61 3.224-.454 4.626" mask="url(#prefix__j)"/>
            <path fill="#FFF" d="M159.07 213.773c1.154 1.402 3.232 1.605 4.64.453l8.792-7.202c1.407-1.152 1.611-3.224.455-4.626-1.156-1.403-3.234-1.606-4.64-.454l-8.794 7.202c-1.406 1.152-1.61 3.224-.454 4.627" mask="url(#prefix__j)"/>
            <path fill="#FFF" d="M154.884 208.693c1.155 1.403 3.233 1.605 4.64.453l18.22-14.924c1.408-1.152 1.612-3.223.455-4.626-1.155-1.403-3.233-1.606-4.64-.453l-18.22 14.924c-1.407 1.152-1.611 3.224-.455 4.626" mask="url(#prefix__j)"/>
            <path fill="#596273" d="M194.74 58.408c-.322 0-.577.262-.577.577 0 .315.255.574.577.574h12.101c.326 0 .578-.26.578-.574 0-.315-.252-.577-.578-.577h-12.1z" mask="url(#prefix__j)"/>
            <path fill="#F0CA67" d="M185.705 28.882c0-8.304 6.755-15.035 15.083-15.035 8.337 0 15.09 6.731 15.09 15.035 0 .495-.364 7.445-6.049 14.742-1.663 2.197-1.387 6.627-1.387 6.627H193.09s.316-4.43-1.34-6.627c-5.69-7.304-6.045-14.247-6.045-14.742" mask="url(#prefix__j)"/>
            <path fill="#F4DA80" d="M200.788 50.25h-7.698s.316-4.428-1.34-6.626c-5.69-7.304-6.045-14.247-6.045-14.742 0-8.303 6.755-15.034 15.083-15.034" mask="url(#prefix__j)"/>
            <path fill="#F4DA80" d="M212.664 28.882h-1.322c0-5.804-4.732-10.52-10.554-10.52v-1.319c6.554 0 11.876 5.31 11.876 11.84" mask="url(#prefix__j)"/>
            <path fill="#30363D" d="M204.084 51.428L202.78 51.209 205.356 35.664 206.66 35.884zM197.495 51.428L194.919 35.884 196.225 35.664 198.802 51.209z" mask="url(#prefix__j)"/>
            <path fill="#30363D" d="M205.922 37.852c-.535 0-.77-.524-.94-.907-.078-.16-.222-.495-.308-.495-.07.028-.172.29-.233.43-.152.387-.385.972-1.015.972-.375 0-.603-.377-.861-.815-.098-.16-.271-.445-.381-.555-.09.104-.225.33-.308.474-.276.461-.544.896-.956.896-.405 0-.667-.424-.928-.872-.092-.15-.24-.39-.33-.493-.103.105-.252.354-.35.516-.258.437-.507.85-.904.85-.442 0-.725-.475-1-.934-.091-.154-.22-.373-.3-.459-.111.037-.187.198-.317.52-.147.366-.341.872-.885.872v-.704c.07-.027.169-.286.224-.425.16-.393.39-.972 1.024-.972.375 0 .6.372.86.81.099.162.274.448.379.56.092-.107.23-.334.314-.477.279-.464.537-.893.956-.893.405 0 .66.421.932.868.092.152.229.39.325.498.102-.11.252-.359.348-.517.258-.438.507-.849.9-.849.446 0 .729.472.996.933.096.15.234.371.308.46.107-.042.19-.199.319-.523.142-.372.348-.87.883-.87.538 0 .774.522.946.907.072.161.219.49.302.49v.704zM208.474 50.259v7.865c0 .535-.437.973-.98.973h-13.39c-.537 0-.977-.438-.977-.973v-7.865h15.347z" mask="url(#prefix__j)"/>
            <path fill="#103754" d="M208.778 51.02L192.803 51.02" mask="url(#prefix__j)"/>
            <path fill="#596273" d="M208.778 51.79h-15.975c-.423 0-.774-.345-.774-.77 0-.427.351-.772.774-.772h15.975c.43 0 .774.345.774.772 0 .425-.344.77-.774.77" mask="url(#prefix__j)"/>
            <path fill="#30363D" d="M208.778 53.587L192.803 53.587" mask="url(#prefix__j)"/>
            <path fill="#596273" d="M208.778 54.358h-15.975c-.423 0-.774-.348-.774-.77 0-.424.351-.772.774-.772h15.975c.43 0 .774.348.774.771 0 .423-.344.771-.774.771" mask="url(#prefix__j)"/>
            <path fill="#30363D" d="M208.778 56.155L192.803 56.155" mask="url(#prefix__j)"/>
            <path fill="#596273" d="M208.778 56.927h-15.975c-.423 0-.774-.34-.774-.772 0-.423.351-.771.774-.771h15.975c.43 0 .774.348.774.77 0 .433-.344.773-.774.773" mask="url(#prefix__j)"/>
            <path stroke="#E7AD26" d="M200.788 8.545L200.788.289M190.222 11.377L186.083 4.221M182.493 19.087L175.314 14.956M179.667 29.618L171.379 29.618M219.086 40.136L226.268 44.272M221.921 29.607L230.206 29.607M219.086 19.077L226.262 14.945M211.348 11.37L215.493 4.215M200.788 8.545L200.788.289M200.797 8.545L200.797.289M211.355 11.377L215.499 4.221M219.086 19.087L226.268 14.956M221.921 29.618L230.206 29.618M182.493 40.136L175.314 44.272M179.667 29.607L171.379 29.607M182.502 19.077L175.32 14.945M190.236 11.37L186.092 4.215M200.797 8.545L200.797.289" mask="url(#prefix__j)"/>
            <path fill="#E7AD26" d="M103.117 119.133H23.734c-2.214 0-4.009 1.794-4.009 4.008s1.795 4.009 4.01 4.009h79.382c2.214 0 4.01-1.795 4.01-4.01 0-2.213-1.796-4.007-4.01-4.007" mask="url(#prefix__j)"/>
            <path fill="#FDDD39" d="M98.557 119.133H28.294c0-1.843.177-3.641.52-5.384.104-.554.228-1.105.37-1.65.559-2.16 1.369-4.218 2.4-6.145.299-.561.619-1.112.954-1.65 1.435-2.292 3.19-4.364 5.204-6.145.658-.585 1.34-1.136 2.05-1.65 4.629-3.387 10.335-5.383 16.505-5.383h14.257c6.174 0 11.88 1.999 16.505 5.384.71.517 1.393 1.064 2.047 1.649.427.374.842.766 1.248 1.17 1.5 1.5 2.83 3.168 3.956 4.976.34.537.658 1.088.956 1.649 1.032 1.927 1.843 3.985 2.4 6.146.143.544.268 1.095.37 1.649.344 1.743.52 3.54.52 5.384" mask="url(#prefix__j)"/>
            <path fill="#FFF234" d="M87.059 96.51H39.793c-.711.513-1.393 1.064-2.051 1.649h51.364c-.654-.585-1.337-1.132-2.047-1.65m7.25 7.796H32.539c-.335.537-.655 1.088-.953 1.649h63.68c-.297-.561-.615-1.112-.955-1.65m3.357 7.796H29.185c-.143.544-.267 1.095-.371 1.649h69.224c-.104-.554-.23-1.105-.371-1.65" mask="url(#prefix__j)"/>
        </g>
        <g>
            <path fill="#2B756C" d="M12.866 35.757c-.006-1.05-.381-1.935-1.127-2.657-.744-.718-1.993-1.372-3.758-1.947-2.448-.732-4.24-1.697-5.366-2.886-1.125-1.2-1.69-2.718-1.699-4.56-.007-1.88.534-3.422 1.63-4.634 1.091-1.207 2.593-1.928 4.515-2.163l-.013-3.764 2.568-.01.017 3.779c1.93.258 3.437 1.052 4.517 2.402 1.081 1.35 1.624 3.2 1.635 5.55l-3.171.014c-.007-1.625-.4-2.912-1.171-3.86-.778-.95-1.814-1.428-3.124-1.424-1.371.008-2.414.366-3.137 1.076-.723.71-1.082 1.697-1.075 2.96.005 1.172.389 2.099 1.158 2.797.766.686 2.03 1.317 3.784 1.87 1.754.569 3.128 1.184 4.112 1.866.984.677 1.709 1.468 2.184 2.37.463.902.703 1.962.711 3.178.008 1.934-.569 3.5-1.732 4.68-1.163 1.186-2.793 1.894-4.897 2.123l.016 3.278-2.554.01-.016-3.279c-2.136-.192-3.815-.943-5.034-2.262C.621 38.944.008 37.151 0 34.887l3.189-.013c.005 1.593.43 2.814 1.272 3.675.843.858 2.034 1.282 3.574 1.273 1.506-.005 2.692-.377 3.55-1.1.857-.726 1.287-1.714 1.281-2.965" transform="translate(0 -1) translate(156 125)"/>
            <text fill="#427E7C" font-family="Roboto-Regular, Roboto" font-size="47" transform="translate(0 -1) translate(156 125)">
                <tspan x="18.444" y="44.5">600</tspan>
            </text>
        </g>
    </g>
</svg>
