<?xml version="1.0" encoding="UTF-8"?>
<svg width="312px" height="297px" viewBox="0 0 312 297" version="1.1" xmlns="http://www.w3.org/2000/svg" xmlns:xlink="http://www.w3.org/1999/xlink">
    <!-- Generator: Sketch 61.1 (89650) - https://sketch.com -->
    <title>Group 107 outline</title>
    <desc>Created with Sketch.</desc>
    <defs>
        <path d="M0.53,54.536 C0.53,84.418 24.461,108.649 53.974,108.649 L53.974,108.649 C83.495,108.649 107.423,84.418 107.423,54.536 L107.423,54.536 C107.423,24.644 83.495,0.416 53.974,0.416 L53.974,0.416 C24.458,0.416 0.53,24.644 0.53,54.536 L0.53,54.536 Z" id="path-1"></path>
        <path d="M0.432,0.482 C0.432,20.936 17.004,37.516 37.448,37.516 L37.448,37.516 L37.448,0.482 L0.432,0.482 Z" id="path-3"></path>
        <path d="M0.432,37.583 L37.448,37.583 L37.448,0.549 C17.004,0.549 0.432,17.13 0.432,37.583 L0.432,37.583 Z" id="path-5"></path>
        <path d="M0.506,0.488 L0.506,37.522 C20.949,37.522 37.521,20.941 37.521,0.488 L37.521,0.488 L0.506,0.488 Z" id="path-7"></path>
        <polygon id="path-9" points="0 297 312.381 297 312.381 0.289 0 0.289"></polygon>
    </defs>
    <g id="懶人包" stroke="none" stroke-width="1" fill="none" fill-rule="evenodd">
        <g id="小資振興_懶人包_農遊券" transform="translate(-1123.000000, -525.000000)">
            <g id="Group-107-outline" transform="translate(1123.000000, 524.000000)">
                <polygon id="Fill-1" fill="#427E7C" points="110.431 184.968 295.522 184.968 295.522 66.478 110.431 66.478"></polygon>
                <polygon id="Fill-2" fill="#509D9B" points="102.618 200.374 303.333 200.374 303.333 80.354 102.618 80.354"></polygon>
                <polygon id="Fill-3" fill="#63A9A7" points="94.547 214.253 311.404 214.253 311.404 94.234 94.547 94.234"></polygon>
                <g id="Group-6" transform="translate(149.000000, 99.711000)">
                    <mask id="mask-2" fill="white">
                        <use xlink:href="#path-1"></use>
                    </mask>
                    <g id="Clip-5"></g>
                    <polygon id="Fill-4" fill="#FFFFFF" mask="url(#mask-2)" points="-0.403 109.583 108.358 109.583 108.358 -0.517 -0.403 -0.517"></polygon>
                </g>
                <path d="M284.3018,163.9419 C278.9498,163.9419 274.6058,159.5949 274.6058,154.2419 C274.6058,148.8879 278.9498,144.5459 284.3018,144.5459 C289.6538,144.5459 293.9958,148.8879 293.9958,154.2419 C293.9958,159.5949 289.6538,163.9419 284.3018,163.9419" id="Fill-7" fill="#87C392"></path>
                <g id="Group-11" transform="translate(274.000000, 93.711000)">
                    <mask id="mask-4" fill="white">
                        <use xlink:href="#path-3"></use>
                    </mask>
                    <g id="Clip-10"></g>
                    <polygon id="Fill-9" fill="#ABCDDF" mask="url(#mask-4)" points="-0.501 38.449 38.381 38.449 38.381 -0.451 -0.501 -0.451"></polygon>
                </g>
                <g id="Group-14" transform="translate(274.000000, 176.711000)">
                    <mask id="mask-6" fill="white">
                        <use xlink:href="#path-5"></use>
                    </mask>
                    <g id="Clip-13"></g>
                    <polygon id="Fill-12" fill="#ABCDDF" mask="url(#mask-6)" points="-0.501 38.516 38.381 38.516 38.381 -0.384 -0.501 -0.384"></polygon>
                </g>
                <g id="Group-19" transform="translate(94.000000, 143.711000)">
                    <path d="M27.6505,0.8349 C33.0025,0.8349 37.3465,5.1819 37.3465,10.5359 C37.3465,15.8889 33.0025,20.2309 27.6505,20.2309 C22.3005,20.2309 17.9555,15.8889 17.9555,10.5359 C17.9555,5.1819 22.3005,0.8349 27.6505,0.8349" id="Fill-15" fill="#87C392"></path>
                    <path d="M0.5059,33.5492 L0.5059,70.5842 L37.5219,70.5842 C37.5219,50.1302 20.9489,33.5492 0.5059,33.5492" id="Fill-17" fill="#ABCDDF"></path>
                </g>
                <g id="Group-22" transform="translate(94.000000, 93.711000)">
                    <mask id="mask-8" fill="white">
                        <use xlink:href="#path-7"></use>
                    </mask>
                    <g id="Clip-21"></g>
                    <polygon id="Fill-20" fill="#ABCDDF" mask="url(#mask-8)" points="0.5557 0.1581 39.6697 0.1221 39.6697 39.0231 0.5057 39.3571"></polygon>
                </g>
                <g id="Group-106" transform="translate(0.000000, 0.711000)">
                    <path d="M111.9092,199.8183 L111.9092,223.2993 C111.9092,226.9413 114.8712,229.8943 118.5222,229.8943 L125.6862,229.8943 L125.6862,223.7413 C125.6862,213.5363 120.1492,204.6213 111.9092,199.8183 M181.4342,216.3713 C180.3012,214.8443 178.1382,214.5923 176.6882,215.7833 C178.0942,214.6283 178.2972,212.5573 177.1422,211.1563 C175.9882,209.7523 173.9072,209.5493 172.5022,210.7003 C173.9072,209.5493 174.1142,207.4793 172.9562,206.0743 C172.3062,205.2833 171.3622,204.8753 170.4072,204.8753 C169.6732,204.8753 168.9312,205.1183 168.3152,205.6223 L177.7432,197.8983 C179.3272,196.6043 179.3882,194.1493 177.7082,192.7883 C176.4852,191.7973 174.7052,191.8823 173.4882,192.8793 L157.3712,206.0813 C155.8702,204.3713 153.2692,204.1433 151.4992,205.5953 C150.4812,206.4303 149.9532,207.6363 149.9532,208.8583 C149.9532,209.7583 150.2452,210.6683 150.8352,211.4363 L150.0832,212.0493 C147.5822,214.0983 146.1432,216.9603 145.8372,219.9313 C141.2412,219.5193 136.5192,221.2483 133.2922,225.0103 L129.0972,229.8943 L164.8412,229.8943 C168.0752,229.8943 171.2102,228.7743 173.7132,226.7263 L175.2612,225.4593 L180.7372,220.9713 C182.1142,219.8433 182.4962,217.7993 181.4342,216.3713" id="Fill-23" fill="#B7B3AD"></path>
                    <mask id="mask-10" fill="white">
                        <use xlink:href="#path-9"></use>
                    </mask>
                    <g id="Clip-26"></g>
                    <polygon id="Fill-25" fill="#FFFFFF" mask="url(#mask-10)" points="49.021 207.107 76.671 207.107 76.671 173.651 49.021 173.651"></polygon>
                    <path d="M98.1299,156.3764 L98.1479,156.3764 C101.4239,156.3764 104.0789,153.7214 104.0789,150.4454 L104.0789,141.4344 C104.0789,138.1574 101.4239,135.5024 98.1479,135.5024 L98.1299,135.5024 C94.8549,135.5024 92.1979,138.1574 92.1979,141.4344 L92.1979,150.4454 C92.1979,153.7214 94.8549,156.3764 98.1299,156.3764" id="Fill-27" fill="#FFFFFF" mask="url(#mask-10)"></path>
                    <path d="M98.1387,153.5868 L98.1387,153.5868 C101.4197,153.5868 104.0787,150.9348 104.0787,147.6638 L104.0787,150.4538 C104.0787,153.7248 101.4197,156.3768 98.1387,156.3768 C94.8587,156.3768 92.1987,153.7248 92.1987,150.4538 L92.1987,147.6638 C92.1987,150.9348 94.8587,153.5868 98.1387,153.5868" id="Fill-28" fill="#D0D2D3" mask="url(#mask-10)"></path>
                    <path d="M27.543,156.3764 L27.561,156.3764 C30.837,156.3764 33.492,153.7214 33.492,150.4454 L33.492,141.4344 C33.492,138.1574 30.837,135.5024 27.561,135.5024 L27.543,135.5024 C24.268,135.5024 21.611,138.1574 21.611,141.4344 L21.611,150.4454 C21.611,153.7214 24.268,156.3764 27.543,156.3764" id="Fill-29" fill="#FFFFFF" mask="url(#mask-10)"></path>
                    <path d="M27.5518,153.5868 L27.5518,153.5868 C30.8328,153.5868 33.4918,150.9348 33.4918,147.6638 L33.4918,150.4538 C33.4918,153.7248 30.8328,156.3768 27.5518,156.3768 C24.2718,156.3768 21.6118,153.7248 21.6118,150.4538 L21.6118,147.6638 C21.6118,150.9348 24.2718,153.5868 27.5518,153.5868" id="Fill-30" fill="#D0D2D3" mask="url(#mask-10)"></path>
                    <path d="M97.6202,133.1445 C96.4712,127.2545 93.8532,121.8875 90.1582,117.4395 C89.0922,116.1485 87.9322,114.9395 86.6912,113.8135 C80.3962,108.0955 72.0302,104.6155 62.8462,104.6155 C62.4382,104.6155 62.0272,104.6225 61.6202,104.6395 C61.4812,104.6395 61.3442,104.6465 61.2092,104.6535 C52.0722,105.0665 43.8442,108.9255 37.7872,114.9635 C32.3932,120.3415 28.7302,127.4505 27.7052,135.3825 C27.5122,136.8765 27.4112,138.3985 27.4112,139.9435 L27.4112,146.9395 C27.4112,166.4525 43.2742,182.2685 62.8462,182.2685 C82.4132,182.2685 98.2792,166.4525 98.2792,146.9395 L98.2792,139.9435 C98.2792,138.4425 98.1862,136.9665 98.0042,135.5165 L97.6202,133.1445 Z" id="Fill-31" fill="#FFFFFF" mask="url(#mask-10)"></path>
                    <path d="M62.8458,176.6884 C82.4128,176.6884 98.2798,160.8724 98.2798,141.3594 L98.2798,146.9394 C98.2798,166.4524 82.4128,182.2684 62.8458,182.2684 C43.2748,182.2684 27.4108,166.4524 27.4108,146.9394 L27.4108,141.3594 C27.4108,160.8724 43.2748,176.6884 62.8458,176.6884" id="Fill-32" fill="#D0D2D3" mask="url(#mask-10)"></path>
                    <path d="M97.6202,133.1445 L94.2362,133.1445 L94.2362,150.0755 C94.2362,151.1795 95.0922,152.1415 96.1982,152.1715 C97.3442,152.2035 98.2792,151.2895 98.2792,150.1585 L98.2792,137.9775 C98.2792,136.3445 98.0572,134.7185 97.6202,133.1445" id="Fill-33" fill="#4B6084" mask="url(#mask-10)"></path>
                    <path d="M28.0577,133.1445 C27.6287,134.6295 27.4117,136.1665 27.4117,137.7115 L27.4117,150.1585 C27.4117,151.2705 28.3817,152.1725 29.5807,152.1725 C30.7777,152.1725 31.7477,151.2705 31.7477,150.1585 L31.7477,133.1445 L28.0577,133.1445 Z" id="Fill-34" fill="#4B6084" mask="url(#mask-10)"></path>
                    <path d="M61.6202,104.6396 C65.2042,110.2166 74.0882,122.2726 88.4762,130.7516 C91.9402,132.7896 95.1202,134.3466 98.0042,135.5166 C98.0002,135.5136 98.0002,135.5066 98.0002,135.5026 C97.1432,128.6866 94.3402,122.4726 90.1582,117.4396 C89.0922,116.1486 87.9322,114.9396 86.6912,113.8136 C80.3962,108.0956 72.0302,104.6156 62.8462,104.6156 C62.4382,104.6156 62.0272,104.6216 61.6202,104.6396" id="Fill-35" fill="#4B6084" mask="url(#mask-10)"></path>
                    <path d="M27.7051,135.3822 C32.5281,136.8392 42.0341,138.2122 57.1311,134.2772 C72.3961,130.3012 83.9811,122.4142 90.1581,117.4392 C89.0921,116.1482 87.9321,114.9402 86.6911,113.8142 C80.3961,108.0952 72.0301,104.6152 62.8461,104.6152 C62.3001,104.6152 61.7511,104.6252 61.2091,104.6532 C52.0721,105.0662 43.8441,108.9252 37.7871,114.9642 C32.3931,120.3412 28.7301,127.4502 27.7051,135.3822" id="Fill-36" fill="#808F91" mask="url(#mask-10)"></path>
                    <path d="M57.1309,113.6215 C63.8159,111.8805 69.7939,109.3895 74.9219,106.7215 C79.3149,108.3085 83.3039,110.7365 86.6919,113.8135 C87.9319,114.9395 89.0919,116.1485 90.1579,117.4395 C83.9819,122.4135 72.3969,130.3015 57.1309,134.2775 C42.0339,138.2125 32.5279,136.8385 27.7049,135.3825 C28.6569,128.0175 31.8869,121.3645 36.6599,116.1455 C41.7939,116.3775 48.5609,115.8555 57.1309,113.6215" id="Fill-37" fill="#4B6084" mask="url(#mask-10)"></path>
                    <path d="M57.1309,120.5068 C66.8909,117.9648 75.1429,113.8238 81.4429,109.8678 C83.3149,111.0218 85.0719,112.3428 86.6919,113.8138 C87.9319,114.9398 89.0919,116.1488 90.1579,117.4398 C83.9819,122.4138 72.3969,130.3008 57.1309,134.2778 C42.0339,138.2128 32.5279,136.8388 27.7049,135.3818 C28.3009,130.7738 29.7919,126.4458 31.9909,122.5708 C37.4049,123.4208 45.6499,123.4998 57.1309,120.5068" id="Fill-38" fill="#808F91" mask="url(#mask-10)"></path>
                    <path d="M57.1309,127.392 C69.6539,124.13 79.6969,118.237 86.3139,113.478 C86.4399,113.59 86.5669,113.701 86.6919,113.814 C87.9319,114.94 89.0919,116.148 90.1579,117.439 C83.9819,122.414 72.3969,130.301 57.1309,134.277 C42.0339,138.212 32.5279,136.839 27.7049,135.382 C27.9929,133.148 28.4979,130.983 29.1859,128.9 C34.3599,130.164 43.4499,130.958 57.1309,127.392" id="Fill-39" fill="#4B6084" mask="url(#mask-10)"></path>
                    <path d="M62.8399,158.6415 L62.8519,158.6415 C65.0099,158.6415 66.7599,156.8915 66.7599,154.7335 L66.7599,149.6115 C66.7599,147.4535 65.0099,145.7035 62.8519,145.7035 L62.8399,145.7035 C60.6819,145.7035 58.9319,147.4535 58.9319,149.6115 L58.9319,154.7335 C58.9319,156.8915 60.6819,158.6415 62.8399,158.6415" id="Fill-40" fill="#A62873" mask="url(#mask-10)"></path>
                    <path d="M125.6866,220.0634 L125.6866,231.7844 L104.1776,231.7844 L104.1776,296.9224 C102.8016,296.9744 101.4186,297.0004 100.0316,297.0004 C95.9926,297.0004 92.0046,296.7794 88.0836,296.3454 C85.5396,296.0694 83.0276,295.7064 80.5406,295.2504 C66.9376,292.7824 54.2226,287.7734 42.9066,280.7334 C38.2286,277.8254 33.7906,274.5704 29.6346,271.0024 C29.6016,270.9804 29.5716,270.9514 29.5416,270.9254 C16.7206,259.9174 6.5216,245.9584 -0.0004,230.1074 L-0.0004,222.4514 L0.0106,222.4514 L0.0106,220.0634 C0.0106,204.7684 12.4536,192.3714 27.7866,192.3714 L39.8406,192.3714 L49.0436,222.4514 L76.6576,222.4514 L85.8606,192.3714 L97.9146,192.3714 C98.1876,192.3714 98.4596,192.3754 98.7296,192.3814 C113.6866,192.8124 125.6866,205.0414 125.6866,220.0634" id="Fill-41" fill="#D1E391" mask="url(#mask-10)"></path>
                    <path d="M21.5167,263.2909 C23.3167,265.1879 25.1867,267.0199 27.1207,268.7809 L21.5287,227.5659 L21.5167,263.2909 Z" id="Fill-42" fill="#87C392" mask="url(#mask-10)"></path>
                    <path d="M94.7549,296.871 C96.5029,296.956 98.2629,297 100.0329,297 C101.4199,297 102.8029,296.975 104.1789,296.923 L104.1789,227.566 L94.7549,296.871 Z" id="Fill-43" fill="#87C392" mask="url(#mask-10)"></path>
                    <polygon id="Fill-44" fill="#FFFFFF" mask="url(#mask-10)" points="48.1729 219.5898 55.8449 244.6598 55.8449 244.6628 55.9849 245.1248 57.7079 250.7608 58.9809 254.9158 60.7029 260.5518 61.9759 264.7058 62.8579 267.5868 63.9329 264.0668 65.4849 258.9908 67.5929 252.1028 69.1429 247.0268 69.8529 244.7098 77.5329 219.5898 62.8579 207.1078"></polygon>
                    <path d="M76.3126,142.6586 C76.3126,144.3066 77.6516,145.6416 79.3046,145.6416 C80.9576,145.6416 82.2966,144.3066 82.2966,142.6586 C82.2966,141.0106 80.9576,139.6746 79.3046,139.6746 C77.6516,139.6746 76.3126,141.0106 76.3126,142.6586" id="Fill-45" fill="#A62873" mask="url(#mask-10)"></path>
                    <path d="M43.3936,142.6586 C43.3936,144.3066 44.7336,145.6416 46.3866,145.6416 C48.0396,145.6416 49.3786,144.3066 49.3786,142.6586 C49.3786,141.0106 48.0396,139.6746 46.3866,139.6746 C44.7336,139.6746 43.3936,141.0106 43.3936,142.6586" id="Fill-46" fill="#A62873" mask="url(#mask-10)"></path>
                    <path d="M62.8458,169.6298 C66.6548,169.6298 70.4638,168.1838 73.3638,165.2928 C73.9358,164.7228 73.9358,163.7968 73.3638,163.2268 C72.7908,162.6568 71.8638,162.6568 71.2908,163.2268 C66.6348,167.8708 59.0568,167.8708 54.3998,163.2268 C53.8268,162.6568 52.8998,162.6568 52.3268,163.2268 C51.7548,163.7968 51.7548,164.7228 52.3268,165.2928 C55.2278,168.1838 59.0358,169.6298 62.8458,169.6298" id="Fill-47" fill="#A62873" mask="url(#mask-10)"></path>
                    <polygon id="Fill-48" fill="#34804A" mask="url(#mask-10)" points="55.8448 244.663 55.8448 244.66 56.2138 240.482 56.7768 234.099 57.1928 229.392 58.1898 218.085 67.5018 218.085 68.1848 225.804 68.5738 230.248 69.1048 236.269 69.1048 236.272 69.4978 240.713 69.8528 244.71 69.1428 247.027 67.5928 252.102 65.4858 258.991 63.9328 264.066 62.8578 267.587 61.9758 264.706 60.7028 260.552 58.9808 254.916 57.7078 250.761 55.9858 245.125"></polygon>
                    <polygon id="Fill-49" fill="#9E9E9F" mask="url(#mask-10)" points="56.7764 234.0985 68.5754 230.2465 68.1834 225.8035 57.1914 229.3925"></polygon>
                    <polygon id="Fill-50" fill="#9E9E9F" mask="url(#mask-10)" points="55.8448 244.663 55.8448 244.66 56.2138 240.482 69.1048 236.272 69.4978 240.713 55.9858 245.125"></polygon>
                    <polygon id="Fill-51" fill="#9E9E9F" mask="url(#mask-10)" points="57.7081 250.7607 58.9801 254.9157 67.5931 252.1027 69.1431 247.0277"></polygon>
                    <polygon id="Fill-52" fill="#9E9E9F" mask="url(#mask-10)" points="60.7032 260.5517 61.9752 264.7057 63.9322 264.0667 65.4852 258.9907"></polygon>
                    <path d="M59.6612,222.454 L66.0302,222.454 C69.6232,222.454 72.1022,218.867 70.8242,215.519 L68.8692,210.401 C68.1122,208.418 66.2042,207.107 64.0752,207.107 L61.6152,207.107 C59.4862,207.107 57.5792,208.418 56.8212,210.401 L54.8672,215.519 C53.5892,218.867 56.0682,222.454 59.6612,222.454" id="Fill-53" fill="#9E9E9F" mask="url(#mask-10)"></path>
                    <polygon id="Fill-54" fill="#97C490" mask="url(#mask-10)" points="39.8419 192.37 39.8419 192.369 49.0199 187.213 62.8459 207.107 48.1709 219.591"></polygon>
                    <polygon id="Fill-55" fill="#97C490" mask="url(#mask-10)" points="85.8624 192.37 85.8624 192.369 76.6844 187.213 62.8584 207.107 77.5324 219.591"></polygon>
                    <path d="M39.8419,192.37 L32.2389,216.526 C31.9639,217.401 32.4219,218.338 33.2819,218.661 L39.1829,220.874 C40.6669,221.431 40.6839,223.518 39.2079,224.099 L31.9529,226.949 C30.8559,227.381 30.5019,228.756 31.2559,229.661 L62.8459,267.586 L39.8419,192.37 Z" id="Fill-56" fill="#2F968A" mask="url(#mask-10)"></path>
                    <polygon id="Fill-57" fill="#D0D2D3" mask="url(#mask-10)" points="49.0333 183.4145 62.8463 198.4605 62.8583 198.4605 76.6713 183.4145 76.6843 187.2125 62.8583 207.1075 62.8463 207.1075 49.0193 187.2125"></polygon>
                    <path d="M30.6661,254.245 L39.8701,254.245 C41.4601,254.245 42.7491,252.956 42.7491,251.366 L42.7491,250.695 C42.7491,249.105 41.4601,247.816 39.8701,247.816 L30.6661,247.816 C29.0761,247.816 27.7871,249.105 27.7871,250.695 L27.7871,251.366 C27.7871,252.956 29.0761,254.245 30.6661,254.245" id="Fill-58" fill="#6BA997" mask="url(#mask-10)"></path>
                    <path d="M85.8624,192.37 L93.4654,216.526 C93.7404,217.401 93.2824,218.338 92.4224,218.661 L86.5214,220.874 C85.0374,221.431 85.0204,223.518 86.4964,224.099 L93.7504,226.949 C94.8474,227.381 95.2024,228.756 94.4484,229.661 L62.8584,267.586 L85.8624,192.37 Z" id="Fill-59" fill="#2F968A" mask="url(#mask-10)"></path>
                    <path d="M158.7774,234.5663 L158.7954,234.5283 C158.7614,234.6603 158.7254,234.7933 158.6884,234.9243 C158.6514,235.0573 158.6104,235.1893 158.5704,235.3223 C158.5294,235.4513 158.4854,235.5843 158.4414,235.7123 C158.3964,235.8443 158.3484,235.9733 158.3004,236.1023 C158.2054,236.3523 158.1054,236.5943 157.9984,236.8403 C157.9464,236.9513 157.8984,237.0613 157.8464,237.1723 C157.7774,237.3273 157.6994,237.4773 157.6224,237.6283 C157.5964,237.6763 157.5704,237.7233 157.5454,237.7683 C157.4744,237.9083 157.4004,238.0473 157.3194,238.1833 C157.2054,238.3823 157.0874,238.5773 156.9654,238.7723 C156.9184,238.8493 156.8704,238.9223 156.8184,238.9963 C156.6264,239.2873 156.4234,239.5703 156.2094,239.8493 C156.1584,239.9203 156.1024,239.9853 156.0474,240.0513 C155.9364,240.1913 155.8224,240.3313 155.7044,240.4703 L125.8264,275.2573 C122.9824,278.5713 118.8624,280.3993 114.6204,280.3993 C113.2964,280.3993 111.9574,280.2223 110.6434,279.8543 C105.1144,278.3103 100.9874,273.7123 100.0574,268.0643 L99.4234,264.1923 L95.9274,230.5603 C94.6144,222.5433 98.1104,215.3893 106.1514,214.0773 C114.1964,212.7713 121.7804,218.2033 123.0964,226.2203 L124.0554,232.0863 L133.2924,221.3333 C138.5894,215.1613 147.9024,214.4443 154.0914,219.7293 C158.5104,223.4983 160.1334,229.3043 158.7774,234.5663" id="Fill-60" fill="#D1E391" mask="url(#mask-10)"></path>
                    <path d="M158.795,234.5282 C158.762,234.6602 158.726,234.7932 158.689,234.9242 C158.651,235.0572 158.61,235.1892 158.57,235.3222 C158.529,235.4512 158.485,235.5842 158.441,235.7122 C158.397,235.8442 158.349,235.9732 158.301,236.1022 C158.205,236.3522 158.106,236.5942 157.998,236.8412 C157.946,236.9512 157.899,237.0612 157.847,237.1732 C157.777,237.3272 157.699,237.4772 157.622,237.6282 C157.597,237.6762 157.57,237.7232 157.545,237.7682 C157.475,237.9082 157.4,238.0482 157.319,238.1832 C157.205,238.3822 157.087,238.5772 156.966,238.7722 C156.918,238.8492 156.87,238.9232 156.818,238.9962 C156.626,239.2872 156.424,239.5702 156.209,239.8492 C156.158,239.9202 156.103,239.9852 156.047,240.0512 C155.937,240.1912 155.822,240.3312 155.704,240.4702 L125.826,275.2572 C122.982,278.5712 118.862,280.3992 114.62,280.3992 C113.296,280.3992 111.957,280.2222 110.644,279.8542 C105.114,278.3102 100.987,273.7132 100.058,268.0642 L99.423,264.1922 C99.438,263.9202 99.401,263.6702 99.302,263.4412 C99.564,263.5742 105.768,276.1302 110.84,272.8192 C114.259,270.5912 132.694,239.5372 146.896,239.3532 C154.915,239.2502 157.803,236.7162 158.795,234.5282" id="Fill-61" fill="#87C392" mask="url(#mask-10)"></path>
                    <path d="M159.2354,231.5165 C159.2374,231.4705 159.2394,231.4235 159.2414,231.3775 L159.2064,231.3615 C159.2064,231.3615 159.2194,231.4165 159.2354,231.5165" id="Fill-62" fill="#0E6DA0" mask="url(#mask-10)"></path>
                    <path d="M125.6866,220.0634 L125.6866,230.1884 L124.0786,231.7844 L110.1306,245.6344 L110.1306,231.7844 L110.1306,208.0854 C110.1306,196.7214 99.4016,192.6284 98.7296,192.3814 C113.6866,192.8124 125.6866,205.0414 125.6866,220.0634" id="Fill-63" fill="#87C392" mask="url(#mask-10)"></path>
                    <path d="M142.7794,231.369 L142.7794,231.369 C145.7534,234.977 151.0964,235.5 154.7164,232.535 L164.5834,224.454 L153.8164,211.387 L143.9494,219.469 C140.3304,222.432 139.8064,227.761 142.7794,231.369" id="Fill-64" fill="#FFFFFF" mask="url(#mask-10)"></path>
                    <path d="M148.4551,224.9237 L150.2231,227.0697 C154.3571,232.0877 161.7901,232.8137 166.8231,228.6917 L177.5611,219.8957 L160.8201,199.5767 L150.0821,208.3727 C145.0491,212.4947 144.3201,219.9057 148.4551,224.9237" id="Fill-65" fill="#D0D2D3" mask="url(#mask-10)"></path>
                    <path d="M150.9141,207.8642 L152.3241,209.5762 C153.8101,211.3792 156.4791,211.6402 158.2881,210.1592 C160.0961,208.6782 160.3571,206.0162 158.8721,204.2142 L157.4621,202.5022 C155.9761,200.6992 153.3071,200.4382 151.4981,201.9192 C149.6901,203.4002 149.4291,206.0612 150.9141,207.8642" id="Fill-66" fill="#FFFFFF" mask="url(#mask-10)"></path>
                    <path d="M167.4395,223.9325 L167.4395,223.9325 C168.5955,225.3345 170.6725,225.5375 172.0805,224.3855 L180.8735,217.1835 C182.2805,216.0315 182.4835,213.9595 181.3285,212.5575 C180.1715,211.1545 178.0945,210.9515 176.6875,212.1035 L167.8945,219.3055 C166.4875,220.4575 166.2845,222.5295 167.4395,223.9325" id="Fill-67" fill="#FFFFFF" mask="url(#mask-10)"></path>
                    <path d="M163.2549,218.8524 L163.2549,218.8524 C164.4099,220.2554 166.4869,220.4574 167.8949,219.3054 L176.6879,212.1034 C178.0949,210.9514 178.2979,208.8804 177.1429,207.4774 C175.9859,206.0754 173.9089,205.8724 172.5019,207.0244 L163.7089,214.2264 C162.3029,215.3784 162.0989,217.4504 163.2549,218.8524" id="Fill-68" fill="#FFFFFF" mask="url(#mask-10)"></path>
                    <path d="M159.0694,213.7733 L159.0694,213.7733 C160.2244,215.1753 162.3024,215.3783 163.7094,214.2263 L172.5024,207.0243 C173.9094,205.8723 174.1134,203.8003 172.9574,202.3983 C171.8014,200.9953 169.7234,200.7923 168.3174,201.9443 L159.5234,209.1463 C158.1174,210.2983 157.9134,212.3703 159.0694,213.7733" id="Fill-69" fill="#FFFFFF" mask="url(#mask-10)"></path>
                    <path d="M154.8839,208.6933 L154.8839,208.6933 C156.0389,210.0963 158.1169,210.2983 159.5239,209.1463 L177.7449,194.2223 C179.1519,193.0703 179.3559,190.9993 178.1989,189.5963 C177.0439,188.1933 174.9659,187.9903 173.5599,189.1433 L155.3389,204.0673 C153.9319,205.2193 153.7279,207.2913 154.8839,208.6933" id="Fill-70" fill="#FFFFFF" mask="url(#mask-10)"></path>
                    <path d="M194.7403,58.4076 C194.4183,58.4076 194.1633,58.6696 194.1633,58.9846 C194.1633,59.2996 194.4183,59.5586 194.7403,59.5586 L206.8413,59.5586 C207.1673,59.5586 207.4193,59.2996 207.4193,58.9846 C207.4193,58.6696 207.1673,58.4076 206.8413,58.4076 L194.7403,58.4076 Z" id="Fill-71" fill="#596273" mask="url(#mask-10)"></path>
                    <path d="M185.7051,28.8822 C185.7051,20.5782 192.4601,13.8472 200.7881,13.8472 C209.1251,13.8472 215.8771,20.5782 215.8771,28.8822 C215.8771,29.3772 215.5141,36.3272 209.8291,43.6242 C208.1661,45.8212 208.4421,50.2512 208.4421,50.2512 L201.8541,50.2512 L199.7181,50.2512 L193.0901,50.2512 C193.0901,50.2512 193.4061,45.8212 191.7491,43.6242 C186.0591,36.3202 185.7051,29.3772 185.7051,28.8822" id="Fill-72" fill="#F0CA67" mask="url(#mask-10)"></path>
                    <path d="M200.7881,50.2509 L193.0901,50.2509 C193.0901,50.2509 193.4061,45.8219 191.7491,43.6239 C186.0591,36.3199 185.7051,29.3769 185.7051,28.8819 C185.7051,20.5789 192.4601,13.8479 200.7881,13.8479" id="Fill-73" fill="#F4DA80" mask="url(#mask-10)"></path>
                    <path d="M212.6641,28.8822 L211.3421,28.8822 C211.3421,23.0782 206.6101,18.3622 200.7881,18.3622 L200.7881,17.0432 C207.3421,17.0432 212.6641,22.3532 212.6641,28.8822" id="Fill-74" fill="#F4DA80" mask="url(#mask-10)"></path>
                    <polygon id="Fill-75" fill="#30363D" mask="url(#mask-10)" points="204.084 51.4277 202.78 51.2087 205.356 35.6637 206.66 35.8837"></polygon>
                    <polygon id="Fill-76" fill="#30363D" mask="url(#mask-10)" points="197.4952 51.4277 194.9192 35.8837 196.2252 35.6637 198.8022 51.2087"></polygon>
                    <path d="M205.9219,37.8524 C205.3869,37.8524 205.1529,37.3284 204.9819,36.9454 C204.9039,36.7844 204.7599,36.4504 204.6739,36.4504 C204.6039,36.4784 204.5019,36.7394 204.4409,36.8794 C204.2889,37.2674 204.0559,37.8524 203.4259,37.8524 C203.0509,37.8524 202.8229,37.4754 202.5649,37.0374 C202.4669,36.8764 202.2939,36.5924 202.1839,36.4824 C202.0949,36.5864 201.9589,36.8114 201.8759,36.9564 C201.5999,37.4174 201.3319,37.8524 200.9199,37.8524 C200.5149,37.8524 200.2529,37.4284 199.9919,36.9804 C199.8999,36.8304 199.7519,36.5894 199.6629,36.4874 C199.5589,36.5924 199.4099,36.8414 199.3129,37.0034 C199.0539,37.4404 198.8049,37.8524 198.4079,37.8524 C197.9659,37.8524 197.6829,37.3784 197.4089,36.9194 C197.3169,36.7654 197.1879,36.5464 197.1079,36.4604 C196.9969,36.4974 196.9209,36.6584 196.7909,36.9804 C196.6439,37.3464 196.4499,37.8524 195.9059,37.8524 L195.9059,37.1484 C195.9769,37.1214 196.0749,36.8624 196.1299,36.7234 C196.2899,36.3304 196.5209,35.7514 197.1539,35.7514 C197.5289,35.7514 197.7539,36.1234 198.0149,36.5604 C198.1129,36.7234 198.2879,37.0094 198.3929,37.1214 C198.4849,37.0144 198.6239,36.7874 198.7069,36.6444 C198.9859,36.1804 199.2439,35.7514 199.6629,35.7514 C200.0679,35.7514 200.3229,36.1724 200.5949,36.6194 C200.6869,36.7714 200.8239,37.0094 200.9199,37.1174 C201.0219,37.0064 201.1719,36.7584 201.2679,36.6004 C201.5259,36.1624 201.7749,35.7514 202.1679,35.7514 C202.6139,35.7514 202.8969,36.2234 203.1639,36.6844 C203.2599,36.8344 203.3979,37.0554 203.4719,37.1434 C203.5789,37.1024 203.6619,36.9454 203.7909,36.6214 C203.9329,36.2494 204.1389,35.7514 204.6739,35.7514 C205.2119,35.7514 205.4479,36.2734 205.6199,36.6584 C205.6919,36.8194 205.8389,37.1484 205.9219,37.1484 L205.9219,37.8524 Z" id="Fill-77" fill="#30363D" mask="url(#mask-10)"></path>
                    <path d="M208.4737,50.2587 L208.4737,58.1237 C208.4737,58.6587 208.0367,59.0967 207.4937,59.0967 L194.1047,59.0967 C193.5667,59.0967 193.1267,58.6587 193.1267,58.1237 L193.1267,50.2587 L208.4737,50.2587 Z" id="Fill-78" fill="#30363D" mask="url(#mask-10)"></path>
                    <line x1="208.7784" y1="51.0199" x2="192.8034" y2="51.0199" id="Fill-79" fill="#103754" mask="url(#mask-10)"></line>
                    <path d="M208.7784,51.79 L192.8034,51.79 C192.3804,51.79 192.0294,51.445 192.0294,51.02 C192.0294,50.593 192.3804,50.248 192.8034,50.248 L208.7784,50.248 C209.2084,50.248 209.5524,50.593 209.5524,51.02 C209.5524,51.445 209.2084,51.79 208.7784,51.79" id="Fill-80" fill="#596273" mask="url(#mask-10)"></path>
                    <line x1="208.7784" y1="53.5873" x2="192.8034" y2="53.5873" id="Fill-81" fill="#30363D" mask="url(#mask-10)"></line>
                    <path d="M208.7784,54.3583 L192.8034,54.3583 C192.3804,54.3583 192.0294,54.0103 192.0294,53.5873 C192.0294,53.1643 192.3804,52.8163 192.8034,52.8163 L208.7784,52.8163 C209.2084,52.8163 209.5524,53.1643 209.5524,53.5873 C209.5524,54.0103 209.2084,54.3583 208.7784,54.3583" id="Fill-82" fill="#596273" mask="url(#mask-10)"></path>
                    <line x1="208.7784" y1="56.1547" x2="192.8034" y2="56.1547" id="Fill-83" fill="#30363D" mask="url(#mask-10)"></line>
                    <path d="M208.7784,56.9267 L192.8034,56.9267 C192.3804,56.9267 192.0294,56.5867 192.0294,56.1547 C192.0294,55.7317 192.3804,55.3837 192.8034,55.3837 L208.7784,55.3837 C209.2084,55.3837 209.5524,55.7317 209.5524,56.1547 C209.5524,56.5867 209.2084,56.9267 208.7784,56.9267" id="Fill-84" fill="#596273" mask="url(#mask-10)"></path>
                    <line x1="200.7881" y1="8.5448" x2="200.7881" y2="0.2888" id="Stroke-85" stroke="#E7AD26" mask="url(#mask-10)"></line>
                    <line x1="190.2217" y1="11.3773" x2="186.0827" y2="4.2213" id="Stroke-86" stroke="#E7AD26" mask="url(#mask-10)"></line>
                    <line x1="182.4932" y1="19.0873" x2="175.3142" y2="14.9563" id="Stroke-87" stroke="#E7AD26" mask="url(#mask-10)"></line>
                    <line x1="179.6671" y1="29.6181" x2="171.3791" y2="29.6181" id="Stroke-88" stroke="#E7AD26" mask="url(#mask-10)"></line>
                    <line x1="219.086" y1="40.1361" x2="226.268" y2="44.2721" id="Stroke-89" stroke="#E7AD26" mask="url(#mask-10)"></line>
                    <line x1="221.921" y1="29.6073" x2="230.206" y2="29.6073" id="Stroke-90" stroke="#E7AD26" mask="url(#mask-10)"></line>
                    <line x1="219.086" y1="19.0771" x2="226.262" y2="14.9451" id="Stroke-91" stroke="#E7AD26" mask="url(#mask-10)"></line>
                    <line x1="211.3477" y1="11.3695" x2="215.4927" y2="4.2145" id="Stroke-92" stroke="#E7AD26" mask="url(#mask-10)"></line>
                    <line x1="200.7881" y1="8.5448" x2="200.7881" y2="0.2888" id="Stroke-93" stroke="#E7AD26" mask="url(#mask-10)"></line>
                    <line x1="200.7969" y1="8.5448" x2="200.7969" y2="0.2888" id="Stroke-94" stroke="#E7AD26" mask="url(#mask-10)"></line>
                    <line x1="211.3546" y1="11.3773" x2="215.4986" y2="4.2213" id="Stroke-95" stroke="#E7AD26" mask="url(#mask-10)"></line>
                    <line x1="219.086" y1="19.0873" x2="226.268" y2="14.9563" id="Stroke-96" stroke="#E7AD26" mask="url(#mask-10)"></line>
                    <line x1="221.921" y1="29.6181" x2="230.206" y2="29.6181" id="Stroke-97" stroke="#E7AD26" mask="url(#mask-10)"></line>
                    <line x1="182.4932" y1="40.1361" x2="175.3142" y2="44.2721" id="Stroke-98" stroke="#E7AD26" mask="url(#mask-10)"></line>
                    <line x1="179.6671" y1="29.6073" x2="171.3791" y2="29.6073" id="Stroke-99" stroke="#E7AD26" mask="url(#mask-10)"></line>
                    <line x1="182.502" y1="19.0771" x2="175.32" y2="14.9451" id="Stroke-100" stroke="#E7AD26" mask="url(#mask-10)"></line>
                    <line x1="190.2364" y1="11.3695" x2="186.0924" y2="4.2145" id="Stroke-101" stroke="#E7AD26" mask="url(#mask-10)"></line>
                    <line x1="200.7969" y1="8.5448" x2="200.7969" y2="0.2888" id="Stroke-102" stroke="#E7AD26" mask="url(#mask-10)"></line>
                    <path d="M103.1172,119.1327 L23.7342,119.1327 C21.5202,119.1327 19.7252,120.9267 19.7252,123.1407 C19.7252,125.3547 21.5202,127.1497 23.7342,127.1497 L103.1172,127.1497 C105.3312,127.1497 107.1262,125.3547 107.1262,123.1407 C107.1262,120.9267 105.3312,119.1327 103.1172,119.1327" id="Fill-103" fill="#E7AD26" mask="url(#mask-10)"></path>
                    <path d="M98.5567,119.1327 L28.2937,119.1327 C28.2937,117.2897 28.4707,115.4917 28.8137,113.7487 C28.9177,113.1947 29.0417,112.6437 29.1847,112.0997 C29.7427,109.9387 30.5527,107.8807 31.5847,105.9537 C31.8827,105.3927 32.2027,104.8417 32.5377,104.3047 C33.9727,102.0117 35.7287,99.9397 37.7417,98.1587 C38.3997,97.5737 39.0817,97.0227 39.7927,96.5097 C44.4207,93.1217 50.1267,91.1257 56.2967,91.1257 L70.5537,91.1257 C76.7277,91.1257 82.4337,93.1247 87.0587,96.5097 C87.7687,97.0267 88.4517,97.5737 89.1057,98.1587 C89.5327,98.5327 89.9477,98.9247 90.3537,99.3297 C91.8537,100.8297 93.1837,102.4967 94.3097,104.3047 C94.6497,104.8417 94.9677,105.3927 95.2657,105.9537 C96.2977,107.8807 97.1087,109.9387 97.6667,112.0997 C97.8087,112.6437 97.9337,113.1947 98.0367,113.7487 C98.3797,115.4917 98.5567,117.2897 98.5567,119.1327" id="Fill-104" fill="#FDDD39" mask="url(#mask-10)"></path>
                    <path d="M87.0587,96.5097 L39.7927,96.5097 C39.0817,97.0227 38.3997,97.5737 37.7417,98.1587 L89.1057,98.1587 C88.4517,97.5737 87.7687,97.0267 87.0587,96.5097 M94.3097,104.3047 L32.5377,104.3047 C32.2027,104.8417 31.8827,105.3927 31.5847,105.9537 L95.2657,105.9537 C94.9677,105.3927 94.6497,104.8417 94.3097,104.3047 M97.6667,112.0997 L29.1847,112.0997 C29.0417,112.6437 28.9177,113.1947 28.8137,113.7487 L98.0377,113.7487 C97.9337,113.1947 97.8087,112.6437 97.6667,112.0997" id="Fill-105" fill="#FFF234" mask="url(#mask-10)"></path>
                </g>
                <g id="Group-12" transform="translate(156.000000, 125.000000)">
                    <path d="M12.866,35.7565 C12.86,34.7065 12.485,33.8215 11.739,33.1005 C10.995,32.3825 9.746,31.7285 7.981,31.1535 C5.533,30.4205 3.741,29.4565 2.615,28.2675 C1.49,27.0665 0.925,25.5495 0.916,23.7065 C0.909,21.8265 1.45,20.2845 2.546,19.0735 C3.637,17.8655 5.139,17.1455 7.061,16.9105 L7.048,13.1455 L9.616,13.1355 L9.633,16.9145 C11.563,17.1725 13.07,17.9665 14.15,19.3175 C15.231,20.6675 15.774,22.5175 15.785,24.8675 L12.614,24.8815 C12.607,23.2565 12.214,21.9695 11.443,21.0205 C10.665,20.0715 9.629,19.5935 8.319,19.5975 C6.948,19.6045 5.905,19.9635 5.182,20.6735 C4.459,21.3835 4.1,22.3695 4.107,23.6325 C4.112,24.8055 4.496,25.7315 5.265,26.4305 C6.031,27.1165 7.295,27.7465 9.049,28.2995 C10.803,28.8685 12.177,29.4845 13.161,30.1655 C14.145,30.8425 14.87,31.6335 15.345,32.5355 C15.808,33.4385 16.048,34.4985 16.0560821,35.7135 C16.064,37.6485 15.487,39.2135 14.324,40.3945 C13.161,41.5795 11.531,42.2875 9.427,42.5165 L9.443,45.7955 L6.889,45.8045 L6.873,42.5265 C4.737,42.3345 3.058,41.5835 1.839,40.2645 C0.621,38.9435 0.008,37.1515 9.09494702e-13,34.8875 L3.189,34.8745 C3.194,36.4675 3.619,37.6885 4.461,38.5495 C5.304,39.4075 6.495,39.8305 8.035,39.8225 C9.541,39.8175 10.727,39.4455 11.585,38.7215 C12.442,37.9965 12.872,37.0085 12.866,35.7565" id="Fill-104" fill="#2B756C"></path>
                    <path d="M32.2362805,44.9589844 C35.3879732,44.9589844 37.9009126,43.9262695 39.7750988,41.8608398 C41.649285,39.7954102 42.5863781,37.0415039 42.5863781,33.5991211 C42.5863781,30.3556315 41.7181327,27.7088216 39.9816418,25.6586914 C38.2451509,23.6085612 35.9234549,22.5834961 33.0165539,22.5834961 C29.9719576,22.5834961 27.5699393,23.5932617 25.8104992,25.612793 C26.1164888,22.1704102 27.2486503,19.500651 29.2069836,17.6035156 C31.1653169,15.7063802 33.7968273,14.7272135 37.1015148,14.6660156 L37.1015148,14.6660156 L37.8817883,14.6660156 L37.8817883,11.0629883 L37.1244641,11.0629883 C31.9379406,11.1394857 28.0327486,12.803304 25.4088879,16.0544434 C22.7850272,19.3055827 21.4730969,24.0063477 21.4730969,30.1567383 L21.4730969,30.1567383 L21.4730969,31.7861328 C21.4730969,35.656901 22.467563,38.8200684 24.4564953,41.2756348 C26.4454276,43.7312012 29.0386893,44.9589844 32.2362805,44.9589844 Z M32.2362805,41.4477539 C30.3850435,41.4477539 28.8397961,40.6062826 27.6005383,38.9233398 C26.3612805,37.2403971 25.7416516,35.0219727 25.7416516,32.2680664 L25.7416516,32.2680664 L25.7416516,30.7075195 C26.2159354,29.3917643 27.0650565,28.2978516 28.2890148,27.4257812 C29.5129732,26.5537109 30.8516776,26.1176758 32.3051281,26.1176758 C34.1410656,26.1176758 35.6136405,26.8252767 36.7228527,28.2404785 C37.832065,29.6556803 38.3866711,31.5107422 38.3866711,33.8056641 C38.3866711,36.0852865 37.8397147,37.9288737 36.745802,39.3364258 C35.6518892,40.7439779 34.1487154,41.4477539 32.2362805,41.4477539 Z M58.0541516,44.9589844 C61.6648286,44.9589844 64.3192883,43.7503255 66.0175305,41.3330078 C67.7157727,38.9156901 68.5648938,35.2208659 68.5648938,30.2485352 L68.5648938,30.2485352 L68.5648938,24.7407227 C68.5189953,19.9366862 67.646925,16.3833822 65.9486828,14.0808105 C64.2504406,11.7782389 61.6036307,10.6269531 58.0082531,10.6269531 C54.3822766,10.6269531 51.7201672,11.8203125 50.021925,14.2070312 C48.3236828,16.59375 47.4745617,20.2426758 47.4745617,25.1538086 L47.4745617,25.1538086 L47.4745617,30.8222656 C47.5357596,35.5192057 48.4231294,39.0495605 50.1366711,41.4133301 C51.8502128,43.7770996 54.4893729,44.9589844 58.0541516,44.9589844 Z M58.0541516,41.4936523 C55.927524,41.4936523 54.340203,40.6330566 53.2921887,38.9118652 C52.2441743,37.1906738 51.7201672,34.5247396 51.7201672,30.9140625 L51.7201672,30.9140625 L51.7201672,24.1210938 C51.7507661,20.7246094 52.2632987,18.2078451 53.2577648,16.5708008 C54.252231,14.9337565 55.8357271,14.1152344 58.0082531,14.1152344 C60.1960786,14.1152344 61.7948742,14.9375814 62.8046398,16.5822754 C63.8144055,18.2269694 64.3192883,20.8470052 64.3192883,24.4423828 L64.3192883,24.4423828 L64.3192883,31.3959961 C64.2733898,34.8842773 63.7417329,37.4392904 62.7243176,39.0610352 C61.7069022,40.6827799 60.1501802,41.4936523 58.0541516,41.4936523 Z M84.4457531,44.9589844 C88.0564302,44.9589844 90.7108898,43.7503255 92.409132,41.3330078 C94.1073742,38.9156901 94.9564953,35.2208659 94.9564953,30.2485352 L94.9564953,30.2485352 L94.9564953,24.7407227 C94.9105969,19.9366862 94.0385266,16.3833822 92.3402844,14.0808105 C90.6420422,11.7782389 87.9952323,10.6269531 84.3998547,10.6269531 C80.7738781,10.6269531 78.1117688,11.8203125 76.4135266,14.2070312 C74.7152844,16.59375 73.8661633,20.2426758 73.8661633,25.1538086 L73.8661633,25.1538086 L73.8661633,30.8222656 C73.9273612,35.5192057 74.814731,39.0495605 76.5282727,41.4133301 C78.2418143,43.7770996 80.8809745,44.9589844 84.4457531,44.9589844 Z M84.4457531,41.4936523 C82.3191255,41.4936523 80.7318046,40.6330566 79.6837902,38.9118652 C78.6357759,37.1906738 78.1117688,34.5247396 78.1117688,30.9140625 L78.1117688,30.9140625 L78.1117688,24.1210938 C78.1423677,20.7246094 78.6549003,18.2078451 79.6493664,16.5708008 C80.6438326,14.9337565 82.2273286,14.1152344 84.3998547,14.1152344 C86.5876802,14.1152344 88.1864758,14.9375814 89.1962414,16.5822754 C90.206007,18.2269694 90.7108898,20.8470052 90.7108898,24.4423828 L90.7108898,24.4423828 L90.7108898,31.3959961 C90.6649914,34.8842773 90.1333345,37.4392904 89.1159191,39.0610352 C88.0985038,40.6827799 86.5417818,41.4936523 84.4457531,41.4936523 Z" id="600" fill="#427E7C" fill-rule="nonzero"></path>
                </g>
            </g>
        </g>
    </g>
</svg>