<svg xmlns="http://www.w3.org/2000/svg" xmlns:xlink="http://www.w3.org/1999/xlink" width="554" height="280" viewBox="0 0 554 280">
    <defs>
        <path id="prefix__a" d="M0.417 0L71.614 0 71.614 70.583 0.417 70.583z"/>
        <path id="prefix__c" d="M0 280L506.767 280 506.767 0 0 0z"/>
        <path id="prefix__e" d="M.047 8.469c0 4.374 3.503 7.92 7.822 7.92 4.321 0 7.822-3.546 7.822-7.92 0-4.375-3.501-7.921-7.822-7.921C3.549.548.047 4.094.047 8.469z"/>
        <path id="prefix__g" d="M.352 1.468c0 .784.636 1.419 1.42 1.419.783 0 1.418-.635 1.418-1.419C3.19.685 2.555.049 1.772.049.988.049.352.685.352 1.468z"/>
        <path id="prefix__i" d="M.328.679c0 2.994 2.425 5.42 5.417 5.42V.679H.328z"/>
        <path id="prefix__k" d="M.328 6.256h5.417V.837C2.753.837.328 3.264.328 6.256z"/>
        <path id="prefix__m" d="M.994 6.256h5.418C6.412 3.264 3.986.837.994.837v5.419z"/>
        <path id="prefix__o" d="M.994.68V6.1c2.992 0 5.418-2.426 5.418-5.42H.994z"/>
        <path id="prefix__q" d="M0 280L506.767 280 506.767 0 0 0z"/>
        <path id="prefix__s" d="M-.004 16.255c0 8.791 7.041 15.92 15.724 15.92 8.684 0 15.723-7.129 15.723-15.92C31.443 7.461 24.404.334 15.72.334 7.036.334-.004 7.461-.004 16.255z"/>
        <path id="prefix__u" d="M.792 3.254c0 1.574 1.278 2.854 2.853 2.854 1.574 0 2.852-1.28 2.852-2.854 0-1.575-1.278-2.852-2.852-2.852C2.07.402.792 1.679.792 3.254z"/>
        <path id="prefix__w" d="M.741.589c0 6.016 4.875 10.894 10.889 10.894V.589H.741z"/>
        <path id="prefix__y" d="M.741 10.92H11.63V.025C5.616.025.741 4.903.741 10.92z"/>
        <path id="prefix__A" d="M.809 10.92h10.89C11.699 4.903 6.823.025.809.025V10.92z"/>
        <path id="prefix__C" d="M.809.589v10.897c6.014 0 10.89-4.878 10.89-10.897H.809z"/>
        <path id="prefix__E" d="M0 0L150 0 150 52 0 52z"/>
    </defs>
    <g fill="none" fill-rule="evenodd">
        <path fill="#FFF" d="M263.311 214.884L294.72 214.884 294.72 177.096 263.311 177.096z"/>
        <g transform="translate(24)">
            <path fill="#FFF" d="M214.954 157.584h-.059c-3.71 0-6.718-3.01-6.718-6.72v-10.14c0-3.71 3.007-6.718 6.718-6.718h.06c3.71 0 6.718 3.008 6.718 6.719v10.14c0 3.71-3.009 6.719-6.719 6.719"/>
            <path fill="#D0D2D3" d="M214.925 154.433c-3.727 0-6.748-2.995-6.748-6.69v3.15c0 3.696 3.021 6.69 6.748 6.69 3.727 0 6.748-2.994 6.748-6.69v-3.15c0 3.695-3.02 6.69-6.748 6.69"/>
            <path fill="#FFF" d="M295.136 157.584h-.059c-3.711 0-6.718-3.01-6.718-6.72v-10.14c0-3.71 3.007-6.718 6.718-6.718h.059c3.71 0 6.719 3.008 6.719 6.719v10.14c0 3.71-3.009 6.719-6.719 6.719"/>
            <path fill="#D0D2D3" d="M295.107 154.433c-3.727 0-6.748-2.995-6.748-6.69v3.15c0 3.696 3.02 6.69 6.748 6.69 3.727 0 6.748-2.994 6.748-6.69v-3.15c0 3.695-3.021 6.69-6.748 6.69"/>
            <path fill="#FFF" d="M215.514 131.343c1.306-6.653 4.279-12.715 8.476-17.74 1.212-1.457 2.53-2.822 3.939-4.094 7.15-6.46 16.653-10.39 27.087-10.39.463 0 .93.008 1.392.028.157 0 .314.008.467.015 10.378.466 19.725 4.826 26.605 11.646 6.127 6.074 10.288 14.103 11.453 23.063.22 1.688.333 3.407.333 5.152v7.902c0 22.04-18.02 39.903-40.25 39.903-22.228 0-40.251-17.863-40.251-39.903v-7.902c0-1.696.106-3.364.314-5l.435-2.68z"/>
            <path fill="#D0D2D3" d="M255.016 180.525c-22.228 0-40.251-17.863-40.251-39.903v6.302c0 22.04 18.023 39.904 40.25 39.904 22.232 0 40.252-17.864 40.252-39.904v-6.302c0 22.04-18.02 39.903-40.251 39.903"/>
            <path fill="#4B6084" d="M215.2 131.343h4.159v19.122c0 1.19-.88 2.25-2.076 2.359-1.37.127-2.518-.936-2.518-2.263v-13.824c0-1.807.146-3.611.436-5.394M295.267 136.505v13.952c0 1.19-.876 2.252-2.07 2.367-1.37.13-2.523-.933-2.523-2.263v-19.218h3.844c.497 1.677.749 3.415.749 5.162"/>
            <path fill="#4B6084" d="M256.408 99.146c-4.071 6.3-14.163 19.917-30.507 29.494-3.935 2.302-7.547 4.06-10.822 5.382l.004-.016c.972-7.699 4.158-14.717 8.907-20.403 1.212-1.458 2.53-2.823 3.939-4.095 7.149-6.459 16.653-10.389 27.087-10.389.463 0 .93.007 1.392.027"/>
            <path fill="#808F91" d="M294.933 133.871c-5.479 1.645-16.278 3.196-33.426-1.249-17.34-4.491-30.5-13.399-37.517-19.019 1.212-1.458 2.53-2.823 3.938-4.094 7.15-6.459 16.654-10.39 27.088-10.39.62 0 1.243.012 1.858.043 10.38.466 19.726 4.825 26.606 11.646 6.126 6.074 10.288 14.103 11.453 23.063"/>
            <path fill="#4B6084" d="M261.507 109.29c-7.593-1.966-14.384-4.78-20.209-7.793-4.99 1.793-9.52 4.536-13.37 8.012-1.408 1.27-2.726 2.636-3.938 4.094 7.017 5.62 20.177 14.528 37.517 19.019 17.148 4.445 27.947 2.894 33.426 1.249-1.082-8.32-4.75-15.834-10.173-21.728-5.83.26-13.517-.33-23.253-2.852"/>
            <path fill="#808F91" d="M261.507 117.068c-11.086-2.87-20.46-7.548-27.616-12.017-2.127 1.303-4.123 2.796-5.963 4.457-1.408 1.272-2.726 2.637-3.938 4.095 7.017 5.62 20.177 14.528 37.517 19.02 17.148 4.444 27.947 2.892 33.426 1.248-.677-5.206-2.37-10.095-4.869-14.47-6.15.958-15.515 1.047-28.557-2.333"/>
            <path fill="#4B6084" d="M261.507 124.846c-14.226-3.685-25.634-10.341-33.149-15.716-.143.126-.288.25-.43.379-1.408 1.272-2.726 2.637-3.938 4.095 7.017 5.619 20.177 14.527 37.517 19.018 17.148 4.446 27.947 2.894 33.426 1.249-.328-2.523-.902-4.97-1.682-7.322-5.878 1.428-16.203 2.324-31.744-1.703"/>
            <path fill="#A62873" d="M255.035 160.142h-.04c-2.443 0-4.425-1.981-4.425-4.428v-5.76c0-2.445 1.982-4.425 4.426-4.425h.039c2.445 0 4.427 1.98 4.427 4.424v5.761c0 2.447-1.982 4.428-4.427 4.428"/>
            <path fill="#2F968A" d="M326.403 232.217v24.676c-2.278 1.65-4.623 3.215-7.021 4.696-5.526 3.42-11.342 6.412-17.416 8.92-1.555.652-3.132 1.266-4.726 1.847-.268.103-.542.2-.816.299h-.005c-6.26 2.242-12.75 3.985-19.442 5.196-2.8.51-5.63.923-8.494 1.226-3.494.386-7.032.619-10.608.7-.602.017-1.21.022-1.818.028h-.006l-.044.136-.416-.136c-.191.005-.383.005-.575.005-.35 0-.706 0-1.057-.005-.608-.006-1.21-.011-1.818-.027h-.006c-3.57-.082-7.097-.315-10.586-.701-2.896-.31-5.767-.727-8.603-1.243-6.65-1.211-13.106-2.948-19.327-5.18-.28-.097-.558-.201-.832-.303-1.594-.581-3.171-1.196-4.727-1.841-6.068-2.514-11.89-5.506-17.41-8.921-2.398-1.481-4.737-3.046-7.02-4.69v-27.375c0-17.282 14.129-31.284 31.55-31.284h13.69l9.465 30.74v.007l.996 3.23h31.359l.997-3.23 9.458-30.747h13.696c17.416 0 31.545 14.002 31.545 31.284v2.693h.017z"/>
            <path fill="#0E6DA0" d="M301.966 270.51c-1.555.65-3.132 1.265-4.726 1.846l.635-4.653.838-6.097 3.236-23.613.017 32.517zM212.786 272.35c-1.594-.58-3.17-1.195-4.727-1.84v-32.516l4.727 34.357z"/>
            <path fill="#FFF" d="M271.68 228.98l-.996 3.236-7.716 25.083v.006l-.16.522-1.954 6.362-1.446 4.696-1.96 6.364-1.397 4.555-.044.136-.416-.136c-.192.005-.384.005-.575.005-.351 0-.707 0-1.057-.005l-.181-.586-1.764-5.733-2.393-7.78-1.757-5.734-.806-2.617-7.727-25.138-.997-3.23v-.006l8.67-7.329 7.995-6.766h.006l7.947 6.717.082.065.005.005 8.642 7.308z"/>
            <path fill="#A62873" d="M239.719 142.089c0 1.86-1.522 3.37-3.4 3.37-1.876 0-3.398-1.51-3.398-3.37 0-1.861 1.522-3.37 3.399-3.37s3.399 1.509 3.399 3.37M277.112 142.089c0 1.86-1.522 3.37-3.4 3.37-1.877 0-3.4-1.51-3.4-3.37 0-1.861 1.523-3.37 3.4-3.37 1.878 0 3.4 1.509 3.4 3.37M255.016 172.125c-4.216 0-8.433-1.591-11.643-4.773-.481-.477-.481-1.25 0-1.728.48-.477 1.262-.477 1.743 0 5.459 5.412 14.34 5.412 19.799 0 .48-.477 1.262-.477 1.743 0 .482.478.482 1.25 0 1.728-3.21 3.182-7.426 4.773-11.642 4.773"/>
            <path fill="#E7AD26" d="M262.968 257.3v.006l-.16.52-1.954 6.364-1.446 4.696-1.96 6.363-1.397 4.556-.043.136-.416-.136c-.192.005-.384.005-.576.005-.35 0-.706 0-1.057-.005l-.18-.586-1.764-5.733-2.393-7.781-1.758-5.733-.805-2.617.4-4.512.449-5.017v-.005l.602-6.798v-.005l.444-5.017.334-3.784.033-.375.405-4.561h10.58l.406 4.56v.007l.033.369.69 7.84.476 5.315.64 7.21.417 4.718z"/>
            <path fill="#E8CD5D" d="M261.91 245.371L248.508 241.019 248.952 236.002 261.438 240.056zM262.968 257.304L262.968 257.301 262.549 252.581 247.905 247.826 247.459 252.842 262.808 257.825zM260.851 264.191L259.406 268.883 249.623 265.706 247.862 259.973z"/>
            <path fill="#F6D85E" d="M257.447 275.249L256.051 279.805 256.007 279.94 255.591 279.805 253.779 279.219 252.014 273.485z"/>
            <path fill="#E8CD5D" d="M258.633 232.218h-7.235c-4.08 0-6.897-4.051-5.445-7.832l2.22-5.78c.86-2.242 3.027-3.722 5.445-3.722h2.795c2.418 0 4.585 1.48 5.446 3.722l2.22 5.78c1.452 3.78-1.365 7.832-5.446 7.832"/>
            <path fill="#E2854A" d="M281.147 198.238L281.147 198.237 270.722 192.413 255.016 214.884 271.685 228.984zM228.87 198.238L228.87 198.237 239.295 192.413 255.001 214.884 238.332 228.984z"/>
            <path fill="#007D8D" d="M290.898 240.36l-33.024 39.417c-.602.017-1.21.021-1.818.027l14.634-47.588.996-3.23 9.458-30.746 8.637 27.282c.312.988-.209 2.047-1.183 2.41l-6.703 2.503c-1.687.624-1.704 2.987-.028 3.638l8.242 3.225c1.244.483 1.65 2.037.79 3.062M253.959 279.805c-.608-.006-1.21-.011-1.818-.027h-.006l-33.018-39.417c-.854-1.026-.454-2.58.795-3.062l8.236-3.225c1.682-.652 1.66-3.014-.027-3.638l-6.704-2.503c-.974-.363-1.495-1.422-1.183-2.41l8.637-27.282 20.75 67.464 2.394 7.78 1.763 5.734.18.586z"/>
            <path fill="#D0D2D3" d="M270.705 188.123L255.016 205.118 255.001 205.118 239.311 188.123 239.295 192.413 255.001 214.884 255.016 214.884 270.721 192.413z"/>
            <path fill="#E7AD26" d="M297.228 267.772h-9.182c-1.701 0-3.08-1.378-3.08-3.078v-.397c0-1.7 1.379-3.079 3.08-3.079h9.182c1.7 0 3.079 1.38 3.079 3.08v.396c0 1.7-1.38 3.078-3.08 3.078"/>
            <path fill="#0E6DA0" d="M361.337 205.126c-.728 1.397-1.48 2.776-2.262 4.138-4.423 7.705-9.694 14.877-15.674 21.389-.405.444-.815.882-1.23 1.316-2.294 2.412-4.681 4.727-7.164 6.937-.562.508-1.134 1-1.705 1.494-.092.087-.19.169-.281.247-.032.028-.064.059-.101.086-2.507 2.138-5.11 4.175-7.796 6.094-2.234 1.62-4.538 3.155-6.892 4.613-5.428 3.362-11.141 6.298-17.107 8.76-1.525.64-3.073 1.243-4.64 1.814-.262.1-.534.196-.801.293h-.005c-2.994 1.068-6.035 2.023-9.131 2.863-3.267.882-6.588 1.63-9.965 2.243-.691.123-1.387.246-2.083.36-2.068.333-4.156.617-6.257.84-3.432.38-6.906.609-10.421.69-.415.014-.83.019-1.25.023-.178 0-.353.005-.533.005h-.005l-.302.002c-.05 0-.1 0-.15-.002-.188.005-.377.005-.566.005-.346 0-.696 0-1.036-.005-.176 0-.351-.005-.521-.005-.424-.004-.843-.01-1.267-.022h-.005c-3.506-.082-6.971-.311-10.398-.69-2.101-.224-4.188-.508-6.262-.845-.732-.115-1.46-.243-2.188-.374-3.317-.603-6.58-1.34-9.795-2.206-3.114-.841-6.178-1.805-9.186-2.882-.272-.097-.55-.198-.816-.297-1.566-.571-3.115-1.174-4.644-1.81-5.957-2.466-11.675-5.407-17.098-8.76-2.354-1.458-4.653-2.992-6.892-4.608-2.723-1.951-5.36-4.016-7.897-6.185-.055-.042-.101-.091-.156-.137-.604-.516-1.198-1.037-1.792-1.567-2.466-2.192-4.838-4.49-7.11-6.887-.447-.471-.893-.946-1.331-1.425-5.985-6.495-11.251-13.667-15.665-21.367-.783-1.362-1.534-2.741-2.262-4.138-8.486-16.284-13.282-34.77-13.282-54.358 0-65.485 53.549-118.574 119.603-118.574S374.62 85.283 374.62 150.768c0 19.589-4.796 38.074-13.283 54.358m13.79-104.666c-6.566-15.391-15.964-29.211-27.933-41.076C335.226 47.518 321.286 38.2 305.76 31.69c-16.078-6.742-33.151-10.16-50.745-10.16-17.594 0-34.667 3.418-50.745 10.16-15.524 6.51-29.465 15.828-41.434 27.694-11.968 11.865-21.366 25.685-27.933 41.076-6.8 15.939-10.25 32.865-10.25 50.308 0 10.467 1.27 20.886 3.772 30.966 2.43 9.795 6.035 19.312 10.712 28.287.833 1.598 1.643 3.08 2.476 4.528 4.777 8.334 10.517 16.165 17.052 23.259.42.463.873.944 1.457 1.559 2.452 2.59 5.066 5.12 7.756 7.514.64.57 1.248 1.102 1.846 1.615.105.095.23.204.374.323 2.729 2.328 5.589 4.565 8.502 6.652 2.403 1.734 4.927 3.422 7.503 5.015 5.959 3.685 12.232 6.899 18.648 9.555 1.64.68 3.334 1.34 5.025 1.959.31.115.629.23.944.343 3.289 1.178 6.653 2.233 9.998 3.136 3.499.944 7.093 1.753 10.68 2.405.648.118 1.509.27 2.425.415 2.267.369 4.554.678 6.796.917 3.689.406 7.486.659 11.287.749.527.015 1.03.02 1.436.025h.116l.11.002c.109.002.219.003.328.003.369.005.747.005 1.119.005.193 0 .385 0 .578-.003l.138.003c.085 0 .17-.003.257-.004h.055c.133 0 .269-.002.405-.004l.125-.001h.05l.066-.001c.406-.005.909-.01 1.433-.026 3.804-.09 7.6-.342 11.287-.748 2.225-.237 4.519-.546 6.817-.916l.015-.003.015-.002c.764-.126 1.52-.26 2.23-.387l.016-.002.014-.003c3.642-.66 7.295-1.482 10.857-2.443 2.736-.742 5.464-1.577 8.142-2.49h.05l1.78-.636.129-.046c.265-.096.53-.191.792-.29 1.72-.63 3.408-1.288 5.015-1.961 6.424-2.652 12.699-5.866 18.65-9.553 2.62-1.622 5.15-3.314 7.513-5.028 2.859-2.044 5.68-4.246 8.386-6.55.1-.082.188-.157.263-.223.119-.102.252-.217.396-.347.558-.482 1.135-.981 1.73-1.518 2.655-2.365 5.27-4.9 7.777-7.532.452-.473.913-.967 1.37-1.466 6.534-7.117 12.277-14.954 17.057-23.282.827-1.437 1.638-2.92 2.472-4.52 4.675-8.972 8.279-18.49 10.71-28.284 2.502-10.08 3.77-20.5 3.77-30.966 0-17.443-3.447-34.37-10.248-50.308"/>
            <path fill="#8ED1E5" d="M338.422 228.476c-2.196 2.309-4.479 4.524-6.856 6.64-.538.485-1.085.957-1.63 1.428-.09.083-.182.162-.27.237-.03.026-.062.056-.098.083-2.398 2.047-4.889 3.995-7.459 5.832-2.139 1.552-4.343 3.02-6.597 4.415-5.194 3.216-10.66 6.026-16.37 8.383-1.46.612-2.94 1.189-4.44 1.735-.252.096-.512.188-.767.28h-.005c-2.866 1.024-5.776 1.936-8.738 2.74-3.126.843-6.306 1.561-9.538 2.147-.66.118-1.327.236-1.992.345-1.98.32-3.977.59-5.988.804-3.285.363-6.609.582-9.973.66-.397.014-.794.018-1.195.023-.172 0-.34.003-.512.003h-.004l-.29.002c-.048 0-.095 0-.142-.002-.18.005-.362.005-.542.005-.33 0-.666 0-.992-.005-.168 0-.335-.003-.498-.003-.406-.005-.808-.01-1.213-.023h-.005c-3.355-.078-6.67-.296-9.95-.66-2.01-.215-4.009-.485-5.993-.809-.7-.11-1.398-.231-2.094-.358-3.175-.577-6.296-1.28-9.374-2.111-2.98-.805-5.913-1.726-8.79-2.758-.262-.093-.526-.188-.782-.285-1.499-.546-2.98-1.123-4.444-1.73-5.7-2.36-11.173-5.175-16.362-8.383-2.253-1.395-4.453-2.863-6.596-4.41-2.606-1.868-5.128-3.844-7.557-5.92-.053-.038-.097-.087-.15-.13-.578-.495-1.147-.993-1.715-1.5-2.359-2.099-4.63-4.297-6.804-6.591-.427-.45-.855-.905-1.274-1.364-5.727-6.216-10.767-13.078-14.99-20.448-.75-1.302-1.469-2.623-2.165-3.96-8.122-15.584-12.712-33.274-12.712-52.02 0-62.668 51.247-113.475 114.46-113.475 63.213 0 114.46 50.807 114.46 113.475 0 18.746-4.59 36.436-12.712 52.02-.697 1.337-1.415 2.657-2.165 3.96-4.233 7.375-9.277 14.237-15 20.47-.388.424-.78.844-1.177 1.258m4.142 3.858c.417-.435.83-.876 1.236-1.32 6.007-6.543 11.301-13.746 15.744-21.487.787-1.366 1.542-2.751 2.273-4.155 8.524-16.359 13.342-34.926 13.342-54.605 0-65.78-53.79-119.107-120.143-119.107-66.352 0-120.144 53.328-120.144 119.108 0 19.678 4.818 38.245 13.342 54.603.732 1.404 1.486 2.79 2.273 4.156 4.434 7.737 9.724 14.94 15.735 21.465.44.48.89.959 1.338 1.43 2.281 2.409 4.665 4.718 7.141 6.92.597.531 1.194 1.054 1.8 1.572.056.047.102.098.157.139 2.551 2.18 5.198 4.252 7.933 6.213 2.25 1.624 4.56 3.165 6.923 4.629 5.448 3.367 11.191 6.321 17.175 8.8 1.537.637 3.092 1.243 4.665 1.817.27.1.546.202.82.298 3.021 1.082 6.1 2.05 9.227 2.895 3.231.873 6.508 1.61 9.84 2.216.731.132 1.462.262 2.198.375 2.083.34 4.18.625 6.29.85 3.443.38 6.923.61 10.445.692h.005c.426.014.847.02 1.272.024.172 0 .347.004.523.004.343.006.695.006 1.042.006.19 0 .38 0 .57-.006.048.002.098.002.148.002l.305-.002h.004c.18 0 .357-.003.537-.003.421-.005.838-.01 1.254-.024 3.531-.084 7.021-.313 10.47-.692 2.11-.226 4.205-.51 6.284-.846.698-.113 1.397-.238 2.091-.361 3.393-.615 6.73-1.368 10.011-2.253 3.11-.845 6.165-1.803 9.172-2.877h.005c.27-.096.542-.192.805-.293 1.574-.575 3.13-1.18 4.661-1.822 5.993-2.474 11.732-5.423 17.184-8.8 2.365-1.465 4.68-3.006 6.923-4.635 2.698-1.927 5.314-3.972 7.831-6.12.037-.027.07-.06.102-.087.092-.078.19-.16.282-.249.574-.494 1.148-.99 1.712-1.5 2.495-2.22 4.892-4.547 7.197-6.97"/>
            <path fill="#FFF" d="M255.016 31.66c66.13 0 119.779 52.975 120.135 118.452.004-.364.009-.727.009-1.093 0-65.78-53.792-119.108-120.144-119.108S134.872 83.238 134.872 149.02c0 .366.005.73.009 1.093.356-65.477 54.004-118.453 120.135-118.453"/>
            <g transform="translate(219)">
                <mask id="prefix__b" fill="#fff">
                    <use xlink:href="#prefix__a"/>
                </mask>
                <path fill="#0E6DA0" d="M71.614 35.292c0 19.49-15.938 35.29-35.598 35.29-19.661 0-35.599-15.8-35.599-35.29C.417 15.8 16.355 0 36.016 0c19.66 0 35.598 15.8 35.598 35.292" mask="url(#prefix__b)"/>
            </g>
            <path fill="#76C2D9" d="M285.935 35.292c0 16.929-13.843 30.652-30.92 30.652-17.075 0-30.918-13.723-30.918-30.652 0-16.93 13.843-30.652 30.919-30.652s30.919 13.723 30.919 30.652"/>
            <path fill="#0E6DA0" d="M446.39 129.154c0 36.504-29.85 66.095-66.67 66.095s-66.67-29.59-66.67-66.095c0-36.503 29.85-66.095 66.67-66.095s66.67 29.592 66.67 66.095"/>
            <path fill="#8ED1E5" d="M437.625 129.154c0 31.705-25.925 57.406-57.905 57.406s-57.906-25.7-57.906-57.406c0-31.704 25.925-57.406 57.906-57.406 31.98 0 57.905 25.702 57.905 57.406"/>
            <path fill="#0E6DA0" d="M201.541 129.154c0 36.504-29.849 66.095-66.669 66.095-36.82 0-66.669-29.59-66.669-66.095 0-36.503 29.848-66.095 66.67-66.095 36.82 0 66.668 29.592 66.668 66.095"/>
            <path fill="#8ED1E5" d="M192.778 129.154c0 31.705-25.925 57.406-57.906 57.406-31.98 0-57.905-25.7-57.905-57.406 0-31.704 25.925-57.406 57.905-57.406s57.906 25.702 57.906 57.406"/>
            <path stroke="#FFF" stroke-width=".918" d="M246.243 30.551L246.243 51.225 236.685 51.225 236.685 30.551 243.606 30.551M264.679 30.551L264.679 51.225 274.237 51.225 274.237 30.551 267.317 30.551M261.743 21.411L264.679 21.411 264.679 51.224 246.243 51.224 246.243 21.411 249.179 21.411M239.933 34.484L242.995 34.484M239.933 37.992L242.995 37.992M239.933 41.5L242.995 41.5M239.933 45.007L242.995 45.007M267.928 34.484L270.988 34.484M249.915 28.302L251.29 28.302M249.915 31.439L251.29 31.439M249.915 34.578L251.29 34.578M249.915 37.716L251.29 37.716M249.915 40.853L251.29 40.853M254.774 28.302L256.148 28.302M254.774 31.439L256.148 31.439M254.774 34.578L256.148 34.578M254.774 37.716L256.148 37.716M254.774 40.853L256.148 40.853M259.632 28.302L261.006 28.302M259.632 31.439L261.006 31.439M259.632 34.578L261.006 34.578M259.632 37.716L261.006 37.716M259.632 40.853L261.006 40.853M267.928 37.992L270.988 37.992M267.928 41.5L270.988 41.5M267.928 45.007L270.988 45.007"/>
            <path stroke="#FFF" stroke-width=".918" d="M257.972 49.002L257.972 44.821 252.95 44.821 252.95 49.002"/>
            <mask id="prefix__d" fill="#fff">
                <use xlink:href="#prefix__c"/>
            </mask>
            <path stroke="#FFF" stroke-width=".918" d="M251.642 25.197L259.28 25.197 259.28 17.626 251.642 17.626zM254.244 20.252L254.244 22.571M256.678 20.252L256.678 22.571M254.244 21.411L256.553 21.411M255.461 17.625L255.461 15.256M241.464 30.551L241.464 28.511M269.458 30.551L269.458 28.511" mask="url(#prefix__d)"/>
            <path fill="#E6E7E8" d="M155.694 173.119h-43.648c-1.896 0-3.433-1.536-3.433-3.433V87.349c0-1.895 1.537-3.431 3.433-3.431h43.648c1.896 0 3.432 1.536 3.432 3.431v82.337c0 1.897-1.536 3.433-3.432 3.433" mask="url(#prefix__d)"/>
            <path fill="#FFF" d="M149.84 173.119H117.9c-1.643 0-2.974-1.331-2.974-2.973V86.89c0-1.642 1.331-2.972 2.973-2.972h31.94c1.642 0 2.973 1.33 2.973 2.972v83.256c0 1.642-1.33 2.973-2.973 2.973" mask="url(#prefix__d)"/>
            <path fill="#1CAEE4" d="M153.433 167.087h-39.128c-1.344 0-2.434-1.09-2.434-2.434v-72.27c0-1.343 1.09-2.433 2.434-2.433h39.128c1.344 0 2.434 1.09 2.434 2.434v72.269c0 1.344-1.09 2.434-2.434 2.434" mask="url(#prefix__d)"/>
            <path fill="#BCBEC0" d="M137.917 88.082h-8.096c-.633 0-1.146-.508-1.146-1.136 0-.627.513-1.135 1.146-1.135h8.096c.633 0 1.146.508 1.146 1.135 0 .628-.513 1.136-1.146 1.136" mask="url(#prefix__d)"/>
            <path fill="#FFF" d="M137.917 171.226h-8.096c-.633 0-1.146-.508-1.146-1.136 0-.627.513-1.136 1.146-1.136h8.096c.633 0 1.146.508 1.146 1.136 0 .627-.513 1.136-1.146 1.136" mask="url(#prefix__d)"/>
            <path fill="#136DA0" d="M153.423 89.95h-39.107c-1.35 0-2.445 1.085-2.445 2.423v2.424h43.996v-2.424c0-1.338-1.094-2.423-2.444-2.423" mask="url(#prefix__d)"/>
            <path fill="#009ADD" d="M152.812 162.24L155.867 162.24 155.867 94.797 152.812 94.797z" mask="url(#prefix__d)"/>
            <path fill="#136DA0" d="M153.423 167.087h-39.107c-1.35 0-2.445-1.085-2.445-2.423v-2.424h43.996v2.424c0 1.338-1.094 2.423-2.444 2.423" mask="url(#prefix__d)"/>
            <path fill="#009ADD" d="M111.871 162.24L114.926 162.24 114.926 94.797 111.871 94.797z" mask="url(#prefix__d)"/>
            <path stroke="#FFF" stroke-linecap="round" stroke-linejoin="round" stroke-width="2.811" d="M121.351 131.504L146.387 131.504M121.351 138.036L146.387 138.036" mask="url(#prefix__d)"/>
            <path fill="#009ADD" d="M146.449 158.47H121.29c-.621 0-1.125-.503-1.125-1.124v-9.508c0-.621.504-1.125 1.125-1.125h25.159c.621 0 1.125.504 1.125 1.125v9.508c0 .62-.504 1.124-1.125 1.124" mask="url(#prefix__d)"/>
            <path fill="#E43D91" d="M146.449 156.79H121.29c-.621 0-1.125-.503-1.125-1.124v-9.508c0-.621.504-1.124 1.125-1.124h25.159c.621 0 1.125.503 1.125 1.124v9.508c0 .62-.504 1.125-1.125 1.125" mask="url(#prefix__d)"/>
            <path fill="#AD4A90" d="M146.449 155.111H121.29c-.621 0-1.125-.504-1.125-1.125v-9.508c0-.62.504-1.124 1.125-1.124h25.159c.621 0 1.125.503 1.125 1.124v9.508c0 .621-.504 1.125-1.125 1.125" mask="url(#prefix__d)"/>
            <path fill="#E43D91" d="M139.068 148.768c.021-.038.044-.076.061-.115.022-.054.037-.111.052-.167.006-.024.016-.046.021-.071.015-.071.021-.143.024-.216l.003-.028c.006-.345-.12-.695-.389-.96-.52-.517-1.365-.517-1.887 0l-3.373 3.345-1.666-1.65c-.52-.517-1.366-.517-1.887 0-.013.013-.022.03-.036.044-.24.26-.359.589-.352.918l.003.03c.003.072.01.142.024.213.005.025.015.05.022.075.015.054.028.108.051.161.017.042.042.08.063.12.02.035.035.071.057.105.048.072.104.14.168.206h.001l2.608 2.585c.103.101.224.18.353.244.183.09.383.143.591.143.177 0 .35-.035.51-.1.161-.067.308-.163.433-.287l2.878-2.855 1.44-1.427.006-.007c.061-.063.116-.128.161-.198.024-.034.04-.072.06-.108" mask="url(#prefix__d)"/>
            <path fill="#FEDE3A" d="M133.58 152.63c-.354 0-.693-.14-.944-.387l-2.608-2.586c-.522-.516-.522-1.353 0-1.87.52-.516 1.365-.516 1.886 0l1.666 1.65 3.374-3.345c.52-.517 1.365-.517 1.887 0 .52.516.52 1.353 0 1.87l-4.318 4.28c-.25.249-.59.389-.943.389" mask="url(#prefix__d)"/>
            <path fill="#F7CB15" d="M138.84 146.18l-4.316 4.28c-.251.248-.59.388-.944.388-.353 0-.693-.14-.944-.387l-2.608-2.586c-.014-.013-.023-.03-.036-.044-.481.519-.471 1.324.036 1.827l2.608 2.585c.25.249.59.388.944.388s.693-.14.944-.388l4.317-4.281c.507-.503.517-1.307.036-1.826-.013.014-.022.03-.036.044" mask="url(#prefix__d)"/>
            <path fill="#F8E482" d="M118 119.25L149.739 119.25 149.739 101.685 118 101.685z" mask="url(#prefix__d)"/>
        </g>
        <g transform="translate(150 102)">
            <mask id="prefix__f" fill="#fff">
                <use xlink:href="#prefix__e"/>
            </mask>
            <path fill="#FFF" d="M-0.09 16.525L15.828 16.525 15.828 0.411 -0.09 0.411z" mask="url(#prefix__f)"/>
        </g>
        <g transform="translate(168 109)">
            <mask id="prefix__h" fill="#fff">
                <use xlink:href="#prefix__g"/>
            </mask>
            <path fill="#2EAAAD" d="M0.216 3.024L3.327 3.024 3.327 -0.088 0.216 -0.088z" mask="url(#prefix__h)"/>
        </g>
        <g transform="translate(168 101)">
            <mask id="prefix__j" fill="#fff">
                <use xlink:href="#prefix__i"/>
            </mask>
            <path fill="#1D899B" d="M0.191 6.236L5.881 6.236 5.881 0.543 0.191 0.543z" mask="url(#prefix__j)"/>
        </g>
        <g transform="translate(168 113)">
            <mask id="prefix__l" fill="#fff">
                <use xlink:href="#prefix__k"/>
            </mask>
            <path fill="#1D899B" d="M0.191 6.393L5.881 6.393 5.881 0.7 0.191 0.7z" mask="url(#prefix__l)"/>
        </g>
        <path fill="#2EAAAD" d="M145.967 109.049c.783 0 1.419.637 1.419 1.42 0 .783-.636 1.419-1.42 1.419-.782 0-1.418-.636-1.418-1.42 0-.782.636-1.42 1.419-1.42"/>
        <g transform="translate(141 113)">
            <mask id="prefix__n" fill="#fff">
                <use xlink:href="#prefix__m"/>
            </mask>
            <path fill="#1D899B" d="M0.857 6.393L6.548 6.393 6.548 0.7 0.857 0.7z" mask="url(#prefix__n)"/>
        </g>
        <g transform="translate(141 101)">
            <mask id="prefix__p" fill="#fff">
                <use xlink:href="#prefix__o"/>
            </mask>
            <path fill="#1D899B" d="M1.001 0.632L6.726 0.627 6.726 6.32 0.994 6.369z" mask="url(#prefix__p)"/>
        </g>
        <g transform="translate(24)">
            <path fill="#A00B0F" d="M128.9 111.577c0-.154-.056-.283-.165-.389-.108-.105-.292-.2-.55-.285-.358-.107-.62-.249-.785-.423-.165-.175-.248-.397-.25-.667 0-.275.08-.5.24-.678.159-.177.38-.283.66-.317l-.001-.55.375-.003.003.554c.283.038.503.154.66.352.159.197.239.468.24.812l-.464.002c-.001-.238-.058-.427-.171-.565-.114-.139-.266-.209-.457-.208-.201.001-.354.053-.46.157-.105.104-.158.248-.157.434 0 .17.057.306.17.41.112.1.297.191.553.272.257.083.458.174.602.274.144.098.25.214.32.346.068.132.103.287.104.465 0 .283-.083.513-.253.686-.171.173-.41.276-.717.31l.002.48-.374.002-.002-.48c-.312-.029-.558-.138-.737-.332-.178-.193-.268-.455-.27-.787h.468c0 .232.063.41.186.536.124.126.298.188.523.187.22 0 .394-.055.52-.16.125-.108.188-.252.187-.435M132.743 111.566c0-.274-.089-.498-.266-.67-.175-.173-.404-.259-.687-.257-.28.001-.507.087-.677.26-.17.17-.254.396-.253.675.001.278.085.5.252.658.166.158.397.238.693.236.293 0 .523-.082.69-.243.166-.163.25-.383.248-.659m-.954-3.127c-.246.002-.445.078-.598.231-.15.153-.227.36-.226.621.001.25.077.452.23.604.15.154.35.231.601.23.25 0 .451-.08.6-.235.15-.154.223-.357.222-.606 0-.25-.079-.454-.236-.61-.156-.159-.354-.236-.593-.235m1.456.833c.001.244-.063.463-.192.655-.128.192-.304.343-.525.451.258.11.462.27.614.481.151.21.226.45.228.718.002.426-.14.765-.428 1.018-.286.254-.665.381-1.135.383-.474.002-.855-.122-1.14-.375-.288-.252-.432-.59-.434-1.013-.002-.266.071-.506.216-.72.145-.215.346-.378.603-.489-.22-.106-.393-.255-.52-.447-.128-.19-.192-.408-.193-.65-.002-.415.13-.744.395-.989.266-.245.617-.367 1.053-.369.433-.002.785.12 1.053.361.268.242.403.57.405.985M136.435 109.937c-.002-.529-.078-.915-.23-1.156-.148-.24-.385-.362-.707-.36-.322 0-.555.122-.701.364-.145.241-.22.612-.221 1.112l.004 1c.002.531.08.923.236 1.176.156.252.39.378.704.377.31 0 .539-.12.688-.362.15-.238.227-.615.23-1.128l-.003-1.023zm.63.852c.003.731-.12 1.276-.37 1.632-.248.357-.64.537-1.173.538-.525.002-.916-.169-1.17-.517-.254-.347-.388-.866-.4-1.556l-.003-.834c-.003-.723.12-1.26.369-1.612.25-.354.642-.53 1.177-.532.53-.003.922.165 1.174.504.252.337.383.858.392 1.566l.004.811zM140.092 109.919c-.002-.53-.08-.915-.23-1.156-.15-.241-.386-.362-.708-.361-.321 0-.554.123-.7.365-.146.24-.22.612-.222 1.112l.005.999c0 .532.08.924.236 1.177.156.252.39.378.704.377.31-.001.539-.121.688-.362.149-.238.226-.615.23-1.128l-.003-1.023zm.63.852c.003.73-.12 1.275-.37 1.63-.248.359-.64.539-1.173.54-.526.002-.917-.17-1.171-.517-.253-.347-.387-.866-.398-1.556l-.003-.835c-.004-.722.119-1.26.368-1.612.25-.353.64-.53 1.177-.531.53-.003.922.164 1.174.503.252.337.383.859.393 1.567l.003.81z"/>
            <path fill="#FFF" d="M146.017 104.275h-4.57c-.778 0-1.408-.63-1.408-1.406v-2.513c0-.776.63-1.406 1.407-1.406h4.571v5.325z"/>
            <path fill="#D1D3D4" d="M140.04 101.323v1.687c0 .7.57 1.265 1.276 1.265h4.702v-1.686h-4.702c-.705 0-1.276-.567-1.276-1.266"/>
            <path fill="#FFF" d="M145.162 106.07v-8.914c0-.87 1.037-1.333 1.694-.755l5.064 4.457c.456.401.456 1.107 0 1.51l-5.064 4.456c-.657.578-1.694.116-1.694-.755"/>
            <path fill="#D1D3D4" d="M151.92 100.858l-.1-.089-4.964 4.368c-.657.578-1.694.116-1.694-.755v1.687c0 .871 1.037 1.333 1.694.755l5.064-4.457c.456-.402.456-1.108 0-1.509"/>
            <path fill="#FFF" d="M121.172 121.795h4.57c.778 0 1.408-.63 1.408-1.406v-2.513c0-.776-.63-1.405-1.407-1.405h-4.571v5.324z"/>
            <path fill="#D1D3D4" d="M127.15 118.843v1.687c0 .699-.572 1.265-1.277 1.265h-4.702v-1.686h4.702c.705 0 1.276-.567 1.276-1.266"/>
            <path fill="#FFF" d="M122.027 123.59v-8.914c0-.87-1.037-1.332-1.694-.755l-5.064 4.457c-.456.4-.456 1.108 0 1.51l5.064 4.456c.657.578 1.694.116 1.694-.754"/>
            <path fill="#D1D3D4" d="M115.269 118.378l.1-.09 4.964 4.369c.657.578 1.694.117 1.694-.755v1.688c0 .87-1.037 1.332-1.694.754l-5.064-4.456c-.456-.402-.456-1.11 0-1.51"/>
            <path fill="#FFF" d="M410.541 149.478l-15.776 3.091c-2.913.57-5.888.731-8.835.481-1.95-.165-3.434-1.814-3.434-3.755v-1.884c0-.695.567-1.257 1.268-1.257h7.713c2.038 0 3.816-1.558 3.877-3.577.063-2.09-1.627-3.805-3.722-3.805h-36.36v19.005h2.067c1.351 0 2.66.472 3.694 1.335.742.618 1.63 1.04 2.581 1.226l18.865 3.697c4.057.794 8.23.794 12.286 0l17.25-3.38c1.781-.349 3.066-1.898 3.066-3.698v-3.78c0-2.377-2.189-4.16-4.54-3.699"/>
            <path fill="#D1D3D4" d="M412.015 155.524l-17.25 3.38c-4.056.794-8.229.794-12.286 0l-18.865-3.696c-.95-.187-1.839-.609-2.58-1.227-1.036-.862-2.344-1.335-3.695-1.335h-2.067v5.131h2.067c1.351 0 2.66.473 3.694 1.335.742.618 1.63 1.04 2.581 1.226l18.865 3.697c4.057.794 8.23.794 12.286 0l17.25-3.38c1.781-.349 3.065-1.898 3.065-3.698v-3.78c0-.233-.02-.459-.06-.677-.275 1.502-1.45 2.72-3.005 3.024"/>
            <path fill="#009ADD" d="M351.487 165.762h-4.627c-2.091 0-3.786-1.695-3.786-3.786v-26.197c0-2.091 1.695-3.787 3.786-3.787h4.627c2.09 0 3.786 1.696 3.786 3.787v26.197c0 2.09-1.695 3.786-3.786 3.786"/>
            <path fill="#0E6DA0" d="M351.47 157.385h-4.595c-2.1 0-3.801-1.687-3.801-3.77v8.377c0 2.082 1.702 3.77 3.801 3.77h4.596c2.1 0 3.801-1.688 3.801-3.77v-8.377c0 2.083-1.702 3.77-3.801 3.77"/>
            <path fill="#D1D3D4" d="M382.496 149.296v-1.885c0-.694.567-1.257 1.268-1.257h7.695c1.963 0 3.721-1.43 3.883-3.37.011-.134.015-.267.013-.4h-10.674c-3.122 0-5.578 2.648-5.317 5.733.222 2.616 2.345 4.676 4.988 4.837l1.578.097c-1.95-.165-3.434-1.815-3.434-3.755"/>
            <mask id="prefix__r" fill="#fff">
                <use xlink:href="#prefix__q"/>
            </mask>
            <path fill="#175F6C" d="M352.494 119.292L406.945 119.292 406.945 84.434 352.494 84.434z" mask="url(#prefix__r)"/>
            <path fill="#1C7685" d="M350.196 123.825L409.243 123.825 409.243 88.517 350.196 88.517z" mask="url(#prefix__r)"/>
            <path fill="#F8E482" d="M347.822 127.908L411.618 127.908 411.618 92.6 347.822 92.6z" mask="url(#prefix__r)"/>
        </g>
        <g transform="translate(388 94)">
            <mask id="prefix__t" fill="#fff">
                <use xlink:href="#prefix__s"/>
            </mask>
            <path fill="#FFF" d="M-0.278 32.449L31.718 32.449 31.718 0.059 -0.278 0.059z" mask="url(#prefix__t)"/>
        </g>
        <g transform="translate(424 107)">
            <mask id="prefix__v" fill="#fff">
                <use xlink:href="#prefix__u"/>
            </mask>
            <path fill="#2EAAAD" d="M0.517 6.382L6.771 6.382 6.771 0.127 0.517 0.127z" mask="url(#prefix__v)"/>
        </g>
        <g transform="translate(424 92)">
            <mask id="prefix__x" fill="#fff">
                <use xlink:href="#prefix__w"/>
            </mask>
            <path fill="#1D899B" d="M0.467 11.757L11.905 11.757 11.905 0.313 0.467 0.313z" mask="url(#prefix__x)"/>
        </g>
        <g transform="translate(424 117)">
            <mask id="prefix__z" fill="#fff">
                <use xlink:href="#prefix__y"/>
            </mask>
            <path fill="#1D899B" d="M0.467 11.195L11.905 11.195 11.905 -0.249 0.467 -0.249z" mask="url(#prefix__z)"/>
        </g>
        <path fill="#2EAAAD" d="M379.795 107.401c1.574 0 2.852 1.28 2.852 2.854 0 1.575-1.278 2.852-2.852 2.852-1.574 0-2.853-1.277-2.853-2.852s1.28-2.854 2.853-2.854"/>
        <g transform="translate(371 117)">
            <mask id="prefix__B" fill="#fff">
                <use xlink:href="#prefix__A"/>
            </mask>
            <path fill="#1D899B" d="M0.535 11.195L11.973 11.195 11.973 -0.249 0.535 -0.249z" mask="url(#prefix__B)"/>
        </g>
        <g transform="translate(371 92)">
            <mask id="prefix__D" fill="#fff">
                <use xlink:href="#prefix__C"/>
            </mask>
            <path fill="#1D899B" d="M0.824 0.493L12.331 0.482 12.331 11.927 0.809 12.024z" mask="url(#prefix__D)"/>
        </g>
        <g>
            <path fill="#AD4A90" d="M393.731 7.482c-.002-.309-.112-.569-.332-.78-.218-.213-.586-.406-1.105-.574-.72-.215-1.248-.5-1.579-.849-.33-.354-.497-.8-.5-1.342-.002-.553.158-1.007.48-1.363.321-.356.763-.568 1.328-.636L392.02.83l.756-.003.005 1.112c.568.076 1.011.31 1.33.707.317.397.476.941.48 1.633l-.933.004c-.002-.478-.118-.857-.345-1.136-.228-.279-.533-.42-.918-.419-.404.002-.71.108-.924.317-.212.208-.318.5-.316.871.001.344.115.617.341.822.225.202.597.388 1.113.551.516.167.92.348 1.21.548.29.2.503.432.642.698.137.265.207.577.21.934.002.57-.168 1.03-.51 1.377-.342.35-.822.557-1.44.624l.004.965-.75.003-.006-.965c-.629-.056-1.122-.277-1.48-.665-.359-.389-.54-.916-.542-1.582l.938-.004c.001.47.127.828.374 1.081.248.253.6.377 1.052.375.443-.002.792-.11 1.044-.324.252-.213.38-.504.377-.872M401.457 7.462c0-.552-.18-1.001-.534-1.347-.352-.347-.813-.52-1.382-.517-.565.002-1.02.175-1.36.52-.343.345-.512.798-.51 1.36.003.559.171 1.003.507 1.322.333.318.798.478 1.394.475.59-.001 1.052-.165 1.386-.49.334-.326.502-.768.5-1.323m-1.919-6.285c-.495.003-.895.155-1.2.463-.306.307-.458.722-.456 1.248.002.5.155.908.46 1.216.301.308.705.462 1.21.46.503-.002.906-.158 1.205-.47.301-.311.45-.718.448-1.22-.002-.504-.16-.913-.475-1.227-.314-.317-.71-.472-1.192-.47m2.927 1.673c.002.492-.127.93-.386 1.318-.258.384-.61.689-1.055.905.518.22.93.54 1.234.966.303.423.455.907.458 1.444.004.856-.283 1.54-.86 2.047-.576.51-1.337.766-2.28.77-.954.005-1.719-.246-2.296-.754-.577-.506-.866-1.185-.87-2.036-.003-.535.144-1.02.434-1.448.291-.432.695-.76 1.212-.981-.442-.215-.79-.515-1.045-.9-.257-.385-.387-.821-.388-1.308-.004-.834.262-1.495.795-1.986.535-.491 1.24-.737 2.116-.741.87-.004 1.577.236 2.116.723.54.488.811 1.147.815 1.98M408.877 4.187c-.004-1.065-.157-1.84-.46-2.324-.3-.486-.776-.727-1.425-.724-.645.002-1.114.247-1.407.732-.292.485-.442 1.23-.445 2.235l.008 2.008c.004 1.07.162 1.858.476 2.365.312.507.784.761 1.415.758.622-.002 1.083-.243 1.382-.726.3-.479.456-1.236.465-2.267l-.01-2.057zm1.267 1.712c.005 1.47-.242 2.565-.742 3.281-.501.717-1.288 1.077-2.36 1.081-1.057.006-1.842-.34-2.352-1.039-.511-.696-.78-1.74-.803-3.127l-.007-1.678c-.005-1.453.242-2.535.742-3.24.502-.71 1.29-1.066 2.366-1.07 1.067-.004 1.853.333 2.36 1.013.506.677.769 1.726.788 3.15l.008 1.63zM416.227 4.15c-.004-1.065-.157-1.84-.46-2.324-.302-.486-.777-.728-1.425-.725-.645.003-1.114.248-1.407.732-.293.484-.443 1.231-.447 2.235l.01 2.01c.004 1.07.162 1.857.475 2.364.313.507.784.761 1.415.758.623-.003 1.084-.243 1.383-.726.299-.478.455-1.237.463-2.268l-.007-2.056zm1.267 1.711c.006 1.471-.241 2.564-.743 3.281-.501.718-1.287 1.078-2.358 1.082-1.058.004-1.843-.343-2.354-1.039-.51-.697-.78-1.742-.802-3.128l-.006-1.678c-.006-1.453.24-2.534.74-3.24.503-.71 1.29-1.065 2.367-1.069 1.066-.005 1.853.331 2.36 1.012.506.676.769 1.727.789 3.15l.007 1.63z" transform="translate(0 105)"/>
            <path fill="#FFF" d="M415.213 107.937L415.213 73.21 450.242 107.937z" transform="translate(0 105)"/>
            <g transform="translate(0 105) translate(404 96)">
                <mask id="prefix__F" fill="#fff">
                    <use xlink:href="#prefix__E"/>
                </mask>
                <path fill="#FFF" d="M138.433 52H11.567C5.179 52 0 47.66 0 42.306V9.693C0 4.34 5.179 0 11.567 0h126.866C144.821 0 150 4.34 150 9.693v32.613C150 47.66 144.821 52 138.433 52" mask="url(#prefix__F)"/>
            </g>
            <path fill="#FFF" d="M139.554 107.937L139.554 73.21 104.525 107.937z" transform="translate(0 105)"/>
            <path fill="#FFF" d="M12.176 147.111h126.866c6.388 0 11.566-4.34 11.566-9.693v-32.614c0-5.353-5.178-9.693-11.566-9.693H12.176c-6.388 0-11.568 4.34-11.568 9.693v32.614c0 5.353 5.18 9.693 11.568 9.693" transform="translate(0 105)"/>
        </g>
        <text fill="#ED5454" font-family="PingFangTC-Semibold, PingFang TC" font-size="24" font-weight="500" letter-spacing="4.8">
            <tspan x="424.9" y="236">實體紙本</tspan>
        </text>
        <text fill="#0E6DA0" font-family="PingFangTC-Semibold, PingFang TC" font-size="24" font-weight="500" letter-spacing="4.8">
            <tspan x="19.9" y="236">電子票券</tspan>
        </text>
    </g>
</svg>
