<?xml version="1.0" encoding="UTF-8"?>
<svg width="365px" height="252px" viewBox="0 0 365 252" version="1.1" xmlns="http://www.w3.org/2000/svg" xmlns:xlink="http://www.w3.org/1999/xlink">
    <!-- Generator: Sketch 61.1 (89650) - https://sketch.com -->
    <title>Group 242 outline</title>
    <desc>Created with Sketch.</desc>
    <defs>
        <polygon id="path-1" points="0.3245 0.19 1.3245 0.19 1.3245 0.9897 0.3245 0.9897"></polygon>
        <polygon id="path-3" points="0.6333 0.19 1.6333 0.19 1.6333 0.8118 0.6333 0.8118"></polygon>
        <polygon id="path-5" points="0.8308 1.19 1.8308 1.19 1.8308 1.7116 0.8308 1.7116"></polygon>
        <polygon id="path-7" points="0.29 1.19 1.29 1.19 1.29 1.7505 0.29 1.7505"></polygon>
        <polygon id="path-9" points="0.9835 0.19 1.9835 0.19 1.9835 0.8871 0.9835 0.8871"></polygon>
        <polygon id="path-11" points="0.6476 0.19 1.6476 0.19 1.6476 1.0987 0.6476 1.0987"></polygon>
        <polygon id="path-13" points="0.9527 0.19 9.8357 0.19 9.8357 228.0894 0.9527 228.0894"></polygon>
        <polygon id="path-15" points="0.2282 0.6741 13.201 0.6741 13.201 21.7721 0.2282 21.7721"></polygon>
        <polygon id="path-17" points="0.2282 0.5918 13.201 0.5918 13.201 11.7718 0.2282 11.7718"></polygon>
    </defs>
    <g id="懶人包" stroke="none" stroke-width="1" fill="none" fill-rule="evenodd">
        <g id="小資振興_懶人包_安心旅遊" transform="translate(-1112.000000, -554.000000)">
            <g id="Group-242-outline" transform="translate(1112.000000, 552.000000)">
                <path d="M270.2337,194.0245 L270.2337,218.8855 C266.9657,222.6865 263.4147,226.2385 259.6147,229.5085 C259.5867,229.5345 259.5577,229.5585 259.5297,229.5845 C255.6657,232.9015 251.5427,235.9345 247.1997,238.6455 C246.1887,239.2775 245.1637,239.8905 244.1277,240.4875 C244.1237,240.4905 244.1207,240.4905 244.1137,240.4945 C242.1977,241.5975 240.2427,242.6405 238.2487,243.6165 L238.2447,243.6165 C230.1297,247.5935 221.4057,250.5035 212.2447,252.1705 C209.9347,252.5925 207.5997,252.9335 205.2367,253.1925 C204.3247,253.2925 203.4137,253.3805 202.4947,253.4555 C199.8077,253.6785 197.0897,253.7925 194.3477,253.7985 L193.9157,253.7985 C191.1897,253.7925 188.4897,253.6785 185.8217,253.4595 C185.8107,253.4595 185.7967,253.4595 185.7827,253.4555 C184.8637,253.3805 183.9517,253.2925 183.0407,253.1925 C180.6487,252.9295 178.2857,252.5865 175.9477,252.1565 C166.8147,250.4855 158.1147,247.5795 150.0287,243.6165 C148.0317,242.6365 146.0687,241.5935 144.1497,240.4905 C143.1137,239.8905 142.0887,239.2775 141.0767,238.6455 C136.7027,235.9175 132.5537,232.8585 128.6627,229.5085 C124.8627,226.2385 121.3107,222.6865 118.0427,218.8855 L118.0427,191.1195 C118.0427,183.7955 120.3837,177.0225 124.3587,171.4985 C130.4637,163.0145 140.4277,157.4865 151.6787,157.4865 L236.5877,157.4865 C238.2517,157.4865 239.8867,157.6075 241.4877,157.8415 C250.7057,159.1865 258.7107,164.2705 263.9117,171.5085 C267.8817,177.0265 270.2157,183.7985 270.2157,191.1195 L270.2157,194.0245 L270.2337,194.0245 Z" id="Fill-1" fill="#FDDD39"></path>
                <path d="M244.1136,211.8253 L244.1136,240.4943 C242.1976,241.5973 240.2426,242.6403 238.2486,243.6163 L238.2446,243.6163 C230.1306,247.5943 221.4056,250.5033 212.2446,252.1713 C209.9346,252.5933 207.5996,252.9333 205.2366,253.1923 C204.3246,253.2923 203.4136,253.3813 202.4946,253.4553 L196.2316,253.7143 L194.3476,253.7923 L194.3476,253.8093 L194.3196,253.8093 L194.1376,253.7993 L194.1346,253.7993 L193.9466,253.8093 L193.9156,253.8093 L193.9156,253.7923 L192.0456,253.7183 L185.8216,253.4593 C185.8106,253.4593 185.7976,253.4593 185.7826,253.4553 C184.8636,253.3813 183.9516,253.2923 183.0406,253.1923 C180.6486,252.9303 178.2856,252.5863 175.9476,252.1563 C166.8146,250.4853 158.1146,247.5793 150.0286,243.6163 C148.0316,242.6373 146.0686,241.5943 144.1496,240.4903 L144.1496,200.2693 C147.9256,178.9103 159.9526,165.5733 177.3876,157.4863 L194.1346,189.9373 L210.8786,157.4863 C219.1486,161.3223 226.1986,166.3393 231.7296,172.8323 C230.6016,176.2703 229.9886,179.9423 229.9886,183.7573 C229.9886,195.2563 235.5416,205.4573 244.1136,211.8253" id="Fill-3" fill="#FDDD39"></path>
                <polygon id="Fill-5" fill="#FFFFFF" points="177.3861 157.4864 161.8221 157.4864 174.6641 205.6434 194.1331 189.9404"></polygon>
                <polygon id="Fill-7" fill="#FFFFFF" points="210.8851 157.4864 226.4491 157.4864 213.6071 205.6434 194.1391 189.9404"></polygon>
                <polygon id="Fill-9" fill="#FFFFFF" points="196.2327 189.9386 196.2327 253.7126 194.3477 253.7926 194.3477 253.8086 194.3187 253.8086 194.1337 253.8006 193.9457 253.8086 193.9167 253.8086 193.9167 253.7926 192.0447 253.7166 192.0447 189.9386"></polygon>
                <polygon id="Fill-11" fill="#D0D2D3" points="210.8851 157.4864 198.8781 193.7624 194.1391 189.9404"></polygon>
                <polygon id="Fill-13" fill="#D0D2D3" points="177.3861 157.4864 189.3941 193.7624 194.1331 189.9404"></polygon>
                <path d="M144.1497,200.2696 L144.1497,240.4906 C143.1137,239.8906 142.0877,239.2776 141.0767,238.6456 C136.7027,235.9166 132.5537,232.8586 128.6627,229.5086 C124.8627,226.2386 121.3107,222.6866 118.0427,218.8856 L118.0427,200.2696 L144.1497,200.2696 Z" id="Fill-15" fill="#FFFFFF"></path>
                <path d="M244.1273,240.4874 L244.1123,209.0294 L244.1093,200.2694 L238.2483,243.6164 C240.2423,242.6404 242.1973,241.5974 244.1123,240.4944 L244.1273,240.4874 Z" id="Fill-17" fill="#E7AD26"></path>
                <path d="M150.0286,243.6163 C148.0316,242.6373 146.0686,241.5943 144.1496,240.4903 L144.1496,200.2693 L150.0286,243.6163 Z" id="Fill-19" fill="#E7AD26"></path>
                <path d="M151.4027,113.7745 L151.4027,113.7745 C147.4297,113.7745 144.2097,110.5535 144.2097,106.5815 L144.2097,95.6155 C144.2097,91.6435 147.4297,88.4225 151.4027,88.4225 C155.3757,88.4225 158.5957,91.6435 158.5957,95.6155 L158.5957,106.5815 C158.5957,110.5535 155.3757,113.7745 151.4027,113.7745" id="Fill-21" fill="#FFFFFF"></path>
                <path d="M151.4027,110.3858 L151.4027,110.3858 C147.4297,110.3858 144.2097,107.1658 144.2097,103.1928 L144.2097,106.5808 C144.2097,110.5538 147.4297,113.7748 151.4027,113.7748 C155.3757,113.7748 158.5957,110.5538 158.5957,106.5808 L158.5957,103.1928 C158.5957,107.1658 155.3757,110.3858 151.4027,110.3858" id="Fill-23" fill="#D0D2D3"></path>
                <path d="M236.8743,113.7745 L236.8743,113.7745 C232.9013,113.7745 229.6813,110.5535 229.6813,106.5815 L229.6813,95.6155 C229.6813,91.6435 232.9013,88.4225 236.8743,88.4225 C240.8473,88.4225 244.0673,91.6435 244.0673,95.6155 L244.0673,106.5815 C244.0673,110.5535 240.8473,113.7745 236.8743,113.7745" id="Fill-25" fill="#FFFFFF"></path>
                <path d="M236.8743,110.3858 L236.8743,110.3858 C232.9013,110.3858 229.6813,107.1658 229.6813,103.1928 L229.6813,106.5808 C229.6813,110.5538 232.9013,113.7748 236.8743,113.7748 C240.8473,113.7748 244.0673,110.5538 244.0673,106.5808 L244.0673,103.1928 C244.0673,107.1658 240.8473,110.3858 236.8743,110.3858" id="Fill-27" fill="#D0D2D3"></path>
                <path d="M177.3978,134.755 L177.3978,157.486 L177.3858,157.486 L177.3898,157.49 C185.8188,168.541 202.4528,168.539 210.8778,157.486 L210.8788,157.486 L210.8788,134.755 L177.3978,134.755 Z" id="Fill-29" fill="#FFFFFF"></path>
                <path d="M177.39,157.4903 L177.39,157.4903 L194.135,189.9373 L210.878,157.4863 L210.877,157.4863 C202.452,168.5393 185.818,168.5413 177.39,157.4903" id="Fill-31" fill="#67B0D0"></path>
                <path d="M152.0306,85.5597 C153.4236,78.4057 156.5926,71.8877 161.0656,66.4857 C162.3576,64.9177 163.7626,63.4497 165.2636,62.0827 C172.8856,55.1387 183.0166,50.9107 194.1386,50.9107 C194.6326,50.9107 195.1296,50.9197 195.6226,50.9397 C195.7906,50.9397 195.9576,50.9487 196.1206,50.9567 C207.1836,51.4587 217.1466,56.1457 224.4806,63.4787 C231.0106,70.0107 235.4476,78.6437 236.6896,88.2777 C236.9236,90.0917 237.0446,91.9397 237.0446,93.8167 L237.0446,102.3127 C237.0446,126.0117 217.8376,145.2197 194.1386,145.2197 C170.4446,145.2197 151.2326,126.0117 151.2326,102.3127 L151.2326,93.8167 C151.2326,91.9947 151.3446,90.2007 151.5666,88.4407 L152.0306,85.5597 Z" id="Fill-33" fill="#FFFFFF"></path>
                <path d="M194.139,138.4425 C170.445,138.4425 151.233,119.2345 151.233,95.5365 L151.233,102.3135 C151.233,126.0115 170.445,145.2195 194.139,145.2195 C217.837,145.2195 237.044,126.0115 237.044,102.3135 L237.044,95.5365 C237.044,119.2345 217.837,138.4425 194.139,138.4425" id="Fill-35" fill="#D0D2D3"></path>
                <path d="M152.0306,85.5597 L156.1286,85.5597 L156.1286,106.1217 C156.1286,107.4627 155.0936,108.6297 153.7526,108.6667 C152.3656,108.7057 151.2326,107.5967 151.2326,106.2227 L151.2326,91.4297 C151.2326,89.4457 151.5016,87.4717 152.0306,85.5597" id="Fill-37" fill="#4B6084"></path>
                <path d="M237.0443,91.109 L237.0443,106.135 C237.0443,107.38 236.1503,108.491 234.9153,108.648 C233.4223,108.838 232.1483,107.678 232.1483,106.222 L232.1483,85.56 L236.2503,85.56 C236.7763,87.362 237.0443,89.231 237.0443,91.109" id="Fill-39" fill="#4B6084"></path>
                <path d="M195.6224,50.94 C191.2824,57.713 180.5244,72.356 163.1014,82.654 C158.9084,85.129 155.0584,87.019 151.5664,88.44 C151.5704,88.436 151.5704,88.428 151.5704,88.423 C152.6074,80.145 156.0034,72.598 161.0654,66.485 C162.3574,64.918 163.7634,63.45 165.2644,62.083 C172.8864,55.138 183.0174,50.911 194.1394,50.911 C194.6324,50.911 195.1294,50.919 195.6224,50.94" id="Fill-41" fill="#4B6084"></path>
                <path d="M236.6898,88.2774 C230.8478,90.0464 219.3378,91.7144 201.0578,86.9354 C182.5738,82.1064 168.5458,72.5274 161.0658,66.4854 C162.3578,64.9174 163.7628,63.4494 165.2638,62.0824 C172.8858,55.1374 183.0168,50.9104 194.1388,50.9104 C194.7988,50.9104 195.4638,50.9234 196.1208,50.9574 C207.1838,51.4584 217.1468,56.1454 224.4808,63.4794 C231.0108,70.0104 235.4478,78.6444 236.6898,88.2774" id="Fill-43" fill="#808F91"></path>
                <path d="M201.0579,61.8487 C192.9639,59.7337 185.7249,56.7087 179.5149,53.4687 C174.1969,55.3957 169.3669,58.3447 165.2639,62.0827 C163.7629,63.4497 162.3579,64.9177 161.0659,66.4857 C168.5459,72.5267 182.5739,82.1057 201.0579,86.9347 C219.3379,91.7137 230.8479,90.0457 236.6899,88.2777 C235.5369,79.3327 231.6259,71.2517 225.8449,64.9137 C219.6299,65.1957 211.4359,64.5617 201.0579,61.8487" id="Fill-45" fill="#4B6084"></path>
                <path d="M201.0579,70.211 C189.2399,67.123 179.2479,62.095 171.6209,57.29 C169.3529,58.691 167.2249,60.296 165.2639,62.083 C163.7629,63.45 162.3579,64.918 161.0659,66.485 C168.5459,72.527 182.5739,82.106 201.0579,86.935 C219.3379,91.714 230.8479,90.046 236.6899,88.277 C235.9679,82.68 234.1619,77.424 231.4989,72.718 C224.9439,73.75 214.9599,73.845 201.0579,70.211" id="Fill-47" fill="#808F91"></path>
                <path d="M201.0579,78.5728 C185.8939,74.6118 173.7329,67.4538 165.7219,61.6748 C165.5689,61.8098 165.4149,61.9448 165.2639,62.0828 C163.7629,63.4498 162.3579,64.9178 161.0659,66.4858 C168.5459,72.5268 182.5739,82.1058 201.0579,86.9348 C219.3379,91.7138 230.8479,90.0458 236.6899,88.2778 C236.3389,85.5648 235.7279,82.9348 234.8959,80.4048 C228.6309,81.9398 217.6239,82.9038 201.0579,78.5728" id="Fill-49" fill="#4B6084"></path>
                <path d="M194.139,116.5255 L194.139,116.5255 C191.521,116.5255 189.4,114.4035 189.4,111.7865 L189.4,105.5505 C189.4,102.9335 191.521,100.8115 194.139,100.8115 C196.756,100.8115 198.878,102.9335 198.878,105.5505 L198.878,111.7865 C198.878,114.4035 196.756,116.5255 194.139,116.5255" id="Fill-51" fill="#A62873"></path>
                <path d="M177.8324,97.1139 C177.8324,99.1149 176.2104,100.7379 174.2084,100.7379 C172.2074,100.7379 170.5854,99.1149 170.5854,97.1139 C170.5854,95.1129 172.2074,93.4899 174.2084,93.4899 C176.2104,93.4899 177.8324,95.1129 177.8324,97.1139" id="Fill-53" fill="#A62873"></path>
                <path d="M217.6917,97.1139 C217.6917,99.1149 216.0697,100.7379 214.0687,100.7379 C212.0667,100.7379 210.4447,99.1149 210.4447,97.1139 C210.4447,95.1129 212.0667,93.4899 214.0687,93.4899 C216.0697,93.4899 217.6917,95.1129 217.6917,97.1139" id="Fill-55" fill="#A62873"></path>
                <path d="M194.139,129.2139 C189.509,129.2139 185.154,127.4079 181.875,124.1299 C181.444,123.6979 181.444,122.9989 181.875,122.5679 C182.307,122.1359 183.007,122.1359 183.439,122.5679 C186.299,125.4279 190.099,127.0029 194.139,127.0029 C198.178,127.0029 201.978,125.4279 204.838,122.5679 C205.27,122.1359 205.969,122.1359 206.402,122.5679 C206.833,122.9989 206.833,123.6979 206.402,124.1299 C203.123,127.4079 198.768,129.2139 194.139,129.2139" id="Fill-57" fill="#A62873"></path>
                <polygon id="Fill-59" fill="#EE599C" points="194.139 248.7921 194.118 248.8131 194.126 248.8381 194.14 248.7931"></polygon>
                <g id="Group-63" transform="translate(130.000000, 1.810000)">
                    <mask id="mask-2" fill="white">
                        <use xlink:href="#path-1"></use>
                    </mask>
                    <g id="Clip-62"></g>
                    <path d="M0.599,0.4167 C0.752,0.4587 0.903,0.5087 1.05,0.5627 C0.903,0.5087 0.752,0.4587 0.599,0.4167" id="Fill-61" fill="#EE599C" mask="url(#mask-2)"></path>
                </g>
                <g id="Group-66" transform="translate(129.000000, 1.810000)">
                    <mask id="mask-4" fill="white">
                        <use xlink:href="#path-3"></use>
                    </mask>
                    <g id="Clip-65"></g>
                    <path d="M0.8978,0.2668 C1.0558,0.2908 1.2138,0.3208 1.3688,0.3568 C1.2128,0.3208 1.0558,0.2908 0.8978,0.2668" id="Fill-64" fill="#EE599C" mask="url(#mask-4)"></path>
                </g>
                <g id="Group-69" transform="translate(128.000000, 0.810000)">
                    <mask id="mask-6" fill="white">
                        <use xlink:href="#path-5"></use>
                    </mask>
                    <g id="Clip-68"></g>
                    <path d="M0.9798,1.1896 C1.2178,1.1896 1.4518,1.2076 1.6818,1.2336 C1.4518,1.2076 1.2178,1.1896 0.9798,1.1896" id="Fill-67" fill="#EE599C" mask="url(#mask-6)"></path>
                </g>
                <g id="Group-72" transform="translate(129.000000, 0.810000)">
                    <mask id="mask-8" fill="white">
                        <use xlink:href="#path-7"></use>
                    </mask>
                    <g id="Clip-71"></g>
                    <path d="M0.682,1.234 C0.754,1.242 0.826,1.256 0.898,1.267 C0.826,1.256 0.754,1.242 0.682,1.234" id="Fill-70" fill="#D84479" mask="url(#mask-8)"></path>
                </g>
                <g id="Group-75" transform="translate(129.000000, 1.810000)">
                    <mask id="mask-10" fill="white">
                        <use xlink:href="#path-9"></use>
                    </mask>
                    <g id="Clip-74"></g>
                    <path d="M1.3685,0.3571 C1.4455,0.3761 1.5225,0.3951 1.5985,0.4171 C1.5225,0.3951 1.4455,0.3761 1.3685,0.3571" id="Fill-73" fill="#D84479" mask="url(#mask-10)"></path>
                </g>
                <g id="Group-78" transform="translate(130.000000, 1.810000)">
                    <mask id="mask-12" fill="white">
                        <use xlink:href="#path-11"></use>
                    </mask>
                    <g id="Clip-77"></g>
                    <path d="M1.0501,0.5627 C1.1151,0.5867 1.1821,0.6087 1.2451,0.6347 C1.1811,0.6087 1.1151,0.5867 1.0501,0.5627" id="Fill-76" fill="#D84479" mask="url(#mask-12)"></path>
                </g>
                <path d="M55.4798,65.837 L55.3588,65.706 L55.3718,65.707 C55.0388,65.286 54.8318,64.761 54.8318,64.183 L54.8318,19.44 L12.3418,19.44 C5.5258,19.44 0.0008,24.965 0.0008,31.781 L0.0008,66.549 C0.0008,73.365 5.5258,78.891 12.3418,78.891 L67.4968,78.891 L55.5898,65.958 C55.5508,65.92 55.5168,65.878 55.4798,65.837" id="Fill-79" fill="#728FB4"></path>
                <polygon id="Fill-81" fill="#E7AD26" points="68.1214 79.5694 68.1214 78.8914 67.4964 78.8914"></polygon>
                <path d="M55.5902,65.9581 L67.4962,78.8911 L68.1212,78.8911 L68.1212,66.6511 L57.3002,66.6511 C56.6352,66.6511 56.0342,66.3851 55.5902,65.9581" id="Fill-83" fill="#71A6CE"></path>
                <path d="M55.4798,65.837 C55.4418,65.795 55.4068,65.751 55.3718,65.707 L55.3588,65.706 L55.4798,65.837 Z" id="Fill-85" fill="#E7AD26"></path>
                <path d="M122.9525,7.1998 L57.3005,7.1998 C55.9365,7.1998 54.8315,8.3048 54.8315,9.6678 L54.8315,19.4398 L68.1215,19.4398 L68.1215,66.6508 L122.9525,66.6508 L122.9525,8.0278 L122.9525,7.1998 Z" id="Fill-87" fill="#93BAD9"></path>
                <path d="M54.8314,19.44 L54.8314,64.183 C54.8314,64.761 55.0384,65.286 55.3714,65.707 L68.1214,66.651 L68.1214,19.44 L54.8314,19.44 Z" id="Fill-89" stroke="#93BAD9" stroke-width="0.8" fill="#93BAD9"></path>
                <path d="M55.5902,65.9581 L55.4802,65.8371 C55.5172,65.8781 55.5512,65.9201 55.5902,65.9581" id="Fill-91" fill="#FFF234"></path>
                <path d="M55.4798,65.837 L55.5898,65.958 C56.0348,66.385 56.6348,66.651 57.2998,66.651 L68.1218,66.651 L55.3718,65.707 C55.4068,65.751 55.4418,65.795 55.4798,65.837" id="Fill-93" fill="#93BAD9"></path>
                <path d="M128.6937,8.0274 L128.6937,229.8994 C130.7317,231.6174 132.8377,233.2584 135.0077,234.8144 L135.0077,8.0274 C135.0077,5.7364 133.7187,3.7564 131.8357,2.7364 C129.9647,3.7594 128.6937,5.7454 128.6937,8.0274" id="Fill-95" fill="#E28AAE"></path>
                <g id="Group-99" transform="translate(122.000000, 1.810000)">
                    <mask id="mask-14" fill="white">
                        <use xlink:href="#path-13"></use>
                    </mask>
                    <g id="Clip-98"></g>
                    <path d="M6.6937,6.2174 C6.6937,3.9354 7.9647,1.9494 9.8357,0.9264 C9.6427,0.8224 9.4507,0.7174 9.2457,0.6344 C9.1807,0.6084 9.1147,0.5864 9.0497,0.5624 C8.9017,0.5084 8.7527,0.4594 8.5987,0.4164 C8.5227,0.3954 8.4457,0.3754 8.3687,0.3574 C8.2147,0.3204 8.0557,0.2914 7.8977,0.2674 C7.8257,0.2564 7.7557,0.2424 7.6817,0.2344 C7.4517,0.2074 7.2177,0.1894 6.9797,0.1894 C3.6527,0.1894 0.9527,2.8904 0.9527,6.2174 L0.9527,64.8414 L0.9527,222.8644 C2.7977,224.6784 4.7147,226.4204 6.6937,228.0894 L6.6937,6.2174 Z" id="Fill-97" fill="#A3618B" mask="url(#mask-14)"></path>
                </g>
                <path d="M131.8509,2.7267 C131.6559,2.6217 131.4529,2.5287 131.2459,2.4447 C131.4509,2.5277 131.6429,2.6327 131.8349,2.7367 C131.8409,2.7337 131.8449,2.7297 131.8509,2.7267" id="Fill-100" fill="#D84479"></path>
                <path d="M279.1478,207.7852 L279.1478,176.9582 L258.6698,176.9582 L258.6698,230.6352 C266.5928,224.1072 273.5048,216.3992 279.1478,207.7852" id="Fill-102" fill="#FFFFFF"></path>
                <path d="M267.2278,192.3653 L270.5898,192.3653 C278.4548,192.3653 284.8308,185.9903 284.8308,178.1253 L284.8308,161.3463 L252.9878,161.3463 L252.9878,178.1253 C252.9878,185.9903 259.3638,192.3653 267.2278,192.3653" id="Fill-104" fill="#D0D2D3"></path>
                <path d="M252.9749,146.3028 L252.9749,159.1428 C252.9749,161.0678 254.5359,162.6268 256.4589,162.6268 L281.3389,162.6268 C283.2639,162.6268 284.8249,161.0678 284.8249,159.1428 L284.8249,146.3028 L288.4469,146.3028 L288.4469,160.5168 C288.4469,163.7338 285.8389,166.3408 282.6219,166.3408 L255.1769,166.3408 C251.9599,166.3408 249.3519,163.7338 249.3519,160.5168 L249.3519,146.3028 L252.9749,146.3028 Z" id="Fill-106" fill="#7A4C82"></path>
                <path d="M280.8499,173.8917 L280.8499,173.8917 C283.0479,173.8917 284.8299,172.1107 284.8299,169.9117 L284.8299,156.1717 C284.8299,153.9737 283.0479,152.1917 280.8499,152.1917 C278.6519,152.1917 276.8699,153.9737 276.8699,156.1717 L276.8699,169.9117 C276.8699,172.1107 278.6519,173.8917 280.8499,173.8917" id="Fill-108" fill="#FFFFFF"></path>
                <path d="M272.89,173.8917 L272.89,173.8917 C275.088,173.8917 276.869,172.1107 276.869,169.9117 L276.869,156.1717 C276.869,153.9737 275.088,152.1917 272.89,152.1917 C270.692,152.1917 268.91,153.9737 268.91,156.1717 L268.91,169.9117 C268.91,172.1107 270.692,173.8917 272.89,173.8917" id="Fill-110" fill="#FFFFFF"></path>
                <path d="M264.929,173.8917 L264.929,173.8917 C267.127,173.8917 268.909,172.1107 268.909,169.9117 L268.909,156.1717 C268.909,153.9737 267.127,152.1917 264.929,152.1917 C262.731,152.1917 260.949,153.9737 260.949,156.1717 L260.949,169.9117 C260.949,172.1107 262.731,173.8917 264.929,173.8917" id="Fill-112" fill="#FFFFFF"></path>
                <path d="M256.9681,173.8917 L256.9681,173.8917 C259.1661,173.8917 260.9481,172.1107 260.9481,169.9117 L260.9481,156.1717 C260.9481,153.9737 259.1661,152.1917 256.9681,152.1917 C254.7701,152.1917 252.9881,153.9737 252.9881,156.1717 L252.9881,169.9117 C252.9881,172.1107 254.7701,173.8917 256.9681,173.8917" id="Fill-114" fill="#FFFFFF"></path>
                <path d="M253.1497,176.9581 L255.8337,176.9581 C258.6587,176.9581 260.9487,174.6681 260.9487,171.8431 C260.9487,169.0181 258.6587,166.7281 255.8337,166.7281 L253.1497,166.7281 C250.3247,166.7281 248.0347,169.0181 248.0347,171.8431 C248.0347,174.6681 250.3247,176.9581 253.1497,176.9581" id="Fill-116" fill="#FFFFFF"></path>
                <path d="M290.7269,112.1661 L250.5779,112.1661 C241.7509,112.1661 234.5969,119.3211 234.5969,128.1471 L234.5969,131.9201 C234.5969,140.7461 241.7509,147.9001 250.5779,147.9001 L290.7269,147.9001 L290.7269,112.1661 Z" id="Fill-118" fill="#E68AA3"></path>
                <path d="M248.7825,144.2188 L290.7265,144.2188 L290.7265,147.9008 L250.5775,147.9008 C241.7515,147.9008 234.5965,140.7458 234.5965,131.9198 L234.5965,130.0328 C234.5965,137.8678 240.9475,144.2188 248.7825,144.2188" id="Fill-120" fill="#A3618B"></path>
                <path d="M250.5775,112.1661 L290.7265,112.1661 L290.7265,115.8481 L248.7825,115.8481 C240.9475,115.8481 234.5975,122.1991 234.5975,130.0331 L234.5975,128.1471 C234.5975,119.3211 241.7515,112.1661 250.5775,112.1661" id="Fill-122" fill="#BB7E9C"></path>
                <path d="M351.2278,165.5909 L326.4248,155.1649 C314.9958,150.3609 302.9098,147.9009 290.7268,147.9009 L290.7268,112.1659 C302.9098,112.1659 314.9958,109.7069 326.4248,104.9019 L351.2278,94.4759 L351.2278,165.5909 Z" id="Fill-124" fill="#71A6CE"></path>
                <path d="M326.4251,146.0509 L351.2281,152.6959 L351.2281,165.5909 L326.4251,155.1649 C314.9951,150.3609 302.9091,147.9009 290.7271,147.9009 L290.7271,141.4209 C302.9091,141.4209 314.9951,142.9879 326.4251,146.0509" id="Fill-126" fill="#728FB4"></path>
                <path d="M290.7269,112.1661 C302.9099,112.1661 314.9959,109.7071 326.4249,104.9021 L351.2279,94.4761 L351.2279,107.3721 L326.4249,114.0171 C314.9959,117.0791 302.9099,118.6461 290.7269,118.6461 L290.7269,112.1661 Z" id="Fill-128" fill="#93BAD9"></path>
                <g id="Group-132" transform="translate(351.000000, 118.810000)">
                    <mask id="mask-16" fill="white">
                        <use xlink:href="#path-15"></use>
                    </mask>
                    <g id="Clip-131"></g>
                    <path d="M6.7142,21.7721 L6.7142,21.7721 C3.1322,21.7721 0.2282,18.8681 0.2282,15.2861 L0.2282,7.1611 C0.2282,3.5791 3.1322,0.6741 6.7142,0.6741 C10.2972,0.6741 13.2012,3.5791 13.2012,7.1611 L13.2012,15.2861 C13.2012,18.8681 10.2972,21.7721 6.7142,21.7721" id="Fill-130" fill="#FFFFFF" mask="url(#mask-16)"></path>
                </g>
                <g id="Group-135" transform="translate(351.000000, 128.810000)">
                    <mask id="mask-18" fill="white">
                        <use xlink:href="#path-17"></use>
                    </mask>
                    <g id="Clip-134"></g>
                    <path d="M6.7142,7.0788 C10.2972,7.0788 13.2012,4.1748 13.2012,0.5918 L13.2012,5.2858 C13.2012,8.8678 10.2972,11.7718 6.7142,11.7718 C3.1322,11.7718 0.2282,8.8678 0.2282,5.2858 L0.2282,0.5918 C0.2282,4.1748 3.1322,7.0788 6.7142,7.0788" id="Fill-133" fill="#D0D2D3" mask="url(#mask-18)"></path>
                </g>
                <path d="M351.2278,170.004 L351.2278,170.004 C347.6458,170.004 344.7418,167.1 344.7418,163.518 L344.7418,96.549 C344.7418,92.967 347.6458,90.063 351.2278,90.063 C354.8108,90.063 357.7138,92.967 357.7138,96.549 L357.7138,163.518 C357.7138,167.1 354.8108,170.004 351.2278,170.004" id="Fill-136" fill="#E68AA3"></path>
                <path d="M351.2278,156.2432 L351.2278,156.2432 C354.8108,156.2432 357.7138,153.3402 357.7138,149.7572 L357.7138,163.5172 C357.7138,167.0992 354.8108,170.0042 351.2278,170.0042 C347.6458,170.0042 344.7418,167.0992 344.7418,163.5172 L344.7418,149.7572 C344.7418,153.3402 347.6458,156.2432 351.2278,156.2432" id="Fill-138" fill="#A3618B"></path>
                <path d="M351.2278,90.0631 L351.2278,90.0631 C354.8108,90.0631 357.7138,92.9671 357.7138,96.5491 L357.7138,110.3101 C357.7138,106.7281 354.8108,103.8231 351.2278,103.8231 C347.6458,103.8231 344.7418,106.7281 344.7418,110.3101 L344.7418,96.5491 C344.7418,92.9671 347.6458,90.0631 351.2278,90.0631" id="Fill-140" fill="#BB7E9C"></path>
                <path d="M276.5628,139.4063 L276.5628,139.4063 C277.6078,139.4063 278.4558,138.5583 278.4558,137.5123 L278.4558,122.5533 C278.4558,121.5093 277.6078,120.6613 276.5628,120.6613 C275.5178,120.6613 274.6698,121.5093 274.6698,122.5533 L274.6698,137.5123 C274.6698,138.5583 275.5178,139.4063 276.5628,139.4063" id="Fill-142" fill="#FFFFFF"></path>
                <path d="M267.7122,139.4063 L267.7122,139.4063 C268.7572,139.4063 269.6052,138.5583 269.6052,137.5123 L269.6052,122.5533 C269.6052,121.5093 268.7572,120.6613 267.7122,120.6613 C266.6662,120.6613 265.8192,121.5093 265.8192,122.5533 L265.8192,137.5123 C265.8192,138.5583 266.6662,139.4063 267.7122,139.4063" id="Fill-144" fill="#FFFFFF"></path>
                <path d="M258.8607,139.4063 L258.8607,139.4063 C259.9067,139.4063 260.7537,138.5583 260.7537,137.5123 L260.7537,122.5533 C260.7537,121.5093 259.9067,120.6613 258.8607,120.6613 C257.8157,120.6613 256.9677,121.5093 256.9677,122.5533 L256.9677,137.5123 C256.9677,138.5583 257.8157,139.4063 258.8607,139.4063" id="Fill-146" fill="#FFFFFF"></path>
                <g id="Group-6" transform="translate(28.000000, 49.000000) scale(-1, 1) translate(-28.000000, -49.000000) translate(7.000000, 32.000000)">
                    <polygon id="Fill-148" fill="#D0D2D3" points="5.848865 29.0869201 5.858365 14.4103701 22.594515 14.4208201 22.585015 29.0973701"></polygon>
                    <path d="M0.000379999999,29.6588201 L0.01083,13.8375201 C0.01083,13.0813201 0.62358,12.4685701 1.37978,12.469519 L8.72518,12.4742701 C9.48043,12.4742701 10.09318,13.0879701 10.0922311,13.8432201 L10.08178,29.6654701 C10.08178,30.4216701 9.46903,31.0334701 8.71283,31.0334701 L1.36743,31.0287201 C0.61313,31.0277701 0.000379999999,30.4150201 0.000379999999,29.6588201" id="Fill-150" fill="#FDDD39"></path>
                    <path d="M8.7248,17.4536001 L1.38035,17.4488501 C0.62415,17.4488501 0.01045,18.0606501 0.01045,18.8168501 L0.0038,29.6905501 C0.00285,29.6801001 4.46354065e-13,29.6696501 4.46354065e-13,29.6592001 L0.01045,13.8369501 C0.01045,13.0807501 0.62415,12.4689501 1.38035,12.4689501 L8.7248,12.4737001 C9.481,12.4746501 10.0928,13.0874001 10.0918511,13.8436001 L10.08995,18.7921501 C10.07285,18.0511501 9.4696,17.4536001 8.7248,17.4536001" id="Fill-152" fill="#E7AD26"></path>
                    <polygon id="Fill-154" fill="#FFFFFF" points="16.74603 12.1887001 23.66393 6.56090013 27.32903 13.2042501 23.71238 17.4488501"></polygon>
                    <path d="M11.5469629,21.7522551 L11.5469629,21.7522551 C11.551715,15.4499551 16.663665,10.3446551 22.965965,10.348453 L33.786465,10.3551051 L33.772215,33.1769551 L22.950765,33.1703051 C16.648465,33.1665051 11.543165,28.0545551 11.5469629,21.7522551" id="Fill-156" fill="#FFFFFF"></path>
                    <path d="M27.0883945,13.2035851 L27.0883945,13.2035851 C27.089345,11.6275351 28.367095,10.3516851 29.943145,10.3526346 L37.494695,10.3573851 C39.069795,10.3583351 40.346595,11.6370351 40.3456455,13.2121351 C40.344695,14.7872351 39.065995,16.0640351 37.490895,16.0630857 L29.939345,16.0583351 C28.363295,16.0573851 27.087445,14.7786851 27.0883945,13.2035851" id="Fill-158" fill="#D0D2D3"></path>
                    <path d="M27.0846895,18.9695151 L27.0846895,18.8488651 C27.08564,17.3070151 28.33584,16.0568151 29.87864,16.058713 L36.95044,16.0625151 C38.49324,16.0634651 39.74154,17.3146151 39.7405905,18.8564651 L39.7405905,18.9771151 C39.73964,20.5199151 38.48944,21.7691651 36.94664,21.7682157 L29.87579,21.7634651 C28.33204,21.7625151 27.08374,20.5113651 27.0846895,18.9695151" id="Fill-160" fill="#D0D2D3"></path>
                    <path d="M27.0809844,24.7668901 L27.0809844,24.4619401 C27.081935,22.9704401 28.291285,21.7620401 29.782785,21.7629896 L36.150635,21.7677401 C37.641185,21.7686901 38.850535,22.9780401 38.8495856,24.4695401 L38.848635,24.7744901 C38.847685,26.2659901 37.637385,27.4743901 36.146835,27.4734407 L29.779935,27.4686901 C28.288435,27.4677401 27.080035,26.2583901 27.0809844,24.7668901" id="Fill-162" fill="#D0D2D3"></path>
                    <path d="M27.0772794,30.6506201 L27.0772794,29.9884701 C27.07823,28.5957701 28.20778,27.4671701 29.60048,27.4681195 L34.69343,27.4719201 C36.08518,27.4728701 37.21473,28.6024201 37.2137806,29.9951201 L37.21283,30.6572701 C37.21188,32.0499701 36.08233,33.1785701 34.68963,33.1776207 L29.59668,33.1738201 C28.20493,33.1728701 27.07633,32.0433201 27.0772794,30.6506201" id="Fill-164" fill="#D0D2D3"></path>
                    <path d="M28.0383945,12.2535851 L28.0383945,12.2535851 C28.039345,10.6775351 29.317095,9.40168513 30.893145,9.4026346 L38.444695,9.40738513 C40.019795,9.40833513 41.296595,10.6870351 41.2956455,12.2621351 C41.294695,13.8372351 40.015995,15.1140351 38.440895,15.1130857 L30.889345,15.1083351 C29.313295,15.1073851 28.037445,13.8286851 28.0383945,12.2535851" id="Fill-166" fill="#FFFFFF"></path>
                    <path d="M28.0346895,18.0195151 L28.0346895,17.8988651 C28.03564,16.3570151 29.28584,15.1068151 30.82864,15.108713 L37.90044,15.1125151 C39.44324,15.1134651 40.69154,16.3646151 40.6905905,17.9064651 L40.6905905,18.0271151 C40.68964,19.5699151 39.43944,20.8191651 37.89664,20.8182157 L30.82579,20.8134651 C29.28204,20.8125151 28.03374,19.5613651 28.0346895,18.0195151" id="Fill-168" fill="#FFFFFF"></path>
                    <path d="M28.0309844,23.8168901 L28.0309844,23.5119401 C28.031935,22.0204401 29.241285,20.8120401 30.732785,20.8129896 L37.100635,20.8177401 C38.591185,20.8186901 39.800535,22.0280401 39.7995856,23.5195401 L39.798635,23.8244901 C39.797685,25.3159901 38.587385,26.5243901 37.096835,26.5234407 L30.729935,26.5186901 C29.238435,26.5177401 28.030035,25.3083901 28.0309844,23.8168901" id="Fill-170" fill="#FFFFFF"></path>
                    <path d="M28.0272794,29.7006201 L28.0272794,29.0384701 C28.02823,27.6457701 29.15778,26.5171701 30.55048,26.5181195 L35.64343,26.5219201 C37.03518,26.5228701 38.16473,27.6524201 38.1637806,29.0451201 L38.16283,29.7072701 C38.16188,31.0999701 37.03233,32.2285701 35.63963,32.2276207 L30.54668,32.2238201 C29.15493,32.2228701 28.02633,31.0933201 28.0272794,29.7006201" id="Fill-172" fill="#FFFFFF"></path>
                    <path d="M16.49086,12.8738401 L18.60936,2.90454013 C19.03116,0.923790131 20.97771,-0.340659869 22.95846,0.0811401312 C24.93921,0.501990131 26.20366,2.44854013 25.78186,4.42929013 L23.66336,14.3976401 C23.24251,16.3783901 21.29596,17.6437901 19.31521,17.2219901 C17.33446,16.8011401 16.07096,14.8545901 16.49086,12.8738401" id="Fill-174" fill="#FFFFFF"></path>
                    <path d="M6.594805,16.4395701 C6.594805,15.5845701 5.902255,14.8920201 5.046305,14.8920201 C4.192255,14.8920201 3.498755,15.5845701 3.498755,16.4395701 C3.498755,17.2945701 4.192255,17.9871201 5.046305,17.9871201 C5.902255,17.9871201 6.594805,17.2945701 6.594805,16.4395701" id="Fill-176" fill="#FFFFFF"></path>
                </g>
                <path d="M273.097,63.6407 C272.774,63.6407 272.519,63.9027 272.519,64.2187 C272.519,64.5327 272.774,64.7917 273.097,64.7917 L285.197,64.7917 C285.523,64.7917 285.775,64.5327 285.775,64.2187 C285.775,63.9027 285.523,63.6407 285.197,63.6407 L273.097,63.6407 Z" id="Fill-178" fill="#596273"></path>
                <path d="M264.0609,34.1158 C264.0609,25.8118 270.8159,19.0808 279.1439,19.0808 C287.4809,19.0808 294.2329,25.8118 294.2329,34.1158 C294.2329,34.6108 293.8699,41.5608 288.1849,48.8578 C286.5219,51.0548 286.7979,55.4848 286.7979,55.4848 L280.2099,55.4848 L278.0739,55.4848 L271.4459,55.4848 C271.4459,55.4848 271.7619,51.0548 270.1049,48.8578 C264.4149,41.5528 264.0609,34.6108 264.0609,34.1158" id="Fill-180" fill="#F0CA67"></path>
                <path d="M279.1439,55.4845 L271.4459,55.4845 C271.4459,55.4845 271.7619,51.0555 270.1049,48.8575 C264.4149,41.5535 264.0609,34.6105 264.0609,34.1155 C264.0609,25.8125 270.8159,19.0815 279.1439,19.0815" id="Fill-182" fill="#F4DA80"></path>
                <path d="M291.0198,34.1158 L289.6978,34.1158 C289.6978,28.3118 284.9658,23.5958 279.1438,23.5958 L279.1438,22.2768 C285.6978,22.2768 291.0198,27.5868 291.0198,34.1158" id="Fill-184" fill="#F4DA80"></path>
                <polygon id="Fill-186" fill="#30363D" points="282.4398 56.6612 281.1358 56.4422 283.7118 40.8972 285.0158 41.1162"></polygon>
                <polygon id="Fill-188" fill="#30363D" points="275.8509 56.6612 273.2749 41.1162 274.5809 40.8972 277.1579 56.4422"></polygon>
                <path d="M284.2776,43.0855 C283.7426,43.0855 283.5086,42.5615 283.3376,42.1785 C283.2596,42.0175 283.1156,41.6835 283.0296,41.6835 C282.9596,41.7125 282.8576,41.9735 282.7966,42.1125 C282.6446,42.5005 282.4116,43.0855 281.7816,43.0855 C281.4066,43.0855 281.1786,42.7085 280.9206,42.2705 C280.8226,42.1095 280.6496,41.8265 280.5396,41.7155 C280.4506,41.8195 280.3146,42.0455 280.2316,42.1895 C279.9556,42.6505 279.6876,43.0855 279.2756,43.0855 C278.8706,43.0855 278.6086,42.6615 278.3476,42.2135 C278.2556,42.0635 278.1076,41.8225 278.0186,41.7205 C277.9146,41.8265 277.7656,42.0745 277.6686,42.2365 C277.4096,42.6735 277.1606,43.0855 276.7636,43.0855 C276.3216,43.0855 276.0386,42.6125 275.7646,42.1525 C275.6726,41.9995 275.5436,41.7795 275.4636,41.6945 C275.3526,41.7315 275.2766,41.8925 275.1466,42.2135 C274.9996,42.5805 274.8056,43.0855 274.2616,43.0855 L274.2616,42.3825 C274.3326,42.3545 274.4306,42.0955 274.4856,41.9565 C274.6456,41.5645 274.8766,40.9845 275.5096,40.9845 C275.8846,40.9845 276.1096,41.3575 276.3706,41.7935 C276.4686,41.9565 276.6436,42.2435 276.7486,42.3545 C276.8406,42.2475 276.9796,42.0205 277.0626,41.8785 C277.3416,41.4135 277.5996,40.9845 278.0186,40.9845 C278.4236,40.9845 278.6786,41.4065 278.9506,41.8525 C279.0426,42.0055 279.1806,42.2435 279.2756,42.3505 C279.3776,42.2395 279.5276,41.9915 279.6236,41.8335 C279.8816,41.3955 280.1306,40.9845 280.5236,40.9845 C280.9696,40.9845 281.2526,41.4565 281.5196,41.9185 C281.6156,42.0675 281.7546,42.2885 281.8276,42.3765 C281.9346,42.3365 282.0176,42.1785 282.1476,41.8555 C282.2886,41.4825 282.4946,40.9845 283.0296,40.9845 C283.5676,40.9845 283.8036,41.5075 283.9756,41.8925 C284.0476,42.0525 284.1946,42.3825 284.2776,42.3825 L284.2776,43.0855 Z" id="Fill-190" fill="#30363D"></path>
                <path d="M286.8294,55.4923 L286.8294,63.3573 C286.8294,63.8923 286.3924,64.3303 285.8494,64.3303 L272.4604,64.3303 C271.9224,64.3303 271.4824,63.8923 271.4824,63.3573 L271.4824,55.4923 L286.8294,55.4923 Z" id="Fill-192" fill="#30363D"></path>
                <line x1="287.1341" y1="56.2535" x2="271.1591" y2="56.2535" id="Fill-194" fill="#103754"></line>
                <path d="M287.1341,57.023 L271.1591,57.023 C270.7361,57.023 270.3851,56.678 270.3851,56.253 C270.3851,55.826 270.7361,55.481 271.1591,55.481 L287.1341,55.481 C287.5641,55.481 287.9081,55.826 287.9081,56.253 C287.9081,56.678 287.5641,57.023 287.1341,57.023" id="Fill-196" fill="#596273"></path>
                <line x1="287.1341" y1="58.8209" x2="271.1591" y2="58.8209" id="Fill-198" fill="#30363D"></line>
                <path d="M287.1341,59.5914 L271.1591,59.5914 C270.7361,59.5914 270.3851,59.2434 270.3851,58.8204 C270.3851,58.3984 270.7361,58.0494 271.1591,58.0494 L287.1341,58.0494 C287.5641,58.0494 287.9081,58.3984 287.9081,58.8204 C287.9081,59.2434 287.5641,59.5914 287.1341,59.5914" id="Fill-200" fill="#596273"></path>
                <line x1="287.1341" y1="61.3878" x2="271.1591" y2="61.3878" id="Fill-202" fill="#30363D"></line>
                <path d="M287.1341,62.1603 L271.1591,62.1603 C270.7361,62.1603 270.3851,61.8203 270.3851,61.3883 C270.3851,60.9653 270.7361,60.6173 271.1591,60.6173 L287.1341,60.6173 C287.5641,60.6173 287.9081,60.9653 287.9081,61.3883 C287.9081,61.8203 287.5641,62.1603 287.1341,62.1603" id="Fill-204" fill="#596273"></path>
                <line x1="279.1439" y1="13.7784" x2="279.1439" y2="5.5224" id="Stroke-206" stroke="#E7AD26"></line>
                <line x1="268.5775" y1="16.6109" x2="264.4395" y2="9.4549" id="Stroke-208" stroke="#E7AD26"></line>
                <line x1="260.8489" y1="24.3209" x2="253.6699" y2="20.1889" id="Stroke-210" stroke="#E7AD26"></line>
                <line x1="258.0228" y1="34.8512" x2="249.7348" y2="34.8512" id="Stroke-212" stroke="#E7AD26"></line>
                <line x1="297.4417" y1="45.3697" x2="304.6237" y2="49.5057" id="Stroke-214" stroke="#E7AD26"></line>
                <line x1="300.2767" y1="34.8409" x2="308.5617" y2="34.8409" id="Stroke-216" stroke="#E7AD26"></line>
                <line x1="297.4417" y1="24.3102" x2="304.6177" y2="20.1782" id="Stroke-218" stroke="#E7AD26"></line>
                <line x1="289.7044" y1="16.6031" x2="293.8484" y2="9.4471" id="Stroke-220" stroke="#E7AD26"></line>
                <line x1="279.1439" y1="13.7784" x2="279.1439" y2="5.5224" id="Stroke-222" stroke="#E7AD26"></line>
                <line x1="279.1526" y1="13.7784" x2="279.1526" y2="5.5224" id="Stroke-224" stroke="#E7AD26"></line>
                <line x1="289.7103" y1="16.6109" x2="293.8543" y2="9.4549" id="Stroke-226" stroke="#E7AD26"></line>
                <line x1="297.4417" y1="24.3209" x2="304.6237" y2="20.1889" id="Stroke-228" stroke="#E7AD26"></line>
                <line x1="300.2767" y1="34.8512" x2="308.5617" y2="34.8512" id="Stroke-230" stroke="#E7AD26"></line>
                <line x1="260.8489" y1="45.3697" x2="253.6699" y2="49.5057" id="Stroke-232" stroke="#E7AD26"></line>
                <line x1="258.0228" y1="34.8409" x2="249.7348" y2="34.8409" id="Stroke-234" stroke="#E7AD26"></line>
                <line x1="260.8577" y1="24.3102" x2="253.6757" y2="20.1782" id="Stroke-236" stroke="#E7AD26"></line>
                <line x1="268.5921" y1="16.6031" x2="264.4481" y2="9.4471" id="Stroke-238" stroke="#E7AD26"></line>
                <line x1="279.1526" y1="13.7784" x2="279.1526" y2="5.5224" id="Stroke-240" stroke="#E7AD26"></line>
                <path d="M74.8154297,44.9379883 C76.148112,44.9379883 77.2711589,44.6572266 78.1845703,44.0957031 C78.7161458,43.773763 79.3151042,43.2197266 79.9814453,42.4335938 L79.9814453,42.4335938 L80.3295898,44.5 L82.6206055,44.5 L82.6206055,35.6166992 L75.7250977,35.6166992 L75.7250977,38.3793945 L79.5546875,38.3793945 C79.382487,39.4650065 78.9257812,40.3428548 78.1845703,41.0129395 C77.4433594,41.6830241 76.492513,42.0180664 75.3320312,42.0180664 C74.1490885,42.0180664 73.0934245,41.5950521 72.1650391,40.7490234 C71.2366536,39.9029948 70.7724609,38.4617513 70.7724609,36.425293 C70.7724609,34.4038086 71.2010905,32.8895671 72.0583496,31.8825684 C72.9156087,30.8755697 74.0105794,30.3720703 75.3432617,30.3720703 C76.0395508,30.3720703 76.6722005,30.4956055 77.2412109,30.7426758 C78.2594401,31.1918945 78.8995768,31.9817708 79.1616211,33.1123047 L79.1616211,33.1123047 L82.5644531,33.1123047 C82.3772786,31.5175781 81.6454264,30.1867676 80.3688965,29.119873 C79.0923665,28.0529785 77.402181,27.5195312 75.2983398,27.5195312 C72.8725586,27.5195312 70.9222005,28.328125 69.4472656,29.9453125 C67.9723307,31.5625 67.2348633,33.711263 67.2348633,36.3916016 C67.2348633,39.0419922 67.9648438,41.1308594 69.4248047,42.6582031 C70.8248698,44.1780599 72.6217448,44.9379883 74.8154297,44.9379883 Z M95.2446289,44.9604492 C97.6105143,44.9604492 99.4186198,44.316569 100.668945,43.0288086 C102.338542,41.449056 103.17334,39.1730143 103.17334,36.2006836 C103.17334,33.168457 102.338542,30.8924154 100.668945,29.3725586 C99.4186198,28.0847982 97.6105143,27.440918 95.2446289,27.440918 C92.8787435,27.440918 91.070638,28.0847982 89.8203125,29.3725586 C88.1432292,30.8924154 87.3046875,33.168457 87.3046875,36.2006836 C87.3046875,39.1730143 88.1432292,41.449056 89.8203125,43.0288086 C91.070638,44.316569 92.8787435,44.9604492 95.2446289,44.9604492 Z M95.2446289,42.0292969 C93.8745117,42.0292969 92.7814128,41.5239258 91.965332,40.5131836 C91.1492513,39.5024414 90.7412109,38.0649414 90.7412109,36.2006836 C90.7412109,34.3364258 91.1492513,32.8989258 91.965332,31.8881836 C92.7814128,30.8774414 93.8745117,30.3720703 95.2446289,30.3720703 C96.6147461,30.3720703 97.7022298,30.8793132 98.5070801,31.8937988 C99.3119303,32.9082845 99.7143555,34.3439128 99.7143555,36.2006836 C99.7143555,38.0649414 99.3119303,39.5024414 98.5070801,40.5131836 C97.7022298,41.5239258 96.6147461,42.0292969 95.2446289,42.0292969 Z M111.192871,39.9291992 L112.102539,32.2026367 L112.102539,28.0024414 L108.587402,28.0024414 L108.587402,32.2026367 L109.519531,39.9291992 L111.192871,39.9291992 Z M112.012695,44.5 L112.012695,41.2543945 L108.666016,41.2543945 L108.666016,44.5 L112.012695,44.5 Z" id="GO!" fill="#FFFFFF" fill-rule="nonzero"></path>
            </g>
        </g>
    </g>
</svg>