<svg xmlns="http://www.w3.org/2000/svg" xmlns:xlink="http://www.w3.org/1999/xlink" width="376" height="247" viewBox="0 0 376 247">
    <defs>
        <path id="prefix__a" d="M0 0.198L297.743 0.198 297.743 178.751 0 178.751z"/>
        <path id="prefix__c" d="M0.72 0.447L298.463 0.447 298.463 179 0.72 179z"/>
        <path id="prefix__e" d="M0.361 0.539L42.72 0.539 42.72 42.889 0.361 42.889z"/>
        <path id="prefix__g" d="M0.314 0.927L181.429 0.927 181.429 182.002 0.314 182.002z"/>
        <path id="prefix__i" d="M.555 73.058c0 39.927 32.374 72.295 72.31 72.295s72.31-32.368 72.31-72.295S112.801.764 72.865.764.555 33.131.555 73.058z"/>
        <path id="prefix__k" d="M.555 73.058c0 39.927 32.374 72.295 72.31 72.295s72.31-32.368 72.31-72.295S112.801.764 72.865.764.555 33.131.555 73.058z"/>
        <path id="prefix__m" d="M.555 73.058c0 39.927 32.374 72.295 72.31 72.295s72.31-32.368 72.31-72.295S112.801.764 72.865.764.555 33.131.555 73.058z"/>
        <path id="prefix__o" d="M.555 73.058c0 39.927 32.374 72.295 72.31 72.295s72.31-32.368 72.31-72.295S112.801.764 72.865.764.555 33.131.555 73.058"/>
        <path id="prefix__q" d="M.555 73.058c0 39.927 32.374 72.295 72.31 72.295s72.31-32.368 72.31-72.295S112.801.764 72.865.764.555 33.131.555 73.058"/>
        <path id="prefix__s" d="M.555 73.058c0 39.927 32.374 72.295 72.31 72.295s72.31-32.368 72.31-72.295S112.801.764 72.865.764.555 33.131.555 73.058"/>
        <path id="prefix__u" d="M.555 73.058c0 39.927 32.374 72.295 72.31 72.295s72.31-32.368 72.31-72.295S112.801.764 72.865.764.555 33.131.555 73.058"/>
        <path id="prefix__w" d="M.555 73.058c0 39.927 32.374 72.295 72.31 72.295s72.31-32.368 72.31-72.295S112.801.764 72.865.764.555 33.131.555 73.058z"/>
        <path id="prefix__y" d="M.555 73.058c0 39.927 32.374 72.295 72.31 72.295s72.31-32.368 72.31-72.295S112.801.764 72.865.764.555 33.131.555 73.058z"/>
        <path id="prefix__A" d="M.555 73.058c0 39.927 32.374 72.295 72.31 72.295s72.31-32.368 72.31-72.295S112.801.764 72.865.764.555 33.131.555 73.058"/>
        <path id="prefix__C" d="M.555 73.058c0 39.927 32.374 72.295 72.31 72.295s72.31-32.368 72.31-72.295S112.801.764 72.865.764.555 33.131.555 73.058"/>
        <path id="prefix__E" d="M.555 73.058c0 39.927 32.374 72.295 72.31 72.295s72.31-32.368 72.31-72.295S112.801.764 72.865.764.555 33.131.555 73.058"/>
        <path id="prefix__G" d="M.555 73.058c0 39.927 32.374 72.295 72.31 72.295s72.31-32.368 72.31-72.295S112.801.764 72.865.764.555 33.131.555 73.058"/>
        <path id="prefix__I" d="M.555 73.058c0 39.927 32.374 72.295 72.31 72.295s72.31-32.368 72.31-72.295S112.801.764 72.865.764.555 33.131.555 73.058"/>
        <path id="prefix__K" d="M.555 73.058c0 39.927 32.374 72.295 72.31 72.295s72.31-32.368 72.31-72.295S112.801.764 72.865.764.555 33.131.555 73.058"/>
        <path id="prefix__M" d="M.555 73.058c0 39.927 32.374 72.295 72.31 72.295s72.31-32.368 72.31-72.295S112.801.764 72.865.764.555 33.131.555 73.058"/>
        <path id="prefix__O" d="M.555 73.058c0 39.927 32.374 72.295 72.31 72.295s72.31-32.368 72.31-72.295S112.801.764 72.865.764.555 33.131.555 73.058"/>
        <path id="prefix__Q" d="M.555 73.058c0 39.927 32.374 72.295 72.31 72.295s72.31-32.368 72.31-72.295S112.801.764 72.865.764.555 33.131.555 73.058"/>
        <path id="prefix__S" d="M.555 73.058c0 39.927 32.374 72.295 72.31 72.295s72.31-32.368 72.31-72.295S112.801.764 72.865.764.555 33.131.555 73.058"/>
        <path id="prefix__U" d="M.555 73.058c0 39.927 32.374 72.295 72.31 72.295s72.31-32.368 72.31-72.295S112.801.764 72.865.764.555 33.131.555 73.058"/>
        <path id="prefix__W" d="M.555 73.058c0 39.927 32.374 72.295 72.31 72.295s72.31-32.368 72.31-72.295S112.801.764 72.865.764.555 33.131.555 73.058"/>
        <path id="prefix__Y" d="M.555 73.058c0 39.927 32.374 72.295 72.31 72.295s72.31-32.368 72.31-72.295S112.801.764 72.865.764.555 33.131.555 73.058z"/>
        <path id="prefix__aa" d="M.555 73.058c0 39.927 32.374 72.295 72.31 72.295s72.31-32.368 72.31-72.295S112.801.764 72.865.764.555 33.131.555 73.058"/>
        <path id="prefix__ac" d="M.555 73.058c0 39.927 32.374 72.295 72.31 72.295s72.31-32.368 72.31-72.295S112.801.764 72.865.764.555 33.131.555 73.058z"/>
        <path id="prefix__ae" d="M.555 73.058c0 39.927 32.374 72.295 72.31 72.295s72.31-32.368 72.31-72.295S112.801.764 72.865.764.555 33.131.555 73.058z"/>
        <path id="prefix__ag" d="M.555 73.058c0 39.927 32.374 72.295 72.31 72.295s72.31-32.368 72.31-72.295S112.801.764 72.865.764.555 33.131.555 73.058z"/>
        <path id="prefix__ai" d="M.555 73.058c0 39.927 32.374 72.295 72.31 72.295s72.31-32.368 72.31-72.295S112.801.764 72.865.764.555 33.131.555 73.058"/>
        <path id="prefix__ak" d="M.555 73.058c0 39.927 32.374 72.295 72.31 72.295s72.31-32.368 72.31-72.295S112.801.764 72.865.764.555 33.131.555 73.058"/>
        <path id="prefix__am" d="M.555 73.058c0 39.927 32.374 72.295 72.31 72.295s72.31-32.368 72.31-72.295S112.801.764 72.865.764.555 33.131.555 73.058"/>
        <path id="prefix__ao" d="M.555 73.058c0 39.927 32.374 72.295 72.31 72.295s72.31-32.368 72.31-72.295S112.801.764 72.865.764.555 33.131.555 73.058"/>
        <path id="prefix__aq" d="M.555 73.058c0 39.927 32.374 72.295 72.31 72.295s72.31-32.368 72.31-72.295S112.801.764 72.865.764.555 33.131.555 73.058"/>
        <path id="prefix__as" d="M.555 73.058c0 39.927 32.374 72.295 72.31 72.295s72.31-32.368 72.31-72.295S112.801.764 72.865.764.555 33.131.555 73.058"/>
        <path id="prefix__au" d="M0 247L375.72 247 375.72 0.927 0 0.927z"/>
    </defs>
    <g fill="none" fill-rule="evenodd">
        <g>
            <g transform="translate(0 -1) translate(0 .073) translate(0 2)">
                <mask id="prefix__b" fill="#fff">
                    <use xlink:href="#prefix__a"/>
                </mask>
                <path fill="#D2E7ED" d="M269.426 178.751H28.319c-15.64 0-28.32-12.679-28.32-28.318V28.516C0 12.876 12.68.198 28.32.198h241.107c15.64 0 28.317 12.678 28.317 28.318v121.917c0 15.64-12.677 28.318-28.317 28.318" mask="url(#prefix__b)"/>
            </g>
            <path fill="#FFF" d="M51.605 29.344c0 8.231-6.673 14.904-14.904 14.904-8.232 0-14.905-6.673-14.905-14.904S28.47 14.44 36.701 14.44c8.231 0 14.904 6.673 14.904 14.904" transform="translate(0 -1) translate(0 .073)"/>
            <path stroke="#BD8A39" d="M51.605 29.344c0 8.231-6.673 14.904-14.904 14.904-8.232 0-14.905-6.673-14.905-14.904S28.47 14.44 36.701 14.44c8.231 0 14.904 6.673 14.904 14.904z" transform="translate(0 -1) translate(0 .073)"/>
            <path fill="#006DBB" d="M48.857 29.246c0 6.713-5.442 12.156-12.156 12.156S24.545 35.96 24.545 29.246c0-6.714 5.442-12.157 12.156-12.157s12.156 5.443 12.156 12.157" transform="translate(0 -1) translate(0 .073)"/>
            <path stroke="#BD8A39" stroke-width=".816" d="M48.857 29.246c0 6.713-5.442 12.156-12.156 12.156S24.545 35.96 24.545 29.246c0-6.714 5.442-12.157 12.156-12.157s12.156 5.443 12.156 12.157z" transform="translate(0 -1) translate(0 .073)"/>
            <g>
                <path fill="#FFF" d="M15.35 8.246c0 4.224-3.425 7.648-7.648 7.648-4.224 0-7.65-3.424-7.65-7.648 0-4.225 3.425-7.648 7.65-7.648 4.223 0 7.648 3.423 7.648 7.648" transform="translate(0 -1) translate(0 .073) translate(29 21)"/>
                <path stroke="#231815" stroke-width=".816" d="M15.35 8.246c0 4.224-3.425 7.648-7.648 7.648-4.224 0-7.65-3.424-7.65-7.648 0-4.225 3.425-7.648 7.65-7.648 4.223 0 7.648 3.423 7.648 7.648z" transform="translate(0 -1) translate(0 .073) translate(29 21)"/>
            </g>
            <path stroke="#BD8A39" d="M27.691 27.49s7.66-6.806 18.021 7.146" transform="translate(0 -1) translate(0 .073)"/>
            <path fill="#D0D2D3" d="M308.903 76.054V211.42c0 12.976-21.886 23.495-48.883 23.495H52.133c-7.115 0-13.797-.872-19.63-2.403-3.186-2.804-4.999-6.016-4.999-9.436V91.464c0-10.875 12.528-27.249 29.087-27.249h227.681c7.115 0 13.798.872 19.631 2.403 3.186 2.804 5 6.016 5 9.436" transform="translate(0 -1) translate(0 .073)"/>
            <g transform="translate(0 -1) translate(0 .073) translate(31 68)">
                <mask id="prefix__d" fill="#fff">
                    <use xlink:href="#prefix__c"/>
                </mask>
                <path fill="#F8F6DE" d="M270.145 179H29.038C13.4 179 .72 166.321.72 150.682V28.766C.72 13.126 13.4.447 29.038.447h241.107c15.64 0 28.318 12.68 28.318 28.32v121.915c0 15.64-12.678 28.318-28.318 28.318" mask="url(#prefix__d)"/>
            </g>
            <path fill="#FFF" d="M175.346 198.135H55.954c-4.21 0-7.623-3.413-7.623-7.623 0-4.21 3.413-7.623 7.623-7.623h119.392c4.21 0 7.624 3.413 7.624 7.623 0 4.21-3.413 7.623-7.624 7.623" transform="translate(0 -1) translate(0 .073)"/>
            <path fill="#6BA997" d="M225.516 100.496h-119.39c-4.21 0-7.624-3.413-7.624-7.623 0-4.21 3.413-7.623 7.623-7.623h119.391c4.211 0 7.623 3.413 7.623 7.623 0 4.21-3.412 7.623-7.623 7.623" transform="translate(0 -1) translate(0 .073)"/>
            <path fill="#D1E391" d="M309.983 224.621H55.955c-4.21 0-7.623-3.413-7.623-7.623 0-4.21 3.413-7.623 7.623-7.623h254.028c4.21 0 7.623 3.413 7.623 7.623 0 4.21-3.413 7.623-7.623 7.623" transform="translate(0 -1) translate(0 .073)"/>
            <g transform="translate(0 -1) translate(0 .073) translate(333 140)">
                <mask id="prefix__f" fill="#fff">
                    <use xlink:href="#prefix__e"/>
                </mask>
                <path fill="#FFF" d="M25.914 40.006L.36 14.46 14.284.54l25.553 25.547c3.845 3.844 3.845 10.076 0 13.92-3.845 3.844-10.078 3.844-13.923 0" mask="url(#prefix__f)"/>
            </g>
            <path fill="#D0D2D3" d="M363.252 175.67l-25.553-25.548-4.338 4.337 25.553 25.547c3.845 3.844 10.078 3.844 13.923 0 .758-.758 1.363-1.608 1.822-2.515-3.693 1.87-8.32 1.265-11.407-1.822" transform="translate(0 -1) translate(0 .073)"/>
            <g transform="translate(0 -1) translate(0 .073) translate(190)">
                <mask id="prefix__h" fill="#fff">
                    <use xlink:href="#prefix__g"/>
                </mask>
                <path fill="#FFF" d="M90.87 163.757c-15.818 0-30.453-5.079-42.358-13.699-18.146-13.13-29.95-34.485-29.95-58.594 0-1.718.06-3.424.179-5.114 2.627-37.54 33.914-67.179 72.13-67.179 39.935 0 72.309 32.367 72.309 72.293 0 39.926-32.374 72.293-72.31 72.293m0-162.83C41.05.926.63 41.144.319 90.88c-.004.193-.004.391-.004.584 0 28.098 12.802 53.207 32.892 69.813 15.66 12.945 35.755 20.725 57.665 20.725 50.015 0 90.558-40.534 90.558-90.538S140.886.926 90.87.926" mask="url(#prefix__h)"/>
            </g>
            <path fill="#D0D2D3" d="M280.87 163.76c-39.935 0-72.31-32.369-72.31-72.296 0-39.927 32.375-72.295 72.31-72.295 39.938 0 72.312 32.368 72.312 72.295s-32.374 72.295-72.311 72.295m0-153.355c-44.778 0-81.078 36.292-81.078 81.06 0 44.77 36.3 81.061 81.078 81.061 44.779 0 81.079-36.292 81.079-81.06 0-44.769-36.3-81.06-81.08-81.06" transform="translate(0 -1) translate(0 .073)"/>
            <path fill="#6BA997" d="M244.137 118.681c-9.648.832-17.864 6.699-21.993 14.964 5.847 8.124 13.343 14.981 21.993 20.094v-35.058zM317.606 118.682v35.058c8.647-5.111 16.141-11.966 21.985-20.087-4.128-8.27-12.338-14.135-21.985-14.971" transform="translate(0 -1) translate(0 .073)"/>
        </g>
        <g transform="translate(0 -1) translate(208 19.073)">
            <mask id="prefix__j" fill="#fff">
                <use xlink:href="#prefix__i"/>
            </mask>
            <path fill="#6BA997" d="M133.05 128.66v20.153c-2.65 3.08-5.528 5.96-8.61 8.611l-.068.06c-3.133 2.69-6.474 5.15-9.996 7.346-.82.512-1.65 1.01-2.49 1.493-.003.003-.006.003-.012.006-1.553.894-3.137 1.74-4.755 2.53h-.003c-6.578 3.225-13.65 5.583-21.077 6.935-1.873.343-3.765.618-5.681.828-.74.081-1.478.153-2.223.213-2.178.181-4.381.273-6.605.28h-.35c-2.21-.007-4.4-.099-6.562-.277-.007 0-.02 0-.031-.003-.745-.06-1.484-.132-2.224-.213-1.938-.212-3.854-.49-5.75-.84-7.403-1.354-14.456-3.71-21.011-6.923-1.62-.793-3.21-1.638-4.766-2.533-.84-.486-1.671-.984-2.491-1.496-3.546-2.212-6.91-4.69-10.065-7.406-3.08-2.652-5.96-5.53-8.608-8.61v-22.509c0-5.937 1.899-11.428 5.12-15.906 4.95-6.877 13.027-11.358 22.148-11.358h68.834c1.348 0 2.674.098 3.97.288 7.474 1.09 13.963 5.211 18.18 11.078 3.219 4.473 5.11 9.964 5.11 15.898v2.355h.016z" mask="url(#prefix__j)"/>
            <mask id="prefix__l" fill="#fff">
                <use xlink:href="#prefix__k"/>
            </mask>
            <path fill="#FFF" d="M30.836 133.722v32.604c-.84-.486-1.671-.984-2.491-1.496-3.546-2.212-6.91-4.69-10.065-7.406-3.08-2.651-5.96-5.53-8.608-8.61v-15.092h21.164z" mask="url(#prefix__l)"/>
            <mask id="prefix__n" fill="#fff">
                <use xlink:href="#prefix__m"/>
            </mask>
            <path fill="#FFF" d="M133.05 133.722v15.092c-2.65 3.08-5.528 5.959-8.61 8.61l-.068.061c-3.133 2.689-6.474 5.148-9.996 7.345-.82.512-1.65 1.01-2.49 1.494v-32.602h21.164z" mask="url(#prefix__n)"/>
            <mask id="prefix__p" fill="#fff">
                <use xlink:href="#prefix__o"/>
            </mask>
            <path fill="#FFF" d="M36.716 63.607c-3.221 0-5.831-2.61-5.831-5.831v-8.888c0-3.22 2.61-5.831 5.83-5.831 3.222 0 5.832 2.61 5.832 5.83v8.889c0 3.22-2.61 5.83-5.831 5.83" mask="url(#prefix__p)"/>
            <mask id="prefix__r" fill="#fff">
                <use xlink:href="#prefix__q"/>
            </mask>
            <path fill="#D0D2D3" d="M36.716 60.86c-3.221 0-5.831-2.61-5.831-5.83v2.747c0 3.22 2.61 5.83 5.83 5.83 3.222 0 5.832-2.61 5.832-5.83V55.03c0 3.22-2.61 5.83-5.831 5.83" mask="url(#prefix__r)"/>
            <mask id="prefix__t" fill="#fff">
                <use xlink:href="#prefix__s"/>
            </mask>
            <path fill="#FFF" d="M106.006 63.607h-.001c-3.22 0-5.831-2.61-5.831-5.831v-8.888c0-3.22 2.61-5.831 5.83-5.831h.002c3.22 0 5.83 2.61 5.83 5.83v8.889c0 3.22-2.61 5.83-5.83 5.83" mask="url(#prefix__t)"/>
            <mask id="prefix__v" fill="#fff">
                <use xlink:href="#prefix__u"/>
            </mask>
            <path fill="#D0D2D3" d="M106.006 60.86c-3.221 0-5.832-2.61-5.832-5.83v2.747c0 3.22 2.61 5.83 5.832 5.83 3.22 0 5.83-2.61 5.83-5.83V55.03c0 3.22-2.61 5.83-5.83 5.83" mask="url(#prefix__v)"/>
            <mask id="prefix__x" fill="#fff">
                <use xlink:href="#prefix__w"/>
            </mask>
            <path fill="#FFF" d="M57.79 80.615V99.04h-.01l.003.004c6.832 8.959 20.318 8.957 27.148-.004V80.615H57.79z" mask="url(#prefix__x)"/>
            <mask id="prefix__z" fill="#fff">
                <use xlink:href="#prefix__y"/>
            </mask>
            <path fill="#FFF" d="M37.224 40.736c1.13-5.8 3.699-11.083 7.326-15.462 1.047-1.271 2.187-2.461 3.404-3.57 6.178-5.628 14.39-9.055 23.407-9.055.4 0 .802.007 1.203.024.136 0 .27.006.404.013 8.968.407 17.044 4.206 22.99 10.152 5.294 5.294 8.89 12.292 9.898 20.1.19 1.472.288 2.97.288 4.49v6.889c0 19.21-15.572 34.78-34.784 34.78-19.207 0-34.782-15.57-34.782-34.78v-6.888c0-1.477.09-2.931.27-4.358l.377-2.335z" mask="url(#prefix__z)"/>
            <mask id="prefix__B" fill="#fff">
                <use xlink:href="#prefix__A"/>
            </mask>
            <path fill="#D0D2D3" d="M71.36 83.604c-19.208 0-34.783-15.57-34.783-34.78v5.493c0 19.21 15.575 34.78 34.783 34.78 19.212 0 34.783-15.57 34.783-34.78v-5.493c0 19.21-15.57 34.78-34.783 34.78" mask="url(#prefix__B)"/>
            <mask id="prefix__D" fill="#fff">
                <use xlink:href="#prefix__C"/>
            </mask>
            <path fill="#4B6084" d="M37.224 40.736h3.323v16.668c0 1.087-.84 2.033-1.926 2.063-1.126.032-2.044-.868-2.044-1.981V45.495c0-1.61.218-3.21.648-4.76" mask="url(#prefix__D)"/>
            <g>
                <mask id="prefix__F" fill="#fff">
                    <use xlink:href="#prefix__E"/>
                </mask>
                <path fill="#4B6084" d="M106.143 45.234v12.18c0 1.01-.725 1.91-1.726 2.038-1.21.154-2.243-.786-2.243-1.966v-16.75h3.324c.428 1.46.645 2.976.645 4.498" mask="url(#prefix__F)"/>
            </g>
            <g>
                <mask id="prefix__H" fill="#fff">
                    <use xlink:href="#prefix__G"/>
                </mask>
                <path fill="#4B6084" d="M72.564 12.672c-3.519 5.491-12.24 17.36-26.364 25.708-3.4 2.006-6.522 3.538-9.352 4.69.004-.002.004-.009.004-.013.84-6.71 3.593-12.828 7.697-17.783 1.047-1.272 2.187-2.46 3.404-3.57 6.178-5.629 14.391-9.055 23.407-9.055.4 0 .804.006 1.204.023" mask="url(#prefix__H)"/>
            </g>
            <g>
                <mask id="prefix__J" fill="#fff">
                    <use xlink:href="#prefix__I"/>
                </mask>
                <path fill="#808F91" d="M105.855 42.939c-4.735 1.434-14.066 2.786-28.885-1.088-14.985-3.915-26.357-11.68-32.42-16.577 1.046-1.272 2.186-2.461 3.403-3.57 6.178-5.628 14.391-9.055 23.407-9.055.536 0 1.075.01 1.607.037 8.968.407 17.046 4.206 22.991 10.15 5.294 5.295 8.89 12.293 9.897 20.103" mask="url(#prefix__J)"/>
            </g>
            <g>
                <mask id="prefix__L" fill="#fff">
                    <use xlink:href="#prefix__K"/>
                </mask>
                <path fill="#4B6084" d="M76.97 21.515c-6.561-1.714-12.43-4.167-17.464-6.793-4.311 1.563-8.227 3.953-11.553 6.982-1.216 1.109-2.356 2.298-3.403 3.57 6.064 4.897 17.436 12.662 32.42 16.577 14.819 3.874 24.15 2.52 28.886 1.088-.935-7.251-4.105-13.801-8.791-18.94-5.04.229-11.681-.285-20.094-2.484" mask="url(#prefix__L)"/>
            </g>
            <g>
                <mask id="prefix__N" fill="#fff">
                    <use xlink:href="#prefix__M"/>
                </mask>
                <path fill="#808F91" d="M76.97 28.293C67.39 25.79 59.29 21.714 53.107 17.82c-1.838 1.136-3.564 2.437-5.153 3.885-1.216 1.11-2.356 2.298-3.403 3.57 6.064 4.897 17.436 12.662 32.42 16.577 14.819 3.874 24.15 2.521 28.886 1.088-.585-4.538-2.05-8.798-4.207-12.614-5.315.837-13.408.914-24.678-2.032" mask="url(#prefix__N)"/>
            </g>
            <g>
                <mask id="prefix__P" fill="#fff">
                    <use xlink:href="#prefix__O"/>
                </mask>
                <path fill="#4B6084" d="M76.97 35.072C64.678 31.86 54.82 26.059 48.326 21.375c-.125.109-.25.218-.372.33-1.216 1.108-2.356 2.298-3.403 3.569 6.064 4.898 17.436 12.662 32.42 16.577 14.819 3.874 24.15 2.522 28.886 1.088-.283-2.2-.78-4.331-1.453-6.382-5.08 1.244-14.002 2.027-27.432-1.485" mask="url(#prefix__P)"/>
            </g>
            <g>
                <mask id="prefix__R" fill="#fff">
                    <use xlink:href="#prefix__Q"/>
                </mask>
                <path fill="#A62873" d="M71.361 65.837c-2.122 0-3.843-1.72-3.843-3.842v-5.054c0-2.122 1.721-3.842 3.842-3.842h.001c2.121 0 3.842 1.72 3.842 3.842v5.054c0 2.121-1.72 3.842-3.842 3.842" mask="url(#prefix__R)"/>
            </g>
            <g>
                <mask id="prefix__T" fill="#fff">
                    <use xlink:href="#prefix__S"/>
                </mask>
                <path fill="#A62873" d="M58.141 50.102c0 1.622-1.315 2.938-2.938 2.938-1.622 0-2.937-1.316-2.937-2.938s1.315-2.938 2.937-2.938c1.623 0 2.938 1.316 2.938 2.938" mask="url(#prefix__T)"/>
            </g>
            <g>
                <mask id="prefix__V" fill="#fff">
                    <use xlink:href="#prefix__U"/>
                </mask>
                <path fill="#A62873" d="M90.455 50.102c0 1.622-1.315 2.938-2.938 2.938-1.623 0-2.937-1.316-2.937-2.938s1.314-2.938 2.937-2.938c1.623 0 2.938 1.316 2.938 2.938" mask="url(#prefix__V)"/>
            </g>
            <g>
                <mask id="prefix__X" fill="#fff">
                    <use xlink:href="#prefix__W"/>
                </mask>
                <path fill="#A62873" d="M71.36 76.122c-3.753 0-7.283-1.464-9.94-4.12-.35-.35-.35-.917 0-1.268.348-.349.917-.349 1.266 0 2.32 2.32 5.4 3.596 8.674 3.596 3.275 0 6.355-1.276 8.675-3.596.35-.349.917-.349 1.266 0 .351.351.351.917 0 1.267-2.657 2.657-6.187 4.121-9.94 4.121" mask="url(#prefix__X)"/>
            </g>
            <g>
                <mask id="prefix__Z" fill="#fff">
                    <use xlink:href="#prefix__Y"/>
                </mask>
                <path fill="#F23E23" d="M71.36 173.055L71.344 173.074 71.35 173.093 71.361 173.056z" mask="url(#prefix__Z)"/>
            </g>
            <g>
                <mask id="prefix__ab" fill="#fff">
                    <use xlink:href="#prefix__aa"/>
                </mask>
                <path fill="#D1E391" d="M101.836 111.483c.498 3.495-.221.67 0-.002-4.484-5.264-10.2-9.33-16.904-12.44l-.001.002c-6.831 8.959-20.316 8.96-27.148.002l-.002-.003c-14.134 6.554-23.884 17.366-26.945 34.68v32.605c1.556.894 3.146 1.74 4.766 2.533 6.555 3.213 13.608 5.568 21.01 6.924 1.897.347 3.813.626 5.75.84.74.08 1.48.152 2.225.212.012.002.023.002.03.002l5.047.21 1.516.06v.016h.025l.152-.01h.003l.148.01h.022v-.015l1.528-.063 5.077-.21c.745-.06 1.483-.132 2.222-.212 1.917-.21 3.809-.487 5.682-.83 7.427-1.351 14.499-3.71 21.077-6.934h.003c1.617-.791 3.2-1.636 4.755-2.53v-32.608c-1.607-9.102-5.067-16.405-10.038-22.24" mask="url(#prefix__ab)"/>
            </g>
            <g>
                <mask id="prefix__ad" fill="#fff">
                    <use xlink:href="#prefix__ac"/>
                </mask>
                <path fill="#0E6DA0" d="M111.886 166.323l-.012-25.5-.003-7.102-4.752 35.138c1.618-.79 3.202-1.636 4.755-2.53l.012-.006z" mask="url(#prefix__ad)"/>
            </g>
            <g>
                <mask id="prefix__af" fill="#fff">
                    <use xlink:href="#prefix__ae"/>
                </mask>
                <path fill="#0E6DA0" d="M35.601 168.86c-1.619-.793-3.21-1.64-4.766-2.533v-32.605l4.766 35.138z" mask="url(#prefix__af)"/>
            </g>
            <g>
                <mask id="prefix__ah" fill="#fff">
                    <use xlink:href="#prefix__ag"/>
                </mask>
                <path fill="#0E6DA0" d="M84.93 99.041c-6.83 8.96-20.315 8.961-27.147.003l-.002-.003h-5.648c2.762 6.347 10.325 10.904 19.227 10.904 8.903 0 16.466-4.557 19.227-10.904H84.93z" mask="url(#prefix__ah)"/>
            </g>
            <g>
                <mask id="prefix__aj" fill="#fff">
                    <use xlink:href="#prefix__ai"/>
                </mask>
                <path fill="#E7AD26" d="M111.053 28.178H31.669c-2.214 0-4.01 1.795-4.01 4.008 0 2.214 1.796 4.009 4.01 4.009h79.384c2.213 0 4.008-1.795 4.008-4.009 0-2.213-1.795-4.008-4.008-4.008" mask="url(#prefix__aj)"/>
            </g>
            <g>
                <mask id="prefix__al" fill="#fff">
                    <use xlink:href="#prefix__ak"/>
                </mask>
                <path fill="#FDDD39" d="M106.492 28.178H36.228c0-1.843.177-3.641.521-5.384.103-.553.228-1.105.37-1.648.558-2.162 1.368-4.221 2.401-6.147.298-.561.617-1.112.952-1.649 1.435-2.293 3.192-4.365 5.205-6.146.658-.586 1.34-1.136 2.05-1.649C52.356 2.167 58.062.171 64.232.171h14.256c6.174 0 11.88 1.999 16.505 5.384.71.517 1.393 1.063 2.048 1.649.426.374.842.766 1.247 1.171 1.5 1.5 2.83 3.166 3.956 4.975.34.537.658 1.088.956 1.649 1.033 1.926 1.844 3.985 2.401 6.147.142.543.267 1.095.371 1.648.343 1.743.52 3.541.52 5.384" mask="url(#prefix__al)"/>
            </g>
            <g>
                <mask id="prefix__an" fill="#fff">
                    <use xlink:href="#prefix__am"/>
                </mask>
                <path fill="#FFF234" d="M94.993 5.555H47.727c-.71.513-1.392 1.063-2.05 1.649h51.364c-.655-.586-1.338-1.132-2.048-1.649m7.251 7.795H40.472c-.335.537-.654 1.088-.952 1.649h63.68c-.298-.561-.616-1.112-.956-1.649m3.357 7.796H37.119c-.142.543-.267 1.095-.37 1.648h69.223c-.104-.553-.229-1.105-.371-1.648" mask="url(#prefix__an)"/>
            </g>
            <g>
                <mask id="prefix__ap" fill="#fff">
                    <use xlink:href="#prefix__ao"/>
                </mask>
                <path fill="#E7AD26" d="M111.053 28.178H31.669c-2.214 0-4.01 1.795-4.01 4.008 0 2.214 1.796 4.009 4.01 4.009h79.384c2.213 0 4.008-1.795 4.008-4.009 0-2.213-1.795-4.008-4.008-4.008" mask="url(#prefix__ap)"/>
            </g>
            <g>
                <mask id="prefix__ar" fill="#fff">
                    <use xlink:href="#prefix__aq"/>
                </mask>
                <path fill="#FDDD39" d="M106.492 28.178H36.228c0-1.843.177-3.641.521-5.384.103-.553.228-1.105.37-1.648.558-2.162 1.368-4.221 2.401-6.147.298-.561.617-1.112.952-1.649 1.435-2.293 3.192-4.365 5.205-6.146.658-.586 1.34-1.136 2.05-1.649C52.356 2.167 58.062.171 64.232.171h14.256c6.174 0 11.88 1.999 16.505 5.384.71.517 1.393 1.063 2.048 1.649.426.374.842.766 1.247 1.171 1.5 1.5 2.83 3.166 3.956 4.975.34.537.658 1.088.956 1.649 1.033 1.926 1.844 3.985 2.401 6.147.142.543.267 1.095.371 1.648.343 1.743.52 3.541.52 5.384" mask="url(#prefix__ar)"/>
            </g>
            <g>
                <mask id="prefix__at" fill="#fff">
                    <use xlink:href="#prefix__as"/>
                </mask>
                <path fill="#FFF234" d="M94.993 5.555H47.727c-.71.513-1.392 1.063-2.05 1.649h51.364c-.655-.586-1.338-1.132-2.048-1.649m7.251 7.795H40.472c-.335.537-.654 1.088-.952 1.649h63.68c-.298-.561-.616-1.112-.956-1.649m3.357 7.796H37.119c-.142.543-.267 1.095-.37 1.648h69.223c-.104-.553-.229-1.105-.371-1.648" mask="url(#prefix__at)"/>
            </g>
        </g>
        <g transform="translate(0 -1) translate(0 .073)">
            <path fill="#D0D2D3" d="M280.865 163.819c-.479 6.348-2.502 12.554-5.974 18.01-25.998-1.9-50.982-14.948-67.264-37.851-.113-.158-.227-.318-.335-.478 2.756-5.51 6.87-10.445 12.244-14.264.048-.034.097-.068.146-.1.883 1.447 1.824 2.87 2.82 4.272 13.97 19.65 35.964 30.219 58.363 30.41"/>
            <path fill="#427E7C" d="M279.36 163.752c0 21.48-17.415 38.891-38.898 38.891-21.484 0-38.9-17.412-38.9-38.89 0-21.48 17.416-38.892 38.9-38.892 21.483 0 38.898 17.412 38.898 38.891"/>
            <path fill="#F0CA67" d="M272.53 163.752c0 17.708-14.357 32.063-32.068 32.063-17.712 0-32.07-14.355-32.07-32.063 0-17.707 14.358-32.062 32.07-32.062 17.711 0 32.068 14.355 32.068 32.062"/>
            <path fill="#FFF" d="M240.462 134.287c17.275 0 31.354 13.66 32.036 30.764.017-.432.032-.864.032-1.299 0-17.707-14.357-32.062-32.068-32.062s-32.07 14.355-32.07 32.062c0 .435.016.867.034 1.3.682-17.106 14.76-30.765 32.036-30.765"/>
            <path fill="#FFF" d="M233.611 182.358L217.796 166.545 223.382 160.961 233.611 171.187 255.237 149.566 260.824 155.151z"/>
            <mask id="prefix__av" fill="#fff">
                <use xlink:href="#prefix__au"/>
            </mask>
            <path fill="#DD0816" d="M48.332 105.147L87.955 105.147 87.955 80.6 48.332 80.6z" mask="url(#prefix__av)"/>
            <path fill="#1F286F" d="M48.332 91.475L61.504 91.475 61.504 80.6 48.332 80.6z" mask="url(#prefix__av)"/>
        </g>
        <text fill="#317593" font-family="PingFangTC-Semibold, PingFang TC" font-size="32" font-weight="500" letter-spacing="8.257" transform="translate(0 -1)">
            <tspan x="60.614" y="155">身份證</tspan>
        </text>
        <text fill="#476186" font-family="PingFangTC-Semibold, PingFang TC" font-size="32" font-weight="500" letter-spacing="8.257" transform="translate(0 -1)">
            <tspan x="69.614" y="43">居留證</tspan>
        </text>
    </g>
</svg>
