<?xml version="1.0" encoding="UTF-8"?>
<svg width="522px" height="346px" viewBox="0 0 522 346" version="1.1" xmlns="http://www.w3.org/2000/svg" xmlns:xlink="http://www.w3.org/1999/xlink">
    <!-- Generator: Sketch 61.1 (89650) - https://sketch.com -->
    <title>Group 15 outline</title>
    <desc>Created with Sketch.</desc>
    <defs>
        <path d="M0.666519004,92.2932964 C0.666519004,142.826561 41.3160248,183.800507 91.4452539,183.800507 L91.4452539,183.800507 C141.587234,183.800507 182.231275,142.826561 182.231275,92.2932964 L182.231275,92.2932964 C182.231275,41.7455233 141.587234,0.775203943 91.4452539,0.775203943 L91.4452539,0.775203943 C41.3105599,0.775203943 0.666519004,41.7455233 0.666519004,92.2932964 L0.666519004,92.2932964 Z" id="path-1"></path>
        <path d="M0.674742857,0.797257143 C0.674742857,35.6717714 28.9316571,63.9414857 63.7878857,63.9414857 L63.7878857,63.9414857 L63.7878857,0.797257143 L0.674742857,0.797257143 Z" id="path-3"></path>
        <path d="M0.674742857,62.4430703 L63.7878857,62.4430703 L63.7878857,0.123601562 C28.9316571,0.123601562 0.674742857,28.025875 0.674742857,62.4430703 L0.674742857,62.4430703 Z" id="path-5"></path>
        <path d="M0.0984375,0.810057143 L0.0984375,63.9524571 C34.4993906,63.9524571 62.3872266,35.6827429 62.3872266,0.810057143 L62.3872266,0.810057143 L0.0984375,0.810057143 Z" id="path-7"></path>
        <polygon id="path-9" points="0.676731207 0.288944059 48.9149922 0.288944059 48.9149922 20.8007397 0.676731207 20.8007397"></polygon>
        <linearGradient x1="49.9995627%" y1="28.7334927%" x2="49.9995627%" y2="95.7251772%" id="linearGradient-11">
            <stop stop-color="#CC6757" offset="0%"></stop>
            <stop stop-color="#CC6757" offset="100%"></stop>
        </linearGradient>
        <path d="M0.338285714,0.213666667 L0.338285714,15.6943333 C1.47565714,18.041 3.87474286,19.6543333 6.64868571,19.6543333 L6.64868571,19.6543333 C9.42628571,19.6543333 11.8272,18.0391667 12.9627429,15.6906667 L12.9627429,15.6906667 C14.0982857,18.0391667 16.5010286,19.6543333 19.2768,19.6543333 L19.2768,19.6543333 C22.0544,19.6543333 24.4534857,18.0391667 25.5908571,15.6906667 L25.5908571,15.6906667 C26.7282286,18.0391667 29.1273143,19.6543333 31.9067429,19.6543333 L31.9067429,19.6543333 C34.6825143,19.6543333 37.0816,18.0391667 38.2171429,15.6906667 L38.2171429,15.6906667 C39.3545143,18.0391667 41.7554286,19.6543333 44.5312,19.6543333 L44.5312,19.6543333 C47.3088,19.6543333 49.7097143,18.0391667 50.8470857,15.6906667 L50.8470857,15.6906667 C51.9826286,18.0391667 54.3817143,19.6543333 57.1593143,19.6543333 L57.1593143,19.6543333 C59.9369143,19.6543333 62.3341714,18.0391667 63.4715429,15.6906667 L63.4715429,15.6906667 L63.4715429,0.213666667 L0.338285714,0.213666667 Z" id="path-12"></path>
        <linearGradient x1="23.0044094%" y1="46.2913962%" x2="128.188262%" y2="58.896302%" id="linearGradient-14">
            <stop stop-color="#F2EDD1" offset="0%"></stop>
            <stop stop-color="#C6C19A" offset="100%"></stop>
        </linearGradient>
        <polygon id="path-15" points="0.032384 0.1725 43.3585778 0.1725 43.3585778 29.941875 0.032384 29.941875"></polygon>
        <linearGradient x1="49.9986297%" y1="87.6467393%" x2="49.9986297%" y2="14.4273528%" id="linearGradient-17">
            <stop stop-color="#D89044" offset="0%"></stop>
            <stop stop-color="#D89044" offset="100%"></stop>
        </linearGradient>
        <polygon id="path-18" points="0.628 0.1725 8.58833333 0.1725 8.58833333 29.941875 0.628 29.941875"></polygon>
        <linearGradient x1="49.9906449%" y1="85.2935044%" x2="49.9906449%" y2="41.4085111%" id="linearGradient-20">
            <stop stop-color="#F2EDD1" offset="0%"></stop>
            <stop stop-color="#E2DDC1" offset="100%"></stop>
        </linearGradient>
        <path d="M0.84875,3.38066667 C-0.35875,5.77683333 -0.235,8.24633333 1.638125,9.14466667 L1.638125,9.14466667 C3.51125,10.0448333 10.904375,11.1833333 12.108125,8.789 L12.108125,8.789 C13.31375,6.3965 7.874375,1.37316667 6.00125,0.473 L6.00125,0.473 C5.615,0.287833333 5.219375,0.201666667 4.82375,0.201666667 L4.82375,0.201666667 C3.306875,0.201666667 1.803125,1.48133333 0.84875,3.38066667" id="path-21"></path>
        <linearGradient x1="49.997914%" y1="-2.89333916%" x2="49.997914%" y2="131.871713%" id="linearGradient-23">
            <stop stop-color="#F2EDD1" offset="0%"></stop>
            <stop stop-color="#C6C19A" offset="100%"></stop>
        </linearGradient>
        <path d="M6.57428571,0.473 C4.719,1.37316667 -0.668571429,6.3965 0.527428571,8.789 L0.527428571,8.789 C1.71971429,11.1833333 9.04242857,10.0448333 10.8977143,9.14466667 L10.8977143,9.14466667 C12.753,8.24633333 12.8755714,5.77683333 11.6814286,3.38066667 L11.6814286,3.38066667 C10.7361429,1.48133333 9.243,0.201666667 7.74057143,0.201666667 L7.74057143,0.201666667 C7.35057143,0.201666667 6.95685714,0.287833333 6.57428571,0.473" id="path-24"></path>
        <linearGradient x1="49.9988334%" y1="-2.89337394%" x2="49.9988334%" y2="131.871792%" id="linearGradient-26">
            <stop stop-color="#F2EDD1" offset="0%"></stop>
            <stop stop-color="#C6C19A" offset="100%"></stop>
        </linearGradient>
        <polygon id="path-27" points="0 0.269054545 298.184843 0.269054545 298.184843 48.9995545 0 48.9995545"></polygon>
        <polygon id="path-29" points="0 0.700333333 298.184843 0.700333333 298.184843 49.3203333 0 49.3203333"></polygon>
    </defs>
    <g id="懶人包" stroke="none" stroke-width="1" fill="none" fill-rule="evenodd">
        <g id="小資振興_懶人包_農遊券" transform="translate(-1049.000000, -1884.000000)">
            <g id="Group-15-outline" transform="translate(1049.000000, 1884.000000)">
                <g id="Group-167">
                    <polygon id="Fill-1" fill="#427E7C" points="168.517799 208 505.517799 208 505.517799 32 168.517799 32"></polygon>
                    <polygon id="Fill-2" fill="#63A9A7" points="154.517799 259 521.517799 259 521.517799 55 154.517799 55"></polygon>
                    <g id="Group-5" transform="translate(245.517799, 64.000000)">
                        <mask id="mask-2" fill="white">
                            <use xlink:href="#path-1"></use>
                        </mask>
                        <g id="Clip-4"></g>
                        <polygon id="Fill-3" fill="#FFFFFF" mask="url(#mask-2)" points="-0.918292558 185.380125 183.816087 185.380125 183.816087 -0.802600398 -0.918292558 -0.802600398"></polygon>
                    </g>
                    <path d="M475.518684,173 C466.687314,173 459.517799,165.828532 459.517799,156.997346 C459.517799,148.16439 466.687314,141 475.518684,141 C484.350054,141 491.517799,148.16439 491.517799,156.997346 C491.517799,165.828532 484.350054,173 475.518684,173" id="Fill-6" fill="#87C392"></path>
                    <g id="Group-10" transform="translate(457.517799, 54.000000)">
                        <mask id="mask-4" fill="white">
                            <use xlink:href="#path-3"></use>
                        </mask>
                        <g id="Clip-9"></g>
                        <polygon id="Fill-8" fill="#ABCDDF" mask="url(#mask-4)" points="-0.916114286 65.5323429 65.3787429 65.5323429 65.3787429 -0.7936 -0.916114286 -0.7936"></polygon>
                    </g>
                    <g id="Group-13" transform="translate(457.517799, 197.000000)">
                        <mask id="mask-6" fill="white">
                            <use xlink:href="#path-5"></use>
                        </mask>
                        <g id="Clip-12"></g>
                        <polygon id="Fill-11" fill="#ABCDDF" mask="url(#mask-6)" points="-0.916114286 61.5131484 65.3787429 61.5131484 65.3787429 -3.94647656 -0.916114286 -3.94647656"></polygon>
                    </g>
                    <g id="Group-18" transform="translate(154.517799, 139.000000)">
                        <path d="M45.7750781,0.704630203 C54.7804688,0.704630203 62.0930625,8.07270609 62.0930625,17.1496375 C62.0930625,26.2211151 54.7804688,33.5819192 45.7750781,33.5819192 C36.7732969,33.5819192 29.4625078,26.2211151 29.4625078,17.1496375 C29.4625078,8.07270609 36.7732969,0.704630203 45.7750781,0.704630203" id="Fill-14" fill="#87C392"></path>
                        <path d="M0.0975351563,56.1586272 L0.0975351563,118.935434 L62.3881289,118.935434 C62.3881289,84.2656643 34.4984883,56.1586272 0.0975351563,56.1586272" id="Fill-16" fill="#ABCDDF"></path>
                    </g>
                    <g id="Group-21" transform="translate(154.517799, 54.000000)">
                        <mask id="mask-8" fill="white">
                            <use xlink:href="#path-7"></use>
                        </mask>
                        <g id="Clip-20"></g>
                        <polygon id="Fill-19" fill="#ABCDDF" mask="url(#mask-8)" points="0.182175 0.246308571 66.0009328 0.185965714 66.0009328 66.5119086 0.0973546875 67.0824229"></polygon>
                    </g>
                    <g id="Group-139" transform="translate(0.517799, 0.000000)">
                        <path d="M255.7865,225.687642 L302.344033,225.687642 L302.344033,229.864832 L255.7865,229.864832 C254.6311,229.864832 253.697333,228.928096 253.697333,227.775329 C253.697333,226.622563 254.6311,225.687642 255.7865,225.687642" id="Fill-29" fill="#979696"></path>
                        <path d="M317.590408,225.687642 L302.343125,225.687642 L302.343125,229.864832 L317.590408,229.864832 C318.743992,229.864832 319.677758,228.928096 319.677758,227.775329 C319.677758,226.622563 318.743992,225.687642 317.590408,225.687642" id="Fill-31" fill="#656666"></path>
                        <path d="M255.7865,252.936131 L302.344033,252.936131 L302.344033,257.11332 L255.7865,257.11332 C254.6311,257.11332 253.697333,256.176584 253.697333,255.023818 C253.697333,253.871052 254.6311,252.936131 255.7865,252.936131" id="Fill-33" fill="#979696"></path>
                        <path d="M317.590408,252.936131 L302.343125,252.936131 L302.343125,257.11332 L317.590408,257.11332 C318.743992,257.11332 319.677758,256.176584 319.677758,255.023818 C319.677758,253.871052 318.743992,252.936131 317.590408,252.936131" id="Fill-35" fill="#656666"></path>
                        <path d="M219.220815,280.184439 L219.220815,222.551574 C219.220815,191.573932 261.799848,181.792665 274.698182,209.646038 C287.983465,200.984861 300.794598,201.705567 303.733965,215.099439 C325.197882,204.866143 353.912115,207.380444 353.919382,234.883449 C363.224348,227.418607 381.271115,232.959147 377.714082,251.457867 C395.279432,244.978777 411.502265,262.853007 407.779915,280.184439 L219.220815,280.184439 Z" id="Fill-37" fill="#62897F"></path>
                        <g id="Group-41" transform="translate(340.500421, 259.383880)">
                            <mask id="mask-10" fill="white">
                                <use xlink:href="#path-9"></use>
                            </mask>
                            <g id="Clip-40"></g>
                            <path d="M21.3943088,0.288944059 C33.5587088,0.288944059 45.1181588,9.17341316 48.9149922,20.8009213 L0.676731207,20.8009213 C0.617092154,9.17341316 9.23172549,0.288944059 21.3943088,0.288944059" id="Fill-39" fill="#84B4A5" mask="url(#mask-10)"></path>
                        </g>
                        <path d="M354.424052,176.12287 C377.266818,176.12287 395.785918,194.627037 395.785918,217.455439 C395.785918,240.283841 376.095068,258.788008 357.014618,258.788008 C345.378868,258.788008 323.493485,255.157249 319.716635,230.429959 C305.566618,219.908018 310.507952,186.840873 336.121135,185.070878 C337.172985,178.72431 347.066552,176.12287 354.424052,176.12287" id="Fill-42" fill="#ABC341"></path>
                        <path d="M382.800567,187.383853 C390.7939,194.919495 395.784283,205.604821 395.784283,217.453806 C395.784283,240.284023 376.09525,258.78819 357.0148,258.78819 C347.5754,258.78819 331.390717,256.39915 323.60085,242.295464 C319.885767,231.464907 326.351283,227.275011 345.1011,237.009078 C362.90625,246.252992 357.89225,229.969034 371.742517,229.969034 C385.029617,229.969034 391.662267,214.507444 381.2019,200.908433 C372.08405,189.052187 365.540417,174.176965 382.800567,187.383853" id="Fill-44" fill="#849D34"></path>
                        <path d="M354.631697,280.184439 L358.344963,280.184439 L358.344963,258.753879 C357.901697,258.775664 357.45843,258.788371 357.015163,258.788371 C356.25943,258.788371 355.46373,258.772033 354.631697,258.739356 L354.631697,280.184439 Z" id="Fill-46" fill="#876542"></path>
                        <path d="M330.420617,225.825974 C336.123133,224.099548 335.249317,232.713526 330.420617,232.713526 C325.61735,232.713526 324.70175,224.08321 330.420617,225.825974" id="Fill-48" fill="#E3FA69"></path>
                        <path d="M353.0581,214.128756 C358.760617,212.402329 357.8868,221.014492 353.0581,221.014492 C348.25665,221.014492 347.339233,212.385991 353.0581,214.128756" id="Fill-50" fill="#E3FA69"></path>
                        <path d="M377.895385,225.825974 C383.599718,224.099548 382.724085,232.713526 377.895385,232.713526 C373.093935,232.713526 372.178335,224.08321 377.895385,225.825974" id="Fill-52" fill="#E3FA69"></path>
                        <path d="M330.420617,204.36764 C336.123133,202.641213 335.249317,211.253376 330.420617,211.253376 C325.61735,211.253376 324.70175,202.624875 330.420617,204.36764" id="Fill-54" fill="#E3FA69"></path>
                        <path d="M377.895385,204.36764 C383.599718,202.641213 382.724085,211.253376 377.895385,211.253376 C373.093935,211.253376 372.178335,202.624875 377.895385,204.36764" id="Fill-56" fill="#E3FA69"></path>
                        <path d="M352.169205,235.718342 C357.873538,233.991916 356.999722,242.604078 352.169205,242.604078 C347.367755,242.604078 346.452155,233.973762 352.169205,235.718342" id="Fill-58" fill="#E3FA69"></path>
                        <path d="M354.388627,192.064084 C360.091143,190.339473 359.217327,198.951635 354.388627,198.951635 C349.58536,198.951635 348.66976,190.321319 354.388627,192.064084" id="Fill-60" fill="#E3FA69"></path>
                        <path d="M326.856498,240.102485 L326.856498,251.956915 L326.856498,280.184257 L321.649932,280.184257 L321.649932,258.753698 C321.063148,258.913451 320.445482,259.000589 319.807832,259.000589 L286.421132,259.000589 L286.421132,280.184257 L281.216382,280.184257 L281.216382,259.000589 L277.670248,259.000589 C273.793482,259.000589 270.621582,255.830936 270.621582,251.956915 L270.621582,228.24987 C270.621582,224.375849 273.793482,221.208011 277.670248,221.208011 L319.807832,221.208011 C323.181382,221.208011 326.020832,223.607943 326.700265,226.783043 C326.751132,226.777597 326.803815,226.773966 326.856498,226.773966 C328.495132,226.773966 329.981165,227.438395 331.056632,228.5131 C332.130282,229.587805 332.796998,231.07097 332.796998,232.712073 L332.796998,257.542839 C333.745298,258.457791 334.388398,260.227786 334.388398,262.259196 C334.388398,265.230973 331.941348,269.591515 331.320048,269.591515 C330.700565,269.591515 328.253515,265.229158 328.253515,262.259196 C328.253515,260.227786 328.896615,258.457791 329.844915,257.542839 L329.844915,232.712073 C329.844915,231.887891 329.510648,231.139954 328.969282,230.600787 C328.427915,230.059803 327.681265,229.723958 326.856498,229.723958 L326.856498,240.102485 Z" id="Fill-62" fill="#FFFFFF"></path>
                        <polygon id="Fill-64" fill="#B2B2B2" points="311.05495 280.18462 316.261517 280.18462 316.261517 259.000952 311.05495 259.000952"></polygon>
                        <path d="M270.6214,251.95746 C270.6214,255.194282 272.837733,257.939137 275.827967,258.754242 L275.827967,280.184802 L270.6214,280.184802 L270.6214,251.95746 Z" id="Fill-66" fill="#B2B2B2"></path>
                        <path d="M320.446753,258.999137 C320.446753,261.878329 319.149653,264.452538 317.10772,266.173518 L319.278637,269.769786 C319.700103,270.465076 319.474837,271.369135 318.777237,271.790304 C318.079637,272.209656 317.174937,271.986365 316.755287,271.289259 L314.58437,267.696622 C313.934003,267.961667 313.245487,268.155913 312.531537,268.266651 L312.531537,272.46381 C312.531537,273.278915 311.87027,273.937898 311.056403,273.937898 C310.24072,273.937898 309.58127,273.278915 309.58127,272.46381 L309.58127,268.266651 C308.865503,268.155913 308.176987,267.961667 307.52662,267.696622 L305.35752,271.289259 C304.93787,271.986365 304.031353,272.209656 303.333753,271.790304 C302.636153,271.369135 302.410887,270.465076 302.832353,269.769786 L305.00327,266.173518 C302.961337,264.452538 301.664237,261.878329 301.664237,258.999137 L320.446753,258.999137 Z" id="Fill-67" fill="#E09393"></path>
                        <path d="M288.431637,242.836265 C293.501953,242.836265 300.30537,245.399582 299.088203,251.689873 C298.399687,255.251648 295.60202,257.617088 292.384703,259.000408 L286.422403,259.000408 L286.422403,260.479942 C285.93372,260.521696 285.461387,260.541665 285.009037,260.541665 C283.592037,260.541665 282.307653,260.231235 281.215837,259.677544 L281.215837,259.000408 L280.12947,259.000408 C278.022137,257.404689 276.95212,254.727004 277.538903,251.689873 C278.48357,246.801055 283.36132,242.836265 288.431637,242.836265" id="Fill-68" fill="#4E4E4E"></path>
                        <path d="M318.867888,245.899719 C321.478438,245.899719 324.773872,246.720271 326.855772,248.590112 L326.855772,251.957642 L326.855772,257.603473 C325.476922,258.897839 323.560338,259.731098 321.649205,260.166789 L321.649205,258.754424 C321.062422,258.914177 320.444755,259.001315 319.808922,259.001315 L313.819372,259.001315 C312.075372,257.661565 310.989005,255.570247 311.058038,253.219331 C311.179755,249.178295 314.675022,245.899719 318.867888,245.899719" id="Fill-69" fill="#4E4E4E"></path>
                        <path d="M311.929312,221.207648 L311.918412,221.271186 C311.182662,225.602683 307.106062,227.367232 304.480978,227.367232 C301.857712,227.367232 300.193645,224.638716 300.765895,221.271186 L300.776795,221.207648 L311.929312,221.207648 Z" id="Fill-70" fill="#4E4E4E"></path>
                        <path d="M310.731947,237.32096 C313.396997,237.32096 317.19383,238.667972 317.09573,241.973778 C316.99763,245.281401 313.120863,246.628412 310.455813,246.628412 C307.790763,246.628412 305.690697,244.544356 305.766997,241.973778 C305.843297,239.4032 308.06508,237.32096 310.731947,237.32096" id="Fill-71" fill="#4E4E4E"></path>
                        <path d="M255.22951,223.696715 C258.13981,226.561385 261.544243,228.335011 266.06956,228.249688 L266.024143,228.300519 C263.667927,228.61821 261.760427,230.400913 261.259027,232.695553 L261.25721,232.697369 C257.25146,231.105281 254.644543,228.093565 254.34661,224.557205 C254.21581,223.015948 254.786243,223.221086 255.22951,223.696715" id="Fill-72" fill="#E1BE8F"></path>
                        <path d="M285.305698,223.696715 C282.397215,226.561385 278.992782,228.335011 274.467465,228.249688 C277.065298,228.249688 279.268915,230.026945 279.917465,232.425062 C283.559882,230.776697 285.908832,227.89932 286.188598,224.557205 C286.319398,223.015948 285.750782,223.221086 285.305698,223.696715" id="Fill-73" fill="#E1BE8F"></path>
                        <path d="M286.558108,231.855396 C283.540625,230.606414 280.566742,230.860567 279.920008,232.423609 C279.269642,233.988467 281.191675,236.270399 284.209158,237.519381 C287.228458,238.768362 290.200525,238.512394 290.847258,236.949352 C291.497625,235.384494 289.575592,233.102562 286.558108,231.855396" id="Fill-74" fill="#B2B2B2"></path>
                        <path d="M266.77697,228.249325 L274.46692,228.249325 C277.57342,228.249325 280.114937,230.789041 280.114937,233.891526 L280.114937,251.778464 C280.114937,254.882763 277.57342,257.420664 274.46692,257.420664 L266.77697,257.420664 C263.67047,257.420664 261.13077,254.882763 261.13077,251.778464 L261.13077,233.891526 C261.13077,230.789041 263.67047,228.249325 266.77697,228.249325" id="Fill-75" fill="#CBCBCB"></path>
                        <path d="M266.77697,228.249325 L270.621037,228.249325 C273.727537,228.249325 276.269053,230.789041 276.269053,233.891526 L276.269053,251.778464 C276.269053,254.882763 273.727537,257.420664 270.621037,257.420664 L266.77697,257.420664 C263.67047,257.420664 261.13077,254.882763 261.13077,251.778464 L261.13077,233.891526 C261.13077,230.789041 263.67047,228.249325 266.77697,228.249325" id="Fill-76" fill="#FFFFFF"></path>
                        <path d="M266.069197,237.239449 C266.812213,237.239449 267.41353,237.842155 267.41353,238.58283 C267.41353,239.325321 266.812213,239.926211 266.069197,239.926211 C265.32618,239.926211 264.724863,239.325321 264.724863,238.58283 C264.724863,237.842155 265.32618,237.239449 266.069197,237.239449" id="Fill-77" fill="#4E4E4E"></path>
                        <path d="M275.175602,237.239449 C275.916802,237.239449 276.519935,237.842155 276.519935,238.58283 C276.519935,239.325321 275.916802,239.926211 275.175602,239.926211 C274.432585,239.926211 273.829452,239.325321 273.829452,238.58283 C273.829452,237.842155 274.432585,237.239449 275.175602,237.239449" id="Fill-78" fill="#4E4E4E"></path>
                        <path d="M261.562955,249.583669 L279.682388,249.583669 C281.226555,249.583669 282.492772,250.848989 282.492772,252.393877 L282.492772,260.559456 C282.492772,262.104344 281.226555,263.369664 279.682388,263.369664 L261.562955,263.369664 C260.015155,263.369664 258.750755,262.104344 258.750755,260.559456 L258.750755,252.393877 C258.750755,250.848989 260.015155,249.583669 261.562955,249.583669" id="Fill-79" fill="#E09393"></path>
                        <path d="M261.562955,249.585485 L275.976388,249.585485 C277.522372,249.585485 278.786772,250.848989 278.786772,252.393877 L278.786772,257.52051 C278.786772,259.067214 277.522372,260.330718 275.976388,260.330718 L261.562955,260.330718 C260.015155,260.330718 258.750755,259.067214 258.750755,257.52051 L258.750755,252.393877 C258.750755,250.848989 260.015155,249.585485 261.562955,249.585485" id="Fill-80" fill="#E6B1B1"></path>
                        <path d="M262.139565,252.696683 C262.987948,252.696683 263.674648,253.382896 263.674648,254.230679 C263.674648,255.078461 262.987948,255.762859 262.139565,255.762859 C261.291182,255.762859 260.604482,255.078461 260.604482,254.230679 C260.604482,253.382896 261.291182,252.696683 262.139565,252.696683" id="Fill-81" fill="#7D5757"></path>
                        <path d="M279.103417,252.696683 C279.9518,252.696683 280.640317,253.382896 280.640317,254.230679 C280.640317,255.078461 279.9518,255.762859 279.103417,255.762859 C278.25685,255.762859 277.57015,255.078461 277.57015,254.230679 C277.57015,253.382896 278.25685,252.696683 279.103417,252.696683" id="Fill-82" fill="#7D5757"></path>
                        <path d="M171.295513,143.72778 L217.853047,143.72778 L217.853047,147.903153 L171.295513,147.903153 C170.140113,147.903153 169.206347,146.968233 169.206347,145.815466 C169.206347,144.6627 170.140113,143.72778 171.295513,143.72778" id="Fill-83" fill="#979696"></path>
                        <path d="M171.295513,170.976268 L217.853047,170.976268 L217.853047,175.153458 L171.295513,175.153458 C170.140113,175.153458 169.206347,174.216722 169.206347,173.063955 C169.206347,171.911189 170.140113,170.976268 171.295513,170.976268" id="Fill-84" fill="#979696"></path>
                        <path d="M233.099603,170.976268 L217.85232,170.976268 L217.85232,175.153458 L233.099603,175.153458 C234.255003,175.153458 235.18877,174.216722 235.18877,173.063955 C235.18877,171.911189 234.255003,170.976268 233.099603,170.976268" id="Fill-85" fill="#656666"></path>
                        <path d="M171.295513,198.224757 L217.853047,198.224757 L217.853047,202.401946 L171.295513,202.401946 C170.140113,202.401946 169.206347,201.46521 169.206347,200.312444 C169.206347,199.159678 170.140113,198.224757 171.295513,198.224757" id="Fill-86" fill="#979696"></path>
                        <path d="M233.099603,198.224757 L217.85232,198.224757 L217.85232,202.401946 L233.099603,202.401946 C234.255003,202.401946 235.18877,201.46521 235.18877,200.312444 C235.18877,199.159678 234.255003,198.224757 233.099603,198.224757" id="Fill-87" fill="#656666"></path>
                        <path d="M171.295513,225.473065 L217.853047,225.473065 L217.853047,229.650254 L171.295513,229.650254 C170.140113,229.650254 169.206347,228.713518 169.206347,227.560751 C169.206347,226.407985 170.140113,225.473065 171.295513,225.473065" id="Fill-88" fill="#979696"></path>
                        <path d="M233.099603,225.473065 L217.85232,225.473065 L217.85232,229.650254 L233.099603,229.650254 C234.255003,229.650254 235.18877,228.713518 235.18877,227.560751 C235.18877,226.407985 234.255003,225.473065 233.099603,225.473065" id="Fill-89" fill="#656666"></path>
                        <path d="M171.295513,252.721553 L217.853047,252.721553 L217.853047,256.898742 L171.295513,256.898742 C170.140113,256.898742 169.206347,255.962006 169.206347,254.80924 C169.206347,253.656474 170.140113,252.721553 171.295513,252.721553" id="Fill-90" fill="#979696"></path>
                        <path d="M233.099603,252.721553 L217.85232,252.721553 L217.85232,256.898742 L233.099603,256.898742 C234.255003,256.898742 235.18877,255.962006 235.18877,254.80924 C235.18877,253.656474 234.255003,252.721553 233.099603,252.721553" id="Fill-91" fill="#656666"></path>
                        <polygon id="Fill-92" fill="#BF505C" points="44.45185 178.127957 59.0524 163.663011 77.0592 110.928041 138.775 74.480659 200.492617 110.928041 218.4976 163.663011 233.099967 178.127957 233.099967 279.970768 144.93895 279.970768 138.775 279.970768 132.61105 279.970768 44.45185 279.970768"></polygon>
                        <path d="M207.760192,105.018072 L138.774092,64.2773164 L69.7898083,105.018072 L51.3996917,158.876762 L27.3125083,182.738115 C26.567675,183.475159 26.562225,184.686017 27.2997917,185.430323 L30.8041417,188.963052 C31.5417083,189.707358 32.7570583,189.710989 33.500075,188.97576 L59.0533083,163.663918 L77.0601083,110.928948 L138.774092,74.4815667 L200.491708,110.928948 L218.496692,163.663918 L244.051742,188.97576 C244.794758,189.710989 246.008292,189.707358 246.745858,188.963052 L250.252025,185.430323 C250.987775,184.686017 250.984142,183.475159 250.239308,182.738115 L226.150308,158.876762 L207.760192,105.018072 Z" id="Fill-93" fill="#F2DA9C"></path>
                        <polygon id="Fill-94" fill="#3C3E4B" points="114.905817 279.970405 162.355333 279.970405 162.355333 200.765381 114.905817 200.765381"></polygon>
                        <path d="M67.7433333,279.970405 L114.905817,279.970405 L114.905817,200.765381 L67.7433333,200.765381 L67.7433333,279.970405 Z M106.645433,206.033614 L73.0189333,206.033614 L73.0189333,269.098095 L106.645433,206.033614 Z M76.0037167,274.700358 L109.63385,274.700358 L109.63385,211.635876 L76.0037167,274.700358 Z" id="Fill-95" fill="#F2DA9C"></path>
                        <path d="M162.355333,279.970405 L209.517817,279.970405 L209.517817,200.765381 L162.355333,200.765381 L162.355333,279.970405 Z M170.615717,206.033614 L204.24585,206.033614 L204.24585,269.098095 L170.615717,206.033614 Z M201.257433,274.700358 L167.629117,274.700358 L167.629117,211.635876 L201.257433,274.700358 Z" id="Fill-96" fill="#F2DA9C"></path>
                        <polygon id="Fill-97" fill="#963B46" points="57.730775 164.973533 57.730775 279.970587 60.477575 279.970587 60.477575 159.491086 59.0533083 163.662829"></polygon>
                        <polygon id="Fill-98" fill="#963B46" points="84.2871717 106.65972 84.2871717 200.765381 87.0357883 200.765381 87.0357883 105.03677"></polygon>
                        <polygon id="Fill-99" fill="#963B46" points="110.845385 90.975382 110.845385 200.765926 113.592185 200.765926 113.592185 89.3524324"></polygon>
                        <polygon id="Fill-100" fill="#963B46" points="137.4016 75.2912261 137.4016 200.764837 140.150217 200.764837 140.150217 75.2912261 138.775 74.4815667"></polygon>
                        <polygon id="Fill-101" fill="#963B46" points="163.959813 89.3533401 163.959813 200.765018 166.706613 200.765018 166.706613 90.9762897"></polygon>
                        <polygon id="Fill-102" fill="#963B46" points="190.516028 105.037496 190.516028 200.764292 193.264645 200.764292 193.264645 106.660446"></polygon>
                        <polygon id="Fill-103" fill="#963B46" points="217.074242 159.491812 217.074242 279.969498 219.821042 279.969498 219.821042 164.97426 218.496692 163.663555"></polygon>
                        <polygon id="Fill-104" fill="#3C3E4B" points="107.057817 158.062201 124.68675 158.062201 124.68675 140.244247 107.057817 140.244247"></polygon>
                        <path d="M107.057817,158.062201 L124.68675,158.062201 L124.68675,140.443939 L107.057817,140.443939 L107.057817,158.062201 Z M107.057817,136.932994 L124.68675,136.932994 L124.68675,128.02311 L107.057817,128.02311 L107.057817,136.932994 Z M99.1462333,128.02311 L99.1462333,122.753062 L132.596517,122.753062 L132.596517,128.02311 L129.958717,128.02311 L129.958717,165.966365 L124.68675,165.966365 L124.68675,163.332248 L107.057817,163.332248 L107.057817,165.966365 L101.784033,165.966365 L101.784033,128.02311 L99.1462333,128.02311 Z" id="Fill-105" fill="#F2DA9C"></path>
                        <polygon id="Fill-106" fill="#3C3E4B" points="107.057817 136.932994 124.68675 136.932994 124.68675 128.02311 107.057817 128.02311"></polygon>
                        <polygon id="Fill-107" fill="#3C3E4B" points="152.86325 158.062201 170.494 158.062201 170.494 140.244247 152.86325 140.244247"></polygon>
                        <path d="M152.86325,158.062201 L170.494,158.062201 L170.494,140.443939 L152.86325,140.443939 L152.86325,158.062201 Z M152.86325,136.932994 L170.494,136.932994 L170.494,128.02311 L152.86325,128.02311 L152.86325,136.932994 Z M144.953483,128.02311 L144.953483,122.753062 L178.40195,122.753062 L178.40195,128.02311 L175.765967,128.02311 L175.765967,165.966365 L170.494,165.966365 L170.494,163.332248 L152.86325,163.332248 L152.86325,165.966365 L147.589467,165.966365 L147.589467,128.02311 L144.953483,128.02311 Z" id="Fill-108" fill="#F2DA9C"></path>
                        <polygon id="Fill-109" fill="#3C3E4B" points="152.86325 136.932994 170.494 136.932994 170.494 128.02311 152.86325 128.02311"></polygon>
                        <polygon id="Fill-110" fill="#CBCBCB" points="53.45525 197.254437 224.096567 197.254437 224.096567 193.739861 53.45525 193.739861"></polygon>
                        <path d="M172.633307,186.977934 C175.47094,186.977934 177.77084,189.278021 177.77084,192.113644 C177.77084,194.949267 175.47094,197.247538 172.633307,197.247538 C169.795673,197.247538 167.493957,194.949267 167.493957,192.113644 C167.493957,189.278021 169.795673,186.977934 172.633307,186.977934" id="Fill-111" fill="#4E4E4E"></path>
                        <path d="M170.875137,200.7652 L170.875137,192.113099 C170.875137,191.147317 171.667203,190.357627 172.63367,190.357627 C173.59832,190.357627 174.390387,191.147317 174.390387,192.113099 L174.390387,200.7652 L170.875137,200.7652 Z" id="Fill-112" fill="#CBCBCB"></path>
                        <path d="M199.241115,186.977934 C202.078748,186.977934 204.380465,189.278021 204.380465,192.113644 C204.380465,194.949267 202.078748,197.247538 199.241115,197.247538 C196.403482,197.247538 194.103582,194.949267 194.103582,192.113644 C194.103582,189.278021 196.403482,186.977934 199.241115,186.977934" id="Fill-113" fill="#4E4E4E"></path>
                        <path d="M197.484762,200.7652 L197.484762,192.113099 C197.484762,191.147317 198.275012,190.357627 199.241478,190.357627 C200.207945,190.357627 201.000012,191.147317 201.000012,192.113099 L201.000012,200.7652 L197.484762,200.7652 Z" id="Fill-114" fill="#CBCBCB"></path>
                        <path d="M78.021125,186.977934 C80.8587583,186.977934 83.1586583,189.278021 83.1586583,192.113644 C83.1586583,194.949267 80.8587583,197.247538 78.021125,197.247538 C75.1834917,197.247538 72.8835917,194.949267 72.8835917,192.113644 C72.8835917,189.278021 75.1834917,186.977934 78.021125,186.977934" id="Fill-115" fill="#4E4E4E"></path>
                        <path d="M76.262955,200.7652 L76.262955,192.113099 C76.262955,191.147317 77.0550217,190.357627 78.0214883,190.357627 C78.987955,190.357627 79.7800217,191.147317 79.7800217,192.113099 L79.7800217,200.7652 L76.262955,200.7652 Z" id="Fill-116" fill="#CBCBCB"></path>
                        <path d="M104.63075,186.977934 C107.468383,186.977934 109.768283,189.278021 109.768283,192.113644 C109.768283,194.949267 107.468383,197.247538 104.63075,197.247538 C101.793117,197.247538 99.4932167,194.949267 99.4932167,192.113644 C99.4932167,189.278021 101.793117,186.977934 104.63075,186.977934" id="Fill-117" fill="#4E4E4E"></path>
                        <path d="M102.87258,200.7652 L102.87258,192.113099 C102.87258,191.147317 103.664647,190.357627 104.631113,190.357627 C105.59758,190.357627 106.38783,191.147317 106.38783,192.113099 L106.38783,200.7652 L102.87258,200.7652 Z" id="Fill-118" fill="#CBCBCB"></path>
                        <polygon id="Fill-119" fill="#76232C" points="138.774818 74.481022 200.492435 110.928404 204.510902 122.695696 144.953302 87.5245264 83.2393183 123.971908 65.2325183 176.708693 44.4516683 197.289655 44.4516683 178.128321 59.0522183 163.663374 77.0590183 110.928404"></polygon>
                        <path d="M114.90618,258.786374 L122.103813,258.786374 L122.103813,279.970042 L127.308563,279.970042 L127.308563,258.786374 L130.854697,258.786374 C134.731463,258.786374 137.903363,255.616721 137.903363,251.742701 L137.903363,228.035655 C137.903363,224.161634 134.731463,220.993796 130.854697,220.993796 L114.90618,220.993796 L114.90618,258.786374 Z" id="Fill-120" fill="#FFFFFF"></path>
                        <path d="M132.696797,258.540027 L132.696797,279.970587 L137.903363,279.970587 L137.903363,251.743245 C137.903363,254.980067 135.68703,257.724922 132.696797,258.540027" id="Fill-121" fill="#B2B2B2"></path>
                        <path d="M125.261543,241.760108 C122.033327,241.760108 117.433527,243.390319 117.553427,247.395047 C117.67151,251.401591 122.365777,253.031802 125.593993,253.031802 C128.82221,253.031802 131.363727,250.508424 131.272893,247.395047 C131.18206,244.283486 128.487943,241.760108 125.261543,241.760108" id="Fill-122" fill="#4E4E4E"></path>
                        <path d="M122.511655,223.482137 C125.420138,226.346807 128.826388,228.120433 133.351705,228.03511 L133.306288,228.085941 C130.950072,228.403632 129.040755,230.186335 128.539355,232.480975 L128.539355,232.482791 C124.533605,230.890703 121.926688,227.878988 121.628755,224.342628 C121.497955,222.80137 122.066572,223.006508 122.511655,223.482137" id="Fill-123" fill="#E1BE8F"></path>
                        <path d="M152.587843,223.482137 C149.67936,226.346807 146.27311,228.120433 141.747793,228.03511 C144.347443,228.03511 146.549243,229.812367 147.19961,232.210484 C150.842027,230.562119 153.18916,227.684742 153.470743,224.342628 C153.601543,222.80137 153.03111,223.006508 152.587843,223.482137" id="Fill-124" fill="#E1BE8F"></path>
                        <path d="M121.901437,231.912035 C124.91892,230.663054 127.890987,230.917207 128.539537,232.482065 C129.188087,234.046922 127.266053,236.327039 124.24857,237.576021 C121.231087,238.826817 118.25902,238.570849 117.61047,237.007807 C116.96192,235.441134 118.883953,233.161017 121.901437,231.912035" id="Fill-125" fill="#B2B2B2"></path>
                        <path d="M153.840253,231.640818 C150.820953,230.391836 147.848887,230.64599 147.202153,232.209032 C146.551787,233.773889 148.47382,236.055822 151.491303,237.304803 C154.508787,238.553784 157.48267,238.297816 158.129403,236.734774 C158.777953,235.169916 156.857737,232.887984 153.840253,231.640818" id="Fill-126" fill="#B2B2B2"></path>
                        <path d="M134.05748,228.034929 L141.74743,228.034929 C144.85393,228.034929 147.395447,230.574645 147.395447,233.677129 L147.395447,251.564067 C147.395447,254.668367 144.85393,257.206268 141.74743,257.206268 L134.05748,257.206268 C130.952797,257.206268 128.41128,254.668367 128.41128,251.564067 L128.41128,233.677129 C128.41128,230.574645 130.952797,228.034929 134.05748,228.034929" id="Fill-127" fill="#CBCBCB"></path>
                        <path d="M134.05748,228.034929 L137.903363,228.034929 C141.009863,228.034929 143.55138,230.574645 143.55138,233.677129 L143.55138,251.564067 C143.55138,254.668367 141.009863,257.206268 137.903363,257.206268 L134.05748,257.206268 C130.952797,257.206268 128.41128,254.668367 128.41128,251.564067 L128.41128,233.677129 C128.41128,230.574645 130.952797,228.034929 134.05748,228.034929" id="Fill-128" fill="#FFFFFF"></path>
                        <path d="M133.351342,237.024871 C134.092542,237.024871 134.695675,237.627577 134.695675,238.368252 C134.695675,239.110743 134.092542,239.711634 133.351342,239.711634 C132.608325,239.711634 132.007008,239.110743 132.007008,238.368252 C132.007008,237.627577 132.608325,237.024871 133.351342,237.024871" id="Fill-129" fill="#4E4E4E"></path>
                        <path d="M142.45593,237.024871 C143.198947,237.024871 143.800263,237.627577 143.800263,238.368252 C143.800263,239.110743 143.198947,239.711634 142.45593,239.711634 C141.71473,239.711634 141.111597,239.110743 141.111597,238.368252 C141.111597,237.627577 141.71473,237.024871 142.45593,237.024871" id="Fill-130" fill="#4E4E4E"></path>
                        <path d="M128.845282,249.369091 L146.962898,249.369091 C148.508882,249.369091 149.775098,250.634411 149.775098,252.179299 L149.775098,260.344878 C149.775098,261.889766 148.508882,263.155086 146.962898,263.155086 L128.845282,263.155086 C127.297482,263.155086 126.033082,261.889766 126.033082,260.344878 L126.033082,252.179299 C126.033082,250.634411 127.297482,249.369091 128.845282,249.369091" id="Fill-131" fill="#E09393"></path>
                        <path d="M128.843465,249.370907 L143.258715,249.370907 C144.804698,249.370907 146.069098,250.634411 146.069098,252.179299 L146.069098,257.305932 C146.069098,258.852636 144.804698,260.11614 143.258715,260.11614 L128.843465,260.11614 C127.297482,260.11614 126.033082,258.852636 126.033082,257.305932 L126.033082,252.179299 C126.033082,250.634411 127.297482,249.370907 128.843465,249.370907" id="Fill-132" fill="#E6B1B1"></path>
                        <path d="M129.420075,252.482286 C130.268458,252.482286 130.955158,253.1685 130.955158,254.016282 C130.955158,254.864065 130.268458,255.548463 129.420075,255.548463 C128.573508,255.548463 127.886808,254.864065 127.886808,254.016282 C127.886808,253.1685 128.573508,252.482286 129.420075,252.482286" id="Fill-133" fill="#7D5757"></path>
                        <path d="M146.385562,252.482286 C147.233945,252.482286 147.920645,253.1685 147.920645,254.016282 C147.920645,254.864065 147.233945,255.548463 146.385562,255.548463 C145.537178,255.548463 144.850478,254.864065 144.850478,254.016282 C144.850478,253.1685 145.537178,252.482286 146.385562,252.482286" id="Fill-134" fill="#7D5757"></path>
                        <path d="M485.059098,204.674257 C486.178165,204.674257 487.086498,203.766567 487.086498,202.648293 L487.086498,185.057262 C487.086498,182.782591 487.711432,180.916381 488.890448,179.660138 C489.869632,178.616295 491.186715,178.04445 492.598265,178.04445 C495.279665,178.04445 498.166348,180.239244 498.166348,185.057262 L498.166348,202.648293 C498.166348,203.766567 499.074682,204.674257 500.193748,204.674257 C501.312815,204.674257 502.219332,203.766567 502.219332,202.648293 L502.219332,185.057262 C502.219332,177.792112 497.379732,173.992522 492.598265,173.992522 C487.844048,173.992522 483.033515,177.792112 483.033515,185.057262 L483.033515,202.648293 C483.033515,203.766567 483.940032,204.674257 485.059098,204.674257" id="Fill-135" fill="#87C2BF"></path>
                        <path d="M481.514418,210.953656 L479.416168,210.953656 L479.416168,203.007739 L505.837768,203.007739 L505.837768,210.953656 L503.737702,210.953656 L512.167035,280.128706 L507.681685,280.128706 C502.420618,280.128706 495.640818,277.489144 492.626968,274.159737 C489.633102,277.51819 482.833318,280.128706 477.570435,280.128706 L473.085085,280.128706 L481.514418,210.953656 Z" id="Fill-136" fill="#EED088"></path>
                        <path d="M479.415805,210.953656 L479.415805,203.007739 L492.626605,203.007739 L492.626605,274.159737 C489.632738,277.51819 482.832955,280.128706 477.570072,280.128706 L473.086538,280.128706 L481.514055,210.953656 L479.415805,210.953656 Z" id="Fill-137" fill="#E6B579"></path>
                        <path d="M427.493473,202.828742 C428.61254,202.828742 429.519057,201.921052 429.519057,200.802778 L429.519057,192.277754 C429.519057,187.868197 431.03234,184.193868 433.891773,181.648705 C436.453273,179.372219 439.923107,178.119607 443.661807,178.119607 C450.490657,178.119607 457.839073,182.549134 457.839073,192.277754 L457.839073,200.802778 C457.839073,201.921052 458.747407,202.828742 459.866473,202.828742 C460.987357,202.828742 461.893873,201.921052 461.893873,200.802778 L461.893873,192.277754 C461.893873,180.323478 452.72334,174.067679 443.661807,174.067679 C438.927573,174.067679 434.500357,175.685182 431.197657,178.622467 C427.448057,181.95732 425.466073,186.679123 425.466073,192.277754 L425.466073,200.802778 C425.466073,201.921052 426.374407,202.828742 427.493473,202.828742" id="Fill-138" fill="#187E89"></path>
                        <path d="M32.721239,99.6416642 C38.3923009,87.9316435 47.021382,80 55.5040405,80 C66.1731833,80 73.1395226,92.5468519 72.8086637,109.383166 C76.7860098,106.240837 82.265596,104.230195 87.9099076,104.230195 C97.7892129,104.230195 104.428917,110.394103 102.736609,118 L0,118 C0,105.830845 9.43299777,95.9671889 21.0693749,95.9671889 C25.3775798,95.9671889 29.3830841,97.3207213 32.721239,99.6416642 Z" id="Fill-22" fill="#D4EEFF"></path>
                        <path d="M73.3868111,29.3020465 C79.1529111,12.3300601 90.4325945,0 101.481561,0 C112.555961,0 119.980678,12.3863369 120.398511,29.4200462 C122.671161,29.0696779 125.021928,28.8808784 127.394494,28.8808784 C140.479944,28.8808784 149.270794,34.5938789 147.029028,41.6411835 L41.8131445,41.6411835 C38.6830278,30.3640438 44.8651445,21.2254215 55.6252611,21.2254215 C61.9581611,21.2254215 68.4672778,24.3950747 73.3868111,29.3020465 Z" id="Fill-25" fill="#D4EEFF"></path>
                    </g>
                    <polygon id="Fill-140" fill="url(#linearGradient-11)" points="400.517799 281 463.517799 281 463.517799 202 400.517799 202"></polygon>
                    <g id="Group-145" transform="translate(461.517799, 201.000000)">
                        <polygon id="Fill-142" fill="#BF423C" points="0.335 78.9454631 13.295 78.9454631 13.295 0.215948295 0.335 0.215948295"></polygon>
                        <path d="M13.28375,15.5633681 C12.1175,17.8902772 9.655625,19.493663 6.809375,19.493663 C3.96125,19.493663 1.50125,17.8902772 0.335,15.5633681 L0.335,0.216675455 L13.295,0.216675455 L13.295,15.528828 L13.28375,15.5633681 Z" id="Fill-144" fill="#C6C29B"></path>
                    </g>
                    <g id="Group-148" transform="translate(399.517799, 201.000000)">
                        <mask id="mask-13" fill="white">
                            <use xlink:href="#path-12"></use>
                        </mask>
                        <g id="Clip-147"></g>
                        <path d="M0.338285714,0.213666667 L0.338285714,15.6943333 C1.47565714,18.041 3.87474286,19.6543333 6.64868571,19.6543333 L6.64868571,19.6543333 C9.42628571,19.6543333 11.8272,18.0391667 12.9627429,15.6906667 L12.9627429,15.6906667 C14.0982857,18.0391667 16.5010286,19.6543333 19.2768,19.6543333 L19.2768,19.6543333 C22.0544,19.6543333 24.4534857,18.0391667 25.5908571,15.6906667 L25.5908571,15.6906667 C26.7282286,18.0391667 29.1273143,19.6543333 31.9067429,19.6543333 L31.9067429,19.6543333 C34.6825143,19.6543333 37.0816,18.0391667 38.2171429,15.6906667 L38.2171429,15.6906667 C39.3545143,18.0391667 41.7554286,19.6543333 44.5312,19.6543333 L44.5312,19.6543333 C47.3088,19.6543333 49.7097143,18.0391667 50.8470857,15.6906667 L50.8470857,15.6906667 C51.9826286,18.0391667 54.3817143,19.6543333 57.1593143,19.6543333 L57.1593143,19.6543333 C59.9369143,19.6543333 62.3341714,18.0391667 63.4715429,15.6906667 L63.4715429,15.6906667 L63.4715429,0.213666667 L0.338285714,0.213666667 Z" id="Fill-146" fill="url(#linearGradient-14)" mask="url(#mask-13)"></path>
                    </g>
                    <polygon id="Fill-149" fill="#F5C268" points="375.517799 252 424.517799 252 424.517799 239 375.517799 239"></polygon>
                    <g id="Group-153" transform="translate(377.517799, 251.000000)">
                        <mask id="mask-16" fill="white">
                            <use xlink:href="#path-15"></use>
                        </mask>
                        <g id="Clip-152"></g>
                        <polygon id="Fill-151" fill="url(#linearGradient-17)" mask="url(#mask-16)" points="0.032384 29.941875 43.3585778 29.941875 43.3585778 0.1725 0.032384 0.1725"></polygon>
                    </g>
                    <g id="Group-156" transform="translate(395.517799, 251.000000)">
                        <mask id="mask-19" fill="white">
                            <use xlink:href="#path-18"></use>
                        </mask>
                        <g id="Clip-155"></g>
                        <polygon id="Fill-154" fill="url(#linearGradient-20)" mask="url(#mask-19)" points="0.628 29.941875 8.58833333 29.941875 8.58833333 0.1725 0.628 0.1725"></polygon>
                    </g>
                    <polygon id="Fill-157" fill="#F2EED1" points="396.517799 252 404.517799 252 404.517799 239 396.517799 239"></polygon>
                    <g id="Group-161" transform="translate(387.517799, 228.000000)">
                        <mask id="mask-22" fill="white">
                            <use xlink:href="#path-21"></use>
                        </mask>
                        <g id="Clip-160"></g>
                        <path d="M0.84875,3.38066667 C-0.35875,5.77683333 -0.235,8.24633333 1.638125,9.14466667 L1.638125,9.14466667 C3.51125,10.0448333 10.904375,11.1833333 12.108125,8.789 L12.108125,8.789 C13.31375,6.3965 7.874375,1.37316667 6.00125,0.473 L6.00125,0.473 C5.615,0.287833333 5.219375,0.201666667 4.82375,0.201666667 L4.82375,0.201666667 C3.306875,0.201666667 1.803125,1.48133333 0.84875,3.38066667" id="Fill-159" fill="url(#linearGradient-23)" mask="url(#mask-22)"></path>
                    </g>
                    <g id="Group-164" transform="translate(398.517799, 228.000000)">
                        <mask id="mask-25" fill="white">
                            <use xlink:href="#path-24"></use>
                        </mask>
                        <g id="Clip-163"></g>
                        <path d="M6.57428571,0.473 C4.719,1.37316667 -0.668571429,6.3965 0.527428571,8.789 L0.527428571,8.789 C1.71971429,11.1833333 9.04242857,10.0448333 10.8977143,9.14466667 L10.8977143,9.14466667 C12.753,8.24633333 12.8755714,5.77683333 11.6814286,3.38066667 L11.6814286,3.38066667 C10.7361429,1.48133333 9.243,0.201666667 7.74057143,0.201666667 L7.74057143,0.201666667 C7.35057143,0.201666667 6.95685714,0.287833333 6.57428571,0.473" id="Fill-162" fill="url(#linearGradient-26)" mask="url(#mask-25)"></path>
                    </g>
                    <path d="M416.519595,212 C417.625519,212 418.523185,211.100419 418.523185,209.989914 L418.523185,193.081758 C418.523185,188.702836 420.016902,185.055837 422.84455,182.526554 C425.374173,180.265884 428.803257,179.021974 432.499846,179.021974 C439.246704,179.021974 446.508823,183.420727 446.508823,193.081758 L446.508823,209.989914 C446.508823,211.100419 447.406489,212 448.512413,212 C449.620133,212 450.517799,211.100419 450.517799,209.989914 L450.517799,193.081758 C450.517799,181.210534 441.453167,175 432.499846,175 C427.819415,175 423.444191,176.604463 420.180277,179.521341 C416.476507,182.834828 414.517799,187.523826 414.517799,193.081758 L414.517799,209.989914 C414.517799,211.100419 415.41367,212 416.519595,212" id="Fill-165" fill="#2CABAE"></path>
                </g>
                <g id="Group-13" transform="translate(267.517799, 112.000000)" fill="#427E7C">
                    <path d="M18.7244578,44.1865171 C18.7159206,42.6925001 18.1823431,41.4332572 17.1208796,40.4073655 C16.0622618,39.3857424 14.285093,38.4551833 11.7737216,37.6370311 C8.2905276,36.5940649 5.74073856,35.222415 4.13858318,33.5306186 C2.53785066,31.8217477 1.73392722,29.6632489 1.72112136,27.0408933 C1.71116125,24.3658914 2.48093573,22.1718207 4.04040491,20.4487211 C5.59275974,18.7298901 7.7299155,17.7054213 10.4646781,17.371046 L10.4461807,12.0139279 L14.1001195,11.9996991 L14.1243083,17.3767375 C16.8704539,17.7438388 19.014724,18.8736003 20.5514272,20.7959022 C22.0895533,22.7167812 22.8621735,25.3490969 22.8778251,28.6928492 L18.3658938,28.7127695 C18.3559336,26.4006003 17.7967444,24.5693623 16.6997091,23.2190555 C15.5927136,21.8687487 14.1186168,21.1886152 12.2546527,21.1943067 C10.3038934,21.2042668 8.81983648,21.7150784 7.79109905,22.7253184 C6.76236163,23.7355585 6.25155009,25.1385116 6.26151021,26.9356007 C6.26862457,28.6046311 6.81500794,29.9222118 7.90919754,30.9168003 C8.99911853,31.8928914 10.7976304,32.7893016 13.2933503,33.5761506 C15.7890701,34.3857655 17.7440981,35.2622555 19.1442055,36.2312322 C20.5443129,37.1945175 21.575896,38.3200103 22.2517609,39.6034421 C22.9105512,40.8882967 23.2520408,42.3965424 23.2635406,44.1253336 C23.2748068,46.8785935 22.4538089,49.1053903 20.7990072,50.7858037 C19.1442055,52.4719086 16.8249219,53.4793029 13.8311964,53.8051409 L13.8539624,58.4707426 L10.2199439,58.4835485 L10.1971779,53.8193697 C7.15792042,53.546178 4.76891607,52.4776001 3.03443346,50.6008302 C1.30137372,48.7212145 0.429152363,46.1714254 0.417769376,42.9500402 L4.95531248,42.9315428 C4.96242684,45.1981801 5.56714802,46.9355084 6.76520737,48.1606024 C7.9646896,49.3814277 9.65933176,49.9833031 11.8505567,49.9719201 C13.993404,49.9648058 15.6809318,49.4354969 16.9017571,48.4053366 C18.1211595,47.3737534 18.7329951,45.9679545 18.7244578,44.1865171" id="Fill-104"></path>
                    <path d="M46.9117188,58.609375 C51.0960938,58.609375 54.4324219,57.2382812 56.9207031,54.4960938 C59.4089844,51.7539062 60.653125,48.0976562 60.653125,43.5273438 C60.653125,39.2210937 59.5003906,35.7070312 57.1949219,32.9851562 C54.8894531,30.2632812 51.8070313,28.9023437 47.9476563,28.9023437 C43.9054688,28.9023437 40.7164063,30.2429687 38.3804688,32.9242187 C38.7867188,28.3539062 40.2898438,24.809375 42.8898438,22.290625 C45.4898438,19.771875 48.9835938,18.471875 53.3710938,18.390625 L53.3710938,18.390625 L54.4070313,18.390625 L54.4070313,13.6070312 L53.4015625,13.6070312 C46.515625,13.7085937 41.3308594,15.9175781 37.8472656,20.2339844 C34.3636719,24.5503906 32.621875,30.7914062 32.621875,38.9570312 L32.621875,38.9570312 L32.621875,41.1203125 C32.621875,46.259375 33.9421875,50.4589844 36.5828125,53.7191406 C39.2234375,56.9792969 42.6664063,58.609375 46.9117188,58.609375 Z M46.9117188,53.9476562 C44.4539063,53.9476562 42.4023438,52.8304687 40.7570313,50.5960937 C39.1117188,48.3617187 38.2890625,45.4164062 38.2890625,41.7601562 L38.2890625,41.7601562 L38.2890625,39.6882812 C38.91875,37.9414062 40.0460938,36.4890625 41.6710938,35.33125 C43.2960938,34.1734375 45.0734375,33.5945312 47.003125,33.5945312 C49.440625,33.5945312 51.3957031,34.5339844 52.8683594,36.4128906 C54.3410156,38.2917969 55.0773438,40.7546875 55.0773438,43.8015625 C55.0773438,46.828125 54.3511719,49.2757813 52.8988281,51.1445312 C51.4464844,53.0132812 49.4507813,53.9476562 46.9117188,53.9476562 Z M81.1890625,58.609375 C85.9828125,58.609375 89.5070313,57.0046875 91.7617188,53.7953125 C94.0164063,50.5859375 95.14375,45.6804687 95.14375,39.0789062 L95.14375,39.0789062 L95.14375,31.7664062 C95.0828125,25.3882812 93.925,20.6707031 91.6703125,17.6136719 C89.415625,14.5566406 85.9015625,13.028125 81.128125,13.028125 C76.3140625,13.028125 72.7796875,14.6125 70.525,17.78125 C68.2703125,20.95 67.1429688,25.7945312 67.1429688,32.3148437 L67.1429688,32.3148437 L67.1429688,39.840625 C67.2242188,46.0765625 68.4023438,50.7636719 70.6773438,53.9019531 C72.9523438,57.0402344 76.45625,58.609375 81.1890625,58.609375 Z M81.1890625,54.0085938 C78.365625,54.0085938 76.2582031,52.8660156 74.8667969,50.5808594 C73.4753906,48.2957031 72.7796875,44.75625 72.7796875,39.9625 L72.7796875,39.9625 L72.7796875,30.94375 C72.8203125,26.434375 73.5007813,23.0929687 74.8210938,20.9195312 C76.1414063,18.7460937 78.24375,17.659375 81.128125,17.659375 C84.0328125,17.659375 86.1554688,18.7511719 87.4960938,20.9347656 C88.8367188,23.1183594 89.5070313,26.596875 89.5070313,31.3703125 L89.5070313,31.3703125 L89.5070313,40.6023437 C89.4460938,45.2335937 88.7402344,48.6257812 87.3894531,50.7789062 C86.0386719,52.9320313 83.971875,54.0085938 81.1890625,54.0085938 Z M116.228125,58.609375 C121.021875,58.609375 124.546094,57.0046875 126.800781,53.7953125 C129.055469,50.5859375 130.182813,45.6804687 130.182813,39.0789062 L130.182813,39.0789062 L130.182813,31.7664062 C130.121875,25.3882812 128.964063,20.6707031 126.709375,17.6136719 C124.454688,14.5566406 120.940625,13.028125 116.167188,13.028125 C111.353125,13.028125 107.81875,14.6125 105.564063,17.78125 C103.309375,20.95 102.182031,25.7945312 102.182031,32.3148437 L102.182031,32.3148437 L102.182031,39.840625 C102.263281,46.0765625 103.441406,50.7636719 105.716406,53.9019531 C107.991406,57.0402344 111.495313,58.609375 116.228125,58.609375 Z M116.228125,54.0085938 C113.404688,54.0085938 111.297266,52.8660156 109.905859,50.5808594 C108.514453,48.2957031 107.81875,44.75625 107.81875,39.9625 L107.81875,39.9625 L107.81875,30.94375 C107.859375,26.434375 108.539844,23.0929687 109.860156,20.9195312 C111.180469,18.7460937 113.282813,17.659375 116.167188,17.659375 C119.071875,17.659375 121.194531,18.7511719 122.535156,20.9347656 C123.875781,23.1183594 124.546094,26.596875 124.546094,31.3703125 L124.546094,31.3703125 L124.546094,40.6023437 C124.485156,45.2335937 123.779297,48.6257812 122.428516,50.7789062 C121.077734,52.9320313 119.010938,54.0085938 116.228125,54.0085938 Z" id="600" fill-rule="nonzero"></path>
                </g>
                <g id="Group-9" transform="translate(127.517799, 281.000000)">
                    <g id="Group-3" transform="translate(0.000000, 15.678218)">
                        <mask id="mask-28" fill="white">
                            <use xlink:href="#path-27"></use>
                        </mask>
                        <g id="Clip-2"></g>
                        <path d="M286.161551,48.9995545 L12.0243832,48.9995545 C5.38309124,48.9995545 0,43.5059864 0,36.7283955 L0,12.5402136 C0,5.76262273 5.38309124,0.269054545 12.0243832,0.269054545 L286.161551,0.269054545 C292.801752,0.269054545 298.185934,5.76262273 298.185934,12.5402136 L298.185934,36.7283955 C298.185934,43.5059864 292.801752,48.9995545 286.161551,48.9995545" id="Fill-1" fill="#D0D2D3" mask="url(#mask-28)"></path>
                    </g>
                    <g id="Group-6" transform="translate(0.000000, 11.678218)">
                        <mask id="mask-30" fill="white">
                            <use xlink:href="#path-29"></use>
                        </mask>
                        <g id="Clip-5"></g>
                        <path d="M286.161551,49.3203333 L12.0243832,49.3203333 C5.38309124,49.3203333 0,43.8392222 0,37.077 L0,12.9436667 C0,6.18144444 5.38309124,0.700333333 12.0243832,0.700333333 L286.161551,0.700333333 C292.801752,0.700333333 298.185934,6.18144444 298.185934,12.9436667 L298.185934,37.077 C298.185934,43.8392222 292.801752,49.3203333 286.161551,49.3203333" id="Fill-4" fill="#FFFFFF" mask="url(#mask-30)"></path>
                    </g>
                    <polygon id="Fill-7" fill="#FFFFFF" points="161 12.1787629 149.499455 23.6782178 138 12.1787629 149.499455 0.678217822"></polygon>
                </g>
                <g id="Group-18" transform="translate(142.517799, 302.000000)" fill="#0E6DA0" fill-rule="nonzero">
                    <path d="M29.168,13.792 L29.168,6.376 L23.864,6.376 L23.864,5.344 L21.608,5.344 L21.608,6.376 L18.488,6.376 L18.488,5.344 L16.232,5.344 L16.232,6.376 L10.976,6.376 L10.976,13.792 L29.168,13.792 Z M16.232,9.208 L13.28,9.208 L13.28,8.248 L16.232,8.248 L16.232,9.208 Z M21.608,9.208 L18.488,9.208 L18.488,8.248 L21.608,8.248 L21.608,9.208 Z M26.864,9.208 L23.864,9.208 L23.864,8.248 L26.864,8.248 L26.864,9.208 Z M26.864,11.896 L23.864,11.896 L23.864,10.96 L26.864,10.96 L26.864,11.896 Z M21.608,11.896 L18.488,11.896 L18.488,10.96 L21.608,10.96 L21.608,11.896 Z M16.232,11.896 L13.28,11.896 L13.28,10.96 L16.232,10.96 L16.232,11.896 Z M10.64,27.64 C11.792,26.008 12.56,24.04 12.968,21.688 L14.912,21.688 L14.912,24.496 C14.912,25.024 14.624,25.384 14.048,25.6 L14.648,27.496 C17.432,27.064 19.856,26.608 21.896,26.08 L21.488,23.896 C20.288,24.256 18.872,24.592 17.264,24.904 L17.264,21.688 L22.472,21.688 L20.864,22.6 C22.664,25 25.664,26.656 29.888,27.568 L31.232,25.6 C29.648,25.312 28.256,24.952 27.032,24.496 C27.704,23.944 28.352,23.32 28.976,22.648 L27.104,21.688 L30.44,21.688 L30.44,19.672 L13.208,19.672 L13.28,18.256 L13.28,16.408 L30.152,16.408 L30.152,14.488 L10.832,14.488 L10.832,18.256 C10.76,21.544 10.064,24.112 8.768,25.936 L10.64,27.64 Z M28.712,18.904 L28.712,17.128 L14.504,17.128 L14.504,18.904 L28.712,18.904 Z M25.064,23.56 C24.152,23.008 23.408,22.384 22.832,21.688 L26.768,21.688 C26.264,22.336 25.688,22.96 25.064,23.56 Z M52.24,23.752 C53.656,23.752 54.376,23.032 54.376,21.616 L54.376,18.424 L56.872,18.424 L56.872,16.264 L54.376,16.264 L54.376,15.472 C55.072,14.824 55.72,14.152 56.344,13.456 L56.344,11.32 L50.368,11.32 C50.656,10.912 50.92,10.456 51.184,9.952 L56.776,9.952 L56.776,7.648 L52.096,7.648 C52.288,7.024 52.456,6.328 52.6,5.608 L50.296,5.2 C49.96,7 49.408,8.56 48.616,9.88 L48.616,8.104 L46.672,8.104 C46.456,7.216 46.144,6.256 45.736,5.224 L43.384,5.848 C43.672,6.568 43.96,7.336 44.224,8.104 L41.488,8.104 L41.488,10.408 L43,10.408 L43,11.416 C42.976,16.216 42.232,19.72 40.744,21.88 L42.472,23.392 C43.888,21.424 44.776,18.568 45.112,14.8 L46.408,14.8 C46.36,18.376 46.288,20.464 46.168,21.064 C46.048,21.352 45.664,21.52 45.04,21.52 C44.728,21.52 44.368,21.472 43.936,21.4 L44.488,23.488 C44.92,23.536 45.208,23.584 45.4,23.584 C47.104,23.584 48.064,23.08 48.28,22.096 C48.472,20.92 48.592,17.776 48.592,12.688 L45.232,12.688 C45.232,12.28 45.256,11.848 45.256,11.416 L45.256,10.408 L48.256,10.408 L47.8,10.984 L47.8,10.984 L49.216,12.76 C49.576,12.376 49.912,11.968 50.248,11.512 L50.248,13.456 L53.728,13.456 C53.296,13.936 52.744,14.536 52.072,15.232 L52.072,16.264 L49.264,16.264 L49.264,18.424 L52.072,18.424 L52.072,20.824 C52.072,21.352 51.856,21.616 51.424,21.616 C50.896,21.616 50.416,21.592 49.984,21.544 L50.56,23.752 L52.24,23.752 Z M39.256,10.408 L40.864,8.8 C39.88,7.648 38.68,6.52 37.24,5.392 L35.608,6.928 C37.168,8.176 38.392,9.352 39.256,10.408 Z M36.664,27.496 C37.696,25.432 38.44,24.4 38.896,24.4 C39.088,24.4 39.28,24.472 39.448,24.64 C40.264,25.456 41.152,26.08 42.16,26.464 C42.976,26.776 44.2,26.968 45.832,27.016 C47.44,27.064 49.048,27.112 50.68,27.112 L56.56,27.112 L57.136,24.76 C54.352,24.856 52.12,24.928 50.392,24.928 C48.712,24.928 47.224,24.904 45.928,24.904 C44.632,24.856 43.648,24.712 42.952,24.448 C42.28,24.16 41.584,23.656 40.816,22.96 C40.624,22.792 40.432,22.624 40.24,22.48 C40.624,21.376 40.96,19.96 41.248,18.232 L41.248,16.6 L38.536,16.6 C39.496,15.4 40.312,14.224 41.008,13.024 L41.008,11.08 L35.248,11.08 L35.248,13.336 L38.296,13.336 C37.576,14.416 36.688,15.568 35.632,16.816 L35.632,18.688 L38.92,18.688 C38.68,19.936 38.368,21.088 37.96,22.168 C36.952,22.576 35.92,23.8 34.864,25.816 L36.664,27.496 Z M64.464,27.544 C66.48,26.536 68.016,25.432 69.072,24.184 C69.84,23.176 70.464,21.832 70.944,20.176 L76.176,20.176 C76.08,22.216 75.912,23.56 75.624,24.184 C75.36,24.784 74.808,25.096 73.944,25.096 C72.888,25.096 71.76,25.048 70.56,24.976 L71.208,27.328 L75.144,27.328 C76.104,27.28 76.824,26.968 77.28,26.44 C77.712,25.864 78.048,24.88 78.24,23.488 C78.384,22.288 78.48,20.752 78.576,18.928 C79.44,19.624 80.448,20.32 81.6,20.992 L83.232,18.952 C80.832,17.896 79.056,16.696 77.904,15.352 L82.416,15.352 L82.416,13.096 L70.944,13.096 C71.304,12.472 71.64,11.8 71.928,11.128 L81.096,11.128 L81.096,8.92 L77.904,8.92 C78.576,8.032 79.128,7.024 79.608,5.872 L77.52,5.104 C77.064,6.352 76.464,7.432 75.744,8.392 L76.68,8.92 L72.744,8.92 C73.104,7.792 73.392,6.616 73.608,5.368 L71.112,5.056 C70.896,6.4 70.584,7.696 70.2,8.92 L67.248,8.92 L68.424,8.392 C67.944,7.24 67.416,6.184 66.792,5.2 L64.632,5.92 C65.208,6.784 65.736,7.792 66.24,8.92 L62.904,8.92 L62.904,11.128 L69.288,11.128 C68.952,11.8 68.568,12.472 68.16,13.096 L61.584,13.096 L61.584,15.352 L66.288,15.352 C64.8,16.864 62.952,18.088 60.744,19.024 L62.136,21.136 C63.432,20.512 64.632,19.768 65.76,18.928 L65.76,20.176 L68.616,20.176 C68.208,21.328 67.656,22.288 66.984,23.008 C66.048,23.92 64.68,24.76 62.904,25.528 L64.464,27.544 Z M77.376,17.872 L67.08,17.872 C67.92,17.104 68.712,16.264 69.432,15.352 L75.288,15.352 C75.816,16.216 76.512,17.056 77.376,17.872 Z M87.968,15.64 C89.264,14.92 90.488,14.152 91.64,13.36 L91.64,15.04 L104.36,15.04 L104.36,13.384 C105.464,14.176 106.664,14.92 107.936,15.592 L109.304,13.168 C105.368,11.248 101.912,8.584 98.912,5.224 L97.088,5.224 C94.304,8.392 90.824,11.056 86.624,13.192 L87.968,15.64 Z M103.304,12.616 L92.672,12.616 C94.712,11.08 96.488,9.376 98,7.504 C99.56,9.4 101.336,11.104 103.304,12.616 Z M92.504,27.472 L92.504,26.248 L103.496,26.248 L103.496,27.472 L105.92,27.472 L105.92,17.392 L90.08,17.392 L90.08,27.472 L92.504,27.472 Z M103.496,23.872 L92.504,23.872 L92.504,19.744 L103.496,19.744 L103.496,23.872 Z M127.192,27.568 L127.192,22.216 L133.816,22.216 L133.816,19.792 L127.192,19.792 L127.192,16.504 L133.816,16.504 L133.816,14.056 L127.192,14.056 L127.192,10.864 L134.728,10.864 L134.728,8.392 L125.056,8.392 C125.392,7.504 125.728,6.592 126.064,5.632 L123.52,5.056 C122.08,9.184 120.4,12.352 118.48,14.608 L120.28,16.768 C121.624,15.136 122.848,13.168 123.952,10.864 L124.648,10.864 L124.648,27.568 L127.192,27.568 Z M118.096,27.568 L118.096,11.416 C119.056,9.784 119.848,8.056 120.448,6.256 L118.072,5.152 C116.896,8.752 115.096,11.896 112.672,14.56 L113.512,17.248 C114.232,16.528 114.904,15.784 115.552,15.016 L115.552,27.568 L118.096,27.568 Z M156.552,27.256 C158.616,27.256 159.768,26.416 160.008,24.736 C160.248,22.768 160.368,17.584 160.368,9.184 L153.072,9.184 C153.432,8.032 153.744,6.808 153.984,5.512 L151.512,5.2 C150.936,8.488 149.88,11.272 148.296,13.528 L149.808,15.52 C150.696,14.368 151.464,13.072 152.112,11.632 L157.92,11.632 C157.872,18.424 157.8,22.384 157.656,23.536 C157.512,24.472 157.008,24.952 156.144,24.952 C155.352,24.952 154.416,24.904 153.36,24.832 L153.96,27.112 C155.208,27.208 156.072,27.256 156.552,27.256 Z M142.056,26.704 L142.056,24.808 L145.608,24.808 L145.608,26.008 L148.008,26.008 L148.008,9.184 L144.36,9.184 C144.792,8.08 145.152,6.856 145.416,5.56 L142.896,5.224 C142.704,6.592 142.392,7.912 141.96,9.184 L139.656,9.184 L139.656,26.704 L142.056,26.704 Z M145.608,15.736 L142.056,15.736 L142.056,11.536 L145.608,11.536 L145.608,15.736 Z M153.912,21.544 L155.928,20.152 C155.088,18.664 153.912,16.96 152.376,15.016 L150.336,16.288 C151.824,18.208 153.024,19.96 153.912,21.544 Z M145.608,22.504 L142.056,22.504 L142.056,17.968 L145.608,17.968 L145.608,22.504 Z M170.84,27.496 L170.84,15.856 C171.344,16.576 171.944,17.488 172.616,18.568 L173.96,16.552 C172.928,15.304 171.896,14.152 170.84,13.096 L170.84,12.112 L173.648,12.112 L173.648,9.736 L170.84,9.736 L170.84,5.296 L168.368,5.296 L168.368,9.736 L165.272,9.736 L165.272,12.112 L168.32,12.112 C167.552,14.8 166.376,17.2 164.744,19.264 L165.728,21.76 C166.736,20.224 167.624,18.52 168.368,16.672 L168.368,27.496 L170.84,27.496 Z M176.888,27.52 L176.888,26.176 L183.776,26.176 L183.776,27.496 L186.224,27.496 L186.224,6.544 L174.512,6.544 L174.512,27.52 L176.888,27.52 Z M183.776,12.256 L176.888,12.256 L176.888,8.872 L183.776,8.872 L183.776,12.256 Z M183.776,18.112 L176.888,18.112 L176.888,14.56 L183.776,14.56 L183.776,18.112 Z M183.776,23.848 L176.888,23.848 L176.888,20.416 L183.776,20.416 L183.776,23.848 Z M194.224,27.52 L194.224,12.76 L197.536,12.76 C196.504,14.176 195.688,15.016 195.088,15.304 L195.448,16.792 C196.192,16.744 196.984,16.672 197.848,16.6 C196.84,17.584 195.976,18.208 195.304,18.496 L195.664,19.936 C197.128,19.792 198.712,19.6 200.44,19.36 L200.584,20.056 L202.12,19.672 C201.832,18.496 201.544,17.464 201.256,16.576 L199.768,17.056 C199.864,17.344 199.984,17.656 200.08,17.992 C199.36,18.088 198.712,18.184 198.088,18.28 C199.144,17.512 200.44,16.264 201.976,14.536 L200.32,13.864 C199.936,14.296 199.576,14.728 199.216,15.136 L197.392,15.304 C197.968,14.8 198.712,13.96 199.624,12.76 L201.304,12.76 L201.304,6.016 L191.92,6.016 L191.92,27.52 L194.224,27.52 Z M209.848,27.424 C211.336,27.424 212.08,26.68 212.08,25.216 L212.08,6.016 L202.648,6.016 L202.648,12.784 L204.544,12.784 C203.536,14.176 202.72,15.016 202.12,15.304 L202.48,16.768 C203.224,16.72 204.04,16.648 204.904,16.576 C203.872,17.584 203.008,18.208 202.336,18.472 L202.696,19.936 C204.184,19.792 205.792,19.6 207.544,19.36 C207.592,19.6 207.664,19.888 207.736,20.176 L209.272,19.792 C208.96,18.568 208.624,17.488 208.288,16.576 L206.8,17.056 C206.896,17.344 207.016,17.656 207.136,17.992 L205.144,18.256 C206.176,17.512 207.472,16.264 209.008,14.536 L207.352,13.864 C206.968,14.296 206.608,14.728 206.272,15.112 C205.6,15.16 205,15.208 204.448,15.256 C205.024,14.776 205.768,13.936 206.632,12.784 L209.776,12.784 L209.776,24.496 C209.776,25.072 209.512,25.36 209.032,25.36 C208.288,25.36 207.496,25.312 206.632,25.264 L207.208,27.352 C208.072,27.4 208.936,27.424 209.848,27.424 Z M199.048,8.632 L194.224,8.632 L194.224,7.768 L199.048,7.768 L199.048,8.632 Z M209.776,8.656 L204.904,8.656 L204.904,7.816 L209.776,7.816 L209.776,8.656 Z M199.048,11.032 L194.224,11.032 L194.224,10.12 L199.048,10.12 L199.048,11.032 Z M209.776,11.056 L204.904,11.056 L204.904,10.144 L209.776,10.144 L209.776,11.056 Z M204.76,27.184 L204.76,24.088 L208.24,24.088 L208.24,20.464 L206.248,20.464 L206.248,22.408 L204.76,22.408 L204.76,20.152 L202.6,20.152 L202.6,27.184 L204.76,27.184 Z M196.744,27.208 C198.424,26.776 199.624,26.176 200.368,25.408 C201.112,24.544 201.52,23.416 201.592,22.024 L201.592,20.176 L199.576,20.176 L199.576,22.024 C199.576,22.144 199.552,22.264 199.528,22.408 L198.016,22.408 L198.016,20.416 L196.024,20.416 L196.024,24.088 L198.76,24.088 C198.76,24.088 198.736,24.112 198.712,24.16 C198.16,24.64 197.128,25.072 195.616,25.432 L196.744,27.208 Z M229.272,27.568 L229.272,21.64 L238.536,21.64 L238.536,19.432 L229.272,19.432 L229.272,18.28 L236.328,18.28 L236.328,16.216 L229.272,16.216 L229.272,15.064 L237.456,15.064 L237.456,12.904 L232.848,12.904 C233.184,12.472 233.52,11.992 233.808,11.488 L232.104,10.888 L238.56,10.888 L238.56,8.704 L235.32,8.704 C235.8,8.08 236.28,7.336 236.76,6.472 L234.432,5.584 C233.952,6.688 233.4,7.72 232.776,8.704 L231.264,8.704 L231.264,5.296 L228.816,5.296 L228.816,8.704 L227.064,8.704 L227.064,5.296 L224.616,5.296 L224.616,8.704 L223.152,8.704 C222.72,7.504 222.24,6.472 221.712,5.608 L219.384,6.496 C219.888,7.168 220.344,7.912 220.728,8.704 L217.44,8.704 L217.44,10.888 L223.656,10.888 L222.216,11.44 C222.576,11.896 222.888,12.376 223.176,12.904 L218.544,12.904 L218.544,15.064 L226.728,15.064 L226.728,16.216 L219.672,16.216 L219.672,18.28 L226.728,18.28 L226.728,19.432 L217.464,19.432 L217.464,21.64 L226.728,21.64 L226.728,27.568 L229.272,27.568 Z M230.04,12.904 L225.816,12.904 C225.504,12.184 225.144,11.512 224.76,10.888 L231.288,10.888 C230.928,11.584 230.52,12.256 230.04,12.904 Z M219.192,27.232 C221.352,26.128 223.152,24.832 224.616,23.368 L222.96,21.904 C221.52,23.176 219.744,24.28 217.632,25.216 L219.192,27.232 Z M236.52,27.232 L238.32,25.432 C236.904,24.28 235.176,23.128 233.136,21.952 L231.504,23.512 C233.664,24.832 235.344,26.08 236.52,27.232 Z M250.088,27.568 L250.088,26.704 L259.448,26.704 L259.448,27.568 L261.968,27.568 L261.968,16.336 L254.216,16.336 C255.224,15.808 256.136,15.328 256.952,14.848 L257.744,14.344 L264.848,14.344 L264.848,11.992 L260.84,11.992 C262.136,10.84 263.384,9.568 264.536,8.152 L262.64,6.76 C261.08,8.68 259.184,10.408 256.976,11.992 L254.24,11.992 L254.24,9.856 L259.4,9.856 L259.4,7.528 L254.24,7.528 L254.24,5.248 L251.696,5.248 L251.696,7.528 L245.192,7.528 L245.192,9.856 L251.696,9.856 L251.696,11.992 L243.272,11.992 L243.272,14.344 L253.16,14.344 C249.944,16.072 246.512,17.368 242.888,18.208 L243.944,20.536 C245.192,20.08 246.392,19.648 247.544,19.216 L247.544,27.568 L250.088,27.568 Z M259.448,20.368 L250.088,20.368 L250.088,18.496 L259.448,18.496 L259.448,20.368 Z M259.448,24.496 L250.088,24.496 L250.088,22.528 L259.448,22.528 L259.448,24.496 Z" id="農遊券合作的相關業者"></path>
                </g>
            </g>
        </g>
    </g>
</svg>