<?xml version="1.0" encoding="UTF-8"?>
<svg width="273px" height="263px" viewBox="0 0 273 263" version="1.1" xmlns="http://www.w3.org/2000/svg" xmlns:xlink="http://www.w3.org/1999/xlink">
    <!-- Generator: Sketch 61.1 (89650) - https://sketch.com -->
    <title>Group 20 outline</title>
    <desc>Created with Sketch.</desc>
    <defs>
        <polygon id="path-1" points="0.0005 0.074 273 0.074 273 129 0.0005 129"></polygon>
        <polygon id="path-3" points="0.2823 0.3553 248.7173 0.3553 248.7173 117 0.2823 117"></polygon>
        <polygon id="path-5" points="0 262.841 273 262.841 273 0 0 0"></polygon>
    </defs>
    <g id="懶人包" stroke="none" stroke-width="1" fill="none" fill-rule="evenodd">
        <g id="小資振興_懶人包_農遊券" transform="translate(-453.000000, -844.000000)">
            <g id="Group-20-outline" transform="translate(453.000000, 844.000000)">
                <g id="Group-8">
                    <g id="Group-106">
                        <path d="M214.6977,128.8525 L214.6977,149.0055 C212.0487,152.0855 209.1697,154.9645 206.0887,157.6175 C206.0657,157.6365 206.0427,157.6575 206.0187,157.6775 C202.8867,160.3665 199.5447,162.8255 196.0237,165.0235 C195.2047,165.5355 194.3737,166.0325 193.5337,166.5155 C193.5307,166.5185 193.5277,166.5185 193.5217,166.5215 C191.9687,167.4155 190.3837,168.2615 188.7667,169.0525 L188.7637,169.0525 C182.1857,172.2765 175.1127,174.6345 167.6857,175.9875 C165.8137,176.3295 163.9217,176.6055 162.0057,176.8155 C161.2657,176.8955 160.5267,176.9675 159.7827,177.0285 C157.6047,177.2085 155.4017,177.3015 153.1777,177.3065 L152.8277,177.3065 C150.6187,177.3015 148.4287,177.2085 146.2657,177.0315 C146.2577,177.0315 146.2467,177.0315 146.2347,177.0285 C145.4897,176.9675 144.7507,176.8955 144.0107,176.8155 C142.0727,176.6025 140.1567,176.3235 138.2607,175.9755 C130.8577,174.6215 123.8047,172.2655 117.2497,169.0525 C115.6307,168.2585 114.0397,167.4135 112.4837,166.5185 C111.6437,166.0325 110.8117,165.5355 109.9927,165.0235 C106.4457,162.8115 103.0837,160.3315 99.9277,157.6175 C96.8477,154.9645 93.9687,152.0855 91.3197,149.0055 L91.3197,126.4975 C91.3197,120.5605 93.2187,115.0705 96.4387,110.5915 C101.3887,103.7145 109.4667,99.2335 118.5877,99.2335 L187.4217,99.2335 C188.7697,99.2335 190.0957,99.3315 191.3927,99.5215 C198.8657,100.6115 205.3547,104.7335 209.5717,110.6005 C212.7907,115.0735 214.6827,120.5635 214.6827,126.4975 L214.6827,128.8525 L214.6977,128.8525 Z" id="Fill-1" fill="#6BA997"></path>
                        <path d="M112.4838,133.914 L112.4838,166.518 C111.6438,166.032 110.8118,165.535 109.9928,165.023 C106.4458,162.811 103.0838,160.332 99.9278,157.617 C96.8478,154.965 93.9678,152.086 91.3198,149.006 L91.3198,133.914 L112.4838,133.914 Z" id="Fill-3" fill="#FFFFFF"></path>
                        <path d="M214.6977,133.914 L214.6977,149.006 C212.0487,152.086 209.1697,154.965 206.0887,157.617 C206.0657,157.637 206.0427,157.657 206.0187,157.678 C202.8867,160.366 199.5447,162.825 196.0237,165.023 C195.2047,165.535 194.3737,166.032 193.5337,166.516 L193.5337,133.914 L214.6977,133.914 Z" id="Fill-5" fill="#FFFFFF"></path>
                        <path d="M118.3637,63.7998 L118.3637,63.7998 C115.1427,63.7998 112.5327,61.1888 112.5327,57.9688 L112.5327,49.0798 C112.5327,45.8598 115.1427,43.2488 118.3637,43.2488 C121.5847,43.2488 124.1947,45.8598 124.1947,49.0798 L124.1947,57.9688 C124.1947,61.1888 121.5847,63.7998 118.3637,63.7998" id="Fill-7" fill="#FFFFFF"></path>
                        <path d="M118.3637,61.0527 L118.3637,61.0527 C115.1427,61.0527 112.5327,58.4427 112.5327,55.2217 L112.5327,57.9687 C112.5327,61.1897 115.1427,63.7997 118.3637,63.7997 C121.5847,63.7997 124.1947,61.1897 124.1947,57.9687 L124.1947,55.2217 C124.1947,58.4427 121.5847,61.0527 118.3637,61.0527" id="Fill-9" fill="#D0D2D3"></path>
                        <path d="M187.6538,63.7998 L187.6528,63.7998 C184.4328,63.7998 181.8218,61.1888 181.8218,57.9688 L181.8218,49.0798 C181.8218,45.8598 184.4328,43.2488 187.6528,43.2488 L187.6538,43.2488 C190.8738,43.2488 193.4848,45.8598 193.4848,49.0798 L193.4848,57.9688 C193.4848,61.1888 190.8738,63.7998 187.6538,63.7998" id="Fill-11" fill="#FFFFFF"></path>
                        <path d="M187.6538,61.0527 L187.6538,61.0527 C184.4328,61.0527 181.8218,58.4427 181.8218,55.2217 L181.8218,57.9687 C181.8218,61.1897 184.4328,63.7997 187.6538,63.7997 C190.8738,63.7997 193.4848,61.1897 193.4848,57.9687 L193.4848,55.2217 C193.4848,58.4427 190.8738,61.0527 187.6538,61.0527" id="Fill-13" fill="#D0D2D3"></path>
                        <path d="M139.4379,80.8066 L139.4379,99.2336 L139.4279,99.2336 L139.4309,99.2366 C146.2629,108.1956 159.7489,108.1936 166.5789,99.2336 L166.5799,99.2336 L166.5799,80.8066 L139.4379,80.8066 Z" id="Fill-15" fill="#FFFFFF"></path>
                        <path d="M118.8725,40.9277 C120.0015,35.1287 122.5705,29.8447 126.1975,25.4657 C127.2445,24.1957 128.3835,23.0057 129.6015,21.8977 C135.7795,16.2677 143.9925,12.8407 153.0085,12.8407 C153.4085,12.8407 153.8115,12.8477 154.2115,12.8647 C154.3475,12.8647 154.4825,12.8707 154.6145,12.8777 C163.5835,13.2847 171.6605,17.0837 177.6055,23.0297 C182.9005,28.3237 186.4965,35.3227 187.5035,43.1307 C187.6925,44.6017 187.7915,46.0997 187.7915,47.6217 L187.7915,54.5087 C187.7915,73.7197 172.2205,89.2897 153.0085,89.2897 C133.8005,89.2897 118.2255,73.7197 118.2255,54.5087 L118.2255,47.6217 C118.2255,46.1447 118.3165,44.6907 118.4965,43.2637 L118.8725,40.9277 Z" id="Fill-17" fill="#FFFFFF"></path>
                        <path d="M153.0083,83.7959 C133.8003,83.7959 118.2253,68.2259 118.2253,49.0159 L118.2253,54.5089 C118.2253,73.7199 133.8003,89.2899 153.0083,89.2899 C172.2203,89.2899 187.7913,73.7199 187.7913,54.5089 L187.7913,49.0159 C187.7913,68.2259 172.2203,83.7959 153.0083,83.7959" id="Fill-19" fill="#D0D2D3"></path>
                        <path d="M118.8725,40.9277 L122.1945,40.9277 L122.1945,57.5967 C122.1945,58.6837 121.3545,59.6297 120.2685,59.6597 C119.1435,59.6907 118.2255,58.7907 118.2255,57.6777 L118.2255,45.6867 C118.2255,44.0777 118.4425,42.4777 118.8725,40.9277" id="Fill-21" fill="#4B6084"></path>
                        <path d="M187.7915,45.4267 L187.7915,57.6077 C187.7915,58.6157 187.0665,59.5167 186.0655,59.6437 C184.8545,59.7977 183.8225,58.8587 183.8225,57.6777 L183.8225,40.9277 L187.1465,40.9277 C187.5745,42.3897 187.7915,43.9047 187.7915,45.4267" id="Fill-23" fill="#4B6084"></path>
                        <path d="M154.2114,12.8652 C150.6934,18.3552 141.9724,30.2242 127.8484,38.5722 C124.4484,40.5792 121.3264,42.1102 118.4964,43.2632 C118.4994,43.2602 118.4994,43.2532 118.4994,43.2502 C119.3404,36.5392 122.0934,30.4212 126.1974,25.4662 C127.2444,24.1952 128.3834,23.0062 129.6014,21.8972 C135.7794,16.2672 143.9924,12.8412 153.0084,12.8412 C153.4084,12.8412 153.8124,12.8472 154.2114,12.8652" id="Fill-25" fill="#4B6084"></path>
                        <path d="M187.5034,43.1308 C182.7684,44.5648 173.4374,45.9168 158.6174,42.0428 C143.6334,38.1288 132.2614,30.3628 126.1974,25.4658 C127.2444,24.1948 128.3834,23.0058 129.6014,21.8978 C135.7794,16.2678 143.9924,12.8408 153.0084,12.8408 C153.5444,12.8408 154.0824,12.8518 154.6144,12.8778 C163.5834,13.2848 171.6604,17.0838 177.6064,23.0288 C182.9004,28.3228 186.4964,35.3218 187.5034,43.1308" id="Fill-27" fill="#808F91"></path>
                        <path d="M158.6176,21.707 C152.0556,19.993 146.1876,17.541 141.1536,14.914 C136.8416,16.477 132.9266,18.867 129.6006,21.897 C128.3836,23.006 127.2446,24.195 126.1976,25.466 C132.2616,30.363 143.6336,38.129 158.6176,42.043 C173.4366,45.917 182.7676,44.564 187.5036,43.131 C186.5686,35.88 183.3986,29.33 178.7126,24.192 C173.6736,24.421 167.0316,23.906 158.6176,21.707" id="Fill-29" fill="#4B6084"></path>
                        <path d="M158.6176,28.4863 C149.0376,25.9833 140.9366,21.9073 134.7536,18.0113 C132.9156,19.1473 131.1896,20.4493 129.6006,21.8973 C128.3836,23.0063 127.2446,24.1953 126.1976,25.4653 C132.2616,30.3633 143.6336,38.1293 158.6176,42.0433 C173.4366,45.9173 182.7676,44.5643 187.5036,43.1313 C186.9186,38.5933 185.4546,34.3333 183.2956,30.5183 C177.9816,31.3543 169.8886,31.4323 158.6176,28.4863" id="Fill-31" fill="#808F91"></path>
                        <path d="M158.6176,35.2646 C146.3246,32.0526 136.4666,26.2506 129.9716,21.5666 C129.8476,21.6756 129.7226,21.7856 129.6006,21.8976 C128.3836,23.0056 127.2446,24.1956 126.1976,25.4656 C132.2616,30.3636 143.6336,38.1286 158.6176,42.0426 C173.4366,45.9166 182.7676,44.5646 187.5036,43.1306 C187.2206,40.9316 186.7236,38.7996 186.0506,36.7486 C180.9706,37.9936 172.0476,38.7756 158.6176,35.2646" id="Fill-33" fill="#4B6084"></path>
                        <path d="M153.0083,66.0293 L153.0083,66.0293 C150.8863,66.0293 149.1663,64.3093 149.1663,62.1873 L149.1663,57.1333 C149.1663,55.0113 150.8863,53.2923 153.0083,53.2923 C155.1303,53.2923 156.8503,55.0113 156.8503,57.1333 L156.8503,62.1873 C156.8503,64.3093 155.1303,66.0293 153.0083,66.0293" id="Fill-35" fill="#A62873"></path>
                        <path d="M139.7895,50.2939 C139.7895,51.9169 138.4745,53.2319 136.8515,53.2319 C135.2295,53.2319 133.9145,51.9169 133.9145,50.2939 C133.9145,48.6719 135.2295,47.3559 136.8515,47.3559 C138.4745,47.3559 139.7895,48.6719 139.7895,50.2939" id="Fill-37" fill="#A62873"></path>
                        <path d="M172.103,50.2939 C172.103,51.9169 170.788,53.2319 169.165,53.2319 C167.542,53.2319 166.228,51.9169 166.228,50.2939 C166.228,48.6719 167.542,47.3559 169.165,47.3559 C170.788,47.3559 172.103,48.6719 172.103,50.2939" id="Fill-39" fill="#A62873"></path>
                        <path d="M153.0083,76.3154 C149.2553,76.3154 145.7243,74.8514 143.0673,72.1944 C142.7173,71.8434 142.7173,71.2774 143.0673,70.9264 C143.4163,70.5774 143.9853,70.5774 144.3343,70.9264 C146.6533,73.2464 149.7343,74.5234 153.0083,74.5234 C156.2823,74.5234 159.3633,73.2464 161.6833,70.9264 C162.0323,70.5774 162.6003,70.5774 162.9493,70.9264 C163.2993,71.2774 163.2993,71.8434 162.9493,72.1944 C160.2923,74.8514 156.7623,76.3154 153.0083,76.3154" id="Fill-41" fill="#A62873"></path>
                        <polygon id="Fill-43" fill="#F23E23" points="153.0083 173.248 152.9923 173.266 152.9983 173.285 153.0093 173.249"></polygon>
                        <path d="M183.4838,111.6758 C183.9818,115.1708 183.2628,112.3448 183.4828,111.6728 C178.9998,106.4098 173.2838,102.3428 166.5788,99.2338 L166.5788,99.2348 C159.7478,108.1938 146.2628,108.1948 139.4308,99.2368 L139.4288,99.2348 C125.2948,105.7888 115.5448,116.6008 112.4838,133.9138 L112.4838,166.5188 C114.0398,167.4128 115.6298,168.2588 117.2498,169.0528 C123.8048,172.2648 130.8578,174.6208 138.2608,175.9758 C140.1568,176.3228 142.0728,176.6028 144.0108,176.8158 C144.7508,176.8958 145.4898,176.9678 146.2348,177.0288 C146.2468,177.0308 146.2568,177.0308 146.2658,177.0308 L151.3108,177.2408 L152.8278,177.3018 L152.8278,177.3158 L152.8528,177.3158 L153.0048,177.3068 L153.0078,177.3068 L153.1548,177.3158 L153.1778,177.3158 L153.1778,177.3018 L154.7058,177.2388 L159.7828,177.0288 C160.5268,176.9678 161.2658,176.8958 162.0048,176.8158 C163.9218,176.6058 165.8138,176.3288 167.6858,175.9878 C175.1128,174.6348 182.1858,172.2768 188.7638,169.0528 L188.7668,169.0528 C190.3828,168.2618 191.9678,167.4158 193.5218,166.5218 L193.5218,133.9138 C191.9148,124.8128 188.4548,117.5098 183.4838,111.6758" id="Fill-45" fill="#D1E391"></path>
                        <path d="M193.5336,166.5156 L193.5216,141.0156 L193.5186,133.9136 L188.7666,169.0526 C190.3836,168.2616 191.9686,167.4156 193.5216,166.5216 L193.5336,166.5156 Z" id="Fill-47" fill="#0E6DA0"></path>
                        <path d="M117.2495,169.0527 C115.6305,168.2587 114.0395,167.4127 112.4835,166.5187 L112.4835,133.9137 L117.2495,169.0527 Z" id="Fill-49" fill="#0E6DA0"></path>
                        <path d="M166.5786,99.2334 C159.7476,108.1934 146.2636,108.1954 139.4316,99.2364 L139.4286,99.2334 L133.7816,99.2334 C136.5436,105.5804 144.1056,110.1384 153.0086,110.1384 C161.9106,110.1384 169.4736,105.5804 172.2346,99.2334 L166.5786,99.2334 Z" id="Fill-51" fill="#0E6DA0"></path>
                        <path d="M98.1284,131.3564 L98.1284,133.6474 C98.1284,136.0604 100.0844,138.0164 102.4974,138.0164 L102.4984,138.0164 C104.9104,138.0164 106.8664,136.0604 106.8664,133.6474 L106.8664,131.3564 C106.8664,128.9434 104.9104,126.9874 102.4984,126.9874 L102.4974,126.9874 C100.0844,126.9874 98.1284,128.9434 98.1284,131.3564" id="Fill-53" fill="#FFFFFF"></path>
                        <path d="M208.0883,131.3564 L208.0883,133.6474 C208.0883,136.0604 206.1323,138.0164 203.7203,138.0164 L203.7193,138.0164 C201.3063,138.0164 199.3503,136.0604 199.3503,133.6474 L199.3503,131.3564 C199.3503,128.9434 201.3063,126.9874 203.7193,126.9874 L203.7203,126.9874 C206.1323,126.9874 208.0883,128.9434 208.0883,131.3564" id="Fill-55" fill="#FFFFFF"></path>
                        <g id="Group-59" transform="translate(0.000000, 133.841000)">
                            <mask id="mask-2" fill="white">
                                <use xlink:href="#path-1"></use>
                            </mask>
                            <g id="Clip-58"></g>
                            <path d="M273.0005,0.074 L273.0005,128.52 C272.8545,128.684 272.7155,128.843 272.5635,129 L0.4375,129 C0.2855,128.843 0.1465,128.684 0.0005,128.52 L0.0005,0.074 L273.0005,0.074 Z" id="Fill-57" fill="#427E7C" mask="url(#mask-2)"></path>
                        </g>
                        <g id="Group-62" transform="translate(12.000000, 145.841000)">
                            <mask id="mask-4" fill="white">
                                <use xlink:href="#path-3"></use>
                            </mask>
                            <g id="Clip-61"></g>
                            <polygon id="Fill-60" fill="#F8F6DE" mask="url(#mask-4)" points="248.7173 1.3553 248.7173 117.0003 0.2823 117.0003 0.2823 0.3553"></polygon>
                        </g>
                        <path d="M99.0981,129.3428 L99.0981,129.3428 C97.2211,129.3428 95.6991,130.8648 95.6991,132.7428 L95.6991,130.9968 C95.6991,129.1198 94.1761,127.5978 92.2991,127.5978 C90.4211,127.5978 88.8991,129.1198 88.8991,130.9968 L88.8991,132.7428 C88.8991,130.8648 87.3771,129.3428 85.4991,129.3428 C83.6221,129.3428 82.1001,130.8648 82.1001,132.7428 L82.1001,134.4888 C82.1001,132.6108 80.5771,131.0878 78.7011,131.0878 C76.8231,131.0878 75.3011,132.6108 75.3011,134.4888 L75.3011,142.7318 C75.3011,144.6098 76.8231,146.1308 78.7011,146.1308 C80.5771,146.1308 82.1001,144.6098 82.1001,142.7318 C82.1001,144.6098 83.6221,146.1308 85.4991,146.1308 C87.3771,146.1308 88.8991,144.6098 88.8991,142.7318 C88.8991,144.6098 90.4211,146.1308 92.2991,146.1308 C94.1761,146.1308 95.6991,144.6098 95.6991,142.7318 C95.6991,144.6098 97.2211,146.1308 99.0981,146.1308 C100.9761,146.1308 102.4971,144.6098 102.4971,142.7318 L102.4971,132.7428 C102.4971,130.8648 100.9761,129.3428 99.0981,129.3428" id="Fill-63" fill="#D0D2D3"></path>
                        <path d="M227.517,131.0879 C225.639,131.0879 224.118,132.6099 224.118,134.4879 L224.118,132.7429 C224.118,130.8649 222.595,129.3429 220.718,129.3429 C218.84,129.3429 217.318,130.8649 217.318,132.7429 L217.318,130.9969 C217.318,129.1199 215.796,127.5979 213.918,127.5979 C212.041,127.5979 210.519,129.1199 210.519,130.9969 L210.519,132.7429 C210.519,130.8649 208.996,129.3429 207.12,129.3429 C205.242,129.3429 203.719,130.8649 203.719,132.7429 L203.719,142.7319 C203.719,144.6089 205.242,146.1309 207.12,146.1309 C208.996,146.1309 210.519,144.6089 210.519,142.7319 C210.519,144.6089 212.041,146.1309 213.918,146.1309 C215.796,146.1309 217.318,144.6089 217.318,142.7319 C217.318,144.6089 218.84,146.1309 220.718,146.1309 C222.595,146.1309 224.118,144.6089 224.118,142.7319 C224.118,144.6089 225.639,146.1309 227.517,146.1309 C229.395,146.1309 230.916,144.6089 230.916,142.7319 L230.916,134.4879 C230.916,132.6099 229.395,131.0879 227.517,131.0879" id="Fill-65" fill="#D0D2D3"></path>
                        <path d="M99.0981,141.7685 L99.0981,141.7685 C100.9761,141.7685 102.4971,140.2465 102.4971,138.3695 L102.4971,128.3795 C102.4971,126.5015 100.9761,124.9805 99.0981,124.9805 C97.2201,124.9805 95.6991,126.5015 95.6991,128.3795 L95.6991,138.3695 C95.6991,140.2465 97.2201,141.7685 99.0981,141.7685" id="Fill-67" fill="#FFFFFF"></path>
                        <path d="M92.2993,141.7685 L92.2993,141.7685 C94.1763,141.7685 95.6983,140.2465 95.6983,138.3695 L95.6983,126.6345 C95.6983,124.7565 94.1763,123.2355 92.2993,123.2355 C90.4213,123.2355 88.8993,124.7565 88.8993,126.6345 L88.8993,138.3695 C88.8993,140.2465 90.4213,141.7685 92.2993,141.7685" id="Fill-69" fill="#FFFFFF"></path>
                        <path d="M85.4995,141.7685 L85.4995,141.7685 C87.3775,141.7685 88.8985,140.2465 88.8985,138.3695 L88.8985,128.3795 C88.8985,126.5015 87.3775,124.9805 85.4995,124.9805 C83.6225,124.9805 82.1005,126.5015 82.1005,128.3795 L82.1005,138.3695 C82.1005,140.2465 83.6225,141.7685 85.4995,141.7685" id="Fill-71" fill="#FFFFFF"></path>
                        <path d="M78.7006,141.7685 L78.7006,141.7685 C80.5776,141.7685 82.0996,140.2465 82.0996,138.3695 L82.0996,130.1245 C82.0996,128.2475 80.5776,126.7255 78.7006,126.7255 C76.8226,126.7255 75.3016,128.2475 75.3016,130.1245 L75.3016,138.3695 C75.3016,140.2465 76.8226,141.7685 78.7006,141.7685" id="Fill-73" fill="#FFFFFF"></path>
                        <path d="M207.1196,141.7685 L207.1196,141.7685 C205.2416,141.7685 203.7196,140.2465 203.7196,138.3695 L203.7196,128.3795 C203.7196,126.5015 205.2416,124.9805 207.1196,124.9805 C208.9966,124.9805 210.5186,126.5015 210.5186,128.3795 L210.5186,138.3695 C210.5186,140.2465 208.9966,141.7685 207.1196,141.7685" id="Fill-75" fill="#FFFFFF"></path>
                        <path d="M213.9184,141.7685 L213.9184,141.7685 C212.0404,141.7685 210.5194,140.2465 210.5194,138.3695 L210.5194,126.6345 C210.5194,124.7565 212.0404,123.2355 213.9184,123.2355 C215.7964,123.2355 217.3174,124.7565 217.3174,126.6345 L217.3174,138.3695 C217.3174,140.2465 215.7964,141.7685 213.9184,141.7685" id="Fill-77" fill="#FFFFFF"></path>
                        <path d="M220.7182,141.7685 L220.7172,141.7685 C218.8402,141.7685 217.3182,140.2465 217.3182,138.3695 L217.3182,128.3795 C217.3182,126.5015 218.8402,124.9805 220.7172,124.9805 L220.7182,124.9805 C222.5952,124.9805 224.1172,126.5015 224.1172,128.3795 L224.1172,138.3695 C224.1172,140.2465 222.5952,141.7685 220.7182,141.7685" id="Fill-79" fill="#FFFFFF"></path>
                        <path d="M227.517,141.7685 L227.517,141.7685 C225.639,141.7685 224.118,140.2465 224.118,138.3695 L224.118,130.1245 C224.118,128.2475 225.639,126.7255 227.517,126.7255 C229.395,126.7255 230.916,128.2475 230.916,130.1245 L230.916,138.3695 C230.916,140.2465 229.395,141.7685 227.517,141.7685" id="Fill-81" fill="#FFFFFF"></path>
                        <mask id="mask-6" fill="white">
                            <use xlink:href="#path-5"></use>
                        </mask>
                        <g id="Clip-84"></g>
                        <polygon id="Fill-83" fill="#427E7C" mask="url(#mask-6)" points="0 262.841 273 262.841 273 250.56 0 250.56"></polygon>
                        <path d="M79.9555,54.8164 L79.9555,98.6294 C79.9555,100.5664 79.1135,102.3074 77.7735,103.5064 C76.6175,104.5414 75.0865,105.1734 73.4105,105.1734 L32.5055,105.1734 C28.8925,105.1734 25.9605,102.2464 25.9605,98.6294 L25.9605,54.8164 C25.9605,51.2044 28.8925,48.2724 32.5055,48.2724 L73.4105,48.2724 C77.0235,48.2724 79.9555,51.2044 79.9555,54.8164" id="Fill-85" fill="#F0CA67" mask="url(#mask-6)"></path>
                        <path d="M73.4106,102.2568 L32.5056,102.2568 C28.8906,102.2568 25.9606,99.3268 25.9606,95.7128 L25.9606,98.6308 C25.9606,102.2448 28.8906,105.1748 32.5056,105.1748 L73.4106,105.1748 C77.0246,105.1748 79.9556,102.2448 79.9556,98.6308 L79.9556,95.7128 C79.9556,99.3268 77.0246,102.2568 73.4106,102.2568" id="Fill-86" fill="#821F22" mask="url(#mask-6)"></path>
                        <path d="M36.9047,54.7422 L36.4827,54.7422 C35.2677,54.7422 34.2847,53.7582 34.2847,52.5442 L34.2847,44.0032 C34.2847,42.7892 35.2677,41.8042 36.4827,41.8042 L36.9047,41.8042 C38.1187,41.8042 39.1027,42.7892 39.1027,44.0032 L39.1027,52.5442 C39.1027,53.7582 38.1187,54.7422 36.9047,54.7422" id="Fill-87" fill="#A00B0F" mask="url(#mask-6)"></path>
                        <path d="M47.7475,54.7422 L47.3255,54.7422 C46.1115,54.7422 45.1275,53.7582 45.1275,52.5442 L45.1275,44.0032 C45.1275,42.7892 46.1115,41.8042 47.3255,41.8042 L47.7475,41.8042 C48.9625,41.8042 49.9455,42.7892 49.9455,44.0032 L49.9455,52.5442 C49.9455,53.7582 48.9625,54.7422 47.7475,54.7422" id="Fill-88" fill="#A00B0F" mask="url(#mask-6)"></path>
                        <path d="M58.5903,54.7422 L58.1683,54.7422 C56.9543,54.7422 55.9703,53.7582 55.9703,52.5442 L55.9703,44.0032 C55.9703,42.7892 56.9543,41.8042 58.1683,41.8042 L58.5903,41.8042 C59.8053,41.8042 60.7893,42.7892 60.7893,44.0032 L60.7893,52.5442 C60.7893,53.7582 59.8053,54.7422 58.5903,54.7422" id="Fill-89" fill="#A00B0F" mask="url(#mask-6)"></path>
                        <path d="M69.434,54.7422 L69.011,54.7422 C67.797,54.7422 66.813,53.7582 66.813,52.5442 L66.813,44.0032 C66.813,42.7892 67.797,41.8042 69.011,41.8042 L69.434,41.8042 C70.648,41.8042 71.632,42.7892 71.632,44.0032 L71.632,52.5442 C71.632,53.7582 70.648,54.7422 69.434,54.7422" id="Fill-90" fill="#A00B0F" mask="url(#mask-6)"></path>
                        <polygon id="Fill-91" fill="#509D9B" mask="url(#mask-6)" points="33.491 69.549 43.85 69.549 43.85 59.191 33.491 59.191"></polygon>
                        <polygon id="Fill-92" fill="#FFFFFF" mask="url(#mask-6)" points="47.778 69.549 58.138 69.549 58.138 59.191 47.778 59.191"></polygon>
                        <polygon id="Fill-93" fill="#FFFFFF" mask="url(#mask-6)" points="62.066 69.549 72.425 69.549 72.425 59.191 62.066 59.191"></polygon>
                        <polygon id="Fill-94" fill="#FFFFFF" mask="url(#mask-6)" points="33.491 83.318 43.85 83.318 43.85 72.959 33.491 72.959"></polygon>
                        <polygon id="Fill-95" fill="#FFFFFF" mask="url(#mask-6)" points="47.778 83.318 58.138 83.318 58.138 72.959 47.778 72.959"></polygon>
                        <polygon id="Fill-96" fill="#FFFFFF" mask="url(#mask-6)" points="62.066 83.318 72.425 83.318 72.425 72.959 62.066 72.959"></polygon>
                        <polygon id="Fill-97" fill="#FFFFFF" mask="url(#mask-6)" points="33.491 97.087 43.85 97.087 43.85 86.729 33.491 86.729"></polygon>
                        <polygon id="Fill-98" fill="#509D9B" mask="url(#mask-6)" points="47.778 97.087 58.138 97.087 58.138 86.729 47.778 86.729"></polygon>
                        <polygon id="Fill-99" fill="#FFFFFF" mask="url(#mask-6)" points="62.066 97.087 72.425 97.087 72.425 86.729 62.066 86.729"></polygon>
                        <path d="M79.9555,62.583 L79.9555,98.63 C79.9555,100.566 79.1135,102.308 77.7735,103.507 C71.2425,99.318 66.9185,91.998 66.9185,83.669 C66.9185,74.437 72.2245,66.448 79.9555,62.583" id="Fill-100" fill="#974413" mask="url(#mask-6)"></path>
                        <path d="M109.9292,79.3037 C109.9292,90.0447 101.2212,98.7507 90.4802,98.7507 C79.7402,98.7507 71.0322,90.0447 71.0322,79.3037 C71.0322,68.5637 79.7402,59.8567 90.4802,59.8567 C101.2212,59.8567 109.9292,68.5637 109.9292,79.3037" id="Fill-101" fill="#F0CA67" mask="url(#mask-6)"></path>
                        <path d="M96.3159,85.7676 C95.8679,85.7676 95.4169,85.6296 95.0269,85.3446 L89.1899,81.0626 C88.6299,80.6526 88.2989,79.9986 88.2989,79.3036 L88.2989,67.0066 C88.2989,65.8016 89.2759,64.8256 90.4809,64.8256 C91.6859,64.8256 92.6629,65.8016 92.6629,67.0066 L92.6629,78.1996 L97.6079,81.8276 C98.5799,82.5396 98.7899,83.9056 98.0769,84.8756 C97.6489,85.4586 96.9869,85.7676 96.3159,85.7676" id="Fill-102" fill="#FFFFFF" mask="url(#mask-6)"></path>
                        <path d="M192.7016,28.0068 L113.3176,28.0068 C111.1036,28.0068 109.3086,29.8018 109.3086,32.0148 C109.3086,34.2288 111.1036,36.0238 113.3176,36.0238 L192.7016,36.0238 C194.9146,36.0238 196.7096,34.2288 196.7096,32.0148 C196.7096,29.8018 194.9146,28.0068 192.7016,28.0068" id="Fill-103" fill="#E7AD26" mask="url(#mask-6)"></path>
                        <path d="M188.1411,28.0068 L117.8771,28.0068 C117.8771,26.1638 118.0541,24.3658 118.3971,22.6228 C118.5011,22.0698 118.6261,21.5178 118.7681,20.9748 C119.3261,18.8128 120.1361,16.7548 121.1691,14.8278 C121.4671,14.2668 121.7861,13.7158 122.1211,13.1788 C123.5561,10.8858 125.3131,8.8138 127.3261,7.0328 C127.9841,6.4468 128.6661,5.8968 129.3761,5.3838 C134.0041,1.9958 139.7101,-0.0002 145.8811,-0.0002 L160.1371,-0.0002 C166.3111,-0.0002 172.0171,1.9988 176.6421,5.3838 C177.3521,5.9008 178.0351,6.4468 178.6901,7.0328 C179.1161,7.4068 179.5321,7.7988 179.9371,8.2038 C181.4371,9.7038 182.7671,11.3698 183.8931,13.1788 C184.2331,13.7158 184.5511,14.2668 184.8491,14.8278 C185.8821,16.7548 186.6931,18.8128 187.2501,20.9748 C187.3921,21.5178 187.5171,22.0698 187.6201,22.6228 C187.9641,24.3658 188.1411,26.1638 188.1411,28.0068" id="Fill-104" fill="#FDDD39" mask="url(#mask-6)"></path>
                        <path d="M176.642,5.3838 L129.376,5.3838 C128.666,5.8968 127.984,6.4468 127.326,7.0328 L178.69,7.0328 C178.035,6.4468 177.352,5.9008 176.642,5.3838 M183.893,13.1788 L122.121,13.1788 C121.786,13.7158 121.467,14.2668 121.169,14.8278 L184.849,14.8278 C184.551,14.2668 184.233,13.7158 183.893,13.1788 M187.25,20.9748 L118.768,20.9748 C118.626,21.5178 118.501,22.0698 118.397,22.6228 L187.621,22.6228 C187.517,22.0698 187.392,21.5178 187.25,20.9748" id="Fill-105" fill="#FFF234" mask="url(#mask-6)"></path>
                    </g>
                    <path d="M49.2073282,188 L49.2073282,184.450391 L39.6706095,184.450391 L44.7131876,179.133594 C46.0944376,177.620312 47.0694376,176.294922 47.6381876,175.157422 C48.2069376,174.019922 48.4913126,172.902734 48.4913126,171.805859 C48.4913126,169.805078 47.859086,168.25625 46.5946329,167.159375 C45.3301798,166.0625 43.5553751,165.514062 41.2702188,165.514062 C39.7772501,165.514062 38.4417032,165.831445 37.2635782,166.466211 C36.0854532,167.100977 35.1739298,167.976953 34.5290079,169.094141 C33.884086,170.211328 33.5616251,171.445312 33.5616251,172.796094 L33.5616251,172.796094 L37.9795938,172.796094 C37.9795938,171.678906 38.2665079,170.777539 38.840336,170.091992 C39.4141642,169.406445 40.1987345,169.063672 41.194047,169.063672 C42.1182657,169.063672 42.8292032,169.345508 43.3268595,169.90918 C43.8245157,170.472852 44.0733438,171.247266 44.0733438,172.232422 C44.0733438,172.953516 43.837211,173.715234 43.3649454,174.517578 C42.8926798,175.319922 42.1639688,176.259375 41.1788126,177.335938 L41.1788126,177.335938 L34.003422,184.983594 L34.003422,188 L49.2073282,188 Z M60.7054219,188.304688 C63.1530782,188.304688 65.0116719,187.492188 66.2812032,185.867188 C67.5507344,184.242188 68.1855,181.896094 68.1855,178.828906 L68.1855,178.828906 L68.1855,174.746094 C68.1550313,171.770313 67.4999532,169.487695 66.2202657,167.898242 C64.9405782,166.308789 63.0921407,165.514062 60.6749532,165.514062 C58.2577657,165.514062 56.4067891,166.316406 55.1220235,167.921094 C53.8372579,169.525781 53.194875,171.876953 53.194875,174.974609 L53.194875,174.974609 L53.194875,179.057422 C53.2253438,182.033203 53.8804219,184.318359 55.1601094,185.912891 C56.4397969,187.507422 58.2882344,188.304688 60.7054219,188.304688 Z M60.7054219,184.755078 C59.6187032,184.755078 58.8290547,184.31582 58.3364766,183.437305 C57.8438985,182.558789 57.5976094,181.215625 57.5976094,179.407813 L57.5976094,179.407813 L57.5976094,174.014844 C57.6280782,172.31875 57.8896016,171.07207 58.3821797,170.274805 C58.8747579,169.477539 59.6390157,169.078906 60.6749532,169.078906 C61.7413594,169.078906 62.5259297,169.497852 63.0286641,170.335742 C63.5313985,171.173633 63.7827657,172.511719 63.7827657,174.35 L63.7827657,174.35 L63.7827657,179.621094 C63.7624532,181.357812 63.513625,182.647656 63.0362813,183.490625 C62.5589375,184.333594 61.7819844,184.755078 60.7054219,184.755078 Z M87.7121094,188 L87.7121094,184.450391 L78.1753906,184.450391 L83.2179687,179.133594 C84.5992188,177.620312 85.5742188,176.294922 86.1429687,175.157422 C86.7117187,174.019922 86.9960938,172.902734 86.9960938,171.805859 C86.9960938,169.805078 86.3638672,168.25625 85.0994141,167.159375 C83.8349609,166.0625 82.0601563,165.514062 79.775,165.514062 C78.2820312,165.514062 76.9464844,165.831445 75.7683594,166.466211 C74.5902344,167.100977 73.6787109,167.976953 73.0337891,169.094141 C72.3888672,170.211328 72.0664062,171.445312 72.0664062,172.796094 L72.0664062,172.796094 L76.484375,172.796094 C76.484375,171.678906 76.7712891,170.777539 77.3451172,170.091992 C77.9189453,169.406445 78.7035156,169.063672 79.6988281,169.063672 C80.6230469,169.063672 81.3339844,169.345508 81.8316406,169.90918 C82.3292969,170.472852 82.578125,171.247266 82.578125,172.232422 C82.578125,172.953516 82.3419922,173.715234 81.8697266,174.517578 C81.3974609,175.319922 80.66875,176.259375 79.6835938,177.335938 L79.6835938,177.335938 L72.5082031,184.983594 L72.5082031,188 L87.7121094,188 Z M99.2102031,188.304688 C101.657859,188.304688 103.516453,187.492188 104.785984,185.867188 C106.055516,184.242188 106.690281,181.896094 106.690281,178.828906 L106.690281,178.828906 L106.690281,174.746094 C106.659812,171.770313 106.004734,169.487695 104.725047,167.898242 C103.445359,166.308789 101.596922,165.514062 99.1797343,165.514062 C96.7625468,165.514062 94.9115703,166.316406 93.6268046,167.921094 C92.342039,169.525781 91.6996562,171.876953 91.6996562,174.974609 L91.6996562,174.974609 L91.6996562,179.057422 C91.730125,182.033203 92.3852031,184.318359 93.6648906,185.912891 C94.9445781,187.507422 96.7930156,188.304688 99.2102031,188.304688 Z M99.2102031,184.755078 C98.1234843,184.755078 97.3338359,184.31582 96.8412578,183.437305 C96.3486796,182.558789 96.1023906,181.215625 96.1023906,179.407813 L96.1023906,179.407813 L96.1023906,174.014844 C96.1328593,172.31875 96.3943828,171.07207 96.8869609,170.274805 C97.379539,169.477539 98.1437968,169.078906 99.1797343,169.078906 C100.246141,169.078906 101.030711,169.497852 101.533445,170.335742 C102.03618,171.173633 102.287547,172.511719 102.287547,174.35 L102.287547,174.35 L102.287547,179.621094 C102.267234,181.357812 102.018406,182.647656 101.541062,183.490625 C101.063719,184.333594 100.286766,184.755078 99.2102031,184.755078 Z" id="2020" fill="#6BA997" fill-rule="nonzero"></path>
                    <path d="M152.432615,180.091594 C154.807015,179.497994 156.778615,178.861994 158.347415,178.204794 L157.817415,176.148394 C156.757415,176.657194 155.697415,177.059994 154.616215,177.399194 L154.616215,171.039194 L162.142215,171.039194 L162.142215,161.414394 L152.432615,161.414394 L152.432615,177.526394 C152.432615,177.823194 152.241815,178.013994 151.902615,178.141194 L152.432615,180.091594 Z M146.963015,180.409594 L146.963015,163.513194 L149.613015,163.513194 C149.083015,165.187994 148.341015,167.074794 147.408215,169.173594 C148.828615,170.933194 149.549415,172.523194 149.549415,173.943594 C149.549415,174.282794 149.464615,174.515994 149.295015,174.643194 C149.125415,174.770394 148.786215,174.833994 148.277415,174.876394 C147.959415,174.876394 147.556615,174.833994 147.090215,174.749194 L147.811015,176.996394 C149.379815,176.975194 150.503415,176.678394 151.139415,176.127194 C151.563415,175.703194 151.775415,174.961194 151.775415,173.943594 C151.669415,172.501994 150.969815,170.805994 149.655415,168.834394 C150.482215,166.841594 151.203015,164.954794 151.839015,163.173994 L151.839015,161.435594 L144.800615,161.435594 L144.800615,180.409594 L146.963015,180.409594 Z M159.979815,165.272794 L154.616215,165.272794 L154.616215,163.491994 L159.979815,163.491994 L159.979815,165.272794 Z M159.979815,169.025194 L154.616215,169.025194 L154.616215,167.265594 L159.979815,167.265594 L159.979815,169.025194 Z M162.587415,180.197594 L163.880615,178.289594 C162.566215,177.568794 161.442615,176.614794 160.488615,175.406394 C161.548615,174.812794 162.523815,174.028394 163.371815,173.010794 L161.972615,171.590394 C161.167015,172.565594 160.319015,173.307594 159.449815,173.837594 C159.110615,173.243994 158.792615,172.586794 158.517015,171.865994 L156.842215,172.798794 C158.029415,176.148394 159.958615,178.628794 162.587415,180.197594 Z M184.918081,168.707194 L184.918081,166.671994 L180.953681,166.671994 L180.953681,164.848794 L185.723681,164.848794 L185.723681,162.834794 L180.953681,162.834794 L180.953681,160.905594 L178.812481,160.905594 L178.812481,162.834794 L173.915281,162.834794 L173.915281,164.848794 L178.812481,164.848794 L178.812481,166.671994 L174.742081,166.671994 L174.742081,168.707194 L184.918081,168.707194 Z M168.996881,178.671194 L168.996881,176.869194 L171.222881,176.869194 L171.222881,178.162394 L173.300481,178.162394 L173.300481,162.177594 L166.876881,162.177594 L166.876881,178.671194 L168.996881,178.671194 Z M171.222881,168.452794 L168.996881,168.452794 L168.996881,164.191594 L171.222881,164.191594 L171.222881,168.452794 Z M181.123281,180.239994 C182.607281,180.239994 183.349281,179.455594 183.349281,177.886794 L183.349281,172.777594 L185.723681,172.777594 L185.723681,170.721194 L183.349281,170.721194 L183.349281,169.300794 L181.186881,169.300794 L181.186881,170.721194 L174.339281,170.721194 L174.339281,172.777594 L181.186881,172.777594 L181.186881,177.335594 C181.186881,177.971594 180.911281,178.310794 180.381281,178.310794 C179.660481,178.310794 178.876081,178.247194 178.070481,178.162394 L178.536881,180.239994 L181.123281,180.239994 Z M171.222881,174.833994 L168.996881,174.833994 L168.996881,170.445594 L171.222881,170.445594 L171.222881,174.833994 Z M177.095281,177.568794 L178.854881,176.339194 C178.240081,175.448794 177.392081,174.409994 176.289681,173.201594 L174.572481,174.282794 C175.632481,175.491194 176.459281,176.593594 177.095281,177.568794 Z M192.769148,180.430794 L192.769148,166.184394 C193.595948,164.700394 194.253148,163.173994 194.761948,161.562794 L192.663148,160.587594 C191.687948,163.852394 190.182748,166.671994 188.147548,169.088794 L188.868348,171.441994 C189.461948,170.805994 190.013148,170.169994 190.543148,169.491594 L190.543148,180.430794 L192.769148,180.430794 Z M207.460748,180.536794 L207.990748,178.416794 C205.446748,178.289594 203.178348,177.717194 201.206748,176.720794 C201.673148,175.745594 201.969948,174.431194 202.139548,172.777594 L207.100348,172.777594 L207.100348,166.332794 L202.245548,166.332794 L202.245548,164.806394 L207.884748,164.806394 L207.884748,162.707594 L202.245548,162.707594 L202.245548,160.778394 L200.019548,160.778394 L200.019548,162.707594 L194.804348,162.707594 L194.804348,164.806394 L200.019548,164.806394 L200.019548,166.332794 L195.355548,166.332794 L195.355548,172.777594 L199.913548,172.777594 C199.786348,173.879994 199.574348,174.812794 199.256348,175.533594 C198.302348,174.855194 197.433148,174.028394 196.648748,173.074394 L194.952748,174.240394 C195.843148,175.342794 196.860748,176.317994 197.984348,177.165994 C197.009148,177.907994 195.567548,178.353194 193.680748,178.501594 L194.634748,180.515594 C197.009148,180.197594 198.789948,179.519194 199.955948,178.459194 C202.118348,179.646394 204.619948,180.345994 207.460748,180.536794 Z M205.022748,170.805994 L202.245548,170.805994 L202.245548,168.304394 L205.022748,168.304394 L205.022748,170.805994 Z M200.019548,170.805994 L197.433148,170.805994 L197.433148,168.304394 L200.019548,168.304394 L200.019548,170.805994 Z M212.110615,180.261194 C213.403815,178.522794 214.188215,176.317994 214.463815,173.689194 L219.233815,173.689194 L219.233815,179.667594 L221.481015,179.667594 L221.481015,173.689194 L226.526615,173.689194 L226.526615,176.635994 C226.526615,177.441594 226.187415,177.865594 225.551415,177.865594 C224.830615,177.865594 224.067415,177.823194 223.219415,177.738394 L223.813015,179.900794 L226.251015,179.900794 C227.925815,179.900794 228.773815,179.073994 228.773815,177.441594 L228.773815,161.435594 L212.343815,161.435594 L212.343815,171.929594 C212.301415,174.685594 211.665415,176.953994 210.414615,178.734794 L212.110615,180.261194 Z M226.526615,166.565994 L221.481015,166.565994 L221.481015,163.597994 L226.526615,163.597994 L226.526615,166.565994 Z M219.233815,166.565994 L214.569815,166.565994 L214.569815,163.597994 L219.233815,163.597994 L219.233815,166.565994 Z M219.233815,171.653994 L214.569815,171.653994 L214.569815,168.601194 L219.233815,168.601194 L219.233815,171.653994 Z M226.526615,171.653994 L221.481015,171.653994 L221.481015,168.601194 L226.526615,168.601194 L226.526615,171.653994 Z M243.302881,173.837594 L243.832881,163.046794 L240.970881,163.046794 L241.500881,173.837594 L243.302881,173.837594 Z M242.391281,178.183594 C242.857681,178.183594 243.239281,178.035194 243.578481,177.738394 C243.875281,177.441594 244.044881,177.038794 244.044881,176.572394 C244.044881,176.105994 243.875281,175.724394 243.578481,175.427594 C243.260481,175.130794 242.857681,174.982394 242.391281,174.982394 C241.924881,174.982394 241.543281,175.130794 241.246481,175.427594 C240.907281,175.724394 240.758881,176.105994 240.758881,176.572394 C240.758881,177.038794 240.907281,177.420394 241.246481,177.717194 C241.543281,178.013994 241.924881,178.183594 242.391281,178.183594 Z" id="限時使用！" fill="#DC5555" fill-rule="nonzero" transform="translate(194.422748, 170.562194) rotate(-8.000000) translate(-194.422748, -170.562194) "></path>
                    <path d="M42.7820801,232.70459 C45.7781738,232.70459 48.2283691,231.761963 50.132666,229.876709 C52.0369629,227.991455 52.9891113,225.569824 52.9891113,222.611816 C52.9891113,220.085449 52.163916,217.993896 50.5135254,216.337158 C48.8631348,214.68042 46.7811035,213.852051 44.2674316,213.852051 C41.5125488,213.852051 39.2527832,214.918457 37.4881348,217.05127 C37.4881348,213.750488 38.1102051,211.186035 39.3543457,209.35791 C40.5984863,207.529785 42.3504395,206.615723 44.6102051,206.615723 C46.6414551,206.615723 48.9393066,207.155273 51.5037598,208.234375 L51.5037598,208.234375 L51.5037598,204.121094 C48.6854004,203.435547 46.3240723,203.092773 44.4197754,203.092773 C40.3699707,203.092773 37.224707,204.447998 34.9839844,207.158447 C32.7432617,209.868896 31.6229004,213.667969 31.6229004,218.555664 C31.6229004,222.999023 32.6067871,226.468018 34.5745605,228.962646 C36.542334,231.457275 39.2781738,232.70459 42.7820801,232.70459 Z M42.7630371,229.181641 C41.2649902,229.181641 40.0525879,228.578613 39.1258301,227.372559 C38.1990723,226.166504 37.7356934,224.57959 37.7356934,222.611816 C37.7356934,221.11377 38.2085938,219.856934 39.1543945,218.841309 C40.1001953,217.825684 41.2649902,217.317871 42.6487793,217.317871 C44.0960449,217.317871 45.2417969,217.876465 46.0860352,218.993652 C46.9302734,220.11084 47.3523926,221.62793 47.3523926,223.544922 C47.3523926,225.258789 46.9366211,226.626709 46.1050781,227.648682 C45.2735352,228.670654 44.1595215,229.181641 42.7630371,229.181641 Z M69.9295254,236.329 C72.3475254,233.014 73.8295254,228.88 74.3755254,223.966 L90.0145254,223.966 L90.0145254,230.362 C90.0145254,231.376 89.6245254,231.922 88.8445254,231.922 C87.4015254,231.922 85.8025254,231.844 84.0865254,231.727 L85.1785254,235.705 L90.1705254,235.705 C92.8225254,235.705 94.1485254,234.418 94.1485254,231.844 L94.1485254,201.268 L70.5145254,201.268 L70.5145254,220.417 C70.4365254,225.721 69.2275254,230.089 66.8095254,233.482 L69.9295254,236.329 Z M90.0145254,210.628 L74.6095254,210.628 L74.6095254,205.168 L90.0145254,205.168 L90.0145254,210.628 Z M90.0145254,220.183 L74.6095254,220.183 L74.6095254,214.411 L90.0145254,214.411 L90.0145254,220.183 Z M111.848525,235.9 C114.266525,230.713 115.553525,223.81 115.709525,215.23 L115.709525,206.962 L144.101525,206.962 L144.101525,203.062 L130.022525,203.062 C129.476525,201.853 128.891525,200.761 128.345525,199.747 L124.094525,200.449 C124.718525,201.229 125.264525,202.126 125.771525,203.062 L111.653525,203.062 L111.653525,215.23 C111.575525,222.874 110.600525,228.841 108.728525,233.131 L111.848525,235.9 Z M139.616525,235.627 C140.786525,235.627 141.839525,234.847 142.775525,233.326 C143.477525,232.039 144.179525,230.44 144.842525,228.529 L141.449525,226.384 C140.747525,229.582 140.084525,231.259 139.382525,231.376 C138.719525,231.337 137.978525,230.596 137.198525,229.114 C136.418525,227.632 135.755525,225.448 135.209525,222.562 C135.131525,222.094 135.053525,221.548 134.975525,221.002 L142.619525,221.002 L142.619525,217.18 L134.585525,217.18 C134.468525,215.737 134.390525,214.177 134.390525,212.5 C137.042525,212.149 139.616525,211.759 142.073525,211.291 L140.006525,207.898 C133.298525,209.146 126.161525,210.004 118.634525,210.394 L118.634525,224.668 C118.634525,225.604 118.205525,226.228 117.425525,226.579 L118.361525,230.206 C123.041525,229.426 127.136525,228.685 130.568525,227.905 L129.866525,224.161 C127.487525,224.707 125.069525,225.175 122.612525,225.565 L122.612525,221.002 L131.036525,221.002 C131.231525,222.562 131.504525,223.927 131.894525,225.175 C132.869525,228.568 134.078525,231.181 135.482525,232.975 C136.808525,234.73 138.212525,235.627 139.616525,235.627 Z M130.607525,217.18 L122.612525,217.18 L122.612525,213.631 C125.264525,213.475 127.838525,213.241 130.373525,212.968 C130.412525,214.411 130.490525,215.815 130.607525,217.18 Z M132.869525,235.432 L132.869525,231.727 L118.400525,231.727 L118.400525,235.432 L132.869525,235.432 Z M189.647525,234.73 L189.647525,230.752 L172.331525,230.752 L172.331525,215.503 L186.761525,215.503 L186.761525,211.564 L172.331525,211.564 L172.331525,199.981 L168.119525,199.981 L168.119525,230.752 L154.586525,230.752 L154.586525,234.73 L189.647525,234.73 Z M200.756525,224.902 C203.759525,224.512 206.957525,223.771 210.350525,222.679 C210.428525,223.147 210.545525,223.615 210.623525,224.161 L213.860525,223.342 C213.314525,220.495 212.651525,217.999 211.949525,215.815 L208.829525,216.868 C209.102525,217.726 209.375525,218.662 209.609525,219.598 C208.244525,219.988 206.879525,220.3 205.475525,220.573 C207.659525,217.843 210.311525,213.631 213.509525,207.859 L209.765525,206.455 C208.907525,208.093 208.127525,209.614 207.386525,211.018 C206.294525,211.213 205.202525,211.369 204.110525,211.525 C205.826525,208.873 207.542525,205.519 209.180525,201.502 L205.319525,199.942 C204.149525,203.686 202.784525,207.157 201.224525,210.316 C200.717525,211.018 200.171525,211.525 199.547525,211.798 L200.522525,215.503 C202.160525,215.23 203.798525,214.957 205.358525,214.684 C203.837525,217.219 202.550525,219.013 201.536525,220.105 C201.029525,220.573 200.405525,220.924 199.703525,221.236 L200.756525,224.902 Z M222.557525,236.017 C225.053525,236.017 226.340525,234.691 226.340525,232.078 L226.340525,226.423 C228.095525,229.426 230.396525,232.234 233.243525,234.847 L235.700525,231.766 C233.204525,229.933 231.098525,227.944 229.460525,225.838 C231.644525,224.59 233.555525,223.303 235.154525,221.977 L232.892525,219.247 C231.410525,220.651 229.655525,221.938 227.666525,223.147 C227.120525,222.289 226.691525,221.431 226.340525,220.573 L226.340525,217.96 L232.892525,217.96 L232.892525,203.14 L224.663525,203.14 C225.092525,202.321 225.443525,201.463 225.755525,200.527 L221.660525,199.981 C221.426525,201.073 221.114525,202.126 220.685525,203.14 L215.030525,203.14 L215.030525,217.96 L222.518525,217.96 L222.518525,231.181 C222.518525,232.117 222.089525,232.624 221.270525,232.624 C220.490525,232.624 219.710525,232.546 218.852525,232.429 L219.710525,236.017 L222.557525,236.017 Z M229.187525,208.873 L218.735525,208.873 L218.735525,206.65 L229.187525,206.65 L229.187525,208.873 Z M229.187525,214.45 L218.735525,214.45 L218.735525,212.227 L229.187525,212.227 L229.187525,214.45 Z M214.835525,234.886 C218.111525,232.273 220.217525,228.451 221.231525,223.459 L221.231525,220.69 L214.133525,220.69 L214.133525,224.044 L217.721525,224.044 C216.746525,227.398 215.030525,230.011 212.612525,231.922 L214.835525,234.886 Z M211.169525,231.142 L214.055525,229.855 C213.548525,227.983 212.924525,226.267 212.222525,224.668 L209.414525,225.604 C210.038525,227.203 210.623525,229.036 211.169525,231.142 Z M206.021525,234.418 L209.492525,233.56 C209.141525,230.713 208.751525,228.061 208.322525,225.643 L205.280525,226.306 C205.553525,228.646 205.787525,231.376 206.021525,234.418 Z M202.979525,235.705 C203.681525,233.053 204.149525,230.05 204.344525,226.696 L201.029525,226.267 C200.795525,229.387 200.288525,232.195 199.508525,234.613 L202.979525,235.705 Z" id="6月底上線" fill="#267DBE" fill-rule="nonzero"></path>
                </g>
            </g>
        </g>
    </g>
</svg>