<svg xmlns="http://www.w3.org/2000/svg" width="359" height="273" viewBox="0 0 359 273">
    <g fill="none" fill-rule="evenodd">
        <path fill="#427E7C" d="M170.773 202H73.196c-4.258 0-7.712-3.448-7.712-7.7V8.7C65.484 4.448 68.938 1 73.196 1h97.577c4.26 0 7.71 3.448 7.71 7.701V194.3c0 4.252-3.45 7.7-7.71 7.7"/>
        <path fill="#6BA997" d="M157.785 202H86.182c-3.7 0-6.698-2.986-6.698-6.67V7.67c0-3.684 2.999-6.67 6.698-6.67h71.603c3.7 0 6.699 2.986 6.699 6.67v187.66c0 3.684-3 6.67-6.699 6.67"/>
        <path fill="#D1E391" d="M166.04 189H78.928c-3.008 0-5.444-2.447-5.444-5.467V20.467c0-3.02 2.436-5.467 5.444-5.467h87.112c3.007 0 5.444 2.447 5.444 5.467v163.066c0 3.02-2.437 5.467-5.444 5.467"/>
        <path fill="#BCBEC0" d="M130.948 10H113.02c-1.4 0-2.536-1.119-2.536-2.5 0-1.38 1.135-2.5 2.536-2.5h17.928c1.4 0 2.536 1.12 2.536 2.5 0 1.381-1.136 2.5-2.536 2.5"/>
        <path fill="#FFF" d="M130.948 198H113.02c-1.4 0-2.536-1.119-2.536-2.499 0-1.381 1.135-2.501 2.536-2.501h17.928c1.4 0 2.536 1.12 2.536 2.501 0 1.38-1.136 2.499-2.536 2.499"/>
        <path fill="#D2E7ED" d="M166.04 14H78.928c-3.008 0-5.444 2.463-5.444 5.5V25h98v-5.5c0-3.037-2.437-5.5-5.444-5.5M164.484 178L171.484 178 171.484 26 164.484 26z"/>
        <rect width="206" height="51" x="153" y="134.79" fill="#FFF" rx="10"/>
        <path fill="#FFF" d="M162.213 145.727L162.213 111 197.242 145.727z"/>
        <text fill="#0382BA" font-family="PingFangTC-Semibold, PingFang TC" font-size="24" font-weight="500" letter-spacing="3">
            <tspan x="167.328" y="170">取得QR Code</tspan>
        </text>
        <path fill="#6BA997" d="M76.484 122c0 20.986-17.014 38-38 38s-38-17.014-38-38 17.014-38 38-38 38 17.014 38 38"/>
        <path fill="#427E7C" d="M38.68 101.362c.968 0 1.754.78 1.754 1.744 0 .963-.786 1.743-1.754 1.743s-1.753-.78-1.753-1.743c0-.963.785-1.744 1.753-1.744m17.802 38.519c-.005-.104-.02-.21-.048-.314-.034-.139-.09-.276-.169-.411l-1.219-2.11c-.05-.086-.098-.173-.146-.26l-.037-.066-.137-.255c-.009-.017-.016-.033-.025-.047l-.11-.22-.04-.08c-.041-.082-.08-.165-.119-.247l-.035-.074c-.029-.065-.06-.131-.088-.197-.014-.028-.027-.058-.038-.086-1.213-2.763-1.597-5.828-1.086-8.825l.664-3.897c.864-5.074-.78-10.314-4.576-13.813-1.71-1.576-3.777-2.775-6.067-3.464.388-.718.608-1.537.608-2.409 0-2.82-2.3-5.106-5.134-5.106-2.834 0-5.133 2.286-5.133 5.106 0 .87.22 1.69.606 2.409-.722.216-1.42.484-2.093.799-6.332 2.958-9.726 9.928-8.457 16.77l.495 2.671c.615 3.32.128 6.744-1.38 9.755l-.118.23-.042.082c-.055.103-.11.205-.167.307l-1.703 3.048c-.037.067-.068.135-.096.204-.025.069-.048.137-.065.206-.024.104-.038.209-.042.312-.004.104.002.206.02.306.01.068.023.134.044.2.019.064.04.127.069.189.014.03.027.062.043.091.077.149.177.288.295.409l.074.068c.178.158.393.279.633.345.14.038.287.06.44.06H33.02c-.02.062-.04.127-.058.192l-.006.018-.038.149c-.002.012-.006.023-.009.034-.013.05-.023.102-.034.153l-.006.024c-.011.057-.023.116-.032.174l-.006.033-.022.14-.007.049c-.008.056-.013.11-.02.166v.008c-.007.06-.012.12-.016.18-.001.013-.003.03-.003.046-.004.045-.006.088-.007.133l-.003.053-.003.18c0 3.149 2.568 5.701 5.735 5.701.247 0 .49-.015.73-.046.191-.024.38-.057.565-.1.093-.02.184-.045.275-.07.499-.142.97-.348 1.403-.61l.118-.072c.503-.322.954-.72 1.333-1.176l.087-.107c.056-.072.111-.146.165-.22.266-.373.489-.779.66-1.21.034-.086.066-.173.096-.262l.044-.134c.027-.089.054-.18.077-.27.117-.455.18-.932.18-1.424l-.003-.18c0-.016 0-.035-.002-.053-.001-.045-.004-.088-.006-.133l-.004-.047c-.004-.06-.008-.12-.014-.18 0-.002 0-.004-.002-.007-.005-.056-.012-.11-.02-.166l-.007-.049-.021-.14-.005-.033c-.012-.058-.022-.117-.035-.174l-.005-.024c-.01-.051-.022-.102-.035-.153l-.009-.034c-.012-.05-.024-.1-.038-.15l-.005-.017c-.018-.065-.037-.13-.058-.192h10.915c.156 0 .305-.022.444-.06.07-.02.137-.043.201-.071l.096-.045c.119-.062.229-.137.327-.224.03-.025.06-.053.087-.081.07-.073.135-.151.192-.237.02-.028.036-.057.054-.086.04-.07.076-.144.105-.218.02-.05.038-.103.054-.155.028-.098.046-.199.055-.302.006-.068.007-.137.004-.207"/>
        <path fill="#F7CB15" d="M56.266 135.636l-1.219-2.068c-1.812-3.072-2.47-6.662-1.862-10.155l.664-3.82c.865-4.976-.78-10.113-4.575-13.544-2.78-2.512-6.503-4.049-10.592-4.049-2.369 0-4.613.514-6.621 1.436-6.332 2.9-9.727 9.734-8.458 16.443l.494 2.618c.66 3.481.055 7.077-1.706 10.171l-1.702 2.99c-.598 1.05.182 2.342 1.415 2.342h32.76c1.245 0 2.022-1.312 1.402-2.364"/>
        <path fill="#EFD771" d="M50.344 135.636l-.779-2.068c-1.156-3.072-1.579-6.662-1.19-10.155l.424-3.82c.554-4.976-.497-10.113-2.923-13.544-1.775-2.512-4.153-4.049-6.767-4.049-1.513 0-2.946.514-4.229 1.436-4.046 2.9-6.215 9.734-5.403 16.443l.317 2.618c.42 3.481.035 7.077-1.092 10.171l-1.086 2.99c-.383 1.05.114 2.342.903 2.342h20.93c.795 0 1.292-1.312.895-2.364"/>
        <path fill="#F7CB15" d="M44.484 139.5c0 3.038-2.462 5.5-5.5 5.5-3.037 0-5.5-2.462-5.5-5.5s2.463-5.5 5.5-5.5c3.038 0 5.5 2.462 5.5 5.5"/>
        <path fill="#E7AD27" d="M38.984 142.025c-2.524 0-4.65-1.704-5.298-4.025-.132.472-.202.972-.202 1.487 0 3.044 2.462 5.513 5.5 5.513 3.039 0 5.5-2.469 5.5-5.513 0-.515-.07-1.015-.203-1.487-.647 2.321-2.772 4.025-5.297 4.025"/>
        <path fill="#EFD771" d="M39.484 101.708c-.943 0-1.708-.764-1.708-1.707 0-.944.765-1.709 1.708-1.709.944 0 1.708.765 1.708 1.709 0 .943-.764 1.707-1.708 1.707m0-6.708c-2.761 0-5 2.24-5 5 0 2.762 2.239 5 5 5 2.76 0 5-2.238 5-5 0-2.76-2.24-5-5-5"/>
        <path fill="#F7CB15" d="M38.984 101.232c-.956 0-1.732-.775-1.732-1.73 0-.957.776-1.732 1.732-1.732s1.73.775 1.73 1.731c0 .956-.774 1.73-1.73 1.73m0-5.231c-1.934 0-3.5 1.567-3.5 3.501 0 1.933 1.566 3.499 3.5 3.499 1.932 0 3.5-1.566 3.5-3.499 0-1.934-1.568-3.501-3.5-3.501M22.391 132.623l-1.702 3.015c-.598 1.06.182 2.362 1.414 2.362h32.761c1.245 0 2.022-1.323 1.402-2.383l-1.22-2.087c-.29-.498-.552-1.009-.782-1.53H22.725c-.106.209-.217.418-.334.623"/>
        <path fill="#F3C95E" d="M50.344 135.616l-.779-2.086c-.187-.498-.353-1.01-.5-1.53h-20.15c-.068.209-.138.418-.213.623l-1.086 3.014c-.383 1.06.114 2.363.903 2.363h20.93c.795 0 1.292-1.324.895-2.384"/>
        <path fill="#FFF" d="M171.073 239.357l-32.709 6.454c-6.04 1.191-12.207 1.528-18.318 1.007-4.043-.344-7.12-3.792-7.12-7.843v-3.935c0-1.449 1.178-2.625 2.63-2.625h15.99c4.226 0 7.912-3.252 8.04-7.471.13-4.364-3.374-7.944-7.717-7.944H56.484v39.688h4.284c2.803 0 5.514.987 7.659 2.787 1.539 1.291 3.38 2.173 5.352 2.562l39.114 7.718c8.409 1.66 17.062 1.66 25.471 0l35.765-7.057c3.694-.73 6.355-3.964 6.355-7.723v-7.895c0-4.961-4.538-8.685-9.411-7.723"/>
        <path fill="#D1D3D4" d="M174.13 251.234l-35.766 6.964c-8.409 1.638-17.062 1.638-25.47 0l-39.115-7.616c-1.973-.385-3.813-1.254-5.35-2.53-2.147-1.774-4.858-2.75-7.66-2.75h-4.285v10.574h4.284c2.803 0 5.514.975 7.66 2.75 1.538 1.275 3.378 2.145 5.351 2.53l39.114 7.616c8.409 1.637 17.062 1.637 25.471 0l35.765-6.965c3.694-.719 6.355-3.912 6.355-7.622v-7.792c0-.476-.043-.941-.125-1.393-.57 3.095-3.006 5.605-6.23 6.234"/>
        <path fill="#D1E391" d="M48.693 273h-9.417c-4.302 0-7.792-3.548-7.792-7.926v-55.148c0-4.378 3.49-7.926 7.792-7.926h9.417c4.302 0 7.79 3.548 7.79 7.926v55.148c0 4.378-3.488 7.926-7.79 7.926"/>
        <path fill="#509D9B" d="M48.693 255.759h-9.417c-4.302 0-7.792-3.474-7.792-7.759v17.241c0 4.284 3.49 7.759 7.792 7.759h9.417c4.302 0 7.79-3.475 7.79-7.759V248c0 4.285-3.488 7.759-7.79 7.759"/>
        <path fill="#D1D3D4" d="M112.979 238.254v-3.887c0-1.43 1.17-2.592 2.612-2.592h15.863c4.046 0 7.669-2.95 8.003-6.95.022-.277.031-.552.025-.825h-22c-6.436 0-11.497 5.46-10.959 11.824.458 5.395 4.834 9.643 10.282 9.977l3.251.199c-4.02-.341-7.077-3.745-7.077-7.746"/>
        <path fill="#427E7C" d="M191.384 18.993c6.885-15.976 25.34-23.31 41.221-16.382 15.88 6.927 23.17 25.494 16.284 41.468-6.887 15.976-25.341 23.309-41.22 16.382-1.138-.496-2.23-1.05-3.277-1.661l-15.088 5.996c-2.31.918-4.57-1.431-3.582-3.724l6.529-15.146c-4.126-8.101-4.748-17.93-.867-26.933"/>
        <path fill="#6BA997" d="M191.334 18.656c.399-.915.84-1.798 1.313-2.656-5.03 15.296 2.377 32.169 17.5 38.7 15.126 6.53 32.56.382 40.337-13.727-.306.93-.652 1.853-1.05 2.768-6.845 15.716-25.004 23.07-40.867 16.707l-21.225 8.348c-2.333.918-4.616-1.432-3.618-3.723l1.888-4.338c-.995 2.293 1.288 4.64 3.62 3.722l15.245-5.996c-13.714-7.91-19.602-24.975-13.143-39.805"/>
        <path fill="#6BA997" d="M220.984 11c-3.038 0-5.5 2.365-5.5 5.283v15.433c0 .365.038.722.112 1.065.018.087.038.172.06.256.045.17.1.334.161.496.71 1.861 2.478 3.233 4.605 3.44.092.01.185.016.28.02.091.004.188.007.282.007 3.037 0 5.5-2.365 5.5-5.284V16.283c0-2.918-2.463-5.283-5.5-5.283M220.984 40c-3.038 0-5.5 2.461-5.5 5.5 0 .379.038.75.112 1.108.018.09.038.178.06.266.045.177.1.348.161.516.71 1.939 2.478 3.365 4.605 3.581.092.01.185.017.28.021.091.005.188.008.282.008 3.037 0 5.5-2.462 5.5-5.5 0-3.039-2.463-5.5-5.5-5.5"/>
        <path fill="#EFD771" d="M220.983 35c3.038 0 5.5-2.365 5.5-5.284V14.283c0-2.918-2.462-5.283-5.5-5.283-3.037 0-5.5 2.365-5.5 5.283v15.433c0 2.919 2.463 5.284 5.5 5.284"/>
        <path fill="#F7CB15" d="M220.983 31.515c3.038 0 5.5-2.47 5.5-5.515v3.483c0 3.048-2.462 5.517-5.5 5.517-3.037 0-5.5-2.47-5.5-5.517V26c0 3.046 2.463 5.515 5.5 5.515"/>
        <path fill="#EFD771" d="M220.983 49c3.038 0 5.5-2.462 5.5-5.5 0-3.039-2.462-5.5-5.5-5.5-3.037 0-5.5 2.461-5.5 5.5 0 3.038 2.463 5.5 5.5 5.5"/>
        <path fill="#F7CB15" d="M220.983 45.639c2.428 0 4.465-1.53 5.194-3.639.184.53.307 1.089.307 1.68 0 2.938-2.463 5.32-5.5 5.32-3.038 0-5.5-2.382-5.5-5.32 0-.591.122-1.15.307-1.68.729 2.109 2.765 3.639 5.192 3.639"/>
        <path fill="#646464" d="M92.984 78c.828 0 1.5-.672 1.5-1.5V72h4.5c.828 0 1.5-.672 1.5-1.5 0-.83-.672-1.5-1.5-1.5h-6c-.83 0-1.5.67-1.5 1.5v6c0 .828.67 1.5 1.5 1.5M151.984 69h-6c-.83 0-1.5.67-1.5 1.5 0 .828.67 1.5 1.5 1.5h4.5v4.5c0 .828.67 1.5 1.5 1.5.828 0 1.5-.672 1.5-1.5v-6c0-.83-.672-1.5-1.5-1.5M98.984 128h-4.5v-4.5c0-.83-.672-1.5-1.5-1.5-.83 0-1.5.67-1.5 1.5v6c0 .828.67 1.5 1.5 1.5h6c.828 0 1.5-.672 1.5-1.5 0-.83-.672-1.5-1.5-1.5M151.984 122c-.83 0-1.5.67-1.5 1.5v4.5h-4.5c-.83 0-1.5.67-1.5 1.5 0 .828.67 1.5 1.5 1.5h6c.828 0 1.5-.672 1.5-1.5v-6c0-.83-.672-1.5-1.5-1.5M103.484 84h3v-3h-3v3zm-3 1.5c0 .83.67 1.5 1.5 1.5h6c.828 0 1.5-.67 1.5-1.5v-6c0-.83-.672-1.5-1.5-1.5h-6c-.83 0-1.5.67-1.5 1.5v6zM138.484 84h3v-3h-3v3zm-1.5 3h6c.828 0 1.5-.67 1.5-1.5v-6c0-.83-.672-1.5-1.5-1.5h-6c-.83 0-1.5.67-1.5 1.5v6c0 .83.67 1.5 1.5 1.5zM103.484 119h3v-3h-3v3zm4.5-6h-6c-.83 0-1.5.67-1.5 1.5v6c0 .83.67 1.5 1.5 1.5h6c.828 0 1.5-.67 1.5-1.5v-6c0-.83-.672-1.5-1.5-1.5zM136.984 119h-4.5v-4.5c0-.83-.672-1.5-1.5-1.5-.83 0-1.5.67-1.5 1.5v6c0 .828.67 1.5 1.5 1.5h6c.828 0 1.5-.672 1.5-1.5 0-.83-.672-1.5-1.5-1.5M144.484 110.625c0-.898-.672-1.625-1.5-1.625-.83 0-1.5.727-1.5 1.625v9.75c0 .897.67 1.625 1.5 1.625.828 0 1.5-.728 1.5-1.625v-9.75z"/>
        <path fill="#646464" d="M144.484 104.625c0-.898-.672-1.625-1.5-1.625h-6c-.83 0-1.5.727-1.5 1.625v9.75c0 .897.67 1.625 1.5 1.625.828 0 1.5-.728 1.5-1.625v-8.125h4.5c.828 0 1.5-.728 1.5-1.625M130.859 109c.897 0 1.625-.672 1.625-1.5v-3c0-.83-.728-1.5-1.625-1.5h-9.75c-.899 0-1.625.67-1.625 1.5 0 .828.726 1.5 1.625 1.5h8.125v1.5c0 .828.726 1.5 1.625 1.5M114.984 116h3c.828 0 1.5-.672 1.5-1.5 0-.83-.672-1.5-1.5-1.5h-3c-.83 0-1.5.67-1.5 1.5 0 .828.67 1.5 1.5 1.5"/>
        <path fill="#646464" d="M123.859 109c-.899 0-1.625.727-1.625 1.625v8.125h-8.125c-.899 0-1.625.727-1.625 1.625 0 .897.726 1.625 1.625 1.625h9.75c.897 0 1.625-.728 1.625-1.625v-9.75c0-.898-.728-1.625-1.625-1.625M102.084 103c-.885 0-1.6.67-1.6 1.5v3c0 .828.715 1.5 1.6 1.5h12.8c.883 0 1.6-.672 1.6-1.5v-3c0-.83-.717-1.5-1.6-1.5-.885 0-1.6.67-1.6 1.5v1.5h-9.6v-1.5c0-.83-.717-1.5-1.6-1.5M114.067 81h14.25v4.5c0 .828.708 1.5 1.583 1.5.874 0 1.584-.672 1.584-1.5v-6c0-.83-.71-1.5-1.584-1.5h-15.833c-.875 0-1.583.67-1.583 1.5 0 .828.708 1.5 1.583 1.5"/>
        <path fill="#646464" d="M114.109 87h9.75c.897 0 1.625-.672 1.625-1.5 0-.83-.728-1.5-1.625-1.5h-9.75c-.899 0-1.625.67-1.625 1.5 0 .828.726 1.5 1.625 1.5M136.859 94c.897 0 1.625-.672 1.625-1.5 0-.83-.728-1.5-1.625-1.5h-9.75c-.899 0-1.625.67-1.625 1.5 0 .828.726 1.5 1.625 1.5h9.75z"/>
        <path fill="#646464" d="M148.9 100c.874 0 1.584-.672 1.584-1.5 0-.83-.71-1.5-1.584-1.5h-4.75v-4.5c0-.83-.709-1.5-1.583-1.5-.875 0-1.583.67-1.583 1.5V97h-19v-4.5c0-.83-.71-1.5-1.584-1.5-.875 0-1.583.67-1.583 1.5V97h-15.833v-3h11.083c.874 0 1.583-.672 1.583-1.5 0-.83-.709-1.5-1.583-1.5H101.4c-.875 0-1.583.67-1.583 1.5V97h-4.75c-.875 0-1.583.67-1.583 1.5 0 .828.708 1.5 1.583 1.5H148.9z"/>
    </g>
</svg>
