<svg xmlns="http://www.w3.org/2000/svg" xmlns:xlink="http://www.w3.org/1999/xlink" width="376" height="247" viewBox="0 0 376 247">
    <defs>
        <path id="prefix__a" d="M0 0.198L297.743 0.198 297.743 178.751 0 178.751z"/>
        <path id="prefix__c" d="M0.361 0.539L42.72 0.539 42.72 42.889 0.361 42.889z"/>
        <path id="prefix__e" d="M0.314 0.927L181.429 0.927 181.429 182.002 0.314 182.002z"/>
        <path id="prefix__g" d="M0 247.073L375.72 247.073 375.72 1 0 1z"/>
    </defs>
    <g fill="none" fill-rule="evenodd" transform="translate(0 -1)">
        <g transform="translate(0 2.073)">
            <mask id="prefix__b" fill="#fff">
                <use xlink:href="#prefix__a"/>
            </mask>
            <path fill="#D2E7ED" d="M269.426 178.75H28.319c-15.64 0-28.32-12.678-28.32-28.317V28.516C0 12.876 12.68.198 28.32.198h241.107c15.64 0 28.317 12.678 28.317 28.318v121.917c0 15.639-12.677 28.318-28.317 28.318" mask="url(#prefix__b)"/>
        </g>
        <path fill="#FFF" d="M51.605 29.417c0 8.231-6.672 14.904-14.903 14.904-8.232 0-14.905-6.673-14.905-14.904 0-8.23 6.672-14.904 14.905-14.904 8.23 0 14.904 6.673 14.904 14.904"/>
        <path stroke="#BD8A39" d="M51.605 29.417c0 8.231-6.672 14.904-14.903 14.904-8.232 0-14.905-6.673-14.905-14.904 0-8.23 6.672-14.904 14.905-14.904 8.23 0 14.904 6.673 14.904 14.904z"/>
        <path fill="#006DBB" d="M48.857 29.319c0 6.713-5.442 12.156-12.156 12.156s-12.156-5.443-12.156-12.156c0-6.714 5.442-12.156 12.156-12.156s12.156 5.442 12.156 12.156"/>
        <path stroke="#BD8A39" stroke-width=".816" d="M48.857 29.319c0 6.713-5.442 12.156-12.156 12.156s-12.156-5.443-12.156-12.156c0-6.714 5.442-12.156 12.156-12.156s12.156 5.442 12.156 12.156z"/>
        <g>
            <path fill="#FFF" d="M15.35 8.246c0 4.224-3.424 7.648-7.648 7.648S.052 12.47.052 8.246 3.479.598 7.703.598s7.648 3.424 7.648 7.648" transform="translate(29 21.073)"/>
            <path stroke="#231815" stroke-width=".816" d="M15.35 8.246c0 4.224-3.424 7.648-7.648 7.648S.052 12.47.052 8.246 3.479.598 7.703.598s7.648 3.424 7.648 7.648z" transform="translate(29 21.073)"/>
        </g>
        <path stroke="#BD8A39" d="M27.691 27.564s7.66-6.807 18.021 7.146"/>
        <path fill="#D0D2D3" d="M308.902 76.127v135.367c0 12.975-21.885 23.494-48.883 23.494H52.133c-7.115 0-13.797-.871-19.63-2.403-3.186-2.803-4.999-6.015-4.999-9.435V91.538c0-10.876 12.528-27.25 29.086-27.25h227.682c7.115 0 13.798.873 19.631 2.404 3.186 2.803 5 6.015 5 9.435"/>
        <path fill="#F8F6DE" d="M301.146 247.073H60.038c-15.64 0-28.317-12.678-28.317-28.318V96.839c0-15.64 12.677-28.32 28.317-28.32h241.108c15.64 0 28.317 12.68 28.317 28.32v121.916c0 15.64-12.678 28.318-28.317 28.318"/>
        <path fill="#F6D85E" d="M175.347 198.208H55.955c-4.21 0-7.623-3.413-7.623-7.623 0-4.21 3.413-7.623 7.623-7.623h119.392c4.21 0 7.623 3.413 7.623 7.623 0 4.21-3.413 7.623-7.623 7.623"/>
        <path fill="#AAACAE" d="M225.517 100.57H106.126c-4.21 0-7.623-3.413-7.623-7.623 0-4.21 3.413-7.624 7.623-7.624h119.39c4.21 0 7.624 3.414 7.624 7.624 0 4.21-3.413 7.623-7.623 7.623M309.983 224.694H55.955c-4.21 0-7.623-3.413-7.623-7.623 0-4.21 3.413-7.623 7.623-7.623h254.028c4.21 0 7.623 3.413 7.623 7.623 0 4.21-3.413 7.623-7.623 7.623"/>
        <g transform="translate(333 140.073)">
            <mask id="prefix__d" fill="#fff">
                <use xlink:href="#prefix__c"/>
            </mask>
            <path fill="#FFF" d="M25.914 40.006L.361 14.46 14.284.54l25.553 25.547c3.845 3.844 3.845 10.076 0 13.92-3.845 3.844-10.078 3.844-13.923 0" mask="url(#prefix__d)"/>
        </g>
        <path fill="#D0D2D3" d="M363.252 175.742l-25.553-25.547-4.338 4.337 25.553 25.547c3.845 3.844 10.078 3.844 13.923 0 .758-.758 1.363-1.608 1.822-2.515-3.694 1.87-8.32 1.264-11.407-1.822"/>
        <g transform="translate(190 .073)">
            <mask id="prefix__f" fill="#fff">
                <use xlink:href="#prefix__e"/>
            </mask>
            <path fill="#FFF" d="M90.871 163.757c-15.819 0-30.454-5.078-42.359-13.7-18.147-13.13-29.949-34.483-29.949-58.592 0-1.72.06-3.424.178-5.115 2.626-37.54 33.914-67.178 72.13-67.178 39.935 0 72.31 32.367 72.31 72.293 0 39.925-32.375 72.292-72.31 72.292m0-162.83C41.051.927.631 41.145.318 90.88c-.004.193-.004.39-.004.585 0 28.098 12.802 53.206 32.892 69.812 15.661 12.945 35.755 20.725 57.665 20.725 50.015 0 90.558-40.534 90.558-90.537C181.43 41.46 140.886.927 90.871.927" mask="url(#prefix__f)"/>
        </g>
        <path fill="#D0D2D3" d="M280.871 163.832c-39.936 0-72.31-32.368-72.31-72.294 0-39.928 32.374-72.295 72.31-72.295s72.311 32.367 72.311 72.295c0 39.926-32.375 72.294-72.31 72.294m0-153.355c-44.779 0-81.079 36.292-81.079 81.06 0 44.769 36.3 81.062 81.078 81.062 44.778 0 81.08-36.293 81.08-81.061 0-44.77-36.302-81.061-81.08-81.061"/>
        <mask id="prefix__h" fill="#fff">
            <use xlink:href="#prefix__g"/>
        </mask>
        <path fill="#FFF" d="M267.322 133.133L294.42 133.133 294.42 100.255 267.322 100.255zM246.844 83.278h-1.121c-2.905 0-5.261-2.355-5.261-5.261v-9.991c0-2.906 2.356-5.262 5.26-5.262h1.122c2.905 0 5.26 2.356 5.26 5.262v9.991c0 2.906-2.355 5.261-5.26 5.261" mask="url(#prefix__h)"/>
        <path fill="#D0D2D3" d="M246.283 80.536c-3.215 0-5.82-2.606-5.82-5.82v2.741c0 3.215 2.605 5.821 5.82 5.821 3.215 0 5.822-2.606 5.822-5.82v-2.742c0 3.214-2.607 5.82-5.822 5.82" mask="url(#prefix__h)"/>
        <path fill="#FFF" d="M316.02 83.278h-1.12c-2.906 0-5.262-2.355-5.262-5.261v-9.991c0-2.906 2.356-5.262 5.262-5.262h1.12c2.906 0 5.262 2.356 5.262 5.262v9.991c0 2.906-2.356 5.261-5.262 5.261" mask="url(#prefix__h)"/>
        <path fill="#D0D2D3" d="M315.46 80.536c-3.216 0-5.822-2.606-5.822-5.82v2.741c0 3.215 2.606 5.821 5.822 5.821 3.215 0 5.821-2.606 5.821-5.82v-2.742c0 3.214-2.606 5.82-5.821 5.82" mask="url(#prefix__h)"/>
        <path fill="#FFF" d="M246.792 60.447c1.126-5.789 3.691-11.063 7.312-15.434 1.046-1.268 2.183-2.456 3.398-3.563 6.169-5.62 14.368-9.04 23.369-9.04.4 0 .803.008 1.201.025.136 0 .272.006.404.012 8.954.406 17.017 4.2 22.953 10.133 5.286 5.285 8.876 12.272 9.881 20.067.189 1.468.288 2.964.288 4.482v6.875c0 19.176-15.546 34.718-34.727 34.718-19.177 0-34.725-15.541-34.725-34.718V67.13c0-1.475.09-2.927.27-4.35l.376-2.332z" mask="url(#prefix__h)"/>
        <path fill="#D0D2D3" d="M280.871 103.24c-19.177 0-34.726-15.544-34.726-34.72v5.484c0 19.176 15.55 34.718 34.726 34.718 19.181 0 34.727-15.542 34.727-34.718V68.52c0 19.176-15.546 34.72-34.727 34.72" mask="url(#prefix__h)"/>
        <path fill="#4B6084" d="M246.751 60.65h3.426v16.636c0 1.035-.759 1.957-1.789 2.053-1.183.11-2.174-.815-2.174-1.97V65.372c0-1.59.181-3.174.537-4.723M315.598 64.938v12.14c0 1.035-.756 1.96-1.786 2.059-1.182.114-2.177-.812-2.177-1.97v-16.72h3.319c.427 1.459.644 2.97.644 4.49" mask="url(#prefix__h)"/>
        <path fill="#4B6084" d="M282.072 32.434c-3.512 5.48-12.219 17.33-26.32 25.662-3.394 2.003-6.51 3.532-9.336 4.682.003-.003.003-.01.003-.013.84-6.699 3.587-12.806 7.685-17.752 1.046-1.269 2.183-2.456 3.398-3.563 6.17-5.62 14.368-9.04 23.37-9.04.398 0 .802.007 1.2.024" mask="url(#prefix__h)"/>
        <path fill="#808F91" d="M315.31 62.647c-4.727 1.43-14.043 2.78-28.838-1.086-14.96-3.908-26.313-11.66-32.367-16.548 1.046-1.268 2.183-2.456 3.397-3.562 6.169-5.62 14.369-9.04 23.37-9.04.535 0 1.073.01 1.604.037 8.954.406 17.018 4.199 22.953 10.133 5.286 5.284 8.876 12.27 9.88 20.066" mask="url(#prefix__h)"/>
        <path fill="#4B6084" d="M286.472 41.26c-6.551-1.71-12.41-4.158-17.436-6.78-4.304 1.56-8.213 3.946-11.534 6.97-1.215 1.107-2.351 2.294-3.397 3.563 6.054 4.889 17.407 12.64 32.367 16.547 14.795 3.868 24.11 2.517 28.838 1.087-.933-7.24-4.098-13.777-8.776-18.906-5.031.228-11.663-.285-20.062-2.48" mask="url(#prefix__h)"/>
        <path fill="#808F91" d="M286.472 48.028c-9.564-2.5-17.652-6.567-23.825-10.456-1.835 1.133-3.558 2.432-5.145 3.878-1.215 1.106-2.351 2.294-3.397 3.563 6.054 4.889 17.407 12.64 32.367 16.547 14.795 3.867 24.11 2.517 28.838 1.087-.584-4.53-2.045-8.782-4.2-12.59-5.306.834-13.386.911-24.638-2.03" mask="url(#prefix__h)"/>
        <path fill="#4B6084" d="M286.472 54.794c-12.273-3.206-22.115-8.997-28.6-13.674l-.37.33c-1.215 1.107-2.351 2.294-3.397 3.563 6.054 4.888 17.407 12.64 32.367 16.547 14.795 3.867 24.11 2.517 28.838 1.087-.282-2.196-.777-4.324-1.451-6.37-5.071 1.241-13.98 2.021-27.387-1.483" mask="url(#prefix__h)"/>
        <path fill="#A62873" d="M281.24 85.504h-.738c-1.914 0-3.466-1.552-3.466-3.467v-5.782c0-1.914 1.552-3.466 3.466-3.466h.738c1.915 0 3.467 1.552 3.467 3.466v5.782c0 1.915-1.552 3.467-3.467 3.467" mask="url(#prefix__h)"/>
        <path fill="#2C416D" d="M339.592 133.726c-11.482 15.955-29.316 27.04-49.797 29.559-.873.107-1.754.197-2.635.273-2.047.178-4.116.268-6.21.272h-.08c-2.116 0-4.213-.091-6.287-.272-.888-.076-1.77-.166-2.65-.277-20.477-2.523-38.307-13.608-49.79-29.563 4.464-8.933 13.699-15.07 24.36-15.07h11.815l8.16 26.75.86 2.817h27.055l.856-2.816h.004l8.16-26.751h11.816c10.665 0 19.899 6.137 24.363 15.078" mask="url(#prefix__h)"/>
        <path fill="#FFF" d="M295.249 145.4l-.856 2.815-4.598 15.07c-.873.107-1.754.197-2.635.272-2.047.178-4.116.27-6.21.273h-.079c-2.117 0-4.214-.09-6.288-.273-.889-.075-1.77-.165-2.65-.276l-4.594-15.066-.861-2.816 7.477-6.377h.004l6.9-5.889 6.937 5.912 7.453 6.354z" mask="url(#prefix__h)"/>
        <path fill="#A62873" d="M267.674 69.797c0 1.62-1.312 2.932-2.933 2.932-1.62 0-2.932-1.313-2.932-2.932 0-1.62 1.312-2.932 2.932-2.932 1.62 0 2.933 1.312 2.933 2.932M299.935 69.797c0 1.62-1.313 2.932-2.933 2.932-1.62 0-2.932-1.313-2.932-2.932 0-1.62 1.312-2.932 2.932-2.932 1.62 0 2.933 1.312 2.933 2.932M280.871 95.762c-3.594 0-7.188-1.368-9.925-4.104-.349-.35-.349-.916 0-1.265.35-.35.916-.35 1.265 0 4.775 4.774 12.545 4.774 17.32 0 .35-.35.916-.35 1.266 0 .348.349.348.915 0 1.265-2.737 2.736-6.33 4.104-9.926 4.104" mask="url(#prefix__h)"/>
        <path fill="#E7AD26" d="M287.16 163.557c-2.047.178-4.116.27-6.21.272h-.079c-2.117 0-4.214-.09-6.288-.272l.154-1.76v-.005l.522-5.92.181-2.085v-.008l.198-2.275.292-3.289.028-.324.351-3.969h9.124l.352 3.97.027.323.601 6.816v.004l.407 4.625.34 3.897z" mask="url(#prefix__h)"/>
        <path fill="#E8CD5D" d="M286.819 159.658L275.256 155.872 275.639 151.507 286.412 155.033z" mask="url(#prefix__h)"/>
        <path fill="#F6D85E" d="M280.95 163.83h-.079c-2.117 0-4.214-.091-6.288-.272l.154-1.762 6.213 2.034z" mask="url(#prefix__h)"/>
        <path fill="#E8CD5D" d="M283.992 148.214h-6.242c-3.52 0-5.95-3.524-4.697-6.814l1.915-5.03c.742-1.948 2.612-3.238 4.698-3.238h2.411c2.086 0 3.955 1.29 4.698 3.238l1.915 5.03c1.253 3.29-1.177 6.814-4.698 6.814" mask="url(#prefix__h)"/>
        <path fill="#E2854A" d="M303.416 118.65L303.416 118.65 294.421 113.582 280.871 133.133 295.252 145.401zM258.315 118.65L258.315 118.65 267.308 113.582 280.858 133.133 266.478 145.401z" mask="url(#prefix__h)"/>
        <path fill="#D0D2D3" d="M294.407 109.849L280.871 124.636 280.858 124.636 267.322 109.849 267.308 113.581 280.858 133.133 280.871 133.133 294.421 113.581z" mask="url(#prefix__h)"/>
        <path fill="#079690" d="M244.137 118.754c-9.648.833-17.864 6.7-21.993 14.964 5.847 8.125 13.343 14.982 21.993 20.094v-35.058zM317.606 118.755v35.058c8.647-5.11 16.141-11.966 21.985-20.087-4.128-8.269-12.339-14.136-21.985-14.97" mask="url(#prefix__h)"/>
        <path fill="#D0D2D3" d="M280.865 163.891c-.479 6.348-2.502 12.554-5.975 18.011-25.997-1.899-50.98-14.949-67.263-37.85-.113-.16-.227-.32-.335-.48 2.756-5.51 6.87-10.445 12.243-14.264.05-.034.097-.068.147-.099.883 1.446 1.824 2.871 2.82 4.271 13.97 19.651 35.964 30.22 58.363 30.411" mask="url(#prefix__h)"/>
        <path fill="#3B85B9" d="M279.36 163.826c0 21.479-17.415 38.89-38.898 38.89-21.484 0-38.9-17.411-38.9-38.89 0-21.48 17.416-38.891 38.9-38.891 21.483 0 38.898 17.412 38.898 38.89" mask="url(#prefix__h)"/>
        <path fill="#AD4A90" d="M272.53 163.826c0 17.707-14.357 32.062-32.068 32.062-17.712 0-32.07-14.355-32.07-32.062 0-17.708 14.358-32.063 32.07-32.063 17.711 0 32.068 14.355 32.068 32.063" mask="url(#prefix__h)"/>
        <path fill="#FFF" d="M240.462 134.36c17.275 0 31.354 13.66 32.036 30.764.017-.43.032-.863.032-1.298 0-17.707-14.357-32.063-32.068-32.063-17.712 0-32.07 14.356-32.07 32.063 0 .435.016.868.034 1.299.682-17.106 14.76-30.764 32.036-30.764" mask="url(#prefix__h)"/>
        <path fill="#FFF" d="M233.611 182.43L217.796 166.618 223.382 161.033 233.611 171.26 255.237 149.638 260.824 155.223z" mask="url(#prefix__h)"/>
        <path fill="#DD0816" d="M48.332 105.22L87.955 105.22 87.955 80.673 48.332 80.673z" mask="url(#prefix__h)"/>
        <path fill="#1F286F" d="M48.332 91.548L61.504 91.548 61.504 80.673 48.332 80.673z" mask="url(#prefix__h)"/>
        <text fill="#1B4875" font-family="PingFangTC-Semibold, PingFang TC" font-size="32" font-weight="500" letter-spacing="8.257">
            <tspan x="61.614" y="158">身份證</tspan>
        </text>
        <text fill="#1B4875" font-family="PingFangTC-Semibold, PingFang TC" font-size="32" font-weight="500" letter-spacing="8.257">
            <tspan x="70.614" y="46">居留證</tspan>
        </text>
    </g>
</svg>
