<?xml version="1.0" encoding="UTF-8"?>
<svg width="312px" height="297px" viewBox="0 0 312 297" version="1.1" xmlns="http://www.w3.org/2000/svg" xmlns:xlink="http://www.w3.org/1999/xlink">
    <!-- Generator: Sketch 61.1 (89650) - https://sketch.com -->
    <title>Group 109</title>
    <desc>Created with Sketch.</desc>
    <defs>
        <path d="M0.53,54.685 C0.53,84.569 24.461,108.8 53.975,108.8 L53.975,108.8 C83.495,108.8 107.424,84.569 107.424,54.685 L107.424,54.685 C107.424,24.794 83.495,0.566 53.975,0.566 L53.975,0.566 C24.458,0.566 0.53,24.794 0.53,54.685 L0.53,54.685 Z" id="path-1"></path>
        <path d="M0.605,10.682 C0.605,16.035 4.951,20.382 10.302,20.382 L10.302,20.382 C15.653,20.382 19.997,16.035 19.997,10.682 L19.997,10.682 C19.997,5.327 15.653,0.986 10.302,0.986 L10.302,0.986 C4.951,0.986 0.605,5.327 0.605,10.682 L0.605,10.682 Z" id="path-3"></path>
        <path d="M0.432,0.633 C0.432,21.086 17.004,37.667 37.448,37.667 L37.448,37.667 L37.448,0.633 L0.432,0.633 Z" id="path-5"></path>
        <path d="M0.432,37.734 L37.448,37.734 L37.448,0.7 C17.004,0.7 0.432,17.281 0.432,37.734 L0.432,37.734 Z" id="path-7"></path>
        <path d="M0.506,37.734 L37.521,37.734 C37.521,17.281 20.95,0.7 0.506,0.7 L0.506,0.7 L0.506,37.734 Z" id="path-9"></path>
        <path d="M0.506,0.638 L0.506,37.672 C20.95,37.672 37.521,21.092 37.521,0.638 L37.521,0.638 L0.506,0.638 Z" id="path-11"></path>
    </defs>
    <g id="懶人包" stroke="none" stroke-width="1" fill="none" fill-rule="evenodd">
        <g id="小資振興_懶人包_800振興" transform="translate(-1123.000000, -524.000000)">
            <g id="Group-109" transform="translate(1123.000000, 523.000000)">
                <polygon id="Fill-1" fill="#175F6C" points="110.43 184.967 295.521 184.967 295.521 66.477 110.43 66.477"></polygon>
                <polygon id="Fill-2" fill="#1C7685" points="102.618 200.374 303.333 200.374 303.333 80.354 102.618 80.354"></polygon>
                <polygon id="Fill-3" fill="#F8E482" points="94.547 214.253 311.405 214.253 311.405 94.234 94.547 94.234"></polygon>
                <g id="Group-6" transform="translate(149.000000, 99.560000)">
                    <mask id="mask-2" fill="white">
                        <use xlink:href="#path-1"></use>
                    </mask>
                    <g id="Clip-5"></g>
                    <polygon id="Fill-4" fill="#FFFFFF" mask="url(#mask-2)" points="-0.404 109.733 108.357 109.733 108.357 -0.367 -0.404 -0.367"></polygon>
                </g>
                <g id="Group-9" transform="translate(274.000000, 143.560000)">
                    <mask id="mask-4" fill="white">
                        <use xlink:href="#path-3"></use>
                    </mask>
                    <g id="Clip-8"></g>
                    <polygon id="Fill-7" fill="#2EAAAD" mask="url(#mask-4)" points="-0.328 21.314 20.93 21.314 20.93 0.052 -0.328 0.052"></polygon>
                </g>
                <g id="Group-12" transform="translate(274.000000, 93.560000)">
                    <mask id="mask-6" fill="white">
                        <use xlink:href="#path-5"></use>
                    </mask>
                    <g id="Clip-11"></g>
                    <polygon id="Fill-10" fill="#1D899B" mask="url(#mask-6)" points="-0.501 38.599 38.381 38.599 38.381 -0.301 -0.501 -0.301"></polygon>
                </g>
                <g id="Group-15" transform="translate(274.000000, 176.560000)">
                    <mask id="mask-8" fill="white">
                        <use xlink:href="#path-7"></use>
                    </mask>
                    <g id="Clip-14"></g>
                    <polygon id="Fill-13" fill="#1D899B" mask="url(#mask-8)" points="-0.501 38.667 38.381 38.667 38.381 -0.233 -0.501 -0.233"></polygon>
                </g>
                <path d="M121.6507,144.545 C127.0017,144.545 131.3467,148.892 131.3467,154.246 C131.3467,159.599 127.0017,163.941 121.6507,163.941 C116.3007,163.941 111.9557,159.599 111.9557,154.246 C111.9557,148.892 116.3007,144.545 121.6507,144.545" id="Fill-16" fill="#2EAAAD"></path>
                <g id="Group-20" transform="translate(94.000000, 176.560000)">
                    <mask id="mask-10" fill="white">
                        <use xlink:href="#path-9"></use>
                    </mask>
                    <g id="Clip-19"></g>
                    <polygon id="Fill-18" fill="#1D899B" mask="url(#mask-10)" points="-0.427 38.667 38.455 38.667 38.455 -0.233 -0.427 -0.233"></polygon>
                </g>
                <g id="Group-23" transform="translate(94.000000, 93.560000)">
                    <mask id="mask-12" fill="white">
                        <use xlink:href="#path-11"></use>
                    </mask>
                    <g id="Clip-22"></g>
                    <polygon id="Fill-21" fill="#1D899B" mask="url(#mask-12)" points="0.5555 0.3088 39.6695 0.2728 39.6695 39.1738 0.5065 39.5078"></polygon>
                </g>
                <g id="Group-108" transform="translate(0.000000, 0.560000)">
                    <path d="M111.909,199.9689 L111.909,223.4509 C111.909,227.0919 114.871,230.0449 118.523,230.0449 L125.686,230.0449 L125.686,223.8919 C125.686,213.6869 120.15,204.7719 111.909,199.9689 M181.329,216.3859 C180.171,214.9809 178.094,214.7789 176.689,215.9339 C178.094,214.7789 178.297,212.7079 177.142,211.3069 C175.988,209.9019 173.908,209.6999 172.502,210.8509 C173.908,209.6999 174.114,207.6299 172.956,206.2239 C172.307,205.4339 171.363,205.0259 170.407,205.0259 C169.673,205.0259 168.931,205.2689 168.316,205.7719 L177.743,198.0489 C179.153,196.8979 179.356,194.8279 178.201,193.4269 C177.043,192.0219 174.966,191.8189 173.561,192.9699 L157.371,206.2319 C155.87,204.5219 153.27,204.2939 151.499,205.7469 C150.481,206.5809 149.953,207.7879 149.953,209.0089 C149.953,209.9089 150.245,210.8179 150.835,211.5869 L150.083,212.2009 C147.582,214.2489 146.143,217.1109 145.837,220.0819 C141.241,219.6699 136.52,221.3989 133.292,225.1609 L129.098,230.0449 L169.843,230.0449 L175.261,225.6099 L180.871,221.0119 C182.281,219.8579 182.484,217.7869 181.329,216.3859" id="Fill-24" fill="#B7B3AD"></path>
                    <polygon id="Fill-26" fill="#FFFFFF" points="49.02 207.257 76.67 207.257 76.67 173.802 49.02 173.802"></polygon>
                    <path d="M98.1302,156.527 L98.1482,156.527 C101.4232,156.527 104.0792,153.871 104.0792,150.595 L104.0792,141.584 C104.0792,138.308 101.4232,135.652 98.1482,135.652 L98.1302,135.652 C94.8542,135.652 92.1982,138.308 92.1982,141.584 L92.1982,150.595 C92.1982,153.871 94.8542,156.527 98.1302,156.527" id="Fill-28" fill="#FFFFFF"></path>
                    <path d="M98.139,153.737 L98.139,153.737 C101.42,153.737 104.079,151.086 104.079,147.815 L104.079,150.604 C104.079,153.875 101.42,156.527 98.139,156.527 C94.858,156.527 92.199,153.875 92.199,150.604 L92.199,147.815 C92.199,151.086 94.858,153.737 98.139,153.737" id="Fill-29" fill="#D0D2D3"></path>
                    <path d="M27.5433,156.527 L27.5613,156.527 C30.8363,156.527 33.4923,153.871 33.4923,150.595 L33.4923,141.584 C33.4923,138.308 30.8363,135.652 27.5613,135.652 L27.5433,135.652 C24.2673,135.652 21.6113,138.308 21.6113,141.584 L21.6113,150.595 C21.6113,153.871 24.2673,156.527 27.5433,156.527" id="Fill-30" fill="#FFFFFF"></path>
                    <path d="M27.552,153.737 L27.552,153.737 C30.833,153.737 33.492,151.086 33.492,147.815 L33.492,150.604 C33.492,153.875 30.833,156.527 27.552,156.527 C24.271,156.527 21.612,153.875 21.612,150.604 L21.612,147.815 C21.612,151.086 24.271,153.737 27.552,153.737" id="Fill-31" fill="#D0D2D3"></path>
                    <path d="M97.6204,133.2951 C96.4704,127.4051 93.8534,122.0381 90.1584,117.5891 C89.0914,116.2981 87.9314,115.0901 86.6914,113.9641 C80.3964,108.2461 72.0304,104.7661 62.8454,104.7661 C62.4384,104.7661 62.0274,104.7731 61.6194,104.7901 C61.4814,104.7901 61.3434,104.7961 61.2084,104.8031 C52.0724,105.2161 43.8444,109.0761 37.7874,115.1141 C32.3934,120.4921 28.7304,127.6011 27.7044,135.5331 C27.5114,137.0271 27.4114,138.5481 27.4114,140.0941 L27.4114,147.0901 C27.4114,166.6031 43.2744,182.4191 62.8454,182.4191 C82.4134,182.4191 98.2794,166.6031 98.2794,147.0901 L98.2794,140.0941 C98.2794,138.5931 98.1864,137.1161 98.0034,135.6671 L97.6204,133.2951 Z" id="Fill-32" fill="#FFFFFF"></path>
                    <path d="M62.8455,176.839 C82.4135,176.839 98.2795,161.023 98.2795,141.51 L98.2795,147.09 C98.2795,166.603 82.4135,182.419 62.8455,182.419 C43.2745,182.419 27.4115,166.603 27.4115,147.09 L27.4115,141.51 C27.4115,161.023 43.2745,176.839 62.8455,176.839" id="Fill-33" fill="#D0D2D3"></path>
                    <path d="M97.6204,133.2951 L94.2364,133.2951 L94.2364,150.2261 C94.2364,151.3301 95.0914,152.2921 96.1984,152.3221 C97.3444,152.3541 98.2794,151.4401 98.2794,150.3091 L98.2794,138.1281 C98.2794,136.4951 98.0574,134.8691 97.6204,133.2951" id="Fill-34" fill="#4B6084"></path>
                    <path d="M28.0579,133.2951 C27.6289,134.7791 27.4119,136.3171 27.4119,137.8611 L27.4119,150.3091 C27.4119,151.4211 28.3819,152.3231 29.5809,152.3231 C30.7779,152.3231 31.7479,151.4211 31.7479,150.3091 L31.7479,133.2951 L28.0579,133.2951 Z" id="Fill-35" fill="#4B6084"></path>
                    <path d="M61.6199,104.7897 C65.2039,110.3667 74.0879,122.4227 88.4769,130.9027 C91.9399,132.9407 95.1209,134.4967 98.0039,135.6667 C97.9999,135.6637 97.9999,135.6567 97.9999,135.6537 C97.1439,128.8367 94.3399,122.6227 90.1589,117.5897 C89.0919,116.2987 87.9319,115.0907 86.6919,113.9647 C80.3969,108.2467 72.0309,104.7657 62.8459,104.7657 C62.4379,104.7657 62.0269,104.7727 61.6199,104.7897" id="Fill-36" fill="#4B6084"></path>
                    <path d="M27.7049,135.5329 C32.5289,136.9889 42.0349,138.3629 57.1309,134.4279 C72.3959,130.4509 83.9809,122.5639 90.1589,117.5899 C89.0919,116.2989 87.9319,115.0909 86.6919,113.9649 C80.3969,108.2459 72.0309,104.7659 62.8459,104.7659 C62.2999,104.7659 61.7509,104.7759 61.2089,104.8039 C52.0719,105.2169 43.8439,109.0759 37.7879,115.1149 C32.3939,120.4919 28.7299,127.6009 27.7049,135.5329" id="Fill-37" fill="#808F91"></path>
                    <path d="M57.1307,113.7717 C63.8157,112.0307 69.7947,109.5397 74.9227,106.8717 C79.3147,108.4597 83.3037,110.8867 86.6917,113.9647 C87.9317,115.0907 89.0917,116.2987 90.1587,117.5897 C83.9817,122.5637 72.3967,130.4517 57.1307,134.4277 C42.0347,138.3627 32.5287,136.9887 27.7047,135.5327 C28.6567,128.1677 31.8867,121.5147 36.6607,116.2957 C41.7937,116.5277 48.5607,116.0057 57.1307,113.7717" id="Fill-38" fill="#4B6084"></path>
                    <path d="M57.1307,120.6569 C66.8907,118.1149 75.1427,113.9739 81.4427,110.0179 C83.3147,111.1719 85.0717,112.4929 86.6917,113.9649 C87.9317,115.0909 89.0917,116.2989 90.1587,117.5899 C83.9817,122.5639 72.3967,130.4509 57.1307,134.4279 C42.0347,138.3629 32.5287,136.9889 27.7047,135.5329 C28.3007,130.9239 29.7927,126.5959 31.9917,122.7209 C37.4047,123.5709 45.6497,123.6499 57.1307,120.6569" id="Fill-39" fill="#808F91"></path>
                    <path d="M57.1307,127.5426 C69.6537,124.2806 79.6977,118.3876 86.3137,113.6286 C86.4397,113.7396 86.5667,113.8516 86.6917,113.9646 C87.9317,115.0906 89.0917,116.2986 90.1587,117.5896 C83.9817,122.5636 72.3967,130.4516 57.1307,134.4276 C42.0347,138.3626 32.5287,136.9886 27.7047,135.5326 C27.9937,133.2986 28.4987,131.1336 29.1857,129.0506 C34.3597,130.3146 43.4497,131.1086 57.1307,127.5426" id="Fill-40" fill="#4B6084"></path>
                    <path d="M62.8396,158.7922 L62.8516,158.7922 C65.0096,158.7922 66.7596,157.0422 66.7596,154.8842 L66.7596,149.7622 C66.7596,147.6032 65.0096,145.8542 62.8516,145.8542 L62.8396,145.8542 C60.6816,145.8542 58.9316,147.6032 58.9316,149.7622 L58.9316,154.8842 C58.9316,157.0422 60.6816,158.7922 62.8396,158.7922" id="Fill-41" fill="#A62873"></path>
                    <path d="M125.6863,220.214 L125.6863,231.935 L104.1773,231.935 L104.1773,297.073 C102.8023,297.125 101.4183,297.151 100.0313,297.151 C95.9923,297.151 92.0053,296.93 88.0843,296.496 C85.5393,296.22 83.0273,295.856 80.5403,295.4 C66.9373,292.932 54.2233,287.923 42.9063,280.884 C38.2283,277.975 33.7913,274.72 29.6343,271.153 C29.6013,271.131 29.5713,271.102 29.5423,271.076 C16.7203,260.069 6.5213,246.109 -0.0007,230.258 L-0.0007,222.601 L0.0113,222.601 L0.0113,220.214 C0.0113,204.919 12.4533,192.522 27.7863,192.522 L39.8403,192.522 L49.0433,222.601 L76.6573,222.601 L85.8603,192.522 L97.9143,192.522 C98.1873,192.522 98.4603,192.526 98.7293,192.533 C113.6863,192.963 125.6863,205.191 125.6863,220.214" id="Fill-42" fill="#2F968A"></path>
                    <path d="M21.5169,263.4411 C23.3169,265.3391 25.1869,267.1701 27.1199,268.9321 L21.5279,227.7171 L21.5169,263.4411 Z" id="Fill-43" fill="#007D8D"></path>
                    <path d="M94.7547,297.0217 C96.5027,297.1057 98.2627,297.1507 100.0327,297.1507 C101.4197,297.1507 102.8027,297.1247 104.1787,297.0737 L104.1787,227.7167 L94.7547,297.0217 Z" id="Fill-44" fill="#007D8D"></path>
                    <polygon id="Fill-45" fill="#FFFFFF" points="48.1727 219.7399 55.8447 244.8109 55.8447 244.8139 55.9847 245.2759 57.7087 250.9109 58.9807 255.0659 60.7037 260.7019 61.9757 264.8569 62.8577 267.7379 63.9327 264.2169 65.4857 259.1419 67.5927 252.2529 69.1427 247.1769 69.8527 244.8609 77.5327 219.7399 62.8577 207.2579"></polygon>
                    <path d="M76.3123,142.8088 C76.3123,144.4568 77.6513,145.7928 79.3043,145.7928 C80.9573,145.7928 82.2973,144.4568 82.2973,142.8088 C82.2973,141.1618 80.9573,139.8258 79.3043,139.8258 C77.6513,139.8258 76.3123,141.1618 76.3123,142.8088" id="Fill-46" fill="#A62873"></path>
                    <path d="M43.3938,142.8088 C43.3938,144.4568 44.7338,145.7928 46.3868,145.7928 C48.0398,145.7928 49.3788,144.4568 49.3788,142.8088 C49.3788,141.1618 48.0398,139.8258 46.3868,139.8258 C44.7338,139.8258 43.3938,141.1618 43.3938,142.8088" id="Fill-47" fill="#A62873"></path>
                    <path d="M62.8455,169.7804 C66.6545,169.7804 70.4635,168.3344 73.3635,165.4434 C73.9355,164.8734 73.9355,163.9474 73.3635,163.3774 C72.7915,162.8074 71.8635,162.8074 71.2915,163.3774 C66.6345,168.0204 59.0565,168.0204 54.3995,163.3774 C53.8275,162.8074 52.8995,162.8074 52.3275,163.3774 C51.7555,163.9474 51.7555,164.8734 52.3275,165.4434 C55.2275,168.3344 59.0365,169.7804 62.8455,169.7804" id="Fill-48" fill="#A62873"></path>
                    <polygon id="Fill-49" fill="#E7AD26" points="55.8445 244.8136 55.8445 244.8116 56.2145 240.6326 56.7765 234.2496 57.1925 229.5426 58.1895 218.2346 67.5025 218.2346 68.1845 225.9546 68.5745 230.3976 69.1045 236.4196 69.1045 236.4226 69.4975 240.8636 69.8525 244.8606 69.1425 247.1776 67.5935 252.2526 65.4855 259.1416 63.9325 264.2166 62.8575 267.7376 61.9755 264.8566 60.7035 260.7026 58.9805 255.0656 57.7085 250.9116 55.9855 245.2756"></polygon>
                    <polygon id="Fill-50" fill="#E8CD5D" points="56.7762 234.2492 68.5752 230.3972 68.1832 225.9542 57.1922 229.5432"></polygon>
                    <polygon id="Fill-51" fill="#E8CD5D" points="55.8445 244.8136 55.8445 244.8116 56.2145 240.6326 69.1045 236.4226 69.4975 240.8636 55.9855 245.2756"></polygon>
                    <polygon id="Fill-52" fill="#E8CD5D" points="57.7083 250.9113 58.9803 255.0663 67.5933 252.2523 69.1433 247.1773"></polygon>
                    <polygon id="Fill-53" fill="#E8CD5D" points="60.7034 260.7023 61.9754 264.8563 63.9324 264.2173 65.4854 259.1413"></polygon>
                    <path d="M59.6609,222.6042 L66.0299,222.6042 C69.6229,222.6042 72.1019,219.0172 70.8239,215.6702 L68.8699,210.5522 C68.1119,208.5682 66.2039,207.2572 64.0759,207.2572 L61.6159,207.2572 C59.4869,207.2572 57.5789,208.5682 56.8219,210.5522 L54.8669,215.6702 C53.5889,219.0172 56.0689,222.6042 59.6609,222.6042" id="Fill-54" fill="#E8CD5D"></path>
                    <polygon id="Fill-55" fill="#E2854A" points="39.8416 192.5202 39.8416 192.5202 49.0196 187.3632 62.8456 207.2572 48.1716 219.7412"></polygon>
                    <polygon id="Fill-56" fill="#E2854A" points="85.8621 192.5202 85.8621 192.5202 76.6841 187.3632 62.8581 207.2572 77.5321 219.7412"></polygon>
                    <path d="M39.8416,192.5202 L32.2386,216.6772 C31.9636,217.5512 32.4216,218.4882 33.2816,218.8112 L39.1826,221.0242 C40.6676,221.5812 40.6836,223.6692 39.2076,224.2492 L31.9536,227.1002 C30.8555208,227.5312 30.5026,228.9062 31.2556,229.8112 L62.8456,267.7362 L39.8416,192.5202 Z" id="Fill-57" fill="#007D8D"></path>
                    <path d="M85.8621,192.5202 L93.4651,216.6772 C93.7401,217.5512 93.2821,218.4882 92.4221,218.8112 L86.5211,221.0242 C85.0371,221.5812 85.0201,223.6692 86.4961,224.2492 L93.7501,227.1002 C94.8481,227.5312 95.2021,228.9062 94.4481,229.8112 L62.8581,267.7362 L85.8621,192.5202 Z" id="Fill-58" fill="#007D8D"></path>
                    <polygon id="Fill-59" fill="#D0D2D3" points="49.0335 183.5651 62.8455 198.6121 62.8585 198.6121 76.6705 183.5651 76.6845 187.3631 62.8585 207.2571 62.8455 207.2571 49.0195 187.3631"></polygon>
                    <path d="M30.6663,254.3957 L39.8703,254.3957 C41.4603,254.3957 42.7493,253.1067 42.7493,251.5167 L42.7493,250.8467 C42.7493,249.2557 41.4603,247.9667 39.8703,247.9667 L30.6663,247.9667 C29.0763,247.9667 27.7873,249.2557 27.7873,250.8467 L27.7873,251.5167 C27.7873,253.1067 29.0763,254.3957 30.6663,254.3957" id="Fill-60" fill="#007D8D"></path>
                    <path d="M158.7771,234.717 C158.7831,234.704 158.7891,234.691 158.7951,234.678 C158.7621,234.811 158.7251,234.943 158.6881,235.076 C158.6511,235.208 158.6101,235.341 158.5701,235.473 C158.5291,235.601 158.4851,235.734 158.4411,235.863 C158.3971,235.995 158.3491,236.124 158.3011,236.253 C158.2051,236.503 158.1051,236.745 157.9981,236.992 C157.9461,237.102 157.8991,237.212 157.8471,237.323 C157.7771,237.477 157.6991,237.628 157.6221,237.779 C157.5961,237.827 157.5701,237.875 157.5451,237.919 C157.4751,238.058 157.4011,238.198 157.3191,238.334 C157.2051,238.533 157.0871,238.727 156.9651,238.923 C156.9181,239 156.8701,239.073 156.8181,239.147 C156.6261,239.438 156.4231,239.72 156.2091,240 C156.1581,240.07 156.1021,240.136 156.0471,240.202 C155.9361,240.342 155.8221,240.482 155.7041,240.622 L125.8261,275.408 C122.9821,278.722 118.8621,280.55 114.6201,280.55 C113.2961,280.55 111.9571,280.373 110.6441,280.006 C105.1141,278.461 100.9871,273.863 100.0571,268.215 L99.4231,264.342 L93.9711,231.122 C92.6581,223.105 98.1101,215.54 106.1511,214.227 C114.1961,212.922 121.7801,218.354 123.0961,226.371 L124.0561,232.237 L133.2921,221.483 C138.5891,215.312 147.9021,214.595 154.0921,219.88 C158.5101,223.649 160.1341,229.455 158.7771,234.717" id="Fill-61" fill="#2F968A"></path>
                    <path d="M158.7952,234.6784 C158.7622,234.8114 158.7252,234.9434 158.6882,235.0754 C158.6512,235.2084 158.6102,235.3404 158.5702,235.4724 C158.5292,235.6014 158.4852,235.7344 158.4412,235.8624 C158.3972,235.9954 158.3492,236.1234 158.3012,236.2524 C158.2052,236.5024 158.1052,236.7454 157.9982,236.9914 C157.9462,237.1014 157.8992,237.2124 157.8472,237.3234 C157.7772,237.4774 157.6992,237.6284 157.6222,237.7784 C157.5962,237.8264 157.5702,237.8744 157.5452,237.9184 C157.4752,238.0584 157.4002,238.1984 157.3192,238.3344 C157.2052,238.5324 157.0872,238.7274 156.9652,238.9224 C156.9182,238.9994 156.8702,239.0734 156.8182,239.1474 C156.6262,239.4374 156.4232,239.7204 156.2092,239.9994 C156.1582,240.0704 156.1022,240.1364 156.0472,240.2024 C155.9362,240.3424 155.8222,240.4814 155.7042,240.6214 L125.8262,275.4084 C122.9822,278.7214 118.8622,280.5504 114.6202,280.5504 C113.2962,280.5504 111.9572,280.3734 110.6442,280.0054 C105.1142,278.4604 100.9872,273.8634 100.0572,268.2154 L99.4232,264.3424 C99.4382,264.0704 99.4012,263.8204 99.3012,263.5924 C99.5632,263.7244 105.7672,276.2804 110.8392,272.9704 C114.2582,270.7414 132.6942,239.6874 146.8962,239.5034 C154.9152,239.4004 157.8032,236.8664 158.7952,234.6784" id="Fill-62" fill="#007D8D"></path>
                    <path d="M159.2356,231.6672 C159.2366,231.6212 159.2396,231.5752 159.2416,231.5282 L159.2066,231.5122 C159.2066,231.5122 159.2196,231.5672 159.2356,231.6672" id="Fill-63" fill="#0E6DA0"></path>
                    <path d="M125.6863,220.214 L125.6863,230.339 L124.0783,231.935 L110.1313,245.785 L110.1313,231.935 L110.1313,208.236 C110.1313,196.872 99.4013,192.779 98.7293,192.533 C113.6863,192.963 125.6863,205.191 125.6863,220.214" id="Fill-64" fill="#6BA997"></path>
                    <path d="M142.7796,231.5197 L142.7796,231.5197 C145.7526,235.1277 151.0966,235.6497 154.7166,232.6857 L164.5826,224.6037 L153.8166,211.5377 L143.9496,219.6187 C140.3306,222.5827 139.8066,227.9117 142.7796,231.5197" id="Fill-65" fill="#FFFFFF"></path>
                    <path d="M148.4549,225.0744 L150.2229,227.2204 C154.3579,232.2384 161.7899,232.9644 166.8239,228.8414 L177.5619,220.0464 L160.8199,199.7274 L150.0819,208.5234 C145.0489,212.6454 144.3199,220.0564 148.4549,225.0744" id="Fill-66" fill="#D0D2D3"></path>
                    <path d="M150.9139,208.0148 L152.3249,209.7268 C153.8099,211.5298 156.4799,211.7908 158.2879,210.3098 C160.0959,208.8288 160.3579,206.1668 158.8719,204.3638 L157.4619,202.6518 C155.9759,200.8488 153.3069,200.5888 151.4979,202.0698 C149.6899,203.5508 149.4289,206.2118 150.9139,208.0148" id="Fill-67" fill="#FFFFFF"></path>
                    <path d="M167.4397,224.0827 L167.4397,224.0827 C168.5957,225.4857 170.6727,225.6887 172.0797,224.5367 L180.8737,217.3337 C182.2797,216.1817 182.4837,214.1107 181.3277,212.7077 C180.1717,211.3047 178.0947,211.1027 176.6877,212.2547 L167.8947,219.4567 C166.4877,220.6087 166.2837,222.6797 167.4397,224.0827" id="Fill-68" fill="#FFFFFF"></path>
                    <path d="M163.2547,219.0031 L163.2547,219.0031 C164.4107,220.4061 166.4877,220.6091 167.8947,219.4571 L176.6877,212.2541 C178.0947,211.1021 178.2977,209.0311 177.1427,207.6281 C175.9867,206.2251 173.9097,206.0231 172.5027,207.1751 L163.7097,214.3771 C162.3027,215.5291 162.0987,217.6001 163.2547,219.0031" id="Fill-69" fill="#FFFFFF"></path>
                    <path d="M159.0691,213.9235 L159.0691,213.9235 C160.2251,215.3265 162.3021,215.5295 163.7091,214.3775 L172.5021,207.1745 C173.9091,206.0225 174.1131,203.9515 172.9571,202.5485 C171.8011,201.1455 169.7241,200.9435 168.3171,202.0955 L159.5241,209.2975 C158.1171,210.4495 157.9131,212.5205 159.0691,213.9235" id="Fill-70" fill="#FFFFFF"></path>
                    <path d="M154.8836,208.8439 L154.8836,208.8439 C156.0396,210.2469 158.1166,210.4499 159.5236,209.2979 L177.7446,194.3729 C179.1516,193.2209 179.3556,191.1499 178.1996,189.7469 L178.1996,189.7469 C177.0436,188.3439 174.9666,188.1409 173.5596,189.2939 L155.3386,204.2179 C153.9316,205.3699 153.7276,207.4409 154.8836,208.8439" id="Fill-71" fill="#FFFFFF"></path>
                    <path d="M194.7405,58.5578 C194.4175,58.5578 194.1625,58.8198 194.1625,59.1358 C194.1625,59.4498 194.4175,59.7088 194.7405,59.7088 L206.8415,59.7088 C207.1675,59.7088 207.4195,59.4498 207.4195,59.1358 C207.4195,58.8198 207.1675,58.5578 206.8415,58.5578 L194.7405,58.5578 Z" id="Fill-72" fill="#596273"></path>
                    <path d="M185.7054,29.0329 C185.7054,20.7289 192.4594,13.9979 200.7884,13.9979 C209.1254,13.9979 215.8764,20.7289 215.8764,29.0329 C215.8764,29.5279 215.5144,36.4779 209.8294,43.7749 C208.1664,45.9719 208.4424,50.4019 208.4424,50.4019 L201.8544,50.4019 L199.7184,50.4019 L193.0904,50.4019 C193.0904,50.4019 193.4064,45.9719 191.7494,43.7749 C186.0594,36.4699 185.7054,29.5279 185.7054,29.0329" id="Fill-73" fill="#F0CA67"></path>
                    <path d="M200.7879,50.4015 L193.0899,50.4015 C193.0899,50.4015 193.4069,45.9725 191.7489,43.7745 C186.0589,36.4705 185.7049,29.5275 185.7049,29.0325 C185.7049,20.7295 192.4599,13.9985 200.7879,13.9985" id="Fill-74" fill="#F4DA80"></path>
                    <path d="M212.6639,29.0329 L211.3419,29.0329 C211.3419,23.2289 206.6109,18.5129 200.7879,18.5129 L200.7879,17.1939 C207.3419,17.1939 212.6639,22.5039 212.6639,29.0329" id="Fill-75" fill="#F4DA80"></path>
                    <polygon id="Fill-76" fill="#30363D" points="204.0838 51.5783 202.7798 51.3593 205.3558 35.8143 206.6598 36.0333"></polygon>
                    <polygon id="Fill-77" fill="#30363D" points="197.4954 51.5783 194.9184 36.0333 196.2254 35.8143 198.8014 51.3593"></polygon>
                    <path d="M205.9217,38.0026 C205.3867,38.0026 205.1537,37.4786 204.9817,37.0956 C204.9047,36.9346 204.7597,36.6006 204.6737,36.6006 C204.6037,36.6296 204.5017,36.8906 204.4407,37.0296 C204.2897,37.4176 204.0557,38.0026 203.4257,38.0026 C203.0507,38.0026 202.8227,37.6256 202.5647,37.1876 C202.4667,37.0266 202.2947,36.7436 202.1837,36.6326 C202.0947,36.7366 201.9597,36.9626 201.8767,37.1066 C201.5997,37.5676 201.3317,38.0026 200.9207,38.0026 C200.5147,38.0026 200.2537,37.5786 199.9917,37.1306 C199.8997,36.9806 199.7517,36.7396 199.6627,36.6376 C199.5587,36.7436 199.4107,36.9916 199.3127,37.1536 C199.0537,37.5906 198.8047,38.0026 198.4087,38.0026 C197.9657,38.0026 197.6827,37.5296 197.4087,37.0696 C197.3167,36.9166 197.1877,36.6966 197.1077,36.6116 C196.9977,36.6486 196.9207,36.8096 196.7917,37.1306 C196.6437,37.4976 196.4497,38.0026 195.9057,38.0026 L195.9057,37.2996 C195.9767,37.2716 196.0747,37.0126 196.1297,36.8736 C196.2907,36.4816 196.5207,35.9016 197.1537,35.9016 C197.5287,35.9016 197.7537,36.2736 198.0147,36.7106 C198.1127,36.8736 198.2887,37.1596 198.3927,37.2716 C198.4847,37.1646 198.6237,36.9376 198.7067,36.7956 C198.9857,36.3306 199.2447,35.9016 199.6627,35.9016 C200.0687,35.9016 200.3237,36.3236 200.5947,36.7696 C200.6867,36.9226 200.8247,37.1596 200.9207,37.2676 C201.0217,37.1566 201.1717,36.9086 201.2677,36.7506 C201.5257,36.3126 201.7747,35.9016 202.1687,35.9016 C202.6137,35.9016 202.8967,36.3736 203.1647,36.8356 C203.2597,36.9846 203.3987,37.2056 203.4717,37.2936 C203.5797,37.2536 203.6627,37.0956 203.7917,36.7726 C203.9327,36.3996 204.1387,35.9016 204.6737,35.9016 C205.2117,35.9016 205.4487,36.4246 205.6207,36.8096 C205.6917,36.9696 205.8387,37.2996 205.9217,37.2996 L205.9217,38.0026 Z" id="Fill-78" fill="#30363D"></path>
                    <path d="M208.4734,50.4093 L208.4734,58.2743 C208.4734,58.8093 208.0364,59.2473 207.4934,59.2473 L194.1044,59.2473 C193.5664,59.2473 193.1264,58.8093 193.1264,58.2743 L193.1264,50.4093 L208.4734,50.4093 Z" id="Fill-79" fill="#30363D"></path>
                    <line x1="208.7781" y1="51.1706" x2="192.8041" y2="51.1706" id="Fill-80" fill="#103754"></line>
                    <path d="M208.7781,51.9401 L192.8041,51.9401 C192.3801,51.9401 192.0291,51.5951 192.0291,51.1701 C192.0291,50.7431 192.3801,50.3981 192.8041,50.3981 L208.7781,50.3981 C209.2081,50.3981 209.5531,50.7431 209.5531,51.1701 C209.5531,51.5951 209.2081,51.9401 208.7781,51.9401" id="Fill-81" fill="#596273"></path>
                    <line x1="208.7781" y1="53.738" x2="192.8041" y2="53.738" id="Fill-82" fill="#30363D"></line>
                    <path d="M208.7781,54.5085 L192.8041,54.5085 C192.3801,54.5085 192.0291,54.1605 192.0291,53.7375 C192.0291,53.3155 192.3801,52.9665 192.8041,52.9665 L208.7781,52.9665 C209.2081,52.9665 209.5531,53.3155 209.5531,53.7375 C209.5531,54.1605 209.2081,54.5085 208.7781,54.5085" id="Fill-83" fill="#596273"></path>
                    <line x1="208.7781" y1="56.3049" x2="192.8041" y2="56.3049" id="Fill-84" fill="#30363D"></line>
                    <path d="M208.7781,57.0773 L192.8041,57.0773 C192.3801,57.0773 192.0291,56.7373 192.0291,56.3053 C192.0291,55.8823 192.3801,55.5343 192.8041,55.5343 L208.7781,55.5343 C209.2081,55.5343 209.5531,55.8823 209.5531,56.3053 C209.5531,56.7373 209.2081,57.0773 208.7781,57.0773" id="Fill-85" fill="#596273"></path>
                    <line x1="200.7879" y1="8.6955" x2="200.7879" y2="0.4395" id="Stroke-86" stroke="#E7AD26"></line>
                    <line x1="190.2215" y1="11.528" x2="186.0835" y2="4.372" id="Stroke-87" stroke="#E7AD26"></line>
                    <line x1="182.493" y1="19.2379" x2="175.314" y2="15.1059" id="Stroke-88" stroke="#E7AD26"></line>
                    <line x1="179.6673" y1="29.7682" x2="171.3793" y2="29.7682" id="Stroke-89" stroke="#E7AD26"></line>
                    <line x1="219.0862" y1="40.2868" x2="226.2672" y2="44.4228" id="Stroke-90" stroke="#E7AD26"></line>
                    <line x1="221.9207" y1="29.758" x2="230.2057" y2="29.758" id="Stroke-91" stroke="#E7AD26"></line>
                    <line x1="219.0862" y1="19.2272" x2="226.2612" y2="15.0952" id="Stroke-92" stroke="#E7AD26"></line>
                    <line x1="211.3484" y1="11.5197" x2="215.4924" y2="4.3647" id="Stroke-93" stroke="#E7AD26"></line>
                    <line x1="200.7879" y1="8.6955" x2="200.7879" y2="0.4395" id="Stroke-94" stroke="#E7AD26"></line>
                    <line x1="200.7972" y1="8.6955" x2="200.7972" y2="0.4395" id="Stroke-95" stroke="#E7AD26"></line>
                    <line x1="211.3543" y1="11.528" x2="215.4983" y2="4.372" id="Stroke-96" stroke="#E7AD26"></line>
                    <line x1="219.0862" y1="19.2379" x2="226.2672" y2="15.1059" id="Stroke-97" stroke="#E7AD26"></line>
                    <line x1="221.9207" y1="29.7682" x2="230.2057" y2="29.7682" id="Stroke-98" stroke="#E7AD26"></line>
                    <line x1="182.493" y1="40.2868" x2="175.314" y2="44.4228" id="Stroke-99" stroke="#E7AD26"></line>
                    <line x1="179.6673" y1="29.758" x2="171.3793" y2="29.758" id="Stroke-100" stroke="#E7AD26"></line>
                    <line x1="182.5018" y1="19.2272" x2="175.3198" y2="15.0952" id="Stroke-101" stroke="#E7AD26"></line>
                    <line x1="190.2366" y1="11.5197" x2="186.0926" y2="4.3647" id="Stroke-102" stroke="#E7AD26"></line>
                    <line x1="200.7972" y1="8.6955" x2="200.7972" y2="0.4395" id="Stroke-103" stroke="#E7AD26"></line>
                    <path d="M168.4222,161.2565 C168.4162,160.2065 168.0412,159.3215 167.2952,158.6005 C166.5512,157.8825 165.3022,157.2285 163.5372,156.6535 C161.0892,155.9205 159.2972,154.9565 158.1712,153.7675 C157.0462,152.5665 156.4812,151.0495 156.4722,149.2065 C156.4652,147.3265 157.0062,145.7845 158.1022,144.5735 C159.1932,143.3655 160.6952,142.6455 162.6172,142.4105 L162.6042,138.6455 L165.1722,138.6355 L165.1892,142.4145 C167.1192,142.6725 168.6262,143.4665 169.7062,144.8175 C170.7872,146.1675 171.3302,148.0175 171.3412,150.3675 L168.1702,150.3815 C168.1632,148.7565 167.7702,147.4695 166.9992,146.5205 C166.2212,145.5715 165.1852,145.0935 163.8752,145.0975 C162.5042,145.1045 161.4612,145.4635 160.7382,146.1735 C160.0152,146.8835 159.6562,147.8695 159.6632,149.1325 C159.6682,150.3055 160.0522,151.2315 160.8212,151.9305 C161.5872,152.6165 162.8512,153.2465 164.6052,153.7995 C166.3592,154.3685 167.7332,154.9845 168.7172,155.6655 C169.7012,156.3425 170.4262,157.1335 170.9012,158.0355 C171.3642,158.9385 171.6042,159.9985 171.612282,161.2135 C171.6202,163.1485 171.0432,164.7135 169.8802,165.8945 C168.7172,167.0795 167.0872,167.7875 164.9832,168.0165 L164.9992,171.2955 L162.4452,171.3045 L162.4292,168.0265 C160.2932,167.8345 158.6142,167.0835 157.3952,165.7645 C156.1772,164.4435 155.5642,162.6515 155.5562,160.3875 L158.7452,160.3745 C158.7502,161.9675 159.1752,163.1885 160.0172,164.0495 C160.8602,164.9075 162.0512,165.3305 163.5912,165.3225 C165.0972,165.3175 166.2832,164.9455 167.1412,164.2215 C167.9982,163.4965 168.4282,162.5085 168.4222,161.2565" id="Fill-104" fill="#AD4A90"></path>
                    <path d="M194.6849,161.1872 C194.6809,159.3122 194.0739,157.7832 192.8699,156.6082 C191.6719,155.4262 190.1049,154.8412 188.1739,154.8512 C186.2509,154.8582 184.7059,155.4452 183.5439,156.6242 C182.3839,157.7912 181.8109,159.3322 181.815868,161.2402 C181.8269,163.1422 182.3969,164.6492 183.5379,165.7332 C184.6709,166.8162 186.2499,167.3622 188.2759,167.353309 C190.2809,167.3462 191.8519,166.7902 192.9899,165.6872 C194.1249,164.5762 194.6949,163.0722 194.6849,161.1872 M188.1639,139.823131 C186.4829,139.8332 185.1209,140.3512 184.0819,141.3962 C183.0469,142.4422 182.5299,143.8522 182.535848,145.6382 C182.5429,147.3422 183.0619,148.7252 184.0969,149.7702 C185.1219,150.8212 186.4969,151.3412 188.2099,151.33427 C189.9239,151.3282 191.2919,150.7982 192.3099,149.7362 C193.3309,148.6832 193.8389,147.2962 193.830993,145.5922 C193.8259,143.8802 193.2879,142.4892 192.2179,141.4202 C191.1489,140.3432 189.7999,139.8162 188.1639,139.823131 M198.1139,145.5102 C198.1209,147.1812 197.6849,148.6732 196.8009,149.9892 C195.9249,151.2942 194.7269,152.3302 193.2159,153.0672 C194.9779,153.8162 196.3729,154.9042 197.4119,156.3522 C198.4409,157.7892 198.9579,159.4332 198.968048,161.2602 C198.9819,164.1692 198.0039,166.4932 196.0439,168.2192 C194.0869,169.9512 191.5009,170.8212 188.2919,170.835395 C185.0489,170.8502 182.4509,169.9992 180.4909,168.2702 C178.5279,166.5502 177.5449,164.2432 177.530805,161.3502 C177.5229,159.5312 178.0199,157.8882 179.0079,156.4272 C179.9969,154.9582 181.3719,153.8442 183.1279,153.0932 C181.6239,152.3632 180.4409,151.3432 179.5739,150.0342 C178.7029,148.7252 178.2619,147.2442 178.2559,145.5892 C178.2429,142.7542 179.1469,140.5062 180.9589,138.8382 C182.7759,137.1662 185.1699,136.3302 188.1499,136.316048 C191.1079,136.3032 193.5129,137.1222 195.3449,138.7772 C197.1769,140.4332 198.1009,142.6752 198.1139,145.5102" id="Fill-105" fill="#AD4A90"></path>
                    <path d="M219.9056,150.0578 C219.8906,146.4358 219.3716,143.8008 218.3456,142.1558 C217.3206,140.5068 215.7046,139.6868 213.4986,139.695727 C211.3046,139.7028 209.7116,140.5368 208.7176,142.1818 C207.7216,143.8338 207.2126,146.3658 207.2006,149.7818 L207.2286,156.6058 C207.2446,160.2448 207.7796,162.9238 208.8456,164.6468 C209.9086,166.3698 211.5106,167.2318 213.6556,167.22287 C215.7716,167.2148 217.3376,166.3948 218.3556,164.7558 C219.3786,163.1258 219.9056,160.5528 219.9356,157.0468 L219.9056,150.0578 Z M224.2126,155.8748 C224.2296,160.8718 223.3896,164.5958 221.6906,167.0278 C219.9856,169.4678 217.3116,170.6918 213.6716,170.705003 C210.0756,170.7228 207.4066,169.5448 205.6736,167.1738 C203.9356,164.8048 203.0236,161.2518 202.9436,156.5448 L202.9196,150.8418 C202.9016,145.9018 203.7406,142.2238 205.4416,139.8238 C207.1486,137.4088 209.8276,136.2028 213.4846,136.188655 C217.1126,136.1738 219.7836,137.3188 221.5056,139.6308 C223.2246,141.9338 224.1216,145.4998 224.1856,150.3358 L224.2126,155.8748 Z" id="Fill-106" fill="#AD4A90"></path>
                    <path d="M244.8895,149.9303 C244.8745,146.3083 244.3545,143.6733 243.3295,142.0283 C242.3005,140.3783 240.6845,139.5583 238.4825,139.56821 C236.2885,139.5753 234.6945,140.4093 233.7015,142.0543 C232.7025,143.7013 232.1925,146.2373 232.1815,149.6533 L232.2125,156.4783 C232.2275,160.1173 232.7635,162.7963 233.8295,164.5193 C234.8925,166.2423 236.4945,167.1043 238.6395,167.09537 C240.7555,167.0873 242.3215,166.2673 243.3395,164.6283 C244.3575,163.0013 244.8855,160.4243 244.9155,156.9183 L244.8895,149.9303 Z M249.1955,155.7473 C249.2175,160.7453 248.3785,164.4653 246.6705,166.8993 C244.9695,169.3403 242.2955,170.5643 238.6555,170.577423 C235.0605,170.5913 232.3915,169.4133 230.6535,167.0453 C228.9185,164.6773 228.0075,161.1243 227.9285,156.4133 L227.9085,150.7113 C227.8865,145.7703 228.7245,142.0963 230.4255,139.6963 C232.1325,137.2813 234.8065,136.0743 238.4675,136.061134 C242.0925,136.0453 244.7685,137.1873 246.4905,139.4993 C248.2095,141.8023 249.1055,145.3723 249.1735,150.2083 L249.1955,155.7473 Z" id="Fill-107" fill="#AD4A90"></path>
                </g>
            </g>
        </g>
    </g>
</svg>