<svg xmlns="http://www.w3.org/2000/svg" xmlns:xlink="http://www.w3.org/1999/xlink" width="344" height="250" viewBox="0 0 344 250">
    <defs>
        <path id="prefix__a" d="M0 0.521L297.743 0.521 297.743 179.074 0 179.074z"/>
        <path id="prefix__c" d="M0.593 0L181.708 0 181.708 181.075 0.593 181.075z"/>
        <path id="prefix__e" d="M0 250L344 250 344 0 0 0z"/>
    </defs>
    <g fill="none" fill-rule="evenodd">
        <path fill="#D0D2D3" d="M305.91 91.138v135.366c0 12.977-21.886 23.495-48.883 23.495H49.141c-7.116 0-13.797-.87-19.63-2.402-3.187-2.804-5-6.016-5-9.436V98.992c0-10.876 18.342-19.692 40.968-19.692h215.8c7.115 0 13.798.872 19.631 2.403 3.187 2.803 5 6.015 5 9.435"/>
        <g transform="translate(0 67)">
            <mask id="prefix__b" fill="#fff">
                <use xlink:href="#prefix__a"/>
            </mask>
            <path fill="#F8F6DE" d="M269.426 179.074H28.319c-15.64 0-28.32-12.68-28.32-28.318V28.839C0 13.199 12.68.52 28.32.52h241.107c15.64 0 28.317 12.678 28.317 28.318v121.917c0 15.639-12.677 28.318-28.317 28.318" mask="url(#prefix__b)"/>
        </g>
        <path fill="#225F9B" d="M143.626 197.209H24.235c-4.21 0-7.623-3.413-7.623-7.623 0-4.21 3.413-7.623 7.623-7.623h119.39c4.21 0 7.624 3.413 7.624 7.623 0 4.21-3.413 7.623-7.623 7.623"/>
        <path fill="#EEB560" d="M193.797 99.57H74.405c-4.21 0-7.623-3.413-7.623-7.623 0-4.21 3.413-7.623 7.623-7.623h119.392c4.21 0 7.623 3.413 7.623 7.623 0 4.21-3.413 7.623-7.623 7.623M278.263 223.694H24.236c-4.21 0-7.623-3.412-7.623-7.622 0-4.211 3.413-7.623 7.623-7.623h254.027c4.21 0 7.623 3.412 7.623 7.623 0 4.21-3.413 7.622-7.623 7.622"/>
        <path fill="#FFF" d="M327.193 179.08l-25.553-25.547 13.923-13.92 25.553 25.547c3.845 3.844 3.845 10.076 0 13.92-3.845 3.844-10.078 3.844-13.923 0"/>
        <path fill="#D0D2D3" d="M331.531 174.743l-25.553-25.547-4.338 4.337 25.553 25.547c3.845 3.844 10.078 3.844 13.923 0 .758-.758 1.364-1.608 1.823-2.515-3.694 1.87-8.32 1.264-11.408-1.822"/>
        <g transform="translate(158)">
            <mask id="prefix__d" fill="#fff">
                <use xlink:href="#prefix__c"/>
            </mask>
            <path fill="#FFF" d="M91.151 162.83c-15.82 0-30.454-5.078-42.359-13.7-18.147-13.13-29.95-34.483-29.95-58.592 0-1.718.06-3.424.178-5.114 2.627-37.54 33.915-67.18 72.131-67.18 39.934 0 72.31 32.368 72.31 72.294 0 39.926-32.376 72.293-72.31 72.293M91.151 0C41.331 0 .911 40.218.597 89.953c-.004.193-.004.392-.004.585 0 28.098 12.802 53.206 32.892 69.813 15.662 12.945 35.755 20.724 57.666 20.724 50.015 0 90.557-40.533 90.557-90.537C181.708 40.534 141.166 0 91.151 0" mask="url(#prefix__d)"/>
        </g>
        <path fill="#D0D2D3" d="M249.151 162.832c-39.936 0-72.31-32.367-72.31-72.294s32.374-72.295 72.31-72.295 72.31 32.368 72.31 72.295-32.374 72.294-72.31 72.294m0-153.354c-44.778 0-81.078 36.29-81.078 81.06 0 44.769 36.3 81.06 81.078 81.06 44.778 0 81.078-36.291 81.078-81.06 0-44.77-36.3-81.06-81.078-81.06"/>
        <mask id="prefix__f" fill="#fff">
            <use xlink:href="#prefix__e"/>
        </mask>
        <path fill="#FFF" d="M235.602 132.133L262.7 132.133 262.7 99.255 235.602 99.255zM215.123 82.279h-1.12c-2.906 0-5.262-2.356-5.262-5.262v-9.991c0-2.906 2.356-5.262 5.262-5.262h1.12c2.906 0 5.262 2.356 5.262 5.262v9.991c0 2.906-2.356 5.262-5.262 5.262" mask="url(#prefix__f)"/>
        <path fill="#D0D2D3" d="M214.563 79.537c-3.216 0-5.822-2.605-5.822-5.82v2.74c0 3.216 2.606 5.822 5.822 5.822 3.215 0 5.821-2.606 5.821-5.821v-2.741c0 3.215-2.606 5.82-5.82 5.82" mask="url(#prefix__f)"/>
        <path fill="#FFF" d="M284.3 82.279h-1.121c-2.905 0-5.261-2.356-5.261-5.262v-9.991c0-2.906 2.356-5.262 5.26-5.262h1.122c2.905 0 5.262 2.356 5.262 5.262v9.991c0 2.906-2.357 5.262-5.262 5.262" mask="url(#prefix__f)"/>
        <path fill="#D0D2D3" d="M283.74 79.537c-3.216 0-5.822-2.605-5.822-5.82v2.74c0 3.216 2.606 5.822 5.821 5.822 3.216 0 5.822-2.606 5.822-5.821v-2.741c0 3.215-2.606 5.82-5.822 5.82" mask="url(#prefix__f)"/>
        <path fill="#FFF" d="M215.071 59.448c1.127-5.79 3.692-11.063 7.312-15.435 1.046-1.268 2.183-2.456 3.398-3.562 6.17-5.62 14.368-9.04 23.37-9.04.4 0 .802.007 1.201.023.136 0 .271.007.403.014 8.954.406 17.018 4.199 22.954 10.133 5.285 5.285 8.876 12.27 9.881 20.066.19 1.468.287 2.964.287 4.483v6.875c0 19.175-15.546 34.718-34.726 34.718-19.177 0-34.726-15.543-34.726-34.718V66.13c0-1.475.091-2.927.27-4.351l.376-2.331z" mask="url(#prefix__f)"/>
        <path fill="#D0D2D3" d="M249.151 102.24c-19.177 0-34.727-15.543-34.727-34.72v5.485c0 19.175 15.55 34.718 34.727 34.718 19.18 0 34.726-15.543 34.726-34.718V67.52c0 19.176-15.546 34.719-34.726 34.719" mask="url(#prefix__f)"/>
        <path fill="#4B6084" d="M215.031 59.65h3.426v16.637c0 1.035-.759 1.957-1.789 2.052-1.183.111-2.174-.814-2.174-1.969V64.373c0-1.59.18-3.174.537-4.724M283.877 63.938v12.14c0 1.035-.755 1.96-1.785 2.06-1.182.113-2.177-.812-2.177-1.97v-16.72h3.319c.427 1.46.643 2.97.643 4.49" mask="url(#prefix__f)"/>
        <path fill="#4B6084" d="M250.352 31.434c-3.513 5.481-12.22 17.33-26.32 25.662-3.395 2.003-6.51 3.532-9.337 4.683.004-.004.004-.01.004-.014.84-6.699 3.587-12.806 7.684-17.752 1.046-1.268 2.183-2.456 3.398-3.562 6.17-5.62 14.368-9.04 23.37-9.04.4 0 .802.006 1.201.023" mask="url(#prefix__f)"/>
        <path fill="#808F91" d="M283.59 61.647c-4.728 1.431-14.044 2.781-28.838-1.086-14.961-3.908-26.314-11.659-32.368-16.548 1.046-1.268 2.183-2.456 3.397-3.562 6.169-5.619 14.369-9.04 23.37-9.04.535 0 1.073.01 1.604.037 8.954.406 17.019 4.2 22.954 10.133 5.285 5.285 8.876 12.271 9.88 20.066" mask="url(#prefix__f)"/>
        <path fill="#4B6084" d="M254.752 40.261c-6.552-1.71-12.41-4.159-17.437-6.78-4.304 1.56-8.213 3.945-11.534 6.97-1.215 1.106-2.351 2.293-3.397 3.562 6.054 4.89 17.407 12.64 32.368 16.548 14.794 3.867 24.11 2.516 28.838 1.086-.934-7.239-4.098-13.777-8.776-18.906-5.032.228-11.663-.285-20.062-2.48" mask="url(#prefix__f)"/>
        <path fill="#808F91" d="M254.752 47.028c-9.565-2.498-17.652-6.567-23.826-10.455-1.835 1.134-3.558 2.433-5.145 3.878-1.215 1.106-2.351 2.294-3.397 3.562 6.054 4.889 17.407 12.64 32.368 16.548 14.794 3.867 24.11 2.517 28.838 1.086-.584-4.529-2.046-8.782-4.201-12.591-5.306.835-13.385.913-24.637-2.028" mask="url(#prefix__f)"/>
        <path fill="#4B6084" d="M254.752 53.795c-12.273-3.206-22.116-8.997-28.6-13.674-.124.11-.248.219-.371.33-1.215 1.107-2.351 2.294-3.397 3.563 6.054 4.888 17.407 12.639 32.368 16.548 14.794 3.867 24.11 2.516 28.838 1.086-.283-2.196-.778-4.324-1.451-6.372-5.072 1.244-13.98 2.023-27.387-1.481" mask="url(#prefix__f)"/>
        <path fill="#A62873" d="M249.52 84.505h-.738c-1.915 0-3.467-1.552-3.467-3.467v-5.782c0-1.914 1.552-3.466 3.467-3.466h.738c1.914 0 3.467 1.552 3.467 3.466v5.782c0 1.915-1.553 3.467-3.467 3.467" mask="url(#prefix__f)"/>
        <path fill="#6BC9FF" d="M307.871 132.726c-11.482 15.955-29.316 27.04-49.797 29.56-.873.106-1.754.197-2.635.272-2.046.178-4.116.27-6.209.272h-.079c-2.117 0-4.215-.09-6.288-.272-.889-.075-1.77-.166-2.651-.276-20.477-2.524-38.307-13.61-49.789-29.564 4.464-8.932 13.698-15.07 24.359-15.07h11.815l8.161 26.752.86 2.815h27.054l.857-2.815h.004l8.16-26.752h11.815c10.665 0 19.9 6.138 24.363 15.078" mask="url(#prefix__f)"/>
        <path fill="#FFFFE5" d="M263.53 144.4l-.858 2.815-4.598 15.071c-.873.106-1.754.197-2.635.272-2.046.178-4.116.27-6.209.273h-.079c-2.117 0-4.215-.09-6.288-.273-.89-.075-1.77-.166-2.65-.276l-4.595-15.067-.86-2.815 7.476-6.378h.004l6.901-5.889 6.936 5.913 7.454 6.354z" mask="url(#prefix__f)"/>
        <path fill="#A62873" d="M235.954 68.797c0 1.62-1.313 2.933-2.934 2.933-1.619 0-2.932-1.314-2.932-2.933 0-1.618 1.313-2.932 2.932-2.932 1.621 0 2.934 1.314 2.934 2.933M268.214 68.797c0 1.62-1.312 2.933-2.933 2.933-1.62 0-2.932-1.314-2.932-2.933 0-1.618 1.313-2.932 2.932-2.932 1.62 0 2.933 1.314 2.933 2.933M249.151 94.762c-3.595 0-7.189-1.368-9.926-4.104-.348-.349-.348-.916 0-1.265.35-.349.916-.349 1.266 0 4.775 4.774 12.545 4.774 17.32 0 .35-.349.916-.349 1.265 0 .35.35.35.916 0 1.265-2.737 2.736-6.33 4.104-9.925 4.104" mask="url(#prefix__f)"/>
        <path fill="#E2854A" d="M271.695 117.65L271.695 117.65 262.701 112.583 249.151 132.133 263.532 144.401zM226.595 117.65L226.595 117.65 235.589 112.583 249.139 132.133 234.758 144.401z" mask="url(#prefix__f)"/>
        <path fill="#D0D2D3" d="M262.687 108.849L249.151 123.636 249.138 123.636 235.602 108.849 235.588 112.582 249.138 132.133 249.151 132.133 262.701 112.582z" mask="url(#prefix__f)"/>
        <path fill="#6BC9FF" d="M212.416 117.755c-9.648.832-17.863 6.699-21.993 14.964 5.847 8.124 13.343 14.98 21.993 20.093v-35.057zM285.886 117.756v35.058c8.647-5.111 16.14-11.966 21.985-20.087-4.128-8.27-12.338-14.135-21.985-14.971" mask="url(#prefix__f)"/>
        <path fill="#D0D2D3" d="M249.145 162.892c-.479 6.348-2.503 12.554-5.975 18.01-25.997-1.899-50.98-14.948-67.263-37.85-.113-.159-.227-.32-.336-.479 2.756-5.51 6.871-10.446 12.244-14.264.048-.034.097-.068.147-.1.883 1.447 1.824 2.871 2.82 4.272 13.97 19.651 35.963 30.22 58.363 30.411" mask="url(#prefix__f)"/>
        <path fill="#225F9B" d="M247.64 162.826c0 21.479-17.415 38.89-38.898 38.89-21.484 0-38.9-17.411-38.9-38.89 0-21.48 17.415-38.891 38.9-38.891 21.483 0 38.899 17.412 38.899 38.89" mask="url(#prefix__f)"/>
        <path fill="#E2854A" d="M240.81 162.826c0 17.708-14.358 32.063-32.069 32.063-17.71 0-32.07-14.355-32.07-32.063 0-17.707 14.36-32.062 32.07-32.062 17.711 0 32.07 14.355 32.07 32.062" mask="url(#prefix__f)"/>
        <path fill="#FFF" d="M208.741 133.361c17.275 0 31.354 13.659 32.036 30.764.018-.432.033-.864.033-1.299 0-17.707-14.358-32.062-32.069-32.062-17.71 0-32.069 14.355-32.069 32.062 0 .435.015.867.033 1.299.682-17.105 14.761-30.764 32.036-30.764" mask="url(#prefix__f)"/>
        <path fill="#FFF" d="M201.891 181.43L186.076 165.618 191.661 160.034 201.891 170.26 223.518 148.638 229.103 154.224z" mask="url(#prefix__f)"/>
        <path fill="#DD0816" d="M16.612 104.22L56.235 104.22 56.235 79.673 16.612 79.673z" mask="url(#prefix__f)"/>
        <path fill="#1F286F" d="M16.612 90.548L29.784 90.548 29.784 79.674 16.612 79.674z" mask="url(#prefix__f)"/>
        <path fill="#1B4875" fill-rule="nonzero" d="M39.766 162.104c2.108 0 3.162-1.122 3.162-3.366v-6.936c2.38-2.21 4.352-4.794 5.984-7.752l-3.026-1.904c-.68 1.768-1.666 3.434-2.958 5.032v-14.076h-9.486c.34-.748.612-1.53.816-2.346l-3.74-.51c-.204.986-.476 1.938-.816 2.856h-6.936v16.728l-4.148.102.544 3.332c7.956-.408 14.144-.816 18.564-1.258-3.808 2.754-9.996 4.862-18.564 6.358l1.598 3.196c6.664-1.156 12.376-3.128 17.136-5.95.51-.34 1.02-.646 1.53-.986v3.332c0 .612-.272.952-.782.952l-3.4-.17.884 3.366h3.638zm-.34-23.596H26.302v-2.278h13.124v2.278zm0 5.134H26.302v-2.176h13.124v2.176zm-13.124 6.052v-3.06h13.124v2.142c-3.536.408-7.922.714-13.124.918zm41.447 12.41v-22.916c1.36-2.312 2.448-4.76 3.298-7.31l-3.23-1.496c-1.7 5.202-4.284 9.724-7.752 13.566l1.156 3.74c1.02-1.088 2.006-2.176 2.924-3.264v17.68h3.604zm4.556-.102c4.352-4.148 6.562-8.908 6.562-14.348v-.714h5.44c-.068 5.304-.17 8.398-.374 9.282-.17 1.36-.782 2.074-1.87 2.074s-2.38-.068-3.876-.204l.85 3.332c1.7.102 2.924.17 3.638.17 2.72 0 4.25-1.224 4.59-3.638.34-1.802.51-6.494.51-14.11.612.748 1.326 1.462 2.142 2.176l2.108-2.924c-3.23-2.856-5.474-6.698-6.732-11.492h-5.95v3.264h3.298c1.156 3.332 2.754 6.188 4.794 8.602H72.68c2.448-3.196 4.148-6.902 5.168-11.152l-3.4-.816c-1.088 4.556-3.196 8.432-6.29 11.56l2.278 2.958c.578-.612 1.156-1.224 1.7-1.904v2.822h3.162v.714c0 4.42-2.006 8.364-5.984 11.798l2.992 2.55zm42.604-24.412v-3.298h-4.182c-.272-1.156-.68-2.414-1.156-3.842l-3.366.918c.408.952.816 1.938 1.156 2.924h-3.808v3.298h11.356zm1.292 7.684c1.564-1.02 2.924-2.21 4.114-3.638v1.564h8.942v-2.108c.986 1.36 2.142 2.652 3.468 3.842l2.176-2.516c-1.088-.884-2.074-1.87-2.992-2.958 1.088-.952 2.074-1.972 2.924-3.128l-2.278-2.006c-.68 1.02-1.462 1.938-2.346 2.788-.306-.51-.578-1.02-.85-1.53 1.156-.884 2.142-1.87 3.026-2.992l-2.278-2.006c-.544.816-1.19 1.598-1.938 2.346-.272-.748-.544-1.496-.748-2.278l-2.516 1.394c.85 2.958 2.074 5.644 3.672 8.092h-7.14c1.156-1.768 2.006-3.808 2.618-6.12v-2.482h-7.718v2.992h4.76c-.374.986-.85 1.938-1.394 2.856-.68-.68-1.394-1.326-2.21-1.972l-2.142 2.04c.986.748 1.836 1.462 2.584 2.21-1.088 1.122-2.346 2.108-3.774 2.958l2.04 2.652zm-2.346-2.618v-3.128h-9.452v3.128h9.452zm0 4.828v-3.128h-9.452v3.128h9.452zm18.224 6.766v-8.704H117.05v8.704h15.028zm-3.332-2.924h-8.364v-2.89h8.364v2.89zm-21.182 10.608v-1.768h3.128v1.326h3.366v-12.07h-9.894v12.512h3.4zm3.128-5.032h-3.128v-4.25h3.128v4.25zm23.324 4.59v-3.162h-4.284c.544-.816 1.088-1.7 1.564-2.686l-3.162-1.122c-.544 1.326-1.19 2.584-1.87 3.808h-3.026c-.612-1.462-1.258-2.754-1.972-3.842l-3.162 1.19c.612.816 1.19 1.7 1.7 2.652h-4.386v3.162h18.598z"/>
    </g>
</svg>
