<svg xmlns="http://www.w3.org/2000/svg" xmlns:xlink="http://www.w3.org/1999/xlink" width="533" height="409" viewBox="0 0 533 409">
    <defs>
        <path id="prefix__a" d="M0 304L372.531 304 372.531 0.538 0 0.538z"/>
        <path id="prefix__c" d="M.072 16.006c0 8.79 7.04 15.919 15.723 15.919 8.684 0 15.723-7.129 15.723-15.919 0-8.794-7.039-15.921-15.723-15.921C7.111.085.072 7.212.072 16.006z"/>
        <path id="prefix__e" d="M.867 3.005c0 1.574 1.279 2.853 2.853 2.853 1.574 0 2.852-1.279 2.852-2.853C6.572 1.429 5.294.152 3.72.152 2.146.152.867 1.429.867 3.005z"/>
        <path id="prefix__g" d="M.817.34c0 6.016 4.875 10.894 10.89 10.894V.34H.817z"/>
        <path id="prefix__i" d="M.817 11.67h10.89V.776C5.692.776.817 5.654.817 11.67z"/>
        <path id="prefix__k" d="M.885 11.67h10.89C11.775 5.654 6.899.776.885.776V11.67z"/>
        <path id="prefix__m" d="M.885.341v10.894c6.014 0 10.89-4.877 10.89-10.894H.885z"/>
        <path id="prefix__o" d="M0 0.538L133.339 0.538 133.339 132.727 0 132.727z"/>
        <path id="prefix__q" d="M0.126 0.538L133.465 0.538 133.465 132.727 0.126 132.727z"/>
        <path id="prefix__s" d="M0 304L372.531 304 372.531 0.538 0 0.538z"/>
        <path id="prefix__u" d="M.846 8.162c0 4.374 3.504 7.92 7.823 7.92 4.32 0 7.822-3.546 7.822-7.92 0-4.375-3.502-7.921-7.822-7.921C4.348.241.846 3.787.846 8.162z"/>
        <path id="prefix__w" d="M.152 2.162c0 .783.636 1.419 1.42 1.419.783 0 1.418-.636 1.418-1.419 0-.784-.635-1.419-1.418-1.419-.784 0-1.42.635-1.42 1.419z"/>
        <path id="prefix__y" d="M.127.373c0 2.993 2.426 5.42 5.418 5.42V.373H.127z"/>
        <path id="prefix__A" d="M.127 5.951h5.418V.53C2.553.53.127 2.957.127 5.951z"/>
        <path id="prefix__C" d="M.794 5.951h5.417C6.211 2.957 3.787.53.794.53v5.421z"/>
        <path id="prefix__E" d="M.794.374v5.42c2.993 0 5.417-2.427 5.417-5.42H.794z"/>
        <path id="prefix__G" d="M0 304L372.531 304 372.531 0.538 0 0.538z"/>
        <path id="prefix__I" d="M0 0L150 0 150 52 0 52z"/>
        <path id="prefix__K" d="M0 0L150 0 150 52 0 52z"/>
    </defs>
    <g fill="none" fill-rule="evenodd">
        <g>
            <path fill="#FFF" d="M168.948 214.029L200.356 214.029 200.356 176.241 168.948 176.241z" transform="translate(0 -1) translate(76 58)"/>
            <g transform="translate(0 -1) translate(76 58) translate(0 .462)">
                <path fill="#FFF" d="M144.59 156.266h-.059c-3.711 0-6.718-3.008-6.718-6.718v-10.14c0-3.71 3.007-6.719 6.718-6.719h.059c3.711 0 6.719 3.008 6.719 6.72v10.14c0 3.71-3.008 6.717-6.719 6.717"/>
                <path fill="#D0D2D3" d="M144.56 153.116c-3.726 0-6.747-2.995-6.747-6.69v3.15c0 3.695 3.02 6.69 6.748 6.69 3.727 0 6.748-2.995 6.748-6.69v-3.15c0 3.695-3.021 6.69-6.748 6.69"/>
                <path fill="#FFF" d="M224.772 156.266h-.06c-3.71 0-6.717-3.008-6.717-6.718v-10.14c0-3.71 3.007-6.719 6.718-6.719h.059c3.71 0 6.719 3.008 6.719 6.72v10.14c0 3.71-3.008 6.717-6.72 6.717"/>
                <path fill="#D0D2D3" d="M224.742 153.116c-3.727 0-6.748-2.995-6.748-6.69v3.15c0 3.695 3.021 6.69 6.748 6.69 3.727 0 6.748-2.995 6.748-6.69v-3.15c0 3.695-3.02 6.69-6.748 6.69"/>
                <path fill="#FFF" d="M145.15 130.026c1.307-6.653 4.279-12.716 8.477-17.739 1.21-1.458 2.53-2.823 3.938-4.095 7.15-6.459 16.653-10.39 27.087-10.39.463 0 .93.008 1.393.027.157 0 .313.008.466.015 10.379.467 19.726 4.827 26.606 11.647 6.126 6.074 10.288 14.103 11.453 23.062.22 1.688.333 3.407.333 5.153v7.901c0 22.04-18.02 39.904-40.251 39.904-22.228 0-40.251-17.864-40.251-39.904v-7.901c0-1.696.106-3.364.314-5l.435-2.68z"/>
                <path fill="#D0D2D3" d="M184.652 179.209c-22.228 0-40.251-17.863-40.251-39.903v6.3c0 22.04 18.023 39.906 40.25 39.906 22.232 0 40.252-17.865 40.252-39.905v-6.301c0 22.04-18.02 39.903-40.251 39.903"/>
                <path fill="#4B6084" d="M144.836 130.026h4.158v19.122c0 1.19-.88 2.25-2.074 2.359-1.37.126-2.52-.936-2.52-2.264v-13.824c0-1.806.146-3.61.436-5.393M224.903 135.188v13.952c0 1.19-.876 2.252-2.07 2.366-1.37.132-2.523-.932-2.523-2.263v-19.217h3.845c.495 1.677.748 3.415.748 5.162"/>
                <path fill="#4B6084" d="M186.044 97.829c-4.07 6.3-14.163 19.917-30.508 29.495-3.933 2.302-7.547 4.06-10.82 5.382l.003-.016c.972-7.7 4.157-14.718 8.907-20.403 1.212-1.458 2.53-2.823 3.94-4.095 7.15-6.46 16.652-10.39 27.085-10.39.463 0 .93.008 1.393.027"/>
                <path fill="#808F91" d="M224.57 132.553c-5.48 1.646-16.278 3.196-33.427-1.248-17.34-4.49-30.5-13.399-37.517-19.019 1.213-1.458 2.53-2.823 3.939-4.094 7.15-6.459 16.653-10.39 27.087-10.39.62 0 1.243.012 1.859.042 10.379.467 19.726 4.826 26.606 11.647 6.126 6.074 10.288 14.103 11.453 23.062"/>
                <path fill="#4B6084" d="M191.143 107.974c-7.593-1.967-14.384-4.78-20.21-7.794-4.99 1.793-9.52 4.535-13.368 8.012-1.408 1.271-2.727 2.636-3.94 4.094 7.018 5.62 20.178 14.528 37.518 19.02 17.148 4.443 27.947 2.893 33.427 1.247-1.082-8.318-4.75-15.833-10.174-21.727-5.83.261-13.517-.329-23.253-2.852"/>
                <path fill="#808F91" d="M191.143 115.752c-11.086-2.872-20.46-7.55-27.616-12.018-2.127 1.304-4.123 2.797-5.962 4.458-1.408 1.272-2.727 2.637-3.94 4.095 7.018 5.619 20.178 14.528 37.518 19.019 17.148 4.444 27.947 2.893 33.427 1.248-.677-5.205-2.372-10.094-4.87-14.471-6.15.96-15.515 1.049-28.557-2.331"/>
                <path fill="#4B6084" d="M191.143 123.528c-14.226-3.684-25.634-10.341-33.148-15.716-.144.126-.29.252-.43.38-1.408 1.272-2.727 2.637-3.94 4.095 7.018 5.619 20.178 14.527 37.518 19.018 17.148 4.445 27.947 2.894 33.427 1.248-.328-2.522-.903-4.968-1.683-7.321-5.878 1.428-16.203 2.324-31.744-1.704"/>
                <path fill="#A62873" d="M184.671 158.825h-.039c-2.444 0-4.426-1.981-4.426-4.427v-5.761c0-2.444 1.982-4.426 4.426-4.426h.04c2.443 0 4.426 1.982 4.426 4.426v5.76c0 2.447-1.983 4.428-4.427 4.428"/>
                <path fill="#2F968A" d="M256.038 230.899v24.677c-2.278 1.65-4.622 3.214-7.02 4.696-5.527 3.421-11.342 6.412-17.417 8.921-1.554.651-3.13 1.265-4.725 1.846-.269.102-.543.201-.817.298h-.005c-6.26 2.243-12.749 3.986-19.442 5.196-2.799.511-5.63.923-8.494 1.227-3.494.385-7.03.619-10.607.701-.603.016-1.21.021-1.819.027h-.006l-.044.136-.416-.136c-.19.005-.382.005-.575.005-.35 0-.706 0-1.056-.005-.609-.006-1.21-.011-1.819-.027h-.006c-3.57-.082-7.097-.316-10.586-.701-2.896-.309-5.766-.727-8.603-1.244-6.648-1.21-13.106-2.947-19.327-5.179-.279-.097-.558-.201-.832-.304-1.594-.581-3.17-1.195-4.727-1.84-6.067-2.515-11.888-5.506-17.409-8.921-2.399-1.482-4.737-3.046-7.02-4.691v-27.374c0-17.283 14.128-31.285 31.55-31.285h13.691l9.463 30.742v.006l.997 3.229h31.358l.997-3.229 9.458-30.748h13.696c17.416 0 31.545 14.002 31.545 31.285v2.692h.017z"/>
                <path fill="#0E6DA0" d="M231.602 269.193c-1.555.651-3.132 1.265-4.726 1.846l.635-4.654.838-6.096 3.236-23.613.017 32.517zM142.422 271.033c-1.594-.581-3.17-1.194-4.727-1.84v-32.516l4.727 34.356z"/>
                <path fill="#FFF" d="M201.317 227.664l-.997 3.235-7.716 25.084v.005l-.16.522-1.954 6.363-1.445 4.696-1.961 6.364-1.397 4.555-.044.136-.416-.136c-.191.005-.383.005-.575.005-.351 0-.706 0-1.057-.005l-.18-.587-1.764-5.733-2.394-7.78-1.757-5.734-.805-2.616-7.728-25.14-.997-3.228v-.006l8.67-7.33 7.995-6.765h.006l7.947 6.716.082.066.005.005 8.642 7.308z"/>
                <path fill="#A62873" d="M169.355 140.772c0 1.861-1.521 3.37-3.4 3.37-1.876 0-3.4-1.509-3.4-3.37 0-1.86 1.524-3.37 3.4-3.37 1.879 0 3.4 1.51 3.4 3.37M206.747 140.772c0 1.861-1.52 3.37-3.399 3.37-1.877 0-3.4-1.509-3.4-3.37 0-1.86 1.523-3.37 3.4-3.37 1.878 0 3.4 1.51 3.4 3.37M184.652 170.808c-4.216 0-8.433-1.592-11.643-4.773-.48-.478-.48-1.25 0-1.728.482-.478 1.262-.478 1.744 0 5.459 5.412 14.34 5.412 19.798 0 .482-.478 1.262-.478 1.744 0 .48.478.48 1.25 0 1.728-3.21 3.181-7.426 4.773-11.643 4.773"/>
                <path fill="#E7AD26" d="M192.604 255.983v.005l-.16.521-1.954 6.364-1.446 4.696-1.961 6.363-1.396 4.556-.044.136-.416-.136c-.191.005-.383.005-.575.005-.351 0-.706 0-1.057-.005l-.18-.587-1.764-5.733-2.394-7.781-1.757-5.733-.805-2.616.399-4.512.449-5.018v-.004l.603-6.798v-.005l.443-5.017.334-3.785.034-.374.405-4.561h10.58l.405 4.561v.006l.033.368.69 7.84.477 5.315.64 7.211.417 4.718z"/>
                <path fill="#E8CD5D" d="M191.546 244.054L178.144 239.702 178.588 234.685 191.074 238.739zM192.604 255.987L192.604 255.984 192.185 251.264 177.541 246.509 177.096 251.525 192.445 256.508zM190.488 262.875L189.042 267.567 179.258 264.39 177.499 258.657z"/>
                <path fill="#F6D85E" d="M187.083 273.932L185.687 278.488 185.643 278.623 185.227 278.488 183.414 277.901 181.65 272.167z"/>
                <path fill="#E8CD5D" d="M188.269 230.901h-7.234c-4.081 0-6.898-4.052-5.446-7.832l2.22-5.781c.86-2.241 3.027-3.721 5.445-3.721h2.795c2.418 0 4.585 1.48 5.446 3.721l2.22 5.781c1.452 3.78-1.365 7.832-5.446 7.832"/>
                <path fill="#E2854A" d="M210.782 196.921L210.782 196.921 200.357 191.096 184.651 213.566 201.32 227.667zM158.506 196.921L158.506 196.921 168.932 191.096 184.637 213.566 167.968 227.667z"/>
                <path fill="#007D8D" d="M220.534 239.044l-33.023 39.417c-.603.017-1.21.02-1.819.027l14.633-47.59.997-3.228 9.458-30.747 8.637 27.283c.311.987-.208 2.046-1.184 2.41l-6.703 2.503c-1.686.624-1.703 2.987-.027 3.638l8.242 3.224c1.243.484 1.648 2.037.79 3.063M183.595 278.488c-.608-.006-1.211-.011-1.818-.027h-.006l-33.018-39.417c-.854-1.027-.454-2.58.794-3.063l8.236-3.224c1.682-.652 1.66-3.014-.026-3.638l-6.704-2.503c-.975-.364-1.495-1.423-1.183-2.41l8.637-27.283 20.75 67.464 2.394 7.78 1.763 5.734.18.587z"/>
                <path fill="#D0D2D3" d="M200.341 186.806L184.652 203.801 184.637 203.801 168.947 186.806 168.932 191.096 184.637 213.567 184.652 213.567 200.358 191.096z"/>
                <path fill="#E7AD26" d="M226.863 266.456h-9.181c-1.7 0-3.08-1.378-3.08-3.078v-.397c0-1.7 1.38-3.08 3.08-3.08h9.181c1.7 0 3.08 1.38 3.08 3.08v.397c0 1.7-1.38 3.078-3.08 3.078"/>
                <path fill="#0E6DA0" d="M290.973 218.493c-.73 1.397-1.48 2.777-2.263 4.139-4.423 7.705-9.693 14.876-15.674 21.389-.405.443-.815.882-1.23 1.316-2.294 2.41-4.681 4.727-7.163 6.937-.563.508-1.134 1-1.705 1.494-.092.087-.19.169-.281.246-.033.029-.065.06-.102.087-2.506 2.138-5.108 4.175-7.795 6.094-2.234 1.62-4.538 3.155-6.892 4.612-5.428 3.363-11.14 6.299-17.107 8.76-1.525.64-3.073 1.244-4.64 1.815-.262.1-.534.196-.801.292h-.005c-2.994 1.069-6.035 2.023-9.131 2.864-3.267.882-6.59 1.63-9.966 2.242-.69.124-1.387.247-2.082.36-2.068.334-4.156.618-6.257.84-3.432.38-6.906.61-10.422.692-.414.013-.83.017-1.248.022-.18 0-.354.005-.534.005h-.005c-.101 0-.203.004-.302.004-.05 0-.1-.003-.15-.004-.188.004-.378.004-.566.004-.346 0-.696 0-1.036-.004-.176 0-.351-.005-.521-.005-.424-.005-.844-.01-1.268-.022h-.004c-3.506-.082-6.971-.311-10.4-.691-2.1-.223-4.186-.507-6.26-.844-.732-.115-1.461-.243-2.188-.374-3.317-.604-6.58-1.34-9.795-2.207-3.114-.84-6.18-1.804-9.186-2.882-.273-.096-.55-.197-.816-.297-1.566-.571-3.115-1.174-4.644-1.81-5.957-2.466-11.675-5.407-17.098-8.76-2.355-1.457-4.653-2.991-6.893-4.608-2.722-1.95-5.357-4.015-7.896-6.185-.056-.041-.102-.09-.156-.136-.604-.516-1.2-1.037-1.792-1.567-2.466-2.192-4.838-4.49-7.11-6.887-.447-.471-.893-.946-1.331-1.426-5.985-6.495-11.251-13.666-15.665-21.366-.783-1.362-1.534-2.742-2.262-4.14-8.487-16.282-13.283-34.767-13.283-54.356 0-65.485 53.55-118.574 119.604-118.574 66.053 0 119.603 53.089 119.603 118.574 0 19.589-4.796 38.074-13.282 54.357m13.79-104.665c-6.565-15.391-15.964-29.211-27.933-41.076-11.968-11.866-25.91-21.184-41.433-27.694-16.078-6.742-33.152-10.16-50.745-10.16-17.594 0-34.667 3.418-50.745 10.16-15.525 6.51-29.465 15.828-41.434 27.694-11.97 11.865-21.366 25.685-27.933 41.076-6.8 15.939-10.25 32.865-10.25 50.308 0 10.467 1.27 20.886 3.772 30.966 2.43 9.795 6.035 19.312 10.712 28.287.833 1.598 1.642 3.08 2.475 4.527 4.778 8.335 10.518 16.166 17.052 23.26.423.462.873.944 1.457 1.559 2.453 2.59 5.067 5.12 7.757 7.514.64.57 1.247 1.102 1.846 1.615.104.095.229.204.374.323 2.729 2.327 5.589 4.565 8.502 6.652 2.403 1.734 4.927 3.422 7.503 5.015 5.959 3.685 12.232 6.899 18.648 9.555 1.64.68 3.333 1.34 5.025 1.958.31.116.629.232.944.344 3.289 1.178 6.653 2.233 9.998 3.136 3.499.944 7.093 1.753 10.68 2.405.648.118 1.508.27 2.424.415 2.268.369 4.554.678 6.796.916 3.69.407 7.487.659 11.287.75.528.015 1.03.02 1.437.025h.116l.11.002c.109 0 .218.003.329.003.368.005.746.005 1.118.005.192 0 .385 0 .578-.003h.138l.257-.001.054-.001.406-.003.124-.002H186.326c.406-.005.909-.01 1.433-.026 3.805-.091 7.602-.342 11.286-.748 2.226-.237 4.52-.546 6.818-.916l.014-.003.016-.002c.764-.126 1.52-.26 2.23-.387l.015-.002.015-.003c3.642-.66 7.295-1.482 10.856-2.443 2.736-.743 5.465-1.577 8.143-2.49h.05l1.78-.636.129-.047c.264-.095.53-.19.792-.29 1.72-.628 3.408-1.287 5.014-1.96 6.425-2.653 12.7-5.866 18.65-9.553 2.622-1.622 5.15-3.314 7.513-5.028 2.86-2.044 5.68-4.246 8.387-6.55.1-.082.188-.157.263-.223.119-.102.252-.217.396-.347.558-.482 1.134-.982 1.73-1.518 2.655-2.365 5.27-4.9 7.776-7.533.453-.472.913-.966 1.37-1.465 6.535-7.117 12.278-14.954 17.058-23.282.827-1.437 1.638-2.92 2.472-4.52 4.675-8.972 8.279-18.49 10.71-28.284 2.502-10.08 3.77-20.5 3.77-30.966 0-17.443-3.447-34.37-10.248-50.308"/>
                <path fill="#8ED1E5" d="M268.058 241.843c-2.195 2.31-4.48 4.524-6.855 6.64-.54.485-1.085.958-1.632 1.43-.088.082-.181.161-.27.236-.03.026-.06.056-.097.083-2.398 2.046-4.89 3.995-7.46 5.831-2.137 1.551-4.342 3.02-6.595 4.415-5.195 3.217-10.661 6.027-16.371 8.384-1.46.611-2.941 1.188-4.44 1.735-.252.096-.511.187-.767.28h-.004c-2.866 1.022-5.777 1.936-8.74 2.74-3.125.843-6.304 1.56-9.537 2.146-.661.118-1.327.236-1.992.346-1.98.318-3.977.59-5.988.803-3.284.364-6.608.582-9.973.661-.397.013-.794.017-1.195.022-.172 0-.34.004-.512.004h-.004c-.096 0-.194.004-.29.004-.048 0-.094 0-.142-.004-.181.004-.362.004-.542.004-.33 0-.666 0-.992-.004-.167 0-.335-.004-.498-.004-.406-.005-.807-.009-1.212-.022h-.005c-3.356-.079-6.671-.297-9.951-.66-2.011-.215-4.008-.486-5.993-.809-.701-.11-1.397-.232-2.093-.359-3.175-.577-6.297-1.28-9.374-2.11-2.981-.805-5.913-1.728-8.792-2.759-.26-.092-.525-.187-.781-.284-1.5-.547-2.98-1.123-4.444-1.73-5.701-2.36-11.173-5.176-16.362-8.384-2.253-1.395-4.453-2.864-6.596-4.41-2.605-1.868-5.128-3.843-7.557-5.919-.053-.039-.097-.088-.15-.13-.577-.495-1.147-.993-1.715-1.5-2.36-2.099-4.63-4.298-6.804-6.593-.427-.449-.855-.904-1.273-1.363-5.728-6.216-10.768-13.078-14.991-20.449-.75-1.3-1.47-2.622-2.165-3.959-8.121-15.583-12.711-33.273-12.711-52.02 0-62.669 51.246-113.474 114.459-113.474s114.46 50.805 114.46 113.474c0 18.747-4.59 36.437-12.712 52.02-.696 1.337-1.415 2.658-2.165 3.96-4.233 7.374-9.277 14.237-15 20.47-.387.423-.78.843-1.177 1.258m4.143 3.86c.416-.436.828-.877 1.235-1.322 6.007-6.542 11.302-13.746 15.744-21.486.787-1.367 1.542-2.753 2.273-4.157 8.525-16.357 13.342-34.924 13.342-54.603 0-65.78-53.791-119.108-120.143-119.108S64.508 98.355 64.508 164.135c0 19.68 4.819 38.246 13.343 54.603.73 1.404 1.485 2.79 2.272 4.157 4.434 7.735 9.724 14.94 15.736 21.464.439.481.888.96 1.337 1.431 2.282 2.408 4.665 4.716 7.14 6.918.598.532 1.196 1.056 1.8 1.574.057.046.104.097.158.138 2.55 2.18 5.198 4.253 7.933 6.212 2.249 1.625 4.559 3.166 6.924 4.63 5.447 3.367 11.19 6.322 17.175 8.8 1.536.637 3.09 1.243 4.665 1.817.268.101.546.201.819.298 3.02 1.083 6.1 2.051 9.227 2.896 3.23.871 6.508 1.61 9.84 2.215.73.133 1.462.262 2.199.376 2.082.34 4.178.624 6.289.85 3.443.38 6.923.61 10.445.692h.005c.426.014.847.02 1.272.023.172 0 .348.005.524.005.343.005.694.005 1.04.005.19 0 .38 0 .57-.005.05.002.1.002.149.002l.305-.002h.004c.18 0 .357-.005.537-.005.42-.004.838-.009 1.254-.023 3.53-.083 7.022-.312 10.469-.693 2.11-.225 4.207-.509 6.285-.844.698-.114 1.397-.238 2.092-.362 3.392-.615 6.729-1.367 10.01-2.253 3.11-.845 6.165-1.803 9.173-2.877h.004c.269-.097.542-.192.806-.293 1.573-.574 3.128-1.18 4.66-1.822 5.993-2.473 11.733-5.423 17.184-8.8 2.365-1.464 4.679-3.005 6.924-4.634 2.698-1.928 5.313-3.973 7.83-6.12.037-.028.07-.06.102-.088.093-.078.19-.16.282-.248.575-.495 1.148-.99 1.713-1.5 2.494-2.22 4.892-4.547 7.197-6.97"/>
                <path fill="#FFF" d="M184.652 45.027c66.13 0 119.779 52.975 120.136 118.453.003-.364.008-.728.008-1.094 0-65.78-53.791-119.108-120.144-119.108-66.352 0-120.144 53.328-120.144 119.108 0 .366.005.73.009 1.094.357-65.478 54.004-118.453 120.135-118.453"/>
                <path fill="#0E6DA0" d="M367.465 237.905c0 36.504-29.85 66.095-66.67 66.095s-66.669-29.591-66.669-66.095c0-36.503 29.849-66.095 66.669-66.095 36.82 0 66.67 29.592 66.67 66.095"/>
                <path fill="#8ED1E5" d="M358.7 237.905c0 31.705-25.925 57.406-57.905 57.406s-57.906-25.701-57.906-57.406c0-31.704 25.926-57.406 57.906-57.406S358.7 206.2 358.7 237.905"/>
                <path fill="#0E6DA0" d="M133.34 235.555c0 36.504-29.85 66.095-66.67 66.095S0 272.06 0 235.555c0-36.503 29.85-66.095 66.67-66.095s66.67 29.592 66.67 66.095"/>
                <path fill="#8ED1E5" d="M124.574 235.555c0 31.705-25.925 57.406-57.905 57.406s-57.906-25.7-57.906-57.406c0-31.704 25.925-57.406 57.906-57.406 31.98 0 57.905 25.702 57.905 57.406"/>
                <path fill="#FFF" d="M331.616 258.23l-15.775 3.09c-2.914.57-5.888.731-8.835.481-1.95-.165-3.435-1.814-3.435-3.755v-1.884c0-.695.568-1.257 1.268-1.257h7.713c2.04 0 3.816-1.558 3.877-3.577.064-2.09-1.626-3.805-3.72-3.805h-36.362v19.005h2.067c1.351 0 2.66.472 3.694 1.335.742.618 1.63 1.04 2.581 1.226l18.866 3.697c4.056.794 8.23.794 12.286 0l17.25-3.38c1.781-.349 3.065-1.898 3.065-3.698v-3.78c0-2.377-2.189-4.16-4.54-3.699"/>
                <path fill="#D1D3D4" d="M333.091 264.275l-17.25 3.38c-4.057.794-8.229.794-12.285 0l-18.866-3.696c-.952-.187-1.839-.609-2.581-1.227-1.035-.862-2.343-1.335-3.695-1.335h-2.066v5.131h2.066c1.352 0 2.66.473 3.695 1.335.742.618 1.629 1.04 2.581 1.226l18.866 3.697c4.056.794 8.228.794 12.285 0l17.25-3.38c1.781-.349 3.065-1.898 3.065-3.698v-3.781c0-.232-.021-.458-.061-.676-.274 1.501-1.449 2.719-3.004 3.024"/>
                <path fill="#009ADD" d="M272.562 274.512h-4.627c-2.091 0-3.786-1.695-3.786-3.786V244.53c0-2.09 1.695-3.787 3.786-3.787h4.627c2.092 0 3.786 1.696 3.786 3.787v26.197c0 2.091-1.694 3.786-3.786 3.786"/>
                <path fill="#0E6DA0" d="M272.546 266.135h-4.595c-2.099 0-3.802-1.687-3.802-3.77v8.377c0 2.082 1.703 3.77 3.802 3.77h4.595c2.1 0 3.802-1.688 3.802-3.77v-8.377c0 2.083-1.702 3.77-3.802 3.77"/>
                <path fill="#D1D3D4" d="M303.572 258.046v-1.885c0-.694.567-1.256 1.267-1.256h7.697c1.962 0 3.72-1.43 3.882-3.37.01-.135.015-.267.012-.4h-10.673c-3.123 0-5.579 2.648-5.317 5.733.221 2.615 2.346 4.675 4.988 4.837l1.579.096c-1.952-.164-3.435-1.815-3.435-3.755"/>
                <mask id="prefix__b" fill="#fff">
                    <use xlink:href="#prefix__a"/>
                </mask>
                <path fill="#A33927" d="M273.57 228.043L328.021 228.043 328.021 193.185 273.57 193.185z" mask="url(#prefix__b)"/>
                <path fill="#BF412E" d="M271.272 232.576L330.319 232.576 330.319 197.268 271.272 197.268z" mask="url(#prefix__b)"/>
                <path fill="#F8E482" d="M268.897 236.659L332.694 236.659 332.694 201.351 268.897 201.351z" mask="url(#prefix__b)"/>
            </g>
            <g transform="translate(0 -1) translate(76 58) translate(285 203.462)">
                <mask id="prefix__d" fill="#fff">
                    <use xlink:href="#prefix__c"/>
                </mask>
                <path fill="#FFF" d="M-0.203 32.2L31.793 32.2 31.793 -0.19 -0.203 -0.19z" mask="url(#prefix__d)"/>
            </g>
            <path fill="#F6D85E" d="M324.72 222.32c-1.574 0-2.853-1.279-2.853-2.854 0-1.575 1.279-2.852 2.853-2.852 1.574 0 2.853 1.277 2.853 2.852s-1.28 2.854-2.853 2.854" transform="translate(0 -1) translate(76 58)"/>
            <g transform="translate(0 -1) translate(76 58) translate(321 216.462)">
                <mask id="prefix__f" fill="#fff">
                    <use xlink:href="#prefix__e"/>
                </mask>
                <path fill="#F6D85E" d="M0.593 6.133L6.847 6.133 6.847 -0.122 0.593 -0.122z" mask="url(#prefix__f)"/>
            </g>
            <path fill="#E14027" d="M332.706 212.696v-10.895h-10.89c0 6.017 4.875 10.895 10.89 10.895" transform="translate(0 -1) translate(76 58)"/>
            <g transform="translate(0 -1) translate(76 58) translate(321 201.462)">
                <mask id="prefix__h" fill="#fff">
                    <use xlink:href="#prefix__g"/>
                </mask>
                <path fill="#E14027" d="M0.542 11.508L11.98 11.508 11.98 0.064 0.542 0.064z" mask="url(#prefix__h)"/>
            </g>
            <path fill="#E14027" d="M332.706 226.238c-6.015 0-10.89 4.878-10.89 10.895h10.89v-10.895z" transform="translate(0 -1) translate(76 58)"/>
            <g transform="translate(0 -1) translate(76 58) translate(321 225.462)">
                <mask id="prefix__j" fill="#fff">
                    <use xlink:href="#prefix__i"/>
                </mask>
                <path fill="#E14027" d="M0.542 11.946L11.98 11.946 11.98 0.502 0.542 0.502z" mask="url(#prefix__j)"/>
            </g>
            <g>
                <path fill="#F6D85E" d="M8.87.152c1.574 0 2.853 1.279 2.853 2.854 0 1.575-1.279 2.852-2.853 2.852-1.574 0-2.852-1.277-2.852-2.852S7.296.152 8.87.152" transform="translate(0 -1) translate(76 58) translate(268 216.462)"/>
                <path fill="#E14027" d="M.885 9.776v10.895h10.89c0-6.017-4.876-10.895-10.89-10.895" transform="translate(0 -1) translate(76 58) translate(268 216.462)"/>
            </g>
            <g transform="translate(0 -1) translate(76 58) translate(268 225.462)">
                <mask id="prefix__l" fill="#fff">
                    <use xlink:href="#prefix__k"/>
                </mask>
                <path fill="#E14027" d="M0.611 11.946L12.049 11.946 12.049 0.502 0.611 0.502z" mask="url(#prefix__l)"/>
            </g>
            <path fill="#E14027" d="M268.885 212.697c6.014 0 10.89-4.877 10.89-10.895h-10.89v10.895z" transform="translate(0 -1) translate(76 58)"/>
            <g transform="translate(0 -1) translate(76 58) translate(268 201.462)">
                <mask id="prefix__n" fill="#fff">
                    <use xlink:href="#prefix__m"/>
                </mask>
                <path fill="#E14027" d="M0.9 0.244L12.407 0.233 12.407 11.678 0.885 11.775z" mask="url(#prefix__n)"/>
            </g>
            <g transform="translate(0 -1) translate(76 58) translate(0 .462)">
                <mask id="prefix__p" fill="#fff">
                    <use xlink:href="#prefix__o"/>
                </mask>
                <path fill="#0E6DA0" d="M133.34 66.632c0 36.503-29.85 66.095-66.67 66.095S0 103.135 0 66.632 29.85.537 66.67.537s66.67 29.593 66.67 66.095" mask="url(#prefix__p)"/>
                <path fill="#8ED1E5" d="M124.574 66.632c0 31.706-25.925 57.406-57.905 57.406S8.763 98.338 8.763 66.632c0-31.704 25.925-57.406 57.906-57.406 31.98 0 57.905 25.703 57.905 57.406"/>
                <g transform="translate(234)">
                    <mask id="prefix__r" fill="#fff">
                        <use xlink:href="#prefix__q"/>
                    </mask>
                    <path fill="#0E6DA0" d="M133.465 66.632c0 36.503-29.85 66.095-66.67 66.095S.126 103.135.126 66.632 29.975.537 66.795.537c36.82 0 66.67 29.593 66.67 66.095" mask="url(#prefix__r)"/>
                </g>
                <path fill="#8ED1E5" d="M358.7 66.632c0 31.706-25.925 57.406-57.905 57.406s-57.906-25.7-57.906-57.406c0-31.704 25.926-57.406 57.906-57.406S358.7 34.93 358.7 66.632"/>
                <path fill="#E6E7E8" d="M88.493 109.812H44.845c-1.896 0-3.433-1.536-3.433-3.432V24.043c0-1.896 1.537-3.432 3.433-3.432h43.648c1.896 0 3.433 1.536 3.433 3.432v82.337c0 1.896-1.537 3.432-3.433 3.432"/>
                <path fill="#FFF" d="M82.639 109.812h-31.94c-1.641 0-2.972-1.33-2.972-2.973V23.583c0-1.64 1.33-2.972 2.973-2.972h31.939c1.643 0 2.973 1.331 2.973 2.972v83.256c0 1.643-1.33 2.973-2.973 2.973"/>
                <path fill="#1CAEE4" d="M86.234 103.78H47.106c-1.345 0-2.435-1.09-2.435-2.434v-72.27c0-1.343 1.09-2.433 2.434-2.433h39.129c1.344 0 2.434 1.09 2.434 2.434v72.269c0 1.344-1.09 2.434-2.434 2.434"/>
                <path fill="#BCBEC0" d="M70.718 24.776h-8.097c-.632 0-1.145-.509-1.145-1.137 0-.627.513-1.135 1.145-1.135h8.097c.633 0 1.146.508 1.146 1.135 0 .628-.513 1.137-1.146 1.137"/>
                <path fill="#FFF" d="M70.718 107.92h-8.097c-.632 0-1.145-.51-1.145-1.136 0-.628.513-1.135 1.145-1.135h8.097c.633 0 1.146.507 1.146 1.135 0 .627-.513 1.136-1.146 1.136"/>
                <path fill="#136DA0" d="M86.223 26.643H47.116c-1.35 0-2.445 1.085-2.445 2.423v2.424h43.996v-2.424c0-1.338-1.094-2.423-2.444-2.423"/>
                <mask id="prefix__t" fill="#fff">
                    <use xlink:href="#prefix__s"/>
                </mask>
                <path fill="#009ADD" d="M85.611 98.933L88.667 98.933 88.667 31.49 85.611 31.49z" mask="url(#prefix__t)"/>
                <path fill="#136DA0" d="M86.223 103.78H47.116c-1.35 0-2.445-1.085-2.445-2.423v-2.424h43.996v2.424c0 1.338-1.094 2.423-2.444 2.423" mask="url(#prefix__t)"/>
                <path fill="#009ADD" d="M44.671 98.933L47.727 98.933 47.727 31.49 44.671 31.49z" mask="url(#prefix__t)"/>
                <path stroke="#FFF" stroke-linecap="round" stroke-linejoin="round" stroke-width="2.811" d="M54.152 68.198L79.187 68.198M54.152 74.729L79.187 74.729" mask="url(#prefix__t)"/>
                <path fill="#009ADD" d="M79.25 95.164H54.09c-.62 0-1.125-.504-1.125-1.125V84.53c0-.621.504-1.124 1.125-1.124h25.16c.62 0 1.123.503 1.123 1.124v9.508c0 .62-.503 1.125-1.124 1.125" mask="url(#prefix__t)"/>
                <path fill="#E43D91" d="M79.25 93.484H54.09c-.62 0-1.125-.504-1.125-1.125v-9.508c0-.621.504-1.124 1.125-1.124h25.16c.62 0 1.123.503 1.123 1.124v9.508c0 .621-.503 1.125-1.124 1.125" mask="url(#prefix__t)"/>
                <path fill="#AD4A90" d="M79.25 91.804H54.09c-.62 0-1.125-.504-1.125-1.125v-9.507c0-.62.504-1.125 1.125-1.125h25.16c.62 0 1.123.504 1.123 1.125v9.507c0 .621-.503 1.125-1.124 1.125" mask="url(#prefix__t)"/>
                <path fill="#E43D91" d="M71.868 85.46c.021-.037.044-.074.061-.113.022-.055.037-.112.051-.167.007-.025.017-.047.022-.072.014-.071.021-.143.024-.216l.002-.026c.007-.347-.12-.696-.388-.962-.52-.516-1.366-.516-1.886 0L66.38 87.25l-1.666-1.65c-.52-.517-1.366-.517-1.887 0-.014.013-.022.03-.036.044-.24.259-.359.588-.352.917l.003.03c.003.072.01.143.024.213.005.025.015.05.022.075.015.055.028.109.051.162.016.042.042.08.063.12.02.035.035.07.057.106.048.07.105.14.168.204h.001l2.608 2.586c.103.1.224.18.353.244.183.09.383.142.591.142.176 0 .35-.034.51-.1.161-.066.308-.162.433-.286l2.878-2.855 1.44-1.427.006-.008c.061-.062.116-.127.161-.196.024-.035.04-.073.06-.11" mask="url(#prefix__t)"/>
                <path fill="#FEDE3A" d="M66.38 89.324c-.354 0-.693-.14-.943-.388l-2.61-2.586c-.52-.515-.52-1.353 0-1.87.522-.516 1.366-.516 1.887 0l1.666 1.65 3.374-3.345c.521-.517 1.365-.517 1.887 0 .52.517.52 1.353 0 1.87l-4.318 4.28c-.25.249-.589.389-.943.389" mask="url(#prefix__t)"/>
                <path fill="#F7CB15" d="M71.64 82.873l-4.316 4.28c-.251.249-.59.389-.944.389-.353 0-.693-.14-.943-.388l-2.61-2.586c-.013-.013-.022-.03-.036-.044-.48.52-.47 1.325.037 1.827l2.609 2.585c.25.249.59.388.943.388.355 0 .693-.14.944-.388l4.317-4.281c.507-.503.517-1.307.036-1.826-.014.014-.022.03-.036.044" mask="url(#prefix__t)"/>
                <path fill="#F8E482" d="M50.8 55.944L82.538 55.944 82.538 38.379 50.8 38.379z" mask="url(#prefix__t)"/>
            </g>
            <g transform="translate(0 -1) translate(76 58) translate(58 39.462)">
                <mask id="prefix__v" fill="#fff">
                    <use xlink:href="#prefix__u"/>
                </mask>
                <path fill="#FFF" d="M0.71 16.218L16.628 16.218 16.628 0.105 0.71 0.105z" mask="url(#prefix__v)"/>
            </g>
            <g transform="translate(0 -1) translate(76 58) translate(77 45.462)">
                <mask id="prefix__x" fill="#fff">
                    <use xlink:href="#prefix__w"/>
                </mask>
                <path fill="#F6D85E" d="M0.016 3.717L3.127 3.717 3.127 0.606 0.016 0.606z" mask="url(#prefix__x)"/>
            </g>
            <path fill="#E14027" d="M82.545 44.255v-5.42h-5.418c0 2.993 2.426 5.42 5.418 5.42" transform="translate(0 -1) translate(76 58)"/>
            <g transform="translate(0 -1) translate(76 58) translate(77 38.462)">
                <mask id="prefix__z" fill="#fff">
                    <use xlink:href="#prefix__y"/>
                </mask>
                <path fill="#E14027" d="M-0.01 5.929L5.68 5.929 5.68 0.236 -0.01 0.236z" mask="url(#prefix__z)"/>
            </g>
            <path fill="#E14027" d="M82.545 50.992c-2.992 0-5.418 2.427-5.418 5.42h5.418v-5.42z" transform="translate(0 -1) translate(76 58)"/>
            <g transform="translate(0 -1) translate(76 58) translate(77 50.462)">
                <mask id="prefix__B" fill="#fff">
                    <use xlink:href="#prefix__A"/>
                </mask>
                <path fill="#E14027" d="M-0.01 6.086L5.68 6.086 5.68 0.393 -0.01 0.393z" mask="url(#prefix__B)"/>
            </g>
            <path fill="#F6D85E" d="M54.767 46.204c.783 0 1.419.637 1.419 1.42 0 .784-.636 1.419-1.42 1.419-.782 0-1.418-.635-1.418-1.42 0-.782.636-1.42 1.419-1.42" transform="translate(0 -1) translate(76 58)"/>
            <g transform="translate(0 -1) translate(76 58) translate(50 50.462)">
                <mask id="prefix__D" fill="#fff">
                    <use xlink:href="#prefix__C"/>
                </mask>
                <path fill="#E14027" d="M0.657 6.086L6.347 6.086 6.347 0.393 0.657 0.393z" mask="url(#prefix__D)"/>
            </g>
            <g transform="translate(0 -1) translate(76 58) translate(50 38.462)">
                <mask id="prefix__F" fill="#fff">
                    <use xlink:href="#prefix__E"/>
                </mask>
                <path fill="#E14027" d="M0.801 0.326L6.526 0.32 6.526 6.013 0.794 6.062z" mask="url(#prefix__F)"/>
            </g>
            <g transform="translate(0 -1) translate(76 58) translate(0 .462)">
                <path fill="#FFF" d="M78.818 40.968h-4.571c-.778 0-1.407-.63-1.407-1.406V37.05c0-.776.629-1.405 1.407-1.405h4.57v5.324z"/>
                <path fill="#D1D3D4" d="M72.84 38.016v1.687c0 .7.571 1.265 1.276 1.265h4.702v-1.686h-4.702c-.705 0-1.276-.567-1.276-1.266"/>
                <path fill="#FFF" d="M77.962 42.763V33.85c0-.87 1.037-1.332 1.694-.755l5.064 4.457c.456.401.456 1.108 0 1.51l-5.064 4.456c-.657.578-1.694.116-1.694-.754"/>
                <path fill="#D1D3D4" d="M84.72 37.551l-.101-.089-4.962 4.368c-.658.578-1.695.117-1.695-.755v1.688c0 .87 1.037 1.332 1.695.754l5.063-4.456c.456-.402.456-1.109 0-1.51"/>
                <path fill="#FFF" d="M53.972 58.488h4.57c.778 0 1.408-.63 1.408-1.405V54.57c0-.776-.63-1.406-1.407-1.406h-4.571v5.324z"/>
                <path fill="#D1D3D4" d="M59.95 55.537v1.687c0 .698-.572 1.264-1.277 1.264h-4.702v-1.686h4.702c.705 0 1.276-.567 1.276-1.265"/>
                <path fill="#FFF" d="M54.826 60.283v-8.914c0-.87-1.037-1.332-1.693-.754l-5.065 4.456c-.456.4-.456 1.108 0 1.51l5.065 4.457c.656.577 1.693.115 1.693-.755"/>
                <path fill="#D1D3D4" d="M48.069 55.07l.102-.088 4.962 4.368c.657.578 1.694.117 1.694-.754v1.687c0 .87-1.037 1.332-1.694.755l-5.064-4.457c-.456-.402-.456-1.11 0-1.51"/>
                <path fill="#F6CA14" d="M318.304 77.523l-57.238-.019c-2.854 0-5.166-2.315-5.165-5.168l.01-32.13c0-2.855 2.315-5.167 5.168-5.166l57.239.02c2.853 0 5.165 2.314 5.164 5.167l-.01 32.132c-.001 2.852-2.315 5.165-5.168 5.164"/>
                <path fill="#E7AD27" d="M318.304 76.49l-57.238-.02c-2.854 0-5.165-2.314-5.164-5.167l-.001 1.034c-.001 2.852 2.31 5.167 5.165 5.168l57.238.018c2.853 0 5.167-2.311 5.168-5.164v-1.033c-.001 2.852-2.314 5.165-5.168 5.164"/>
                <path fill="#FFF235" d="M318.318 35.06l-57.238-.02c-2.854-.002-5.167 2.311-5.168 5.165v1.033c0-2.854 2.314-5.166 5.168-5.165l57.238.02c2.853 0 5.165 2.314 5.164 5.167v-1.033c.002-2.854-2.31-5.167-5.164-5.168"/>
                <path fill="#E7AD27" d="M323.479 50.076L255.909 50.054 255.912 40.205 323.482 40.227z"/>
                <path fill="#FDDD3A" d="M316.554 58.59l-54.58-.02c-.983 0-1.778-.794-1.778-1.778 0-.982.796-1.778 1.779-1.778l54.58.018c.982 0 1.778.798 1.778 1.78-.001.982-.797 1.778-1.78 1.778M294.519 66.94l-32.548-.01c-.982 0-1.778-.797-1.778-1.779 0-.982.797-1.778 1.779-1.778l32.548.01c.98.001 1.778.797 1.777 1.78 0 .982-.797 1.778-1.778 1.777"/>
                <path fill="#1CAEE4" d="M339.775 97.419h-57.238c-2.853 0-5.166-2.313-5.166-5.166V60.12c0-2.853 2.313-5.166 5.166-5.166h57.238c2.854 0 5.166 2.313 5.166 5.166v32.132c0 2.853-2.312 5.166-5.166 5.166"/>
                <path fill="#009ADD" d="M339.775 96.385h-57.238c-2.853 0-5.166-2.313-5.166-5.166v1.033c0 2.853 2.313 5.166 5.166 5.166h57.238c2.854 0 5.166-2.313 5.166-5.166V91.22c0 2.853-2.312 5.166-5.166 5.166"/>
                <path fill="#27C1E6" d="M339.775 54.955h-57.238c-2.853 0-5.166 2.313-5.166 5.166v1.033c0-2.853 2.313-5.166 5.166-5.166h57.238c2.854 0 5.166 2.313 5.166 5.166V60.12c0-2.853-2.312-5.166-5.166-5.166"/>
                <path fill="#009ADD" d="M290.38 74.722h-5.51c-1.14 0-2.067-.926-2.067-2.066v-5.51c0-1.143.926-2.068 2.066-2.068h5.511c1.142 0 2.066.925 2.066 2.067v5.511c0 1.14-.924 2.066-2.066 2.066"/>
                <path fill="#FDDD3A" d="M290.38 74.31h-5.51c-1.14 0-2.067-.927-2.067-2.068v-5.51c0-1.142.926-2.067 2.066-2.067h5.511c1.142 0 2.066.925 2.066 2.067v5.51c0 1.141-.924 2.067-2.066 2.067"/>
                <mask id="prefix__H" fill="#fff">
                    <use xlink:href="#prefix__G"/>
                </mask>
                <path fill="#F6CA14" d="M285.559 71.553L289.692 71.553 289.692 67.42 285.559 67.42z" mask="url(#prefix__H)"/>
                <path fill="#F6CA14" d="M282.802 67.834L292.446 67.834 292.446 67.421 282.802 67.421zM282.802 71.553L292.446 71.553 292.446 71.14 282.802 71.14z" mask="url(#prefix__H)"/>
                <path fill="#F6CA14" d="M285.559 74.309L285.972 74.309 285.972 64.665 285.559 64.665zM289.279 74.309L289.692 74.309 289.692 64.665 289.279 64.665z" mask="url(#prefix__H)"/>
                <path fill="#FDDD3A" d="M291.812 85.039h-8.373c-.982 0-1.778-.796-1.778-1.778s.796-1.78 1.778-1.78h8.373c.98 0 1.778.798 1.778 1.78s-.797 1.778-1.778 1.778M307.214 85.039h-8.373c-.982 0-1.778-.796-1.778-1.778s.796-1.78 1.778-1.78h8.373c.982 0 1.778.798 1.778 1.78s-.796 1.778-1.778 1.778M322.616 85.039h-8.373c-.98 0-1.778-.796-1.778-1.778s.797-1.78 1.778-1.78h8.373c.982 0 1.778.798 1.778 1.78s-.796 1.778-1.778 1.778M338.019 85.039h-8.372c-.982 0-1.778-.796-1.778-1.778s.796-1.78 1.778-1.78h8.372c.982 0 1.778.798 1.778 1.78s-.796 1.778-1.778 1.778M315.986 91.79h-32.548c-.981 0-1.777-.796-1.777-1.778 0-.983.796-1.78 1.777-1.78h32.548c.981 0 1.779.797 1.779 1.78 0 .982-.798 1.778-1.779 1.778M339.109 69.487c0 2.998-2.431 5.429-5.43 5.429-2.996 0-5.426-2.431-5.426-5.429s2.43-5.428 5.427-5.428c2.998 0 5.429 2.43 5.429 5.428" mask="url(#prefix__H)"/>
                <path fill="#FDDD3A" d="M330.4 69.487c0 2.998-2.43 5.429-5.427 5.429-2.998 0-5.428-2.431-5.428-5.429s2.43-5.428 5.428-5.428c2.997 0 5.428 2.43 5.428 5.428" mask="url(#prefix__H)"/>
                <path fill="#009ADD" d="M83.953 247.575l-55.324-.02c-2.758 0-4.992-2.236-4.99-4.994l.008-31.056c.001-2.758 2.238-4.993 4.995-4.993l55.325.019c2.758 0 4.993 2.237 4.992 4.995l-.01 31.058c0 2.758-2.237 4.992-4.996 4.99" mask="url(#prefix__H)"/>
                <path fill="#136DA0" d="M83.954 246.577l-55.324-.02c-2.758 0-4.993-2.236-4.992-4.994v.998c0 2.758 2.233 4.995 4.991 4.995l55.324.019c2.76 0 4.995-2.233 4.996-4.991v-1c0 2.759-2.237 4.994-4.995 4.993M83.968 206.53l-55.325-.018c-2.758-.001-4.994 2.235-4.995 4.993v.998c.001-2.758 2.237-4.993 4.995-4.992l55.324.019c2.758 0 4.993 2.237 4.992 4.995v-1c.001-2.757-2.233-4.993-4.991-4.994" mask="url(#prefix__H)"/>
                <path fill="#FEDE3A" d="M88.956 221.046L23.644 221.024 23.647 211.505 88.959 211.525z" mask="url(#prefix__H)"/>
                <path fill="#27C1E6" d="M81.63 229.233l-51.489-.018c-.927 0-1.678-.751-1.677-1.677 0-.927.751-1.678 1.678-1.677l51.488.017c.927 0 1.678.751 1.678 1.678 0 .926-.752 1.677-1.679 1.677M60.617 237.308l-30.767-.01c-.928 0-1.68-.754-1.68-1.68.001-.93.753-1.683 1.681-1.682l30.768.01c.928.001 1.681.754 1.68 1.681 0 .93-.753 1.681-1.682 1.681" mask="url(#prefix__H)"/>
                <path fill="#1CAEE4" d="M104.707 266.805H49.383c-2.758 0-4.994-2.235-4.994-4.993v-31.058c0-2.758 2.236-4.993 4.994-4.993h55.324c2.758 0 4.993 2.235 4.993 4.993v31.058c0 2.758-2.235 4.993-4.993 4.993" mask="url(#prefix__H)"/>
                <path fill="#FFF" d="M95.917 246.212l1.4-2.325-1.364-2.264c-.49-.815-1.673-.815-2.164 0l-2.764 4.589c-.506.842.1 1.915 1.082 1.915H97c-.983 0-1.589-1.073-1.082-1.916M103.608 246.212l-2.764-4.59c-.49-.815-1.673-.815-2.164 0l-1.363 2.265 1.4 2.325c.507.842-.1 1.915-1.082 1.915h4.89c.984 0 1.59-1.073 1.083-1.916" mask="url(#prefix__H)"/>
                <path fill="#FEDE3A" d="M98.717 246.212l-1.4-2.325-1.4 2.325c-.507.842.099 1.915 1.082 1.915h.636c.982 0 1.589-1.073 1.082-1.916" mask="url(#prefix__H)"/>
                <path fill="#009ADD" d="M104.707 265.806H49.383c-2.758 0-4.994-2.235-4.994-4.993v1c0 2.757 2.236 4.992 4.994 4.992h55.324c2.758 0 4.993-2.235 4.993-4.993v-.999c0 2.758-2.235 4.993-4.993 4.993" mask="url(#prefix__H)"/>
                <path fill="#27C1E6" d="M104.707 225.761H49.383c-2.758 0-4.994 2.235-4.994 4.993v.998c0-2.757 2.236-4.993 4.994-4.993h55.324c2.758 0 4.993 2.236 4.993 4.993v-.998c0-2.758-2.235-4.993-4.993-4.993" mask="url(#prefix__H)"/>
                <path fill="#FDDD3A" d="M58.27 254.807h-7.938c-.931 0-1.686-.755-1.686-1.687 0-.93.755-1.686 1.686-1.686h7.939c.93 0 1.686.755 1.686 1.686 0 .932-.755 1.687-1.686 1.687M73.158 254.807H65.22c-.93 0-1.686-.755-1.686-1.687 0-.93.755-1.686 1.686-1.686h7.94c.93 0 1.685.755 1.685 1.686 0 .932-.755 1.687-1.686 1.687M88.045 254.807h-7.938c-.93 0-1.687-.755-1.687-1.687 0-.93.756-1.686 1.687-1.686h7.938c.932 0 1.687.755 1.687 1.686 0 .932-.755 1.687-1.687 1.687M102.933 254.807h-7.938c-.932 0-1.687-.755-1.687-1.687 0-.93.755-1.686 1.687-1.686h7.938c.932 0 1.687.755 1.687 1.686 0 .932-.755 1.687-1.687 1.687M81.414 261.332h-30.86c-.932 0-1.687-.755-1.687-1.687 0-.93.755-1.685 1.687-1.685h30.86c.932 0 1.687.755 1.687 1.685 0 .932-.755 1.687-1.687 1.687" mask="url(#prefix__H)"/>
            </g>
        </g>
        <g>
            <path fill="#FFF" d="M11.213 34.727L11.213 0 46.242 34.727z" transform="translate(0 -1) translate(383 335)"/>
            <g transform="translate(0 -1) translate(383 335) translate(0 22.79)">
                <mask id="prefix__J" fill="#fff">
                    <use xlink:href="#prefix__I"/>
                </mask>
                <path fill="#FFF" d="M138.433 52H11.567C5.179 52 0 47.66 0 42.306V9.693C0 4.34 5.179 0 11.567 0h126.866C144.821 0 150 4.34 150 9.693v32.613C150 47.66 144.821 52 138.433 52" mask="url(#prefix__J)"/>
            </g>
        </g>
        <g>
            <path fill="#FFF" d="M11.213 34.727L11.213 0 46.242 34.727z" transform="translate(0 -1) matrix(-1 0 0 1 151 335)"/>
            <g transform="translate(0 -1) matrix(-1 0 0 1 151 335) translate(0 22.79)">
                <mask id="prefix__L" fill="#fff">
                    <use xlink:href="#prefix__K"/>
                </mask>
                <path fill="#FFF" d="M138.433 52H11.567C5.179 52 0 47.66 0 42.306V9.693C0 4.34 5.179 0 11.567 0h126.866C144.821 0 150 4.34 150 9.693v32.613C150 47.66 144.821 52 138.433 52" mask="url(#prefix__L)"/>
            </g>
        </g>
        <text fill="#ED5454" font-family="PingFangTC-Semibold, PingFang TC" font-size="24" font-weight="500" letter-spacing="4.8" transform="translate(0 -1)">
            <tspan x="403.9" y="392.79">實體紙本</tspan>
        </text>
        <text fill="#0E6DA0" font-family="PingFangTC-Semibold, PingFang TC" font-size="24" font-weight="500" letter-spacing="4.8" transform="translate(0 -1)">
            <tspan x="21.9" y="392.79">電子票證</tspan>
        </text>
        <g fill="#FFF">
            <path d="M139.554 34.727L139.554 0 104.525 34.727z" transform="translate(0 -1) matrix(1 0 0 -1 0 75)"/>
            <path d="M12.176 73.9h126.866c6.388 0 11.566-4.339 11.566-9.692V31.594c0-5.353-5.178-9.693-11.566-9.693H12.176C5.788 21.9.608 26.24.608 31.594v32.614c0 5.353 5.18 9.693 11.568 9.693" transform="translate(0 -1) matrix(1 0 0 -1 0 75)"/>
        </g>
        <g fill="#FFF">
            <path d="M139.554 34.727L139.554 0 104.525 34.727z" transform="translate(0 -1) rotate(180 266.5 37.5)"/>
            <path d="M12.176 73.9h126.866c6.388 0 11.566-4.339 11.566-9.692V31.594c0-5.353-5.178-9.693-11.566-9.693H12.176C5.788 21.9.608 26.24.608 31.594v32.614c0 5.353 5.18 9.693 11.568 9.693" transform="translate(0 -1) rotate(180 266.5 37.5)"/>
        </g>
        <text fill="#0E6DA0" font-family="PingFangTC-Semibold, PingFang TC" font-size="24" font-weight="500" letter-spacing="4.8" transform="translate(0 -1)">
            <tspan x="17.9" y="35">行動支付</tspan>
        </text>
        <text fill="#0E6DA0" font-family="PingFangTC-Semibold, PingFang TC" font-size="24" font-weight="500" letter-spacing="4.8" transform="translate(0 -1)">
            <tspan x="414.3" y="35">信用卡</tspan>
        </text>
        <text fill="#BF412E" font-family="PingFangTC-Semibold, PingFang TC" font-size="24" font-weight="500" letter-spacing="4.8" transform="translate(0 -1)">
            <tspan x="369.4" y="287">3</tspan>
        </text>
        <text fill="#BF412E" font-family="PingFangTC-Semibold, PingFang TC" font-size="11" font-weight="500" letter-spacing="2.2" transform="translate(0 -1)">
            <tspan x="139.6" y="110">3</tspan>
        </text>
        <text fill="#FFF" font-family="PingFangTC-Semibold, PingFang TC" font-size="11" font-weight="500" transform="translate(0 -1)">
            <tspan x="338.017" y="108">BANK</tspan>
        </text>
        <text fill="#FFF" font-family="PingFangTC-Semibold, PingFang TC" font-size="11" font-weight="500" transform="translate(0 -1)">
            <tspan x="124.946" y="299">CARD</tspan>
        </text>
    </g>
</svg>
