<svg xmlns="http://www.w3.org/2000/svg" xmlns:xlink="http://www.w3.org/1999/xlink" width="344" height="250" viewBox="0 0 344 250">
    <defs>
        <path id="prefix__a" d="M.042 72.538c0 39.927 32.374 72.294 72.309 72.294 39.937 0 72.311-32.367 72.311-72.294S112.288.243 72.351.243C32.416.243.042 32.611.042 72.538z"/>
        <path id="prefix__c" d="M.042 72.538c0 39.927 32.374 72.294 72.309 72.294 39.937 0 72.311-32.367 72.311-72.294S112.288.243 72.351.243C32.416.243.042 32.611.042 72.538"/>
        <path id="prefix__e" d="M.042 72.538c0 39.927 32.374 72.294 72.309 72.294 39.937 0 72.311-32.367 72.311-72.294S112.288.243 72.351.243C32.416.243.042 32.611.042 72.538z"/>
        <path id="prefix__g" d="M.042 72.538c0 39.927 32.374 72.294 72.309 72.294 39.937 0 72.311-32.367 72.311-72.294S112.288.243 72.351.243C32.416.243.042 32.611.042 72.538z"/>
        <path id="prefix__i" d="M.042 72.538c0 39.927 32.374 72.294 72.309 72.294 39.937 0 72.311-32.367 72.311-72.294S112.288.243 72.351.243C32.416.243.042 32.611.042 72.538z"/>
        <path id="prefix__k" d="M.042 72.538c0 39.927 32.374 72.294 72.309 72.294 39.937 0 72.311-32.367 72.311-72.294S112.288.243 72.351.243C32.416.243.042 32.611.042 72.538z"/>
        <path id="prefix__m" d="M.042 72.538c0 39.927 32.374 72.294 72.309 72.294 39.937 0 72.311-32.367 72.311-72.294S112.288.243 72.351.243C32.416.243.042 32.611.042 72.538z"/>
        <path id="prefix__o" d="M.042 72.538c0 39.927 32.374 72.294 72.309 72.294 39.937 0 72.311-32.367 72.311-72.294S112.288.243 72.351.243C32.416.243.042 32.611.042 72.538z"/>
        <path id="prefix__q" d="M.042 72.538c0 39.927 32.374 72.294 72.309 72.294 39.937 0 72.311-32.367 72.311-72.294S112.288.243 72.351.243C32.416.243.042 32.611.042 72.538z"/>
        <path id="prefix__s" d="M.042 72.538c0 39.927 32.374 72.294 72.309 72.294 39.937 0 72.311-32.367 72.311-72.294S112.288.243 72.351.243C32.416.243.042 32.611.042 72.538z"/>
        <path id="prefix__u" d="M.042 72.538c0 39.927 32.374 72.294 72.309 72.294 39.937 0 72.311-32.367 72.311-72.294S112.288.243 72.351.243C32.416.243.042 32.611.042 72.538"/>
        <path id="prefix__w" d="M.042 72.538c0 39.927 32.374 72.294 72.309 72.294 39.937 0 72.311-32.367 72.311-72.294S112.288.243 72.351.243C32.416.243.042 32.611.042 72.538"/>
        <path id="prefix__y" d="M.042 72.538c0 39.927 32.374 72.294 72.309 72.294 39.937 0 72.311-32.367 72.311-72.294S112.288.243 72.351.243C32.416.243.042 32.611.042 72.538"/>
        <path id="prefix__A" d="M.042 72.538c0 39.927 32.374 72.294 72.309 72.294 39.937 0 72.311-32.367 72.311-72.294S112.288.243 72.351.243C32.416.243.042 32.611.042 72.538"/>
        <path id="prefix__C" d="M.042 72.538c0 39.927 32.374 72.294 72.309 72.294 39.937 0 72.311-32.367 72.311-72.294S112.288.243 72.351.243C32.416.243.042 32.611.042 72.538z"/>
        <path id="prefix__E" d="M.042 72.538c0 39.927 32.374 72.294 72.309 72.294 39.937 0 72.311-32.367 72.311-72.294S112.288.243 72.351.243C32.416.243.042 32.611.042 72.538"/>
        <path id="prefix__G" d="M.042 72.538c0 39.927 32.374 72.294 72.309 72.294 39.937 0 72.311-32.367 72.311-72.294S112.288.243 72.351.243C32.416.243.042 32.611.042 72.538z"/>
        <path id="prefix__I" d="M.042 72.538c0 39.927 32.374 72.294 72.309 72.294 39.937 0 72.311-32.367 72.311-72.294S112.288.243 72.351.243C32.416.243.042 32.611.042 72.538"/>
        <path id="prefix__K" d="M.042 72.538c0 39.927 32.374 72.294 72.309 72.294 39.937 0 72.311-32.367 72.311-72.294S112.288.243 72.351.243C32.416.243.042 32.611.042 72.538"/>
        <path id="prefix__M" d="M.042 72.538c0 39.927 32.374 72.294 72.309 72.294 39.937 0 72.311-32.367 72.311-72.294S112.288.243 72.351.243C32.416.243.042 32.611.042 72.538"/>
        <path id="prefix__O" d="M.042 72.538c0 39.927 32.374 72.294 72.309 72.294 39.937 0 72.311-32.367 72.311-72.294S112.288.243 72.351.243C32.416.243.042 32.611.042 72.538"/>
        <path id="prefix__Q" d="M.042 72.538c0 39.927 32.374 72.294 72.309 72.294 39.937 0 72.311-32.367 72.311-72.294S112.288.243 72.351.243C32.416.243.042 32.611.042 72.538"/>
        <path id="prefix__S" d="M.042 72.538c0 39.927 32.374 72.294 72.309 72.294 39.937 0 72.311-32.367 72.311-72.294S112.288.243 72.351.243C32.416.243.042 32.611.042 72.538"/>
        <path id="prefix__U" d="M.042 72.538c0 39.927 32.374 72.294 72.309 72.294 39.937 0 72.311-32.367 72.311-72.294S112.288.243 72.351.243C32.416.243.042 32.611.042 72.538"/>
        <path id="prefix__W" d="M.042 72.538c0 39.927 32.374 72.294 72.309 72.294 39.937 0 72.311-32.367 72.311-72.294S112.288.243 72.351.243C32.416.243.042 32.611.042 72.538"/>
        <path id="prefix__Y" d="M.042 72.538c0 39.927 32.374 72.294 72.309 72.294 39.937 0 72.311-32.367 72.311-72.294S112.288.243 72.351.243C32.416.243.042 32.611.042 72.538"/>
        <path id="prefix__aa" d="M.042 72.538c0 39.927 32.374 72.294 72.309 72.294 39.937 0 72.311-32.367 72.311-72.294S112.288.243 72.351.243C32.416.243.042 32.611.042 72.538"/>
        <path id="prefix__ac" d="M.042 72.538c0 39.927 32.374 72.294 72.309 72.294 39.937 0 72.311-32.367 72.311-72.294S112.288.243 72.351.243C32.416.243.042 32.611.042 72.538"/>
        <path id="prefix__ae" d="M.042 72.538c0 39.927 32.374 72.294 72.309 72.294 39.937 0 72.311-32.367 72.311-72.294S112.288.243 72.351.243C32.416.243.042 32.611.042 72.538"/>
        <path id="prefix__ag" d="M.042 72.538c0 39.927 32.374 72.294 72.309 72.294 39.937 0 72.311-32.367 72.311-72.294S112.288.243 72.351.243C32.416.243.042 32.611.042 72.538z"/>
        <path id="prefix__ai" d="M0.641 0.613L43 0.613 43 42.963 0.641 42.963z"/>
        <path id="prefix__ak" d="M0.594 0L181.709 0 181.709 181.076 0.594 181.076z"/>
        <path id="prefix__am" d="M0 250L344 250 344 0 0 0z"/>
    </defs>
    <g fill="none" fill-rule="evenodd">
        <g>
            <path fill="#D0D2D3" d="M305.91 36.138v135.367c0 12.976-21.886 23.494-48.883 23.494H49.14c-7.115 0-13.797-.87-19.63-2.402-3.186-2.804-5-6.016-5-9.436V43.992c0-10.875 18.342-19.692 40.969-19.692h215.8c7.115 0 13.798.872 19.63 2.403 3.187 2.803 5 6.015 5 9.435" transform="translate(0 55)"/>
            <path fill="#F8F6DE" d="M269.425 191.074H28.318C12.678 191.074 0 178.394 0 162.756V40.839C0 25.199 12.678 12.52 28.318 12.52h241.107c15.64 0 28.318 12.678 28.318 28.318v121.917c0 15.639-12.678 28.318-28.318 28.318" transform="translate(0 55)"/>
            <path fill="#EFD081" d="M143.626 142.209H24.234c-4.21 0-7.623-3.413-7.623-7.623 0-4.21 3.413-7.623 7.623-7.623h119.392c4.21 0 7.623 3.413 7.623 7.623 0 4.21-3.413 7.623-7.623 7.623" transform="translate(0 55)"/>
            <path fill="#67B0D0" d="M193.796 44.57H74.406c-4.21 0-7.624-3.413-7.624-7.623 0-4.21 3.413-7.623 7.623-7.623h119.391c4.21 0 7.623 3.413 7.623 7.623 0 4.21-3.413 7.623-7.623 7.623M278.263 168.695H24.235c-4.21 0-7.623-3.413-7.623-7.623 0-4.211 3.413-7.623 7.623-7.623h254.028c4.21 0 7.623 3.412 7.623 7.623 0 4.21-3.413 7.623-7.623 7.623M289.042 29.137c-1.005 0-2.016-.052-3.028-.156-7.67-.796-14.576-4.534-19.444-10.528l8.976-7.29c2.92 3.596 7.061 5.838 11.66 6.316 4.601.477 9.111-.869 12.707-3.789l7.29 8.975c-5.2 4.225-11.557 6.472-18.16 6.472" transform="translate(0 55)"/>
            <path fill="#D84479" d="M289.042 25.49c-1.005 0-2.016-.052-3.028-.156-6.726-.697-12.863-3.657-17.553-8.415l-1.89 1.535c4.867 5.993 11.772 9.73 19.443 10.527 1.012.105 2.023.156 3.028.156 6.604 0 12.96-2.247 18.161-6.471l-1.844-2.27c-4.827 3.33-10.474 5.095-16.317 5.095" transform="translate(0 55)"/>
            <path fill="#67B0D0" d="M304.042 50.819c-1.215 0-2.607-.092-4.146-.343-4.564-.745-11.499-3.126-18.616-10.243-13.435-13.436-11.212-38.989-11.11-40.07l11.514 1.069c-.534 5.878-.175 22.875 7.773 30.824 8.825 8.825 16.331 7.074 16.403 7.052l3.345 11.069c-.457.139-2.32.642-5.163.642" transform="translate(0 55)"/>
            <path fill="#D84479" d="M307.222 47.428c-1.214 0-2.606-.092-4.146-.343-4.564-.744-11.498-3.126-18.615-10.243-10.575-10.575-11.449-28.654-11.293-36.4l-2.999-.28c-.1 1.081-2.324 26.634 11.112 40.071 7.117 7.117 14.051 9.498 18.616 10.243 1.538.251 2.93.343 4.145.343 2.843 0 4.706-.503 5.163-.642l-.839-2.777c-.362.017-.742.028-1.144.028" transform="translate(0 55)"/>
        </g>
        <g transform="translate(177 18)">
            <mask id="prefix__b" fill="#fff">
                <use xlink:href="#prefix__a"/>
            </mask>
            <path fill="#A6DD7B" d="M133.686 128.274v20.104c-2.643 3.074-5.515 5.946-8.587 8.59l-.07.061c-3.124 2.682-6.457 5.136-9.97 7.328-.817.511-1.646 1.007-2.484 1.49l-.012.005c-1.55.892-3.13 1.735-4.742 2.525h-.003c-6.562 3.216-13.617 5.57-21.026 6.918-1.868.34-3.755.616-5.667.826-.737.08-1.474.151-2.217.212-2.172.18-4.37.272-6.587.278h-.351c-2.203-.006-4.387-.098-6.544-.275-.01 0-.02 0-.032-.003-.743-.06-1.48-.132-2.218-.212-1.933-.213-3.844-.492-5.735-.838-7.385-1.352-14.42-3.7-20.96-6.906-1.614-.792-3.201-1.636-4.754-2.528-.837-.485-1.666-.98-2.484-1.492-3.537-2.206-6.892-4.68-10.04-7.389-3.073-2.644-5.945-5.516-8.586-8.59v-22.454c0-5.92 1.893-11.399 5.106-15.866 4.939-6.86 12.995-11.33 22.093-11.33h68.662c1.346 0 2.668.097 3.962.286 7.454 1.088 13.927 5.2 18.133 11.053 3.21 4.461 5.098 9.938 5.098 15.857v2.35h.015z" mask="url(#prefix__b)"/>
            <mask id="prefix__d" fill="#fff">
                <use xlink:href="#prefix__c"/>
            </mask>
            <path fill="#A6DD7B" d="M112.563 142.669v23.184c-1.55.89-3.13 1.735-4.742 2.524h-.003c-6.562 3.217-13.617 5.569-21.026 6.918-1.868.34-3.755.616-5.666.826-.738.08-1.475.152-2.218.212l-5.064.21-1.523.063v.014h-.024l-.146-.01h-.003l-.151.01h-.027v-.014l-1.511-.06-5.033-.21c-.01 0-.02 0-.032-.003-.743-.06-1.48-.132-2.218-.212-1.933-.213-3.844-.491-5.735-.838-7.385-1.351-14.42-3.701-20.96-6.906-1.614-.792-3.201-1.636-4.754-2.527v-32.526c3.054-17.272 12.779-28.057 26.879-34.595l13.542 26.24 13.54-26.24c6.688 3.1 12.389 7.158 16.862 12.409-.913 2.779-1.41 5.749-1.41 8.834 0 9.299 4.49 17.548 11.423 22.697" mask="url(#prefix__d)"/>
            <mask id="prefix__f" fill="#fff">
                <use xlink:href="#prefix__e"/>
            </mask>
            <path fill="#FFF" d="M58.605 98.727L46.018 98.727 56.404 137.669 72.147 124.971z" mask="url(#prefix__f)"/>
            <mask id="prefix__h" fill="#fff">
                <use xlink:href="#prefix__g"/>
            </mask>
            <path fill="#FFF" d="M85.693 98.727L98.28 98.727 87.894 137.669 72.151 124.971z" mask="url(#prefix__h)"/>
            <mask id="prefix__j" fill="#fff">
                <use xlink:href="#prefix__i"/>
            </mask>
            <path fill="#FFF" d="M73.844 124.969L73.844 176.54 72.321 176.605 72.321 176.618 72.296 176.618 72.148 176.612 71.995 176.618 71.972 176.618 71.972 176.605 70.457 176.544 70.457 124.969z" mask="url(#prefix__j)"/>
            <mask id="prefix__l" fill="#fff">
                <use xlink:href="#prefix__k"/>
            </mask>
            <path fill="#D0D2D3" d="M85.693 98.727L75.984 128.062 72.151 124.971z" mask="url(#prefix__l)"/>
            <mask id="prefix__n" fill="#fff">
                <use xlink:href="#prefix__m"/>
            </mask>
            <path fill="#D0D2D3" d="M58.605 98.727L68.314 128.062 72.147 124.971z" mask="url(#prefix__n)"/>
            <mask id="prefix__p" fill="#fff">
                <use xlink:href="#prefix__o"/>
            </mask>
            <path fill="#FFF" d="M31.727 133.324v32.525c-.837-.485-1.666-.981-2.484-1.492-3.537-2.206-6.892-4.68-10.039-7.388-3.074-2.645-5.946-5.517-8.587-8.59v-15.055h21.11z" mask="url(#prefix__p)"/>
            <mask id="prefix__r" fill="#fff">
                <use xlink:href="#prefix__q"/>
            </mask>
            <path fill="#E7AD26" d="M112.575 165.846l-.012-25.438-.003-7.084-4.74 35.052c1.613-.789 3.194-1.633 4.743-2.524l.012-.006z" mask="url(#prefix__r)"/>
            <mask id="prefix__t" fill="#fff">
                <use xlink:href="#prefix__s"/>
            </mask>
            <path fill="#E7AD26" d="M36.482 168.377c-1.615-.792-3.202-1.636-4.755-2.527v-32.526l4.755 35.053z" mask="url(#prefix__t)"/>
            <g>
                <mask id="prefix__v" fill="#fff">
                    <use xlink:href="#prefix__u"/>
                </mask>
                <path fill="#FFF" d="M37.593 63.38c-3.213 0-5.817-2.605-5.817-5.817v-8.867c0-3.212 2.604-5.817 5.817-5.817 3.212 0 5.816 2.605 5.816 5.817v8.867c0 3.212-2.604 5.816-5.816 5.816" mask="url(#prefix__v)"/>
            </g>
            <g>
                <mask id="prefix__x" fill="#fff">
                    <use xlink:href="#prefix__w"/>
                </mask>
                <path fill="#D0D2D3" d="M37.593 60.64c-3.213 0-5.817-2.605-5.817-5.817v2.74c0 3.212 2.604 5.816 5.817 5.816 3.212 0 5.816-2.604 5.816-5.816v-2.74c0 3.212-2.604 5.816-5.816 5.816" mask="url(#prefix__x)"/>
            </g>
            <g>
                <mask id="prefix__z" fill="#fff">
                    <use xlink:href="#prefix__y"/>
                </mask>
                <path fill="#FFF" d="M106.71 63.38c-3.214 0-5.817-2.605-5.817-5.817v-8.867c0-3.212 2.603-5.817 5.816-5.817 3.213 0 5.816 2.605 5.816 5.817v8.867c0 3.212-2.603 5.816-5.816 5.816" mask="url(#prefix__z)"/>
            </g>
            <g>
                <mask id="prefix__B" fill="#fff">
                    <use xlink:href="#prefix__A"/>
                </mask>
                <path fill="#D0D2D3" d="M106.71 60.64c-3.214 0-5.817-2.605-5.817-5.817v2.74c0 3.212 2.603 5.816 5.816 5.816 3.213 0 5.816-2.604 5.816-5.816v-2.74c0 3.212-2.603 5.816-5.816 5.816" mask="url(#prefix__B)"/>
            </g>
            <g>
                <mask id="prefix__D" fill="#fff">
                    <use xlink:href="#prefix__C"/>
                </mask>
                <path fill="#FFF" d="M58.614 80.345v18.382h-.01l.003.004c6.817 8.936 20.268 8.934 27.08-.004V80.345H58.615z" mask="url(#prefix__D)"/>
            </g>
            <g>
                <mask id="prefix__F" fill="#fff">
                    <use xlink:href="#prefix__E"/>
                </mask>
                <path fill="#67B0D0" d="M58.607 98.731l13.54 26.238 13.54-26.24c-6.813 8.937-20.265 8.938-27.08.002" mask="url(#prefix__F)"/>
            </g>
            <g>
                <mask id="prefix__H" fill="#fff">
                    <use xlink:href="#prefix__G"/>
                </mask>
                <path fill="#FFF" d="M38.101 40.564c1.126-5.785 3.688-11.057 7.306-15.425 1.045-1.267 2.181-2.455 3.395-3.56 6.163-5.616 14.356-9.035 23.349-9.035.399 0 .802.007 1.2.025.136 0 .271.007.402.013 8.947.406 17.004 4.196 22.934 10.127 5.281 5.281 8.869 12.262 9.873 20.052.189 1.468.287 2.962.287 4.48v6.87c0 19.164-15.532 34.696-34.696 34.696-19.16 0-34.696-15.532-34.696-34.696v-6.87c0-1.474.091-2.924.27-4.348l.376-2.329z" mask="url(#prefix__H)"/>
            </g>
            <g>
                <mask id="prefix__J" fill="#fff">
                    <use xlink:href="#prefix__I"/>
                </mask>
                <path fill="#D0D2D3" d="M72.15 83.328c-19.16 0-34.695-15.532-34.695-34.696v5.479c0 19.164 15.536 34.696 34.696 34.696 19.164 0 34.696-15.532 34.696-34.696v-5.48c0 19.165-15.532 34.697-34.696 34.697" mask="url(#prefix__J)"/>
            </g>
            <g>
                <mask id="prefix__L" fill="#fff">
                    <use xlink:href="#prefix__K"/>
                </mask>
                <path fill="#4B6084" d="M38.101 40.564h3.313v16.627c0 1.085-.837 2.028-1.921 2.06-1.121.03-2.038-.868-2.038-1.978V45.31c0-1.603.217-3.2.646-4.746" mask="url(#prefix__L)"/>
            </g>
            <g>
                <mask id="prefix__N" fill="#fff">
                    <use xlink:href="#prefix__M"/>
                </mask>
                <path fill="#4B6084" d="M106.847 45.051v12.151c0 1.007-.723 1.905-1.722 2.032-1.207.154-2.237-.785-2.237-1.96v-16.71h3.316c.427 1.457.643 2.967.643 4.487" mask="url(#prefix__N)"/>
            </g>
            <g>
                <mask id="prefix__P" fill="#fff">
                    <use xlink:href="#prefix__O"/>
                </mask>
                <path fill="#4B6084" d="M73.351 12.569c-3.509 5.477-12.209 17.317-26.297 25.645-3.391 2.001-6.506 3.53-9.329 4.679.004-.003.004-.01.004-.013.838-6.695 3.584-12.797 7.679-17.741 1.044-1.267 2.18-2.455 3.394-3.56 6.163-5.615 14.356-9.034 23.349-9.034.399 0 .802.006 1.2.024" mask="url(#prefix__P)"/>
            </g>
            <g>
                <mask id="prefix__R" fill="#fff">
                    <use xlink:href="#prefix__Q"/>
                </mask>
                <path fill="#808F91" d="M106.56 42.761c-4.724 1.43-14.031 2.78-28.813-1.085-14.948-3.905-26.291-11.65-32.339-16.537 1.044-1.268 2.18-2.455 3.394-3.56 6.163-5.616 14.356-9.035 23.349-9.035.534 0 1.072.011 1.602.037 8.947.407 17.004 4.197 22.934 10.127 5.281 5.282 8.869 12.263 9.873 20.053" mask="url(#prefix__R)"/>
            </g>
            <g>
                <mask id="prefix__T" fill="#fff">
                    <use xlink:href="#prefix__S"/>
                </mask>
                <path fill="#4B6084" d="M77.746 21.39c-6.544-1.71-12.398-4.157-17.42-6.777-4.301 1.56-8.208 3.943-11.523 6.965-1.214 1.106-2.351 2.293-3.395 3.561 6.047 4.886 17.392 12.632 32.338 16.537 14.782 3.864 24.09 2.515 28.814 1.085-.933-7.233-4.094-13.768-8.77-18.893-5.025.228-11.65-.285-20.044-2.479" mask="url(#prefix__T)"/>
            </g>
            <g>
                <mask id="prefix__V" fill="#fff">
                    <use xlink:href="#prefix__U"/>
                </mask>
                <path fill="#808F91" d="M77.746 28.152c-9.556-2.497-17.636-6.563-23.804-10.449-1.834 1.134-3.554 2.431-5.14 3.876-1.213 1.105-2.35 2.293-3.395 3.56 6.049 4.886 17.393 12.632 32.34 16.537 14.781 3.865 24.09 2.515 28.813 1.085-.584-4.526-2.044-8.776-4.198-12.582-5.3.834-13.373.911-24.615-2.027" mask="url(#prefix__V)"/>
            </g>
            <g>
                <mask id="prefix__X" fill="#fff">
                    <use xlink:href="#prefix__W"/>
                </mask>
                <path fill="#4B6084" d="M77.746 34.914C65.484 31.71 55.65 25.923 49.173 21.249c-.125.11-.248.219-.37.33-1.214 1.106-2.351 2.293-3.395 3.56 6.047 4.886 17.392 12.632 32.338 16.538 14.782 3.864 24.09 2.514 28.814 1.085-.284-2.195-.778-4.321-1.45-6.367-5.067 1.242-13.968 2.02-27.364-1.481" mask="url(#prefix__X)"/>
            </g>
            <g>
                <mask id="prefix__Z" fill="#fff">
                    <use xlink:href="#prefix__Y"/>
                </mask>
                <path fill="#A62873" d="M72.15 65.604c-2.115 0-3.831-1.716-3.831-3.833v-5.04c0-2.118 1.716-3.834 3.832-3.834 2.117 0 3.833 1.716 3.833 3.833v5.041c0 2.117-1.716 3.833-3.833 3.833" mask="url(#prefix__Z)"/>
            </g>
            <g>
                <mask id="prefix__ab" fill="#fff">
                    <use xlink:href="#prefix__aa"/>
                </mask>
                <path fill="#A62873" d="M58.965 49.907c0 1.618-1.312 2.93-2.93 2.93-1.619 0-2.93-1.312-2.93-2.93s1.311-2.93 2.93-2.93c1.618 0 2.93 1.312 2.93 2.93" mask="url(#prefix__ab)"/>
            </g>
            <g>
                <mask id="prefix__ad" fill="#fff">
                    <use xlink:href="#prefix__ac"/>
                </mask>
                <path fill="#A62873" d="M91.198 49.907c0 1.618-1.312 2.93-2.931 2.93-1.618 0-2.93-1.312-2.93-2.93s1.312-2.93 2.93-2.93c1.619 0 2.93 1.312 2.93 2.93" mask="url(#prefix__ad)"/>
            </g>
            <g>
                <mask id="prefix__af" fill="#fff">
                    <use xlink:href="#prefix__ae"/>
                </mask>
                <path fill="#A62873" d="M72.15 75.865c-3.742 0-7.265-1.46-9.915-4.111-.35-.35-.35-.914 0-1.264.349-.35.915-.35 1.264 0 2.313 2.313 5.386 3.587 8.652 3.587 3.267 0 6.34-1.274 8.652-3.587.35-.35.915-.35 1.265 0 .349.35.349.915 0 1.264-2.651 2.65-6.173 4.11-9.917 4.11" mask="url(#prefix__af)"/>
            </g>
            <g>
                <mask id="prefix__ah" fill="#fff">
                    <use xlink:href="#prefix__ag"/>
                </mask>
                <path fill="#EE599C" d="M72.151 172.562L72.135 172.58 72.141 172.599 72.152 172.563z" mask="url(#prefix__ah)"/>
            </g>
        </g>
        <g transform="translate(301 139)">
            <mask id="prefix__aj" fill="#fff">
                <use xlink:href="#prefix__ai"/>
            </mask>
            <path fill="#FFF" d="M26.194 40.08L.64 14.533 14.564.613 40.117 26.16c3.845 3.844 3.845 10.076 0 13.92-3.845 3.844-10.078 3.844-13.923 0" mask="url(#prefix__aj)"/>
        </g>
        <path fill="#D0D2D3" d="M331.532 174.743l-25.553-25.547-4.338 4.337 25.553 25.547c3.845 3.844 10.078 3.844 13.923 0 .758-.758 1.363-1.608 1.822-2.515-3.694 1.87-8.32 1.265-11.407-1.822"/>
        <g transform="translate(158)">
            <mask id="prefix__al" fill="#fff">
                <use xlink:href="#prefix__ak"/>
            </mask>
            <path fill="#FFF" d="M91.15 162.83c-15.818 0-30.453-5.078-42.358-13.7-18.147-13.13-29.95-34.483-29.95-58.592 0-1.718.06-3.424.179-5.114 2.626-37.54 33.914-67.18 72.13-67.18 39.935 0 72.309 32.368 72.309 72.294 0 39.926-32.374 72.293-72.31 72.293M91.15 0C41.33 0 .91 40.218.599 89.953c-.004.193-.004.392-.004.585 0 28.098 12.802 53.207 32.892 69.813 15.66 12.945 35.755 20.725 57.665 20.725 50.015 0 90.558-40.534 90.558-90.538S141.166 0 91.15 0" mask="url(#prefix__al)"/>
        </g>
        <path fill="#D0D2D3" d="M249.15 162.833c-39.935 0-72.31-32.368-72.31-72.295s32.375-72.295 72.31-72.295c39.937 0 72.312 32.368 72.312 72.295s-32.375 72.295-72.311 72.295m0-153.355c-44.778 0-81.078 36.292-81.078 81.06 0 44.769 36.3 81.06 81.078 81.06 44.778 0 81.078-36.291 81.078-81.06 0-44.768-36.3-81.06-81.078-81.06"/>
        <path fill="#D84479" d="M283.952 60.757h-69.364l.376-2.334c.786-4.038 2.269-7.825 4.316-11.236h59.98c2.42 4.027 4.05 8.584 4.677 13.452.006.04.012.078.015.117"/>
        <path fill="#67B0D0" d="M218.46 60.902h61.781l-.334-2.383c-.7-4.125-2.02-7.993-3.844-11.477H222.64c-2.156 4.113-3.608 8.766-4.166 13.739-.006.041-.01.079-.014.121"/>
        <path fill="#D0D2D3" d="M249.145 162.892c-.48 6.348-2.502 12.554-5.975 18.01-25.997-1.899-50.981-14.948-67.263-37.85-.113-.159-.227-.32-.335-.479 2.756-5.51 6.87-10.446 12.243-14.264.049-.034.097-.068.147-.1.883 1.447 1.824 2.871 2.819 4.272 13.97 19.651 35.965 30.22 58.364 30.411"/>
        <path fill="#1C789D" d="M247.64 162.826c0 21.479-17.416 38.89-38.898 38.89-21.484 0-38.9-17.411-38.9-38.89 0-21.48 17.416-38.891 38.9-38.891 21.482 0 38.898 17.412 38.898 38.89"/>
        <path fill="#6CB37B" d="M240.81 162.826c0 17.708-14.357 32.063-32.068 32.063-17.712 0-32.07-14.355-32.07-32.063 0-17.707 14.358-32.062 32.07-32.062 17.711 0 32.068 14.355 32.068 32.062"/>
        <path fill="#FFF" d="M208.742 133.361c17.275 0 31.354 13.659 32.035 30.764.018-.432.033-.864.033-1.299 0-17.707-14.357-32.062-32.068-32.062-17.712 0-32.07 14.355-32.07 32.062 0 .435.016.867.034 1.299.682-17.105 14.76-30.764 32.036-30.764"/>
        <path fill="#FFF" d="M201.891 181.431L186.076 165.618 191.662 160.034 201.891 170.26 223.517 148.638 229.103 154.224z"/>
        <mask id="prefix__an" fill="#fff">
            <use xlink:href="#prefix__am"/>
        </mask>
        <path fill="#DD0816" d="M16.612 104.22L56.235 104.22 56.235 79.673 16.612 79.673z" mask="url(#prefix__an)"/>
        <path fill="#1F286F" d="M16.612 90.548L29.784 90.548 29.784 79.674 16.612 79.674z" mask="url(#prefix__an)"/>
        <path fill="#6CB37B" fill-rule="nonzero" d="M39.766 162.104c2.108 0 3.162-1.122 3.162-3.366v-6.936c2.38-2.21 4.352-4.794 5.984-7.752l-3.026-1.904c-.68 1.768-1.666 3.434-2.958 5.032v-14.076h-9.486c.34-.748.612-1.53.816-2.346l-3.74-.51c-.204.986-.476 1.938-.816 2.856h-6.936v16.728l-4.148.102.544 3.332c7.956-.408 14.144-.816 18.564-1.258-3.808 2.754-9.996 4.862-18.564 6.358l1.598 3.196c6.664-1.156 12.376-3.128 17.136-5.95.51-.34 1.02-.646 1.53-.986v3.332c0 .612-.272.952-.782.952l-3.4-.17.884 3.366h3.638zm-.34-23.596H26.302v-2.278h13.124v2.278zm0 5.134H26.302v-2.176h13.124v2.176zm-13.124 6.052v-3.06h13.124v2.142c-3.536.408-7.922.714-13.124.918zm41.447 12.41v-22.916c1.36-2.312 2.448-4.76 3.298-7.31l-3.23-1.496c-1.7 5.202-4.284 9.724-7.752 13.566l1.156 3.74c1.02-1.088 2.006-2.176 2.924-3.264v17.68h3.604zm4.556-.102c4.352-4.148 6.562-8.908 6.562-14.348v-.714h5.44c-.068 5.304-.17 8.398-.374 9.282-.17 1.36-.782 2.074-1.87 2.074s-2.38-.068-3.876-.204l.85 3.332c1.7.102 2.924.17 3.638.17 2.72 0 4.25-1.224 4.59-3.638.34-1.802.51-6.494.51-14.11.612.748 1.326 1.462 2.142 2.176l2.108-2.924c-3.23-2.856-5.474-6.698-6.732-11.492h-5.95v3.264h3.298c1.156 3.332 2.754 6.188 4.794 8.602H72.68c2.448-3.196 4.148-6.902 5.168-11.152l-3.4-.816c-1.088 4.556-3.196 8.432-6.29 11.56l2.278 2.958c.578-.612 1.156-1.224 1.7-1.904v2.822h3.162v.714c0 4.42-2.006 8.364-5.984 11.798l2.992 2.55zm42.604-24.412v-3.298h-4.182c-.272-1.156-.68-2.414-1.156-3.842l-3.366.918c.408.952.816 1.938 1.156 2.924h-3.808v3.298h11.356zm1.292 7.684c1.564-1.02 2.924-2.21 4.114-3.638v1.564h8.942v-2.108c.986 1.36 2.142 2.652 3.468 3.842l2.176-2.516c-1.088-.884-2.074-1.87-2.992-2.958 1.088-.952 2.074-1.972 2.924-3.128l-2.278-2.006c-.68 1.02-1.462 1.938-2.346 2.788-.306-.51-.578-1.02-.85-1.53 1.156-.884 2.142-1.87 3.026-2.992l-2.278-2.006c-.544.816-1.19 1.598-1.938 2.346-.272-.748-.544-1.496-.748-2.278l-2.516 1.394c.85 2.958 2.074 5.644 3.672 8.092h-7.14c1.156-1.768 2.006-3.808 2.618-6.12v-2.482h-7.718v2.992h4.76c-.374.986-.85 1.938-1.394 2.856-.68-.68-1.394-1.326-2.21-1.972l-2.142 2.04c.986.748 1.836 1.462 2.584 2.21-1.088 1.122-2.346 2.108-3.774 2.958l2.04 2.652zm-2.346-2.618v-3.128h-9.452v3.128h9.452zm0 4.828v-3.128h-9.452v3.128h9.452zm18.224 6.766v-8.704H117.05v8.704h15.028zm-3.332-2.924h-8.364v-2.89h8.364v2.89zm-21.182 10.608v-1.768h3.128v1.326h3.366v-12.07h-9.894v12.512h3.4zm3.128-5.032h-3.128v-4.25h3.128v4.25zm23.324 4.59v-3.162h-4.284c.544-.816 1.088-1.7 1.564-2.686l-3.162-1.122c-.544 1.326-1.19 2.584-1.87 3.808h-3.026c-.612-1.462-1.258-2.754-1.972-3.842l-3.162 1.19c.612.816 1.19 1.7 1.7 2.652h-4.386v3.162h18.598z"/>
    </g>
</svg>
