<svg xmlns="http://www.w3.org/2000/svg" xmlns:xlink="http://www.w3.org/1999/xlink" width="251" height="273" viewBox="0 0 251 273">
    <defs>
        <path id="prefix__a" d="M0 273L251 273 251 0 0 0z"/>
    </defs>
    <g fill="none" fill-rule="evenodd">
        <path fill="#1C789D" d="M170.288 202H72.712c-4.26 0-7.712-3.448-7.712-7.7V8.7C65 4.448 68.453 1 72.712 1h97.576C174.548 1 178 4.448 178 8.701V194.3c0 4.252-3.453 7.7-7.712 7.7"/>
        <path fill="#9CDCE0" d="M157.301 202H85.7c-3.7 0-6.699-2.986-6.699-6.67V7.67C79 3.986 81.999 1 85.699 1H157.3c3.7 0 6.699 2.986 6.699 6.67v187.66c0 3.684-2.999 6.67-6.699 6.67"/>
        <path fill="#FFF" d="M165.5 189h-88c-3.039 0-5.5-2.447-5.5-5.467V20.467C72 17.447 74.461 15 77.5 15h88c3.039 0 5.5 2.447 5.5 5.467v163.066c0 3.02-2.461 5.467-5.5 5.467"/>
        <path fill="#BCBEC0" d="M130.464 10h-17.928c-1.4 0-2.536-1.119-2.536-2.5 0-1.38 1.135-2.5 2.536-2.5h17.928c1.4 0 2.536 1.12 2.536 2.5 0 1.381-1.135 2.5-2.536 2.5"/>
        <path fill="#FFF" d="M130.464 198h-17.928c-1.4 0-2.536-1.119-2.536-2.499 0-1.381 1.135-2.501 2.536-2.501h17.928c1.4 0 2.536 1.12 2.536 2.501 0 1.38-1.135 2.499-2.536 2.499"/>
        <path fill="#D2E7ED" d="M165.5 14h-88c-3.039 0-5.5 2.463-5.5 5.5V25h99v-5.5c0-3.037-2.461-5.5-5.5-5.5"/>
        <mask id="prefix__b" fill="#fff">
            <use xlink:href="#prefix__a"/>
        </mask>
        <path fill="#D2E7ED" d="M164 178L171 178 171 22 164 22z" mask="url(#prefix__b)"/>
        <path fill="#6BA997" d="M76 122c0 20.986-17.013 38-38 38-20.986 0-38-17.014-38-38s17.014-38 38-38c20.987 0 38 17.014 38 38" mask="url(#prefix__b)"/>
        <path fill="#1C789D" d="M38.197 101.362c.969 0 1.753.78 1.753 1.744 0 .963-.784 1.743-1.753 1.743-.968 0-1.754-.78-1.754-1.743 0-.963.786-1.744 1.754-1.744m17.8 38.519c-.004-.104-.02-.21-.045-.314-.036-.139-.091-.276-.17-.411l-1.22-2.11c-.05-.086-.098-.173-.146-.26l-.037-.066-.137-.255c-.007-.017-.016-.033-.024-.047l-.11-.22c-.014-.026-.028-.053-.04-.08-.042-.082-.08-.165-.119-.247l-.035-.074-.089-.197c-.014-.028-.026-.058-.038-.086-1.213-2.763-1.597-5.828-1.086-8.825l.664-3.897c.865-5.074-.78-10.314-4.575-13.813-1.711-1.576-3.777-2.775-6.066-3.464.386-.718.606-1.537.606-2.409 0-2.82-2.298-5.106-5.133-5.106s-5.134 2.286-5.134 5.106c0 .87.22 1.69.606 2.409-.721.216-1.419.484-2.093.799-6.332 2.958-9.725 9.928-8.457 16.77l.496 2.671c.616 3.32.127 6.744-1.381 9.755l-.117.23c-.015.027-.03.054-.043.082-.055.103-.11.205-.167.307l-1.702 3.048c-.036.067-.068.135-.096.204-.026.069-.048.137-.064.206-.026.104-.04.209-.044.312-.004.104.003.206.02.306.01.068.025.134.044.2.02.064.042.127.07.189.013.03.026.062.043.091.076.149.176.288.294.409l.074.068c.178.158.393.279.633.345.14.038.287.06.44.06h10.917l-.06.192-.003.018-.04.149c-.002.012-.005.023-.009.034l-.033.153-.006.024c-.012.057-.023.116-.032.174l-.007.033c-.007.046-.015.093-.021.14l-.008.049c-.008.056-.013.11-.02.166v.008l-.016.18-.003.046-.007.133-.001.053c-.003.06-.004.12-.004.18 0 3.149 2.568 5.701 5.734 5.701.247 0 .49-.015.73-.046.191-.024.38-.057.565-.1.093-.02.184-.045.275-.07.499-.142.97-.348 1.403-.61.04-.024.079-.047.118-.072.503-.322.955-.72 1.335-1.176.028-.037.057-.071.085-.107.057-.072.112-.146.165-.22.267-.373.49-.779.66-1.21.035-.086.066-.173.097-.262.016-.045.029-.09.043-.134.028-.089.054-.18.078-.27.117-.455.18-.932.18-1.424 0-.06 0-.12-.003-.18l-.003-.053c-.001-.045-.004-.088-.006-.133l-.003-.047-.015-.18-.001-.007c-.006-.056-.013-.11-.021-.166l-.006-.049-.022-.14-.005-.033c-.01-.058-.022-.117-.035-.174l-.005-.024c-.01-.051-.022-.102-.034-.153l-.008-.034c-.012-.05-.026-.1-.04-.15l-.005-.017c-.018-.065-.037-.13-.057-.192H54.38c.156 0 .304-.022.442-.06.07-.02.137-.043.201-.071l.096-.045c.12-.062.23-.137.328-.224.03-.025.059-.053.087-.081.07-.073.135-.151.192-.237.019-.028.037-.057.053-.086.04-.07.076-.144.105-.218.02-.05.039-.103.054-.155.028-.098.046-.199.055-.302.006-.068.008-.137.004-.207" mask="url(#prefix__b)"/>
        <path fill="#F7CB15" d="M55.783 135.636l-1.22-2.068c-1.813-3.072-2.47-6.662-1.862-10.155l.664-3.82c.864-4.976-.78-10.113-4.576-13.544-2.78-2.512-6.502-4.049-10.592-4.049-2.368 0-4.612.514-6.62 1.436-6.333 2.9-9.726 9.734-8.458 16.443l.495 2.618c.66 3.481.055 7.077-1.706 10.171l-1.703 2.99c-.597 1.05.181 2.342 1.415 2.342h32.76c1.244 0 2.022-1.312 1.403-2.364" mask="url(#prefix__b)"/>
        <path fill="#EFD771" d="M48.86 135.636l-.778-2.068c-1.157-3.072-1.58-6.662-1.19-10.155l.425-3.82c.552-4.976-.499-10.113-2.923-13.544-1.777-2.512-4.155-4.049-6.769-4.049-1.512 0-2.946.514-4.229 1.436-4.045 2.9-6.214 9.734-5.403 16.443l.317 2.618c.42 3.481.034 7.077-1.092 10.171l-1.087 2.99c-.381 1.05.115 2.342.904 2.342h20.93c.795 0 1.292-1.312.895-2.364" mask="url(#prefix__b)"/>
        <path fill="#F7CB15" d="M43 139.5c0 3.038-2.463 5.5-5.5 5.5s-5.5-2.462-5.5-5.5 2.463-5.5 5.5-5.5 5.5 2.462 5.5 5.5" mask="url(#prefix__b)"/>
        <path fill="#E7AD27" d="M37.5 142.025c-2.524 0-4.65-1.704-5.298-4.025-.132.472-.202.972-.202 1.487 0 3.044 2.462 5.513 5.5 5.513s5.5-2.469 5.5-5.513c0-.515-.07-1.015-.204-1.487-.646 2.321-2.772 4.025-5.297 4.025" mask="url(#prefix__b)"/>
        <path fill="#EFD771" d="M38 101.708c-.943 0-1.708-.764-1.708-1.707 0-.944.765-1.709 1.709-1.709.943 0 1.707.765 1.707 1.709 0 .943-.764 1.707-1.707 1.707M38 95C35.239 95 33 97.24 33 100c0 2.762 2.24 5 5 5 2.762 0 5-2.238 5-5 0-2.76-2.238-5-5-5" mask="url(#prefix__b)"/>
        <path fill="#F7CB15" d="M38.5 101.232c-.956 0-1.732-.775-1.732-1.73 0-.957.776-1.732 1.732-1.732s1.73.775 1.73 1.731c0 .956-.774 1.73-1.73 1.73m0-5.231c-1.933 0-3.5 1.567-3.5 3.501 0 1.933 1.567 3.499 3.5 3.499s3.5-1.566 3.5-3.499C42 97.567 40.433 96 38.5 96M21.908 132.623l-1.703 3.015c-.597 1.06.182 2.362 1.414 2.362H54.38c1.244 0 2.022-1.323 1.403-2.383l-1.222-2.087c-.29-.498-.552-1.009-.782-1.53H22.241c-.107.209-.218.418-.333.623" mask="url(#prefix__b)"/>
        <path fill="#F3C95E" d="M48.86 135.616l-.778-2.086c-.187-.498-.354-1.01-.5-1.53H27.43c-.068.209-.138.418-.213.623l-1.087 3.014c-.381 1.06.115 2.363.904 2.363h20.93c.795 0 1.292-1.324.895-2.384" mask="url(#prefix__b)"/>
        <path fill="#FFF" d="M170.588 239.357l-32.709 6.454c-6.04 1.191-12.206 1.528-18.318 1.007-4.043-.344-7.12-3.792-7.12-7.843v-3.935c0-1.449 1.178-2.625 2.63-2.625h15.99c4.226 0 7.912-3.252 8.04-7.471.13-4.364-3.374-7.944-7.717-7.944H56v39.688h4.283c2.803 0 5.514.987 7.66 2.787 1.538 1.291 3.378 2.173 5.351 2.562l39.114 7.718c8.409 1.66 17.062 1.66 25.471 0l35.765-7.057c3.694-.73 6.356-3.964 6.356-7.723v-7.895c0-4.961-4.54-8.685-9.412-7.723" mask="url(#prefix__b)"/>
        <path fill="#D1D3D4" d="M173.644 251.234l-35.765 6.964c-8.409 1.638-17.062 1.638-25.47 0l-39.115-7.616c-1.973-.385-3.813-1.254-5.35-2.53-2.147-1.774-4.858-2.75-7.66-2.75H56v10.574h4.283c2.803 0 5.514.975 7.66 2.75 1.538 1.275 3.378 2.145 5.351 2.53l39.114 7.616c8.409 1.637 17.062 1.637 25.471 0l35.765-6.965c3.694-.719 6.356-3.912 6.356-7.622v-7.792c0-.476-.044-.941-.126-1.393-.57 3.095-3.006 5.605-6.23 6.234" mask="url(#prefix__b)"/>
        <path fill="#9CDCE0" d="M48.208 273h-9.416C34.49 273 31 269.452 31 265.074v-55.148c0-4.378 3.489-7.926 7.792-7.926h9.416c4.303 0 7.792 3.548 7.792 7.926v55.148c0 4.378-3.489 7.926-7.792 7.926" mask="url(#prefix__b)"/>
        <path fill="#1C789D" d="M48.208 255.759h-9.416C34.49 255.759 31 252.285 31 248v17.241c0 4.284 3.489 7.759 7.792 7.759h9.416c4.303 0 7.792-3.475 7.792-7.759V248c0 4.285-3.489 7.759-7.792 7.759" mask="url(#prefix__b)"/>
        <path fill="#D1D3D4" d="M112.494 238.254v-3.887c0-1.43 1.171-2.592 2.613-2.592h15.863c4.045 0 7.668-2.95 8.002-6.95.023-.277.032-.552.027-.825h-22c-6.437 0-11.497 5.46-10.96 11.824.458 5.395 4.834 9.643 10.283 9.977l3.25.199c-4.02-.341-7.078-3.745-7.078-7.746" mask="url(#prefix__b)"/>
        <path fill="#1C789D" d="M189.99 18.993c6.99-15.976 25.726-23.31 41.845-16.382 16.121 6.927 23.52 25.494 16.53 41.468-6.99 15.976-25.724 23.309-41.844 16.383-1.153-.497-2.263-1.052-3.326-1.662l-15.317 5.996c-2.345.918-4.64-1.431-3.636-3.724l6.627-15.146c-4.188-8.101-4.82-17.93-.879-26.933" mask="url(#prefix__b)"/>
        <path fill="#6BA997" d="M190.851 18.656c.398-.915.84-1.798 1.312-2.656-5.03 15.296 2.377 32.169 17.502 38.7 15.125 6.53 32.558.382 40.335-13.727-.305.93-.651 1.853-1.05 2.768-6.845 15.716-25.004 23.07-40.867 16.707l-21.225 8.348c-2.332.918-4.615-1.432-3.617-3.723l1.888-4.338c-.996 2.293 1.287 4.64 3.62 3.722l15.244-5.996c-13.714-7.91-19.602-24.975-13.142-39.805" mask="url(#prefix__b)"/>
        <path fill="#6BA997" d="M220.5 11c-3.038 0-5.5 2.365-5.5 5.283v15.433c0 .365.038.722.112 1.065.018.087.038.172.06.256.047.17.1.334.161.496.71 1.861 2.479 3.233 4.605 3.44.093.01.186.016.28.02.093.004.188.007.283.007 3.037 0 5.499-2.365 5.499-5.284V16.283c0-2.918-2.462-5.283-5.5-5.283M220.5 40c-3.038 0-5.5 2.461-5.5 5.5 0 .379.038.75.112 1.108.018.09.038.178.06.266.047.177.1.348.161.516.71 1.939 2.479 3.365 4.605 3.581.093.01.186.017.28.021.093.005.188.008.283.008 3.037 0 5.499-2.462 5.499-5.5 0-3.039-2.462-5.5-5.5-5.5" mask="url(#prefix__b)"/>
        <path fill="#F7CB15" d="M220.5 35c3.038 0 5.5-2.365 5.5-5.284V14.283C226 11.365 223.538 9 220.5 9s-5.5 2.365-5.5 5.283v15.433c0 2.919 2.462 5.284 5.5 5.284" mask="url(#prefix__b)"/>
        <path fill="#F7CB15" d="M220.5 31.515c3.038 0 5.5-2.47 5.5-5.515v3.483c0 3.048-2.462 5.517-5.5 5.517s-5.5-2.47-5.5-5.517V26c0 3.046 2.462 5.515 5.5 5.515" mask="url(#prefix__b)"/>
        <path fill="#EFD771" d="M220.5 49c3.038 0 5.5-2.462 5.5-5.5 0-3.039-2.462-5.5-5.5-5.5s-5.5 2.461-5.5 5.5c0 3.038 2.462 5.5 5.5 5.5" mask="url(#prefix__b)"/>
        <path fill="#F7CB15" d="M220.5 45.639c2.427 0 4.464-1.53 5.193-3.639.184.53.307 1.089.307 1.68 0 2.938-2.462 5.32-5.5 5.32s-5.5-2.382-5.5-5.32c0-.591.123-1.15.307-1.68.73 2.109 2.766 3.639 5.194 3.639" mask="url(#prefix__b)"/>
        <path fill="#095E80" fill-rule="nonzero" d="M90.474 112v-11.234h7.257c7.134 0 10.701-3.034 10.701-9.061 0-5.986-3.567-8.979-10.619-8.979H85.677V112h4.797zm6.97-15.334h-6.97v-9.84h6.97c2.091 0 3.65.369 4.633 1.148.984.738 1.517 1.968 1.517 3.731s-.492 3.034-1.476 3.813c-.984.738-2.542 1.148-4.674 1.148zm21.204 15.908c1.845 0 3.444-.328 4.797-.943 1.19-.574 2.214-1.353 3.034-2.419V112h4.346V98.47c0-2.583-.656-4.551-1.968-5.904-1.476-1.558-3.813-2.337-6.929-2.337-2.706 0-4.838.451-6.396 1.435-1.845 1.066-2.993 2.788-3.444 5.125l4.633.369c.246-1.107.861-1.927 1.763-2.46.78-.492 1.804-.697 3.116-.697 3.034 0 4.551 1.353 4.551 4.141v.82l-4.633.123c-3.116.082-5.535.738-7.257 1.968-1.886 1.271-2.788 3.116-2.788 5.494 0 1.763.656 3.198 1.968 4.346 1.271 1.107 2.993 1.681 5.207 1.681zm1.066-3.567c-1.025 0-1.845-.287-2.5-.779-.657-.492-.944-1.107-.944-1.845 0-2.542 1.845-3.854 5.576-3.936l4.305-.123v1.066c0 1.64-.656 2.993-1.886 4.059-1.23 1.025-2.747 1.558-4.55 1.558zm23.623 11.111l11.48-29.315h-5.084l-5.371 15.088-5.617-15.088h-5.084l8.405 20.705-3.731 8.61h5.002z"/>
    </g>
</svg>
