<svg xmlns="http://www.w3.org/2000/svg" xmlns:xlink="http://www.w3.org/1999/xlink" width="343" height="250" viewBox="0 0 343 250">
    <defs>
        <path id="prefix__a" d="M0.003 0.002L280.507 0.002 280.507 170.195 0.003 170.195z"/>
        <path id="prefix__c" d="M0 249.259L342.907 249.259 342.907 0 0 0z"/>
    </defs>
    <g fill="none" fill-rule="evenodd">
        <g>
            <g transform="translate(24.43 79.064)">
                <mask id="prefix__b" fill="#fff">
                    <use xlink:href="#prefix__a"/>
                </mask>
                <path fill="#D0D2D3" d="M280.507 11.805V146.77c0 12.938-21.816 23.426-48.727 23.426H24.555c-7.093 0-13.754-.87-19.568-2.396C1.81 165.004.003 161.8.003 158.392V19.635C.003 8.792 18.287.002 40.841.002h215.115c7.093 0 13.753.869 19.569 2.396 3.175 2.795 4.982 5.997 4.982 9.407" mask="url(#prefix__b)"/>
            </g>
            <path fill="#FFF7DF" d="M268.566 245.344H28.231c-15.592 0-28.23-12.64-28.23-28.231V95.552c0-15.592 12.638-28.23 28.23-28.23h240.335c15.591 0 28.231 12.638 28.231 28.23v121.56c0 15.593-12.64 28.232-28.231 28.232"/>
            <path fill="#FDDD39" d="M143.168 196.624H24.16c-4.198 0-7.601-3.403-7.601-7.6 0-4.198 3.403-7.601 7.6-7.601h119.009c4.198 0 7.6 3.403 7.6 7.6 0 4.198-3.402 7.601-7.6 7.601"/>
            <path fill="#0099DC" d="M193.18 99.275H74.17c-4.197 0-7.6-3.403-7.6-7.6 0-4.198 3.403-7.601 7.6-7.601h119.01c4.197 0 7.6 3.403 7.6 7.6 0 4.198-3.403 7.6-7.6 7.6M277.377 223.032H24.16c-4.198 0-7.601-3.403-7.601-7.601 0-4.197 3.403-7.6 7.6-7.6h253.218c4.197 0 7.6 3.403 7.6 7.6 0 4.198-3.403 7.6-7.6 7.6"/>
            <path fill="#FFF" d="M326.154 178.549l-25.472-25.472 13.88-13.878 25.47 25.471c3.833 3.833 3.833 10.047 0 13.879-3.832 3.832-10.046 3.832-13.878 0"/>
            <path fill="#D0D2D3" d="M330.478 174.225l-25.471-25.471-4.325 4.323 25.471 25.472c3.833 3.833 10.047 3.833 13.88 0 .755-.755 1.358-1.604 1.817-2.508-3.684 1.866-8.295 1.26-11.372-1.816"/>
            <path fill="#FFF" d="M248.36 162.348c-15.77 0-30.358-5.064-42.226-13.659-18.088-13.093-29.853-34.382-29.853-58.42 0-1.712.06-3.414.177-5.098 2.618-37.43 33.807-66.98 71.902-66.98 39.807 0 72.078 32.271 72.078 72.078s-32.271 72.08-72.078 72.08M248.36 0c-49.663 0-89.955 40.099-90.266 89.686-.004.193-.004.39-.004.583 0 28.016 12.761 53.049 32.787 69.606 15.612 12.907 35.641 20.664 57.483 20.664 49.855 0 90.27-40.414 90.27-90.27C338.63 40.414 298.214 0 248.36 0"/>
            <path fill="#D0D2D3" d="M248.36 162.35c-39.81 0-72.081-32.272-72.081-72.08 0-39.81 32.271-72.08 72.08-72.08 39.81 0 72.081 32.27 72.081 72.08 0 39.808-32.272 72.08-72.08 72.08m0-152.902c-44.636 0-80.821 36.185-80.821 80.821 0 44.636 36.185 80.82 80.82 80.82 44.637 0 80.82-36.184 80.82-80.82 0-44.636-36.183-80.82-80.82-80.82"/>
            <mask id="prefix__d" fill="#fff">
                <use xlink:href="#prefix__c"/>
            </mask>
            <path fill="#FFF" d="M234.854 131.742L261.866 131.742 261.866 98.962 234.854 98.962zM213.88 82.035c-3.204 0-5.802-2.598-5.802-5.803v-8.847c0-3.205 2.598-5.803 5.803-5.803 3.206 0 5.804 2.598 5.804 5.803v8.847c0 3.205-2.598 5.803-5.804 5.803" mask="url(#prefix__d)"/>
            <path fill="#D0D2D3" d="M213.88 79.301c-3.204 0-5.802-2.598-5.802-5.803v2.733c0 3.206 2.598 5.803 5.803 5.803 3.206 0 5.804-2.597 5.804-5.803v-2.733c0 3.205-2.598 5.803-5.804 5.803" mask="url(#prefix__d)"/>
            <path fill="#FFF" d="M282.838 82.035c-3.206 0-5.803-2.598-5.803-5.803v-8.847c0-3.205 2.597-5.803 5.803-5.803 3.205 0 5.803 2.598 5.803 5.803v8.847c0 3.205-2.598 5.803-5.803 5.803" mask="url(#prefix__d)"/>
            <path fill="#D0D2D3" d="M282.838 79.301c-3.206 0-5.803-2.598-5.803-5.803v2.733c0 3.206 2.597 5.803 5.803 5.803 3.205 0 5.803-2.597 5.803-5.803v-2.733c0 3.205-2.598 5.803-5.803 5.803" mask="url(#prefix__d)"/>
            <path fill="#FFF" d="M214.387 59.271c1.124-5.771 3.681-11.03 7.29-15.388 1.042-1.265 2.176-2.449 3.386-3.552 6.15-5.603 14.324-9.013 23.297-9.013.397 0 .799.006 1.197.024.135 0 .27.006.401.013 8.926.405 16.964 4.186 22.88 10.103 5.27 5.269 8.85 12.234 9.85 20.006.189 1.464.287 2.955.287 4.47v6.855c0 19.118-15.496 34.614-34.615 34.614-19.117 0-34.617-15.496-34.617-34.614v-6.855c0-1.471.092-2.918.27-4.338l.374-2.325z" mask="url(#prefix__d)"/>
            <path fill="#D0D2D3" d="M248.36 101.936c-19.117 0-34.617-15.495-34.617-34.615v5.467c0 19.12 15.5 34.616 34.617 34.616 19.12 0 34.615-15.496 34.615-34.616v-5.467c0 19.12-15.496 34.615-34.615 34.615" mask="url(#prefix__d)"/>
            <path fill="#E7AD26" d="M214.348 59.473h3.414V76.06c0 1.031-.755 1.952-1.783 2.047-1.179.109-2.166-.813-2.166-1.965V64.18c0-1.585.179-3.164.535-4.708M282.975 63.749v12.103c0 1.033-.753 1.955-1.78 2.054-1.178.113-2.17-.81-2.17-1.963V59.272h3.31c.424 1.454.64 2.961.64 4.477" mask="url(#prefix__d)"/>
            <path fill="#E7AD26" d="M249.556 31.342c-3.5 5.464-12.18 17.277-26.237 25.585-3.382 1.997-6.489 3.521-9.305 4.669.003-.004.003-.01.003-.013.837-6.68 3.575-12.768 7.66-17.7 1.042-1.264 2.177-2.448 3.387-3.552 6.15-5.603 14.323-9.013 23.295-9.013.399 0 .8.007 1.197.024" mask="url(#prefix__d)"/>
            <path fill="#FDDD39" d="M282.689 61.464c-4.713 1.427-13.999 2.773-28.747-1.082-14.913-3.897-26.23-11.625-32.265-16.5 1.042-1.264 2.176-2.448 3.386-3.55 6.15-5.604 14.324-9.015 23.297-9.015.532 0 1.068.011 1.598.038 8.926.405 16.964 4.186 22.88 10.103 5.27 5.268 8.85 12.234 9.85 20.006" mask="url(#prefix__d)"/>
            <path fill="#E7AD26" d="M253.942 40.142c-6.53-1.706-12.37-4.147-17.38-6.762-4.292 1.556-8.188 3.935-11.498 6.95-1.21 1.104-2.345 2.288-3.386 3.553 6.034 4.874 17.351 12.602 32.264 16.498 14.748 3.856 24.034 2.51 28.747 1.083-.93-7.216-4.085-13.736-8.75-18.849-5.014.227-11.625-.284-19.997-2.473" mask="url(#prefix__d)"/>
            <path fill="#FDDD39" d="M253.942 46.889c-9.535-2.492-17.596-6.548-23.75-10.425-1.829 1.13-3.546 2.426-5.128 3.867-1.21 1.103-2.345 2.287-3.386 3.552 6.034 4.875 17.351 12.602 32.264 16.498 14.748 3.856 24.034 2.51 28.747 1.083-.582-4.515-2.04-8.756-4.188-12.553-5.288.833-13.343.91-24.559-2.022" mask="url(#prefix__d)"/>
            <path fill="#E7AD26" d="M253.942 53.635c-12.233-3.196-22.045-8.97-28.509-13.633-.123.11-.247.217-.37.329-1.21 1.103-2.344 2.287-3.385 3.551 6.034 4.876 17.351 12.603 32.264 16.5 14.748 3.855 24.034 2.508 28.747 1.082-.283-2.188-.776-4.31-1.447-6.352-5.055 1.24-13.935 2.017-27.3-1.477M248.36 84.254c-2.113 0-3.824-1.712-3.824-3.823V75.4c0-2.112 1.711-3.823 3.824-3.823 2.111 0 3.823 1.711 3.823 3.823v5.03c0 2.112-1.712 3.824-3.823 3.824" mask="url(#prefix__d)"/>
            <path fill="#1BADE3" d="M306.893 132.333c-11.446 15.907-29.224 26.959-49.639 29.47-.87.108-1.749.199-2.627.273-2.04.177-4.102.268-6.188.271h-.08c-2.11 0-4.2-.09-6.268-.271-.886-.074-1.764-.165-2.642-.275-20.412-2.516-38.185-13.57-49.632-29.477 4.45-8.905 13.656-15.024 24.283-15.024h11.777l8.135 26.672.858 2.807h26.968l.854-2.807h.004l8.134-26.672h11.777c10.63 0 19.836 6.119 24.286 15.033" mask="url(#prefix__d)"/>
            <path fill="#1BADE3" d="M262.692 143.972l-.855 2.807-4.583 15.025c-.87.107-1.748.198-2.626.272-2.04.177-4.103.268-6.19.271h-.079c-2.11 0-4.2-.09-6.268-.271-.886-.074-1.764-.165-2.642-.275l-4.58-15.022-.857-2.807 7.453-6.36h.003l6.88-5.87 6.914 5.895 7.43 6.335z" mask="url(#prefix__d)"/>
            <path fill="#E7AD26" d="M235.204 68.593c0 1.614-1.309 2.924-2.924 2.924-1.614 0-2.923-1.31-2.923-2.924 0-1.614 1.31-2.923 2.923-2.923 1.615 0 2.924 1.31 2.924 2.923M267.362 68.593c0 1.614-1.309 2.924-2.923 2.924-1.615 0-2.925-1.31-2.925-2.924 0-1.614 1.31-2.923 2.925-2.923 1.614 0 2.923 1.31 2.923 2.923M248.36 94.481c-3.583 0-7.167-1.364-9.894-4.091-.348-.349-.348-.914 0-1.262.347-.348.913-.348 1.26 0 4.76 4.76 12.506 4.76 17.266 0 .347-.348.913-.348 1.26 0 .35.348.35.913 0 1.262-2.726 2.727-6.31 4.091-9.892 4.091M254.628 162.076c-2.04.178-4.103.267-6.19.271h-.078c-2.11 0-4.201-.09-6.27-.27l.154-1.756v-.005l.52-5.902.181-2.079v-.008l.197-2.268.292-3.28.027-.322.35-3.957h9.096l.35 3.957.029.322.597 6.796v.004l.406 4.611.339 3.886z" mask="url(#prefix__d)"/>
            <path fill="#FDDD39" d="M254.288 158.188L242.762 154.414 243.144 150.061 253.883 153.577zM248.438 162.347h-.079c-2.11 0-4.2-.09-6.268-.27l.154-1.756 6.193 2.026zM251.47 146.779h-6.222c-3.51 0-5.932-3.515-4.683-6.795l1.91-5.015c.74-1.943 2.603-3.228 4.683-3.228h2.403c2.08 0 3.943 1.285 4.683 3.228l1.91 5.015c1.248 3.28-1.174 6.795-4.683 6.795" mask="url(#prefix__d)"/>
            <path fill="#EE599C" d="M270.832 117.301L270.832 117.301 261.866 112.249 248.359 131.741 262.695 143.973zM225.874 117.301L225.874 117.301 234.84 112.249 248.347 131.741 234.012 143.973z" mask="url(#prefix__d)"/>
            <path fill="#D0D2D3" d="M261.853 108.527L248.36 123.27 248.347 123.27 234.854 108.527 234.839 112.248 248.347 131.742 248.36 131.742 261.866 112.248z" mask="url(#prefix__d)"/>
            <path fill="#0099DC" d="M211.74 117.405c-9.617.83-17.806 6.68-21.923 14.92 5.83 8.101 13.302 14.937 21.924 20.033v-34.953zM284.978 117.406v34.954c8.62-5.095 16.09-11.93 21.915-20.027-4.115-8.245-12.299-14.094-21.915-14.927" mask="url(#prefix__d)"/>
            <path fill="#D0D2D3" d="M248.353 162.41c-.477 6.328-2.494 12.516-5.955 17.956-25.915-1.892-50.82-14.905-67.05-37.74-.112-.156-.226-.317-.334-.476 2.746-5.494 6.848-10.414 12.204-14.221.049-.034.097-.068.147-.1.88 1.443 1.817 2.864 2.81 4.26 13.927 19.592 35.85 30.129 58.178 30.32" mask="url(#prefix__d)"/>
            <path fill="#0E6DA0" d="M232.28 162.343c0 21.416-17.36 38.776-38.775 38.776s-38.775-17.36-38.775-38.776c0-21.415 17.36-38.775 38.775-38.775 21.416 0 38.776 17.36 38.776 38.775" mask="url(#prefix__d)"/>
            <path fill="#EE599C" d="M225.472 162.343c0 17.656-14.312 31.968-31.967 31.968s-31.967-14.312-31.967-31.968c0-17.654 14.312-31.967 31.967-31.967s31.967 14.313 31.967 31.967" mask="url(#prefix__d)"/>
            <path fill="#FFF" d="M193.505 132.966c17.22 0 31.254 13.618 31.934 30.672.017-.43.034-.86.034-1.295 0-17.654-14.312-31.967-31.968-31.967-17.655 0-31.967 14.313-31.967 31.967 0 .434.016.865.033 1.295.68-17.054 14.713-30.672 31.934-30.672" mask="url(#prefix__d)"/>
            <path fill="#FFF" d="M186.676 180.893L170.911 165.128 176.48 159.559 186.676 169.756 208.234 148.199 213.803 153.766z" mask="url(#prefix__d)"/>
            <path fill="#DD0816" d="M16.559 103.912L56.056 103.912 56.056 79.436 16.559 79.436z" mask="url(#prefix__d)"/>
            <path fill="#1F286F" d="M16.559 88.285L29.689 88.285 29.689 79.436 16.559 79.436z" mask="url(#prefix__d)"/>
        </g>
        <text fill="#6D7278" font-family="PingFangTC-Semibold, PingFang TC" font-size="34" font-weight="500" letter-spacing="8.773">
            <tspan x="16.34" y="158.5">身份證</tspan>
        </text>
    </g>
</svg>
