<?xml version="1.0" encoding="UTF-8"?>
<svg width="424px" height="274px" viewBox="0 0 424 274" version="1.1" xmlns="http://www.w3.org/2000/svg" xmlns:xlink="http://www.w3.org/1999/xlink">
    <!-- Generator: Sketch 61.1 (89650) - https://sketch.com -->
    <title>Group 20 outline</title>
    <desc>Created with Sketch.</desc>
    <defs>
        <polygon id="path-1" points="0.2257 0 69.7917 0 69.7917 76.4488 0.2257 76.4488"></polygon>
        <polygon id="path-3" points="0.4966 0 36.2116 0 36.2116 30.4218 0.4966 30.4218"></polygon>
        <polygon id="path-5" points="0.1976 0 61.5036 0 61.5036 31.7376213 0.1976 31.7376213"></polygon>
        <polygon id="path-7" points="0 0.0741 272.9997 0.0741 272.9997 129 0 129"></polygon>
        <polygon id="path-9" points="0 250 273 250 273 0 0 0"></polygon>
        <polygon id="path-11" points="0 0.2104 213 0.2104 213 73.2104 0 73.2104"></polygon>
    </defs>
    <g id="懶人包" stroke="none" stroke-width="1" fill="none" fill-rule="evenodd">
        <g id="小資振興_懶人包_3000振興" transform="translate(-431.000000, -834.000000)">
            <g id="Group-20-outline" transform="translate(431.000000, 833.000000)">
                <g id="Group-8" transform="translate(0.000000, 25.000000)">
                    <g id="Group-105">
                        <path d="M214.6969,116.0116 L214.6969,136.1646 C212.0489,139.2446 209.1689,142.1236 206.0889,144.7756 C206.0649,144.7956 206.0429,144.8166 206.0189,144.8366 C202.8869,147.5256 199.5449,149.9846 196.0239,152.1816 C195.2049,152.6936 194.3729,153.1916 193.5329,153.6746 C193.5299,153.6776 193.5279,153.6776 193.5219,153.6806 C191.9679,154.5746 190.3839,155.4206 188.7669,156.2116 L188.7639,156.2116 C182.1859,159.4356 175.1129,161.7946 167.6859,163.1456 C165.8139,163.4886 163.9219,163.7636 162.0059,163.9736 C161.2659,164.0546 160.5269,164.1266 159.7819,164.1866 C157.6049,164.3676 155.4019,164.4606 153.1779,164.4666 L152.8269,164.4666 C150.6179,164.4606 148.4289,164.3676 146.2659,164.1896 C146.2579,164.1896 146.2459,164.1896 146.2349,164.1866 C145.4889,164.1266 144.7509,164.0546 144.0109,163.9736 C142.0719,163.7616 140.1569,163.4826 138.2609,163.1346 C130.8579,161.7796 123.8049,159.4246 117.2499,156.2116 C115.6309,155.4176 114.0399,154.5726 112.4839,153.6776 C111.6439,153.1916 110.8129,152.6936 109.9929,152.1816 C106.4459,149.9696 103.0839,147.4906 99.9279,144.7756 C96.8479,142.1236 93.9679,139.2446 91.3199,136.1646 L91.3199,113.6556 C91.3199,107.7196 93.2179,102.2286 96.4389,97.7506 C101.3889,90.8736 109.4669,86.3926 118.5869,86.3926 L187.4209,86.3926 C188.7699,86.3926 190.0959,86.4906 191.3929,86.6806 C198.8659,87.7706 205.3549,91.8916 209.5719,97.7596 C212.7909,102.2316 214.6829,107.7226 214.6829,113.6556 L214.6829,116.0116 L214.6969,116.0116 Z" id="Fill-1" fill="#079690"></path>
                        <path d="M112.4836,121.0736 L112.4836,153.6776 C111.6436,153.1916 110.8126,152.6936 109.9926,152.1816 C106.4456,149.9696 103.0836,147.4906 99.9286,144.7756 C96.8476,142.1236 93.9686,139.2446 91.3196,136.1646 L91.3196,121.0736 L112.4836,121.0736 Z" id="Fill-3" fill="#FFFFFF"></path>
                        <path d="M214.6969,121.0736 L214.6969,136.1646 C212.0489,139.2446 209.1689,142.1236 206.0889,144.7756 C206.0649,144.7956 206.0429,144.8166 206.0189,144.8366 C202.8869,147.5256 199.5449,149.9846 196.0239,152.1816 C195.2049,152.6936 194.3729,153.1916 193.5329,153.6746 L193.5329,121.0736 L214.6969,121.0736 Z" id="Fill-5" fill="#FFFFFF"></path>
                        <path d="M118.364,50.9584 L118.364,50.9584 C115.143,50.9584 112.532,48.3484 112.532,45.1274 L112.532,36.2394 C112.532,33.0184 115.143,30.4084 118.364,30.4084 L118.364,30.4084 C121.584,30.4084 124.195,33.0184 124.195,36.2394 L124.195,45.1274 C124.195,48.3484 121.584,50.9584 118.364,50.9584" id="Fill-7" fill="#FFFFFF"></path>
                        <path d="M118.3635,48.2118 L118.3635,48.2118 C115.1435,48.2118 112.5325,45.6018 112.5325,42.3808 L112.5325,45.1278 C112.5325,48.3478 115.1435,50.9588 118.3635,50.9588 C121.5845,50.9588 124.1955,48.3478 124.1955,45.1278 L124.1955,42.3808 C124.1955,45.6018 121.5845,48.2118 118.3635,48.2118" id="Fill-9" fill="#D0D2D3"></path>
                        <path d="M187.654,50.9584 L187.653,50.9584 C184.432,50.9584 181.822,48.3484 181.822,45.1274 L181.822,36.2394 C181.822,33.0184 184.432,30.4084 187.653,30.4084 L187.654,30.4084 C190.874,30.4084 193.485,33.0184 193.485,36.2394 L193.485,45.1274 C193.485,48.3484 190.874,50.9584 187.654,50.9584" id="Fill-11" fill="#FFFFFF"></path>
                        <path d="M187.653,48.2118 L187.653,48.2118 C184.432,48.2118 181.822,45.6018 181.822,42.3808 L181.822,45.1278 C181.822,48.3478 184.432,50.9588 187.653,50.9588 C190.874,50.9588 193.485,48.3478 193.485,45.1278 L193.485,42.3808 C193.485,45.6018 190.874,48.2118 187.653,48.2118" id="Fill-13" fill="#D0D2D3"></path>
                        <path d="M139.4377,67.9657 L139.4377,86.3917 L139.4277,86.3917 L139.4307,86.3957 C146.2637,95.3537 159.7487,95.3527 166.5787,86.3917 L166.5797,86.3917 L166.5797,67.9657 L139.4377,67.9657 Z" id="Fill-15" fill="#FFFFFF"></path>
                        <g id="Group-19" transform="translate(118.000000, 0.000000)">
                            <mask id="mask-2" fill="white">
                                <use xlink:href="#path-1"></use>
                            </mask>
                            <g id="Clip-18"></g>
                            <path d="M0.8727,28.0868 C2.0017,22.2878 4.5707,17.0038 8.1977,12.6248 C9.2447,11.3538 10.3837,10.1648 11.6007,9.0558 C17.7797,3.4268 25.9927,-0.0002 35.0087,-0.0002 C35.4087,-0.0002 35.8117,0.0068 36.2117,0.0238 C36.3477,0.0238 36.4827,0.0308 36.6147,0.0378 C45.5837,0.4438 53.6607,4.2438 59.6057,10.1888 C64.8997,15.4828 68.4967,22.4808 69.5037,30.2898 C69.6927,31.7608 69.7917,33.2588 69.7917,34.7808 L69.7917,41.6678 C69.7917,60.8788 54.2207,76.4488 35.0087,76.4488 C15.7997,76.4488 0.2257,60.8788 0.2257,41.6678 L0.2257,34.7808 C0.2257,33.3028 0.3167,31.8488 0.4967,30.4218 L0.8727,28.0868 Z" id="Fill-17" fill="#FFFFFF" mask="url(#mask-2)"></path>
                        </g>
                        <path d="M153.0085,70.9555 C133.8005,70.9555 118.2255,55.3855 118.2255,36.1745 L118.2255,41.6675 C118.2255,60.8785 133.8005,76.4485 153.0085,76.4485 C172.2205,76.4485 187.7915,60.8785 187.7915,41.6675 L187.7915,36.1745 C187.7915,55.3855 172.2205,70.9555 153.0085,70.9555" id="Fill-20" fill="#D0D2D3"></path>
                        <path d="M118.8727,28.0868 L122.1947,28.0868 L122.1947,44.7548 C122.1947,45.8418 121.3547,46.7888 120.2687,46.8188 C119.1437,46.8498 118.2257,45.9498 118.2257,44.8368 L118.2257,32.8458 C118.2257,31.2368 118.4427,29.6368 118.8727,28.0868" id="Fill-22" fill="#4B6084"></path>
                        <path d="M187.7917,32.5854 L187.7917,44.7664 C187.7917,45.7754 187.0667,46.6754 186.0647,46.8034 C184.8547,46.9574 183.8227,46.0174 183.8227,44.8364 L183.8227,28.0864 L187.1467,28.0864 C187.5747,29.5484 187.7917,31.0634 187.7917,32.5854" id="Fill-24" fill="#4B6084"></path>
                        <g id="Group-28" transform="translate(118.000000, 0.000000)">
                            <mask id="mask-4" fill="white">
                                <use xlink:href="#path-3"></use>
                            </mask>
                            <g id="Clip-27"></g>
                            <path d="M36.2116,0.0238 C32.6936,5.5148 23.9726,17.3838 9.8486,25.7318 C6.4486,27.7378 3.3266,29.2698 0.4966,30.4218 C0.5006,30.4188 0.5006,30.4118 0.5006,30.4088 C1.3406,23.6978 4.0926,17.5798 8.1976,12.6248 C9.2446,11.3538 10.3836,10.1648 11.6006,9.0558 C17.7796,3.4268 25.9926,-0.0002 35.0086,-0.0002 C35.4086,-0.0002 35.8116,0.0068 36.2116,0.0238" id="Fill-26" fill="#4B6084" mask="url(#mask-4)"></path>
                        </g>
                        <g id="Group-31" transform="translate(126.000000, 0.000000)">
                            <mask id="mask-6" fill="white">
                                <use xlink:href="#path-5"></use>
                            </mask>
                            <g id="Clip-30"></g>
                            <path d="M61.5036,30.2899 C56.7686,31.7239 47.4376,33.0759 32.6186,29.2019 C17.6326,25.2879 6.2616,17.5219 0.1976,12.6249 C1.2446,11.3539 2.3836,10.1649 3.6006,9.0559 C9.7796,3.4269 17.9926,-0.0001 27.0086,-0.0001 C27.5446,-0.0001 28.0836,0.0099 28.6146,0.0379 C37.5836,0.4439 45.6606,4.2439 51.6066,10.1879 C56.8996,15.4819 60.4966,22.4809 61.5036,30.2899" id="Fill-29" fill="#808F91" mask="url(#mask-6)"></path>
                        </g>
                        <path d="M158.6183,8.8661 C152.0563,7.1521 146.1873,4.6991 141.1543,2.0731 C136.8413,3.6361 132.9263,6.0261 129.6003,9.0561 C128.3843,10.1641 127.2443,11.3541 126.1973,12.6251 C132.2613,17.5221 143.6333,25.2871 158.6183,29.2021 C173.4373,33.0761 182.7683,31.7231 187.5033,30.2901 C186.5693,23.0391 183.3993,16.4891 178.7123,11.3511 C173.6733,11.5791 167.0313,11.0661 158.6183,8.8661" id="Fill-32" fill="#4B6084"></path>
                        <path d="M158.6183,15.6449 C149.0373,13.1419 140.9373,9.0659 134.7533,5.1709 C132.9153,6.3069 131.1903,7.6079 129.6003,9.0559 C128.3843,10.1649 127.2443,11.3539 126.1973,12.6249 C132.2613,17.5219 143.6333,25.2879 158.6183,29.2019 C173.4373,33.0759 182.7683,31.7239 187.5033,30.2899 C186.9183,25.7529 185.4543,21.4919 183.2953,17.6769 C177.9813,18.5139 169.8883,18.5909 158.6183,15.6449" id="Fill-34" fill="#808F91"></path>
                        <path d="M158.6183,22.4232 C146.3253,19.2122 136.4663,13.4102 129.9723,8.7252 C129.8473,8.8352 129.7233,8.9442 129.6003,9.0562 C128.3843,10.1642 127.2443,11.3542 126.1973,12.6252 C132.2613,17.5222 143.6333,25.2872 158.6183,29.2022 C173.4373,33.0762 182.7683,31.7232 187.5033,30.2902 C187.2203,28.0902 186.7243,25.9592 186.0493,23.9082 C180.9703,25.1522 172.0473,25.9342 158.6183,22.4232" id="Fill-36" fill="#4B6084"></path>
                        <path d="M153.0085,53.1884 L153.0085,53.1884 C150.8865,53.1884 149.1665,51.4684 149.1665,49.3464 L149.1665,44.2924 C149.1665,42.1704 150.8865,40.4504 153.0085,40.4504 C155.1305,40.4504 156.8505,42.1704 156.8505,44.2924 L156.8505,49.3464 C156.8505,51.4684 155.1305,53.1884 153.0085,53.1884" id="Fill-38" fill="#A62873"></path>
                        <path d="M139.7892,37.453 C139.7892,39.076 138.4742,40.391 136.8512,40.391 C135.2292,40.391 133.9142,39.076 133.9142,37.453 C133.9142,35.831 135.2292,34.516 136.8512,34.516 C138.4742,34.516 139.7892,35.831 139.7892,37.453" id="Fill-40" fill="#A62873"></path>
                        <path d="M172.1022,37.453 C172.1022,39.076 170.7882,40.391 169.1642,40.391 C167.5422,40.391 166.2272,39.076 166.2272,37.453 C166.2272,35.831 167.5422,34.516 169.1642,34.516 C170.7882,34.516 172.1022,35.831 172.1022,37.453" id="Fill-42" fill="#A62873"></path>
                        <path d="M153.0085,63.474 C149.2555,63.474 145.7245,62.01 143.0675,59.353 C142.7165,59.003 142.7165,58.436 143.0675,58.086 C143.4165,57.736 143.9845,57.736 144.3345,58.086 C146.6535,60.405 149.7345,61.682 153.0085,61.682 C156.2825,61.682 159.3635,60.405 161.6825,58.086 C162.0325,57.736 162.5995,57.736 162.9495,58.086 C163.2995,58.436 163.2995,59.003 162.9495,59.353 C160.2925,62.01 156.7615,63.474 153.0085,63.474" id="Fill-44" fill="#A62873"></path>
                        <polygon id="Fill-46" fill="#F23E23" points="153.0085 160.4066 152.9925 160.4246 152.9985 160.4446 153.0095 160.4076"></polygon>
                        <path d="M183.4831,98.8344 C183.9811,102.3294 183.2621,99.5034 183.4831,98.8324 C178.9991,93.5684 173.2841,89.5014 166.5791,86.3934 L166.5781,86.3934 C159.7471,95.3524 146.2631,95.3544 139.4311,86.3964 L139.4291,86.3934 C125.2951,92.9474 115.5441,103.7594 112.4841,121.0734 L112.4841,153.6774 C114.0401,154.5724 115.6301,155.4174 117.2501,156.2114 C123.8051,159.4244 130.8581,161.7794 138.2611,163.1344 C140.1571,163.4824 142.0721,163.7614 144.0111,163.9744 C144.7511,164.0544 145.4891,164.1264 146.2341,164.1874 C146.2461,164.1894 146.2571,164.1894 146.2661,164.1894 L151.3111,164.3994 L152.8271,164.4604 L152.8271,164.4744 L152.8531,164.4744 L153.0051,164.4664 L153.0081,164.4664 L153.1551,164.4744 L153.1781,164.4744 L153.1781,164.4604 L154.7051,164.3974 L159.7821,164.1874 C160.5271,164.1264 161.2661,164.0544 162.0051,163.9744 C163.9211,163.7644 165.8141,163.4884 167.6861,163.1464 C175.1131,161.7944 182.1861,159.4354 188.7641,156.2114 L188.7671,156.2114 C190.3831,155.4204 191.9681,154.5754 193.5221,153.6804 L193.5221,121.0734 C191.9151,111.9714 188.4551,104.6684 183.4831,98.8344" id="Fill-48" fill="#2C416D"></path>
                        <path d="M193.5329,153.6747 L193.5219,128.1747 L193.5189,121.0737 L188.7669,156.2117 C190.3839,155.4207 191.9689,154.5747 193.5219,153.6807 L193.5329,153.6747 Z" id="Fill-50" fill="#0E6DA0"></path>
                        <path d="M117.2497,156.2113 C115.6307,155.4183 114.0397,154.5723 112.4837,153.6773 L112.4837,121.0733 L117.2497,156.2113 Z" id="Fill-52" fill="#0E6DA0"></path>
                        <path d="M166.5778,86.393 C159.7478,95.352 146.2638,95.354 139.4308,86.396 L139.4288,86.393 L133.7818,86.393 C136.5438,92.739 144.1058,97.297 153.0088,97.297 C161.9108,97.297 169.4738,92.739 172.2348,86.393 L166.5778,86.393 Z" id="Fill-54" fill="#0E6DA0"></path>
                        <path d="M98.1286,118.515 L98.1286,120.806 C98.1286,123.219 100.0846,125.175 102.4976,125.175 L102.4986,125.175 C104.9106,125.175 106.8666,123.219 106.8666,120.806 L106.8666,118.515 C106.8666,116.102 104.9106,114.146 102.4986,114.146 L102.4976,114.146 C100.0846,114.146 98.1286,116.102 98.1286,118.515" id="Fill-56" fill="#FFFFFF"></path>
                        <path d="M208.0885,118.515 L208.0885,120.806 C208.0885,123.219 206.1325,125.175 203.7195,125.175 C201.3065,125.175 199.3505,123.219 199.3505,120.806 L199.3505,118.515 C199.3505,116.102 201.3065,114.146 203.7195,114.146 C206.1325,114.146 208.0885,116.102 208.0885,118.515" id="Fill-58" fill="#FFFFFF"></path>
                        <g id="Group-62" transform="translate(0.000000, 121.000000)">
                            <mask id="mask-8" fill="white">
                                <use xlink:href="#path-7"></use>
                            </mask>
                            <g id="Clip-61"></g>
                            <path d="M272.9997,0.0741 L272.9997,128.5211 C272.8537,128.6841 272.7147,128.8421 272.5627,129.0001 L0.4367,129.0001 C0.2857,128.8421 0.1457,128.6841 -0.0003,128.5211 L-0.0003,0.0741 L272.9997,0.0741 Z" id="Fill-60" fill="#E27236" mask="url(#mask-8)"></path>
                        </g>
                        <polygon id="Fill-63" fill="#F8F6DE" points="260.7175 134.3559 260.7175 249.9999 12.2825 249.9999 12.2825 133.3559"></polygon>
                        <path d="M99.0983,116.5019 L99.0983,116.5019 C97.2213,116.5019 95.6983,118.0239 95.6983,119.9019 L95.6983,118.1569 C95.6983,116.2789 94.1763,114.7569 92.2993,114.7569 C90.4213,114.7569 88.8993,116.2789 88.8993,118.1569 L88.8993,119.9019 C88.8993,118.0239 87.3773,116.5019 85.4993,116.5019 C83.6223,116.5019 82.1003,118.0239 82.1003,119.9019 L82.1003,121.6469 C82.1003,119.7689 80.5773,118.2479 78.7003,118.2479 C76.8233,118.2479 75.3013,119.7689 75.3013,121.6469 L75.3013,129.8909 C75.3013,131.7679 76.8233,133.2899 78.7003,133.2899 C80.5773,133.2899 82.1003,131.7679 82.1003,129.8909 C82.1003,131.7679 83.6223,133.2899 85.4993,133.2899 C87.3773,133.2899 88.8993,131.7679 88.8993,129.8909 C88.8993,131.7679 90.4213,133.2899 92.2993,133.2899 C94.1763,133.2899 95.6983,131.7679 95.6983,129.8909 C95.6983,131.7679 97.2213,133.2899 99.0983,133.2899 C100.9753,133.2899 102.4973,131.7679 102.4973,129.8909 L102.4973,119.9019 C102.4973,118.0239 100.9753,116.5019 99.0983,116.5019" id="Fill-65" fill="#D0D2D3"></path>
                        <path d="M227.5173,118.2475 C225.6393,118.2475 224.1183,119.7685 224.1183,121.6465 L224.1183,119.9015 C224.1183,118.0235 222.5953,116.5015 220.7173,116.5015 C218.8403,116.5015 217.3183,118.0235 217.3183,119.9015 L217.3183,118.1565 C217.3183,116.2785 215.7963,114.7565 213.9183,114.7565 C212.0403,114.7565 210.5193,116.2785 210.5193,118.1565 L210.5193,119.9015 C210.5193,118.0235 208.9963,116.5015 207.1193,116.5015 C205.2423,116.5015 203.7193,118.0235 203.7193,119.9015 L203.7193,129.8915 C203.7193,131.7685 205.2423,133.2895 207.1193,133.2895 C208.9963,133.2895 210.5193,131.7685 210.5193,129.8915 C210.5193,131.7685 212.0403,133.2895 213.9183,133.2895 C215.7963,133.2895 217.3183,131.7685 217.3183,129.8915 C217.3183,131.7685 218.8403,133.2895 220.7173,133.2895 C222.5953,133.2895 224.1183,131.7685 224.1183,129.8915 C224.1183,131.7685 225.6393,133.2895 227.5173,133.2895 C229.3943,133.2895 230.9163,131.7685 230.9163,129.8915 L230.9163,121.6465 C230.9163,119.7685 229.3943,118.2475 227.5173,118.2475" id="Fill-67" fill="#D0D2D3"></path>
                        <path d="M99.0983,128.9272 L99.0983,128.9272 C100.9753,128.9272 102.4973,127.4052 102.4973,125.5282 L102.4973,115.5392 C102.4973,113.6612 100.9753,112.1392 99.0983,112.1392 C97.2213,112.1392 95.6983,113.6612 95.6983,115.5392 L95.6983,125.5282 C95.6983,127.4052 97.2213,128.9272 99.0983,128.9272" id="Fill-69" fill="#FFFFFF"></path>
                        <path d="M92.299,128.9272 L92.299,128.9272 C94.176,128.9272 95.698,127.4052 95.698,125.5282 L95.698,113.7932 C95.698,111.9162 94.176,110.3942 92.299,110.3942 C90.422,110.3942 88.899,111.9162 88.899,113.7932 L88.899,125.5282 C88.899,127.4052 90.422,128.9272 92.299,128.9272" id="Fill-71" fill="#FFFFFF"></path>
                        <path d="M85.4997,128.9272 L85.4997,128.9272 C87.3767,128.9272 88.8987,127.4052 88.8987,125.5282 L88.8987,115.5392 C88.8987,113.6612 87.3767,112.1392 85.4997,112.1392 C83.6227,112.1392 82.1007,113.6612 82.1007,115.5392 L82.1007,125.5282 C82.1007,127.4052 83.6227,128.9272 85.4997,128.9272" id="Fill-73" fill="#FFFFFF"></path>
                        <path d="M78.7004,128.9272 L78.7004,128.9272 C80.5774,128.9272 82.1004,127.4052 82.1004,125.5282 L82.1004,117.2842 C82.1004,115.4062 80.5774,113.8842 78.7004,113.8842 C76.8234,113.8842 75.3014,115.4062 75.3014,117.2842 L75.3014,125.5282 C75.3014,127.4052 76.8234,128.9272 78.7004,128.9272" id="Fill-75" fill="#FFFFFF"></path>
                        <path d="M207.1198,128.9272 L207.1188,128.9272 C205.2418,128.9272 203.7198,127.4052 203.7198,125.5282 L203.7198,115.5392 C203.7198,113.6612 205.2418,112.1392 207.1188,112.1392 L207.1198,112.1392 C208.9968,112.1392 210.5188,113.6612 210.5188,115.5392 L210.5188,125.5282 C210.5188,127.4052 208.9968,128.9272 207.1198,128.9272" id="Fill-77" fill="#FFFFFF"></path>
                        <path d="M213.9186,128.9272 L213.9186,128.9272 C212.0406,128.9272 210.5196,127.4052 210.5196,125.5282 L210.5196,113.7932 C210.5196,111.9162 212.0406,110.3942 213.9186,110.3942 C215.7966,110.3942 217.3176,111.9162 217.3176,113.7932 L217.3176,125.5282 C217.3176,127.4052 215.7966,128.9272 213.9186,128.9272" id="Fill-79" fill="#FFFFFF"></path>
                        <path d="M220.7175,128.9272 L220.7175,128.9272 C218.8405,128.9272 217.3185,127.4052 217.3185,125.5282 L217.3185,115.5392 C217.3185,113.6612 218.8405,112.1392 220.7175,112.1392 C222.5955,112.1392 224.1175,113.6612 224.1175,115.5392 L224.1175,125.5282 C224.1175,127.4052 222.5955,128.9272 220.7175,128.9272" id="Fill-81" fill="#FFFFFF"></path>
                        <path d="M227.5173,128.9272 L227.5173,128.9272 C225.6393,128.9272 224.1183,127.4052 224.1183,125.5282 L224.1183,117.2842 C224.1183,115.4062 225.6393,113.8842 227.5173,113.8842 C229.3953,113.8842 230.9163,115.4062 230.9163,117.2842 L230.9163,125.5282 C230.9163,127.4052 229.3953,128.9272 227.5173,128.9272" id="Fill-83" fill="#FFFFFF"></path>
                        <mask id="mask-10" fill="white">
                            <use xlink:href="#path-9"></use>
                        </mask>
                        <g id="Clip-86"></g>
                        <polygon id="Fill-85" fill="#E27236" mask="url(#mask-10)" points="0 250 273 250 273 237.719 0 237.719"></polygon>
                        <path d="M79.9557,41.976 L79.9557,85.789 C79.9557,87.726 79.1137,89.466 77.7737,90.666 C76.6177,91.7 75.0857,92.333 73.4107,92.333 L32.5057,92.333 C28.8927,92.333 25.9607,89.405 25.9607,85.789 L25.9607,41.976 C25.9607,38.363 28.8927,35.432 32.5057,35.432 L73.4107,35.432 C77.0237,35.432 79.9557,38.363 79.9557,41.976" id="Fill-87" fill="#E28F4C" mask="url(#mask-10)"></path>
                        <path d="M73.4108,89.4159 L32.5058,89.4159 C28.8908,89.4159 25.9608,86.4859 25.9608,82.8719 L25.9608,85.7899 C25.9608,89.4039 28.8908,92.3339 32.5058,92.3339 L73.4108,92.3339 C77.0248,92.3339 79.9558,89.4039 79.9558,85.7899 L79.9558,82.8719 C79.9558,86.4859 77.0248,89.4159 73.4108,89.4159" id="Fill-88" fill="#821F22" mask="url(#mask-10)"></path>
                        <path d="M36.905,41.9008 L36.483,41.9008 C35.268,41.9008 34.284,40.9168 34.284,39.7028 L34.284,31.1618 C34.284,29.9478 35.268,28.9638 36.483,28.9638 L36.905,28.9638 C38.119,28.9638 39.103,29.9478 39.103,31.1618 L39.103,39.7028 C39.103,40.9168 38.119,41.9008 36.905,41.9008" id="Fill-89" fill="#A00B0F" mask="url(#mask-10)"></path>
                        <path d="M47.7477,41.9008 L47.3257,41.9008 C46.1117,41.9008 45.1267,40.9168 45.1267,39.7028 L45.1267,31.1618 C45.1267,29.9478 46.1117,28.9638 47.3257,28.9638 L47.7477,28.9638 C48.9617,28.9638 49.9457,29.9478 49.9457,31.1618 L49.9457,39.7028 C49.9457,40.9168 48.9617,41.9008 47.7477,41.9008" id="Fill-90" fill="#A00B0F" mask="url(#mask-10)"></path>
                        <path d="M58.5905,41.9008 L58.1685,41.9008 C56.9545,41.9008 55.9695,40.9168 55.9695,39.7028 L55.9695,31.1618 C55.9695,29.9478 56.9545,28.9638 58.1685,28.9638 L58.5905,28.9638 C59.8045,28.9638 60.7895,29.9478 60.7895,31.1618 L60.7895,39.7028 C60.7895,40.9168 59.8045,41.9008 58.5905,41.9008" id="Fill-91" fill="#A00B0F" mask="url(#mask-10)"></path>
                        <path d="M69.4338,41.9008 L69.0118,41.9008 C67.7968,41.9008 66.8128,40.9168 66.8128,39.7028 L66.8128,31.1618 C66.8128,29.9478 67.7968,28.9638 69.0118,28.9638 L69.4338,28.9638 C70.6478,28.9638 71.6318,29.9478 71.6318,31.1618 L71.6318,39.7028 C71.6318,40.9168 70.6478,41.9008 69.4338,41.9008" id="Fill-92" fill="#A00B0F" mask="url(#mask-10)"></path>
                        <polygon id="Fill-93" fill="#0BA99A" mask="url(#mask-10)" points="33.491 56.708 43.85 56.708 43.85 46.349 33.491 46.349"></polygon>
                        <polygon id="Fill-94" fill="#FFFFFF" mask="url(#mask-10)" points="47.778 56.708 58.138 56.708 58.138 46.349 47.778 46.349"></polygon>
                        <polygon id="Fill-95" fill="#FFFFFF" mask="url(#mask-10)" points="62.065 56.708 72.425 56.708 72.425 46.349 62.065 46.349"></polygon>
                        <polygon id="Fill-96" fill="#FFFFFF" mask="url(#mask-10)" points="33.491 70.477 43.85 70.477 43.85 60.118 33.491 60.118"></polygon>
                        <polygon id="Fill-97" fill="#FFFFFF" mask="url(#mask-10)" points="47.778 70.477 58.138 70.477 58.138 60.118 47.778 60.118"></polygon>
                        <polygon id="Fill-98" fill="#FFFFFF" mask="url(#mask-10)" points="62.065 70.477 72.425 70.477 72.425 60.118 62.065 60.118"></polygon>
                        <polygon id="Fill-99" fill="#FFFFFF" mask="url(#mask-10)" points="33.491 84.246 43.85 84.246 43.85 73.887 33.491 73.887"></polygon>
                        <polygon id="Fill-100" fill="#0BA99A" mask="url(#mask-10)" points="47.778 84.246 58.138 84.246 58.138 73.887 47.778 73.887"></polygon>
                        <polygon id="Fill-101" fill="#FFFFFF" mask="url(#mask-10)" points="62.065 84.246 72.425 84.246 72.425 73.887 62.065 73.887"></polygon>
                        <path d="M79.9557,49.7416 L79.9557,85.7886 C79.9557,87.7256 79.1137,89.4666 77.7737,90.6666 C71.2427,86.4776 66.9177,79.1566 66.9177,70.8276 C66.9177,61.5956 72.2237,53.6076 79.9557,49.7416" id="Fill-102" fill="#974413" mask="url(#mask-10)"></path>
                        <path d="M109.9289,66.4633 C109.9289,77.2033 101.2209,85.9103 90.4799,85.9103 C79.7399,85.9103 71.0319,77.2033 71.0319,66.4633 C71.0319,55.7223 79.7399,47.0163 90.4799,47.0163 C101.2209,47.0163 109.9289,55.7223 109.9289,66.4633" id="Fill-103" fill="#672960" mask="url(#mask-10)"></path>
                        <path d="M96.3161,72.9267 C95.8681,72.9267 95.4161,72.7887 95.0271,72.5037 L89.1901,68.2217 C88.6301,67.8107 88.2991,67.1577 88.2991,66.4627 L88.2991,54.1657 C88.2991,52.9617 89.2751,51.9847 90.4811,51.9847 C91.6861,51.9847 92.6621,52.9617 92.6621,54.1657 L92.6621,65.3577 L97.6081,68.9867 C98.5801,69.6987 98.7891,71.0637 98.0761,72.0357 C97.6491,72.6177 96.9871,72.9267 96.3161,72.9267" id="Fill-104" fill="#FFFFFF" mask="url(#mask-10)"></path>
                    </g>
                    <path d="M49.2073282,174 L49.2073282,170.450391 L39.6706095,170.450391 L44.7131876,165.133594 C46.0944376,163.620312 47.0694376,162.294922 47.6381876,161.157422 C48.2069376,160.019922 48.4913126,158.902734 48.4913126,157.805859 C48.4913126,155.805078 47.859086,154.25625 46.5946329,153.159375 C45.3301798,152.0625 43.5553751,151.514062 41.2702188,151.514062 C39.7772501,151.514062 38.4417032,151.831445 37.2635782,152.466211 C36.0854532,153.100977 35.1739298,153.976953 34.5290079,155.094141 C33.884086,156.211328 33.5616251,157.445312 33.5616251,158.796094 L33.5616251,158.796094 L37.9795938,158.796094 C37.9795938,157.678906 38.2665079,156.777539 38.840336,156.091992 C39.4141642,155.406445 40.1987345,155.063672 41.194047,155.063672 C42.1182657,155.063672 42.8292032,155.345508 43.3268595,155.90918 C43.8245157,156.472852 44.0733438,157.247266 44.0733438,158.232422 C44.0733438,158.953516 43.837211,159.715234 43.3649454,160.517578 C42.8926798,161.319922 42.1639688,162.259375 41.1788126,163.335938 L41.1788126,163.335938 L34.003422,170.983594 L34.003422,174 L49.2073282,174 Z M60.7054219,174.304688 C63.1530782,174.304688 65.0116719,173.492188 66.2812032,171.867188 C67.5507344,170.242188 68.1855,167.896094 68.1855,164.828906 L68.1855,164.828906 L68.1855,160.746094 C68.1550313,157.770313 67.4999532,155.487695 66.2202657,153.898242 C64.9405782,152.308789 63.0921407,151.514062 60.6749532,151.514062 C58.2577657,151.514062 56.4067891,152.316406 55.1220235,153.921094 C53.8372579,155.525781 53.194875,157.876953 53.194875,160.974609 L53.194875,160.974609 L53.194875,165.057422 C53.2253438,168.033203 53.8804219,170.318359 55.1601094,171.912891 C56.4397969,173.507422 58.2882344,174.304688 60.7054219,174.304688 Z M60.7054219,170.755078 C59.6187032,170.755078 58.8290547,170.31582 58.3364766,169.437305 C57.8438985,168.558789 57.5976094,167.215625 57.5976094,165.407813 L57.5976094,165.407813 L57.5976094,160.014844 C57.6280782,158.31875 57.8896016,157.07207 58.3821797,156.274805 C58.8747579,155.477539 59.6390157,155.078906 60.6749532,155.078906 C61.7413594,155.078906 62.5259297,155.497852 63.0286641,156.335742 C63.5313985,157.173633 63.7827657,158.511719 63.7827657,160.35 L63.7827657,160.35 L63.7827657,165.621094 C63.7624532,167.357812 63.513625,168.647656 63.0362813,169.490625 C62.5589375,170.333594 61.7819844,170.755078 60.7054219,170.755078 Z M87.7121094,174 L87.7121094,170.450391 L78.1753906,170.450391 L83.2179687,165.133594 C84.5992188,163.620312 85.5742188,162.294922 86.1429687,161.157422 C86.7117187,160.019922 86.9960938,158.902734 86.9960938,157.805859 C86.9960938,155.805078 86.3638672,154.25625 85.0994141,153.159375 C83.8349609,152.0625 82.0601563,151.514062 79.775,151.514062 C78.2820312,151.514062 76.9464844,151.831445 75.7683594,152.466211 C74.5902344,153.100977 73.6787109,153.976953 73.0337891,155.094141 C72.3888672,156.211328 72.0664062,157.445312 72.0664062,158.796094 L72.0664062,158.796094 L76.484375,158.796094 C76.484375,157.678906 76.7712891,156.777539 77.3451172,156.091992 C77.9189453,155.406445 78.7035156,155.063672 79.6988281,155.063672 C80.6230469,155.063672 81.3339844,155.345508 81.8316406,155.90918 C82.3292969,156.472852 82.578125,157.247266 82.578125,158.232422 C82.578125,158.953516 82.3419922,159.715234 81.8697266,160.517578 C81.3974609,161.319922 80.66875,162.259375 79.6835938,163.335938 L79.6835938,163.335938 L72.5082031,170.983594 L72.5082031,174 L87.7121094,174 Z M99.2102031,174.304688 C101.657859,174.304688 103.516453,173.492188 104.785984,171.867188 C106.055516,170.242188 106.690281,167.896094 106.690281,164.828906 L106.690281,164.828906 L106.690281,160.746094 C106.659812,157.770313 106.004734,155.487695 104.725047,153.898242 C103.445359,152.308789 101.596922,151.514062 99.1797343,151.514062 C96.7625468,151.514062 94.9115703,152.316406 93.6268046,153.921094 C92.342039,155.525781 91.6996562,157.876953 91.6996562,160.974609 L91.6996562,160.974609 L91.6996562,165.057422 C91.730125,168.033203 92.3852031,170.318359 93.6648906,171.912891 C94.9445781,173.507422 96.7930156,174.304688 99.2102031,174.304688 Z M99.2102031,170.755078 C98.1234843,170.755078 97.3338359,170.31582 96.8412578,169.437305 C96.3486796,168.558789 96.1023906,167.215625 96.1023906,165.407813 L96.1023906,165.407813 L96.1023906,160.014844 C96.1328593,158.31875 96.3943828,157.07207 96.8869609,156.274805 C97.379539,155.477539 98.1437968,155.078906 99.1797343,155.078906 C100.246141,155.078906 101.030711,155.497852 101.533445,156.335742 C102.03618,157.173633 102.287547,158.511719 102.287547,160.35 L102.287547,160.35 L102.287547,165.621094 C102.267234,167.357812 102.018406,168.647656 101.541062,169.490625 C101.063719,170.333594 100.286766,170.755078 99.2102031,170.755078 Z" id="2020" fill="#0E6DA0" fill-rule="nonzero"></path>
                    <path d="M137.7365,209.287109 C139.229469,209.287109 140.448219,208.698047 141.39275,207.519922 C142.337281,206.341797 142.809547,204.808203 142.809547,202.919141 L142.809547,202.919141 L139.549391,202.903906 C139.549391,203.675781 139.358961,204.330859 138.978102,204.869141 C138.597242,205.407422 138.107203,205.676562 137.507984,205.676562 C136.827516,205.676562 136.073414,205.283008 135.24568,204.495898 C134.417945,203.708789 133.679078,203.162891 133.029078,202.858203 C132.379078,202.553516 131.657984,202.401172 130.865797,202.401172 C129.342359,202.401172 128.12107,202.975 127.20193,204.122656 C126.282789,205.270312 125.823219,206.788672 125.823219,208.677734 L125.823219,208.677734 L129.098609,208.708203 C129.098609,207.916016 129.281422,207.266016 129.647047,206.758203 C130.012672,206.250391 130.490016,205.996484 131.079078,205.996484 C131.790016,205.996484 132.566969,206.400195 133.409938,207.207617 C134.252906,208.015039 134.996852,208.563477 135.641773,208.85293 C136.286695,209.142383 136.984938,209.287109 137.7365,209.287109 Z" id="~" fill="#AE4848" fill-rule="nonzero"></path>
                    <path d="M36.7894337,218 L47.5106251,193.358398 L47.5106251,190.273438 L27.9344532,190.273438 L27.9344532,194.729492 L41.7215626,194.729492 L30.9813282,218 L36.7894337,218 Z M54.6850001,220.380371 L64.8920313,190.273438 L60.797793,190.273438 L50.5907618,220.380371 L54.6850001,220.380371 Z M82.3496094,218 L82.3496094,190.235352 L81.7592773,190.235352 L70.2763672,194.348633 L70.2763672,198.82373 L76.8461914,196.786133 L76.8461914,218 L82.3496094,218 Z M102.549375,218.380859 C104.466367,218.380859 106.129453,217.990479 107.538633,217.209717 C108.947812,216.428955 110.030088,215.330811 110.785459,213.915283 C111.54083,212.499756 111.918516,210.896973 111.918516,209.106934 C111.918516,206.161621 111.169492,203.870117 109.671445,202.232422 C108.173398,200.594727 106.104062,199.775879 103.463437,199.775879 C101.990781,199.775879 100.600644,200.125 99.2930273,200.823242 L99.2930273,200.823242 L99.9785742,194.862793 L111.004453,194.862793 L111.004453,190.273438 L95.4653906,190.273438 L93.8657812,204.365234 L98.245664,205.450684 L98.7788671,204.955566 C99.5913671,204.27002 100.651426,203.927246 101.959043,203.927246 C103.380918,203.927246 104.479062,204.346191 105.253477,205.184082 C106.027891,206.021973 106.415098,207.228027 106.415098,208.802246 C106.415098,210.439941 106.078672,211.706299 105.40582,212.601318 C104.732969,213.496338 103.774473,213.943848 102.530332,213.943848 C101.413144,213.943848 100.508603,213.623291 99.8167089,212.982178 C99.1248144,212.341064 98.7217382,211.442871 98.6074804,210.287598 L98.6074804,210.287598 L93.1611913,210.287598 C93.2119726,211.861816 93.6531347,213.264648 94.4846777,214.496094 C95.3162206,215.727539 96.4492773,216.682861 97.8838476,217.362061 C99.3184179,218.04126 100.873594,218.380859 102.549375,218.380859 Z" id="7/15" fill="#AE4848" fill-rule="nonzero"></path>
                    <path d="M164.218506,218 L164.218506,190.235352 L163.628174,190.235352 L152.145264,194.348633 L152.145264,198.82373 L158.715088,196.786133 L158.715088,218 L164.218506,218 Z M192.230713,218 L192.230713,213.562988 L180.309814,213.562988 L186.613037,206.916992 C188.3396,205.025391 189.55835,203.368652 190.269287,201.946777 C190.980225,200.524902 191.335693,199.128418 191.335693,197.757324 C191.335693,195.256348 190.54541,193.320312 188.964844,191.949219 C187.384277,190.578125 185.165771,189.892578 182.309326,189.892578 C180.443115,189.892578 178.773682,190.289307 177.301025,191.082764 C175.828369,191.876221 174.688965,192.971191 173.882812,194.367676 C173.07666,195.76416 172.673584,197.306641 172.673584,198.995117 L172.673584,198.995117 L178.196045,198.995117 C178.196045,197.598633 178.554688,196.471924 179.271973,195.61499 C179.989258,194.758057 180.969971,194.32959 182.214111,194.32959 C183.369385,194.32959 184.258057,194.681885 184.880127,195.386475 C185.502197,196.091064 185.813232,197.059082 185.813232,198.290527 C185.813232,199.191895 185.518066,200.144043 184.927734,201.146973 C184.337402,202.149902 183.426514,203.324219 182.195068,204.669922 L182.195068,204.669922 L173.22583,214.229492 L173.22583,218 L192.230713,218 Z M197.562744,220.380371 L207.769775,190.273438 L203.675537,190.273438 L193.468506,220.380371 L197.562744,220.380371 Z M218.928955,218.380859 C221.886963,218.380859 224.26416,217.638184 226.060547,216.152832 C227.856934,214.66748 228.755127,212.693359 228.755127,210.230469 C228.755127,208.707031 228.371094,207.386719 227.603027,206.269531 C226.834961,205.152344 225.670166,204.314453 224.108643,203.755859 C225.365479,203.18457 226.381104,202.365723 227.155518,201.299316 C227.929932,200.23291 228.317139,199.064941 228.317139,197.79541 C228.317139,195.33252 227.485596,193.399658 225.82251,191.996826 C224.159424,190.593994 221.861572,189.892578 218.928955,189.892578 C217.240479,189.892578 215.694824,190.216309 214.291992,190.86377 C212.88916,191.51123 211.797363,192.409424 211.016602,193.55835 C210.23584,194.707275 209.845459,196.005371 209.845459,197.452637 L209.845459,197.452637 L215.348877,197.452637 C215.348877,196.525879 215.704346,195.773682 216.415283,195.196045 C217.126221,194.618408 218.008545,194.32959 219.062256,194.32959 C220.230225,194.32959 221.147461,194.640625 221.813965,195.262695 C222.480469,195.884766 222.813721,196.754395 222.813721,197.871582 C222.813721,199.026855 222.477295,199.953613 221.804443,200.651855 C221.131592,201.350098 220.096924,201.699219 218.700439,201.699219 L218.700439,201.699219 L215.767822,201.699219 L215.767822,206.00293 L218.681396,206.00293 C221.728271,206.00293 223.251709,207.386719 223.251709,210.154297 C223.251709,211.296875 222.880371,212.214111 222.137695,212.906006 C221.39502,213.5979 220.369873,213.943848 219.062256,213.943848 C217.919678,213.943848 216.958008,213.61377 216.177246,212.953613 C215.396484,212.293457 215.006104,211.442871 215.006104,210.401855 L215.006104,210.401855 L209.502686,210.401855 C209.502686,212.80127 210.381836,214.730957 212.140137,216.190918 C213.898438,217.650879 216.161377,218.380859 218.928955,218.380859 Z M245.912842,218 L245.912842,190.235352 L245.32251,190.235352 L233.8396,194.348633 L233.8396,198.82373 L240.409424,196.786133 L240.409424,218 L245.912842,218 Z" id="12/31" fill="#AE4848" fill-rule="nonzero"></path>
                    <path d="M179.207328,174 L179.207328,170.450391 L169.670609,170.450391 L174.713188,165.133594 C176.094438,163.620312 177.069438,162.294922 177.638188,161.157422 C178.206938,160.019922 178.491313,158.902734 178.491313,157.805859 C178.491313,155.805078 177.859086,154.25625 176.594633,153.159375 C175.33018,152.0625 173.555375,151.514062 171.270219,151.514062 C169.77725,151.514062 168.441703,151.831445 167.263578,152.466211 C166.085453,153.100977 165.17393,153.976953 164.529008,155.094141 C163.884086,156.211328 163.561625,157.445312 163.561625,158.796094 L163.561625,158.796094 L167.979594,158.796094 C167.979594,157.678906 168.266508,156.777539 168.840336,156.091992 C169.414164,155.406445 170.198734,155.063672 171.194047,155.063672 C172.118266,155.063672 172.829203,155.345508 173.326859,155.90918 C173.824516,156.472852 174.073344,157.247266 174.073344,158.232422 C174.073344,158.953516 173.837211,159.715234 173.364945,160.517578 C172.89268,161.319922 172.163969,162.259375 171.178813,163.335938 L171.178813,163.335938 L164.003422,170.983594 L164.003422,174 L179.207328,174 Z M190.705422,174.304688 C193.153078,174.304688 195.011672,173.492188 196.281203,171.867188 C197.550734,170.242188 198.1855,167.896094 198.1855,164.828906 L198.1855,164.828906 L198.1855,160.746094 C198.155031,157.770313 197.499953,155.487695 196.220266,153.898242 C194.940578,152.308789 193.092141,151.514062 190.674953,151.514062 C188.257766,151.514062 186.406789,152.316406 185.122023,153.921094 C183.837258,155.525781 183.194875,157.876953 183.194875,160.974609 L183.194875,160.974609 L183.194875,165.057422 C183.225344,168.033203 183.880422,170.318359 185.160109,171.912891 C186.439797,173.507422 188.288234,174.304688 190.705422,174.304688 Z M190.705422,170.755078 C189.618703,170.755078 188.829055,170.31582 188.336477,169.437305 C187.843898,168.558789 187.597609,167.215625 187.597609,165.407813 L187.597609,165.407813 L187.597609,160.014844 C187.628078,158.31875 187.889602,157.07207 188.38218,156.274805 C188.874758,155.477539 189.639016,155.078906 190.674953,155.078906 C191.741359,155.078906 192.52593,155.497852 193.028664,156.335742 C193.531398,157.173633 193.782766,158.511719 193.782766,160.35 L193.782766,160.35 L193.782766,165.621094 C193.762453,167.357812 193.513625,168.647656 193.036281,169.490625 C192.558938,170.333594 191.781984,170.755078 190.705422,170.755078 Z M217.712109,174 L217.712109,170.450391 L208.175391,170.450391 L213.217969,165.133594 C214.599219,163.620312 215.574219,162.294922 216.142969,161.157422 C216.711719,160.019922 216.996094,158.902734 216.996094,157.805859 C216.996094,155.805078 216.363867,154.25625 215.099414,153.159375 C213.834961,152.0625 212.060156,151.514062 209.775,151.514062 C208.282031,151.514062 206.946484,151.831445 205.768359,152.466211 C204.590234,153.100977 203.678711,153.976953 203.033789,155.094141 C202.388867,156.211328 202.066406,157.445312 202.066406,158.796094 L202.066406,158.796094 L206.484375,158.796094 C206.484375,157.678906 206.771289,156.777539 207.345117,156.091992 C207.918945,155.406445 208.703516,155.063672 209.698828,155.063672 C210.623047,155.063672 211.333984,155.345508 211.831641,155.90918 C212.329297,156.472852 212.578125,157.247266 212.578125,158.232422 C212.578125,158.953516 212.341992,159.715234 211.869727,160.517578 C211.397461,161.319922 210.66875,162.259375 209.683594,163.335938 L209.683594,163.335938 L202.508203,170.983594 L202.508203,174 L217.712109,174 Z M229.210203,174.304688 C231.657859,174.304688 233.516453,173.492188 234.785984,171.867188 C236.055516,170.242188 236.690281,167.896094 236.690281,164.828906 L236.690281,164.828906 L236.690281,160.746094 C236.659812,157.770313 236.004734,155.487695 234.725047,153.898242 C233.445359,152.308789 231.596922,151.514062 229.179734,151.514062 C226.762547,151.514062 224.91157,152.316406 223.626805,153.921094 C222.342039,155.525781 221.699656,157.876953 221.699656,160.974609 L221.699656,160.974609 L221.699656,165.057422 C221.730125,168.033203 222.385203,170.318359 223.664891,171.912891 C224.944578,173.507422 226.793016,174.304688 229.210203,174.304688 Z M229.210203,170.755078 C228.123484,170.755078 227.333836,170.31582 226.841258,169.437305 C226.34868,168.558789 226.102391,167.215625 226.102391,165.407813 L226.102391,165.407813 L226.102391,160.014844 C226.132859,158.31875 226.394383,157.07207 226.886961,156.274805 C227.379539,155.477539 228.143797,155.078906 229.179734,155.078906 C230.246141,155.078906 231.030711,155.497852 231.533445,156.335742 C232.03618,157.173633 232.287547,158.511719 232.287547,160.35 L232.287547,160.35 L232.287547,165.621094 C232.267234,167.357812 232.018406,168.647656 231.541062,169.490625 C231.063719,170.333594 230.286766,170.755078 229.210203,170.755078 Z" id="2020" fill="#0E6DA0" fill-rule="nonzero"></path>
                </g>
                <g id="Group-11" transform="translate(211.000000, 0.000000)">
                    <g id="Group-10" transform="translate(106.500000, 48.500000) scale(1, -1) translate(-106.500000, -48.500000) ">
                        <polygon id="Fill-255" fill="#FFFFFF" points="11.2132 34.727 11.2132 4.61852778e-14 46.2422 34.727"></polygon>
                        <g id="Group-259" transform="translate(0.000000, 22.789600)">
                            <mask id="mask-12" fill="white">
                                <use xlink:href="#path-11"></use>
                            </mask>
                            <g id="Clip-258"></g>
                            <path d="M196.575137,73.2104 L16.4248626,73.2104 C7.35358745,73.2104 0,67.1182395 0,59.6016479 L0,13.8177583 C0,6.30256053 7.35358745,0.2104 16.4248626,0.2104 L196.575137,0.2104 C205.646413,0.2104 213,6.30256053 213,13.8177583 L213,59.6016479 C213,67.1182395 205.646413,73.2104 196.575137,73.2104" id="Fill-257" fill="#FFFFFF" mask="url(#mask-12)"></path>
                        </g>
                    </g>
                    <path d="M63.3183594,30 L63.3183594,27.7246094 L57.2050781,27.7246094 L60.4375,24.3164062 C61.3229167,23.3463542 61.9479167,22.4967448 62.3125,21.7675781 C62.6770833,21.0384115 62.859375,20.3222656 62.859375,19.6191406 C62.859375,18.3365885 62.4541016,17.34375 61.6435547,16.640625 C60.8330078,15.9375 59.6953125,15.5859375 58.2304688,15.5859375 C57.2734375,15.5859375 56.4173177,15.789388 55.6621094,16.1962891 C54.906901,16.6031901 54.3225911,17.1647135 53.9091797,17.8808594 C53.4957682,18.5970052 53.2890625,19.3880208 53.2890625,20.2539062 L53.2890625,20.2539062 L56.1210938,20.2539062 C56.1210938,19.5377604 56.305013,18.9599609 56.6728516,18.5205078 C57.0406901,18.0810547 57.5436198,17.8613281 58.1816406,17.8613281 C58.7740885,17.8613281 59.2298177,18.0419922 59.5488281,18.4033203 C59.8678385,18.7646484 60.0273438,19.2610677 60.0273438,19.8925781 C60.0273438,20.3548177 59.8759766,20.843099 59.5732422,21.3574219 C59.2705078,21.8717448 58.8033854,22.4739583 58.171875,23.1640625 L58.171875,23.1640625 L53.5722656,28.0664062 L53.5722656,30 L63.3183594,30 Z M72.8222656,30.1953125 C74.391276,30.1953125 75.5826823,29.6744792 76.3964844,28.6328125 C77.2102865,27.5911458 77.6171875,26.0872396 77.6171875,24.1210938 L77.6171875,24.1210938 L77.6171875,21.5039062 C77.5976562,19.5963542 77.1777344,18.133138 76.3574219,17.1142578 C75.5371094,16.0953776 74.3522135,15.5859375 72.8027344,15.5859375 C71.2532552,15.5859375 70.0667318,16.1002604 69.2431641,17.1289062 C68.4195964,18.1575521 68.0078125,19.6647135 68.0078125,21.6503906 L68.0078125,21.6503906 L68.0078125,24.2675781 C68.0273438,26.1751302 68.4472656,27.639974 69.2675781,28.6621094 C70.0878906,29.6842448 71.2727865,30.1953125 72.8222656,30.1953125 Z M72.8222656,27.9199219 C72.125651,27.9199219 71.6194661,27.6383464 71.3037109,27.0751953 C70.9879557,26.5120443 70.8300781,25.6510417 70.8300781,24.4921875 L70.8300781,24.4921875 L70.8300781,21.0351562 C70.8496094,19.9479167 71.0172526,19.148763 71.3330078,18.6376953 C71.648763,18.1266276 72.1386719,17.8710938 72.8027344,17.8710938 C73.4863281,17.8710938 73.9892578,18.1396484 74.3115234,18.6767578 C74.6337891,19.2138672 74.7949219,20.0716146 74.7949219,21.25 L74.7949219,21.25 L74.7949219,24.6289062 C74.781901,25.7421875 74.6223958,26.5690104 74.3164062,27.109375 C74.0104167,27.6497396 73.5123698,27.9199219 72.8222656,27.9199219 Z M92.2675781,30 L92.2675781,27.7246094 L86.1542969,27.7246094 L89.3867188,24.3164062 C90.2721354,23.3463542 90.8971354,22.4967448 91.2617188,21.7675781 C91.6263021,21.0384115 91.8085938,20.3222656 91.8085938,19.6191406 C91.8085938,18.3365885 91.4033203,17.34375 90.5927734,16.640625 C89.7822266,15.9375 88.6445312,15.5859375 87.1796875,15.5859375 C86.2226562,15.5859375 85.3665365,15.789388 84.6113281,16.1962891 C83.8561198,16.6031901 83.2718099,17.1647135 82.8583984,17.8808594 C82.444987,18.5970052 82.2382812,19.3880208 82.2382812,20.2539062 L82.2382812,20.2539062 L85.0703125,20.2539062 C85.0703125,19.5377604 85.2542318,18.9599609 85.6220703,18.5205078 C85.9899089,18.0810547 86.4928385,17.8613281 87.1308594,17.8613281 C87.7233073,17.8613281 88.1790365,18.0419922 88.4980469,18.4033203 C88.8170573,18.7646484 88.9765625,19.2610677 88.9765625,19.8925781 C88.9765625,20.3548177 88.8251953,20.843099 88.5224609,21.3574219 C88.2197266,21.8717448 87.7526042,22.4739583 87.1210938,23.1640625 L87.1210938,23.1640625 L82.5214844,28.0664062 L82.5214844,30 L92.2675781,30 Z M101.771484,30.1953125 C103.340495,30.1953125 104.531901,29.6744792 105.345703,28.6328125 C106.159505,27.5911458 106.566406,26.0872396 106.566406,24.1210938 L106.566406,24.1210938 L106.566406,21.5039062 C106.546875,19.5963542 106.126953,18.133138 105.306641,17.1142578 C104.486328,16.0953776 103.301432,15.5859375 101.751953,15.5859375 C100.202474,15.5859375 99.0159505,16.1002604 98.1923828,17.1289062 C97.3688151,18.1575521 96.9570312,19.6647135 96.9570312,21.6503906 L96.9570312,21.6503906 L96.9570312,24.2675781 C96.9765625,26.1751302 97.3964844,27.639974 98.2167969,28.6621094 C99.0371094,29.6842448 100.222005,30.1953125 101.771484,30.1953125 Z M101.771484,27.9199219 C101.07487,27.9199219 100.568685,27.6383464 100.25293,27.0751953 C99.9371745,26.5120443 99.7792969,25.6510417 99.7792969,24.4921875 L99.7792969,24.4921875 L99.7792969,21.0351562 C99.7988281,19.9479167 99.9664714,19.148763 100.282227,18.6376953 C100.597982,18.1266276 101.087891,17.8710938 101.751953,17.8710938 C102.435547,17.8710938 102.938477,18.1396484 103.260742,18.6767578 C103.583008,19.2138672 103.744141,20.0716146 103.744141,21.25 L103.744141,21.25 L103.744141,24.6289062 C103.73112,25.7421875 103.571615,26.5690104 103.265625,27.109375 C102.959635,27.6497396 102.461589,27.9199219 101.771484,27.9199219 Z M112.476562,31.2207031 L117.710938,15.78125 L115.611328,15.78125 L110.376953,31.2207031 L112.476562,31.2207031 Z M126.111328,30 L131.609375,17.3632812 L131.609375,15.78125 L121.570312,15.78125 L121.570312,18.0664062 L128.640625,18.0664062 L123.132812,30 L126.111328,30 Z M137.421875,31.2207031 L142.65625,15.78125 L140.556641,15.78125 L135.322266,31.2207031 L137.421875,31.2207031 Z M153.742188,30 L153.742188,15.7617188 L153.439453,15.7617188 L147.550781,17.8710938 L147.550781,20.1660156 L150.919922,19.1210938 L150.919922,30 L153.742188,30 Z M29.56,57.92 L29.56,46.7 L35.38,46.7 L35.38,40.04 L27.48,40.04 L27.48,57.92 L29.56,57.92 Z M42.38,57.84 C43.78,57.84 44.5,57.08 44.5,55.6 L44.5,40.04 L36.48,40.04 L36.48,46.66 L42.42,46.66 L42.42,54.98 C42.42,55.66 42.16,56.02 41.64,56.02 C41.08,56.02 40.46,55.98 39.78,55.92 L40.28,57.76 C40.98,57.8 41.68,57.84 42.38,57.84 Z M33.34,42.7 L29.56,42.7 L29.56,41.64 L33.34,41.64 L33.34,42.7 Z M42.42,42.7 L38.52,42.7 L38.52,41.68 L42.42,41.68 L42.42,42.7 Z M33.34,45.08 L29.56,45.08 L29.56,44.1 L33.34,44.1 L33.34,45.08 Z M42.42,45.06 L38.52,45.06 L38.52,44.1 L42.42,44.1 L42.42,45.06 Z M31.46,57.88 C32.6,57.36 33.42,56.6 33.92,55.64 C34.28,54.94 34.52,54.08 34.66,53.06 L37.16,53.06 L37.16,57.52 L39.06,57.52 L39.06,53.06 L41.38,53.06 L41.38,51.26 L39.06,51.26 L39.06,49.52 L40.76,49.52 L40.76,47.76 L31.02,47.76 L31.02,49.52 L32.92,49.52 L32.92,51.26 L30.5,51.26 L30.5,53.06 L32.76,53.06 C32.66,53.58 32.52,54.04 32.36,54.44 C32.02,55.16 31.38,55.76 30.44,56.24 L31.46,57.88 Z M37.16,51.26 L34.78,51.26 L34.78,49.52 L37.16,49.52 L37.16,51.26 Z M51.12,58.22 C52.2,57.2 53.12,56.02 53.88,54.66 C54.52,55.38 55.08,56.06 55.56,56.7 L56.94,55.06 C56.38,54.34 55.68,53.52 54.84,52.62 C55.74,50.26 56.24,47.5 56.34,44.32 L56.34,43.18 L53.54,43.18 C53.7,42.08 53.86,40.9 54.02,39.62 L51.98,39.42 C51.82,40.7 51.66,41.96 51.46,43.18 L49.8,43.18 L49.8,45.16 L51.14,45.16 C50.78,47.12 50.36,48.94 49.92,50.62 C50.84,51.5 51.68,52.34 52.46,53.14 C51.76,54.46 50.88,55.6 49.8,56.56 L51.12,58.22 Z M66.16,48.48 L68.08,47.54 C67.18,45.44 66.24,43.52 65.24,41.8 L63.46,42.66 C63.92,43.48 64.36,44.36 64.8,45.3 C63.1,45.56 61.36,45.76 59.56,45.88 C60.64,44.32 61.7,42.42 62.74,40.2 L60.74,39.52 C58.96,43.64 57.6,45.8 56.68,46 L57.02,47.88 C60.16,47.68 63.02,47.42 65.58,47.06 C65.76,47.5 65.96,47.96 66.16,48.48 Z M53.34,51.1 C52.98,50.74 52.58,50.36 52.18,49.98 C52.54,48.68 52.88,47.08 53.22,45.16 L54.42,45.16 C54.3,47.36 53.94,49.34 53.34,51.1 Z M59.64,58.1 L59.64,57.02 L64.84,57.02 L64.84,58.1 L66.84,58.1 L66.84,49.22 L57.66,49.22 L57.66,58.1 L59.64,58.1 Z M64.84,55.06 L59.64,55.06 L59.64,51.12 L64.84,51.12 L64.84,55.06 Z M81.5,58.08 C83.04,57.28 84.34,56.36 85.38,55.32 L84.2,54.28 L87.86,54.28 L86.76,55.34 C88.2,56.26 89.3,57.14 90.06,57.96 L91.4,56.62 C90.52,55.84 89.44,55.06 88.16,54.28 L90.32,54.28 L90.32,43.24 L86.58,43.24 C86.72,42.84 86.84,42.44 86.96,42.04 L91,42.04 L91,40.2 L80.98,40.2 L80.98,42.04 L84.9,42.04 C84.8,42.44 84.68,42.84 84.52,43.24 L81.7,43.24 L81.7,54.28 L83.92,54.28 C82.96,55.16 81.78,55.92 80.36,56.6 L81.5,58.08 Z M75.68,57.98 C76.84,57.98 77.44,57.34 77.44,56.08 L77.44,48.32 L79,48.32 C78.78,49.24 78.52,50.02 78.22,50.68 L79.86,51.34 C80.26,50.46 80.62,49.24 80.92,47.66 L80.92,46.4 L78.2,46.4 C78,46.12 77.76,45.82 77.48,45.5 C78.4,44.48 79.28,43.24 80.12,41.76 L80.12,40.2 L73.36,40.2 L73.36,42.04 L77.98,42.04 C77.46,42.84 76.92,43.58 76.34,44.24 C75.92,43.8 75.46,43.32 74.94,42.84 L73.42,43.8 C74.38,44.72 75.24,45.58 75.96,46.4 L72.7,46.4 L72.7,48.32 L75.46,48.32 L75.46,55.58 C75.46,56 75.3,56.22 75,56.22 C74.46,56.22 73.9,56.18 73.3,56.1 L73.72,57.98 L75.68,57.98 Z M88.34,46.34 L83.66,46.34 L83.66,44.92 L88.34,44.92 L88.34,46.34 Z M88.34,49.44 L83.66,49.44 L83.66,47.94 L88.34,47.94 L88.34,49.44 Z M88.34,52.6 L83.66,52.6 L83.66,51.04 L88.34,51.04 L88.34,52.6 Z M105.4,58.02 L105.4,54.98 L111.32,54.98 L111.32,56.02 C111.32,56.26 111.14,56.38 110.8,56.38 L109.34,56.3 L109.76,58 L111.34,58 C112.58,58 113.2,57.46 113.2,56.42 L113.2,54.98 L114.2,54.98 L114.2,53.3 L113.2,53.3 L113.2,48.36 L109.3,48.36 L109.3,47.5 L114.14,47.5 L114.14,45.9 L111.56,45.9 L111.56,44.96 L113.36,44.96 L113.36,43.42 L111.56,43.42 L111.56,42.5 L113.74,42.5 L113.74,40.9 L111.56,40.9 L111.56,39.6 L109.64,39.6 L109.64,40.9 L107.12,40.9 L107.12,39.6 L105.22,39.6 L105.22,40.9 L103.02,40.9 L103.02,42.5 L105.22,42.5 L105.22,43.42 L103.42,43.42 L103.42,44.96 L105.22,44.96 L105.22,45.9 L102.62,45.9 L102.62,47.5 L107.38,47.5 L107.38,48.36 L103.52,48.36 L103.52,53.3 L102.42,53.3 L102.42,54.98 L103.52,54.98 L103.52,58.02 L105.4,58.02 Z M102.12,52.78 L102.12,40.2 L96.36,40.2 L96.36,52.78 L102.12,52.78 Z M100.26,43.72 L98.24,43.72 L98.24,41.92 L100.26,41.92 L100.26,43.72 Z M109.64,43.42 L107.12,43.42 L107.12,42.5 L109.64,42.5 L109.64,43.42 Z M109.64,45.9 L107.12,45.9 L107.12,44.96 L109.64,44.96 L109.64,45.9 Z M100.26,47.32 L98.24,47.32 L98.24,45.36 L100.26,45.36 L100.26,47.32 Z M100.26,51.06 L98.24,51.06 L98.24,48.96 L100.26,48.96 L100.26,51.06 Z M111.32,50.9 L109.3,50.9 L109.3,49.88 L111.32,49.88 L111.32,50.9 Z M107.38,50.9 L105.4,50.9 L105.4,49.88 L107.38,49.88 L107.38,50.9 Z M107.38,53.3 L105.4,53.3 L105.4,52.26 L107.38,52.26 L107.38,53.3 Z M111.32,53.3 L109.3,53.3 L109.3,52.26 L111.32,52.26 L111.32,53.3 Z M101.28,57.54 L102.78,56.52 C102.34,55.54 101.74,54.4 100.96,53.12 L99.52,54.02 C100.26,55.3 100.84,56.48 101.28,57.54 Z M97.26,57.84 C97.94,56.56 98.5,55.26 98.94,53.94 L97.38,53.18 C96.96,54.44 96.38,55.72 95.66,57.02 L97.26,57.84 Z M127.8,58.2 C129.04,57.44 130.2,56.48 131.24,55.28 C131.4,55.56 131.58,55.82 131.78,56.08 C132.74,57.36 133.74,58 134.82,58.02 C135.9,58.02 136.72,56.62 137.28,53.84 L135.5,52.66 C135.24,54.7 134.94,55.72 134.58,55.72 C134.08,55.72 133.52,55.22 132.92,54.26 C132.8,54.04 132.68,53.82 132.56,53.58 C133.9,51.58 135.04,49.12 135.96,46.18 L134.12,45.2 C133.46,47.42 132.66,49.36 131.7,51.04 C131.6,50.64 131.52,50.24 131.44,49.8 C131.14,48.12 130.98,46.16 130.94,43.96 L136.96,43.96 L136.96,41.92 L135.12,41.92 C134.84,41.2 134.54,40.54 134.24,39.96 L132.14,40.3 C132.48,40.8 132.8,41.34 133.08,41.92 L130.92,41.92 L130.92,39.58 L128.82,39.58 L128.82,41.92 L119.02,41.92 L119.02,43.96 L128.82,43.96 C128.86,46.62 129.12,48.94 129.58,50.92 C129.76,51.74 129.98,52.5 130.26,53.2 C129.2,54.54 128,55.6 126.64,56.4 L127.8,58.2 Z M127.7,51.94 L127.7,45.52 L119.94,45.52 L119.94,51.94 L127.7,51.94 Z M125.64,50.06 L122.02,50.06 L122.02,47.44 L125.64,47.44 L125.64,50.06 Z M119.44,56.44 C122.54,55.92 125.44,55.28 128.16,54.52 L128.16,52.52 C125.14,53.38 122.06,54 118.94,54.36 L119.44,56.44 Z M142.26,52 C143.52,51.82 144.86,51.46 146.26,50.94 C146.32,51.22 146.38,51.52 146.44,51.84 L147.94,51.46 C147.64,49.96 147.32,48.64 146.96,47.52 L145.64,47.96 C146.32,46.74 147.08,45.22 147.94,43.38 L146.22,42.74 C145.86,43.58 145.5,44.36 145.18,45.1 L143.86,45.32 L143.86,45.32 C144.66,43.98 145.46,42.28 146.26,40.24 L144.34,39.48 C143.82,41.38 143.2,43.12 142.5,44.72 C142.26,45.08 141.96,45.32 141.64,45.46 L142.16,47.28 C142.9,47.14 143.62,47 144.32,46.88 C143.64,48.18 143.08,49.1 142.64,49.64 C142.4,49.88 142.1,50.06 141.76,50.2 L142.26,52 Z M149.16,58.14 C150.66,56.72 151.6,54.66 151.98,51.96 L153.8,51.96 L153.8,50.12 L152.12,50.12 L152.14,49.52 L152.14,49.52 L152.14,47.74 L153.56,47.74 L153.56,45.9 L152.14,45.9 L152.14,43.58 C152.9,43.42 153.54,43.24 154.06,43.04 L153.42,41.28 C153.06,41.46 152.62,41.62 152.14,41.76 L152.14,39.62 L150.14,39.62 L150.14,42.18 C149.46,42.26 148.72,42.34 147.92,42.38 L148.42,44.08 L150.14,43.9 L150.14,45.9 L148.52,45.9 L148.52,47.74 L150.14,47.74 L150.14,49.52 C150.14,49.7 150.12,49.9 150.12,50.12 L148.34,50.12 L148.34,51.96 L149.96,51.96 C149.62,54.06 148.84,55.66 147.64,56.78 L149.16,58.14 Z M156.22,57.9 L156.22,42.02 L157.9,42.02 C157.46,44.1 156.98,45.88 156.5,47.38 C157.82,49.48 158.5,51.18 158.52,52.48 C158.52,52.98 158.5,53.3 158.46,53.42 C158.4,53.58 158.3,53.68 158.16,53.7 C157.68,53.7 157.1,53.66 156.42,53.6 L157,55.52 C158.36,55.52 159.26,55.28 159.72,54.84 C160.14,54.4 160.36,53.62 160.36,52.48 C160.34,51.16 159.7,49.46 158.46,47.38 C158.98,45.62 159.48,43.72 159.92,41.68 L159.92,40.14 L154.3,40.14 L154.3,57.9 L156.22,57.9 Z M144.44,49.88 C144.78,49.4 145.16,48.8 145.56,48.12 C145.68,48.54 145.8,48.98 145.92,49.46 C145.44,49.62 144.94,49.76 144.44,49.88 Z M147.14,55.76 L148.54,55.12 C148.22,54.02 147.84,53 147.44,52.06 L146.1,52.52 C146.46,53.44 146.82,54.52 147.14,55.76 Z M144.72,57.06 L146.34,56.68 C146.14,55.22 145.9,53.86 145.64,52.62 L144.2,52.94 C144.4,54.14 144.58,55.5 144.72,57.06 Z M143.14,57.86 C143.48,56.44 143.7,54.82 143.8,52.98 L142.26,52.78 C142.16,54.5 141.92,56.04 141.56,57.36 L143.14,57.86 Z M167.58,46.14 L167.58,43.32 L180.42,43.32 L180.42,46.04 L182.46,46.04 L182.46,41.4 L175.16,41.4 C174.9,40.66 174.64,39.98 174.36,39.38 L172.12,39.74 C172.44,40.24 172.72,40.8 173,41.4 L165.54,41.4 L165.54,46.14 L167.58,46.14 Z M166,58.04 C167.1,56.96 168.02,55.64 168.78,54.06 C169.6,55.18 170.64,56.04 171.88,56.62 C173.72,57.38 176.76,57.76 181.04,57.76 L182.78,57.76 L183.2,55.7 C182.14,55.8 181.12,55.86 180.12,55.86 C178.16,55.84 176.5,55.74 175.14,55.54 L175.14,52.02 L180.82,52.02 L180.82,50.06 L175.14,50.06 L175.14,47.26 L179.98,47.26 L179.98,45.3 L168.06,45.3 L168.06,47.26 L173.06,47.26 L173.06,55.08 L173.04,55.08 C171.64,54.64 170.48,53.68 169.56,52.18 C169.92,51.18 170.2,50.12 170.44,48.98 L168.42,48.62 C167.78,51.86 166.52,54.44 164.66,56.36 L166,58.04 Z" id="2020/7/1開始預購或綁定" fill="#0E6DA0" fill-rule="nonzero"></path>
                </g>
            </g>
        </g>
    </g>
</svg>