<?xml version="1.0" encoding="UTF-8"?>
<svg width="376px" height="247px" viewBox="0 0 376 247" version="1.1" xmlns="http://www.w3.org/2000/svg" xmlns:xlink="http://www.w3.org/1999/xlink">
    <!-- Generator: Sketch 61.1 (89650) - https://sketch.com -->
    <title>Group 21 outline</title>
    <desc>Created with Sketch.</desc>
    <defs>
        <polygon id="path-1" points="0 0.1979 297.7428 0.1979 297.7428 178.7509 0 178.7509"></polygon>
        <polygon id="path-3" points="0.3611 0.5393 42.72 0.5393 42.72 42.8893 0.3611 42.8893"></polygon>
        <polygon id="path-5" points="0.3141 0.927 181.4291 0.927 181.4291 182.0018 0.3141 182.0018"></polygon>
        <polygon id="path-7" points="0 247.073 375.72 247.073 375.72 1 0 1"></polygon>
    </defs>
    <g id="懶人包" stroke="none" stroke-width="1" fill="none" fill-rule="evenodd">
        <g id="小資振興_懶人包_3000振興" transform="translate(-1136.000000, -1227.000000)">
            <g id="Group-21-outline" transform="translate(1136.000000, 1226.000000)">
                <g id="Group-76">
                    <g id="Group-3" transform="translate(0.000000, 2.073000)">
                        <mask id="mask-2" fill="white">
                            <use xlink:href="#path-1"></use>
                        </mask>
                        <g id="Clip-2"></g>
                        <path d="M269.4258,178.7509 L28.3188,178.7509 C12.6788,178.7509 -0.0002,166.0719 -0.0002,150.4329 L-0.0002,28.5159 C-0.0002,12.8759 12.6788,0.1979 28.3188,0.1979 L269.4258,0.1979 C285.0658,0.1979 297.7428,12.8759 297.7428,28.5159 L297.7428,150.4329 C297.7428,166.0719 285.0658,178.7509 269.4258,178.7509" id="Fill-1" fill="#D2E7ED" mask="url(#mask-2)"></path>
                    </g>
                    <path d="M51.6055,29.4172 C51.6055,37.6482 44.9325,44.3212 36.7015,44.3212 C28.4695,44.3212 21.7965,37.6482 21.7965,29.4172 C21.7965,21.1862 28.4695,14.5132 36.7015,14.5132 C44.9325,14.5132 51.6055,21.1862 51.6055,29.4172" id="Fill-4" fill="#FFFFFF"></path>
                    <path d="M51.6055,29.4172 C51.6055,37.6482 44.9325,44.3212 36.7015,44.3212 C28.4695,44.3212 21.7965,37.6482 21.7965,29.4172 C21.7965,21.1862 28.4695,14.5132 36.7015,14.5132 C44.9325,14.5132 51.6055,21.1862 51.6055,29.4172 Z" id="Stroke-6" stroke="#BD8A39"></path>
                    <path d="M48.8574,29.319 C48.8574,36.032 43.4154,41.475 36.7014,41.475 C29.9874,41.475 24.5454,36.032 24.5454,29.319 C24.5454,22.605 29.9874,17.163 36.7014,17.163 C43.4154,17.163 48.8574,22.605 48.8574,29.319" id="Fill-8" fill="#006DBB"></path>
                    <path d="M48.8574,29.319 C48.8574,36.032 43.4154,41.475 36.7014,41.475 C29.9874,41.475 24.5454,36.032 24.5454,29.319 C24.5454,22.605 29.9874,17.163 36.7014,17.163 C43.4154,17.163 48.8574,22.605 48.8574,29.319 Z" id="Stroke-10" stroke="#BD8A39" stroke-width="0.816"></path>
                    <g id="Group-16" transform="translate(29.000000, 21.073000)">
                        <path d="M15.3496,8.246 C15.3496,12.47 11.9256,15.894 7.7016,15.894 C3.4776,15.894 0.0526,12.47 0.0526,8.246 C0.0526,4.022 3.4776,0.598 7.7016,0.598 C11.9256,0.598 15.3496,4.022 15.3496,8.246" id="Fill-12" fill="#FFFFFF"></path>
                        <path d="M15.3496,8.246 C15.3496,12.47 11.9256,15.894 7.7016,15.894 C3.4776,15.894 0.0526,12.47 0.0526,8.246 C0.0526,4.022 3.4776,0.598 7.7016,0.598 C11.9256,0.598 15.3496,4.022 15.3496,8.246 Z" id="Stroke-14" stroke="#231815" stroke-width="0.816"></path>
                    </g>
                    <path d="M27.6914,27.5637 C27.6914,27.5637 35.3514,20.7567 45.7124,34.7097" id="Stroke-17" stroke="#BD8A39"></path>
                    <path d="M308.9023,76.1266 L308.9023,211.4936 C308.9023,224.4686 287.0173,234.9876 260.0193,234.9876 L52.1333,234.9876 C45.0183,234.9876 38.3363,234.1166 32.5033,232.5846 C29.3173,229.7816 27.5043,226.5696 27.5043,223.1496 L27.5043,91.5376 C27.5043,80.6616 40.0323,64.2886 56.5903,64.2886 L284.2723,64.2886 C291.3873,64.2886 298.0703,65.1606 303.9033,66.6916 C307.0893,69.4946 308.9023,72.7066 308.9023,76.1266" id="Fill-19" fill="#D0D2D3"></path>
                    <path d="M301.1455,247.0729 L60.0385,247.0729 C44.3985,247.0729 31.7205,234.3949 31.7205,218.7549 L31.7205,96.8389 C31.7205,81.1989 44.3985,68.5199 60.0385,68.5199 L301.1455,68.5199 C316.7855,68.5199 329.4635,81.1989 329.4635,96.8389 L329.4635,218.7549 C329.4635,234.3949 316.7855,247.0729 301.1455,247.0729" id="Fill-21" fill="#F8F6DE"></path>
                    <path d="M175.3467,198.2082 L55.9547,198.2082 C51.7447,198.2082 48.3317,194.7952 48.3317,190.5852 C48.3317,186.3752 51.7447,182.9622 55.9547,182.9622 L175.3467,182.9622 C179.5567,182.9622 182.9697,186.3752 182.9697,190.5852 C182.9697,194.7952 179.5567,198.2082 175.3467,198.2082" id="Fill-23" fill="#F6D85E"></path>
                    <path d="M225.5166,100.5695 L106.1256,100.5695 C101.9156,100.5695 98.5026,97.1565 98.5026,92.9465 C98.5026,88.7365 101.9156,85.3235 106.1256,85.3235 L225.5166,85.3235 C229.7266,85.3235 233.1396,88.7365 233.1396,92.9465 C233.1396,97.1565 229.7266,100.5695 225.5166,100.5695" id="Fill-25" fill="#AAACAE"></path>
                    <path d="M309.9834,224.694 L55.9554,224.694 C51.7454,224.694 48.3324,221.281 48.3324,217.071 C48.3324,212.861 51.7454,209.448 55.9554,209.448 L309.9834,209.448 C314.1934,209.448 317.6064,212.861 317.6064,217.071 C317.6064,221.281 314.1934,224.694 309.9834,224.694" id="Fill-27" fill="#AAACAE"></path>
                    <g id="Group-31" transform="translate(333.000000, 140.073000)">
                        <mask id="mask-4" fill="white">
                            <use xlink:href="#path-3"></use>
                        </mask>
                        <g id="Clip-30"></g>
                        <path d="M25.9141,40.0063 L0.3611,14.4593 L14.2841,0.5393 L39.8371,26.0863 C43.6821,29.9303 43.6821,36.1623 39.8371,40.0063 C35.9921,43.8503 29.7591,43.8503 25.9141,40.0063" id="Fill-29" fill="#FFFFFF" mask="url(#mask-4)"></path>
                    </g>
                    <path d="M363.252,175.7424 L337.699,150.1954 L333.361,154.5324 L358.914,180.0794 C362.759,183.9234 368.992,183.9234 372.837,180.0794 C373.595,179.3214 374.2,178.4714 374.659,177.5644 C370.965,179.4344 366.339,178.8284 363.252,175.7424" id="Fill-32" fill="#D0D2D3"></path>
                    <g id="Group-36" transform="translate(190.000000, 0.073000)">
                        <mask id="mask-6" fill="white">
                            <use xlink:href="#path-5"></use>
                        </mask>
                        <g id="Clip-35"></g>
                        <path d="M90.8711,163.7568 C75.0521,163.7568 60.4171,158.6788 48.5121,150.0578 C30.3651,136.9268 18.5631,115.5738 18.5631,91.4648 C18.5631,89.7458 18.6221,88.0408 18.7411,86.3498 C21.3671,48.8098 52.6551,19.1718 90.8711,19.1718 C130.8061,19.1718 163.1801,51.5388 163.1801,91.4648 C163.1801,131.3898 130.8061,163.7568 90.8711,163.7568 M90.8711,0.9268 C41.0511,0.9268 0.6301,41.1448 0.3181,90.8798 C0.3141,91.0728 0.3141,91.2708 0.3141,91.4648 C0.3141,119.5628 13.1161,144.6708 33.2061,161.2768 C48.8671,174.2218 68.9611,182.0018 90.8711,182.0018 C140.8861,182.0018 181.4291,141.4678 181.4291,91.4648 C181.4291,41.4608 140.8861,0.9268 90.8711,0.9268" id="Fill-34" fill="#FFFFFF" mask="url(#mask-6)"></path>
                    </g>
                    <path d="M280.8711,163.8317 C240.9351,163.8317 208.5611,131.4637 208.5611,91.5377 C208.5611,51.6097 240.9351,19.2427 280.8711,19.2427 C320.8071,19.2427 353.1821,51.6097 353.1821,91.5377 C353.1821,131.4637 320.8071,163.8317 280.8711,163.8317 M280.8711,10.4767 C236.0931,10.4767 199.7931,46.7687 199.7931,91.5377 C199.7931,136.3057 236.0931,172.5987 280.8711,172.5987 C325.6491,172.5987 361.9501,136.3057 361.9501,91.5377 C361.9501,46.7687 325.6491,10.4767 280.8711,10.4767" id="Fill-37" fill="#D0D2D3"></path>
                    <mask id="mask-8" fill="white">
                        <use xlink:href="#path-7"></use>
                    </mask>
                    <g id="Clip-40"></g>
                    <polygon id="Fill-39" fill="#FFFFFF" mask="url(#mask-8)" points="267.322 133.133 294.42 133.133 294.42 100.255 267.322 100.255"></polygon>
                    <path d="M246.8438,83.278 L245.7228,83.278 C242.8178,83.278 240.4618,80.923 240.4618,78.017 L240.4618,68.026 C240.4618,65.12 242.8178,62.764 245.7228,62.764 L246.8438,62.764 C249.7488,62.764 252.1048,65.12 252.1048,68.026 L252.1048,78.017 C252.1048,80.923 249.7488,83.278 246.8438,83.278" id="Fill-41" fill="#FFFFFF" mask="url(#mask-8)"></path>
                    <path d="M246.2832,80.5363 L246.2832,80.5363 C243.0682,80.5363 240.4622,77.9303 240.4622,74.7163 L240.4622,77.4573 C240.4622,80.6723 243.0682,83.2783 246.2832,83.2783 C249.4982,83.2783 252.1052,80.6723 252.1052,77.4573 L252.1052,74.7163 C252.1052,77.9303 249.4982,80.5363 246.2832,80.5363" id="Fill-42" fill="#D0D2D3" mask="url(#mask-8)"></path>
                    <path d="M316.0195,83.278 L314.8995,83.278 C311.9935,83.278 309.6375,80.923 309.6375,78.017 L309.6375,68.026 C309.6375,65.12 311.9935,62.764 314.8995,62.764 L316.0195,62.764 C318.9255,62.764 321.2815,65.12 321.2815,68.026 L321.2815,78.017 C321.2815,80.923 318.9255,83.278 316.0195,83.278" id="Fill-43" fill="#FFFFFF" mask="url(#mask-8)"></path>
                    <path d="M315.46,80.5363 L315.46,80.5363 C312.244,80.5363 309.638,77.9303 309.638,74.7163 L309.638,77.4573 C309.638,80.6723 312.244,83.2783 315.46,83.2783 C318.675,83.2783 321.281,80.6723 321.281,77.4573 L321.281,74.7163 C321.281,77.9303 318.675,80.5363 315.46,80.5363" id="Fill-44" fill="#D0D2D3" mask="url(#mask-8)"></path>
                    <path d="M246.792,60.4475 C247.918,54.6585 250.483,49.3845 254.104,45.0125 C255.15,43.7445 256.287,42.5565 257.502,41.4505 C263.671,35.8305 271.87,32.4105 280.871,32.4105 C281.271,32.4105 281.674,32.4175 282.072,32.4345 C282.208,32.4345 282.344,32.4415 282.476,32.4475 C291.43,32.8535 299.493,36.6465 305.429,42.5805 C310.715,47.8645 314.305,54.8515 315.31,62.6465 C315.499,64.1145 315.598,65.6105 315.598,67.1295 L315.598,74.0045 C315.598,93.1805 300.052,108.7225 280.871,108.7225 C261.694,108.7225 246.146,93.1805 246.146,74.0045 L246.146,67.1295 C246.146,65.6545 246.236,64.2025 246.416,62.7785 L246.792,60.4475 Z" id="Fill-45" fill="#FFFFFF" mask="url(#mask-8)"></path>
                    <path d="M280.8711,103.2394 C261.6941,103.2394 246.1451,87.6964 246.1451,68.5204 L246.1451,74.0044 C246.1451,93.1804 261.6941,108.7224 280.8711,108.7224 C300.0521,108.7224 315.5981,93.1804 315.5981,74.0044 L315.5981,68.5204 C315.5981,87.6964 300.0521,103.2394 280.8711,103.2394" id="Fill-46" fill="#D0D2D3" mask="url(#mask-8)"></path>
                    <path d="M246.751,60.6491 L250.177,60.6491 L250.177,77.2861 C250.177,78.3211 249.418,79.2431 248.388,79.3391 C247.205,79.4491 246.214,78.5241 246.214,77.3691 L246.214,65.3721 C246.214,63.7821 246.395,62.1981 246.751,60.6491" id="Fill-47" fill="#4B6084" mask="url(#mask-8)"></path>
                    <path d="M315.5977,64.9377 L315.5977,77.0777 C315.5977,78.1127 314.8417,79.0377 313.8117,79.1367 C312.6297,79.2507 311.6347,78.3247 311.6347,77.1667 L311.6347,60.4477 L314.9537,60.4477 C315.3807,61.9057 315.5977,63.4177 315.5977,64.9377" id="Fill-48" fill="#4B6084" mask="url(#mask-8)"></path>
                    <path d="M282.0723,32.4343 C278.5603,37.9143 269.8533,49.7633 255.7523,58.0963 C252.3583,60.0993 249.2413,61.6283 246.4163,62.7783 C246.4193,62.7753 246.4193,62.7683 246.4193,62.7653 C247.2593,56.0663 250.0063,49.9593 254.1043,45.0133 C255.1503,43.7443 256.2873,42.5573 257.5023,41.4503 C263.6713,35.8303 271.8703,32.4103 280.8713,32.4103 C281.2703,32.4103 281.6743,32.4173 282.0723,32.4343" id="Fill-49" fill="#4B6084" mask="url(#mask-8)"></path>
                    <path d="M315.3096,62.6467 C310.5826,64.0777 301.2666,65.4277 286.4716,61.5607 C271.5116,57.6527 260.1586,49.9017 254.1046,45.0127 C255.1506,43.7447 256.2876,42.5567 257.5016,41.4507 C263.6706,35.8307 271.8706,32.4107 280.8716,32.4107 C281.4066,32.4107 281.9446,32.4207 282.4756,32.4477 C291.4296,32.8537 299.4936,36.6467 305.4286,42.5807 C310.7146,47.8647 314.3046,54.8517 315.3096,62.6467" id="Fill-50" fill="#808F91" mask="url(#mask-8)"></path>
                    <path d="M286.4717,41.2609 C279.9207,39.5499 274.0617,37.1019 269.0357,34.4799 C264.7317,36.0399 260.8227,38.4259 257.5017,41.4499 C256.2867,42.5569 255.1507,43.7439 254.1047,45.0129 C260.1587,49.9019 271.5117,57.6529 286.4717,61.5599 C301.2667,65.4279 310.5827,64.0769 315.3097,62.6469 C314.3767,55.4079 311.2117,48.8699 306.5337,43.7409 C301.5027,43.9689 294.8707,43.4559 286.4717,41.2609" id="Fill-51" fill="#4B6084" mask="url(#mask-8)"></path>
                    <path d="M286.4717,48.0275 C276.9077,45.5285 268.8197,41.4605 262.6467,37.5715 C260.8117,38.7055 259.0887,40.0045 257.5017,41.4505 C256.2867,42.5565 255.1507,43.7445 254.1047,45.0125 C260.1587,49.9015 271.5117,57.6525 286.4717,61.5605 C301.2667,65.4275 310.5827,64.0775 315.3097,62.6465 C314.7257,58.1175 313.2647,53.8645 311.1097,50.0565 C305.8037,50.8915 297.7237,50.9685 286.4717,48.0275" id="Fill-52" fill="#808F91" mask="url(#mask-8)"></path>
                    <path d="M286.4717,54.7941 C274.1987,51.5881 264.3567,45.7971 257.8727,41.1201 C257.7487,41.2301 257.6237,41.3391 257.5017,41.4501 C256.2867,42.5571 255.1507,43.7441 254.1047,45.0131 C260.1587,49.9011 271.5117,57.6531 286.4717,61.5601 C301.2667,65.4271 310.5827,64.0771 315.3097,62.6471 C315.0277,60.4511 314.5327,58.3231 313.8587,56.2761 C308.7877,57.5181 299.8797,58.2981 286.4717,54.7941" id="Fill-53" fill="#4B6084" mask="url(#mask-8)"></path>
                    <path d="M281.2402,85.5041 L280.5022,85.5041 C278.5882,85.5041 277.0362,83.9521 277.0362,82.0371 L277.0362,76.2551 C277.0362,74.3411 278.5882,72.7891 280.5022,72.7891 L281.2402,72.7891 C283.1552,72.7891 284.7072,74.3411 284.7072,76.2551 L284.7072,82.0371 C284.7072,83.9521 283.1552,85.5041 281.2402,85.5041" id="Fill-54" fill="#A62873" mask="url(#mask-8)"></path>
                    <path d="M339.5918,133.7258 C328.1098,149.6808 310.2758,160.7658 289.7948,163.2848 C288.9218,163.3918 288.0408,163.4818 287.1598,163.5578 C285.1128,163.7358 283.0438,163.8258 280.9498,163.8298 L280.8708,163.8298 C278.7538,163.8298 276.6568,163.7388 274.5828,163.5578 C273.6948,163.4818 272.8138,163.3918 271.9328,163.2808 C251.4558,160.7578 233.6258,149.6728 222.1438,133.7178 C226.6068,124.7848 235.8418,118.6478 246.5028,118.6478 L258.3178,118.6478 L266.4778,145.3988 L267.3388,148.2148 L294.3928,148.2148 L295.2488,145.3988 L295.2528,145.3988 L303.4138,118.6478 L315.2288,118.6478 C325.8938,118.6478 335.1278,124.7848 339.5918,133.7258" id="Fill-55" fill="#2C416D" mask="url(#mask-8)"></path>
                    <path d="M295.249,145.3991 L294.393,148.2151 L289.795,163.2851 C288.922,163.3921 288.041,163.4821 287.16,163.5571 C285.113,163.7351 283.044,163.8261 280.95,163.8301 L280.871,163.8301 C278.754,163.8301 276.657,163.7391 274.583,163.5571 C273.694,163.4821 272.813,163.3921 271.933,163.2811 L267.339,148.2151 L266.478,145.3991 L273.955,139.0221 L273.959,139.0221 L280.859,133.1331 L287.796,139.0451 L295.249,145.3991 Z" id="Fill-56" fill="#FFFFFF" mask="url(#mask-8)"></path>
                    <path d="M267.6738,69.7971 C267.6738,71.4161 266.3618,72.7291 264.7408,72.7291 C263.1208,72.7291 261.8088,71.4161 261.8088,69.7971 C261.8088,68.1771 263.1208,66.8651 264.7408,66.8651 C266.3618,66.8651 267.6738,68.1771 267.6738,69.7971" id="Fill-57" fill="#A62873" mask="url(#mask-8)"></path>
                    <path d="M299.9346,69.7971 C299.9346,71.4161 298.6216,72.7291 297.0016,72.7291 C295.3816,72.7291 294.0696,71.4161 294.0696,69.7971 C294.0696,68.1771 295.3816,66.8651 297.0016,66.8651 C298.6216,66.8651 299.9346,68.1771 299.9346,69.7971" id="Fill-58" fill="#A62873" mask="url(#mask-8)"></path>
                    <path d="M280.8711,95.7619 C277.2771,95.7619 273.6831,94.3939 270.9461,91.6579 C270.5971,91.3079 270.5971,90.7419 270.9461,90.3929 C271.2951,90.0439 271.8621,90.0439 272.2111,90.3929 C276.9861,95.1669 284.7561,95.1669 289.5311,90.3929 C289.8811,90.0439 290.4471,90.0439 290.7971,90.3929 C291.1451,90.7419 291.1451,91.3079 290.7971,91.6579 C288.0601,94.3939 284.4661,95.7619 280.8711,95.7619" id="Fill-59" fill="#A62873" mask="url(#mask-8)"></path>
                    <path d="M287.1602,163.5573 C285.1132,163.7353 283.0442,163.8263 280.9502,163.8293 L280.8712,163.8293 C278.7542,163.8293 276.6572,163.7393 274.5832,163.5573 L274.7372,161.7963 L274.7372,161.7923 L275.2592,155.8723 L275.4402,153.7873 L275.4402,153.7793 L275.6382,151.5043 L275.9302,148.2153 L275.9582,147.8913 L276.3092,143.9223 L285.4332,143.9223 L285.7852,147.8913 L285.8122,148.2153 L286.4132,155.0313 L286.4132,155.0353 L286.8202,159.6603 L287.1602,163.5573 Z" id="Fill-60" fill="#E7AD26" mask="url(#mask-8)"></path>
                    <polygon id="Fill-61" fill="#E8CD5D" mask="url(#mask-8)" points="286.8193 159.6584 275.2563 155.8724 275.6393 151.5074 286.4123 155.0334"></polygon>
                    <path d="M280.9502,163.8298 L280.8712,163.8298 C278.7542,163.8298 276.6572,163.7388 274.5832,163.5578 L274.7372,161.7958 L280.9502,163.8298 Z" id="Fill-62" fill="#F6D85E" mask="url(#mask-8)"></path>
                    <path d="M283.9922,148.2145 L277.7502,148.2145 C274.2292,148.2145 271.8002,144.6895 273.0532,141.4005 L274.9682,136.3705 C275.7102,134.4215 277.5802,133.1325 279.6662,133.1325 L282.0772,133.1325 C284.1632,133.1325 286.0322,134.4215 286.7752,136.3705 L288.6902,141.4005 C289.9432,144.6895 287.5132,148.2145 283.9922,148.2145" id="Fill-63" fill="#E8CD5D" mask="url(#mask-8)"></path>
                    <polygon id="Fill-64" fill="#E2854A" mask="url(#mask-8)" points="303.416 118.6496 303.416 118.6496 294.421 113.5816 280.871 133.1326 295.252 145.4006"></polygon>
                    <polygon id="Fill-65" fill="#E2854A" mask="url(#mask-8)" points="258.3145 118.6496 258.3145 118.6496 267.3085 113.5816 280.8585 133.1326 266.4775 145.4006"></polygon>
                    <polygon id="Fill-66" fill="#D0D2D3" mask="url(#mask-8)" points="294.4072 109.8493 280.8712 124.6363 280.8582 124.6363 267.3222 109.8493 267.3082 113.5813 280.8582 133.1333 280.8712 133.1333 294.4212 113.5813"></polygon>
                    <path d="M244.1367,118.7536 C234.4887,119.5866 226.2727,125.4536 222.1437,133.7176 C227.9907,141.8426 235.4867,148.6996 244.1367,153.8116 L244.1367,118.7536 Z" id="Fill-67" fill="#079690" mask="url(#mask-8)"></path>
                    <path d="M317.6064,118.7551 L317.6064,153.8131 C326.2534,148.7021 333.7474,141.8471 339.5914,133.7261 C335.4634,125.4571 327.2524,119.5901 317.6064,118.7551" id="Fill-68" fill="#079690" mask="url(#mask-8)"></path>
                    <path d="M280.8652,163.8913 C280.3862,170.2393 278.3632,176.4453 274.8902,181.9023 C248.8932,180.0033 223.9092,166.9533 207.6272,144.0513 C207.5142,143.8923 207.4002,143.7323 207.2922,143.5723 C210.0482,138.0623 214.1622,133.1273 219.5352,129.3083 C219.5842,129.2743 219.6322,129.2403 219.6822,129.2093 C220.5652,130.6553 221.5062,132.0803 222.5012,133.4803 C236.4722,153.1313 258.4662,163.6993 280.8652,163.8913" id="Fill-69" fill="#D0D2D3" mask="url(#mask-8)"></path>
                    <path d="M279.3604,163.8259 C279.3604,185.3049 261.9454,202.7169 240.4624,202.7169 C218.9784,202.7169 201.5624,185.3049 201.5624,163.8259 C201.5624,142.3469 218.9784,124.9349 240.4624,124.9349 C261.9454,124.9349 279.3604,142.3469 279.3604,163.8259" id="Fill-70" fill="#3B85B9" mask="url(#mask-8)"></path>
                    <path d="M272.5303,163.8259 C272.5303,181.5329 258.1733,195.8879 240.4623,195.8879 C222.7503,195.8879 208.3923,181.5329 208.3923,163.8259 C208.3923,146.1179 222.7503,131.7629 240.4623,131.7629 C258.1733,131.7629 272.5303,146.1179 272.5303,163.8259" id="Fill-71" fill="#AD4A90" mask="url(#mask-8)"></path>
                    <path d="M240.4619,134.3605 C257.7369,134.3605 271.8159,148.0195 272.4979,165.1245 C272.5149,164.6935 272.5299,164.2605 272.5299,163.8255 C272.5299,146.1185 258.1729,131.7635 240.4619,131.7635 C222.7499,131.7635 208.3929,146.1185 208.3929,163.8255 C208.3929,164.2605 208.4079,164.6935 208.4259,165.1245 C209.1079,148.0195 223.1859,134.3605 240.4619,134.3605" id="Fill-72" fill="#FFFFFF" mask="url(#mask-8)"></path>
                    <polygon id="Fill-73" fill="#FFFFFF" mask="url(#mask-8)" points="233.6113 182.4304 217.7963 166.6184 223.3823 161.0334 233.6113 171.2604 255.2373 149.6384 260.8243 155.2234"></polygon>
                    <polygon id="Fill-74" fill="#DD0816" mask="url(#mask-8)" points="48.332 105.22 87.955 105.22 87.955 80.673 48.332 80.673"></polygon>
                    <polygon id="Fill-75" fill="#1F286F" mask="url(#mask-8)" points="48.332 91.548 61.504 91.548 61.504 80.673 48.332 80.673"></polygon>
                </g>
                <path d="M83.6621181,161.392 C85.6461181,161.392 86.6381181,160.336 86.6381181,158.224 L86.6381181,151.696 C88.8781181,149.616 90.7341181,147.184 92.2701181,144.4 L89.4221181,142.608 C88.7821181,144.272 87.8541181,145.84 86.6381181,147.344 L86.6381181,134.096 L77.7101181,134.096 C78.0301181,133.392 78.2861181,132.656 78.4781181,131.888 L74.9581181,131.408 C74.7661181,132.336 74.5101181,133.232 74.1901181,134.096 L67.6621181,134.096 L67.6621181,149.84 L63.7581181,149.936 L64.2701181,153.072 C71.7581181,152.688 77.5821181,152.304 81.7421181,151.888 C78.1581181,154.48 72.3341181,156.464 64.2701181,157.872 L65.7741181,160.88 C72.0461181,159.792 77.4221181,157.936 81.9021181,155.28 C82.3821181,154.96 82.8621181,154.672 83.3421181,154.352 L83.3421181,157.488 C83.3421181,158.064 83.0861181,158.384 82.6061181,158.384 L79.4061181,158.224 L80.2381181,161.392 L83.6621181,161.392 Z M83.3421181,139.184 L70.9901181,139.184 L70.9901181,137.04 L83.3421181,137.04 L83.3421181,139.184 Z M83.3421181,144.016 L70.9901181,144.016 L70.9901181,141.968 L83.3421181,141.968 L83.3421181,144.016 Z M70.9901181,149.712 L70.9901181,146.832 L83.3421181,146.832 L83.3421181,148.848 C80.0141181,149.232 75.8861181,149.52 70.9901181,149.712 Z M109.999373,161.392 L109.999373,139.824 C111.279373,137.648 112.303373,135.344 113.103373,132.944 L110.063373,131.536 C108.463373,136.432 106.031373,140.688 102.767373,144.304 L103.855373,147.824 C104.815373,146.8 105.743373,145.776 106.607373,144.752 L106.607373,161.392 L109.999373,161.392 Z M114.287373,161.296 C118.383373,157.392 120.463373,152.912 120.463373,147.792 L120.463373,147.12 L125.583373,147.12 C125.519373,152.112 125.423373,155.024 125.231373,155.856 C125.071373,157.136 124.495373,157.808 123.471373,157.808 C122.447373,157.808 121.231373,157.744 119.823373,157.616 L120.623373,160.752 C122.223373,160.848 123.375373,160.912 124.047373,160.912 C126.607373,160.912 128.047373,159.76 128.367373,157.488 C128.687373,155.792 128.847373,151.376 128.847373,144.208 C129.423373,144.912 130.095373,145.584 130.863373,146.256 L132.847373,143.504 C129.807373,140.816 127.695373,137.2 126.511373,132.688 L120.911373,132.688 L120.911373,135.76 L124.015373,135.76 C125.103373,138.896 126.607373,141.584 128.527373,143.856 L114.639373,143.856 C116.943373,140.848 118.543373,137.36 119.503373,133.36 L116.303373,132.592 C115.279373,136.88 113.295373,140.528 110.383373,143.472 L112.527373,146.256 C113.071373,145.68 113.615373,145.104 114.127373,144.464 L114.127373,147.12 L117.103373,147.12 L117.103373,147.792 C117.103373,151.952 115.215373,155.664 111.471373,158.896 L114.287373,161.296 Z M154.384627,138.32 L154.384627,135.216 L150.448627,135.216 C150.192627,134.128 149.808627,132.944 149.360627,131.6 L146.192627,132.464 C146.576627,133.36 146.960627,134.288 147.280627,135.216 L143.696627,135.216 L143.696627,138.32 L154.384627,138.32 Z M155.600627,145.552 C157.072627,144.592 158.352627,143.472 159.472627,142.128 L159.472627,143.6 L167.888627,143.6 L167.888627,141.616 C168.816627,142.896 169.904627,144.112 171.152627,145.232 L173.200627,142.864 C172.176627,142.032 171.248627,141.104 170.384627,140.08 C171.408627,139.184 172.336627,138.224 173.136627,137.136 L170.992627,135.248 C170.352627,136.208 169.616627,137.072 168.784627,137.872 C168.496627,137.392 168.240627,136.912 167.984627,136.432 C169.072627,135.6 170.000627,134.672 170.832627,133.616 L168.688627,131.728 C168.176627,132.496 167.568627,133.232 166.864627,133.936 C166.608627,133.232 166.352627,132.528 166.160627,131.792 L163.792627,133.104 C164.592627,135.888 165.744627,138.416 167.248627,140.72 L160.528627,140.72 C161.616627,139.056 162.416627,137.136 162.992627,134.96 L162.992627,132.624 L155.728627,132.624 L155.728627,135.44 L160.208627,135.44 C159.856627,136.368 159.408627,137.264 158.896627,138.128 C158.256627,137.488 157.584627,136.88 156.816627,136.272 L154.800627,138.192 C155.728627,138.896 156.528627,139.568 157.232627,140.272 C156.208627,141.328 155.024627,142.256 153.680627,143.056 L155.600627,145.552 Z M153.392627,143.088 L153.392627,140.144 L144.496627,140.144 L144.496627,143.088 L153.392627,143.088 Z M153.392627,147.632 L153.392627,144.688 L144.496627,144.688 L144.496627,147.632 L153.392627,147.632 Z M170.544627,154 L170.544627,145.808 L156.400627,145.808 L156.400627,154 L170.544627,154 Z M167.408627,151.248 L159.536627,151.248 L159.536627,148.528 L167.408627,148.528 L167.408627,151.248 Z M147.472627,161.232 L147.472627,159.568 L150.416627,159.568 L150.416627,160.816 L153.584627,160.816 L153.584627,149.456 L144.272627,149.456 L144.272627,161.232 L147.472627,161.232 Z M150.416627,156.496 L147.472627,156.496 L147.472627,152.496 L150.416627,152.496 L150.416627,156.496 Z M172.368627,160.816 L172.368627,157.84 L168.336627,157.84 C168.848627,157.072 169.360627,156.24 169.808627,155.312 L166.832627,154.256 C166.320627,155.504 165.712627,156.688 165.072627,157.84 L162.224627,157.84 C161.648627,156.464 161.040627,155.248 160.368627,154.224 L157.392627,155.344 C157.968627,156.112 158.512627,156.944 158.992627,157.84 L154.864627,157.84 L154.864627,160.816 L172.368627,160.816 Z" id="身份證" fill="#1B4875" fill-rule="nonzero"></path>
                <path d="M83.0941181,49.424 L83.0941181,48.112 L95.1901181,48.112 L95.1901181,49.424 L98.3581181,49.424 L98.3581181,38.224 L90.5181181,38.224 L90.5181181,35.216 L100.502118,35.216 L100.502118,32.176 L90.5181181,32.176 L90.5181181,29.264 L99.2541181,29.264 L99.2541181,20.72 L74.8061181,20.72 L74.8061181,31.824 C74.7741181,38.032 73.6861181,43.12 71.5421181,47.056 L74.1661181,49.424 C76.3101181,45.36 77.5901181,40.624 77.9741181,35.216 L87.2861181,35.216 L87.2861181,38.224 L79.8941181,38.224 L79.8941181,49.424 L83.0941181,49.424 Z M95.9261181,26.256 L78.1021181,26.256 L78.1021181,23.76 L95.9261181,23.76 L95.9261181,26.256 Z M87.2861181,32.176 L78.1021181,32.176 L78.1021181,29.264 L87.2861181,29.264 L87.2861181,32.176 Z M95.1901181,45.104 L83.0941181,45.104 L83.0941181,41.232 L95.1901181,41.232 L95.1901181,45.104 Z M113.815373,34.352 C117.367373,33.52 120.375373,32.624 122.839373,31.664 C123.095373,32.464 123.319373,33.296 123.575373,34.128 L126.743373,32.944 C126.039373,30.384 125.047373,27.6 123.735373,24.528 L120.599373,25.424 C121.047373,26.48 121.463373,27.568 121.847373,28.688 C120.567373,29.2 118.935373,29.744 116.951373,30.32 L116.951373,24.72 C120.535373,24.24 123.511373,23.408 125.879373,22.192 L124.215373,19.408 C121.431373,20.752 117.943373,21.648 113.719373,22.032 L113.719373,29.04 C113.719373,30 113.335373,30.736 112.631373,31.312 L113.815373,34.352 Z M128.631373,34 C130.007373,32.592 131.031373,31.024 131.735373,29.296 C132.247373,27.952 132.631373,26.192 132.951373,24.048 L136.823373,24.048 C136.759373,26.928 136.663373,28.688 136.471373,29.328 C136.247373,30.32 135.735373,30.832 134.967373,30.864 C134.135373,30.864 133.143373,30.8 131.991373,30.736 L132.983373,33.648 C133.847373,33.744 134.615373,33.808 135.319373,33.808 C137.303373,33.808 138.583373,32.944 139.191373,31.248 C139.703373,29.904 140.023373,26.416 140.151373,20.784 L126.775373,20.784 L126.775373,24.048 L129.751373,24.048 C129.527373,25.584 129.239373,26.832 128.887373,27.824 C128.375373,29.168 127.639373,30.384 126.647373,31.472 L128.631373,34 Z M118.551373,49.392 L118.551373,48.24 L135.319373,48.24 L135.319373,49.36 L138.615373,49.36 L138.615373,34.544 L115.255373,34.544 L115.255373,49.392 L118.551373,49.392 Z M125.367373,39.92 L118.551373,39.92 L118.551373,37.648 L125.367373,37.648 L125.367373,39.92 Z M135.319373,39.92 L128.695373,39.92 L128.695373,37.648 L135.319373,37.648 L135.319373,39.92 Z M125.367373,45.136 L118.551373,45.136 L118.551373,42.864 L125.367373,42.864 L125.367373,45.136 Z M135.319373,45.136 L128.695373,45.136 L128.695373,42.864 L135.319373,42.864 L135.319373,45.136 Z M163.384627,26.32 L163.384627,23.216 L159.448627,23.216 C159.192627,22.128 158.808627,20.944 158.360627,19.6 L155.192627,20.464 C155.576627,21.36 155.960627,22.288 156.280627,23.216 L152.696627,23.216 L152.696627,26.32 L163.384627,26.32 Z M164.600627,33.552 C166.072627,32.592 167.352627,31.472 168.472627,30.128 L168.472627,31.6 L176.888627,31.6 L176.888627,29.616 C177.816627,30.896 178.904627,32.112 180.152627,33.232 L182.200627,30.864 C181.176627,30.032 180.248627,29.104 179.384627,28.08 C180.408627,27.184 181.336627,26.224 182.136627,25.136 L179.992627,23.248 C179.352627,24.208 178.616627,25.072 177.784627,25.872 C177.496627,25.392 177.240627,24.912 176.984627,24.432 C178.072627,23.6 179.000627,22.672 179.832627,21.616 L177.688627,19.728 C177.176627,20.496 176.568627,21.232 175.864627,21.936 C175.608627,21.232 175.352627,20.528 175.160627,19.792 L172.792627,21.104 C173.592627,23.888 174.744627,26.416 176.248627,28.72 L169.528627,28.72 C170.616627,27.056 171.416627,25.136 171.992627,22.96 L171.992627,20.624 L164.728627,20.624 L164.728627,23.44 L169.208627,23.44 C168.856627,24.368 168.408627,25.264 167.896627,26.128 C167.256627,25.488 166.584627,24.88 165.816627,24.272 L163.800627,26.192 C164.728627,26.896 165.528627,27.568 166.232627,28.272 C165.208627,29.328 164.024627,30.256 162.680627,31.056 L164.600627,33.552 Z M162.392627,31.088 L162.392627,28.144 L153.496627,28.144 L153.496627,31.088 L162.392627,31.088 Z M162.392627,35.632 L162.392627,32.688 L153.496627,32.688 L153.496627,35.632 L162.392627,35.632 Z M179.544627,42 L179.544627,33.808 L165.400627,33.808 L165.400627,42 L179.544627,42 Z M176.408627,39.248 L168.536627,39.248 L168.536627,36.528 L176.408627,36.528 L176.408627,39.248 Z M156.472627,49.232 L156.472627,47.568 L159.416627,47.568 L159.416627,48.816 L162.584627,48.816 L162.584627,37.456 L153.272627,37.456 L153.272627,49.232 L156.472627,49.232 Z M159.416627,44.496 L156.472627,44.496 L156.472627,40.496 L159.416627,40.496 L159.416627,44.496 Z M181.368627,48.816 L181.368627,45.84 L177.336627,45.84 C177.848627,45.072 178.360627,44.24 178.808627,43.312 L175.832627,42.256 C175.320627,43.504 174.712627,44.688 174.072627,45.84 L171.224627,45.84 C170.648627,44.464 170.040627,43.248 169.368627,42.224 L166.392627,43.344 C166.968627,44.112 167.512627,44.944 167.992627,45.84 L163.864627,45.84 L163.864627,48.816 L181.368627,48.816 Z" id="居留證" fill="#1B4875" fill-rule="nonzero"></path>
            </g>
        </g>
    </g>
</svg>