<svg xmlns="http://www.w3.org/2000/svg" xmlns:xlink="http://www.w3.org/1999/xlink" width="522" height="346" viewBox="0 0 522 346">
    <defs>
        <path id="prefix__a" d="M.667 92.293c0 50.534 40.649 91.508 90.778 91.508 50.142 0 90.786-40.974 90.786-91.508 0-50.547-40.644-91.518-90.786-91.518C41.311.775.667 41.745.667 92.293z"/>
        <path id="prefix__c" d="M.675.797c0 34.875 28.257 63.144 63.113 63.144V.797H.675z"/>
        <path id="prefix__e" d="M.675 62.443h63.113V.123C28.932.124.675 28.027.675 62.444z"/>
        <path id="prefix__g" d="M.098.81v63.142c34.401 0 62.29-28.27 62.29-63.142H.097z"/>
        <path id="prefix__i" d="M0.677 0.289L48.915 0.289 48.915 20.801 0.677 20.801z"/>
        <path id="prefix__l" d="M.338.214v15.48c1.138 2.347 3.537 3.96 6.31 3.96 2.778 0 5.18-1.615 6.315-3.963 1.135 2.348 3.538 3.963 6.314 3.963 2.777 0 5.176-1.615 6.314-3.963 1.137 2.348 3.536 3.963 6.316 3.963 2.776 0 5.175-1.615 6.31-3.963 1.138 2.348 3.538 3.963 6.314 3.963 2.778 0 5.179-1.615 6.316-3.963 1.136 2.348 3.535 3.963 6.312 3.963 2.778 0 5.175-1.615 6.313-3.963V.214H.338z"/>
        <path id="prefix__o" d="M0.032 0.172L43.359 0.172 43.359 29.942 0.032 29.942z"/>
        <path id="prefix__r" d="M0.628 0.172L8.588 0.172 8.588 29.942 0.628 29.942z"/>
        <path id="prefix__u" d="M.849 3.38c-1.208 2.397-1.084 4.866.79 5.765 1.872.9 9.265 2.038 10.47-.356C13.313 6.396 7.873 1.373 6 .473 5.615.288 5.22.202 4.824.202c-1.517 0-3.02 1.28-3.975 3.179"/>
        <path id="prefix__x" d="M6.574.473C4.72 1.373-.669 6.396.527 8.789c1.193 2.394 8.515 1.256 10.37.356 1.856-.899 1.979-3.368.784-5.764C10.736 1.48 9.243.2 7.741.2c-.39 0-.784.087-1.167.272"/>
        <path id="prefix__A" d="M0 0.269L298.185 0.269 298.185 49 0 49z"/>
        <path id="prefix__C" d="M0 0.7L298.185 0.7 298.185 49.32 0 49.32z"/>
        <linearGradient id="prefix__k" x1="50%" x2="50%" y1="28.733%" y2="95.725%">
            <stop offset="0%" stop-color="#CC6757"/>
            <stop offset="100%" stop-color="#CC6757"/>
        </linearGradient>
        <linearGradient id="prefix__m" x1="23.004%" x2="128.188%" y1="46.291%" y2="58.896%">
            <stop offset="0%" stop-color="#F2EDD1"/>
            <stop offset="100%" stop-color="#C6C19A"/>
        </linearGradient>
        <linearGradient id="prefix__p" x1="49.999%" x2="49.999%" y1="87.647%" y2="14.427%">
            <stop offset="0%" stop-color="#D89044"/>
            <stop offset="100%" stop-color="#D89044"/>
        </linearGradient>
        <linearGradient id="prefix__s" x1="49.991%" x2="49.991%" y1="85.294%" y2="41.409%">
            <stop offset="0%" stop-color="#F2EDD1"/>
            <stop offset="100%" stop-color="#E2DDC1"/>
        </linearGradient>
        <linearGradient id="prefix__v" x1="49.998%" x2="49.998%" y1="-2.893%" y2="131.872%">
            <stop offset="0%" stop-color="#F2EDD1"/>
            <stop offset="100%" stop-color="#C6C19A"/>
        </linearGradient>
        <linearGradient id="prefix__y" x1="49.999%" x2="49.999%" y1="-2.893%" y2="131.872%">
            <stop offset="0%" stop-color="#F2EDD1"/>
            <stop offset="100%" stop-color="#C6C19A"/>
        </linearGradient>
    </defs>
    <g fill="none" fill-rule="evenodd">
        <path fill="#427E7C" d="M168.518 208L505.518 208 505.518 32 168.518 32z"/>
        <path fill="#63A9A7" d="M154.518 259L521.518 259 521.518 55 154.518 55z"/>
        <g transform="translate(245.518 64)">
            <mask id="prefix__b" fill="#fff">
                <use xlink:href="#prefix__a"/>
            </mask>
            <path fill="#FFF" d="M-0.918 185.38L183.816 185.38 183.816 -0.803 -0.918 -0.803z" mask="url(#prefix__b)"/>
        </g>
        <path fill="#87C392" d="M475.519 173c-8.832 0-16.001-7.171-16.001-16.003 0-8.833 7.17-15.997 16-15.997 8.832 0 16 7.164 16 15.997 0 8.832-7.168 16.003-16 16.003"/>
        <g transform="translate(457.518 54)">
            <mask id="prefix__d" fill="#fff">
                <use xlink:href="#prefix__c"/>
            </mask>
            <path fill="#ABCDDF" d="M-0.916 65.532L65.379 65.532 65.379 -0.794 -0.916 -0.794z" mask="url(#prefix__d)"/>
        </g>
        <g transform="translate(457.518 197)">
            <mask id="prefix__f" fill="#fff">
                <use xlink:href="#prefix__e"/>
            </mask>
            <path fill="#ABCDDF" d="M-0.916 61.513L65.379 61.513 65.379 -3.946 -0.916 -3.946z" mask="url(#prefix__f)"/>
        </g>
        <g>
            <path fill="#87C392" d="M45.775.705c9.005 0 16.318 7.368 16.318 16.445 0 9.071-7.313 16.432-16.318 16.432-9.002 0-16.312-7.36-16.312-16.432 0-9.077 7.31-16.445 16.312-16.445" transform="translate(154.518 139)"/>
            <path fill="#ABCDDF" d="M.098 56.159v62.776h62.29c0-34.67-27.89-62.776-62.29-62.776" transform="translate(154.518 139)"/>
        </g>
        <g transform="translate(154.518 54)">
            <mask id="prefix__h" fill="#fff">
                <use xlink:href="#prefix__g"/>
            </mask>
            <path fill="#ABCDDF" d="M0.182 0.246L66.001 0.186 66.001 66.512 0.097 67.082z" mask="url(#prefix__h)"/>
        </g>
        <g>
            <path fill="#979696" d="M255.786 225.688h46.558v4.177h-46.558c-1.155 0-2.089-.937-2.089-2.09 0-1.152.934-2.087 2.09-2.087" transform="translate(.518)"/>
            <path fill="#656666" d="M317.59 225.688h-15.247v4.177h15.247c1.154 0 2.088-.937 2.088-2.09 0-1.152-.934-2.087-2.088-2.087" transform="translate(.518)"/>
            <path fill="#979696" d="M255.786 252.936h46.558v4.177h-46.558c-1.155 0-2.089-.936-2.089-2.09 0-1.152.934-2.087 2.09-2.087" transform="translate(.518)"/>
            <path fill="#656666" d="M317.59 252.936h-15.247v4.177h15.247c1.154 0 2.088-.936 2.088-2.09 0-1.152-.934-2.087-2.088-2.087" transform="translate(.518)"/>
            <path fill="#62897F" d="M219.22 280.184v-57.632c0-30.978 42.58-40.76 55.478-12.906 13.285-8.661 26.097-7.94 29.036 5.453 21.464-10.233 50.178-7.719 50.185 19.784 9.305-7.464 27.352-1.924 23.795 16.575 17.565-6.48 33.788 11.395 30.066 28.726H219.22z" transform="translate(.518)"/>
            <g transform="translate(.518) translate(340.5 259.384)">
                <mask id="prefix__j" fill="#fff">
                    <use xlink:href="#prefix__i"/>
                </mask>
                <path fill="#84B4A5" d="M21.394.289C33.56.289 45.118 9.173 48.915 20.8H.677C.617 9.173 9.232.289 21.394.289" mask="url(#prefix__j)"/>
            </g>
            <path fill="#ABC341" d="M354.424 176.123c22.843 0 41.362 18.504 41.362 41.332 0 22.829-19.69 41.333-38.771 41.333-11.636 0-33.522-3.63-37.298-28.358-14.15-10.522-9.209-43.59 16.404-45.36 1.052-6.346 10.946-8.947 18.303-8.947" transform="translate(.518)"/>
            <path fill="#849D34" d="M382.8 187.384c7.994 7.535 12.984 18.22 12.984 30.07 0 22.83-19.689 41.334-38.77 41.334-9.439 0-25.623-2.389-33.413-16.493-3.715-10.83 2.75-15.02 21.5-5.286 17.805 9.244 12.791-7.04 26.642-7.04 13.287 0 19.92-15.462 9.459-29.06-9.118-11.857-15.662-26.732 1.599-13.525" transform="translate(.518)"/>
            <path fill="#876542" d="M354.632 280.184h3.713v-21.43c-.443.022-.887.034-1.33.034-.756 0-1.551-.016-2.383-.049v21.445z" transform="translate(.518)"/>
            <path fill="#E3FA69" d="M330.42 225.826c5.703-1.726 4.83 6.888 0 6.888-4.803 0-5.718-8.63 0-6.888M353.058 214.129c5.703-1.727 4.829 6.885 0 6.885-4.801 0-5.719-8.628 0-6.885M377.895 225.826c5.705-1.726 4.83 6.888 0 6.888-4.801 0-5.717-8.63 0-6.888M330.42 204.368c5.703-1.727 4.83 6.885 0 6.885-4.803 0-5.718-8.628 0-6.885M377.895 204.368c5.705-1.727 4.83 6.885 0 6.885-4.801 0-5.717-8.628 0-6.885M352.17 235.718c5.704-1.726 4.83 6.886 0 6.886-4.802 0-5.718-8.63 0-6.886M354.389 192.064c5.702-1.725 4.828 6.888 0 6.888-4.804 0-5.72-8.63 0-6.888" transform="translate(.518)"/>
            <path fill="#FFF" d="M326.856 240.102v40.082h-5.206v-21.43c-.587.16-1.205.247-1.842.247H286.42v21.183h-5.205v-21.183h-3.546c-3.877 0-7.048-3.17-7.048-7.044V228.25c0-3.874 3.171-7.042 7.048-7.042h42.138c3.373 0 6.213 2.4 6.892 5.575.051-.005.104-.009.156-.009 1.64 0 3.125.664 4.2 1.74 1.074 1.074 1.741 2.557 1.741 4.198v24.83c.948.916 1.591 2.686 1.591 4.717 0 2.972-2.447 7.333-3.068 7.333-.62 0-3.066-4.363-3.066-7.333 0-2.031.643-3.801 1.59-4.716v-24.83c0-.825-.333-1.573-.875-2.112-.541-.541-1.288-.877-2.113-.877v10.378z" transform="translate(.518)"/>
            <path fill="#B2B2B2" d="M311.055 280.185L316.262 280.185 316.262 259.001 311.055 259.001zM270.621 251.957c0 3.237 2.217 5.982 5.207 6.797v21.43h-5.207v-28.227z" transform="translate(.518)"/>
            <path fill="#E09393" d="M320.447 259c0 2.878-1.297 5.453-3.34 7.174l2.172 3.596c.421.695.196 1.6-.502 2.02-.697.42-1.602.196-2.022-.5l-2.17-3.593c-.651.265-1.34.459-2.053.57v4.197c0 .815-.662 1.474-1.476 1.474-.815 0-1.475-.66-1.475-1.474v-4.197c-.715-.111-1.404-.305-2.054-.57l-2.17 3.592c-.42.697-1.326.92-2.023.501-.698-.42-.923-1.325-.502-2.02l2.171-3.596c-2.042-1.721-3.339-4.296-3.339-7.175h18.783z" transform="translate(.518)"/>
            <path fill="#4E4E4E" d="M288.432 242.836c5.07 0 11.873 2.564 10.656 8.854-.688 3.562-3.486 5.927-6.703 7.31h-5.963v1.48c-.488.042-.96.062-1.413.062-1.417 0-2.701-.31-3.793-.864V259h-1.087c-2.107-1.595-3.177-4.273-2.59-7.31.945-4.889 5.822-8.854 10.893-8.854M318.868 245.9c2.61 0 5.906.82 7.988 2.69v9.013c-1.38 1.295-3.296 2.128-5.207 2.564v-1.413c-.587.16-1.204.247-1.84.247h-5.99c-1.744-1.34-2.83-3.43-2.761-5.782.122-4.04 3.617-7.32 7.81-7.32M311.93 221.208l-.012.063c-.735 4.332-4.812 6.096-7.437 6.096-2.623 0-4.287-2.728-3.715-6.096l.01-.063h11.153zM310.732 237.321c2.665 0 6.462 1.347 6.364 4.653-.098 3.307-3.975 4.654-6.64 4.654-2.665 0-4.765-2.084-4.689-4.654.076-2.57 2.298-4.653 4.965-4.653" transform="translate(.518)"/>
            <path fill="#E1BE8F" d="M255.23 223.697c2.91 2.864 6.314 4.638 10.84 4.553l-.046.05c-2.356.318-4.264 2.1-4.765 4.396l-.002.001c-4.006-1.592-6.612-4.603-6.91-8.14-.131-1.541.44-1.336.883-.86M285.306 223.697c-2.909 2.864-6.313 4.638-10.839 4.553 2.598 0 4.802 1.777 5.45 4.175 3.643-1.648 5.992-4.526 6.272-7.868.13-1.541-.438-1.336-.883-.86" transform="translate(.518)"/>
            <path fill="#B2B2B2" d="M286.558 231.855c-3.017-1.249-5.991-.994-6.638.569-.65 1.564 1.272 3.846 4.29 5.095 3.018 1.25 5.99.993 6.637-.57.65-1.565-1.271-3.846-4.289-5.094" transform="translate(.518)"/>
            <path fill="#CBCBCB" d="M266.777 228.25h7.69c3.106 0 5.648 2.539 5.648 5.642v17.886c0 3.105-2.542 5.643-5.648 5.643h-7.69c-3.107 0-5.646-2.538-5.646-5.643v-17.886c0-3.103 2.54-5.643 5.646-5.643" transform="translate(.518)"/>
            <path fill="#FFF" d="M266.777 228.25h3.844c3.107 0 5.648 2.539 5.648 5.642v17.886c0 3.105-2.541 5.643-5.648 5.643h-3.844c-3.107 0-5.646-2.538-5.646-5.643v-17.886c0-3.103 2.54-5.643 5.646-5.643" transform="translate(.518)"/>
            <path fill="#4E4E4E" d="M266.07 237.24c.742 0 1.344.602 1.344 1.343 0 .742-.602 1.343-1.345 1.343s-1.344-.6-1.344-1.343c0-.74.601-1.344 1.344-1.344M275.176 237.24c.74 0 1.344.602 1.344 1.343 0 .742-.603 1.343-1.344 1.343-.743 0-1.347-.6-1.347-1.343 0-.74.604-1.344 1.347-1.344" transform="translate(.518)"/>
            <path fill="#E09393" d="M261.563 249.584h18.12c1.544 0 2.81 1.265 2.81 2.81v8.165c0 1.545-1.266 2.81-2.81 2.81h-18.12c-1.548 0-2.812-1.265-2.812-2.81v-8.165c0-1.545 1.264-2.81 2.812-2.81" transform="translate(.518)"/>
            <path fill="#E6B1B1" d="M261.563 249.585h14.413c1.546 0 2.81 1.264 2.81 2.809v5.127c0 1.546-1.264 2.81-2.81 2.81h-14.413c-1.548 0-2.812-1.264-2.812-2.81v-5.127c0-1.545 1.264-2.809 2.812-2.809" transform="translate(.518)"/>
            <path fill="#7D5757" d="M262.14 252.697c.848 0 1.535.686 1.535 1.534 0 .847-.687 1.532-1.535 1.532-.849 0-1.536-.685-1.536-1.532 0-.848.687-1.534 1.536-1.534M279.103 252.697c.849 0 1.537.686 1.537 1.534 0 .847-.688 1.532-1.537 1.532-.846 0-1.533-.685-1.533-1.532 0-.848.687-1.534 1.533-1.534" transform="translate(.518)"/>
            <path fill="#979696" d="M171.296 143.728h46.557v4.175h-46.557c-1.156 0-2.09-.935-2.09-2.088 0-1.152.934-2.087 2.09-2.087M171.296 170.976h46.557v4.177h-46.557c-1.156 0-2.09-.936-2.09-2.089s.934-2.088 2.09-2.088" transform="translate(.518)"/>
            <path fill="#656666" d="M233.1 170.976h-15.248v4.177H233.1c1.155 0 2.089-.936 2.089-2.089s-.934-2.088-2.09-2.088" transform="translate(.518)"/>
            <path fill="#979696" d="M171.296 198.225h46.557v4.177h-46.557c-1.156 0-2.09-.937-2.09-2.09 0-1.152.934-2.087 2.09-2.087" transform="translate(.518)"/>
            <path fill="#656666" d="M233.1 198.225h-15.248v4.177H233.1c1.155 0 2.089-.937 2.089-2.09 0-1.152-.934-2.087-2.09-2.087" transform="translate(.518)"/>
            <path fill="#979696" d="M171.296 225.473h46.557v4.177h-46.557c-1.156 0-2.09-.936-2.09-2.09 0-1.152.934-2.087 2.09-2.087" transform="translate(.518)"/>
            <path fill="#656666" d="M233.1 225.473h-15.248v4.177H233.1c1.155 0 2.089-.936 2.089-2.09 0-1.152-.934-2.087-2.09-2.087" transform="translate(.518)"/>
            <path fill="#979696" d="M171.296 252.722h46.557v4.177h-46.557c-1.156 0-2.09-.937-2.09-2.09 0-1.153.934-2.087 2.09-2.087" transform="translate(.518)"/>
            <path fill="#656666" d="M233.1 252.722h-15.248v4.177H233.1c1.155 0 2.089-.937 2.089-2.09 0-1.153-.934-2.087-2.09-2.087" transform="translate(.518)"/>
            <path fill="#BF505C" d="M44.452 178.128L59.052 163.663 77.059 110.928 138.775 74.481 200.493 110.928 218.498 163.663 233.1 178.128 233.1 279.971 144.939 279.971 138.775 279.971 132.611 279.971 44.452 279.971z" transform="translate(.518)"/>
            <path fill="#F2DA9C" d="M207.76 105.018l-68.986-40.74-68.984 40.74-18.39 53.859-24.087 23.861c-.745.737-.75 1.948-.013 2.692l3.504 3.533c.738.744 1.953.748 2.696.013l25.553-25.312 18.007-52.735 61.714-36.447 61.718 36.447 18.005 52.735 25.555 25.312c.743.735 1.956.731 2.694-.013l3.506-3.533c.736-.744.732-1.955-.013-2.692l-24.089-23.861-18.39-53.859z" transform="translate(.518)"/>
            <path fill="#3C3E4B" d="M114.906 279.97L162.355 279.97 162.355 200.765 114.906 200.765z" transform="translate(.518)"/>
            <path fill="#F2DA9C" d="M67.743 279.97h47.163v-79.205H67.743v79.205zm38.902-73.936H73.02v63.064l33.626-63.064zM76.004 274.7h33.63v-63.064L76.004 274.7zM162.355 279.97h47.163v-79.205h-47.163v79.205zm8.26-73.936h33.63v63.064l-33.63-63.064zm30.642 68.666H167.63v-63.064l33.628 63.064z" transform="translate(.518)"/>
            <path fill="#963B46" d="M57.731 164.974L57.731 279.971 60.478 279.971 60.478 159.491 59.053 163.663zM84.287 106.66L84.287 200.765 87.036 200.765 87.036 105.037zM110.845 90.975L110.845 200.766 113.592 200.766 113.592 89.352zM137.402 75.291L137.402 200.765 140.15 200.765 140.15 75.291 138.775 74.482zM163.96 89.353L163.96 200.765 166.707 200.765 166.707 90.976zM190.516 105.037L190.516 200.764 193.265 200.764 193.265 106.66zM217.074 159.492L217.074 279.969 219.821 279.969 219.821 164.974 218.497 163.664z" transform="translate(.518)"/>
            <path fill="#3C3E4B" d="M107.058 158.062L124.687 158.062 124.687 140.244 107.058 140.244z" transform="translate(.518)"/>
            <path fill="#F2DA9C" d="M107.058 158.062h17.629v-17.618h-17.63v17.618zm0-21.129h17.629v-8.91h-17.63v8.91zm-7.912-8.91v-5.27h33.45v5.27h-2.637v37.943h-5.272v-2.634h-17.63v2.634h-5.273v-37.943h-2.638z" transform="translate(.518)"/>
            <path fill="#3C3E4B" d="M107.058 136.933L124.687 136.933 124.687 128.023 107.058 128.023zM152.863 158.062L170.494 158.062 170.494 140.244 152.863 140.244z" transform="translate(.518)"/>
            <path fill="#F2DA9C" d="M152.863 158.062h17.631v-17.618h-17.63v17.618zm0-21.129h17.631v-8.91h-17.63v8.91zm-7.91-8.91v-5.27h33.449v5.27h-2.636v37.943h-5.272v-2.634h-17.63v2.634h-5.275v-37.943h-2.636z" transform="translate(.518)"/>
            <path fill="#3C3E4B" d="M152.863 136.933L170.494 136.933 170.494 128.023 152.863 128.023z" transform="translate(.518)"/>
            <path fill="#CBCBCB" d="M53.455 197.254L224.097 197.254 224.097 193.74 53.455 193.74z" transform="translate(.518)"/>
            <path fill="#4E4E4E" d="M172.633 186.978c2.838 0 5.138 2.3 5.138 5.136 0 2.835-2.3 5.134-5.138 5.134-2.837 0-5.139-2.299-5.139-5.134 0-2.836 2.302-5.136 5.14-5.136" transform="translate(.518)"/>
            <path fill="#CBCBCB" d="M170.875 200.765v-8.652c0-.966.792-1.755 1.759-1.755.964 0 1.756.79 1.756 1.755v8.652h-3.515z" transform="translate(.518)"/>
            <path fill="#4E4E4E" d="M199.241 186.978c2.838 0 5.14 2.3 5.14 5.136 0 2.835-2.302 5.134-5.14 5.134-2.838 0-5.137-2.299-5.137-5.134 0-2.836 2.3-5.136 5.137-5.136" transform="translate(.518)"/>
            <path fill="#CBCBCB" d="M197.485 200.765v-8.652c0-.966.79-1.755 1.756-1.755.967 0 1.759.79 1.759 1.755v8.652h-3.515z" transform="translate(.518)"/>
            <path fill="#4E4E4E" d="M78.021 186.978c2.838 0 5.138 2.3 5.138 5.136 0 2.835-2.3 5.134-5.138 5.134s-5.137-2.299-5.137-5.134c0-2.836 2.3-5.136 5.137-5.136" transform="translate(.518)"/>
            <path fill="#CBCBCB" d="M76.263 200.765v-8.652c0-.966.792-1.755 1.758-1.755.967 0 1.759.79 1.759 1.755v8.652h-3.517z" transform="translate(.518)"/>
            <path fill="#4E4E4E" d="M104.63 186.978c2.838 0 5.138 2.3 5.138 5.136 0 2.835-2.3 5.134-5.137 5.134-2.838 0-5.138-2.299-5.138-5.134 0-2.836 2.3-5.136 5.138-5.136" transform="translate(.518)"/>
            <path fill="#CBCBCB" d="M102.873 200.765v-8.652c0-.966.792-1.755 1.758-1.755.967 0 1.757.79 1.757 1.755v8.652h-3.515z" transform="translate(.518)"/>
            <path fill="#76232C" d="M138.775 74.481L200.492 110.928 204.511 122.696 144.953 87.525 83.239 123.972 65.233 176.709 44.452 197.29 44.452 178.128 59.052 163.663 77.059 110.928z" transform="translate(.518)"/>
            <path fill="#FFF" d="M114.906 258.786h7.198v21.184h5.205v-21.184h3.546c3.876 0 7.048-3.17 7.048-7.043v-23.707c0-3.874-3.172-7.042-7.048-7.042h-15.949v37.792z" transform="translate(.518)"/>
            <path fill="#B2B2B2" d="M132.697 258.54v21.43h5.206v-28.227c0 3.237-2.216 5.982-5.206 6.797" transform="translate(.518)"/>
            <path fill="#4E4E4E" d="M125.262 241.76c-3.229 0-7.828 1.63-7.709 5.635.119 4.007 4.813 5.637 8.041 5.637 3.228 0 5.77-2.524 5.679-5.637-.09-3.112-2.785-5.635-6.011-5.635" transform="translate(.518)"/>
            <path fill="#E1BE8F" d="M122.512 223.482c2.908 2.865 6.314 4.638 10.84 4.553l-.046.05c-2.356.319-4.265 2.101-4.767 4.396v.002c-4.005-1.592-6.612-4.604-6.91-8.14-.131-1.542.438-1.336.883-.86M152.588 223.482c-2.909 2.865-6.315 4.638-10.84 4.553 2.6 0 4.801 1.777 5.452 4.175 3.642-1.648 5.99-4.525 6.27-7.867.132-1.542-.439-1.336-.882-.86" transform="translate(.518)"/>
            <path fill="#B2B2B2" d="M121.901 231.912c3.018-1.249 5.99-.995 6.639.57.648 1.565-1.274 3.845-4.291 5.094-3.018 1.25-5.99.995-6.639-.568-.648-1.567 1.274-3.847 4.291-5.096M153.84 231.64c-3.019-1.248-5.991-.994-6.638.569-.65 1.565 1.272 3.847 4.29 5.096 3.017 1.249 5.99.993 6.637-.57.649-1.565-1.271-3.847-4.289-5.094" transform="translate(.518)"/>
            <path fill="#CBCBCB" d="M134.057 228.035h7.69c3.107 0 5.648 2.54 5.648 5.642v17.887c0 3.104-2.541 5.642-5.648 5.642h-7.69c-3.104 0-5.646-2.538-5.646-5.642v-17.887c0-3.102 2.542-5.642 5.646-5.642" transform="translate(.518)"/>
            <path fill="#FFF" d="M134.057 228.035h3.846c3.107 0 5.648 2.54 5.648 5.642v17.887c0 3.104-2.541 5.642-5.648 5.642h-3.846c-3.104 0-5.646-2.538-5.646-5.642v-17.887c0-3.102 2.542-5.642 5.646-5.642" transform="translate(.518)"/>
            <path fill="#4E4E4E" d="M133.351 237.025c.742 0 1.345.603 1.345 1.343 0 .743-.603 1.344-1.345 1.344-.743 0-1.344-.601-1.344-1.344 0-.74.601-1.343 1.344-1.343M142.456 237.025c.743 0 1.344.603 1.344 1.343 0 .743-.601 1.344-1.344 1.344-.741 0-1.344-.601-1.344-1.344 0-.74.603-1.343 1.344-1.343" transform="translate(.518)"/>
            <path fill="#E09393" d="M128.845 249.37h18.118c1.546 0 2.812 1.264 2.812 2.81v8.165c0 1.545-1.266 2.81-2.812 2.81h-18.118c-1.548 0-2.812-1.265-2.812-2.81v-8.166c0-1.545 1.264-2.81 2.812-2.81" transform="translate(.518)"/>
            <path fill="#E6B1B1" d="M128.843 249.37h14.416c1.546 0 2.81 1.264 2.81 2.81v5.126c0 1.547-1.264 2.81-2.81 2.81h-14.416c-1.546 0-2.81-1.263-2.81-2.81v-5.127c0-1.545 1.264-2.808 2.81-2.808" transform="translate(.518)"/>
            <path fill="#7D5757" d="M129.42 252.482c.848 0 1.535.686 1.535 1.534s-.687 1.532-1.535 1.532c-.846 0-1.533-.684-1.533-1.532 0-.847.687-1.534 1.533-1.534M146.386 252.482c.848 0 1.535.686 1.535 1.534s-.687 1.532-1.535 1.532c-.849 0-1.536-.684-1.536-1.532 0-.847.687-1.534 1.536-1.534" transform="translate(.518)"/>
            <path fill="#87C2BF" d="M485.06 204.674c1.118 0 2.026-.907 2.026-2.026v-17.59c0-2.275.625-4.142 1.804-5.398.98-1.044 2.297-1.616 3.708-1.616 2.682 0 5.568 2.195 5.568 7.013v17.591c0 1.119.909 2.026 2.028 2.026s2.025-.907 2.025-2.026v-17.59c0-7.266-4.84-11.065-9.62-11.065-4.755 0-9.565 3.8-9.565 11.064v17.591c0 1.119.906 2.026 2.025 2.026" transform="translate(.518)"/>
            <path fill="#EED088" d="M481.514 210.954h-2.098v-7.946h26.422v7.946h-2.1l8.429 69.175h-4.485c-5.261 0-12.041-2.64-15.055-5.97-2.994 3.36-9.794 5.97-15.057 5.97h-4.485l8.43-69.175z" transform="translate(.518)"/>
            <path fill="#E6B579" d="M479.416 210.954v-7.946h13.21v71.152c-2.993 3.358-9.793 5.969-15.056 5.969h-4.483l8.427-69.175h-2.098z" transform="translate(.518)"/>
            <path fill="#187E89" d="M427.493 202.829c1.12 0 2.026-.908 2.026-2.026v-8.525c0-4.41 1.513-8.084 4.373-10.63 2.561-2.276 6.031-3.528 9.77-3.528 6.829 0 14.177 4.43 14.177 14.158v8.525c0 1.118.908 2.026 2.027 2.026 1.121 0 2.028-.908 2.028-2.026v-8.525c0-11.955-9.17-18.21-18.232-18.21-4.734 0-9.162 1.617-12.464 4.554-3.75 3.335-5.732 8.057-5.732 13.656v8.525c0 1.118.908 2.026 2.027 2.026" transform="translate(.518)"/>
            <path fill="#D4EEFF" d="M32.721 99.642C38.392 87.932 47.021 80 55.504 80c10.67 0 17.636 12.547 17.305 29.383 3.977-3.142 9.457-5.153 15.1-5.153 9.88 0 16.52 6.164 14.828 13.77H0c0-12.17 9.433-22.033 21.07-22.033 4.308 0 8.313 1.354 11.651 3.675zM73.387 29.302C79.153 12.33 90.433 0 101.482 0c11.074 0 18.499 12.386 18.917 29.42 2.272-.35 4.623-.54 6.995-.54 13.086 0 21.877 5.714 19.635 12.761H41.813c-3.13-11.277 3.052-20.416 13.812-20.416 6.333 0 12.842 3.17 17.762 8.077z" transform="translate(.518)"/>
        </g>
        <path fill="url(#prefix__k)" d="M400.518 281L463.518 281 463.518 202 400.518 202z"/>
        <g>
            <path fill="#BF423C" d="M0.335 78.945L13.295 78.945 13.295 0.216 0.335 0.216z" transform="translate(461.518 201)"/>
            <path fill="#C6C29B" d="M13.284 15.563c-1.167 2.327-3.628 3.93-6.475 3.93-2.848 0-5.308-1.603-6.474-3.93V.217h12.96v15.312l-.011.034z" transform="translate(461.518 201)"/>
        </g>
        <g transform="translate(399.518 201)">
            <mask id="prefix__n" fill="#fff">
                <use xlink:href="#prefix__l"/>
            </mask>
            <path fill="url(#prefix__m)" d="M.338.214v15.48c1.138 2.347 3.537 3.96 6.31 3.96 2.778 0 5.18-1.615 6.315-3.963 1.135 2.348 3.538 3.963 6.314 3.963 2.777 0 5.176-1.615 6.314-3.963 1.137 2.348 3.536 3.963 6.316 3.963 2.776 0 5.175-1.615 6.31-3.963 1.138 2.348 3.538 3.963 6.314 3.963 2.778 0 5.179-1.615 6.316-3.963 1.136 2.348 3.535 3.963 6.312 3.963 2.778 0 5.175-1.615 6.313-3.963V.214H.338z" mask="url(#prefix__n)"/>
        </g>
        <path fill="#F5C268" d="M375.518 252L424.518 252 424.518 239 375.518 239z"/>
        <g transform="translate(377.518 251)">
            <mask id="prefix__q" fill="#fff">
                <use xlink:href="#prefix__o"/>
            </mask>
            <path fill="url(#prefix__p)" d="M0.032 29.942L43.359 29.942 43.359 0.172 0.032 0.172z" mask="url(#prefix__q)"/>
        </g>
        <g transform="translate(395.518 251)">
            <mask id="prefix__t" fill="#fff">
                <use xlink:href="#prefix__r"/>
            </mask>
            <path fill="url(#prefix__s)" d="M0.628 29.942L8.588 29.942 8.588 0.172 0.628 0.172z" mask="url(#prefix__t)"/>
        </g>
        <path fill="#F2EED1" d="M396.518 252L404.518 252 404.518 239 396.518 239z"/>
        <g transform="translate(387.518 228)">
            <mask id="prefix__w" fill="#fff">
                <use xlink:href="#prefix__u"/>
            </mask>
            <path fill="url(#prefix__v)" d="M.849 3.38c-1.208 2.397-1.084 4.866.79 5.765 1.872.9 9.265 2.038 10.47-.356C13.313 6.396 7.873 1.373 6 .473 5.615.288 5.22.202 4.824.202c-1.517 0-3.02 1.28-3.975 3.179" mask="url(#prefix__w)"/>
        </g>
        <g transform="translate(398.518 228)">
            <mask id="prefix__z" fill="#fff">
                <use xlink:href="#prefix__x"/>
            </mask>
            <path fill="url(#prefix__y)" d="M6.574.473C4.72 1.373-.669 6.396.527 8.789c1.193 2.394 8.515 1.256 10.37.356 1.856-.899 1.979-3.368.784-5.764C10.736 1.48 9.243.2 7.741.2c-.39 0-.784.087-1.167.272" mask="url(#prefix__z)"/>
        </g>
        <path fill="#2CABAE" d="M416.52 212c1.106 0 2.003-.9 2.003-2.01v-16.908c0-4.38 1.494-8.026 4.322-10.555 2.53-2.261 5.958-3.505 9.655-3.505 6.747 0 14.009 4.399 14.009 14.06v16.908c0 1.11.897 2.01 2.003 2.01 1.108 0 2.006-.9 2.006-2.01v-16.908c0-11.871-9.065-18.082-18.018-18.082-4.68 0-9.056 1.604-12.32 4.521-3.703 3.314-5.662 8.003-5.662 13.56v16.909c0 1.11.896 2.01 2.002 2.01"/>
        <g fill="#427E7C">
            <path d="M18.724 44.187c-.008-1.494-.542-2.754-1.603-3.78-1.059-1.021-2.836-1.952-5.347-2.77-3.483-1.043-6.033-2.415-7.635-4.106-1.601-1.71-2.405-3.868-2.418-6.49-.01-2.675.76-4.87 2.32-6.592 1.552-1.72 3.689-2.744 6.424-3.078l-.019-5.357L14.1 12l.024 5.377c2.746.367 4.89 1.497 6.427 3.419 1.539 1.92 2.311 4.553 2.327 7.897l-4.512.02c-.01-2.312-.57-4.144-1.666-5.494-1.107-1.35-2.581-2.03-4.445-2.025-1.951.01-3.435.521-4.464 1.531-1.029 1.01-1.54 2.414-1.53 4.21.008 1.67.554 2.987 1.648 3.982 1.09.976 2.889 1.872 5.384 2.66 2.496.809 4.451 1.685 5.851 2.654 1.4.964 2.432 2.089 3.108 3.372.659 1.285 1 2.794 1.012 4.522.01 2.754-.81 4.98-2.465 6.66-1.655 1.687-3.974 2.694-6.968 3.02l.023 4.666-3.634.013-.023-4.665c-3.04-.273-5.428-1.341-7.163-3.218C1.301 48.72.43 46.17.418 42.95l4.537-.018c.007 2.266.612 4.004 1.81 5.229 1.2 1.22 2.894 1.822 5.086 1.81 2.142-.006 3.83-.536 5.05-1.566 1.22-1.031 1.832-2.437 1.823-4.218" transform="translate(267.518 112)"/>
            <text font-family="Roboto-Regular, Roboto" font-size="62.4" transform="translate(267.518 112)">
                <tspan x="28.6" y="58">600</tspan>
            </text>
        </g>
        <g>
            <g transform="translate(127.518 281) translate(0 15.678)">
                <mask id="prefix__B" fill="#fff">
                    <use xlink:href="#prefix__A"/>
                </mask>
                <path fill="#D0D2D3" d="M286.162 49H12.024C5.384 49 0 43.506 0 36.728V12.54C0 5.763 5.383.27 12.024.27h274.138c6.64 0 12.024 5.493 12.024 12.27v24.188c0 6.778-5.384 12.272-12.024 12.272" mask="url(#prefix__B)"/>
            </g>
            <g transform="translate(127.518 281) translate(0 11.678)">
                <mask id="prefix__D" fill="#fff">
                    <use xlink:href="#prefix__C"/>
                </mask>
                <path fill="#FFF" d="M286.162 49.32H12.024C5.384 49.32 0 43.84 0 37.077V12.944C0 6.18 5.383.7 12.024.7h274.138c6.64 0 12.024 5.481 12.024 12.244v24.133c0 6.762-5.384 12.243-12.024 12.243" mask="url(#prefix__D)"/>
            </g>
            <path fill="#FFF" d="M161 12.179L149.499 23.678 138 12.179 149.499 0.678z" transform="translate(127.518 281)"/>
        </g>
        <g fill="#0E6DA0" font-family="PingFangTC-Semibold, PingFang TC" font-size="24" font-weight="500" letter-spacing="2">
            <text transform="translate(142.518 302)">
                <tspan x="8" y="25">農遊券合作的相關業者</tspan>
            </text>
        </g>
    </g>
</svg>
