<?xml version="1.0" encoding="UTF-8"?>
<svg width="574px" height="232px" viewBox="0 0 574 232" version="1.1" xmlns="http://www.w3.org/2000/svg" xmlns:xlink="http://www.w3.org/1999/xlink">
    <!-- Generator: Sketch 64 (93537) - https://sketch.com -->
    <title>error</title>
    <desc>Created with Sketch.</desc>
    <defs>
        <linearGradient x1="12.2565425%" y1="42.0357321%" x2="89.6539002%" y2="56.3380384%" id="linearGradient-1">
            <stop stop-color="#F25B22" stop-opacity="0.99885271" offset="0%"></stop>
            <stop stop-color="#A60B0F" offset="100%"></stop>
        </linearGradient>
        <path d="M133.05,225 L133.05,164.4 L162.15,164.4 L162.15,142.5 L133.05,142.5 L133.05,5.1 L102.75,5.1 L11.25,146.4 L11.25,164.4 L106.95,164.4 L106.95,225 L133.05,225 Z M106.95,142.5 L39.75,142.5 L89.85,67.5 C96.15,56.7 102.15,45.9 107.55,35.1 L108.75,35.1 C108.15,46.5 106.95,64.2 106.95,75 L106.95,142.5 Z M288.483333,228.9 C330.183333,228.9 356.883333,190.8 356.883333,114.3 C356.883333,38.1 330.183333,0.9 288.483333,0.9 C246.483333,0.9 219.783333,37.8 219.783333,114.3 C219.783333,190.8 246.483333,228.9 288.483333,228.9 Z M288.483333,207 C263.283333,207 246.483333,179.1 246.483333,114.3 C246.483333,50.1 263.283333,23.1 288.483333,23.1 C313.383333,23.1 330.183333,50.1 330.183333,114.3 C330.183333,179.1 313.383333,207 288.483333,207 Z M532.716667,225 L532.716667,164.4 L561.816667,164.4 L561.816667,142.5 L532.716667,142.5 L532.716667,5.1 L502.416667,5.1 L410.916667,146.4 L410.916667,164.4 L506.616667,164.4 L506.616667,225 L532.716667,225 Z M506.616667,142.5 L439.416667,142.5 L489.516667,67.5 C495.816667,56.7 501.816667,45.9 507.216667,35.1 L508.416667,35.1 C507.816667,46.5 506.616667,64.2 506.616667,75 L506.616667,142.5 Z" id="path-2"></path>
    </defs>
    <g id="error" stroke="none" stroke-width="1" fill="none" fill-rule="evenodd">
        <g id="404" fill-rule="nonzero">
            <use fill="#FFFFFF" xlink:href="#path-2"></use>
            <use fill="url(#linearGradient-1)" xlink:href="#path-2"></use>
        </g>
    </g>
</svg>