<?xml version="1.0" encoding="UTF-8"?>
<svg width="20px" height="20px" viewBox="0 0 20 20" version="1.1" xmlns="http://www.w3.org/2000/svg" xmlns:xlink="http://www.w3.org/1999/xlink">
    <!-- Generator: Sketch 64 (93537) - https://sketch.com -->
    <title>night-mark_gray</title>
    <desc>Created with Sketch.</desc>
    <g id="小資振興_確認風格" stroke="none" stroke-width="1" fill="none" fill-rule="evenodd">
        <g id="小資振興_商家列表" transform="translate(-282.000000, -1123.000000)" fill="#AAAAAA" fill-rule="nonzero" stroke="#AAAAAA" stroke-width="0.3">
            <g id="夜市" transform="translate(282.000000, 1123.000000)">
                <g id="miscellaneous" transform="translate(4.000000, 2.000000)">
                    <path d="M7.83889358,3.26620566 C7.94378063,3.26620566 8.02882443,3.35124946 8.02882443,3.45613651 L8.02882443,4.08275707 L8.655445,4.08275707 C8.76033205,4.08275707 8.84537584,4.16780087 8.84537584,4.27268792 C8.84537584,4.37757497 8.76033205,4.46261877 8.655445,4.46261877 L8.02882443,4.46261877 L8.02882443,5.08923934 C8.02882443,5.19412639 7.94378063,5.27917019 7.83889358,5.27917019 C7.73400653,5.27917019 7.64896273,5.19412639 7.64896273,5.08923934 L7.64896273,4.46261877 L7.02234217,4.46261877 C6.91745511,4.46261877 6.83241132,4.37757497 6.83241132,4.27268792 C6.83241132,4.16780087 6.91745511,4.08275707 7.02234217,4.08275707 L7.64896273,4.08275707 L7.64896273,3.45613651 C7.64896273,3.35124946 7.73400653,3.26620566 7.83889358,3.26620566 Z" id="Path"></path>
                    <path d="M5.25874284,2.15180772 C5.21150312,2.09277709 5.13395658,2.06736463 5.06111639,2.08699442 C3.4118887,2.5308555 2.2597234,4.03310611 2.2597234,5.73924693 C2.2597234,7.82659016 3.95837077,9.52523754 6.04571401,9.52523754 C7.45527257,9.52523754 8.73883521,8.74899522 9.396663,7.49852297 C9.43181036,7.43168598 9.42404418,7.35037137 9.37693824,7.29147628 C9.32969635,7.23244294 9.25214348,7.20702483 9.17922549,7.22669502 C8.88202608,7.30665674 8.58401748,7.34736229 8.29325545,7.34736229 C6.4148371,7.34736229 4.88712653,5.81965172 4.88712653,3.94123337 C4.88712653,3.38534359 5.01905369,2.85198817 5.27848832,2.35884766 C5.31364034,2.29202591 5.30587672,2.21073458 5.25874284,2.15180772 Z M4.70810632,2.52545785 L4.57262672,3.24444714 C4.52919123,3.47495899 4.50723217,3.70845238 4.50723217,3.94120071 C4.50723217,5.94345773 6.07314923,7.59600032 8.05438608,7.71973246 L8.15903898,7.72482667 L8.8882221,7.75030636 L8.35201262,8.24511605 C7.72626101,8.82255449 6.90613451,9.14537584 6.04571401,9.14537584 C4.16729566,9.14537584 2.63958509,7.61766527 2.63958509,5.73924693 C2.63958509,4.6574335 3.15637429,3.64744831 4.01371447,3.00930199 L4.10686745,2.94236569 L4.70810632,2.52545785 Z" id="Shape"></path>
                    <path d="M6.04248047,-2.13162821e-13 C2.87633064,-2.13162821e-13 0.3,2.57632103 0.3,5.74248047 C0.3,7.71177681 1.29182796,9.52046237 2.95440718,10.5827581 C3.41206603,10.8751273 3.69824728,11.3471852 3.72710387,11.8591104 L3.72951594,11.9447764 L3.72951594,13.2874155 C3.72951594,13.5935059 3.89522621,13.8706553 4.15475642,14.0193586 L4.21177986,14.0492213 L4.38275707,14.1306721 L4.38275707,15.279801 C4.38275707,15.7250998 4.73038389,16.0912807 5.16831644,16.1210227 L5.22592905,16.122973 L6.85903188,16.122973 C7.30433067,16.122973 7.6705116,15.7753462 7.70025359,15.3374136 L7.70220386,15.279801 L7.70220386,14.1306721 L7.87318108,14.0492213 C8.14574736,13.9193751 8.32962871,13.6539754 8.35293481,13.3525271 L8.355445,13.2874155 L8.355445,11.9447764 C8.355445,11.4002156 8.64744476,10.8914297 9.13050387,10.5827691 C10.7931372,9.52045864 11.7849609,7.71180463 11.7849609,5.74248047 C11.7849609,2.5763095 9.20865144,-2.13162821e-13 6.04248047,-2.13162821e-13 Z M7.32234217,14.1305875 L7.32234217,15.279801 C7.32234217,15.5195523 7.1399027,15.7169762 6.90637886,15.7407177 L6.85903188,15.7431113 L5.22592905,15.7431113 C4.98617776,15.7431113 4.78875384,15.5606718 4.76501238,15.327148 L4.76261877,15.279801 L4.76261877,14.1305875 L7.32234217,14.1305875 Z M7.9755833,12.1382021 L7.9755833,13.2874155 C7.9755833,13.5271668 7.79314383,13.7245908 7.55961999,13.7483322 L7.51227302,13.7507258 L4.57268792,13.7507258 C4.33293663,13.7507258 4.13551271,13.5682864 4.11177125,13.3347625 L4.10937764,13.2874155 L4.10937764,12.1382021 L7.9755833,12.1382021 Z M6.04248047,0.379861698 C8.99969388,0.379861698 11.4050992,2.78526705 11.4050992,5.74248047 C11.4050992,7.53681852 10.5214838,9.19052281 9.0357724,10.1906443 L8.92599137,10.26265 C8.48863296,10.5420823 8.17857016,10.9570654 8.04657039,11.4291448 L8.02255966,11.5242987 L7.96981234,11.7583404 L4.11515154,11.7583404 L4.06240207,11.5243022 C3.94716683,11.0130279 3.62547861,10.5607338 3.15893088,10.2626135 C1.6071172,9.27109343 0.679861698,7.58055758 0.679861698,5.74248047 C0.679861698,2.78526705 3.08526705,0.379861698 6.04248047,0.379861698 Z" id="Shape"></path>
                </g>
            </g>
        </g>
    </g>
</svg>