<?xml version="1.0" encoding="UTF-8"?>
<svg width="20px" height="20px" viewBox="0 0 20 20" version="1.1" xmlns="http://www.w3.org/2000/svg" xmlns:xlink="http://www.w3.org/1999/xlink">
    <!-- Generator: Sketch 64 (93537) - https://sketch.com -->
    <title>cocktail_gray</title>
    <desc>Created with Sketch.</desc>
    <g id="小資振興_確認風格" stroke="none" stroke-width="1" fill="none" fill-rule="evenodd" stroke-linecap="square">
        <g id="小資振興_商家列表" transform="translate(-319.000000, -1040.000000)" stroke="#AAAAAA">
            <g id="cocktail_gray" transform="translate(319.000000, 1040.000000)">
                <g id="menu_category_card" transform="translate(1.000000, 3.000000)">
                    <path d="M13.3959795,13.1512987 C13.106555,13.1512987 12.8871298,12.7311015 12.6257853,12.6462598 C12.355415,12.5584095 11.9312064,12.7664021 11.7059647,12.6025353 C11.4783161,12.4366627 11.5459087,11.9683284 11.3804373,11.7406798 C11.2165704,11.5154381 10.749239,11.4358113 10.6611881,11.1652404 C10.5763464,10.9040964 10.9048824,10.565933 10.9048824,10.2765084 C10.9048824,9.9872844 10.5763464,9.64912097 10.6611881,9.38797697 C10.749239,9.11740611 11.2165704,9.03757869 11.3804373,8.81233697 C11.5461093,8.58488897 11.4783161,8.11615354 11.7059647,7.95068211 C11.9312064,7.78681526 12.355415,7.99480783 12.6259858,7.90695754 C12.8871298,7.82211583 13.106555,7.40171811 13.3959795,7.40171811 C13.6854041,7.40171811 13.9048293,7.82211583 14.1661738,7.90695754 C14.4365441,7.99480783 14.8607527,7.78681526 15.0859944,7.95068211 C15.313643,8.11635411 15.2460504,8.58488897 15.4115218,8.81253754 C15.5753887,9.03777926 16.0429207,9.11740611 16.130771,9.38797697 C16.2156127,9.64912097 15.8870767,9.9872844 15.8870767,10.2765084 C15.8870767,10.565933 16.2156127,10.9040964 16.130771,11.1652404 C16.0427201,11.4358113 15.5753887,11.5154381 15.4115218,11.7408804 C15.2460504,11.9683284 15.313643,12.4366627 15.0859944,12.6025353 C14.8607527,12.7664021 14.4365441,12.5584095 14.1659733,12.6462598 C13.9048293,12.7311015 13.6854041,13.1512987 13.3959795,13.1512987 Z" id="Stroke-1" stroke-width="0.7"></path>
                    <line x1="14.4566213" y1="9.2160672" x2="12.3353779" y2="11.3371101" id="Stroke-3" stroke-width="0.7"></line>
                    <path d="M13.0003123,9.57019611 C13.0003123,9.74168469 12.8611157,9.88088126 12.6894266,9.88088126 C12.517938,9.88088126 12.3787414,9.74168469 12.3787414,9.57019611 C12.3787414,9.39850697 12.517938,9.2593104 12.6894266,9.2593104 C12.8611157,9.2593104 13.0003123,9.39850697 13.0003123,9.57019611 Z" id="Stroke-5" stroke-width="0.5"></path>
                    <path d="M14.1024723,10.6723562 C13.9309838,10.6723562 13.7915866,10.8113522 13.7915866,10.9830413 C13.7915866,11.1545299 13.9309838,11.293927 14.1024723,11.293927 C14.2739609,11.293927 14.4131575,11.1545299 14.4131575,10.9830413 C14.4131575,10.8113522 14.2739609,10.6723562 14.1024723,10.6723562 Z" id="Stroke-7" stroke-width="0.5"></path>
                    <path d="M13.3959795,6.0456948 C11.0593224,6.0456948 9.16492526,7.93989137 9.16492526,10.2765485 C9.16492526,11.1684897 9.44171383,11.9952451 9.91285611,12.6773885 L9.24595611,14.4396091 L11.0107841,13.7711045 C11.689919,14.2354274 12.5110584,14.5074022 13.3959795,14.5074022 C15.7326367,14.5074022 17.6270338,12.6132057 17.6270338,10.2765485 C17.6270338,7.93989137 15.7326367,6.0456948 13.3959795,6.0456948 Z" id="Stroke-9" stroke-width="0.7"></path>
                    <path d="M14.7592234,5.325864 L14.7592234,1.09741714 C14.7592234,0.822634286 14.5363886,0.6 14.2618063,0.6 L0.857417143,0.6 C0.582634286,0.6 0.36,0.822634286 0.36,1.09741714 L0.36,9.04425771 C0.36,9.31904057 0.582634286,9.54187543 0.857417143,9.54187543 L8.18429143,9.54187543" id="Stroke-11" stroke-width="0.7"></path>
                    <line x1="0.36" y1="2.46812229" x2="14.7592234" y2="2.46812229" id="Stroke-13" stroke-width="0.7"></line>
                    <line x1="0.36" y1="4.37042194" x2="13.5202937" y2="4.37042194" id="Stroke-15" stroke-width="0.7"></line>
                    <path d="M3.0440268,7.59308331 C3.0440268,7.97757874 2.7323388,8.28926674 2.34784337,8.28926674 C1.96354851,8.28926674 1.65206109,7.97757874 1.65206109,7.59308331 C1.65206109,7.20878846 1.96354851,6.89710046 2.34784337,6.89710046 C2.7323388,6.89710046 3.0440268,7.20878846 3.0440268,7.59308331 Z" id="Stroke-17" stroke-width="0.7"></path>
                    <line x1="4.08996669" y1="8.28920657" x2="4.8417084" y2="8.28920657" id="Stroke-19" stroke-width="0.7"></line>
                    <line x1="4.08996669" y1="6.89714057" x2="6.91922726" y2="6.89714057" id="Stroke-21" stroke-width="0.7"></line>
                    <line x1="5.86474303" y1="8.28920657" x2="7.62916989" y2="8.28920657" id="Stroke-23" stroke-width="0.7"></line>
                </g>
            </g>
        </g>
    </g>
</svg>