<?xml version="1.0" encoding="UTF-8"?>
<svg width="20px" height="20px" viewBox="0 0 20 20" version="1.1" xmlns="http://www.w3.org/2000/svg" xmlns:xlink="http://www.w3.org/1999/xlink">
    <!-- Generator: Sketch 64 (93537) - https://sketch.com -->
    <title>shopping-bag_gray</title>
    <desc>Created with Sketch.</desc>
    <g id="小資振興_確認風格" stroke="none" stroke-width="1" fill="none" fill-rule="evenodd">
        <g id="小資振興_商家列表" transform="translate(-270.000000, -1040.000000)" stroke="#AAAAAA">
            <g id="shopping-bag_gray" transform="translate(270.000000, 1040.000000)">
                <g id="menu_category_shop" transform="translate(0.000000, 3.000000)">
                    <polyline id="Stroke-181" stroke-width="0.7" stroke-linecap="square" points="14.6197743 3.49562933 15.570579 3.49562933 17.097717 15.1379501 5.84110369 15.1379501 7.368048 3.49562933 9.45679624 3.49562933"></polyline>
                    <line x1="10.5978975" y1="3.49562933" x2="13.4820826" y2="3.49562933" id="Stroke-182" stroke-width="0.7" stroke-linecap="square"></line>
                    <path d="M9.45673812,4.23647435 L9.45673812,2.4660171 C9.45673812,1.89472063 9.91993576,1.4317167 10.4910385,1.4317167 L12.447666,1.4317167 C13.0189624,1.4317167 13.4819664,1.89472063 13.4819664,2.4660171 L13.4819664,4.23647435" id="Stroke-183" stroke-width="0.7" stroke-linecap="square"></path>
                    <polyline id="Stroke-184" stroke-width="0.7" stroke-linecap="square" points="8.41999678 11.2787059 8.21658502 13.2149922 14.7389348 13.2149922 14.5283552 11.2746376"></polyline>
                    <line x1="16.808078" y1="3.60138408" x2="18.3408341" y2="15.0319629" id="Stroke-185" stroke-width="0.7" stroke-linecap="square"></line>
                    <path d="M9.98928949,4.97297992 C9.98928949,5.26724894 9.75100714,5.50553129 9.45673812,5.50553129 C9.1624691,5.50553129 8.92418675,5.26724894 8.92418675,4.97297992 C8.92418675,4.6787109 9.1624691,4.44023482 9.45673812,4.44023482 C9.75100714,4.44023482 9.98928949,4.6787109 9.98928949,4.97297992 Z" id="Stroke-187" stroke-width="0.7"></path>
                    <path d="M14.0145758,4.97297992 C14.0145758,5.26724894 13.7762935,5.50553129 13.4820245,5.50553129 C13.1877555,5.50553129 12.9494731,5.26724894 12.9494731,4.97297992 C12.9494731,4.6787109 13.1877555,4.44023482 13.4820245,4.44023482 C13.7762935,4.44023482 14.0145758,4.6787109 14.0145758,4.97297992 Z" id="Stroke-189" stroke-width="0.7"></path>
                    <path d="M3.11629059,4.78791869 C2.95339974,4.95097098 3.01813634,5.27965856 3.26077752,5.52229974 C3.50325725,5.76510235 3.76607817,5.89570562 3.99499712,5.66678667 C4.22391608,5.43786771 4.09331281,5.1750468 3.85067163,4.93256706 C3.60786902,4.68992588 3.49227948,4.4119298 3.70602327,4.19818601 C3.9199285,3.98428078 4.19776314,4.09987033 4.44040431,4.3425115 C4.68304549,4.58531412 4.74778209,4.9140017 4.58505268,5.07689255" id="Stroke-190" stroke-width="0.4" stroke-linecap="square"></path>
                    <line x1="4.44042046" y1="4.34254379" x2="4.70469431" y2="4.07843137" id="Stroke-191" stroke-width="0.4" stroke-linecap="square"></line>
                    <line x1="2.98039216" y1="5.80258824" x2="3.24466601" y2="5.53847582" id="Stroke-192" stroke-width="0.4" stroke-linecap="square"></line>
                    <polyline id="Stroke-193" stroke-width="0.7" stroke-linecap="square" points="6.2666922 5.84899045 3.67485656 8.49026737 0.454360784 5.20800052 4.54487578 1.03928698 6.26437304 1.03928698 7.53279216 2.33173336"></polyline>
                    <path d="M6.26195294,3.4367949 C6.02599529,3.67255882 5.6437749,3.67255882 5.40781725,3.4367949 C5.17185961,3.20083725 5.17185961,2.81861686 5.40781725,2.58265921 C5.6437749,2.34670157 6.02599529,2.34670157 6.26195294,2.58265921 C6.49771686,2.81861686 6.49771686,3.20083725 6.26195294,3.4367949 Z" id="Stroke-194" stroke-width="0.7" stroke-linecap="square"></path>
                    <path d="M6.43884369,2.44224698 C7.21393937,1.84499129 9.25599976,-0.241819689 10.1742586,1.25645325 C10.1742586,1.25645325 10.7213394,2.21810659 9.75271192,3.0344658" id="Stroke-195" stroke-width="0.7" stroke-linecap="square"></path>
                </g>
            </g>
        </g>
    </g>
</svg>