<?xml version="1.0" encoding="UTF-8"?>
<svg width="20px" height="20px" viewBox="0 0 20 20" version="1.1" xmlns="http://www.w3.org/2000/svg" xmlns:xlink="http://www.w3.org/1999/xlink">
    <!-- Generator: Sketch 64 (93537) - https://sketch.com -->
    <title>double-bed_s_gray</title>
    <desc>Created with Sketch.</desc>
    <g id="小資振興_確認風格" stroke="none" stroke-width="1" fill="none" fill-rule="evenodd" stroke-linecap="square">
        <g id="小資振興_商家列表" transform="translate(-191.000000, -1040.000000)" stroke="#AAAAAA" stroke-width="0.7">
            <g id="double-bed_s_gray" transform="translate(191.000000, 1040.000000)">
                <g id="menu_category_hotel" transform="translate(1.000000, 1.000000)">
                    <polyline id="Stroke-73" points="4.55623149 7.35451915 4.55623149 17.2959217 0 17.2959217 0 7.35451915 3.29884596 7.35451915"></polyline>
                    <polyline id="Stroke-75" points="13.345246 7.35451915 13.345246 17.2959217 17.9014774 17.2959217 17.9014774 7.35451915 14.6026315 7.35451915"></polyline>
                    <polyline id="Stroke-77" points="11.9455149 2.95965957 13.345246 2.95965957 13.345246 17.2959217 4.55623149 17.2959217 4.55623149 2.95965957 5.95572766 2.95965957"></polyline>
                    <line x1="1.5482543" y1="9.24604698" x2="3.00764834" y2="9.24604698" id="Stroke-79"></line>
                    <line x1="1.5482543" y1="10.9327476" x2="3.00764834" y2="10.9327476" id="Stroke-81"></line>
                    <line x1="1.5482543" y1="12.6194247" x2="3.00764834" y2="12.6194247" id="Stroke-83"></line>
                    <line x1="1.5482543" y1="14.3058904" x2="3.00764834" y2="14.3058904" id="Stroke-85"></line>
                    <line x1="14.8938526" y1="9.24604698" x2="16.3530117" y2="9.24604698" id="Stroke-87"></line>
                    <line x1="6.307152" y1="6.27318638" x2="6.9622703" y2="6.27318638" id="Stroke-89"></line>
                    <line x1="6.307152" y1="7.782096" x2="6.9622703" y2="7.782096" id="Stroke-91"></line>
                    <line x1="6.307152" y1="9.29100562" x2="6.9622703" y2="9.29100562" id="Stroke-93"></line>
                    <line x1="6.307152" y1="10.7999152" x2="6.9622703" y2="10.7999152" id="Stroke-95"></line>
                    <line x1="6.307152" y1="12.3088483" x2="6.9622703" y2="12.3088483" id="Stroke-97"></line>
                    <line x1="8.62306213" y1="6.27318638" x2="9.27818043" y2="6.27318638" id="Stroke-99"></line>
                    <line x1="8.62306213" y1="7.782096" x2="9.27818043" y2="7.782096" id="Stroke-101"></line>
                    <line x1="8.62306213" y1="9.29100562" x2="9.27818043" y2="9.29100562" id="Stroke-103"></line>
                    <line x1="8.62306213" y1="10.7999152" x2="9.27818043" y2="10.7999152" id="Stroke-105"></line>
                    <line x1="8.62306213" y1="12.3088483" x2="9.27818043" y2="12.3088483" id="Stroke-107"></line>
                    <line x1="10.9391837" y1="6.27318638" x2="11.594302" y2="6.27318638" id="Stroke-109"></line>
                    <line x1="10.9391837" y1="7.782096" x2="11.594302" y2="7.782096" id="Stroke-111"></line>
                    <line x1="10.9391837" y1="9.29100562" x2="11.594302" y2="9.29100562" id="Stroke-113"></line>
                    <line x1="10.9391837" y1="10.7999152" x2="11.594302" y2="10.7999152" id="Stroke-115"></line>
                    <line x1="10.9391837" y1="12.3088483" x2="11.594302" y2="12.3088483" id="Stroke-117"></line>
                    <line x1="14.8938526" y1="10.9327476" x2="16.3530117" y2="10.9327476" id="Stroke-119"></line>
                    <line x1="14.8938526" y1="12.6194247" x2="16.3530117" y2="12.6194247" id="Stroke-121"></line>
                    <line x1="14.8938526" y1="14.3058904" x2="16.3530117" y2="14.3058904" id="Stroke-123"></line>
                    <polyline id="Stroke-125" points="10.1478036 16.2272497 10.1478036 14.2167952 7.75376783 14.2167952 7.75376783 16.2272497"></polyline>
                    <polygon id="Stroke-127" points="7.13021923 4.78013209 10.7710703 4.78013209 10.7710703 1.13928102 7.13021923 1.13928102"></polygon>
                    <line x1="8.37071591" y1="2.40202213" x2="8.37071591" y2="3.51729702" id="Stroke-129"></line>
                    <line x1="9.53073804" y1="2.40202213" x2="9.53073804" y2="3.51729702" id="Stroke-130"></line>
                    <line x1="8.37071591" y1="2.95965957" x2="9.4714274" y2="2.95965957" id="Stroke-131"></line>
                    <line x1="8.95062128" y1="1.13923404" x2="8.95062128" y2="0" id="Stroke-132"></line>
                    <line x1="2.27795132" y1="7.35451915" x2="2.27795132" y2="6.3736034" id="Stroke-133"></line>
                    <line x1="15.6235261" y1="7.35451915" x2="15.6235261" y2="6.3736034" id="Stroke-134"></line>
                </g>
            </g>
        </g>
    </g>
</svg>