<?xml version="1.0" encoding="UTF-8"?>
<svg width="20px" height="20px" viewBox="0 0 20 20" version="1.1" xmlns="http://www.w3.org/2000/svg" xmlns:xlink="http://www.w3.org/1999/xlink">
    <!-- Generator: Sketch 64 (93537) - https://sketch.com -->
    <title>guitar_s_gray</title>
    <desc>Created with Sketch.</desc>
    <g id="小資振興_確認風格" stroke="none" stroke-width="1" fill="none" fill-rule="evenodd">
        <g id="小資振興_商家列表" transform="translate(-217.000000, -1040.000000)" stroke="#AAAAAA" stroke-width="0.7">
            <g id="guitar_s_gray" transform="translate(217.000000, 1040.000000)">
                <g id="menu_category_play-copy" transform="translate(1.000000, 2.000000)">
                    <path d="M13.5245714,11.514615 C12.8987429,12.1406722 10.6148571,10.8716436 8.42354286,8.68055788 C6.23222857,6.48924359 4.9632,4.20512931 5.58902857,3.57907216 C6.21508571,2.95324359 8.4992,4.22227216 10.6905143,6.41358645 C12.8816,8.60490073 14.1506286,10.8887864 13.5245714,11.514615 Z" id="Stroke-41" stroke-linecap="square"></path>
                    <polyline id="Stroke-43" stroke-linecap="square" points="5.29577143 4.33939216 0.6 16.5039636 12.7789714 11.8024779"></polyline>
                    <line x1="10.0073829" y1="12.5380664" x2="10.00624" y2="10.4731522" id="Stroke-45" stroke-linecap="square"></line>
                    <line x1="7.64779429" y1="13.469975" x2="7.64642286" y2="8.02426073" id="Stroke-47" stroke-linecap="square"></line>
                    <line x1="5.28818286" y1="14.3655179" x2="5.28681143" y2="4.89923216" id="Stroke-49" stroke-linecap="square"></line>
                    <line x1="2.92859429" y1="15.2974264" x2="2.92859429" y2="10.8201693" id="Stroke-51" stroke-linecap="square"></line>
                    <path d="M7.66989714,5.65994073 L8.74326857,2.46314073 C8.74326857,2.46314073 9.20932571,0.88005502 8.21755429,0.639826449 C7.16658286,0.385426449 6.82692571,1.41925502 7.03241143,1.77422645" id="Stroke-53" stroke-linecap="square"></path>
                    <path d="M10.9734629,8.96350645 L14.1700343,7.88990645 C14.1700343,7.88990645 15.75312,7.42384931 15.9933486,8.41562073 C16.2479771,9.46682073 15.2141486,9.80647788 14.8591771,9.60076359" id="Stroke-55" stroke-linecap="square"></path>
                    <path d="M9.77702857,7.27399788 L12.5406857,4.51582645 C12.5406857,4.51582645 13.8410286,3.11582645 12.9372571,2.35491216 C11.9795429,1.54805502 11.0936,2.44405502 11.1233143,2.91811216" id="Stroke-57" stroke-linecap="square"></path>
                    <polygon id="Stroke-59" stroke-linecap="square" points="14.9797029 6.53269502 13.3920457 6.08423788 13.9824457 5.22892359 15.5698743 5.67738073"></polygon>
                    <line x1="10.1788114" y1="0.849883592" x2="10.2320686" y2="1.40576931" id="Stroke-61" stroke-linecap="square"></line>
                    <line x1="15.9453257" y1="10.9753236" x2="15.4084114" y2="10.8217236" id="Stroke-63" stroke-linecap="square"></line>
                    <path d="M10.1254629,3.81550645 C9.93780571,3.96544931 9.66397714,3.93482073 9.51403429,3.74716359 C9.36432,3.55950645 9.39494857,3.28590645 9.58260571,3.13573502 C9.77026286,2.98602073 10.0440914,3.01664931 10.1940343,3.20430645 C10.3437486,3.39196359 10.31312,3.66579216 10.1254629,3.81550645 Z" id="Stroke-67"></path>
                    <path d="M17.4973486,10.2579293 C17.3096914,10.4078722 17.0358629,10.377015 16.88592,10.1895864 C16.7362057,10.0019293 16.7668343,9.72810073 16.9544914,9.57815788 C17.1421486,9.42821502 17.4159771,9.45884359 17.56592,9.64650073 C17.7156343,9.83415788 17.6850057,10.108215 17.4973486,10.2579293 Z" id="Stroke-71"></path>
                </g>
            </g>
        </g>
    </g>
</svg>