<svg xmlns="http://www.w3.org/2000/svg" width="110" height="112" viewBox="0 0 110 112">
    <g fill="#EDEDED">
        <path d="M75.52 33.998c-5.996-5.72-14.094-8.66-22.337-8.106-15.777.96-28.136 14.028-28.312 29.938-.13 11.373 6.753 21.701 15.844 26.8v14.903c0 7.942 6.396 14.38 14.286 14.38s14.285-6.438 14.285-14.38V82.76c9.593-5.51 15.608-15.685 15.844-26.8-.112-8.33-3.58-16.256-9.61-21.962zM55 106.423c-4.384-.197-8.025-3.478-8.7-7.844h17.402c-.676 4.366-4.315 7.647-8.701 7.844zm9.092-13.074H45.91v-3.921h18.182v3.921zm1.298-14.641c-.831.482-1.33 1.387-1.298 2.353v3.137H45.91v-3.137c.052-1.005-.446-1.958-1.298-2.484-8.91-3.927-14.634-12.826-14.546-22.617.235-13.12 10.374-23.894 23.377-24.839H55c13.642.07 24.723 11.109 24.935 24.84.005 9.798-5.683 18.694-14.546 22.747zM54.043 19.13c1.321 0 2.392-1.157 2.392-2.585V2.585c0-1.428-1.07-2.585-2.392-2.585-1.32 0-2.39 1.157-2.39 2.585v13.96c0 1.428 1.07 2.585 2.39 2.585zM16.545 51.652H2.585C1.157 51.652 0 52.722 0 54.043s1.157 2.392 2.585 2.392h13.96c1.428 0 2.585-1.07 2.585-2.392 0-1.32-1.157-2.39-2.585-2.39zM107.415 51.652h-13.96c-1.428 0-2.585 1.07-2.585 2.391s1.157 2.392 2.585 2.392h13.96c1.428 0 2.585-1.07 2.585-2.392 0-1.32-1.157-2.39-2.585-2.39zM16.332 19.967l9.89 9.844c.911 1.002 2.455 1.069 3.448.15.051-.048.1-.098.148-.15.993-.918 1.06-2.475.148-3.477-.047-.052-.097-.102-.148-.15l-9.89-9.843c-.85-1.145-2.46-1.377-3.596-.518-1.135.858-1.365 2.482-.514 3.626.146.197.32.371.514.518zM80.182 29.83c.474.49 1.12.769 1.798.779.678-.01 1.324-.29 1.798-.779l9.89-9.856c1.135-.86 1.365-2.486.514-3.632s-2.462-1.378-3.597-.519c-.194.148-.367.322-.513.52l-9.89 9.856c-.993.92-1.06 2.479-.148 3.482.047.052.097.102.148.15z"/>
    </g>
</svg>
