<svg xmlns="http://www.w3.org/2000/svg" width="109" height="109" viewBox="0 0 109 109">
    <g fill="#EDEDED">
        <path d="M53.305 0l-.843.006c-6.758.1-13.32 1.452-19.54 4.026-6.496 2.69-12.32 6.584-17.313 11.577-4.993 4.993-8.888 10.817-11.577 17.313C1.245 39.656-.11 46.799.007 54.155.229 68.2 5.899 81.382 15.973 91.276c9.882 9.706 22.852 15.121 36.606 15.302l.796.004c7.871-.012 15.702-1.784 22.784-5.147l.943-.46 22.174 7.62c.785.27 1.595.405 2.406.405 1.926 0 3.772-.763 5.163-2.155 1.925-1.924 2.617-4.682 1.846-7.27l-.096-.299-7.62-22.174.093-.187c3.601-7.279 5.502-15.388 5.514-23.54.022-14.048-5.413-27.33-15.306-37.402C81.55 6.07 68.646.423 54.872.023l-.717-.016-.85-.007zm.076 5.523l.686.006c25.954.411 47.034 21.87 46.993 47.838-.012 7.74-1.92 15.426-5.518 22.227-.322.607-.404 1.31-.236 1.97l.065.219 8.002 23.287c.262.761.035 1.405-.432 1.87-.428.429-1.004.655-1.683.488l-.188-.055-23.287-8.002c-.29-.1-.594-.15-.898-.15-.449 0-.892.11-1.29.32-6.803 3.6-14.489 5.508-22.228 5.52-25.961.041-47.428-21.043-47.84-46.994-.206-13.055 4.762-25.329 13.986-34.554 8.902-8.9 20.638-13.837 33.183-13.987l.685-.003z"/>
        <path d="M54.722 78.5c1.633 0 2.922 1.33 2.998 3.022.07 1.551-1.396 2.978-2.998 2.978-1.632 0-2.922-1.33-2.997-3.022-.07-1.551 1.396-2.978 2.997-2.978zM54.722 27.5c8.823 0 16 7.096 16 15.813 0 7.533-5.4 13.997-12.783 15.493l-.4.08v10.835c0 1.534-1.26 2.779-2.817 2.779-1.556 0-2.816-1.246-2.816-2.779V56.348c0-1.533 1.26-2.779 2.816-2.779 5.716 0 10.367-4.6 10.367-10.256 0-5.656-4.651-10.255-10.367-10.255-5.715 0-10.367 4.599-10.367 10.255 0 1.534-1.26 2.78-2.816 2.78-1.557 0-2.817-1.246-2.817-2.78 0-8.717 7.177-15.813 16-15.813z"/>
    </g>
</svg>
