<?xml version="1.0" encoding="UTF-8"?>
<svg width="638px" height="420px" viewBox="0 0 638 420" version="1.1" xmlns="http://www.w3.org/2000/svg" xmlns:xlink="http://www.w3.org/1999/xlink">
    <!-- Generator: Sketch 64 (93537) - https://sketch.com -->
    <title>home_link_activity_bg</title>
    <desc>Created with Sketch.</desc>
    <defs>
        <rect id="path-1" x="0" y="0" width="638" height="420"></rect>
        <path d="M214.436213,272.728649 C214.436213,272.728649 329.165178,190.457107 406.319155,208.649831 C450.407141,218.959042 410.327153,282.835718 521.04812,232.704656 C604.464594,194.702076 719.19356,192.680662 772.049044,262.823722 C827.910527,337.009609 719.44406,405.333396 756.768548,408.567658 C794.093037,411.80192 929.112496,351.76593 926.106497,442.729551 C923.100498,533.895314 825.906527,594.537729 837.429524,595.750577 C848.70202,596.963426 912.078501,589.888477 894.042507,642.647378 C876.257012,695.406278 706.919063,820.733935 675.857073,762.9215 C653.813079,721.684658 647.300081,712.790437 613.983592,743.111644 C589.685099,765.347196 490.988129,841.554497 406.319155,820.329652 C321.65018,798.902666 394.295158,676.809271 346.950673,697.629834 C299.606187,718.450396 157.32223,759.080814 104.967746,677.819978 C52.6132618,596.559143 208.424215,439.091006 189.38622,433.633189 C170.598726,428.175372 78.1642541,450.208782 108.725245,371.171502 C124.50674,330.136802 214.436213,272.728649 214.436213,272.728649 Z" id="path-3"></path>
        <polygon id="path-4" points="0.766335644 0.124 14.899015 0.124 14.899015 11.7867 0.766335644 11.7867"></polygon>
        <polygon id="path-6" points="0.0968460955 0.7523 1.0968461 0.7523 1.0968461 4 0.0968460955 4"></polygon>
    </defs>
    <g id="小資振興_確認風格" stroke="none" stroke-width="1" fill="none" fill-rule="evenodd">
        <g id="home_link_activity_bg">
            <mask id="mask-2" fill="white">
                <use xlink:href="#path-1"></use>
            </mask>
            <use id="Mask" fill="#FFFFFF" xlink:href="#path-1"></use>
            <g id="3011420" mask="url(#mask-2)">
                <g transform="translate(-392.000000, -128.000000)">
                    <g id="Path" opacity="0.2" fill-rule="nonzero" transform="translate(510.155905, 515.023158) rotate(47.000000) translate(-510.155905, -515.023158) ">
                        <use fill="#FFDC86" xlink:href="#path-3"></use>
                        <use fill="#DEDEDE" xlink:href="#path-3"></use>
                    </g>
                    <g id="Group" stroke-width="1" fill-rule="evenodd" transform="translate(497.000000, 346.000000)">
                        <g transform="translate(29.658996, 0.000000)" fill-rule="nonzero">
                            <polygon id="Path" fill="#84AE9F" points="36.3996769 0.449378727 0.449378727 3.50515407 3.23552683 36.7591799 39.0959492 33.2540258"></polygon>
                            <path d="M1.16838469,12.7623558 C1.16838469,12.7623558 1.16838469,12.7623558 1.16838469,12.7623558 L37.2085586,9.88633199 C37.4781858,9.88633199 37.6579373,9.7065805 37.5680616,9.43695326 C37.5680616,9.16732603 37.2984343,9.07745028 37.1186828,9.07745028 L1.07850894,11.9534741 C0.808881708,11.9534741 0.629130218,12.1332256 0.719005963,12.4028529 C0.719005963,12.5826044 0.898757454,12.7623558 1.16838469,12.7623558 Z" id="Path" fill="#3E2D4A"></path>
                            <path d="M14.9193737,17.9751491 C14.6497465,17.7953976 14.469995,17.5257703 14.469995,17.2561431 C14.2902435,16.0877584 15.7282554,14.0206163 16.8966401,12.4028529 C15.189001,13.3016103 12.9421073,14.3801193 11.8635984,14.3801193 C11.5040954,14.3801193 11.2344682,14.2902435 11.0547167,14.110492 C10.9648409,14.0206163 10.8749652,13.750989 10.8749652,13.3914861 C11.1445924,11.9534741 13.3016103,11.2344682 15.0991252,10.8749652 C13.3914861,10.4255865 11.4142197,9.61670475 10.9648409,8.62807156 C10.7850894,8.26856857 10.8749652,7.81918985 11.0547167,7.45968687 C11.2344682,7.19005963 11.5939712,6.83055665 12.3129771,6.83055665 C13.5712376,6.83055665 15.5485039,7.90906559 17.0763916,8.89769879 C15.8181312,7.19005963 14.5598708,5.03304174 14.829498,3.86465705 C14.9193737,3.50515407 15.189001,3.23552683 15.5485039,3.05577534 C15.7282554,2.9658996 15.9080069,2.9658996 16.0877584,2.9658996 C17.8852733,2.9658996 19.053658,6.47105367 19.5929125,8.35844432 C20.7612972,6.7406809 23.0081908,3.77478131 24.2664513,3.77478131 C24.4462027,3.77478131 24.8955815,3.86465705 25.1652087,4.49378727 C25.7044632,6.20142643 23.0980666,8.7179473 21.4803031,10.0660835 C22.1993091,9.97620774 23.0081908,9.97620774 23.9069483,9.97620774 C26.0639662,9.97620774 27.3222266,10.3357107 27.7716053,11.0547167 C27.9513568,11.3243439 28.1311083,11.8635984 27.7716053,12.5826044 C27.5019781,13.1218588 26.8728479,13.3914861 25.9740904,13.3914861 C24.8057057,13.3914861 23.0980666,12.8522316 21.7499304,12.4028529 C23.0081908,13.5712376 24.2664513,15.0991252 24.0866998,15.9978827 C23.996824,16.2675099 23.8170725,16.6270129 23.0980666,16.8067644 C23.0081908,16.8067644 22.8284393,16.8067644 22.7385636,16.8067644 L22.7385636,16.8067644 C21.0309244,16.8067644 19.9524155,14.7396222 19.5030367,13.1218588 C19.053658,15.2788767 18.0650248,18.2447763 16.1776342,18.2447763 C15.5485039,18.3346521 15.2788767,18.2447763 14.9193737,17.9751491 Z M15.2788767,17.1662674 C15.2788767,17.2561431 15.3687525,17.2561431 15.3687525,17.3460189 C15.5485039,17.4358946 15.8181312,17.5257703 15.9978827,17.5257703 C17.3460189,17.5257703 18.3346521,14.0206163 18.7840308,11.5040954 C17.1662674,13.2117346 15.0991252,16.1776342 15.2788767,17.1662674 Z M22.7385636,15.9978827 C22.9183151,15.9978827 23.0081908,15.9080069 23.0980666,15.8181312 C23.2778181,15.2788767 21.6600546,13.5712376 19.8625397,12.0433499 C20.2220427,13.8408648 21.1208002,16.2675099 22.7385636,15.9978827 Z M11.5939712,13.6611133 C11.5939712,13.6611133 11.5939712,13.6611133 11.7737226,13.6611133 C12.6724801,13.6611133 15.0092495,12.4927286 16.8067644,11.5040954 C14.7396222,11.7737226 11.8635984,12.4927286 11.5939712,13.6611133 Z M20.4017942,11.1445924 C21.7499304,11.7737226 24.2664513,12.6724801 25.7943389,12.6724801 C26.3335934,12.6724801 26.6930964,12.5826044 26.7829721,12.3129771 C27.0525994,11.8635984 26.8728479,11.6838469 26.8728479,11.5939712 C26.7829721,11.4142197 26.1538419,10.8749652 23.7271968,10.8749652 C22.4689363,10.8749652 21.1208002,11.0547167 20.4017942,11.1445924 Z M12.2231014,7.7293141 C11.8635984,7.7293141 11.7737226,7.81918985 11.6838469,7.90906559 C11.5939712,8.08881708 11.5939712,8.17869283 11.6838469,8.26856857 C12.0433499,9.16732603 15.2788767,10.1559592 17.3460189,10.605338 C17.5257703,10.605338 17.7055218,10.7850894 17.7055218,10.9648409 C17.8852733,10.8749652 17.9751491,10.7850894 18.0650248,10.6952137 C16.4472614,9.61670475 13.6611133,7.7293141 12.2231014,7.7293141 Z M19.5929125,9.7065805 C19.5030367,9.88633199 19.3232853,9.88633199 19.1435338,9.88633199 C18.9637823,9.88633199 18.8739065,9.7065805 18.7840308,9.52682901 C18.2447763,7.19005963 16.9865159,3.9545328 15.9080069,3.9545328 C15.8181312,3.9545328 15.8181312,3.9545328 15.7282554,3.9545328 C15.6383797,3.9545328 15.5485039,4.04440854 15.5485039,4.13428429 C15.2788767,5.21279323 17.7055218,8.7179473 19.413161,10.605338 C19.413161,10.605338 19.413161,10.605338 19.413161,10.605338 C19.413161,10.5154622 19.5030367,10.4255865 19.5929125,10.3357107 C21.5701789,8.89769879 24.5360785,6.11155069 24.1765755,4.7634145 C24.1765755,4.67353876 24.1765755,4.67353876 24.1765755,4.67353876 C23.4575695,4.7634145 21.2106759,7.36981112 19.5929125,9.7065805 Z" id="Shape" fill="#3E2D4A"></path>
                            <path d="M21.0309244,35.7705467 C21.0309244,35.7705467 21.0309244,35.7705467 21.0309244,35.7705467 C21.3005517,35.7705467 21.4803031,35.5907952 21.4803031,35.3211679 L18.9637823,2.06714214 C18.9637823,1.79751491 18.7840308,1.61776342 18.5144035,1.70763916 C18.2447763,1.70763916 18.0650248,1.88739065 18.1549006,2.15701789 L20.6714214,35.4110437 C20.5815457,35.5907952 20.7612972,35.7705467 21.0309244,35.7705467 Z" id="Path" fill="#3E2D4A"></path>
                        </g>
                        <path d="M40.4440854,78.8210287 C40.4440854,78.8210287 29.5691202,80.0792891 20.4017942,68.125815 C11.1445924,56.2622166 30.1982504,43.4998608 32.8945228,36.6693041 C34.8717892,31.7261381 30.018499,27.8614811 30.3780019,30.2881262 C30.8273807,32.8046471 32.5350198,33.4337773 27.1424751,36.6693041 C21.8398061,39.9947067 -27.8614811,63.3624005 24.8955815,98.9538207 C24.8955815,99.0430714 41.8820973,89.4263666 40.4440854,78.8210287 Z" id="Path" fill="#DC9680" fill-rule="nonzero"></path>
                        <path d="M7.45968687,84.6629521 C7.45968687,84.6629521 21.1208002,67.8561878 23.2778181,69.5638269 C32.5350198,76.7538865 45.5670029,76.7538865 45.5670029,76.7538865 C45.5670029,76.7538865 31.7261381,101.82922 28.4906113,101.200089 C25.2550844,100.570959 6.20142643,89.2466152 7.45968687,84.6629521 Z" id="Path" fill="#CC2426" fill-rule="nonzero"></path>
                        <path d="M77.652644,118.72586 C77.652644,118.72586 103.71661,85.6515853 118.546108,86.81997 C143.801193,88.7073607 159.439572,123.219647 162.22572,124.477907 C165.461247,126.005795 169.505656,123.039895 170.314537,124.83741 C171.123419,126.634925 166.809383,131.578091 159.978827,130.229955 C153.058394,128.881819 132.566724,100.660835 120.523375,105.693877 C114.411824,108.300273 103.536859,164.832117 74.4171172,153.867276 C57.3407255,147.396222 67.2270575,128.881819 77.652644,118.72586 Z" id="Path" fill="#DC9680" fill-rule="nonzero"></path>
                        <path d="M90.7745028,111.266173 C90.7745028,111.266173 100.750711,84.7528279 116.119463,80.7982951 C131.578091,76.933638 161.237087,101.110214 163.843484,99.3126986 C166.000502,97.784811 169.236029,97.6050595 171.033543,96.0771718 C172.561431,94.8189114 170.224662,104.705243 166.629632,105.693877 C157.642057,108.120522 125.826044,93.1112722 120.972753,98.4139412 C116.119463,103.71661 112.973812,132.117346 96.346799,142.902435 C79.7197861,153.597649 83.8540704,125.107038 90.7745028,111.266173 Z" id="Path" fill="#DC9680" fill-rule="nonzero"></path>
                        <path d="M83.6743189,111.625676 C83.6743189,111.625676 103.986237,83.4046917 122.590517,87.4491002 C137.330139,90.6846271 156.833176,114.321948 158.630691,116.838469 C160.33833,119.35499 153.417897,127.264055 149.103862,127.353931 C144.789826,127.443807 128.072937,103.177356 125.376665,106.68251 C107.131888,130.589458 99.6722016,158.271188 79.2704074,155.125537 C68.844821,153.507773 81.2476738,114.771327 83.6743189,111.625676 Z" id="Path" fill="#84AE9F" fill-rule="nonzero"></path>
                        <path d="M63.182649,75.4057504 C63.182649,75.4057504 79.6299104,63.182649 82.3261828,56.8913468 C89.3364909,40.5339612 74.9563716,38.466819 69.7435784,34.9616649 C63.542152,30.8273807 67.4966848,23.3676938 67.8561878,26.1538419 C68.2156907,28.93999 68.485318,30.7375049 69.8334542,31.2767594 C71.0917146,31.8160139 96.5265505,29.3893687 99.4025744,51.2291749 C102.098847,71.990472 77.652644,87.4491002 77.652644,87.4491002 C77.652644,87.4491002 62.5535188,77.5627683 63.182649,75.4057504 Z" id="Path" fill="#DC9680" fill-rule="nonzero"></path>
                        <path d="M60.9357554,73.3386082 C60.9357554,73.3386082 71.4512176,69.1144482 74.8664959,64.1712822 C78.2817742,59.2281162 94.7290356,71.9005963 94.0999054,76.5741351 C93.4707752,81.3375496 90.2352484,83.9439462 79.0007802,89.5162424 C67.766312,95.1784143 60.9357554,73.3386082 60.9357554,73.3386082 Z" id="Path" fill="#CC2426" fill-rule="nonzero"></path>
                        <path d="M92.6618935,71.0917146 C92.6618935,71.0917146 87.7187275,68.125815 88.5276092,67.047306 C95.5379173,58.7787375 98.2341897,45.4771272 95.0885386,43.8593637 C92.2125148,42.4213518 106.233131,50.1506659 92.6618935,71.0917146 Z" id="Path" fill="#CC5A5D" fill-rule="nonzero" opacity="0.5"></path>
                        <path d="M27.4121023,83.8540704 C27.4121023,83.8540704 68.3954422,65.6991699 77.652644,76.1247563 C86.9098458,86.5503428 67.9460635,110.007912 83.7641947,111.625676 C83.7641947,111.625676 93.3808994,155.305288 77.652644,155.305288 C39.9048309,155.215412 15.6383797,94.2796569 27.4121023,83.8540704 Z" id="Path" fill="#CC2426" fill-rule="nonzero"></path>
                        <path d="M61.7446371,72.9791052 C61.7446371,72.9791052 55.0938319,74.5968687 56.1723409,60.8458796 C56.5318438,56.1723409 51.0494234,56.7115953 49.8810387,57.9698558 C48.8025297,59.3179919 53.8355715,73.428484 43.8593637,76.6640108 C42.7808548,77.1133895 59.2281162,89.5162424 61.7446371,72.9791052 Z" id="Path" fill="#DC9680" fill-rule="nonzero"></path>
                        <path d="M47.0948906,58.3293587 C47.0948906,58.3293587 45.2973757,68.3055665 49.7012872,66.8675546 C61.7446371,63.0927733 55.4533349,53.8355715 53.3861928,53.4760685 C51.3190506,53.2064413 47.7240208,54.8242047 47.0948906,58.3293587 Z" id="Path" fill="#DC9680" fill-rule="nonzero"></path>
                        <path d="M54.7343289,67.047306 C54.7343289,67.047306 52.577311,69.3840754 50.0607902,69.8334542 C50.0607902,69.8334542 49.3417842,72.8892295 48.1733995,74.6867444 C47.8138965,75.0462474 57.2508498,73.068981 54.7343289,67.047306 Z" id="Path" fill="#CC5A5D" fill-rule="nonzero" opacity="0.5"></path>
                        <g transform="translate(154.586282, 118.635984)" fill-rule="nonzero" id="Path">
                            <path d="M0.359502981,8.98757454 C0.359502981,8.98757454 6.02167494,2.9658996 6.7406809,3.59502981 C10.8749652,7.54956261 22.8284393,-1.52788767 21.6600546,0.898757454 C20.4916699,3.32540258 9.07745028,15.9080069 7.63943836,16.0877584 C6.20142643,16.2675099 0.359502981,8.98757454 0.359502981,8.98757454 Z" fill="#FFC332"></path>
                            <path d="M8.08881708,7.7293141 C8.17869283,7.63943836 8.35844432,7.54956261 8.35844432,7.45968687 L9.7065805,4.67353876 C9.88633199,4.40391152 9.7065805,4.04440854 9.43695326,3.86465705 C9.16732603,3.68490556 8.80782305,3.86465705 8.62807156,4.13428429 L7.27993538,6.92043239 C7.10018388,7.19005963 7.27993538,7.54956261 7.54956261,7.7293141 C7.81918985,7.81918985 7.99894134,7.7293141 8.08881708,7.7293141 Z" fill="#3E2D4A"></path>
                            <path d="M10.9648409,8.62807156 C11.1445924,8.53819581 11.3243439,8.35844432 11.3243439,8.08881708 L11.5939712,4.31403578 C11.5939712,3.9545328 11.4142197,3.68490556 11.0547167,3.68490556 C10.6952137,3.68490556 10.4255865,3.86465705 10.4255865,4.22416003 L10.1559592,7.99894134 C10.1559592,8.35844432 10.3357107,8.62807156 10.6952137,8.62807156 C10.7850894,8.7179473 10.8749652,8.7179473 10.9648409,8.62807156 Z" fill="#3E2D4A"></path>
                            <path d="M14.110492,7.63943836 C14.3801193,7.54956261 14.469995,7.19005963 14.469995,6.92043239 L13.5712376,3.32540258 C13.4813618,2.9658996 13.1218588,2.78614811 12.8522316,2.87602385 C12.4927286,2.9658996 12.3129771,3.32540258 12.4028529,3.59502981 L13.3016103,7.19005963 C13.3914861,7.54956261 13.750989,7.7293141 14.0206163,7.63943836 C14.0206163,7.63943836 14.110492,7.63943836 14.110492,7.63943836 Z" fill="#3E2D4A"></path>
                        </g>
                        <g transform="translate(159.080069, 87.179473)" fill-rule="nonzero" id="Path">
                            <path d="M0.719005963,19.5929125 C0.719005963,19.5929125 1.79751491,11.4142197 2.69627236,11.5040954 C8.35844432,12.2231014 12.7623558,-2.06714214 13.2117346,0.539254472 C13.6611133,3.14565109 11.8635984,20.132167 10.7850894,21.0309244 C9.7065805,21.9296819 0.719005963,19.5929125 0.719005963,19.5929125 Z" fill="#FFC332"></path>
                            <path d="M6.20142643,13.9307405 C6.29130218,13.8408648 6.29130218,13.6611133 6.29130218,13.4813618 L5.66217196,10.4255865 C5.57229621,10.0660835 5.30266898,9.88633199 4.943166,9.97620774 C4.58366301,10.0660835 4.40391152,10.3357107 4.49378727,10.6952137 L5.12291749,13.750989 C5.21279323,14.110492 5.48242047,14.2902435 5.84192345,14.2003678 C6.02167494,14.2003678 6.20142643,14.110492 6.20142643,13.9307405 Z" fill="#3E2D4A"></path>
                            <path d="M9.07745028,13.0319831 C9.16732603,12.8522316 9.16732603,12.5826044 9.07745028,12.4028529 L7.10018388,9.16732603 C6.92043239,8.89769879 6.56092941,8.80782305 6.29130218,8.98757454 C6.02167494,9.16732603 5.93179919,9.52682901 6.11155069,9.79645625 L8.08881708,13.0319831 C8.26856857,13.3016103 8.62807156,13.3914861 8.89769879,13.2117346 C8.98757454,13.2117346 9.07745028,13.1218588 9.07745028,13.0319831 Z" fill="#3E2D4A"></path>
                            <path d="M11.0547167,10.4255865 C11.2344682,10.1559592 11.1445924,9.88633199 10.8749652,9.7065805 L8.08881708,7.36981112 C7.81918985,7.19005963 7.45968687,7.19005963 7.19005963,7.45968687 C7.01030814,7.7293141 7.01030814,8.08881708 7.27993538,8.35844432 L10.0660835,10.6952137 C10.3357107,10.8749652 10.6952137,10.8749652 10.9648409,10.605338 C10.9648409,10.4255865 11.0547167,10.4255865 11.0547167,10.4255865 Z" fill="#3E2D4A"></path>
                        </g>
                        <path d="M158.00156,96.0771718 C158.00156,96.0771718 159.7092,103.626734 153.507773,106.592634 C147.306347,109.648409 126.455174,98.5038169 124.118404,99.5823259 C121.781635,100.750711 96.2569233,120.972753 96.2569233,120.972753 L83.5844432,111.5358 C83.5844432,111.5358 104.34574,83.6743189 116.029587,80.7982951 C131.488215,77.0235138 154.316655,93.4707752 158.00156,96.0771718 Z" id="Path" fill="#84AE9F" fill-rule="nonzero"></path>
                        <path d="M49.2519085,50.2405417 C49.2519085,50.2405417 45.6568786,52.8469383 47.8138965,56.4419681 C48.712654,57.9698558 53.65582,56.3520923 54.1950745,57.0710983 C54.7343289,57.7901043 55.2735834,59.6774949 54.1950745,62.1940158 C53.1165655,64.7105367 49.8810387,62.7332703 49.1620327,62.1940158 C48.4430268,61.6547613 46.6455118,62.1041401 46.6455118,62.823146 C46.6455118,63.542152 46.1961331,67.406809 47.7240208,69.0245724 C49.2519085,70.6423359 54.1950745,67.047306 54.7343289,65.3396669 C55.2735834,63.7219035 54.9140804,61.7446371 55.4533349,60.8458796 C55.9925894,59.9471222 56.3520923,59.7673707 56.6217196,60.2167494 C57.1609741,61.5648856 55.1837077,62.7332703 55.4533349,63.4522762 C55.8128379,64.1712822 58.3293587,62.1041401 58.3293587,59.7673707 C58.3293587,57.4306013 57.7002285,52.4874353 55.4533349,53.4760685 C52.3076838,54.8242047 52.7570625,49.5215357 49.2519085,50.2405417 Z" id="Path" fill="#3E2D4A" fill-rule="nonzero"></path>
                        <path d="M15.5485039,74.3272414 C15.5485039,74.3272414 10.0660835,80.4387921 8.26856857,82.0565555 C6.65080516,83.5844432 2.42664513,72.5297265 2.60639662,65.6092941 C2.78614811,58.6888617 7.7293141,52.7570625 8.53819581,52.7570625 C9.34707752,52.7570625 0.988633199,64.0814064 15.5485039,74.3272414 Z" id="Path" fill="#CC5A5D" fill-rule="nonzero" opacity="0.5"></path>
                        <path d="M9.07745028,85.3819581 C9.07745028,85.3819581 16.8067644,79.8096619 17.6156461,79.6299104 C18.4245278,79.4501589 26.9627236,86.5503428 28.3108598,87.3592245 C29.5691202,88.1681062 26.0639662,97.784811 24.71583,97.6949352 C23.4575695,97.6050595 9.88633199,88.7073607 9.07745028,85.3819581 Z" id="Path" fill="#B23234" fill-rule="nonzero"></path>
                        <path d="M31.3666351,99.0430714 C31.3666351,99.0430714 39.0060735,113.602942 46.6455118,116.928345 C54.2849502,120.343623 74.1474899,106.772386 75.1361231,108.480025 C76.1247563,110.187664 78.7311529,113.333315 81.3375496,113.423191 C84.0338219,113.513066 83.1350645,151.800134 77.5627683,152.698891 C66.0586728,154.496406 41.9719731,135.083245 35.4110437,121.062629 C28.8501143,107.042013 27.6817296,104.705243 27.6817296,100.660835 C27.6817296,96.6164263 31.2767594,88.3478577 31.5463866,89.6959939 C31.9058896,90.9542543 29.8387475,94.3695326 31.3666351,99.0430714 Z" id="Path" fill="#B23234" fill-rule="nonzero"></path>
                        <path d="M77.652644,82.0565555 C77.652644,82.0565555 79.1805317,78.2817742 82.8654372,76.8437623 C86.5503428,75.4057504 87.3592245,68.485318 87.8086032,69.6537027 C88.257982,70.8220874 92.3922662,74.0576142 91.8530118,76.8437623 C90.8643786,81.4274253 79.4501589,88.7073607 78.6412772,86.81997 C78.5514015,86.5503428 76.4842593,82.6856857 77.652644,82.0565555 Z" id="Path" fill="#B23234" fill-rule="nonzero"></path>
                        <path d="M88.4377334,114.052321 C88.4377334,114.052321 97.8746867,107.491391 107.581267,101.469717 C117.287848,95.4480416 119.175238,90.0554969 125.017162,93.1112722 C130.859085,96.1670475 151.89001,117.01822 152.159637,119.175238 C152.429264,121.422132 150.182371,125.466541 148.025353,123.938653 C145.868335,122.410765 128.612192,102.727977 123.57915,103.446983 C118.456232,104.165989 100.840586,144.520199 86.5503428,151.440631 C86.5503428,151.440631 89.8757454,136.790884 89.6061181,129.870452 C89.3364909,122.95002 88.4377334,114.052321 88.4377334,114.052321 Z" id="Path" fill="#3E2D4A" fill-rule="nonzero" opacity="0.1"></path>
                        <path d="M156.11417,96.5265505 C156.11417,96.5265505 135.173121,85.4718338 133.016103,85.6515853 C130.859085,85.8313368 150.991252,105.514125 151.89001,104.525492 C152.878643,103.536859 157.642057,101.469717 156.11417,96.5265505 Z" id="Path" fill="#3E2D4A" fill-rule="nonzero" opacity="0.1"></path>
                    </g>
                    <g id="Group-5" stroke-width="1" fill-rule="evenodd" transform="translate(490.000000, 440.000000)">
                        <g id="Group" transform="translate(88.566828, 38.414528)" fill-rule="nonzero">
                            <polygon id="Path" fill="#FFC332" points="42.7895156 0.320121064 0 3.94815979 3.30791766 43.3230507 45.9907262 39.1614768"></polygon>
                            <path d="M0.960363192,14.832276 C0.960363192,14.832276 0.960363192,14.832276 0.960363192,14.832276 L43.7498787,11.4176513 C44.0699998,11.4176513 44.2834138,11.2042372 44.1767068,10.8841162 C44.1767068,10.5639951 43.8565858,10.4572881 43.6431717,10.4572881 L0.853656171,13.8719128 C0.533535107,13.8719128 0.320121064,14.0853268 0.426828085,14.4054479 C0.426828085,14.6188619 0.640242128,14.832276 0.960363192,14.832276 Z" id="Path" fill="#3E2D4A"></path>
                            <path d="M17.2865375,21.1279902 C16.9664164,20.9145762 16.7530023,20.5944551 16.7530023,20.2743341 C16.5395883,18.8871428 18.2469006,16.4328813 19.6340919,14.5121549 C17.6066585,15.5792251 14.938983,16.8597094 13.6584987,16.8597094 C13.2316706,16.8597094 12.9115496,16.7530023 12.6981355,16.5395883 C12.5914285,16.4328813 12.4847215,16.1127602 12.4847215,15.6859321 C12.8048426,13.9786198 15.3658111,13.1249636 17.4999515,12.6981355 C15.4725181,12.1646004 13.1249636,11.2042372 12.5914285,10.03046 C12.3780145,9.60363192 12.4847215,9.07009681 12.6981355,8.64326873 C12.9115496,8.32314766 13.3383777,7.89631958 14.1920338,7.89631958 C15.6859321,7.89631958 18.0334866,9.17680383 19.847506,10.3505811 C18.3536077,8.32314766 16.8597094,5.76217915 17.1798304,4.37498787 C17.2865375,3.94815979 17.6066585,3.62803872 18.0334866,3.41462468 C18.2469006,3.30791766 18.4603147,3.30791766 18.6737287,3.30791766 C20.8078692,3.30791766 22.1950604,7.46949149 22.8353026,9.71033894 C24.2224938,7.78961256 26.8901694,4.26828085 28.3840677,4.26828085 C28.5974817,4.26828085 29.1310168,4.37498787 29.4511379,5.12193702 C30.09138,7.14937043 26.9968764,10.137167 25.07615,11.7377723 C25.9298062,11.6310653 26.8901694,11.6310653 27.9572396,11.6310653 C30.5182081,11.6310653 32.0121064,12.0578934 32.5456415,12.9115496 C32.7590555,13.2316706 32.9724696,13.8719128 32.5456415,14.7255689 C32.2255204,15.3658111 31.4785713,15.6859321 30.4115011,15.6859321 C29.0243098,15.6859321 26.9968764,15.04569 25.3962711,14.5121549 C26.8901694,15.8993462 28.3840677,17.7133655 28.1706536,18.7804358 C28.0639466,19.1005568 27.8505326,19.5273849 26.9968764,19.7407989 C26.8901694,19.7407989 26.6767553,19.7407989 26.5700483,19.7407989 L26.5700483,19.7407989 C24.5426149,19.7407989 23.2621306,17.2865375 22.7285955,15.3658111 C22.1950604,17.9267796 21.0212832,21.4481113 18.7804358,21.4481113 C18.0334866,21.4481113 17.6066585,21.3414043 17.2865375,21.1279902 Z M17.7133655,20.06092 C17.7133655,20.167627 17.8200726,20.167627 17.8200726,20.2743341 C18.0334866,20.3810411 18.3536077,20.4877481 18.5670217,20.4877481 C20.167627,20.4877481 21.3414043,16.3261743 21.8749394,13.3383777 C19.954213,15.4725181 17.4999515,18.8871428 17.7133655,20.06092 Z M26.5700483,18.7804358 C26.7834624,18.7804358 26.8901694,18.6737287 26.9968764,18.5670217 C27.2102904,17.9267796 25.2895641,15.8993462 23.1554236,14.0853268 C23.5822517,16.2194672 24.6493219,18.9938498 26.5700483,18.7804358 Z M13.3383777,15.8993462 C13.3383777,15.8993462 13.3383777,15.8993462 13.5517917,15.8993462 C14.6188619,15.8993462 17.3932445,14.5121549 19.5273849,13.3383777 C17.0731234,13.6584987 13.6584987,14.5121549 13.3383777,15.8993462 Z M23.7956658,12.9115496 C25.3962711,13.6584987 28.3840677,14.7255689 30.198087,14.7255689 C30.8383292,14.7255689 31.2651572,14.6188619 31.3718643,14.2987409 C31.6919853,13.7652058 31.4785713,13.5517917 31.4785713,13.4450847 C31.3718643,13.2316706 30.6249151,12.5914285 27.7438255,12.5914285 C26.2499272,12.6981355 24.5426149,12.8048426 23.7956658,12.9115496 Z M14.0853268,8.96338979 C13.6584987,8.96338979 13.5517917,9.07009681 13.4450847,9.17680383 C13.3383777,9.39021788 13.3383777,9.4969249 13.4450847,9.60363192 C13.8719128,10.6707021 17.7133655,11.8444794 20.167627,12.3780145 C20.3810411,12.3780145 20.5944551,12.5914285 20.5944551,12.8048426 C20.8078692,12.6981355 20.9145762,12.5914285 21.0212832,12.4847215 C19.1005568,11.0975302 15.7926392,8.96338979 14.0853268,8.96338979 Z M22.8353026,11.3109443 C22.7285955,11.5243583 22.5151815,11.5243583 22.3017675,11.5243583 C22.0883534,11.5243583 21.9816464,11.3109443 21.8749394,11.0975302 C21.2346972,8.32314766 19.7407989,4.4816949 18.4603147,4.4816949 C18.3536077,4.4816949 18.3536077,4.4816949 18.2469006,4.4816949 C18.1401936,4.4816949 18.0334866,4.58840192 18.0334866,4.69510894 C17.7133655,5.97559319 20.5944551,10.137167 22.6218885,12.3780145 C22.6218885,12.3780145 22.6218885,12.3780145 22.6218885,12.3780145 C22.6218885,12.2713075 22.7285955,12.1646004 22.8353026,12.0578934 C25.182857,10.3505811 28.7041887,7.04266341 28.2773607,5.44205809 C28.2773607,5.33535107 28.2773607,5.33535107 28.2773607,5.33535107 C27.4237045,5.33535107 24.7560289,8.42985468 22.8353026,11.3109443 Z" id="Shape" fill="#3E2D4A"></path>
                            <path d="M24.5426149,42.1492734 C24.5426149,42.1492734 24.5426149,42.1492734 24.5426149,42.1492734 C24.862736,42.1492734 25.07615,41.9358594 25.07615,41.6157383 L22.0883534,2.13414043 C22.0883534,1.81401936 21.8749394,1.60060532 21.5548183,1.70731234 C21.2346972,1.70731234 21.0212832,1.92072638 21.1279902,2.24084745 L24.1157868,41.7224453 C24.0090798,41.9358594 24.2224938,42.1492734 24.5426149,42.1492734 Z" id="Path" fill="#3E2D4A"></path>
                        </g>
                        <g id="Group" transform="translate(21.341404, 35.213317)" fill-rule="nonzero">
                            <polygon id="Path" fill="#3E2D4A" points="1.28048426 1.60060532 36.7072153 0.533535107 39.1614768 44.3901209 1.4938983 44.3901209"></polygon>
                            <path d="M11.7377723,20.7011621 C11.4176513,20.4877481 11.2042372,20.167627 11.2042372,19.847506 C11.0975302,18.4603147 12.8048426,16.0060532 14.2987409,14.2987409 C12.2713075,15.259104 9.4969249,16.5395883 8.21644064,16.4328813 C7.78961256,16.4328813 7.46949149,16.3261743 7.36278447,16.0060532 C7.25607745,15.8993462 7.14937043,15.5792251 7.25607745,15.152397 C7.68290554,13.4450847 10.243874,12.6981355 12.3780145,12.3780145 C10.4572881,11.7377723 8.10973362,10.6707021 7.57619851,9.4969249 C7.36278447,9.07009681 7.46949149,8.53656171 7.78961256,8.10973362 C8.0030266,7.78961256 8.42985468,7.36278447 9.28351086,7.46949149 C10.7774092,7.57619851 13.0182566,8.96338979 14.832276,10.243874 C13.4450847,8.21644064 12.0578934,5.54876511 12.3780145,4.16157383 C12.4847215,3.73474575 12.8048426,3.41462468 13.2316706,3.30791766 C13.4450847,3.20121064 13.6584987,3.20121064 13.8719128,3.20121064 C15.8993462,3.30791766 17.1798304,7.57619851 17.7133655,9.71033894 C19.2072638,7.78961256 21.9816464,4.4816949 23.4755447,4.4816949 C23.6889587,4.4816949 24.2224938,4.58840192 24.4359079,5.33535107 C24.969443,7.36278447 21.7682323,10.243874 19.847506,11.7377723 C20.7011621,11.7377723 21.6615253,11.6310653 22.7285955,11.7377723 C25.2895641,11.8444794 26.7834624,12.3780145 27.2102904,13.2316706 C27.4237045,13.5517917 27.5304115,14.1920338 27.1035834,15.04569 C26.7834624,15.6859321 26.0365132,16.0060532 24.969443,16.0060532 C23.5822517,15.8993462 21.5548183,15.259104 19.954213,14.6188619 C21.4481113,16.1127602 22.8353026,17.9267796 22.5151815,18.9938498 C22.4084745,19.3139709 22.0883534,19.7407989 21.2346972,19.847506 C21.1279902,19.847506 20.9145762,19.847506 20.8078692,19.847506 L20.8078692,19.847506 C18.7804358,19.7407989 17.6066585,17.2865375 17.0731234,15.259104 C16.4328813,17.8200726 15.04569,21.3414043 12.9115496,21.2346972 C12.5914285,21.1279902 12.1646004,21.0212832 11.7377723,20.7011621 Z M12.2713075,19.7407989 C12.2713075,19.847506 12.3780145,19.847506 12.3780145,19.954213 C12.5914285,20.167627 12.9115496,20.167627 13.1249636,20.167627 C14.7255689,20.2743341 16.1127602,16.1127602 16.6462953,13.2316706 C14.7255689,15.152397 12.0578934,18.4603147 12.2713075,19.7407989 Z M21.1279902,18.6737287 C21.3414043,18.6737287 21.5548183,18.5670217 21.5548183,18.5670217 C21.7682323,17.9267796 19.954213,15.8993462 17.9267796,13.9786198 C18.3536077,16.0060532 19.2072638,18.8871428 21.1279902,18.6737287 Z M8.10973362,15.3658111 C8.10973362,15.3658111 8.10973362,15.3658111 8.32314766,15.3658111 C9.39021788,15.3658111 12.2713075,14.1920338 14.4054479,13.1249636 C11.8444794,13.2316706 8.42985468,13.9786198 8.10973362,15.3658111 Z M18.5670217,12.8048426 C20.167627,13.5517917 23.0487166,14.832276 24.969443,14.938983 C25.6096851,14.938983 26.0365132,14.832276 26.2499272,14.5121549 C26.5700483,13.9786198 26.3566343,13.7652058 26.3566343,13.6584987 C26.2499272,13.4450847 25.5029781,12.8048426 22.6218885,12.6981355 C21.0212832,12.5914285 19.4206779,12.6981355 18.5670217,12.8048426 Z M9.07009681,8.42985468 C8.64326873,8.42985468 8.53656171,8.53656171 8.42985468,8.64326873 C8.32314766,8.85668277 8.32314766,8.96338979 8.32314766,9.07009681 C8.74997575,10.137167 12.4847215,11.5243583 14.938983,12.0578934 C15.152397,12.0578934 15.259104,12.2713075 15.3658111,12.4847215 C15.5792251,12.3780145 15.6859321,12.2713075 15.8993462,12.2713075 C13.9786198,10.7774092 10.7774092,8.42985468 9.07009681,8.42985468 Z M17.8200726,11.0975302 C17.7133655,11.3109443 17.4999515,11.3109443 17.2865375,11.3109443 C17.0731234,11.3109443 16.9664164,11.0975302 16.8597094,10.8841162 C16.3261743,8.10973362 15.04569,4.16157383 13.7652058,4.05486681 C13.6584987,4.05486681 13.6584987,4.05486681 13.5517917,4.05486681 C13.4450847,4.05486681 13.3383777,4.16157383 13.3383777,4.26828085 C12.9115496,5.54876511 15.6859321,9.81704596 17.6066585,12.1646004 C17.6066585,12.1646004 17.6066585,12.1646004 17.6066585,12.1646004 C17.6066585,12.0578934 17.7133655,11.9511864 17.8200726,11.8444794 C20.2743341,10.243874 23.9023728,7.04266341 23.4755447,5.44205809 C23.4755447,5.33535107 23.4755447,5.33535107 23.4755447,5.33535107 C22.5151815,5.44205809 19.847506,8.32314766 17.8200726,11.0975302 Z" id="Shape" fill="#E6B11B"></path>
                            <path d="M14.6188619,45.030363 C14.6188619,45.030363 14.6188619,45.030363 14.6188619,45.030363 C14.2987409,45.030363 13.9786198,44.7102419 14.0853268,44.3901209 L18.1401936,1.28048426 C18.1401936,0.960363192 18.4603147,0.746949149 18.7804358,0.746949149 C19.1005568,0.746949149 19.3139709,1.06707021 19.3139709,1.38719128 L15.259104,44.4968279 C15.152397,44.816949 14.938983,45.030363 14.6188619,45.030363 Z" id="Path" fill="#E6B11B"></path>
                            <path d="M1.28048426,12.5914285 C0.960363192,12.5914285 0.746949149,12.3780145 0.746949149,12.0578934 C0.746949149,11.7377723 0.960363192,11.5243583 1.28048426,11.5243583 L37.3474575,10.9908232 C37.3474575,10.9908232 37.3474575,10.9908232 37.3474575,10.9908232 C37.6675785,10.9908232 37.8809926,11.2042372 37.8809926,11.5243583 C37.8809926,11.8444794 37.6675785,12.0578934 37.3474575,12.0578934 L1.28048426,12.5914285 C1.28048426,12.5914285 1.28048426,12.5914285 1.28048426,12.5914285 Z" id="Path" fill="#E6B11B"></path>
                        </g>
                        <g id="Group" transform="translate(46.951089, 58.688862)" fill-rule="nonzero">
                            <polygon id="Path" fill="#84AE9F" points="0.960363192 0.853656171 64.6644549 6.18900724 63.3839707 24.4359079 0.960363192 23.5822517"></polygon>
                            <path d="M25.182857,19.6340919 C24.862736,19.4206779 24.6493219,19.1005568 24.6493219,18.7804358 C24.4359079,17.3932445 26.1432202,14.938983 27.5304115,13.0182566 C25.5029781,14.0853268 22.8353026,15.3658111 21.5548183,15.3658111 C21.1279902,15.3658111 20.8078692,15.259104 20.5944551,15.04569 C20.4877481,14.938983 20.3810411,14.6188619 20.3810411,14.1920338 C20.7011621,12.4847215 23.2621306,11.6310653 25.3962711,11.2042372 C23.3688377,10.6707021 21.0212832,9.71033894 20.4877481,8.53656171 C20.2743341,8.10973362 20.3810411,7.57619851 20.5944551,7.14937043 C20.8078692,6.82924936 21.2346972,6.40242128 22.0883534,6.40242128 C23.5822517,6.40242128 25.9298062,7.68290554 27.7438255,8.85668277 C26.2499272,6.82924936 24.7560289,4.26828085 25.07615,2.88108958 C25.182857,2.45426149 25.5029781,2.13414043 25.9298062,1.92072638 C26.1432202,1.81401936 26.3566343,1.81401936 26.5700483,1.81401936 C28.7041887,1.81401936 30.09138,5.97559319 30.7316221,8.21644064 C32.1188134,6.29571426 34.786489,2.77438255 36.2803872,2.77438255 C36.4938013,2.77438255 37.0273364,2.88108958 37.3474575,3.62803872 C37.9876996,5.65547213 34.893196,8.64326873 32.9724696,10.243874 C33.8261258,10.137167 34.786489,10.137167 35.8535592,10.137167 C38.4145277,10.137167 39.908426,10.5639951 40.4419611,11.4176513 C40.6553751,11.7377723 40.8687892,12.3780145 40.4419611,13.2316706 C40.12184,13.8719128 39.3748909,14.1920338 38.3078207,14.1920338 C36.9206294,14.1920338 34.893196,13.5517917 33.2925907,13.0182566 C34.786489,14.4054479 36.2803872,16.2194672 36.0669732,17.2865375 C35.9602662,17.6066585 35.7468521,18.0334866 34.893196,18.2469006 C34.786489,18.2469006 34.5730749,18.2469006 34.4663679,18.2469006 L34.4663679,18.2469006 C32.4389345,18.2469006 31.1584502,15.7926392 30.6249151,13.8719128 C30.09138,16.4328813 28.9176028,19.954213 26.6767553,19.954213 C26.0365132,19.954213 25.6096851,19.847506 25.182857,19.6340919 Z M25.6096851,18.5670217 C25.6096851,18.6737287 25.7163921,18.6737287 25.7163921,18.7804358 C25.9298062,18.8871428 26.2499272,18.9938498 26.4633413,18.9938498 C28.0639466,18.9938498 29.2377238,14.832276 29.7712589,11.8444794 C27.9572396,13.8719128 25.5029781,17.3932445 25.6096851,18.5670217 Z M34.4663679,17.1798304 C34.6797819,17.1798304 34.786489,17.0731234 34.893196,16.9664164 C35.10661,16.3261743 33.1858836,14.2987409 31.0517432,12.4847215 C31.5852783,14.6188619 32.6523485,17.4999515 34.4663679,17.1798304 Z M21.3414043,14.4054479 C21.3414043,14.4054479 21.3414043,14.4054479 21.5548183,14.4054479 C22.6218885,14.4054479 25.3962711,13.0182566 27.5304115,11.8444794 C24.969443,12.1646004 21.6615253,13.0182566 21.3414043,14.4054479 Z M31.7986924,11.4176513 C33.3992977,12.1646004 36.3870943,13.2316706 38.2011136,13.2316706 C38.8413558,13.2316706 39.2681838,13.1249636 39.3748909,12.8048426 C39.6950119,12.2713075 39.4815979,12.0578934 39.4815979,11.9511864 C39.3748909,11.7377723 38.6279417,11.0975302 35.7468521,11.0975302 C34.1462468,11.2042372 32.5456415,11.3109443 31.7986924,11.4176513 Z M22.0883534,7.46949149 C21.6615253,7.46949149 21.5548183,7.57619851 21.4481113,7.68290554 C21.3414043,7.89631958 21.3414043,8.0030266 21.4481113,8.10973362 C21.8749394,9.17680383 25.7163921,10.3505811 28.1706536,10.8841162 C28.3840677,10.8841162 28.5974817,11.0975302 28.5974817,11.3109443 C28.8108958,11.2042372 28.9176028,11.0975302 29.0243098,10.9908232 C27.1035834,9.60363192 23.6889587,7.46949149 22.0883534,7.46949149 Z M30.8383292,9.71033894 C30.7316221,9.92375298 30.5182081,9.92375298 30.3047941,9.92375298 C30.09138,9.92375298 29.984673,9.71033894 29.877966,9.4969249 C29.2377238,6.72254234 27.7438255,2.88108958 26.4633413,2.88108958 C26.3566343,2.88108958 26.3566343,2.88108958 26.2499272,2.88108958 C26.1432202,2.88108958 26.0365132,2.9877966 26.0365132,3.09450362 C25.7163921,4.37498787 28.5974817,8.53656171 30.6249151,10.7774092 C30.6249151,10.7774092 30.6249151,10.7774092 30.6249151,10.7774092 C30.6249151,10.6707021 30.7316221,10.5639951 30.8383292,10.4572881 C33.1858836,8.74997575 36.7072153,5.44205809 36.2803872,3.84145277 C36.2803872,3.73474575 36.2803872,3.73474575 36.2803872,3.73474575 C35.3200241,3.84145277 32.7590555,6.93595639 30.8383292,9.71033894 Z" id="Shape" fill="#3E2D4A"></path>
                            <path d="M64.1309198,14.1920338 C64.1309198,14.1920338 64.1309198,14.1920338 64.1309198,14.1920338 L0.960363192,10.6707021 C0.640242128,10.6707021 0.426828085,10.3505811 0.426828085,10.03046 C0.426828085,9.71033894 0.746949149,9.4969249 1.06707021,9.4969249 L64.2376268,13.0182566 C64.5577479,13.0182566 64.7711619,13.3383777 64.7711619,13.6584987 C64.6644549,13.9786198 64.4510409,14.1920338 64.1309198,14.1920338 Z" id="Path" fill="#3E2D4A"></path>
                            <path d="M30.4115011,24.5426149 C30.09138,24.5426149 29.877966,24.3292009 29.877966,24.0090798 L29.877966,3.30791766 C29.877966,2.9877966 30.09138,2.77438255 30.4115011,2.77438255 C30.7316221,2.77438255 30.9450362,2.9877966 30.9450362,3.30791766 L30.9450362,24.0090798 C31.0517432,24.3292009 30.7316221,24.5426149 30.4115011,24.5426149 Z" id="Path" fill="#3E2D4A"></path>
                        </g>
                        <g id="Group" fill="#3E2D4A" fill-rule="nonzero">
                            <path d="M130.229955,98.2341897 L33.16415,98.2341897 C32.7147713,98.2341897 32.3552683,97.8746867 32.2653926,97.425308 L18.3346521,1.88739065 L1.16838469,1.88739065 C0.629130218,1.88739065 0.269627236,1.52788767 0.269627236,0.988633199 C0.269627236,0.449378727 0.629130218,0.0898757454 1.16838469,0.0898757454 L19.1435338,0.0898757454 C19.5929125,0.0898757454 19.9524155,0.449378727 20.0422912,0.898757454 L33.9730318,96.4366748 L130.319831,96.4366748 C130.859085,96.4366748 131.218588,96.7961778 131.218588,97.3354322 C131.218588,97.8746867 130.76921,98.2341897 130.229955,98.2341897 Z" id="Path"></path>
                            <path d="M131.667967,84.2135734 L31.8160139,84.2135734 C31.2767594,84.2135734 30.9172564,83.8540704 30.9172564,83.314816 C30.9172564,82.7755615 31.2767594,82.4160585 31.8160139,82.4160585 L130.859085,82.4160585 L137.150387,21.5701789 L21.1208002,16.1776342 C20.5815457,16.1776342 20.2220427,15.7282554 20.2220427,15.2788767 C20.2220427,14.7396222 20.6714214,14.3801193 21.1208002,14.3801193 L138.139021,19.8625397 C138.408648,19.8625397 138.588399,19.9524155 138.768151,20.132167 C138.947902,20.3119185 139.037778,20.5815457 138.947902,20.8511729 L132.476849,83.4046917 C132.566724,83.9439462 132.117346,84.2135734 131.667967,84.2135734 Z" id="Path"></path>
                            <ellipse id="Oval" transform="translate(44.486660, 108.801564) rotate(-45.000000) translate(-44.486660, -108.801564) " cx="44.4866605" cy="108.801564" rx="7.90898974" ry="7.81911486"></ellipse>
                            <ellipse id="Oval" transform="translate(122.681165, 108.809653) rotate(-45.000000) translate(-122.681165, -108.809653) " cx="122.681165" cy="108.809653" rx="7.90898974" ry="7.81911486"></ellipse>
                        </g>
                    </g>
                    <g id="Group" stroke-width="1" fill-rule="evenodd" transform="translate(872.000000, 351.000000)">
                        <path d="M62.5535188,24.356327 C60.9357554,7.45968687 72.709478,10.9648409 76.3943836,13.0319831 C80.0792891,15.0991252 81.1577981,7.19005963 83.314816,5.03304174 C85.4718338,2.87602385 92.0327633,-2.69627236 99.6722016,2.9658996 C107.401516,8.53819581 106.233131,21.5701789 93.3808994,27.2323508 C80.5286679,32.8945228 82.236307,31.3666351 79.3602832,31.2767594 C73.6082355,30.8273807 63.182649,30.6476292 62.5535188,24.356327 Z" id="Path" fill="#3E2D4A" fill-rule="nonzero"></path>
                        <polygon id="Path" fill="#CC2426" fill-rule="nonzero" points="18.3346521 35.6806709 48.1733995 51.2291749 31.6362624 85.6515853 0.269627236 68.125815"></polygon>
                        <path d="M19.053658,43.2302335 C18.9637823,43.2302335 18.8739065,43.2302335 18.7840308,43.2302335 C18.3346521,43.1403578 18.0650248,42.6011033 18.1549006,42.1517246 C18.3346521,41.6124701 22.2891849,27.9513568 33.2540258,25.7943389 C33.7034045,25.7044632 34.242659,25.9740904 34.3325347,26.5133449 C34.4224105,26.9627236 34.1527832,27.5019781 33.6135288,27.5918538 C23.7271968,29.4792445 19.9524155,42.5112276 19.8625397,42.6011033 C19.8625397,42.9606063 19.5030367,43.2302335 19.053658,43.2302335 Z" id="Path" fill="#3E2D4A" fill-rule="nonzero"></path>
                        <path d="M155.305288,71.4512176 C154.945785,71.4512176 154.586282,71.1815903 154.406531,70.8220874 C147.66585,48.353151 141.554299,47.0050148 141.554299,47.0050148 C141.10492,46.9151391 140.745417,46.4657604 140.745417,46.0163816 C140.745417,45.5670029 141.284672,45.2074999 141.73405,45.2074999 C142.453056,45.2973757 149.013986,46.7353876 156.11417,70.2828329 C156.293921,70.7322116 156.024294,71.2714661 155.485039,71.3613418 C155.485039,71.4512176 155.395164,71.4512176 155.305288,71.4512176 Z" id="Path" fill="#3E2D4A" fill-rule="nonzero"></path>
                        <path d="M78.37165,26.5133449 C78.37165,26.5133449 55.2735834,27.5019781 47.0050148,25.7943389 C37.8376888,23.9069483 21.3904274,-2.78614811 12.8522316,2.06714214 C9.07745028,4.22416003 15.6383797,2.51652087 18.2447763,6.20142643 C20.8511729,9.88633199 17.0763916,35.9502981 49.1620327,45.1176242 C70.1929571,51.1392991 74.3272414,49.7911629 74.3272414,49.7911629 L78.37165,26.5133449 Z" id="Path" fill="#DC9680" fill-rule="nonzero"></path>
                        <path d="M110.27754,32.5350198 C110.27754,32.5350198 128.702067,46.3758846 135.802251,46.1062574 C142.902435,45.8366301 138.858027,9.61670475 146.317713,7.7293141 C150.362122,6.65080516 144.69995,11.3243439 146.946844,15.8181312 C149.193737,20.3119185 162.585223,55.8128379 145.778459,64.1712822 C128.971695,72.5297265 100.391208,60.8458796 101.649468,50.4202932 C102.907728,39.9947067 105.783752,31.0970079 110.27754,32.5350198 Z" id="Path" fill="#DC9680" fill-rule="nonzero"></path>
                        <path d="M97.3354322,26.6032206 C97.3354322,26.6032206 106.772386,26.8728479 112.16493,33.3439015 C117.467599,39.9048309 119.714493,55.2735834 116.838469,61.4750098 C113.962445,67.6764363 93.2910237,69.7435784 86.460467,63.2725247 C79.7197861,56.8913468 69.4739512,27.4121023 97.3354322,26.6032206 Z" id="Path" fill="#FFC332" fill-rule="nonzero"></path>
                        <path d="M71.7208448,29.0298658 C71.7208448,29.0298658 80.2590406,20.4916699 97.2455565,29.658996 C114.232072,38.826322 125.646292,64.6206609 104.795119,91.6732603 C104.795119,91.6732603 81.0679223,81.0679223 78.012147,79.4501589 C72.2600993,76.3943836 82.955313,77.293141 79.9894134,64.8004124 C77.2032653,52.3076838 66.5080516,33.0742743 71.7208448,29.0298658 Z" id="Path" fill="#FFC332" fill-rule="nonzero"></path>
                        <polygon id="Path" fill="#84AE9F" fill-rule="nonzero" points="127.893186 73.6082355 160.697833 65.9687971 171.123419 106.502758 135.892127 113.513066"></polygon>
                        <path d="M98.5038169,27.0525994 C98.5038169,27.0525994 94.5492841,17.7953976 96.706302,13.6611133 C98.8633199,9.52682901 93.7404024,7.90906559 92.482142,8.98757454 C91.2238816,10.0660835 91.403633,22.4689363 84.3933249,25.7044632 C83.314816,26.2437176 101.739344,40.4440854 98.5038169,27.0525994 Z" id="Path" fill="#DC9680" fill-rule="nonzero"></path>
                        <path d="M88.6174849,8.89769879 C88.6174849,8.89769879 85.2022066,18.1549006 89.8757454,17.7055218 C101.469717,16.7168886 97.6949352,5.7520477 95.6277931,5.12291749 C93.5606509,4.49378727 89.7858696,5.57229621 88.6174849,8.89769879 Z" id="Path" fill="#DC9680" fill-rule="nonzero"></path>
                        <path d="M91.1340058,5.21279323 C91.1340058,5.21279323 90.6846271,10.0660835 94.3695326,12.7623558 C95.9872961,13.9307405 96.346799,10.8749652 96.9759293,12.4028529 C97.9645625,14.829498 96.7961778,14.3801193 96.5265505,15.5485039 C95.6277931,19.413161 98.6835684,20.5815457 101.200089,15.3687525 C101.739344,14.2902435 101.82922,12.5826044 100.660835,8.35844432 C99.4924501,4.13428429 93.4707752,2.06714214 90.9542543,3.41527832 C88.4377334,4.7634145 85.8313368,11.6838469 86.460467,10.1559592 C88.5276092,5.21279323 89.7858696,6.38117792 91.1340058,5.21279323 Z" id="Path" fill="#3E2D4A" fill-rule="nonzero"></path>
                        <path d="M94.3695326,16.2675099 C94.3695326,16.2675099 92.841645,17.8852733 90.4149998,17.8852733 C90.4149998,17.8852733 89.6061181,21.5701789 88.5276092,22.9183151 C88.1681062,23.4575695 94.9986629,22.1993091 94.3695326,16.2675099 Z" id="Path" fill="#CC5A5D" fill-rule="nonzero" opacity="0.5"></path>
                        <path d="M110.457291,85.4718338 C110.457291,85.4718338 129.600825,122.231014 127.084304,137.599766 C124.567783,152.968519 92.2125148,182.537639 95.6277931,186.492172 C99.0430714,190.446704 101.559592,192.963225 99.0430714,190.446704 C96.5265505,187.930184 86.2807156,189.997326 88.0782305,184.245278 C90.5947513,176.156461 104.435616,138.588399 101.82922,135.6225 C99.2228229,132.6566 78.7311529,101.289965 81.876804,94.9087871 C85.0224551,88.5276092 107.31164,86.0110883 110.457291,85.4718338 Z" id="Path" fill="#DC9680" fill-rule="nonzero"></path>
                        <g transform="translate(86.280716, 177.055218)" fill-rule="nonzero" id="Path">
                            <path d="M4.13428429,0.449378727 C4.13428429,0.449378727 11.9534741,3.14565109 11.5939712,4.04440854 C9.7065805,9.43695326 22.8284393,16.6270129 20.2220427,16.6270129 C17.5257703,16.5371371 1.34813618,11.3243439 0.629130218,10.0660835 C-0.0898757454,8.80782305 4.13428429,0.449378727 4.13428429,0.449378727 Z" fill="#84AE9F"></path>
                            <path d="M8.53819581,7.01030814 C8.62807156,7.10018388 8.80782305,7.19005963 8.89769879,7.19005963 L12.0433499,7.19005963 C12.4028529,7.19005963 12.6724801,6.92043239 12.6724801,6.56092941 C12.6724801,6.20142643 12.4028529,5.93179919 12.0433499,5.93179919 L8.89769879,5.93179919 C8.53819581,5.93179919 8.26856857,6.20142643 8.26856857,6.56092941 C8.35844432,6.7406809 8.44832006,6.92043239 8.53819581,7.01030814 Z" fill="#3E2D4A"></path>
                            <path d="M8.80782305,9.97620774 C8.98757454,10.1559592 9.16732603,10.1559592 9.43695326,10.0660835 L12.9421073,8.80782305 C13.3016103,8.7179473 13.3914861,8.35844432 13.3016103,7.99894134 C13.2117346,7.7293141 12.8522316,7.54956261 12.4927286,7.63943836 L8.98757454,8.89769879 C8.62807156,8.98757454 8.53819581,9.34707752 8.62807156,9.7065805 C8.7179473,9.88633199 8.80782305,9.88633199 8.80782305,9.97620774 Z" fill="#3E2D4A"></path>
                            <path d="M11.0547167,12.4927286 C11.2344682,12.6724801 11.5939712,12.6724801 11.8635984,12.4927286 L14.7396222,10.245835 C15.0092495,10.0660835 15.0092495,9.61670475 14.829498,9.34707752 C14.6497465,9.07745028 14.2003678,9.07745028 13.9307405,9.25720177 L11.0547167,11.5040954 C10.7850894,11.6838469 10.7850894,12.1332256 11.0547167,12.4927286 C10.9648409,12.4028529 11.0547167,12.4028529 11.0547167,12.4927286 Z" fill="#3E2D4A"></path>
                        </g>
                        <path d="M92.5720177,107.491391 C92.5720177,107.491391 88.7073607,138.318772 69.4739512,145.688583 C54.9140804,151.260879 34.7819135,158.091436 21.3005517,163.483981 C20.4916699,163.843484 14.5598708,160.697833 14.5598708,160.697833 L19.3232853,156.473673 C19.3232853,156.473673 54.6444532,142.722684 55.9925894,133.645233 C57.3407255,124.567783 63.542152,94.8189114 67.9460635,87.7187275 C74.5968687,76.933638 103.71661,76.933638 92.5720177,107.491391 Z" id="Path" fill="#DC9680" fill-rule="nonzero"></path>
                        <g transform="translate(11.683847, 154.586282)" fill-rule="nonzero" id="Path">
                            <path d="M10.9648409,0.629130218 C10.9648409,0.629130218 12.4927286,8.7179473 11.5939712,8.89769879 C5.93179919,9.97620774 6.20142643,24.8955815 4.943166,22.5588121 C3.68490556,20.2220427 0.179751491,3.50515407 0.988633199,2.24689363 C1.61776342,1.07850894 10.9648409,0.629130218 10.9648409,0.629130218 Z" fill="#84AE9F"></path>
                            <path d="M7.45968687,7.63943836 C7.45968687,7.81918985 7.45968687,7.90906559 7.54956261,8.08881708 L9.07745028,10.7850894 C9.25720177,11.0547167 9.61670475,11.1445924 9.88633199,11.0547167 C10.1559592,10.8749652 10.245835,10.5154622 10.1559592,10.245835 L8.62807156,7.54956261 C8.44832006,7.27993538 8.08881708,7.19005963 7.81918985,7.27993538 C7.54956261,7.27993538 7.45968687,7.45968687 7.45968687,7.63943836 Z" fill="#3E2D4A"></path>
                            <path d="M4.943166,9.34707752 C4.943166,9.52682901 4.943166,9.79645625 5.12291749,9.88633199 L7.99894134,12.3129771 C8.26856857,12.4927286 8.62807156,12.4927286 8.89769879,12.2231014 C9.07745028,11.9534741 9.07745028,11.5939712 8.80782305,11.3243439 L5.93179919,8.89769879 C5.66217196,8.7179473 5.30266898,8.7179473 5.03304174,8.98757454 C5.03304174,9.16732603 5.03304174,9.25720177 4.943166,9.34707752 Z" fill="#3E2D4A"></path>
                            <path d="M3.9545328,12.4927286 C3.86465705,12.7623558 4.04440854,13.0319831 4.31403578,13.2117346 L7.7293141,14.5598708 C7.99894134,14.6497465 8.35844432,14.5598708 8.53819581,14.2003678 C8.62807156,13.8408648 8.53819581,13.5712376 8.17869283,13.3914861 L4.7634145,12.0433499 C4.49378727,11.9534741 4.13428429,12.0433499 3.9545328,12.4028529 C3.9545328,12.4028529 3.9545328,12.4927286 3.9545328,12.4927286 Z" fill="#3E2D4A"></path>
                        </g>
                        <path d="M98.7734442,95.1784143 C98.7734442,95.1784143 86.9997215,134.99337 78.5514015,143.980944 C70.1030814,152.968519 32.8046471,161.866217 31.0970079,161.057336 C29.3893687,160.248454 27.1424751,151.620382 28.0412326,148.474731 C28.93999,145.32908 46.9151391,136.161754 53.7456957,131.128712 C60.4863766,126.095671 61.2952583,90.2352484 69.0245724,84.3933249 C76.7538865,78.5514015 96.706302,79.0906559 98.7734442,95.1784143 Z" id="Path" fill="#3E2D4A" fill-rule="nonzero"></path>
                        <path d="M116.838469,98.9531957 C116.838469,98.9531957 131.218588,123.669026 127.084304,137.599766 C122.95002,151.530507 105.064746,174.808325 102.188722,174.8982 C99.3126986,174.988076 93.3808994,172.561431 91.9428875,169.775283 C90.5048756,166.989135 104.34574,139.21753 101.739344,135.6225 C99.1329471,132.02747 80.5286679,104.795119 83.0451887,98.8633199 C85.5617096,92.9315207 107.850894,84.3034492 116.838469,98.9531957 Z" id="Path" fill="#3E2D4A" fill-rule="nonzero"></path>
                        <path d="M78.6412772,74.1474899 C78.6412772,74.1474899 106.502758,80.9780466 112.254806,79.3602832 C112.254806,79.3602832 113.063688,91.403633 110.637043,92.3023905 C108.210397,93.2011479 73.068981,84.5730764 71.7208448,83.2249402 C70.4625844,81.9666798 78.6412772,74.1474899 78.6412772,74.1474899 Z" id="Path" fill="#DC9680" fill-rule="nonzero"></path>
                        <path d="M71.7208448,83.314816 C71.7208448,83.314816 101.379841,92.3023905 111.805427,88.0782305 C111.805427,88.0782305 114.771327,93.9201539 116.838469,98.9531957 C116.838469,98.9531957 92.2125148,105.604001 81.5173011,98.9531957 C70.8220874,92.3023905 71.7208448,83.314816 71.7208448,83.314816 Z" id="Path" fill="#3E2D4A" fill-rule="nonzero"></path>
                        <path d="M110.367415,31.5463866 C110.367415,31.5463866 121.601883,38.3769433 123.669026,41.3428429 C125.736168,44.3087425 119.265114,56.7115953 116.119463,58.5091102 C112.883936,60.3066251 103.986237,40.8934641 110.367415,31.5463866 Z" id="Path" fill="#FFC332" fill-rule="nonzero"></path>
                        <path d="M65.1599154,26.6032206 C65.1599154,26.6032206 63.542152,48.6227782 65.1599154,49.8810387 C66.7776788,51.2291749 79.3602832,53.1165655 80.1691649,51.4988021 C80.9780466,49.8810387 84.3933249,25.6145874 84.3933249,25.6145874 C84.3933249,25.6145874 80.4387921,24.4462027 65.1599154,26.6032206 Z" id="Path" fill="#FFC332" fill-rule="nonzero"></path>
                        <path d="M78.9109044,50.9595476 C78.9109044,50.9595476 87.2693488,55.2735834 93.8302782,58.598986 C100.391208,61.9243886 113.782694,60.6661281 113.962445,62.1041401 C114.232072,63.542152 112.254806,74.3272414 110.367415,76.2146321 C108.480025,78.1020227 86.7300943,74.6867444 84.3933249,72.7993538 C82.0565555,70.8220874 82.5059343,63.2725247 81.5173011,58.598986 C80.5286679,53.9254472 77.3830168,51.4988021 78.9109044,50.9595476 Z" id="Path" fill="#C53A1E" fill-rule="nonzero" opacity="0.2"></path>
                        <path d="M114.052321,37.2085586 C114.052321,37.2085586 118.186605,50.3304174 118.006854,50.9595476 C117.827102,51.5886778 120.972753,46.5556361 120.882878,44.0391152 C120.793002,41.6124701 114.052321,37.2085586 114.052321,37.2085586 Z" id="Path" fill="#C53A1E" fill-rule="nonzero" opacity="0.2"></path>
                        <path d="M75.2259989,48.4430268 C75.2259989,48.4430268 74.8664959,41.0732156 75.2259989,38.826322 C75.5855019,36.5794284 68.5751937,42.7808548 66.5080516,42.3314761 C64.4409094,41.9719731 66.5080516,47.0050148 66.5080516,47.0050148 C66.5080516,47.0050148 67.406809,50.0607902 75.2259989,48.4430268 Z" id="Path" fill="#C53A1E" fill-rule="nonzero" opacity="0.2"></path>
                        <path d="M109.918037,84.3034492 C109.918037,84.3034492 97.5151837,83.4046917 89.5162424,81.1577981 C81.5173011,78.9109044 74.7766201,79.8995376 75.3158746,79.5400347 C75.7652533,79.1805317 78.37165,76.3045078 78.8210287,76.0348806 C79.2704074,75.7652533 103.896362,80.7084193 107.131888,80.1691649 C110.457291,79.6299104 109.918037,84.3034492 109.918037,84.3034492 Z" id="Path" fill="#CC5A5D" fill-rule="nonzero" opacity="0.5"></path>
                        <path d="M26.2437176,26.6032206 C26.2437176,26.6032206 31.9957654,30.3780019 40.2643339,34.4224105 C48.5329025,38.466819 62.5535188,39.545328 62.7332703,40.4440854 C62.823146,41.2529671 63.0927733,47.0050148 62.2838915,46.9151391 C61.4750098,46.8252633 45.8366301,44.2188667 39.2757007,39.9048309 C32.6248956,35.6806709 23.637321,26.6032206 26.2437176,26.6032206 Z" id="Path" fill="#CC5A5D" fill-rule="nonzero" opacity="0.5"></path>
                        <path d="M43.2302335,54.2849502 C43.050482,54.2849502 42.8707305,54.1950745 42.6909791,54.1051987 C42.3314761,53.8355715 42.2416003,53.296317 42.5112276,52.8469383 C55.4533349,34.8717892 44.9378727,25.5247117 44.488494,25.075333 C44.128991,24.71583 44.0391152,24.1765755 44.3986182,23.8170725 C44.7581212,23.4575695 45.2973757,23.3676938 45.6568786,23.7271968 C45.7467544,23.8170725 57.9698558,34.5122862 43.9492395,53.9254472 C43.769488,54.1051987 43.4998608,54.2849502 43.2302335,54.2849502 Z" id="Path" fill="#3E2D4A" fill-rule="nonzero"></path>
                        <path d="M122.231014,55.3634591 C122.231014,55.3634591 129.690701,60.3965009 140.47579,58.3293587 C151.260879,56.2622166 151.350755,42.5112276 151.979885,44.128991 C152.609016,45.8366301 154.226779,58.3293587 142.902435,62.6433945 C131.578091,66.9574303 120.61325,63.2725247 119.624617,62.6433945 C118.635984,62.0142643 118.815735,58.239483 119.624617,57.520477 C120.433499,56.8014711 122.231014,55.3634591 122.231014,55.3634591 Z" id="Path" fill="#CC5A5D" fill-rule="nonzero" opacity="0.5"></path>
                        <path d="M133.735109,77.2032653 C133.375606,77.2032653 133.105979,77.0235138 132.926227,76.6640108 C132.6566,76.0348806 126.095671,62.1940158 129.600825,52.1279323 C130.859085,48.5329025 133.28573,45.9265059 136.701009,44.3087425 C137.150387,44.128991 137.689642,44.3087425 137.869393,44.7581212 C138.049145,45.2074999 137.869393,45.7467544 137.420015,45.9265059 C134.364239,47.3645178 132.297097,49.7012872 131.218588,52.7570625 C127.893186,62.1041401 134.364239,75.7652533 134.454115,75.9450048 C134.633867,76.3943836 134.454115,76.933638 134.004736,77.1133895 C133.914861,77.1133895 133.824985,77.2032653 133.735109,77.2032653 Z" id="Path" fill="#3E2D4A" fill-rule="nonzero"></path>
                        <path d="M133.28573,85.4718338 C133.28573,85.4718338 143.801193,96.6164263 149.463365,98.5038169 C155.125537,100.391208 167.798017,104.34574 167.798017,104.34574 L138.228896,110.187664 L133.28573,85.4718338 Z" id="Path" fill="#3E2D4A" fill-rule="nonzero" opacity="0.1"></path>
                        <path d="M5.12291749,65.9687971 L15.9978827,46.9151391 C15.9978827,46.9151391 20.2220427,63.3624005 22.1094334,68.6650695 C23.996824,73.9677384 29.658996,81.1577981 29.658996,81.1577981 L5.12291749,65.9687971 Z" id="Path" fill="#B23234" fill-rule="nonzero"></path>
                    </g>
                    <g id="Group" stroke-width="1" fill-rule="evenodd" transform="translate(391.000000, 341.000000)">
                        <path d="M74.6867444,110.637043 C74.6867444,110.637043 79.7197861,139.21753 68.7549452,152.698891 C56.8014711,167.348638 11.2344682,155.664791 5.03304174,157.192679 C-1.16838469,158.720566 1.52788767,168.696774 2.24689363,164.742241 C2.9658996,160.787708 2.24689363,149.283613 2.78614811,149.193737 C6.56092941,149.013986 48.353151,144.789826 48.2632753,137.330139 C48.1733995,129.870452 41.4327186,92.6618935 53.2064413,87.3592245 C62.6433945,83.1350645 77.1133895,96.706302 74.6867444,110.637043 Z" id="Path" fill="#DC9680" fill-rule="nonzero"></path>
                        <path d="M65.3396669,89.5162424 C65.3396669,89.5162424 59.0483647,100.211456 69.5638269,112.973812 C80.0792891,125.826044 84.9325794,131.578091 90.8643786,144.879702 C98.0544382,161.057336 88.9769879,204.287569 96.0771718,202.400179 C103.267231,200.602664 105.064746,207.253469 105.064746,207.253469 C105.064746,207.253469 104.34574,203.388812 101.559592,198.625397 C98.7734442,193.861983 116.209339,151.710258 113.782694,134.454115 C111.445924,117.377723 81.6970525,61.4750098 65.3396669,89.5162424 Z" id="Path" fill="#DC9680" fill-rule="nonzero"></path>
                        <path d="M75.0462474,33.4337773 C75.0462474,33.4337773 83.314816,33.6135288 89.2466152,47.7240208 C94.7290356,60.7560039 83.7641947,73.9677384 86.3705913,95.2682901 C88.1681062,110.457291 47.993648,111.086421 48.2632753,102.727977 C48.5329025,94.3695326 61.7446371,74.5069929 56.8014711,61.6547613 C51.8583051,48.8025297 43.4998608,29.5691202 75.0462474,33.4337773 Z" id="Path" fill="#DC9680" fill-rule="nonzero"></path>
                        <path d="M56.9812226,33.4337773 C56.9812226,33.4337773 62.0142643,39.185825 65.7890456,37.5680616 C69.5638269,36.0401739 68.9346967,32.8046471 70.1030814,32.8945228 C71.2714661,32.9843986 74.7766201,31.3666351 78.1918985,34.242659 C81.6970525,37.0288071 88.8871122,44.0391152 90.2352484,51.0494234 C91.5833845,58.0597315 92.5720177,62.7332703 91.5833845,66.8675546 C90.5947513,71.0018388 95.0885386,92.482142 94.1897811,94.4594084 C94.1897811,94.4594084 62.463643,106.862261 49.072157,92.7517692 C46.8252633,90.3251241 58.7787375,71.3613418 56.4419681,63.2725247 C54.1051987,55.1837077 48.4430268,42.2416003 48.8025297,37.9275645 C49.2519085,33.6135288 56.9812226,33.4337773 56.9812226,33.4337773 Z" id="Path" fill="#3E2D4A" fill-rule="nonzero"></path>
                        <path d="M75.8551291,9.61670475 C75.8551291,9.61670475 74.5968687,14.2902435 81.0679223,15.4586282 C87.538976,16.6270129 103.177356,16.6270129 104.974871,19.3232853 C106.772386,22.0195576 87.6288517,27.5019781 85.2022066,30.4678777 C82.7755615,33.523653 92.482142,50.9595476 92.482142,50.9595476 C92.482142,50.9595476 127.80331,35.3211679 121.332256,17.2561431 C116.119463,2.78614811 84.7528279,13.3016103 82.1464313,13.1218588 C79.3602832,12.8522316 75.4956261,6.92043239 75.8551291,9.61670475 Z" id="Path" fill="#DC9680" fill-rule="nonzero"></path>
                        <g transform="translate(0.000000, 148.294980)" fill-rule="nonzero" id="Path">
                            <path d="M11.0547167,0.719005963 C11.0547167,0.719005963 11.3243439,8.98757454 10.3357107,8.98757454 C4.58366301,9.16732603 2.51652087,23.996824 1.61776342,21.4803031 C0.719005963,18.9637823 -0.0898757454,1.88739065 0.808881708,0.808881708 C1.79751491,-0.269627236 11.0547167,0.719005963 11.0547167,0.719005963 Z" fill="#C53A1E"></path>
                            <path d="M6.56092941,7.10018388 C6.47105367,7.19005963 6.47105367,7.36981112 6.56092941,7.54956261 L7.63943836,10.5154622 C7.7293141,10.8749652 8.08881708,10.9648409 8.44832006,10.8749652 C8.80782305,10.7850894 8.89769879,10.4255865 8.80782305,10.0660835 L7.7293141,7.10018388 C7.63943836,6.7406809 7.27993538,6.65080516 6.92043239,6.7406809 C6.7406809,6.83055665 6.56092941,6.92043239 6.56092941,7.10018388 Z" fill="#3E2D4A"></path>
                            <path d="M3.86465705,8.44832006 C3.77478131,8.62807156 3.86465705,8.89769879 3.9545328,9.07745028 L6.38117792,11.9534741 C6.56092941,12.2231014 7.01030814,12.2231014 7.27993538,12.0433499 C7.54956261,11.8635984 7.54956261,11.4142197 7.36981112,11.1445924 L4.943166,8.26856857 C4.7634145,7.99894134 4.31403578,7.99894134 4.04440854,8.17869283 C3.9545328,8.26856857 3.86465705,8.35844432 3.86465705,8.44832006 Z" fill="#3E2D4A"></path>
                            <path d="M2.33676938,11.4142197 C2.24689363,11.6838469 2.33676938,11.9534741 2.60639662,12.1332256 L5.7520477,14.0206163 C6.02167494,14.2003678 6.38117792,14.110492 6.56092941,13.8408648 C6.7406809,13.5712376 6.65080516,13.2117346 6.38117792,13.0319831 L3.23552683,11.1445924 C2.9658996,10.9648409 2.60639662,11.0547167 2.42664513,11.3243439 C2.33676938,11.3243439 2.33676938,11.3243439 2.33676938,11.4142197 Z" fill="#3E2D4A"></path>
                        </g>
                        <path d="M67.4966848,130.319831 C67.4966848,130.319831 65.1599154,143.082187 59.9471222,147.306347 C54.7343289,151.530507 31.0071322,148.834234 29.7488717,148.564607 C28.4906113,148.205104 47.3645178,145.239205 48.8924055,142.632808 C50.4202932,140.026411 53.4760685,130.319831 53.4760685,130.319831 L67.4966848,130.319831 L67.4966848,130.319831 Z" id="Path" fill="#CC5A5D" fill-rule="nonzero" opacity="0.5"></path>
                        <path d="M85.8313368,128.881819 C85.8313368,128.881819 95.7176688,123.039895 96.9759293,124.028529 C98.2341897,125.017162 102.008971,140.116287 102.45835,148.384856 C102.997604,156.7433 98.0544382,172.831058 96.706302,173.190561 C95.4480416,173.63994 96.706302,153.058394 94.0999054,145.95821 C91.4935088,138.858027 85.8313368,128.881819 85.8313368,128.881819 Z" id="Path" fill="#CC5A5D" fill-rule="nonzero" opacity="0.5"></path>
                        <path d="M47.0050148,98.6835684 C47.0050148,98.6835684 89.0668637,99.4924501 94.2796569,94.3695326 C94.2796569,94.3695326 100.930462,101.200089 106.502758,114.142197 C107.131888,115.580209 80.9780466,128.881819 80.9780466,128.881819 L75.8551291,120.523375 L75.8551291,127.264055 C75.8551291,127.264055 49.2519085,128.072937 46.7353876,126.185547 C44.2188667,124.298156 44.8479969,104.705243 47.0050148,98.6835684 Z" id="Path" fill="#84AE9F" fill-rule="nonzero"></path>
                        <polygon id="Path" fill="#FFC332" fill-rule="nonzero" points="35.6806709 88.9769879 67.8561878 99.1329471 56.1723409 139.397281 22.2891849 127.443807"></polygon>
                        <path d="M36.8490556,95.2682901 C36.7591799,95.2682901 36.5794284,95.2682901 36.4895526,95.1784143 C36.0401739,94.9986629 35.8604224,94.4594084 36.0401739,94.0100297 C36.1300496,93.8302782 38.2870675,88.8871122 41.8820973,84.4832006 C42.1517246,84.1236977 42.7808548,84.0338219 43.1403578,84.3034492 C43.4998608,84.5730764 43.5897365,85.2022066 43.3201093,85.5617096 C39.9048309,89.7858696 37.7478131,94.6391599 37.7478131,94.7290356 C37.5680616,95.0885386 37.2085586,95.2682901 36.8490556,95.2682901 Z" id="Path" fill="#3E2D4A" fill-rule="nonzero"></path>
                        <polygon id="Path" fill="#C53A1E" fill-rule="nonzero" opacity="0.2" points="24.5360785 125.196913 34.5122862 102.727977 43.9492395 127.80331 49.1620327 133.28573"></polygon>
                        <g transform="translate(91.673260, 195.929125)" fill-rule="nonzero" id="Path">
                            <path d="M1.88739065,0.539254472 C1.88739065,0.539254472 10.1559592,0.898757454 10.0660835,1.88739065 C9.79645625,7.63943836 24.4462027,10.7850894 21.8398061,11.5040954 C19.2334095,12.2231014 2.24689363,11.7737226 1.16838469,10.7850894 C0.0898757454,9.79645625 1.88739065,0.539254472 1.88739065,0.539254472 Z" fill="#CC2426"></path>
                            <path d="M7.90906559,5.48242047 C7.99894134,5.57229621 8.17869283,5.57229621 8.35844432,5.48242047 L11.3243439,4.58366301 C11.6838469,4.49378727 11.8635984,4.13428429 11.7737226,3.86465705 C11.6838469,3.50515407 11.3243439,3.32540258 11.0547167,3.41527832 L8.08881708,4.31403578 C7.7293141,4.40391152 7.54956261,4.7634145 7.63943836,5.03304174 C7.63943836,5.30266898 7.7293141,5.48242047 7.90906559,5.48242047 Z" fill="#3E2D4A"></path>
                            <path d="M9.07745028,8.26856857 C9.25720177,8.35844432 9.52682901,8.35844432 9.7065805,8.17869283 L12.7623558,5.93179919 C13.0319831,5.7520477 13.1218588,5.39254472 12.8522316,5.12291749 C12.6724801,4.85329025 12.3129771,4.7634145 12.0433499,5.03304174 L8.98757454,7.27993538 C8.7179473,7.45968687 8.62807156,7.81918985 8.89769879,8.08881708 C8.89769879,8.17869283 8.98757454,8.26856857 9.07745028,8.26856857 Z" fill="#3E2D4A"></path>
                            <path d="M11.8635984,9.97620774 C12.1332256,10.0660835 12.4028529,9.97620774 12.5826044,9.79645625 L14.7396222,6.83055665 C14.9193737,6.56092941 14.829498,6.20142643 14.5598708,6.02167494 C14.2902435,5.84192345 13.9307405,5.93179919 13.750989,6.20142643 L11.5939712,9.16732603 C11.4142197,9.43695326 11.5040954,9.79645625 11.7737226,9.97620774 C11.7737226,9.97620774 11.8635984,9.97620774 11.8635984,9.97620774 Z" fill="#3E2D4A"></path>
                        </g>
                        <path d="M52.6671868,32.8945228 C52.6671868,32.8945228 24.5360785,44.5783697 33.3439015,74.9563716 C40.3542097,99.3126986 91.403633,88.3478577 97.6949352,88.7972364 C102.188722,89.1567394 103.626734,94.2796569 104.076113,92.482142 C104.615368,90.5947513 104.076113,86.5503428 97.9645625,84.3034492 C92.9315207,82.4160585 60.1268737,80.2590406 57.0710983,66.4181758 C53.5659442,50.5101689 63.901655,32.4451441 52.6671868,32.8945228 Z" id="Path" fill="#DC9680" fill-rule="nonzero"></path>
                        <path d="M31.7261381,65.2497911 C31.7261381,65.2497911 55.6330864,65.2497911 60.0369979,59.4977434 C61.9243886,56.9812226 61.4750098,34.0629075 55.6330864,32.4451441 C49.7911629,30.9172564 29.658996,43.050482 31.7261381,65.2497911 Z" id="Path" fill="#3E2D4A" fill-rule="nonzero"></path>
                        <path d="M91.403633,26.8728479 C91.403633,26.8728479 106.233131,40.2643339 104.255865,45.8366301 C101.200089,54.1950745 88.0782305,58.0597315 85.2920824,57.2508498 C82.5059343,56.4419681 70.3727086,33.0742743 73.6082355,32.5350198 C80.4387921,31.5463866 90.2352484,24.8955815 91.403633,26.8728479 Z" id="Path" fill="#3E2D4A" fill-rule="nonzero"></path>
                        <path d="M82.955313,125.826044 C82.955313,125.826044 102.638101,115.849836 102.368474,114.232072 C102.098847,112.614309 95.3581658,99.0430714 92.6618935,98.9531957 C89.9656211,98.7734442 73.1588567,102.997604 69.5638269,102.907728 C65.9687971,102.727977 61.7446371,125.915919 61.7446371,125.915919 C61.7446371,125.915919 72.7993538,125.286789 72.9791052,125.017162 C73.1588567,124.747535 75.2259989,115.040954 75.2259989,115.040954 L82.955313,125.826044 Z" id="Path" fill="#3E2D4A" fill-rule="nonzero" opacity="0.1"></path>
                        <path d="M34.602162,68.3055665 C34.602162,68.3055665 39.9048309,67.4966848 43.6796123,66.5080516 C47.3645178,65.5194184 45.9265059,80.5286679 56.8014711,84.3933249 C67.6764363,88.257982 75.3158746,88.5276092 73.068981,89.2466152 C70.8220874,90.0554969 55.7229621,90.2352484 46.2860089,85.8313368 C36.8490556,81.5173011 33.7932803,71.3613418 34.602162,68.3055665 Z" id="Path" fill="#CC5A5D" fill-rule="nonzero" opacity="0.5"></path>
                        <path d="M63.4522762,102.098847 C63.3624005,102.098847 63.2725247,102.098847 63.182649,102.008971 C62.7332703,101.82922 62.463643,101.289965 62.6433945,100.840586 C68.485318,84.6629521 63.4522762,70.9119631 63.3624005,70.7322116 C63.182649,70.2828329 63.4522762,69.7435784 63.901655,69.5638269 C64.3510337,69.3840754 64.8902882,69.6537027 65.0700396,70.1030814 C65.2497911,70.7322116 70.3727086,84.6629521 64.3510337,101.469717 C64.1712822,101.82922 63.8117792,102.098847 63.4522762,102.098847 Z" id="Path" fill="#3E2D4A" fill-rule="nonzero"></path>
                        <path d="M104.435616,40.5339612 C104.435616,40.5339612 99.9418289,35.9502981 101.379841,34.242659 C102.817853,32.5350198 110.27754,30.018499 114.052321,27.5918538 C117.827102,25.2550844 119.534741,20.8511729 119.534741,22.5588121 C119.534741,24.2664513 118.366357,33.2540258 104.435616,40.5339612 Z" id="Path" fill="#CC5A5D" fill-rule="nonzero" opacity="0.5"></path>
                        <path d="M53.4760685,32.3552683 C53.4760685,32.3552683 59.5876192,32.3552683 59.3179919,19.8625397 C59.2281162,15.189001 63.182649,14.6497465 64.2611579,15.9978827 C65.3396669,17.3460189 61.2952583,33.523653 70.1929571,32.8945228 C71.3613418,32.8046471 68.485318,49.9709144 53.4760685,32.3552683 Z" id="Path" fill="#DC9680" fill-rule="nonzero"></path>
                        <path d="M67.1371818,16.2675099 C67.1371818,16.2675099 69.0245724,25.9740904 64.5307852,24.8057057 C53.2064413,21.9296819 58.7787375,11.7737226 60.8458796,11.4142197 C62.9130218,11.0547167 66.5080516,12.7623558 67.1371818,16.2675099 Z" id="Path" fill="#DC9680" fill-rule="nonzero"></path>
                        <path d="M63.8117792,12.0433499 C63.8117792,12.0433499 64.9801639,17.0763916 60.8458796,19.1435338 C59.0483647,20.0422912 59.1382405,16.9865159 58.3293587,18.3346521 C56.8913468,20.5815457 59.0483647,19.9524155 59.4977434,21.4803031 C60.4863766,25.3449602 55.3634591,26.1538419 53.7456957,20.5815457 C53.3861928,19.413161 53.5659442,17.7055218 55.4533349,13.750989 C57.3407255,9.79645625 63.6320277,8.7179473 65.7890456,10.4255865 C68.0359392,12.1332256 70.8220874,18.1549006 69.1144482,17.7953976 C67.406809,17.5257703 63.901655,15.0991252 63.8117792,12.0433499 Z" id="Path" fill="#3E2D4A" fill-rule="nonzero"></path>
                        <path d="M60.2167494,22.5588121 C60.2167494,22.5588121 61.4750098,24.4462027 63.901655,24.8057057 C63.901655,24.8057057 63.542152,27.9513568 64.3510337,29.5691202 C64.6206609,30.1083747 58.6888617,28.4007355 60.2167494,22.5588121 Z" id="Path" fill="#CC5A5D" fill-rule="nonzero" opacity="0.5"></path>
                        <circle id="Oval" fill="#3E2D4A" fill-rule="nonzero" cx="55.3634591" cy="6.65080516" r="6.29130218"></circle>
                    </g>
                </g>
            </g>
            <polygon id="Fill-1" fill="#FFBA00" mask="url(#mask-2)" points="523.447 121 521 125.533 531.302 130.068 533.282 125.514"></polygon>
            <g id="Group-32" mask="url(#mask-2)">
                <g transform="translate(588.500000, 84.500000) rotate(-44.000000) translate(-588.500000, -84.500000) translate(577.000000, 57.000000)">
                    <path d="M4.8488,12.1422 C4.8468,12.1862 4.8458,12.2302 4.8448,12.2742 C4.8448,12.3282 4.8448,12.3822 4.8438,12.4372 C4.8458,12.3382 4.8468,12.2402 4.8488,12.1422" id="Fill-1" fill="#FFC8E4"></path>
                    <path d="M4.8517,8.8087 C4.8487,9.9637 4.8467,11.1187 4.8447,12.2737 C4.8457,12.2297 4.8467,12.1857 4.8487,12.1417 C4.8467,12.2407 4.8457,12.3387 4.8437,12.4367 C4.8447,12.3827 4.8447,12.3287 4.8447,12.2737 C4.8407,12.4037 4.8367,12.5337 4.8327,12.6627 L4.8357,12.7187 C4.9407,11.8687 5.2927,11.1807 5.7967,10.6097 C5.2847,10.1757 4.9217,9.6027 4.8517,8.8087" id="Fill-3" fill="#FFC8E4"></path>
                    <path d="M20.0968,41.0485 C20.0948,40.9905 20.0928,40.9325 20.0908,40.8745 C20.0908,40.9215 20.0908,40.9675 20.0898,41.0145 C20.0918,41.0265 20.0948,41.0365 20.0968,41.0485" id="Fill-5" fill="#FFC8E4"></path>
                    <path d="M20.091,40.8746 C20.09,40.8356 20.089,40.7966 20.088,40.7576 C20.088,40.8426 20.089,40.9276 20.09,41.0116 L20.09,41.0146 C20.091,40.9676 20.091,40.9206 20.091,40.8746" id="Fill-7" fill="#FFC8E4"></path>
                    <g id="Group-11" stroke-width="1" fill="none" transform="translate(4.000000, 0.876000)">
                        <mask id="mask-5" fill="white">
                            <use xlink:href="#path-4"></use>
                        </mask>
                        <g id="Clip-10"></g>
                        <path d="M0.8517,7.9327 C0.9217,8.7267 1.2847,9.2997 1.7967,9.7337 C2.9207,8.4607 4.7937,7.7657 6.3337,7.1297 C9.0957,5.9897 11.9417,5.0787 14.8447,4.3747 C14.9437,4.3507 14.8767,2.4277 14.8787,2.2497 C14.8797,2.0807 14.8007,0.1407 14.8707,0.1237 C11.4147,0.9617 8.0277,2.0927 4.7857,3.5577 C3.4617,4.1557 2.0007,4.8717 1.2777,6.2047 C0.5427,7.5577 0.8167,9.4067 0.8147,10.8767 C0.8137,11.1937 0.8167,11.4967 0.8327,11.7867 C0.8367,11.6577 0.8407,11.5277 0.8447,11.3977 C0.8467,10.2427 0.8487,9.0877 0.8517,7.9327" id="Fill-9" fill="#FF2A57" mask="url(#mask-5)"></path>
                    </g>
                    <path d="M20.1242,37.0802 C20.1222,37.1012 20.1172,37.1192 20.1142,37.1392 L20.1232,37.2562 C20.1232,37.1982 20.1242,37.1392 20.1242,37.0802" id="Fill-12" fill="#FFC8E4"></path>
                    <path d="M4.8302,12.7643 C4.8312,12.7493 4.8342,12.7343 4.8362,12.7193 L4.8332,12.6633 L4.8302,12.7643 Z" id="Fill-14" fill="#FFC8E4"></path>
                    <polygon id="Fill-16" fill="#FFC8E4" points="20.09 41.0143 20.09 41.0133 20.09 41.0403"></polygon>
                    <path d="M0.3595,27.3287 C-0.1245,26.0017 0.6835,26.2617 0.5815,27.8367 C0.4995,27.6757 0.4235,27.5067 0.3595,27.3287 M22.7285,17.5677 C22.6245,13.9777 17.1915,13.3737 14.5325,12.9617 C12.5695,12.6577 10.5855,12.4267 8.6705,11.8817 C7.6755,11.5987 6.5665,11.2617 5.7965,10.6097 C5.2935,11.1807 4.9405,11.8687 4.8365,12.7187 C4.9055,13.7697 5.1855,14.6377 6.3135,15.2517 C7.6925,16.0027 9.3275,16.3537 10.8575,16.6387 C13.9615,17.2157 17.2645,17.3407 20.1785,18.6617 C20.6915,18.8947 21.1945,19.1867 21.6245,19.5577 C21.8185,19.3847 21.9955,19.1927 22.1485,18.9807 C22.3585,18.6917 22.4255,18.2527 22.6335,17.9977 L22.6285,21.0577 C22.6015,20.9747 22.5755,20.8897 22.5495,20.8057 C22.4605,20.6547 22.4115,20.4887 22.3165,20.3357 C22.1765,20.1097 21.9995,19.9037 21.8085,19.7187 C21.7515,19.6617 21.6855,19.6107 21.6245,19.5577 C21.5415,19.6317 21.4555,19.7037 21.3655,19.7697 C20.7745,20.2087 20.0695,20.4757 19.3655,20.6747 C16.0115,21.6207 12.4235,21.7667 8.9715,22.0877 C7.3045,22.2437 5.6265,22.3947 3.9775,22.6937 C2.6725,22.9307 1.2065,23.3637 0.4965,24.5877 C-0.2675,25.9027 0.0775,27.9797 0.0805,29.4047 C0.0835,30.7137 0.2425,31.8657 1.1045,32.9167 C2.1515,34.1937 3.8025,34.7597 5.3555,35.1367 C7.2105,35.5857 9.0885,35.9327 10.9425,36.3937 C12.8695,36.8727 14.7935,37.3897 16.6845,37.9927 C17.4295,38.2307 18.1875,38.5347 18.8025,38.9827 C19.4755,38.6127 19.9745,38.0437 20.1145,37.1397 C20.0355,36.2287 19.7625,35.4057 18.8835,34.7437 C17.5235,33.7207 15.5845,33.3867 13.9765,32.9377 C12.1035,32.4137 10.2155,31.9417 8.3175,31.5207 C5.7925,30.9617 2.4155,30.6107 0.8645,28.3177 C1.2045,27.9567 1.6295,27.6807 2.0865,27.4747 C3.6015,26.7947 5.4155,26.7057 7.0445,26.5287 C10.8375,26.1147 14.6765,25.9667 18.4155,25.1487 C19.9245,24.8187 21.6105,24.3037 22.3785,22.8297 C22.6805,22.2477 22.7035,21.6537 22.7145,21.0137 C22.7345,19.8667 22.7615,18.7137 22.7285,17.5677" id="Fill-18" fill="#DA2150"></path>
                    <path d="M18.8029,38.9825 C19.4579,39.4615 19.9509,40.1045 20.0899,41.0115 C20.0889,40.9275 20.0879,40.8425 20.0879,40.7575 C20.0889,40.7965 20.0899,40.8355 20.0909,40.8745 L20.1229,37.2565 L20.1149,37.1395 C19.9749,38.0445 19.4759,38.6125 18.8029,38.9825" id="Fill-20" fill="#FFC8E4"></path>
                    <path d="M5.6788,49.5372 C5.5968,49.9942 5.5958,51.8772 5.6848,52.0662 C5.6838,51.9882 5.6838,51.9102 5.6838,51.8322 C5.6838,51.0722 5.6678,50.3042 5.6788,49.5372" id="Fill-22" fill="#FFC8E4"></path>
                    <path d="M5.7814,49.6363 C5.7394,49.3883 5.7054,49.3913 5.6784,49.5373 C5.6684,50.3033 5.6834,51.0723 5.6834,51.8323 C5.6834,51.9103 5.6834,51.9883 5.6844,52.0663 C5.7054,52.1113 5.7304,52.0633 5.7614,51.8823 C5.7854,51.7403 5.8004,51.5963 5.8244,51.4553 C5.8674,51.2133 5.9244,50.9733 5.9874,50.7353 C5.9804,50.6983 5.9754,50.6603 5.9684,50.6253 C5.8894,50.2973 5.8384,49.9683 5.7814,49.6363" id="Fill-24" fill="#FFC8E4"></path>
                    <path d="M5.7619,51.882 C5.7309,52.064 5.7049,52.111 5.6849,52.067 C5.6879,53.018 5.7189,53.941 5.9419,54.876 C5.7959,54.266 5.9729,53.382 5.9759,52.751 C5.9799,52.125 6.1049,51.365 5.9879,50.735 C5.9239,50.973 5.8669,51.213 5.8239,51.455 C5.7999,51.597 5.7849,51.74 5.7619,51.882" id="Fill-26" fill="#FFC8E4"></path>
                    <path d="M20.1339,38.9235 C20.1369,38.3495 20.1589,37.7885 20.1229,37.2565 L20.0909,40.8745 C20.0929,40.9325 20.0949,40.9905 20.0969,41.0485 C20.0949,41.0365 20.0919,41.0265 20.0899,41.0145 L20.0899,41.0405 L20.0899,41.0115 C19.9509,40.1045 19.4579,39.4615 18.8029,38.9825 C17.5819,39.6545 15.7909,39.6765 14.5339,39.8735 C12.2669,40.2285 9.9559,40.9215 8.2759,42.5625 C6.8289,43.9735 5.9439,45.9115 5.7559,47.9175 C5.7059,48.4535 5.6869,48.9945 5.6789,49.5375 C5.7049,49.3915 5.7389,49.3885 5.7809,49.6365 C5.8379,49.9685 5.8899,50.2975 5.9679,50.6255 C5.9759,50.6605 5.9809,50.6985 5.9879,50.7355 C6.1209,50.2305 6.2969,49.7365 6.5179,49.2655 C7.1279,47.9635 8.0629,46.8115 9.2449,45.9885 C10.6099,45.0405 12.2309,44.5375 13.8499,44.2355 C15.4689,43.9335 17.4479,44.0835 18.8799,43.1735 C20.4119,42.2015 20.1269,40.5095 20.1339,38.9235" id="Fill-28" fill="#FF2A57"></path>
                    <path d="M22.7326,17.777 C22.7006,17.864 22.6676,17.947 22.6336,18.027 L22.6336,17.998 C22.4256,18.253 22.3586,18.692 22.1486,18.981 C21.9956,19.193 21.8186,19.384 21.6246,19.558 C21.5416,19.632 21.4556,19.703 21.3656,19.77 C20.7746,20.209 20.0696,20.476 19.3656,20.674 C16.0116,21.621 12.4236,21.767 8.9716,22.088 C7.3046,22.243 5.6266,22.395 3.9776,22.694 C2.6716,22.931 1.2066,23.363 0.4966,24.588 C0.2506,25.01 0.1206,25.512 0.0556,26.045 C0.1076,26.449 0.0456,26.692 0.5456,27.829 C0.6316,27.998 0.7616,28.166 0.8646,28.318 C1.2046,27.957 1.6286,27.68 2.0866,27.475 C3.6016,26.795 5.4156,26.706 7.0446,26.528 C10.8366,26.114 14.6766,25.967 18.4156,25.149 C19.9246,24.819 21.6106,24.304 22.3786,22.83 C22.6806,22.248 22.7036,21.654 22.7146,21.013 C22.7336,19.937 22.7566,18.854 22.7326,17.777" id="Fill-30" fill="#FF2A57"></path>
                </g>
            </g>
            <g id="Group-32" mask="url(#mask-2)">
                <g transform="translate(92.000000, 56.500000) rotate(16.000000) translate(-92.000000, -56.500000) translate(83.000000, 35.000000)">
                    <path d="M3.8029,8.7395 C3.8019,8.7735 3.8009,8.8085 3.7999,8.8435 C3.7999,8.8855 3.7999,8.9275 3.7999,8.9705 C3.8009,8.8935 3.8019,8.8165 3.8029,8.7395" id="Fill-1" fill="#EBAA65"></path>
                    <path d="M3.8054,6.1242 C3.8034,7.0302 3.8024,7.9362 3.8004,8.8432 C3.8014,8.8092 3.8024,8.7732 3.8034,8.7392 C3.8024,8.8162 3.8014,8.8942 3.7994,8.9712 C3.7994,8.9282 3.7994,8.8852 3.8004,8.8432 C3.7974,8.9442 3.7934,9.0462 3.7904,9.1472 L3.7934,9.1912 C3.8754,8.5242 4.1514,7.9852 4.5474,7.5372 C4.1444,7.1962 3.8604,6.7472 3.8054,6.1242" id="Fill-3" fill="#EBAA65"></path>
                    <path d="M15.7634,31.4123 C15.7614,31.3663 15.7604,31.3213 15.7594,31.2753 C15.7584,31.3123 15.7584,31.3493 15.7584,31.3853 C15.7594,31.3943 15.7624,31.4023 15.7634,31.4123" id="Fill-5" fill="#EBAA65"></path>
                    <path d="M15.759,31.2756 L15.756,31.1846 L15.758,31.3836 L15.758,31.3846 C15.758,31.3486 15.759,31.3126 15.759,31.2756" id="Fill-7" fill="#EBAA65"></path>
                    <path d="M3.8054,6.1242 C3.8604,6.7472 4.1444,7.1962 4.5474,7.5372 C5.4284,6.5392 6.8974,5.9942 8.1064,5.4952 C10.2714,4.6012 12.5044,3.8862 14.7814,3.3342 C14.8584,3.3152 14.8064,1.8072 14.8074,1.6672 C14.8084,1.5352 14.7464,0.0132 14.8014,0.0002 C12.0904,0.6562 9.4334,1.5442 6.8904,2.6932 C5.8534,3.1622 4.7074,3.7242 4.1394,4.7702 C3.5634,5.8312 3.7784,7.2812 3.7764,8.4342 C3.7754,8.6822 3.7774,8.9202 3.7904,9.1472 C3.7934,9.0462 3.7974,8.9442 3.8004,8.8432 C3.8024,7.9362 3.8034,7.0302 3.8054,6.1242" id="Fill-9" fill="#FFBA00"></path>
                    <path d="M15.7849,28.3 C15.7829,28.316 15.7799,28.33 15.7769,28.346 C15.7799,28.376 15.7819,28.407 15.7839,28.438 C15.7839,28.392 15.7849,28.346 15.7849,28.3" id="Fill-11" fill="#EBAA65"></path>
                    <path d="M3.7883,9.2277 C3.7893,9.2147 3.7913,9.2047 3.7933,9.1917 L3.7903,9.1477 C3.7903,9.1747 3.7893,9.2017 3.7883,9.2277" id="Fill-13" fill="#EBAA65"></path>
                    <path d="M15.758,31.385 L15.758,31.384 C15.758,31.391 15.758,31.399 15.758,31.406 L15.758,31.385 Z" id="Fill-15" fill="#EBAA65"></path>
                    <path d="M0.2819,20.6506 C-0.0981,19.6106 0.5359,19.8136 0.4559,21.0486 C0.3919,20.9226 0.3329,20.7916 0.2819,20.6506 M17.8269,12.9956 C17.7449,10.1796 13.4839,9.7056 11.3979,9.3816 C9.8589,9.1436 8.3029,8.9626 6.7999,8.5356 C6.0209,8.3126 5.1499,8.0476 4.5469,7.5376 C4.1519,7.9856 3.8749,8.5246 3.7939,9.1916 C3.8469,10.0156 4.0679,10.6966 4.9519,11.1776 C6.0339,11.7676 7.3159,12.0436 8.5159,12.2656 C10.9499,12.7186 13.5419,12.8166 15.8269,13.8536 C16.2299,14.0366 16.6239,14.2646 16.9609,14.5556 C17.1139,14.4206 17.2519,14.2696 17.3719,14.1036 C17.5369,13.8776 17.5899,13.5326 17.7539,13.3326 C17.7519,14.1326 17.7499,14.9326 17.7479,15.7326 C17.7279,15.6676 17.7069,15.6006 17.6869,15.5346 C17.6169,15.4166 17.5789,15.2866 17.5049,15.1666 C17.3949,14.9886 17.2559,14.8276 17.1059,14.6816 C17.0609,14.6366 17.0099,14.5976 16.9609,14.5556 C16.8959,14.6146 16.8289,14.6706 16.7589,14.7216 C16.2949,15.0666 15.7409,15.2756 15.1899,15.4316 C12.5589,16.1736 9.7449,16.2886 7.0369,16.5406 C5.7299,16.6626 4.4119,16.7816 3.1199,17.0156 C2.0959,17.2016 0.9459,17.5416 0.3889,18.5016 C-0.2101,19.5336 0.0609,21.1616 0.0629,22.2796 C0.0649,23.3066 0.1899,24.2106 0.8659,25.0346 C1.6869,26.0356 2.9829,26.4796 4.1999,26.7756 C5.6559,27.1276 7.1289,27.4006 8.5829,27.7616 C10.0939,28.1366 11.6029,28.5426 13.0869,29.0156 C13.6719,29.2026 14.2649,29.4406 14.7479,29.7926 C15.2759,29.5026 15.6669,29.0556 15.7769,28.3456 C15.7149,27.6316 15.5009,26.9866 14.8119,26.4666 C13.7449,25.6646 12.2229,25.4026 10.9629,25.0506 C9.4929,24.6396 8.0129,24.2686 6.5239,23.9386 C4.5429,23.5006 1.8939,23.2256 0.6779,21.4266 C0.9449,21.1436 1.2779,20.9266 1.6359,20.7656 C2.8249,20.2326 4.2479,20.1626 5.5249,20.0236 C8.4999,19.6986 11.5119,19.5836 14.4439,18.9416 C15.6279,18.6826 16.9499,18.2786 17.5529,17.1226 C17.7899,16.6666 17.8069,16.2006 17.8169,15.6976 C17.8319,14.7976 17.8539,13.8936 17.8269,12.9956" id="Fill-17" fill="#FF8B04"></path>
                    <path d="M14.7478,29.7922 C15.2628,30.1672 15.6488,30.6722 15.7578,31.3842 L15.7558,31.1852 L15.7588,31.2752 C15.7678,30.3302 15.7758,29.3842 15.7838,28.4382 C15.7818,28.4072 15.7798,28.3762 15.7768,28.3462 C15.6668,29.0562 15.2758,29.5022 14.7478,29.7922" id="Fill-19" fill="#EBAA65"></path>
                    <path d="M4.4543,38.0705 C4.3903,38.4285 4.3893,39.9055 4.4583,40.0545 C4.4583,39.9935 4.4583,39.9315 4.4583,39.8705 C4.4583,39.2745 4.4463,38.6725 4.4543,38.0705" id="Fill-21" fill="#EBAA65"></path>
                    <path d="M4.5349,38.1486 C4.5019,37.9546 4.4749,37.9566 4.4539,38.0706 C4.4459,38.6716 4.4579,39.2746 4.4579,39.8706 C4.4579,39.9316 4.4579,39.9936 4.4589,40.0546 C4.4749,40.0886 4.4949,40.0516 4.5189,39.9096 C4.5379,39.7986 4.5489,39.6856 4.5689,39.5756 C4.6019,39.3846 4.6469,39.1966 4.6959,39.0096 C4.6909,38.9816 4.6879,38.9516 4.6809,38.9236 C4.6189,38.6666 4.5789,38.4086 4.5349,38.1486" id="Fill-23" fill="#EBAA65"></path>
                    <g id="Group-27" stroke-width="1" fill="none" transform="translate(4.000000, 38.258100)">
                        <mask id="mask-7" fill="white">
                            <use xlink:href="#path-6"></use>
                        </mask>
                        <g id="Clip-26"></g>
                        <path d="M0.5192,1.6513 C0.4952,1.7943 0.4752,1.8313 0.4582,1.7973 C0.4612,2.5433 0.4852,3.2663 0.6602,4.0003 C0.5462,3.5213 0.6842,2.8293 0.6872,2.3333 C0.6902,1.8423 0.7882,1.2463 0.6962,0.7523 C0.6462,0.9383 0.6022,1.1273 0.5682,1.3173 C0.5492,1.4273 0.5382,1.5413 0.5192,1.6513" id="Fill-25" fill="#EBAA65" mask="url(#mask-7)"></path>
                    </g>
                    <path d="M15.7927,29.7453 C15.7947,29.2953 15.8127,28.8553 15.7837,28.4373 C15.7757,29.3843 15.7677,30.3303 15.7587,31.2753 C15.7607,31.3213 15.7617,31.3663 15.7637,31.4123 C15.7617,31.4023 15.7597,31.3943 15.7577,31.3853 L15.7577,31.4063 C15.7577,31.3983 15.7577,31.3913 15.7577,31.3843 C15.6487,30.6723 15.2627,30.1673 14.7477,29.7923 C13.7907,30.3183 12.3857,30.3363 11.3997,30.4903 C9.6217,30.7683 7.8097,31.3123 6.4907,32.5993 C5.3567,33.7073 4.6617,35.2263 4.5147,36.8003 C4.4767,37.2213 4.4597,37.6443 4.4547,38.0703 C4.4747,37.9563 4.5017,37.9543 4.5347,38.1483 C4.5797,38.4083 4.6197,38.6663 4.6807,38.9243 C4.6877,38.9513 4.6907,38.9813 4.6957,39.0103 C4.8017,38.6143 4.9387,38.2273 5.1117,37.8563 C5.5907,36.8363 6.3237,35.9323 7.2517,35.2873 C8.3217,34.5433 9.5927,34.1483 10.8627,33.9123 C12.1337,33.6753 13.6857,33.7923 14.8087,33.0793 C16.0107,32.3163 15.7867,30.9893 15.7927,29.7453" id="Fill-28" fill="#FFBA00"></path>
                    <path d="M17.8303,13.1594 C17.8053,13.2274 17.7793,13.2934 17.7533,13.3554 L17.7533,13.3324 C17.5893,13.5324 17.5373,13.8774 17.3723,14.1034 C17.2523,14.2694 17.1133,14.4204 16.9613,14.5554 C16.8953,14.6144 16.8293,14.6704 16.7583,14.7214 C16.2943,15.0664 15.7413,15.2754 15.1893,15.4314 C12.5593,16.1744 9.7453,16.2884 7.0373,16.5404 C5.7303,16.6624 4.4123,16.7814 3.1203,17.0154 C2.0963,17.2014 0.9453,17.5414 0.3893,18.5014 C0.1963,18.8324 0.0943,19.2254 0.0443,19.6434 C0.0843,19.9614 0.0363,20.1514 0.4283,21.0434 C0.4963,21.1764 0.5973,21.3074 0.6783,21.4274 C0.9453,21.1434 1.2783,20.9274 1.6363,20.7654 C2.8253,20.2324 4.2473,20.1624 5.5243,20.0234 C8.5003,19.6984 11.5123,19.5834 14.4443,18.9414 C15.6283,18.6824 16.9503,18.2784 17.5523,17.1224 C17.7903,16.6664 17.8073,16.2004 17.8163,15.6974 C17.8313,14.8524 17.8493,14.0044 17.8303,13.1594" id="Fill-30" fill="#FFBA00"></path>
                </g>
            </g>
            <polygon id="Fill-1" fill="#FF2A57" mask="url(#mask-2)" transform="translate(136.689000, 143.134500) rotate(14.000000) translate(-136.689000, -143.134500) " points="142.176 140 131 141.342 131.615 146.269 142.378 145.147"></polygon>
            <polygon id="Fill-1" fill="#FFBA00" mask="url(#mask-2)" points="53.031 105 42 107.244 43.012 112.105 53.648 110.114"></polygon>
        </g>
    </g>
</svg>