<svg xmlns="http://www.w3.org/2000/svg" width="110" height="116" viewBox="0 0 110 116">
    <g fill="#EDEDED">
        <path d="M54.843 29.712c-7.026 0-12.744 5.718-12.744 12.744s5.718 12.743 12.744 12.743 12.743-5.717 12.743-12.743c0-7.026-5.717-12.744-12.743-12.744zm0 4.966c4.29 0 7.778 3.488 7.778 7.778 0 4.29-3.489 7.778-7.778 7.778-4.29 0-7.779-3.489-7.779-7.778 0-4.29 3.49-7.778 7.779-7.778z"/>
        <path d="M54.843.938c-22.932 0-40.106 17.188-40.106 40.105 0 7.959 2.045 14.684 6.053 21.017 3.078 4.862 6.671 8.836 13.51 15.39l2.254 2.154H12.001L.11 115.808h109.466L97.683 79.603H73.13l2.802-2.679c6.485-6.244 9.968-10.135 12.962-14.865 4.008-6.333 6.053-13.058 6.053-21.017C94.948 18.11 77.762.938 54.843.938zM69.46 83.103l-.001 1.465h24.628L97.7 95.565H74.933v4.965H99.33l3.387 10.312H6.968l3.386-10.311 24.397-.001v-4.965H11.985l3.612-10.996h24.627v-1.466l1.597 1.584c3.836 3.804 6.735 7.036 9.132 10.065l.394.503c.53.68 1.34 1.78 2.113 2.84l1.383 1.899 2.043-2.8c.296-.404.584-.794.846-1.144l.616-.81c2.334-3 5.155-6.188 8.914-9.953l2.199-2.183zM54.843 5.903c20.336 0 35.14 14.804 35.14 35.14 0 11.06-4.108 18.83-13.516 28.411l-.75.755c-2.069 2.04-10.626 10.166-13.23 12.832-2.275 2.33-4.313 4.569-6.21 6.854l-.706.86-.728.897-1.286-1.58c-3.423-4.158-6.555-7.363-12.793-13.319l-3.348-3.197c-6.346-6.105-9.096-9.12-11.823-13.178-3.935-5.857-5.89-11.966-5.89-19.335 0-20.336 14.803-35.14 35.14-35.14z"/>
    </g>
</svg>
