<svg xmlns="http://www.w3.org/2000/svg" width="109" height="114" viewBox="0 0 109 114">
    <g fill="#EDEDED">
        <path d="M61.22 3.249c-3.555-3.439-9.074-3.515-12.715-.23l-.245.23-6.954 6.727c-.823.796-1.925 1.192-3.056 1.107l-.261-.029-9.58-1.355c-4.908-.694-9.427 2.504-10.428 7.321l-.057.297-1.672 9.53c-.198 1.133-.864 2.106-1.837 2.7l-.213.122-8.546 4.534C1.28 36.524-.496 41.761 1.517 46.244l.134.285L5.9 55.221c.502 1.029.538 2.2.107 3.249l-.107.24-4.25 8.692c-2.174 4.449-.534 9.73 3.73 12.173l.275.152 8.547 4.535c1.016.539 1.736 1.473 2 2.581l.05.24 1.672 9.53c.788 4.496 4.64 7.713 9.148 7.713.296 0 .593-.014.89-.042l.447-.053 9.58-1.355c1.132-.16 2.258.168 3.122.902l.195.176 6.954 6.727c1.773 1.716 4.084 2.638 6.48 2.638 2.269 0 4.463-.828 6.195-2.374l.284-.264 6.954-6.727c.822-.795 1.925-1.19 3.056-1.106l.261.028 9.58 1.355c4.907.694 9.423-2.5 10.427-7.314l.058-.303 1.672-9.53c.199-1.133.864-2.106 1.837-2.7l.213-.122 8.547-4.535c4.374-2.32 6.151-7.557 4.138-12.04l-.133-.285-4.25-8.693c-.502-1.028-.538-2.2-.107-3.248l.107-.24 4.25-8.693c2.174-4.449.534-9.73-3.73-12.173l-.275-.152-8.547-4.535c-1.016-.539-1.736-1.472-2-2.581l-.05-.24-1.672-9.53c-.856-4.88-5.291-8.19-10.179-7.657l-.306.039-9.58 1.355c-1.133.16-2.258-.168-3.122-.902l-.195-.176-6.954-6.727zm-3.902 3.678l.182.166 6.954 6.727c1.995 1.93 4.682 2.857 7.427 2.574l.358-.044 9.58-1.355c2.055-.29 3.955 1.026 4.422 3.021l.046.225 1.671 9.53c.48 2.739 2.115 5.071 4.508 6.454l.304.168 8.546 4.535c1.834.973 2.597 3.155 1.802 5.043l-.095.209-4.25 8.692c-1.216 2.489-1.269 5.325-.158 7.844l.159.341 4.249 8.693c.912 1.865.246 4.079-1.507 5.14l-.2.112-8.546 4.535c-2.456 1.304-4.17 3.578-4.745 6.282l-.066.34-1.672 9.53c-.359 2.044-2.197 3.444-4.24 3.272l-.227-.026-9.58-1.355c-2.749-.39-5.467.44-7.521 2.283l-.265.246-6.954 6.727c-1.487 1.439-3.789 1.494-5.34.166l-.182-.166-6.953-6.727c-1.752-1.694-4.047-2.623-6.457-2.623-.295 0-.59.014-.886.042l-.443.052-9.58 1.355c-2.054.29-3.954-1.027-4.421-3.022l-.046-.224-1.672-9.53c-.48-2.739-2.114-5.071-4.508-6.454l-.303-.168-8.547-4.535c-1.834-.973-2.597-3.155-1.801-5.043l.094-.209 4.25-8.692c1.216-2.49 1.269-5.325.158-7.844l-.158-.342-4.25-8.692c-.911-1.865-.246-4.079 1.508-5.14l.199-.112 8.547-4.535c2.456-1.304 4.17-3.578 4.745-6.282l.066-.34 1.672-9.53c.358-2.045 2.197-3.444 4.24-3.272l.227.026 9.58 1.355c2.748.389 5.467-.441 7.521-2.283l.264-.247 6.954-6.727c1.428-1.38 3.607-1.487 5.15-.318l.19.152z"/>
        <path d="M78.313 33.39c1.045 1.045 1.045 2.739 0 3.783L34.947 80.54c-.508.509-1.186.784-1.89.784-.706 0-1.383-.275-1.892-.784-1.044-1.044-1.044-2.738 0-3.782l43.366-43.366c1.045-1.045 2.738-1.045 3.782 0zM41.597 28.007c-6.305 0-11.435 5.13-11.435 11.436 0 6.305 5.13 11.435 11.435 11.435 6.306 0 11.436-5.13 11.436-11.435 0-6.305-5.13-11.436-11.436-11.436zm0 5.349c3.357 0 6.087 2.73 6.087 6.086 0 3.357-2.73 6.087-6.087 6.087-3.356 0-6.086-2.73-6.086-6.087 0-3.356 2.73-6.086 6.086-6.086zM67.881 63.052c-6.305 0-11.436 5.13-11.436 11.436 0 6.305 5.131 11.435 11.436 11.435s11.436-5.13 11.436-11.435c0-6.305-5.13-11.436-11.436-11.436zm0 5.349c3.357 0 6.087 2.73 6.087 6.087 0 3.356-2.73 6.086-6.087 6.086-3.357 0-6.087-2.73-6.087-6.086 0-3.357 2.73-6.087 6.087-6.087z"/>
    </g>
</svg>
