<svg xmlns="http://www.w3.org/2000/svg" width="16" height="16" viewBox="0 0 16 16">
    <g fill="none" fill-rule="evenodd">
        <path stroke="#555" stroke-width=".7" d="M7.294 0C3.273 0 0 2.636 0 5.877c0 2.904 2.595 5.337 6.1 5.796.238.051.561.156.643.358.073.182.047.47.023.655l-.104.619c-.031.183-.147.716.632.39.779-.325 4.201-2.455 5.73-4.203 1.057-1.151 1.563-2.319 1.563-3.615C14.587 2.636 11.316 0 7.294 0" transform="translate(1 1)"/>
        <path fill="#555" fill-rule="nonzero" d="M5.266 4.437h.508c.021 0 .04.02.04.045V7.74c0 .025-.018.044-.04.044h-.508c-.022 0-.041-.019-.041-.044V4.482c0-.026.019-.045.041-.045zM9.314 7.784h-.533l-.024-.004-.016-.014-1.522-2.022-.18.06V7.74c0 .024-.022.044-.049.044h-.534c-.027 0-.047-.02-.047-.044V4.482c0-.025.02-.045.047-.045l.533-.002.045.013h-.011l.02.024 1.51 2.006.18-.06V4.481c0-.025.02-.045.048-.045h.533c.027 0 .049.02.049.045V7.74c0 .024-.021.044-.049.044zM2.506 7.84l-.022-.064.01.006.015.003h2.078c.016 0 .03-.01.039-.023l.006-.023v-.523c0-.018-.01-.033-.023-.04l-.022-.007H3.174l-.1-.1V4.483c0-.017-.009-.032-.022-.04l-.022-.007h-.52c-.016 0-.03.01-.038.023l-.006.024v3.256c0 .013.004.023.04.101zM9.984 7.782l-.012-.008.025.066-.034-.075c-.006-.014-.007-.02-.007-.026V4.483c0-.012.004-.023.013-.033.01-.009.02-.014.032-.014h2.076c.024 0 .045.022.045.047v.524c0 .025-.02.045-.045.045h-1.412l-.1.1v.551l.1.1h1.412c.025 0 .045.02.045.046v.523c0 .026-.02.047-.045.047h-1.412l-.1.1v.55l.1.1h1.412c.025 0 .045.02.045.046v.524c0 .025-.02.046-.045.046h-2.076l-.017-.003z" transform="translate(1 1)"/>
    </g>
</svg>
