<?xml version="1.0" encoding="UTF-8"?>
<svg width="13px" height="16px" viewBox="0 0 13 16" version="1.1" xmlns="http://www.w3.org/2000/svg" xmlns:xlink="http://www.w3.org/1999/xlink">
    <!-- Generator: Sketch 64 (93537) - https://sketch.com -->
    <title>Combined Shape</title>
    <desc>Created with Sketch.</desc>
    <g id="小資振興_確認風格" stroke="none" stroke-width="1" fill="none" fill-rule="evenodd">
        <g id="小資振興_免費刊登-copy" transform="translate(-659.000000, -2699.000000)" stroke="#555555" stroke-width="0.8">
            <g id="Group-11" transform="translate(387.000000, 2659.000000)">
                <g id="Group-6" transform="translate(273.000000, 41.000000)">
                    <path d="M5.5,-1.86517468e-14 C8.53765,-1.86517468e-14 11,2.51828102 11,5.62492969 C11,7.6960288 9.16685,10.8206772 5.5,15 C1.83315,10.8206772 -7.99360578e-14,7.6960288 -7.99360578e-14,5.62492969 C-7.99360578e-14,2.51828102 2.46235,-1.86517468e-14 5.5,-1.86517468e-14 Z M5.5,4.03138711 C4.63945752,4.03138711 3.94185,4.74484042 3.94185,5.62492969 C3.94185,6.50501895 4.63945752,7.21847227 5.5,7.21847227 C6.36054248,7.21847227 7.05815,6.50501895 7.05815,5.62492969 C7.05815,4.74484042 6.36054248,4.03138711 5.5,4.03138711 Z" id="Combined-Shape"></path>
                </g>
            </g>
        </g>
    </g>
</svg>