<svg xmlns="http://www.w3.org/2000/svg" width="16" height="15" viewBox="0 0 16 15">
    <g fill="#555">
        <path d="M4.223.1C3.53.1 2.875.264 2.274.587c-.563.303-1.056.742-1.427 1.27C.48 2.383.235 2.993.143 3.622.045 4.292.114 4.96.35 5.608c.745 2.05 1.958 3.955 3.508 5.505 1.55 1.55 3.455 2.764 5.505 3.509.457.166.925.25 1.397.25.196 0 .393-.015.59-.044.628-.092 1.238-.336 1.764-.704.528-.37.968-.864 1.27-1.427.324-.6.487-1.256.487-1.949 0-.148-.089-.28-.22-.337l-.07-.022-3.427-.735c-.098-.02-.199 0-.28.053l-.057.047-1.255 1.255-.116.018C7.186 9.891 5.323 8.08 4.12 5.861l-.175-.336.019-.115 1.254-1.255c.07-.07.109-.166.108-.264l-.008-.073L4.583.39C4.546.22 4.396.1 4.223.1zm-.385.757l.109.078.57 2.88-1.31 1.31c-.11.11-.139.276-.073.417 1.298 2.762 3.534 4.998 6.296 6.295.117.055.252.044.357-.024l.06-.048 1.401-1.338 2.788.598.079.108c-.107.968-.615 1.823-1.423 2.388-.912.64-2.034.788-3.078.41-3.996-1.452-7.121-4.577-8.573-8.574-.379-1.043-.23-2.166.409-3.078C2.016 1.472 2.87.964 3.838.857zM7.486.1c1.973 0 3.827.768 5.222 2.163 1.395 1.395 2.163 3.25 2.163 5.222 0 .204-.164.368-.367.368-.204 0-.368-.164-.368-.368 0-3.666-2.983-6.65-6.65-6.65-.203 0-.368-.164-.368-.367 0-.203.165-.368.368-.368z" transform="translate(.5)"/>
        <path d="M7.486 1.971c3.04 0 5.514 2.474 5.514 5.514 0 .204-.165.368-.368.368-.203 0-.368-.164-.368-.368 0-2.634-2.143-4.778-4.778-4.778-.203 0-.368-.165-.368-.368 0-.203.165-.368.368-.368z" transform="translate(.5)"/>
        <path d="M7.486 3.843c2.008 0 3.643 1.634 3.643 3.642 0 .204-.165.368-.368.368-.203 0-.368-.164-.368-.368 0-1.603-1.304-2.907-2.907-2.907-.203 0-.368-.164-.368-.367 0-.204.165-.368.368-.368z" transform="translate(.5)"/>
    </g>
</svg>
