<svg xmlns="http://www.w3.org/2000/svg" width="176" height="39" viewBox="0 0 176 39">
    <g fill="none" fill-rule="evenodd">
        <g fill="#000">
            <path d="M110.339 6.015L113.036 6.015 113.036 17.422 110.339 17.422 110.339 20.118 121.332 20.118 121.332 17.422 120.917 17.422 120.917 1.659 115.732 1.659 115.732 4.356 117.599 4.356 117.599 8.089 115.732 8.089 115.732 10.785 117.599 10.785 117.599 12.859 115.732 12.859 115.732 15.348 117.599 15.348 117.599 17.422 115.525 17.422 115.525 2.074 110.339 3.733zM74.873 3.526v19.703h3.111v-9.54H87.732v-2.697h-9.748V4.978h9.54V2.074H76.119c-.623 0-1.245.622-1.245 1.452zM37.126 13.274l1.659 9.54h3.318l-1.659-8.296h11.2L50.192 22.4h3.319l1.451-10.578H38.785c-.83 0-1.66.83-1.66 1.452zM45.629 10.37L42.311 10.37 44.799 5.185 48.325 5.185zM116.769 24.681h3.526c-.207-.415-.207-.622-.415-1.037l-1.244-2.696h-3.319c0 .622.415 1.244.622 1.867.415.622.623 1.244.83 1.866zM100.591 24.681L103.91 24.681 105.569 20.948 102.251 20.948zM110.339 6.015L107.851 6.015 107.851 17.422 110.339 17.422 110.339 20.118 99.554 20.118 99.554 17.422 99.969 17.422 99.969 1.659 105.154 1.659 105.154 4.356 103.288 4.356 103.288 8.089 105.154 8.089 105.154 10.785 103.288 10.785 103.288 12.859 105.154 12.859 105.154 15.348 103.288 15.348 103.288 17.422 105.362 17.422 105.362 2.074 110.339 3.733zM67.821 4.356L73.629 4.356 73.007 7.052 67.199 7.052z" transform="translate(53 6)"/>
            <path d="M48.325 5.185L44.799 5.185 47.496 10.37 51.022 10.37zM21.363 6.637L17.422 6.637 20.533 18.252 24.474 18.252zM48.533 26.755h3.94c-.207-.207-.207-.622-.414-1.037L50.607 22.4h-3.94c.207.622.621 1.452 1.036 2.074.208.83.622 1.659.83 2.281zM37.955 28L41.896 28 45.422 21.363 41.481 21.363zM2.489 8.918L6.015 8.918 3.318 17.215 0 17.215z" transform="translate(53 6)"/>
            <path d="M45.422 5.185h7.051l-.83 1.452h3.32c.207-.415 1.036-2.489 1.036-2.904 0-1.037-1.244-1.037-2.281-1.037h-7.26l-1.036 2.49zM39.2 10.992L35.674 10.992 38.37 6.015 41.688 6.015zM38.37.622L35.051.622 37.54 5.393 40.651 5.393zM6.015 25.718c8.296 0 7.674.83 7.674-5.6V2.074l-3.526.207v18.46c0 2.488-.208 1.866-2.904 1.866l-1.244 3.111zM65.747 22.815c6.637 0 6.015.622 6.015-5.186V1.244h-2.696v16.8c0 2.282-.208 1.867-2.282 1.867l-1.037 2.904zM80.888 6.43L88.769 6.43 87.318 9.333 79.436 9.333z" transform="translate(53 6)"/>
            <path d="M45.422 5.185L41.896 5.185 44.592 0 48.118 0zM42.933 15.763L50.399 15.763 48.948 18.459 41.688 18.459zM109.302 7.259L112.414 7.259 111.377 9.333 108.265 9.333zM85.658 23.022c-7.051 0-6.43.622-6.43-4.978V12.03l3.112.208v6.222c0 2.282 0 1.867 2.281 1.867l1.037 2.696zM67.821 10.992L73.629 10.992 73.007 13.896 67.199 13.896z" transform="translate(53 6)"/>
            <path d="M84.829 12.859L81.095 12.859 87.11 21.985 90.636 21.985z" transform="translate(53 6)"/>
            <path d="M86.695 15.763L89.806 15.763 88.769 17.837 85.658 17.837zM118.636 20.118L122.784 20.118 121.332 17.422 117.184 17.422zM99.554 17.422L103.703 17.422 102.251 20.118 98.103 20.118zM43.762 19.496L50.399 19.496 49.155 21.985 42.725 21.985zM110.34 11.2c1.037 0 1.866.83 1.866 1.66 0 1.036-.83 1.866-1.867 1.866s-1.866-.83-1.866-1.867c0-.83.83-1.66 1.866-1.66z" transform="translate(53 6)"/>
        </g>
        <path fill="#E22929" d="M36.43 11.504v17.422c0 4.77-3.941 8.503-8.504 8.503H10.504C5.734 37.43 2 33.696 2 28.926V11.504C2 6.94 5.733 3 10.504 3h17.422c4.563 0 8.503 3.94 8.503 8.504z"/>
        <path fill="#FFF" fill-rule="nonzero" d="M19.91 0l-.829 16.8-.83-16.8h1.66zm3.527 0l-3.94 16.8L21.57 0h1.867zm3.733 0l-7.26 17.007L25.097 0h2.074zm4.356 0l-11.2 17.215L29.036 0h2.49zm5.392 0L20.741 17.422 33.807 0h3.111zm1.452 4.563L20.948 17.629 38.37 1.452v3.11zm0 4.77l-17.215 8.711 17.215-11.2v2.49zm0 3.94L21.363 18.46l17.007-7.26v2.075zm0 3.527l-16.8 2.074 16.8-3.94V16.8zm0 3.318l-16.8-.83 16.8-1.036v1.866zm0 3.319l-16.8-3.734 16.8 2.075v1.659zm0 3.733l-17.007-7.052 17.007 5.185v1.867zm0 4.356l-17.215-11.2 17.215 8.71v2.49zm0 5.392L20.948 20.741 38.37 33.807v3.111zm-4.563 1.452L20.741 21.155 36.918 38.37h-3.111zm-4.77 0l-8.711-17.007 11.2 17.007h-2.49zm-3.941 0l-5.185-16.8 7.26 16.8h-2.075zm-3.526 0l-2.074-16.8 3.94 16.8H21.57zm-3.318 0l.83-16.8 1.036 16.8h-1.866zm-3.319 0l3.733-16.8-2.074 16.8h-1.659zm-3.733 0l7.052-16.8-5.185 16.8H11.2zm-4.356 0l11.2-17.007-8.71 17.007h-2.49zm-5.392 0l16.177-17.215L4.563 38.37H1.452zM0 33.807l17.215-13.066L0 36.918v-3.111zm0-4.563l17.007-8.71L0 31.525v-2.282zm0-3.94l16.8-5.186L0 27.17v-1.867zm0-3.526l16.8-2.075L0 23.437v-1.66zm0-3.319l16.8.83-16.8.83v-1.66zm0-3.526l16.8 3.94L0 16.8v-1.867zM0 11.2l16.8 7.259L0 13.274V11.2zm0-4.356l17.007 11.2L0 9.334v-2.49zm0-5.392l17.215 16.177L0 4.563V1.452zM4.563 0l13.066 17.422L1.452 0h3.11zm4.563 0l8.71 17.215L6.845 0h2.282zm3.94 0l5.186 17.007L11.2 0h1.867zm3.526 0l2.074 16.8L14.933 0h1.66z"/>
        <g>
            <path fill="#FFC332" d="M6.637 18.666c.622.623.83 1.66.83 2.49 0 1.244-.83 3.11-1.245 4.147-.207.83-1.66 4.77-1.66 5.186h12.653c0-1.037.622-4.77.83-6.015.414-1.245.621-2.904 1.036-4.148l1.245-2.49c.207-1.036.83-3.525 1.037-4.355.207-1.452.415-2.903.415-4.355.207-.83.207-1.245-.208-1.867-.83-1.037-1.66-1.866-2.904-1.66 0-.414-.207-.829-.622-1.036-.207-.207-1.659-.83-2.074-.83-.622-.207-.83 0-1.244.208-.83-.83-.415-.83-1.867-1.245-.207 0-1.037-.207-1.244-.207-.623 0-.83.415-1.037.622-.208-1.037-.83-1.037-1.66-1.244-.83 0-1.659.207-2.281.622-.622.415-.83.83-1.037 1.867 0 .83-.207 1.659-.207 2.488-1.452 0-2.282-.414-3.319 1.037-.207.415-.207.623-.207 1.245.207.622.207 1.244.414 2.074 0 .622.208 1.244.415 1.867.208 1.244.415 1.866 1.037 2.488 1.037 1.037 2.074 2.074 2.904 3.111z" transform="translate(8.711 6.43)"/>
            <path fill="#D92529" d="M6.637 18.666c.622.623.83 1.66.83 2.49 0 1.244-.83 3.11-1.245 4.147-.207.83-1.66 4.77-1.66 5.186h12.653c0-1.037.622-4.77.83-6.015.414-1.245.621-2.904 1.036-4.148l1.245-2.49c.207-1.036.83-3.525 1.037-4.355.207-1.452.415-2.903.415-4.355.207-.83.207-1.245-.208-1.867-.83-1.037-1.66-1.866-2.904-1.66 0-.414-.207-.829-.622-1.036-.207-.207-1.659-.83-2.074-.83-.622-.207-.83 0-1.244.208-.83-.83-.415-.83-1.867-1.245-.207 0-1.037-.207-1.244-.207-.623 0-.83.415-1.037.622-.208-1.037-.83-1.037-1.66-1.244-.83 0-1.659.207-2.281.622-.622.415-.83.83-1.037 1.867 0 .83-.207 1.659-.207 2.488-1.452 0-2.282-.414-3.319 1.037-.207.415-.207.623-.207 1.245.207.622.207 1.244.414 2.074 0 .622.208 1.244.415 1.867.208 1.244.415 1.866 1.037 2.488 1.037 1.037 2.074 2.074 2.904 3.111zm-1.244 1.452v-.207L3.11 17.629l-.622-.622c-1.037-1.244-1.245-2.074-1.66-3.318v-.208c0-.414-.207-.622-.207-1.037 0-.207-.207-.622-.207-1.037 0-.415-.208-.83-.208-1.244 0-.208 0-.415-.207-.83v-.207c0-.415 0-.83.207-1.245 0-.207.208-.622.415-1.037C1.66 5.185 2.49 4.978 3.733 4.978c0-.415 0-.622.208-1.037 0-.623.207-1.037.415-1.66.207-.414.622-1.037 1.244-1.451C6.015.622 6.637.415 7.26.207 7.88 0 8.503 0 9.125 0c1.037.207 1.66.207 2.281.622h.208c.207 0 .622 0 1.037.208h.622v.207c1.244.207 1.66.415 2.074.83.207-.208.622-.208.83 0 .414 0 1.037.207 1.659.414.622.208 1.037.623 1.452.83.207.207.414.415.622.83.622 0 1.037.207 1.452.622.622.415 1.244 1.037 1.659 1.66.415.621.622 1.036.622 1.658.208.415.208.83 0 1.452 0 1.245-.207 2.282-.415 3.319v1.037c-.207.415-.414 1.244-.622 2.281-.207.83-.415 1.867-.622 2.489-.207.622-.415 1.037-.83 1.66 0 .207-.207.622-.414.829-.208.83-.415 2.281-.623 3.318l-.207.623v.414c-.208 1.245-.83 4.563-1.037 5.393v1.66h-16.8l.622-2.282c.208-.415.83-2.282 1.245-3.734.415-.622.622-1.244.622-1.659l.207-.415c.208-1.037.83-2.488.83-3.11 0-.208 0-.623-.207-1.038z" transform="translate(8.711 6.43)"/>
        </g>
        <path d="M36.43 11.504v17.422c0 4.77-3.941 8.503-8.504 8.503H10.504C5.734 37.43 2 33.696 2 28.926V11.504C2 6.94 5.733 3 10.504 3h17.422c4.563 0 8.503 3.94 8.503 8.504z"/>
    </g>
</svg>
