<svg xmlns="http://www.w3.org/2000/svg" width="170" height="38" viewBox="0 0 170 38">
    <g fill="none" fill-rule="evenodd">
        <path fill="#E22929" d="M35.2 11.2V28c0 4.6-3.8 8.2-8.2 8.2H10.2C5.6 36.2 2 32.6 2 28V11.2C2 6.8 5.6 3 10.2 3H27c4.4 0 8.2 3.8 8.2 8.2z"/>
        <path fill="#FFF" fill-rule="nonzero" d="M19.2 0l-.8 16.2L17.6 0h1.6zm3.4 0l-3.8 16.2 2-16.2h1.8zm3.6 0l-7 16.4 5-16.4h2zm4.2 0L19.6 16.6 28 0h2.4zm5.2 0L20 16.8 32.6 0h3zM37 4.4L20.2 17 37 1.4v3zM37 9l-16.6 8.4L37 6.6V9zm0 3.8l-16.4 5 16.4-7v2zm0 3.4l-16.2 2L37 14.4v1.8zm0 3.2l-16.2-.8 16.2-1v1.8zm0 3.2L20.8 19 37 21v1.6zm0 3.6l-16.4-6.8 16.4 5v1.8zm0 4.2L20.4 19.6 37 28v2.4zm0 5.2L20.2 20 37 32.6v3zM32.6 37L20 20.4 35.6 37h-3zM28 37l-8.4-16.4L30.4 37H28zm-3.8 0l-5-16.2 7 16.2h-2zm-3.4 0l-2-16.2L22.6 37h-1.8zm-3.2 0l.8-16.2 1 16.2h-1.8zm-3.2 0L18 20.8 16 37h-1.6zm-3.6 0l6.8-16.2-5 16.2h-1.8zm-4.2 0l10.8-16.4L9 37H6.6zm-5.2 0L17 20.4 4.4 37h-3zM0 32.6L16.6 20 0 35.6v-3zm0-4.4l16.4-8.4L0 30.4v-2.2zm0-3.8l16.2-5L0 26.2v-1.8zM0 21l16.2-2L0 22.6V21zm0-3.2l16.2.8-16.2.8v-1.6zm0-3.4l16.2 3.8-16.2-2v-1.8zm0-3.6l16.2 7-16.2-5v-2zm0-4.2l16.4 10.8L0 9V6.6zm0-5.2L16.6 17 0 4.4v-3zM4.4 0L17 16.8 1.4 0h3zm4.4 0l8.4 16.6L6.6 0h2.2zm3.8 0l5 16.4L10.8 0h1.8zM16 0l2 16.2L14.4 0H16z"/>
        <g>
            <path fill="#FFC332" d="M6.4 18c.6.6.8 1.6.8 2.4 0 1.2-.8 3-1.2 4-.2.8-1.6 4.6-1.6 5h12.2c0-1 .6-4.6.8-5.8.4-1.2.6-2.8 1-4l1.2-2.4c.2-1 .8-3.4 1-4.2.2-1.4.4-2.8.4-4.2.2-.8.2-1.2-.2-1.8-.8-1-1.6-1.8-2.8-1.6 0-.4-.2-.8-.6-1-.2-.2-1.6-.8-2-.8-.6-.2-.8 0-1.2.2-.8-.8-.4-.8-1.8-1.2-.2 0-1-.2-1.2-.2-.6 0-.8.4-1 .6-.2-1-.8-1-1.6-1.2-.8 0-1.6.2-2.2.6-.6.4-.8.8-1 1.8 0 .8-.2 1.6-.2 2.4-1.4 0-2.2-.4-3.2 1-.2.4-.2.6-.2 1.2.2.6.2 1.2.4 2 0 .6.2 1.2.4 1.8.2 1.2.4 1.8 1 2.4 1 1 2 2 2.8 3z" transform="translate(8.4 6.2)"/>
            <path fill="#D92529" d="M6.4 18c.6.6.8 1.6.8 2.4 0 1.2-.8 3-1.2 4-.2.8-1.6 4.6-1.6 5h12.2c0-1 .6-4.6.8-5.8.4-1.2.6-2.8 1-4l1.2-2.4c.2-1 .8-3.4 1-4.2.2-1.4.4-2.8.4-4.2.2-.8.2-1.2-.2-1.8-.8-1-1.6-1.8-2.8-1.6 0-.4-.2-.8-.6-1-.2-.2-1.6-.8-2-.8-.6-.2-.8 0-1.2.2-.8-.8-.4-.8-1.8-1.2-.2 0-1-.2-1.2-.2-.6 0-.8.4-1 .6-.2-1-.8-1-1.6-1.2-.8 0-1.6.2-2.2.6-.6.4-.8.8-1 1.8 0 .8-.2 1.6-.2 2.4-1.4 0-2.2-.4-3.2 1-.2.4-.2.6-.2 1.2.2.6.2 1.2.4 2 0 .6.2 1.2.4 1.8.2 1.2.4 1.8 1 2.4 1 1 2 2 2.8 3zm-1.2 1.4v-.2L3 17l-.6-.6c-1-1.2-1.2-2-1.6-3.2V13c0-.4-.2-.6-.2-1 0-.2-.2-.6-.2-1s-.2-.8-.2-1.2c0-.2 0-.4-.2-.8v-.2c0-.4 0-.8.2-1.2 0-.2.2-.6.4-1 1-1.6 1.8-1.8 3-1.8 0-.4 0-.6.2-1 0-.6.2-1 .4-1.6.2-.4.6-1 1.2-1.4.4-.2 1-.4 1.6-.6C7.6 0 8.2 0 8.8 0c1 .2 1.6.2 2.2.6h.2c.2 0 .6 0 1 .2h.6V1c1.2.2 1.6.4 2 .8.2-.2.6-.2.8 0 .4 0 1 .2 1.6.4.6.2 1 .6 1.4.8.2.2.4.4.6.8.6 0 1 .2 1.4.6.6.4 1.2 1 1.6 1.6.4.6.6 1 .6 1.6.2.4.2.8 0 1.4 0 1.2-.2 2.2-.4 3.2v1c-.2.4-.4 1.2-.6 2.2-.2.8-.4 1.8-.6 2.4-.2.6-.4 1-.8 1.6 0 .2-.2.6-.4.8-.2.8-.4 2.2-.6 3.2l-.2.6v.4c-.2 1.2-.8 4.4-1 5.2v1.6H2l.6-2.2c.2-.4.8-2.2 1.2-3.6.4-.6.6-1.2.6-1.6l.2-.4c.2-1 .8-2.4.8-3 0-.2 0-.6-.2-1z" transform="translate(8.4 6.2)"/>
        </g>
        <path d="M35.2 11.2V28c0 4.6-3.8 8.2-8.2 8.2H10.2C5.6 36.2 2 32.6 2 28V11.2C2 6.8 5.6 3 10.2 3H27c4.4 0 8.2 3.8 8.2 8.2z"/>
        <g fill="#FFF">
            <path d="M106.4 5.8L109 5.8 109 16.8 106.4 16.8 106.4 19.4 117 19.4 117 16.8 116.6 16.8 116.6 1.6 111.6 1.6 111.6 4.2 113.4 4.2 113.4 7.8 111.6 7.8 111.6 10.4 113.4 10.4 113.4 12.4 111.6 12.4 111.6 14.8 113.4 14.8 113.4 16.8 111.4 16.8 111.4 2 106.4 3.6zM72.2 3.4v19h3v-9.2H84.6v-2.6h-9.4V4.8h9.2V2h-11c-.6 0-1.2.6-1.2 1.4zM35.8 12.8l1.6 9.2h3.2L39 14h10.8l-1.4 7.6h3.2L53 11.4H37.4c-.8 0-1.6.8-1.6 1.4zM44 10L40.8 10 43.2 5 46.6 5zM112.6 23.8h3.4c-.2-.4-.2-.6-.4-1l-1.2-2.6h-3.2c0 .6.4 1.2.6 1.8.4.6.6 1.2.8 1.8zM97 23.8L100.2 23.8 101.8 20.2 98.6 20.2zM106.4 5.8L104 5.8 104 16.8 106.4 16.8 106.4 19.4 96 19.4 96 16.8 96.4 16.8 96.4 1.6 101.4 1.6 101.4 4.2 99.6 4.2 99.6 7.8 101.4 7.8 101.4 10.4 99.6 10.4 99.6 12.4 101.4 12.4 101.4 14.8 99.6 14.8 99.6 16.8 101.6 16.8 101.6 2 106.4 3.6zM65.4 4.2L71 4.2 70.4 6.8 64.8 6.8z" transform="translate(51 6)"/>
            <path d="M46.6 5L43.2 5 45.8 10 49.2 10zM20.6 6.4L16.8 6.4 19.8 17.6 23.6 17.6zM46.8 25.8h3.8c-.2-.2-.2-.6-.4-1l-1.4-3.2H45c.2.6.6 1.4 1 2 .2.8.6 1.6.8 2.2zM36.6 27L40.4 27 43.8 20.6 40 20.6zM2.4 8.6L5.8 8.6 3.2 16.6 0 16.6z" transform="translate(51 6)"/>
            <path d="M43.8 5h6.8l-.8 1.4H53c.2-.4 1-2.4 1-2.8 0-1-1.2-1-2.2-1h-7l-1 2.4zM37.8 10.6L34.4 10.6 37 5.8 40.2 5.8zM37 .6L33.8.6 36.2 5.2 39.2 5.2zM5.8 24.8c8 0 7.4.8 7.4-5.4V2l-3.4.2V20c0 2.4-.2 1.8-2.8 1.8l-1.2 3zM63.4 22c6.4 0 5.8.6 5.8-5V1.2h-2.6v16.2c0 2.2-.2 1.8-2.2 1.8l-1 2.8zM78 6.2L85.6 6.2 84.2 9 76.6 9z" transform="translate(51 6)"/>
            <path d="M43.8 5L40.4 5 43 0 46.4 0zM41.4 15.2L48.6 15.2 47.2 17.8 40.2 17.8zM105.4 7L108.4 7 107.4 9 104.4 9zM82.6 22.2c-6.8 0-6.2.6-6.2-4.8v-5.8l3 .2v6c0 2.2 0 1.8 2.2 1.8l1 2.6zM65.4 10.6L71 10.6 70.4 13.4 64.8 13.4z" transform="translate(51 6)"/>
            <path d="M81.8 12.4L78.2 12.4 84 21.2 87.4 21.2z" transform="translate(51 6)"/>
            <path d="M83.6 15.2L86.6 15.2 85.6 17.2 82.6 17.2zM114.4 19.4L118.4 19.4 117 16.8 113 16.8zM96 16.8L100 16.8 98.6 19.4 94.6 19.4zM42.2 18.8L48.6 18.8 47.4 21.2 41.2 21.2zM106.4 10.8c1 0 1.8.8 1.8 1.6 0 1-.8 1.8-1.8 1.8s-1.8-.8-1.8-1.8c0-.8.8-1.6 1.8-1.6z" transform="translate(51 6)"/>
        </g>
    </g>
</svg>
