<?xml version="1.0" encoding="utf-8"?>
<!-- Generator: Adobe Illustrator 23.0.2, SVG Export Plug-In . SVG Version: 6.00 Build 0)  -->
<svg version="1.1" id="圖層_1" xmlns="http://www.w3.org/2000/svg" xmlns:xlink="http://www.w3.org/1999/xlink" x="0px" y="0px"
	 viewBox="0 0 921 582" style="enable-background:new 0 0 921 582;" xml:space="preserve">
<style type="text/css">
	.st0{opacity:0.35;fill-rule:evenodd;clip-rule:evenodd;fill:#7E4140;}
	.st1{clip-path:url(#SVGID_2_);}
	.st2{clip-path:url(#SVGID_4_);fill:#73ADD4;}
	.st3{fill:none;stroke:#FFFFFF;stroke-width:2.2;stroke-linecap:round;stroke-linejoin:round;stroke-miterlimit:10;}
	.st4{clip-path:url(#SVGID_6_);}
	.st5{clip-path:url(#SVGID_8_);fill:#FFF8D5;}
	.st6{clip-path:url(#SVGID_10_);}
	.st7{clip-path:url(#SVGID_12_);fill:#39878D;}
	.st8{clip-path:url(#SVGID_14_);}
	.st9{clip-path:url(#SVGID_16_);enable-background:new    ;}
	.st10{clip-path:url(#SVGID_18_);}
	.st11{clip-path:url(#SVGID_20_);fill:#FF8588;}
	.st12{clip-path:url(#SVGID_22_);}
	.st13{clip-path:url(#SVGID_24_);fill:#FF6067;}
	.st14{clip-path:url(#SVGID_26_);}
	.st15{clip-path:url(#SVGID_28_);fill:#1C2458;}
	.st16{clip-path:url(#SVGID_30_);}
	.st17{clip-path:url(#SVGID_32_);enable-background:new    ;}
	.st18{clip-path:url(#SVGID_34_);}
	.st19{clip-path:url(#SVGID_36_);fill:#F54140;}
	.st20{clip-path:url(#SVGID_38_);}
	.st21{clip-path:url(#SVGID_40_);fill:#424A81;}
	.st22{clip-path:url(#SVGID_42_);}
	.st23{clip-path:url(#SVGID_44_);fill:#1C2458;}
	.st24{clip-path:url(#SVGID_46_);}
	.st25{clip-path:url(#SVGID_48_);fill:#1C2458;}
	.st26{clip-path:url(#SVGID_50_);}
	.st27{clip-path:url(#SVGID_52_);fill:#FF8588;}
	.st28{clip-path:url(#SVGID_54_);}
	.st29{clip-path:url(#SVGID_56_);enable-background:new    ;}
	.st30{clip-path:url(#SVGID_58_);}
	.st31{clip-path:url(#SVGID_60_);fill:#FFBF00;}
	.st32{clip-path:url(#SVGID_62_);}
	.st33{clip-path:url(#SVGID_64_);fill:#0392A3;}
	.st34{clip-path:url(#SVGID_66_);}
	.st35{clip-path:url(#SVGID_68_);fill:#0392A3;}
	.st36{clip-path:url(#SVGID_70_);}
	.st37{clip-path:url(#SVGID_72_);fill:#FFCEBE;}
	.st38{clip-path:url(#SVGID_74_);}
	.st39{clip-path:url(#SVGID_76_);enable-background:new    ;}
	.st40{clip-path:url(#SVGID_78_);}
	.st41{clip-path:url(#SVGID_80_);fill:#B2B2B2;}
	.st42{clip-path:url(#SVGID_82_);}
	.st43{clip-path:url(#SVGID_84_);fill:#6E6E6E;}
	.st44{clip-path:url(#SVGID_86_);}
	.st45{clip-path:url(#SVGID_88_);fill:#1C2458;}
	.st46{clip-path:url(#SVGID_90_);}
	.st47{clip-path:url(#SVGID_92_);enable-background:new    ;}
	.st48{clip-path:url(#SVGID_94_);}
	.st49{clip-path:url(#SVGID_96_);fill:#F54140;}
	.st50{clip-path:url(#SVGID_98_);}
	.st51{clip-path:url(#SVGID_100_);fill:#424A81;}
	.st52{clip-path:url(#SVGID_102_);}
	.st53{clip-path:url(#SVGID_104_);fill:#1C2458;}
	.st54{clip-path:url(#SVGID_106_);}
	.st55{clip-path:url(#SVGID_108_);fill:#F54140;}
	.st56{clip-path:url(#SVGID_110_);}
	.st57{clip-path:url(#SVGID_112_);fill:#FF8588;}
	.st58{clip-path:url(#SVGID_114_);}
	.st59{clip-path:url(#SVGID_116_);enable-background:new    ;}
	.st60{clip-path:url(#SVGID_118_);}
	.st61{clip-path:url(#SVGID_120_);fill:#FFBF00;}
	.st62{clip-path:url(#SVGID_122_);}
	.st63{clip-path:url(#SVGID_124_);fill:#0392A3;}
	.st64{clip-path:url(#SVGID_126_);}
	.st65{clip-path:url(#SVGID_128_);fill:#0392A3;}
	.st66{clip-path:url(#SVGID_130_);}
	.st67{clip-path:url(#SVGID_132_);enable-background:new    ;}
	.st68{clip-path:url(#SVGID_134_);}
	.st69{clip-path:url(#SVGID_136_);fill:#B2B2B2;}
	.st70{clip-path:url(#SVGID_138_);}
	.st71{clip-path:url(#SVGID_140_);fill:#6E6E6E;}
	.st72{clip-path:url(#SVGID_142_);}
	.st73{clip-path:url(#SVGID_144_);fill:#6E6E6E;}
	.st74{clip-path:url(#SVGID_146_);}
	.st75{clip-path:url(#SVGID_148_);enable-background:new    ;}
	.st76{clip-path:url(#SVGID_150_);}
	.st77{clip-path:url(#SVGID_152_);fill:#FF8588;}
	.st78{clip-path:url(#SVGID_154_);}
	.st79{clip-path:url(#SVGID_156_);fill:#1C2458;}
	.st80{clip-path:url(#SVGID_158_);}
	.st81{clip-path:url(#SVGID_160_);enable-background:new    ;}
	.st82{clip-path:url(#SVGID_162_);}
	.st83{clip-path:url(#SVGID_164_);fill:#FF6067;}
	.st84{clip-path:url(#SVGID_166_);}
	.st85{clip-path:url(#SVGID_168_);fill:#FF8588;}
	.st86{clip-path:url(#SVGID_170_);}
	.st87{clip-path:url(#SVGID_172_);fill:#FFBF00;}
	.st88{clip-path:url(#SVGID_174_);}
	.st89{clip-path:url(#SVGID_176_);fill:#B2B2B2;}
	.st90{clip-path:url(#SVGID_178_);}
	.st91{clip-path:url(#SVGID_180_);fill:#B2B2B2;}
	.st92{clip-path:url(#SVGID_182_);}
	.st93{clip-path:url(#SVGID_184_);fill:#F65D5D;}
	.st94{clip-path:url(#SVGID_186_);}
	.st95{clip-path:url(#SVGID_188_);fill:#F0A513;}
	.st96{clip-path:url(#SVGID_190_);}
	.st97{clip-path:url(#SVGID_192_);fill:#47D30A;}
	.st98{clip-path:url(#SVGID_194_);}
	.st99{clip-path:url(#SVGID_196_);fill:#FF7965;}
	.st100{clip-path:url(#SVGID_198_);}
	.st101{clip-path:url(#SVGID_200_);fill:#FF7965;}
	.st102{fill-rule:evenodd;clip-rule:evenodd;fill:#F65D5D;}
	.st103{fill-rule:evenodd;clip-rule:evenodd;fill:#F0A513;}
	.st104{fill-rule:evenodd;clip-rule:evenodd;fill:#47D30A;}
	.st105{fill-rule:evenodd;clip-rule:evenodd;fill:#D6696A;}
</style>
<path id="Fill-3_1_" class="st0" d="M640,548.6c41.5,0,75.3,3.9,75.3,8.7c0,4.8-33.7,8.7-75.3,8.7c-41.5,0-75.3-3.9-75.3-8.7
	C564.7,552.5,598.4,548.6,640,548.6z"/>
<path id="Fill-4_1_" class="st0" d="M217.8,548.6c41.5,0,75.3,3.9,75.3,8.7c0,4.8-33.7,8.7-75.3,8.7s-75.3-3.9-75.3-8.7
	C142.6,552.5,176.3,548.6,217.8,548.6z"/>
<title>維修頁</title>
<desc>Created with Sketch.</desc>
<g>
	<defs>
		<path id="SVGID_1_" d="M145.2,534.3c0,0-31-90.3-77.1-115.4c-46.1-25.1-21.8,34.5,10.7,64.6c32.5,30.1,38.2,35.5,38.2,35.5
			s-43.9-31.5-67.4-17.4C25.9,515.7,89.6,531.6,145.2,534.3z"/>
	</defs>
	<clipPath id="SVGID_2_">
		<use xlink:href="#SVGID_1_"  style="overflow:visible;"/>
	</clipPath>
	<g class="st1">
		<defs>
			<rect id="SVGID_3_" x="-409.9" y="-217.7" width="1833.4" height="1031.3"/>
		</defs>
		<clipPath id="SVGID_4_">
			<use xlink:href="#SVGID_3_"  style="overflow:visible;"/>
		</clipPath>
		<rect x="37.8" y="408" class="st2" width="112.2" height="131"/>
	</g>
</g>
<g>
	<path class="st3" d="M49.5,418.8c0,0,69,87,95.7,115.4"/>
	<path class="st3" d="M56.4,508.2c0,0,65.7,18.7,87.4,24.6"/>
</g>
<g>
	<defs>
		<polygon id="SVGID_5_" points="145.2,21 145.2,534.5 788.5,534.5 886.7,76.9 		"/>
	</defs>
	<clipPath id="SVGID_6_">
		<use xlink:href="#SVGID_5_"  style="overflow:visible;"/>
	</clipPath>
	<g class="st4">
		<defs>
			<rect id="SVGID_7_" x="-409.9" y="-217.7" width="1833.4" height="1031.3"/>
		</defs>
		<clipPath id="SVGID_8_">
			<use xlink:href="#SVGID_7_"  style="overflow:visible;"/>
		</clipPath>
		<rect x="140.4" y="16.2" class="st5" width="751.1" height="523"/>
	</g>
</g>
<g>
	<defs>
		<path id="SVGID_9_" d="M274.7,253.1c41.8,0,75.7,33.9,75.7,75.7s-33.9,75.7-75.7,75.7c-41.8,0-75.7-33.9-75.7-75.7
			S232.9,253.1,274.7,253.1z M305,124.4c-20.1-3-40.5-3-60.6,0l-5.9,46.8c-17.6,4-34.3,11-49.6,20.6l-37.3-29
			c-16.3,12.1-30.8,26.6-42.9,42.9l29,37.3c-9.6,15.3-16.5,32-20.6,49.6l-46.8,5.9c-3,20.1-3,40.5,0,60.6l46.8,5.9
			c4,17.6,11,34.3,20.6,49.6l-29,37.3c12.1,16.3,26.6,30.8,42.9,42.9l37.3-29c15.3,9.6,32,16.5,49.6,20.6l5.9,46.8
			c20.1,3,40.5,3,60.6,0l5.9-46.8c17.6-4,34.3-11,49.6-20.6l37.3,29c16.3-12.1,30.8-26.6,42.9-42.9l-29-37.3
			c9.6-15.3,16.5-32,20.6-49.6l46.8-5.9c3-20.1,3-40.5,0-60.6l-46.8-5.9c-4-17.6-11-34.3-20.6-49.6l29-37.3
			c-12.1-16.3-26.6-30.8-42.9-42.9l-37.3,29c-15.3-9.6-32-16.5-49.6-20.6L305,124.4z"/>
	</defs>
	<clipPath id="SVGID_10_">
		<use xlink:href="#SVGID_9_"  style="overflow:visible;"/>
	</clipPath>
	<g class="st6">
		<defs>
			<rect id="SVGID_11_" x="-409.9" y="-217.7" width="1833.4" height="1031.3"/>
		</defs>
		<clipPath id="SVGID_12_">
			<use xlink:href="#SVGID_11_"  style="overflow:visible;"/>
		</clipPath>
		<rect x="63.3" y="117.4" class="st7" width="422.8" height="422.8"/>
	</g>
</g>
<g>
	<defs>
		<path id="SVGID_13_" d="M292.6,301.7c0,0,3.9,22.8,2.2,30.9c-1.7,8.1-15.6,2.3-19.3,4.6c-3.8,2.3-7.3,5.7-7.3,5.7l-16-14.5
			c0,0,12.4-8,9.7-16.7c-2.8-8.7-2.2-18.5,6.3-21.1C276.6,287.9,290.1,290.5,292.6,301.7z"/>
	</defs>
	<clipPath id="SVGID_14_">
		<use xlink:href="#SVGID_13_"  style="overflow:visible;"/>
	</clipPath>
	<g class="st8">
		<defs>
			<rect id="SVGID_15_" x="-409.9" y="-217.7" width="1833.4" height="1031.3"/>
		</defs>
		<clipPath id="SVGID_16_">
			<use xlink:href="#SVGID_15_"  style="overflow:visible;"/>
		</clipPath>
		<g class="st9">
			<g>
				<defs>
					<rect id="SVGID_17_" x="247.1" y="277.9" width="53.5" height="70.7"/>
				</defs>
				<clipPath id="SVGID_18_">
					<use xlink:href="#SVGID_17_"  style="overflow:visible;"/>
				</clipPath>
				<g class="st10">
					<defs>
						<rect id="SVGID_19_" x="251.9" y="287.4" width="44.9" height="56.3"/>
					</defs>
					<clipPath id="SVGID_20_">
						<use xlink:href="#SVGID_19_"  style="overflow:visible;"/>
					</clipPath>
					<rect x="247.4" y="284.8" class="st11" width="52.6" height="62.9"/>
				</g>
				<g class="st10">
					<defs>
						<path id="SVGID_21_" d="M261.1,318.4l10.6,8.6c1.8,5.5,4.5,8.7,8.1,9.7c3.6,1-0.3,3.6-11.8,7.9l-16.1-18.2L261.1,318.4z"/>
					</defs>
					<clipPath id="SVGID_22_">
						<use xlink:href="#SVGID_21_"  style="overflow:visible;"/>
					</clipPath>
					<g class="st12">
						<defs>
							<rect id="SVGID_23_" x="251.9" y="287.4" width="44.9" height="56.3"/>
						</defs>
						<clipPath id="SVGID_24_">
							<use xlink:href="#SVGID_23_"  style="overflow:visible;"/>
						</clipPath>
						<rect x="247.1" y="313.6" class="st13" width="38.8" height="35.7"/>
					</g>
				</g>
				<g class="st10">
					<defs>
						<path id="SVGID_25_" d="M295.3,297.1c0,0-1.8,9.1-4.8,11c-2.9,1.9-2.4,5.8-2.6,8.2c0,0-6.6-2-8.4,0c-1.9,2,2.3,6.4,2.3,6.4
							s-2.3,3.7-8,4.2c-5.7,0.5-14.3-7.3-14.3-7.3s-7.3-23.2-7.2-25.6C252.3,291.7,275.1,269.5,295.3,297.1"/>
					</defs>
					<clipPath id="SVGID_26_">
						<use xlink:href="#SVGID_25_"  style="overflow:visible;"/>
					</clipPath>
					<g class="st14">
						<defs>
							<rect id="SVGID_27_" x="251.9" y="287.4" width="44.9" height="56.3"/>
						</defs>
						<clipPath id="SVGID_28_">
							<use xlink:href="#SVGID_27_"  style="overflow:visible;"/>
						</clipPath>
						<rect x="247.4" y="278.6" class="st15" width="52.6" height="53.1"/>
					</g>
				</g>
			</g>
		</g>
	</g>
</g>
<g>
	<defs>
		<path id="SVGID_29_" d="M221.7,392.4c0,0,40.8,50.5,44.7,62.8c3.9,12.3,20.2,80.1,20.2,80.1s6.9,17.2,14.4,17.8
			c4.1,0.3,5.5,4.2,5.5,4.2h-32.7c0,0-7.3-18.2-10-25.1c-2.7-6.9-20.4-37.4-24.3-51.3c-3.9-13.9-6-15.5-6-15.5l-30.3-27.3
			c0,0-6.5,24.6-12.1,42.8c-5.6,18.2-31.6,62.3-33.9,67.7c0,0,5.9,4.7,7.4,6.9h-35.3c0,0,19.9-53.6,22.6-61.3
			c2.7-7.7,11-29.7,12.6-56c1.7-26.3,1.4-50.1,6.7-59C176.5,370,221.7,392.4,221.7,392.4z"/>
	</defs>
	<clipPath id="SVGID_30_">
		<use xlink:href="#SVGID_29_"  style="overflow:visible;"/>
	</clipPath>
	<g class="st16">
		<defs>
			<rect id="SVGID_31_" x="-409.9" y="-217.7" width="1833.4" height="1031.3"/>
		</defs>
		<clipPath id="SVGID_32_">
			<use xlink:href="#SVGID_31_"  style="overflow:visible;"/>
		</clipPath>
		<g class="st17">
			<g>
				<defs>
					<rect id="SVGID_33_" x="122" y="371.5" width="205.3" height="207.2"/>
				</defs>
				<clipPath id="SVGID_34_">
					<use xlink:href="#SVGID_33_"  style="overflow:visible;"/>
				</clipPath>
				<g class="st18">
					<defs>
						<rect id="SVGID_35_" x="128.7" y="371.5" width="178.6" height="186.2"/>
					</defs>
					<clipPath id="SVGID_36_">
						<use xlink:href="#SVGID_35_"  style="overflow:visible;"/>
					</clipPath>
					<rect x="124.5" y="372.1" class="st19" width="186.8" height="189.9"/>
				</g>
				<g class="st18">
					<defs>
						<path id="SVGID_37_" d="M206.7,455.2c-0.5-2-3.6-17.2-3.6-17.2s-18.3-15.6-22.8-20.3c-4.5-4.7-6.5-2.4-1.5,3.5
							c5,5.9,10.6,14,12.2,22.8c1.6,8.8,3.5,25.1,3.5,25.1S207.2,457.2,206.7,455.2z"/>
					</defs>
					<clipPath id="SVGID_38_">
						<use xlink:href="#SVGID_37_"  style="overflow:visible;"/>
					</clipPath>
					<g class="st20">
						<defs>
							<rect id="SVGID_39_" x="128.7" y="371.5" width="178.6" height="186.2"/>
						</defs>
						<clipPath id="SVGID_40_">
							<use xlink:href="#SVGID_39_"  style="overflow:visible;"/>
						</clipPath>
						<rect x="171.1" y="410.4" class="st21" width="40.4" height="63.5"/>
					</g>
				</g>
				<g class="st18">
					<defs>
						<rect id="SVGID_41_" x="264.2" y="548" width="63" height="29.9"/>
					</defs>
					<clipPath id="SVGID_42_">
						<use xlink:href="#SVGID_41_"  style="overflow:visible;"/>
					</clipPath>
					<g class="st22">
						<defs>
							<rect id="SVGID_43_" x="128.7" y="371.5" width="178.6" height="186.2"/>
						</defs>
						<clipPath id="SVGID_44_">
							<use xlink:href="#SVGID_43_"  style="overflow:visible;"/>
						</clipPath>
						<rect x="259.4" y="543.3" class="st23" width="72.6" height="39.4"/>
					</g>
				</g>
				<g class="st18">
					<defs>
						<rect id="SVGID_45_" x="122.6" y="544.6" width="63" height="29.9"/>
					</defs>
					<clipPath id="SVGID_46_">
						<use xlink:href="#SVGID_45_"  style="overflow:visible;"/>
					</clipPath>
					<g class="st24">
						<defs>
							<rect id="SVGID_47_" x="128.7" y="371.5" width="178.6" height="186.2"/>
						</defs>
						<clipPath id="SVGID_48_">
							<use xlink:href="#SVGID_47_"  style="overflow:visible;"/>
						</clipPath>
						<rect x="117.8" y="539.8" class="st25" width="72.6" height="39.4"/>
					</g>
				</g>
			</g>
		</g>
	</g>
</g>
<g>
	<defs>
		<path id="SVGID_49_" d="M189.6,273.5c0,0,5.1-5.4,9.4-6.8c4.3-1.5,11.1-11.3,0-12c-3.4-0.5-5.4-6.8-6.3-12.8
			c-0.9-6-8.5-7.8-13.6-3.5c-5.1,4.3,1.3,18.4,2.7,22.9c0.9,4-1.8,8.2-1.8,8.2L189.6,273.5z"/>
	</defs>
	<clipPath id="SVGID_50_">
		<use xlink:href="#SVGID_49_"  style="overflow:visible;"/>
	</clipPath>
	<g class="st26">
		<defs>
			<rect id="SVGID_51_" x="-409.9" y="-217.7" width="1833.4" height="1031.3"/>
		</defs>
		<clipPath id="SVGID_52_">
			<use xlink:href="#SVGID_51_"  style="overflow:visible;"/>
		</clipPath>
		<rect x="172.3" y="231.2" class="st27" width="37.4" height="47"/>
	</g>
</g>
<g>
	<defs>
		<path id="SVGID_53_" d="M303.5,398.9c-14.7-6.5-51.3-29.4-51.3-29.4c-8.5,7.1-35.8,43.5-35.8,43.5c-28.6-9.9-47-36.4-47-36.4
			c6.3-9,33.7-37.6,33.7-37.6c-6-1.7-44-15.4-41.3-29c2.6-13.6,19.8-43.2,19.8-43.2c6.8,0.3,14.1,3.4,14.1,3.4
			c-4.3,12.1-6,39.9-6,39.9c8.4,1.3,40.5,3.8,56.3,12.2c15.8,8.4,35.4,33.1,44.3,44c7.3,9,29,16,36.3,18.1
			C319.8,390.3,312,395.4,303.5,398.9z"/>
	</defs>
	<clipPath id="SVGID_54_">
		<use xlink:href="#SVGID_53_"  style="overflow:visible;"/>
	</clipPath>
	<g class="st28">
		<defs>
			<rect id="SVGID_55_" x="-409.9" y="-217.7" width="1833.4" height="1031.3"/>
		</defs>
		<clipPath id="SVGID_56_">
			<use xlink:href="#SVGID_55_"  style="overflow:visible;"/>
		</clipPath>
		<g class="st29">
			<g>
				<defs>
					<rect id="SVGID_57_" x="156.4" y="261.6" width="175.7" height="156.6"/>
				</defs>
				<clipPath id="SVGID_58_">
					<use xlink:href="#SVGID_57_"  style="overflow:visible;"/>
				</clipPath>
				<g class="st30">
					<defs>
						<rect id="SVGID_59_" x="158.3" y="266.4" width="169" height="147.1"/>
					</defs>
					<clipPath id="SVGID_60_">
						<use xlink:href="#SVGID_59_"  style="overflow:visible;"/>
					</clipPath>
					<rect x="156.8" y="261.9" class="st31" width="174.4" height="155.8"/>
				</g>
				<g class="st30">
					<defs>
						<path id="SVGID_61_" d="M256,393.3l-3.8-23.8c0,0-6.5-4-12.2-6.5c-5.7-2.4-3.1,2.4,0,6.5c3.1,4.1,0,19.8,0,19.8L256,393.3z"/>
					</defs>
					<clipPath id="SVGID_62_">
						<use xlink:href="#SVGID_61_"  style="overflow:visible;"/>
					</clipPath>
					<g class="st32">
						<defs>
							<rect id="SVGID_63_" x="158.3" y="266.4" width="169" height="147.1"/>
						</defs>
						<clipPath id="SVGID_64_">
							<use xlink:href="#SVGID_63_"  style="overflow:visible;"/>
						</clipPath>
						<rect x="231.8" y="357.6" class="st33" width="29" height="40.5"/>
					</g>
				</g>
				<g class="st30">
					<defs>
						<path id="SVGID_65_" d="M183.2,346.6l19.9-7.7c0,0,7.2-6.8,9.8-10.1c2.6-3.3-9.3,1.1-13.9,2.2c-4.5,1.2-27.5-6.8-27.5-6.8
							L183.2,346.6z"/>
					</defs>
					<clipPath id="SVGID_66_">
						<use xlink:href="#SVGID_65_"  style="overflow:visible;"/>
					</clipPath>
					<g class="st34">
						<defs>
							<rect id="SVGID_67_" x="158.3" y="266.4" width="169" height="147.1"/>
						</defs>
						<clipPath id="SVGID_68_">
							<use xlink:href="#SVGID_67_"  style="overflow:visible;"/>
						</clipPath>
						<rect x="166.7" y="319.5" class="st35" width="51.3" height="31.9"/>
					</g>
				</g>
			</g>
		</g>
	</g>
</g>
<g>
	<defs>
		<path id="SVGID_69_" d="M796.8,179.8c5,0.2,9.6,2.7,12.6,6.7c3,4,4,9.1,2.8,14c-13,53.1-48.6,198.6-59.5,243.4
			c-1.9,7.8-9,13.1-17,12.7c-44.2-2.1-182.8-8.5-234.9-11c-5-0.2-9.6-2.7-12.6-6.6c-3-4-4.1-9.1-2.9-13.9
			c12.5-53.1,46.8-198.7,57.5-243.8c1.8-7.8,9-13.2,17.1-12.8C604.4,170.6,744.2,177.2,796.8,179.8z"/>
	</defs>
	<clipPath id="SVGID_70_">
		<use xlink:href="#SVGID_69_"  style="overflow:visible;"/>
	</clipPath>
	<g class="st36">
		<defs>
			<rect id="SVGID_71_" x="-409.9" y="-217.7" width="1833.4" height="1031.3"/>
		</defs>
		<clipPath id="SVGID_72_">
			<use xlink:href="#SVGID_71_"  style="overflow:visible;"/>
		</clipPath>
		<rect x="480.1" y="163.6" class="st37" width="337.4" height="297.7"/>
	</g>
</g>
<g>
	<defs>
		<polygon id="SVGID_73_" points="751.8,356.5 632.1,327.9 620.4,377.4 740.1,406.1 		"/>
	</defs>
	<clipPath id="SVGID_74_">
		<use xlink:href="#SVGID_73_"  style="overflow:visible;"/>
	</clipPath>
	<g class="st38">
		<defs>
			<rect id="SVGID_75_" x="-409.9" y="-217.7" width="1833.4" height="1031.3"/>
		</defs>
		<clipPath id="SVGID_76_">
			<use xlink:href="#SVGID_75_"  style="overflow:visible;"/>
		</clipPath>
		<g class="st39">
			<g>
				<defs>
					<rect id="SVGID_77_" x="614.7" y="322.8" width="142.3" height="88.8"/>
				</defs>
				<clipPath id="SVGID_78_">
					<use xlink:href="#SVGID_77_"  style="overflow:visible;"/>
				</clipPath>
				<g class="st40">
					<defs>
						<rect id="SVGID_79_" x="619.5" y="327.5" width="132.7" height="79.3"/>
					</defs>
					<clipPath id="SVGID_80_">
						<use xlink:href="#SVGID_79_"  style="overflow:visible;"/>
					</clipPath>
					<rect x="615.6" y="323.1" class="st41" width="140.9" height="87.8"/>
				</g>
				<g class="st40">
					<defs>
						<path id="SVGID_81_" d="M683.5,393.9c0,0-4.9-25.1-5.3-27.9c-0.3-2.7,13.7,8.6,18.4,7.9c4.6-0.7,4.7-1.6,0-12.5
							c-4.7-10.8-49.5-32.2-49.5-32.2l31.1,68.8L683.5,393.9z"/>
					</defs>
					<use xlink:href="#SVGID_81_"  style="overflow:visible;fill-rule:evenodd;clip-rule:evenodd;fill:#6E6E6E;"/>
					<clipPath id="SVGID_82_">
						<use xlink:href="#SVGID_81_"  style="overflow:visible;"/>
					</clipPath>
					<g class="st42">
						<defs>
							<rect id="SVGID_83_" x="619.5" y="327.5" width="132.7" height="79.3"/>
						</defs>
						<use xlink:href="#SVGID_83_"  style="overflow:visible;fill:#6E6E6E;"/>
						<clipPath id="SVGID_84_">
							<use xlink:href="#SVGID_83_"  style="overflow:visible;"/>
						</clipPath>
						<rect x="642.4" y="324.5" class="st43" width="62.6" height="78.3"/>
					</g>
				</g>
			</g>
		</g>
	</g>
</g>
<g>
	<defs>
		<path id="SVGID_85_" d="M712.9,535.3l6,7.4l4.6,12.7h-36.4c0,0,8.1-5.3,12.4-6.9l-2.9-9L712.9,535.3z"/>
	</defs>
	<clipPath id="SVGID_86_">
		<use xlink:href="#SVGID_85_"  style="overflow:visible;"/>
	</clipPath>
	<g class="st44">
		<defs>
			<rect id="SVGID_87_" x="-409.9" y="-217.7" width="1833.4" height="1031.3"/>
		</defs>
		<clipPath id="SVGID_88_">
			<use xlink:href="#SVGID_87_"  style="overflow:visible;"/>
		</clipPath>
		<rect x="682.3" y="530.5" class="st45" width="46" height="29.7"/>
	</g>
</g>
<g>
	<defs>
		<path id="SVGID_89_" d="M621.9,389.3l-3.9,6.9c0,0,15.4,43.8,37.4,78.4c22,34.6,33.8,68.2,33.8,68.2h29.7c0,0-29.5-78.6-29.7-81.9
			c-0.1-3.2-11.6-76.1-11.6-76.1L621.9,389.3z"/>
	</defs>
	<use xlink:href="#SVGID_89_"  style="overflow:visible;fill-rule:evenodd;clip-rule:evenodd;fill:#F54140;"/>
	<clipPath id="SVGID_90_">
		<use xlink:href="#SVGID_89_"  style="overflow:visible;"/>
	</clipPath>
	<g class="st46">
		<defs>
			<rect id="SVGID_91_" x="-409.9" y="-217.7" width="1833.4" height="1031.3"/>
		</defs>
		<clipPath id="SVGID_92_">
			<use xlink:href="#SVGID_91_"  style="overflow:visible;"/>
		</clipPath>
		<g class="st47">
			<g>
				<defs>
					<rect id="SVGID_93_" x="609" y="372.4" width="115.5" height="175.7"/>
				</defs>
				<clipPath id="SVGID_94_">
					<use xlink:href="#SVGID_93_"  style="overflow:visible;"/>
				</clipPath>
				<g class="st48">
					<defs>
						<rect id="SVGID_95_" x="617.6" y="383.9" width="102.2" height="159.5"/>
					</defs>
					<clipPath id="SVGID_96_">
						<use xlink:href="#SVGID_95_"  style="overflow:visible;"/>
					</clipPath>
					<rect x="613.3" y="379.9" class="st49" width="110.4" height="167.6"/>
				</g>
				<g class="st48">
					<defs>
						<path id="SVGID_97_" d="M657.4,498.5c0,0,26.1-52.3,30.7-79c4.7-26.7,8.3-46.5-19.6-46.7c-27.9-0.1-58.6,11.9-58.6,11.9
							S646.7,489.1,657.4,498.5z"/>
					</defs>
					<clipPath id="SVGID_98_">
						<use xlink:href="#SVGID_97_"  style="overflow:visible;"/>
					</clipPath>
					<g class="st50">
						<defs>
							<rect id="SVGID_99_" x="617.6" y="383.9" width="102.2" height="159.5"/>
						</defs>
						<clipPath id="SVGID_100_">
							<use xlink:href="#SVGID_99_"  style="overflow:visible;"/>
						</clipPath>
						<rect x="605.1" y="368.1" class="st51" width="91" height="135.2"/>
					</g>
				</g>
			</g>
		</g>
	</g>
</g>
<g>
	<defs>
		<path id="SVGID_101_" d="M594.8,535.3l-1.9,7.4l-10.7,14.5h-29.6c0,0,6.9-5.6,16.6-7.4l5.8-9.9L594.8,535.3z"/>
	</defs>
	<clipPath id="SVGID_102_">
		<use xlink:href="#SVGID_101_"  style="overflow:visible;"/>
	</clipPath>
	<g class="st52">
		<defs>
			<rect id="SVGID_103_" x="-409.9" y="-217.7" width="1833.4" height="1031.3"/>
		</defs>
		<clipPath id="SVGID_104_">
			<use xlink:href="#SVGID_103_"  style="overflow:visible;"/>
		</clipPath>
		<rect x="547.7" y="530.5" class="st53" width="51.9" height="31.5"/>
	</g>
</g>
<g>
	<defs>
		<path id="SVGID_105_" d="M666.8,379l10.8,5.7c0,0,7.1,19.1-26.9,73.5c-39,62.4-57.9,84.5-57.9,84.5h-28.1l68.5-148.8L666.8,379z"
			/>
	</defs>
	<clipPath id="SVGID_106_">
		<use xlink:href="#SVGID_105_"  style="overflow:visible;"/>
	</clipPath>
	<g class="st54">
		<defs>
			<rect id="SVGID_107_" x="-409.9" y="-217.7" width="1833.4" height="1031.3"/>
		</defs>
		<clipPath id="SVGID_108_">
			<use xlink:href="#SVGID_107_"  style="overflow:visible;"/>
		</clipPath>
		<rect x="559.9" y="374.2" class="st55" width="123.1" height="173.3"/>
	</g>
</g>
<g>
	<defs>
		<path id="SVGID_109_" d="M696.7,357c0,0,6.3,2.6,7.3,8.3c1,5.7-5.8,4.8-9.2,1.9c0,0-2.6,4.3-5.1-4.4
			C687.2,354.2,696.7,357,696.7,357z"/>
	</defs>
	<clipPath id="SVGID_110_">
		<use xlink:href="#SVGID_109_"  style="overflow:visible;"/>
	</clipPath>
	<g class="st56">
		<defs>
			<rect id="SVGID_111_" x="-409.9" y="-217.7" width="1833.4" height="1031.3"/>
		</defs>
		<clipPath id="SVGID_112_">
			<use xlink:href="#SVGID_111_"  style="overflow:visible;"/>
		</clipPath>
		<rect x="684.5" y="351.8" class="st57" width="24.3" height="22.5"/>
	</g>
</g>
<g>
	<defs>
		<path id="SVGID_113_" d="M622.6,301.4h6c0,0,28,0.7,47.2,20.2c19.2,19.5,23.7,35.4,23.7,35.4s-1.5,5.3-8.4,8.3l-24.3-18.1
			c0,0,8.4,22.7,10.8,37.5c0,0-32.7,19.4-59.6,11.4l-10.4-73.8l-12.9-3C594.8,319.3,595.5,307.6,622.6,301.4z"/>
	</defs>
	<use xlink:href="#SVGID_113_"  style="overflow:visible;fill-rule:evenodd;clip-rule:evenodd;fill:#B2B2B2;"/>
	<clipPath id="SVGID_114_">
		<use xlink:href="#SVGID_113_"  style="overflow:visible;"/>
	</clipPath>
	<g class="st58">
		<defs>
			<rect id="SVGID_115_" x="-409.9" y="-217.7" width="1833.4" height="1031.3"/>
		</defs>
		<clipPath id="SVGID_116_">
			<use xlink:href="#SVGID_115_"  style="overflow:visible;"/>
		</clipPath>
		<g class="st59">
			<g>
				<defs>
					<rect id="SVGID_117_" x="587" y="296" width="117.4" height="106.9"/>
				</defs>
				<clipPath id="SVGID_118_">
					<use xlink:href="#SVGID_117_"  style="overflow:visible;"/>
				</clipPath>
				<g class="st60">
					<defs>
						<rect id="SVGID_119_" x="594.7" y="300.8" width="105" height="102.2"/>
					</defs>
					<clipPath id="SVGID_120_">
						<use xlink:href="#SVGID_119_"  style="overflow:visible;"/>
					</clipPath>
					<rect x="590" y="296.6" class="st61" width="114.3" height="106.3"/>
				</g>
				<g class="st60">
					<defs>
						<path id="SVGID_121_" d="M672.6,357l-5.8-9.7c0,0-16.6-16.8-25.6-22c-9-5.2-0.5,3.4,7.7,12.4c8.2,9,18.2,21.2,20.2,23.5
							C671.1,363.5,679.9,368.3,672.6,357z"/>
					</defs>
					<clipPath id="SVGID_122_">
						<use xlink:href="#SVGID_121_"  style="overflow:visible;"/>
					</clipPath>
					<g class="st62">
						<defs>
							<rect id="SVGID_123_" x="594.7" y="300.8" width="105" height="102.2"/>
						</defs>
						<clipPath id="SVGID_124_">
							<use xlink:href="#SVGID_123_"  style="overflow:visible;"/>
						</clipPath>
						<rect x="632.6" y="318.9" class="st63" width="47.6" height="50.1"/>
					</g>
				</g>
				<g class="st60">
					<defs>
						<path id="SVGID_125_" d="M605.6,333.1l2.1-10.7c0,0-3.9-9.3-12.9-3C585.8,325.6,605.6,333.1,605.6,333.1z"/>
					</defs>
					<clipPath id="SVGID_126_">
						<use xlink:href="#SVGID_125_"  style="overflow:visible;"/>
					</clipPath>
					<g class="st64">
						<defs>
							<rect id="SVGID_127_" x="594.7" y="300.8" width="105" height="102.2"/>
						</defs>
						<clipPath id="SVGID_128_">
							<use xlink:href="#SVGID_127_"  style="overflow:visible;"/>
						</clipPath>
						<rect x="587.7" y="312.4" class="st65" width="24.7" height="25.4"/>
					</g>
				</g>
			</g>
		</g>
	</g>
</g>
<g>
	<defs>
		<polygon id="SVGID_129_" points="594.8,319.3 600.2,320.6 607.6,322.4 615.3,376.5 476.4,343.6 488.1,294.1 		"/>
	</defs>
	<clipPath id="SVGID_130_">
		<use xlink:href="#SVGID_129_"  style="overflow:visible;"/>
	</clipPath>
	<g class="st66">
		<defs>
			<rect id="SVGID_131_" x="-409.9" y="-217.7" width="1833.4" height="1031.3"/>
		</defs>
		<clipPath id="SVGID_132_">
			<use xlink:href="#SVGID_131_"  style="overflow:visible;"/>
		</clipPath>
		<g class="st67">
			<g>
				<defs>
					<rect id="SVGID_133_" x="471.5" y="288.4" width="169" height="93.6"/>
				</defs>
				<clipPath id="SVGID_134_">
					<use xlink:href="#SVGID_133_"  style="overflow:visible;"/>
				</clipPath>
				<g class="st68">
					<defs>
						<rect id="SVGID_135_" x="476.2" y="293.2" width="139.4" height="84"/>
					</defs>
					<clipPath id="SVGID_136_">
						<use xlink:href="#SVGID_135_"  style="overflow:visible;"/>
					</clipPath>
					<rect x="471.6" y="289.3" class="st69" width="148.5" height="92"/>
				</g>
				<g class="st68">
					<defs>
						<path id="SVGID_137_" d="M578.8,343.9c0.1-2,0.5-5.1,2.2-4.8c0,0,3.6-6.8,8.2-2.1c2.4,2.5,2,6.3,0.8,9.5
							c1.3,0.5,2.2,0.9,2.2,0.9s0.1,15.2-12.3,21.2c-12.4,6-21-3.8-21-3.8c0.3,0.3,18.9-20.9,18.9-20.9
							C578.1,343.9,578.5,343.9,578.8,343.9z"/>
					</defs>
					<use xlink:href="#SVGID_137_"  style="overflow:visible;fill-rule:evenodd;clip-rule:evenodd;fill:#6E6E6E;"/>
					<clipPath id="SVGID_138_">
						<use xlink:href="#SVGID_137_"  style="overflow:visible;"/>
					</clipPath>
					<g class="st70">
						<defs>
							<rect id="SVGID_139_" x="476.2" y="293.2" width="139.4" height="84"/>
						</defs>
						<use xlink:href="#SVGID_139_"  style="overflow:visible;fill:#6E6E6E;"/>
						<clipPath id="SVGID_140_">
							<use xlink:href="#SVGID_139_"  style="overflow:visible;"/>
						</clipPath>
						<rect x="554.1" y="330.5" class="st71" width="42.9" height="44.7"/>
					</g>
				</g>
				<g class="st68">
					<defs>
						<path id="SVGID_141_" d="M600.7,317.6c0,0,2.7,5.1,4,7.8c0.5,1,0.9,2.1,1,3.2c1,9.2,5.9,52.9,5.9,52.9l28.7-4.9l-22.3-66.6
							L600.7,317.6z"/>
					</defs>
					<use xlink:href="#SVGID_141_"  style="overflow:visible;fill-rule:evenodd;clip-rule:evenodd;fill:#6E6E6E;"/>
					<clipPath id="SVGID_142_">
						<use xlink:href="#SVGID_141_"  style="overflow:visible;"/>
					</clipPath>
					<g class="st72">
						<defs>
							<rect id="SVGID_143_" x="476.2" y="293.2" width="139.4" height="84"/>
						</defs>
						<clipPath id="SVGID_144_">
							<use xlink:href="#SVGID_143_"  style="overflow:visible;"/>
						</clipPath>
						<rect x="596" y="305.1" class="st73" width="49.2" height="81.1"/>
					</g>
				</g>
			</g>
		</g>
	</g>
</g>
<g>
	<defs>
		<path id="SVGID_145_" d="M604.2,271.2c0,0-3.7,3.8-5.5,9.3c-0.3,0.8-3.1,2-3.2,2.9c-0.1,0.5,2.4,0.8,2.3,1.4
			c-0.2,1.5-0.1,3.1,0.2,4.8c1.8,10.1,12.9,10.8,12.9,10.8v5.9c0,0,2.4,5.6,8.2,3c5.8-2.6,9.6-7.8,9.6-7.8s-3.9-5.5-1.4-14
			c2.6-8.5,4.2-12.7,0-18C623.3,264.3,609.4,262.6,604.2,271.2z"/>
	</defs>
	<clipPath id="SVGID_146_">
		<use xlink:href="#SVGID_145_"  style="overflow:visible;"/>
	</clipPath>
	<g class="st74">
		<defs>
			<rect id="SVGID_147_" x="-409.9" y="-217.7" width="1833.4" height="1031.3"/>
		</defs>
		<clipPath id="SVGID_148_">
			<use xlink:href="#SVGID_147_"  style="overflow:visible;"/>
		</clipPath>
		<g class="st75">
			<g>
				<defs>
					<rect id="SVGID_149_" x="589.9" y="259.7" width="45.8" height="55.4"/>
				</defs>
				<clipPath id="SVGID_150_">
					<use xlink:href="#SVGID_149_"  style="overflow:visible;"/>
				</clipPath>
				<g class="st76">
					<defs>
						<rect id="SVGID_151_" x="594.7" y="262.6" width="37.2" height="49.7"/>
					</defs>
					<clipPath id="SVGID_152_">
						<use xlink:href="#SVGID_151_"  style="overflow:visible;"/>
					</clipPath>
					<rect x="590.6" y="260.4" class="st77" width="44" height="54.3"/>
				</g>
				<g class="st76">
					<defs>
						<path id="SVGID_153_" d="M603,269.3c0,0,1.4,3.6,5.3,4.6c3.9,1,4.1,3.8,4,6.5c-0.1,2.7,2.1,3.4,4.7,2.5
							c2.6-0.9,4.8,1.2,4.1,4.2c-0.3,1.5-2.6,3.2-2.6,3.2s3.3,6.4,9.2,4.1c5.9-2.3,7.9-23.4,5.2-27.9c-2.7-4.4-20.2-4.4-23.2-3
							C606.6,264.8,603,269.3,603,269.3z"/>
					</defs>
					<clipPath id="SVGID_154_">
						<use xlink:href="#SVGID_153_"  style="overflow:visible;"/>
					</clipPath>
					<g class="st78">
						<defs>
							<rect id="SVGID_155_" x="594.7" y="262.6" width="37.2" height="49.7"/>
						</defs>
						<clipPath id="SVGID_156_">
							<use xlink:href="#SVGID_155_"  style="overflow:visible;"/>
						</clipPath>
						<rect x="598.2" y="257.9" class="st79" width="40.6" height="41.7"/>
					</g>
				</g>
			</g>
		</g>
	</g>
</g>
<g>
	<defs>
		<path id="SVGID_157_" d="M610.8,300.3c0,0,0,2,0,5.9c0,0,2.4,5.6,8.2,3c5.8-2.6,9.6-7.8,9.6-7.8s-1.8-2.5-2.2-6.8
			c-2.6,1.2-7-1.3-7.9-4.5C617.9,300.4,610.8,300.3,610.8,300.3z"/>
	</defs>
	<clipPath id="SVGID_158_">
		<use xlink:href="#SVGID_157_"  style="overflow:visible;"/>
	</clipPath>
	<g class="st80">
		<defs>
			<rect id="SVGID_159_" x="-409.9" y="-217.7" width="1833.4" height="1031.3"/>
		</defs>
		<clipPath id="SVGID_160_">
			<use xlink:href="#SVGID_159_"  style="overflow:visible;"/>
		</clipPath>
		<g class="st81">
			<g>
				<defs>
					<rect id="SVGID_161_" x="605.2" y="284.6" width="28.6" height="30.6"/>
				</defs>
				<clipPath id="SVGID_162_">
					<use xlink:href="#SVGID_161_"  style="overflow:visible;"/>
				</clipPath>
				<g class="st82">
					<defs>
						<rect id="SVGID_163_" x="609.9" y="289.3" width="19.1" height="22.9"/>
					</defs>
					<clipPath id="SVGID_164_">
						<use xlink:href="#SVGID_163_"  style="overflow:visible;"/>
					</clipPath>
					<rect x="606" y="285.4" class="st83" width="27.4" height="29.3"/>
				</g>
			</g>
		</g>
	</g>
</g>
<g>
	<defs>
		<path id="SVGID_165_" d="M576,343.1c0,0-0.2-6.7,2.2-6.3c0,0,3.6-6.8,8.2-2.1c4.6,4.8-0.9,14.1-3.3,15
			C580.8,350.6,576,343.1,576,343.1z"/>
	</defs>
	<clipPath id="SVGID_166_">
		<use xlink:href="#SVGID_165_"  style="overflow:visible;"/>
	</clipPath>
	<g class="st84">
		<defs>
			<rect id="SVGID_167_" x="-409.9" y="-217.7" width="1833.4" height="1031.3"/>
		</defs>
		<clipPath id="SVGID_168_">
			<use xlink:href="#SVGID_167_"  style="overflow:visible;"/>
		</clipPath>
		<rect x="571.2" y="328.3" class="st85" width="21.7" height="26.3"/>
	</g>
</g>
<g>
	<defs>
		<path id="SVGID_169_" d="M556,362.5c0,0,8.6,9.8,21,3.8c12.4-6,12.3-21.2,12.3-21.2s-8-3.5-14.4-3.4
			C574.9,341.6,556.4,362.8,556,362.5z"/>
	</defs>
	<use xlink:href="#SVGID_169_"  style="overflow:visible;fill-rule:evenodd;clip-rule:evenodd;fill:#FFBF00;"/>
	<clipPath id="SVGID_170_">
		<use xlink:href="#SVGID_169_"  style="overflow:visible;"/>
	</clipPath>
	<g class="st86">
		<defs>
			<rect id="SVGID_171_" x="-409.9" y="-217.7" width="1833.4" height="1031.3"/>
		</defs>
		<clipPath id="SVGID_172_">
			<use xlink:href="#SVGID_171_"  style="overflow:visible;"/>
		</clipPath>
		<rect x="551.3" y="336.8" class="st87" width="42.9" height="36.1"/>
	</g>
</g>
<g>
	<defs>
		<path id="SVGID_173_" d="M440.6,287.3l14.2-15.6c0,0,22.5,5,35.1,7.7c5.1,1.1,9.2,4.9,10.8,9.9c3.9,12.3,10.9,34.3,10.9,34.3
			s-15.5,17-24.2,26.5c-3.5,3.9-8.9,5.6-14,4.4c-12.6-2.8-35.1-7.7-35.1-7.7l-7.1-22.3l36.3,8l14.9-16.3l-6.7-21.1L440.6,287.3z"/>
	</defs>
	<clipPath id="SVGID_174_">
		<use xlink:href="#SVGID_173_"  style="overflow:visible;"/>
	</clipPath>
	<g class="st88">
		<defs>
			<rect id="SVGID_175_" x="-409.9" y="-217.7" width="1833.4" height="1031.3"/>
		</defs>
		<clipPath id="SVGID_176_">
			<use xlink:href="#SVGID_175_"  style="overflow:visible;"/>
		</clipPath>
		<rect x="426.5" y="267" class="st89" width="89.9" height="92.7"/>
	</g>
</g>
<g>
	<defs>
		<path id="SVGID_177_" d="M803.2,371.9l-6-20.2c0,0-22.4-5.4-35-8.4c-5.1-1.2-10.5,0.4-14.1,4.2c-8.9,9.4-24.7,26.1-24.7,26.1
			s6.6,22.1,10.2,34.4c1.5,5,5.5,8.9,10.6,10.1c12.5,3,34.9,8.4,34.9,8.4l16.1-17l-36.1-8.6l-6.3-21.2l15.2-16.1L803.2,371.9z"/>
	</defs>
	<use xlink:href="#SVGID_177_"  style="overflow:visible;fill-rule:evenodd;clip-rule:evenodd;fill:#B2B2B2;"/>
	<clipPath id="SVGID_178_">
		<use xlink:href="#SVGID_177_"  style="overflow:visible;"/>
	</clipPath>
	<g class="st90">
		<defs>
			<rect id="SVGID_179_" x="-409.9" y="-217.7" width="1833.4" height="1031.3"/>
		</defs>
		<clipPath id="SVGID_180_">
			<use xlink:href="#SVGID_179_"  style="overflow:visible;"/>
		</clipPath>
		<rect x="718.7" y="338.2" class="st91" width="89.3" height="93.1"/>
	</g>
</g>
<g>
	<defs>
		<path id="SVGID_181_" d="M167.2,36.8c3.9,0,7,3.2,7,7c0,3.9-3.2,7-7,7s-7-3.2-7-7C160.2,40,163.3,36.8,167.2,36.8z"/>
	</defs>
	<clipPath id="SVGID_182_">
		<use xlink:href="#SVGID_181_"  style="overflow:visible;"/>
	</clipPath>
	<g class="st92">
		<defs>
			<rect id="SVGID_183_" x="-409.9" y="-217.7" width="1833.4" height="1031.3"/>
		</defs>
		<clipPath id="SVGID_184_">
			<use xlink:href="#SVGID_183_"  style="overflow:visible;"/>
		</clipPath>
		<rect x="155.4" y="32.1" class="st93" width="23.6" height="23.6"/>
	</g>
</g>
<g>
	<defs>
		<path id="SVGID_185_" d="M189.5,38.7c3.9,0,7,3.2,7,7c0,3.9-3.2,7-7,7c-3.9,0-7-3.2-7-7C182.5,41.8,185.6,38.7,189.5,38.7z"/>
	</defs>
	<clipPath id="SVGID_186_">
		<use xlink:href="#SVGID_185_"  style="overflow:visible;"/>
	</clipPath>
	<g class="st94">
		<defs>
			<rect id="SVGID_187_" x="-409.9" y="-217.7" width="1833.4" height="1031.3"/>
		</defs>
		<clipPath id="SVGID_188_">
			<use xlink:href="#SVGID_187_"  style="overflow:visible;"/>
		</clipPath>
		<rect x="177.7" y="33.9" class="st95" width="23.6" height="23.6"/>
	</g>
</g>
<g>
	<defs>
		<path id="SVGID_189_" d="M211.8,40.5c3.9,0,7,3.2,7,7c0,3.9-3.2,7-7,7c-3.9,0-7-3.2-7-7C204.8,43.6,207.9,40.5,211.8,40.5z"/>
	</defs>
	<clipPath id="SVGID_190_">
		<use xlink:href="#SVGID_189_"  style="overflow:visible;"/>
	</clipPath>
	<g class="st96">
		<defs>
			<rect id="SVGID_191_" x="-409.9" y="-217.7" width="1833.4" height="1031.3"/>
		</defs>
		<clipPath id="SVGID_192_">
			<use xlink:href="#SVGID_191_"  style="overflow:visible;"/>
		</clipPath>
		<rect x="200" y="35.7" class="st97" width="23.6" height="23.6"/>
	</g>
</g>
<g>
	<defs>
		<path id="SVGID_193_" d="M720.9,99.7c0.2-2-0.5-4-1.8-5.5c-1.3-1.5-3.2-2.5-5.2-2.6c-12.3-1-36.7-2.8-49.1-3.8
			c-2-0.2-4,0.5-5.5,1.8c-1.5,1.3-2.5,3.2-2.6,5.2c0,0,0,0,0,0c-0.2,2,0.5,4,1.8,5.5c1.3,1.5,3.2,2.5,5.2,2.6
			c12.3,1,36.7,2.8,49.1,3.8c2,0.2,4-0.5,5.5-1.8C719.8,103.5,720.8,101.7,720.9,99.7C720.9,99.7,720.9,99.7,720.9,99.7z"/>
	</defs>
	<clipPath id="SVGID_194_">
		<use xlink:href="#SVGID_193_"  style="overflow:visible;"/>
	</clipPath>
	<g class="st98">
		<defs>
			<rect id="SVGID_195_" x="-409.9" y="-217.7" width="1833.4" height="1031.3"/>
		</defs>
		<clipPath id="SVGID_196_">
			<use xlink:href="#SVGID_195_"  style="overflow:visible;"/>
		</clipPath>
		<rect x="652" y="83" class="st99" width="73.7" height="28.4"/>
	</g>
</g>
<g>
	<defs>
		<path id="SVGID_197_" d="M825.8,107.7c0.2-2-0.5-4-1.8-5.5c-1.3-1.5-3.2-2.5-5.2-2.6c-12.3-1-36.8-2.8-49.1-3.8
			c-2-0.2-4,0.5-5.5,1.8c-1.5,1.3-2.5,3.2-2.6,5.2c0,0,0,0,0,0c-0.2,2,0.5,4,1.8,5.5c1.3,1.5,3.2,2.5,5.2,2.6
			c12.3,1,36.7,2.8,49.1,3.8c2,0.2,4-0.5,5.5-1.8C824.7,111.6,825.6,109.7,825.8,107.7C825.8,107.7,825.8,107.7,825.8,107.7z"/>
	</defs>
	<clipPath id="SVGID_198_">
		<use xlink:href="#SVGID_197_"  style="overflow:visible;"/>
	</clipPath>
	<g class="st100">
		<defs>
			<rect id="SVGID_199_" x="-409.9" y="-217.7" width="1833.4" height="1031.3"/>
		</defs>
		<clipPath id="SVGID_200_">
			<use xlink:href="#SVGID_199_"  style="overflow:visible;"/>
		</clipPath>
		<rect x="756.8" y="91" class="st101" width="73.7" height="28.4"/>
	</g>
</g>
<path class="st102" d="M575.7,185.3c3.4,0,6.2,2.8,6.2,6.2c0,3.4-2.8,6.2-6.2,6.2c-3.4,0-6.2-2.8-6.2-6.2
	C569.5,188.1,572.2,185.3,575.7,185.3z"/>
<path class="st103" d="M594.8,187.3c3.4,0,6.2,2.8,6.2,6.2c0,3.4-2.8,6.2-6.2,6.2c-3.4,0-6.2-2.8-6.2-6.2
	C588.6,190,591.3,187.3,594.8,187.3z"/>
<path class="st104" d="M613.9,188.2c3.4,0,6.2,2.8,6.2,6.2c0,3.4-2.8,6.2-6.2,6.2c-3.4,0-6.2-2.8-6.2-6.2
	C607.7,191,610.4,188.2,613.9,188.2z"/>
<path class="st105" d="M773,243.7c0.3-1.8-0.8-3.6-3-5c-2.2-1.4-5.4-2.2-8.7-2.4c-20.9-0.9-62.3-2.6-83.3-3.4
	c-3.4-0.1-6.7,0.4-9.3,1.6c-2.6,1.2-4.2,2.9-4.4,4.7c0,0,0,0,0,0c-0.3,1.8,0.8,3.6,3,5c2.2,1.4,5.4,2.2,8.7,2.4
	c20.9,0.9,62.3,2.6,83.3,3.4c3.4,0.1,6.7-0.4,9.3-1.6S772.7,245.5,773,243.7C773,243.7,773,243.7,773,243.7z"/>
<path id="Fill-67-Copy_1_" class="st105" d="M766.3,270.4c0.3-1.8-0.8-3.6-3-5c-2.2-1.4-5.3-2.2-8.7-2.4
	c-20.9-0.9-62.3-2.6-83.3-3.4c-3.4-0.1-6.7,0.4-9.3,1.6c-2.6,1.2-4.2,2.9-4.4,4.7c0,0,0,0,0,0c-0.3,1.8,0.8,3.6,3,5s5.4,2.2,8.7,2.4
	c20.9,0.9,62.3,2.6,83.3,3.4c3.4,0.1,6.7-0.4,9.3-1.6C764.4,273.9,766,272.2,766.3,270.4C766.3,270.4,766.3,270.4,766.3,270.4z"/>
</svg>
