<?xml version="1.0" encoding="UTF-8"?>
<svg width="60px" height="82px" viewBox="0 0 60 82" version="1.1" xmlns="http://www.w3.org/2000/svg" xmlns:xlink="http://www.w3.org/1999/xlink">
    <!-- Generator: Sketch 64 (93537) - https://sketch.com -->
    <title>pin</title>
    <desc>Created with Sketch.</desc>
    <g id="小資振興_確認風格" stroke="none" stroke-width="1" fill="none" fill-rule="evenodd">
        <g id="画板" fill="#F25B22" fill-rule="nonzero">
            <g id="pin">
                <path d="M29.7890625,0 C13.4138867,0 0.0917695312,13.3221172 0.0917695312,29.6971328 C0.0917695312,50.0190391 26.6679375,79.8527852 27.7994414,81.1128945 C28.8622383,82.2966094 30.7178086,82.2945273 31.7786836,81.1128945 C32.9101875,79.8527852 59.4863555,50.0190391 59.4863555,29.6971328 C59.4863555,13.3221172 46.1640781,0 29.7890625,0 Z M29.7890625,44.6385898 C21.5503047,44.6385898 14.8477656,37.9358906 14.8477656,29.6971328 C14.8477656,21.458375 21.5504648,14.7558359 29.7890625,14.7558359 C38.0276602,14.7558359 44.7301992,21.4585352 44.7301992,29.697293 C44.7301992,37.9360508 38.0276602,44.6385898 29.7890625,44.6385898 Z" id="Shape"></path>
            </g>
        </g>
    </g>
</svg>