<?xml version="1.0" encoding="UTF-8"?>
<svg width="89px" height="93px" viewBox="0 0 89 93" version="1.1" xmlns="http://www.w3.org/2000/svg" xmlns:xlink="http://www.w3.org/1999/xlink">
    <!-- Generator: Sketch 64 (93537) - https://sketch.com -->
    <title>menu_sale_icon</title>
    <desc>Created with Sketch.</desc>
    <g id="小資振興_確認風格" stroke="none" stroke-width="1" fill="none" fill-rule="evenodd">
        <g id="小資振興_選單_Mobile(3@)" transform="translate(-91.000000, -1967.000000)" fill="#FFFFFF" fill-rule="nonzero">
            <g id="B" transform="translate(0.000000, 240.000000)">
                <g id="menu_sale_icon" transform="translate(91.000000, 1727.000000)">
                    <path d="M50.0886789,2.65801284 C47.1805385,-0.155367702 42.6652326,-0.217937097 39.6859446,2.47044369 L39.4852284,2.65800522 L33.7955082,8.162571 C33.1227803,8.81335341 32.2207012,9.13726764 31.2953805,9.06762394 L31.0815261,9.04453573 L23.24331,7.93579217 C19.2278584,7.36751575 15.5308305,9.98417514 14.7115809,13.9254912 L14.6650402,14.1684356 L13.2974021,21.9655388 C13.1347134,22.8923228 12.5903448,23.6885297 11.7944783,24.1748563 L11.6201334,24.2742607 L4.62723064,27.984632 C1.04813169,29.8834656 -0.405737016,34.1681253 1.24123298,37.8359607 L1.35057931,38.0692113 L4.82700902,45.1811909 C5.23813513,46.0224028 5.26750128,46.9810492 4.91509213,47.8388968 L4.82698986,48.034973 L1.35039869,55.1469104 C-0.428946404,58.7871037 0.91323241,63.1077205 4.40150721,65.1068957 L4.62706822,65.231321 L11.6198874,68.9416479 C12.4510652,69.3825091 13.0401338,70.1464367 13.2567458,71.0537402 L13.2974143,71.2502914 L14.6650389,79.0476814 C15.3101625,82.7252927 18.4613702,85.3578527 22.1494704,85.3575079 C22.3916174,85.3575079 22.634913,85.3460747 22.8783618,85.3231525 L23.2435255,85.2801457 L31.081475,84.1714399 C32.0079595,84.0399401 32.928957,84.3084843 33.636338,84.9089453 L33.795693,85.0533742 L39.4852109,90.5573742 C40.9362263,91.9610341 42.8267524,92.7152371 44.7868587,92.7152371 C46.6434062,92.7152371 48.4389528,92.0379384 49.8559076,90.7735295 L50.0885068,90.5573739 L55.7782642,85.0533183 C56.4508388,84.4028836 57.3529314,84.079052 58.2783202,84.1483949 L58.4921912,84.1714068 L66.3303785,85.2801463 C70.3446212,85.8480132 74.0398093,83.2340282 74.8611127,79.29537 L74.908679,79.0474958 L76.2764973,71.2504037 C76.439186,70.3236198 76.9835546,69.5274129 77.7794211,69.0410863 L77.9537659,68.9416818 L84.9466687,65.2313106 C88.5257677,63.3324769 89.9796364,59.0478173 88.3326686,55.3799863 L88.2233224,55.1467361 L84.7467083,48.0345696 C84.3355822,47.1933577 84.306216,46.2347113 84.6586234,45.3768673 L84.7467252,45.1807921 L88.2233186,38.068668 C90.0026637,34.4284747 88.6604849,30.1078579 85.1722101,28.1086827 L84.9466491,27.9842574 L77.9538299,24.2739306 C77.1226521,23.8330693 76.5335835,23.0691417 76.3169715,22.1618383 L76.276303,21.9652871 L74.9086783,14.1678961 C74.2083451,10.1755114 70.5794039,7.4679043 66.5807481,7.90389149 L66.3303739,7.93525072 L58.4920518,9.04400925 C57.5647997,9.17490603 56.6443811,8.9066254 55.9374585,8.30639812 L55.7782064,8.1620222 L50.0886789,2.65801284 Z M46.8963435,5.66780237 L47.0455771,5.80367211 L52.7350991,11.3076761 C54.3675725,12.8869078 56.5661826,13.6449939 58.811653,13.4131215 L59.1047635,13.3772493 L66.9429321,12.2685124 C68.6238611,12.0306901 70.1789058,13.1082382 70.5605679,14.7405607 L70.5980929,14.9241742 L71.9657146,22.7215476 C72.3589026,24.9625225 73.6959365,26.8707387 75.6543879,28.0023539 L75.9024075,28.1397288 L82.8952737,31.8500806 C84.3953223,32.645919 85.0197796,34.4311906 84.3690883,35.9762655 L84.2915215,36.1468895 L80.8149313,43.258825 C79.819525,45.295255 79.7762464,47.6155114 80.6850896,49.6766095 L80.8149243,49.956011 L84.2915297,57.0679775 C85.0373659,58.593853 84.493196,60.4053923 83.0585249,61.2728681 L82.8954727,61.3653067 L75.9026285,65.0756469 C73.8928696,66.1422338 72.4911848,68.003458 72.0200988,70.2156808 L71.9660833,70.4940047 L70.5984579,78.2912169 C70.3051273,79.9637199 68.8006034,81.1089378 67.1296084,80.9678898 L66.9433103,80.9468859 L59.1050271,79.8381329 C56.8565621,79.519614 54.6326521,80.1986746 52.9515994,81.7063867 L52.7354529,81.9077303 L47.0457568,87.4115445 C45.8290035,88.5886076 43.9453881,88.6338793 42.6769533,87.5473575 L42.5277761,87.4115422 L36.8382612,81.9075451 C35.4050011,80.5210846 33.5278344,79.761149 31.5555445,79.761149 C31.3142755,79.761149 31.0724884,79.7725119 30.8308507,79.7952722 L30.4685897,79.8379651 L22.6303697,80.9467092 C20.9495876,81.1843327 19.3946447,80.1069089 19.0128078,78.4746572 L18.9752623,78.2910513 L17.6074566,70.4936667 C17.2142685,68.2526919 15.8772346,66.3444756 13.9187833,65.2128605 L13.6707636,65.0754855 L6.67789745,61.3651337 C5.1778488,60.5692953 4.5533915,58.7840238 5.20408081,57.2389529 L5.28164744,57.0683293 L8.75823292,49.9562215 C9.75364808,47.9196099 9.796927,45.599667 8.8880799,43.5384388 L8.75824459,43.2590168 L5.28164087,36.1468716 C4.53595451,34.621293 5.08020699,32.8099594 6.51483371,31.9425245 L6.67788047,31.8500896 L13.6707247,28.1397495 C15.6804836,27.0731626 17.0821684,25.2119384 17.5532544,22.9997156 L17.6072699,22.7213917 L18.9749057,14.9241202 C19.2684577,13.2515369 20.7729092,12.1062689 22.443761,12.2474868 L22.6300429,12.2685104 L30.4682804,13.377257 C32.7164024,13.6955158 34.9410174,13.0163624 36.6217901,11.5089712 L36.8378944,11.3076718 L42.5275964,5.80366981 C43.6956796,4.67368923 45.4783428,4.58676765 46.741267,5.54285864 L46.8963435,5.66780237 Z" id="Shape"></path>
                    <path d="M64.0745192,27.3197032 C64.9292393,28.1744233 64.9291935,29.559704 64.0743985,30.4143508 L28.5930868,65.8956625 C28.177068,66.31197 27.6230385,66.5366207 27.0459451,66.5366207 C26.4690729,66.5366207 25.9150646,66.3119238 25.4988033,65.8956625 C24.6443137,65.0411729 24.6443137,63.6556866 25.4988033,62.801197 L60.9800852,27.319733 C61.8345688,26.4652494 63.2202136,26.4652494 64.0745192,27.3197032 Z" id="Path"></path>
                    <path d="M34.0342767,22.9147075 C28.8755962,22.9147075 24.6777888,27.1125149 24.6777888,32.2711954 C24.6777888,37.4298759 28.8755962,41.6276833 34.0342767,41.6276833 C39.1929573,41.6276833 43.3907646,37.4298759 43.3907646,32.2711954 C43.3907646,27.1125149 39.1929573,22.9147075 34.0342767,22.9147075 Z M34.0342767,27.2909074 C36.780805,27.2909074 39.0145647,29.5245418 39.0145647,32.2710502 C39.0143623,35.0177095 36.7807705,37.2513013 34.0342767,37.2513013 C31.2877455,37.2513013 29.0541708,35.0176639 29.0541708,32.2710133 C29.0541708,29.5245135 31.2877769,27.2909074 34.0342767,27.2909074 Z" id="Shape"></path>
                    <path d="M55.5390765,51.5878952 C50.3803959,51.5878952 46.1825885,55.7857025 46.1825885,60.9443831 C46.1825885,66.1030636 50.3803959,70.300871 55.5390765,70.300871 C60.697757,70.300871 64.8955644,66.1030636 64.8955644,60.9443831 C64.8955644,55.7857025 60.697757,51.5878952 55.5390765,51.5878952 Z M55.5390765,55.9642771 C58.2855763,55.9642771 60.5191824,58.1978832 60.5191824,60.9443831 C60.5191824,63.6908829 58.2855763,65.924489 55.5390765,65.924489 C52.7925482,65.924489 50.5587885,63.6908546 50.5587885,60.9443831 C50.5587885,58.1978519 52.7924259,55.9642771 55.5390765,55.9642771 Z" id="Shape"></path>
                </g>
            </g>
        </g>
    </g>
</svg>