<?xml version="1.0" encoding="UTF-8"?>
<svg width="90px" height="90px" viewBox="0 0 90 90" version="1.1" xmlns="http://www.w3.org/2000/svg" xmlns:xlink="http://www.w3.org/1999/xlink">
    <!-- Generator: Sketch 64 (93537) - https://sketch.com -->
    <title>menu_question_icon</title>
    <desc>Created with Sketch.</desc>
    <g id="小資振興_確認風格" stroke="none" stroke-width="1" fill="none" fill-rule="evenodd">
        <g id="小資振興_選單_Mobile(3@)" transform="translate(-91.000000, -1570.000000)" fill="#FFFFFF" fill-rule="nonzero">
            <g id="B" transform="translate(0.000000, 240.000000)">
                <g id="menu_question_icon" transform="translate(91.000000, 1330.000000)">
                    <path d="M43.6129092,2.27373675e-13 L42.923177,0.00497784021 C37.3940783,0.0866875027 32.0251849,1.19273039 26.9362427,3.29922306 C21.6216275,5.49927816 16.8561027,8.68572771 12.7709023,12.7709007 C8.68553765,16.8560636 5.49907077,21.6215502 3.29917761,26.9361233 C1.01840477,32.4460239 -0.089612463,38.2902976 0.00565933699,44.3085784 C0.187646402,55.7998087 4.82622681,66.5850471 13.0685341,74.6804797 C21.1537136,82.6216189 31.765568,87.0522804 43.0194761,87.2000256 L43.6707556,87.2038446 C50.1104123,87.1937638 56.5172259,85.7438756 62.3119761,82.9921035 L63.083423,82.6166335 L81.2261224,88.8506227 C81.8676817,89.0711062 82.5310925,89.1819091 83.1944652,89.1819091 C84.7705607,89.1819091 86.2808229,88.5571892 87.4189333,87.4187607 C88.9933012,85.8444033 89.5599496,83.5875182 88.9287756,81.4696795 L88.8506213,81.2259773 L82.6165953,63.083415 L82.692262,62.9304624 C85.63845,56.9750411 87.1933979,50.3406772 87.2038388,43.6710653 C87.2216027,32.1765433 82.7747169,21.3094327 74.6807386,13.068866 C66.7227988,4.96648067 56.1651762,0.346517611 44.8954102,0.0190487899 L44.3087199,0.00590452162 L43.6129092,2.27373675e-13 Z M43.6752921,4.51850053 L44.2370443,4.52348699 C65.4719804,4.86013831 82.7188395,22.4173991 82.6857962,43.6640784 C82.6758481,49.9967032 81.1146404,56.2848054 78.1704387,61.8500056 C77.9076818,62.3465888 77.8404891,62.9212436 77.9775767,63.4616636 L78.0308505,63.6403816 L84.5780236,82.6939579 C84.7919794,83.3163886 84.606144,83.8432611 84.2243061,84.2243385 C83.8742107,84.5744316 83.4032513,84.7594829 82.8475831,84.6232925 L82.6939641,84.5780676 L63.6403935,78.0309846 C63.4030692,77.9495576 63.1550085,77.9082833 62.9061989,77.9082833 C62.5387564,77.9082833 62.1761455,77.9978233 61.8497966,78.1705256 C56.2839791,81.1150039 49.9957934,82.6762456 43.6636189,82.6858379 C22.4227089,82.7201287 4.85918506,65.4694476 4.52274891,44.2369876 C4.353474,33.5549779 8.41786777,23.5129337 15.9653633,15.965489 C23.2484429,8.68262983 32.8511308,4.64400661 43.1148095,4.52130571 L43.6752921,4.51850053 Z" id="Shape"></path>
                    <path d="M44.7727273,64.2272727 C46.1086467,64.2272727 47.1633458,65.3149506 47.2252747,66.7000902 C47.2820481,67.9691991 46.0829718,69.1363636 44.7727273,69.1363636 C43.4368747,69.1363636 42.3821111,68.0485702 42.3201797,66.663544 C42.2634064,65.3944373 43.4624827,64.2272727 44.7727273,64.2272727 Z" id="Path"></path>
                    <path d="M44.7727273,22.5 C51.9917329,22.5 57.8636364,28.3054912 57.8636364,35.4382217 C57.8636364,41.6012848 53.445782,46.8900812 47.404925,48.1136265 L47.0770443,48.1800371 L47.0770443,57.0443772 C47.0770443,58.299182 46.0463876,59.3181818 44.7727273,59.3181818 C43.4991564,59.3181818 42.4684102,58.2990936 42.4684102,57.0445539 L42.4684102,46.1028154 C42.4684102,44.8482757 43.4991564,43.8291875 44.7727273,43.8291875 C49.4490604,43.8291875 53.2550023,40.0662915 53.2550023,35.4382217 C53.2550023,30.8101518 49.4490604,27.0472558 44.7727273,27.0472558 C40.0963942,27.0472558 36.2904522,30.8101518 36.2904522,35.4382217 C36.2904522,36.6927613 35.2597061,37.7118495 33.9861352,37.7118495 C32.7125643,37.7118495 31.6818182,36.6927613 31.6818182,35.4382217 C31.6818182,28.3054912 37.5537217,22.5 44.7727273,22.5 Z" id="Path"></path>
                </g>
            </g>
        </g>
    </g>
</svg>