<?xml version="1.0" encoding="UTF-8"?>
<svg width="90px" height="92px" viewBox="0 0 90 92" version="1.1" xmlns="http://www.w3.org/2000/svg" xmlns:xlink="http://www.w3.org/1999/xlink">
    <!-- Generator: Sketch 64 (93537) - https://sketch.com -->
    <title>menu_idea_icon</title>
    <desc>Created with Sketch.</desc>
    <g id="小資振興_確認風格" stroke="none" stroke-width="1" fill="none" fill-rule="evenodd">
        <g id="小資振興_選單_Mobile(3@)" transform="translate(-91.000000, -386.000000)" fill="#FFFFFF" fill-rule="nonzero">
            <g id="B" transform="translate(0.000000, 240.000000)">
                <g id="menu_idea_icon" transform="translate(91.000000, 146.000000)">
                    <path d="M61.789251,27.8161775 C56.8830849,23.1360191 50.2575336,20.731859 43.5132077,21.18452 C30.6048025,21.9692552 20.4930931,32.6617589 20.3493025,45.6787822 C20.2431375,54.9844358 25.8745612,63.4345171 33.3126206,67.6059182 L33.3126206,79.799512 C33.3126206,86.29748 38.5456204,91.5652174 45.0007382,91.5652174 C51.455856,91.5652174 56.6888558,86.29748 56.6888558,79.799512 L56.6888558,67.7127879 C64.5371352,63.2043991 69.458555,54.8798181 69.6521739,45.785652 C69.5598388,38.9705551 66.7220601,32.4850757 61.789251,27.8161775 Z M45.0007382,87.0730023 C41.412686,86.912493 38.4343709,84.2276462 37.8815806,80.655289 L52.1198958,80.655289 C51.5671056,84.2276462 48.5889938,86.9122882 45.0007382,87.0730023 Z M52.4387976,76.3768135 L37.5628822,76.3768135 L37.5628822,73.1680592 L52.4387976,73.1680592 L52.4387976,76.3768135 Z M53.5012613,64.3971639 C52.820951,64.7920906 52.4123581,65.5323991 52.4387976,66.3224574 L52.4387976,68.8895837 L37.5628822,68.8895837 L37.5628822,66.3224574 C37.6053889,65.5002563 37.1978128,64.7204347 36.5004185,64.2900894 C29.2102172,61.0774452 24.5275671,53.7963798 24.5997675,45.785652 C24.7919628,35.0505642 33.0876809,26.2360611 43.7259445,25.4629955 L45.0009416,25.4629955 C56.1620984,25.5199108 65.2288349,34.5516339 65.4021187,45.785652 C65.4063867,53.8027265 60.75221,61.0811304 53.5012613,64.3971639 Z" id="Shape"></path>
                    <path d="M44.2173913,15.6521739 C45.2979815,15.6521739 46.173913,14.7052135 46.173913,13.5369989 L46.173913,2.11517505 C46.173913,0.946960368 45.2979815,0 44.2173913,0 C43.1368011,0 42.2608696,0.946960368 42.2608696,2.11517505 L42.2608696,13.5369989 C42.2608696,14.7052135 43.1368011,15.6521739 44.2173913,15.6521739 Z" id="Path"></path>
                    <path d="M13.5372013,42.2608696 L2.11517505,42.2608696 C0.946960368,42.2608696 0,43.1368011 0,44.2173913 C0,45.2979815 0.946960368,46.173913 2.11517505,46.173913 L13.5369989,46.173913 C14.7052135,46.173913 15.6521739,45.2979815 15.6521739,44.2173913 C15.6521739,43.1368011 14.705416,42.2608696 13.5372013,42.2608696 Z" id="Path"></path>
                    <path d="M87.8848249,42.2608696 L76.4630011,42.2608696 C75.2947865,42.2608696 74.3478261,43.1368011 74.3478261,44.2173913 C74.3478261,45.2979815 75.2947865,46.173913 76.4630011,46.173913 L87.8848249,46.173913 C89.0530396,46.173913 90,45.2979815 90,44.2173913 C90,43.1368011 89.0530396,42.2608696 87.8848249,42.2608696 Z" id="Path"></path>
                    <path d="M13.3625613,16.3369259 L21.454323,24.3911552 C22.1997571,25.2106557 23.462932,25.2654243 24.2753466,24.5134717 C24.3175865,24.4745252 24.3580161,24.4335502 24.3966355,24.3911552 C25.2092512,23.6394055 25.2635597,22.3655285 24.5179244,21.5462309 C24.4793051,21.5036331 24.4386743,21.4628609 24.3966355,21.4239143 L16.3050749,13.369685 C15.6087196,12.433142 14.2912362,12.2434804 13.3625613,12.9457355 C12.4338863,13.6479906 12.2458181,14.9766362 12.9421734,15.9131792 C13.0616521,16.0736309 13.2032564,16.216435 13.3625613,16.3369259 Z" id="Path"></path>
                    <path d="M65.6035552,24.4067304 C65.9915529,24.8066527 66.520348,25.0353539 67.0746879,25.0434783 C67.6290277,25.035557 68.1578229,24.8066527 68.5458205,24.4067304 L76.6374522,16.3420701 C77.5661123,15.6389054 77.7541775,14.3085391 77.0578333,13.3707832 C76.3614892,12.4330273 75.0440269,12.24312 74.1153669,12.9462846 C73.9560646,13.0669316 73.8144626,13.2099206 73.6949858,13.3707832 L65.6033541,21.4354435 C64.7907515,22.1881668 64.7364438,23.4636936 65.4820671,24.2840524 C65.520887,24.3269084 65.5615171,24.3677334 65.6035552,24.4067304 Z" id="Path"></path>
                </g>
            </g>
        </g>
    </g>
</svg>