<?xml version="1.0" encoding="UTF-8"?>
<svg width="90px" height="90px" viewBox="0 0 90 90" version="1.1" xmlns="http://www.w3.org/2000/svg" xmlns:xlink="http://www.w3.org/1999/xlink">
    <!-- Generator: Sketch 64 (93537) - https://sketch.com -->
    <title>menu_gift_icon</title>
    <desc>Created with Sketch.</desc>
    <g id="小資振興_確認風格" stroke="none" stroke-width="1" fill="none" fill-rule="evenodd">
        <g id="小資振興_選單_Mobile(3@)" transform="translate(-91.000000, -783.000000)" fill="#FFFFFF" fill-rule="nonzero">
            <g id="B" transform="translate(0.000000, 240.000000)">
                <g id="menu_gift_icon" transform="translate(91.000000, 543.000000)">
                    <path d="M42.9575633,3.44431017 C39.4319767,-0.0814379356 33.6935482,-0.0814355085 30.1679559,3.44431826 C27.2152178,6.39705641 26.6868361,10.9947032 28.8289462,14.5239089 L28.9827317,14.7683649 L29.1433766,15.0067159 L30.0200309,16.2642236 L8.0859375,16.2642236 C4.2388894,16.2642236 1.06357349,19.2683543 0.815692575,23.0663549 L0.803867808,23.3098373 L0.8,23.5501611 L0.8,29.8782861 C0.8,32.8656359 2.63201636,35.5390838 5.37187047,36.6390241 L5.62342333,36.7346489 L5.86898908,36.8180804 L6.425,36.9961395 L6.425,81.9095361 C6.425,85.7565842 9.42913071,88.9319001 13.2271313,89.1797811 L13.4706137,89.1916058 L13.7109375,89.1954736 L76.2890625,89.1954736 C80.1361106,89.1954736 83.3114265,86.1913429 83.5593074,82.3933423 L83.5711322,82.1498599 L83.575,81.9095361 L83.575,36.9961695 L84.1309737,36.8180924 C86.9661138,35.9100034 88.9669632,33.3601723 89.1808394,30.410293 L89.1953334,30.1410547 L89.2,29.8782861 L89.2,23.5501611 C89.2,19.703113 86.1958693,16.5277971 82.3978687,16.2799162 L82.1543863,16.2680914 L81.9140625,16.2642236 L59.9802229,16.2642236 L60.8569989,15.0066816 C63.3519428,11.4282342 62.9269912,6.53875478 59.8323876,3.44431017 C56.3068021,-0.0814367221 50.5683736,-0.0814367221 47.0427834,3.44431502 C46.6596234,3.82747496 46.3294833,4.25740685 46.0153637,4.79358751 L45.8594676,5.07080726 L45.7146432,5.34845164 L45.0002939,6.76651999 L44.2857562,5.34854656 C43.8766718,4.53673369 43.4615303,3.94827715 42.9575633,3.44431017 Z M37.3625,37.1642236 L37.3625,85.1704736 L13.7109375,85.1704736 C12.0450355,85.1704736 10.6576953,83.9129743 10.4709248,82.275457 L10.45516,82.0919913 L10.45,81.9095361 L10.45,37.1642236 L37.3625,37.1642236 Z M48.6125,37.1642236 L48.6125,85.1704736 L41.3875,85.1704736 L41.3875,37.1642236 L48.6125,37.1642236 Z M79.55,37.1642236 L79.55,81.9095361 C79.55,83.5754381 78.2925006,84.9627783 76.6549833,85.1495488 L76.4715177,85.1653137 L76.2890625,85.1704736 L52.6375,85.1704736 L52.6375,37.1642236 L79.55,37.1642236 Z M48.6125,20.2892236 L48.6125,33.1392236 L41.3875,33.1392236 L41.3875,20.2892236 L48.6125,20.2892236 Z M37.3625,20.2892236 L37.3625,33.1392236 L8.0859375,33.1392236 C6.4200355,33.1392236 5.03269535,31.8817243 4.8459248,30.244207 L4.83015997,30.0607413 L4.825,29.8782861 L4.825,23.5501611 C4.825,21.8842591 6.08249938,20.496919 7.72001666,20.3101484 L7.9034823,20.2943836 L8.0859375,20.2892236 L37.3625,20.2892236 Z M81.9140625,20.2892236 C83.5799645,20.2892236 84.9673047,21.546723 85.1540752,23.1842403 L85.16984,23.3677059 L85.175,23.5501611 L85.175,29.8782861 C85.175,31.5441881 83.9175006,32.9315283 82.2799833,33.1182988 L82.0965177,33.1340637 L81.9140625,33.1392236 L52.6375,33.1392236 L52.6375,20.2892236 L81.9140625,20.2892236 Z M36.5625,4.82240723 C37.8950825,4.82240723 39.1661861,5.34517174 40.111369,6.29035461 C40.3884358,6.56742139 40.6863246,7.08290781 40.9892381,7.82763012 C41.48514,9.04682009 41.9279172,10.7372937 42.3061673,12.900289 C42.3589566,13.202173 42.4097635,13.5099069 42.4586395,13.8235708 L42.5305117,14.2985243 L42.6302114,15.0076553 L42.7699642,16.0472256 L41.7304483,15.9070694 C41.0161512,15.8107618 40.3291787,15.7054802 39.6698614,15.5907593 C37.4906811,15.2118848 35.7879621,14.7676946 34.560444,14.2696798 C33.8108326,13.965556 33.2922357,13.6663458 33.013837,13.3879471 C31.0564685,11.4307877 31.0563843,8.24781045 33.013631,6.29035461 C33.9588139,5.34517174 35.2299175,4.82240723 36.5625,4.82240723 Z M53.4376758,4.82240723 C54.770262,4.82240723 56.0413646,5.34517443 56.986575,6.29038484 C58.9437424,8.24776141 58.9437362,11.4305163 56.9865448,13.3879169 C56.709475,13.6649867 56.1939815,13.9628749 55.4492411,14.2657885 C54.2300235,14.7616896 52.5394998,15.2044663 50.3764347,15.5827151 C50.0744191,15.6355274 49.7666167,15.6863486 49.4529643,15.7352272 L48.9780901,15.807094 L48.2692441,15.9067592 L47.2299669,16.0464727 L47.369801,15.0072117 C47.433606,14.5330071 47.5017122,14.0691594 47.5742575,13.615859 L47.6864221,12.9438425 L47.835302,12.1295966 C48.18004,10.3368871 48.5731876,8.90637054 49.0070438,7.83699186 C49.3111705,7.08737357 49.6103802,6.5687812 49.8888068,6.29035461 C50.8339896,5.34517174 52.1050933,4.82240723 53.4376758,4.82240723 Z" id="Shape"></path>
                </g>
            </g>
        </g>
    </g>
</svg>