<?xml version="1.0" encoding="UTF-8"?>
<svg width="90px" height="90px" viewBox="0 0 90 90" version="1.1" xmlns="http://www.w3.org/2000/svg" xmlns:xlink="http://www.w3.org/1999/xlink">
    <!-- Generator: Sketch 64 (93537) - https://sketch.com -->
    <title>menu_talent_icon</title>
    <desc>Created with Sketch.</desc>
    <g id="小資振興_確認風格" stroke="none" stroke-width="1" fill="none" fill-rule="evenodd">
        <g id="小資振興_選單_Mobile(3@)" transform="translate(-90.000000, -1570.000000)" fill="#FFFFFF" fill-rule="nonzero">
            <g id="B" transform="translate(0.000000, 240.000000)">
                <g id="menu_talent_icon" transform="translate(90.000000, 1330.000000)">
                    <path d="M84.8202539,8.1828125 C79.3982571,8.1828125 74.9158594,12.1781878 74.2717237,17.5291807 L74.2409047,17.8171228 L72.1722859,39.8914036 L71.3419186,39.7738837 C69.2300907,39.4750019 67.0931676,40.1247986 65.5119541,41.5864055 L65.3089081,41.7816425 L53.2693145,53.8212361 C50.3621729,56.7285396 48.7205363,60.5591932 48.6176494,64.6535567 L48.6125,65.0638477 L48.6125,87.3632813 C48.6125,88.3269081 49.3546931,89.1172826 50.2985857,89.193911 L50.4492187,89.2 L73.3007812,89.2 C74.2644081,89.2 75.0547826,88.4578069 75.131411,87.5139143 L75.1375,87.3632813 L75.1375,68.1850044 L85.5727521,57.7493927 C87.8262254,55.4959193 89.1032146,52.5311537 89.1947152,49.35954 L89.2,48.9926953 L89.2,12.5623828 C89.2,10.1481587 87.2345617,8.1828125 84.8202539,8.1828125 Z M85.5265625,11.845042 L85.5265625,48.9926953 C85.5265625,51.2122047 84.7000614,53.3083638 83.1949032,54.9243598 L82.9752798,55.1519114 L72.001955,66.125412 C71.6957195,66.4316475 71.5087623,66.8347813 71.4709969,67.2626101 L71.4638867,67.4240625 L71.4638867,85.5265625 L52.2859375,85.5265625 L52.2859375,65.0638477 C52.2859375,61.920779 53.4662247,58.954982 55.6146017,56.6784886 L55.8667755,56.4189044 L67.9065299,44.37915 C69.2475598,43.0388077 71.4263627,43.0388786 72.7667792,44.379295 C74.0594736,45.6719895 74.1056413,47.744576 72.9052782,49.0927754 L72.7667748,49.2395179 L61.45508,60.551037 C60.7377728,61.2683441 60.7377728,62.4312067 61.45508,63.1485138 C61.804766,63.4981998 62.2692106,63.686582 62.7537305,63.686582 C63.1844583,63.686582 63.5993618,63.5377162 63.9317415,63.2590545 L64.0523854,63.1485094 L75.3640802,51.8369904 C76.7082105,50.49286 77.4467383,48.7100072 77.4467383,46.8093164 C77.4467383,45.2665906 76.9593862,43.7971775 76.0502186,42.5763523 L75.8627803,42.3355537 L75.6564537,42.0818137 L77.8981239,18.1597948 C78.2237106,14.6880328 81.0202168,12.0327617 84.4728191,11.8647086 L84.71474,11.8570405 L85.5265625,11.845042 Z" id="Shape"></path>
                    <path d="M5.17957031,8.1828125 C2.83631218,8.1828125 0.915994514,10.0342108 0.805061691,12.3505631 L0.8,12.5623828 L0.8,48.9928711 C0.8,52.1797538 1.99343485,55.1790609 4.17140995,57.4864327 L4.42707214,57.7495685 L14.8625,68.1849963 L14.8625,87.3632813 C14.8625,88.3269081 15.6046931,89.1172826 16.5485857,89.193911 L16.6992187,89.2 L39.5507812,89.2 C40.5144081,89.2 41.3047826,88.4578069 41.381411,87.5139143 L41.3875,87.3632813 L41.3875,65.0638477 C41.3875,60.9526188 39.8396307,57.0831424 37.0171906,54.1151992 L36.7307081,53.8214344 L24.6909161,41.7818182 C23.3467858,40.4376879 21.563933,39.6991602 19.6632422,39.6991602 C19.4403086,39.6991602 19.2167607,39.7098224 18.9929083,39.7309468 L18.6569402,39.7704547 L17.8271184,39.8872415 L15.7590961,17.8171317 C15.244093,12.3221841 10.6985991,8.1828125 5.17957031,8.1828125 Z M4.4734375,11.8450413 L5.28526063,11.8570405 C8.76735661,11.9085077 11.6356975,14.4861859 12.0748554,17.9189895 L12.1015301,18.1598538 L14.3431413,42.0814215 L14.1374848,42.3349702 C11.916152,45.0735954 12.0513157,49.0559813 14.4470033,51.6407846 L14.635744,51.8368146 L25.9472675,63.148338 C26.2969535,63.498024 26.7613981,63.6864063 27.245918,63.6864063 C27.7306422,63.6864063 28.1950685,63.4980767 28.5445685,63.148338 C29.2220252,62.4708813 29.2596617,61.3960001 28.6574779,60.6743851 L28.5445685,60.5508612 L17.2329967,49.2392894 C15.8926649,47.8987284 15.8926649,45.7194994 17.233045,44.3791193 C17.8810835,43.7310808 18.7467434,43.3724219 19.6630664,43.3724219 C20.5030292,43.3724219 21.3004208,43.673795 21.926641,44.2231785 L22.0930878,44.3791193 L34.1328729,56.4189044 C36.3554652,58.6414967 37.6180121,61.5731713 37.7084853,64.7019849 L37.7137109,65.0638477 L37.7137109,85.5265625 L18.5359375,85.5265625 L18.5359375,67.4240625 C18.5359375,66.9911881 18.3830065,66.5739833 18.1070548,66.2446482 L17.9978647,66.1254075 L7.02451567,55.1518826 C5.45520594,53.5823882 4.55741835,51.5157741 4.47904368,49.3088814 L4.4734375,48.9926953 L4.4734375,11.8450413 Z" id="Shape"></path>
                    <path d="M45,0.8 C44.3547732,0.8 43.7609719,1.13826139 43.4300773,1.68327811 L43.3529533,1.82376359 L38.3482984,11.9641598 L27.1577544,13.5901425 C26.4659778,13.6906644 25.8911501,14.175315 25.6750378,14.8401816 C25.4756677,15.453889 25.6138933,16.1230691 26.0300656,16.6061953 L26.1398647,16.722961 L34.2374518,24.6164334 L32.3259305,35.7618622 C32.2077609,36.4509199 32.4910276,37.1474208 33.0564072,37.5582054 C33.5787188,37.9375031 34.2579386,38.0128859 34.8459138,37.7664836 L34.9908631,37.6981689 L44.9999935,32.4359036 L55.0091335,37.6979913 C55.2743631,37.8374332 55.5670986,37.9090121 55.8636328,37.9090121 C56.2501506,37.9090121 56.6277606,37.7875609 56.9434345,37.5581446 C57.4655805,37.1787721 57.7471414,36.5562139 57.6944419,35.9207187 L57.6742491,35.7617087 L55.7625404,24.6162516 L63.8602021,16.7230717 C64.3608897,16.2351186 64.5410873,15.5052637 64.3249622,14.8403574 C64.1255807,14.226615 63.6204997,13.766465 62.9998823,13.6202424 L62.8424309,13.5903197 L51.6517021,11.9643366 L46.6470519,1.82394991 C46.3375854,1.19693418 45.6991179,0.8 45,0.8 Z M41.2150589,14.4558565 L45.0000307,6.78701035 L48.7847624,14.4560262 C49.0280264,14.9489003 49.4775199,15.30425 50.0066813,15.430096 L50.1676933,15.4608727 L58.6309635,16.6906399 L52.50698,22.6601953 C52.1134095,23.0437485 51.9144012,23.5810002 51.9582943,24.1232062 L51.9787976,24.2858679 L53.4246001,32.7149444 L45.854919,28.7352281 C45.5900013,28.5959827 45.2970407,28.5242188 45.0001758,28.5242188 C44.7626461,28.5242188 44.5275742,28.5701602 44.3075258,28.6598015 L44.1455028,28.7351912 L36.5757515,32.7149444 L38.0215366,24.2859692 C38.114388,23.7442247 37.9595712,23.1925034 37.6054723,22.7796717 L37.4933125,22.6601377 L31.3692239,16.6906912 L39.8321257,15.4606977 C40.3759599,15.3816715 40.8527779,15.0639444 41.1360201,14.5994995 L41.2150589,14.4558565 Z" id="Shape"></path>
                    <path d="M64.3359375,26.2882813 C65.3503293,26.2882813 66.1726562,27.1106082 66.1726562,28.125 C66.1726562,29.1393918 65.3503293,29.9617188 64.3359375,29.9617188 C63.3215457,29.9617188 62.4992187,29.1393918 62.4992187,28.125 C62.4992187,27.1106082 63.3215457,26.2882813 64.3359375,26.2882813 Z" id="Path"></path>
                    <path d="M70.4882812,3.43671875 C71.502673,3.43671875 72.325,4.25904574 72.325,5.2734375 C72.325,6.28782926 71.502673,7.11015625 70.4882812,7.11015625 C69.4738895,7.11015625 68.6515625,6.28782926 68.6515625,5.2734375 C68.6515625,4.25904574 69.4738895,3.43671875 70.4882812,3.43671875 Z" id="Path"></path>
                    <path d="M25.6640625,26.2882813 C26.6784543,26.2882813 27.5007812,27.1106082 27.5007812,28.125 C27.5007812,29.1393918 26.6784543,29.9617188 25.6640625,29.9617188 C24.6496707,29.9617188 23.8273437,29.1393918 23.8273437,28.125 C23.8273437,27.1106082 24.6496707,26.2882813 25.6640625,26.2882813 Z" id="Path"></path>
                    <path d="M45,42.1085937 C46.0143918,42.1085937 46.8367187,42.9309207 46.8367187,43.9453125 C46.8367187,44.9597043 46.0143918,45.7820312 45,45.7820312 C43.9856082,45.7820312 43.1632812,44.9597043 43.1632812,43.9453125 C43.1632812,42.9309207 43.9856082,42.1085937 45,42.1085937 Z" id="Path"></path>
                    <path d="M19.5117187,3.43671875 C20.5261105,3.43671875 21.3484375,4.25904574 21.3484375,5.2734375 C21.3484375,6.28782926 20.5261105,7.11015625 19.5117187,7.11015625 C18.497327,7.11015625 17.675,6.28782926 17.675,5.2734375 C17.675,4.25904574 18.497327,3.43671875 19.5117187,3.43671875 Z" id="Path"></path>
                </g>
            </g>
        </g>
    </g>
</svg>