<?xml version="1.0" encoding="UTF-8"?>
<svg width="90px" height="95px" viewBox="0 0 90 95" version="1.1" xmlns="http://www.w3.org/2000/svg" xmlns:xlink="http://www.w3.org/1999/xlink">
    <!-- Generator: Sketch 64 (93537) - https://sketch.com -->
    <title>menu_map_icon</title>
    <desc>Created with Sketch.</desc>
    <g id="小資振興_確認風格" stroke="none" stroke-width="1" fill="none" fill-rule="evenodd">
        <g id="小資振興_選單_Mobile(3@)" transform="translate(-91.000000, -1174.000000)" fill="#FFFFFF" fill-rule="nonzero">
            <g id="B" transform="translate(0.000000, 240.000000)">
                <g id="menu_map_icon" transform="translate(91.000000, 934.000000)">
                    <path d="M44.8714769,24.3100211 C39.1227447,24.3100211 34.4445319,28.9880724 34.4445319,34.736593 C34.4445319,40.4851135 39.1227447,45.1631649 44.8714769,45.1631649 C50.6198109,45.1631649 55.2976757,40.4851386 55.2976757,34.736593 C55.2976757,28.9880474 50.6198109,24.3100211 44.8714769,24.3100211 Z M44.8714769,28.3727389 C48.3810034,28.3727389 51.2349579,31.2268904 51.2349579,34.736593 C51.2349579,38.2462956 48.3810034,41.1004471 44.8714769,41.1004471 C41.3615878,41.1004471 38.5072497,38.246306 38.5072497,34.736593 C38.5072497,31.22688 41.3615878,28.3727389 44.8714769,28.3727389 Z" id="Shape"></path>
                    <path d="M44.8714769,0.767045455 C26.1090306,0.767045455 12.0572973,14.8302022 12.0572973,33.580852 C12.0572973,40.0924041 13.7309231,45.5944403 17.0103634,50.7761078 C19.5279956,54.7540832 22.4681519,58.0058623 28.0634454,63.3689154 L29.9079007,65.1303451 L9.81920455,65.1303409 L0.0889772727,94.7515909 L89.6522727,94.7515909 L79.9220455,65.1303409 L59.8347096,65.1303451 L62.1270062,62.9386514 C67.4328963,57.8295775 70.2824228,54.6465792 72.7319566,50.7761144 C76.0113224,45.594447 77.6849104,40.0924082 77.6849104,33.580852 C77.6849104,14.8161462 63.6237863,0.767045455 44.8714769,0.767045455 Z M56.8317666,67.9937975 L56.8309091,69.1926136 L76.9811355,69.1930629 L79.9362616,78.1895654 L61.3084091,78.1895455 L61.3084091,82.2518182 L81.2705378,82.2522831 L84.0416917,90.6891047 L5.70051592,90.6891047 L8.47166979,82.2522831 L28.4328409,82.2518182 L28.4328409,78.1895455 L9.80613256,78.1895654 L12.7612587,69.1930629 L32.9103409,69.1926136 L32.910441,67.9934888 L34.2175888,69.2897126 C37.3558561,72.4017528 39.7280223,75.0458433 41.6884582,77.5244081 L42.0114459,77.9360215 C42.4447752,78.4926974 43.1076199,79.3929864 43.7400656,80.2594747 L44.8711364,81.8130682 L46.5429692,79.5218187 C46.7853218,79.1918358 47.0210677,78.8729135 47.2352691,78.5867622 L47.7391408,77.9240355 C49.6491775,75.4691343 51.9572685,72.8607578 55.0325972,69.7804344 L56.8317666,67.9937975 Z M44.8714769,4.82976321 C61.5099839,4.82976321 73.6221926,16.9421424 73.6221926,33.580852 C73.6221926,42.6294849 70.2615203,48.9875219 62.5639006,56.826376 L61.9499369,57.4440225 C60.2576695,59.1123081 53.2564837,65.7614535 51.125827,67.9427055 C49.2640355,69.8487077 47.5971021,71.6805877 46.0443145,73.5502791 L45.467212,74.2534045 L44.8714905,74.9879043 L43.8190884,73.6945289 C41.0185567,70.2931128 38.4558907,67.6708117 33.3521098,62.797967 L30.6132174,60.1818575 C25.4205273,55.1869678 23.1708823,52.7203962 20.9398059,49.3998101 C17.7204971,44.6084044 16.120015,39.6097748 16.120015,33.580852 C16.120015,16.9421584 28.2325808,4.82976321 44.8714769,4.82976321 Z" id="Shape"></path>
                </g>
            </g>
        </g>
    </g>
</svg>