<?xml version="1.0" encoding="UTF-8"?>
<svg width="50px" height="50px" viewBox="0 0 50 50" version="1.1" xmlns="http://www.w3.org/2000/svg" xmlns:xlink="http://www.w3.org/1999/xlink">
    <!-- Generator: Sketch 64 (93537) - https://sketch.com -->
    <title>night-mark</title>
    <desc>Created with Sketch.</desc>
    <g id="小資振興_確認風格" stroke="none" stroke-width="1" fill="none" fill-rule="evenodd">
        <g id="20200706_改類型-icon" transform="translate(-1289.000000, -33.000000)" fill="#FFFFFF" fill-rule="nonzero">
            <g id="miscellaneous" transform="translate(1261.000000, 33.000000)">
                <path d="M58.9037162,14.5098818 C59.183415,14.5098818 59.4101985,14.7366652 59.4101985,15.016364 L59.4101985,16.6873522 L61.0811867,16.6873522 C61.3608855,16.6873522 61.5876689,16.9141357 61.5876689,17.1938345 C61.5876689,17.4735333 61.3608855,17.7003167 61.0811867,17.7003167 L59.4101985,17.7003167 L59.4101985,19.3713049 C59.4101985,19.6510037 59.183415,19.8777872 58.9037162,19.8777872 C58.6240174,19.8777872 58.397234,19.6510037 58.397234,19.3713049 L58.397234,17.7003167 L56.7262458,17.7003167 C56.446547,17.7003167 56.2197635,17.4735333 56.2197635,17.1938345 C56.2197635,16.9141357 56.446547,16.6873522 56.7262458,16.6873522 L58.397234,16.6873522 L58.397234,15.016364 C58.397234,14.7366652 58.6240174,14.5098818 58.9037162,14.5098818 Z" id="Path"></path>
                <path d="M52.0233142,11.5381539 C51.8973417,11.3807389 51.6905509,11.3129723 51.4963104,11.3653185 C47.0983699,12.548948 44.0259291,16.5549496 44.0259291,21.1046585 C44.0259291,26.6709071 48.5556554,31.2006334 54.121904,31.2006334 C57.8807268,31.2006334 61.3035606,29.1306539 63.057768,25.7960613 C63.1514943,25.6178293 63.1307845,25.4009903 63.0051686,25.2439368 C62.8791903,25.0865145 62.6723826,25.0187329 62.4779346,25.0711867 C61.6854029,25.284418 60.8907133,25.3929661 60.1153479,25.3929661 C55.1062323,25.3929661 51.0323374,21.3190713 51.0323374,16.3099557 C51.0323374,14.8275829 51.3841432,13.4053018 52.0759689,12.0902604 C52.1697076,11.9120691 52.1490046,11.6952922 52.0233142,11.5381539 Z M50.5549502,12.5345543 L50.1936712,14.451859 C50.0778433,15.0665573 50.0192858,15.6892063 50.0192858,16.3098686 C50.0192858,21.6492206 54.1950646,26.0560008 59.4783629,26.3859532 L59.7574373,26.3995378 L61.7019256,26.4674836 L60.2720337,27.7869761 C58.6033627,29.326812 56.4163587,30.1876689 54.121904,30.1876689 C49.1127884,30.1876689 45.0388936,26.1137741 45.0388936,21.1046585 C45.0388936,18.2198227 46.4169981,15.5265288 48.7032386,13.8248053 L48.9516465,13.6463085 L50.5549502,12.5345543 Z" id="Shape"></path>
                <path d="M54.1132813,5.8 C45.670215,5.8 38.8,12.6701894 38.8,21.1132813 C38.8,26.3647382 41.4448746,31.1878997 45.8784192,34.0206882 C47.0988428,34.8003393 47.8619927,36.0591605 47.9389436,37.4242943 L47.9453758,37.652737 L47.9453758,41.2331081 C47.9453758,42.0493491 48.3872699,42.7884141 49.0793505,43.1849562 L49.231413,43.2645902 L49.6873522,43.4817923 L49.6873522,46.546136 C49.6873522,47.7335994 50.614357,48.7100819 51.7821772,48.7893939 L51.9358108,48.7945946 L56.2907517,48.7945946 C57.4782151,48.7945946 58.4546976,47.8675897 58.5340096,46.6997696 L58.5392103,46.546136 L58.5392103,43.4817923 L58.9951495,43.2645902 C59.721993,42.9183336 60.2123432,42.210601 60.2744928,41.4067389 L60.2811867,41.2331081 L60.2811867,37.652737 C60.2811867,36.2005748 61.0598527,34.8438126 62.3480103,34.0207175 C66.7816992,31.1878897 69.4265625,26.3648124 69.4265625,21.1132813 C69.4265625,12.6701587 62.5564038,5.8 54.1132813,5.8 Z M57.5262458,43.4815667 L57.5262458,46.546136 C57.5262458,47.1854728 57.0397405,47.7119366 56.4170103,47.7752471 L56.2907517,47.7816301 L51.9358108,47.7816301 C51.296474,47.7816301 50.7700102,47.2951248 50.7066997,46.6723946 L50.7003167,46.546136 L50.7003167,43.4815667 L57.5262458,43.4815667 Z M59.2682221,38.1685389 L59.2682221,41.2331081 C59.2682221,41.8724449 58.7817169,42.3989087 58.1589866,42.4622192 L58.032728,42.4686022 L50.1938345,42.4686022 C49.5544977,42.4686022 49.0280339,41.982097 48.9647233,41.3593667 L48.9583404,41.2331081 L48.9583404,38.1685389 L59.2682221,38.1685389 Z M54.1132813,6.81296453 C61.9991837,6.81296453 68.413598,13.2273788 68.413598,21.1132813 C68.413598,25.8981827 66.0572902,30.3080608 62.0953931,32.9750514 L61.8026436,33.1670668 C60.6363546,33.9122196 59.8095204,35.0188411 59.4575211,36.2777194 L59.3934924,36.5314632 L59.2528329,37.1555743 L48.9737374,37.1555743 L48.8330722,36.5314725 C48.5257782,35.1680745 47.667943,33.9619568 46.4238157,33.1669694 C42.2856459,30.5229158 39.8129645,26.0148202 39.8129645,21.1132813 C39.8129645,13.2273788 46.2273788,6.81296453 54.1132813,6.81296453 Z" id="Shape"></path>
            </g>
        </g>
    </g>
</svg>