<?xml version="1.0" encoding="UTF-8"?>
<svg width="50px" height="50px" viewBox="0 0 50 50" version="1.1" xmlns="http://www.w3.org/2000/svg" xmlns:xlink="http://www.w3.org/1999/xlink">
    <!-- Generator: Sketch 64 (93537) - https://sketch.com -->
    <title>other</title>
    <desc>Created with Sketch.</desc>
    <g id="小資振興_確認風格" stroke="none" stroke-width="1" fill="none" fill-rule="evenodd">
        <g id="20200706_改類型-icon" transform="translate(-1051.000000, -33.000000)" fill="#FFFFFF" fill-rule="nonzero">
            <g id="more-(1)" transform="translate(1025.000000, 33.000000)">
                <path d="M66.193,32.993 L65.243,32.993 L65.24375,40.4 L57.837,40.4 L57.837,41.35 L65.24375,41.35 L65.243,48.756 L66.193,48.756 L66.19375,41.35 L73.6,41.35 L73.6,40.4 L66.19375,40.4 L66.193,32.993 Z M54,10.4 L32.625,10.4 C30.3669558,10.4 28.5153297,12.1832005 28.4051835,14.4145398 L28.4,14.625 L28.4,21.006 L28.875,21.00625 C31.5681736,21.00625 33.7835249,23.0816235 34.0065355,25.717852 L34.0204754,25.9388035 L34.025,26.15625 C34.025,28.924234 31.8327267,31.1874813 29.0924465,31.3017254 L28.875,31.30625 L28.4,31.306 L28.4,37.125 C28.4,39.3124803 30.0734919,41.1185467 32.2067054,41.3294291 L32.4145398,41.3448165 L32.625,41.35 L51.287,41.35 L51.287,40.4 L32.625,40.4 C30.9426094,40.4 29.5540936,39.1275111 29.370576,37.4936568 L29.3551903,37.3106766 L29.35,37.125 L29.35,32.3346184 L30.3998688,32.063435 C33.0691676,31.3739493 34.975,28.949207 34.975,26.15625 C34.975,23.4479281 33.1829226,21.0858429 30.6403973,20.3164878 L30.3998688,20.249065 L29.35,19.9778816 L29.35,14.625 C29.35,12.8802986 30.7184928,11.4516437 32.4393234,11.3551903 L32.625,11.35 L54,11.35 C55.1729085,11.35 56.2029812,11.9684842 56.7814809,12.8967152 L56.8845824,13.074313 L56.96,13.225 L58.539,13.225 L58.6154176,13.074313 C59.1102223,12.1568568 60.0299864,11.5015324 61.1100063,11.3730435 L61.3143234,11.3551903 L61.5,11.35 L69.375,11.35 C71.1197014,11.35 72.5483563,12.7184928 72.6448097,14.4393234 L72.65,14.625 L72.65,20.0018392 L71.6329442,20.2910663 C70.6113611,20.5815808 69.6849649,21.1359292 68.9329828,21.9110673 C67.8875929,22.988731 67.2859695,24.3848206 67.2188075,25.8756616 L67.2125,26.15625 L67.215,26.256 L68.165,26.256 L68.1625,26.15625 C68.1625,23.5159128 70.125908,21.3453034 72.6998806,21.0436131 L72.9219705,21.0223635 L73.1407483,21.0106606 L73.6,20.995 L73.6,14.625 C73.6,12.4375197 71.9265081,10.6314533 69.7932946,10.4205709 L69.5854602,10.4051835 L69.375,10.4 L61.5,10.4 C60.5284432,10.4 59.6090282,10.7304446 58.8663473,11.3253338 L58.6844311,11.4795272 L57.75,12.3170797 L56.8155689,11.4795272 C56.1032089,10.8410222 55.2037321,10.4614618 54.2417308,10.4068461 L54,10.4 Z M58.225,33.125 L57.275,33.125 L57.275,37.875 L58.225,37.875 L58.225,33.125 Z M58.225,24.5465 L57.275,24.5465 L57.275,29.2965 L58.225,29.2965 L58.225,24.5465 Z M58.225,15.968 L57.275,15.968 L57.275,20.718 L58.225,20.718 L58.225,15.968 Z" id="Shape"></path>
            </g>
        </g>
    </g>
</svg>