<svg xmlns="http://www.w3.org/2000/svg" width="50" height="50" viewBox="0 0 50 50" cursor="pointer">
    <g fill="none" fill-rule="evenodd" stroke="#000" stroke-linecap="square">
        <path d="M7.758 43.471L7.758 27.379M42.771 30.508L42.771 43.471M8.988 27.087h0c-2.615 0-4.522-2.476-3.853-5.005L8.328 10h6.774l-2.176 13.725c-.307 1.936-1.976 3.362-3.938 3.362z"/>
        <path d="M17.193 27.087h-.132c-2.45 0-4.321-2.19-3.937-4.611L15.103 10h6.774l-.703 13.311c-.113 2.117-1.862 3.776-3.981 3.776z"/>
        <path d="M25.352 27.087h-.175c-2.285 0-4.102-1.915-3.981-4.197L21.877 10h6.774l.682 12.89c.12 2.282-1.696 4.197-3.981 4.197z"/>
        <path d="M33.467 27.087h-.131c-2.12 0-3.87-1.66-3.981-3.776L28.65 10h6.775l1.978 12.476c.384 2.42-1.486 4.611-3.937 4.611zM41.54 27.087h0c-1.961 0-3.63-1.426-3.937-3.362L35.426 10h6.775l3.193 12.082c.668 2.529-1.24 5.005-3.854 5.005zM18.744 44.173L18.744 30.222M15.485 36.373L15.485 37.476M29.786 31.378L26.053 35.111M34.487 32.114L26.789 39.812M5.564 48.519L44.964 48.519 44.964 44.174 5.564 44.174z"/>
    </g>
</svg>
