<?xml version="1.0" encoding="UTF-8"?>
<svg width="20px" height="20px" viewBox="0 0 20 20" version="1.1" xmlns="http://www.w3.org/2000/svg" xmlns:xlink="http://www.w3.org/1999/xlink">
    <!-- Generator: Sketch 64 (93537) - https://sketch.com -->
    <title>other-sort_gray</title>
    <desc>Created with Sketch.</desc>
    <g id="小資振興_確認風格" stroke="none" stroke-width="1" fill="none" fill-rule="evenodd">
        <g id="小資振興_商家列表" transform="translate(-253.000000, -1123.000000)" fill="#AAAAAA" fill-rule="nonzero" stroke="#AAAAAA" stroke-width="0.3">
            <g id="shopping-bag_gray-copy-2" transform="translate(253.000000, 1123.000000)">
                <path d="M15.3780531,12.2464803 L15.0417699,12.2464803 L15.0420354,14.9500469 L12.420177,14.9500469 L12.420177,15.2967984 L15.0420354,15.2967984 L15.0417699,18 L15.3780531,18 L15.3783186,15.2967984 L18,15.2967984 L18,14.9500469 L15.3783186,14.9500469 L15.3780531,12.2464803 Z M11.0619469,4 L3.49557522,4 C2.69626755,4 2.04082469,4.65087098 2.00183486,5.4653133 L2,5.54213161 L2,7.87120659 L2.16814159,7.87129784 C3.12147738,7.87129784 3.90567252,8.6288124 3.98461434,9.59103995 L3.98954881,9.6716876 L3.99115044,9.7510559 C3.99115044,10.7613744 3.21512448,11.5874632 2.24511379,11.6291625 L2.16814159,11.630814 L2,11.6307227 L2,13.7546668 C2,14.5531005 2.59238651,15.2123176 3.34750633,15.28929 L3.42107603,15.2949064 L3.49557522,15.2967984 L10.1015929,15.2967984 L10.1015929,14.9500469 L3.49557522,14.9500469 C2.90003872,14.9500469 2.4085287,14.4855865 2.34356673,13.8892271 L2.33812046,13.8224391 L2.33628319,13.7546668 L2.33628319,12.00617 L2.70791814,11.9071877 C3.65280271,11.6555243 4.32743363,10.7704896 4.32743363,9.7510559 C4.32743363,8.76251416 3.69306993,7.90034936 2.79306099,7.61953355 L2.70791814,7.59492412 L2.33628319,7.49594176 L2.33628319,5.54213161 C2.33628319,4.90531287 2.82070543,4.38385158 3.42984898,4.34864595 L3.49557522,4.34675149 L11.0619469,4.34675149 C11.4771358,4.34675149 11.8417633,4.57249917 12.0465419,4.91130494 L12.083038,4.97612841 L12.1097345,5.03112942 L12.6686726,5.03112942 L12.6957231,4.97612841 C12.8708752,4.64125547 13.1964554,4.40206104 13.5787633,4.35516239 L13.6510879,4.34864595 L13.7168142,4.34675149 L16.5044248,4.34675149 C17.1220182,4.34675149 17.6277368,4.84625351 17.6618795,5.47435935 L17.6637168,5.54213161 L17.6637168,7.50468631 L17.3036971,7.61025466 C16.9420747,7.71629294 16.6141469,7.91863093 16.3479585,8.20155757 C15.977909,8.59490649 15.7649449,9.10448139 15.7411708,9.64864068 L15.7389381,9.7510559 L15.739823,9.7874648 L16.0761062,9.7874648 L16.0752212,9.7510559 C16.0752212,8.7873287 16.7702329,7.99505286 17.6813737,7.88493543 L17.7599896,7.8771793 L17.837433,7.87290772 L18,7.86719157 L18,5.54213161 C18,4.74369789 17.4076135,4.0844808 16.6524937,4.00750842 L16.578924,4.00189198 L16.5044248,4 L13.7168142,4 C13.3729002,4 13.0474436,4.12061279 12.7845477,4.33774829 L12.7201526,4.39402911 L12.3893805,4.6997371 L12.0586085,4.39402911 C11.8064456,4.16097378 11.4880468,4.02243366 11.1475153,4.00249883 L11.0619469,4 Z M12.5575221,12.2946605 L12.2212389,12.2946605 L12.2212389,14.028418 L12.5575221,14.028418 L12.5575221,12.2946605 Z M12.5575221,9.16349463 L12.2212389,9.16349463 L12.2212389,10.8972521 L12.5575221,10.8972521 L12.5575221,9.16349463 Z M12.5575221,6.03232871 L12.2212389,6.03232871 L12.2212389,7.76608614 L12.5575221,7.76608614 L12.5575221,6.03232871 Z" id="Shape"></path>
            </g>
        </g>
    </g>
</svg>