<?xml version="1.0" encoding="UTF-8"?>
<svg width="18px" height="17px" viewBox="0 0 18 17" version="1.1" xmlns="http://www.w3.org/2000/svg" xmlns:xlink="http://www.w3.org/1999/xlink">
    <!-- Generator: Sketch 64 (93537) - https://sketch.com -->
    <title>category_makeups</title>
    <desc>Created with Sketch.</desc>
    <g id="小資振興_確認風格" stroke="none" stroke-width="1" fill="none" fill-rule="evenodd" stroke-linecap="square">
        <g id="小資振興_商家列表" transform="translate(-601.000000, -1020.000000)" stroke="#AAAAAA" stroke-width="0.7">
            <g id="Bitmap" transform="translate(375.000000, 699.000000)">
                <g id="Group-5" transform="translate(30.000000, 319.000000)">
                    <g id="category_makeups" transform="translate(195.000000, -0.000000)">
                        <path d="M3.59532473,9.83496 L3.59532473,9.83496 C2.54916473,9.83496 1.78644473,8.84424 2.05380473,7.83288 L3.33108473,3 L6.04092473,3 L5.17020473,8.49 C5.04756473,9.26448 4.37988473,9.83496 3.59532473,9.83496 Z" id="Stroke-153"></path>
                        <path d="M6.87703673,9.83496 L6.82423673,9.83496 C5.84407673,9.83496 5.09599673,8.95872 5.24959673,7.99032 L6.04111673,3 L8.75095673,3 L8.46943673,8.3244 C8.42455673,9.17112 7.72495673,9.83496 6.87703673,9.83496 Z" id="Stroke-154"></path>
                        <path d="M10.1407007,9.83496 L10.0706207,9.83496 C9.15670073,9.83496 8.42998073,9.06864 8.47822073,8.15616 L8.75086073,3 L11.4604607,3 L11.7331007,8.15616 C11.7813407,9.06864 11.0546207,9.83496 10.1407007,9.83496 Z" id="Stroke-155"></path>
                        <path d="M13.3867967,9.83496 L13.3342367,9.83496 C12.4863167,9.83496 11.7867167,9.17112 11.7418367,8.3244 L11.4605567,3 L14.1703967,3 L14.9616767,7.99032 C15.1152767,8.95872 14.3671967,9.83496 13.3867967,9.83496 Z" id="Stroke-156"></path>
                        <path d="M16.6160207,9.83496 L16.6160207,9.83496 C15.8314607,9.83496 15.1637807,9.26448 15.0411407,8.49 L14.1704207,3 L16.8802607,3 L18.1575407,7.83288 C18.4249007,8.84424 17.6619407,9.83496 16.6160207,9.83496 Z" id="Stroke-157"></path>
                        <line x1="11.9144447" y1="11.551296" x2="10.4211647" y2="13.044576" id="Stroke-160"></line>
                        <line x1="13.7946047" y1="11.84568" x2="10.7156447" y2="14.92464" id="Stroke-161"></line>
                        <polygon id="Stroke-162" points="2.22564473 18.407736 17.9857247 18.407736 17.9857247 16.669416 2.22564473 16.669416"></polygon>
                        <line x1="3.10313273" y1="16.388568" x2="3.10313273" y2="9.951768" id="Stroke-151"></line>
                        <line x1="17.1082127" y1="11.203248" x2="17.1082127" y2="16.388448" id="Stroke-152"></line>
                        <line x1="7.49765273" y1="16.669344" x2="7.49765273" y2="11.088624" id="Stroke-158"></line>
                        <line x1="6.19382873" y1="13.549344" x2="6.19382873" y2="13.990464" id="Stroke-159"></line>
                    </g>
                </g>
            </g>
        </g>
    </g>
</svg>