<svg xmlns="http://www.w3.org/2000/svg" width="50" height="50" viewBox="0 0 50 50">
    <g fill="none" fill-rule="evenodd" stroke="#FFF" stroke-linecap="square">
        <path d="M20.884 34.767C12.112 34.767 5 27.657 5 18.883 5 10.111 12.112 3 20.884 3s15.884 7.111 15.884 15.883M20.884 3L20.884 5.467M20.884 32.3L20.884 34.767M9.652 7.652L11.397 9.396M5 18.883L7.467 18.883M34.301 18.883L36.768 18.883M9.652 30.115L11.397 28.371M30.371 9.396L32.115 7.652M27.743 12.028L22.376 17.394M19.468 17.323L16.724 14.629"/>
        <path d="M22.992 18.883c0 1.165-.944 2.11-2.108 2.11-1.164 0-2.108-.945-2.108-2.11 0-1.164.944-2.108 2.108-2.108 1.164 0 2.108.944 2.108 2.108zM27.753 34.025L24.315 37.459M22.297 39.082L23.612 40.389 21.857 42.157 20.534 40.841 19.113 42.266 21.426 44.563 19.257 46.745 16.935 44.44 15.116 46.263 13.015 44.157 25.57 31.559M28.397 21.968c-2.279 1.055-3.859 3.362-3.859 6.04 0 1.207.321 2.338.888 3.313M31.973 34.492L31.973 48.832 34.496 47.844 36.016 45.693 35.168 44.804 36.016 43.49 35.168 42.31 36.016 41.047 35.168 39.884 36.847 38.351 36.847 36.336M41.273 28.007c0 3.674-2.978 6.654-6.653 6.654-3.674 0-6.652-2.98-6.652-6.654s2.978-6.653 6.652-6.653c3.675 0 6.653 2.98 6.653 6.653z"/>
        <path d="M34.828 27.74c.673.673 1.764.673 2.438 0 .673-.673.673-1.765 0-2.439-.674-.673-1.765-.673-2.438 0-.674.674-.674 1.766 0 2.439z"/>
        <path d="M42.578 24.432c.126-.084.25-.172.363-.261 2.522-1.995 2.31-4.355 1.05-5.617-1.262-1.261-3.45-1.118-5.618 1.05-1.982 1.982-2.9 4.34-2.508 6.443"/>
    </g>
</svg>
