<?xml version="1.0" encoding="UTF-8"?>
<svg width="20px" height="20px" viewBox="0 0 20 20" version="1.1" xmlns="http://www.w3.org/2000/svg" xmlns:xlink="http://www.w3.org/1999/xlink">
    <!-- Generator: Sketch 64 (93537) - https://sketch.com -->
    <title>rent-a-car_s_gray</title>
    <desc>Created with Sketch.</desc>
    <g id="小資振興_確認風格" stroke="none" stroke-width="1" fill="none" fill-rule="evenodd" stroke-linecap="square">
        <g id="小資振興_商家列表" transform="translate(-243.000000, -1040.000000)" stroke="#AAAAAA" stroke-width="0.7">
            <g id="rent-a-car_s_gray" transform="translate(243.000000, 1040.000000)">
                <g id="menu_category_rent-copy" transform="translate(2.000000, 2.000000)">
                    <path d="M6.5181864,11.5162072 C3.3601944,11.5162072 0.8000184,8.9562152 0.8000184,5.7980392 C0.8000184,2.6400472 3.3601944,0.0800552 6.5181864,0.0800552 C9.6761784,0.0800552 12.2363544,2.6400472 12.2363544,5.7980392" id="Stroke-163"></path>
                    <line x1="6.5181864" y1="0.08" x2="6.5181864" y2="0.967984" id="Stroke-164"></line>
                    <line x1="6.5181864" y1="10.6280208" x2="6.5181864" y2="11.5161888" id="Stroke-165"></line>
                    <line x1="2.47486" y1="1.7546944" x2="3.102852" y2="2.3826864" id="Stroke-166"></line>
                    <line x1="0.8" y1="5.7980208" x2="1.688168" y2="5.7980208" id="Stroke-167"></line>
                    <line x1="11.3481864" y1="5.7980208" x2="12.2363544" y2="5.7980208" id="Stroke-168"></line>
                    <line x1="2.47486" y1="9.8415312" x2="3.102852" y2="9.2135392" id="Stroke-169"></line>
                    <line x1="9.9335024" y1="2.3826864" x2="10.5614944" y2="1.7546944" id="Stroke-170"></line>
                    <line x1="8.987448" y1="3.3300104" x2="7.055448" y2="5.2620104" id="Stroke-171"></line>
                    <line x1="6.0085984" y1="5.2363056" x2="5.0205184" y2="4.2664416" id="Stroke-172"></line>
                    <path d="M7.2771864,5.7980208 C7.2771864,6.2171728 6.9373384,6.5572048 6.5181864,6.5572048 C6.0990344,6.5572048 5.7591864,6.2171728 5.7591864,5.7980208 C5.7591864,5.3788688 6.0990344,5.0390208 6.5181864,5.0390208 C6.9373384,5.0390208 7.2771864,5.3788688 7.2771864,5.7980208 Z" id="Stroke-173"></path>
                    <line x1="8.99122" y1="11.2490208" x2="7.753452" y2="12.4851328" id="Stroke-174"></line>
                    <polyline id="Stroke-175" points="7.0268912 13.0696088 7.5003232 13.5400968 6.8686512 14.1765528 6.3920912 13.7029368 5.8807552 14.2159288 6.7133552 15.0428248 5.9324592 15.8281368 5.0967312 14.9984808 4.4418752 15.6546248 3.6854512 14.8965448 8.2052272 10.3613128"></polyline>
                    <path d="M9.2230232,6.9084792 C8.4025672,7.2882552 7.8338232,8.1188312 7.8338232,9.0826232 C7.8338232,9.5172312 7.9493752,9.9246072 8.1532472,10.2756792" id="Stroke-176"></path>
                    <polyline id="Stroke-177" points="10.5101216 11.4171968 10.5101216 16.5795008 11.4187136 16.2238288 11.9659296 15.4493728 11.6604896 15.1295808 11.9659296 14.6563328 11.6604896 14.2314768 11.9659296 13.7768128 11.6604896 13.3582128 12.2647456 12.8063968 12.2647456 12.0810688"></polyline>
                    <path d="M13.8584248,9.0826968 C13.8584248,10.4052888 12.7860728,11.4778248 11.4632968,11.4778248 C10.1405208,11.4778248 9.0683528,10.4052888 9.0683528,9.0826968 C9.0683528,7.7599208 10.1405208,6.6875688 11.4632968,6.6875688 C12.7860728,6.6875688 13.8584248,7.7599208 13.8584248,9.0826968 Z" id="Stroke-178"></path>
                    <path d="M11.5379456,8.9863912 C11.7802736,9.2285352 12.1732976,9.2285352 12.4158096,8.9863912 C12.6581376,8.7440632 12.6581376,8.3510392 12.4158096,8.1085272 C12.1732976,7.8661992 11.7802736,7.8661992 11.5379456,8.1085272 C11.2956176,8.3510392 11.2956176,8.7440632 11.5379456,8.9863912 Z" id="Stroke-179"></path>
                    <path d="M14.327956,7.7954144 C14.373588,7.7652384 14.417748,7.7337744 14.45878,7.7013904 C15.366636,6.9832384 15.29046,6.1337104 14.836532,5.6795984 C14.38242,5.2254864 13.594532,5.2770064 12.814372,6.0571664 C12.10082,6.7709024 11.769988,7.6198784 11.9113,8.3770384" id="Stroke-180"></path>
                </g>
            </g>
        </g>
    </g>
</svg>