<?xml version="1.0" encoding="UTF-8"?>
<svg width="2000px" height="1527px" viewBox="0 0 2000 1527" version="1.1" xmlns="http://www.w3.org/2000/svg" xmlns:xlink="http://www.w3.org/1999/xlink">
    <!-- Generator: Sketch 64 (93537) - https://sketch.com -->
    <title>sort_default_rent</title>
    <desc>Created with Sketch.</desc>
    <defs>
        <linearGradient x1="50%" y1="108.96015%" x2="50%" y2="-49.442828%" id="linearGradient-1">
            <stop stop-color="#D2D4CD" offset="0.07202738%"></stop>
            <stop stop-color="#9DC2BC" offset="34%"></stop>
            <stop stop-color="#4596AB" offset="100%"></stop>
        </linearGradient>
        <linearGradient x1="50%" y1="108.123427%" x2="50%" y2="-301.752988%" id="linearGradient-2">
            <stop stop-color="#D2D4CD" offset="0.07202738%"></stop>
            <stop stop-color="#9DC2BC" offset="19.51%"></stop>
            <stop stop-color="#4596AB" offset="100%"></stop>
        </linearGradient>
        <linearGradient x1="50%" y1="81.2923703%" x2="50%" y2="43.287324%" id="linearGradient-3">
            <stop stop-color="#DBD8CD" offset="0%"></stop>
            <stop stop-color="#93B8B3" offset="100%"></stop>
        </linearGradient>
        <linearGradient x1="50.2062576%" y1="96.8817638%" x2="50.2062576%" y2="37.6478653%" id="linearGradient-4">
            <stop stop-color="#DBD8CD" offset="0%"></stop>
            <stop stop-color="#93B8B3" offset="99.3174719%"></stop>
            <stop stop-color="#93B8B3" offset="100%"></stop>
        </linearGradient>
        <linearGradient x1="50%" y1="115.676057%" x2="50%" y2="33.4717086%" id="linearGradient-5">
            <stop stop-color="#DBD8CD" offset="0%"></stop>
            <stop stop-color="#93B8B3" offset="100%"></stop>
        </linearGradient>
        <linearGradient x1="50%" y1="482.884699%" x2="50%" y2="21.4482261%" id="linearGradient-6">
            <stop stop-color="#DBD8CD" offset="0%"></stop>
            <stop stop-color="#93B8B3" offset="100%"></stop>
        </linearGradient>
        <linearGradient x1="49.9550519%" y1="69.9840889%" x2="50%" y2="49.14006%" id="linearGradient-7">
            <stop stop-color="#DBD8CD" offset="0%"></stop>
            <stop stop-color="#93B8B3" offset="100%"></stop>
        </linearGradient>
        <linearGradient x1="48.2666667%" y1="47.8208865%" x2="50%" y2="77.0955557%" id="linearGradient-8">
            <stop stop-color="#F2E2D0" offset="0%"></stop>
            <stop stop-color="#A0E2D0" offset="22.4442264%"></stop>
            <stop stop-color="#39A9BB" offset="70.8335004%"></stop>
            <stop stop-color="#445DCE" offset="100%"></stop>
        </linearGradient>
        <linearGradient x1="48.2666667%" y1="47.124729%" x2="50%" y2="85.7517232%" id="linearGradient-9">
            <stop stop-color="#F2E2D0" offset="0%"></stop>
            <stop stop-color="#A0E2D0" offset="22.4442264%"></stop>
            <stop stop-color="#39A9BB" offset="70.8335004%"></stop>
            <stop stop-color="#445DCE" offset="100%"></stop>
        </linearGradient>
        <linearGradient x1="48.2666667%" y1="45.6749309%" x2="50%" y2="103.778818%" id="linearGradient-10">
            <stop stop-color="#F2E2D0" offset="0%"></stop>
            <stop stop-color="#A0E2D0" offset="22.4442264%"></stop>
            <stop stop-color="#39A9BB" offset="70.8335004%"></stop>
            <stop stop-color="#445DCE" offset="100%"></stop>
        </linearGradient>
        <linearGradient x1="48.2666667%" y1="42.1268268%" x2="50%" y2="147.89669%" id="linearGradient-11">
            <stop stop-color="#F2E2D0" offset="0%"></stop>
            <stop stop-color="#A0E2D0" offset="22.4442264%"></stop>
            <stop stop-color="#39A9BB" offset="70.8335004%"></stop>
            <stop stop-color="#445DCE" offset="100%"></stop>
        </linearGradient>
        <linearGradient x1="50%" y1="0.034512448%" x2="100%" y2="915.00466%" id="linearGradient-12">
            <stop stop-color="#F2E2D0" offset="0%"></stop>
            <stop stop-color="#A0E2D0" offset="75.4479806%"></stop>
            <stop stop-color="#39A9BB" offset="90.960687%"></stop>
            <stop stop-color="#445DCE" offset="100%"></stop>
        </linearGradient>
        <circle id="path-13" cx="789.5" cy="789.5" r="789.5"></circle>
        <linearGradient x1="50%" y1="49.2404719%" x2="50%" y2="-301.752988%" id="linearGradient-15">
            <stop stop-color="#D2D4CD" offset="0.07202738%"></stop>
            <stop stop-color="#9DC2BC" offset="13.6328269%"></stop>
            <stop stop-color="#4596AB" offset="100%"></stop>
        </linearGradient>
        <linearGradient x1="50.0406174%" y1="146.517159%" x2="50.0406174%" y2="-2.14067278%" id="linearGradient-16">
            <stop stop-color="#D18CA3" offset="0%"></stop>
            <stop stop-color="#208CA3" offset="17%"></stop>
            <stop stop-color="#3C4178" offset="61%"></stop>
            <stop stop-color="#241B3C" offset="100%"></stop>
        </linearGradient>
        <linearGradient x1="56.0156556%" y1="67.4935993%" x2="56.0156556%" y2="-43.8130613%" id="linearGradient-17">
            <stop stop-color="#FF9C74" offset="0%"></stop>
            <stop stop-color="#D36564" offset="60.0574935%"></stop>
            <stop stop-color="#B2314E" offset="100%"></stop>
        </linearGradient>
        <path d="M692.906174,0 L1158.19009,0 C1168.02623,0 1176,7.9739866 1176,17.8103976 L1176,936 L393,936 L393,299.914373 C393.17529,134.348902 527.345229,0.175294452 692.906174,0 Z" id="path-18"></path>
        <linearGradient x1="50.0277325%" y1="103.625554%" x2="50.0277325%" y2="-48.5647508%" id="linearGradient-19">
            <stop stop-color="#FF9C74" offset="0%"></stop>
            <stop stop-color="#D36564" offset="67%"></stop>
            <stop stop-color="#B2314E" offset="100%"></stop>
        </linearGradient>
        <linearGradient x1="50.0313603%" y1="197.794006%" x2="50.0313603%" y2="-466.911119%" id="linearGradient-20">
            <stop stop-color="#D18CA3" offset="0%"></stop>
            <stop stop-color="#208CA3" offset="23%"></stop>
            <stop stop-color="#3C4178" offset="61%"></stop>
            <stop stop-color="#241B3C" offset="100%"></stop>
        </linearGradient>
        <linearGradient x1="42.9269231%" y1="45.6310952%" x2="83.7589744%" y2="73.5686544%" id="linearGradient-21">
            <stop stop-color="#F2E2D0" offset="0%"></stop>
            <stop stop-color="#A0E2D0" offset="34%"></stop>
            <stop stop-color="#39A9BB" offset="97%"></stop>
            <stop stop-color="#445DCE" offset="100%"></stop>
        </linearGradient>
        <linearGradient x1="42.9269231%" y1="-81.5439614%" x2="83.7589744%" y2="759.631884%" id="linearGradient-22">
            <stop stop-color="#F2E2D0" offset="0%"></stop>
            <stop stop-color="#A0E2D0" offset="34%"></stop>
            <stop stop-color="#39A9BB" offset="97%"></stop>
            <stop stop-color="#445DCE" offset="100%"></stop>
        </linearGradient>
        <linearGradient x1="50%" y1="92.7968667%" x2="50%" y2="32.8058125%" id="linearGradient-23">
            <stop stop-color="#DBD8CD" offset="0%"></stop>
            <stop stop-color="#93B8B3" offset="100%"></stop>
        </linearGradient>
        <linearGradient x1="50%" y1="64.8941522%" x2="51.2685658%" y2="48.7610689%" id="linearGradient-24">
            <stop stop-color="#DBD8CD" offset="0%"></stop>
            <stop stop-color="#93B8B3" offset="99.3174719%"></stop>
            <stop stop-color="#93B8B3" offset="100%"></stop>
        </linearGradient>
        <linearGradient x1="100%" y1="-848.747773%" x2="48.2666667%" y2="5746.76667%" id="linearGradient-25">
            <stop stop-color="#F2E2D0" offset="0%"></stop>
            <stop stop-color="#9EE1D0" offset="33.2509874%"></stop>
            <stop stop-color="#A0E2D0" offset="34%"></stop>
            <stop stop-color="#39A9BB" offset="97%"></stop>
            <stop stop-color="#445DCE" offset="100%"></stop>
        </linearGradient>
        <linearGradient x1="100%" y1="-848.747773%" x2="48.2666667%" y2="5746.76667%" id="linearGradient-26">
            <stop stop-color="#F2E2D0" offset="0%"></stop>
            <stop stop-color="#A0E2D0" offset="34%"></stop>
            <stop stop-color="#9EE1D0" offset="33.2509874%"></stop>
            <stop stop-color="#39A9BB" offset="97%"></stop>
            <stop stop-color="#445DCE" offset="100%"></stop>
        </linearGradient>
        <circle id="path-27" cx="789.052233" cy="789.052233" r="789.052233"></circle>
        <linearGradient x1="48.012366%" y1="66.5655202%" x2="48.012366%" y2="-180.866381%" id="linearGradient-29">
            <stop stop-color="#D2D4CD" offset="0.07202738%"></stop>
            <stop stop-color="#9DC2BC" offset="16.2787934%"></stop>
            <stop stop-color="#4596AB" offset="100%"></stop>
        </linearGradient>
        <linearGradient x1="50%" y1="114.644306%" x2="50%" y2="19.7455601%" id="linearGradient-30">
            <stop stop-color="#DBD8CD" offset="0%"></stop>
            <stop stop-color="#93B8B3" offset="100%"></stop>
        </linearGradient>
        <linearGradient x1="50%" y1="330.667007%" x2="50%" y2="6.75331904%" id="linearGradient-31">
            <stop stop-color="#DBD8CD" offset="0%"></stop>
            <stop stop-color="#93B8B3" offset="100%"></stop>
        </linearGradient>
        <linearGradient x1="50%" y1="241.066034%" x2="50%" y2="50%" id="linearGradient-32">
            <stop stop-color="#DBD8CD" offset="0%"></stop>
            <stop stop-color="#93B8B3" offset="100%"></stop>
        </linearGradient>
        <linearGradient x1="50%" y1="-67%" x2="50%" y2="752%" id="linearGradient-33">
            <stop stop-color="#FFBE5D" offset="0%"></stop>
            <stop stop-color="#EC4D5C" offset="50%"></stop>
            <stop stop-color="#9E485D" offset="100%"></stop>
        </linearGradient>
        <linearGradient x1="50%" y1="-66%" x2="50%" y2="753%" id="linearGradient-34">
            <stop stop-color="#FFBE5D" offset="0%"></stop>
            <stop stop-color="#EC4D5C" offset="50%"></stop>
            <stop stop-color="#9E485D" offset="100%"></stop>
        </linearGradient>
        <linearGradient x1="50%" y1="-22%" x2="50%" y2="480%" id="linearGradient-35">
            <stop stop-color="#FFBE5D" offset="0%"></stop>
            <stop stop-color="#EC4D5C" offset="50%"></stop>
            <stop stop-color="#9E485D" offset="100%"></stop>
        </linearGradient>
        <linearGradient x1="48%" y1="-70%" x2="48%" y2="770.5%" id="linearGradient-36">
            <stop stop-color="#FFBE5D" offset="0%"></stop>
            <stop stop-color="#EC4D5C" offset="50%"></stop>
            <stop stop-color="#9E485D" offset="100%"></stop>
        </linearGradient>
        <linearGradient x1="48%" y1="-70.5%" x2="48%" y2="770.5%" id="linearGradient-37">
            <stop stop-color="#FFBE5D" offset="0%"></stop>
            <stop stop-color="#EC4D5C" offset="50%"></stop>
            <stop stop-color="#9E485D" offset="100%"></stop>
        </linearGradient>
        <linearGradient x1="-603.061224%" y1="118.571429%" x2="-582.653061%" y2="-219.795918%" id="linearGradient-38">
            <stop stop-color="#FFBE5D" offset="0%"></stop>
            <stop stop-color="#EC4D5C" offset="50%"></stop>
            <stop stop-color="#9E485D" offset="100%"></stop>
        </linearGradient>
        <circle id="path-39" cx="790" cy="790" r="789.052233"></circle>
        <linearGradient x1="50.0277325%" y1="124.91124%" x2="50.027736%" y2="50%" id="linearGradient-41">
            <stop stop-color="#FF9C74" offset="0%"></stop>
            <stop stop-color="#D36564" offset="67%"></stop>
            <stop stop-color="#B2314E" offset="100%"></stop>
        </linearGradient>
        <linearGradient x1="65.2989938%" y1="197.749196%" x2="45.2190644%" y2="4.18006431%" id="linearGradient-42">
            <stop stop-color="#208CA3" offset="0%"></stop>
            <stop stop-color="#3C4178" offset="42%"></stop>
            <stop stop-color="#241B3C" offset="100%"></stop>
        </linearGradient>
        <linearGradient x1="65.2173913%" y1="197.391304%" x2="45.2173913%" y2="4.34782609%" id="linearGradient-43">
            <stop stop-color="#FFD600" offset="0%"></stop>
            <stop stop-color="#FF9C38" offset="48%"></stop>
            <stop stop-color="#FF5147" offset="100%"></stop>
        </linearGradient>
        <linearGradient x1="65.6521739%" y1="197.391304%" x2="45.2173913%" y2="4.34782609%" id="linearGradient-44">
            <stop stop-color="#FFD600" offset="0%"></stop>
            <stop stop-color="#FF9C38" offset="48%"></stop>
            <stop stop-color="#FF5147" offset="100%"></stop>
        </linearGradient>
        <linearGradient x1="50.0277325%" y1="124.91124%" x2="50.0277325%" y2="-189.666667%" id="linearGradient-45">
            <stop stop-color="#FF9C74" offset="0%"></stop>
            <stop stop-color="#D36564" offset="67%"></stop>
            <stop stop-color="#B2314E" offset="100%"></stop>
        </linearGradient>
        <linearGradient x1="50.0277325%" y1="64.9397957%" x2="50%" y2="23.1738821%" id="linearGradient-46">
            <stop stop-color="#FF9C74" offset="0%"></stop>
            <stop stop-color="#D36564" offset="67%"></stop>
            <stop stop-color="#B2314E" offset="100%"></stop>
        </linearGradient>
        <linearGradient x1="50%" y1="89.789061%" x2="44.3618714%" y2="-273.482082%" id="linearGradient-47">
            <stop stop-color="#FF9C74" offset="0%"></stop>
            <stop stop-color="#D36564" offset="67%"></stop>
            <stop stop-color="#B2314E" offset="100%"></stop>
        </linearGradient>
        <linearGradient x1="50%" y1="125.715518%" x2="50%" y2="-64.0353734%" id="linearGradient-48">
            <stop stop-color="#DBD8CD" offset="0%"></stop>
            <stop stop-color="#93B8B3" offset="100%"></stop>
        </linearGradient>
        <path d="M171.302521,281.697479 C232.2719,281.697479 281.697479,232.2719 281.697479,171.302521 C281.697479,110.333142 232.2719,60.907563 171.302521,60.907563 C110.333142,60.907563 60.907563,110.333142 60.907563,171.302521 C60.9765599,232.243047 110.361368,281.628482 171.302521,281.697479 Z M85.9973262,166.284568 L71.1993839,166.284568 C73.8149917,114.892579 114.892579,73.8149917 166.284568,71.1993839 L166.284568,85.9973262 C166.284568,88.7684905 168.531357,91.0152788 171.302521,91.0152788 C174.073685,91.0152788 176.320474,88.7684905 176.320474,85.9973262 L176.320474,71.1993839 C227.712463,73.8149917 268.79005,114.892579 271.405658,166.284568 L251.589763,166.284568 C248.818599,166.284568 246.571811,168.531357 246.571811,171.302521 C246.571811,174.073685 248.818599,176.320474 251.589763,176.320474 L271.405658,176.320474 C268.79005,227.711836 227.712463,268.79005 176.320474,271.405658 L176.320474,256.607716 C176.320474,253.836551 174.073685,251.589763 171.302521,251.589763 C168.531357,251.589763 166.284568,253.836551 166.284568,256.607716 L166.284568,271.405658 C114.893206,268.79005 73.8149917,227.712463 71.1993839,176.320474 L85.9973262,176.320474 C88.7684905,176.320474 91.0152788,174.073685 91.0152788,171.302521 C91.0152788,168.531357 88.7684905,166.284568 85.9973262,166.284568 Z" id="path-49"></path>
        <linearGradient x1="50%" y1="89.789061%" x2="45.2696415%" y2="-273.482082%" id="linearGradient-50">
            <stop stop-color="#FF9C74" offset="0%"></stop>
            <stop stop-color="#D36564" offset="67%"></stop>
            <stop stop-color="#B2314E" offset="100%"></stop>
        </linearGradient>
        <linearGradient x1="50%" y1="125.715518%" x2="50%" y2="-64.0353734%" id="linearGradient-51">
            <stop stop-color="#DBD8CD" offset="0%"></stop>
            <stop stop-color="#93B8B3" offset="100%"></stop>
        </linearGradient>
        <path d="M284.468511,105.77892 C282.96912,103.179398 281.380457,100.632722 279.705666,98.142666 L292.123264,85.7162946 C294.086617,83.7509248 294.086617,80.5650629 292.123264,78.5996931 L263.707133,50.1634847 C261.743151,48.198744 258.559538,48.198744 256.595556,50.1634847 L244.157841,62.5697243 C224.038969,48.9769651 200.518962,41.2935267 176.260891,40.3894818 L176.260891,10.0659145 L211.466717,10.0659145 C214.244205,10.0659145 216.49612,7.81240786 216.49612,5.03295723 C216.49612,2.2535066 214.244205,0 211.466717,0 L130.996258,0 C128.218769,0 125.966854,2.2535066 125.966854,5.03295723 C125.966854,7.81240786 128.218769,10.0659145 130.996258,10.0659145 L166.202083,10.0659145 L166.202083,40.4347784 C121.347347,42.1485003 80.5136179,66.7911172 58.069904,105.692102 L30.4081836,105.692102 C27.6306954,105.692102 25.3781513,107.945608 25.3781513,110.725059 C25.3781513,113.50451 27.6306954,115.758016 30.4081836,115.758016 L60.5846058,115.758016 C60.7153703,115.758016 60.8260172,115.692588 60.9567817,115.682522 C62.769253,115.705799 64.4503312,114.741988 65.3474511,113.166043 C97.3464034,54.6428167 170.695227,33.1583805 229.177762,65.1793126 C287.660297,97.2002448 309.128306,170.602151 277.129983,229.125378 C245.13103,287.648605 171.782207,309.133041 113.299672,277.112109 C93.0613515,266.030795 76.420312,249.377998 65.3468224,229.125378 C64.458504,227.543142 62.7799405,226.569265 60.9662118,226.583735 C60.8354473,226.583735 60.719771,226.50824 60.5839771,226.50824 L30.407555,226.50824 C27.6300668,226.50824 25.3781513,228.761747 25.3781513,231.541197 C25.3781513,234.320648 27.6300668,236.574155 30.407555,236.574155 L58.0692753,236.574155 C94.1621622,299.136329 174.102019,320.574211 236.620022,284.455822 C299.138653,248.337434 320.56077,168.341095 284.468511,105.77892 Z M252.376515,68.6180806 L260.150716,60.838387 L281.45527,82.1579938 L273.669753,89.9490116 C267.408145,82.0497853 260.263877,74.8929201 252.376515,68.6180806 Z" id="path-52"></path>
        <linearGradient x1="50%" y1="51.5915624%" x2="44.3618714%" y2="37.0607167%" id="linearGradient-53">
            <stop stop-color="#FF9C74" offset="0%"></stop>
            <stop stop-color="#D36564" offset="67%"></stop>
            <stop stop-color="#B2314E" offset="100%"></stop>
        </linearGradient>
        <linearGradient x1="50%" y1="125.715518%" x2="50%" y2="-64.0353734%" id="linearGradient-54">
            <stop stop-color="#DBD8CD" offset="0%"></stop>
            <stop stop-color="#93B8B3" offset="100%"></stop>
        </linearGradient>
        <path d="M50.7563025,171.302521 C50.7563025,168.499504 48.4836891,166.226891 45.6806723,166.226891 L5.07563025,166.226891 C2.27261345,166.226891 0,168.499504 0,171.302521 C0,174.105538 2.27261345,176.378151 5.07563025,176.378151 L45.6806723,176.378151 C48.4836891,176.378151 50.7563025,174.105538 50.7563025,171.302521 Z" id="path-55"></path>
        <linearGradient x1="50%" y1="51.9648919%" x2="44.3618714%" y2="34.0255762%" id="linearGradient-56">
            <stop stop-color="#FF9C74" offset="0%"></stop>
            <stop stop-color="#D36564" offset="67%"></stop>
            <stop stop-color="#B2314E" offset="100%"></stop>
        </linearGradient>
        <linearGradient x1="50%" y1="125.715518%" x2="50%" y2="-64.0353734%" id="linearGradient-57">
            <stop stop-color="#DBD8CD" offset="0%"></stop>
            <stop stop-color="#93B8B3" offset="100%"></stop>
        </linearGradient>
        <path d="M15.2268908,145.92437 L50.7563025,145.92437 C53.5593193,145.92437 55.8319328,143.651756 55.8319328,140.848739 C55.8319328,138.045723 53.5593193,135.773109 50.7563025,135.773109 L15.2268908,135.773109 C12.4238739,135.773109 10.1512605,138.045723 10.1512605,140.848739 C10.1512605,143.651756 12.4232395,145.92437 15.2268908,145.92437 Z" id="path-58"></path>
        <path d="M55.8319328,201.756303 C55.8319328,198.953286 53.5593193,196.680672 50.7563025,196.680672 L15.2268908,196.680672 C12.4238739,196.680672 10.1512605,198.953286 10.1512605,201.756303 C10.1512605,204.559319 12.4238739,206.831933 15.2268908,206.831933 L50.7563025,206.831933 C53.5593193,206.831933 55.8319328,204.559319 55.8319328,201.756303 Z" id="path-59"></path>
        <linearGradient x1="50%" y1="69.937228%" x2="44.3618714%" y2="-112.088169%" id="linearGradient-60">
            <stop stop-color="#FF9C74" offset="0%"></stop>
            <stop stop-color="#D36564" offset="67%"></stop>
            <stop stop-color="#B2314E" offset="100%"></stop>
        </linearGradient>
        <linearGradient x1="50%" y1="125.715518%" x2="50%" y2="-64.0353734%" id="linearGradient-61">
            <stop stop-color="#DBD8CD" offset="0%"></stop>
            <stop stop-color="#93B8B3" offset="100%"></stop>
        </linearGradient>
        <path d="M157.855743,205.358742 C159.81293,207.322996 162.985528,207.322996 164.942715,205.358742 L234.609555,135.417937 C236.532911,133.419089 236.477779,130.234015 234.486761,128.303095 C232.54461,126.419977 229.465361,126.419977 227.522583,128.303095 L161.399229,194.686479 L131.577812,164.747789 C129.586794,162.817499 126.41357,162.872219 124.49084,164.871066 C122.615098,166.820855 122.615098,169.912213 124.49084,171.862631 L157.855743,205.358742 Z" id="path-62"></path>
        <linearGradient x1="58.6921538%" y1="66.7659035%" x2="49.8813333%" y2="13.3914337%" id="linearGradient-63">
            <stop stop-color="#5D83AC" offset="0%"></stop>
            <stop stop-color="#006E96" offset="100%"></stop>
        </linearGradient>
        <linearGradient x1="50%" y1="100%" x2="50%" y2="-13.3724202%" id="linearGradient-64">
            <stop stop-color="#5D83AC" offset="0%"></stop>
            <stop stop-color="#006E96" offset="100%"></stop>
        </linearGradient>
        <linearGradient x1="50.0054542%" y1="124.91124%" x2="59.8336484%" y2="-770.793127%" id="linearGradient-65">
            <stop stop-color="#FF9C74" offset="0%"></stop>
            <stop stop-color="#D36564" offset="67%"></stop>
            <stop stop-color="#B2314E" offset="100%"></stop>
        </linearGradient>
        <linearGradient x1="-37%" y1="50.1587302%" x2="-676%" y2="50.1587302%" id="linearGradient-66">
            <stop stop-color="#FFBE5D" offset="0%"></stop>
            <stop stop-color="#EC4D5C" offset="50%"></stop>
            <stop stop-color="#9E485D" offset="100%"></stop>
        </linearGradient>
        <linearGradient x1="50.0277325%" y1="124.91124%" x2="50.0277325%" y2="-327.889868%" id="linearGradient-67">
            <stop stop-color="#FF9C74" offset="0%"></stop>
            <stop stop-color="#D36564" offset="67%"></stop>
            <stop stop-color="#B2314E" offset="100%"></stop>
        </linearGradient>
        <linearGradient x1="50.0277325%" y1="124.91124%" x2="50.0277325%" y2="-776.506227%" id="linearGradient-68">
            <stop stop-color="#FF9C74" offset="0%"></stop>
            <stop stop-color="#D36564" offset="67%"></stop>
            <stop stop-color="#B2314E" offset="100%"></stop>
        </linearGradient>
    </defs>
    <g id="sort_default_rent" stroke="none" stroke-width="1" fill="none" fill-rule="evenodd">
        <rect id="Rectangle" fill="url(#linearGradient-1)" fill-rule="nonzero" x="0" y="0" width="2000" height="1527"></rect>
        <rect id="Rectangle" fill="url(#linearGradient-2)" fill-rule="nonzero" x="0" y="1407" width="2000" height="120"></rect>
        <g id="visit-shopping-malls" transform="translate(213.000000, 1.000000)">
            <g id="Layer_3" transform="translate(2.000000, 0.000000)" fill-rule="nonzero">
                <ellipse id="Oval" fill="url(#linearGradient-3)" cx="788.882527" cy="788.786811" rx="788.651343" ry="788.633985"></ellipse>
                <path d="M1558.53716,959.465626 L1425.27235,959.465626 C1400.00481,959.465626 1375.77216,969.502897 1357.90531,987.369355 C1340.03846,1005.23581 1330.00097,1029.46793 1330.00097,1054.73491 L1330.00097,1095.60573 L1193.28221,1095.60573 L1193.28221,1266.57236 L430.535475,1266.57236 L430.535475,1160.65364 L213.512441,1160.65364 L213.512441,1061.06701 C213.512441,1049.23504 208.812105,1037.88767 200.445453,1029.52121 C192.078801,1021.15474 180.731186,1016.45451 168.898953,1016.45451 L117.953227,1016.45451 L117.953227,882.329163 L5.98776303,882.329163 C51.1021258,1264.45322 365.487252,1558.18407 749.799709,1577.27461 C1134.11217,1596.36515 1476.06085,1335.23738 1558.82499,959.465626 L1558.53716,959.465626 Z" id="Path" fill="url(#linearGradient-4)"></path>
                <path d="M1474.20327,397.92369 L1385.26413,439.370148 C1339.1004,462.308043 1285.04268,463.154329 1238.18353,441.672729 C1199.97161,422.622177 1155.16877,421.986689 1116.43188,439.945793 L991.226284,497.510317 C939.946788,521.373873 880.745906,521.373873 829.46641,497.510317 L829.46641,497.510317 C797.976937,482.906542 761.654892,482.906542 730.16542,497.510317 L684.688444,518.521369 C626.107665,545.774139 558.483033,545.774139 499.902254,518.521369 L374.984486,460.956844 C344.391564,446.849937 309.154708,446.849937 278.561786,460.956844 L178.685131,507.296287 C156.422781,517.663028 130.717228,517.663028 108.454872,507.296287 L61.2509228,485.421767 C29.3296735,562.438947 9.89698523,644.054441 3.68513137,727.19277 L108.742701,776.122616 C131.005057,786.489357 156.71061,786.489357 178.972966,776.122616 L278.561786,731.222287 C309.154708,717.11538 344.391564,717.11538 374.984486,731.222287 L499.902254,788.786811 C558.483033,816.039581 626.107665,816.039581 684.688444,788.786811 L730.16542,767.487937 C761.654892,752.884161 797.976937,752.884161 829.46641,767.487937 L885.305228,793.391973 C901.180052,800.788219 919.512642,800.788219 935.387466,793.391973 L1115.85622,709.63559 C1152.0607,691.941299 1194.26889,691.308191 1230.98781,707.908654 C1279.11052,731.408073 1335.26828,731.936854 1383.82498,709.347767 L1498.95656,656.100582 C1519.58765,646.512443 1540.72653,638.057079 1562.27894,630.772192 C1545.52823,548.955187 1515.79382,470.345364 1474.20327,397.92369 Z" id="Path" fill="url(#linearGradient-5)"></path>
                <path d="M1475.64242,400.226271 C1430.62618,320.753301 1372.19865,249.668043 1302.94504,190.115757 C1278.90919,189.226613 1255.30667,183.44853 1233.57827,173.134222 C1194.7744,156.117729 1150.44346,157.0654 1112.40227,175.724626 L991.514113,233.28915 C940.234617,257.152706 881.033735,257.152706 829.754239,233.28915 L829.754239,233.28915 C798.264766,218.685374 761.942721,218.685374 730.453249,233.28915 L684.976273,254.588024 C626.395494,281.840794 558.770862,281.840794 500.190083,254.588024 L375.272315,197.0235 C344.679393,182.916593 309.442537,182.916593 278.849615,197.0235 L261.292048,205.082533 C173.76692,283.776414 104.930057,381.030927 59.811778,489.739107 L107.879214,512.189271 C130.14157,522.556012 155.847123,522.556012 178.109479,512.189271 L277.986128,465.849829 C308.57905,451.742922 343.815906,451.742922 374.408828,465.849829 L499.326596,523.414353 C557.907376,550.667124 625.532007,550.667124 684.112786,523.414353 L730.16542,500.964189 C761.654892,486.360413 797.976937,486.360413 829.46641,500.964189 L829.46641,500.964189 C880.745906,524.827745 939.946788,524.827745 991.226284,500.964189 L1115.85622,443.399664 C1152.0607,425.705374 1194.26889,425.072265 1230.98781,441.672729 C1279.11052,465.172148 1335.26828,465.700929 1383.82498,443.111842 L1475.64242,400.226271 Z" id="Path" fill="url(#linearGradient-6)"></path>
                <path d="M789.458185,0.152314198 C591.318293,-0.0732217935 400.407522,74.5623029 254.959811,209.11205 L278.561786,198.17479 C309.154708,184.067883 344.391564,184.067883 374.984486,198.17479 L499.902254,255.739315 C558.483033,282.992085 626.107665,282.992085 684.688444,255.739315 L730.16542,234.728263 C761.654892,220.124488 797.976937,220.124488 829.46641,234.728263 L829.46641,234.728263 C880.745906,258.591819 939.946788,258.591819 991.226284,234.728263 L1116.43188,177.163739 C1153.84331,159.759445 1197.03032,159.759445 1234.44175,177.163739 C1256.9228,187.579869 1281.33745,193.168641 1306.11116,193.569628 C1162.95715,68.7302939 979.401856,0.0136133919 789.458185,0.152314198 Z" id="Path" fill="url(#linearGradient-7)"></path>
                <path d="M1402.53386,1050.12975 C1397.92392,1050.12975 1394.18682,1053.86677 1394.18682,1058.47661 C1394.18682,1063.08645 1397.92392,1066.82346 1402.53386,1066.82346 L1526.01249,1066.82346 L1532.05689,1050.12975 L1402.53386,1050.12975 Z" id="Path" fill="url(#linearGradient-8)"></path>
                <path d="M1402.53386,1097.04484 C1397.92392,1097.04484 1394.18682,1100.78185 1394.18682,1105.3917 C1394.18682,1110.00154 1397.92392,1113.73855 1402.53386,1113.73855 L1506.44012,1113.73855 C1509.03058,1107.9821 1511.62104,1102.51347 1514.2115,1097.04484 L1402.53386,1097.04484 Z" id="Path" fill="url(#linearGradient-9)"></path>
                <path d="M1402.53386,1143.6721 C1397.92392,1143.6721 1394.18682,1147.40912 1394.18682,1152.01896 C1394.18682,1156.6288 1397.92392,1160.36582 1402.53386,1160.36582 L1482.83814,1160.36582 C1485.71643,1154.60936 1489.17038,1149.14073 1492.04867,1143.6721 L1402.53386,1143.6721 Z" id="Path" fill="url(#linearGradient-10)"></path>
                <path d="M1402.53386,1191.73848 C1397.92392,1191.73848 1394.18682,1195.4755 1394.18682,1200.08534 C1394.18682,1204.69518 1397.92392,1208.43219 1402.53386,1208.43219 L1456.93354,1208.43219 C1460.38748,1202.96356 1463.26577,1197.20711 1466.71972,1191.73848 L1402.53386,1191.73848 Z" id="Path" fill="url(#linearGradient-11)"></path>
            </g>
            <g id="Group" transform="translate(130.078352, 1060.886984)" fill="url(#linearGradient-12)" fill-rule="nonzero">
                <rect id="Rectangle" x="-4.4408921e-14" y="-1.77635684e-15" width="12.0868248" height="12.0826526"></rect>
                <rect id="Rectangle" x="21.0080527" y="-1.77635684e-15" width="12.0868248" height="12.0826526"></rect>
                <rect id="Rectangle" x="42.3038869" y="-1.77635684e-15" width="12.0868248" height="12.0826526"></rect>
                <rect id="Rectangle" x="-4.4408921e-14" y="20.7131188" width="12.0868248" height="12.0826526"></rect>
                <rect id="Rectangle" x="21.0080527" y="20.7131188" width="12.0868248" height="12.0826526"></rect>
                <rect id="Rectangle" x="42.3038869" y="20.7131188" width="12.0868248" height="12.0826526"></rect>
                <rect id="Rectangle" x="21.0080527" y="41.4262377" width="12.0868248" height="12.0826526"></rect>
                <rect id="Rectangle" x="42.3038869" y="41.4262377" width="12.0868248" height="12.0826526"></rect>
                <rect id="Rectangle" x="21.0080527" y="62.1393565" width="12.0868248" height="12.0826526"></rect>
                <rect id="Rectangle" x="42.3038869" y="62.1393565" width="12.0868248" height="12.0826526"></rect>
                <rect id="Rectangle" x="21.0080527" y="82.8524753" width="12.0868248" height="12.0826526"></rect>
                <rect id="Rectangle" x="42.3038869" y="82.8524753" width="12.0868248" height="12.0826526"></rect>
                <rect id="Rectangle" x="42.3038869" y="103.565594" width="12.0868248" height="12.0826526"></rect>
                <rect id="Rectangle" x="42.3038869" y="124.278713" width="12.0868248" height="12.0826526"></rect>
            </g>
            <g id="Layer_2">
                <mask id="mask-14" fill="white">
                    <use xlink:href="#path-13"></use>
                </mask>
                <g id="Mask"></g>
                <g mask="url(#mask-14)" fill-rule="nonzero">
                    <g transform="translate(130.000000, 450.000000)">
                        <path d="M0,956 C165.318951,1160.90474 414.353012,1280 677.5,1280 C940.646988,1280 1189.68105,1160.90474 1355,956 L0,956 Z" id="Path" fill="url(#linearGradient-15)"></path>
                        <path d="M383.666985,1228.4245 C649.903906,1324.39947 946.155951,1284.92028 1178,1122.56994 L1178,956 L180,956 C180.018493,1000.0014 197.504765,1042.19386 228.613181,1073.2983 L383.666985,1228.4245 Z" id="Path" fill="#000000" opacity="0.0715448289"></path>
                        <g id="Path" fill="none">
                            <use fill="url(#linearGradient-16)" xlink:href="#path-18"></use>
                            <use fill="url(#linearGradient-17)" xlink:href="#path-18"></use>
                        </g>
                        <path d="M178,376.913686 L178,956 L1175,956 L1175,880.314913 C1175.14657,681.432068 1039.42891,508.205951 846.374482,460.866891 L255.230147,316.492819 C236.708445,312.405915 217.330373,316.808473 202.388791,328.497993 C187.447208,340.187513 178.50331,357.942598 178,376.913686 Z" id="Path" fill="url(#linearGradient-19)"></path>
                        <path d="M713.976341,763 C722.273679,763 729,769.730829 729,778.033365 L729,956.000097 L625.054567,956.000097 L625.054567,779.312775 C624.695704,775.109135 626.11866,770.948069 628.975972,767.845639 C631.833284,764.743209 635.861946,762.984984 640.078226,763 L713.976341,763 Z" id="Path" fill="url(#linearGradient-20)"></path>
                        <path d="M760.384929,1275.54858 C774.364562,1275.54858 788.026477,1272.68695 802.00611,1270.7792 L825.199593,1266.96369 C837.90835,1264.73798 850.617108,1262.19431 863.325866,1259.33268 L886.201629,1254.24534 C901.13442,1250.42983 915.431772,1246.29637 930.046843,1241.84495 L958.00611,1232.62414 C971.032587,1228.17272 984.059063,1223.40334 997.08554,1218.316 L1022.50305,1207.5054 L1051.41548,1194.46909 L1076.83299,1181.75074 L1087,1176.34544 L720.670061,956 L634.250509,956 L307,1153.13445 L381.663951,1227.85476 L395.961303,1232.9421 C409.940937,1237.81747 424.132383,1242.26889 438.535642,1246.29637 L458.234216,1252.01963 C479.415479,1257.31894 500.596741,1261.87635 521.778004,1265.69185 L539.252546,1268.55348 C556.197556,1271.30913 573.248473,1273.53484 590.405295,1275.23062 L610.10387,1277.13837 C632.661914,1279.04612 655.537678,1280 678.731161,1280 C701.924644,1280 720.670061,1280 742.274949,1277.45633 L760.384929,1275.54858 Z" id="Path" fill="#FFFFFF" opacity="0.168875558"></path>
                        <path d="M179,627 L373.632046,627 C380.551549,627 386.945434,623.283322 390.405186,617.25 C393.864938,611.216679 393.864938,603.783321 390.405186,597.75 C386.945434,591.716678 380.551549,588 373.632046,588 L179,588 L179,627 Z" id="Path" fill="url(#linearGradient-21)"></path>
                        <path d="M179,737 L373.632047,737 C384.328672,737 393,728.269553 393,717.5 C393,706.730447 384.328672,698 373.632047,698 L179,698 L179,737 Z" id="Path" fill="url(#linearGradient-21)"></path>
                        <circle id="Oval" fill="url(#linearGradient-22)" cx="679" cy="276" r="24"></circle>
                        <circle id="Oval" fill="url(#linearGradient-22)" cx="774" cy="276" r="24"></circle>
                        <circle id="Oval" fill="url(#linearGradient-22)" cx="869" cy="276" r="24"></circle>
                        <circle id="Oval" fill="url(#linearGradient-22)" cx="964" cy="276" r="24"></circle>
                        <circle id="Oval" fill="url(#linearGradient-22)" cx="1059" cy="276" r="24"></circle>
                        <circle id="Oval" fill="url(#linearGradient-22)" cx="679" cy="161" r="24"></circle>
                        <circle id="Oval" fill="url(#linearGradient-22)" cx="774" cy="161" r="24"></circle>
                        <circle id="Oval" fill="url(#linearGradient-22)" cx="869" cy="161" r="24"></circle>
                        <circle id="Oval" fill="url(#linearGradient-22)" cx="964" cy="161" r="24"></circle>
                        <circle id="Oval" fill="url(#linearGradient-22)" cx="1059" cy="161" r="24"></circle>
                    </g>
                </g>
            </g>
            <g id="Group-2" transform="translate(147.000000, 138.000000)" fill="#F2E2D0" fill-rule="nonzero">
                <path d="M1227.38828,473.524911 C1241.85158,473.524911 1253.5764,485.245685 1253.5764,499.703992 C1253.5764,485.245685 1265.30122,473.524911 1279.76452,473.524911 C1265.30122,473.524911 1253.5764,461.804137 1253.5764,447.34583 C1253.5764,461.804137 1241.85158,473.524911 1227.38828,473.524911 Z" id="Path"></path>
                <path d="M-1.77635684e-14,533.075128 C14.4632996,533.075128 26.1881205,544.795901 26.1881205,559.254208 C26.1881205,544.795901 37.9129414,533.075128 52.3762409,533.075128 C37.9129414,533.075128 26.1881205,521.354354 26.1881205,506.896047 C26.1881205,521.354354 14.4632996,533.075128 -1.77635684e-14,533.075128 L-1.77635684e-14,533.075128 Z" id="Path"></path>
                <path d="M705.064782,26.1790807 C719.528081,26.1790807 731.252902,37.8998544 731.252902,52.3581615 C731.252902,37.8998544 742.977723,26.1790807 757.441023,26.1790807 C742.977723,26.1790807 731.252902,14.4583071 731.252902,-6.75015599e-14 C731.252902,14.4583071 719.528081,26.1790807 705.064782,26.1790807 L705.064782,26.1790807 Z" id="Path"></path>
                <path d="M1033.13574,229.5704 C1040.6058,229.5704 1046.66147,235.623987 1046.66147,243.091464 C1046.66147,235.623987 1052.71715,229.5704 1060.18721,229.5704 C1056.59996,229.5704 1053.15964,228.145864 1050.62307,225.610172 C1048.0865,223.074481 1046.66147,219.635346 1046.66147,216.049337 C1046.66147,219.635346 1045.23645,223.074481 1042.69988,225.610172 C1040.16331,228.145864 1036.72299,229.5704 1033.13574,229.5704 L1033.13574,229.5704 Z" id="Path"></path>
                <path d="M228.210764,216.624701 C235.68082,216.624701 241.736497,222.678287 241.736497,230.145765 C241.736497,222.678287 247.792173,216.624701 255.262229,216.624701 C247.792173,216.624701 241.736497,210.571115 241.736497,203.103637 C241.736497,210.571115 235.68082,216.624701 228.210764,216.624701 L228.210764,216.624701 Z" id="Path"></path>
                <path d="M749.095358,229.282718 C756.565414,229.282718 762.62109,235.336305 762.62109,242.803782 C762.62109,235.336305 768.676767,229.282718 776.146823,229.282718 C768.676767,229.282718 762.62109,223.229132 762.62109,215.761654 C762.62109,223.229132 756.565414,229.282718 749.095358,229.282718 L749.095358,229.282718 Z" id="Path"></path>
                <path d="M1183.06993,696.190938 C1190.53998,696.190938 1196.59566,702.244525 1196.59566,709.712002 C1196.59566,702.244525 1202.65133,696.190938 1210.12139,696.190938 C1202.65133,696.190938 1196.59566,690.137352 1196.59566,682.669875 C1196.59566,690.137352 1190.53998,696.190938 1183.06993,696.190938 L1183.06993,696.190938 Z" id="Path"></path>
                <path d="M394.548496,306.093867 C402.018552,306.093867 408.074229,312.147454 408.074229,319.614931 C408.074229,312.147454 414.129905,306.093867 421.599961,306.093867 C414.129905,306.093867 408.074229,300.040281 408.074229,292.572803 C408.074229,300.040281 402.018552,306.093867 394.548496,306.093867 L394.548496,306.093867 Z" id="Path"></path>
                <path d="M495.847599,72.7835981 C503.317655,72.7835981 509.373332,78.8371845 509.373332,86.3046618 C509.373332,78.8371845 515.429009,72.7835981 522.899065,72.7835981 C519.311817,72.7835981 515.871494,71.3590616 513.334927,68.8233702 C510.79836,66.2876789 509.373332,62.8485435 509.373332,59.2625344 C509.373332,66.7300117 503.317655,72.7835981 495.847599,72.7835981 L495.847599,72.7835981 Z" id="Path"></path>
            </g>
        </g>
        <g id="get-your-delivery-overnight" transform="translate(213.000000, 1.000000)">
            <g id="Layer_3" fill-rule="nonzero">
                <circle id="Oval" fill="url(#linearGradient-23)" cx="790" cy="790" r="789.052233"></circle>
                <path d="M1380.92525,837.227944 L1380.92525,912.677464 L1294.53267,912.677464 C1278.62823,912.677464 1265.73514,925.570556 1265.73514,941.474991 L1265.73514,1135.57032 L1168.11153,1135.57032 L1168.11153,1083.73477 L707.351098,1083.73477 L707.351098,997.342193 C707.351098,989.867108 701.291345,983.807355 693.816261,983.807355 L559.619786,983.807355 C478.030035,983.807355 411.888474,1049.94892 411.888474,1131.53867 L411.888474,1135.57032 L312.537006,1135.57032 L312.537006,933.987634 C312.537006,922.377396 303.125049,912.965439 291.514812,912.965439 L199.074751,912.965439 L199.074751,867.177372 C199.074751,835.368502 173.288567,809.582318 141.479697,809.582318 L1.52371724,809.582318 C13.0697888,1236.74797 362.678339,1577.03446 790,1577.03446 C1217.32166,1577.03446 1566.93021,1236.74797 1578.47628,809.582318 L1408.57087,809.582318 C1393.55361,810.171902 1381.51483,822.210677 1380.92525,837.227944 Z" id="Path" fill="url(#linearGradient-24)"></path>
                <rect id="Rectangle" fill="url(#linearGradient-25)" transform="translate(1402.235419, 987.263058) rotate(180.000000) translate(-1402.235419, -987.263058) " x="1391.58033" y="976.607973" width="21.3101698" height="21.3101698"></rect>
                <rect id="Rectangle" fill="url(#linearGradient-26)" transform="translate(1364.798634, 987.263058) rotate(180.000000) translate(-1364.798634, -987.263058) " x="1354.14355" y="976.607973" width="21.3101698" height="21.3101698"></rect>
                <rect id="Rectangle" fill="url(#linearGradient-26)" transform="translate(1327.073874, 987.263058) rotate(180.000000) translate(-1327.073874, -987.263058) " x="1316.41879" y="976.607973" width="21.3101698" height="21.3101698"></rect>
                <rect id="Rectangle" fill="url(#linearGradient-26)" transform="translate(1402.235419, 1024.411868) rotate(180.000000) translate(-1402.235419, -1024.411868) " x="1391.58033" y="1013.75678" width="21.3101698" height="21.3101698"></rect>
                <rect id="Rectangle" fill="url(#linearGradient-26)" transform="translate(1364.798634, 1024.411868) rotate(180.000000) translate(-1364.798634, -1024.411868) " x="1354.14355" y="1013.75678" width="21.3101698" height="21.3101698"></rect>
                <rect id="Rectangle" fill="url(#linearGradient-26)" transform="translate(1327.073874, 1024.411868) rotate(180.000000) translate(-1327.073874, -1024.411868) " x="1316.41879" y="1013.75678" width="21.3101698" height="21.3101698"></rect>
                <rect id="Rectangle" fill="url(#linearGradient-26)" transform="translate(1364.798634, 1061.560677) rotate(180.000000) translate(-1364.798634, -1061.560677) " x="1354.14355" y="1050.90559" width="21.3101698" height="21.3101698"></rect>
                <rect id="Rectangle" fill="url(#linearGradient-26)" transform="translate(1327.073874, 1061.560677) rotate(180.000000) translate(-1327.073874, -1061.560677) " x="1316.41879" y="1050.90559" width="21.3101698" height="21.3101698"></rect>
                <rect id="Rectangle" fill="url(#linearGradient-26)" transform="translate(1364.798634, 1098.421512) rotate(180.000000) translate(-1364.798634, -1098.421512) " x="1354.14355" y="1087.76643" width="21.3101698" height="21.3101698"></rect>
                <rect id="Rectangle" fill="url(#linearGradient-26)" transform="translate(1327.073874, 1098.421512) rotate(180.000000) translate(-1327.073874, -1098.421512) " x="1316.41879" y="1087.76643" width="21.3101698" height="21.3101698"></rect>
                <rect id="Rectangle" fill="url(#linearGradient-26)" transform="translate(1364.798634, 1135.282346) rotate(180.000000) translate(-1364.798634, -1135.282346) " x="1354.14355" y="1124.62726" width="21.3101698" height="21.3101698"></rect>
                <rect id="Rectangle" fill="url(#linearGradient-26)" transform="translate(1327.073874, 1135.282346) rotate(180.000000) translate(-1327.073874, -1135.282346) " x="1316.41879" y="1124.62726" width="21.3101698" height="21.3101698"></rect>
                <rect id="Rectangle" fill="url(#linearGradient-26)" transform="translate(1327.073874, 1172.431155) rotate(180.000000) translate(-1327.073874, -1172.431155) " x="1316.41879" y="1161.77607" width="21.3101698" height="21.3101698"></rect>
                <rect id="Rectangle" fill="url(#linearGradient-26)" transform="translate(1327.073874, 1209.291990) rotate(180.000000) translate(-1327.073874, -1209.291990) " x="1316.41879" y="1198.6369" width="21.3101698" height="21.3101698"></rect>
                <rect id="Rectangle" fill="url(#linearGradient-26)" x="158.470238" y="975.744048" width="21.3101698" height="21.3101698"></rect>
                <rect id="Rectangle" fill="url(#linearGradient-26)" x="196.194998" y="975.744048" width="21.3101698" height="21.3101698"></rect>
                <rect id="Rectangle" fill="url(#linearGradient-26)" x="233.919758" y="975.744048" width="21.3101698" height="21.3101698"></rect>
                <rect id="Rectangle" fill="url(#linearGradient-26)" x="158.470238" y="1012.60488" width="21.3101698" height="21.3101698"></rect>
                <rect id="Rectangle" fill="url(#linearGradient-26)" x="196.194998" y="1012.60488" width="21.3101698" height="21.3101698"></rect>
                <rect id="Rectangle" fill="url(#linearGradient-26)" x="233.919758" y="1012.60488" width="21.3101698" height="21.3101698"></rect>
                <rect id="Rectangle" fill="url(#linearGradient-26)" x="196.194998" y="1049.75369" width="21.3101698" height="21.3101698"></rect>
                <rect id="Rectangle" fill="url(#linearGradient-26)" x="233.919758" y="1049.75369" width="21.3101698" height="21.3101698"></rect>
                <rect id="Rectangle" fill="url(#linearGradient-26)" x="196.194998" y="1086.61453" width="21.3101698" height="21.3101698"></rect>
                <rect id="Rectangle" fill="url(#linearGradient-26)" x="233.919758" y="1086.61453" width="21.3101698" height="21.3101698"></rect>
                <rect id="Rectangle" fill="url(#linearGradient-26)" x="196.194998" y="1123.47536" width="21.3101698" height="21.3101698"></rect>
                <rect id="Rectangle" fill="url(#linearGradient-26)" x="233.919758" y="1123.47536" width="21.3101698" height="21.3101698"></rect>
                <rect id="Rectangle" fill="url(#linearGradient-26)" x="233.919758" y="1160.62417" width="21.3101698" height="21.3101698"></rect>
                <rect id="Rectangle" fill="url(#linearGradient-26)" x="233.919758" y="1197.485" width="21.3101698" height="21.3101698"></rect>
            </g>
            <g id="Path" transform="translate(0.947767, 0.947767)">
                <mask id="mask-28" fill="white">
                    <use xlink:href="#path-27"></use>
                </mask>
                <g id="Mask" fill-rule="nonzero"></g>
                <path d="M190.943429,1404.67986 C340.710999,1577.66854 558.239197,1677.0659 787.052233,1677.0659 C1015.86527,1677.0659 1233.39347,1577.66854 1383.16104,1404.67986 L190.943429,1404.67986 Z" fill="url(#linearGradient-29)" fill-rule="nonzero" mask="url(#mask-28)"></path>
                <path d="M1303.37606,1406.88889 L502.804817,1406.88889 L602.156285,1486.37006 C620.235148,1500.73436 632.426144,1521.22342 636.425341,1543.96512 L636.425341,1543.96512 C640.416542,1567.88456 659.601753,1586.36788 683.653285,1589.46521 C907.065908,1619.93979 1132.79903,1552.91215 1303.37606,1405.44901 L1303.37606,1406.88889 Z" fill="#000000" fill-rule="nonzero" opacity="0.07" mask="url(#mask-28)"></path>
            </g>
            <g id="Layer_2" transform="translate(3.062016, 0.000000)" fill-rule="nonzero">
                <path d="M1472.03115,398.929587 L1383.04679,440.398025 C1336.8596,463.348085 1282.7744,464.19482 1235.89143,442.701827 C1197.66009,423.641172 1152.83447,423.005347 1114.07789,440.973976 L988.520672,499.14498 C937.215109,523.021191 877.984134,523.021191 826.678571,499.14498 L826.678571,499.14498 C795.173092,484.533459 758.832584,484.533459 727.327104,499.14498 L681.827012,520.167174 C623.216454,547.434398 555.557448,547.434398 496.94689,520.167174 L371.965624,462.572121 C341.35715,448.457732 306.102383,448.457732 275.493909,462.572121 L175.566491,508.936139 C153.292819,519.308378 127.574199,519.308378 105.300526,508.936139 L58.3605574,486.762043 C26.4230817,563.820068 6.98051537,645.478847 0.765503876,728.661268 L105.876477,777.617063 C128.150149,787.989303 153.868769,787.989303 176.142442,777.617063 L275.781884,732.404946 C306.390358,718.290558 341.645125,718.290558 372.253599,732.404946 L497.234865,790 C555.845423,817.267223 623.504429,817.267223 682.114987,790 L727.615079,768.68983 C759.120559,754.078309 795.461067,754.078309 826.966547,768.68983 L882.833749,794.607604 C898.716642,802.007772 917.058551,802.007772 932.941445,794.607604 L1113.50194,710.806801 C1149.72482,693.103127 1191.95447,692.469682 1228.69205,709.07895 C1276.83923,732.590832 1333.02552,733.119893 1381.60691,710.518826 L1496.79702,657.243402 C1517.43837,647.649652 1538.58802,639.189792 1560.15158,631.901578 C1543.39235,550.041183 1513.64283,471.389669 1472.03115,398.929587 L1472.03115,398.929587 Z" id="Path" fill="url(#linearGradient-30)"></path>
                <path d="M1473.18305,401.233389 C1428.14392,321.718271 1369.6867,250.595313 1300.39789,191.011443 C1276.34981,190.121828 1252.73529,184.340681 1230.99585,174.020903 C1192.17225,156.995385 1147.81878,157.943558 1109.75826,176.61268 L988.808647,234.207733 C937.503084,258.083945 878.272109,258.083945 826.966547,234.207733 L826.966547,234.207733 C795.461067,219.596213 759.120559,219.596213 727.615079,234.207733 L682.114987,255.517903 C623.504429,282.785127 555.845423,282.785127 497.234865,255.517903 L372.253599,197.92285 C341.645125,183.808461 306.390358,183.808461 275.781884,197.92285 L258.215393,205.986157 C170.645774,284.721773 101.773919,382.027864 56.6327058,490.793697 L104.724575,513.255768 C126.998248,523.628007 152.716868,523.628007 174.990541,513.255768 L274.917959,466.89175 C305.526432,452.777361 340.7812,452.777361 371.389673,466.89175 L496.370939,524.486803 C554.981497,551.754027 622.640504,551.754027 681.251061,524.486803 L727.327104,502.024732 C758.832584,487.413212 795.173092,487.413212 826.678571,502.024732 L826.678571,502.024732 C877.984134,525.900944 937.215109,525.900944 988.520672,502.024732 L1113.21396,444.429679 C1149.43685,426.726004 1191.66649,426.09256 1228.40407,442.701827 C1276.55125,466.213709 1332.73755,466.74277 1381.31894,444.141704 L1473.18305,401.233389 Z" id="Path" fill="url(#linearGradient-31)"></path>
                <path d="M786.937984,0.947254459 C588.697373,0.721598856 397.689558,75.3967062 252.167913,210.017811 L275.781884,199.074751 C306.390358,184.960362 341.645125,184.960362 372.253599,199.074751 L497.234865,256.669804 C555.845423,283.937028 623.504429,283.937028 682.114987,256.669804 L727.615079,235.64761 C759.120559,221.036089 795.461067,221.036089 826.966547,235.64761 L826.966547,235.64761 C878.272109,259.523822 937.503084,259.523822 988.808647,235.64761 L1114.07789,178.052556 C1151.50833,160.639032 1194.7173,160.639032 1232.14775,178.052556 C1254.64022,188.47421 1279.06728,194.065947 1303.85359,194.467147 C1160.62681,69.5616042 976.978208,0.808480094 786.937984,0.947254459 L786.937984,0.947254459 Z" id="Path" fill="url(#linearGradient-32)"></path>
                <g id="Group-4" transform="translate(366.782069, 282.299603)">
                    <path d="M948.878507,283.655639 C956.353591,283.655639 962.413344,289.715392 962.413344,297.190476 C962.413344,289.715392 968.473098,283.655639 975.948182,283.655639 C968.473098,283.655639 962.413344,277.595885 962.413344,270.120801 C962.413344,277.595885 956.353591,283.655639 948.878507,283.655639 L948.878507,283.655639 Z" id="Path" fill="url(#linearGradient-33)"></path>
                    <path d="M350.177925,351.905777 C357.65301,351.905777 363.712763,357.96553 363.712763,365.440615 C363.712763,357.96553 369.772516,351.905777 377.247601,351.905777 C369.772516,351.905777 363.712763,345.846024 363.712763,338.370939 C363.712763,341.960602 362.286775,345.40324 359.748501,347.941515 C357.210226,350.479789 353.767588,351.905777 350.177925,351.905777 L350.177925,351.905777 Z" id="Path" fill="url(#linearGradient-33)"></path>
                    <path d="M98.4875415,133.332549 C105.962626,133.332549 112.022379,139.392302 112.022379,146.867386 C112.022379,139.392302 118.082132,133.332549 125.557217,133.332549 C118.082132,133.332549 112.022379,127.272796 112.022379,119.797711 C112.022379,127.272796 105.962626,133.332549 98.4875415,133.332549 L98.4875415,133.332549 Z" id="Path" fill="url(#linearGradient-34)"></path>
                    <path d="M923.248708,100.791344 C927.860994,100.791344 931.599991,104.53034 931.599991,109.142626 C931.599991,104.53034 935.338987,100.791344 939.951274,100.791344 C935.338987,100.791344 931.599991,97.052347 931.599991,92.4400609 C931.599991,97.052347 927.860994,100.791344 923.248708,100.791344 Z" id="Path" fill="url(#linearGradient-35)"></path>
                    <path d="M538.801726,337.507014 C543.414012,337.507014 547.153008,341.24601 547.153008,345.858296 C547.153008,341.24601 550.892005,337.507014 555.504291,337.507014 C550.892005,337.507014 547.153008,333.768017 547.153008,329.155731 C547.153008,333.768017 543.414012,337.507014 538.801726,337.507014 Z" id="Path" fill="url(#linearGradient-35)"></path>
                    <path d="M809.786453,493.589609 C814.398739,493.589609 818.137735,497.328605 818.137735,501.940891 C818.137735,497.328605 821.876732,493.589609 826.489018,493.589609 C821.876732,493.589609 818.137735,489.850612 818.137735,485.238326 C818.137735,489.850612 814.398739,493.589609 809.786453,493.589609 L809.786453,493.589609 Z" id="Path" fill="url(#linearGradient-35)"></path>
                    <path d="M782.428802,309.861388 C798.333237,309.861388 811.226329,322.75448 811.226329,338.658915 C811.226329,322.75448 824.119421,309.861388 840.023856,309.861388 C824.119421,309.861388 811.226329,296.968296 811.226329,281.063861 C811.226329,296.968296 798.333237,309.861388 782.428802,309.861388 Z" id="Path" fill="url(#linearGradient-36)"></path>
                    <path d="M-5.22248911e-13,352.193752 C15.9044349,352.193752 28.7975268,365.086844 28.7975268,380.991279 C28.7975268,365.086844 41.6906187,352.193752 57.5950535,352.193752 C41.6906187,352.193752 28.7975268,339.30066 28.7975268,323.396226 C28.7975268,339.30066 15.9044349,352.193752 -5.22248911e-13,352.193752 Z" id="Path" fill="url(#linearGradient-37)"></path>
                    <path d="M448.953442,91.5761351 C426.730944,91.846428 407.048826,77.2820455 400.810613,55.9513821 C394.572401,34.6207188 403.30542,11.7462492 422.171742,-8.52651283e-14 L420.155915,-8.52651283e-14 C381.19005,-8.52651283e-14 349.601975,31.5880752 349.601975,70.5539406 C349.601975,109.519806 381.19005,141.107881 420.155915,141.107881 C459.121781,141.107881 490.709856,109.519806 490.709856,70.5539406 C490.709856,70.5539406 490.709856,70.5539406 490.709856,68.826089 C481.579179,83.0316496 465.84031,91.6066196 448.953442,91.5761351 L448.953442,91.5761351 Z" id="Path" fill="url(#linearGradient-38)"></path>
                </g>
            </g>
            <mask id="mask-40" fill="white">
                <use xlink:href="#path-39"></use>
            </mask>
            <g id="Mask" fill-rule="nonzero"></g>
            <g id="Group-3" mask="url(#mask-40)">
                <g transform="translate(-77.000000, 727.000000)">
                    <rect id="Rectangle" fill="url(#linearGradient-41)" fill-rule="nonzero" x="120" y="411" width="1170" height="146"></rect>
                    <ellipse id="Oval" fill="url(#linearGradient-42)" fill-rule="nonzero" cx="305.5" cy="571" rx="113.5" ry="114"></ellipse>
                    <circle id="Oval" fill="url(#linearGradient-43)" fill-rule="nonzero" cx="305" cy="571" r="42"></circle>
                    <ellipse id="Oval" fill="url(#linearGradient-42)" fill-rule="nonzero" cx="1020.5" cy="571" rx="113.5" ry="114"></ellipse>
                    <circle id="Oval" fill="url(#linearGradient-44)" fill-rule="nonzero" cx="1021" cy="571" r="42"></circle>
                    <path d="M1320.55698,281.361931 L1279.26674,240.071189 C1267.16125,227.93493 1250.73308,221.100731 1233.59169,221.070139 L1216.05247,221.070139 C1201.88988,221.221636 1188.43346,214.89704 1179.51244,203.896114 L1026.40967,14.9818324 C1018.6057,5.46073853 1006.93038,-0.041490541 994.619841,0 L78.1956819,0 C35.0093993,0 0,35.0100581 0,78.1968627 L0,553.223102 C0,567.753242 11.7788633,579.532248 26.3088275,579.532248 L116.197322,579.532248 C127.233737,579.57995 137.804225,575.087438 145.429352,567.108485 L205.355015,503.893454 C213.592401,495.091807 225.090063,490.069779 237.144848,490.008072 L372.34299,490.008072 C384.397775,490.069779 395.895437,495.091807 404.132823,503.893454 L461.500683,564.550651 C470.946733,574.626023 484.233363,580.206475 498.040722,579.897653 L830.55507,579.897653 C844.362428,580.206475 857.649058,574.626023 867.095108,564.550651 L923.732167,505.355073 C931.969554,496.553427 943.467216,491.531399 955.522001,491.469691 L1090.72014,491.469691 C1102.77493,491.531399 1114.27259,496.553427 1122.50998,505.355073 L1179.51244,565.646865 C1189.01156,575.645642 1202.26265,581.211167 1216.05247,580.993867 L1300.45996,580.993867 C1320.64047,580.993867 1337,564.634137 1337,544.453387 L1337,318.267816 C1336.68914,304.258718 1330.7647,290.961487 1320.55698,281.361931 L1320.55698,281.361931 Z" id="Path" fill="url(#linearGradient-45)" fill-rule="nonzero"></path>
                    <path d="M1279.29323,239.767107 C1267.19329,227.64622 1250.77267,220.820678 1233.63914,220.790125 L1216.10797,220.790125 C1201.95187,220.941429 1188.50163,214.624845 1179.5847,203.637852 L1026.55219,14.9628559 C1018.7518,5.45382177 1007.08183,-0.0414379877 994.776946,0 L77.6775994,0 C60.134227,1.00023976 44.8505138,12.2904589 38.7501226,28.7563194 C32.6497314,45.2221798 36.8918189,63.734946 49.5546803,75.9081642 L162.046356,188.31029 C185.905442,213.085984 199.028443,246.260746 198.569628,280.640607 L198.569628,510.554045 L203.682886,505.079916 C211.916493,496.289417 223.408879,491.27375 235.458132,491.212121 L370.594237,491.212121 C382.64349,491.27375 394.135876,496.289417 402.369483,505.079916 L459.711019,565.660282 C469.152734,575.722892 482.433268,581.296276 496.234291,580.987845 L828.596061,580.987845 C842.397084,581.296276 855.677617,575.722892 865.119332,565.660282 L923.9218,504.714974 C932.155406,495.924475 943.647792,490.908809 955.697046,490.847179 L1090.83315,490.847179 C1102.8824,490.908809 1114.37479,495.924475 1122.6084,504.714974 L1179.5847,564.930398 C1189.07947,574.91651 1202.32447,580.474985 1216.10797,580.257961 L1300.47673,580.257961 C1320.64797,580.257961 1337,563.918952 1337,543.763764 L1337,317.864687 C1336.88127,304.159167 1331.37123,291.050463 1321.66023,281.370491 L1279.29323,239.767107 Z" id="Path" fill="url(#linearGradient-46)" fill-rule="nonzero"></path>
                    <g id="stopwatch" stroke-width="1" fill="none" fill-rule="evenodd" transform="translate(418.000000, 109.000000)">
                        <g id="Shape" fill-rule="nonzero">
                            <use fill="url(#linearGradient-47)" xlink:href="#path-49"></use>
                            <use fill="url(#linearGradient-48)" xlink:href="#path-49"></use>
                        </g>
                        <g id="Shape" fill-rule="nonzero">
                            <use fill="url(#linearGradient-50)" xlink:href="#path-52"></use>
                            <use fill="url(#linearGradient-51)" xlink:href="#path-52"></use>
                        </g>
                        <g id="Path" fill-rule="nonzero">
                            <use fill="url(#linearGradient-53)" xlink:href="#path-55"></use>
                            <use fill="url(#linearGradient-54)" xlink:href="#path-55"></use>
                        </g>
                        <g id="Path" fill-rule="nonzero">
                            <use fill="url(#linearGradient-56)" xlink:href="#path-58"></use>
                            <use fill="url(#linearGradient-57)" xlink:href="#path-58"></use>
                        </g>
                        <g id="Path" fill-rule="nonzero">
                            <use fill="url(#linearGradient-56)" xlink:href="#path-59"></use>
                            <use fill="url(#linearGradient-57)" xlink:href="#path-59"></use>
                        </g>
                        <g id="Path" fill-rule="nonzero">
                            <use fill="url(#linearGradient-60)" xlink:href="#path-62"></use>
                            <use fill="url(#linearGradient-61)" xlink:href="#path-62"></use>
                        </g>
                    </g>
                    <path d="M1136.32707,204.616032 C1144.20813,214.963081 1156.49037,221.026183 1169.51128,220.997349 L1214,220.997349 C1199.86604,221.148275 1186.43682,214.847488 1177.53383,203.887973 L1056.46617,55 L1020,55 L1136.32707,204.616032 Z" id="Path" fill="url(#linearGradient-63)" fill-rule="nonzero"></path>
                    <path d="M992.708486,55 L923.504797,55 C912.18031,55 903,64.1271074 903,75.3859649 L903,170.763158 C903,184.086797 908.323647,196.864734 917.7998,206.28597 C927.275953,215.707205 940.128374,221 953.529678,221 L1081.68466,221 C1089.03531,220.965691 1095.73554,216.805267 1098.99184,210.253334 C1102.24814,203.7014 1101.50151,195.882675 1097.06326,190.057018 L992.708486,55 Z" id="Path" fill="url(#linearGradient-64)" fill-rule="nonzero"></path>
                    <rect id="Rectangle" fill="url(#linearGradient-65)" fill-rule="nonzero" x="1298" y="342" width="51" height="115" rx="20.1582687"></rect>
                    <path d="M1349.45,431.809524 L1349.45,367.555556 C1349.45,353.441612 1337.85418,342 1323.55,342 L1323.55,457 C1337.71092,457.001426 1349.2477,445.78069 1349.45,431.809524 L1349.45,431.809524 Z" id="Path" fill="url(#linearGradient-66)" fill-rule="nonzero"></path>
                    <rect id="Rectangle" fill="url(#linearGradient-67)" fill-rule="nonzero" x="1013" y="186" width="105" height="90" rx="18.4304171"></rect>
                    <path d="M954.873493,294.895 L918.126507,294.895 C911.370193,294.694831 905.997077,289.120776 906,282.315 L906,282.315 C906.191894,275.653276 911.510337,270.298214 918.126507,270.105 L954.873493,270.105 C961.489663,270.298214 966.808106,275.653276 967,282.315 L967,282.315 C967.002923,289.120776 961.629807,294.694831 954.873493,294.895 Z" id="Path" fill="url(#linearGradient-68)" fill-rule="nonzero"></path>
                </g>
            </g>
        </g>
    </g>
</svg>