<svg xmlns="http://www.w3.org/2000/svg" width="23" height="21" viewBox="0 0 23 21">
    <g fill="#E02020" stroke="#E02020" stroke-width=".2">
        <path d="M6.998 6.02c.064 0 .126-.02.177-.058l.135-.096c.137-.094.171-.28.078-.417-.094-.136-.281-.171-.418-.077l-.15.106c-.104.077-.148.213-.107.336.04.123.155.206.285.206h0z" transform="translate(1)"/>
        <path d="M6.444 6.17c-.12-.115-.31-.112-.424.007-2.21 2.295-2.323 5.89-.263 8.319 2.06 2.43 5.625 2.905 8.25 1.101 2.625-1.804 3.458-5.302 1.929-8.096-1.53-2.794-4.926-3.977-7.86-2.737-.145.069-.21.24-.148.388.063.148.231.22.382.164 2.662-1.127 5.745-.056 7.135 2.479 1.39 2.535.634 5.71-1.749 7.348s-5.618 1.205-7.487-1c-1.869-2.206-1.764-5.469.243-7.55.114-.12.11-.308-.008-.423z" transform="translate(1)"/>
        <path d="M13.066 5.157c.065-.152-.006-.328-.159-.393-2.934-1.24-6.33-.058-7.86 2.736-1.53 2.794-.696 6.292 1.928 8.096 2.625 1.804 6.19 1.329 8.25-1.1 2.06-2.43 1.947-6.024-.261-8.319-.117-.11-.3-.11-.416.001-.115.112-.123.295-.016.415 2.007 2.081 2.111 5.344.243 7.55-1.87 2.205-5.105 2.638-7.487 1-2.383-1.637-3.139-4.813-1.75-7.348 1.39-2.535 4.474-3.606 7.136-2.479.152.064.328-.007.392-.159z" transform="translate(1)"/>
        <path d="M1.925 9.392c.079.013.159-.006.224-.053.064-.046.108-.116.12-.195.632-3.925 3.958-6.85 7.931-6.977V3.34c0 .166.134.3.3.3.166 0 .3-.134.3-.3V.335c0-.165-.134-.3-.3-.3-.166 0-.3.135-.3.3v1.232c-4.268.126-7.844 3.265-8.522 7.48-.013.079.006.16.052.224s.117.108.195.12h0zM9.252 18.747c-3.956-.618-6.923-3.946-7.085-7.947H3.34c.166 0 .3-.134.3-.3 0-.166-.134-.3-.3-.3H.335c-.165 0-.3.134-.3.3 0 .166.135.3.3.3h1.232c.164 4.298 3.348 7.877 7.597 8.54.015.003.03.004.045.004.157 0 .287-.121.298-.278.012-.156-.099-.295-.254-.318h-.001zM19.088 11.497c-.163-.024-.315.088-.34.251-.62 3.956-3.948 6.923-7.948 7.085V17.66c0-.166-.134-.3-.3-.3-.166 0-.3.134-.3.3v3.005c0 .165.134.3.3.3.166 0 .3-.135.3-.3v-1.232c4.297-.164 7.876-3.347 8.54-7.595.012-.079-.007-.159-.055-.223-.047-.064-.118-.106-.197-.118zM20.664 10.2h-1.231c-.162-4.31-3.364-7.897-7.628-8.545-.164-.024-.316.09-.34.253-.024.164.09.317.253.34 3.97.604 6.955 3.94 7.115 7.952H17.66c-.166 0-.3.134-.3.3 0 .166.134.3.3.3h3.004c.166 0 .3-.134.3-.3 0-.166-.134-.3-.3-.3zM12.78 10.5c0-1.26-1.02-2.28-2.28-2.28-1.26 0-2.28 1.02-2.28 2.28 0 1.26 1.02 2.28 2.28 2.28 1.259-.001 2.279-1.021 2.28-2.28zm-3.96 0c0-.928.752-1.68 1.68-1.68.928 0 1.68.752 1.68 1.68 0 .928-.752 1.68-1.68 1.68-.927-.001-1.679-.753-1.68-1.68z" transform="translate(1)"/>
    </g>
</svg>
