<?xml version="1.0" encoding="UTF-8"?>
<svg width="32px" height="33px" viewBox="0 0 32 33" version="1.1" xmlns="http://www.w3.org/2000/svg" xmlns:xlink="http://www.w3.org/1999/xlink">
    <!-- Generator: Sketch 64 (93537) - https://sketch.com -->
    <title>share_line</title>
    <desc>Created with Sketch.</desc>
    <g id="小資振興_確認風格" stroke="none" stroke-width="1" fill="none" fill-rule="evenodd">
        <g id="小資振興_商家內容" transform="translate(-1404.000000, -869.000000)" fill="#FFFFFF">
            <g id="Line" transform="translate(1404.000000, 870.000000)">
                <path d="M16.022343,0.869565217 C24.7661031,0.869565217 31.8780193,6.59983897 31.8780193,13.6453301 C31.8780193,16.4639694 30.7775765,19.001409 28.4792673,21.5034219 C25.1557971,25.305153 17.7161836,29.9349839 16.022343,30.6413043 C14.3307166,31.349839 14.5809179,30.1918277 14.6495572,29.793277 C14.6894122,29.5563607 14.8754026,28.4470612 14.8754026,28.4470612 C14.9285427,28.0440821 14.9838969,27.419686 14.8244767,27.0233494 C14.647343,26.5849436 13.9454509,26.3568841 13.4273349,26.2461755 C5.80837359,25.2475845 0.166666667,19.9579308 0.166666667,13.6453301 C0.166666667,6.59983897 7.2807971,0.869565217 16.022343,0.869565217 Z M6.75316023,10.5137882 L5.62393317,10.5137882 C5.58855296,10.5137882 5.55722595,10.533703 5.54027241,10.563762 L5.52691224,10.6152375 L5.52691224,17.6939412 C5.52691224,17.7208628 5.53606344,17.7429921 5.61547907,17.9131441 L5.56666667,17.773913 L5.58684276,17.7865217 L5.621719,17.7931763 L10.1386272,17.7931763 C10.1737935,17.7931763 10.2051918,17.7734046 10.2222167,17.7440016 L10.2356481,17.6939412 L10.2356481,16.5558575 C10.2356481,16.5179565 10.2160175,16.4855016 10.1872706,16.4680762 L10.1386272,16.4544082 L7.06757246,16.4544082 L6.85018116,16.2370169 L6.85018116,10.6152375 C6.85018116,10.5781504 6.83010967,10.5454242 6.80136273,10.5277275 L6.75316023,10.5137882 Z M26.4218599,10.5140097 L21.9071659,10.5140097 C21.8834098,10.5140097 21.8588408,10.5248699 21.8388462,10.5437082 C21.8197519,10.5643936 21.8101449,10.5880554 21.8101449,10.6154589 L21.8101449,10.6154589 L21.8101449,17.6941626 C21.8101449,17.7067355 21.812683,17.7190498 21.8250229,17.7494641 L21.8250229,17.7494641 L21.8987118,17.9133655 L21.8449275,17.7695652 L21.8706487,17.7861828 L21.9071659,17.7933977 L26.4218599,17.7933977 C26.4746093,17.7933977 26.5188808,17.7489113 26.5188808,17.6941626 L26.5188808,17.6941626 L26.5188808,16.5538647 C26.5188808,16.4991161 26.4746093,16.4546296 26.4218599,16.4546296 L26.4218599,16.4546296 L23.3508052,16.4546296 L23.1334138,16.2372383 L23.1334138,15.0415862 L23.3508052,14.8241948 L26.4218599,14.8241948 C26.47372,14.8241948 26.5188808,14.7783763 26.5188808,14.7227456 L26.5188808,14.7227456 L26.5188808,13.5846618 C26.5188808,13.5286972 26.4756104,13.4854267 26.4218599,13.4854267 L26.4218599,13.4854267 L23.3508052,13.4854267 L23.1334138,13.2680354 L23.1334138,12.0701691 L23.3508052,11.8527778 L26.4218599,11.8527778 C26.4756104,11.8527778 26.5188808,11.8095073 26.5188808,11.7535427 L26.5188808,11.7535427 L26.5188808,10.6154589 C26.5188808,10.5598282 26.47372,10.5140097 26.4218599,10.5140097 L26.4218599,10.5140097 Z M12.7181361,10.5144525 L11.6154791,10.5144525 C11.5666645,10.5144525 11.5251006,10.5572571 11.5251006,10.6136876 L11.5251006,10.6136876 L11.5251006,17.6946055 C11.5251006,17.7501525 11.5657653,17.7916264 11.6154791,17.7916264 L11.6154791,17.7916264 L12.7181361,17.7916264 C12.7657274,17.7916264 12.8063003,17.7500392 12.8063003,17.6946055 L12.8063003,17.6946055 L12.8063003,10.6136876 C12.8063003,10.5573766 12.7648277,10.5144525 12.7181361,10.5144525 L12.7181361,10.5144525 Z M15.3605757,10.5111541 L14.2020733,10.5144525 C14.1442267,10.5144525 14.0984098,10.5596148 14.0984098,10.6136876 L14.0984098,10.6136876 L14.0984098,17.6946055 C14.0984098,17.7477742 14.1433316,17.7916264 14.2020733,17.7916264 L14.2020733,17.7916264 L15.3622987,17.7916264 C15.4219131,17.7916264 15.4681763,17.7468908 15.4681763,17.6946055 L15.4681763,17.6946055 L15.4681763,13.4876812 L15.8592387,13.3569243 L19.1682231,17.7520255 L19.2036836,17.7819646 L19.2548108,17.7916264 L20.4150362,17.7916264 C20.4746506,17.7916264 20.5209138,17.7468908 20.5209138,17.6946055 L20.5209138,17.6946055 L20.5209138,10.6136876 C20.5209138,10.5604975 20.4737567,10.5144525 20.4150362,10.5144525 L20.4150362,10.5144525 L19.2548108,10.5144525 C19.1969642,10.5144525 19.1511473,10.5596148 19.1511473,10.6136876 L19.1511473,10.6136876 L19.1511473,14.8206119 L18.7601381,14.9514392 L15.4764945,10.5902728 L15.4337602,10.5391526 L15.457971,10.5391304 L15.3605757,10.5111541 Z" id="Combined-Shape"></path>
            </g>
        </g>
    </g>
</svg>