<?xml version="1.0" encoding="UTF-8"?>
<svg width="34px" height="35px" viewBox="0 0 34 35" version="1.1" xmlns="http://www.w3.org/2000/svg" xmlns:xlink="http://www.w3.org/1999/xlink">
    <!-- Generator: Sketch 64 (93537) - https://sketch.com -->
    <title>share_URL</title>
    <desc>Created with Sketch.</desc>
    <g id="小資振興_確認風格" stroke="none" stroke-width="1" fill="none" fill-rule="evenodd">
        <g id="小資振興_商家內容" transform="translate(-1533.000000, -868.000000)" fill="#FFFFFF" fill-rule="nonzero">
            <path d="M1538.92139,892.175781 C1540.01709,892.175781 1540.96631,891.985352 1541.76904,891.604492 C1542.57178,891.223633 1543.18555,890.675781 1543.61035,889.960938 C1544.03516,889.246094 1544.24756,888.414062 1544.24756,887.464844 L1544.24756,887.464844 L1544.24756,879.150391 L1541.53174,879.150391 L1541.53174,886.999023 C1541.53174,887.995117 1541.33105,888.726074 1540.92969,889.191895 C1540.52832,889.657715 1539.88232,889.890625 1538.9917,889.890625 C1538.07178,889.890625 1537.4126,889.65918 1537.01416,889.196289 C1536.61572,888.733398 1536.4165,888.006836 1536.4165,887.016602 L1536.4165,887.016602 L1536.4165,879.150391 L1533.70068,879.150391 L1533.70068,887.429688 C1533.70068,888.900391 1534.15771,890.059082 1535.07178,890.905762 C1535.98584,891.752441 1537.26904,892.175781 1538.92139,892.175781 Z M1550.11865,892 L1550.11865,887.069336 L1551.56885,887.069336 L1554.63623,892 L1557.65967,892 L1553.88037,886.401367 C1554.64209,886.067383 1555.23096,885.605957 1555.64697,885.01709 C1556.06299,884.428223 1556.271,883.755859 1556.271,883 C1556.271,881.705078 1555.85205,880.739746 1555.01416,880.104004 C1554.17627,879.468262 1552.88428,879.150391 1551.13818,879.150391 L1551.13818,879.150391 L1547.39404,879.150391 L1547.39404,892 L1550.11865,892 Z M1550.99756,884.854492 L1550.11865,884.854492 L1550.11865,881.382812 L1550.94482,881.382812 C1551.82373,881.382812 1552.47266,881.511719 1552.8916,881.769531 C1553.31055,882.027344 1553.52002,882.460938 1553.52002,883.070312 C1553.52002,883.685547 1553.31494,884.136719 1552.90479,884.423828 C1552.49463,884.710938 1551.85889,884.854492 1550.99756,884.854492 L1550.99756,884.854492 Z M1567.21338,892 L1567.21338,889.75 L1562.00146,889.75 L1562.00146,879.150391 L1559.27686,879.150391 L1559.27686,892 L1567.21338,892 Z" id="URL"></path>
        </g>
    </g>
</svg>