<?xml version="1.0" encoding="UTF-8"?>
<svg width="2000px" height="1527px" viewBox="0 0 2000 1527" version="1.1" xmlns="http://www.w3.org/2000/svg" xmlns:xlink="http://www.w3.org/1999/xlink">
    <!-- Generator: Sketch 64 (93537) - https://sketch.com -->
    <title>sort_default_shop</title>
    <desc>Created with Sketch.</desc>
    <defs>
        <linearGradient x1="50%" y1="108.96015%" x2="50%" y2="-49.442828%" id="linearGradient-1">
            <stop stop-color="#D2D4CD" offset="0.07202738%"></stop>
            <stop stop-color="#9DC2BC" offset="34%"></stop>
            <stop stop-color="#4596AB" offset="100%"></stop>
        </linearGradient>
        <linearGradient x1="50%" y1="108.123427%" x2="50%" y2="-301.752988%" id="linearGradient-2">
            <stop stop-color="#D2D4CD" offset="0.07202738%"></stop>
            <stop stop-color="#9DC2BC" offset="19.51%"></stop>
            <stop stop-color="#4596AB" offset="100%"></stop>
        </linearGradient>
        <linearGradient x1="50%" y1="81.2923703%" x2="50%" y2="43.287324%" id="linearGradient-3">
            <stop stop-color="#DBD8CD" offset="0%"></stop>
            <stop stop-color="#93B8B3" offset="100%"></stop>
        </linearGradient>
        <linearGradient x1="50.2062576%" y1="96.8817638%" x2="50.2062576%" y2="37.6478653%" id="linearGradient-4">
            <stop stop-color="#DBD8CD" offset="0%"></stop>
            <stop stop-color="#93B8B3" offset="99.3174719%"></stop>
            <stop stop-color="#93B8B3" offset="100%"></stop>
        </linearGradient>
        <linearGradient x1="50%" y1="115.676057%" x2="50%" y2="33.4717086%" id="linearGradient-5">
            <stop stop-color="#DBD8CD" offset="0%"></stop>
            <stop stop-color="#93B8B3" offset="100%"></stop>
        </linearGradient>
        <linearGradient x1="50%" y1="482.884699%" x2="50%" y2="21.4482261%" id="linearGradient-6">
            <stop stop-color="#DBD8CD" offset="0%"></stop>
            <stop stop-color="#93B8B3" offset="100%"></stop>
        </linearGradient>
        <linearGradient x1="49.9550519%" y1="69.9840889%" x2="50%" y2="49.14006%" id="linearGradient-7">
            <stop stop-color="#DBD8CD" offset="0%"></stop>
            <stop stop-color="#93B8B3" offset="100%"></stop>
        </linearGradient>
        <linearGradient x1="48.2666667%" y1="47.8208865%" x2="50%" y2="77.0955557%" id="linearGradient-8">
            <stop stop-color="#F2E2D0" offset="0%"></stop>
            <stop stop-color="#A0E2D0" offset="22.4442264%"></stop>
            <stop stop-color="#39A9BB" offset="70.8335004%"></stop>
            <stop stop-color="#445DCE" offset="100%"></stop>
        </linearGradient>
        <linearGradient x1="48.2666667%" y1="47.124729%" x2="50%" y2="85.7517232%" id="linearGradient-9">
            <stop stop-color="#F2E2D0" offset="0%"></stop>
            <stop stop-color="#A0E2D0" offset="22.4442264%"></stop>
            <stop stop-color="#39A9BB" offset="70.8335004%"></stop>
            <stop stop-color="#445DCE" offset="100%"></stop>
        </linearGradient>
        <linearGradient x1="48.2666667%" y1="45.6749309%" x2="50%" y2="103.778818%" id="linearGradient-10">
            <stop stop-color="#F2E2D0" offset="0%"></stop>
            <stop stop-color="#A0E2D0" offset="22.4442264%"></stop>
            <stop stop-color="#39A9BB" offset="70.8335004%"></stop>
            <stop stop-color="#445DCE" offset="100%"></stop>
        </linearGradient>
        <linearGradient x1="48.2666667%" y1="42.1268268%" x2="50%" y2="147.89669%" id="linearGradient-11">
            <stop stop-color="#F2E2D0" offset="0%"></stop>
            <stop stop-color="#A0E2D0" offset="22.4442264%"></stop>
            <stop stop-color="#39A9BB" offset="70.8335004%"></stop>
            <stop stop-color="#445DCE" offset="100%"></stop>
        </linearGradient>
        <linearGradient x1="50%" y1="0.034512448%" x2="100%" y2="915.00466%" id="linearGradient-12">
            <stop stop-color="#F2E2D0" offset="0%"></stop>
            <stop stop-color="#A0E2D0" offset="75.4479806%"></stop>
            <stop stop-color="#39A9BB" offset="90.960687%"></stop>
            <stop stop-color="#445DCE" offset="100%"></stop>
        </linearGradient>
        <circle id="path-13" cx="789.5" cy="789.5" r="789.5"></circle>
        <linearGradient x1="50%" y1="49.2404719%" x2="50%" y2="-301.752988%" id="linearGradient-15">
            <stop stop-color="#D2D4CD" offset="0.07202738%"></stop>
            <stop stop-color="#9DC2BC" offset="13.6328269%"></stop>
            <stop stop-color="#4596AB" offset="100%"></stop>
        </linearGradient>
        <linearGradient x1="50.0406174%" y1="146.517159%" x2="50.0406174%" y2="-2.14067278%" id="linearGradient-16">
            <stop stop-color="#D18CA3" offset="0%"></stop>
            <stop stop-color="#208CA3" offset="17%"></stop>
            <stop stop-color="#3C4178" offset="61%"></stop>
            <stop stop-color="#241B3C" offset="100%"></stop>
        </linearGradient>
        <linearGradient x1="56.0156556%" y1="67.4935993%" x2="56.0156556%" y2="-43.8130613%" id="linearGradient-17">
            <stop stop-color="#FF9C74" offset="0%"></stop>
            <stop stop-color="#D36564" offset="60.0574935%"></stop>
            <stop stop-color="#B2314E" offset="100%"></stop>
        </linearGradient>
        <path d="M692.906174,0 L1158.19009,0 C1168.02623,0 1176,7.9739866 1176,17.8103976 L1176,936 L393,936 L393,299.914373 C393.17529,134.348902 527.345229,0.175294452 692.906174,0 Z" id="path-18"></path>
        <linearGradient x1="50.0277325%" y1="103.625554%" x2="50.0277325%" y2="-48.5647508%" id="linearGradient-19">
            <stop stop-color="#FF9C74" offset="0%"></stop>
            <stop stop-color="#D36564" offset="67%"></stop>
            <stop stop-color="#B2314E" offset="100%"></stop>
        </linearGradient>
        <linearGradient x1="50.0313603%" y1="197.794006%" x2="50.0313603%" y2="-466.911119%" id="linearGradient-20">
            <stop stop-color="#D18CA3" offset="0%"></stop>
            <stop stop-color="#208CA3" offset="23%"></stop>
            <stop stop-color="#3C4178" offset="61%"></stop>
            <stop stop-color="#241B3C" offset="100%"></stop>
        </linearGradient>
        <linearGradient x1="42.9269231%" y1="45.6310952%" x2="83.7589744%" y2="73.5686544%" id="linearGradient-21">
            <stop stop-color="#F2E2D0" offset="0%"></stop>
            <stop stop-color="#A0E2D0" offset="34%"></stop>
            <stop stop-color="#39A9BB" offset="97%"></stop>
            <stop stop-color="#445DCE" offset="100%"></stop>
        </linearGradient>
        <linearGradient x1="42.9269231%" y1="-81.5439614%" x2="83.7589744%" y2="759.631884%" id="linearGradient-22">
            <stop stop-color="#F2E2D0" offset="0%"></stop>
            <stop stop-color="#A0E2D0" offset="34%"></stop>
            <stop stop-color="#39A9BB" offset="97%"></stop>
            <stop stop-color="#445DCE" offset="100%"></stop>
        </linearGradient>
        <circle id="path-23" cx="789.217857" cy="789.217857" r="789.217857"></circle>
        <linearGradient x1="50%" y1="50.6616112%" x2="50.2062576%" y2="48.1924452%" id="linearGradient-25">
            <stop stop-color="#DBD8CD" offset="0%"></stop>
            <stop stop-color="#93B8B3" offset="100%"></stop>
        </linearGradient>
        <linearGradient x1="50%" y1="74.9452555%" x2="50%" y2="-135.273723%" id="linearGradient-26">
            <stop stop-color="#D18CA3" offset="0%"></stop>
            <stop stop-color="#208CA3" offset="23%"></stop>
            <stop stop-color="#3C4178" offset="63%"></stop>
            <stop stop-color="#241B3C" offset="100%"></stop>
        </linearGradient>
        <linearGradient x1="50.2062576%" y1="96.8817638%" x2="50.2062576%" y2="31.5246998%" id="linearGradient-27">
            <stop stop-color="#DBD8CD" offset="0%"></stop>
            <stop stop-color="#D9D7CC" offset="8.11610473%"></stop>
            <stop stop-color="#93B8B3" offset="91.582592%"></stop>
            <stop stop-color="#93B8B3" offset="100%"></stop>
        </linearGradient>
        <linearGradient x1="50.2062576%" y1="96.8817638%" x2="50.2062576%" y2="46.7179486%" id="linearGradient-28">
            <stop stop-color="#DBD8CD" offset="0%"></stop>
            <stop stop-color="#93B8B3" offset="100%"></stop>
        </linearGradient>
        <linearGradient x1="50%" y1="-854.983726%" x2="48.2666667%" y2="5746.76667%" id="linearGradient-29">
            <stop stop-color="#F2E2D0" offset="0%"></stop>
            <stop stop-color="#A0E2D0" offset="26.3393108%"></stop>
            <stop stop-color="#39A9BB" offset="49.6382478%"></stop>
            <stop stop-color="#445DCE" offset="100%"></stop>
        </linearGradient>
        <linearGradient x1="49.9550519%" y1="152.560857%" x2="49.9550519%" y2="37.4525973%" id="linearGradient-30">
            <stop stop-color="#DBD8CD" offset="0%"></stop>
            <stop stop-color="#93B8B3" offset="100%"></stop>
        </linearGradient>
        <linearGradient x1="51.3843468%" y1="61.2196535%" x2="49.9550519%" y2="50.4206766%" id="linearGradient-31">
            <stop stop-color="#DBD8CD" offset="0%"></stop>
            <stop stop-color="#93B8B3" offset="100%"></stop>
        </linearGradient>
        <linearGradient x1="49.9550519%" y1="310.283304%" x2="49.9550519%" y2="50%" id="linearGradient-32">
            <stop stop-color="#DBD8CD" offset="0%"></stop>
            <stop stop-color="#93B8B3" offset="100%"></stop>
        </linearGradient>
        <linearGradient x1="50.36361%" y1="178.896882%" x2="50.36361%" y2="-11.2709832%" id="linearGradient-33">
            <stop stop-color="#F0FFEF" offset="2%"></stop>
            <stop stop-color="#B4D3CA" offset="54%"></stop>
            <stop stop-color="#94AAC7" offset="99%"></stop>
        </linearGradient>
        <linearGradient x1="50%" y1="41.9005846%" x2="71.2731289%" y2="115.67229%" id="linearGradient-34">
            <stop stop-color="#F2EED1" offset="0%"></stop>
            <stop stop-color="#F0ECCE" offset="33.24%"></stop>
            <stop stop-color="#E8E4C5" offset="57.08%"></stop>
            <stop stop-color="#DBD7B5" offset="77.99%"></stop>
            <stop stop-color="#C9C59F" offset="97.1%"></stop>
            <stop stop-color="#C6C29B" offset="100%"></stop>
        </linearGradient>
        <linearGradient x1="49.8813333%" y1="147.768762%" x2="49.8813333%" y2="-193.676774%" id="linearGradient-35">
            <stop stop-color="#5D83AC" offset="0%"></stop>
            <stop stop-color="#006E96" offset="100%"></stop>
        </linearGradient>
        <linearGradient x1="49.8813333%" y1="147.768762%" x2="49.8813333%" y2="-193.676774%" id="linearGradient-36">
            <stop stop-color="#5D83AC" offset="0%"></stop>
            <stop stop-color="#006E96" offset="100%"></stop>
        </linearGradient>
        <linearGradient x1="50.0277325%" y1="103.59313%" x2="50%" y2="-105.344729%" id="linearGradient-37">
            <stop stop-color="#FF9C74" offset="0%"></stop>
            <stop stop-color="#D36564" offset="67%"></stop>
            <stop stop-color="#B2314E" offset="100%"></stop>
        </linearGradient>
        <linearGradient x1="50%" y1="142.443596%" x2="50%" y2="-67.2132107%" id="linearGradient-38">
            <stop stop-color="#FF9C74" offset="0%"></stop>
            <stop stop-color="#D36564" offset="59.3763451%"></stop>
            <stop stop-color="#B2314E" offset="100%"></stop>
        </linearGradient>
        <linearGradient x1="-183.576642%" y1="-112.562934%" x2="-176.277372%" y2="297.857891%" id="linearGradient-39">
            <stop stop-color="#F0FFEF" offset="2%"></stop>
            <stop stop-color="#B4D3CA" offset="54%"></stop>
            <stop stop-color="#94AAC7" offset="99%"></stop>
        </linearGradient>
        <linearGradient x1="50.065703%" y1="309%" x2="50.065703%" y2="-223%" id="linearGradient-40">
            <stop stop-color="#F0FFEF" offset="2%"></stop>
            <stop stop-color="#B4D3CA" offset="54%"></stop>
            <stop stop-color="#94AAC7" offset="99%"></stop>
        </linearGradient>
        <linearGradient x1="50.0525844%" y1="128.506326%" x2="50.0525844%" y2="-160.99493%" id="linearGradient-41">
            <stop stop-color="#FFCBA6" offset="0%"></stop>
            <stop stop-color="#FF9274" offset="79%"></stop>
        </linearGradient>
        <linearGradient x1="49.6309963%" y1="198.50605%" x2="49.6309963%" y2="-133.074877%" id="linearGradient-42">
            <stop stop-color="#FFCBA6" offset="0%"></stop>
            <stop stop-color="#FF9274" offset="79%"></stop>
        </linearGradient>
        <linearGradient x1="-7.16666667%" y1="-62.75125%" x2="109.333333%" y2="162.037917%" id="linearGradient-43">
            <stop stop-color="#D18CA3" offset="0%"></stop>
            <stop stop-color="#208CA3" offset="6%"></stop>
            <stop stop-color="#3C4178" offset="58%"></stop>
            <stop stop-color="#241B3C" offset="100%"></stop>
        </linearGradient>
        <path d="M663.172688,282.982765 L789.33233,282.982765 C793.839448,282.982765 798.161966,284.773211 801.348979,287.960224 C804.535992,291.147237 806.326438,295.469755 806.326438,299.976872 L806.326438,346.638658 C806.326438,362.546431 793.430639,375.44223 777.522866,375.44223 L662.30858,375.44223 C646.400807,375.44223 633.505009,362.546431 633.505009,346.638658 L633.505009,312.074372 C633.505009,296.166599 646.400807,283.270801 662.30858,283.270801 L663.172688,282.982765 Z" id="path-44"></path>
        <linearGradient x1="-32.4723247%" y1="-247.416974%" x2="131.918819%" y2="346.125461%" id="linearGradient-45">
            <stop stop-color="#F0FFEF" offset="2%"></stop>
            <stop stop-color="#B4D3CA" offset="54%"></stop>
            <stop stop-color="#94AAC7" offset="99%"></stop>
        </linearGradient>
        <linearGradient x1="50.3061198%" y1="144.504021%" x2="50.3061198%" y2="-163.806971%" id="linearGradient-46">
            <stop stop-color="#FFCBA6" offset="0%"></stop>
            <stop stop-color="#FF9274" offset="79%"></stop>
        </linearGradient>
        <linearGradient x1="50%" y1="-73%" x2="50%" y2="395.75%" id="linearGradient-47">
            <stop stop-color="#F0FFEF" offset="2%"></stop>
            <stop stop-color="#B4D3CA" offset="54%"></stop>
            <stop stop-color="#94AAC7" offset="99%"></stop>
        </linearGradient>
        <linearGradient x1="49.75%" y1="104%" x2="49.75%" y2="-58.25%" id="linearGradient-48">
            <stop stop-color="#F0FFEF" offset="2%"></stop>
            <stop stop-color="#B4D3CA" offset="54%"></stop>
            <stop stop-color="#94AAC7" offset="99%"></stop>
        </linearGradient>
        <linearGradient x1="50.0007307%" y1="152.654978%" x2="50.0007307%" y2="-887.985561%" id="linearGradient-49">
            <stop stop-color="#F2E2D0" offset="0%"></stop>
            <stop stop-color="#A0E2D0" offset="25.9033966%"></stop>
            <stop stop-color="#39A9BB" offset="97%"></stop>
            <stop stop-color="#445DCE" offset="100%"></stop>
        </linearGradient>
        <linearGradient x1="50%" y1="131.752564%" x2="50%" y2="-1004.75%" id="linearGradient-50">
            <stop stop-color="#F2E2D0" offset="0%"></stop>
            <stop stop-color="#A0E2D0" offset="20.5474759%"></stop>
            <stop stop-color="#39A9BB" offset="97%"></stop>
            <stop stop-color="#445DCE" offset="100%"></stop>
        </linearGradient>
        <linearGradient x1="50.0672854%" y1="105.081506%" x2="50.0610929%" y2="-410.792853%" id="linearGradient-51">
            <stop stop-color="#F2E2D0" offset="0%"></stop>
            <stop stop-color="#A0E2D0" offset="27.3958625%"></stop>
            <stop stop-color="#39A9BB" offset="97%"></stop>
            <stop stop-color="#445DCE" offset="100%"></stop>
        </linearGradient>
    </defs>
    <g id="sort_default_shop" stroke="none" stroke-width="1" fill="none" fill-rule="evenodd">
        <rect id="Rectangle" fill="url(#linearGradient-1)" fill-rule="nonzero" x="0" y="0" width="2000" height="1527"></rect>
        <rect id="Rectangle" fill="url(#linearGradient-2)" fill-rule="nonzero" x="0" y="1407" width="2000" height="120"></rect>
        <g id="visit-shopping-malls" transform="translate(213.000000, 1.000000)">
            <g id="Layer_3" transform="translate(2.000000, 0.000000)" fill-rule="nonzero">
                <ellipse id="Oval" fill="url(#linearGradient-3)" cx="788.882527" cy="788.786811" rx="788.651343" ry="788.633985"></ellipse>
                <path d="M1558.53716,959.465626 L1425.27235,959.465626 C1400.00481,959.465626 1375.77216,969.502897 1357.90531,987.369355 C1340.03846,1005.23581 1330.00097,1029.46793 1330.00097,1054.73491 L1330.00097,1095.60573 L1193.28221,1095.60573 L1193.28221,1266.57236 L430.535475,1266.57236 L430.535475,1160.65364 L213.512441,1160.65364 L213.512441,1061.06701 C213.512441,1049.23504 208.812105,1037.88767 200.445453,1029.52121 C192.078801,1021.15474 180.731186,1016.45451 168.898953,1016.45451 L117.953227,1016.45451 L117.953227,882.329163 L5.98776303,882.329163 C51.1021258,1264.45322 365.487252,1558.18407 749.799709,1577.27461 C1134.11217,1596.36515 1476.06085,1335.23738 1558.82499,959.465626 L1558.53716,959.465626 Z" id="Path" fill="url(#linearGradient-4)"></path>
                <path d="M1474.20327,397.92369 L1385.26413,439.370148 C1339.1004,462.308043 1285.04268,463.154329 1238.18353,441.672729 C1199.97161,422.622177 1155.16877,421.986689 1116.43188,439.945793 L991.226284,497.510317 C939.946788,521.373873 880.745906,521.373873 829.46641,497.510317 L829.46641,497.510317 C797.976937,482.906542 761.654892,482.906542 730.16542,497.510317 L684.688444,518.521369 C626.107665,545.774139 558.483033,545.774139 499.902254,518.521369 L374.984486,460.956844 C344.391564,446.849937 309.154708,446.849937 278.561786,460.956844 L178.685131,507.296287 C156.422781,517.663028 130.717228,517.663028 108.454872,507.296287 L61.2509228,485.421767 C29.3296735,562.438947 9.89698523,644.054441 3.68513137,727.19277 L108.742701,776.122616 C131.005057,786.489357 156.71061,786.489357 178.972966,776.122616 L278.561786,731.222287 C309.154708,717.11538 344.391564,717.11538 374.984486,731.222287 L499.902254,788.786811 C558.483033,816.039581 626.107665,816.039581 684.688444,788.786811 L730.16542,767.487937 C761.654892,752.884161 797.976937,752.884161 829.46641,767.487937 L885.305228,793.391973 C901.180052,800.788219 919.512642,800.788219 935.387466,793.391973 L1115.85622,709.63559 C1152.0607,691.941299 1194.26889,691.308191 1230.98781,707.908654 C1279.11052,731.408073 1335.26828,731.936854 1383.82498,709.347767 L1498.95656,656.100582 C1519.58765,646.512443 1540.72653,638.057079 1562.27894,630.772192 C1545.52823,548.955187 1515.79382,470.345364 1474.20327,397.92369 Z" id="Path" fill="url(#linearGradient-5)"></path>
                <path d="M1475.64242,400.226271 C1430.62618,320.753301 1372.19865,249.668043 1302.94504,190.115757 C1278.90919,189.226613 1255.30667,183.44853 1233.57827,173.134222 C1194.7744,156.117729 1150.44346,157.0654 1112.40227,175.724626 L991.514113,233.28915 C940.234617,257.152706 881.033735,257.152706 829.754239,233.28915 L829.754239,233.28915 C798.264766,218.685374 761.942721,218.685374 730.453249,233.28915 L684.976273,254.588024 C626.395494,281.840794 558.770862,281.840794 500.190083,254.588024 L375.272315,197.0235 C344.679393,182.916593 309.442537,182.916593 278.849615,197.0235 L261.292048,205.082533 C173.76692,283.776414 104.930057,381.030927 59.811778,489.739107 L107.879214,512.189271 C130.14157,522.556012 155.847123,522.556012 178.109479,512.189271 L277.986128,465.849829 C308.57905,451.742922 343.815906,451.742922 374.408828,465.849829 L499.326596,523.414353 C557.907376,550.667124 625.532007,550.667124 684.112786,523.414353 L730.16542,500.964189 C761.654892,486.360413 797.976937,486.360413 829.46641,500.964189 L829.46641,500.964189 C880.745906,524.827745 939.946788,524.827745 991.226284,500.964189 L1115.85622,443.399664 C1152.0607,425.705374 1194.26889,425.072265 1230.98781,441.672729 C1279.11052,465.172148 1335.26828,465.700929 1383.82498,443.111842 L1475.64242,400.226271 Z" id="Path" fill="url(#linearGradient-6)"></path>
                <path d="M789.458185,0.152314198 C591.318293,-0.0732217935 400.407522,74.5623029 254.959811,209.11205 L278.561786,198.17479 C309.154708,184.067883 344.391564,184.067883 374.984486,198.17479 L499.902254,255.739315 C558.483033,282.992085 626.107665,282.992085 684.688444,255.739315 L730.16542,234.728263 C761.654892,220.124488 797.976937,220.124488 829.46641,234.728263 L829.46641,234.728263 C880.745906,258.591819 939.946788,258.591819 991.226284,234.728263 L1116.43188,177.163739 C1153.84331,159.759445 1197.03032,159.759445 1234.44175,177.163739 C1256.9228,187.579869 1281.33745,193.168641 1306.11116,193.569628 C1162.95715,68.7302939 979.401856,0.0136133919 789.458185,0.152314198 Z" id="Path" fill="url(#linearGradient-7)"></path>
                <path d="M1402.53386,1050.12975 C1397.92392,1050.12975 1394.18682,1053.86677 1394.18682,1058.47661 C1394.18682,1063.08645 1397.92392,1066.82346 1402.53386,1066.82346 L1526.01249,1066.82346 L1532.05689,1050.12975 L1402.53386,1050.12975 Z" id="Path" fill="url(#linearGradient-8)"></path>
                <path d="M1402.53386,1097.04484 C1397.92392,1097.04484 1394.18682,1100.78185 1394.18682,1105.3917 C1394.18682,1110.00154 1397.92392,1113.73855 1402.53386,1113.73855 L1506.44012,1113.73855 C1509.03058,1107.9821 1511.62104,1102.51347 1514.2115,1097.04484 L1402.53386,1097.04484 Z" id="Path" fill="url(#linearGradient-9)"></path>
                <path d="M1402.53386,1143.6721 C1397.92392,1143.6721 1394.18682,1147.40912 1394.18682,1152.01896 C1394.18682,1156.6288 1397.92392,1160.36582 1402.53386,1160.36582 L1482.83814,1160.36582 C1485.71643,1154.60936 1489.17038,1149.14073 1492.04867,1143.6721 L1402.53386,1143.6721 Z" id="Path" fill="url(#linearGradient-10)"></path>
                <path d="M1402.53386,1191.73848 C1397.92392,1191.73848 1394.18682,1195.4755 1394.18682,1200.08534 C1394.18682,1204.69518 1397.92392,1208.43219 1402.53386,1208.43219 L1456.93354,1208.43219 C1460.38748,1202.96356 1463.26577,1197.20711 1466.71972,1191.73848 L1402.53386,1191.73848 Z" id="Path" fill="url(#linearGradient-11)"></path>
            </g>
            <g id="Group" transform="translate(130.078352, 1060.886984)" fill="url(#linearGradient-12)" fill-rule="nonzero">
                <rect id="Rectangle" x="-4.4408921e-14" y="-1.77635684e-15" width="12.0868248" height="12.0826526"></rect>
                <rect id="Rectangle" x="21.0080527" y="-1.77635684e-15" width="12.0868248" height="12.0826526"></rect>
                <rect id="Rectangle" x="42.3038869" y="-1.77635684e-15" width="12.0868248" height="12.0826526"></rect>
                <rect id="Rectangle" x="-4.4408921e-14" y="20.7131188" width="12.0868248" height="12.0826526"></rect>
                <rect id="Rectangle" x="21.0080527" y="20.7131188" width="12.0868248" height="12.0826526"></rect>
                <rect id="Rectangle" x="42.3038869" y="20.7131188" width="12.0868248" height="12.0826526"></rect>
                <rect id="Rectangle" x="21.0080527" y="41.4262377" width="12.0868248" height="12.0826526"></rect>
                <rect id="Rectangle" x="42.3038869" y="41.4262377" width="12.0868248" height="12.0826526"></rect>
                <rect id="Rectangle" x="21.0080527" y="62.1393565" width="12.0868248" height="12.0826526"></rect>
                <rect id="Rectangle" x="42.3038869" y="62.1393565" width="12.0868248" height="12.0826526"></rect>
                <rect id="Rectangle" x="21.0080527" y="82.8524753" width="12.0868248" height="12.0826526"></rect>
                <rect id="Rectangle" x="42.3038869" y="82.8524753" width="12.0868248" height="12.0826526"></rect>
                <rect id="Rectangle" x="42.3038869" y="103.565594" width="12.0868248" height="12.0826526"></rect>
                <rect id="Rectangle" x="42.3038869" y="124.278713" width="12.0868248" height="12.0826526"></rect>
            </g>
            <g id="Layer_2">
                <mask id="mask-14" fill="white">
                    <use xlink:href="#path-13"></use>
                </mask>
                <g id="Mask"></g>
                <g mask="url(#mask-14)" fill-rule="nonzero">
                    <g transform="translate(130.000000, 450.000000)">
                        <path d="M0,956 C165.318951,1160.90474 414.353012,1280 677.5,1280 C940.646988,1280 1189.68105,1160.90474 1355,956 L0,956 Z" id="Path" fill="url(#linearGradient-15)"></path>
                        <path d="M383.666985,1228.4245 C649.903906,1324.39947 946.155951,1284.92028 1178,1122.56994 L1178,956 L180,956 C180.018493,1000.0014 197.504765,1042.19386 228.613181,1073.2983 L383.666985,1228.4245 Z" id="Path" fill="#000000" opacity="0.0715448289"></path>
                        <g id="Path" fill="none">
                            <use fill="url(#linearGradient-16)" xlink:href="#path-18"></use>
                            <use fill="url(#linearGradient-17)" xlink:href="#path-18"></use>
                        </g>
                        <path d="M178,376.913686 L178,956 L1175,956 L1175,880.314913 C1175.14657,681.432068 1039.42891,508.205951 846.374482,460.866891 L255.230147,316.492819 C236.708445,312.405915 217.330373,316.808473 202.388791,328.497993 C187.447208,340.187513 178.50331,357.942598 178,376.913686 Z" id="Path" fill="url(#linearGradient-19)"></path>
                        <path d="M713.976341,763 C722.273679,763 729,769.730829 729,778.033365 L729,956.000097 L625.054567,956.000097 L625.054567,779.312775 C624.695704,775.109135 626.11866,770.948069 628.975972,767.845639 C631.833284,764.743209 635.861946,762.984984 640.078226,763 L713.976341,763 Z" id="Path" fill="url(#linearGradient-20)"></path>
                        <path d="M760.384929,1275.54858 C774.364562,1275.54858 788.026477,1272.68695 802.00611,1270.7792 L825.199593,1266.96369 C837.90835,1264.73798 850.617108,1262.19431 863.325866,1259.33268 L886.201629,1254.24534 C901.13442,1250.42983 915.431772,1246.29637 930.046843,1241.84495 L958.00611,1232.62414 C971.032587,1228.17272 984.059063,1223.40334 997.08554,1218.316 L1022.50305,1207.5054 L1051.41548,1194.46909 L1076.83299,1181.75074 L1087,1176.34544 L720.670061,956 L634.250509,956 L307,1153.13445 L381.663951,1227.85476 L395.961303,1232.9421 C409.940937,1237.81747 424.132383,1242.26889 438.535642,1246.29637 L458.234216,1252.01963 C479.415479,1257.31894 500.596741,1261.87635 521.778004,1265.69185 L539.252546,1268.55348 C556.197556,1271.30913 573.248473,1273.53484 590.405295,1275.23062 L610.10387,1277.13837 C632.661914,1279.04612 655.537678,1280 678.731161,1280 C701.924644,1280 720.670061,1280 742.274949,1277.45633 L760.384929,1275.54858 Z" id="Path" fill="#FFFFFF" opacity="0.168875558"></path>
                        <path d="M179,627 L373.632046,627 C380.551549,627 386.945434,623.283322 390.405186,617.25 C393.864938,611.216679 393.864938,603.783321 390.405186,597.75 C386.945434,591.716678 380.551549,588 373.632046,588 L179,588 L179,627 Z" id="Path" fill="url(#linearGradient-21)"></path>
                        <path d="M179,737 L373.632047,737 C384.328672,737 393,728.269553 393,717.5 C393,706.730447 384.328672,698 373.632047,698 L179,698 L179,737 Z" id="Path" fill="url(#linearGradient-21)"></path>
                        <circle id="Oval" fill="url(#linearGradient-22)" cx="679" cy="276" r="24"></circle>
                        <circle id="Oval" fill="url(#linearGradient-22)" cx="774" cy="276" r="24"></circle>
                        <circle id="Oval" fill="url(#linearGradient-22)" cx="869" cy="276" r="24"></circle>
                        <circle id="Oval" fill="url(#linearGradient-22)" cx="964" cy="276" r="24"></circle>
                        <circle id="Oval" fill="url(#linearGradient-22)" cx="1059" cy="276" r="24"></circle>
                        <circle id="Oval" fill="url(#linearGradient-22)" cx="679" cy="161" r="24"></circle>
                        <circle id="Oval" fill="url(#linearGradient-22)" cx="774" cy="161" r="24"></circle>
                        <circle id="Oval" fill="url(#linearGradient-22)" cx="869" cy="161" r="24"></circle>
                        <circle id="Oval" fill="url(#linearGradient-22)" cx="964" cy="161" r="24"></circle>
                        <circle id="Oval" fill="url(#linearGradient-22)" cx="1059" cy="161" r="24"></circle>
                    </g>
                </g>
            </g>
            <g id="Group-2" transform="translate(147.000000, 138.000000)" fill="#F2E2D0" fill-rule="nonzero">
                <path d="M1227.38828,473.524911 C1241.85158,473.524911 1253.5764,485.245685 1253.5764,499.703992 C1253.5764,485.245685 1265.30122,473.524911 1279.76452,473.524911 C1265.30122,473.524911 1253.5764,461.804137 1253.5764,447.34583 C1253.5764,461.804137 1241.85158,473.524911 1227.38828,473.524911 Z" id="Path"></path>
                <path d="M-1.77635684e-14,533.075128 C14.4632996,533.075128 26.1881205,544.795901 26.1881205,559.254208 C26.1881205,544.795901 37.9129414,533.075128 52.3762409,533.075128 C37.9129414,533.075128 26.1881205,521.354354 26.1881205,506.896047 C26.1881205,521.354354 14.4632996,533.075128 -1.77635684e-14,533.075128 L-1.77635684e-14,533.075128 Z" id="Path"></path>
                <path d="M705.064782,26.1790807 C719.528081,26.1790807 731.252902,37.8998544 731.252902,52.3581615 C731.252902,37.8998544 742.977723,26.1790807 757.441023,26.1790807 C742.977723,26.1790807 731.252902,14.4583071 731.252902,-6.75015599e-14 C731.252902,14.4583071 719.528081,26.1790807 705.064782,26.1790807 L705.064782,26.1790807 Z" id="Path"></path>
                <path d="M1033.13574,229.5704 C1040.6058,229.5704 1046.66147,235.623987 1046.66147,243.091464 C1046.66147,235.623987 1052.71715,229.5704 1060.18721,229.5704 C1056.59996,229.5704 1053.15964,228.145864 1050.62307,225.610172 C1048.0865,223.074481 1046.66147,219.635346 1046.66147,216.049337 C1046.66147,219.635346 1045.23645,223.074481 1042.69988,225.610172 C1040.16331,228.145864 1036.72299,229.5704 1033.13574,229.5704 L1033.13574,229.5704 Z" id="Path"></path>
                <path d="M228.210764,216.624701 C235.68082,216.624701 241.736497,222.678287 241.736497,230.145765 C241.736497,222.678287 247.792173,216.624701 255.262229,216.624701 C247.792173,216.624701 241.736497,210.571115 241.736497,203.103637 C241.736497,210.571115 235.68082,216.624701 228.210764,216.624701 L228.210764,216.624701 Z" id="Path"></path>
                <path d="M749.095358,229.282718 C756.565414,229.282718 762.62109,235.336305 762.62109,242.803782 C762.62109,235.336305 768.676767,229.282718 776.146823,229.282718 C768.676767,229.282718 762.62109,223.229132 762.62109,215.761654 C762.62109,223.229132 756.565414,229.282718 749.095358,229.282718 L749.095358,229.282718 Z" id="Path"></path>
                <path d="M1183.06993,696.190938 C1190.53998,696.190938 1196.59566,702.244525 1196.59566,709.712002 C1196.59566,702.244525 1202.65133,696.190938 1210.12139,696.190938 C1202.65133,696.190938 1196.59566,690.137352 1196.59566,682.669875 C1196.59566,690.137352 1190.53998,696.190938 1183.06993,696.190938 L1183.06993,696.190938 Z" id="Path"></path>
                <path d="M394.548496,306.093867 C402.018552,306.093867 408.074229,312.147454 408.074229,319.614931 C408.074229,312.147454 414.129905,306.093867 421.599961,306.093867 C414.129905,306.093867 408.074229,300.040281 408.074229,292.572803 C408.074229,300.040281 402.018552,306.093867 394.548496,306.093867 L394.548496,306.093867 Z" id="Path"></path>
                <path d="M495.847599,72.7835981 C503.317655,72.7835981 509.373332,78.8371845 509.373332,86.3046618 C509.373332,78.8371845 515.429009,72.7835981 522.899065,72.7835981 C519.311817,72.7835981 515.871494,71.3590616 513.334927,68.8233702 C510.79836,66.2876789 509.373332,62.8485435 509.373332,59.2625344 C509.373332,66.7300117 503.317655,72.7835981 495.847599,72.7835981 L495.847599,72.7835981 Z" id="Path"></path>
            </g>
        </g>
        <g id="Shop" transform="translate(213.000000, 1.000000)">
            <g id="Layer_3">
                <g id="Path" transform="translate(0.282143, 0.282143)">
                    <mask id="mask-24" fill="white">
                        <use xlink:href="#path-23"></use>
                    </mask>
                    <g id="Mask" fill-rule="nonzero"></g>
                    <path d="M192.983929,1405.71786 C342.782934,1578.74284 560.356792,1678.16107 789.217857,1678.16107 C1018.07892,1678.16107 1235.65278,1578.74284 1385.45179,1405.71786 L192.983929,1405.71786 Z" fill="url(#linearGradient-25)" fill-rule="nonzero" mask="url(#mask-24)"></path>
                </g>
                <circle id="Oval" fill="url(#linearGradient-26)" fill-rule="nonzero" cx="789.5" cy="789.5" r="789.217857"></circle>
                <circle id="Oval" fill="url(#linearGradient-27)" fill-rule="nonzero" cx="789.5" cy="789.5" r="789.217857"></circle>
                <path d="M1380.54929,836.737857 L1380.54929,912.203214 L1294.13857,912.203214 C1278.2308,912.203214 1265.335,925.099012 1265.335,941.006786 L1265.335,1135.14286 L1167.69089,1135.14286 L1167.69089,1083.29643 L706.83375,1083.29643 L706.83375,983.348036 L559.071429,983.348036 C477.464552,983.348036 411.309107,1049.50348 411.309107,1131.11036 L411.309107,1135.14286 L311.936786,1135.14286 L311.936786,933.517857 C311.936786,921.905183 302.522853,912.49125 290.910179,912.49125 L198.450714,912.49125 L198.450714,866.693571 C198.450714,834.878025 172.659118,809.086429 140.843571,809.086429 L0.858214286,809.086429 C12.4067094,1236.34174 362.088643,1576.69966 789.5,1576.69966 C1216.91136,1576.69966 1566.59329,1236.34174 1578.14179,809.086429 L1408.20071,809.086429 C1393.1803,809.676137 1381.13899,821.717438 1380.54929,836.737857 Z" id="Path" fill="url(#linearGradient-28)" fill-rule="nonzero"></path>
                <g id="Group-4" transform="translate(157.837679, 975.283036)" fill="url(#linearGradient-29)" fill-rule="nonzero">
                    <rect id="Rectangle" transform="translate(1234.521071, 10.369286) rotate(180.000000) translate(-1234.521071, -10.369286) " x="1225.01589" y="0.864107143" width="19.0103571" height="19.0103571"></rect>
                    <rect id="Rectangle" transform="translate(1201.108929, 10.369286) rotate(180.000000) translate(-1201.108929, -10.369286) " x="1191.60375" y="0.864107143" width="19.0103571" height="19.0103571"></rect>
                    <rect id="Rectangle" transform="translate(1167.696786, 10.369286) rotate(180.000000) translate(-1167.696786, -10.369286) " x="1158.19161" y="0.864107143" width="19.0103571" height="19.0103571"></rect>
                    <rect id="Rectangle" transform="translate(1234.521071, 43.493393) rotate(180.000000) translate(-1234.521071, -43.493393) " x="1225.01589" y="33.9882143" width="19.0103571" height="19.0103571"></rect>
                    <rect id="Rectangle" transform="translate(1201.108929, 43.493393) rotate(180.000000) translate(-1201.108929, -43.493393) " x="1191.60375" y="33.9882143" width="19.0103571" height="19.0103571"></rect>
                    <rect id="Rectangle" transform="translate(1167.696786, 43.493393) rotate(180.000000) translate(-1167.696786, -43.493393) " x="1158.19161" y="33.9882143" width="19.0103571" height="19.0103571"></rect>
                    <rect id="Rectangle" transform="translate(1201.108929, 76.329464) rotate(180.000000) translate(-1201.108929, -76.329464) " x="1191.60375" y="66.8242857" width="19.0103571" height="19.0103571"></rect>
                    <rect id="Rectangle" transform="translate(1167.696786, 76.329464) rotate(180.000000) translate(-1167.696786, -76.329464) " x="1158.19161" y="66.8242857" width="19.0103571" height="19.0103571"></rect>
                    <rect id="Rectangle" transform="translate(1201.108929, 109.453571) rotate(180.000000) translate(-1201.108929, -109.453571) " x="1191.60375" y="99.9483929" width="19.0103571" height="19.0103571"></rect>
                    <rect id="Rectangle" transform="translate(1167.696786, 109.453571) rotate(180.000000) translate(-1167.696786, -109.453571) " x="1158.19161" y="99.9483929" width="19.0103571" height="19.0103571"></rect>
                    <rect id="Rectangle" transform="translate(1201.108929, 142.001607) rotate(180.000000) translate(-1201.108929, -142.001607) " x="1191.60375" y="132.496429" width="19.0103571" height="19.0103571"></rect>
                    <rect id="Rectangle" transform="translate(1167.696786, 142.001607) rotate(180.000000) translate(-1167.696786, -142.001607) " x="1158.19161" y="132.496429" width="19.0103571" height="19.0103571"></rect>
                    <rect id="Rectangle" transform="translate(1167.696786, 175.125714) rotate(180.000000) translate(-1167.696786, -175.125714) " x="1158.19161" y="165.620536" width="19.0103571" height="19.0103571"></rect>
                    <rect id="Rectangle" transform="translate(1167.696786, 207.961786) rotate(180.000000) translate(-1167.696786, -207.961786) " x="1158.19161" y="198.456607" width="19.0103571" height="19.0103571"></rect>
                    <rect id="Rectangle" x="-1.0658141e-13" y="1.20792265e-13" width="21.3146429" height="21.3146429"></rect>
                    <rect id="Rectangle" x="37.7326786" y="1.20792265e-13" width="21.3146429" height="21.3146429"></rect>
                    <rect id="Rectangle" x="75.4653571" y="1.20792265e-13" width="21.3146429" height="21.3146429"></rect>
                    <rect id="Rectangle" x="-1.0658141e-13" y="36.8685714" width="21.3146429" height="21.3146429"></rect>
                    <rect id="Rectangle" x="37.7326786" y="36.8685714" width="21.3146429" height="21.3146429"></rect>
                    <rect id="Rectangle" x="75.4653571" y="36.8685714" width="21.3146429" height="21.3146429"></rect>
                    <rect id="Rectangle" x="37.7326786" y="74.0251786" width="21.3146429" height="21.3146429"></rect>
                    <rect id="Rectangle" x="75.4653571" y="74.0251786" width="21.3146429" height="21.3146429"></rect>
                    <rect id="Rectangle" x="37.7326786" y="110.89375" width="21.3146429" height="21.3146429"></rect>
                    <rect id="Rectangle" x="75.4653571" y="110.89375" width="21.3146429" height="21.3146429"></rect>
                    <rect id="Rectangle" x="37.7326786" y="147.762321" width="21.3146429" height="21.3146429"></rect>
                    <rect id="Rectangle" x="75.4653571" y="147.762321" width="21.3146429" height="21.3146429"></rect>
                    <rect id="Rectangle" x="75.4653571" y="184.918929" width="21.3146429" height="21.3146429"></rect>
                    <rect id="Rectangle" x="75.4653571" y="221.7875" width="21.3146429" height="21.3146429"></rect>
                </g>
                <path d="M1475.025,398.3475 L1386.02196,439.824643 C1339.82508,462.77952 1285.72852,463.626433 1238.83571,442.128929 C1200.59635,423.064272 1155.76132,422.428314 1116.99661,440.400714 L991.125,498.583929 C939.808668,522.465152 880.56526,522.465152 829.248929,498.583929 L829.248929,498.583929 C797.736836,483.969341 761.3887,483.969341 729.876607,498.583929 L684.366964,519.610536 C625.744104,546.883483 558.070896,546.883483 499.448036,519.610536 L374.440536,462.003393 C343.825637,447.886042 308.56347,447.886042 277.948571,462.003393 L178.000179,508.377143 C155.72183,518.751559 129.997812,518.751559 107.719464,508.377143 L60.4816071,486.486429 C28.5374277,563.560628 9.09078032,645.236547 2.87446429,728.436429 L108.0075,777.4025 C130.285848,787.776916 156.009866,787.776916 178.288214,777.4025 L278.524643,731.892857 C309.139541,717.775506 344.401709,717.775506 375.016607,731.892857 L500.024107,789.5 C558.646967,816.772947 626.320176,816.772947 684.943036,789.5 L730.452679,768.185357 C761.964771,753.570769 798.312907,753.570769 829.825,768.185357 L885.703929,794.108571 C901.590156,801.510293 919.935915,801.510293 935.822143,794.108571 L1116.42054,710.290179 C1152.65102,692.582788 1194.88953,691.94921 1231.63482,708.561964 C1279.79211,732.078781 1335.9902,732.607954 1384.58179,710.002143 L1499.79607,656.715536 C1520.44152,647.119246 1541.59564,638.657599 1563.16393,631.368393 C1546.40119,549.490815 1516.64542,470.822792 1475.025,398.3475 L1475.025,398.3475 Z" id="Path" fill="url(#linearGradient-30)" fill-rule="nonzero"></path>
                <path d="M1476.46518,400.651786 C1431.4166,321.119977 1372.9471,249.982091 1303.64375,190.385714 C1279.59063,189.495913 1255.97115,183.713552 1234.22714,173.391607 C1195.3954,156.362515 1151.03262,157.310888 1112.96411,175.983929 L991.989107,233.591071 C940.672775,257.472295 881.429368,257.472295 830.113036,233.591071 L830.113036,233.591071 C798.600943,218.976484 762.252807,218.976484 730.740714,233.591071 L685.231071,254.905714 C626.608211,282.178661 558.935003,282.178661 500.312143,254.905714 L375.304643,197.298571 C344.689744,183.18122 309.427577,183.18122 278.812679,197.298571 L261.2425,205.363571 C173.654499,284.115714 104.768189,381.44223 59.6175,490.230893 L107.719464,512.697679 C129.997812,523.072095 155.72183,523.072095 178.000179,512.697679 L277.948571,466.323929 C308.56347,452.206577 343.825637,452.206577 374.440536,466.323929 L499.448036,523.931071 C558.070896,551.204018 625.744104,551.204018 684.366964,523.931071 L730.164643,501.464286 C761.676735,486.849698 798.024872,486.849698 829.536964,501.464286 L829.536964,501.464286 C880.772326,525.256243 939.889638,525.256243 991.125,501.464286 L1115.84446,443.857143 C1152.07495,426.149752 1194.31346,425.516175 1231.05875,442.128929 C1279.21604,465.645746 1335.41413,466.174918 1384.00571,443.569107 L1476.46518,400.651786 Z" id="Path" fill="url(#linearGradient-31)" fill-rule="nonzero"></path>
                <path d="M789.5,0.281630505 C591.217778,0.0559275359 400.169869,74.7467093 254.617679,209.396071 L278.236607,198.450714 C308.851506,184.333363 344.113673,184.333363 374.728571,198.450714 L499.736071,256.057857 C558.358932,283.330804 626.03214,283.330804 684.655,256.057857 L730.164643,235.03125 C761.676735,220.416662 798.024872,220.416662 829.536964,235.03125 L829.536964,235.03125 C880.853296,258.912473 940.096704,258.912473 991.413036,235.03125 L1116.70857,177.424107 C1154.14687,160.006928 1197.36491,160.006928 1234.80321,177.424107 C1257.30041,187.847949 1281.73259,193.440859 1306.52411,193.842143 C1163.26726,68.9103826 979.580114,0.142827011 789.5,0.281630505 L789.5,0.281630505 Z" id="Path" fill="url(#linearGradient-32)" fill-rule="nonzero"></path>
                <path d="M925.452857,830.113036 C912.567561,830.113036 902.121964,819.667439 902.121964,806.782143 L902.121964,647.498393 C901.969785,640.881188 896.641669,635.553072 890.024464,635.400893 L688.399464,635.400893 C681.782259,635.553072 676.454144,640.881188 676.301964,647.498393 L676.301964,806.782143 C674.983594,818.59247 664.998772,827.524718 653.115089,827.524718 C641.231406,827.524718 631.246584,818.59247 629.928214,806.782143 L629.928214,647.498393 C629.928214,615.682846 655.719811,589.89125 687.535357,589.89125 L889.160357,589.89125 C920.975904,589.89125 946.767666,615.682846 946.767666,647.498393 L946.767666,806.782143 C946.812901,818.919426 937.544825,829.064212 925.452857,830.113036 Z" id="Path" fill="url(#linearGradient-33)" fill-rule="nonzero"></path>
                <path d="M1013.87982,1489.13911 L565.120179,1489.13911 C556.954718,1489.17969 549.155598,1485.75295 543.662846,1479.71092 C538.170094,1473.66889 535.499948,1465.57944 536.316607,1457.45482 L572.033036,1087.32893 C573.378248,1072.44141 585.888556,1061.05703 600.836607,1061.11744 L978.163393,1061.11744 C993.111444,1061.05703 1005.62175,1072.44141 1006.96696,1087.32893 L1042.68339,1457.45482 C1043.50005,1465.57944 1040.82991,1473.66889 1035.33715,1479.71092 C1029.8444,1485.75295 1022.04528,1489.17969 1013.87982,1489.13911 L1013.87982,1489.13911 Z" id="Path" fill="url(#linearGradient-34)" fill-rule="nonzero"></path>
                <path d="M818.303571,1489.13911 L1013.30375,1489.13911 C1021.46921,1489.17969 1029.26833,1485.75295 1034.76108,1479.71092 C1040.25384,1473.66889 1042.92398,1465.57944 1042.10732,1457.45482 L1006.96696,1087.32893 C1005.62175,1072.44141 993.111444,1061.05703 978.163393,1061.11744 L600.836607,1061.11744 C585.888556,1061.05703 573.378248,1072.44141 572.033036,1087.32893 L572.033036,1087.32893 C571.81971,1089.90496 572.770804,1092.44121 574.625357,1094.24179 L747.446786,1267.06321 C777.109287,1296.6949 793.789736,1336.89375 793.820536,1378.82107 L793.820536,1465.23179 C795.164936,1478.05423 805.452754,1488.09998 818.303571,1489.13911 Z" id="Path" fill="#E1DEB4" fill-rule="nonzero"></path>
                <path d="M1068.60661,1429.22732 L510.393393,1429.22732 C500.264375,1429.19308 490.618301,1424.89381 483.821134,1417.38404 C477.023967,1409.87427 473.704515,1399.84872 474.676964,1389.76643 L519.034464,928.909286 C520.810295,910.495381 536.251662,896.423813 554.750893,896.36125 L1024.24911,896.36125 C1042.74834,896.423813 1058.18971,910.495381 1059.96554,928.909286 L1104.32304,1389.76643 C1105.29548,1399.84872 1101.97603,1409.87427 1095.17887,1417.38404 C1088.3817,1424.89381 1078.73562,1429.19308 1068.60661,1429.22732 Z" id="Path" fill="url(#linearGradient-35)" fill-rule="nonzero"></path>
                <path d="M826.080536,1429.22732 L1068.60661,1429.22732 C1078.73562,1429.19308 1088.3817,1424.89381 1095.17887,1417.38404 C1101.97603,1409.87427 1105.29548,1399.84872 1104.32304,1389.76643 L1059.96554,928.909286 C1058.18971,910.495381 1042.74834,896.423813 1024.24911,896.36125 L554.750893,896.36125 C536.251662,896.423813 520.810295,910.495381 519.034464,928.909286 L519.034464,928.909286 C518.728323,932.120726 519.893323,935.297998 522.202857,937.550357 L735.349286,1150.69679 C772.241402,1187.59594 792.963467,1237.63973 792.956429,1289.81804 L792.956429,1395.81518 C792.879601,1404.65004 796.335506,1413.14947 802.555828,1419.42388 C808.77615,1425.69829 817.245342,1429.22732 826.080536,1429.22732 Z" id="Path" fill="url(#linearGradient-36)" fill-rule="nonzero"></path>
                <path d="M1102.88286,1362.40304 L476.117143,1362.40304 C464.735627,1362.37879 453.89436,1357.54597 446.268393,1349.09706 C438.642427,1340.64815 434.941999,1329.37002 436.080179,1318.04554 L485.910357,801.021429 C487.839532,780.334568 505.170784,764.499538 525.947321,764.440893 L1052.76464,764.440893 C1073.54118,764.499538 1090.87243,780.334568 1092.80161,801.021429 L1142.63179,1318.04554 C1143.76544,1329.32039 1140.10287,1340.55194 1132.54054,1348.99106 C1124.97821,1357.43019 1114.21408,1362.298 1102.88286,1362.40304 Z" id="Path" fill="url(#linearGradient-37)" fill-rule="nonzero"></path>
                <path d="M830.689107,1362.40304 L1102.88286,1362.40304 C1114.26437,1362.37879 1125.10564,1357.54597 1132.73161,1349.09706 C1140.35757,1340.64815 1144.058,1329.37002 1142.91982,1318.04554 L1093.08964,801.309464 C1091.16047,780.622603 1073.82922,764.787574 1053.05268,764.728929 L526.235357,764.728929 C505.45882,764.787574 488.127568,780.622603 486.198393,801.309464 L486.198393,801.309464 C485.819473,804.927517 487.088823,808.524009 489.654821,811.102679 L729.0125,1050.46036 C770.455984,1091.85022 793.766935,1148.00371 793.820536,1206.57571 L793.820536,1325.24643 C793.819922,1345.6555 810.280654,1362.24483 830.689107,1362.40304 Z" id="Path" fill="url(#linearGradient-38)" fill-rule="nonzero"></path>
                <circle id="Oval" fill="#BF5959" fill-rule="nonzero" cx="620.423036" cy="846.531071" r="50.40625"></circle>
                <circle id="Oval" fill="#BF5959" fill-rule="nonzero" cx="958.576964" cy="846.531071" r="50.40625"></circle>
                <path d="M958.000893,871.590179 C942.09312,871.590179 929.197321,858.69438 929.197321,842.786607 L929.197321,616.678571 C929.043868,608.470932 922.427103,601.854168 914.219464,601.700714 L664.780536,601.700714 C656.572897,601.854168 649.956132,608.470932 649.802679,616.678571 L649.802679,842.786607 C649.802679,858.69438 636.90688,871.590179 620.999107,871.590179 C605.091334,871.590179 592.195536,858.69438 592.195536,842.786607 L592.195536,616.678571 C592.195536,576.590983 624.692947,544.092999 664.780536,544.092999 L913.931429,544.092999 C933.232025,544.016981 951.768387,551.630482 965.443075,565.251121 C979.117764,578.871759 986.804464,597.377823 986.804464,616.678571 L986.804464,842.786607 C986.804464,858.69438 973.908666,871.590179 958.000893,871.590179 L958.000893,871.590179 Z" id="Path" fill="url(#linearGradient-39)" fill-rule="nonzero"></path>
                <path d="M705.969643,601.700714 L910.475,601.700714 L913.355357,601.700714 L904.714286,561.375714 C902.428869,551.27952 893.46323,544.107008 883.111607,544.093571 L694.160179,544.093571 L705.969643,601.700714 Z" id="Path" fill="url(#linearGradient-40)" fill-rule="nonzero"></path>
                <path d="M886.568036,6.61892857 C804.364634,-3.72935886 721.037237,-0.909645305 639.721402,14.9719643 L639.721402,507.513036 C639.71118,529.328359 642.715976,551.040431 648.650536,572.033036 L676.013929,668.236964 C684.798772,699.450865 713.292061,720.997443 745.718571,720.947587 L842.210536,720.947587 C854.973698,720.835278 867.141088,715.531543 875.910714,706.257679 L900.39375,680.046429 C908.596434,671.199018 913.127234,659.563098 913.067908,647.498393 L913.067908,601.98875 L866.1175,601.98875 L847.107143,495.703571 C843.177543,474.153462 833.185899,454.170174 818.303571,438.096429 L779.994821,397.771429 C771.195761,388.465339 768.209624,375.083022 772.217857,362.919107 L886.568036,6.61892857 Z" id="Path" fill="url(#linearGradient-41)" fill-rule="nonzero"></path>
                <path d="M639.721429,397.483393 C651.781804,420.096786 674.243904,435.283509 699.72257,438.050423 C725.201235,440.817337 750.39973,430.806425 767.033214,411.309107 L795.836786,413.901429 L779.41875,396.619286 C770.61969,387.313196 767.633553,373.93088 771.641786,361.766964 L785.4675,319.71375 L775.098214,319.71375 C758.961288,294.067242 729.39771,280.128521 699.344821,283.997321 C674.88434,287.669126 653.560076,302.59611 641.737679,324.322321 L639.721429,397.483393 Z" id="Path" fill="url(#linearGradient-42)" fill-rule="nonzero"></path>
                <g id="Path" fill-rule="nonzero" transform="translate(719.915723, 329.212497) rotate(5.300000) translate(-719.915723, -329.212497) ">
                    <use fill="url(#linearGradient-43)" xlink:href="#path-44"></use>
                    <use fill="#EEEACC" xlink:href="#path-44"></use>
                </g>
                <circle id="Oval" fill="url(#linearGradient-45)" fill-rule="nonzero" cx="702.80125" cy="328.642857" r="78.0576786"></circle>
                <path d="M875.910714,706.257679 L900.39375,680.046429 C908.596434,671.199018 913.127234,659.563098 913.067321,647.498393 L913.067321,601.98875 L866.1175,601.98875 L870.15,625.319643 C873.961266,647.086149 875.121862,669.234187 873.606429,691.279821 L873.606429,709.426071 L875.910714,706.257679 Z" id="Path" fill="url(#linearGradient-46)" fill-rule="nonzero"></path>
                <circle id="Oval" fill="url(#linearGradient-47)" fill-rule="nonzero" cx="702.80125" cy="328.642857" r="57.6071429"></circle>
                <path d="M703.089286,328.642857 L703.089286,271.035714 C671.273739,271.035714 645.482143,296.827311 645.482143,328.642857 C645.482143,360.458404 671.273739,386.25 703.089286,386.25 C734.904832,386.25 760.696429,360.458404 760.696429,328.642857 L703.089286,328.642857 Z" id="Path" fill="url(#linearGradient-48)" fill-rule="nonzero"></path>
            </g>
            <g id="Layer_2" transform="translate(122.214286, 281.035714)" fill="#F2E2D0" fill-rule="nonzero">
                <path d="M938.615357,276.019464 C953.091431,276.019464 964.826607,287.754641 964.826607,302.230714 C964.826607,287.754641 976.561783,276.019464 991.037857,276.019464 C976.561783,276.019464 964.826607,264.284288 964.826607,249.808214 C964.826607,256.75987 962.065073,263.426804 957.14951,268.342367 C952.233947,273.25793 945.567013,276.019464 938.615357,276.019464 L938.615357,276.019464 Z" id="Path"></path>
                <path d="M244.449286,355.229286 C258.925359,355.229286 270.660536,366.964462 270.660536,381.440536 C270.660536,366.964462 282.395712,355.229286 296.871786,355.229286 C282.395712,355.229286 270.660536,343.494109 270.660536,329.018036 C270.660536,343.494109 258.925359,355.229286 244.449286,355.229286 L244.449286,355.229286 Z" id="Path"></path>
                <path d="M1178.26107,310.007679 C1188.28297,310.007679 1196.40732,318.132031 1196.40732,328.153929 C1196.40732,318.132031 1204.53167,310.007679 1214.55357,310.007679 C1204.53167,310.007679 1196.40732,301.883326 1196.40732,291.861429 C1196.40732,301.883326 1188.28297,310.007679 1178.26107,310.007679 L1178.26107,310.007679 Z" id="Path"></path>
                <path d="M0.195,439.62375 C10.2168971,439.62375 18.34125,447.748103 18.34125,457.77 C18.34125,447.748103 26.4656029,439.62375 36.4875,439.62375 C26.6863293,439.62869 18.6523971,431.849803 18.34125,422.053571 C18.0301029,431.849803 9.99617065,439.62869 0.195,439.62375 L0.195,439.62375 Z" id="Path"></path>
                <path d="M768.098214,117.02375 C778.120111,117.02375 786.244464,125.148103 786.244464,135.17 C786.244464,125.148103 794.368817,117.02375 804.390714,117.02375 C794.368817,117.02375 786.244464,108.899397 786.244464,98.8775 C786.244464,108.899397 778.120111,117.02375 768.098214,117.02375 Z" id="Path"></path>
                <path d="M902.322857,58.5525 C908.208733,58.5525 912.980179,63.3239453 912.980179,69.2098214 C912.980179,63.3239453 917.751624,58.5525 923.6375,58.5525 C917.751624,58.5525 912.980179,53.7810547 912.980179,47.8951786 C912.980179,53.7810547 908.208733,58.5525 902.322857,58.5525 Z" id="Path"></path>
                <path d="M1078.31268,79.2910714 C1084.19855,79.2910714 1088.97,84.0625168 1088.97,89.9483929 C1088.96789,84.1731912 1093.56619,79.4471576 1099.33929,79.2910714 C1093.45341,79.2910714 1088.68196,74.5196261 1088.68196,68.63375 C1088.68407,74.4089516 1084.08577,79.1349853 1078.31268,79.2910714 Z" id="Path"></path>
                <path d="M111.376786,309.719643 C117.262662,309.719643 122.034107,314.491088 122.034107,320.376964 C122.034107,314.491088 126.805552,309.719643 132.691429,309.719643 C126.805552,309.719643 122.034107,304.948198 122.034107,299.062321 C122.034107,304.948198 117.262662,309.719643 111.376786,309.719643 Z" id="Path"></path>
                <path d="M1078.60071,238.574821 C1084.48659,238.574821 1089.25804,243.346267 1089.25804,249.232143 C1089.25804,243.346267 1094.02948,238.574821 1099.91536,238.574821 C1097.08886,238.574821 1094.37813,237.452 1092.37949,235.453364 C1090.38086,233.454729 1089.25804,230.743997 1089.25804,227.9175 C1089.25804,233.803376 1084.48659,238.574821 1078.60071,238.574821 Z" id="Path"></path>
                <path d="M232.639821,537.267857 C238.525698,537.267857 243.297143,542.039302 243.297143,547.925179 C243.297143,542.039302 248.068588,537.267857 253.954464,537.267857 C248.068588,537.267857 243.297143,532.496412 243.297143,526.610536 C243.297143,532.496412 238.525698,537.267857 232.639821,537.267857 Z" id="Path"></path>
                <path d="M1126.41464,439.911786 C1132.30052,439.911786 1137.07196,444.683231 1137.07196,450.569107 C1137.07196,444.683231 1141.84341,439.911786 1147.72929,439.911786 C1141.84341,439.911786 1137.07196,435.14034 1137.07196,429.254464 C1137.07196,435.14034 1132.30052,439.911786 1126.41464,439.911786 L1126.41464,439.911786 Z" id="Path"></path>
                <path d="M1056.42196,548.789286 C1062.30784,548.789286 1067.07929,553.560731 1067.07929,559.446607 C1067.07929,553.560731 1071.85073,548.789286 1077.73661,548.789286 C1071.85073,548.789286 1067.07929,544.01784 1067.07929,538.131964 C1067.07929,544.01784 1062.30784,548.789286 1056.42196,548.789286 L1056.42196,548.789286 Z" id="Path"></path>
            </g>
            <g id="Group-3" transform="translate(678.892602, 976.433495)" fill-rule="nonzero">
                <path d="M57.6088267,115.21597 C34.3089124,115.21597 13.3032577,101.18044 4.3867665,79.6541259 C-4.52972468,58.1278119 0.398897939,33.3499528 16.8744254,16.8744254 C33.3499528,0.398897939 58.1278119,-4.52972468 79.6541259,4.3867665 C101.18044,13.3032577 115.21597,34.3089124 115.21597,57.6088267 C115.21597,89.4243732 89.4243732,115.21597 57.6088267,115.21597 Z M57.6088267,24.4847196 C39.1558098,24.4847196 24.1966839,39.4438455 24.1966839,57.8968624 C24.1966839,76.3498794 39.1558098,91.3090053 57.6088267,91.3090053 C76.0618437,91.3090053 91.0209696,76.3498794 91.0209696,57.8968624 C91.0209696,39.4438455 76.0618437,24.4847196 57.6088267,24.4847196 L57.6088267,24.4847196 Z" id="Shape" fill="url(#linearGradient-49)"></path>
                <path d="M192.121505,249.728648 C160.305959,249.728648 134.514362,223.937052 134.514362,192.121505 C134.514362,160.305959 160.305959,134.514362 192.121505,134.514362 C223.937052,134.514362 249.728648,160.305959 249.728648,192.121505 C249.728648,223.937052 223.937052,249.728648 192.121505,249.728648 Z M192.121505,158.997398 C173.706818,159.156151 158.892339,174.184842 158.997386,192.599911 C159.103556,211.014979 174.08943,225.872769 192.504726,225.820445 C210.920023,225.767845 225.821,210.824912 225.821684,192.409541 C225.899276,183.448136 222.373654,174.831208 216.036746,168.4943 C209.699839,162.157393 201.08291,158.63177 192.121505,158.709362 L192.121505,158.997398 Z" id="Shape" fill="url(#linearGradient-50)"></path>
                <path d="M12.3872196,249.728648 C7.47885039,249.856618 3.00337331,246.934139 1.14676512,242.38865 C-0.709843065,237.843161 0.439805858,232.623095 4.03418386,229.278112 L229.278112,4.03418386 C232.262365,1.04993131 236.612007,-0.115552096 240.688572,0.976759993 C244.765136,2.06907208 247.949296,5.25323146 249.041608,9.32979601 C250.13392,13.4063606 248.968436,17.7560031 245.984184,20.7402553 L20.7402553,245.120077 C18.7279056,247.762592 15.6957687,249.435495 12.3872196,249.728648 L12.3872196,249.728648 Z" id="Path" fill="url(#linearGradient-51)"></path>
            </g>
        </g>
    </g>
</svg>