<?xml version="1.0" encoding="UTF-8"?>
<svg width="2000px" height="1527px" viewBox="0 0 2000 1527" version="1.1" xmlns="http://www.w3.org/2000/svg" xmlns:xlink="http://www.w3.org/1999/xlink">
    <!-- Generator: Sketch 64 (93537) - https://sketch.com -->
    <title>sort_default_makeup</title>
    <desc>Created with Sketch.</desc>
    <defs>
        <linearGradient x1="50%" y1="109.306549%" x2="50%" y2="-54.4707924%" id="linearGradient-1">
            <stop stop-color="#D2D4CD" offset="0.07202738%"></stop>
            <stop stop-color="#9DC2BC" offset="34%"></stop>
            <stop stop-color="#4596AB" offset="96.93%"></stop>
        </linearGradient>
        <linearGradient x1="50%" y1="108.123427%" x2="50%" y2="-301.752988%" id="linearGradient-2">
            <stop stop-color="#D2D4CD" offset="0.07202738%"></stop>
            <stop stop-color="#9DC2BC" offset="19.51%"></stop>
            <stop stop-color="#4596AB" offset="100%"></stop>
        </linearGradient>
        <linearGradient x1="50%" y1="81.2923703%" x2="50%" y2="43.287324%" id="linearGradient-3">
            <stop stop-color="#DBD8CD" offset="0%"></stop>
            <stop stop-color="#93B8B3" offset="100%"></stop>
        </linearGradient>
        <linearGradient x1="50.2062576%" y1="96.8817638%" x2="50.2062576%" y2="37.6478653%" id="linearGradient-4">
            <stop stop-color="#DBD8CD" offset="0%"></stop>
            <stop stop-color="#93B8B3" offset="99.3174719%"></stop>
            <stop stop-color="#93B8B3" offset="100%"></stop>
        </linearGradient>
        <linearGradient x1="50%" y1="115.676057%" x2="50%" y2="33.4717086%" id="linearGradient-5">
            <stop stop-color="#DBD8CD" offset="0%"></stop>
            <stop stop-color="#93B8B3" offset="100%"></stop>
        </linearGradient>
        <linearGradient x1="50%" y1="482.884699%" x2="50%" y2="21.4482261%" id="linearGradient-6">
            <stop stop-color="#DBD8CD" offset="0%"></stop>
            <stop stop-color="#93B8B3" offset="100%"></stop>
        </linearGradient>
        <linearGradient x1="49.9550519%" y1="69.9840889%" x2="50%" y2="49.14006%" id="linearGradient-7">
            <stop stop-color="#DBD8CD" offset="0%"></stop>
            <stop stop-color="#93B8B3" offset="100%"></stop>
        </linearGradient>
        <linearGradient x1="48.2666667%" y1="47.8208865%" x2="50%" y2="77.0955557%" id="linearGradient-8">
            <stop stop-color="#F2E2D0" offset="0%"></stop>
            <stop stop-color="#A0E2D0" offset="22.4442264%"></stop>
            <stop stop-color="#39A9BB" offset="70.8335004%"></stop>
            <stop stop-color="#445DCE" offset="100%"></stop>
        </linearGradient>
        <linearGradient x1="48.2666667%" y1="47.124729%" x2="50%" y2="85.7517232%" id="linearGradient-9">
            <stop stop-color="#F2E2D0" offset="0%"></stop>
            <stop stop-color="#A0E2D0" offset="22.4442264%"></stop>
            <stop stop-color="#39A9BB" offset="70.8335004%"></stop>
            <stop stop-color="#445DCE" offset="100%"></stop>
        </linearGradient>
        <linearGradient x1="48.2666667%" y1="45.6749309%" x2="50%" y2="103.778818%" id="linearGradient-10">
            <stop stop-color="#F2E2D0" offset="0%"></stop>
            <stop stop-color="#A0E2D0" offset="22.4442264%"></stop>
            <stop stop-color="#39A9BB" offset="70.8335004%"></stop>
            <stop stop-color="#445DCE" offset="100%"></stop>
        </linearGradient>
        <linearGradient x1="48.2666667%" y1="42.1268268%" x2="50%" y2="147.89669%" id="linearGradient-11">
            <stop stop-color="#F2E2D0" offset="0%"></stop>
            <stop stop-color="#A0E2D0" offset="22.4442264%"></stop>
            <stop stop-color="#39A9BB" offset="70.8335004%"></stop>
            <stop stop-color="#445DCE" offset="100%"></stop>
        </linearGradient>
        <circle id="path-12" cx="789.052233" cy="789.052233" r="789.052233"></circle>
        <linearGradient x1="48.012366%" y1="66.5655202%" x2="48.012366%" y2="-180.866381%" id="linearGradient-14">
            <stop stop-color="#D2D4CD" offset="0.07202738%"></stop>
            <stop stop-color="#9DC2BC" offset="16.2787934%"></stop>
            <stop stop-color="#4596AB" offset="100%"></stop>
        </linearGradient>
        <linearGradient x1="50%" y1="0.034512448%" x2="100%" y2="915.00466%" id="linearGradient-15">
            <stop stop-color="#F2E2D0" offset="0%"></stop>
            <stop stop-color="#A0E2D0" offset="75.4479806%"></stop>
            <stop stop-color="#39A9BB" offset="90.960687%"></stop>
            <stop stop-color="#445DCE" offset="100%"></stop>
        </linearGradient>
        <linearGradient x1="22.6390868%" y1="10.9775703%" x2="85.0208764%" y2="302.274501%" id="linearGradient-16">
            <stop stop-color="#F2E2D0" offset="0%"></stop>
            <stop stop-color="#A0E2D0" offset="50.0315467%"></stop>
            <stop stop-color="#39A9BB" offset="97%"></stop>
            <stop stop-color="#445DCE" offset="100%"></stop>
        </linearGradient>
        <linearGradient x1="100%" y1="67.6619794%" x2="-74.925061%" y2="50%" id="linearGradient-17">
            <stop stop-color="#FF9C74" offset="0%"></stop>
            <stop stop-color="#D36564" offset="67%"></stop>
            <stop stop-color="#B2314E" offset="100%"></stop>
        </linearGradient>
        <linearGradient x1="90.3285659%" y1="49.8398006%" x2="-8.7975289%" y2="51.3854719%" id="linearGradient-18">
            <stop stop-color="#FF9C74" offset="0%"></stop>
            <stop stop-color="#D36564" offset="67%"></stop>
            <stop stop-color="#B2314E" offset="100%"></stop>
        </linearGradient>
        <linearGradient x1="100%" y1="79.9687825%" x2="-45.3362379%" y2="-16.0457288%" id="linearGradient-19">
            <stop stop-color="#FF9C74" offset="0%"></stop>
            <stop stop-color="#D36564" offset="67%"></stop>
            <stop stop-color="#B2314E" offset="100%"></stop>
        </linearGradient>
        <linearGradient x1="50%" y1="123.606241%" x2="44.8179177%" y2="-10.4737598%" id="linearGradient-20">
            <stop stop-color="#D7D7D7" offset="0%"></stop>
            <stop stop-color="#FFFFFF" offset="100%"></stop>
        </linearGradient>
        <linearGradient x1="69.8613538%" y1="54.2679064%" x2="-27.631295%" y2="38.3489001%" id="linearGradient-21">
            <stop stop-color="#FF9C74" offset="0%"></stop>
            <stop stop-color="#D36564" offset="67%"></stop>
            <stop stop-color="#B2314E" offset="100%"></stop>
        </linearGradient>
        <polygon id="path-22" points="0 0.265303632 341.9024 0.265303632 341.9024 355.977449 0 355.977449"></polygon>
        <linearGradient x1="36.0837225%" y1="87.8055621%" x2="104.183345%" y2="156.029169%" id="linearGradient-24">
            <stop stop-color="#FF9C74" offset="0%"></stop>
            <stop stop-color="#D36564" offset="67%"></stop>
            <stop stop-color="#B2314E" offset="100%"></stop>
        </linearGradient>
        <linearGradient x1="15.7289121%" y1="-17.087158%" x2="121.036552%" y2="504.189237%" id="linearGradient-25">
            <stop stop-color="#F2E2D0" offset="0%"></stop>
            <stop stop-color="#AEE4D5" offset="23.5667183%"></stop>
            <stop stop-color="#39A9BB" offset="97%"></stop>
            <stop stop-color="#445DCE" offset="100%"></stop>
        </linearGradient>
        <path d="M341.904115,116.045358 C341.904115,73.5401324 265.363665,0.265303632 170.952915,0.265303632 C76.5364483,0.265303632 -0.00400166667,65.3337628 -0.00400166667,116.045358 C-0.00400166667,210.364357 170.952915,355.977449 170.952915,355.977449 C170.952915,355.977449 341.904115,210.364357 341.904115,116.045358" id="path-26"></path>
        <polygon id="path-27" points="0.323706746 0.0325513266 57.9757067 0.0325513266 57.9757067 653 0.323706746 653"></polygon>
        <linearGradient x1="50.1203165%" y1="197.749196%" x2="49.9624011%" y2="4.18006431%" id="linearGradient-29">
            <stop stop-color="#208CA3" offset="0%"></stop>
            <stop stop-color="#3C4178" offset="42%"></stop>
            <stop stop-color="#241B3C" offset="100%"></stop>
        </linearGradient>
        <linearGradient x1="51.8438679%" y1="120.722331%" x2="49.2438356%" y2="12.05999%" id="linearGradient-30">
            <stop stop-color="#FF9C74" offset="0%"></stop>
            <stop stop-color="#D36564" offset="67%"></stop>
            <stop stop-color="#B2314E" offset="100%"></stop>
        </linearGradient>
        <path d="M29.1497067,653.001145 L29.1497067,653.001145 C18.5598734,653.001145 9.93237341,644.359571 9.78012341,633.604848 L0.323706746,0.0325513266 L57.9757067,0.0325513266 L48.524929,633.604848 C48.3670401,644.359571 39.745179,653.001145 29.1497067,653.001145" id="path-31"></path>
        <linearGradient x1="19.284149%" y1="-28.8693577%" x2="236.102975%" y2="575.66335%" id="linearGradient-32">
            <stop stop-color="#F2E2D0" offset="0%"></stop>
            <stop stop-color="#A0E2D0" offset="34%"></stop>
            <stop stop-color="#39A9BB" offset="97%"></stop>
            <stop stop-color="#445DCE" offset="100%"></stop>
        </linearGradient>
        <linearGradient x1="59.4814202%" y1="197.749196%" x2="47.0370562%" y2="4.18006431%" id="linearGradient-33">
            <stop stop-color="#208CA3" offset="0%"></stop>
            <stop stop-color="#3C4178" offset="42%"></stop>
            <stop stop-color="#241B3C" offset="100%"></stop>
        </linearGradient>
        <polygon id="path-34" points="198.71212 403 143.66233 403 142 329 200 329"></polygon>
        <linearGradient x1="100%" y1="83.0599889%" x2="0%" y2="-9.35052819%" id="linearGradient-35">
            <stop stop-color="#D18CA3" offset="0%"></stop>
            <stop stop-color="#208CA3" offset="31%"></stop>
            <stop stop-color="#383B6F" offset="79%"></stop>
            <stop stop-color="#3C4178" offset="80%"></stop>
            <stop stop-color="#241B3C" offset="100%"></stop>
        </linearGradient>
        <linearGradient x1="65.4340836%" y1="83.5032191%" x2="45.1768489%" y2="39.6099919%" id="linearGradient-36">
            <stop stop-color="#208CA3" offset="0%"></stop>
            <stop stop-color="#3C4178" offset="42%"></stop>
            <stop stop-color="#241B3C" offset="100%"></stop>
        </linearGradient>
        <polygon id="path-37" points="190.711816 903 191 883 149 883 149.288184 903"></polygon>
        <linearGradient x1="32.3577259%" y1="-34.2308709%" x2="71.4775711%" y2="231.025313%" id="linearGradient-38">
            <stop stop-color="#FF9C74" offset="0%"></stop>
            <stop stop-color="#D36564" offset="51.4857283%"></stop>
            <stop stop-color="#B2314E" offset="100%"></stop>
        </linearGradient>
        <linearGradient x1="42.1906433%" y1="-73.6518252%" x2="55.2314699%" y2="337.694994%" id="linearGradient-39">
            <stop stop-color="#F2E2D0" offset="0%"></stop>
            <stop stop-color="#ABD9CD" offset="35.4024932%"></stop>
            <stop stop-color="#39A9BB" offset="97%"></stop>
            <stop stop-color="#445DCE" offset="100%"></stop>
        </linearGradient>
        <path d="M200.697164,330 C249.143526,283.681702 342,185.816634 342,115.970219 C342,73.3988004 265.891118,0 172,0 L172,330 L200.697164,330 Z" id="path-40"></path>
        <polygon id="path-41" points="1.0961775 1.08159106 21.8515275 1.08159106 21.8515275 81.7617433 1.0961775 81.7617433"></polygon>
        <polygon id="path-43" points="0.766680702 0.181772727 63.6448561 0.181772727 63.6448561 128.318645 0.766680702 128.318645"></polygon>
        <linearGradient x1="57.9431555%" y1="197.749196%" x2="47.5177639%" y2="4.18006431%" id="linearGradient-45">
            <stop stop-color="#208CA3" offset="0%"></stop>
            <stop stop-color="#3C4178" offset="42%"></stop>
            <stop stop-color="#241B3C" offset="100%"></stop>
        </linearGradient>
        <linearGradient x1="96.4882871%" y1="127.986079%" x2="8.2983684%" y2="-19.8335872%" id="linearGradient-46">
            <stop stop-color="#FF9C74" offset="0%"></stop>
            <stop stop-color="#D36564" offset="67%"></stop>
            <stop stop-color="#B2314E" offset="100%"></stop>
        </linearGradient>
        <path d="M87.5789662,593 L44.4210338,593 C19.8849937,593 0,573.122456 0,548.608783 L0,409 L132,409 L132,548.608783 C132,573.122456 112.109104,593 87.5789662,593" id="path-47"></path>
        <linearGradient x1="15.0556437%" y1="33.4862675%" x2="184.730474%" y2="224.131796%" id="linearGradient-48">
            <stop stop-color="#F2E2D0" offset="0%"></stop>
            <stop stop-color="#A0E2D0" offset="34%"></stop>
            <stop stop-color="#39A9BB" offset="97%"></stop>
            <stop stop-color="#445DCE" offset="100%"></stop>
        </linearGradient>
        <linearGradient x1="100%" y1="77.1027666%" x2="0%" y2="27.4178948%" id="linearGradient-49">
            <stop stop-color="#208CA3" offset="0%"></stop>
            <stop stop-color="#3C4178" offset="42%"></stop>
            <stop stop-color="#241B3C" offset="100%"></stop>
        </linearGradient>
        <polygon id="path-50" points="0 409 132 409 132 345 0 345"></polygon>
        <linearGradient x1="50.2175401%" y1="197.749196%" x2="49.9320187%" y2="4.18006431%" id="linearGradient-51">
            <stop stop-color="#208CA3" offset="0%"></stop>
            <stop stop-color="#3C4178" offset="42%"></stop>
            <stop stop-color="#241B3C" offset="100%"></stop>
        </linearGradient>
        <linearGradient x1="77.9098956%" y1="140.024907%" x2="22.0901044%" y2="26.6306061%" id="linearGradient-52">
            <stop stop-color="#FF9C74" offset="0%"></stop>
            <stop stop-color="#D36564" offset="67%"></stop>
            <stop stop-color="#B2314E" offset="100%"></stop>
        </linearGradient>
        <linearGradient x1="115.118781%" y1="52.9824935%" x2="-5.93339027%" y2="49.4201183%" id="linearGradient-53">
            <stop stop-color="#208CA3" offset="0%"></stop>
            <stop stop-color="#3C4178" offset="42%"></stop>
            <stop stop-color="#241B3C" offset="100%"></stop>
        </linearGradient>
        <linearGradient x1="50%" y1="0%" x2="50%" y2="100%" id="linearGradient-54">
            <stop stop-color="#000000" stop-opacity="0.5" offset="0%"></stop>
            <stop stop-color="#000000" stop-opacity="0.5" offset="100%"></stop>
        </linearGradient>
        <linearGradient x1="65.4340836%" y1="109.504022%" x2="45.1768489%" y2="31.5466309%" id="linearGradient-55">
            <stop stop-color="#208CA3" offset="0%"></stop>
            <stop stop-color="#3C4178" offset="42%"></stop>
            <stop stop-color="#241B3C" offset="100%"></stop>
        </linearGradient>
    </defs>
    <g id="sort_default_makeup" stroke="none" stroke-width="1" fill="none" fill-rule="evenodd">
        <rect id="Rectangle" fill="url(#linearGradient-1)" fill-rule="nonzero" x="0" y="0" width="2000" height="1527"></rect>
        <rect id="Rectangle" fill="url(#linearGradient-2)" fill-rule="nonzero" x="0" y="1407" width="2000" height="120"></rect>
        <g id="visit-shopping-malls" transform="translate(213.000000, 1.000000)">
            <g id="Layer_3" transform="translate(2.000000, 0.000000)" fill-rule="nonzero">
                <ellipse id="Oval" fill="url(#linearGradient-3)" cx="788.882527" cy="788.786811" rx="788.651343" ry="788.633985"></ellipse>
                <path d="M1558.53716,959.465626 L1425.27235,959.465626 C1400.00481,959.465626 1375.77216,969.502897 1357.90531,987.369355 C1340.03846,1005.23581 1330.00097,1029.46793 1330.00097,1054.73491 L1330.00097,1095.60573 L1193.28221,1095.60573 L1193.28221,1266.57236 L430.535475,1266.57236 L430.535475,1160.65364 L213.512441,1160.65364 L213.512441,1061.06701 C213.512441,1049.23504 208.812105,1037.88767 200.445453,1029.52121 C192.078801,1021.15474 180.731186,1016.45451 168.898953,1016.45451 L117.953227,1016.45451 L117.953227,882.329163 L5.98776303,882.329163 C51.1021258,1264.45322 365.487252,1558.18407 749.799709,1577.27461 C1134.11217,1596.36515 1476.06085,1335.23738 1558.82499,959.465626 L1558.53716,959.465626 Z" id="Path" fill="url(#linearGradient-4)"></path>
                <path d="M1474.20327,397.92369 L1385.26413,439.370148 C1339.1004,462.308043 1285.04268,463.154329 1238.18353,441.672729 C1199.97161,422.622177 1155.16877,421.986689 1116.43188,439.945793 L991.226284,497.510317 C939.946788,521.373873 880.745906,521.373873 829.46641,497.510317 L829.46641,497.510317 C797.976937,482.906542 761.654892,482.906542 730.16542,497.510317 L684.688444,518.521369 C626.107665,545.774139 558.483033,545.774139 499.902254,518.521369 L374.984486,460.956844 C344.391564,446.849937 309.154708,446.849937 278.561786,460.956844 L178.685131,507.296287 C156.422781,517.663028 130.717228,517.663028 108.454872,507.296287 L61.2509228,485.421767 C29.3296735,562.438947 9.89698523,644.054441 3.68513137,727.19277 L108.742701,776.122616 C131.005057,786.489357 156.71061,786.489357 178.972966,776.122616 L278.561786,731.222287 C309.154708,717.11538 344.391564,717.11538 374.984486,731.222287 L499.902254,788.786811 C558.483033,816.039581 626.107665,816.039581 684.688444,788.786811 L730.16542,767.487937 C761.654892,752.884161 797.976937,752.884161 829.46641,767.487937 L885.305228,793.391973 C901.180052,800.788219 919.512642,800.788219 935.387466,793.391973 L1115.85622,709.63559 C1152.0607,691.941299 1194.26889,691.308191 1230.98781,707.908654 C1279.11052,731.408073 1335.26828,731.936854 1383.82498,709.347767 L1498.95656,656.100582 C1519.58765,646.512443 1540.72653,638.057079 1562.27894,630.772192 C1545.52823,548.955187 1515.79382,470.345364 1474.20327,397.92369 Z" id="Path" fill="url(#linearGradient-5)"></path>
                <path d="M1475.64242,400.226271 C1430.62618,320.753301 1372.19865,249.668043 1302.94504,190.115757 C1278.90919,189.226613 1255.30667,183.44853 1233.57827,173.134222 C1194.7744,156.117729 1150.44346,157.0654 1112.40227,175.724626 L991.514113,233.28915 C940.234617,257.152706 881.033735,257.152706 829.754239,233.28915 L829.754239,233.28915 C798.264766,218.685374 761.942721,218.685374 730.453249,233.28915 L684.976273,254.588024 C626.395494,281.840794 558.770862,281.840794 500.190083,254.588024 L375.272315,197.0235 C344.679393,182.916593 309.442537,182.916593 278.849615,197.0235 L261.292048,205.082533 C173.76692,283.776414 104.930057,381.030927 59.811778,489.739107 L107.879214,512.189271 C130.14157,522.556012 155.847123,522.556012 178.109479,512.189271 L277.986128,465.849829 C308.57905,451.742922 343.815906,451.742922 374.408828,465.849829 L499.326596,523.414353 C557.907376,550.667124 625.532007,550.667124 684.112786,523.414353 L730.16542,500.964189 C761.654892,486.360413 797.976937,486.360413 829.46641,500.964189 L829.46641,500.964189 C880.745906,524.827745 939.946788,524.827745 991.226284,500.964189 L1115.85622,443.399664 C1152.0607,425.705374 1194.26889,425.072265 1230.98781,441.672729 C1279.11052,465.172148 1335.26828,465.700929 1383.82498,443.111842 L1475.64242,400.226271 Z" id="Path" fill="url(#linearGradient-6)"></path>
                <path d="M789.458185,0.152314198 C591.318293,-0.0732217935 400.407522,74.5623029 254.959811,209.11205 L278.561786,198.17479 C309.154708,184.067883 344.391564,184.067883 374.984486,198.17479 L499.902254,255.739315 C558.483033,282.992085 626.107665,282.992085 684.688444,255.739315 L730.16542,234.728263 C761.654892,220.124488 797.976937,220.124488 829.46641,234.728263 L829.46641,234.728263 C880.745906,258.591819 939.946788,258.591819 991.226284,234.728263 L1116.43188,177.163739 C1153.84331,159.759445 1197.03032,159.759445 1234.44175,177.163739 C1256.9228,187.579869 1281.33745,193.168641 1306.11116,193.569628 C1162.95715,68.7302939 979.401856,0.0136133919 789.458185,0.152314198 Z" id="Path" fill="url(#linearGradient-7)"></path>
                <path d="M1402.53386,1050.12975 C1397.92392,1050.12975 1394.18682,1053.86677 1394.18682,1058.47661 C1394.18682,1063.08645 1397.92392,1066.82346 1402.53386,1066.82346 L1526.01249,1066.82346 L1532.05689,1050.12975 L1402.53386,1050.12975 Z" id="Path" fill="url(#linearGradient-8)"></path>
                <path d="M1402.53386,1097.04484 C1397.92392,1097.04484 1394.18682,1100.78185 1394.18682,1105.3917 C1394.18682,1110.00154 1397.92392,1113.73855 1402.53386,1113.73855 L1506.44012,1113.73855 C1509.03058,1107.9821 1511.62104,1102.51347 1514.2115,1097.04484 L1402.53386,1097.04484 Z" id="Path" fill="url(#linearGradient-9)"></path>
                <path d="M1402.53386,1143.6721 C1397.92392,1143.6721 1394.18682,1147.40912 1394.18682,1152.01896 C1394.18682,1156.6288 1397.92392,1160.36582 1402.53386,1160.36582 L1482.83814,1160.36582 C1485.71643,1154.60936 1489.17038,1149.14073 1492.04867,1143.6721 L1402.53386,1143.6721 Z" id="Path" fill="url(#linearGradient-10)"></path>
                <path d="M1402.53386,1191.73848 C1397.92392,1191.73848 1394.18682,1195.4755 1394.18682,1200.08534 C1394.18682,1204.69518 1397.92392,1208.43219 1402.53386,1208.43219 L1456.93354,1208.43219 C1460.38748,1202.96356 1463.26577,1197.20711 1466.71972,1191.73848 L1402.53386,1191.73848 Z" id="Path" fill="url(#linearGradient-11)"></path>
            </g>
            <g id="Path" transform="translate(1.947767, 0.000000)">
                <mask id="mask-13" fill="white">
                    <use xlink:href="#path-12"></use>
                </mask>
                <g id="Mask" fill-rule="nonzero"></g>
                <path d="M189.943429,1405.67986 C339.710999,1578.66854 557.239197,1678.0659 786.052233,1678.0659 C1014.86527,1678.0659 1232.39347,1578.66854 1382.16104,1405.67986 L189.943429,1405.67986 Z" fill="url(#linearGradient-14)" fill-rule="nonzero" mask="url(#mask-13)"></path>
                <path d="M1302.37606,1405.88889 C1029.49351,1405.08287 851.7189,1405.45324 769.052233,1407 C548.907038,1411.11909 495.115245,1448.94184 443.052233,1454 C505.052233,1480 567.515539,1496.13628 599.326285,1534.49991 C603.982686,1558.41936 626.365438,1576.90267 654.425565,1580 C915.073685,1610.47458 1103.36948,1551.91215 1302.37606,1404.44901 L1302.37606,1405.88889 Z" fill="#000000" fill-rule="nonzero" opacity="0.07" mask="url(#mask-13)"></path>
            </g>
            <g id="Group" transform="translate(130.078352, 1060.886984)" fill="url(#linearGradient-15)" fill-rule="nonzero">
                <rect id="Rectangle" x="-4.4408921e-14" y="-1.77635684e-15" width="12.0868248" height="12.0826526"></rect>
                <rect id="Rectangle" x="21.0080527" y="-1.77635684e-15" width="12.0868248" height="12.0826526"></rect>
                <rect id="Rectangle" x="42.3038869" y="-1.77635684e-15" width="12.0868248" height="12.0826526"></rect>
                <rect id="Rectangle" x="-4.4408921e-14" y="20.7131188" width="12.0868248" height="12.0826526"></rect>
                <rect id="Rectangle" x="21.0080527" y="20.7131188" width="12.0868248" height="12.0826526"></rect>
                <rect id="Rectangle" x="42.3038869" y="20.7131188" width="12.0868248" height="12.0826526"></rect>
                <rect id="Rectangle" x="21.0080527" y="41.4262377" width="12.0868248" height="12.0826526"></rect>
                <rect id="Rectangle" x="42.3038869" y="41.4262377" width="12.0868248" height="12.0826526"></rect>
                <rect id="Rectangle" x="21.0080527" y="62.1393565" width="12.0868248" height="12.0826526"></rect>
                <rect id="Rectangle" x="42.3038869" y="62.1393565" width="12.0868248" height="12.0826526"></rect>
                <rect id="Rectangle" x="21.0080527" y="82.8524753" width="12.0868248" height="12.0826526"></rect>
                <rect id="Rectangle" x="42.3038869" y="82.8524753" width="12.0868248" height="12.0826526"></rect>
                <rect id="Rectangle" x="42.3038869" y="103.565594" width="12.0868248" height="12.0826526"></rect>
                <rect id="Rectangle" x="42.3038869" y="124.278713" width="12.0868248" height="12.0826526"></rect>
            </g>
            <g id="Group-21" transform="translate(256.000000, 726.000000)">
                <polygon id="Fill-1" fill="url(#linearGradient-16)" points="156.99732 202 0 464.603663 156.99732 737 471.00268 737 628 464.603663 471.00268 202"></polygon>
                <polygon id="Fill-3" fill="url(#linearGradient-17)" points="157 541 475 541 475 352 157 352"></polygon>
                <polygon id="Fill-5" fill="url(#linearGradient-18)" points="157 596 475 596 475 578 157 578"></polygon>
                <polygon id="Fill-7" fill="#BED9CF" opacity="0.851050967" points="130 609 177.171266 694 248 694"></polygon>
                <polygon id="Fill-8" fill="#BAD2C8" opacity="0.447172619" points="493 317 445.828734 232 375 232"></polygon>
                <polygon id="Fill-9" fill="#9C4368" points="264 173 367 173 367 145 264 145"></polygon>
                <polygon id="Fill-10" fill="url(#linearGradient-19)" points="222 144 408 144 408 0 222 0"></polygon>
                <polygon id="Fill-11" fill="#33223B" points="264 164 314 164 314 143 264 143"></polygon>
                <g id="Group-20" transform="translate(221.000000, 163.000000)">
                    <path d="M93.1536504,264.884121 C93.1536504,245.543418 77.4803591,229.864955 58.1460356,229.864955 C38.8117121,229.864955 23.1330605,245.543418 23.1330605,264.884121 C23.1330605,284.224824 93.1536504,337.035077 93.1536504,337.035077 L93.1536504,264.884121 Z" id="Fill-13" fill="#D7D7D7"></path>
                    <path d="M93.1536504,264.884121 C93.1536504,245.543418 108.826942,229.864955 128.161265,229.864955 C147.500949,229.864955 163.17424,245.543418 163.17424,264.884121 C163.17424,284.224824 93.1536504,337.035077 93.1536504,337.035077 L93.1536504,264.884121 Z" id="Fill-15" fill="url(#linearGradient-20)"></path>
                    <polygon id="Fill-17" fill="url(#linearGradient-21)" points="0.577243119 38.3083485 185.724697 38.3083485 185.724697 0.281105504 0.577243119 0.281105504"></polygon>
                </g>
            </g>
            <g id="Group-56" transform="translate(811.000000, 438.000000)">
                <g id="Group-3">
                    <mask id="mask-23" fill="white">
                        <use xlink:href="#path-22"></use>
                    </mask>
                    <g id="Clip-2"></g>
                    <g id="Fill-1" mask="url(#mask-23)">
                        <use fill="url(#linearGradient-24)" xlink:href="#path-26"></use>
                        <use fill="url(#linearGradient-25)" xlink:href="#path-26"></use>
                    </g>
                </g>
                <path d="M127.986,229 C126.982036,225.984102 92.8414063,77.1099818 80,20.874381 C89.5726847,16.2243941 99.7932767,12.2165754 110.568384,9 C115.045365,63.2574928 128.49382,225.737555 127.986,229" id="Fill-6" fill="#EDEDED" opacity="0.892113095"></path>
                <path d="M262,22.7080302 C248.748058,80.2122965 215.026547,226.030781 214.01396,229 C213.507666,225.732712 226.912673,65.0853269 231.48109,10 C242.195677,13.5137675 252.403969,17.8128304 262,22.7080302" id="Fill-8" fill="#33223B"></path>
                <path d="M324,76.0175604 L266,199 L315.137155,65 C318.422422,68.624576 321.355899,72.3469581 324,76.0175604" id="Fill-10" fill="#33223B"></path>
                <g id="Group-14" transform="translate(142.000000, 330.000000)">
                    <mask id="mask-28" fill="white">
                        <use xlink:href="#path-27"></use>
                    </mask>
                    <g id="Clip-13"></g>
                    <g id="Fill-12" mask="url(#mask-28)">
                        <use fill="url(#linearGradient-29)" xlink:href="#path-31"></use>
                        <use fill="url(#linearGradient-30)" xlink:href="#path-31"></use>
                    </g>
                </g>
                <g id="Fill-17">
                    <use fill="url(#linearGradient-32)" xlink:href="#path-34"></use>
                    <use fill="url(#linearGradient-33)" xlink:href="#path-34"></use>
                </g>
                <g id="Fill-19">
                    <use fill="url(#linearGradient-35)" xlink:href="#path-37"></use>
                    <use fill="url(#linearGradient-36)" xlink:href="#path-37"></use>
                </g>
                <g id="Fill-21">
                    <use fill="url(#linearGradient-38)" xlink:href="#path-40"></use>
                    <use fill="url(#linearGradient-39)" xlink:href="#path-40"></use>
                </g>
                <g id="Group-27" transform="translate(170.000000, 901.000000)">
                    <mask id="mask-42" fill="white">
                        <use xlink:href="#path-41"></use>
                    </mask>
                    <g id="Clip-26"></g>
                </g>
                <polygon id="Fill-28" fill="#F57A82" points="199.4975 332.2175 199.5175 330.7825 199.5075 330.7825 199.4825 332.2175"></polygon>
                <polygon id="Fill-30" fill="#F57A82" points="199.5225 331.4625 199.5125 331.4625 199.4775 333.5375"></polygon>
                <polygon id="Fill-32" fill="#F57A82" points="199.3875 345 199.5775 333.43198 199.6125 331 199.5975 331"></polygon>
                <polygon id="Fill-36" fill="#F57A82" points="199.1025 404 200.0025 346 198.9975 404"></polygon>
                <path d="M199.3825,332.2175 L199.4075,330.7825 L199.0925,330.7825 C198.6025,331.2525 198.0725,331.7575 197.5925,332.2175 L199.3825,332.2175 Z" id="Fill-38" fill="#F57A82"></path>
                <path d="M171,332.2175 L198.2708,332.2175 C198.828051,331.7575 199.43126,331.2525 200,330.7825 L171,330.7825 L171,332.2175 Z" id="Fill-40" fill="#F57A82"></path>
                <path d="M190.375,903 L190.625,883 L190.375,903 Z" id="Fill-44" fill="#F57A82"></path>
                <path d="M248.092293,15 C240.055027,81.6862455 213.540884,225.010023 214.006044,228 C215.024687,225.02724 248.739984,79.0520814 262,21.4677624 C257.501487,19.1779335 252.861659,17.0200997 248.092293,15" id="Fill-48" fill="#E4E4E4"></path>
                <path d="M324,76.0175604 L266,199 L315.137155,65 C318.422422,68.624576 321.355899,72.3469581 324,76.0175604" id="Fill-50" fill="#E4E4E4"></path>
                <path d="M80,19.7597578 C92.8434128,75.7561294 126.989377,223.996932 127.993498,227 C128.472207,223.93413 102.376728,75.0710189 95.6923152,13 C90.3914885,15.0267855 85.2599613,17.2362671 80.2918957,19.5998986 C80.1868133,19.6512819 80.1109204,19.7083745 80,19.7597578" id="Fill-52" fill="#B9D9D2"></path>
                <path d="M73,199 L14,74.4091847 C16.6859393,70.5565097 19.6722051,66.7553563 22.9417979,63 L73,199 Z" id="Fill-54" fill="#B9D9D2" opacity="0.802897135"></path>
            </g>
            <g id="Group-14" transform="translate(1088.000000, 828.000000)">
                <g id="Group-3" transform="translate(32.000000, 0.000000)">
                    <mask id="mask-44" fill="white">
                        <use xlink:href="#path-43"></use>
                    </mask>
                    <g id="Clip-2"></g>
                    <path d="M63.6448561,96.2856 C63.6448561,78.5950091 32.2028912,0.1806 32.2028912,0.1806 C32.2028912,0.1806 0.766680702,78.5950091 0.766680702,96.2856 C0.766680702,113.976191 14.8476632,128.318645 32.2028912,128.318645 C49.5696281,128.318645 63.6448561,113.976191 63.6448561,96.2856" id="Fill-1" fill="#F57A82" mask="url(#mask-44)"></path>
                </g>
                <path d="M65,1 C59.4693374,15.1106377 35,78.4241502 35,94.085729 C35,111.356775 48.339662,125.391329 65,126 L65,1 Z" id="Fill-4" fill="#ED5276"></path>
                <g id="Fill-6">
                    <use fill="url(#linearGradient-45)" xlink:href="#path-47"></use>
                    <use fill="url(#linearGradient-46)" xlink:href="#path-47"></use>
                </g>
                <g id="Fill-8">
                    <use fill="url(#linearGradient-48)" xlink:href="#path-50"></use>
                    <use fill="url(#linearGradient-49)" xlink:href="#path-50"></use>
                </g>
                <polygon id="Fill-12" fill="url(#linearGradient-51)" points="54 344 80 344 80 125 54 125"></polygon>
            </g>
            <g id="Group-9" transform="translate(754.000000, 936.000000)">
                <polygon id="Fill-2" fill="url(#linearGradient-52)" points="0 554 195 554 195 293 0 293"></polygon>
                <polygon id="Fill-3" fill="url(#linearGradient-53)" points="0 293 195 293 195 272 0 272"></polygon>
                <polygon id="Fill-5" fill="#E73F66" points="156 0 36 76.3703544 36 220 156 220"></polygon>
                <polygon id="Fill-6" fill="url(#linearGradient-54)" opacity="0.349632626" points="156 0 109 29.8192567 109 220 156 220"></polygon>
                <polygon id="Fill-1" fill="url(#linearGradient-55)" points="21 272 177 272 177 173 21 173"></polygon>
            </g>
            <g id="Group-2" transform="translate(147.000000, 138.000000)" fill="#F2E2D0" fill-rule="nonzero">
                <path d="M1227.38828,473.524911 C1241.85158,473.524911 1253.5764,485.245685 1253.5764,499.703992 C1253.5764,485.245685 1265.30122,473.524911 1279.76452,473.524911 C1265.30122,473.524911 1253.5764,461.804137 1253.5764,447.34583 C1253.5764,461.804137 1241.85158,473.524911 1227.38828,473.524911 Z" id="Path"></path>
                <path d="M-1.77635684e-14,533.075128 C14.4632996,533.075128 26.1881205,544.795901 26.1881205,559.254208 C26.1881205,544.795901 37.9129414,533.075128 52.3762409,533.075128 C37.9129414,533.075128 26.1881205,521.354354 26.1881205,506.896047 C26.1881205,521.354354 14.4632996,533.075128 -1.77635684e-14,533.075128 L-1.77635684e-14,533.075128 Z" id="Path"></path>
                <path d="M705.064782,26.1790807 C719.528081,26.1790807 731.252902,37.8998544 731.252902,52.3581615 C731.252902,37.8998544 742.977723,26.1790807 757.441023,26.1790807 C742.977723,26.1790807 731.252902,14.4583071 731.252902,-6.75015599e-14 C731.252902,14.4583071 719.528081,26.1790807 705.064782,26.1790807 L705.064782,26.1790807 Z" id="Path"></path>
                <path d="M1033.13574,229.5704 C1040.6058,229.5704 1046.66147,235.623987 1046.66147,243.091464 C1046.66147,235.623987 1052.71715,229.5704 1060.18721,229.5704 C1056.59996,229.5704 1053.15964,228.145864 1050.62307,225.610172 C1048.0865,223.074481 1046.66147,219.635346 1046.66147,216.049337 C1046.66147,219.635346 1045.23645,223.074481 1042.69988,225.610172 C1040.16331,228.145864 1036.72299,229.5704 1033.13574,229.5704 L1033.13574,229.5704 Z" id="Path"></path>
                <path d="M228.210764,216.624701 C235.68082,216.624701 241.736497,222.678287 241.736497,230.145765 C241.736497,222.678287 247.792173,216.624701 255.262229,216.624701 C247.792173,216.624701 241.736497,210.571115 241.736497,203.103637 C241.736497,210.571115 235.68082,216.624701 228.210764,216.624701 L228.210764,216.624701 Z" id="Path"></path>
                <path d="M749.095358,229.282718 C756.565414,229.282718 762.62109,235.336305 762.62109,242.803782 C762.62109,235.336305 768.676767,229.282718 776.146823,229.282718 C768.676767,229.282718 762.62109,223.229132 762.62109,215.761654 C762.62109,223.229132 756.565414,229.282718 749.095358,229.282718 L749.095358,229.282718 Z" id="Path"></path>
                <path d="M1183.06993,696.190938 C1190.53998,696.190938 1196.59566,702.244525 1196.59566,709.712002 C1196.59566,702.244525 1202.65133,696.190938 1210.12139,696.190938 C1202.65133,696.190938 1196.59566,690.137352 1196.59566,682.669875 C1196.59566,690.137352 1190.53998,696.190938 1183.06993,696.190938 L1183.06993,696.190938 Z" id="Path"></path>
                <path d="M394.548496,306.093867 C402.018552,306.093867 408.074229,312.147454 408.074229,319.614931 C408.074229,312.147454 414.129905,306.093867 421.599961,306.093867 C414.129905,306.093867 408.074229,300.040281 408.074229,292.572803 C408.074229,300.040281 402.018552,306.093867 394.548496,306.093867 L394.548496,306.093867 Z" id="Path"></path>
                <path d="M495.847599,72.7835981 C503.317655,72.7835981 509.373332,78.8371845 509.373332,86.3046618 C509.373332,78.8371845 515.429009,72.7835981 522.899065,72.7835981 C519.311817,72.7835981 515.871494,71.3590616 513.334927,68.8233702 C510.79836,66.2876789 509.373332,62.8485435 509.373332,59.2625344 C509.373332,66.7300117 503.317655,72.7835981 495.847599,72.7835981 L495.847599,72.7835981 Z" id="Path"></path>
            </g>
        </g>
    </g>
</svg>