<?xml version="1.0" encoding="UTF-8"?>
<svg width="2000px" height="1527px" viewBox="0 0 2000 1527" version="1.1" xmlns="http://www.w3.org/2000/svg" xmlns:xlink="http://www.w3.org/1999/xlink">
    <!-- Generator: Sketch 64 (93537) - https://sketch.com -->
    <title>sort_default_play</title>
    <desc>Created with Sketch.</desc>
    <defs>
        <linearGradient x1="50%" y1="108.276821%" x2="50%" y2="-49.442828%" id="linearGradient-1">
            <stop stop-color="#D2D4CD" offset="0.07202738%"></stop>
            <stop stop-color="#9DC2BC" offset="34%"></stop>
            <stop stop-color="#4596AB" offset="100%"></stop>
        </linearGradient>
        <linearGradient x1="50%" y1="108.123427%" x2="50%" y2="-301.752988%" id="linearGradient-2">
            <stop stop-color="#D2D4CD" offset="0.07202738%"></stop>
            <stop stop-color="#9DC2BC" offset="19.51%"></stop>
            <stop stop-color="#4596AB" offset="100%"></stop>
        </linearGradient>
        <linearGradient x1="50%" y1="81.2923703%" x2="50%" y2="43.287324%" id="linearGradient-3">
            <stop stop-color="#DBD8CD" offset="0%"></stop>
            <stop stop-color="#93B8B3" offset="100%"></stop>
        </linearGradient>
        <linearGradient x1="50.2062576%" y1="96.8817638%" x2="50.2062576%" y2="37.6478653%" id="linearGradient-4">
            <stop stop-color="#DBD8CD" offset="0%"></stop>
            <stop stop-color="#93B8B3" offset="99.3174719%"></stop>
            <stop stop-color="#93B8B3" offset="100%"></stop>
        </linearGradient>
        <linearGradient x1="50%" y1="115.676057%" x2="50%" y2="33.4717086%" id="linearGradient-5">
            <stop stop-color="#DBD8CD" offset="0%"></stop>
            <stop stop-color="#93B8B3" offset="100%"></stop>
        </linearGradient>
        <linearGradient x1="50%" y1="482.884699%" x2="50%" y2="21.4482261%" id="linearGradient-6">
            <stop stop-color="#DBD8CD" offset="0%"></stop>
            <stop stop-color="#93B8B3" offset="100%"></stop>
        </linearGradient>
        <linearGradient x1="49.9550519%" y1="69.9840889%" x2="50%" y2="49.14006%" id="linearGradient-7">
            <stop stop-color="#DBD8CD" offset="0%"></stop>
            <stop stop-color="#93B8B3" offset="100%"></stop>
        </linearGradient>
        <linearGradient x1="48.2666667%" y1="47.8208865%" x2="50%" y2="77.0955557%" id="linearGradient-8">
            <stop stop-color="#F2E2D0" offset="0%"></stop>
            <stop stop-color="#A0E2D0" offset="22.4442264%"></stop>
            <stop stop-color="#39A9BB" offset="70.8335004%"></stop>
            <stop stop-color="#445DCE" offset="100%"></stop>
        </linearGradient>
        <linearGradient x1="48.2666667%" y1="47.124729%" x2="50%" y2="85.7517232%" id="linearGradient-9">
            <stop stop-color="#F2E2D0" offset="0%"></stop>
            <stop stop-color="#A0E2D0" offset="22.4442264%"></stop>
            <stop stop-color="#39A9BB" offset="70.8335004%"></stop>
            <stop stop-color="#445DCE" offset="100%"></stop>
        </linearGradient>
        <linearGradient x1="48.2666667%" y1="45.6749309%" x2="50%" y2="103.778818%" id="linearGradient-10">
            <stop stop-color="#F2E2D0" offset="0%"></stop>
            <stop stop-color="#A0E2D0" offset="22.4442264%"></stop>
            <stop stop-color="#39A9BB" offset="70.8335004%"></stop>
            <stop stop-color="#445DCE" offset="100%"></stop>
        </linearGradient>
        <linearGradient x1="48.2666667%" y1="42.1268268%" x2="50%" y2="147.89669%" id="linearGradient-11">
            <stop stop-color="#F2E2D0" offset="0%"></stop>
            <stop stop-color="#A0E2D0" offset="22.4442264%"></stop>
            <stop stop-color="#39A9BB" offset="70.8335004%"></stop>
            <stop stop-color="#445DCE" offset="100%"></stop>
        </linearGradient>
        <linearGradient x1="50%" y1="0.034512448%" x2="100%" y2="915.00466%" id="linearGradient-12">
            <stop stop-color="#F2E2D0" offset="0%"></stop>
            <stop stop-color="#A0E2D0" offset="75.4479806%"></stop>
            <stop stop-color="#39A9BB" offset="90.960687%"></stop>
            <stop stop-color="#445DCE" offset="100%"></stop>
        </linearGradient>
        <circle id="path-13" cx="789.5" cy="789.5" r="789.5"></circle>
        <linearGradient x1="50%" y1="63.8962893%" x2="37.8605161%" y2="38.5830216%" id="linearGradient-15">
            <stop stop-color="#D7D7D7" offset="0%"></stop>
            <stop stop-color="#FFFFFF" offset="100%"></stop>
        </linearGradient>
        <linearGradient x1="76.5212009%" y1="77.2335726%" x2="42.6529957%" y2="40.5603865%" id="linearGradient-16">
            <stop stop-color="#D7D7D7" offset="0%"></stop>
            <stop stop-color="#FFFFFF" offset="100%"></stop>
        </linearGradient>
        <linearGradient x1="66.478009%" y1="67.5700158%" x2="8.93027086%" y2="16.2776181%" id="linearGradient-17">
            <stop stop-color="#FF9C74" offset="0%"></stop>
            <stop stop-color="#D36564" offset="67%"></stop>
            <stop stop-color="#B2314E" offset="100%"></stop>
        </linearGradient>
        <linearGradient x1="40.7042147%" y1="53.1438579%" x2="54.7384219%" y2="41.2089993%" id="linearGradient-18">
            <stop stop-color="#FF9C74" offset="0%"></stop>
            <stop stop-color="#D36564" offset="67%"></stop>
            <stop stop-color="#B2314E" offset="100%"></stop>
        </linearGradient>
        <linearGradient x1="50%" y1="270.431253%" x2="50%" y2="-79.3232885%" id="linearGradient-19">
            <stop stop-color="#5D83AC" offset="0%"></stop>
            <stop stop-color="#006E96" offset="100%"></stop>
        </linearGradient>
        <linearGradient x1="28.4971198%" y1="535.813951%" x2="50.0275015%" y2="-189.666667%" id="linearGradient-20">
            <stop stop-color="#FF9C74" offset="0%"></stop>
            <stop stop-color="#D36564" offset="67%"></stop>
            <stop stop-color="#B2314E" offset="100%"></stop>
        </linearGradient>
        <linearGradient x1="28.3165237%" y1="385.070726%" x2="50.0277325%" y2="-115.300489%" id="linearGradient-21">
            <stop stop-color="#FF9C74" offset="0%"></stop>
            <stop stop-color="#D36564" offset="67%"></stop>
            <stop stop-color="#B2314E" offset="100%"></stop>
        </linearGradient>
        <linearGradient x1="28.3165237%" y1="460.09153%" x2="50.0277325%" y2="-152.310514%" id="linearGradient-22">
            <stop stop-color="#FF9C74" offset="0%"></stop>
            <stop stop-color="#D36564" offset="67%"></stop>
            <stop stop-color="#B2314E" offset="100%"></stop>
        </linearGradient>
        <linearGradient x1="37.0407652%" y1="535.813951%" x2="50.0165744%" y2="-189.666667%" id="linearGradient-23">
            <stop stop-color="#FF9C74" offset="0%"></stop>
            <stop stop-color="#D36564" offset="67%"></stop>
            <stop stop-color="#B2314E" offset="100%"></stop>
        </linearGradient>
        <linearGradient x1="132.53602%" y1="52.1354554%" x2="-72.4940154%" y2="46.6648976%" id="linearGradient-24">
            <stop stop-color="#FF9C74" offset="0%"></stop>
            <stop stop-color="#D36564" offset="67%"></stop>
            <stop stop-color="#B2314E" offset="100%"></stop>
            <stop stop-color="#B2314E" offset="100%"></stop>
        </linearGradient>
        <linearGradient x1="50.0277325%" y1="124.91124%" x2="50.0277325%" y2="-189.666667%" id="linearGradient-25">
            <stop stop-color="#FF9C74" offset="0%"></stop>
            <stop stop-color="#D36564" offset="67%"></stop>
            <stop stop-color="#B2314E" offset="100%"></stop>
        </linearGradient>
        <linearGradient x1="50%" y1="110.933914%" x2="50%" y2="50%" id="linearGradient-26">
            <stop stop-color="#FF9C74" offset="0%"></stop>
            <stop stop-color="#D36564" offset="44.775577%"></stop>
            <stop stop-color="#B2314E" offset="100%"></stop>
        </linearGradient>
        <linearGradient x1="40.0571639%" y1="58.9953295%" x2="50%" y2="48.9819948%" id="linearGradient-27">
            <stop stop-color="#FF9C74" offset="0%"></stop>
            <stop stop-color="#D36564" offset="74.6758068%"></stop>
            <stop stop-color="#B2314E" offset="100%"></stop>
        </linearGradient>
        <linearGradient x1="42.9269231%" y1="-81.5439614%" x2="672.890382%" y2="532.261256%" id="linearGradient-28">
            <stop stop-color="#F2E2D0" offset="0%"></stop>
            <stop stop-color="#A0E2D0" offset="34%"></stop>
            <stop stop-color="#39A9BB" offset="97%"></stop>
            <stop stop-color="#445DCE" offset="100%"></stop>
        </linearGradient>
        <linearGradient x1="50.0277325%" y1="124.91124%" x2="50.0277325%" y2="0%" id="linearGradient-29">
            <stop stop-color="#FF9C74" offset="0%"></stop>
            <stop stop-color="#D36564" offset="43.5600203%"></stop>
            <stop stop-color="#B2314E" offset="100%"></stop>
        </linearGradient>
        <linearGradient x1="50.0277325%" y1="150.198937%" x2="50.0277325%" y2="22.061341%" id="linearGradient-30">
            <stop stop-color="#FF9C74" offset="0%"></stop>
            <stop stop-color="#D36564" offset="57.3549863%"></stop>
            <stop stop-color="#B2314E" offset="100%"></stop>
        </linearGradient>
        <linearGradient x1="42.9269231%" y1="-81.5439614%" x2="315.486949%" y2="470.704062%" id="linearGradient-31">
            <stop stop-color="#F2E2D0" offset="0%"></stop>
            <stop stop-color="#A0E2D0" offset="34%"></stop>
            <stop stop-color="#39A9BB" offset="97%"></stop>
            <stop stop-color="#445DCE" offset="100%"></stop>
        </linearGradient>
        <linearGradient x1="50.0277325%" y1="124.91124%" x2="50.0277325%" y2="-18.5804299%" id="linearGradient-32">
            <stop stop-color="#FF9C74" offset="0%"></stop>
            <stop stop-color="#D36564" offset="67%"></stop>
            <stop stop-color="#B2314E" offset="100%"></stop>
        </linearGradient>
        <linearGradient x1="35.4824751%" y1="59.4848362%" x2="19.2391687%" y2="5.24682757%" id="linearGradient-33">
            <stop stop-color="#FF9C74" offset="0%"></stop>
            <stop stop-color="#D36564" offset="67%"></stop>
            <stop stop-color="#B2314E" offset="100%"></stop>
        </linearGradient>
        <linearGradient x1="-13.0901381%" y1="57.9162764%" x2="150.646845%" y2="38.611925%" id="linearGradient-34">
            <stop stop-color="#FF9C74" offset="0%"></stop>
            <stop stop-color="#D36564" offset="79.1989553%"></stop>
            <stop stop-color="#B2314E" offset="100%"></stop>
        </linearGradient>
        <linearGradient x1="50.0101647%" y1="224.123968%" x2="50.0101647%" y2="-122.087959%" id="linearGradient-35">
            <stop stop-color="#D18CA3" offset="0%"></stop>
            <stop stop-color="#208CA3" offset="31%"></stop>
            <stop stop-color="#383B6F" offset="79%"></stop>
            <stop stop-color="#3C4178" offset="80%"></stop>
            <stop stop-color="#241B3C" offset="100%"></stop>
        </linearGradient>
    </defs>
    <g id="sort_default_play" stroke="none" stroke-width="1" fill="none" fill-rule="evenodd">
        <rect id="Rectangle" fill="url(#linearGradient-1)" fill-rule="nonzero" x="0" y="0" width="2000" height="1527"></rect>
        <rect id="Rectangle" fill="url(#linearGradient-2)" fill-rule="nonzero" x="0" y="1407" width="2000" height="120"></rect>
        <g id="visit-shopping-malls" transform="translate(213.000000, 1.000000)">
            <g id="Layer_3" transform="translate(2.000000, 0.000000)" fill-rule="nonzero">
                <ellipse id="Oval" fill="url(#linearGradient-3)" cx="788.882527" cy="788.786811" rx="788.651343" ry="788.633985"></ellipse>
                <path d="M1558.53716,959.465626 L1425.27235,959.465626 C1400.00481,959.465626 1375.77216,969.502897 1357.90531,987.369355 C1340.03846,1005.23581 1330.00097,1029.46793 1330.00097,1054.73491 L1330.00097,1095.60573 L1193.28221,1095.60573 L1193.28221,1266.57236 L430.535475,1266.57236 L430.535475,1160.65364 L213.512441,1160.65364 L213.512441,1061.06701 C213.512441,1049.23504 208.812105,1037.88767 200.445453,1029.52121 C192.078801,1021.15474 180.731186,1016.45451 168.898953,1016.45451 L117.953227,1016.45451 L117.953227,882.329163 L5.98776303,882.329163 C51.1021258,1264.45322 365.487252,1558.18407 749.799709,1577.27461 C1134.11217,1596.36515 1476.06085,1335.23738 1558.82499,959.465626 L1558.53716,959.465626 Z" id="Path" fill="url(#linearGradient-4)"></path>
                <path d="M1474.20327,397.92369 L1385.26413,439.370148 C1339.1004,462.308043 1285.04268,463.154329 1238.18353,441.672729 C1199.97161,422.622177 1155.16877,421.986689 1116.43188,439.945793 L991.226284,497.510317 C939.946788,521.373873 880.745906,521.373873 829.46641,497.510317 L829.46641,497.510317 C797.976937,482.906542 761.654892,482.906542 730.16542,497.510317 L684.688444,518.521369 C626.107665,545.774139 558.483033,545.774139 499.902254,518.521369 L374.984486,460.956844 C344.391564,446.849937 309.154708,446.849937 278.561786,460.956844 L178.685131,507.296287 C156.422781,517.663028 130.717228,517.663028 108.454872,507.296287 L61.2509228,485.421767 C29.3296735,562.438947 9.89698523,644.054441 3.68513137,727.19277 L108.742701,776.122616 C131.005057,786.489357 156.71061,786.489357 178.972966,776.122616 L278.561786,731.222287 C309.154708,717.11538 344.391564,717.11538 374.984486,731.222287 L499.902254,788.786811 C558.483033,816.039581 626.107665,816.039581 684.688444,788.786811 L730.16542,767.487937 C761.654892,752.884161 797.976937,752.884161 829.46641,767.487937 L885.305228,793.391973 C901.180052,800.788219 919.512642,800.788219 935.387466,793.391973 L1115.85622,709.63559 C1152.0607,691.941299 1194.26889,691.308191 1230.98781,707.908654 C1279.11052,731.408073 1335.26828,731.936854 1383.82498,709.347767 L1498.95656,656.100582 C1519.58765,646.512443 1540.72653,638.057079 1562.27894,630.772192 C1545.52823,548.955187 1515.79382,470.345364 1474.20327,397.92369 Z" id="Path" fill="url(#linearGradient-5)"></path>
                <path d="M1475.64242,400.226271 C1430.62618,320.753301 1372.19865,249.668043 1302.94504,190.115757 C1278.90919,189.226613 1255.30667,183.44853 1233.57827,173.134222 C1194.7744,156.117729 1150.44346,157.0654 1112.40227,175.724626 L991.514113,233.28915 C940.234617,257.152706 881.033735,257.152706 829.754239,233.28915 L829.754239,233.28915 C798.264766,218.685374 761.942721,218.685374 730.453249,233.28915 L684.976273,254.588024 C626.395494,281.840794 558.770862,281.840794 500.190083,254.588024 L375.272315,197.0235 C344.679393,182.916593 309.442537,182.916593 278.849615,197.0235 L261.292048,205.082533 C173.76692,283.776414 104.930057,381.030927 59.811778,489.739107 L107.879214,512.189271 C130.14157,522.556012 155.847123,522.556012 178.109479,512.189271 L277.986128,465.849829 C308.57905,451.742922 343.815906,451.742922 374.408828,465.849829 L499.326596,523.414353 C557.907376,550.667124 625.532007,550.667124 684.112786,523.414353 L730.16542,500.964189 C761.654892,486.360413 797.976937,486.360413 829.46641,500.964189 L829.46641,500.964189 C880.745906,524.827745 939.946788,524.827745 991.226284,500.964189 L1115.85622,443.399664 C1152.0607,425.705374 1194.26889,425.072265 1230.98781,441.672729 C1279.11052,465.172148 1335.26828,465.700929 1383.82498,443.111842 L1475.64242,400.226271 Z" id="Path" fill="url(#linearGradient-6)"></path>
                <path d="M789.458185,0.152314198 C591.318293,-0.0732217935 400.407522,74.5623029 254.959811,209.11205 L278.561786,198.17479 C309.154708,184.067883 344.391564,184.067883 374.984486,198.17479 L499.902254,255.739315 C558.483033,282.992085 626.107665,282.992085 684.688444,255.739315 L730.16542,234.728263 C761.654892,220.124488 797.976937,220.124488 829.46641,234.728263 L829.46641,234.728263 C880.745906,258.591819 939.946788,258.591819 991.226284,234.728263 L1116.43188,177.163739 C1153.84331,159.759445 1197.03032,159.759445 1234.44175,177.163739 C1256.9228,187.579869 1281.33745,193.168641 1306.11116,193.569628 C1162.95715,68.7302939 979.401856,0.0136133919 789.458185,0.152314198 Z" id="Path" fill="url(#linearGradient-7)"></path>
                <path d="M1402.53386,1050.12975 C1397.92392,1050.12975 1394.18682,1053.86677 1394.18682,1058.47661 C1394.18682,1063.08645 1397.92392,1066.82346 1402.53386,1066.82346 L1526.01249,1066.82346 L1532.05689,1050.12975 L1402.53386,1050.12975 Z" id="Path" fill="url(#linearGradient-8)"></path>
                <path d="M1402.53386,1097.04484 C1397.92392,1097.04484 1394.18682,1100.78185 1394.18682,1105.3917 C1394.18682,1110.00154 1397.92392,1113.73855 1402.53386,1113.73855 L1506.44012,1113.73855 C1509.03058,1107.9821 1511.62104,1102.51347 1514.2115,1097.04484 L1402.53386,1097.04484 Z" id="Path" fill="url(#linearGradient-9)"></path>
                <path d="M1402.53386,1143.6721 C1397.92392,1143.6721 1394.18682,1147.40912 1394.18682,1152.01896 C1394.18682,1156.6288 1397.92392,1160.36582 1402.53386,1160.36582 L1482.83814,1160.36582 C1485.71643,1154.60936 1489.17038,1149.14073 1492.04867,1143.6721 L1402.53386,1143.6721 Z" id="Path" fill="url(#linearGradient-10)"></path>
                <path d="M1402.53386,1191.73848 C1397.92392,1191.73848 1394.18682,1195.4755 1394.18682,1200.08534 C1394.18682,1204.69518 1397.92392,1208.43219 1402.53386,1208.43219 L1456.93354,1208.43219 C1460.38748,1202.96356 1463.26577,1197.20711 1466.71972,1191.73848 L1402.53386,1191.73848 Z" id="Path" fill="url(#linearGradient-11)"></path>
            </g>
            <g id="Group" transform="translate(130.078352, 1060.886984)" fill="url(#linearGradient-12)" fill-rule="nonzero">
                <rect id="Rectangle" x="-4.4408921e-14" y="-1.77635684e-15" width="12.0868248" height="12.0826526"></rect>
                <rect id="Rectangle" x="21.0080527" y="-1.77635684e-15" width="12.0868248" height="12.0826526"></rect>
                <rect id="Rectangle" x="42.3038869" y="-1.77635684e-15" width="12.0868248" height="12.0826526"></rect>
                <rect id="Rectangle" x="-4.4408921e-14" y="20.7131188" width="12.0868248" height="12.0826526"></rect>
                <rect id="Rectangle" x="21.0080527" y="20.7131188" width="12.0868248" height="12.0826526"></rect>
                <rect id="Rectangle" x="42.3038869" y="20.7131188" width="12.0868248" height="12.0826526"></rect>
                <rect id="Rectangle" x="21.0080527" y="41.4262377" width="12.0868248" height="12.0826526"></rect>
                <rect id="Rectangle" x="42.3038869" y="41.4262377" width="12.0868248" height="12.0826526"></rect>
                <rect id="Rectangle" x="21.0080527" y="62.1393565" width="12.0868248" height="12.0826526"></rect>
                <rect id="Rectangle" x="42.3038869" y="62.1393565" width="12.0868248" height="12.0826526"></rect>
                <rect id="Rectangle" x="21.0080527" y="82.8524753" width="12.0868248" height="12.0826526"></rect>
                <rect id="Rectangle" x="42.3038869" y="82.8524753" width="12.0868248" height="12.0826526"></rect>
                <rect id="Rectangle" x="42.3038869" y="103.565594" width="12.0868248" height="12.0826526"></rect>
                <rect id="Rectangle" x="42.3038869" y="124.278713" width="12.0868248" height="12.0826526"></rect>
            </g>
            <g id="Layer_2">
                <mask id="mask-14" fill="white">
                    <use xlink:href="#path-13"></use>
                </mask>
                <g id="Mask"></g>
                <g id="5933---Cars-Swing" mask="url(#mask-14)">
                    <g transform="translate(195.000000, 355.000000)" id="Layer_x0020_1">
                        <g transform="translate(0.375000, 0.863770)">
                            <g id="_374475728">
                                <g id="Group" transform="translate(164.993164, 686.186523)" fill-rule="nonzero">
                                    <path d="M499.38959,136.805547 C490.977251,140.146635 483.67854,147.99987 483.09027,154.344166 C482.502005,160.68759 488.847244,163.123499 497.259636,159.783335 L837.517174,24.640827 C845.929512,21.3006483 853.228224,13.4474286 853.816494,7.10305594 C854.404759,0.758721836 848.05952,-1.67627658 839.647128,1.66388667 L499.38959,136.805624 L499.38959,136.805547 Z" id="_374485808" fill="url(#linearGradient-15)"></path>
                                    <path d="M354.875624,136.805547 C363.287962,140.146635 370.586674,147.99987 371.174944,154.344166 C371.763209,160.68759 365.41797,163.123499 357.005578,159.783335 L16.7480397,24.640827 C8.33570137,21.3006483 1.03698975,13.4474286 0.448719727,7.10305594 C-0.139544896,0.758721836 6.20569359,-1.67627658 14.618934,1.66388667 L354.87493,136.805624 L354.875624,136.805547 Z" id="_374485784" fill="url(#linearGradient-16)"></path>
                                </g>
                                <path d="M1147.72792,538.286343 C1136.16205,529.807467 1119.91014,532.312634 1111.43127,543.878501 C1102.95239,555.445293 1105.45756,571.696271 1117.02343,580.175147 C1118.50228,581.25606 1119.8664,582.492691 1121.11214,583.862273 L987.706681,583.862273 L987.706681,565.023215 C987.890628,553.327127 980.119347,542.568108 968.300324,539.459221 L968.284843,539.517501 L912.300504,524.789933 C903.593105,521.845877 893.588968,523.613401 886.339446,530.267352 L886.349463,530.327453 L821.40453,589.936091 C820.983821,590.277576 820.570397,590.630899 820.166079,591.001523 C809.575523,600.720622 808.870678,617.186554 818.589785,627.777188 L818.650797,627.766261 L878.26676,692.719366 C882.799854,698.31972 889.622298,702.022359 897.386229,702.354736 L897.483666,702.277332 L1123.75868,711.975461 C1129.36177,712.667536 1135.22987,711.551109 1140.43132,708.397615 L1140.37122,708.297446 C1168.96484,690.954583 1182.74994,657.356115 1184.13774,624.926555 C1185.08297,602.855712 1180.15739,580.169306 1169.14341,562.007799 C1163.50208,552.704806 1156.37185,544.599324 1147.72822,538.286023 L1147.72792,538.286343 Z" id="_374485184" fill="url(#linearGradient-17)"></path>
                                <path d="M1145.33012,541.555366 C1147.13771,542.880331 1149.67745,542.488757 1151.0024,540.681165 C1152.32645,538.874482 1151.93489,536.334743 1150.1282,535.009787 C1143.4351,530.103337 1135.39246,528.374055 1127.80424,529.542391 L1127.65217,529.56971 C1120.11583,530.773559 1113.02845,534.83495 1108.15931,541.476126 C1103.25377,548.169228 1101.52357,556.211866 1102.69191,563.800086 L1102.71923,563.95125 C1103.64807,569.77015 1106.2816,575.322209 1110.49141,579.790671 L991.774201,579.790671 L991.774201,565.019388 C991.774201,564.90647 991.769648,564.795374 991.761453,564.685188 C991.777844,558.001192 989.546813,551.596759 985.620191,546.425302 C981.69357,541.251124 976.080502,537.305421 969.33367,535.531513 L969.335491,535.522407 C967.163649,534.952355 964.938076,536.249086 964.368025,538.420928 C964.312477,538.634014 964.27423,538.848011 964.253286,539.060187 C963.787045,543.175309 969.000378,543.833686 967.268366,543.380194 L964.36074,538.481022 C964.310655,538.674075 964.276051,538.867128 964.253286,539.060181 C963.780671,546.353388 968.727191,539.613842 979.170287,551.319019 C982.033296,555.090832 983.661494,559.759576 983.657855,564.633273 C983.645106,564.76076 983.639642,564.889159 983.639642,565.019379 L983.639642,583.858437 C983.639642,586.10495 985.460897,587.926205 987.70741,587.926205 L1121.11286,587.926205 L1121.11286,587.925294 C1122.09087,587.926205 1123.07162,587.575613 1123.85203,586.865329 C1125.5121,585.353691 1125.6323,582.77935 1124.11975,581.11928 L1124.11429,581.124744 C1123.39489,580.333409 1122.64181,579.580323 1121.85958,578.876411 C1121.09739,578.188888 1120.2842,577.526859 1119.42275,576.898528 C1114.57912,573.347089 1111.61957,568.176558 1110.74719,562.677274 L1110.7308,562.560714 C1109.87572,557.015001 1111.13329,551.14604 1114.70568,546.273268 C1118.25712,541.429647 1123.42858,538.470093 1128.92694,537.597711 L1129.0435,537.58132 C1134.58921,536.726239 1140.4591,537.984727 1145.33002,541.555288 L1145.33012,541.555366 Z" id="_374485064" fill="#D7D7D7" fill-rule="nonzero"></path>
                                <path d="M823.446958,632.995503 L878.261157,692.718017 C882.794251,698.318371 889.616695,702.02101 897.380626,702.353386 L897.478063,702.275983 L1123.75308,711.974112 C1129.35616,712.666187 1135.22427,711.54976 1140.42572,708.396266 L1140.36562,708.296097 C1166.59166,692.390216 1180.35757,662.808484 1183.52837,632.995503 L823.446958,632.995503 L823.446958,632.995503 Z" id="_374484824" fill="url(#linearGradient-18)"></path>
                                <ellipse id="_374484800" fill="url(#linearGradient-19)" transform="translate(888.341699, 581.654873) rotate(-29.454989) translate(-888.341699, -581.654873) " cx="888.341699" cy="581.654873" rx="24.9089544" ry="16.0132679"></ellipse>
                                <ellipse id="_374484680" fill="#FFE082" transform="translate(888.341699, 581.654873) rotate(-29.455030) translate(-888.341699, -581.654873) " cx="888.341699" cy="581.654873" rx="9.15029635" ry="5.88246073"></ellipse>
                                <path d="M618.153828,429.494168 C618.153828,415.119948 606.499605,403.465725 592.125385,403.465725 C577.751166,403.465725 566.096943,415.119948 566.096943,429.494168 L566.096943,924.01723 C566.096943,938.39145 577.751166,950.045673 592.125385,950.045673 C606.499605,950.045673 618.153828,938.39145 618.153828,924.01723 L618.153828,429.494168 L618.153828,429.494168 Z" id="_374484632" fill="#D7D7D7" fill-rule="nonzero"></path>
                                <path d="M597.899761,429.494168 C597.899761,415.119948 595.313585,403.465725 592.123658,403.465725 C588.933739,403.465725 586.347556,415.119948 586.347556,429.494168 L586.347556,924.01723 C586.347556,938.39145 588.933732,950.045673 592.123658,950.045673 C595.313578,950.045673 597.899761,938.39145 597.899761,924.01723 L597.899761,429.494168 L597.899761,429.494168 Z" id="_374484944" fill="#EDA496" fill-rule="nonzero"></path>
                                <g id="Group" transform="translate(171.161133, 380.101074)">
                                    <path d="M0.082496582,0.024671875 L13.2292136,105.129172 L86.8997407,30.4441686 C55.5741694,20.8562153 26.3968246,10.6817654 0.082496582,0.024671875 Z" id="_374484896" fill="#EDA496"></path>
                                    <path d="M88.2520679,27.9304129 L120.271536,131.854981 L191.742951,42.2135781 C155.487322,38.3871245 120.725961,33.621829 88.2520679,27.9304129 L88.2520679,27.9304129 Z" id="_374484416" fill="url(#linearGradient-20)"></path>
                                    <path d="M192.751722,42.3193588 L239.544631,144.891754 L308.026432,51.0522773 C268.606327,49.1345017 229.899085,46.2186715 192.751722,42.3193588 L192.751722,42.3193588 Z" id="_374484344" fill="#EDA496"></path>
                                    <path d="M308.734592,51.08735 L365.850908,151.200044 L429.28145,53.7900845 C388.957121,53.9148401 348.486456,53.0087647 308.734592,51.08735 L308.734592,51.08735 Z" id="_374483768" fill="url(#linearGradient-21)"></path>
                                    <path d="M429.899712,53.7885425 L493.951292,150.774454 L549.357384,50.2920752 C510.265107,52.4930609 470.158352,53.6541039 429.899712,53.7879719 L429.899712,53.7885425 Z" id="_374483912" fill="#EDA496"></path>
                                    <path d="M550.090216,50.2519834 L618.553898,143.49548 L662.048101,40.6322651 C626.278739,44.8639466 588.681731,48.0657083 550.090216,50.2521376 L550.090216,50.2519834 Z" id="_374483888" fill="url(#linearGradient-22)"></path>
                                    <path d="M663.14145,40.5019668 L734.508087,129.107922 L760.921719,25.260916 C730.547788,31.3129347 697.703355,36.3887797 663.14145,40.5020439 L663.14145,40.5019668 Z" id="_374483696" fill="#EDA496"></path>
                                    <path d="M762.777275,24.8892959 L837.114406,106.998067 L841.74221,4.8549624 C818.098689,12.4231757 791.561235,19.0980358 762.777275,24.8896814 L762.777275,24.8892959 Z" id="_374484224" fill="url(#linearGradient-23)"></path>
                                </g>
                                <ellipse id="_374483264" fill="#D7D7D7" cx="592.125" cy="368.130589" rx="433.921999" ry="67.3596157"></ellipse>
                                <ellipse id="_374483024" fill="url(#linearGradient-24)" cx="592.125" cy="362.800693" rx="407.361183" ry="52.8688983"></ellipse>
                                <g id="Group" transform="translate(192.749023, 153.428223)">
                                    <path d="M315.801542,1.65301563 C320.89832,1.6038418 325.996038,1.57834427 331.091859,1.55375759 C284.503341,37.900518 237.686454,74.311888 190.925541,110.642766 C144.189454,146.954909 97.4291573,183.31254 50.7584507,219.633858 C32.0441396,214.399581 16.0354081,208.017028 0.665832227,201.984986 C53.148847,168.628765 105.63695,135.232453 158.193441,101.843387 C210.681005,68.4981148 263.318758,35.0580867 315.802005,1.65244509 L315.801542,1.65301563 Z" id="_374483624" fill="#D7D7D7"></path>
                                    <path d="M331.091937,1.55432812 C336.269754,1.52883059 341.366539,1.50424368 346.463286,1.45415954 C307.917413,40.0947876 269.271157,78.8452054 230.666611,117.400407 C191.943178,156.075576 153.335703,194.654987 114.790524,233.271097 C92.0130639,229.207886 70.4302619,224.845112 50.7589133,219.634489 C97.4293886,183.313249 144.189762,146.955617 190.926003,110.643397 C237.686685,74.3121339 284.504112,37.900764 331.092322,1.55438903 L331.091937,1.55432812 Z" id="_374482904" fill="#EDA496"></path>
                                    <path d="M346.463286,1.45409863 C351.640193,1.42951172 356.736963,1.40401419 361.83371,1.37942728 C333.163526,41.5653628 304.412388,81.8267017 275.663331,121.987117 C246.914891,162.147533 218.242934,202.384277 189.492953,242.51925 C163.690335,239.82744 138.682768,236.785945 114.790679,233.27092 C153.335626,194.654887 191.943487,156.075707 230.666766,117.40023 C269.271851,78.8452598 307.918261,40.0947648 346.46344,1.4539826 L346.463286,1.45409863 Z" id="_374483072" fill="#D7D7D7"></path>
                                    <path d="M361.833864,1.37931201 C367.010771,1.35381448 372.107541,1.32922757 377.204288,1.27914343 C359.524499,42.362981 341.911171,83.5259227 324.163997,124.555251 C306.393154,165.641787 288.724236,206.696404 271.044448,247.755801 C243.249422,246.508244 216.171962,244.588641 189.492336,242.519704 C218.242626,202.384808 246.914583,162.147987 275.662714,121.987572 C304.412079,81.8271562 333.163295,41.5657402 361.833093,1.37988178 L361.833864,1.37931201 Z" id="_374482424" fill="#EDA496"></path>
                                    <path d="M377.203671,1.27908252 C382.380578,1.25449561 387.477348,1.22899807 392.574095,1.20441116 C386.522076,42.6378954 380.349875,84.138148 374.177665,125.576875 C368.00726,167.003035 361.912428,208.466665 355.781236,249.849109 C327.34875,249.401081 298.997297,248.975818 271.044139,247.755577 C288.723928,206.696335 306.392845,165.641409 324.163689,124.555028 C341.910862,83.5258537 359.524191,42.3629891 377.203979,1.27892022 L377.203671,1.27908252 Z" id="_374482280" fill="#D7D7D7"></path>
                                    <path d="M392.575791,1.2042959 C397.752698,1.17970899 402.850393,1.15512208 407.946215,1.13053516 C413.440934,42.4128271 418.976625,83.7504766 424.432193,125.028836 C429.885934,166.29116 435.50177,207.594037 440.996504,248.852351 C412.645051,249.499806 384.293674,249.75023 355.782932,249.849488 C361.914178,208.466967 368.009003,167.003645 374.179362,125.577254 C380.351586,84.1382953 386.52378,42.6381199 392.575791,1.2047898 L392.575791,1.2042959 Z" id="_374482400" fill="#EDA496"></path>
                                    <path d="M407.941666,1.13105127 C413.11865,1.10555373 418.216346,1.08096682 423.312167,1.05546929 C440.11595,41.7649882 457.050879,82.5374205 473.884731,123.209006 C490.738628,163.930399 507.651661,204.627736 524.53555,245.3132 C497.059254,246.833943 469.18497,247.955835 440.991956,248.852804 C435.497236,207.595107 429.881439,166.291459 424.427644,125.02929 C418.972084,83.7515466 413.436401,42.4139742 407.941666,1.13098836 L407.941666,1.13105127 Z" id="_374482592" fill="#D7D7D7"></path>
                                    <path d="M423.315174,1.05549365 C428.492313,1.03090674 433.590008,0.980822295 438.685829,0.956235615 C466.241384,40.7178149 493.958077,80.4991316 521.59181,120.317225 C549.14829,160.022367 576.782101,199.86706 604.337424,239.628099 C578.215228,241.672457 551.695044,243.741394 524.538557,245.31223 C507.654668,204.627305 490.741558,163.929737 473.887738,123.208036 C457.053886,82.5367586 440.118957,41.7646348 423.315174,1.05449907 L423.315174,1.05549365 Z" id="_374481368" fill="#EDA496"></path>
                                    <path d="M438.689067,0.956035156 C443.866884,0.930537622 448.962745,0.90595071 454.060417,0.880453176 C491.411554,39.2715098 528.842874,77.7382011 566.193317,116.128178 C603.543529,154.52016 640.896517,192.935811 678.247577,231.302659 C654.434668,234.418824 629.587392,236.985879 604.341202,239.628491 C576.785647,199.866912 549.151837,160.022374 521.595588,120.317617 C493.9617,80.4996007 466.245007,40.7176671 438.689067,0.95662759 L438.689067,0.956035156 Z" id="_374481968" fill="#D7D7D7"></path>
                                    <path d="M454.054788,0.880477539 C459.231927,0.830393093 464.327771,0.805806182 469.425443,0.781219502 C515.218063,37.4020691 561.123093,74.0602348 606.963437,110.719095 C652.707791,147.300777 698.549292,183.986236 744.343376,220.606855 C723.238745,224.396879 701.417397,228.160496 678.241948,231.30219 C640.890811,192.935728 603.537824,154.519999 566.187689,116.127709 C528.837477,77.7375007 491.406157,39.2708865 454.054788,0.879984102 L454.054788,0.880477539 Z" id="_374482016" fill="#EDA496"></path>
                                    <path d="M469.428682,0.781019043 C474.605589,0.755521508 479.701434,0.730934597 484.878364,0.680850459 C536.884209,34.7591862 589.054585,68.8539442 641.053646,102.891032 C693.06404,136.93475 745.143515,171.023185 797.069331,205.050327 C781.299994,210.859212 763.540099,215.945042 744.346845,220.606561 C698.553301,183.985711 652.711646,147.300252 606.966906,110.718801 C561.126023,74.0597098 515.221455,37.401544 469.428682,0.780925752 L469.428682,0.781019043 Z" id="_374481704" fill="#D7D7D7"></path>
                                </g>
                                <path d="M540.071199,822.722222 C525.696979,822.722222 514.042756,834.376444 514.042756,848.750664 C514.042756,863.124884 525.696979,874.779107 540.071199,874.779107 L644.180343,874.779107 C658.555488,874.779107 670.208786,863.124884 670.208786,848.750664 C670.208786,834.376444 658.555488,822.722222 644.180343,822.722222 L540.071199,822.722222 L540.071199,822.722222 Z" id="_374481872" fill="url(#linearGradient-25)" fill-rule="nonzero"></path>
                                <path d="M895.928301,968.933921 L895.928301,1047.55471 C895.928301,1048.90608 895.828132,1050.23377 895.6369,1051.52867 C888.049566,1057.7783 878.414236,1062.08099 869.491883,1065.19805 C848.399974,1072.56684 824.371264,1076.78034 802.366034,1080.03217 C733.85054,1090.15835 661.279145,1092.94574 592.127735,1092.94574 C522.976632,1092.94574 450.406317,1090.15831 381.889436,1080.03217 C359.884128,1076.78032 335.855495,1072.56686 314.763586,1065.19805 C305.841311,1062.08097 296.206867,1057.77918 288.619494,1051.52952 C288.39548,1050.037 288.295311,1048.51717 288.321399,1046.98732 L288.321399,968.933921 C295.957315,975.314746 305.726483,979.687535 314.76356,982.845613 C335.855469,990.2144 359.884179,994.427901 381.88941,997.679732 C450.405828,1007.80499 522.976298,1010.5933 592.127709,1010.5933 C661.278811,1010.5933 733.849897,1007.80496 802.366007,997.679732 C824.371315,994.427886 848.399948,990.214423 869.491857,982.845613 C878.528934,979.687559 888.298071,975.314739 895.928301,968.933921 L895.928301,968.933921 Z" id="_374480840" fill="url(#linearGradient-26)" fill-rule="nonzero"></path>
                                <path d="M592.125,925.118213 C759.317045,925.118213 894.853532,944.45811 894.853532,968.313732 C894.853532,992.170278 759.317045,1011.51018 592.125,1011.51018 C424.932955,1011.51018 289.396468,992.170278 289.396468,968.313732 C289.396468,944.458033 424.932955,925.118213 592.125,925.118213 Z" id="_374480792" fill="url(#linearGradient-27)"></path>
                                <path d="M592.125,917.408252 C676.017085,917.408252 752.093583,922.27828 807.269147,930.150659 C866.146572,938.552126 902.563493,951.937389 902.563493,968.314117 C902.563493,984.691693 866.146649,998.077034 807.269918,1006.47758 C752.093274,1014.35083 676.017856,1019.22091 592.124229,1019.22091 C508.230602,1019.22091 432.155646,1014.35088 376.97854,1006.47758 C318.10204,998.077034 281.684965,984.69177 281.684965,968.314117 C281.684965,951.937389 318.101809,938.552126 376.979311,930.150659 C432.15503,922.278326 508.231373,917.408252 592.123458,917.408252 L592.125,917.408252 Z M805.100335,945.389088 C750.712266,937.628704 675.421876,932.828791 592.125,932.828791 C508.828124,932.828791 433.538042,937.628704 379.149665,945.389088 C328.459679,952.622188 297.1072,960.836072 297.1072,968.314117 C297.1072,975.792178 328.460064,984.006972 379.148894,991.239146 C433.536038,999.000378 508.827353,1003.80029 592.125,1003.80029 C675.422647,1003.80029 750.714271,999.000378 805.101106,991.239146 C855.790167,984.006956 887.1428,975.792162 887.1428,968.314117 C887.1428,960.836056 855.789936,952.622188 805.100335,945.389088 L805.100335,945.389088 Z" id="_374480936" fill="#EDA496" fill-rule="nonzero"></path>
                                <circle id="_374480744" fill="url(#linearGradient-28)" cx="313.683616" cy="1024.83885" r="13.7918865"></circle>
                                <circle id="_374481320" fill="url(#linearGradient-28)" cx="355.84014" cy="1038.05372" r="10.14893"></circle>
                                <circle id="_374481008" fill="url(#linearGradient-28)" cx="397.475471" cy="1044.1523" r="13.7918865"></circle>
                                <circle id="_374480912" fill="url(#linearGradient-28)" cx="439.631996" cy="1049.24087" r="10.14893"></circle>
                                <circle id="_374480864" fill="url(#linearGradient-28)" cx="487.513166" cy="1052.28631" r="13.7918865"></circle>
                                <circle id="_374480288" fill="url(#linearGradient-28)" cx="529.66969" cy="1055.84831" r="10.14893"></circle>
                                <circle id="_374480048" fill="url(#linearGradient-28)" cx="578.069741" cy="1059.91146" r="13.7918865"></circle>
                                <circle id="_374480024" fill="url(#linearGradient-28)" cx="620.227808" cy="1055.84831" r="10.14893"></circle>
                                <circle id="_374479880" fill="url(#linearGradient-28)" cx="663.426719" cy="1052.28631" r="13.7918865"></circle>
                                <circle id="_374480432" fill="url(#linearGradient-28)" cx="705.584785" cy="1052.28631" r="10.14893"></circle>
                                <circle id="_374480408" fill="url(#linearGradient-28)" cx="746.177729" cy="1049.74973" r="13.7918865"></circle>
                                <circle id="_374480240" fill="url(#linearGradient-28)" cx="788.335796" cy="1046.69659" r="10.14893"></circle>
                                <circle id="_374480528" fill="url(#linearGradient-28)" cx="832.051274" cy="1043.14229" r="13.7918865"></circle>
                                <circle id="_374479736" fill="url(#linearGradient-28)" cx="874.209341" cy="1031.44628" r="10.14893"></circle>
                                <path d="M398.876911,962.580913 L563.822504,878.092848 C567.134449,881.1225 578.348842,883.353532 591.677668,883.353532 C604.391856,883.353532 615.182718,881.324656 619.025593,878.508091 L785.369543,962.305344 C730.568065,968.757131 663.447304,972.555351 590.935122,972.555351 C519.464632,972.555351 453.239074,968.865495 398.876911,962.580358 L398.876911,962.580913 Z" id="_374479376" fill="url(#linearGradient-29)" fill-rule="nonzero"></path>
                                <g id="Group" transform="translate(484.956543, 0.000000)">
                                    <path d="M210.189048,99.864811 L210.189048,149.401079 C210.189048,149.859124 210.155262,150.309883 210.089697,150.748803 C207.517176,152.867832 204.249849,154.327566 201.224784,155.383893 C194.072724,157.882653 185.924444,159.311424 178.462743,160.414187 C155.229933,163.847248 130.622127,164.792474 107.173438,164.792474 C83.7248251,164.792474 59.1169427,163.84724 35.884132,160.414187 C28.4224626,159.311416 20.2741595,157.882645 13.1220914,155.383893 C10.096988,154.327566 6.82966844,152.867832 4.25717829,150.748803 C4.18068569,150.242495 4.14699293,149.727989 4.15590985,149.208931 L4.15590985,99.864811 C6.74500536,102.028519 10.0578676,103.511931 13.1221376,104.582829 C20.2741981,107.081589 28.422478,108.51036 35.8841782,109.613124 C59.116989,113.046184 83.7247942,113.99141 107.173484,113.99141 C130.622097,113.99141 155.229979,113.046177 178.46279,109.613124 C185.924459,108.510353 194.072762,107.081581 201.22483,104.582829 C204.289085,103.511931 207.601947,102.028527 210.189048,99.864811 L210.189048,99.864811 Z" id="_374479472" fill="url(#linearGradient-30)" fill-rule="nonzero"></path>
                                    <path d="M107.168457,85.0069453 C163.861265,85.0069453 209.820419,91.5652771 209.820419,99.6543291 C209.820419,107.743389 163.86111,114.301713 107.168457,114.301713 C50.4756494,114.301713 4.51649512,107.743381 4.51649512,99.6543291 C4.51649512,91.5652694 50.4758036,85.0069453 107.168457,85.0069453 Z" id="_374479784" fill="#880E4F"></path>
                                    <path d="M107.168457,81.1511938 C135.662854,81.1511938 161.522834,82.8085348 180.295355,85.4866822 C200.918267,88.4289112 213.67617,93.3845349 213.67617,99.654198 C213.67617,105.923861 200.918267,110.879516 180.295355,113.821714 C161.522834,116.499861 135.662854,118.157202 107.168457,118.157202 C78.6740605,118.157202 52.8140805,116.499861 34.0415592,113.821714 C13.4186473,110.879485 0.660743652,105.923861 0.660743652,99.654198 C0.660743652,93.3845349 13.4186473,88.4288804 34.0415592,85.4866822 C52.8140805,82.8085348 78.6740605,81.1511938 107.168457,81.1511938 L107.168457,81.1511938 Z M179.21172,93.106799 C160.833486,90.4841941 135.365095,88.862373 107.168457,88.862373 C78.9718192,88.862373 53.5034281,90.4841941 35.1251942,93.106799 C18.5964258,95.4653223 8.37193818,97.8347706 8.37193818,99.654198 C8.37193818,101.473625 18.5964258,103.843081 35.1251942,106.201597 C53.5034281,108.824202 78.9718192,110.446023 107.168457,110.446023 C135.365095,110.446023 160.833486,108.824202 179.21172,106.201597 C195.740488,103.843074 205.964976,101.473625 205.964976,99.654198 C205.964976,97.8347706 195.740488,95.4653146 179.21172,93.106799 Z" id="_374479616" fill="#EDA496" fill-rule="nonzero"></path>
                                    <circle id="_374479400" fill="url(#linearGradient-31)" cx="12.7530464" cy="118.822063" r="4.67668498"></circle>
                                    <circle id="_374478968" fill="url(#linearGradient-31)" cx="27.048085" cy="123.303863" r="3.44140274"></circle>
                                    <circle id="_374478728" fill="url(#linearGradient-31)" cx="41.1657944" cy="125.372446" r="4.67668498"></circle>
                                    <circle id="_374478608" fill="url(#linearGradient-31)" cx="55.460833" cy="127.096393" r="3.44140274"></circle>
                                    <circle id="_374478680" fill="url(#linearGradient-31)" cx="71.6964687" cy="128.130299" r="4.67668498"></circle>
                                    <circle id="_374478320" fill="url(#linearGradient-31)" cx="85.9915073" cy="129.336908" r="3.44140274"></circle>
                                    <circle id="_374479016" fill="url(#linearGradient-31)" cx="102.403701" cy="130.71622" r="4.67668498"></circle>
                                    <circle id="_374478440" fill="url(#linearGradient-31)" cx="116.697969" cy="129.336908" r="3.44140274"></circle>
                                    <circle id="_374478560" fill="url(#linearGradient-31)" cx="131.346895" cy="128.130299" r="4.67668498"></circle>
                                    <circle id="_374478152" fill="url(#linearGradient-31)" cx="145.641162" cy="128.130299" r="3.44140274"></circle>
                                    <circle id="_374477960" fill="url(#linearGradient-31)" cx="159.403442" cy="127.269096" r="4.67668498"></circle>
                                    <circle id="_374477840" fill="url(#linearGradient-31)" cx="173.69771" cy="126.234419" r="3.44140274"></circle>
                                    <circle id="_374478200" fill="url(#linearGradient-31)" cx="188.523965" cy="125.027811" r="4.67668498"></circle>
                                    <circle id="_374477624" fill="url(#linearGradient-31)" cx="202.818232" cy="121.063349" r="3.44140274"></circle>
                                    <path d="M51.3521948,97.7106479 L107.90391,0.326131348 L162.984951,97.6165864 C147.156478,99.8048198 127.618974,101.092445 106.825749,101.092445 C86.0315991,101.092445 67.0541471,99.8412417 51.3521948,97.7103781 L51.3521948,97.7106479 Z" id="_374477792" fill="url(#linearGradient-32)" fill-rule="nonzero"></path>
                                    <circle id="_374477600" fill="url(#linearGradient-31)" cx="12.7530464" cy="137.884941" r="4.67668498"></circle>
                                    <circle id="_374477696" fill="url(#linearGradient-31)" cx="27.048085" cy="142.366742" r="3.44140274"></circle>
                                    <circle id="_374477384" fill="url(#linearGradient-31)" cx="41.1657944" cy="144.435324" r="4.67668498"></circle>
                                    <circle id="_374477240" fill="url(#linearGradient-31)" cx="55.460833" cy="146.159271" r="3.44140274"></circle>
                                    <circle id="_374476880" fill="url(#linearGradient-31)" cx="71.6964687" cy="147.193948" r="4.67668498"></circle>
                                    <circle id="_374477000" fill="url(#linearGradient-31)" cx="85.9915073" cy="148.400557" r="3.44140274"></circle>
                                    <circle id="_374476760" fill="url(#linearGradient-31)" cx="102.403701" cy="149.779098" r="4.67668498"></circle>
                                    <circle id="_374476976" fill="url(#linearGradient-31)" cx="116.697969" cy="148.400557" r="3.44140274"></circle>
                                    <circle id="_374477408" fill="url(#linearGradient-31)" cx="131.346895" cy="147.193948" r="4.67668498"></circle>
                                    <circle id="_374476904" fill="url(#linearGradient-31)" cx="145.641162" cy="147.193948" r="3.44140274"></circle>
                                    <circle id="_374476376" fill="url(#linearGradient-31)" cx="159.403442" cy="146.331975" r="4.67668498"></circle>
                                    <circle id="_374476160" fill="url(#linearGradient-31)" cx="173.69771" cy="145.297298" r="3.44140274"></circle>
                                    <circle id="_374476232" fill="url(#linearGradient-31)" cx="188.523965" cy="144.090689" r="4.67668498"></circle>
                                    <circle id="_374476016" fill="url(#linearGradient-31)" cx="202.818232" cy="140.126227" r="3.44140274"></circle>
                                </g>
                                <g id="Group" transform="translate(0.000000, 522.735352)">
                                    <path d="M335.990846,15.5509912 C324.424054,7.07211587 308.173075,9.57728264 299.6942,21.1431492 C291.215325,32.709941 293.719582,48.9609196 305.286358,57.4397949 C306.764304,58.5207083 308.128419,59.7573398 309.375066,61.1269219 L175.96807,61.1269219 L175.96807,42.2878636 C176.152927,30.5917758 168.380736,19.8327566 156.561713,16.723869 L156.546232,16.7821491 L100.561893,2.05458169 C91.8544941,-0.889474601 81.8503572,0.878049364 74.6008351,7.53200008 L74.6117626,7.59210139 L9.66590432,67.2007392 C9.24519488,67.5422241 8.83268113,67.895547 8.42836307,68.266171 C-2.16219347,77.9852706 -2.8670381,94.4512029 6.85115949,105.041837 L6.91308204,105.030909 L66.5290443,169.984015 C71.062139,175.584368 77.883658,179.287008 85.6476657,179.619384 L85.7460132,179.541981 L312.021031,189.240109 C317.623204,189.932185 323.491294,188.815758 328.693667,185.662263 L328.632655,185.562095 C357.227204,168.219232 371.011381,134.620764 372.399174,102.191203 C373.345317,80.1203607 368.419739,57.4339548 357.40569,39.2724479 C351.763448,29.9694548 344.633214,21.8639729 335.990502,15.5506714 L335.990846,15.5509912 Z" id="_374476040" fill="url(#linearGradient-33)"></path>
                                    <g transform="translate(11.564941, 6.167969)">
                                        <path d="M322.027335,12.6520459 C323.834018,13.9770104 326.373757,13.5854369 327.698713,11.7778443 C329.023678,9.97116141 328.632104,7.43142318 326.824512,6.10646639 C320.13141,1.20001687 312.088772,-0.529265688 304.500551,0.639070952 L304.349387,0.666389734 C296.813047,1.87023845 289.724748,5.93163 284.856524,12.5728053 C279.950075,19.2659072 278.219882,27.3085453 279.389129,34.8967659 L279.416448,35.0479297 C280.34529,40.86683 282.977902,46.4188885 287.187703,50.8873506 L168.471266,50.8873506 L168.471266,36.1160677 C168.471266,36.0031499 168.466713,35.892054 168.457607,35.7818679 C168.473998,29.0978714 166.243877,22.6934382 162.317255,17.5219819 C158.389724,12.347804 152.776641,8.4021004 146.029809,6.62819259 L144.99716,10.552077 L146.032538,6.61907941 C143.859786,6.04902726 141.635123,7.34575865 141.064162,9.51760068 C141.008614,9.73068704 140.971278,9.94468394 140.950334,10.1568598 C140.72632,12.1256368 141.974787,14.0151786 143.949023,14.5342363 C144.158467,14.5888739 144.367911,14.6262092 144.577354,14.6480647 C144.375195,14.5879634 144.170305,14.5305941 143.964503,14.4768673 L144.98167,10.6103527 L141.057786,9.57770368 C141.006791,9.77075647 140.972187,9.96380927 140.950332,10.1568621 C140.757279,12.1110673 142.003929,13.9705634 143.962683,14.4850645 L143.964505,14.4768689 L144.981672,10.6103543 L148.906474,11.6430034 C148.39106,13.6008477 146.52974,14.8447651 144.577362,14.6480686 C149.247963,16.0176506 153.130869,18.8087182 155.867289,22.4157 C158.730298,26.1875132 160.358495,30.8562569 160.354856,35.7299545 C160.342107,35.8574418 160.336643,35.9858404 160.336643,36.1160601 L160.336643,54.9551183 C160.336643,57.2016313 162.157898,59.022886 164.403501,59.022886 L297.810497,59.022886 L297.810497,59.0219754 C298.788506,59.022886 299.769252,58.6722947 300.548752,57.9620099 C302.208822,56.4503719 302.329028,53.8760313 300.817386,52.2159611 L300.811012,52.2214249 C300.091617,51.4300899 299.338533,50.677004 298.556303,49.9730923 C297.79502,49.2855696 296.980919,48.6235407 296.120379,47.9952098 C291.276758,44.4437705 288.317205,39.2732394 287.444823,33.7739555 L287.428432,33.6573956 C286.573351,28.1116823 287.830929,22.2427213 291.4024,17.3699489 C294.953839,12.5263278 300.125296,9.56677452 305.624579,8.69439244 L305.740229,8.67800114 C311.285942,7.82292021 317.155828,9.08140865 322.027676,12.6519694 L322.027335,12.6520459 Z" id="_374476520" fill="#D7D7D7" fill-rule="nonzero"></path>
                                        <path d="M0.149573242,104.092183 L54.9637718,163.814697 C59.4968665,169.41505 66.3183855,173.11769 74.0823933,173.450066 L74.1807408,173.372663 L300.455758,183.070791 C306.057932,183.762867 311.926021,182.64644 317.128395,179.492945 L317.067383,179.392777 C343.293432,163.486896 357.060261,133.905164 360.231059,104.092183 L0.149573242,104.092183 L0.149573242,104.092183 Z" id="_374476640" fill="url(#linearGradient-34)"></path>
                                        <ellipse id="_374475608" fill="url(#linearGradient-35)" transform="translate(65.041230, 52.751553) rotate(-29.454989) translate(-65.041230, -52.751553) " cx="65.0412305" cy="52.7515527" rx="24.9089544" ry="16.0132679"></ellipse>
                                        <ellipse id="_374475368" fill="#FFE082" transform="translate(65.041230, 52.751553) rotate(-29.455030) translate(-65.041230, -52.751553) " cx="65.0412305" cy="52.7515527" rx="9.15029635" ry="5.88246073"></ellipse>
                                    </g>
                                </g>
                            </g>
                        </g>
                    </g>
                </g>
            </g>
            <g id="Group-2" transform="translate(147.000000, 138.000000)" fill="#F2E2D0" fill-rule="nonzero">
                <path d="M1227.38828,473.524911 C1241.85158,473.524911 1253.5764,485.245685 1253.5764,499.703992 C1253.5764,485.245685 1265.30122,473.524911 1279.76452,473.524911 C1265.30122,473.524911 1253.5764,461.804137 1253.5764,447.34583 C1253.5764,461.804137 1241.85158,473.524911 1227.38828,473.524911 Z" id="Path"></path>
                <path d="M-1.77635684e-14,533.075128 C14.4632996,533.075128 26.1881205,544.795901 26.1881205,559.254208 C26.1881205,544.795901 37.9129414,533.075128 52.3762409,533.075128 C37.9129414,533.075128 26.1881205,521.354354 26.1881205,506.896047 C26.1881205,521.354354 14.4632996,533.075128 -1.77635684e-14,533.075128 L-1.77635684e-14,533.075128 Z" id="Path"></path>
                <path d="M705.064782,26.1790807 C719.528081,26.1790807 731.252902,37.8998544 731.252902,52.3581615 C731.252902,37.8998544 742.977723,26.1790807 757.441023,26.1790807 C742.977723,26.1790807 731.252902,14.4583071 731.252902,-6.75015599e-14 C731.252902,14.4583071 719.528081,26.1790807 705.064782,26.1790807 L705.064782,26.1790807 Z" id="Path"></path>
                <path d="M1033.13574,229.5704 C1040.6058,229.5704 1046.66147,235.623987 1046.66147,243.091464 C1046.66147,235.623987 1052.71715,229.5704 1060.18721,229.5704 C1056.59996,229.5704 1053.15964,228.145864 1050.62307,225.610172 C1048.0865,223.074481 1046.66147,219.635346 1046.66147,216.049337 C1046.66147,219.635346 1045.23645,223.074481 1042.69988,225.610172 C1040.16331,228.145864 1036.72299,229.5704 1033.13574,229.5704 L1033.13574,229.5704 Z" id="Path"></path>
                <path d="M228.210764,216.624701 C235.68082,216.624701 241.736497,222.678287 241.736497,230.145765 C241.736497,222.678287 247.792173,216.624701 255.262229,216.624701 C247.792173,216.624701 241.736497,210.571115 241.736497,203.103637 C241.736497,210.571115 235.68082,216.624701 228.210764,216.624701 L228.210764,216.624701 Z" id="Path"></path>
                <path d="M749.095358,229.282718 C756.565414,229.282718 762.62109,235.336305 762.62109,242.803782 C762.62109,235.336305 768.676767,229.282718 776.146823,229.282718 C768.676767,229.282718 762.62109,223.229132 762.62109,215.761654 C762.62109,223.229132 756.565414,229.282718 749.095358,229.282718 L749.095358,229.282718 Z" id="Path"></path>
                <path d="M1183.06993,696.190938 C1190.53998,696.190938 1196.59566,702.244525 1196.59566,709.712002 C1196.59566,702.244525 1202.65133,696.190938 1210.12139,696.190938 C1202.65133,696.190938 1196.59566,690.137352 1196.59566,682.669875 C1196.59566,690.137352 1190.53998,696.190938 1183.06993,696.190938 L1183.06993,696.190938 Z" id="Path"></path>
                <path d="M394.548496,306.093867 C402.018552,306.093867 408.074229,312.147454 408.074229,319.614931 C408.074229,312.147454 414.129905,306.093867 421.599961,306.093867 C414.129905,306.093867 408.074229,300.040281 408.074229,292.572803 C408.074229,300.040281 402.018552,306.093867 394.548496,306.093867 L394.548496,306.093867 Z" id="Path"></path>
                <path d="M495.847599,72.7835981 C503.317655,72.7835981 509.373332,78.8371845 509.373332,86.3046618 C509.373332,78.8371845 515.429009,72.7835981 522.899065,72.7835981 C519.311817,72.7835981 515.871494,71.3590616 513.334927,68.8233702 C510.79836,66.2876789 509.373332,62.8485435 509.373332,59.2625344 C509.373332,66.7300117 503.317655,72.7835981 495.847599,72.7835981 L495.847599,72.7835981 Z" id="Path"></path>
            </g>
        </g>
    </g>
</svg>