<?xml version="1.0" encoding="UTF-8"?>
<svg width="2000px" height="1527px" viewBox="0 0 2000 1527" version="1.1" xmlns="http://www.w3.org/2000/svg" xmlns:xlink="http://www.w3.org/1999/xlink">
    <!-- Generator: Sketch 64 (93537) - https://sketch.com -->
    <title>sort_default_tour</title>
    <desc>Created with Sketch.</desc>
    <defs>
        <linearGradient x1="50%" y1="109.306549%" x2="50%" y2="-54.4707924%" id="linearGradient-1">
            <stop stop-color="#D2D4CD" offset="0.07202738%"></stop>
            <stop stop-color="#9DC2BC" offset="34%"></stop>
            <stop stop-color="#4596AB" offset="96.93%"></stop>
        </linearGradient>
        <linearGradient x1="50%" y1="108.123427%" x2="50%" y2="-301.752988%" id="linearGradient-2">
            <stop stop-color="#D2D4CD" offset="0.07202738%"></stop>
            <stop stop-color="#9DC2BC" offset="19.51%"></stop>
            <stop stop-color="#4596AB" offset="100%"></stop>
        </linearGradient>
        <linearGradient x1="50%" y1="81.2923703%" x2="50%" y2="43.287324%" id="linearGradient-3">
            <stop stop-color="#DBD8CD" offset="0%"></stop>
            <stop stop-color="#93B8B3" offset="100%"></stop>
        </linearGradient>
        <linearGradient x1="50.2062576%" y1="96.8817638%" x2="50.2062576%" y2="37.6478653%" id="linearGradient-4">
            <stop stop-color="#DBD8CD" offset="0%"></stop>
            <stop stop-color="#93B8B3" offset="99.3174719%"></stop>
            <stop stop-color="#93B8B3" offset="100%"></stop>
        </linearGradient>
        <linearGradient x1="50%" y1="115.676057%" x2="50%" y2="33.4717086%" id="linearGradient-5">
            <stop stop-color="#DBD8CD" offset="0%"></stop>
            <stop stop-color="#93B8B3" offset="100%"></stop>
        </linearGradient>
        <linearGradient x1="50%" y1="482.884699%" x2="50%" y2="21.4482261%" id="linearGradient-6">
            <stop stop-color="#DBD8CD" offset="0%"></stop>
            <stop stop-color="#93B8B3" offset="100%"></stop>
        </linearGradient>
        <linearGradient x1="49.9550519%" y1="69.9840889%" x2="50%" y2="49.14006%" id="linearGradient-7">
            <stop stop-color="#DBD8CD" offset="0%"></stop>
            <stop stop-color="#93B8B3" offset="100%"></stop>
        </linearGradient>
        <linearGradient x1="48.2666667%" y1="47.8208865%" x2="50%" y2="77.0955557%" id="linearGradient-8">
            <stop stop-color="#F2E2D0" offset="0%"></stop>
            <stop stop-color="#A0E2D0" offset="22.4442264%"></stop>
            <stop stop-color="#39A9BB" offset="70.8335004%"></stop>
            <stop stop-color="#445DCE" offset="100%"></stop>
        </linearGradient>
        <linearGradient x1="48.2666667%" y1="47.124729%" x2="50%" y2="85.7517232%" id="linearGradient-9">
            <stop stop-color="#F2E2D0" offset="0%"></stop>
            <stop stop-color="#A0E2D0" offset="22.4442264%"></stop>
            <stop stop-color="#39A9BB" offset="70.8335004%"></stop>
            <stop stop-color="#445DCE" offset="100%"></stop>
        </linearGradient>
        <linearGradient x1="48.2666667%" y1="45.6749309%" x2="50%" y2="103.778818%" id="linearGradient-10">
            <stop stop-color="#F2E2D0" offset="0%"></stop>
            <stop stop-color="#A0E2D0" offset="22.4442264%"></stop>
            <stop stop-color="#39A9BB" offset="70.8335004%"></stop>
            <stop stop-color="#445DCE" offset="100%"></stop>
        </linearGradient>
        <linearGradient x1="48.2666667%" y1="42.1268268%" x2="50%" y2="147.89669%" id="linearGradient-11">
            <stop stop-color="#F2E2D0" offset="0%"></stop>
            <stop stop-color="#A0E2D0" offset="22.4442264%"></stop>
            <stop stop-color="#39A9BB" offset="70.8335004%"></stop>
            <stop stop-color="#445DCE" offset="100%"></stop>
        </linearGradient>
        <linearGradient x1="50%" y1="0.034512448%" x2="100%" y2="915.00466%" id="linearGradient-12">
            <stop stop-color="#F2E2D0" offset="0%"></stop>
            <stop stop-color="#A0E2D0" offset="75.4479806%"></stop>
            <stop stop-color="#39A9BB" offset="90.960687%"></stop>
            <stop stop-color="#445DCE" offset="100%"></stop>
        </linearGradient>
        <circle id="path-13" cx="789.5" cy="789.5" r="789.5"></circle>
        <linearGradient x1="50%" y1="49.2404719%" x2="50%" y2="-301.752988%" id="linearGradient-15">
            <stop stop-color="#D2D4CD" offset="0.07202738%"></stop>
            <stop stop-color="#9DC2BC" offset="13.6328269%"></stop>
            <stop stop-color="#4596AB" offset="100%"></stop>
        </linearGradient>
        <linearGradient x1="50.0406174%" y1="146.517159%" x2="50.0406174%" y2="-2.14067278%" id="linearGradient-16">
            <stop stop-color="#D18CA3" offset="0%"></stop>
            <stop stop-color="#208CA3" offset="17%"></stop>
            <stop stop-color="#3C4178" offset="61%"></stop>
            <stop stop-color="#241B3C" offset="100%"></stop>
        </linearGradient>
        <linearGradient x1="56.0156556%" y1="67.4935993%" x2="56.0156556%" y2="-43.8130613%" id="linearGradient-17">
            <stop stop-color="#FF9C74" offset="0%"></stop>
            <stop stop-color="#D36564" offset="60.0574935%"></stop>
            <stop stop-color="#B2314E" offset="100%"></stop>
        </linearGradient>
        <path d="M692.906174,0 L1158.19009,0 C1168.02623,0 1176,7.9739866 1176,17.8103976 L1176,936 L393,936 L393,299.914373 C393.17529,134.348902 527.345229,0.175294452 692.906174,0 Z" id="path-18"></path>
        <linearGradient x1="50.0277325%" y1="103.625554%" x2="50.0277325%" y2="-48.5647508%" id="linearGradient-19">
            <stop stop-color="#FF9C74" offset="0%"></stop>
            <stop stop-color="#D36564" offset="67%"></stop>
            <stop stop-color="#B2314E" offset="100%"></stop>
        </linearGradient>
        <linearGradient x1="50.0313603%" y1="197.794006%" x2="50.0313603%" y2="-466.911119%" id="linearGradient-20">
            <stop stop-color="#D18CA3" offset="0%"></stop>
            <stop stop-color="#208CA3" offset="23%"></stop>
            <stop stop-color="#3C4178" offset="61%"></stop>
            <stop stop-color="#241B3C" offset="100%"></stop>
        </linearGradient>
        <linearGradient x1="42.9269231%" y1="45.6310952%" x2="83.7589744%" y2="73.5686544%" id="linearGradient-21">
            <stop stop-color="#F2E2D0" offset="0%"></stop>
            <stop stop-color="#A0E2D0" offset="34%"></stop>
            <stop stop-color="#39A9BB" offset="97%"></stop>
            <stop stop-color="#445DCE" offset="100%"></stop>
        </linearGradient>
        <linearGradient x1="42.9269231%" y1="-81.5439614%" x2="83.7589744%" y2="759.631884%" id="linearGradient-22">
            <stop stop-color="#F2E2D0" offset="0%"></stop>
            <stop stop-color="#A0E2D0" offset="34%"></stop>
            <stop stop-color="#39A9BB" offset="97%"></stop>
            <stop stop-color="#445DCE" offset="100%"></stop>
        </linearGradient>
        <linearGradient x1="49.9550519%" y1="56.6782007%" x2="49.9550519%" y2="0%" id="linearGradient-23">
            <stop stop-color="#DBD8CD" offset="0%"></stop>
            <stop stop-color="#93B8B3" offset="100%"></stop>
        </linearGradient>
        <linearGradient x1="50.2062576%" y1="88.4212608%" x2="50.0055737%" y2="57.2857316%" id="linearGradient-24">
            <stop stop-color="#DBD8CD" offset="0%"></stop>
            <stop stop-color="#93B8B3" offset="99.3174719%"></stop>
            <stop stop-color="#93B8B3" offset="100%"></stop>
        </linearGradient>
        <linearGradient x1="42.9269231%" y1="32.0217941%" x2="83.7589744%" y2="146.98589%" id="linearGradient-25">
            <stop stop-color="#F2E2D0" offset="0%"></stop>
            <stop stop-color="#A0E2D0" offset="34%"></stop>
            <stop stop-color="#39A9BB" offset="97%"></stop>
            <stop stop-color="#445DCE" offset="100%"></stop>
        </linearGradient>
        <linearGradient x1="49.9550519%" y1="310.283304%" x2="49.9550519%" y2="55.7534296%" id="linearGradient-26">
            <stop stop-color="#DBD8CD" offset="0%"></stop>
            <stop stop-color="#93B8B3" offset="100%"></stop>
        </linearGradient>
        <linearGradient x1="-132.393348%" y1="-12.9428778%" x2="179.392625%" y2="94.5770065%" id="linearGradient-27">
            <stop stop-color="#F0FFEF" offset="2%"></stop>
            <stop stop-color="#B4D3CA" offset="54%"></stop>
            <stop stop-color="#94AAC7" offset="99%"></stop>
        </linearGradient>
        <linearGradient x1="-1849%" y1="-1599%" x2="770%" y2="676%" id="linearGradient-28">
            <stop stop-color="#F0FFEF" offset="2%"></stop>
            <stop stop-color="#B4D3CA" offset="54%"></stop>
            <stop stop-color="#94AAC7" offset="99%"></stop>
        </linearGradient>
        <linearGradient x1="-87.3855544%" y1="-69.2071937%" x2="179.043744%" y2="161.991754%" id="linearGradient-29">
            <stop stop-color="#F0FFEF" offset="2%"></stop>
            <stop stop-color="#B4D3CA" offset="54%"></stop>
            <stop stop-color="#94AAC7" offset="99%"></stop>
        </linearGradient>
        <linearGradient x1="-41.2734226%" y1="-31.714496%" x2="147.471223%" y2="135.688006%" id="linearGradient-30">
            <stop stop-color="#F0FFEF" offset="2%"></stop>
            <stop stop-color="#B4D3CA" offset="54%"></stop>
            <stop stop-color="#94AAC7" offset="99%"></stop>
        </linearGradient>
        <linearGradient x1="31.1015462%" y1="-43.6645581%" x2="31.8236033%" y2="205.611049%" id="linearGradient-31">
            <stop stop-color="#FF9C74" offset="0%"></stop>
            <stop stop-color="#D36564" offset="69.7957644%"></stop>
            <stop stop-color="#B2314E" offset="100%"></stop>
        </linearGradient>
        <linearGradient x1="139.486525%" y1="-9.63739655%" x2="7.13726802%" y2="86.6429542%" id="linearGradient-32">
            <stop stop-color="#FF9C74" offset="0%"></stop>
            <stop stop-color="#D36564" offset="67%"></stop>
            <stop stop-color="#B2314E" offset="100%"></stop>
        </linearGradient>
        <linearGradient x1="50.0277325%" y1="124.91124%" x2="50.0277325%" y2="-189.666667%" id="linearGradient-33">
            <stop stop-color="#FF9C74" offset="0%"></stop>
            <stop stop-color="#D36564" offset="67%"></stop>
            <stop stop-color="#B2314E" offset="100%"></stop>
        </linearGradient>
        <linearGradient x1="50.2636763%" y1="-4.39160499%" x2="50.2415731%" y2="124.915909%" id="linearGradient-34">
            <stop stop-color="#F2EED1" offset="0%"></stop>
            <stop stop-color="#F0ECCE" offset="33.24%"></stop>
            <stop stop-color="#E8E4C5" offset="57.08%"></stop>
            <stop stop-color="#DBD7B5" offset="77.99%"></stop>
            <stop stop-color="#C9C59F" offset="97.1%"></stop>
            <stop stop-color="#C6C29B" offset="100%"></stop>
        </linearGradient>
        <linearGradient x1="49.8813333%" y1="147.768762%" x2="49.8813333%" y2="-193.676774%" id="linearGradient-35">
            <stop stop-color="#5D83AC" offset="0%"></stop>
            <stop stop-color="#006E96" offset="100%"></stop>
        </linearGradient>
        <linearGradient x1="11.5306122%" y1="25.0718971%" x2="102.55102%" y2="84.0291025%" id="linearGradient-36">
            <stop stop-color="#208CA3" offset="0%"></stop>
            <stop stop-color="#3C4178" offset="42%"></stop>
            <stop stop-color="#241B3C" offset="100%"></stop>
        </linearGradient>
        <linearGradient x1="65.4028436%" y1="197.393365%" x2="45.2606635%" y2="4.26540284%" id="linearGradient-37">
            <stop stop-color="#208CA3" offset="0%"></stop>
            <stop stop-color="#3C4178" offset="42%"></stop>
            <stop stop-color="#241B3C" offset="100%"></stop>
        </linearGradient>
        <linearGradient x1="65.3846154%" y1="196.794872%" x2="45.5128205%" y2="4.48717949%" id="linearGradient-38">
            <stop stop-color="#FFD600" offset="0%"></stop>
            <stop stop-color="#FF9C38" offset="48%"></stop>
            <stop stop-color="#FF5147" offset="100%"></stop>
        </linearGradient>
        <linearGradient x1="-187.34%" y1="176.18%" x2="-184.69%" y2="186.24%" id="linearGradient-39">
            <stop stop-color="#2D9178" offset="0%"></stop>
            <stop stop-color="#2D5F78" offset="52%"></stop>
            <stop stop-color="#3C4178" offset="100%"></stop>
        </linearGradient>
        <linearGradient x1="-190.57%" y1="173.91%" x2="-188.82%" y2="178.68%" id="linearGradient-40">
            <stop stop-color="#2D9178" offset="0%"></stop>
            <stop stop-color="#2D5F78" offset="52%"></stop>
            <stop stop-color="#3C4178" offset="100%"></stop>
        </linearGradient>
        <linearGradient x1="-189.21%" y1="175.63%" x2="-187.79%" y2="181.77%" id="linearGradient-41">
            <stop stop-color="#2D9178" offset="0%"></stop>
            <stop stop-color="#2D5F78" offset="52%"></stop>
            <stop stop-color="#3C4178" offset="100%"></stop>
        </linearGradient>
        <linearGradient x1="-189.24%" y1="180.43%" x2="-188.53%" y2="183.5%" id="linearGradient-42">
            <stop stop-color="#2D9178" offset="0%"></stop>
            <stop stop-color="#2D5F78" offset="52%"></stop>
            <stop stop-color="#3C4178" offset="100%"></stop>
        </linearGradient>
        <linearGradient x1="-190.11%" y1="171.32%" x2="-188.69%" y2="177.46%" id="linearGradient-43">
            <stop stop-color="#2D9178" offset="0%"></stop>
            <stop stop-color="#2D5F78" offset="52%"></stop>
            <stop stop-color="#3C4178" offset="100%"></stop>
        </linearGradient>
        <linearGradient x1="-190.29%" y1="172.6%" x2="-189.58%" y2="175.67%" id="linearGradient-44">
            <stop stop-color="#2D9178" offset="0%"></stop>
            <stop stop-color="#2D5F78" offset="52%"></stop>
            <stop stop-color="#3C4178" offset="100%"></stop>
        </linearGradient>
        <linearGradient x1="304.3%" y1="315.5%" x2="295.9%" y2="320%" id="linearGradient-45">
            <stop stop-color="#2D9178" offset="0%"></stop>
            <stop stop-color="#2D5F78" offset="52%"></stop>
            <stop stop-color="#3C4178" offset="100%"></stop>
        </linearGradient>
        <linearGradient x1="300.94%" y1="316.72%" x2="297.45%" y2="318.95%" id="linearGradient-46">
            <stop stop-color="#2D9178" offset="0%"></stop>
            <stop stop-color="#2D5F78" offset="52%"></stop>
            <stop stop-color="#3C4178" offset="100%"></stop>
        </linearGradient>
        <linearGradient x1="296.74%" y1="320.02%" x2="291.14%" y2="323.02%" id="linearGradient-47">
            <stop stop-color="#2D9178" offset="0%"></stop>
            <stop stop-color="#2D5F78" offset="52%"></stop>
            <stop stop-color="#3C4178" offset="100%"></stop>
        </linearGradient>
        <linearGradient x1="300.85%" y1="323.65%" x2="299.47%" y2="325.11%" id="linearGradient-48">
            <stop stop-color="#2D9178" offset="0%"></stop>
            <stop stop-color="#2D5F78" offset="52%"></stop>
            <stop stop-color="#3C4178" offset="100%"></stop>
        </linearGradient>
        <linearGradient x1="292.56%" y1="322.98%" x2="286.96%" y2="325.98%" id="linearGradient-49">
            <stop stop-color="#2D9178" offset="0%"></stop>
            <stop stop-color="#2D5F78" offset="52%"></stop>
            <stop stop-color="#3C4178" offset="100%"></stop>
        </linearGradient>
        <linearGradient x1="296.67%" y1="321.61%" x2="293.87%" y2="323.11%" id="linearGradient-50">
            <stop stop-color="#2D9178" offset="0%"></stop>
            <stop stop-color="#2D5F78" offset="52%"></stop>
            <stop stop-color="#3C4178" offset="100%"></stop>
        </linearGradient>
    </defs>
    <g id="sort_default_tour" stroke="none" stroke-width="1" fill="none" fill-rule="evenodd">
        <rect id="Rectangle" fill="url(#linearGradient-1)" fill-rule="nonzero" x="0" y="0" width="2000" height="1527"></rect>
        <rect id="Rectangle" fill="url(#linearGradient-2)" fill-rule="nonzero" x="0" y="1407" width="2000" height="120"></rect>
        <g id="visit-shopping-malls" transform="translate(213.000000, 1.000000)">
            <g id="Layer_3" transform="translate(2.000000, 0.000000)" fill-rule="nonzero">
                <ellipse id="Oval" fill="url(#linearGradient-3)" cx="788.882527" cy="788.786811" rx="788.651343" ry="788.633985"></ellipse>
                <path d="M1558.53716,959.465626 L1425.27235,959.465626 C1400.00481,959.465626 1375.77216,969.502897 1357.90531,987.369355 C1340.03846,1005.23581 1330.00097,1029.46793 1330.00097,1054.73491 L1330.00097,1095.60573 L1193.28221,1095.60573 L1193.28221,1266.57236 L430.535475,1266.57236 L430.535475,1160.65364 L213.512441,1160.65364 L213.512441,1061.06701 C213.512441,1049.23504 208.812105,1037.88767 200.445453,1029.52121 C192.078801,1021.15474 180.731186,1016.45451 168.898953,1016.45451 L117.953227,1016.45451 L117.953227,882.329163 L5.98776303,882.329163 C51.1021258,1264.45322 365.487252,1558.18407 749.799709,1577.27461 C1134.11217,1596.36515 1476.06085,1335.23738 1558.82499,959.465626 L1558.53716,959.465626 Z" id="Path" fill="url(#linearGradient-4)"></path>
                <path d="M1474.20327,397.92369 L1385.26413,439.370148 C1339.1004,462.308043 1285.04268,463.154329 1238.18353,441.672729 C1199.97161,422.622177 1155.16877,421.986689 1116.43188,439.945793 L991.226284,497.510317 C939.946788,521.373873 880.745906,521.373873 829.46641,497.510317 L829.46641,497.510317 C797.976937,482.906542 761.654892,482.906542 730.16542,497.510317 L684.688444,518.521369 C626.107665,545.774139 558.483033,545.774139 499.902254,518.521369 L374.984486,460.956844 C344.391564,446.849937 309.154708,446.849937 278.561786,460.956844 L178.685131,507.296287 C156.422781,517.663028 130.717228,517.663028 108.454872,507.296287 L61.2509228,485.421767 C29.3296735,562.438947 9.89698523,644.054441 3.68513137,727.19277 L108.742701,776.122616 C131.005057,786.489357 156.71061,786.489357 178.972966,776.122616 L278.561786,731.222287 C309.154708,717.11538 344.391564,717.11538 374.984486,731.222287 L499.902254,788.786811 C558.483033,816.039581 626.107665,816.039581 684.688444,788.786811 L730.16542,767.487937 C761.654892,752.884161 797.976937,752.884161 829.46641,767.487937 L885.305228,793.391973 C901.180052,800.788219 919.512642,800.788219 935.387466,793.391973 L1115.85622,709.63559 C1152.0607,691.941299 1194.26889,691.308191 1230.98781,707.908654 C1279.11052,731.408073 1335.26828,731.936854 1383.82498,709.347767 L1498.95656,656.100582 C1519.58765,646.512443 1540.72653,638.057079 1562.27894,630.772192 C1545.52823,548.955187 1515.79382,470.345364 1474.20327,397.92369 Z" id="Path" fill="url(#linearGradient-5)"></path>
                <path d="M1475.64242,400.226271 C1430.62618,320.753301 1372.19865,249.668043 1302.94504,190.115757 C1278.90919,189.226613 1255.30667,183.44853 1233.57827,173.134222 C1194.7744,156.117729 1150.44346,157.0654 1112.40227,175.724626 L991.514113,233.28915 C940.234617,257.152706 881.033735,257.152706 829.754239,233.28915 L829.754239,233.28915 C798.264766,218.685374 761.942721,218.685374 730.453249,233.28915 L684.976273,254.588024 C626.395494,281.840794 558.770862,281.840794 500.190083,254.588024 L375.272315,197.0235 C344.679393,182.916593 309.442537,182.916593 278.849615,197.0235 L261.292048,205.082533 C173.76692,283.776414 104.930057,381.030927 59.811778,489.739107 L107.879214,512.189271 C130.14157,522.556012 155.847123,522.556012 178.109479,512.189271 L277.986128,465.849829 C308.57905,451.742922 343.815906,451.742922 374.408828,465.849829 L499.326596,523.414353 C557.907376,550.667124 625.532007,550.667124 684.112786,523.414353 L730.16542,500.964189 C761.654892,486.360413 797.976937,486.360413 829.46641,500.964189 L829.46641,500.964189 C880.745906,524.827745 939.946788,524.827745 991.226284,500.964189 L1115.85622,443.399664 C1152.0607,425.705374 1194.26889,425.072265 1230.98781,441.672729 C1279.11052,465.172148 1335.26828,465.700929 1383.82498,443.111842 L1475.64242,400.226271 Z" id="Path" fill="url(#linearGradient-6)"></path>
                <path d="M789.458185,0.152314198 C591.318293,-0.0732217935 400.407522,74.5623029 254.959811,209.11205 L278.561786,198.17479 C309.154708,184.067883 344.391564,184.067883 374.984486,198.17479 L499.902254,255.739315 C558.483033,282.992085 626.107665,282.992085 684.688444,255.739315 L730.16542,234.728263 C761.654892,220.124488 797.976937,220.124488 829.46641,234.728263 L829.46641,234.728263 C880.745906,258.591819 939.946788,258.591819 991.226284,234.728263 L1116.43188,177.163739 C1153.84331,159.759445 1197.03032,159.759445 1234.44175,177.163739 C1256.9228,187.579869 1281.33745,193.168641 1306.11116,193.569628 C1162.95715,68.7302939 979.401856,0.0136133919 789.458185,0.152314198 Z" id="Path" fill="url(#linearGradient-7)"></path>
                <path d="M1402.53386,1050.12975 C1397.92392,1050.12975 1394.18682,1053.86677 1394.18682,1058.47661 C1394.18682,1063.08645 1397.92392,1066.82346 1402.53386,1066.82346 L1526.01249,1066.82346 L1532.05689,1050.12975 L1402.53386,1050.12975 Z" id="Path" fill="url(#linearGradient-8)"></path>
                <path d="M1402.53386,1097.04484 C1397.92392,1097.04484 1394.18682,1100.78185 1394.18682,1105.3917 C1394.18682,1110.00154 1397.92392,1113.73855 1402.53386,1113.73855 L1506.44012,1113.73855 C1509.03058,1107.9821 1511.62104,1102.51347 1514.2115,1097.04484 L1402.53386,1097.04484 Z" id="Path" fill="url(#linearGradient-9)"></path>
                <path d="M1402.53386,1143.6721 C1397.92392,1143.6721 1394.18682,1147.40912 1394.18682,1152.01896 C1394.18682,1156.6288 1397.92392,1160.36582 1402.53386,1160.36582 L1482.83814,1160.36582 C1485.71643,1154.60936 1489.17038,1149.14073 1492.04867,1143.6721 L1402.53386,1143.6721 Z" id="Path" fill="url(#linearGradient-10)"></path>
                <path d="M1402.53386,1191.73848 C1397.92392,1191.73848 1394.18682,1195.4755 1394.18682,1200.08534 C1394.18682,1204.69518 1397.92392,1208.43219 1402.53386,1208.43219 L1456.93354,1208.43219 C1460.38748,1202.96356 1463.26577,1197.20711 1466.71972,1191.73848 L1402.53386,1191.73848 Z" id="Path" fill="url(#linearGradient-11)"></path>
            </g>
            <g id="Group" transform="translate(130.078352, 1060.886984)" fill="url(#linearGradient-12)" fill-rule="nonzero">
                <rect id="Rectangle" x="-4.4408921e-14" y="-1.77635684e-15" width="12.0868248" height="12.0826526"></rect>
                <rect id="Rectangle" x="21.0080527" y="-1.77635684e-15" width="12.0868248" height="12.0826526"></rect>
                <rect id="Rectangle" x="42.3038869" y="-1.77635684e-15" width="12.0868248" height="12.0826526"></rect>
                <rect id="Rectangle" x="-4.4408921e-14" y="20.7131188" width="12.0868248" height="12.0826526"></rect>
                <rect id="Rectangle" x="21.0080527" y="20.7131188" width="12.0868248" height="12.0826526"></rect>
                <rect id="Rectangle" x="42.3038869" y="20.7131188" width="12.0868248" height="12.0826526"></rect>
                <rect id="Rectangle" x="21.0080527" y="41.4262377" width="12.0868248" height="12.0826526"></rect>
                <rect id="Rectangle" x="42.3038869" y="41.4262377" width="12.0868248" height="12.0826526"></rect>
                <rect id="Rectangle" x="21.0080527" y="62.1393565" width="12.0868248" height="12.0826526"></rect>
                <rect id="Rectangle" x="42.3038869" y="62.1393565" width="12.0868248" height="12.0826526"></rect>
                <rect id="Rectangle" x="21.0080527" y="82.8524753" width="12.0868248" height="12.0826526"></rect>
                <rect id="Rectangle" x="42.3038869" y="82.8524753" width="12.0868248" height="12.0826526"></rect>
                <rect id="Rectangle" x="42.3038869" y="103.565594" width="12.0868248" height="12.0826526"></rect>
                <rect id="Rectangle" x="42.3038869" y="124.278713" width="12.0868248" height="12.0826526"></rect>
            </g>
            <g id="Layer_2">
                <mask id="mask-14" fill="white">
                    <use xlink:href="#path-13"></use>
                </mask>
                <g id="Mask"></g>
                <g mask="url(#mask-14)" fill-rule="nonzero">
                    <g transform="translate(130.000000, 450.000000)">
                        <path d="M0,956 C165.318951,1160.90474 414.353012,1280 677.5,1280 C940.646988,1280 1189.68105,1160.90474 1355,956 L0,956 Z" id="Path" fill="url(#linearGradient-15)"></path>
                        <path d="M383.666985,1228.4245 C649.903906,1324.39947 946.155951,1284.92028 1178,1122.56994 L1178,956 L180,956 C180.018493,1000.0014 197.504765,1042.19386 228.613181,1073.2983 L383.666985,1228.4245 Z" id="Path" fill="#000000" opacity="0.0715448289"></path>
                        <g id="Path" fill="none">
                            <use fill="url(#linearGradient-16)" xlink:href="#path-18"></use>
                            <use fill="url(#linearGradient-17)" xlink:href="#path-18"></use>
                        </g>
                        <path d="M178,376.913686 L178,956 L1175,956 L1175,880.314913 C1175.14657,681.432068 1039.42891,508.205951 846.374482,460.866891 L255.230147,316.492819 C236.708445,312.405915 217.330373,316.808473 202.388791,328.497993 C187.447208,340.187513 178.50331,357.942598 178,376.913686 Z" id="Path" fill="url(#linearGradient-19)"></path>
                        <path d="M713.976341,763 C722.273679,763 729,769.730829 729,778.033365 L729,956.000097 L625.054567,956.000097 L625.054567,779.312775 C624.695704,775.109135 626.11866,770.948069 628.975972,767.845639 C631.833284,764.743209 635.861946,762.984984 640.078226,763 L713.976341,763 Z" id="Path" fill="url(#linearGradient-20)"></path>
                        <path d="M760.384929,1275.54858 C774.364562,1275.54858 788.026477,1272.68695 802.00611,1270.7792 L825.199593,1266.96369 C837.90835,1264.73798 850.617108,1262.19431 863.325866,1259.33268 L886.201629,1254.24534 C901.13442,1250.42983 915.431772,1246.29637 930.046843,1241.84495 L958.00611,1232.62414 C971.032587,1228.17272 984.059063,1223.40334 997.08554,1218.316 L1022.50305,1207.5054 L1051.41548,1194.46909 L1076.83299,1181.75074 L1087,1176.34544 L720.670061,956 L634.250509,956 L307,1153.13445 L381.663951,1227.85476 L395.961303,1232.9421 C409.940937,1237.81747 424.132383,1242.26889 438.535642,1246.29637 L458.234216,1252.01963 C479.415479,1257.31894 500.596741,1261.87635 521.778004,1265.69185 L539.252546,1268.55348 C556.197556,1271.30913 573.248473,1273.53484 590.405295,1275.23062 L610.10387,1277.13837 C632.661914,1279.04612 655.537678,1280 678.731161,1280 C701.924644,1280 720.670061,1280 742.274949,1277.45633 L760.384929,1275.54858 Z" id="Path" fill="#FFFFFF" opacity="0.168875558"></path>
                        <path d="M179,627 L373.632046,627 C380.551549,627 386.945434,623.283322 390.405186,617.25 C393.864938,611.216679 393.864938,603.783321 390.405186,597.75 C386.945434,591.716678 380.551549,588 373.632046,588 L179,588 L179,627 Z" id="Path" fill="url(#linearGradient-21)"></path>
                        <path d="M179,737 L373.632047,737 C384.328672,737 393,728.269553 393,717.5 C393,706.730447 384.328672,698 373.632047,698 L179,698 L179,737 Z" id="Path" fill="url(#linearGradient-21)"></path>
                        <circle id="Oval" fill="url(#linearGradient-22)" cx="679" cy="276" r="24"></circle>
                        <circle id="Oval" fill="url(#linearGradient-22)" cx="774" cy="276" r="24"></circle>
                        <circle id="Oval" fill="url(#linearGradient-22)" cx="869" cy="276" r="24"></circle>
                        <circle id="Oval" fill="url(#linearGradient-22)" cx="964" cy="276" r="24"></circle>
                        <circle id="Oval" fill="url(#linearGradient-22)" cx="1059" cy="276" r="24"></circle>
                        <circle id="Oval" fill="url(#linearGradient-22)" cx="679" cy="161" r="24"></circle>
                        <circle id="Oval" fill="url(#linearGradient-22)" cx="774" cy="161" r="24"></circle>
                        <circle id="Oval" fill="url(#linearGradient-22)" cx="869" cy="161" r="24"></circle>
                        <circle id="Oval" fill="url(#linearGradient-22)" cx="964" cy="161" r="24"></circle>
                        <circle id="Oval" fill="url(#linearGradient-22)" cx="1059" cy="161" r="24"></circle>
                    </g>
                </g>
            </g>
            <g id="Group-2" transform="translate(147.000000, 138.000000)" fill="#F2E2D0" fill-rule="nonzero">
                <path d="M1227.38828,473.524911 C1241.85158,473.524911 1253.5764,485.245685 1253.5764,499.703992 C1253.5764,485.245685 1265.30122,473.524911 1279.76452,473.524911 C1265.30122,473.524911 1253.5764,461.804137 1253.5764,447.34583 C1253.5764,461.804137 1241.85158,473.524911 1227.38828,473.524911 Z" id="Path"></path>
                <path d="M-1.77635684e-14,533.075128 C14.4632996,533.075128 26.1881205,544.795901 26.1881205,559.254208 C26.1881205,544.795901 37.9129414,533.075128 52.3762409,533.075128 C37.9129414,533.075128 26.1881205,521.354354 26.1881205,506.896047 C26.1881205,521.354354 14.4632996,533.075128 -1.77635684e-14,533.075128 L-1.77635684e-14,533.075128 Z" id="Path"></path>
                <path d="M705.064782,26.1790807 C719.528081,26.1790807 731.252902,37.8998544 731.252902,52.3581615 C731.252902,37.8998544 742.977723,26.1790807 757.441023,26.1790807 C742.977723,26.1790807 731.252902,14.4583071 731.252902,-6.75015599e-14 C731.252902,14.4583071 719.528081,26.1790807 705.064782,26.1790807 L705.064782,26.1790807 Z" id="Path"></path>
                <path d="M1033.13574,229.5704 C1040.6058,229.5704 1046.66147,235.623987 1046.66147,243.091464 C1046.66147,235.623987 1052.71715,229.5704 1060.18721,229.5704 C1056.59996,229.5704 1053.15964,228.145864 1050.62307,225.610172 C1048.0865,223.074481 1046.66147,219.635346 1046.66147,216.049337 C1046.66147,219.635346 1045.23645,223.074481 1042.69988,225.610172 C1040.16331,228.145864 1036.72299,229.5704 1033.13574,229.5704 L1033.13574,229.5704 Z" id="Path"></path>
                <path d="M228.210764,216.624701 C235.68082,216.624701 241.736497,222.678287 241.736497,230.145765 C241.736497,222.678287 247.792173,216.624701 255.262229,216.624701 C247.792173,216.624701 241.736497,210.571115 241.736497,203.103637 C241.736497,210.571115 235.68082,216.624701 228.210764,216.624701 L228.210764,216.624701 Z" id="Path"></path>
                <path d="M749.095358,229.282718 C756.565414,229.282718 762.62109,235.336305 762.62109,242.803782 C762.62109,235.336305 768.676767,229.282718 776.146823,229.282718 C768.676767,229.282718 762.62109,223.229132 762.62109,215.761654 C762.62109,223.229132 756.565414,229.282718 749.095358,229.282718 L749.095358,229.282718 Z" id="Path"></path>
                <path d="M1183.06993,696.190938 C1190.53998,696.190938 1196.59566,702.244525 1196.59566,709.712002 C1196.59566,702.244525 1202.65133,696.190938 1210.12139,696.190938 C1202.65133,696.190938 1196.59566,690.137352 1196.59566,682.669875 C1196.59566,690.137352 1190.53998,696.190938 1183.06993,696.190938 L1183.06993,696.190938 Z" id="Path"></path>
                <path d="M394.548496,306.093867 C402.018552,306.093867 408.074229,312.147454 408.074229,319.614931 C408.074229,312.147454 414.129905,306.093867 421.599961,306.093867 C414.129905,306.093867 408.074229,300.040281 408.074229,292.572803 C408.074229,300.040281 402.018552,306.093867 394.548496,306.093867 L394.548496,306.093867 Z" id="Path"></path>
                <path d="M495.847599,72.7835981 C503.317655,72.7835981 509.373332,78.8371845 509.373332,86.3046618 C509.373332,78.8371845 515.429009,72.7835981 522.899065,72.7835981 C519.311817,72.7835981 515.871494,71.3590616 513.334927,68.8233702 C510.79836,66.2876789 509.373332,62.8485435 509.373332,59.2625344 C509.373332,66.7300117 503.317655,72.7835981 495.847599,72.7835981 L495.847599,72.7835981 Z" id="Path"></path>
            </g>
        </g>
        <g id="travel-heavy" transform="translate(213.000000, 1.000000)" fill-rule="nonzero">
            <g id="Layer_3" fill="url(#linearGradient-23)">
                <circle id="Oval" cx="789.5" cy="789.5" r="789.217857"></circle>
            </g>
            <g id="Layer_2" transform="translate(0.000000, 93.410714)">
                <path d="M1577.27768,744.479286 C1593.61679,477.812776 1473.68753,221.038371 1258.71018,62.4107143 C1248.78559,55.2692986 1235.6959,54.2924383 1224.82125,59.8816438 C1213.9466,65.4708493 1207.12172,76.683131 1207.15179,88.91 L1207.15179,156.886429 L1058.52536,156.886429 C1048.51728,156.65461 1038.82728,160.409339 1031.5884,167.324094 C1024.34952,174.238848 1020.15514,183.746807 1019.92857,193.755 L1019.92857,350.446429 L937.262321,350.446429 C916.582216,350.446429 899.817679,367.210966 899.817679,387.891071 L899.817679,497.632679 L671.117321,497.632679 L671.117321,196.635357 C671.117321,174.205397 652.934246,156.022321 630.504286,156.022321 L525.37125,156.022321 C502.94129,156.022321 484.758214,174.205397 484.758214,196.635357 L484.758214,545.734643 L430.6075,545.734643 L373.000357,488.1275 L217.173036,488.1275 L217.173036,359.375536 C217.173036,348.375113 212.803135,337.82524 205.024662,330.046767 C197.246189,322.268294 186.696315,317.898393 175.695893,317.898393 L96.7741071,317.898393 C-58.2133917,601.914173 -24.1492341,951.758665 182.716512,1200.541 C389.582258,1449.32334 727.340373,1546.64236 1034.86571,1446.07271 C1342.39105,1345.50305 1557.38162,1067.41927 1577.27768,744.479286 L1577.27768,744.479286 Z" id="Path" fill="url(#linearGradient-24)"></path>
                <path d="M1324.67036,1274.465 L1207.72786,1156.94643 L931.213571,1101.0675 L789.5,1101.0675 L743.414286,1254.87857 L955.408571,1466.87286 C1093.50036,1436.94849 1221.02613,1370.49981 1324.67036,1274.465 L1324.67036,1274.465 Z" id="Path" fill="#000000" opacity="0.07"></path>
                <path d="M91.8775,753.696429 C92.0360573,846.372991 167.125759,921.462693 259.802321,921.62125 L403.820179,921.62125 C432.931402,921.621252 456.530711,945.220562 456.530711,974.331786 C456.530711,1003.44301 432.931402,1027.04232 403.820179,1027.04232 L73.1551786,1027.04232 C91.7698723,1067.22404 113.738351,1105.76523 138.827321,1142.25661 L403.820179,1142.25661 C496.562497,1142.25661 571.745,1067.0741 571.745,974.331786 C571.745,881.589468 496.562497,806.406964 403.820179,806.406964 L259.802321,806.406964 C230.691096,806.406964 207.091786,782.807654 207.091786,753.696429 C207.091786,724.585204 230.691096,700.985893 259.802321,700.985893 L1578.42982,700.985893 C1578.42982,699.257679 1578.42982,697.529464 1578.42982,696.089286 C1578.40151,659.18078 1575.8029,622.319051 1570.65286,585.771607 L259.802321,585.771607 C167.125759,585.930164 92.0360573,661.019867 91.8775,753.696429 Z" id="Path" fill="url(#linearGradient-25)" opacity="0.374558222"></path>
                <polyline id="Path" fill="#000000" opacity="0.07" points="311.936786 640.498393 372.424286 700.985893 671.117321 700.985893 572.321071 602.477679"></polyline>
                <rect id="Rectangle" fill="url(#linearGradient-22)" x="372.13625" y="417.270714" width="225.243929" height="225.243929" rx="14.9778571"></rect>
                <rect id="Rectangle" fill="url(#linearGradient-26)" opacity="0.6" x="372.13625" y="417.270714" width="225.243929" height="225.243929" rx="14.9778571"></rect>
                <rect id="Rectangle" fill="url(#linearGradient-22)" x="305.6" y="417.270714" width="225.243929" height="225.243929" rx="12.6735714"></rect>
                <polyline id="Path" fill="#000000" opacity="0.07" points="1206.86375 640.498393 1267.63929 700.985893 1566.04429 700.985893 1467.53607 602.477679"></polyline>
                <rect id="Rectangle" fill="url(#linearGradient-22)" x="1267.06321" y="417.270714" width="225.243929" height="225.243929" rx="14.9778571"></rect>
                <rect id="Rectangle" fill="url(#linearGradient-26)" opacity="0.6" x="1267.06321" y="417.270714" width="225.243929" height="225.243929" rx="14.9778571"></rect>
                <rect id="Rectangle" fill="url(#linearGradient-22)" x="1200.52696" y="417.270714" width="225.243929" height="225.243929" rx="12.6735714"></rect>
                <path d="M1084.16054,588.075893 L801.021429,588.075893 C769.205882,588.075893 743.414286,562.284296 743.414286,530.46875 L743.414286,247.329643 C743.414286,215.514096 769.205882,189.7225 801.021429,189.7225 L1084.16054,189.7225 C1115.97608,189.7225 1141.76768,215.514096 1141.76768,247.329643 L1141.76768,530.46875 C1141.76768,562.284296 1115.97608,588.075893 1084.16054,588.075893 Z M801.021429,247.329643 L801.021429,530.46875 L1084.16054,530.46875 L1084.16054,247.329643 L801.021429,247.329643 Z" id="Shape" fill="url(#linearGradient-27)"></path>
                <polygon id="Path" fill="url(#linearGradient-28)" points="1101.73071 543.430357 1101.73071 543.430357 1101.73071 572.233929"></polygon>
                <polygon id="Path" fill="url(#linearGradient-29)" points="1084.16054 530.46875 818.591607 530.46875 818.591607 543.430357 1084.16054 543.430357 1084.16054 530.46875 1084.16054 530.46875 1084.16054 543.430357 1101.44268 543.430357 1101.73071 260.579286 1084.16054 260.579286"></polygon>
                <path d="M760.696429,543.718393 L760.696429,260.29125 C760.696429,228.475704 786.488025,202.684107 818.303571,202.684107 L1101.44268,202.684107 C1110.24283,202.73782 1118.9137,204.807005 1126.78982,208.732857 C1115.95036,196.558586 1100.46066,189.546356 1084.16054,189.434464 L801.021429,189.434464 C769.205882,189.434464 743.414286,215.226061 743.414286,247.041607 L743.414286,530.180714 C743.805052,551.792936 756.261656,571.3676 775.674286,580.875 C766.397112,570.680258 761.082921,557.496975 760.696429,543.718393 Z" id="Path" fill="url(#linearGradient-30)"></path>
                <path d="M731.892857,398.548006 L1153.86518,398.548006 C1213.20117,398.548006 1261.3025,446.64972 1261.3025,505.985714 L1261.3025,1146.57714 C1261.3025,1164.70587 1254.06235,1182.08382 1241.18943,1194.84856 C1228.31651,1207.6133 1210.87807,1214.7072 1192.75,1214.55602 L692.143929,1214.55602 C654.601584,1214.55602 624.1675,1184.11949 624.1675,1146.57714 L624.1675,505.985714 C624.1675,477.441589 635.526185,450.070745 655.736931,429.914038 C675.947676,409.757332 703.348835,398.471867 731.892857,398.548006 Z" id="Path" fill="url(#linearGradient-31)"></path>
                <path d="M942.158929,1214.55357 L1192.75,1214.55357 C1230.22679,1214.39577 1260.56863,1184.05393 1260.72643,1146.57714 L1260.72643,505.985714 C1260.56816,446.7154 1212.55942,398.706659 1153.28911,398.548393 L742.838214,398.548393 L884.551786,540.261964 C921.400157,577.072617 942.121224,627.01039 942.158929,679.095179 L942.158929,1214.55357 Z" id="Path" fill="url(#linearGradient-32)"></path>
                <path d="M1153.86518,398.548393 L731.892857,398.548393 C672.622543,398.706659 624.613802,446.7154 624.452062,505.985714 L624.452062,545.446607 C624.225454,516.776497 635.433855,489.197446 655.598925,468.816129 C675.763995,448.434812 703.221924,436.93288 731.892857,436.857143 L1153.86518,436.857143 C1213.13549,437.015409 1261.14423,485.02415 1261.3025,544.294464 L1261.3025,505.985714 C1261.14423,446.7154 1213.13549,398.706659 1153.86518,398.548393 L1153.86518,398.548393 Z" id="Path" fill="#EDA496"></path>
                <path d="M1195.34232,408.053571 C1182.12447,402.487322 1167.9191,399.646248 1153.57714,399.699772 L742.838214,399.699772 L782.587143,436.857143 L1153.86518,436.857143 C1213.13549,437.015409 1261.14423,485.02415 1261.3025,544.294464 L1261.3025,505.985714 C1260.75692,463.126254 1234.85421,424.668081 1195.34232,408.053571 L1195.34232,408.053571 Z" id="Path" fill="url(#linearGradient-33)"></path>
                <rect id="Rectangle" fill="url(#linearGradient-34)" x="743.414286" y="588.075893" width="35.1403571" height="483.9" rx="17.5701786"></rect>
                <rect id="Rectangle" fill="url(#linearGradient-34)" x="864.389286" y="588.075893" width="35.1403571" height="483.9" rx="17.5701786"></rect>
                <rect id="Rectangle" fill="url(#linearGradient-34)" x="985.652321" y="588.075893" width="35.1403571" height="483.9" rx="17.5701786"></rect>
                <rect id="Rectangle" fill="url(#linearGradient-34)" x="1106.62732" y="588.075893" width="35.1403571" height="483.9" rx="17.5701786"></rect>
                <rect id="Rectangle" fill="url(#linearGradient-35)" x="800.157321" y="178.489107" width="285.155357" height="93.6116071" rx="28.8035714"></rect>
                <path d="M818.303571,257.986964 L818.303571,214.205536 C818.458542,202.816748 827.653355,193.621935 839.042143,193.466964 L1074.65536,193.466964 C1077.60731,193.596408 1080.52177,194.179299 1083.29643,195.195179 C1078.61548,185.079889 1068.51877,178.573116 1057.37321,178.489107 L829.825,178.489107 C813.917227,178.489107 801.021429,191.384905 801.021429,207.292679 L801.021429,243.297143 C801.195099,255.72769 809.324404,266.644185 821.183929,270.3725 C819.313102,266.510123 818.329004,262.278503 818.303571,257.986964 Z" id="Path" fill="url(#linearGradient-36)" opacity="0.329915365"></path>
                <circle id="Oval" fill="url(#linearGradient-37)" cx="788.059821" cy="1214.55357" r="60.7755357"></circle>
                <circle id="Oval" fill="url(#linearGradient-38)" cx="788.059821" cy="1214.55357" r="22.4667857"></circle>
                <circle id="Oval" fill="url(#linearGradient-37)" cx="1081.56821" cy="1214.55357" r="60.7755357"></circle>
                <circle id="Oval" fill="url(#linearGradient-38)" cx="1081.56821" cy="1214.55357" r="22.4667857"></circle>
                <polygon id="Path" fill="url(#linearGradient-39)" points="409.868929 845.291786 409.868929 848.172143 408.140714 845.579821"></polygon>
                <polygon id="Path" fill="url(#linearGradient-40)" points="387.978214 933.430714 390.858571 933.430714 388.26625 935.158929"></polygon>
                <polygon id="Path" fill="url(#linearGradient-41)" points="442.128929 1017.53714 442.128929 1019.26536 442.128929 1017.82518"></polygon>
                <polygon id="Path" fill="url(#linearGradient-42)" points="428.59125 1070.53571 430.319464 1070.53571 428.879286 1070.53571"></polygon>
                <polygon id="Path" fill="url(#linearGradient-43)" points="606.02125 1243.35714 606.02125 1245.08536 606.02125 1243.64518"></polygon>
                <polygon id="Path" fill="url(#linearGradient-44)" points="592.771607 1297.21982 594.499821 1297.21982 593.059643 1297.21982"></polygon>
                <polygon id="Path" fill="url(#linearGradient-45)" points="827.232679 14.0207143 824.928393 16.0369643 826.944643 13.7326786"></polygon>
                <polygon id="Path" fill="url(#linearGradient-46)" points="736.213393 16.325 738.229643 18.6292857 735.925357 16.6130357"></polygon>
                <polygon id="Path" fill="url(#linearGradient-47)" points="669.965179 91.2142857 669.965179 91.2142857 669.965179 89.7741071"></polygon>
                <polygon id="Path" fill="url(#linearGradient-48)" points="614.08625 91.2142857 614.08625 91.2142857 612.646071 91.2142857"></polygon>
                <polygon id="Path" fill="url(#linearGradient-49)" points="495.991607 308.969286 495.991607 308.969286 495.991607 307.529107"></polygon>
                <polygon id="Path" fill="url(#linearGradient-50)" points="440.112679 310.409464 440.112679 310.409464 438.6725 310.409464"></polygon>
                <g id="Group-3" transform="translate(390.570536, 80.589286)" fill="#F2E2D0">
                    <path d="M-6.03961325e-14,814.686531 C16.1306009,804.813142 21.2495919,783.76039 11.4532905,767.582857 C21.3266793,783.713458 42.3794312,788.832449 58.556964,779.036148 C42.4263631,788.909536 37.3073721,809.962288 47.1036735,826.139821 C37.2302847,810.00922 16.1775328,804.890229 -6.03961325e-14,814.686531 Z" id="Path"></path>
                    <path d="M39.7489286,962.625 C43.7968864,960.168441 46.7028366,956.204081 47.8271875,951.604463 C48.9515384,947.004846 48.2021384,942.146955 45.7439286,938.1 C48.2004875,942.147958 52.164848,945.053908 56.7644653,946.178259 C61.3640826,947.30261 66.2219731,946.55321 70.2689286,944.095 C66.2209707,946.551559 63.3150206,950.515919 62.1906697,955.115537 C61.0663188,959.715154 61.8157187,964.573045 64.2739286,968.62 C61.8173697,964.572042 57.8530092,961.666092 53.2533919,960.541741 C48.6537746,959.41739 43.795884,960.16679 39.7489286,962.625 Z" id="Path"></path>
                    <path d="M112.621964,745.949464 C118.878452,742.067368 120.916419,733.915501 117.222857,727.545893 C121.104953,733.802381 129.25682,735.840348 135.626428,732.146786 C129.36994,736.028882 127.331974,744.180748 131.025535,750.550357 C127.143439,744.293869 118.991573,742.255902 112.621964,745.949464 L112.621964,745.949464 Z" id="Path"></path>
                    <path d="M97.6441071,1072.74179 C104.444532,1068.52218 106.659679,1059.66159 102.645,1052.73821 C106.864604,1059.53864 115.725191,1061.75379 122.648571,1057.73911 C115.848146,1061.95871 113.632999,1070.8193 117.647678,1077.74268 C113.428074,1070.94225 104.567487,1068.72711 97.6441071,1072.74179 Z" id="Path"></path>
                    <path d="M283.429464,1.42727289 C296.987032,14.1027796 318.231888,13.465434 331.005227,-1.0658141e-13 C318.329721,13.557568 318.967066,34.8024233 332.4325,47.5757631 C318.874932,34.9002564 297.630077,35.537602 284.856737,49.003036 C297.532244,35.445468 296.894898,14.2006127 283.429464,1.42727289 L283.429464,1.42727289 Z" id="Path"></path>
                    <path d="M232.429464,88.5085518 C241.410003,96.6520293 255.290921,95.9767414 263.438584,87 C255.164273,95.8447536 255.614251,109.719102 264.444285,118.00912 C255.599532,109.734808 241.725184,110.184787 233.435165,119.014821 C241.377802,110.23739 240.932959,96.7438023 232.429464,88.5085518 Z" id="Path"></path>
                    <path d="M195.57625,192.229094 C204.421004,200.503406 218.295352,200.053427 226.58537,191.223393 C218.311058,200.068146 218.761037,213.942495 227.591071,222.232513 C218.746317,213.958201 204.871969,214.40818 196.581951,223.238214 C204.856263,214.39346 204.406284,200.519112 195.57625,192.229094 Z" id="Path"></path>
                    <path d="M384.429464,55 C390.032036,60.1350061 398.630464,60.1350061 404.233035,55 C399.098029,60.6025717 399.098029,69.2009993 404.233035,74.803571 C398.630464,69.6685649 390.032036,69.6685649 384.429464,74.803571 C389.56447,69.2009993 389.56447,60.6025717 384.429464,55 Z" id="Path"></path>
                    <path d="M152.082857,93.29125 C157.685429,98.4262561 166.283856,98.4262561 171.886428,93.29125 C166.751422,98.8938217 166.751422,107.492249 171.886428,113.094821 C166.283856,107.959815 157.685429,107.959815 152.082857,113.094821 C157.217863,107.492249 157.217863,98.8938217 152.082857,93.29125 L152.082857,93.29125 Z" id="Path"></path>
                    <path d="M134.224643,903.608929 C139.466297,900.427958 143.229179,895.294553 144.685088,889.338561 C146.140997,883.382569 145.170608,877.092142 141.9875,871.851786 C145.16847,877.09344 150.301875,880.856322 156.257867,882.312231 C162.213859,883.76814 168.504286,882.797751 173.744643,879.614643 C168.502988,882.795613 164.740107,887.929018 163.284198,893.88501 C161.828288,899.841002 162.798678,906.131429 165.981786,911.371786 C162.800816,906.130131 157.66741,902.36725 151.711418,900.91134 C145.755426,899.455431 139.464999,900.425821 134.224643,903.608929 L134.224643,903.608929 Z" id="Path"></path>
                </g>
            </g>
        </g>
    </g>
</svg>