<?xml version="1.0" encoding="UTF-8"?>
<svg width="2000px" height="1527px" viewBox="0 0 2000 1527" version="1.1" xmlns="http://www.w3.org/2000/svg" xmlns:xlink="http://www.w3.org/1999/xlink">
    <!-- Generator: Sketch 64 (93537) - https://sketch.com -->
    <title>sort_default_room</title>
    <desc>Created with Sketch.</desc>
    <defs>
        <linearGradient x1="50%" y1="109.306549%" x2="50%" y2="-54.4707924%" id="linearGradient-1">
            <stop stop-color="#D2D4CD" offset="0.07202738%"></stop>
            <stop stop-color="#9DC2BC" offset="34%"></stop>
            <stop stop-color="#4596AB" offset="96.93%"></stop>
        </linearGradient>
        <linearGradient x1="50%" y1="108.123427%" x2="50%" y2="-301.752988%" id="linearGradient-2">
            <stop stop-color="#D2D4CD" offset="0.07202738%"></stop>
            <stop stop-color="#9DC2BC" offset="19.51%"></stop>
            <stop stop-color="#4596AB" offset="100%"></stop>
        </linearGradient>
        <linearGradient x1="50%" y1="81.2923703%" x2="50%" y2="43.287324%" id="linearGradient-3">
            <stop stop-color="#DBD8CD" offset="0%"></stop>
            <stop stop-color="#93B8B3" offset="100%"></stop>
        </linearGradient>
        <linearGradient x1="50.2062576%" y1="96.8817638%" x2="50.2062576%" y2="37.6478653%" id="linearGradient-4">
            <stop stop-color="#DBD8CD" offset="0%"></stop>
            <stop stop-color="#93B8B3" offset="99.3174719%"></stop>
            <stop stop-color="#93B8B3" offset="100%"></stop>
        </linearGradient>
        <linearGradient x1="50%" y1="115.676057%" x2="50%" y2="33.4717086%" id="linearGradient-5">
            <stop stop-color="#DBD8CD" offset="0%"></stop>
            <stop stop-color="#93B8B3" offset="100%"></stop>
        </linearGradient>
        <linearGradient x1="50%" y1="482.884699%" x2="50%" y2="21.4482261%" id="linearGradient-6">
            <stop stop-color="#DBD8CD" offset="0%"></stop>
            <stop stop-color="#93B8B3" offset="100%"></stop>
        </linearGradient>
        <linearGradient x1="49.9550519%" y1="69.9840889%" x2="50%" y2="49.14006%" id="linearGradient-7">
            <stop stop-color="#DBD8CD" offset="0%"></stop>
            <stop stop-color="#93B8B3" offset="100%"></stop>
        </linearGradient>
        <linearGradient x1="48.2666667%" y1="47.8208865%" x2="50%" y2="77.0955557%" id="linearGradient-8">
            <stop stop-color="#F2E2D0" offset="0%"></stop>
            <stop stop-color="#A0E2D0" offset="22.4442264%"></stop>
            <stop stop-color="#39A9BB" offset="70.8335004%"></stop>
            <stop stop-color="#445DCE" offset="100%"></stop>
        </linearGradient>
        <linearGradient x1="48.2666667%" y1="47.124729%" x2="50%" y2="85.7517232%" id="linearGradient-9">
            <stop stop-color="#F2E2D0" offset="0%"></stop>
            <stop stop-color="#A0E2D0" offset="22.4442264%"></stop>
            <stop stop-color="#39A9BB" offset="70.8335004%"></stop>
            <stop stop-color="#445DCE" offset="100%"></stop>
        </linearGradient>
        <linearGradient x1="48.2666667%" y1="45.6749309%" x2="50%" y2="103.778818%" id="linearGradient-10">
            <stop stop-color="#F2E2D0" offset="0%"></stop>
            <stop stop-color="#A0E2D0" offset="22.4442264%"></stop>
            <stop stop-color="#39A9BB" offset="70.8335004%"></stop>
            <stop stop-color="#445DCE" offset="100%"></stop>
        </linearGradient>
        <linearGradient x1="48.2666667%" y1="42.1268268%" x2="50%" y2="147.89669%" id="linearGradient-11">
            <stop stop-color="#F2E2D0" offset="0%"></stop>
            <stop stop-color="#A0E2D0" offset="22.4442264%"></stop>
            <stop stop-color="#39A9BB" offset="70.8335004%"></stop>
            <stop stop-color="#445DCE" offset="100%"></stop>
        </linearGradient>
        <linearGradient x1="50%" y1="0.034512448%" x2="100%" y2="915.00466%" id="linearGradient-12">
            <stop stop-color="#F2E2D0" offset="0%"></stop>
            <stop stop-color="#A0E2D0" offset="75.4479806%"></stop>
            <stop stop-color="#39A9BB" offset="90.960687%"></stop>
            <stop stop-color="#445DCE" offset="100%"></stop>
        </linearGradient>
        <circle id="path-13" cx="789.5" cy="789.5" r="789.5"></circle>
        <linearGradient x1="50%" y1="49.2404719%" x2="50%" y2="-301.752988%" id="linearGradient-15">
            <stop stop-color="#D2D4CD" offset="0.07202738%"></stop>
            <stop stop-color="#9DC2BC" offset="13.6328269%"></stop>
            <stop stop-color="#4596AB" offset="100%"></stop>
        </linearGradient>
        <linearGradient x1="50.0406174%" y1="146.517159%" x2="50.0406174%" y2="-2.14067278%" id="linearGradient-16">
            <stop stop-color="#D18CA3" offset="0%"></stop>
            <stop stop-color="#208CA3" offset="17%"></stop>
            <stop stop-color="#3C4178" offset="61%"></stop>
            <stop stop-color="#241B3C" offset="100%"></stop>
        </linearGradient>
        <linearGradient x1="56.0156556%" y1="67.4935993%" x2="56.0156556%" y2="-43.8130613%" id="linearGradient-17">
            <stop stop-color="#FF9C74" offset="0%"></stop>
            <stop stop-color="#D36564" offset="60.0574935%"></stop>
            <stop stop-color="#B2314E" offset="100%"></stop>
        </linearGradient>
        <path d="M692.906174,0 L1158.19009,0 C1168.02623,0 1176,7.9739866 1176,17.8103976 L1176,936 L393,936 L393,299.914373 C393.17529,134.348902 527.345229,0.175294452 692.906174,0 Z" id="path-18"></path>
        <linearGradient x1="50.0277325%" y1="103.625554%" x2="50.0277325%" y2="-48.5647508%" id="linearGradient-19">
            <stop stop-color="#FF9C74" offset="0%"></stop>
            <stop stop-color="#D36564" offset="67%"></stop>
            <stop stop-color="#B2314E" offset="100%"></stop>
        </linearGradient>
        <linearGradient x1="49.8813333%" y1="147.768762%" x2="49.8813333%" y2="-193.676774%" id="linearGradient-20">
            <stop stop-color="#5D83AC" offset="0%"></stop>
            <stop stop-color="#006E96" offset="100%"></stop>
        </linearGradient>
        <linearGradient x1="42.9269231%" y1="45.6310952%" x2="83.7589744%" y2="73.5686544%" id="linearGradient-21">
            <stop stop-color="#F2E2D0" offset="0%"></stop>
            <stop stop-color="#A0E2D0" offset="34%"></stop>
            <stop stop-color="#39A9BB" offset="97%"></stop>
            <stop stop-color="#445DCE" offset="100%"></stop>
        </linearGradient>
        <linearGradient x1="42.9269231%" y1="-81.5439614%" x2="83.7589744%" y2="759.631884%" id="linearGradient-22">
            <stop stop-color="#F2E2D0" offset="0%"></stop>
            <stop stop-color="#A0E2D0" offset="34%"></stop>
            <stop stop-color="#39A9BB" offset="97%"></stop>
            <stop stop-color="#445DCE" offset="100%"></stop>
        </linearGradient>
    </defs>
    <g id="sort_default_room" stroke="none" stroke-width="1" fill="none" fill-rule="evenodd" transform="translate(0.000000, 0.000000)">
        <rect id="Rectangle" fill="url(#linearGradient-1)" fill-rule="nonzero" x="0" y="0" width="2000" height="1527"></rect>
        <rect id="Rectangle" fill="url(#linearGradient-2)" fill-rule="nonzero" x="0" y="1407" width="2000" height="120"></rect>
        <g id="visit-shopping-malls" transform="translate(213.000000, 1.000000)">
            <g id="Layer_3" transform="translate(2.000000, 0.000000)" fill-rule="nonzero">
                <ellipse id="Oval" fill="url(#linearGradient-3)" cx="788.882527" cy="788.786811" rx="788.651343" ry="788.633985"></ellipse>
                <path d="M1558.53716,959.465626 L1425.27235,959.465626 C1400.00481,959.465626 1375.77216,969.502897 1357.90531,987.369355 C1340.03846,1005.23581 1330.00097,1029.46793 1330.00097,1054.73491 L1330.00097,1095.60573 L1193.28221,1095.60573 L1193.28221,1266.57236 L430.535475,1266.57236 L430.535475,1160.65364 L213.512441,1160.65364 L213.512441,1061.06701 C213.512441,1049.23504 208.812105,1037.88767 200.445453,1029.52121 C192.078801,1021.15474 180.731186,1016.45451 168.898953,1016.45451 L117.953227,1016.45451 L117.953227,882.329163 L5.98776303,882.329163 C51.1021258,1264.45322 365.487252,1558.18407 749.799709,1577.27461 C1134.11217,1596.36515 1476.06085,1335.23738 1558.82499,959.465626 L1558.53716,959.465626 Z" id="Path" fill="url(#linearGradient-4)"></path>
                <path d="M1474.20327,397.92369 L1385.26413,439.370148 C1339.1004,462.308043 1285.04268,463.154329 1238.18353,441.672729 C1199.97161,422.622177 1155.16877,421.986689 1116.43188,439.945793 L991.226284,497.510317 C939.946788,521.373873 880.745906,521.373873 829.46641,497.510317 L829.46641,497.510317 C797.976937,482.906542 761.654892,482.906542 730.16542,497.510317 L684.688444,518.521369 C626.107665,545.774139 558.483033,545.774139 499.902254,518.521369 L374.984486,460.956844 C344.391564,446.849937 309.154708,446.849937 278.561786,460.956844 L178.685131,507.296287 C156.422781,517.663028 130.717228,517.663028 108.454872,507.296287 L61.2509228,485.421767 C29.3296735,562.438947 9.89698523,644.054441 3.68513137,727.19277 L108.742701,776.122616 C131.005057,786.489357 156.71061,786.489357 178.972966,776.122616 L278.561786,731.222287 C309.154708,717.11538 344.391564,717.11538 374.984486,731.222287 L499.902254,788.786811 C558.483033,816.039581 626.107665,816.039581 684.688444,788.786811 L730.16542,767.487937 C761.654892,752.884161 797.976937,752.884161 829.46641,767.487937 L885.305228,793.391973 C901.180052,800.788219 919.512642,800.788219 935.387466,793.391973 L1115.85622,709.63559 C1152.0607,691.941299 1194.26889,691.308191 1230.98781,707.908654 C1279.11052,731.408073 1335.26828,731.936854 1383.82498,709.347767 L1498.95656,656.100582 C1519.58765,646.512443 1540.72653,638.057079 1562.27894,630.772192 C1545.52823,548.955187 1515.79382,470.345364 1474.20327,397.92369 Z" id="Path" fill="url(#linearGradient-5)"></path>
                <path d="M1475.64242,400.226271 C1430.62618,320.753301 1372.19865,249.668043 1302.94504,190.115757 C1278.90919,189.226613 1255.30667,183.44853 1233.57827,173.134222 C1194.7744,156.117729 1150.44346,157.0654 1112.40227,175.724626 L991.514113,233.28915 C940.234617,257.152706 881.033735,257.152706 829.754239,233.28915 L829.754239,233.28915 C798.264766,218.685374 761.942721,218.685374 730.453249,233.28915 L684.976273,254.588024 C626.395494,281.840794 558.770862,281.840794 500.190083,254.588024 L375.272315,197.0235 C344.679393,182.916593 309.442537,182.916593 278.849615,197.0235 L261.292048,205.082533 C173.76692,283.776414 104.930057,381.030927 59.811778,489.739107 L107.879214,512.189271 C130.14157,522.556012 155.847123,522.556012 178.109479,512.189271 L277.986128,465.849829 C308.57905,451.742922 343.815906,451.742922 374.408828,465.849829 L499.326596,523.414353 C557.907376,550.667124 625.532007,550.667124 684.112786,523.414353 L730.16542,500.964189 C761.654892,486.360413 797.976937,486.360413 829.46641,500.964189 L829.46641,500.964189 C880.745906,524.827745 939.946788,524.827745 991.226284,500.964189 L1115.85622,443.399664 C1152.0607,425.705374 1194.26889,425.072265 1230.98781,441.672729 C1279.11052,465.172148 1335.26828,465.700929 1383.82498,443.111842 L1475.64242,400.226271 Z" id="Path" fill="url(#linearGradient-6)"></path>
                <path d="M789.458185,0.152314198 C591.318293,-0.0732217935 400.407522,74.5623029 254.959811,209.11205 L278.561786,198.17479 C309.154708,184.067883 344.391564,184.067883 374.984486,198.17479 L499.902254,255.739315 C558.483033,282.992085 626.107665,282.992085 684.688444,255.739315 L730.16542,234.728263 C761.654892,220.124488 797.976937,220.124488 829.46641,234.728263 L829.46641,234.728263 C880.745906,258.591819 939.946788,258.591819 991.226284,234.728263 L1116.43188,177.163739 C1153.84331,159.759445 1197.03032,159.759445 1234.44175,177.163739 C1256.9228,187.579869 1281.33745,193.168641 1306.11116,193.569628 C1162.95715,68.7302939 979.401856,0.0136133919 789.458185,0.152314198 Z" id="Path" fill="url(#linearGradient-7)"></path>
                <path d="M1402.53386,1050.12975 C1397.92392,1050.12975 1394.18682,1053.86677 1394.18682,1058.47661 C1394.18682,1063.08645 1397.92392,1066.82346 1402.53386,1066.82346 L1526.01249,1066.82346 L1532.05689,1050.12975 L1402.53386,1050.12975 Z" id="Path" fill="url(#linearGradient-8)"></path>
                <path d="M1402.53386,1097.04484 C1397.92392,1097.04484 1394.18682,1100.78185 1394.18682,1105.3917 C1394.18682,1110.00154 1397.92392,1113.73855 1402.53386,1113.73855 L1506.44012,1113.73855 C1509.03058,1107.9821 1511.62104,1102.51347 1514.2115,1097.04484 L1402.53386,1097.04484 Z" id="Path" fill="url(#linearGradient-9)"></path>
                <path d="M1402.53386,1143.6721 C1397.92392,1143.6721 1394.18682,1147.40912 1394.18682,1152.01896 C1394.18682,1156.6288 1397.92392,1160.36582 1402.53386,1160.36582 L1482.83814,1160.36582 C1485.71643,1154.60936 1489.17038,1149.14073 1492.04867,1143.6721 L1402.53386,1143.6721 Z" id="Path" fill="url(#linearGradient-10)"></path>
                <path d="M1402.53386,1191.73848 C1397.92392,1191.73848 1394.18682,1195.4755 1394.18682,1200.08534 C1394.18682,1204.69518 1397.92392,1208.43219 1402.53386,1208.43219 L1456.93354,1208.43219 C1460.38748,1202.96356 1463.26577,1197.20711 1466.71972,1191.73848 L1402.53386,1191.73848 Z" id="Path" fill="url(#linearGradient-11)"></path>
            </g>
            <g id="Group" transform="translate(130.078352, 1060.886984)" fill="url(#linearGradient-12)" fill-rule="nonzero">
                <rect id="Rectangle" x="-4.4408921e-14" y="-1.77635684e-15" width="12.0868248" height="12.0826526"></rect>
                <rect id="Rectangle" x="21.0080527" y="-1.77635684e-15" width="12.0868248" height="12.0826526"></rect>
                <rect id="Rectangle" x="42.3038869" y="-1.77635684e-15" width="12.0868248" height="12.0826526"></rect>
                <rect id="Rectangle" x="-4.4408921e-14" y="20.7131188" width="12.0868248" height="12.0826526"></rect>
                <rect id="Rectangle" x="21.0080527" y="20.7131188" width="12.0868248" height="12.0826526"></rect>
                <rect id="Rectangle" x="42.3038869" y="20.7131188" width="12.0868248" height="12.0826526"></rect>
                <rect id="Rectangle" x="21.0080527" y="41.4262377" width="12.0868248" height="12.0826526"></rect>
                <rect id="Rectangle" x="42.3038869" y="41.4262377" width="12.0868248" height="12.0826526"></rect>
                <rect id="Rectangle" x="21.0080527" y="62.1393565" width="12.0868248" height="12.0826526"></rect>
                <rect id="Rectangle" x="42.3038869" y="62.1393565" width="12.0868248" height="12.0826526"></rect>
                <rect id="Rectangle" x="21.0080527" y="82.8524753" width="12.0868248" height="12.0826526"></rect>
                <rect id="Rectangle" x="42.3038869" y="82.8524753" width="12.0868248" height="12.0826526"></rect>
                <rect id="Rectangle" x="42.3038869" y="103.565594" width="12.0868248" height="12.0826526"></rect>
                <rect id="Rectangle" x="42.3038869" y="124.278713" width="12.0868248" height="12.0826526"></rect>
            </g>
            <g id="Layer_2">
                <mask id="mask-14" fill="white">
                    <use xlink:href="#path-13"></use>
                </mask>
                <g id="Mask"></g>
                <g mask="url(#mask-14)" fill-rule="nonzero">
                    <g transform="translate(130.000000, 450.000000)">
                        <path d="M0,956 C165.318951,1160.90474 414.353012,1280 677.5,1280 C940.646988,1280 1189.68105,1160.90474 1355,956 L0,956 Z" id="Path" fill="url(#linearGradient-15)"></path>
                        <path d="M383.666985,1228.4245 C649.903906,1324.39947 946.155951,1284.92028 1178,1122.56994 L1178,956 L180,956 C180.018493,1000.0014 197.504765,1042.19386 228.613181,1073.2983 L383.666985,1228.4245 Z" id="Path" fill="#000000" opacity="0.0715448289"></path>
                        <g id="Path" fill="none">
                            <use fill="url(#linearGradient-16)" xlink:href="#path-18"></use>
                            <use fill="url(#linearGradient-17)" xlink:href="#path-18"></use>
                        </g>
                        <path d="M178,376.913686 L178,956 L1175,956 L1175,880.314913 C1175.14657,681.432068 1039.42891,508.205951 846.374482,460.866891 L255.230147,316.492819 C236.708445,312.405915 217.330373,316.808473 202.388791,328.497993 C187.447208,340.187513 178.50331,357.942598 178,376.913686 Z" id="Path" fill="url(#linearGradient-19)"></path>
                        <path d="M713.976341,763 C722.273679,763 729,769.730829 729,778.033365 L729,956.000097 L625.054567,956.000097 L625.054567,779.312775 C624.695704,775.109135 626.11866,770.948069 628.975972,767.845639 C631.833284,764.743209 635.861946,762.984984 640.078226,763 L713.976341,763 Z" id="Path" fill="url(#linearGradient-20)"></path>
                        <path d="M760.384929,1275.54858 C774.364562,1275.54858 788.026477,1272.68695 802.00611,1270.7792 L825.199593,1266.96369 C837.90835,1264.73798 850.617108,1262.19431 863.325866,1259.33268 L886.201629,1254.24534 C901.13442,1250.42983 915.431772,1246.29637 930.046843,1241.84495 L958.00611,1232.62414 C971.032587,1228.17272 984.059063,1223.40334 997.08554,1218.316 L1022.50305,1207.5054 L1051.41548,1194.46909 L1076.83299,1181.75074 L1087,1176.34544 L720.670061,956 L634.250509,956 L307,1153.13445 L381.663951,1227.85476 L395.961303,1232.9421 C409.940937,1237.81747 424.132383,1242.26889 438.535642,1246.29637 L458.234216,1252.01963 C479.415479,1257.31894 500.596741,1261.87635 521.778004,1265.69185 L539.252546,1268.55348 C556.197556,1271.30913 573.248473,1273.53484 590.405295,1275.23062 L610.10387,1277.13837 C632.661914,1279.04612 655.537678,1280 678.731161,1280 C701.924644,1280 720.670061,1280 742.274949,1277.45633 L760.384929,1275.54858 Z" id="Path" fill="#FFFFFF" opacity="0.168875558"></path>
                        <path d="M179,627 L373.632046,627 C380.551549,627 386.945434,623.283322 390.405186,617.25 C393.864938,611.216679 393.864938,603.783321 390.405186,597.75 C386.945434,591.716678 380.551549,588 373.632046,588 L179,588 L179,627 Z" id="Path" fill="url(#linearGradient-21)"></path>
                        <path d="M179,737 L373.632047,737 C384.328672,737 393,728.269553 393,717.5 C393,706.730447 384.328672,698 373.632047,698 L179,698 L179,737 Z" id="Path" fill="url(#linearGradient-21)"></path>
                        <circle id="Oval" fill="url(#linearGradient-22)" cx="679" cy="276" r="24"></circle>
                        <circle id="Oval" fill="url(#linearGradient-22)" cx="774" cy="276" r="24"></circle>
                        <circle id="Oval" fill="url(#linearGradient-22)" cx="869" cy="276" r="24"></circle>
                        <circle id="Oval" fill="url(#linearGradient-22)" cx="964" cy="276" r="24"></circle>
                        <circle id="Oval" fill="url(#linearGradient-22)" cx="1059" cy="276" r="24"></circle>
                        <circle id="Oval" fill="url(#linearGradient-22)" cx="679" cy="161" r="24"></circle>
                        <circle id="Oval" fill="url(#linearGradient-22)" cx="774" cy="161" r="24"></circle>
                        <circle id="Oval" fill="url(#linearGradient-22)" cx="869" cy="161" r="24"></circle>
                        <circle id="Oval" fill="url(#linearGradient-22)" cx="964" cy="161" r="24"></circle>
                        <circle id="Oval" fill="url(#linearGradient-22)" cx="1059" cy="161" r="24"></circle>
                    </g>
                </g>
            </g>
            <g id="Group-2" transform="translate(147.000000, 138.000000)" fill="#F2E2D0" fill-rule="nonzero">
                <path d="M1227.38828,473.524911 C1241.85158,473.524911 1253.5764,485.245685 1253.5764,499.703992 C1253.5764,485.245685 1265.30122,473.524911 1279.76452,473.524911 C1265.30122,473.524911 1253.5764,461.804137 1253.5764,447.34583 C1253.5764,461.804137 1241.85158,473.524911 1227.38828,473.524911 Z" id="Path"></path>
                <path d="M-1.77635684e-14,533.075128 C14.4632996,533.075128 26.1881205,544.795901 26.1881205,559.254208 C26.1881205,544.795901 37.9129414,533.075128 52.3762409,533.075128 C37.9129414,533.075128 26.1881205,521.354354 26.1881205,506.896047 C26.1881205,521.354354 14.4632996,533.075128 -1.77635684e-14,533.075128 L-1.77635684e-14,533.075128 Z" id="Path"></path>
                <path d="M705.064782,26.1790807 C719.528081,26.1790807 731.252902,37.8998544 731.252902,52.3581615 C731.252902,37.8998544 742.977723,26.1790807 757.441023,26.1790807 C742.977723,26.1790807 731.252902,14.4583071 731.252902,-6.75015599e-14 C731.252902,14.4583071 719.528081,26.1790807 705.064782,26.1790807 L705.064782,26.1790807 Z" id="Path"></path>
                <path d="M1033.13574,229.5704 C1040.6058,229.5704 1046.66147,235.623987 1046.66147,243.091464 C1046.66147,235.623987 1052.71715,229.5704 1060.18721,229.5704 C1056.59996,229.5704 1053.15964,228.145864 1050.62307,225.610172 C1048.0865,223.074481 1046.66147,219.635346 1046.66147,216.049337 C1046.66147,219.635346 1045.23645,223.074481 1042.69988,225.610172 C1040.16331,228.145864 1036.72299,229.5704 1033.13574,229.5704 L1033.13574,229.5704 Z" id="Path"></path>
                <path d="M228.210764,216.624701 C235.68082,216.624701 241.736497,222.678287 241.736497,230.145765 C241.736497,222.678287 247.792173,216.624701 255.262229,216.624701 C247.792173,216.624701 241.736497,210.571115 241.736497,203.103637 C241.736497,210.571115 235.68082,216.624701 228.210764,216.624701 L228.210764,216.624701 Z" id="Path"></path>
                <path d="M749.095358,229.282718 C756.565414,229.282718 762.62109,235.336305 762.62109,242.803782 C762.62109,235.336305 768.676767,229.282718 776.146823,229.282718 C768.676767,229.282718 762.62109,223.229132 762.62109,215.761654 C762.62109,223.229132 756.565414,229.282718 749.095358,229.282718 L749.095358,229.282718 Z" id="Path"></path>
                <path d="M1183.06993,696.190938 C1190.53998,696.190938 1196.59566,702.244525 1196.59566,709.712002 C1196.59566,702.244525 1202.65133,696.190938 1210.12139,696.190938 C1202.65133,696.190938 1196.59566,690.137352 1196.59566,682.669875 C1196.59566,690.137352 1190.53998,696.190938 1183.06993,696.190938 L1183.06993,696.190938 Z" id="Path"></path>
                <path d="M394.548496,306.093867 C402.018552,306.093867 408.074229,312.147454 408.074229,319.614931 C408.074229,312.147454 414.129905,306.093867 421.599961,306.093867 C414.129905,306.093867 408.074229,300.040281 408.074229,292.572803 C408.074229,300.040281 402.018552,306.093867 394.548496,306.093867 L394.548496,306.093867 Z" id="Path"></path>
                <path d="M495.847599,72.7835981 C503.317655,72.7835981 509.373332,78.8371845 509.373332,86.3046618 C509.373332,78.8371845 515.429009,72.7835981 522.899065,72.7835981 C519.311817,72.7835981 515.871494,71.3590616 513.334927,68.8233702 C510.79836,66.2876789 509.373332,62.8485435 509.373332,59.2625344 C509.373332,66.7300117 503.317655,72.7835981 495.847599,72.7835981 L495.847599,72.7835981 Z" id="Path"></path>
            </g>
        </g>
    </g>
</svg>